<svg xmlns="http://www.w3.org/2000/svg" xmlns:xlink="http://www.w3.org/1999/xlink" width="32.277" height="41.913" viewBox="0 0 32.277 41.913">
  <defs>
    <clipPath id="clip-path">
      <rect id="Rectángulo_248" data-name="Rectángulo 248" width="32.277" height="41.913" fill="none"/>
    </clipPath>
  </defs>
  <g id="Grupo_2163" data-name="Grupo 2163" transform="translate(0 0)">
    <g id="Grupo_2162" data-name="Grupo 2162" transform="translate(0 0)" clip-path="url(#clip-path)">
      <path id="Trazado_1227" data-name="Trazado 1227" d="M35.8,20.838c-.018.729-.057,1.448-.111,2.153,0,.056-.008.116-.016.173-.039.466-.082.927-.139,1.378-.01.074-.018.147-.028.219-.047.353-.1.7-.149,1.043l-6.39-5.342L21.8,23.71l-.526-1.54-4.538-13.3L7.616,13.475c.08-.126.16-.252.245-.382.306-.476.633-.951.966-1.422.01-.016.026-.034.036-.049.361-.507.737-1.007,1.123-1.5q.51-.653,1.048-1.288l.235-.273q.672-.777,1.38-1.512c.093-.1.183-.193.276-.289l0,0c.064-.067.129-.131.193-.2.319-.322.644-.636.968-.94a0,0,0,0,0,0,0c.237-.219.474-.435.711-.644.085-.074.173-.152.257-.224.413-.355.827-.7,1.247-1.02A21.993,21.993,0,0,1,20.376,1.2c.461-.216.925-.4,1.383-.566A10.9,10.9,0,0,1,24.4.034c.167-.015.337-.026.5-.031h.008a8.128,8.128,0,0,1,1,.031c.142.013.283.031.423.049l.2.033c.02.005.039.008.062.013h0a.58.58,0,0,1,.059.013s.005,0,.008,0,.018,0,.026.005a.1.1,0,0,0,.033.008.158.158,0,0,1,.018.005l.013,0a.29.29,0,0,1,.047.01c.031.008.067.013.095.02A.186.186,0,0,1,26.944.2c.039.008.078.018.116.028.007,0,.013,0,.018,0L27.1.243c.013,0,.028,0,.039.01l.018.005a.055.055,0,0,1,.028.008l.028.008a.55.55,0,0,1,.067.02c.008,0,.018,0,.028.005l.1.033c.031.01.065.018.1.028a.061.061,0,0,1,.026.013L27.7.426l.232.09a6.91,6.91,0,0,1,.84.4c.116.064.231.131.345.206a9.17,9.17,0,0,1,2.2,1.986c.208.258.409.523.6.8A15.922,15.922,0,0,1,33.3,6.391c.054.124.111.25.165.379.041.093.08.185.118.281l0,0v0l0,0c.078.185.152.376.227.567.021.054.039.108.059.162.147.4.288.806.417,1.224.087.275.17.559.25.842q.363,1.317.62,2.71v0c.147.777.266,1.571.361,2.372.065.538.116,1.076.16,1.618,0,.016,0,.031,0,.046.059.76.1,1.525.114,2.287.016.654.013,1.306,0,1.947" transform="translate(-3.535 0)" fill="#f6f3c6"/>
      <path id="Trazado_1228" data-name="Trazado 1228" d="M30.116,46.283q-.286.626-.618,1.226c-.139.25-.281.5-.43.739A18.239,18.239,0,0,1,27.924,49.9c-.124.16-.244.317-.373.472a.388.388,0,0,0-.028.033c-.113.134-.224.265-.34.392a16.632,16.632,0,0,1-1.35,1.37c-.059.057-.124.114-.185.168l-.175.152a16.831,16.831,0,0,1-2.53,1.808c-.247.147-.5.286-.754.417-.44.227-.884.432-1.34.618a15.719,15.719,0,0,1-2.287.737,15.045,15.045,0,0,1-1.731.309c-.407.049-.817.083-1.231.1H15.5c-.306.01-.611.01-.915,0-.288-.008-.577-.026-.863-.051a.224.224,0,0,0-.059-.005c-.3-.033-.613-.074-.948-.129a0,0,0,0,1,0,0l-.049-.008-.008,0c-.028,0-.057-.007-.088-.013l0,0c-.134-.024-.268-.049-.4-.075-.062-.01-.118-.023-.177-.036-.016,0-.036-.01-.052-.013l-.023-.005a.084.084,0,0,0-.026,0l-.1-.024a.071.071,0,0,0-.026,0,.357.357,0,0,0-.062-.016c-.031-.005-.062-.013-.087-.018l-.008,0a.525.525,0,0,0-.051-.015c-.057-.013-.114-.028-.167-.044-.024,0-.041-.01-.059-.013h-.005s0,0,0,0a.237.237,0,0,0-.047-.013l-.026-.008c-.039-.011-.077-.021-.113-.034l-.036-.008a.008.008,0,0,1,0,0l-.024-.005a.017.017,0,0,0-.015,0l-.052-.018-.036-.008-.044-.016s0,0-.008,0l-.018,0-.121-.039-.283-.093c-.114-.036-.227-.075-.343-.116a.02.02,0,0,1-.01,0L10.1,55.6l-.036-.016-.049-.016c-.01,0-.021-.01-.031-.013l-.049-.016a.392.392,0,0,0-.059-.023L9.7,55.45c-.018,0-.036-.016-.051-.02l-.031-.013a.1.1,0,0,1-.028-.013L9.567,55.4l-.154-.067a.153.153,0,0,1-.031-.013.008.008,0,0,0,0,0L9.341,55.3c-.407-.175-.8-.363-1.179-.569-.255-.137-.5-.281-.747-.432-.034-.024-.072-.044-.106-.067-.078-.049-.158-.1-.235-.152-.041-.026-.083-.054-.124-.083l-.123-.083s-.005,0-.008,0c-.018-.011-.033-.024-.051-.036-.087-.062-.18-.126-.268-.19-.013-.008-.023-.018-.036-.026s0,0-.005-.005c-.039-.026-.077-.057-.116-.085l-.062-.046-.294-.227c-.206-.168-.4-.335-.6-.51a.185.185,0,0,1-.021-.02c-.24-.214-.469-.433-.7-.66a.011.011,0,0,0-.008-.01c-.255-.263-.5-.531-.739-.806a.054.054,0,0,1-.008-.013c-.183-.216-.363-.438-.533-.664a15.558,15.558,0,0,1-.925-1.36q-.166-.271-.317-.549a.021.021,0,0,1-.005-.008q-.363-.649-.664-1.334c-.129-.3-.25-.589-.361-.891Q.854,45.8.661,45.1c0-.005,0-.013-.005-.018-.1-.369-.2-.744-.273-1.123a.388.388,0,0,1-.018-.09h0c-.013-.062-.023-.124-.036-.183-.1-.5-.173-1-.227-1.507v0c-.024-.222-.044-.443-.057-.662C0,40.91-.009,40.3.009,39.682a18.507,18.507,0,0,1,.268-2.576c.013-.085.031-.173.047-.26.041-.221.087-.443.141-.667l9.5-4.8L14.938,45.97l9.6-4.353,4.68,3.913Z" transform="translate(0 -14.568)" fill="#f6f3c6"/>
    </g>
  </g>
</svg>
