<svg version="1.2" xmlns="http://www.w3.org/2000/svg" viewBox="0 0 321 243" width="321" height="243"><defs><clipPath clipPathUnits="userSpaceOnUse" id="cp1"><path d="m0 0h321v243h-321z"/></clipPath><linearGradient id="P" gradientUnits="userSpaceOnUse"/><linearGradient id="g1" x1="159" y1="527.4" x2="160.9" y2="186.1" href="#P"><stop stop-color="#fff"/><stop offset=".3" stop-color="#fefdfc"/><stop offset=".5" stop-color="#fbf9f3"/><stop offset=".6" stop-color="#f7f2e5"/><stop offset=".7" stop-color="#f2e7d0"/><stop offset=".9" stop-color="#eadab6"/><stop offset="1" stop-color="#dfc68d"/></linearGradient></defs><style>.a{fill:#f7f4c7}.b{mix-blend-mode:multiply;fill:url(#g1)}.c{fill:#fbf3ca}.d{fill:#f8f2dd}.e{fill:#ac9356}.f{fill:#fffdfc}.g{mix-blend-mode:multiply;fill:#cacaca}.h{fill:#fff}.i{fill:#ebebeb}.j{fill:#3e3e3d}.k{fill:#222221}.l{fill:#6c4421}.m{fill:#a16692}.n{mix-blend-mode:multiply;fill:#a16692}.o{fill:#dcadde}.p{opacity:.2;mix-blend-mode:multiply}.q{mix-blend-mode:multiply;fill:#9b9b9a}.r{fill:#f9eb37}.s{fill:#e5bda1}.t{mix-blend-mode:multiply;fill:#dcadde}.u{fill:#cc7b88}.v{mix-blend-mode:multiply;fill:#895763}.w{fill:#f1dff5}.x{fill:#d8a4a4}.y{mix-blend-mode:multiply;fill:#d8a4a4}</style><g clip-path="url(#cp1)"><path class="a" d="m0 3.7h320v239.3h-320z"/><path class="b" d="m0 182h320v330h-320z"/><path class="c" d="m0 0h320v100h-320z"/><path class="d" d="m0 176.6h320v23.1h-320z"/><path class="e" d="m0 197.4h320v2.3h-320z"/><path class="f" d="m0 174h320v2.3h-320z"/><path class="g" d="m38.2 210.2c-16 0-29-1.8-29-3.9 0-2.2 13-4 29-4 16 0 28.9 1.8 28.9 4 0 2.1-12.9 3.9-28.9 3.9z"/><path class="h" d="m66.8 179.9v0.5q0 0.3 0 0.5 0 0.2 0 0.3 0 0.3 0 0.5 0 0.1 0 0.1 0 0.2-0.1 0.3 0 0.3 0 0.6 0 0 0 0.1 0 0.3-0.1 0.7 0 0.3 0 0.6 0 0.1 0 0.2-0.1 0.3-0.1 0.7 0 0.1-0.1 0.1 0 0.4-0.1 0.7 0.1 0 0 0 0 0.4-0.1 0.7 0 0.1 0 0.1-0.1 0.3-0.1 0.6-0.1 0.2-0.1 0.4 0 0.1 0 0.2-0.1 0.2-0.2 0.5 0 0.1 0 0.2-0.1 0.2-0.1 0.4-0.1 0.3-0.2 0.6-0.1 0.3-0.2 0.5 0 0.1 0 0.1-0.1 0.2-0.1 0.4-0.1 0.2-0.2 0.4-0.1 0.3-0.2 0.6-0.1 0.4-0.3 0.6-0.5 1.4-1.2 2.7-0.1 0.2-0.2 0.4-0.2 0.2-0.3 0.5-0.2 0.2-0.3 0.4 0 0 0 0.1-0.2 0.2-0.4 0.5 0.1 0 0 0-0.1 0.2-0.3 0.4 0 0.1-0.1 0.2-0.1 0.2-0.3 0.4 0 0 0 0.1-0.2 0.2-0.3 0.4-0.1 0.1-0.1 0.1-0.2 0.2-0.3 0.4-0.6 0.7-1.3 1.4-0.1 0.2-0.3 0.4-0.4 0.4-0.8 0.8-0.1 0.1-0.3 0.2-0.3 0.3-0.6 0.6-0.2 0.2-0.4 0.3-0.1 0.1-0.1 0.2-0.2 0.1-0.4 0.3-0.1 0-0.1 0.1-0.2 0.1-0.5 0.3 0 0 0 0.1-0.2 0.1-0.4 0.2-0.2 0.1-0.3 0.2-0.2 0.2-0.5 0.4-0.8 0.5-1.6 1-0.2 0.1-0.5 0.3-0.3 0.1-0.6 0.3-0.2 0.1-0.5 0.2-0.3 0.2-0.5 0.3-0.1 0-0.1 0-0.3 0.1-0.5 0.2-0.1 0.1-0.1 0.1-0.3 0.1-0.5 0.2-0.3 0.1-0.6 0.3-0.3 0.1-0.6 0.2-0.6 0.2-1.2 0.4-0.3 0.1-0.6 0.2-1 0.2-1.9 0.4-0.3 0.1-0.7 0.2-0.2 0-0.5 0.1-0.1 0-0.2 0-0.3 0-0.6 0.1-0.3 0-0.6 0.1-1.3 0.1-2.7 0.2-0.6 0-1.3 0-0.7 0-1.4 0-0.3 0-0.6 0-0.4-0.1-0.7-0.1-0.7-0.1-1.3-0.1-0.4-0.1-0.7-0.1-0.3-0.1-0.7-0.1-0.3-0.1-0.6-0.1 0-0.1 0 0-0.3-0.1-0.6-0.2-0.4 0-0.7-0.1-0.3-0.1-0.6-0.2-0.3-0.1-0.6-0.2-0.4 0-0.7-0.1-0.6-0.2-1.2-0.5-0.3-0.1-0.6-0.2-0.3-0.1-0.6-0.2 0.1 0 0 0-0.2-0.1-0.4-0.2-0.2-0.1-0.5-0.2-0.2-0.1-0.4-0.2-0.1-0.1-0.2-0.1-0.2-0.1-0.4-0.2-0.2-0.1-0.5-0.3-0.2-0.1-0.4-0.2-0.3-0.1-0.5-0.3-1.4-0.8-2.7-1.8-0.2-0.2-0.5-0.4-0.3-0.2-0.5-0.4-0.3-0.3-0.7-0.5-0.1-0.2-0.3-0.4-0.3-0.2-0.5-0.4v-0.1q-0.3-0.2-0.5-0.4-0.2-0.3-0.4-0.5 0 0-0.1-0.1-0.2-0.2-0.4-0.4 0 0-0.1-0.1-0.1-0.2-0.3-0.4l-0.1-0.1q-0.1-0.2-0.3-0.3-1.5-1.9-2.6-4-0.2-0.3-0.3-0.6 0 0.1 0 0-0.1-0.2-0.3-0.5 0 0 0-0.1-0.1-0.2-0.2-0.4-0.1-0.2-0.1-0.3-0.1-0.1-0.2-0.3 0-0.1-0.1-0.3-0.1-0.2-0.2-0.4-0.1-0.3-0.2-0.6 0-0.1-0.1-0.2-0.1-0.2-0.1-0.5-0.1-0.3-0.3-0.6-0.4-1.4-0.7-3-0.1-0.2-0.1-0.4-0.1-0.1-0.1-0.3 0-0.2-0.1-0.4 0-0.2 0-0.3 0-0.2-0.1-0.4 0-0.2 0-0.4-0.1-0.1-0.1-0.3 0-0.2 0-0.4 0-0.1 0-0.2 0-0.1 0-0.1 0-0.1-0.1-0.1 0-0.2 0-0.4 0-0.3 0-0.5 0-0.1 0-0.2-0.1-0.3-0.1-0.6v-0.2q0-0.3 0-0.6 0-0.4 0-0.8 0-0.2 0-0.4 0-0.2 0-0.3 0-0.1 0-0.2 0-0.1 0-0.3 0-0.1 0-0.2 0-0.1 0-0.1v-0.1q0-0.1 0-0.2 0-0.1 0-0.3 0-0.2 0-0.4 0.1-0.4 0.1-0.8 0-0.2 0-0.4 0-0.2 0.1-0.5 0-0.2 0-0.4l0.1-0.4q0-0.2 0-0.4 0 0 0-0.1 0.1-0.2 0.1-0.4 0-0.2 0-0.4 0.1-0.2 0.1-0.4 0-0.2 0.1-0.4 0 0 0-0.1 0-0.2 0-0.4 0.1-0.2 0.1-0.4 0.1-0.2 0.1-0.4 0 0 0-0.1 0-0.2 0.1-0.4 0-0.2 0.1-0.4 0-0.2 0-0.3c0.2 0 14.5 4.1 27.3 4.1 12.9 0 27.2-4.1 27.4-4.1q0 0.1 0.1 0.3 0 0.2 0 0.4 0.1 0.2 0.1 0.3 0 0.1 0 0.1 0 0.1 0 0.1 0.1 0.1 0.1 0.1 0 0.1 0 0.3 0.1 0.2 0.1 0.4 0 0.2 0.1 0.5 0 0.2 0 0.3 0.1 0.5 0.2 0.9 0 0.1 0 0.2 0 0.2 0 0.4 0 0 0 0.1 0.1 0.1 0.1 0.2 0 0.1 0 0.2 0 0.1 0 0.3 0 0.2 0.1 0.3 0 0.2 0 0.4 0 0.2 0 0.5 0.1 0.2 0.1 0.3v0.2q0 0.1 0 0.2 0 0.1 0 0.1 0 0.3 0 0.7 0 0.1 0.1 0.2v0.1q0 0 0 0.1 0 0.1 0 0.2 0 0.1 0 0.3 0 0.1 0 0.2 0 0.1 0 0.3z"/><path class="i" d="m39 202.8c-7.6 0-14.4-2.7-19.5-7.3-5.5-5-9-12.5-9-21.4q0-0.7 0-1.3c-0.4 2.6-0.7 5.1-0.7 7.5 0 17.3 12.7 28.7 28.5 28.7 15.7 0 28.2-11.2 28.5-28.1-2.9 13.3-14.3 21.9-27.8 21.9z"/><path class="j" d="m66.8 180.3v0.1c0 0.7-0.1 2.9-0.2 3.7q0 0.1 0 0.1v0.1c-0.2-0.1-13.9-5.6-28.3-5.6-14.4 0-28.3 5.2-28.3 5.2q0 0 0-0.1c0-0.8-0.1-2.7-0.2-3.4q0 0 0-0.1 0-0.2 0-0.4 0-0.1 0-0.2 0-0.1 0-0.2 0-0.2 0-0.3 0-0.1 0-0.2 0-0.1 0-0.2 0 0 0-0.1 0 0 0-0.1 0-0.1 0.1-0.3 0-0.2 0-0.4 0-0.4 0.1-0.8 0-0.2 0-0.5 0-0.2 0-0.4 0-0.2 0.1-0.4 0-0.2 0-0.4 0.1-0.2 0.1-0.4 0-0.1 0-0.1 0-0.2 0-0.4 0.1-0.2 0.1-0.4 0.1-0.4 0.1-0.8 0 0 0-0.1 0.1-0.2 0.1-0.4 0-0.2 0.1-0.4 0-0.2 0.1-0.4-0.1 0 0-0.1 0-0.2 0.1-0.4 0-0.2 0.1-0.4 0-0.2 0-0.3c0.2 0 14.4 4.1 27.3 4.1 12.9 0 27.4-4.1 27.4-4.1q0 0.1 0 0.3 0.1 0.2 0.1 0.4 0.1 0.2 0.1 0.3 0 0.1 0 0.2 0 0 0 0.1 0.1 0.1 0.1 0.3 0 0.2 0.1 0.4 0 0.2 0 0.5 0.1 0.1 0.1 0.3 0.1 0.4 0.1 0.9 0 0.1 0.1 0.2 0 0.2 0 0.4 0 0 0 0.1 0.1 0.2 0.1 0.4 0 0.1 0 0.3 0 0.2 0 0.3 0.1 0.2 0.1 0.4 0 0.3 0 0.5 0 0.2 0.1 0.4 0 0 0 0.1 0 0.1 0 0.3 0 0.4 0 0.9 0 0.1 0 0.2 0 0.1 0 0.2 0 0.1 0 0.3 0 0.1 0 0.2 0 0.1 0 0.3 0 0.2 0 0.4z"/><path class="k" d="m11.9 183.3c-0.9-2.9-1.4-5.9-1.4-9.2q0-0.7 0.1-1.3c-0.5 2.6-0.8 5.1-0.8 7.5q0 0.2 0 0.4c0 0.7 0.1 2.2 0.2 2.9q0 0.2 0 0.3c0.1 0 0.7-0.3 1.9-0.6z"/><path class="k" d="m66.8 180.9q-0.4 1.6-0.9 3.1 0.6 0.3 0.7 0.3-0.1-0.1 0-0.1c0-0.7 0.1-2.3 0.2-3.3z"/><path class="h" d="m65.6 170.7c0 0-14.4 4.2-27.3 4.2-13 0-27.2-4.1-27.3-4.2 3.4-15.2 14.3-31.2 27.3-31.2 12.9 0 23.8 16 27.3 31.2z"/><path class="h" d="m56.5 150.7c-1.8-2.4-3.8-4.6-6-6.4 0 0-3.4-1.6-3-0.6 0.3 0.5 2 1.2 3.6 2.8 1.9 1.6 3.6 4 3.9 4.5z"/><path class="h" d="m56.5 150.7c-1.8-2.4-3.8-4.6-6-6.4 0 0-3.4-1.6-3-0.6 0.3 0.5 2 1.2 3.6 2.8 1.9 1.6 3.6 4 3.9 4.5z"/><path class="h" d="m56.5 150.7c-1.8-2.4-3.8-4.6-6-6.4 0 0-3.4-1.6-3-0.6 0.3 0.5 2 1.2 3.6 2.8 1.9 1.6 3.6 4 3.9 4.5z"/><path class="i" d="m56.5 150.7c-1.8-2.4-3.8-4.6-6-6.4 0 0-3.4-1.6-3-0.6 0.3 0.5 2 1.2 3.6 2.8 1.9 1.6 3.6 4 3.9 4.5z"/><path class="h" d="m22.2 150.5c0.8-1.8 3.9-5.3 6.6-6.9 1.2-0.7 1.9-2 0.4-1.7-3.9 2.4-7.5 6.1-10.4 10.6 1-0.7 2.1-1.4 3.4-2z"/><path class="h" d="m22.2 150.5c0.8-1.8 3.9-5.3 6.6-6.9 1.2-0.7 1.9-2 0.4-1.7-3.9 2.4-7.5 6.1-10.4 10.6 1-0.7 2.1-1.4 3.4-2z"/><path class="h" d="m22.2 150.5c0.8-1.8 3.9-5.3 6.6-6.9 1.2-0.7 1.9-2 0.4-1.7-3.9 2.4-7.5 6.1-10.4 10.6 1-0.7 2.1-1.4 3.4-2z"/><path class="i" d="m22.2 150.5c0.8-1.8 3.9-5.3 6.6-6.9 1.2-0.7 1.9-2 0.4-1.7-3.9 2.4-7.5 6.1-10.4 10.6 1-0.7 2.1-1.4 3.4-2z"/><path class="j" d="m21.8 157.5c-2 3.5-7.8 6.1-5.3 9.4 2.5 3.3 10.5 2.4 13.8-0.1 3.3-2.5 3.9-7.1 1.5-10.4-2.5-3.2-6.8-4.6-10 1.1z"/><path class="k" d="m29.9 163.4c-1.5 1.7-7 2.2-8.3 0.3-1.6-2.3 1-3.4 2.2-5.3 1.6-2.7 4.1-3.1 5.7-0.8 1.2 1.9 1.9 4 0.4 5.7z"/><path class="j" d="m54.5 157.5c2 3.5 7.7 6.1 5.3 9.4-2.5 3.3-10.6 2.4-13.9-0.1-3.3-2.5-3.9-7.1-1.4-10.4 2.4-3.3 6.8-4.6 10 1.1z"/><path class="k" d="m46.3 163.3c1.5 1.8 7.1 2.2 8.4 0.4 1.6-2.3-1.1-3.4-2.2-5.3-1.7-2.7-4.2-3.1-5.7-0.8-1.2 1.9-1.9 4-0.5 5.7z"/><path class="h" d="m27.4 163.7c-1.4 0-2.6-1.1-2.6-2.6 0-1.5 1.2-2.7 2.6-2.7 1.5 0 2.7 1.2 2.7 2.7 0 1.5-1.2 2.6-2.7 2.6z"/><path class="l" d="m27.4 163.6c-1.3 0-2.4-1.1-2.4-2.5 0-1.4 1.1-2.5 2.4-2.5 1.4 0 2.5 1.1 2.5 2.5 0 1.4-1.1 2.5-2.5 2.5z"/><path class="k" d="m27.4 162.4c-0.7 0-1.2-0.6-1.2-1.3 0-0.7 0.5-1.3 1.2-1.3 0.7 0 1.3 0.6 1.3 1.3 0 0.7-0.6 1.3-1.3 1.3z"/><path class="h" d="m26.8 160.8c-0.3 0-0.5-0.2-0.5-0.5 0-0.4 0.2-0.6 0.5-0.6q0.6 0 0.6 0.6c0 0.3-0.2 0.5-0.6 0.5z"/><path class="h" d="m27.4 163.7c-1.4 0-2.6-1.1-2.6-2.6 0-1.5 1.2-2.7 2.6-2.7 1.5 0 2.7 1.2 2.7 2.7 0 1.5-1.2 2.6-2.7 2.6z"/><path class="k" d="m27.4 163.2c-1.1 0-2-1-2-2.1 0-1.2 0.9-2.1 2-2.1 1.2 0 2.1 0.9 2.1 2.1 0 1.1-0.9 2.1-2.1 2.1z"/><path class="h" d="m26.8 160.8c-0.3 0-0.5-0.2-0.5-0.5 0-0.4 0.2-0.6 0.5-0.6q0.6 0 0.6 0.6c0 0.3-0.2 0.5-0.6 0.5z"/><path class="h" d="m49.3 163.7c-1.5 0-2.7-1.1-2.7-2.6 0-1.5 1.2-2.7 2.7-2.7 1.4 0 2.6 1.2 2.6 2.7 0 1.5-1.2 2.6-2.6 2.6z"/><path class="l" d="m49.3 163.6c-1.4 0-2.5-1.1-2.5-2.5 0-1.4 1.1-2.5 2.5-2.5 1.3 0 2.5 1.1 2.5 2.5 0 1.4-1.2 2.5-2.5 2.5z"/><path class="k" d="m49.3 162.4c-0.7 0-1.3-0.6-1.3-1.3 0-0.7 0.6-1.3 1.3-1.3 0.7 0 1.2 0.6 1.2 1.3 0 0.7-0.5 1.3-1.2 1.3z"/><path class="h" d="m48.6 160.8c-0.3 0-0.6-0.2-0.6-0.5 0-0.4 0.3-0.6 0.6-0.6 0.3 0 0.6 0.2 0.6 0.6 0 0.3-0.3 0.5-0.6 0.5z"/><path class="h" d="m49.3 163.7c-1.5 0-2.7-1.1-2.7-2.6 0-1.5 1.2-2.7 2.7-2.7 1.4 0 2.6 1.2 2.6 2.7 0 1.5-1.2 2.6-2.6 2.6z"/><path class="k" d="m49.3 163.2c-1.2 0-2.1-1-2.1-2.1 0-1.2 0.9-2.1 2.1-2.1 1.1 0 2.1 0.9 2.1 2.1 0 1.1-1 2.1-2.1 2.1z"/><path class="h" d="m48.6 160.8c-0.3 0-0.6-0.2-0.6-0.5 0-0.4 0.3-0.6 0.6-0.6 0.3 0 0.6 0.2 0.6 0.6 0 0.3-0.3 0.5-0.6 0.5z"/><path class="m" d="m40.8 170.4c-0.3 0.6-1.1 1.1-2.5 1.1-1.4 0-2.1-0.5-2.6-1.1q0.4 0.1 0.8 0.1 0.5 0.1 1 0 0.2 0 0.4-0.1 0.2-0.1 0.4-0.1 0.1 0 0.3 0.1 0.2 0 0.5 0.1 0.4 0.1 0.9 0 0.2 0 0.4 0 0.2-0.1 0.4-0.1z"/><path class="n" d="m40.4 170.3c-0.3 0.4-1 0.7-2.1 0.7-1.2 0-1.8-0.3-2.1-0.7q0.3 0.1 0.6 0.1 0.4 0.1 0.8 0 0.2 0 0.4-0.1 0.1 0 0.3 0 0.1 0 0.3 0 0.1 0.1 0.3 0.1 0.4 0 0.8 0 0.2 0 0.4 0 0.1 0 0.3-0.1z"/><path class="k" d="m40.8 170.2q-0.2 0.1-0.4 0.1-0.2 0-0.4 0-0.4 0-0.8-0.1h-0.3q-0.1 0-0.2-0.1-0.1 0-0.2-0.1v-1.2h-0.4v1.2q-0.2 0.1-0.3 0.1-0.2 0.1-0.4 0.1-0.4 0.1-0.8 0.1-0.1 0-0.3 0h-0.1-0.1q-0.1 0-0.2 0l-0.2-0.1h-0.1-0.1l-0.2-0.1q-0.1 0-0.2 0l-0.2-0.1q0.1 0.1 0.3 0.2 0.1 0 0.2 0.1h0.1l0.1 0.1q0.5 0.1 0.9 0.2 0.5 0 1-0.1 0.2 0 0.4-0.1 0.2 0 0.4-0.1 0.2 0 0.3 0.1 0.2 0.1 0.5 0.1 0.4 0.1 0.9 0 0.2 0 0.5 0 0.2-0.1 0.4-0.1 0.4-0.2 0.7-0.4c-0.2 0.1-0.5 0.2-0.8 0.2z"/><path class="o" d="m54.8 171.8c-1.8 0-3.2-1.5-3.2-3.2 0-1.8 1.4-3.2 3.2-3.2 1.7 0 3.1 1.4 3.1 3.2 0 1.7-1.4 3.2-3.1 3.2z"/><path class="o" d="m21.9 171.8c-1.7 0-3.1-1.4-3.1-3.2 0-1.8 1.4-3.2 3.1-3.2 1.8 0 3.2 1.4 3.2 3.2 0 1.8-1.4 3.2-3.2 3.2z"/><path class="j" d="m40.9 167.5c0 1-1.2 1.9-2.7 1.9-1.5 0-2.7-0.9-2.7-1.9 0-1.1 1.2-0.9 2.7-0.9 1.5 0 2.7-0.1 2.7 0.9z"/><path class="k" d="m40.9 167.5c0 1-1.2 1.9-2.7 1.9-1.5 0-2.7-0.9-2.7-1.9 0-1.1 1.3 0.3 2.8 0.3 1.4 0 2.6-1.4 2.6-0.3z"/><path class="j" d="m20 150.4c2.5 2.8 2.2-2.1 5-4.6 2.7-2.5 7.5-1.8 4.9-4.5-2.5-2.8-6.8-3-9.5-0.5-2.8 2.6-3 6.9-0.4 9.6z"/><path class="k" d="m22.4 143.3c1.7-1.5 4.3-1.4 5.9 0.3q0.2 0.2 0.3 0.3c-1.2 0.4-2.6 0.9-3.7 1.9-1.2 1.1-1.8 2.7-2.3 3.8q-0.2-0.1-0.5-0.4c-1.5-1.7-1.4-4.3 0.3-5.9z"/><path class="j" d="m56.9 150.4c-2.5 2.7-2.3-2.1-5-4.6-2.8-2.5-7.5-1.8-5-4.6 2.5-2.7 6.8-2.9 9.6-0.4 2.7 2.5 2.9 6.8 0.4 9.6z"/><path class="k" d="m54.4 143.3c-1.7-1.5-4.3-1.4-5.9 0.3q-0.1 0.2-0.3 0.3c1.2 0.4 2.6 0.9 3.7 1.9 1.2 1.1 1.8 2.6 2.3 3.8q0.2-0.1 0.5-0.4c1.5-1.7 1.4-4.3-0.3-5.9z"/><path class="j" d="m27.6 196.4c1.7 0.8 3.7 3.1 4.7 4.3 1.4 1.9 2.7 4.5 1.9 6.4-1.4 3.1-6.1 3-10.4 1.1-4.3-1.9-6.6-6.1-5.2-9.2 1.4-3.2 4.7-4.6 9-2.6z"/><path class="k" d="m33.5 202.5c0 0.6 0 1.2-0.3 1.8-1.4 3.1-6.1 3-10.4 1.1-2-0.9-3.6-2.3-4.6-3.9 0.3 2.6 2.4 5.3 5.6 6.7 4.3 1.9 9 2 10.4-1.1 0.6-1.4 0.1-3.1-0.7-4.6z"/><path class="j" d="m48.7 196.6c-2 0.8-4.8 4.3-5.8 5.7-1.2 1.8-1.6 3-0.8 4.7 1.4 3.2 6.1 3.1 10.3 1.2 4.3-1.9 6.7-6.1 5.3-9.2-1.5-3.2-4.7-4.4-9-2.4z"/><path class="k" d="m54.7 205.9c-4.3 1.9-9 1.9-10.4-1.2-0.8-1.8-0.4-2.9 0.8-4.7 0.3-0.5 0.9-1.2 1.5-2-1.5 1.4-3.1 3.3-3.7 4.3-1.2 1.8-1.6 3-0.8 4.7 1.4 3.1 6 3.1 10.3 1.2 1.9-0.9 3.5-2.2 4.4-3.6q-0.9 0.7-2.1 1.3z"/><path class="j" d="m22.8 178.9c0.7 4.3 3.7 10.2 1.2 12.5-2.6 2.3-7.2 1.4-10.4-2.1-2.1-2.2-3.1-5.9-2.7-8.8 0.1-1.5 0.7-2.9 1.5-3.7 0.9-0.8 2.4-1.2 3.9-1.4 2.9-0.2 6 0 6.5 3.5z"/><path class="k" d="m24 189.5c-2.6 2.3-7.2 1.4-10.4-2.1-1.6-1.7-2.6-4.3-2.7-6.7-0.3 2.9 0.6 6.4 2.7 8.7 3.2 3.4 7.8 4.4 10.4 2 0.9-0.9 1.1-2.2 0.9-3.8-0.1 0.8-0.4 1.4-0.9 1.9z"/><path class="p" d="m277.8 211.1c-17.7 0-32.1-2-32.1-4.5 0-2.5 14.4-4.6 32.1-4.6 17.8 0 32.2 2.1 32.2 4.6 0 2.5-14.4 4.5-32.2 4.5z"/><path class="j" d="m303.8 199.5c0.9 0.9 1.3 3 1.2 4.2-0.1 1.3-0.7 2.5-1.3 3.5-1.2 1.7-2.7 3.1-4.7 3.7-1.9 0.6-4.2 0.2-5.6-1.2-1.4-1.4-1.7-3.9-0.5-5.5 0.7-0.8 1.7-1.3 2.6-1.9 0.9-0.6 1.8-1.4 2-2.5 0.3-1.5-0.9-2.7-2.1-3.3-1.2-0.6-2.5-0.8-0.6-1.7 1.6-0.7 3.5 0 4.9 0.8 1.5 0.8 3.1 1.3 4.3 2.6q-0.9 0-1.7 0c0.8 0.2 1.5 0.6 2.1 1.1-0.2 0-0.5 0-0.6 0.2z"/><path class="q" d="m295.4 196.5c0.8 0.4 1.7 1.2 2 2.1q0.1-0.3 0.1-0.5c0.3-1.5-0.9-2.7-2.1-3.3q-0.1 0-0.2-0.1-0.2 0.1-0.4 0.1c-1.9 0.9-0.6 1.1 0.6 1.7z"/><path class="q" d="m303.7 205.5c-1.1 1.7-2.7 3.1-4.7 3.7-1.9 0.6-4.2 0.2-5.6-1.2-0.6-0.6-1-1.4-1.2-2.3-0.3 1.4 0.2 3 1.2 4 1.5 1.4 3.7 1.8 5.6 1.2 2-0.6 3.6-2 4.7-3.7 0.7-1.1 1.2-2.2 1.3-3.5q0-0.6-0.1-1.3c-0.1 1.1-0.6 2.2-1.2 3.1z"/><path class="j" d="m301.6 181.5q0 0.9-0.1 1.8-0.1-0.2-0.2-0.5 0.1 1.3 0 2.5-0.2-0.4-0.3-0.7c0.1 0.3 0.1 0.7 0 1-0.1 0.3-0.2 0.5-0.2 0.7q0 0.1 0 0.1 0 0.2-0.1 0.3 0 0.2 0 0.3-0.1 0.4-0.2 0.8-0.1 0.3-0.1 0.7-0.1 0.2-0.1 0.3 0 0.1 0 0.2-0.1 0-0.1 0.1 0 0 0 0.1 0 0.1-0.1 0.3 0 0 0 0.1 0 0.1-0.1 0.2 0 0.1 0 0.3-0.1 0.1-0.1 0.3-0.1 0.1-0.1 0.2 0 0.1-0.1 0.2v0.1q-0.1 0.2-0.1 0.3-0.1 0.1-0.1 0.3-0.1 0.3-0.2 0.6 0 0-0.1 0 0 0 0 0.1 0 0.1 0 0.1 0 0 0 0.1-0.1 0.1-0.1 0.2-0.1 0.1-0.1 0.2-0.1 0.1-0.1 0.3-0.1 0.2-0.3 0.5-0.1 0.3-0.2 0.5-0.1 0.2-0.1 0.3-0.1 0.1-0.2 0.2 0 0.1 0 0.1 0 0.1 0 0.1-0.1 0-0.1 0.1-0.1 0.3-0.3 0.5 0 0 0 0.1-0.1 0.2-0.3 0.4 0 0.1 0 0.1-0.1 0.2-0.2 0.3 0 0.1-0.1 0.2-0.1 0.1-0.1 0.2-0.1 0-0.1 0.1-0.1 0.1-0.1 0.1-0.1 0.3-0.3 0.5-0.2 0.3-0.4 0.6-0.1 0.1-0.2 0.2 0 0.1 0 0.1-0.1 0.1-0.1 0.1-0.1 0.1-0.1 0.1-0.1 0.1-0.2 0.3-0.1 0.1-0.2 0.2-0.1 0.2-0.2 0.3-0.1 0.1-0.2 0.2-0.1 0.2-0.2 0.3-0.3 0.3-0.6 0.6 0 0.1 0 0.1-0.1 0.1-0.2 0.2 0 0-0.1 0-0.1 0.2-0.2 0.3-0.1 0.1-0.2 0.2-0.1 0.1-0.2 0.2 0 0-0.1 0-0.3 0.4-0.6 0.7-0.2 0.1-0.3 0.2-0.1 0.1-0.2 0.2-0.1 0.1-0.3 0.2-0.1 0.1-0.2 0.2-0.1 0.1-0.3 0.2l-0.2 0.2q-0.2 0.1-0.3 0.2-0.1 0.1-0.2 0.2-0.1 0-0.2 0.1-0.1 0.1-0.2 0.1-0.1 0.1-0.2 0.2-0.1 0.1-0.2 0.2-0.2 0-0.3 0.1-0.1 0.1-0.3 0.2-0.3 0.2-0.7 0.4-0.3 0.3-0.7 0.5-0.1 0-0.2 0.1-0.2 0.1-0.3 0.2-0.2 0-0.3 0.1-0.2 0.1-0.3 0.2-0.1 0-0.3 0.1-0.2 0.1-0.3 0.1-0.4 0.3-0.9 0.4-0.3 0.2-0.6 0.3-0.2 0.1-0.3 0.1-0.2 0.1-0.3 0.1-0.1 0.1-0.3 0.1-0.3 0.1-0.7 0.3-0.3 0.1-0.6 0.1-0.1 0.1-0.2 0.1-0.2 0.1-0.4 0.1-0.2 0.1-0.3 0.1-0.1 0-0.1 0-0.1 0.1-0.2 0.1 0 0-0.1 0-0.1 0-0.3 0.1-0.2 0-0.3 0-0.1 0.1-0.2 0.1-0.1 0-0.2 0-0.1 0.1-0.3 0.1h-0.1q-0.1 0-0.2 0-0.1 0.1-0.1 0.1-0.1 0-0.2 0 0 0-0.1 0-0.1 0-0.2 0.1-0.1 0-0.1 0 0 0-0.1 0-0.1 0-0.2 0-0.1 0-0.2 0.1-0.2 0-0.3 0-0.2 0-0.3 0-0.2 0-0.4 0.1-0.1 0-0.2 0-0.1 0-0.2 0-0.1 0-0.1 0-0.1 0-0.1 0-0.1 0-0.2 0-0.1 0-0.2 0-0.3 0.1-0.5 0.1-0.2 0-0.3 0-0.1 0-0.2 0-0.1 0-0.1 0-0.1 0-0.1 0-0.1 0-0.2 0-0.3 0-0.5 0-0.2 0-0.4 0-0.2 0-0.4 0-0.2 0-0.3 0-0.1 0-0.1 0-0.1 0-0.1 0 0 0-0.1 0h-0.1q-0.1 0-0.1 0-0.2 0-0.3 0 0 0-0.1 0 0 0-0.1 0-0.1 0-0.1 0-0.1 0-0.2 0-0.2 0-0.3 0-0.2 0-0.4 0-0.1-0.1-0.2-0.1 0 0-0.1 0 0 0-0.1 0-0.1 0-0.1 0 0 0-0.1 0-0.1 0-0.1 0 0 0-0.1 0-0.1 0-0.1 0-0.1 0-0.2 0-0.1-0.1-0.3-0.1-0.1 0-0.1 0-0.1 0-0.2 0-0.2 0-0.3-0.1-0.2 0-0.4 0 0 0-0.1-0.1-0.1 0-0.3 0-0.2 0-0.4-0.1-0.1 0-0.2 0-0.2-0.1-0.3-0.1-0.1 0-0.2 0-0.2-0.1-0.4-0.1 0 0-0.1 0-0.1-0.1-0.1-0.1-0.1 0-0.1 0-0.1 0-0.2-0.1-0.2 0-0.3 0-0.2-0.1-0.3-0.1-0.2-0.1-0.4-0.1-0.3-0.1-0.6-0.2-0.1-0.1-0.3-0.1-0.3-0.1-0.6-0.2-0.6-0.3-1.2-0.5-0.2-0.1-0.3-0.1-0.1 0-0.1-0.1-0.4-0.2-0.8-0.4-0.5-0.2-0.9-0.4-0.2-0.1-0.3-0.2-0.1 0-0.3-0.1-0.2-0.2-0.5-0.3 0 0-0.1-0.1 0 0-0.1 0-0.1-0.1-0.2-0.2-0.2-0.1-0.4-0.2-0.1-0.1-0.2-0.1-0.1-0.1-0.2-0.2-0.1 0-0.2-0.1-0.6-0.4-1.1-0.8-0.3-0.2-0.5-0.4-0.1-0.1-0.2-0.1-0.1-0.2-0.2-0.3-0.1 0-0.2-0.1-0.1-0.1-0.1-0.1-0.1 0-0.1-0.1-0.1 0-0.2-0.1 0 0 0-0.1-0.1 0-0.1-0.1-0.1 0-0.1 0-0.1-0.1-0.1-0.1-0.1-0.1-0.1-0.1-0.1-0.1-0.1-0.1 0 0-0.1-0.1-0.1 0-0.1-0.1-0.1-0.1-0.2-0.1 0 0 0-0.1-0.1-0.1-0.2-0.2-0.1-0.1-0.2-0.2-0.1-0.1-0.2-0.2-0.1 0-0.1-0.1-0.5-0.5-1-1.2-0.1-0.1-0.2-0.2-0.3-0.3-0.4-0.5-0.1-0.1-0.2-0.3-0.1 0-0.1 0 0 0 0-0.1 0 0-0.1 0-0.1-0.2-0.2-0.3 0-0.1-0.1-0.2 0-0.1-0.1-0.2-0.1-0.1-0.2-0.2 0 0 0-0.1-0.1-0.1-0.1-0.1-0.2-0.3-0.3-0.5-0.1-0.1-0.1-0.2-0.1-0.1-0.1-0.2-0.1 0-0.2-0.1l-0.1-0.2q-0.1-0.2-0.2-0.4-0.1-0.2-0.2-0.3 0 0 0-0.1-0.1-0.1-0.2-0.3-0.1-0.2-0.2-0.4 0-0.1-0.1-0.2 0 0 0-0.1 0 0-0.1-0.1 0-0.2-0.1-0.3 0 0 0-0.1-0.1 0-0.1 0 0-0.1 0-0.1-0.1-0.2-0.1-0.3-0.1-0.1-0.2-0.3 0-0.2-0.1-0.3-0.1-0.2-0.1-0.3-0.1-0.2-0.1-0.3-0.1-0.2-0.2-0.4 0-0.1-0.1-0.2 0-0.1 0-0.1 0-0.1-0.1-0.2 0-0.1 0-0.2-0.1-0.3-0.2-0.6-0.1-0.3-0.2-0.5 0-0.2-0.1-0.4 0-0.2-0.1-0.4-0.1-0.3-0.1-0.5 0 0 0-0.1-0.1-0.4-0.2-0.9 0-0.1-0.1-0.2 0-0.1 0-0.2 0-0.1-0.1-0.3 0-0.1 0-0.1 0-0.1 0-0.1 0-0.2 0-0.4 0 0-0.1-0.1 0-0.2 0-0.4 0-0.2-0.1-0.4 0-0.1 0-0.2 0-0.1 0-0.3 0 0 0-0.1 0-0.1 0-0.1 0-0.1 0-0.2 0-0.1 0-0.1c-0.1-0.5-0.1-1-0.1-1.6 0-0.6-0.3-1.2-0.2-1.9q-0.1 0.3-0.3 0.5 0.1-1 0.2-2.1-0.1 0.2-0.2 0.3 0.1-0.8 0.3-1.5-0.2 0.1-0.3 0.3c0.2-1 0.8-1.9 0.9-2.9q0-0.2 0.1-0.4 0-0.2 0-0.4 0.1-0.2 0.1-0.4 0-0.2 0.1-0.5 0-0.1 0.1-0.3-0.1 0 0-0.1 0-0.2 0.1-0.5 0-0.2 0.1-0.4 0 0 0-0.1 0-0.1 0-0.1 0.1-0.4 0.2-0.8 0-0.1 0.1-0.3 0.1-0.3 0.2-0.7 0-0.1 0-0.1 0-0.2 0.1-0.3 0.1 0 0.1 0 0 0 0.1 0 0.1 0.3 0.3 0.5 0 0 0.1 0 0 0.1 0 0.1c0.4 0.3 0.9 0.5 1.3 0.7q1.3 0.9 2.8 1.7 2.8 1.5 5.9 2.6c4.1 1.5 8.3 2.4 12.6 2.6 5 0.3 10 0.3 14.9-0.8 1.6-0.3 3.1-0.8 4.6-1.3 2.9-1 6.2-2.5 8.3-4.7q0.1-0.1 0.1-0.1 0.1-0.2 0.3-0.3 0 0 0 0.1 0 0.1 0 0.1 0 0 0 0.1 0.1 0.4 0.2 0.9 0.1 0.2 0.1 0.4 0.1 0.6 0.3 1.2 0 0.2 0 0.4 0.1 0.1 0.1 0.3 0 0.2 0.1 0.3 0 0.3 0.1 0.6 0 0.2 0 0.4 0 0.2 0.1 0.4 0 0.2 0 0.3 0 0.2 0.1 0.4 0 0.2 0 0.3 0 0 0 0.1 0 0 0 0.1 0 0.1 0 0.2 0 0 0 0.1 0 0 0.1 0.1c0.1 1.1 0.5 2.1 0.7 3.2q-0.1-0.3-0.3-0.6 0.1 0.5 0.1 1z"/><path class="q" d="m301.1 182q0 0.2 0 0.3 0 0.2 0 0.4 0 0.2 0 0.5 0 0.3 0 0.6-0.1 0.4-0.1 0.7 0 0.1 0 0.1 0 0.2 0 0.3 0 0.2 0 0.3 0 0 0 0.1c0 0 0 0.1-0.1 0.1q0 0.3 0 0.6 0 0 0 0.1-0.1 0.1-0.1 0.2 0 0 0 0.1 0 0.1 0 0.3-0.1 0.1-0.1 0.3-0.1 0.4-0.1 0.8-0.1 0.3-0.2 0.7 0 0.1-0.1 0.3 0 0.1 0 0.2 0 0 0 0.1-0.1 0.2-0.1 0.3 0 0.1-0.1 0.2 0 0.1 0 0.1-0.1 0.2-0.1 0.3 0 0.2-0.1 0.3 0 0.2-0.1 0.3 0 0.1 0 0.2 0 0-0.1 0.1 0 0.1-0.1 0.3 0 0.1-0.1 0.3-0.1 0.3-0.2 0.5 0 0.1 0 0.1 0 0.1 0 0.1 0 0-0.1 0.1 0 0.2-0.1 0.3 0 0.1-0.1 0.2 0 0.1-0.1 0.2-0.1 0.3-0.2 0.6-0.1 0.2-0.3 0.5 0 0.1-0.1 0.3-0.1 0.1-0.1 0.2 0 0 0 0.1 0 0-0.1 0 0 0 0 0.1 0 0 0 0.1-0.2 0.3-0.3 0.5 0 0-0.1 0.1-0.1 0.2-0.2 0.4 0 0.1-0.1 0.1 0 0.1-0.1 0.2-0.1 0.2-0.1 0.3-0.1 0.1-0.2 0.2 0 0.1 0 0.1-0.1 0-0.1 0 0 0 0 0.1-0.2 0.2-0.4 0.5-0.2 0.3-0.3 0.6-0.1 0.1-0.2 0.2 0 0-0.1 0.1 0 0-0.1 0.1 0 0 0 0.1-0.1 0.1-0.2 0.2 0 0.1-0.1 0.1-0.1 0.1-0.1 0.2-0.1 0.1-0.2 0.2-0.1 0.2-0.2 0.3-0.1 0.1-0.2 0.2-0.3 0.4-0.6 0.7 0 0-0.1 0.1-0.1 0.1-0.2 0.2-0.1 0.1-0.2 0.2-0.1 0.2-0.2 0.3-0.2 0.1-0.3 0.2-0.3 0.3-0.7 0.7-0.1 0.1-0.3 0.2-0.1 0.1-0.2 0.2-0.1 0.1-0.2 0.2-0.1 0.1-0.3 0.2-0.1 0.1-0.2 0.2-0.1 0.1-0.3 0.2-0.1 0.1-0.2 0.2-0.1 0.1-0.2 0.1-0.1 0.1-0.2 0.2-0.1 0.1-0.2 0.1-0.1 0.1-0.2 0.2-0.2 0.1-0.3 0.1-0.1 0.1-0.3 0.2-0.1 0.1-0.2 0.2-0.7 0.4-1.4 0.8-0.2 0.1-0.3 0.2-0.1 0.1-0.3 0.1-0.1 0.1-0.3 0.2-0.1 0.1-0.3 0.1-0.1 0.1-0.3 0.2-0.1 0.1-0.3 0.1-0.4 0.2-0.9 0.4-0.3 0.2-0.6 0.3-0.1 0-0.3 0.1-0.1 0.1-0.3 0.1-0.1 0.1-0.2 0.1-0.4 0.1-0.7 0.2-0.3 0.1-0.6 0.2-0.2 0.1-0.3 0.1-0.2 0-0.3 0.1-0.2 0-0.4 0.1-0.1 0-0.1 0-0.1 0-0.2 0.1-0.2 0-0.4 0.1-0.1 0-0.3 0-0.1 0.1-0.1 0.1-0.1 0-0.2 0-0.2 0.1-0.3 0.1-0.1 0-0.1 0-0.1 0-0.3 0 0 0.1-0.1 0.1-0.1 0-0.1 0-0.1 0-0.1 0-0.2 0-0.3 0.1 0 0-0.1 0-0.2 0-0.2 0-0.2 0-0.3 0-0.1 0.1-0.3 0.1-0.2 0-0.3 0-0.2 0-0.3 0.1-0.1 0-0.2 0-0.1 0-0.2 0 0 0-0.1 0h-0.1q0 0-0.1 0-0.1 0-0.2 0 0 0-0.1 0-0.3 0.1-0.6 0.1-0.1 0-0.2 0-0.1 0-0.2 0-0.1 0-0.1 0-0.1 0-0.2 0 0 0-0.1 0-0.3 0-0.5 0-0.2 0-0.4 0-0.2 0-0.4 0-0.2 0-0.4 0 0 0-0.1 0-0.1 0-0.1 0-0.1 0-0.2 0 0 0-0.1 0-0.1 0-0.2 0-0.1 0-0.1 0-0.1 0-0.1 0-0.1 0-0.2 0-0.1 0-0.2 0-0.1 0-0.2 0 0 0-0.1 0-0.1 0-0.3-0.1-0.1 0-0.2 0-0.1 0-0.1 0-0.1 0-0.1 0-0.1 0-0.1 0 0 0-0.1 0-0.1 0-0.1 0-0.1 0-0.1 0-0.1 0-0.2 0 0 0-0.1-0.1-0.1 0-0.3 0-0.1 0-0.2 0 0 0-0.1 0-0.2 0-0.3-0.1-0.2 0-0.4 0-0.1 0-0.1-0.1-0.2 0-0.3 0-0.2 0-0.4-0.1-0.1 0-0.2 0-0.2-0.1-0.3-0.1-0.1 0-0.2 0-0.2-0.1-0.4-0.1 0 0-0.1 0-0.1-0.1-0.1-0.1-0.1 0-0.1 0-0.1 0-0.2-0.1-0.2 0-0.3 0-0.2-0.1-0.3-0.1-0.2-0.1-0.4-0.1-0.3-0.1-0.6-0.2-0.2-0.1-0.3-0.1-0.3-0.1-0.6-0.2-0.6-0.3-1.2-0.5-0.2-0.1-0.3-0.2-0.1 0.1-0.1 0-0.4-0.2-0.8-0.4-0.5-0.2-0.9-0.4-0.2-0.1-0.3-0.2-0.1 0-0.3-0.1-0.2-0.2-0.5-0.3 0 0-0.1-0.1-0.1 0-0.1 0-0.1-0.1-0.2-0.2-0.2-0.1-0.4-0.2-0.1-0.1-0.2-0.1-0.1-0.1-0.2-0.2-0.1 0-0.2-0.1-0.6-0.4-1.1-0.8-0.2-0.2-0.5-0.4-0.1-0.1-0.2-0.2-0.1-0.1-0.2-0.2-0.1 0-0.2-0.1 0 0-0.1-0.1-0.1 0-0.1-0.1-0.1 0-0.2-0.1 0 0 0-0.1-0.1 0-0.1-0.1-0.1 0-0.1 0-0.1-0.1-0.1-0.2-0.1 0-0.1 0-0.1-0.1-0.1-0.1 0 0-0.1-0.1-0.1-0.1-0.1-0.1-0.1-0.1-0.2-0.2-0.1-0.1-0.2-0.2-0.1-0.1-0.2-0.2-0.1-0.1-0.2-0.2 0 0-0.1-0.1-0.5-0.5-1-1.2-0.1-0.1-0.2-0.2-0.2-0.3-0.4-0.5-0.1-0.1-0.2-0.3-0.1 0-0.1 0 0 0 0-0.1 0 0-0.1 0-0.1-0.2-0.2-0.3 0-0.1-0.1-0.2 0-0.1-0.1-0.2-0.1-0.1-0.2-0.2 0 0 0-0.1-0.1 0-0.1-0.1-0.2-0.2-0.3-0.5-0.1-0.1-0.1-0.2-0.1-0.1-0.1-0.2-0.1 0-0.2-0.1 0-0.1-0.1-0.2-0.1-0.2-0.2-0.4-0.1-0.2-0.2-0.3 0 0 0-0.1-0.1-0.1-0.2-0.3-0.1-0.2-0.2-0.4 0-0.1-0.1-0.2 0 0 0-0.1-0.1 0-0.1-0.1-0.1-0.2-0.1-0.3 0 0 0-0.1-0.1 0-0.1 0 0 0 0-0.1-0.1-0.1-0.1-0.3-0.1-0.1-0.2-0.3 0-0.1-0.1-0.3-0.1-0.2-0.1-0.3-0.1-0.2-0.1-0.3-0.1-0.2-0.2-0.4 0-0.1-0.1-0.2 0-0.1 0-0.1-0.7-1.9-1.1-4-0.2-1.2-0.4-2.5 0-0.1 0-0.3-0.1-1.4-0.1-2.8v-0.1q0-0.1 0-0.2 0-2.2 0.2-4.5 0.1-0.2 0.1-0.5 0.1-0.9 0.3-1.8 0-0.2 0.1-0.5 0 0.1 0 0.1-0.1 0.6-0.1 1.2 0 0.1 0 0.3 0 0.4 0.1 0.9 0 0.9 0.1 1.7 0 0.6 0.1 1.1 0 0.2 0 0.3 0.3 2.3 1 4.5 0.4 1.1 0.8 2.2 0.1 0.2 0.2 0.4 1.1 2.6 2.7 4.9c1 1.5 1.6 3.1 2.8 4.4q-0.2-0.5 0-1.1c0.5 0.7 1.2 1.2 1.9 1.8q0.7 0.5 1.5 1.1 2.3 1.6 4.9 2.7 0.2 0.1 0.4 0.1 0.4 0.2 0.9 0.4 0.8 0.3 1.7 0.6c1.3 0.3 2.6 0.5 4 0.8 1.1 0.2 2 0.9 3.2 1.2-0.1 0-0.2-0.7-0.2-0.9 0.6 0.5 1 1.2 1.5 1.7-0.2-0.2 1.5-1.3 1.7-1.4q0.1 0.4 0 0.8c0.9-0.3 1.8-0.8 2.7-1.3 0.7-0.4 1.5-0.5 2.3-0.7q0.3-0.1 0.7-0.2 1.6-0.4 3.2-1.1 0.1 0 0.2-0.1 2.3-0.9 4.3-2.3 0.6-0.3 1.1-0.7 0.1-0.1 0.1-0.1 1.4-1 2.6-2.3 0.1 0.5 0.2 0.9c1.4-1.2 2.3-3.3 3.2-4.9 1.1-2 2.3-4 3-6.2q0.5-1.4 0.8-3 0 0 0.1 0z"/><path class="q" d="m301.6 181.5q0 0.9-0.1 1.8-0.1-0.2-0.2-0.5 0.1 1.3 0 2.5-0.2-0.4-0.3-0.7c0.1 0.3 0.1 0.7 0 1q-0.5-0.7-1.6-0.6-0.8 0.2-1.9 0.6c-1.1 0.3-2.4 0.9-3.8 1.5q-0.8 0.4-1.7 0.8-0.8 0.3-1.6 0.7-0.6 0.3-1.3 0.6-0.9 0.5-1.9 0.9-0.4 0.3-0.9 0.5-0.3 0.1-0.6 0.3-0.4 0.2-0.8 0.4-0.5 0.2-1 0.5-0.2 0-0.3 0.1-0.1 0.1-0.2 0.1-0.5 0.3-1 0.5-0.2 0.1-0.3 0.2-0.1 0-0.1 0c-0.5 0.3-3.3 1.7-3.3 2.1q0-0.3 0-0.5 0-0.1 0-0.2-0.3 0.1-0.5 0.2c-0.6 0.3-1.3 0.7-1.9 1q0 0-0.1 0-0.5 0.2-1 0.4-0.2 0.1-0.4 0.1-0.2 0.1-0.3 0.1-0.1 0-0.1 0-0.3 0.1-0.4 0.1-0.1 0-0.1 0c-0.7 0-2.1-0.4-3.5-1.1-0.8-0.4-1.7-0.9-2.4-1.4-0.9-0.6-1.6-1.3-1.7-1.8 0.1 0.5 0 0.9 0.1 1.3q0.1 0.2 0.1 0.3-0.8-0.7-1.7-1.4-0.8-0.6-1.6-1.1c-1.7-1.1-3.4-2.2-5.3-3.2-2.1-1.1-4.4-2.4-6.8-3.1q-0.1 0-0.2 0-0.1-0.1-0.2-0.1-0.2 0-0.3-0.1-0.3 0-0.5 0-0.3-0.1-0.5-0.1-0.4 0-0.7 0.1-0.2 0.1-0.3 0.1c-0.9 0.3-1.4 0.5-1.5 0.5q0-0.1 0-0.1 0 0 0-0.1 0-0.1 0-0.1 0-0.1 0-0.1 0 0 0-0.1 0-0.7 0-1.5c-0.1-0.7-0.3-1.3-0.2-1.9q-0.2 0.2-0.4 0.5 0.1-1.1 0.2-2.1 0 0.2-0.2 0.2 0.1-0.7 0.4-1.5-0.2 0.2-0.4 0.3c0.3-0.9 0.8-1.9 1-2.9q0-0.2 0-0.4 0.1-0.1 0.1-0.3 0-0.1 0-0.1 0-0.2 0.1-0.4 0-0.2 0-0.4 0.1-0.2 0.1-0.4 0.1-0.3 0.1-0.5 0.1-0.2 0.1-0.4 0-0.1 0-0.2 0.1 0 0.1 0 0.1-0.5 0.2-0.9 0-0.1 0-0.2 0.1-0.4 0.2-0.8 0 0 0.1-0.1 0-0.1 0-0.3 0 0 0.1 0 0 0 0.1 0 0 0.1 0 0.1 0.1 0.2 0.3 0.4 0.1 0 0.1 0.1 0 0 0.1 0c0.4 0.3 0.8 0.5 1.2 0.8q1.4 0.8 2.8 1.6 2.9 1.5 6 2.7c4 1.4 8.3 2.3 12.6 2.6 4.9 0.3 10 0.3 14.8-0.8 1.6-0.4 3.2-0.9 4.7-1.4 2.9-1 6.2-2.4 8.3-4.7q0 0 0.1-0.1 0.1-0.1 0.2-0.3 0 0.1 0 0.1 0 0 0 0.1 0 0 0.1 0.1 0.1 0.5 0.2 0.9 0 0.2 0.1 0.4 0.1 0.6 0.2 1.2 0.1 0.2 0.1 0.4 0 0.2 0.1 0.4 0 0.1 0 0.3 0.1 0.3 0.1 0.6 0 0.1 0.1 0.3 0 0.2 0 0.4 0 0.2 0.1 0.4 0 0.1 0 0.3 0 0.2 0.1 0.4 0 0.1 0 0.1 0 0.2 0 0.3 0 0.1 0 0.2c0.1 1.1 0.6 2 0.8 3.1q-0.2-0.3-0.3-0.6 0.1 0.5 0.1 1z"/><path class="j" d="m299.7 171.1q-0.1 0.2-0.2 0.3-0.5 0.5-1 1-0.1 0.1-0.3 0.3-0.5 0.4-1 0.8c-1.3 0.9-2.6 1.7-4 2.4q0 0-0.1 0-0.2 0.2-0.5 0.3-1 0.5-2.1 1-0.2 0.1-0.4 0.1-0.3 0.2-0.6 0.3-0.3 0.1-0.5 0.2-0.6 0.2-1.1 0.5-0.3 0.1-0.7 0.2 0 0.1-0.1 0.1 0 0-0.1 0.1-0.3 0.1-0.5 0.1-0.1 0.1-0.1 0.1-0.3 0.1-0.5 0.2-0.2 0.1-0.4 0.1-0.5 0.2-0.9 0.4-0.8 0.3-1.5 0.5c-1.5 0.5-2.9 0.9-4.3 1.3q-0.2 0-0.3 0-0.2 0.1-0.3 0.1-0.6 0.1-1.2 0.2-0.1 0-0.2 0-0.2 0.1-0.4 0.1-1.2 0.2-2.2 0.2 0 0-0.1 0-0.1 0-0.2 0-0.2 0-0.3 0-0.2 0-0.3-0.1c-1.8-0.1-3.4-0.2-5-0.6q-0.6-0.2-1.2-0.4c0.3 0.5 0.6 1 0.9 1.4-1.3-0.8-2.2-1.5-3-2.6q-0.1-0.1-0.1-0.1 0 0 0 0.1 0.1 0.6 0.2 1.2c-0.1-0.4-2.3-2.2-2.7-2.2-0.1 0.3-0.1 0.7-0.1 1.1q-0.7-0.7-1.4-1.4c-0.5-0.6-1.2-1.2-1.9-1.6q-0.2-0.2-0.5-0.3 0 0-0.1 0-0.1-0.1-0.3-0.2-0.7-0.4-1.4-0.7-0.4-0.3-0.8-0.4-0.1-0.1-0.2-0.1-0.2-0.2-0.4-0.3-0.2-0.1-0.3-0.1-0.3-0.2-0.6-0.3-0.8-0.4-1.6-0.8-0.2-0.1-0.4-0.2c-1.6-0.8-3-1.8-4-3.3q0-0.1 0-0.2 0.1-0.1 0.1-0.2 0-0.1 0.1-0.2 0-0.2 0-0.3 0.1-0.1 0.1-0.2 0-0.1 0-0.2 0.1-0.1 0.1-0.2 0-0.1 0.1-0.2 0-0.2 0.1-0.3 0-0.1 0-0.2 0.1-0.2 0.2-0.4 0.1-0.5 0.3-0.9c0.5-1.5 1-2.5 2-3.8 0 0.1-0.1 0.1-0.2 0.1-0.1 0-0.1 0-0.2 0.1q-0.4 0.2-0.7 0.4c0.2-0.2 0.3-0.5 0.5-0.8q0.3-0.4 0.6-0.8c0.2-0.2 0.6-1.1 0.7-1.2q-0.2 0.2-0.5 0.3-0.1 0-0.2 0.1h-0.2q0.2-0.3 0.4-0.6c0.2-0.2 0.3-0.4 0.4-0.5 0.3-0.4 0.5-0.7 0.7-1.1q0.4-0.5 0.7-1 0.1-0.3 0.3-0.5 0 0 0-0.1 0 0 0.1 0 0-0.1 0.1-0.2 0.1-0.2 0.2-0.4 0-0.1 0.1-0.1 0-0.1 0.1-0.2 0 0 0-0.1 0 0 0.1 0 0-0.1 0-0.2 0.1-0.1 0.3-0.3 0 0 0-0.1 0 0 0.1-0.1 0.1-0.2 0.2-0.4 0.1-0.1 0.2-0.2 0-0.1 0.1-0.2 0.1-0.2 0.2-0.3 0 0 0-0.1 0.1-0.1 0.2-0.1 0-0.1 0-0.1 0.1-0.1 0.2-0.2 0-0.1 0.1-0.2 0-0.1 0.1-0.2 0 0 0.1 0 0.1-0.2 0.2-0.4 0.8-1.1 1.7-2.1 0.6-0.6 1.2-1.3 0.1-0.2 0.3-0.3 0 0 0-0.1 0.1-0.1 0.2-0.1 0.1-0.1 0.2-0.2 0 0 0.1-0.1 0 0 0-0.1 0.1 0 0.2-0.1 0-0.1 0.1-0.1 0.1-0.1 0.2-0.2 0.1-0.1 0.3-0.2 0-0.1 0-0.1 0.1 0 0.1-0.1 0.2-0.2 0.4-0.4 0.1-0.1 0.3-0.1 0.2-0.2 0.4-0.4 0 0 0.1-0.1 0.1-0.1 0.3-0.2 0-0.1 0.1-0.1 0.1-0.1 0.2-0.2 0.1-0.1 0.3-0.2 0.1-0.1 0.2-0.1 0 0 0-0.1 0.2-0.1 0.4-0.2 0.1-0.1 0.1-0.1 0.1-0.1 0.2-0.2 0.1 0 0.2 0 0.2-0.2 0.4-0.3 0.2-0.1 0.3-0.2 0.1-0.1 0.2-0.1 0.1-0.1 0.1-0.1 0.1 0 0.2-0.1 0.1 0 0.1 0 0 0 0-0.1 0.1 0 0.1 0 0.2-0.1 0.3-0.2 0.1 0 0.2-0.1 0.1 0 0.2-0.1 0.1 0 0.2 0 0.1-0.1 0.2-0.2 0.1 0 0.1 0 0 0 0.1 0 0 0 0-0.1 0 0 0.1 0 0.1-0.1 0.2-0.1 0.2-0.1 0.3-0.1 0.1-0.1 0.3-0.1 0.1-0.1 0.3-0.1 0-0.1 0.1-0.1 0.1 0 0.1 0 0 0 0.1 0 0 0 0-0.1 0.1 0 0.2 0 0.1 0 0.1-0.1 0.1 0 0.2 0 0.1 0 0.1-0.1 0.8-0.2 1.5-0.3c0.1 0 0.9-0.3 1-0.3q-0.3-0.3-0.6-0.6c0.1 0.1 0.6 0.2 0.7 0.2 0.3 0.1 0.5 0.2 0.8 0.3 0.1 0 0.8-0.1 0.8-0.2-0.2-0.2-0.4-0.5-0.4-0.8 0.5 0.4 1 1 1.7 1q0.7 0 1.5 0.1 0.1 0.1 0.3 0.1 0.3 0 0.7 0.1 0.1 0 0.2 0.1 0 0 0.1 0 0.1 0 0.2 0 0.1 0 0.1 0.1 0.1 0 0.1 0 0.1 0 0.1 0 0.1 0 0.2 0.1 0.1 0 0.1 0 0.2 0.1 0.4 0.1 0.1 0 0.1 0 0.1 0.1 0.2 0.1 0.1 0 0.1 0.1 0.1 0 0.2 0 0 0 0.1 0.1 0.2 0 0.4 0.1 0.1 0 0.2 0.1 0 0 0.1 0 0.1 0 0.1 0.1 0.3 0.1 0.5 0.2 0.2 0.1 0.3 0.1 0.1 0.1 0.2 0.1 0.1 0.1 0.1 0.1 0.1 0 0.2 0.1 0.2 0.1 0.3 0.1 0.2 0.1 0.3 0.2 0.1 0 0.1 0.1 0.8 0.4 1.5 0.9 0.1 0.1 0.2 0.1 0.2 0.1 0.3 0.2 0.4 0.3 0.9 0.6 0 0.1 0.1 0.2 0.2 0.1 0.3 0.2 0 0 0.1 0.1 0.1 0 0.1 0.1 0.1 0 0.2 0.1 0.1 0.1 0.2 0.2 0.5 0.4 0.9 0.8 0.1 0.1 0.2 0.2 0.1 0.1 0.2 0.2 0.2 0.1 0.3 0.2 0.1 0.2 0.2 0.3 0.1 0.1 0.2 0.1 0 0.1 0.1 0.2 0.2 0.2 0.4 0.3 0 0.1 0.1 0.2 0.4 0.5 0.8 0.9 0.2 0.1 0.3 0.3 0.1 0.1 0.2 0.3 0.1 0.1 0.2 0.2 0.1 0.2 0.2 0.3 0.2 0.1 0.3 0.3 0.5 0.6 0.9 1.3 0.1 0.1 0.2 0.2 0.1 0.1 0.2 0.3 0 0 0.1 0.1 0 0.1 0.1 0.1 0 0.1 0.1 0.1 0 0 0 0.1 0.1 0.2 0.2 0.3 0 0 0 0.1 0.2 0.1 0.3 0.3 0 0.1 0.1 0.2 0.1 0.1 0.2 0.3 0 0.1 0.1 0.2 0.1 0.2 0.3 0.4 0 0 0 0.1 0 0 0.1 0 0.1 0.2 0.2 0.4c0.7 1.2 2 2.1 2.8 3.2q-0.6-0.3-1.2-0.5c1 1.5 1.6 3.4 2.3 5.1q0 0.1 0 0.1 0.4 1.1 0.8 2.3 0.1 0.1 0.1 0.3l0.1 0.1q0 0.1 0.1 0.3 0 0.2 0.1 0.4 0 0 0 0.1 0.1 0.2 0.1 0.4 0.1 0.2 0.2 0.5 0 0.1 0.1 0.3 0.2 0.7 0.4 1.4 0 0.2 0.1 0.3z"/><path class="q" d="m294 157.3q-0.7-0.8-1.3-1.7-0.1 0-0.1 0c-0.7-0.9-1.5-1.8-2.3-2.7-0.6-0.8-1.3-1.6-2.1-2.1q0.2 0.2 0.2 0.5c-0.3-0.3-0.6-0.6-1-1-0.3-0.4-0.8-0.7-1.2-1.1-0.4-0.3-0.8-0.5-1.2-0.7-0.3-0.1-0.7-0.3-1.1-0.5-0.2-0.1-0.7-0.2-0.9-0.4 0.3 0.2 0.4 0.5 0.7 0.8-0.2-0.3-0.7-0.4-1-0.6-0.7-0.4-1.4-0.7-2.1-1q0 0.2 0 0.4c0-0.1-0.6-0.5-0.7-0.6-0.5-0.7-0.9-1.5-1.2-2.3 0.1 0.1 0.2 0.2 0.3 0.2 0 0-0.3-1.2-0.2-1.2q0.1 0 0.1 0 0.1 0 0.2 0.1 0 0 0.1 0 0.1 0.1 0.2 0.1 0.2 0.1 0.4 0.1 0.1 0.1 0.2 0.1 0.1 0.1 0.2 0.1 0.2 0.1 0.5 0.2 0.1 0.1 0.2 0.1 0.1 0 0.1 0.1 0.1 0 0.2 0.1 0 0 0.1 0 0.1 0.1 0.2 0.1 0.1 0.1 0.2 0.1 0.1 0.1 0.1 0.1 0.1 0 0.2 0.1 0.1 0.1 0.2 0.1 0.8 0.4 1.5 0.9 0.1 0.1 0.2 0.2 0.1 0 0.2 0.1 0.5 0.3 0.9 0.7 0.1 0 0.2 0.1 0.2 0.2 0.5 0.4 0.1 0.1 0.2 0.2 0.1 0.1 0.2 0.2 0.4 0.3 0.8 0.7 0.1 0.1 0.2 0.2 0.2 0.1 0.3 0.2 0.1 0.2 0.2 0.3 0.2 0.1 0.3 0.2 0.1 0.1 0.1 0.2 0.1 0 0.2 0.1 0.2 0.2 0.3 0.4 0.1 0 0.2 0.1 0.4 0.5 0.8 0.9 0.1 0.2 0.2 0.3 0.2 0.2 0.3 0.3 0.1 0.1 0.2 0.3 0.1 0.1 0.2 0.2 0.1 0.2 0.3 0.3 0.4 0.7 0.9 1.3 0.1 0.1 0.2 0.2 0.1 0.2 0.2 0.3 0.1 0.1 0.1 0.2 0.1 0.1 0.1 0.1 0 0.1 0 0.1 0.1 0.2 0.3 0.3 0 0.1 0 0.1 0.1 0.2 0.2 0.3 0.1 0.1 0.1 0.2 0.2 0.2 0.3 0.5 0.2 0.2 0.3 0.4 0 0.1 0.1 0.1 0.1 0.2 0.2 0.4 0.2 0.2 0.3 0.5z"/><path class="q" d="m269.1 143.3c0-0.1-0.1 1.3-0.2 1.5q0.3-0.2 0.7-0.4c-0.2 0.7-0.6 1.3-1.2 1.7-0.6 0.5-1.3 0.9-2 1.3 0.3-0.1 0.5-0.4 0.5-0.7 0 0.3-1.4 0.9-1.6 1.1-0.6 0.4-1.4 0.6-2 1-0.2 0.1-0.3 0.2-0.5 0.2 0.2-0.1 0.4-0.3 0.5-0.5-0.3-0.1-0.8 0.2-1.1 0.4q-0.5 0.2-1 0.6-0.1 0.1-0.3 0.2c-3.1 2.3-5 5.1-7 7.5q1.2-2.2 2.6-4.1 0 0 0.1 0 0.8-1.1 1.6-2.1 0.6-0.7 1.2-1.3 1.7-1.8 3.5-3.2 1.1-0.8 2.2-1.4 0.1-0.1 0.3-0.2 0 0 0.1-0.1 0.1 0 0.1 0 0.1-0.1 0.1-0.1 0 0 0.1 0 0.1-0.1 0.3-0.2 0.1 0 0.2-0.1 0.2-0.1 0.3-0.2 0.1 0 0.2-0.1 0.3-0.1 0.6-0.2 0.1-0.1 0.3-0.1 0.1-0.1 0.2-0.2 0.2 0 0.3-0.1 0.2 0 0.3-0.1 0.3-0.1 0.6-0.2z"/><path class="j" d="m270 207.1c-0.7 1.5-2.1 2.2-3.9 2.3q-0.1 0-0.2 0-0.4 0.1-0.8 0-0.1 0-0.2 0c-1.5-0.1-3.2-0.5-4.8-1.2q-0.6-0.3-1.2-0.7-0.1 0-0.2-0.1c-0.9-0.6-1.8-1.4-2.5-2.2q-0.1-0.1-0.1-0.2-0.1-0.1-0.2-0.2-0.1-0.2-0.2-0.4c-0.5-0.8-0.8-1.6-0.9-2.6q-0.1-1 0.1-2-0.2 0.1-0.3 0.3c0.3-0.9 0.8-1.5 1.4-2.2 0.6-0.6 1.3-1.2 2-1.5 0.7-0.3 1.5-0.4 2.2-0.4 0.9 0 1.9 0 2.8 0.2q-0.3 0.2-0.6 0.2c0.4 0 0.9 0.2 1.3 0.4q0.3 0.2 0.5 0.3c0.7 0.4 1.3 0.7 2 1.1 0.1 0 0.2 0.1 0.1 0.2q-0.2 0-0.5 0c0.3 0 0.9 0.8 1.1 1.1q0.7 0.7 1.3 1.5c0.4 0.6 0.8 1.2 1.2 1.9 0.7 1.4 1.2 2.9 0.6 4.2z"/><path class="q" d="m270 207.1c-0.7 1.5-2.1 2.2-3.9 2.3q-0.1 0-0.2 0-0.4 0.1-0.8 0-0.1 0-0.2 0c-1.5-0.1-3.2-0.5-4.8-1.2q-0.6-0.3-1.2-0.7-0.1 0-0.2-0.1c-1-0.6-1.8-1.4-2.5-2.2q-0.1-0.1-0.1-0.2-0.1-0.1-0.2-0.2-0.1-0.2-0.2-0.4c-0.5-0.8-0.8-1.6-0.9-2.6 0.1 0.2 0.3 0.5 0.4 0.6 0.9 1.3 2.1 2.3 3.3 3.2q1 0.7 2.1 1.2 0.6 0.3 1.2 0.5c0.3 0.1 0.6 0.1 0.9 0.1-0.4 0-0.6-0.7-0.9-0.9 0.5 0.3 1.5 0.5 2 0.6 0.7 0.1 1.6 0.3 2.3 0.2-0.2 0-0.8-0.4-0.9-0.6 1.2 0.3 2.7-0.1 3.4-1.1 0.6-0.7 1.2-1.8 0.8-2.7 0.7 1.4 1.2 2.9 0.6 4.2z"/><path class="j" d="m292.6 203.7q-0.1-0.4-0.2-0.8-0.2 1-0.7 1.9c-0.9 1.3-2.3 2.4-3.7 3.1q-0.1 0-0.2 0.1-0.1 0-0.2 0.1-0.1 0-0.2 0.1c-4.1 1.8-8.5 1.8-9.9-1.2q-0.1-0.4-0.2-0.7-0.1-0.1-0.1-0.2 0-0.1 0-0.2 0 0 0-0.1 0-0.1 0-0.2 0-0.1 0-0.1 0-0.1 0-0.2 0-0.1 0-0.2 0-0.1 0-0.2 0 0 0-0.1 0 0 0.1-0.1 0-0.1 0-0.2 0-0.1 0.1-0.2 0 0 0-0.1 0.1-0.2 0.1-0.3 0.1 0 0.1-0.1 0 0 0-0.1 0.1-0.1 0.1-0.1 0-0.1 0.1-0.1 0-0.1 0.1-0.2 0.2-0.4 0.4-0.7 0-0.1 0.1-0.1 0-0.1 0.1-0.2c0.6-0.8 1.6-2.1 2.7-3.1q0.1-0.2 0.2-0.3 0.1-0.1 0.2-0.2 0.1-0.1 0.3-0.2c0.6-0.5 1.2-1 1.9-1.4 0.9-0.4 1.8-0.6 2.7-0.8-0.1 0-0.3-0.2-0.5-0.2q0.6 0 1.2 0c0.1 0 0.2 0 0.3-0.1 0.1-0.2-0.2-0.3-0.3-0.5 2.1 1.1 4.1 1.5 5.2 3.9 0.6 1.4 0.3 2.9 0.2 4.3z"/><path class="q" d="m291.7 204.8c-0.9 1.3-2.3 2.4-3.7 3.1q-0.1 0-0.2 0.1-0.1 0-0.2 0.1-0.1 0-0.2 0c-4.1 1.9-8.5 1.9-9.9-1.1q-0.1-0.4-0.2-0.7-0.1-0.1-0.1-0.2 0-0.1 0-0.2 0 0 0-0.1 0-0.1 0-0.2 0-0.2 0-0.3 0-0.1 0-0.2 0-0.1 0-0.2 0-0.1 0-0.1 0-0.1 0.1-0.1 0-0.1 0-0.2 0-0.1 0.1-0.2 0-0.1 0-0.1 0.1-0.2 0.1-0.3 0.1 0 0.1-0.1 0 0 0-0.1 0.1-0.1 0.1-0.2 0 0 0.1 0 0-0.1 0.1-0.2 0.2-0.4 0.4-0.7 0-0.1 0.1-0.1 0-0.1 0.1-0.2c0.6-0.8 1.6-2.1 2.7-3.2q0.1-0.1 0.2-0.2 0.1-0.1 0.2-0.2 0.1-0.1 0.3-0.2c-0.7 0.7-1.2 1.4-1.5 1.9q-0.4 0.7-0.8 1.4 0.3-0.3 0.7-0.5c-0.3 0.1-0.5 0.5-0.6 0.8-0.2 0.4-0.3 0.8-0.6 1.2q0.2-0.2 0.4-0.3c-0.1 0.1-0.1 1.6-0.1 1.8 0.1 0.6 0.3 1 0.5 1.4q0.1-0.2 0.2-0.5c-0.1 0.4 0.9 0.9 1.1 1 0.5 0.2 0.9 0.3 1.4 0.3 1 0.2 2 0 3-0.4q-0.3 0.3-0.5 0.6c1.6-0.2 3-0.6 4.4-1.2q1.2-0.6 2.1-1.2z"/><path class="j" d="m299.9 180.6q0.3 1.1 0.3 2.3c0 1.4-0.2 2.8-0.8 4.2q0 0 0 0.1-0.1 0.1-0.1 0.2-0.4 0.9-1 1.7 0 0.2-0.1 0.3-0.2 0.2-0.3 0.4-0.2 0.2-0.3 0.3c-3.1 3.3-7.5 4.2-10 2q-0.1-0.1-0.2-0.2 0-0.1 0-0.1-0.1 0-0.1 0-0.1-0.1-0.2-0.3 0-0.1 0-0.1-0.1 0-0.1-0.1 0-0.1 0-0.2-0.1 0-0.1 0 0-0.1 0-0.1 0 0 0-0.1-0.1 0-0.1-0.1 0-0.1 0-0.1 0-0.2-0.1-0.3-0.1-0.7 0-1.3 0-0.6 0.1-1.1 0.1-1.2 0.6-2.4-0.2 0.2-0.4 0.2c0.2-0.5 0.5-0.9 0.6-1.4q0.3-0.8 0.5-1.6c0.2-0.6 0.4-1.1 0.5-1.6q0.2-0.5 0.3-1 0.1-0.3 0.3-0.6c0.2-0.4 0.6-1.2 1-1.3-0.2 0-0.6 0.1-0.7 0.2 0.3-0.3 0.5-0.5 0.9-0.8 0.2-0.1 0.8-0.5 1-0.5q-0.1 0-0.3 0c0.8-0.4 1.5-0.4 2.3-0.5 0.5 0 1 0.1 1.5 0.1 1.5 0.1 2.9 0.6 3.7 1.4 0.8 0.6 1.3 1.7 1.6 2.6q-0.1-0.1-0.3-0.2z"/><path class="q" d="m300.2 182.9c0 1.4-0.2 2.8-0.8 4.2q0 0 0 0.1-0.1 0.1-0.1 0.2-0.4 0.9-1 1.7 0 0.2-0.1 0.3-0.2 0.2-0.3 0.4-0.2 0.2-0.3 0.3c-3.1 3.3-7.5 4.2-10 2q-0.1-0.1-0.2-0.2 0-0.1 0-0.1-0.1 0-0.1 0-0.1-0.1-0.2-0.3 0-0.1 0-0.1-0.1-0.1-0.1-0.1 0-0.1 0-0.2-0.1 0-0.1 0 0-0.1 0-0.1 0 0 0-0.1-0.1 0-0.1-0.1 0-0.1 0-0.1 0-0.2-0.1-0.3-0.1-0.7 0-1.3c0 1 0.9 2.2 1.6 2.7q0-0.1-0.1-0.3c1.3 1 3.3 0.9 4.7 0.5 1-0.3 1.9-0.7 2.7-1.3 0.8-0.5 1.5-1 1.8-1.9q-0.1 0.4-0.2 0.9c1-1.1 1.8-2.5 2.3-3.9 0.3-1 0.6-1.9 0.7-2.9z"/><path class="r" d="m264.8 167.2c-1.6 0-2.8-1.3-2.8-2.8 0-1.6 1.2-2.8 2.8-2.8 1.6 0 2.8 1.2 2.8 2.8 0 1.5-1.2 2.8-2.8 2.8z"/><path class="k" d="m264.8 167c-1.5 0-2.7-1.2-2.7-2.6 0-1.5 1.2-2.7 2.7-2.7 1.5 0 2.7 1.2 2.7 2.7 0 1.4-1.2 2.6-2.7 2.6z"/><path class="h" d="m264 163.8c-0.4 0-0.8-0.3-0.8-0.7 0-0.4 0.4-0.8 0.8-0.8 0.4 0 0.8 0.4 0.8 0.8-0.1 0.4-0.4 0.7-0.8 0.7z"/><path class="r" d="m283.2 167.2c-1.6 0-2.8-1.3-2.8-2.8 0-1.6 1.2-2.8 2.8-2.8 1.5 0 2.8 1.2 2.8 2.8 0 1.5-1.3 2.8-2.8 2.8z"/><path class="k" d="m283.2 167c-1.5 0-2.7-1.2-2.7-2.6 0-1.5 1.2-2.7 2.7-2.7 1.5 0 2.6 1.2 2.6 2.7 0 1.4-1.1 2.6-2.6 2.6z"/><path class="h" d="m282.4 163.8c-0.4 0-0.7-0.3-0.7-0.7 0-0.4 0.3-0.8 0.7-0.8 0.4 0 0.8 0.4 0.8 0.8 0 0.4-0.4 0.7-0.8 0.7z"/><path class="s" d="m277.5 170.7c-0.1 0.1-0.9 0.8-1 0.9-0.5 0.4-1.6 1.1-2.5 1.1-1 0-2.1-0.7-2.7-1.2-0.1-0.1-0.6-0.6-0.7-0.7 0 0 0.1-0.2 0.2-0.2q0.3 0.1 0.6 0.1h0.1c0.8 0 1.5-0.3 2-0.9q0-0.1 0-0.1 0.1-0.2 0.2-0.4 0-0.1 0-0.1 0 0 0-0.1 0 0 0-0.1h0.5v0.1q0 0.1 0 0.2 0 0.1 0.1 0.1 0 0.1 0 0.1 0 0.1 0 0.1 0.1 0.2 0.3 0.4 0.1 0.1 0.1 0.1 0.1 0.1 0.2 0.2c0.4 0.3 0.9 0.5 1.4 0.5h0.1q0.3 0 0.5-0.1 0.3 0 0.6 0z"/><path class="k" d="m277.8 170.3q-0.1 0.2-0.3 0.4c-0.8 0.8-2 1.3-3.5 1.3-1.5 0-2.6-0.5-3.4-1.2q-0.2-0.2-0.4-0.4 0.6 0.3 1.2 0.3h0.1c0.8 0 1.6-0.3 2-1q0.1-0.3 0.2-0.6 0 0 0-0.1h0.5c0 0.5 0.3 1 0.7 1.2 0.4 0.4 0.9 0.5 1.5 0.5h0.1q0.6 0 1.1-0.3 0.1 0 0.2-0.1z"/><path class="k" d="m278.5 169c0 0.6-0.4 1.2-0.8 1.5q-0.1 0.1-0.2 0.2-0.6 0.3-1.3 0.3-0.1 0.1-0.2 0c-0.7 0-1.5-0.3-2-1q0 0 0-0.1c-0.2 0.3-0.5 0.6-0.8 0.7q-0.6 0.4-1.3 0.4-0.1 0.1-0.2 0-0.6 0-1.1-0.2-0.1-0.1-0.2-0.2-0.1 0-0.2-0.1c-0.4-0.3-0.8-0.9-0.8-1.5 0 0.6 0.4 1.1 0.9 1.4q0.2 0.1 0.5 0.2 0.3 0.1 0.6 0.1h0.1c0.8 0 1.5-0.3 2-1q0.1-0.2 0.1-0.4 0.1-0.1 0.1-0.1 0-0.1 0-0.1 0-0.1 0-0.1 0 0 0-0.1h0.5q0 0.1 0 0.1 0 0 0 0.1 0 0.1 0 0.2 0 0 0 0.1 0.1 0 0.1 0.1 0 0 0 0.1 0.1 0.2 0.3 0.4 0.1 0 0.1 0.1 0.1 0.1 0.1 0.1 0.1 0 0.1 0.1c0.4 0.3 0.9 0.4 1.4 0.4h0.1q0.3 0 0.5 0 0.4-0.1 0.7-0.3 0.1-0.1 0.2-0.1c0.3-0.3 0.7-0.8 0.7-1.3z"/><path class="o" d="m274 174.2c-2.6 0-2.3-1.9-2.3-2.8q0.1-0.2 0.1-0.3h0.1q0.7-0.1 1.3-0.4c0.3-0.2 0.6-0.5 0.7-0.8q0.1 0.1 0.1 0.1c0.5 0.7 1.3 1.1 2 1.1q0 0 0.1 0 0 0.2 0 0.5c0 0.8 0.3 2.6-2.1 2.6z"/><path class="t" d="m276.1 171.1q-0.1 0-0.3 0-0.1 0.1-0.3 0.1 0 0-0.1 0c-0.2 0.1-0.6 0.2-0.8 0.3q-0.1 0.1-0.1 0.2c-0.4 0.3-0.5 0.9-0.5 1.4-0.1-0.5-0.1-1-0.4-1.4-0.2-0.3-0.6-0.4-0.9-0.5-0.3-0.1-0.7-0.1-0.9-0.1h0.1q0.7-0.1 1.3-0.4c0.3-0.2 0.6-0.5 0.7-0.8q0.1 0.1 0.1 0.1c0.5 0.7 1.2 1.1 2 1.1z"/><path class="t" d="m276.1 171.1q-0.1 0-0.3 0-0.1 0.1-0.3 0.1 0 0-0.1 0c-0.2 0.1-0.6 0.2-0.8 0.3q-0.1 0.1-0.1 0.2c-0.4 0.3-0.5 0.9-0.5 1.4-0.1-0.5-0.1-1-0.4-1.4-0.2-0.3-0.6-0.4-0.9-0.5-0.3-0.1-0.7-0.1-0.9-0.1h0.1q0.7-0.1 1.3-0.4c0.3-0.2 0.6-0.5 0.7-0.8q0.1 0.1 0.1 0.1c0.5 0.7 1.2 1.1 2 1.1z"/><path class="u" d="m275.5 168.2c0 0.6-1.2 1.4-1.6 1.4-0.3 0-1.5-0.7-1.5-1.4 0-0.5 0.7-0.5 1.5-0.5 0.9 0 1.6 0 1.6 0.5z"/><path class="v" d="m273.9 169.3c-0.3 0-1.4-0.6-1.5-1.1 0.1 0.7 1.3 1.4 1.6 1.4 0.3 0 1.4-0.7 1.5-1.4-0.1 0.5-1.2 1.1-1.5 1.1z"/><path class="o" d="m289.6 173.3c-1.6 0-3-1.3-3-3 0-1.7 1.4-3 3-3 1.7 0 3.1 1.3 3.1 3 0 1.7-1.4 3-3.1 3z"/><path class="o" d="m258.3 173.3c-1.7 0-3-1.3-3-3 0-1.7 1.3-3 3-3 1.7 0 3 1.3 3 3 0 1.7-1.3 3-3 3z"/><path class="k" d="m278.3 167.6c3.8-2.1 8.3-3 12.7-2.5-4.4 0.5-8.5 1.3-12.7 2.5z"/><path class="k" d="m279.5 168.4c4.2-0.9 8.6-0.7 12.8 0.6-4.3-0.3-8.5-0.5-12.8-0.6z"/><path class="k" d="m269.6 167.6c-4.2-1.2-8.4-2-12.7-2.5 4.3-0.5 8.8 0.4 12.7 2.5z"/><path class="k" d="m268.4 168.4c-4.3 0.1-8.5 0.3-12.8 0.6 4.1-1.3 8.6-1.5 12.8-0.6z"/><path class="j" d="m267 146.3q-0.7 0.4-1.4 0.8 0.1-0.2 0.2-0.3c-0.5 0.3-1.1 0.4-1.7 0.7q-0.9 0.4-1.8 0.9-0.8 0.5-1.5 1c-0.5 0.3-0.9 0.7-1.2 1.1q0-0.2 0.1-0.4c-0.9 0.9-1.8 1.7-2.7 2.6q-0.5 0.6-1 1.2c-0.3 0.4-0.5 0.9-0.7 1.4q0-0.2 0-0.3-0.3 0.3-0.5 0.8c-0.2-1 0-2.2 0.1-3.2q0.1-1.6 0.5-3.2c0.4-2.2 0.9-4.3 1.6-6.3q0.3-0.9 0.7-1.7 0.1-0.5 0.4-0.9c0-0.1 0.3-0.5 0-0.5 0.1-0.2 0.4-0.6 0.6-0.7q-0.2 0.1-0.5 0.2c2.1-2.3 6 0.7 7.8 2 0.5 0.4 1.1 0.9 1.5 1.4q0.4 0.4 0.6 0.9c0.1 0.2 0.3 0.6 0.3 0.9q0.1-0.1 0.2-0.2-0.1 0.3-0.2 0.6-0.1 0.1-0.2 0.3c-0.2 0.3-0.6 0.7-1 1q0.1-0.1 0.2-0.3-0.2 0.1-0.4 0.2z"/><path class="w" d="m265.2 145.8q0 0 0-0.1-0.8-0.3-1.7-0.6c0.5 0.3 1 0.8 1.3 1.3l-2.4-0.7q0.5 0.5 1 1c0.2 0.2-4.8 2.8-5 3.2q-0.1 0.1-0.1 0.1-0.1 0-0.2 0-0.4-0.1-0.8-0.2c-0.1 0-0.2-0.1-0.3-0.2-0.1-0.2 0-0.4 0.2-0.5 0.1-0.1 0.3-0.2 0.4-0.3-0.1-0.2-0.3-0.4-0.5-0.4 0.3-1.3 0.7-2.5 1.1-3.7 0.4-1.1 0.9-2.1 1.6-3 1.5-1.7 5 1.2 5.9 2.4 0.3 0.4 0.5 0.9 0.3 1.4q0 0.2-0.2 0.3-0.3 0.2-0.6 0z"/><path class="j" d="m280.8 146.3q0.6 0.3 1.2 0.6 0.5 0.2 1 0.4c-0.1 0-0.1-0.1-0.1-0.2 0.1 0.1 0.2 0.2 0.4 0.2q0.2 0.1 0.5 0.3 0.5 0.2 1 0.5 1.1 0.5 2 1.1 0.8 0.5 1.5 1.1 0.5 0.5 1 0.9 0.6 0.5 1 1.1 0.5 0.6 0.9 1.2c-0.1-0.1-0.1-0.4-0.1-0.5 0.1 0.2 0.3 0.4 0.4 0.6 0.3 0.4 0.5 0.8 0.8 1.3q0.1 0.2 0.3 0.4v-0.1q0-0.1 0-0.2 0.3 0.5 0.6 0.9c-0.1-0.5-0.1-1-0.1-1.5q0-0.7-0.1-1.5-0.2-1.6-0.4-3.1c-0.3-1.2-0.5-2.4-0.7-3.6q-0.1 0.2-0.2 0.4-0.2-1.5-0.7-2.9c-0.5-1.4-1-3-1.9-4.2-0.2-0.3-0.6-0.7-1-0.8-1.7-0.1-3 0.9-4.4 1.6q0-0.1 0.1-0.3-1 0.8-2 1.5c-0.9 0.7-1.9 1.6-2.2 2.7-0.2 0.7 0 1.3 0.5 1.9q0-0.1 0-0.3 0.3 0.4 0.7 0.6z"/><path class="w" d="m282.6 145.8q0 0 0-0.1 0.9-0.3 1.7-0.6c-0.5 0.3-0.9 0.8-1.2 1.3l2.3-0.7q-0.5 0.5-1 1c-0.2 0.2 4.8 2.8 5 3.2q0.1 0.1 0.2 0.1 0.1 0 0.1 0 0.4-0.1 0.8-0.2c0.1 0 0.3-0.1 0.3-0.2 0.1-0.2 0-0.4-0.2-0.5-0.1-0.1-0.3-0.2-0.4-0.3 0.1-0.2 0.3-0.4 0.5-0.4-0.3-1.3-0.6-2.5-1.1-3.7-0.4-1.1-0.8-2.1-1.6-3-1.5-1.7-5 1.2-5.9 2.4-0.3 0.4-0.5 0.9-0.3 1.4q0.1 0.2 0.2 0.3 0.3 0.2 0.6 0z"/><path class="h" d="m250.7 149.3c-46.6 38.9-143.8 38.9-189.6 0 9.9-34.3 9.9-94.3 0-149.3 48.7 18.7 135.9 22.2 189.6 0-14.7 52-8.7 118 0 149.3z"/><path class="x" d="m59.7 0h1.7v208.9h-1.7z"/><path class="y" d="m60.9 0v207.7h-1.2v1.2h1.2 0.3 0.2v-208.9z"/><path class="x" d="m252.5 208.9h-1.7v-208.9h1.7z"/><path class="y" d="m251.3 0v207.7h1.3l-0.1 1.2h-1.2-0.3-0.2v-208.9z"/><path class="j" d="m63.9 176.9c-4.3-0.4-10.4-3-12.5-0.3-2.2 2.7-1 7.2 2.7 10.2 2.4 1.9 6.1 2.7 9 2.1 1.5-0.2 2.8-0.8 3.6-1.7 0.7-1 1.1-2.5 1.1-4 0-2.9-0.3-6-3.9-6.3z"/><path class="k" d="m55.2 186.7c-3.7-2.9-4.9-7.5-2.7-10.2 0.5-0.7 1.3-1 2.2-1.1-1.4 0-2.6 0.3-3.3 1.2-2.2 2.7-1 7.3 2.7 10.2 2.2 1.8 5.6 2.6 8.4 2.2-2.5 0.1-5.3-0.7-7.3-2.3z"/><path class="j" d="m262.3 179.1c1.5 3-0.4 7-4.4 9.2q-0.1 0.1-0.3 0.1c-2.2 1.1-5.6 1.4-8.2 0.6-0.6-0.2-1.4-0.6-2-0.9q0.1 0.3 0.2 0.6c-0.8-0.8-1.5-1.7-1.8-2.9-0.3-1.1-0.3-2.2-0.1-3.3 0.2-1.1 0.4-2.3 1-3.3 0.6-1.2 1.5-1.5 2.7-1.9q-0.2 0.3-0.3 0.6c0.4-0.4 1.4-0.4 1.9-0.5q0 0.1-0.2 0.2c1.3-0.2 2.4-0.3 3.7-0.3 1.5-0.1 3-0.1 4.5 0.1q0.1 0 0.2 0 0 0 0.1 0 0.1 0 0.2 0 0.1 0.1 0.2 0.1 0 0 0.1 0c1.1 0.3 2 0.8 2.5 1.6z"/><path class="q" d="m262.3 179.1c1.5 3-0.4 7-4.4 9.2q-0.1 0.1-0.3 0.1c-2.2 1.1-5.6 1.4-8.2 0.6 2.3 0.3 4.8-0.1 6.7-1.2 0.8-0.4 1.6-0.7 2.3-1.2q-0.2 0-0.4 0c2.2-1.7 4-5.2 2.5-7.9-0.3-0.6-0.9-1-1.5-1.3q0.1 0 0.2 0 0 0 0.1 0 0.1 0 0.2 0 0.1 0.1 0.2 0.1 0 0 0.1 0c1.1 0.3 2 0.8 2.5 1.6z"/></g></svg>