<svg id="Grupo_4042" data-name="Grupo 4042" xmlns="http://www.w3.org/2000/svg" xmlns:xlink="http://www.w3.org/1999/xlink" width="23.691" height="23.691" viewBox="0 0 23.691 23.691">
  <defs>
    <clipPath id="clip-path">
      <rect id="Rectángulo_1208" data-name="Rectángulo 1208" width="23.691" height="23.691" fill="none"/>
    </clipPath>
  </defs>
  <g id="Grupo_4042-2" data-name="Grupo 4042" clip-path="url(#clip-path)">
    <path id="Trazado_5025" data-name="Trazado 5025" d="M23.691,11.846A11.846,11.846,0,1,1,11.846,0,11.846,11.846,0,0,1,23.691,11.846" transform="translate(0 0)" fill="#bd97fb"/>
    <path id="Trazado_5026" data-name="Trazado 5026" d="M26.651,15.485A11.164,11.164,0,1,1,15.486,4.321,11.164,11.164,0,0,1,26.651,15.485" transform="translate(-3.641 -3.64)" fill="#8b66c7"/>
    <path id="Trazado_5027" data-name="Trazado 5027" d="M28.737,18.052A10.684,10.684,0,1,1,18.053,7.368,10.684,10.684,0,0,1,28.737,18.052" transform="translate(-6.207 -6.206)" fill="#6c33cd"/>
    <path id="Trazado_5028" data-name="Trazado 5028" d="M19,7.731l-.02,0c-.212-.013-.426-.021-.641-.021a10.664,10.664,0,1,0,.66.023m-.659,19.111a11.4,11.4,0,0,1-2.521-4.485h5.039a11.415,11.415,0,0,1-2.518,4.485m-2.891-6.074a13.532,13.532,0,0,1,.054-4.858H21.18a13.691,13.691,0,0,1,.048,4.858ZM9.3,18.338a9.017,9.017,0,0,1,.334-2.429h4.258a15.076,15.076,0,0,0-.05,4.858H9.631A9.011,9.011,0,0,1,9.3,18.338m9.042-8.209a11.31,11.31,0,0,1,2.428,4.192H15.912a11.345,11.345,0,0,1,2.427-4.192m4.451,5.78h4.256a9,9,0,0,1,0,4.858H22.838a15.135,15.135,0,0,0-.048-4.858m3.645-1.589H22.43a13.135,13.135,0,0,0-2.588-4.9,9.066,9.066,0,0,1,6.593,4.9m-9.6-4.9a13.214,13.214,0,0,0-2.583,4.9H10.242a9.066,9.066,0,0,1,6.6-4.9m-6.6,12.933H14.17A13.311,13.311,0,0,0,16.562,27.2a9.071,9.071,0,0,1-6.321-4.847M20.114,27.2a13.33,13.33,0,0,0,2.393-4.848h3.928A9.071,9.071,0,0,1,20.114,27.2" transform="translate(-6.493 -6.493)" fill="#fff061"/>
  </g>
</svg>
