<svg id="Grupo_4041" data-name="Grupo 4041" xmlns="http://www.w3.org/2000/svg" xmlns:xlink="http://www.w3.org/1999/xlink" width="39.485" height="39.485" viewBox="0 0 39.485 39.485">
  <defs>
    <clipPath id="clip-path">
      <rect id="Rectángulo_1207" data-name="Rectángulo 1207" width="39.485" height="39.485" fill="none"/>
    </clipPath>
  </defs>
  <g id="Grupo_4040" data-name="Grupo 4040" clip-path="url(#clip-path)">
    <path id="Trazado_5021" data-name="Trazado 5021" d="M39.485,19.743A19.743,19.743,0,1,1,19.743,0,19.743,19.743,0,0,1,39.485,19.743" fill="#bd97fb"/>
    <path id="Trazado_5022" data-name="Trazado 5022" d="M41.536,22.928A18.607,18.607,0,1,1,22.929,4.321,18.607,18.607,0,0,1,41.536,22.928" transform="translate(-3.186 -3.185)" fill="#8b66c7"/>
    <path id="Trazado_5023" data-name="Trazado 5023" d="M42.982,25.174A17.806,17.806,0,1,1,25.175,7.368,17.806,17.806,0,0,1,42.982,25.174" transform="translate(-5.433 -5.432)" fill="#6c33cd"/>
    <path id="Trazado_5024" data-name="Trazado 5024" d="M26.526,7.746l-.033,0c-.354-.021-.709-.035-1.068-.035a17.773,17.773,0,1,0,1.1.038M25.427,39.6a19,19,0,0,1-4.2-7.475h8.4a19.025,19.025,0,0,1-4.2,7.475M20.608,29.474a22.553,22.553,0,0,1,.09-8.1h9.462a22.817,22.817,0,0,1,.08,8.1ZM10.356,25.425a15.028,15.028,0,0,1,.557-4.048h7.1a25.126,25.126,0,0,0-.084,8.1H10.913a15.019,15.019,0,0,1-.557-4.049m15.07-13.682a18.85,18.85,0,0,1,4.047,6.986H21.382a18.908,18.908,0,0,1,4.044-6.986m7.419,9.634h7.093a14.992,14.992,0,0,1,0,8.1H32.924a25.226,25.226,0,0,0-.079-8.1m6.074-2.648H32.244a21.891,21.891,0,0,0-4.313-8.16,15.11,15.11,0,0,1,10.988,8.16m-16-8.161a22.022,22.022,0,0,0-4.3,8.161H11.931a15.11,15.11,0,0,1,10.992-8.161M11.931,32.122h6.546A22.185,22.185,0,0,0,22.465,40.2a15.118,15.118,0,0,1-10.534-8.079M28.384,40.2a22.216,22.216,0,0,0,3.988-8.079h6.547A15.119,15.119,0,0,1,28.384,40.2" transform="translate(-5.682 -5.682)" fill="#fff"/>
  </g>
</svg>
