<svg xmlns="http://www.w3.org/2000/svg" xmlns:xlink="http://www.w3.org/1999/xlink" width="230.093" height="55.463" viewBox="0 0 230.093 55.463">
  <defs>
    <clipPath id="clip-path">
      <rect id="Rectángulo_941" data-name="Rectángulo 941" width="230.093" height="55.463" fill="none"/>
    </clipPath>
  </defs>
  <g id="Grupo_3387" data-name="Grupo 3387" transform="translate(-686.344 -11064.898)">
    <g id="Grupo_3386" data-name="Grupo 3386" transform="translate(686.344 11064.898)">
      <g id="Grupo_3385" data-name="Grupo 3385" transform="translate(0 0)" clip-path="url(#clip-path)">
        <path id="Trazado_3174" data-name="Trazado 3174" d="M227.372,18.724a12.216,12.216,0,0,0-3.062-2.117,25.06,25.06,0,0,0-5.029-1.863,24.444,24.444,0,0,0-5.388-.793c-.142,0-.278-.006-.411-.006a12.244,12.244,0,0,0-2.05.164q-.228-.185-.463-.354a16.823,16.823,0,0,0-4.222-2.115,31.53,31.53,0,0,0-4.118-1.18,23.2,23.2,0,0,0-4.285-.532c-.109,0-.213,0-.315,0a10.766,10.766,0,0,0-3.3.487,19.139,19.139,0,0,0-2.581-4.077,14.128,14.128,0,0,0-6.428-4.464,13.65,13.65,0,0,0-4.311-.689c-6.051,0-11.231,3.754-14.662,7.124a20.749,20.749,0,0,0-5.321-3.881,23.326,23.326,0,0,0-6.09-2.006,39.642,39.642,0,0,0-6.546-.78c-.383-.013-.766-.02-1.139-.02a25.941,25.941,0,0,0-5.448.543,12,12,0,0,0-4.64,2c-.185-.205-.375-.4-.571-.587l-.039-.037-.023-.022-.023-.021-.04-.036A11.95,11.95,0,0,0,130.046.594a28.819,28.819,0,0,0-3.589-.222c-.5,0-1.006.012-1.512.037a28.953,28.953,0,0,0-4.886.635,13.132,13.132,0,0,0-4.008,1.523,12,12,0,0,0-3.78-1.777A23.2,23.2,0,0,0,100.445.742a13.158,13.158,0,0,0-1.921.676A13.348,13.348,0,0,0,96.549.927a21.44,21.44,0,0,0-3.614-.3c-.741,0-1.506.036-2.275.107a21.849,21.849,0,0,0-5.886,1.351A12.573,12.573,0,0,0,82.227,3.41a18.391,18.391,0,0,0-6.205-1.57c-.513-.039-1.033-.059-1.547-.059a21.222,21.222,0,0,0-6.164.931,18.913,18.913,0,0,0-7.129,3.944,17.807,17.807,0,0,0-2.46,2.665,12.411,12.411,0,0,0-2.244-1.758l-.045-.027-.027-.016L56.377,7.5l-.047-.027a11.107,11.107,0,0,0-5.688-1.4c-.507,0-1.043.025-1.592.076a29.635,29.635,0,0,0-5.032.919,29.187,29.187,0,0,0-4.645,1.673,13.12,13.12,0,0,0-3.625,2.378,12.013,12.013,0,0,0-4.122-.931c-.368-.02-.743-.03-1.114-.03a22.828,22.828,0,0,0-4.906.552A22.53,22.53,0,0,0,20.039,12.7a13.222,13.222,0,0,0-1.765,1.1,12.727,12.727,0,0,0-1.346-.07c-.241,0-.489.007-.74.018a22.835,22.835,0,0,0-5.808,1.091A22.117,22.117,0,0,0,4.9,17.425,10.579,10.579,0,0,0,.429,23.051,9.162,9.162,0,0,0,.176,27.6a41.432,41.432,0,0,0,1.853,5.792c.86,2.321,1.837,4.789,2.906,7.334s2.13,4.886,3.143,6.928A26.117,26.117,0,0,0,9.845,50.77a8.956,8.956,0,0,0,6.3,4.159l.016,0,.014,0,.014,0,.02,0a11.435,11.435,0,0,0,1.41.086,19.454,19.454,0,0,0,6.207-1.216,20.367,20.367,0,0,0,3.431-1.456,11.127,11.127,0,0,0,1.654-1.119,11.02,11.02,0,0,0,1.772.139,19.839,19.839,0,0,0,3.928-.463,19.5,19.5,0,0,0,5.716-1.928q.322.02.647.02a20.845,20.845,0,0,0,3.725-.407,22.427,22.427,0,0,0,4.943-1.277,8.848,8.848,0,0,0,3.113-2.254,9.06,9.06,0,0,0,4.186,1.035c.116,0,.235,0,.351-.007a23.284,23.284,0,0,0,4.146-.7c1.759-.39,3.191-.767,4.376-1.155a10.846,10.846,0,0,0,3.036-1.525,19.417,19.417,0,0,0,5.513.788,22.334,22.334,0,0,0,4.562-.487,20.281,20.281,0,0,0,6.941-2.8,8.247,8.247,0,0,0,1.769.9l.02.008.011,0,.011,0,.019.007a13.746,13.746,0,0,0,4.7.729,27.444,27.444,0,0,0,2.976-.178A20.141,20.141,0,0,0,99.028,41a11.15,11.15,0,0,0,1.812-.718,11.187,11.187,0,0,0,1.888.554,20.283,20.283,0,0,0,3.7.348c.216,0,.425.005.629.005a18.594,18.594,0,0,0,5.337-.653,18.534,18.534,0,0,0,4.322.56c.839.029,1.532.043,2.119.043a15.114,15.114,0,0,0,2.976-.227,8.85,8.85,0,0,0,3.5-1.514,9.058,9.058,0,0,0,4.18,1.962,21.937,21.937,0,0,0,3.994.208h.2c1.8,0,3.278-.063,4.517-.187q.511-.05,1.011-.145a19.846,19.846,0,0,0,6.9,1.32c.58.029,1.125.043,1.62.043,1.54,0,5.627,0,8.361-3.242a9.368,9.368,0,0,0,1.391-2.172q.4-.1.8-.216.148.37.31.733a19.431,19.431,0,0,0,11.682,10.707,19.121,19.121,0,0,0,6.038.976,20.114,20.114,0,0,0,9.969-2.711,9.963,9.963,0,0,0,2.066,1.708,17.987,17.987,0,0,0,4.644,1.939,21.458,21.458,0,0,0,5.886.987,11.845,11.845,0,0,0,1.95-.157l.04-.007.025,0,.025,0,.041-.008a8.589,8.589,0,0,0,.881-.212,10.056,10.056,0,0,0,.939.869,12.483,12.483,0,0,0,3.586,1.944,30.562,30.562,0,0,0,3.076.987,24.3,24.3,0,0,0,3.341.653,12.507,12.507,0,0,0,1.466.09,8.87,8.87,0,0,0,6.722-2.858c1.1-1.219,1.692-2.506,2.823-5.52.7-1.86,1.45-4.025,2.235-6.435s1.547-4.9,2.258-7.364c.779-2.7,1.325-4.917,1.67-6.779l.016-.088.01-.054.008-.054L230,26.22a8.625,8.625,0,0,0-2.63-7.5" transform="translate(0 0)" fill="#f6f3c6"/>
        <path id="Trazado_3175" data-name="Trazado 3175" d="M162.569,9.576a20.423,20.423,0,0,0-5.311-1.73,36.626,36.626,0,0,0-6.053-.722c-.349-.012-.7-.018-1.037-.018a22.975,22.975,0,0,0-4.821.476c-3.377.729-4.892,2.544-5.572,4a11.891,11.891,0,0,0-2.32-3.343l-.038-.037-.04-.036a9.115,9.115,0,0,0-5.189-2.112,25.881,25.881,0,0,0-3.217-.2c-.45,0-.91.011-1.368.034a25.993,25.993,0,0,0-4.382.567,7.864,7.864,0,0,0-4.782,2.654,7.707,7.707,0,0,0-4.457-2.947,20.227,20.227,0,0,0-10.244-.043A8.949,8.949,0,0,0,101.2,7.212a9.268,9.268,0,0,0-2.643-.841,18.482,18.482,0,0,0-3.111-.257c-.65,0-1.323.032-2,.095a18.882,18.882,0,0,0-5.086,1.163,8.369,8.369,0,0,0-3.231,2.116q-.193-.119-.391-.232A15.315,15.315,0,0,0,78.31,7.319c-.438-.034-.882-.05-1.32-.05a18.246,18.246,0,0,0-5.3.8,15.964,15.964,0,0,0-6.019,3.323,13.236,13.236,0,0,0-3.9,5.762,15.147,15.147,0,0,0-4.314-4.534l-.046-.028-.047-.027a8.223,8.223,0,0,0-4.205-1c-.416,0-.86.022-1.32.064a26.668,26.668,0,0,0-4.525.828,26.167,26.167,0,0,0-4.169,1.5,7.852,7.852,0,0,0-4.13,3.662,7.7,7.7,0,0,0-5.034-1.943c-.314-.017-.634-.025-.952-.025a19.867,19.867,0,0,0-4.265.482A19.6,19.6,0,0,0,23.93,17.85a8.986,8.986,0,0,0-2.271,1.628,8.778,8.778,0,0,0-2.214-.265c-.192,0-.391,0-.593.015a19.819,19.819,0,0,0-5.048.954,19.142,19.142,0,0,0-4.74,2.237c-3.89,2.577-3.713,5.833-3.456,7.114a40.032,40.032,0,0,0,1.726,5.344c.845,2.281,1.807,4.709,2.859,7.216s2.08,4.771,3.065,6.758a23.4,23.4,0,0,0,1.557,2.756,6.208,6.208,0,0,0,4.241,2.89l.02,0,.02,0a8.465,8.465,0,0,0,1.042.063,16.672,16.672,0,0,0,5.255-1.06,17.518,17.518,0,0,0,2.936-1.236,7.131,7.131,0,0,0,2.208-1.834,7.053,7.053,0,0,0,2.664.478,17.013,17.013,0,0,0,3.339-.4,14.715,14.715,0,0,0,5.615-2.085,7.5,7.5,0,0,0,1.337.117,17.981,17.981,0,0,0,3.184-.358,20.629,20.629,0,0,0,4.3-1.08A5.756,5.756,0,0,0,53.6,44.853a8.2,8.2,0,0,0,.827-1.8,6.771,6.771,0,0,0,2.846,2.172,5.98,5.98,0,0,0,2.184.413c.077,0,.156,0,.234,0A21.819,21.819,0,0,0,63.312,45c1.663-.368,3-.721,4.1-1.078a7.188,7.188,0,0,0,3.28-2.084,16.294,16.294,0,0,0,6.192,1.2,19.376,19.376,0,0,0,3.953-.423A16.513,16.513,0,0,0,88.6,38.83a5.485,5.485,0,0,0,2.581,2.01l.019.007.019.007a10.836,10.836,0,0,0,3.692.555,24.55,24.55,0,0,0,2.653-.16,17.34,17.34,0,0,0,3.121-.575A7.132,7.132,0,0,0,103.2,39.38a7.187,7.187,0,0,0,2.638,1.061,17.455,17.455,0,0,0,3.159.289c.2,0,.388,0,.575,0a13.73,13.73,0,0,0,5.315-.823,12.944,12.944,0,0,0,4.445.732c.805.027,1.465.041,2.017.041a12.41,12.41,0,0,0,2.4-.171,5.745,5.745,0,0,0,3.052-1.637,8.09,8.09,0,0,0,1.165-1.542,6.753,6.753,0,0,0,2.289,2.7,5.968,5.968,0,0,0,2.271.921,20.283,20.283,0,0,0,3.467.161h.2c1.7,0,3.082-.059,4.224-.172a8.384,8.384,0,0,0,1.656-.332c.086.051.173.1.263.148l.012.007.012.006a15.567,15.567,0,0,0,6.406,1.335c.532.027,1.027.04,1.472.04,1.3,0,4.258,0,6.1-2.2a7.672,7.672,0,0,0,1.47-2.857,14.036,14.036,0,0,0,5.923-2.2,14.99,14.99,0,0,0,6.345-8.292c2.226-7.169-.511-13.374-7.509-17.022" transform="translate(-2.515 -2.514)" fill="#6c33cc"/>
        <path id="Trazado_3176" data-name="Trazado 3176" d="M383.41,31.763a9.322,9.322,0,0,0-2.331-1.6,22.127,22.127,0,0,0-4.432-1.638,21.478,21.478,0,0,0-4.73-.7c-.112,0-.22,0-.326,0a8.114,8.114,0,0,0-2.893.481,8.626,8.626,0,0,0-1.359-1.233,14.021,14.021,0,0,0-3.492-1.73,28.642,28.642,0,0,0-3.729-1.068,20.175,20.175,0,0,0-3.73-.467l-.249,0c-3.919,0-5.377,2.329-5.851,3.45a47.317,47.317,0,0,0-2.112,6.557c-.638,2.475-1.214,5-1.713,7.5-.495,2.48-.877,4.744-1.135,6.73-.438,3.369-.188,4.729.114,5.615.955,2.8,3.809,3.954,6.474,4.717a18.668,18.668,0,0,0,5.067.872,8.848,8.848,0,0,0,1.458-.116l.041-.007.041-.008A5.238,5.238,0,0,0,360.8,58.1a8.277,8.277,0,0,0,4.731,3.759,27.549,27.549,0,0,0,2.776.889,21.353,21.353,0,0,0,2.93.575,9.486,9.486,0,0,0,1.116.069,5.821,5.821,0,0,0,4.51-1.872c.736-.819,1.178-1.718,2.251-4.577.683-1.818,1.42-3.941,2.191-6.31.776-2.387,1.527-4.833,2.229-7.268.751-2.606,1.276-4.731,1.6-6.5l.016-.089.013-.089a5.684,5.684,0,0,0-1.759-4.93" transform="translate(-158.11 -10.907)" fill="#6c33cc"/>
        <path id="Trazado_3177" data-name="Trazado 3177" d="M329.062,21.553c-1.268-7.052-4.545-11.792-9.225-13.346a10.69,10.69,0,0,0-3.375-.537h0c-5.338,0-10.054,3.679-13.07,6.765a33.314,33.314,0,0,0-7.63,11.931,18.834,18.834,0,0,0,.595,13.643,16.491,16.491,0,0,0,9.9,9.1,16.162,16.162,0,0,0,5.1.825,17.321,17.321,0,0,0,10.358-3.553,18.973,18.973,0,0,0,6.555-9.218,33.816,33.816,0,0,0,.789-15.606" transform="translate(-135.051 -3.514)" fill="#6c33cc"/>
        <path id="Trazado_3178" data-name="Trazado 3178" d="M43.828,56.2c0,.044,0,.085,0,.125,0,.024,0,.046,0,.068,0,.061-.006.117-.01.169s-.006.075-.01.109a2.26,2.26,0,0,1-.042.271c-.006.024-.012.042-.016.06a.378.378,0,0,1-.036.081A9.772,9.772,0,0,1,40,58.378c-2.517.509-2.934.232-2.993.17l-.048-.041a5.187,5.187,0,0,1-.91-1.648c-.452-1.013-.954-2.274-1.493-3.748L34.41,52.7l-.39.183c-.331.154-.666.307-1,.456-.046.02-.089.04-.135.057-.089.042-.18.081-.271.119l-.277.119c-.046.022-.093.04-.139.06l-.157.066c-.595.25-1.144.476-1.671.692l-.165.067h0l-.109.046-.025.01h0l.066.323c.286,1.4.5,2.607.636,3.578.018.133.034.256.048.369,0,.006,0,.01,0,.016.012.087.02.169.028.246,0,.028.006.053.008.079,0,.044.008.085.012.125a.1.1,0,0,0,0,.022c0,.024,0,.046.006.067a.089.089,0,0,0,0,.024.547.547,0,0,1,0,.057.063.063,0,0,0,0,.02c0,.014,0,.025,0,.037a.248.248,0,0,1,0,.034.011.011,0,0,0,0,.01.131.131,0,0,0,0,.03,2.316,2.316,0,0,1-.012.523.28.28,0,0,1-.008.04l-.01.04c-.01.049-.169.5-2.648,1.332a10.173,10.173,0,0,1-3.907.761c-.075-.028-.513-.286-1.72-2.719-.936-1.887-1.921-4.058-2.926-6.453-1.023-2.436-1.957-4.793-2.775-7a38.385,38.385,0,0,1-1.5-4.538.666.666,0,0,1-.014-.143.568.568,0,0,1,.006-.081.079.079,0,0,1,0-.022.029.029,0,0,1,0-.012.028.028,0,0,1,0-.018.165.165,0,0,1,.008-.044.138.138,0,0,1,.006-.028.019.019,0,0,1,0-.01c.006-.022.014-.044.022-.066a.378.378,0,0,1,.016-.046.317.317,0,0,1,.016-.034.367.367,0,0,1,.028-.06c.012-.022.024-.046.037-.067a.073.073,0,0,1,.014-.024l.012-.02a2,2,0,0,1,.23-.3c.018-.018.034-.036.051-.051a.748.748,0,0,1,.054-.056.013.013,0,0,1,.008,0v0c.024-.023.048-.047.073-.069s.038-.035.057-.051l.012-.01c.034-.03.068-.057.1-.085.06-.048.119-.093.178-.137.079-.06.159-.115.238-.166a13.751,13.751,0,0,1,3.416-1.6,14.446,14.446,0,0,1,3.681-.7c.113-.006.22-.01.323-.01.781,0,1.286.158,1.406.446.325.787.682,1.774,1.12,3.108.4,1.2.795,2.5,1.189,3.855l.113.391.388-.123c.975-.309,2-.618,3.054-.918l.387-.109-.034-.115s0-.006,0-.008l-.077-.263c-.4-1.35-.766-2.64-1.071-3.836-.287-1.116-.527-2.183-.71-3.169a.461.461,0,0,1-.006-.074.4.4,0,0,1,.02-.127c.006-.02.012-.04.02-.06a.475.475,0,0,1,.04-.077c.012-.022.028-.046.043-.069a1.127,1.127,0,0,1,.125-.153c.02-.02.04-.042.063-.063s.051-.048.081-.074.049-.041.077-.063c.048-.037.1-.077.153-.115.022-.016.046-.03.069-.046a.484.484,0,0,1,.056-.038c.069-.046.146-.091.226-.139s.154-.087.238-.131a14.235,14.235,0,0,1,3.511-1.237,13.941,13.941,0,0,1,3.772-.339c.728.04,1.646.21,1.881.8a35.733,35.733,0,0,1,1.2,4.622c.5,2.311.975,4.8,1.42,7.386.434,2.551.765,4.9.983,6.98a19.564,19.564,0,0,1,.135,2.274" transform="translate(-7.04 -15.633)" fill="#f6f3c6"/>
        <path id="Trazado_3179" data-name="Trazado 3179" d="M97.748,47.553c0-.022,0-.041-.008-.063a.291.291,0,0,0-.01-.057c0-.025-.01-.054-.016-.081s-.014-.049-.02-.075a3.066,3.066,0,0,0-.115-.355c-.012-.028-.022-.053-.034-.081-.03-.073-.062-.152-.1-.236-.357-.86-.969-2.183-1.862-4.022-1-2.07-2.119-4.208-3.316-6.361-1.212-2.177-2.45-4.2-3.683-6.022a11.43,11.43,0,0,0-2.908-3.33,4.137,4.137,0,0,0-2.361-.246,21.115,21.115,0,0,0-3.61.664,20.719,20.719,0,0,0-3.315,1.185c-.333.155-.594.294-.8.415-.06.036-.113.069-.163.1l-.072.048c-.024.016-.043.032-.065.046a1.967,1.967,0,0,0-.262.212l-.042.042a.636.636,0,0,0-.1.127.132.132,0,0,1-.012.02.063.063,0,0,0-.008.018,21.005,21.005,0,0,0-.974,4.472c-.289,2.107-.5,4.381-.632,6.758-.128,2.347-.164,4.646-.105,6.837a23.853,23.853,0,0,0,.466,4.739.837.837,0,0,0,.353.484c.028.016.448.21,2.712-.208a20.461,20.461,0,0,0,3.14-.726.457.457,0,0,0,.214-.163l.022-.034c.008-.012.016-.026.028-.042s.014-.026.022-.042l.026-.051c.012-.026.025-.055.04-.089.008-.018.016-.035.024-.055a.416.416,0,0,0,.02-.05.391.391,0,0,0,.022-.053l0-.01c.014-.035.028-.073.042-.113l.051-.141c0-.012.008-.024.012-.037s.014-.042.022-.063c.014-.044.03-.089.046-.139s.032-.1.05-.154c.025-.085.055-.178.085-.28s.055-.186.085-.289c.218-.767.426-1.5.613-2.165v0c.03-.109.06-.214.087-.319a1.711,1.711,0,0,1,.3-.593.433.433,0,0,1,.048-.057.026.026,0,0,1,.008-.008,1.3,1.3,0,0,1,.1-.107l.018-.017c.035-.034.071-.066.111-.1a1.143,1.143,0,0,1,.093-.071s0,0,.006,0a.35.35,0,0,1,.05-.036c.042-.03.087-.057.133-.085l0,0a1.475,1.475,0,0,1,.133-.071c.051-.028.1-.051.159-.075s.1-.042.151-.062h0c.054-.02.109-.04.166-.057h0c.056-.018.115-.036.174-.049s.123-.032.186-.046c1.132-.21,1.693-.312,2.815-.51l.046-.006a1.7,1.7,0,0,1,1.2.371,7.678,7.678,0,0,1,1.629,2.25c.694,1.277,1.128,1.592,1.324,1.665a.647.647,0,0,0,.274.051,4.4,4.4,0,0,0,.5-.063c.05-.008.1-.018.151-.025.545-.1,1.3-.26,2.024-.42,1.488-.331,2.664-.638,3.59-.94a1.791,1.791,0,0,0,.951-.563.5.5,0,0,0,.066-.276,1.041,1.041,0,0,0-.006-.105M80.722,40.746a3.224,3.224,0,0,1,.02-2.123,8.927,8.927,0,0,1,.465-1.558c.018-.043.038-.085.057-.127l.06-.131c.026-.052.051-.1.077-.147a1.688,1.688,0,0,1,.083-.147c.031-.051.063-.1.095-.148l0-.006a.988.988,0,0,1,.535-.4l.069-.02a.888.888,0,0,1,.093-.016l.038,0c.529-.04,1.142.329,1.925,1.162.216.23.4.44.567.629.081.095.157.184.224.269.024.028.046.057.069.086.042.053.085.105.125.16a.842.842,0,0,1,.056.075c.016.024.034.046.049.069.034.046.066.089.1.135.014.02.026.042.04.063.036.051.066.1.093.147s.063.109.087.158l0,.006c.012.024.024.046.034.068a1.121,1.121,0,0,1,.131.521v0a1.1,1.1,0,0,1-.042.273v0a1.162,1.162,0,0,1-.2.393.5.5,0,0,1-.048.061,1.079,1.079,0,0,1-.077.081v0a4.211,4.211,0,0,1-1.933.86,6.748,6.748,0,0,1-1.422.192,1.5,1.5,0,0,1-1.374-.585" transform="translate(-33.508 -12.179)" fill="#f6f3c6"/>
        <path id="Trazado_3180" data-name="Trazado 3180" d="M137.969,39.43a10.557,10.557,0,0,1-6.623,3.977,11.537,11.537,0,0,1-7.779-.833,8.023,8.023,0,0,1-4.056-4.1c-.167-.438-.248-1.106.987-1.85a6.557,6.557,0,0,1,1.562-.686,12.215,12.215,0,0,1,1.737-.392,9.645,9.645,0,0,1,1.309-.093,8.019,8.019,0,0,1,1.189.087c.606.091,1,.264,1.1.49a1.055,1.055,0,0,0,.163.313,1.633,1.633,0,0,0,1.029.68,2.535,2.535,0,0,0,1.764-.278,1.264,1.264,0,0,0,.711-.761,1.173,1.173,0,0,0-.192-.96,1.941,1.941,0,0,0-1.376-.643,30.852,30.852,0,0,0-4.211-.36,8.822,8.822,0,0,1-3.871-1,5.78,5.78,0,0,1-2.244-1.994,7.289,7.289,0,0,1-1.019-3.786,7.168,7.168,0,0,1,2.69-5.8,10.618,10.618,0,0,1,4.02-2.2,12.66,12.66,0,0,1,4.658-.537,10,10,0,0,1,4.2,1.257,6.172,6.172,0,0,1,2.566,2.743h0c.024.05.05.1.074.151s.047.1.069.153a.829.829,0,0,1-.286,1.037,6.467,6.467,0,0,1-1.74,1.1,15.061,15.061,0,0,1-2.252.807c-.875.236-1.475.351-1.754.4a.681.681,0,0,1-.446-.066c-.165-.087-.23-.165-.236-.2a1.122,1.122,0,0,0-.626-.8,1.985,1.985,0,0,0-.216-.105c-.055-.022-.111-.042-.166-.057a1.864,1.864,0,0,0-1.048,0c-.077.022-.151.046-.224.074-.036.014-.071.028-.107.043a.13.13,0,0,0-.024.01c-.057.024-.113.052-.169.081a.727.727,0,0,0-.085.048,4.344,4.344,0,0,0-.643.438,1.517,1.517,0,0,0-.543.714.664.664,0,0,0,.008.383c.151.478.766.722,2.056.815.18.014.381.025.6.04s.448.025.676.034a15.065,15.065,0,0,1,6.49,1.534,6.784,6.784,0,0,1,3.57,4.591,6.463,6.463,0,0,1-1.291,5.53" transform="translate(-54.128 -8.547)" fill="#f6f3c6"/>
        <path id="Trazado_3181" data-name="Trazado 3181" d="M184.837,21.807c-.01,2.363-.079,4.892-.2,7.519-.123,2.581-.306,4.946-.541,7.027a20.5,20.5,0,0,1-.345,2.209c-.022.1-.043.188-.065.268-.008.028-.014.053-.022.079a2.17,2.17,0,0,1-.165.442l-.022.042a.059.059,0,0,0-.012.016c-.008.01-.012.016-.018.022a.031.031,0,0,1-.008.01,9.708,9.708,0,0,1-3.871.466c-2.547-.046-2.892-.406-2.936-.48l-.036-.051a5.17,5.17,0,0,1-.532-1.8c-.22-1.085-.438-2.425-.644-3.985l-.057-.43-.422.1c-.636.143-1.288.276-1.941.4-.67.123-1.32.24-1.931.343l-.325.055-.006.329c-.022,1.433-.072,2.654-.147,3.631a5.216,5.216,0,0,1-.268,1.683l-.018.036c-.02.043-.267.446-2.845.726a10,10,0,0,1-3.939-.1c-.067-.042-.434-.391-1.083-3.029-.5-2.044-.993-4.377-1.453-6.932-.472-2.6-.872-5.1-1.194-7.438a39.413,39.413,0,0,1-.48-4.754c.012-.619.8-1.053,1.463-1.31a13.557,13.557,0,0,1,3.645-.823q.77-.072,1.5-.071a12.94,12.94,0,0,1,2.211.18c.941.161,1.518.452,1.578.8.147.836.281,1.877.42,3.274.127,1.259.238,2.613.329,4.024l.025.4.406-.036c1.013-.093,2.074-.173,3.156-.236l.4-.024-.03-.4c-.1-1.408-.177-2.745-.218-3.977-.04-1.152-.043-2.244-.012-3.247a.309.309,0,0,1,.01-.073.25.25,0,0,1,.016-.054.33.33,0,0,1,.024-.054.178.178,0,0,1,.016-.028.335.335,0,0,1,.04-.061.607.607,0,0,1,.048-.054.845.845,0,0,1,.143-.131l.083-.057.075-.048a.067.067,0,0,1,.022-.012c.036-.02.072-.04.111-.059a4.543,4.543,0,0,1,.845-.309,14.91,14.91,0,0,1,7.4.031c.7.2,1.55.561,1.653,1.188a35.942,35.942,0,0,1,.169,4.771" transform="translate(-72.992 -7.04)" fill="#f6f3c6"/>
        <path id="Trazado_3182" data-name="Trazado 3182" d="M234.991,39.1c-.143-.89-.474-2.417-1.009-4.666-.533-2.234-1.16-4.565-1.863-6.926-.714-2.385-1.485-4.629-2.3-6.674a11.436,11.436,0,0,0-2.117-3.877,4.124,4.124,0,0,0-2.242-.747,21.115,21.115,0,0,0-3.654-.127,20.512,20.512,0,0,0-3.477.444c-1.344.3-1.637.594-1.7.676a20.952,20.952,0,0,0-1.9,4.159c-.733,1.994-1.427,4.169-2.063,6.462-.626,2.264-1.154,4.5-1.566,6.654a24.061,24.061,0,0,0-.564,4.728.859.859,0,0,0,.24.551c.024.02.393.3,2.676.379a19.918,19.918,0,0,0,3.205-.032.452.452,0,0,0,.242-.113l.026-.028a6.79,6.79,0,0,0,.906-1.447c.416-.773.846-1.574,1.215-2.279a2.134,2.134,0,0,1,2.086-1.009h.012c1.146.038,1.713.06,2.847.107l.046,0a1.7,1.7,0,0,1,1.092.62,7.714,7.714,0,0,1,1.1,2.548c.4,1.4.757,1.8.931,1.913a.666.666,0,0,0,.256.109,26.168,26.168,0,0,0,2.712.075c1.523,0,2.734-.049,3.7-.146a1.762,1.762,0,0,0,1.047-.345c.151-.143.192-.511.111-1.011m-10.062-9.38a.573.573,0,0,1-.057.063l0,0s0,0,0,0a3.463,3.463,0,0,1-2.323.636h-.075c-.979,0-2.266-.113-2.559-.985a1.111,1.111,0,0,1-.038-.514.729.729,0,0,1,.012-.083,6,6,0,0,1,.5-1.471,6.8,6.8,0,0,1,1.219-1.947c.028-.03.055-.057.083-.083a.957.957,0,0,1,.813-.274c.525.075,1.04.567,1.625,1.548.053.089.107.18.158.271s.092.163.138.244c.07.126.133.244.192.356.044.087.091.173.133.261s.085.177.123.265l.035.081c.028.066.054.131.08.2.016.037.03.077.046.119a3.186,3.186,0,0,1,.105.367.021.021,0,0,0,0,.01,1.1,1.1,0,0,1,.008.5,1.168,1.168,0,0,1-.113.284,1,1,0,0,1-.1.14l-.006.008" transform="translate(-96.461 -7.356)" fill="#f6f3c6"/>
        <path id="Trazado_3183" data-name="Trazado 3183" d="M277.238,20.217a15.559,15.559,0,0,0-3.909-1.231,31.35,31.35,0,0,0-5.166-.616c-.286-.01-.569-.014-.844-.014a17.673,17.673,0,0,0-3.7.355c-.805.174-1.79.529-1.921,1.235a43.645,43.645,0,0,0-.375,4.672c-.109,2.306-.163,4.78-.159,7.348,0,2.53.081,4.849.23,6.893.192,2.684.535,3.027.573,3.059a11.666,11.666,0,0,0,4.208.74c2.841.141,3.179-.222,3.209-.264l.054-.061a3.6,3.6,0,0,0,.521-1.36c.228-.833.462-1.879.694-3.11l.073-.393.392.075a8.887,8.887,0,0,0,6.837-1.247,9.769,9.769,0,0,0,4.149-5.39c1.445-4.654-.195-8.253-4.871-10.691m-2.444,10.068a3.287,3.287,0,0,1-2.305.936c-.079,0-.157,0-.23,0a2.009,2.009,0,0,1-1.311-.361,2.263,2.263,0,0,1-.731-1.019,5.172,5.172,0,0,1-.283-1.968c.036-1.947,1.189-2.423,2.149-2.476a4.133,4.133,0,0,1,.741.056l.024,0c.075.016.151.032.224.051.048.01.093.024.137.036a1.019,1.019,0,0,1,.1.03l.119.036a3.993,3.993,0,0,1,.476.19c.048.022.092.044.135.067.066.034.129.072.192.109l.006,0a2.815,2.815,0,0,1,.494.379,2.581,2.581,0,0,1,.714,1.217,3.088,3.088,0,0,1,.093.5,2.7,2.7,0,0,1-.743,2.21" transform="translate(-119.658 -8.41)" fill="#f6f3c6"/>
        <path id="Trazado_3184" data-name="Trazado 3184" d="M384.4,40.422c-.289,1.572-.789,3.586-1.483,5.988-.685,2.377-1.417,4.764-2.177,7.095-.745,2.3-1.457,4.343-2.111,6.086a16.163,16.163,0,0,1-1.221,2.882s-.176.165-1.013.063a15.983,15.983,0,0,1-2.192-.432,22.427,22.427,0,0,1-2.236-.716,5.263,5.263,0,0,1-1.312-.632,6.608,6.608,0,0,1-1.2-1.617c-.521-.864-1.063-1.812-1.606-2.815-.563-1.039-1.046-1.961-1.479-2.815-.462-.912-.725-1.449-.826-1.691l-.395-.944-.345.963c-.654,1.84-1.251,3.431-1.772,4.73-.587,1.463-.89,1.754-.965,1.81l-.008,0a11.055,11.055,0,0,1-4.143-.629c-2.2-.628-2.827-1.151-2.883-1.3A.945.945,0,0,1,355,56.29a.368.368,0,0,0,0-.04,4.678,4.678,0,0,1-.024-.573,19.755,19.755,0,0,1,.188-2.42c.244-1.863.6-4.008,1.077-6.373.48-2.4,1.035-4.831,1.647-7.21a43.069,43.069,0,0,1,1.861-5.816s.137-.192,1.049-.174a14.89,14.89,0,0,1,2.731.351,23.225,23.225,0,0,1,3.027.866,9.315,9.315,0,0,1,2.178,1.037,8.65,8.65,0,0,1,2.244,3.281c.783,1.634,1.391,2.988,1.756,3.917l.46,1.172.3-1.223c.274-1.139.515-2.166.712-3.051a15.684,15.684,0,0,1,.525-1.881c.109-.305.694-.472,1.566-.448a16.249,16.249,0,0,1,3.545.532A16.9,16.9,0,0,1,383.2,39.47c1.2.606,1.209.94,1.209.951" transform="translate(-162.638 -15.432)" fill="#f6f3c6"/>
        <path id="Trazado_3185" data-name="Trazado 3185" d="M331.528,33.052c-.014.561-.044,1.114-.086,1.657,0,.043-.006.089-.012.133-.03.359-.063.714-.107,1.06-.008.057-.014.113-.022.169-.035.271-.073.541-.115.8l-4.918-4.111-5.516,2.5-.4-1.186L316.855,23.84l-7.018,3.544c.062-.1.123-.194.189-.293.236-.367.488-.731.743-1.095.008-.012.02-.025.028-.037.277-.391.567-.775.864-1.154q.393-.5.807-.992c.059-.069.121-.14.18-.21.346-.4.7-.787,1.063-1.164.072-.075.141-.148.212-.222l0,0c.05-.052.1-.1.148-.151.246-.248.5-.49.746-.724l0,0c.182-.168.365-.335.547-.5.066-.057.133-.117.2-.172q.476-.41.96-.785a16.871,16.871,0,0,1,3.13-1.953c.355-.166.711-.311,1.064-.436a8.411,8.411,0,0,1,2.036-.458c.128-.012.26-.02.389-.024h.006a6.229,6.229,0,0,1,.768.024c.109.01.218.024.325.038l.155.025.048.01h0a.278.278,0,0,1,.045.01s0,0,.007,0,.014,0,.02,0a.11.11,0,0,0,.025.006l.014,0,.01,0a.217.217,0,0,1,.036.008c.023.006.051.01.073.016a.149.149,0,0,1,.033.008c.029.006.059.014.089.022.006,0,.01,0,.014,0l.017.006c.01,0,.022,0,.03.008l.014,0a.045.045,0,0,1,.022.006l.022.006c.015,0,.029.008.051.016l.022,0,.077.026c.024.008.05.014.074.022a.039.039,0,0,1,.02.01l.127.04.179.069a5.286,5.286,0,0,1,.646.312c.089.049.178.1.265.158a7.03,7.03,0,0,1,1.695,1.529c.161.2.315.4.462.619a12.289,12.289,0,0,1,1.069,1.9c.042.1.086.192.127.292.031.072.061.143.091.216l0,0v0l0,0c.06.143.116.289.174.436.016.042.03.083.046.125.112.307.221.62.32.942.068.212.131.43.192.648.186.676.347,1.372.478,2.086v0c.113.6.2,1.209.278,1.825.049.415.089.828.122,1.245,0,.011,0,.023,0,.035.046.585.074,1.174.088,1.76.011.5.009,1.005,0,1.5" transform="translate(-141.957 -7.795)" fill="#f6f3c6"/>
        <path id="Trazado_3186" data-name="Trazado 3186" d="M327.219,52.366q-.22.482-.476.943c-.107.192-.216.383-.331.569a14.039,14.039,0,0,1-.88,1.271c-.1.122-.189.244-.288.362a.229.229,0,0,0-.022.026c-.087.1-.172.2-.262.3a12.718,12.718,0,0,1-1.039,1.054c-.046.044-.1.087-.143.129l-.134.117a12.973,12.973,0,0,1-1.947,1.391c-.19.113-.385.22-.581.321-.339.174-.68.333-1.031.476a12.152,12.152,0,0,1-1.76.567,11.583,11.583,0,0,1-1.332.238c-.313.038-.628.063-.947.075h-.074c-.236.008-.47.008-.7,0s-.444-.02-.664-.04a.185.185,0,0,0-.046,0c-.232-.026-.472-.057-.73-.1l0,0-.038-.006-.006,0-.067-.01,0,0c-.1-.018-.206-.037-.307-.057-.048-.008-.091-.018-.137-.028l-.04-.01-.018,0a.088.088,0,0,0-.02,0l-.075-.018a.055.055,0,0,0-.02,0,.3.3,0,0,0-.047-.012l-.068-.014-.006,0c-.014-.006-.028-.008-.04-.012-.043-.01-.087-.022-.129-.034-.018,0-.031-.008-.046-.01h0l0,0a.208.208,0,0,0-.035-.01l-.02-.006c-.03-.008-.06-.016-.087-.026l-.028-.006,0,0-.018,0s-.008,0-.012,0l-.04-.014-.028-.006-.034-.012s0,0-.006,0l-.014,0-.093-.03-.218-.072c-.087-.028-.174-.057-.263-.089a.015.015,0,0,1-.008,0l-.034-.011-.028-.012-.037-.012c-.008,0-.016-.008-.024-.01l-.037-.012a.355.355,0,0,0-.046-.018l-.134-.053c-.014,0-.028-.012-.04-.016l-.023-.01a.075.075,0,0,1-.022-.01l-.018,0-.119-.051a.111.111,0,0,1-.024-.01l0,0-.028-.012c-.313-.134-.616-.279-.908-.438-.2-.105-.387-.216-.575-.333-.026-.018-.056-.034-.081-.051-.06-.037-.121-.075-.18-.117-.032-.02-.063-.042-.1-.063l-.095-.063s0,0-.006,0a.472.472,0,0,1-.04-.028c-.068-.048-.139-.1-.206-.147-.01-.006-.018-.014-.028-.02s0,0,0,0c-.03-.02-.06-.043-.089-.066l-.048-.036-.226-.174c-.159-.128-.311-.257-.464-.392a.109.109,0,0,1-.016-.016c-.185-.165-.361-.333-.535-.508a.008.008,0,0,0-.006-.008c-.2-.2-.387-.409-.569-.621a.03.03,0,0,1-.006-.01c-.141-.166-.28-.337-.41-.511a11.847,11.847,0,0,1-.712-1.046q-.128-.208-.244-.423l0-.006q-.28-.5-.511-1.027c-.1-.228-.192-.454-.277-.686q-.2-.517-.345-1.052a.106.106,0,0,0,0-.014c-.079-.283-.151-.573-.21-.864a.284.284,0,0,1-.014-.069h0c-.01-.048-.018-.1-.028-.141q-.113-.574-.174-1.16v0c-.018-.17-.034-.341-.044-.509-.031-.466-.04-.937-.026-1.411a14.154,14.154,0,0,1,.206-1.982c.01-.066.024-.133.036-.2.031-.17.067-.341.109-.513l7.309-3.692,3.83,11.226,7.386-3.35,3.6,3.011Z" transform="translate(-139.302 -18.738)" fill="#f6f3c6"/>
      </g>
    </g>
  </g>
</svg>
