<svg id="Grupo_2191" data-name="Grupo 2191" xmlns="http://www.w3.org/2000/svg" xmlns:xlink="http://www.w3.org/1999/xlink" width="498.586" height="120.181" viewBox="0 0 498.586 120.181">
  <defs>
    <clipPath id="clip-path">
      <rect id="Rectángulo_258" data-name="Rectángulo 258" width="498.586" height="120.181" fill="none"/>
    </clipPath>
  </defs>
  <g id="Grupo_2190" data-name="Grupo 2190" transform="translate(0 0)" clip-path="url(#clip-path)">
    <path id="Trazado_1238" data-name="Trazado 1238" d="M492.69,40.572a26.471,26.471,0,0,0-6.635-4.588,54.3,54.3,0,0,0-10.9-4.038,52.969,52.969,0,0,0-11.675-1.718c-.308-.008-.6-.013-.89-.013a26.531,26.531,0,0,0-4.442.356q-.495-.4-1-.767A36.453,36.453,0,0,0,448,25.222a68.323,68.323,0,0,0-8.924-2.556,50.274,50.274,0,0,0-9.286-1.152c-.237,0-.463-.007-.682-.007a23.329,23.329,0,0,0-7.147,1.054,41.473,41.473,0,0,0-5.592-8.834,30.614,30.614,0,0,0-13.928-9.672A29.579,29.579,0,0,0,393.1,2.562c-13.111,0-24.337,8.135-31.771,15.437A44.959,44.959,0,0,0,349.8,9.589a50.546,50.546,0,0,0-13.2-4.348,85.9,85.9,0,0,0-14.184-1.69c-.829-.028-1.659-.043-2.468-.043a56.213,56.213,0,0,0-11.805,1.178,26,26,0,0,0-10.055,4.339c-.4-.445-.814-.868-1.238-1.273l-.085-.08-.049-.047-.049-.046-.086-.077c-3.714-3.4-8.55-5.428-14.786-6.214a62.449,62.449,0,0,0-7.777-.48c-1.078,0-2.18.027-3.277.081a62.738,62.738,0,0,0-10.587,1.376,28.456,28.456,0,0,0-8.686,3.3,26.006,26.006,0,0,0-8.19-3.851,50.269,50.269,0,0,0-25.626-.107,28.513,28.513,0,0,0-4.162,1.465,28.924,28.924,0,0,0-4.278-1.065,46.457,46.457,0,0,0-7.831-.649c-1.606,0-3.264.077-4.929.232A47.344,47.344,0,0,0,183.7,4.519a27.244,27.244,0,0,0-5.521,2.871,39.852,39.852,0,0,0-13.446-3.4c-1.111-.085-2.238-.127-3.352-.127A45.986,45.986,0,0,0,148.02,5.878a40.982,40.982,0,0,0-15.448,8.546,38.587,38.587,0,0,0-5.332,5.775,26.894,26.894,0,0,0-4.862-3.81l-.1-.059-.059-.035-.06-.035-.1-.058a24.068,24.068,0,0,0-12.326-3.034c-1.1,0-2.26.055-3.451.166a64.216,64.216,0,0,0-10.9,1.992,63.246,63.246,0,0,0-10.065,3.624A28.429,28.429,0,0,0,77.461,24.1a26.03,26.03,0,0,0-8.931-2.018c-.8-.043-1.61-.065-2.414-.065a49.465,49.465,0,0,0-10.63,1.2,48.82,48.82,0,0,0-12.063,4.3A28.651,28.651,0,0,0,39.6,29.892a27.577,27.577,0,0,0-2.916-.151c-.521,0-1.06.014-1.6.04a49.48,49.48,0,0,0-12.586,2.365,47.924,47.924,0,0,0-11.867,5.612C5.721,41.009,2.457,45.11.929,49.948A19.852,19.852,0,0,0,.38,59.812,89.778,89.778,0,0,0,4.4,72.362c1.863,5.03,3.981,10.377,6.3,15.893,2.324,5.536,4.615,10.587,6.81,15.013a56.593,56.593,0,0,0,3.829,6.746c3.592,5.254,8.188,8.287,13.661,9.011l.034,0,.029,0,.029,0,.042,0a24.779,24.779,0,0,0,3.055.186,42.154,42.154,0,0,0,13.449-2.636,44.132,44.132,0,0,0,7.436-3.156,24.109,24.109,0,0,0,3.583-2.424,23.877,23.877,0,0,0,3.839.3,42.988,42.988,0,0,0,8.512-1,42.261,42.261,0,0,0,12.386-4.179q.7.042,1.4.042a45.17,45.17,0,0,0,8.072-.882c5.66-1.048,8.363-1.746,10.711-2.767a19.172,19.172,0,0,0,6.746-4.884,19.633,19.633,0,0,0,9.07,2.243c.252,0,.508,0,.76-.015a50.455,50.455,0,0,0,8.983-1.519c3.812-.844,6.914-1.663,9.483-2.5a23.5,23.5,0,0,0,6.58-3.305,42.075,42.075,0,0,0,11.945,1.707,48.4,48.4,0,0,0,9.886-1.056,43.947,43.947,0,0,0,15.041-6.057,17.871,17.871,0,0,0,3.833,1.957l.043.016.023.009.025.008.041.015a29.785,29.785,0,0,0,10.177,1.58,59.468,59.468,0,0,0,6.448-.386,43.644,43.644,0,0,0,7.925-1.483,24.16,24.16,0,0,0,3.926-1.557,24.24,24.24,0,0,0,4.091,1.2,43.95,43.95,0,0,0,8.012.755c.467.008.92.012,1.362.012a40.29,40.29,0,0,0,11.564-1.416,40.161,40.161,0,0,0,9.366,1.214c1.819.062,3.32.093,4.592.093a32.75,32.75,0,0,0,6.448-.492,19.177,19.177,0,0,0,7.574-3.28,19.627,19.627,0,0,0,9.057,4.251,47.536,47.536,0,0,0,8.655.451h.441c3.9,0,7.1-.137,9.788-.405q1.108-.109,2.19-.315c3.835,1.647,8.54,2.541,14.944,2.861,1.257.062,2.439.094,3.509.094,3.338,0,12.193,0,18.117-7.026a20.3,20.3,0,0,0,3.014-4.707q.877-.211,1.742-.467.321.8.672,1.587a42.106,42.106,0,0,0,25.314,23.2,41.432,41.432,0,0,0,13.083,2.116,43.585,43.585,0,0,0,21.6-5.875,21.587,21.587,0,0,0,4.477,3.7,38.976,38.976,0,0,0,10.063,4.2,46.5,46.5,0,0,0,12.754,2.139,25.665,25.665,0,0,0,4.226-.34l.086-.014.055-.009.055-.011.089-.016a18.613,18.613,0,0,0,1.909-.459,21.784,21.784,0,0,0,2.035,1.883,27.048,27.048,0,0,0,7.771,4.211,66.228,66.228,0,0,0,6.665,2.138,52.651,52.651,0,0,0,7.241,1.415,27.1,27.1,0,0,0,3.176.195,19.22,19.22,0,0,0,14.566-6.193c2.373-2.642,3.666-5.43,6.117-11.96,1.513-4.029,3.142-8.721,4.842-13.945,1.7-5.241,3.352-10.61,4.894-15.957,1.687-5.849,2.871-10.654,3.619-14.689l.035-.191.022-.117.016-.117.029-.194a18.689,18.689,0,0,0-5.7-16.245" transform="translate(0 0)" fill="#6c33cc"/>
    <path id="Trazado_1239" data-name="Trazado 1239" d="M345.863,14.347A44.254,44.254,0,0,0,334.355,10.6a79.365,79.365,0,0,0-13.116-1.564c-.756-.026-1.512-.039-2.246-.039a49.785,49.785,0,0,0-10.446,1.032c-7.318,1.58-10.6,5.514-12.073,8.673a25.767,25.767,0,0,0-5.027-7.243l-.083-.08-.086-.077c-2.7-2.464-6.374-3.961-11.244-4.577a56.08,56.08,0,0,0-6.971-.429c-.976,0-1.972.025-2.965.073A56.326,56.326,0,0,0,260.6,7.6c-3.388.757-7.588,2.1-10.361,5.751-1.7-2.453-4.626-4.976-9.657-6.386a43.829,43.829,0,0,0-22.2-.094,19.392,19.392,0,0,0-5.495,2.355A20.083,20.083,0,0,0,207.165,7.4a40.049,40.049,0,0,0-6.74-.557c-1.409,0-2.866.069-4.334.205A40.916,40.916,0,0,0,185.07,9.57a18.134,18.134,0,0,0-7,4.586q-.417-.259-.846-.5a33.186,33.186,0,0,0-13.938-4.2c-.949-.073-1.911-.109-2.861-.109a39.537,39.537,0,0,0-11.486,1.74,34.592,34.592,0,0,0-13.042,7.2,28.68,28.68,0,0,0-8.455,12.486c-3.442-4.962-6.348-8.012-9.348-9.825l-.1-.06-.1-.058a17.818,17.818,0,0,0-9.112-2.176c-.9,0-1.864.047-2.86.139a57.786,57.786,0,0,0-9.8,1.8,56.7,56.7,0,0,0-9.035,3.248c-3.177,1.479-7.034,3.717-8.949,7.936-2.193-2.055-5.618-3.921-10.908-4.21-.68-.036-1.374-.055-2.063-.055a43.05,43.05,0,0,0-9.241,1.045,42.47,42.47,0,0,0-10.472,3.724A19.472,19.472,0,0,0,40.525,35.8a19.02,19.02,0,0,0-4.8-.574c-.416,0-.848.011-1.286.032A42.947,42.947,0,0,0,23.5,37.327,41.479,41.479,0,0,0,13.23,42.174C4.8,47.758,5.185,54.814,5.741,57.589a86.745,86.745,0,0,0,3.741,11.58c1.83,4.942,3.916,10.2,6.2,15.637,2.272,5.411,4.507,10.339,6.642,14.644a50.7,50.7,0,0,0,3.374,5.971c.938,1.373,3.792,5.546,9.19,6.261l.042.006.042,0a18.342,18.342,0,0,0,2.259.136,36.126,36.126,0,0,0,11.388-2.3,37.957,37.957,0,0,0,6.361-2.679,15.451,15.451,0,0,0,4.784-3.974,15.284,15.284,0,0,0,5.773,1.037,36.865,36.865,0,0,0,7.235-.876c5.515-1.115,9.321-2.525,12.167-4.518a16.251,16.251,0,0,0,2.9.254,38.963,38.963,0,0,0,6.9-.775c5.056-.936,7.493-1.549,9.315-2.34a12.473,12.473,0,0,0,5.694-4.871,17.777,17.777,0,0,0,1.792-3.905,14.672,14.672,0,0,0,6.166,4.706,12.957,12.957,0,0,0,4.733.895c.168,0,.337,0,.506-.011a47.28,47.28,0,0,0,7.844-1.371c3.6-.8,6.508-1.563,8.875-2.335a15.575,15.575,0,0,0,7.107-4.517,35.308,35.308,0,0,0,13.418,2.6,41.985,41.985,0,0,0,8.565-.917,35.781,35.781,0,0,0,16.833-8.194,11.886,11.886,0,0,0,5.592,4.355l.041.015.041.014a23.479,23.479,0,0,0,8,1.2,53.2,53.2,0,0,0,5.75-.348,37.576,37.576,0,0,0,6.763-1.247,15.454,15.454,0,0,0,5.445-2.8,15.574,15.574,0,0,0,5.715,2.3,37.823,37.823,0,0,0,6.845.627c.426.007.841.011,1.246.011,4.945,0,8.556-.555,11.518-1.783a28.047,28.047,0,0,0,9.631,1.586c1.745.059,3.175.088,4.371.088a26.891,26.891,0,0,0,5.2-.371,12.447,12.447,0,0,0,6.612-3.547,17.528,17.528,0,0,0,2.525-3.341,14.634,14.634,0,0,0,4.961,5.846,12.933,12.933,0,0,0,4.921,1.995,43.951,43.951,0,0,0,7.512.349h.438c3.685,0,6.679-.127,9.153-.373a18.167,18.167,0,0,0,3.588-.719c.187.112.376.218.571.321l.026.014.027.013c3.262,1.685,7.543,2.577,13.881,2.893,1.152.058,2.225.087,3.189.087,2.819,0,9.227,0,13.219-4.77a16.624,16.624,0,0,0,3.185-6.191A30.415,30.415,0,0,0,348.385,69.2a32.481,32.481,0,0,0,13.749-17.968c4.823-15.534-1.107-28.979-16.271-36.884" transform="translate(0.956 0.955)" fill="#f6f3c6"/>
    <path id="Trazado_1240" data-name="Trazado 1240" d="M428.123,41.049a20.2,20.2,0,0,0-5.051-3.46,47.946,47.946,0,0,0-9.6-3.549,46.54,46.54,0,0,0-10.249-1.516c-.242-.007-.477-.009-.706-.009a17.583,17.583,0,0,0-6.27,1.041,18.7,18.7,0,0,0-2.945-2.672,30.382,30.382,0,0,0-7.567-3.748,62.068,62.068,0,0,0-8.081-2.314,43.717,43.717,0,0,0-8.082-1.011c-.187,0-.365-.006-.539-.006-8.491,0-11.65,5.046-12.678,7.477a102.536,102.536,0,0,0-4.577,14.208c-1.382,5.362-2.631,10.83-3.713,16.251-1.072,5.374-1.9,10.28-2.459,14.582-.95,7.3-.407,10.247.248,12.167,2.07,6.059,8.254,8.567,14.029,10.222a40.45,40.45,0,0,0,10.979,1.889,19.173,19.173,0,0,0,3.159-.251l.089-.015.089-.016a11.35,11.35,0,0,0,4.937-2.192,17.936,17.936,0,0,0,10.251,8.146A59.694,59.694,0,0,0,395.4,108.2a46.272,46.272,0,0,0,6.35,1.246,20.554,20.554,0,0,0,2.417.15,12.613,12.613,0,0,0,9.772-4.056c1.594-1.775,2.552-3.722,4.878-9.919,1.479-3.94,3.076-8.54,4.747-13.673,1.682-5.173,3.309-10.472,4.83-15.749,1.628-5.646,2.765-10.251,3.474-14.079l.035-.193.028-.193a12.316,12.316,0,0,0-3.812-10.683" transform="translate(60.078 4.144)" fill="#f6f3c6"/>
    <path id="Trazado_1241" data-name="Trazado 1241" d="M369.084,37.754C366.336,22.472,359.236,12.2,349.1,8.835a23.165,23.165,0,0,0-7.312-1.165h0c-11.567,0-21.785,7.972-28.32,14.66-7.539,7.715-13.72,17.38-16.534,25.852a40.81,40.81,0,0,0,1.289,29.564,35.734,35.734,0,0,0,21.46,19.712,35.022,35.022,0,0,0,11.052,1.787,37.533,37.533,0,0,0,22.445-7.7,41.111,41.111,0,0,0,14.2-19.975c3.117-9.39,3.772-22.348,1.71-33.816" transform="translate(51.316 1.335)" fill="#f6f3c6"/>
    <path id="Trazado_1242" data-name="Trazado 1242" d="M77.04,81.963c0,.1,0,.184,0,.27,0,.052,0,.1,0,.147,0,.133-.013.254-.022.365,0,.086-.013.163-.021.236a4.9,4.9,0,0,1-.09.588c-.013.052-.026.09-.034.129a.818.818,0,0,1-.077.176c-1.375,1.065-4.076,2.01-8.037,2.81-5.455,1.1-6.358.5-6.486.369l-.1-.089c-.137-.1-.683-.667-1.971-3.57-.98-2.194-2.066-4.926-3.235-8.122l-.323-.881-.845.4c-.717.335-1.444.666-2.17.987-.1.043-.194.086-.292.124-.193.09-.391.176-.588.258s-.4.171-.6.257c-.1.047-.2.086-.3.129s-.215.09-.339.142c-1.289.541-2.479,1.031-3.621,1.5l-.357.146h-.008l-.237.1-.055.021h0l.142.7c.619,3.041,1.083,5.649,1.378,7.753.039.288.074.554.1.8,0,.013,0,.021,0,.034.026.189.042.365.06.533,0,.06.013.115.018.171.008.1.016.184.026.271a.216.216,0,0,0,0,.047c0,.052.009.1.013.146a.192.192,0,0,0,0,.052,1.186,1.186,0,0,1,.008.124.137.137,0,0,0,0,.043c0,.029,0,.055,0,.081a.539.539,0,0,1,0,.073.024.024,0,0,0,0,.022.283.283,0,0,0,0,.065,5.018,5.018,0,0,1-.026,1.133.607.607,0,0,1-.018.087l-.021.086c-.021.107-.365,1.073-5.739,2.886-3.875,1.31-6.735,1.864-8.466,1.65-.163-.06-1.112-.619-3.728-5.893-2.028-4.089-4.162-8.793-6.34-13.982-2.217-5.279-4.24-10.386-6.014-15.175A83.178,83.178,0,0,1,15.4,50.322a1.442,1.442,0,0,1-.031-.309,1.231,1.231,0,0,1,.013-.176.172.172,0,0,1,0-.047.063.063,0,0,1,0-.026.06.06,0,0,1,.009-.039.358.358,0,0,1,.016-.1.3.3,0,0,1,.013-.06.041.041,0,0,1,0-.021c.013-.047.029-.1.047-.142a.818.818,0,0,1,.034-.1.688.688,0,0,1,.035-.073.794.794,0,0,1,.06-.129c.026-.047.052-.1.081-.146a.157.157,0,0,1,.031-.052l.026-.043a4.323,4.323,0,0,1,.5-.64c.039-.039.074-.077.112-.112a1.62,1.62,0,0,1,.116-.121.028.028,0,0,1,.018-.008v0c.052-.05.1-.1.159-.15.039-.039.082-.076.124-.112A.186.186,0,0,1,16.8,47.7c.073-.065.147-.124.22-.184.129-.1.257-.2.386-.3.171-.129.344-.249.515-.36a29.8,29.8,0,0,1,7.4-3.471A31.3,31.3,0,0,1,33.3,41.861c.244-.013.477-.021.7-.021,1.692,0,2.787.343,3.046.966.7,1.7,1.477,3.844,2.427,6.736.859,2.606,1.722,5.416,2.577,8.354l.245.847.842-.267c2.113-.67,4.338-1.34,6.618-1.989l.838-.236L50.516,56s0-.013-.009-.018l-.167-.571c-.877-2.926-1.659-5.721-2.32-8.313-.622-2.417-1.142-4.729-1.538-6.867a1,1,0,0,1-.013-.16.876.876,0,0,1,.043-.275c.013-.043.026-.086.042-.129a1.03,1.03,0,0,1,.087-.167c.026-.048.06-.1.094-.15a2.441,2.441,0,0,1,.271-.331c.042-.043.086-.09.137-.137s.112-.1.176-.16.107-.089.167-.137c.1-.081.211-.167.331-.249.047-.034.1-.065.15-.1a1.05,1.05,0,0,1,.121-.082c.15-.1.317-.2.49-.3s.335-.189.515-.283a30.845,30.845,0,0,1,7.607-2.68,30.209,30.209,0,0,1,8.174-.735c1.577.087,3.566.456,4.076,1.732a77.428,77.428,0,0,1,2.59,10.016c1.078,5.009,2.113,10.4,3.076,16.005.94,5.529,1.658,10.614,2.13,15.125a42.391,42.391,0,0,1,.292,4.927" transform="translate(2.675 5.94)" fill="#6c33cc"/>
    <path id="Trazado_1243" data-name="Trazado 1243" d="M126.471,72.025c0-.047-.008-.089-.018-.137a.627.627,0,0,0-.021-.124c-.008-.055-.021-.116-.034-.176s-.031-.107-.043-.163a6.634,6.634,0,0,0-.249-.769c-.026-.06-.047-.115-.073-.176-.065-.159-.134-.33-.21-.511-.774-1.864-2.1-4.729-4.034-8.715-2.173-4.485-4.592-9.119-7.185-13.784-2.625-4.716-5.309-9.106-7.981-13.05-3.23-4.768-5.211-6.56-6.3-7.216-.679-.391-2.131-.808-5.116-.533a45.753,45.753,0,0,0-7.822,1.439A44.9,44.9,0,0,0,80.2,30.677c-.721.336-1.288.636-1.731.9-.129.077-.244.15-.352.223l-.155.1c-.052.034-.094.069-.141.1a4.264,4.264,0,0,0-.567.46l-.09.09a1.378,1.378,0,0,0-.22.275.289.289,0,0,1-.026.042.137.137,0,0,0-.016.039,45.516,45.516,0,0,0-2.11,9.691c-.627,4.566-1.091,9.493-1.37,14.643-.278,5.085-.356,10.068-.228,14.815a51.687,51.687,0,0,0,1.01,10.27,1.813,1.813,0,0,0,.764,1.048c.061.034.971.456,5.876-.451a44.338,44.338,0,0,0,6.8-1.572A.99.99,0,0,0,88.112,81l.048-.073c.016-.026.034-.056.06-.09s.031-.056.047-.09l.056-.112c.026-.056.055-.12.086-.194.018-.039.034-.076.052-.12a.9.9,0,0,0,.042-.108.847.847,0,0,0,.048-.115l.008-.022c.031-.076.06-.158.09-.244s.073-.2.112-.305c.008-.026.018-.052.026-.081s.029-.09.047-.137c.031-.1.065-.194.1-.3s.069-.218.108-.335c.055-.184.12-.386.184-.606.06-.193.12-.4.184-.627.473-1.663.924-3.248,1.328-4.69v-.008c.065-.237.129-.464.189-.692a3.709,3.709,0,0,1,.64-1.284.936.936,0,0,1,.1-.124.057.057,0,0,1,.016-.018,2.816,2.816,0,0,1,.211-.232l.039-.038c.076-.074.154-.142.24-.211a2.481,2.481,0,0,1,.2-.154c0-.009.009-.009.013-.009A.758.758,0,0,1,92.5,69.9c.09-.065.189-.124.288-.184l.008,0a3.2,3.2,0,0,1,.288-.154c.112-.061.224-.112.344-.163s.215-.09.326-.134h0c.116-.042.236-.086.36-.124h.008c.121-.039.25-.077.378-.107s.267-.069.4-.1c2.453-.456,3.669-.675,6.1-1.1l.1-.013a3.675,3.675,0,0,1,2.608.8,16.636,16.636,0,0,1,3.531,4.876c1.5,2.766,2.444,3.449,2.869,3.608a1.4,1.4,0,0,0,.593.112,9.534,9.534,0,0,0,1.083-.137c.108-.018.215-.039.326-.055,1.181-.211,2.818-.564,4.386-.911,3.225-.717,5.773-1.383,7.778-2.036a3.88,3.88,0,0,0,2.062-1.22,1.074,1.074,0,0,0,.142-.6,2.258,2.258,0,0,0-.013-.228M89.577,57.275c-.477-.79-.464-2.207.043-4.6A19.342,19.342,0,0,1,90.629,49.3c.039-.094.082-.184.124-.275s.087-.189.129-.283c.056-.113.112-.22.168-.318a3.655,3.655,0,0,1,.181-.318c.068-.112.137-.22.205-.322l.008-.013a2.141,2.141,0,0,1,1.16-.877c.052-.016.1-.029.15-.042a1.92,1.92,0,0,1,.2-.035c.026,0,.052,0,.082-.008,1.147-.086,2.474.713,4.17,2.517.468.5.877.953,1.229,1.362.176.205.339.4.485.584.052.061.1.124.15.185.09.115.184.228.27.348a1.822,1.822,0,0,1,.121.163c.034.052.073.1.107.15.074.1.142.194.207.292.031.042.056.09.086.137.077.112.142.22.2.318.073.12.137.236.189.343l.008.013c.026.052.052.1.074.147a2.43,2.43,0,0,1,.283,1.129v0a2.381,2.381,0,0,1-.09.592v0a2.519,2.519,0,0,1-.438.851,1.092,1.092,0,0,1-.1.133,2.343,2.343,0,0,1-.167.176v0a9.126,9.126,0,0,1-4.188,1.863,14.622,14.622,0,0,1-3.081.417,3.241,3.241,0,0,1-2.976-1.267" transform="translate(12.732 4.628)" fill="#6c33cc"/>
    <path id="Trazado_1244" data-name="Trazado 1244" d="M161.108,63.672c-3.359,4.48-8.054,7.3-14.351,8.617-6.276,1.31-11.787.722-16.855-1.8a17.384,17.384,0,0,1-8.788-8.895c-.362-.95-.538-2.4,2.138-4.008a14.209,14.209,0,0,1,3.385-1.486,26.47,26.47,0,0,1,3.763-.85,20.9,20.9,0,0,1,2.835-.2,17.377,17.377,0,0,1,2.577.189c1.314.2,2.157.572,2.375,1.061a2.287,2.287,0,0,0,.352.679,3.538,3.538,0,0,0,2.23,1.473,5.494,5.494,0,0,0,3.823-.6,2.74,2.74,0,0,0,1.542-1.648,2.541,2.541,0,0,0-.416-2.079,4.205,4.205,0,0,0-2.981-1.392,66.852,66.852,0,0,0-9.124-.781,19.117,19.117,0,0,1-8.389-2.17,12.525,12.525,0,0,1-4.863-4.321,15.794,15.794,0,0,1-2.207-8.2c-.2-4.734,1.761-8.965,5.828-12.577a23.008,23.008,0,0,1,8.712-4.777,27.434,27.434,0,0,1,10.094-1.164,21.674,21.674,0,0,1,9.106,2.723,13.375,13.375,0,0,1,5.561,5.943l0,0c.052.108.108.22.16.326s.1.22.15.331a1.8,1.8,0,0,1-.619,2.246,14.013,14.013,0,0,1-3.771,2.393,32.635,32.635,0,0,1-4.88,1.748c-1.895.511-3.2.761-3.8.859a1.477,1.477,0,0,1-.966-.142c-.357-.189-.5-.357-.512-.443a2.43,2.43,0,0,0-1.357-1.744,4.3,4.3,0,0,0-.468-.228c-.12-.047-.24-.09-.36-.124a4.039,4.039,0,0,0-2.272,0c-.168.047-.326.1-.486.16-.077.029-.154.06-.231.094a.282.282,0,0,0-.052.021c-.124.052-.245.113-.365.176a1.576,1.576,0,0,0-.184.1,9.413,9.413,0,0,0-1.392.95,3.287,3.287,0,0,0-1.176,1.546,1.439,1.439,0,0,0,.016.829c.326,1.036,1.659,1.564,4.455,1.766.391.029.825.055,1.3.086s.971.055,1.465.073c5.815.275,10.549,1.4,14.063,3.325a14.7,14.7,0,0,1,7.736,9.948,14,14,0,0,1-2.8,11.984" transform="translate(20.567 3.248)" fill="#6c33cc"/>
    <path id="Trazado_1245" data-name="Trazado 1245" d="M214.622,29.322c-.021,5.12-.171,10.6-.438,16.293-.267,5.592-.662,10.717-1.173,15.227a44.417,44.417,0,0,1-.748,4.786c-.047.218-.094.407-.141.58-.018.06-.031.115-.047.171a4.7,4.7,0,0,1-.357.958l-.047.09a.129.129,0,0,0-.026.034c-.018.021-.026.034-.039.047a.067.067,0,0,1-.018.021c-1.564.74-4.385,1.079-8.389,1.01-5.519-.1-6.267-.881-6.361-1.039l-.077-.112c-.112-.129-.524-.8-1.152-3.909-.477-2.351-.949-5.254-1.4-8.634l-.124-.932-.915.21c-1.378.31-2.792.6-4.206.859-1.451.267-2.86.52-4.183.743l-.7.12-.013.714c-.047,3.105-.155,5.751-.318,7.869-.218,2.823-.5,3.5-.58,3.647l-.039.077c-.042.094-.579.966-6.164,1.572-4.025.438-6.911.36-8.535-.223-.146-.09-.94-.847-2.346-6.563-1.091-4.429-2.152-9.484-3.148-15.021-1.023-5.632-1.89-11.056-2.587-16.117a85.4,85.4,0,0,1-1.039-10.3c.026-1.341,1.74-2.281,3.17-2.839a29.377,29.377,0,0,1,7.9-1.783q1.668-.155,3.251-.154a28.039,28.039,0,0,1,4.79.39c2.039.349,3.29.98,3.419,1.736.318,1.812.609,4.067.91,7.1.276,2.729.515,5.661.714,8.72l.055.877.881-.077c2.2-.2,4.493-.375,6.839-.512l.868-.052-.065-.871c-.223-3.05-.383-5.949-.473-8.617-.086-2.5-.094-4.863-.026-7.036a.671.671,0,0,1,.022-.159.545.545,0,0,1,.034-.116.721.721,0,0,1,.052-.116.388.388,0,0,1,.034-.06.727.727,0,0,1,.086-.133,1.317,1.317,0,0,1,.1-.116,1.832,1.832,0,0,1,.31-.284c.055-.039.115-.081.18-.124s.108-.068.163-.1a.144.144,0,0,1,.047-.026c.077-.042.155-.086.241-.128a9.845,9.845,0,0,1,1.83-.67,32.309,32.309,0,0,1,16.026.068c1.512.426,3.359,1.216,3.582,2.574a77.884,77.884,0,0,1,.365,10.339" transform="translate(27.735 2.675)" fill="#6c33cc"/>
    <path id="Trazado_1246" data-name="Trazado 1246" d="M263.526,65.993c-.31-1.929-1.027-5.236-2.187-10.111-1.155-4.841-2.513-9.893-4.038-15.008-1.546-5.167-3.217-10.03-4.973-14.462-2.122-5.353-3.664-7.521-4.587-8.4-.572-.525-1.895-1.241-4.858-1.619a45.752,45.752,0,0,0-7.917-.276,44.448,44.448,0,0,0-7.534.963c-2.912.653-3.548,1.288-3.677,1.464a45.4,45.4,0,0,0-4.123,9.012c-1.589,4.322-3.093,9.033-4.471,14-1.357,4.905-2.5,9.754-3.393,14.419a52.134,52.134,0,0,0-1.221,10.245,1.862,1.862,0,0,0,.52,1.194c.052.043.851.653,5.8.821a43.161,43.161,0,0,0,6.946-.069.979.979,0,0,0,.524-.244l.056-.06a14.713,14.713,0,0,0,1.963-3.136c.9-1.675,1.834-3.411,2.632-4.939.756-1.452,2.277-2.187,4.519-2.187h.026c2.483.082,3.711.129,6.169.232l.1.008a3.685,3.685,0,0,1,2.367,1.344,16.716,16.716,0,0,1,2.388,5.521c.872,3.028,1.641,3.9,2.018,4.145a1.444,1.444,0,0,0,.554.236,56.7,56.7,0,0,0,5.876.163c3.3,0,5.923-.107,8.016-.317a3.817,3.817,0,0,0,2.268-.748c.326-.309.417-1.108.241-2.191m-21.8-20.326a1.239,1.239,0,0,1-.124.137l0,.008s0,0-.008.009c-1.28,1.361-4.012,1.374-5.035,1.378h-.163c-2.122,0-4.91-.244-5.545-2.135a2.407,2.407,0,0,1-.082-1.113,1.574,1.574,0,0,1,.026-.18,12.99,12.99,0,0,1,1.087-3.188,14.727,14.727,0,0,1,2.642-4.219c.06-.065.12-.124.181-.18a2.074,2.074,0,0,1,1.761-.593c1.138.163,2.254,1.228,3.522,3.354.115.194.231.391.343.588.1.175.2.352.3.528.153.274.289.528.416.771.1.188.2.375.288.565s.184.383.267.575c.026.061.05.116.076.176.061.142.116.284.173.426.034.081.065.167.1.257a6.9,6.9,0,0,1,.228.795.045.045,0,0,0,0,.021,2.39,2.39,0,0,1,.018,1.078,2.531,2.531,0,0,1-.244.615,2.166,2.166,0,0,1-.207.3l-.013.018" transform="translate(36.653 2.795)" fill="#6c33cc"/>
    <path id="Trazado_1247" data-name="Trazado 1247" d="M295.991,22.389a33.714,33.714,0,0,0-8.471-2.668,67.933,67.933,0,0,0-11.194-1.335c-.619-.022-1.233-.031-1.829-.031a38.3,38.3,0,0,0-8.011.769c-1.745.378-3.879,1.147-4.162,2.676a94.577,94.577,0,0,0-.812,10.124c-.236,5-.352,10.357-.344,15.923.009,5.482.176,10.507.5,14.936.417,5.816,1.16,6.56,1.241,6.628,1.628.838,4.7,1.38,9.119,1.6,6.156.305,6.89-.481,6.954-.572l.116-.133c.073-.069.472-.538,1.129-2.947.494-1.8,1-4.072,1.5-6.739l.158-.851.85.163a19.257,19.257,0,0,0,14.816-2.7,21.168,21.168,0,0,0,8.99-11.679c3.131-10.085-.422-17.883-10.554-23.166m-5.3,21.817a7.122,7.122,0,0,1-5,2.028c-.171.008-.339.008-.5.008a4.353,4.353,0,0,1-2.84-.782,4.9,4.9,0,0,1-1.585-2.207,11.207,11.207,0,0,1-.614-4.265c.078-4.219,2.577-5.249,4.656-5.366a8.956,8.956,0,0,1,1.606.121l.052.008c.163.034.326.069.486.112.1.022.2.052.3.077a2.214,2.214,0,0,1,.219.065q.136.039.257.077a8.655,8.655,0,0,1,1.031.412c.1.047.2.1.292.146.142.074.279.155.417.237l.013.008a6.105,6.105,0,0,1,1.07.821,5.593,5.593,0,0,1,1.546,2.637,6.7,6.7,0,0,1,.2,1.074,5.845,5.845,0,0,1-1.611,4.789" transform="translate(45.467 3.196)" fill="#6c33cc"/>
    <path id="Trazado_1248" data-name="Trazado 1248" d="M418.746,48.285c-.627,3.406-1.709,7.77-3.213,12.976-1.485,5.151-3.07,10.323-4.716,15.374-1.614,4.975-3.157,9.412-4.574,13.187-1.756,4.678-2.409,5.98-2.646,6.245,0,0-.382.357-2.194.137a34.64,34.64,0,0,1-4.75-.936,48.6,48.6,0,0,1-4.845-1.551,11.406,11.406,0,0,1-2.844-1.37,14.322,14.322,0,0,1-2.6-3.5c-1.129-1.873-2.3-3.926-3.48-6.1-1.22-2.251-2.267-4.249-3.2-6.1-1-1.976-1.572-3.141-1.79-3.664l-.856-2.045-.747,2.088c-1.417,3.986-2.711,7.436-3.84,10.25-1.272,3.17-1.929,3.8-2.091,3.921l-.018.008c-1.813.284-4.828-.171-8.977-1.362-4.764-1.361-6.125-2.495-6.246-2.818a2.047,2.047,0,0,1-.073-.352.8.8,0,0,0-.008-.086,10.133,10.133,0,0,1-.052-1.241,42.8,42.8,0,0,1,.407-5.245c.528-4.038,1.31-8.686,2.333-13.81,1.039-5.211,2.243-10.468,3.569-15.622a93.329,93.329,0,0,1,4.033-12.6s.3-.417,2.273-.378a32.266,32.266,0,0,1,5.919.76,50.328,50.328,0,0,1,6.56,1.877,20.19,20.19,0,0,1,4.72,2.246c1.014.73,2.677,2.556,4.863,7.109,1.7,3.54,3.015,6.474,3.805,8.488l1,2.54.64-2.651c.593-2.469,1.117-4.694,1.543-6.61a33.984,33.984,0,0,1,1.138-4.076c.236-.661,1.5-1.023,3.393-.971a35.212,35.212,0,0,1,7.681,1.152,36.625,36.625,0,0,1,7.276,2.676c2.6,1.314,2.621,2.036,2.621,2.062" transform="translate(61.799 5.864)" fill="#6c33cc"/>
    <path id="Trazado_1249" data-name="Trazado 1249" d="M356.839,51.766c-.03,1.215-.1,2.414-.185,3.592,0,.094-.013.193-.026.288-.065.777-.137,1.546-.232,2.3-.016.124-.029.244-.047.365-.076.588-.157,1.173-.249,1.74l-10.657-8.909-11.953,5.416-.876-2.569-7.569-22.181-15.207,7.68c.135-.21.267-.42.409-.635.511-.795,1.057-1.585,1.611-2.372.018-.026.043-.055.06-.081.6-.847,1.229-1.68,1.873-2.5q.851-1.09,1.749-2.149c.128-.15.263-.3.39-.454.749-.864,1.513-1.706,2.3-2.522.155-.163.305-.322.46-.481l.008,0c.108-.113.215-.22.322-.326.533-.538,1.074-1.061,1.616-1.569l0,0c.394-.364.79-.726,1.185-1.073.142-.124.289-.254.43-.373q1.032-.889,2.079-1.7a36.555,36.555,0,0,1,6.783-4.231c.769-.36,1.542-.674,2.306-.945a18.225,18.225,0,0,1,4.412-.992c.278-.026.562-.042.842-.052h.014a13.5,13.5,0,0,1,1.665.052c.237.021.473.052.7.082.112.016.224.039.336.055.034.009.063.013.1.022h0a.6.6,0,0,1,.1.021s.009,0,.014,0,.031,0,.042.008a.238.238,0,0,0,.055.013c.014,0,.023,0,.031.008l.021,0a.474.474,0,0,1,.079.018c.05.013.112.021.157.034a.326.326,0,0,1,.07.018c.063.013.128.029.193.047.013,0,.021.008.031,0l.038.013c.022.008.048.008.065.016l.031.008a.1.1,0,0,1,.047.013l.048.013c.033.009.063.018.11.035.013,0,.031,0,.047.008l.168.056c.052.016.109.029.16.047a.085.085,0,0,1,.042.021l.275.086c.124.048.258.1.387.15a11.458,11.458,0,0,1,1.4.675c.193.107.385.218.574.343a15.232,15.232,0,0,1,3.673,3.312c.349.43.683.872,1,1.341a26.631,26.631,0,0,1,2.315,4.127c.09.207.185.417.276.632.068.155.132.31.2.468l0,.008v0l0,0c.129.309.252.627.378.944.034.09.065.181.1.271.243.666.479,1.344.694,2.041.147.459.284.932.417,1.4.4,1.465.753,2.973,1.036,4.519v0c.245,1.3.443,2.619.6,3.956.107.9.193,1.8.265,2.7,0,.025,0,.05,0,.076.1,1.268.16,2.543.19,3.815.025,1.091.02,2.178,0,3.248" transform="translate(53.94 2.962)" fill="#6c33cc"/>
    <path id="Trazado_1250" data-name="Trazado 1250" d="M354.265,65.748q-.477,1.044-1.031,2.044c-.232.417-.468.83-.717,1.233a30.4,30.4,0,0,1-1.907,2.754c-.207.265-.409.528-.623.785a.5.5,0,0,0-.047.056c-.189.223-.373.441-.567.653a27.583,27.583,0,0,1-2.251,2.285c-.1.1-.207.189-.31.279l-.291.254a28.106,28.106,0,0,1-4.219,3.015c-.412.245-.834.477-1.259.7-.735.378-1.474.721-2.233,1.031A26.336,26.336,0,0,1,335,82.062a25.1,25.1,0,0,1-2.887.515c-.679.082-1.361.137-2.052.163h-.16c-.511.018-1.018.018-1.525,0-.48-.013-.962-.042-1.438-.086a.4.4,0,0,0-.1-.008c-.5-.056-1.023-.124-1.581-.215l0,0-.082-.013-.013,0c-.047,0-.094-.013-.146-.021l0,0c-.223-.039-.446-.081-.666-.124-.1-.018-.2-.039-.3-.06-.026,0-.061-.018-.086-.022s-.026,0-.039-.008a.19.19,0,0,0-.043-.008l-.163-.039a.119.119,0,0,0-.043-.008.646.646,0,0,0-.1-.026c-.052-.009-.1-.022-.147-.031l-.013,0c-.029-.013-.06-.016-.086-.026-.094-.021-.189-.047-.279-.073-.039,0-.068-.016-.1-.021h-.008l-.009,0a.451.451,0,0,0-.076-.021l-.043-.013c-.065-.018-.129-.034-.189-.056a.588.588,0,0,1-.06-.013l-.008,0-.039-.008c-.009,0-.018-.009-.026,0l-.087-.031-.06-.013-.073-.026s-.008,0-.013,0-.021,0-.031,0l-.2-.065-.473-.155c-.189-.06-.378-.124-.571-.193a.033.033,0,0,1-.018-.009l-.073-.025-.061-.026-.081-.026c-.018,0-.034-.018-.052-.022l-.081-.026a.766.766,0,0,0-.1-.039c-.1-.038-.193-.076-.291-.115-.031-.009-.061-.026-.087-.035l-.05-.021a.163.163,0,0,1-.048-.021L320,80.949c-.086-.038-.171-.073-.257-.112a.238.238,0,0,1-.052-.021l-.008,0c-.022-.008-.039-.016-.061-.026-.679-.291-1.335-.6-1.967-.949-.425-.228-.838-.468-1.246-.722-.056-.039-.121-.073-.176-.112-.129-.081-.262-.163-.391-.254-.069-.042-.137-.09-.207-.137s-.137-.09-.205-.137c0,0-.009,0-.013-.008a1.031,1.031,0,0,1-.086-.06c-.147-.1-.3-.211-.447-.318-.021-.013-.039-.031-.06-.043,0,0,0,0-.008-.008-.065-.043-.129-.094-.194-.142l-.1-.077c-.163-.124-.326-.252-.49-.378-.344-.278-.674-.558-1.005-.85a.233.233,0,0,1-.034-.034c-.4-.357-.782-.722-1.16-1.1a.018.018,0,0,0-.013-.016c-.425-.439-.838-.885-1.233-1.346a.065.065,0,0,1-.013-.021c-.305-.36-.606-.73-.889-1.108a25.676,25.676,0,0,1-1.543-2.267q-.276-.451-.528-.916l-.008-.013q-.606-1.081-1.108-2.225c-.215-.493-.417-.984-.6-1.486q-.426-1.12-.748-2.28a.234.234,0,0,0-.008-.031c-.171-.614-.326-1.241-.456-1.873a.622.622,0,0,1-.031-.15h0c-.021-.1-.039-.207-.06-.305q-.245-1.243-.378-2.513v0c-.039-.369-.074-.738-.1-1.1-.068-1.01-.086-2.031-.055-3.059a30.668,30.668,0,0,1,.446-4.295c.021-.142.052-.288.078-.434.068-.369.146-.739.236-1.112l15.837-8,8.3,24.326,16.005-7.259,7.805,6.524Z" transform="translate(52.932 7.12)" fill="#6c33cc"/>
  </g>
</svg>
