<svg id="Grupo_3673" data-name="Grupo 3673" xmlns="http://www.w3.org/2000/svg" xmlns:xlink="http://www.w3.org/1999/xlink" width="109.566" height="161.957" viewBox="0 0 109.566 161.957">
  <defs>
    <clipPath id="clip-path">
      <rect id="Rectángulo_1056" data-name="Rectángulo 1056" width="109.566" height="161.957" fill="none"/>
    </clipPath>
    <clipPath id="clip-path-3">
      <rect id="Rectángulo_1050" data-name="Rectángulo 1050" width="52.998" height="63.649" fill="none"/>
    </clipPath>
    <clipPath id="clip-path-4">
      <rect id="Rectángulo_1051" data-name="Rectángulo 1051" width="52.144" height="43.264" fill="none"/>
    </clipPath>
    <clipPath id="clip-path-5">
      <rect id="Rectángulo_1052" data-name="Rectángulo 1052" width="85.159" height="85.159" fill="none"/>
    </clipPath>
    <clipPath id="clip-path-6">
      <rect id="Rectángulo_1053" data-name="Rectángulo 1053" width="106.491" height="88.622" fill="none"/>
    </clipPath>
    <clipPath id="clip-path-7">
      <rect id="Rectángulo_1054" data-name="Rectángulo 1054" width="94.468" height="56.222" fill="none"/>
    </clipPath>
  </defs>
  <g id="Grupo_3672" data-name="Grupo 3672" clip-path="url(#clip-path)">
    <g id="Grupo_3671" data-name="Grupo 3671">
      <g id="Grupo_3670" data-name="Grupo 3670" clip-path="url(#clip-path)">
        <path id="Trazado_3335" data-name="Trazado 3335" d="M71.032,123.522l-9.938,23.69c-.195.475-.389.939-.584,1.4l-5.693,13.569-3.327,7.94-.94,2.247-8.307,19.811-6.46-8.318L26.73,172.2l-14.659,1.718L1.6,175.148l16.431-39.181.9-2.139c0-.021.011-.032.011-.043.065-.152,6.158-14.692,9.431-22.492a.412.412,0,0,0,.044-.1c.54-1.307,1-2.409,1.35-3.219.054-.108.1-.227.141-.335.075-.162.14-.335.2-.5.1-.227.184-.443.281-.669l8.458,3.554,15.966,6.7,7.746,3.241Z" transform="translate(-0.455 -30.237)" fill="#6c33cd"/>
        <g id="Grupo_3657" data-name="Grupo 3657" transform="translate(17.579 76.238)" style="mix-blend-mode: multiply;isolation: isolate">
          <g id="Grupo_3656" data-name="Grupo 3656">
            <g id="Grupo_3655" data-name="Grupo 3655" clip-path="url(#clip-path-3)">
              <path id="Trazado_3336" data-name="Trazado 3336" d="M77.548,123.522l-9.938,23.69c-.195.475-.389.939-.584,1.4l-5.693,13.569-3.327,7.94c-9.507-13.147-20.255-24.781-33.456-34.158l.9-2.139c0-.021.011-.032.011-.043.065-.152,6.158-14.692,9.431-22.492a.412.412,0,0,0,.044-.1c.475-1.048.918-2.117,1.35-3.219.054-.108.1-.227.141-.335.075-.162.14-.335.2-.5.1-.227.184-.443.281-.669l8.458,3.554,15.966,6.7,7.746,3.241Z" transform="translate(-24.551 -106.475)" fill="#8b66c7"/>
            </g>
          </g>
        </g>
        <path id="Trazado_3337" data-name="Trazado 3337" d="M122.73,175.158,97.592,172.2l-15.513,20L69.5,162.184l-5.228-12.477-1.038-2.474-.054-.119-9.885-23.593c.033-.011,2.323-.972,5.164-2.172l.724-.3c1.1-.454,2.258-.94,3.381-1.415l.745-.314c.994-.41,1.945-.811,2.787-1.166l.594-.248,2.809-1.178,23.722-9.949.67-.281.043-.022.745,1.794c0,.011.011.021.021.032l10.738,25.591.043.108.13.314Z" transform="translate(-15.134 -30.237)" fill="#6c33cd"/>
        <g id="Grupo_3660" data-name="Grupo 3660" transform="translate(38.158 76.216)" style="mix-blend-mode: multiply;isolation: isolate">
          <g id="Grupo_3659" data-name="Grupo 3659">
            <g id="Grupo_3658" data-name="Grupo 3658" clip-path="url(#clip-path-4)">
              <path id="Trazado_3338" data-name="Trazado 3338" d="M105.436,133.883c-.173.119-.335.238-.508.367-1.675,1.2-3.381,2.355-5.131,3.435a87.638,87.638,0,0,1-24.609,10.446,46.383,46.383,0,0,1-10.424,1.577c-.075,0-.248,0-.5-.011l-1.037-2.473-.054-.119-9.884-23.593c.032-.011,2.323-.972,5.163-2.171l.724-.3c1.1-.454,2.258-.94,3.381-1.416l.745-.313c.994-.411,1.945-.811,2.787-1.167l.594-.248,2.808-1.177c7.886-3.317,15.966-6.374,23.723-9.949.237-.108.464-.216.7-.324-.021.011-.032.021-.032.043-.119.195.205.864.788,1.772,0,.011.011.021.021.032Z" transform="translate(-53.292 -106.445)" fill="#8b66c7"/>
            </g>
          </g>
        </g>
        <path id="Trazado_3339" data-name="Trazado 3339" d="M109.566,54.783A54.783,54.783,0,1,1,54.782,0a54.783,54.783,0,0,1,54.783,54.783" fill="#cfe3e9"/>
        <g id="Grupo_3663" data-name="Grupo 3663" transform="translate(12.203 12.203)" style="mix-blend-mode: multiply;isolation: isolate">
          <g id="Grupo_3662" data-name="Grupo 3662">
            <g id="Grupo_3661" data-name="Grupo 3661" clip-path="url(#clip-path-5)">
              <path id="Trazado_3340" data-name="Trazado 3340" d="M102.2,59.623A42.58,42.58,0,1,1,59.623,17.044,42.579,42.579,0,0,1,102.2,59.623" transform="translate(-17.043 -17.043)" fill="#cfe3e9"/>
            </g>
          </g>
        </g>
        <g id="Grupo_3666" data-name="Grupo 3666" transform="translate(3.075 20.944)" style="mix-blend-mode: multiply;isolation: isolate">
          <g id="Grupo_3665" data-name="Grupo 3665">
            <g id="Grupo_3664" data-name="Grupo 3664" clip-path="url(#clip-path-6)">
              <path id="Trazado_3341" data-name="Trazado 3341" d="M99.067,29.25A54.775,54.775,0,0,1,4.294,81.188,54.78,54.78,0,1,0,99.067,29.25" transform="translate(-4.294 -29.25)" fill="#e4e4e4"/>
            </g>
          </g>
        </g>
        <g id="Grupo_3669" data-name="Grupo 3669" style="mix-blend-mode: soft-light;isolation: isolate">
          <g id="Grupo_3668" data-name="Grupo 3668">
            <g id="Grupo_3667" data-name="Grupo 3667" clip-path="url(#clip-path-7)">
              <path id="Trazado_3342" data-name="Trazado 3342" d="M58.943,6.8A65.164,65.164,0,0,1,94.469,17.04,54.768,54.768,0,0,0,0,54.783c0,.483.024.959.037,1.439C.8,28.818,26.873,6.8,58.943,6.8" fill="#e4e4e4"/>
            </g>
          </g>
        </g>
        <path id="Trazado_3343" data-name="Trazado 3343" d="M90.7,65.03c-.024.993-.077,1.971-.151,2.933,0,.077-.01.158-.021.235-.053.635-.112,1.263-.19,1.877-.014.1-.024.2-.039.3-.063.48-.13.957-.2,1.421l-8.7-7.275-9.763,4.424-.715-2.1L64.738,48.729,52.319,55c.109-.172.218-.344.334-.519.417-.649.863-1.295,1.315-1.937.014-.021.035-.046.049-.067.491-.691,1-1.372,1.53-2.041q.694-.889,1.428-1.754l.319-.372c.611-.705,1.235-1.393,1.881-2.059.126-.133.248-.263.375-.393,0,0,0,0,.007,0,.087-.091.175-.179.263-.266.435-.439.877-.866,1.319-1.28a0,0,0,0,0,0,0c.323-.3.646-.593.968-.877.116-.1.236-.207.351-.305q.842-.727,1.7-1.39A29.937,29.937,0,0,1,69.7,38.278c.628-.294,1.259-.551,1.884-.771a14.837,14.837,0,0,1,3.6-.811c.228-.021.46-.035.687-.042h.011a10.859,10.859,0,0,1,1.361.042c.193.017.386.042.576.067.091.014.182.032.274.046l.084.017h0a.656.656,0,0,1,.081.018s.007,0,.011,0,.024,0,.035.006a.167.167,0,0,0,.045.011.228.228,0,0,1,.025.007l.017,0a.47.47,0,0,1,.063.014c.042.011.092.018.13.029a.265.265,0,0,1,.056.014c.052.011.105.025.158.039.011,0,.018.007.025,0l.032.011c.017.007.039.007.052.014l.025.007a.081.081,0,0,1,.039.011l.038.011a.658.658,0,0,1,.092.028.36.36,0,0,0,.039.006l.137.046c.042.014.087.024.13.039a.082.082,0,0,1,.035.018l.225.07c.1.038.211.08.316.122a9.373,9.373,0,0,1,1.143.551c.158.088.316.179.47.281a12.494,12.494,0,0,1,3,2.705c.284.351.558.712.818,1.094a21.7,21.7,0,0,1,1.891,3.372c.073.168.15.34.224.516.056.126.109.252.161.382a.011.011,0,0,1,0,.007v0l0,0c.105.253.207.513.309.772.029.074.053.147.081.221.2.543.393,1.1.569,1.666.119.375.231.761.34,1.147q.5,1.795.846,3.69v0c.2,1.06.361,2.14.491,3.231.087.733.158,1.466.217,2.2,0,.021,0,.042,0,.063.081,1.035.13,2.077.155,3.115.021.891.017,1.779,0,2.652" transform="translate(-14.858 -10.408)" fill="#e4faff"/>
        <path id="Trazado_3344" data-name="Trazado 3344" d="M85.574,88.928q-.39.853-.842,1.67c-.189.34-.382.677-.586,1.007a24.819,24.819,0,0,1-1.557,2.249c-.169.217-.334.431-.509.642a.548.548,0,0,0-.039.046c-.154.183-.305.362-.463.533A22.519,22.519,0,0,1,79.74,96.94c-.08.077-.168.155-.252.228l-.239.207A22.946,22.946,0,0,1,75.8,99.838c-.337.2-.68.39-1.027.569-.6.309-1.2.589-1.824.842a21.5,21.5,0,0,1-3.115,1,20.656,20.656,0,0,1-2.357.421c-.554.067-1.112.112-1.677.133h-.13c-.417.014-.831.014-1.245,0-.393-.011-.786-.035-1.176-.07a.3.3,0,0,0-.08-.007c-.411-.046-.835-.1-1.291-.175a0,0,0,0,1,0,0l-.067-.011-.011,0c-.039,0-.077-.011-.12-.018l0,0c-.183-.032-.365-.067-.544-.1-.084-.014-.161-.032-.242-.049-.021,0-.049-.014-.07-.017s-.021,0-.032-.007a.123.123,0,0,0-.035-.007l-.133-.032a.105.105,0,0,0-.035-.007.693.693,0,0,0-.084-.021c-.042-.007-.084-.017-.119-.024l-.011,0c-.024-.011-.049-.014-.07-.021-.077-.017-.155-.038-.228-.059-.032,0-.057-.014-.081-.017h-.007s0,0-.007,0a.324.324,0,0,0-.063-.018l-.035-.01c-.052-.014-.105-.029-.154-.046l-.049-.011a.011.011,0,0,1-.007,0l-.032-.007c-.007,0-.014-.006-.021,0l-.07-.025-.049-.01-.059-.021s-.007,0-.011,0-.017,0-.024,0l-.165-.052-.385-.126c-.155-.049-.309-.1-.467-.158a.027.027,0,0,1-.014-.007l-.059-.021-.049-.021-.067-.021c-.014,0-.028-.014-.042-.017l-.067-.021a.677.677,0,0,0-.081-.032l-.238-.095c-.025-.007-.049-.021-.07-.028l-.042-.018a.134.134,0,0,1-.039-.017l-.032-.007c-.07-.032-.14-.059-.211-.092a.175.175,0,0,1-.042-.017.011.011,0,0,0-.007,0l-.049-.021c-.554-.239-1.091-.495-1.607-.775-.347-.186-.685-.382-1.017-.589-.046-.032-.1-.059-.144-.092-.105-.067-.214-.133-.319-.207-.056-.035-.112-.074-.168-.112s-.112-.074-.168-.112c0,0-.007,0-.011-.007-.024-.014-.045-.032-.07-.049-.119-.084-.246-.172-.364-.259-.018-.011-.032-.024-.049-.035s0,0-.007-.007c-.052-.035-.105-.077-.158-.116l-.084-.063c-.133-.1-.266-.207-.4-.309-.281-.228-.551-.456-.821-.695a.343.343,0,0,1-.028-.028c-.326-.291-.639-.589-.947-.9,0-.007-.006-.014-.01-.014-.347-.358-.685-.722-1.007-1.1a.084.084,0,0,1-.01-.017c-.249-.3-.495-.6-.726-.905A20.95,20.95,0,0,1,47.9,92.969q-.227-.368-.432-.748s0,0-.007-.01q-.494-.884-.905-1.817c-.175-.4-.34-.8-.491-1.214q-.347-.916-.61-1.863c0-.007,0-.017-.007-.024-.14-.5-.266-1.014-.372-1.529a.5.5,0,0,1-.025-.123h0c-.018-.084-.032-.168-.049-.249q-.2-1.015-.309-2.052v0c-.032-.3-.059-.6-.077-.9-.056-.824-.07-1.659-.046-2.5a25.123,25.123,0,0,1,.365-3.508c.017-.116.042-.236.063-.354.056-.3.12-.6.193-.909l12.934-6.532L64.9,88.5l13.071-5.929L84.346,87.9Z" transform="translate(-12.653 -19.491)" fill="#e4faff"/>
        <path id="Trazado_3345" data-name="Trazado 3345" d="M28.9,31.881l8.852,2.772L28.7,36.7a1.286,1.286,0,0,0-.943.87l-2.772,8.852-2.048-9.047a1.285,1.285,0,0,0-.869-.943L13.218,33.66l9.047-2.048a1.285,1.285,0,0,0,.943-.869l2.772-8.852,2.047,9.047a1.286,1.286,0,0,0,.87.943" transform="translate(-3.754 -6.217)" fill="#f1f1f1"/>
        <path id="Trazado_3346" data-name="Trazado 3346" d="M45.794,22.8l3.15,2.331L45.05,24.7a.541.541,0,0,0-.5.217l-2.331,3.15.435-3.894a.544.544,0,0,0-.217-.5L39.29,21.34l3.894.434a.542.542,0,0,0,.5-.216l2.331-3.15L45.577,22.3a.544.544,0,0,0,.217.5" transform="translate(-11.158 -5.227)" fill="#f1f1f1"/>
      </g>
    </g>
  </g>
</svg>
