<?xml version="1.0" encoding="UTF-8"?><svg xmlns="http://www.w3.org/2000/svg" xmlns:xlink="http://www.w3.org/1999/xlink" viewBox="0 0 3040 1439.8"><defs><style>.cls-1,.cls-2{fill:#e0ab7b;}.cls-3,.cls-4,.cls-5,.cls-6,.cls-7,.cls-8,.cls-9,.cls-10,.cls-11,.cls-12,.cls-13,.cls-14,.cls-15,.cls-16,.cls-17,.cls-2,.cls-18,.cls-19,.cls-20,.cls-21,.cls-22,.cls-23,.cls-24{mix-blend-mode:multiply;}.cls-3,.cls-25{fill:#7f7f7f;}.cls-26,.cls-27,.cls-28,.cls-29,.cls-30{mix-blend-mode:soft-light;}.cls-26,.cls-17,.cls-31{fill:#cceaf0;}.cls-32,.cls-11{fill:#fbf3c7;}.cls-4,.cls-33{fill:#8b66c7;}.cls-34{fill:#fff;}.cls-5{fill:url(#Degradado_sin_nombre_53-2);}.cls-35{fill:#a9eef0;}.cls-27{fill:url(#Degradado_sin_nombre_10);}.cls-36{fill:#fffdfc;}.cls-37,.cls-12{fill:#dfc68d;}.cls-38{fill:#f3c9a0;}.cls-39{isolation:isolate;}.cls-6,.cls-40{fill:#564970;}.cls-41,.cls-8{fill:#f5eaa9;}.cls-42{fill:#4e4e4e;}.cls-7,.cls-43{fill:#afe1e2;}.cls-44,.cls-13{fill:#ded273;}.cls-45,.cls-10,.cls-29{fill:#e8c099;}.cls-9,.cls-46{fill:#dacb46;}.cls-14,.cls-47{fill:#f1f1f1;}.cls-48{fill:#b2ad8d;}.cls-28{fill:url(#Degradado_sin_nombre_3);}.cls-15{fill:url(#Degradado_sin_nombre_30);}.cls-49,.cls-30,.cls-21{fill:#e4e4e4;}.cls-16{fill:#fbf8db;}.cls-50{fill:#faf17d;}.cls-18{fill:#f9f4f0;}.cls-51{fill:#dee6e7;}.cls-52{fill:#eaddff;}.cls-53{fill:#e4ac74;}.cls-19{fill:#9780c5;}.cls-54{fill:#cdb59c;}.cls-20{fill:#fbefdd;}.cls-23{fill:url(#Degradado_sin_nombre_53);}.cls-24{fill:#ebf9ff;}.cls-55{fill:#f7f4c7;}</style><linearGradient id="Degradado_sin_nombre_30" x1="1518.14" y1="1431.57" x2="1522.17" y2="717.92" gradientUnits="userSpaceOnUse"><stop offset="0" stop-color="#fff"/><stop offset=".47" stop-color="#fefefd"/><stop offset=".63" stop-color="#fdfcf6"/><stop offset=".75" stop-color="#faf9ea"/><stop offset=".85" stop-color="#f6f4d9"/><stop offset=".93" stop-color="#f1eec3"/><stop offset="1" stop-color="#ece8ab"/></linearGradient><linearGradient id="Degradado_sin_nombre_53" x1="1520" y1="1429.51" x2="1520" y2="1192.97" gradientUnits="userSpaceOnUse"><stop offset="0" stop-color="#fff"/><stop offset=".22" stop-color="#fbfdfe"/><stop offset=".41" stop-color="#f1f7fc"/><stop offset=".58" stop-color="#dfeef9"/><stop offset=".75" stop-color="#c7e2f4"/><stop offset=".91" stop-color="#a7d1ef"/><stop offset=".92" stop-color="#a6d1ef"/></linearGradient><linearGradient id="Degradado_sin_nombre_53-2" x1="1520.24" y1="1046.07" x2="1519.93" y2="1192.63" xlink:href="#Degradado_sin_nombre_53"/><linearGradient id="Degradado_sin_nombre_3" x1="2160.49" y1="510.72" x2="2018.16" y2="512.2" gradientUnits="userSpaceOnUse"><stop offset="0" stop-color="#fff"/><stop offset=".18" stop-color="#c2c2c2"/><stop offset=".4" stop-color="#7e7e7e"/><stop offset=".6" stop-color="#474747"/><stop offset=".78" stop-color="#202020"/><stop offset=".92" stop-color="#080808"/><stop offset="1" stop-color="#000"/></linearGradient><linearGradient id="Degradado_sin_nombre_10" x1="2103.83" y1="511.31" x2="1863.45" y2="513.81" gradientUnits="userSpaceOnUse"><stop offset="0" stop-color="#000"/><stop offset=".3" stop-color="#555"/><stop offset=".64" stop-color="#afafaf"/><stop offset=".88" stop-color="#e8e8e8"/><stop offset="1" stop-color="#fff"/></linearGradient></defs><g class="cls-39"><g id="Capa_2"><g id="pizarra"><g><g id="pared"><rect class="cls-52" y="0" width="3040" height="763.14"/><rect class="cls-40" y="528.89" width="3040" height="234.25"/><rect class="cls-33" y="533.52" width="3040" height="229.62"/></g><g id="suelo"><rect id="suelo-2" class="cls-32" y="763.14" width="3040" height="676.66"/><rect id="suelo-3" class="cls-15" y="763.14" width="3040" height="676.66"/></g><g id="zocalo"><rect class="cls-32" y="706.2" width="3040" height="56.96"/><rect class="cls-48" y="757.47" width="3040" height="5.69"/><rect class="cls-36" y="699.94" width="3040" height="5.69"/></g><g id="mesa"><rect class="cls-31" y="1204.51" width="3040" height="233.58"/><polygon class="cls-17" points="3040 1204.51 3040 1286.2 0 1414.79 0 1204.51 3040 1204.51"/><polygon class="cls-23" points="3040 1204.51 3040 1286.2 0 1414.79 0 1204.51 3040 1204.51"/><rect class="cls-31" y="1111.14" width="3040" height="93.37"/><rect class="cls-5" y="1111.14" width="3040" height="93.37"/><rect class="cls-31" y="880.03" width="3040" height="231.11"/></g><g id="papeles"><polygon class="cls-21" points="1206.86 1081.28 946.48 1091.97 803.88 994.04 1074.8 984.96 1206.86 1081.28"/><polygon class="cls-51" points="1202.19 1077.03 946.37 1089.27 803.88 994.04 1068.39 985.07 1202.19 1077.03"/><polygon class="cls-21" points="1101.09 989.52 853.46 1064.34 687.67 1005.04 948.55 931.13 1101.09 989.52"/><polygon class="cls-51" points="1097.65 987.64 852.24 1060.9 691.07 1002.62 945.7 930.46 1097.65 987.64"/></g><g id="papeles-2"><polygon class="cls-21" points="2296.85 987.79 2071.91 1076.42 1875.5 1006.17 2107.68 918.62 2296.85 987.79"/><polygon class="cls-51" points="2291.63 985.56 2069.21 1072.34 1879.07 1003.31 2104.76 917.82 2291.63 985.56"/></g><g id="LAPIZ"><polygon class="cls-35" points="2043.37 1012.17 2045.36 1014.48 2047.44 1019.66 2047.88 1024.6 2046.75 1030.06 2044.95 1032.71 1836.96 1051.27 1805.65 1043.72 1835.13 1030.75 2043.37 1012.17"/><polygon class="cls-55" points="1836.96 1051.27 1805.65 1043.72 1835.13 1030.75 1834.59 1033.29 1836.93 1035.53 1835.93 1038.53 1837.41 1040.89 1836.3 1043.48 1837.66 1046.22 1835.98 1048.87 1836.96 1051.27"/><polygon class="cls-3" points="1835.93 1038.53 1837.41 1040.89 1836.3 1043.48 2047.88 1024.6 2047.44 1019.66 1835.93 1038.53"/><polygon class="cls-3" points="1835.98 1048.87 1836.96 1051.27 2044.95 1032.71 2046.75 1030.06 1835.98 1048.87"/><polygon class="cls-3" points="1835.13 1030.75 1834.59 1033.29 2045.36 1014.48 2043.37 1012.17 1835.13 1030.75"/><path class="cls-25" d="m1813.82,1042.95h0c.05.58-.43,2.46-1,2.51l-8.58-.6c-.58.05-1.09-.38-1.14-.95h0c-.05-.58.38-1.09.95-1.14l8.27-2.01c.58-.05,1.45,1.62,1.5,2.2Z"/><path class="cls-3" d="m1804.05,1042.77c-.58.05-1,.56-.95,1.13,0,.05.09.04.1.08.15-.86,1.85-.84,3.21-.88,1.92-.06,2.39-.13,4.75.12.86.09,1.11,1.66.28,2.13l1.38.1c.58-.05,1.05-1.93,1-2.51s-.92-2.25-1.49-2.2l-8.28,2.02Z"/><polygon class="cls-14" points="1805.64 1043.72 1806.08 1043.82 1834.2 1036.46 2042.44 1017.88 2044.32 1018.96 2046.16 1021.47 2046.38 1023.94 2045.02 1026.75 2043.1 1028.16 1835.11 1046.72 1809.89 1044.74 1836.96 1051.27 2044.95 1032.71 2046.75 1030.06 2047.88 1024.6 2047.43 1019.66 2045.36 1014.48 2043.37 1012.17 1835.13 1030.75 1805.64 1043.72"/></g><path class="cls-21" d="m2047.44,1023.66h0s0,0,0,0l-2.07-5.18-1.99-2.31-208.25,18.58-22.75,10.01s-.03-.01-.05-.01l-3.7.9-4.58,1.11c-.28.03-.53.16-.7.37-.09.1-.16.23-.2.36-.04.13-.06.27-.05.41.05.58.56,1,1.14.95l8.58.6s0,0,.01,0l24.13,5.82,207.99-18.56,1.8-2.65,1.12-5.46-.44-4.94Z"/><path id="sombra" class="cls-21" d="m993.88,313.58c0-31.63-30.37-57.27-67.82-57.27h-300.3c-127.07,0-209.27,0-251.4,21.69-18.09,8.43-30.55,26.1-30.55,46.54v467.16c0,28.62,24.41,51.81,54.52,51.81h462.79c11.2,0,21.6-3.21,30.26-8.71,23.35-12.02,48.16-34.21,70.5-52.01,28.18-22.45,32.01-37.04,32.01-50.13v-419.08Z"/><path class="cls-32" d="m459.71,833.51h407.99c29.29.12,64.98-34.93,95.76-60.72,26.79-22.45,30.43-37.04,30.43-50.13v-419.08c0-31.63-28.86-57.27-64.46-57.27h-285.41c-133.1,0-214.4,0-250.02,29.03l-17.96,443.41c0,31.63,48.08,114.77,83.68,114.77Z"/><path class="cls-11" d="m867.7,833.51c29.29.12,64.98-34.93,95.76-60.72,26.79-22.45,30.43-37.04,30.43-50.13v-419.08s-19.84,237.78-35.32,303.11c-15.99,67.51-90.87,226.83-90.87,226.83Z"/><rect class="cls-41" x="376.03" y="262.72" width="543.48" height="570.79" rx="51.81" ry="51.81" transform="translate(1295.54 1096.23) rotate(-180)"/><path class="cls-8" d="m963.46,769.79c-30.78,25.8-66.47,60.84-95.76,60.72h-407.99c-2.51,0-5.09-.43-7.7-1.21h-24.16c-28.62,0-51.81-23.2-51.81-51.81v4.21c0,28.62,23.2,51.81,51.81,51.81h439.85c10.64,0,20.53-3.21,28.76-8.71,22.2-12.02,45.77-34.21,67-52.01,26.79-22.45,30.43-37.04,30.43-50.13v-3c0,13.1-3.64,27.68-30.43,50.13Z"/><g id="puerta_I"><rect class="cls-44" x="407.61" y="291.63" width="263.12" height="512.98" rx="51.81" ry="51.81" transform="translate(1078.34 1096.23) rotate(-180)"/><rect class="cls-41" x="412.38" y="295.54" width="253.23" height="505.15" rx="51.81" ry="51.81" transform="translate(1078 1096.23) rotate(-180)"/><polygon class="cls-44" points="536.62 800.69 542.91 800.69 542.29 295.54 536 295.54 536.62 800.69"/><g><circle class="cls-40" cx="509.44" cy="360.93" r="11.97"/><circle class="cls-6" cx="509.44" cy="360.93" r="9.21"/></g><g><circle class="cls-40" cx="568.29" cy="360.93" r="11.97"/><circle class="cls-6" cx="568.29" cy="360.93" r="9.21"/></g></g><g id="puerta_D"><rect class="cls-44" x="702.97" y="291.63" width="186.98" height="512.98" rx="51.81" ry="51.81" transform="translate(1592.91 1096.23) rotate(-180)"/><path class="cls-41" d="m708.09,748.88v-257.58l176.49-.62v258.2c0,28.61-23.2,51.81-51.81,51.81h-72.87c-28.61,0-51.81-23.2-51.81-51.81Z"/><polygon class="cls-50" points="884.58 484.39 708.09 485.01 708.09 396 884.58 395.38 884.58 484.39"/><path class="cls-46" d="m884.58,347.35v41.74l-176.49.62v-42.36c0-28.61,23.2-51.81,51.81-51.81h72.87c28.61,0,51.81,23.2,51.81,51.81Z"/><polygon class="cls-46" points="884.58 377.2 884.58 389.67 707.7 389.71 778.76 377.16 884.58 377.2"/><polygon class="cls-9" points="884.58 377.2 884.58 389.67 707.7 389.71 778.76 377.16 884.58 377.2"/><polygon class="cls-46" points="884.58 395.38 884.58 484.39 708.09 485.01 708.09 396 884.58 395.38"/><polygon class="cls-46" points="884.58 472.19 884.58 484.66 708.09 485.01 778.76 471.84 884.58 472.19"/><polygon class="cls-9" points="884.58 472.19 884.58 484.66 708.09 485.01 778.76 471.84 884.58 472.19"/><polygon class="cls-44" points="707.7 485.01 707.7 491.3 884.58 490.68 884.58 484.39 707.7 485.01"/><polygon class="cls-44" points="707.7 389.71 707.7 396 884.58 395.38 884.58 389.09 707.7 389.71"/><g><circle class="cls-40" cx="855.14" cy="524.31" r="11.97"/><circle class="cls-6" cx="855.14" cy="524.31" r="9.21"/></g></g><g><g><rect class="cls-37" x="746.96" y="342.62" width="59.52" height="43.18"/><polygon class="cls-37" points="820.62 382.51 806.48 385.8 806.48 342.62 820.62 339.34 820.62 382.51"/><polygon class="cls-12" points="806.48 342.62 820.62 339.34 820.62 382.51 806.48 385.8 806.48 342.62"/><polygon class="cls-37" points="820.62 339.34 761.1 339.34 746.96 342.62 806.48 342.62 820.62 339.34"/><polygon class="cls-12" points="820.62 339.34 761.1 339.34 746.96 342.62 806.48 342.62 820.62 339.34"/></g><g><path class="cls-37" d="m755.84,376.35c0,7.18-8.25,12.99-18.42,12.99s-18.42-5.82-18.42-12.99c0-4.06,8.76-13.02,12.39-23.49,2.79-8.02-.65-18.58,6.03-18.58s2.99,11.83,5.69,18.34c4.5,10.85,12.73,19.24,12.73,23.72Z"/><path class="cls-12" d="m752.16,368.41c-.42,5.9-5.86,10.57-12.53,10.57s-12.57-5.06-12.57-11.3c0-3.53,5.97-11.32,8.46-20.42,1.2-4.39.71-9.66,1.33-12.96-5.9.61-2.75,10.77-5.45,18.55-3.64,10.47-12.39,19.42-12.39,23.49,0,7.18,8.25,12.99,18.42,12.99s18.42-5.82,18.42-12.99c0-1.95-1.56-4.63-3.68-7.94Z"/></g><g><rect class="cls-37" x="811.71" y="368.02" width="72.87" height="16.51"/><path class="cls-37" d="m811.71,368.02s19.01-4.05,19.09-3.81,53.78,0,53.78,0v3.81h-72.87Z"/><path class="cls-12" d="m811.71,368.02s19.01-4.05,19.09-3.81,53.78,0,53.78,0v3.81h-72.87Z"/></g></g><g><g><rect class="cls-37" x="744.55" y="413" width="53.8" height="65.35"/><polygon class="cls-37" points="811.13 473.38 798.35 478.35 798.35 413 811.13 410.05 811.13 473.38"/><polygon class="cls-12" points="798.35 413 811.13 410.05 811.13 473.38 798.35 478.35 798.35 413"/><polygon class="cls-37" points="811.13 410.05 758.47 410.05 744.55 413 798.35 413 811.13 410.05"/><polygon class="cls-12" points="811.13 410.05 758.47 410.05 744.55 413 798.35 413 811.13 410.05"/></g><g><circle class="cls-37" cx="816.71" cy="463.58" r="14.84"/><path class="cls-12" d="m827.2,453.09c-2.04-2.04-4.52-3.34-7.13-3.95,2.02,2.6,3.25,6,3.25,9.72,0,8.2-5.92,14.84-13.22,14.84-1.86,0-3.63-.44-5.23-1.21.41.55.86,1.09,1.36,1.59,5.8,5.8,15.19,5.8,20.99,0,5.8-5.8,5.8-15.19,0-20.99Z"/></g><g><rect class="cls-37" x="839.75" y="421.33" width="22.42" height="57.75"/><polygon class="cls-37" points="862.16 421.33 839.75 421.33 871.91 413.06 884.58 413.06 862.16 421.33"/><polygon class="cls-12" points="862.16 421.33 839.75 421.33 871.91 413.06 884.58 413.06 862.16 421.33"/></g><g><rect class="cls-37" x="862.16" y="419.15" width="22.42" height="59.92"/><polygon class="cls-37" points="884.58 419.15 862.16 419.15 884.58 413.06 884.58 419.15"/><polyline class="cls-12" points="862.16 419.15 884.58 413.06 884.58 419.15"/></g><g><rect class="cls-37" x="827.05" y="431.16" width="12.7" height="47.92"/><polygon class="cls-37" points="839.75 431.16 827.05 431.16 839.75 427.77 839.75 431.16"/><polygon class="cls-12" points="839.75 431.16 827.05 431.16 839.75 427.77 839.75 431.16"/></g><g><rect class="cls-37" x="728.04" y="435.79" width="24.96" height="46.77" rx="8.19" ry="8.19"/><path class="cls-12" d="m744.8,435.79h-8.58c-4.52,0-8.19,2.8-8.19,6.25v34.26c0,3.45,3.67,6.25,8.19,6.25h8.58c4.52,0,8.19-2.8,8.19-6.25v-34.26c0-3.45-3.67-6.25-8.19-6.25Zm7.18,34.2c0,3.45-3.67,6.25-8.19,6.25h-4.72c-4.52,0-8.19-2.8-8.19-6.25v-26c0-3.45,3.67-6.25,8.19-6.25h4.72c4.52,0,8.19,2.8,8.19,6.25v26Z"/></g></g><g id="cristal"><polygon class="cls-26" points="884.58 395.38 884.58 484.39 708.09 485.01 708.09 396 884.58 395.38"/><polygon class="cls-26" points="884.58 395.38 884.58 484.39 708.09 485.01 708.09 396 884.58 395.38"/><polygon class="cls-26" points="745.15 466.15 745.15 395.87 708.09 396 708.09 485.01 884.58 484.39 884.58 465.66 745.15 466.15"/><path class="cls-26" d="m884.58,347.35v41.74l-176.49.62v-42.36c0-28.61,23.2-51.81,51.81-51.81h72.87c28.61,0,51.81,23.2,51.81,51.81Z"/><path class="cls-26" d="m884.58,347.35v41.74l-176.49.62v-42.36c0-28.61,23.2-51.81,51.81-51.81h72.87c28.61,0,51.81,23.2,51.81,51.81Z"/><path class="cls-26" d="m745.15,375.26v-42.36c0-14.68,6.12-27.93,15.94-37.36h-1.19c-28.61,0-51.81,23.2-51.81,51.81v42.36l176.49-.62v-14.32l-139.43.49Z"/><rect class="cls-44" x="794.02" y="295.37" width="2.43" height="94.34"/><rect class="cls-44" x="794.02" y="393.02" width="2.43" height="94.34"/><path class="cls-26" d="m841.23,306.91c8.54,2.21,15.65,8.24,21.05,15.22,4.77,6.17,8.56,13.81,7.37,21.51-2.89-2.48-6.09-4.6-9.5-6.28-.9-.44-1.83-.87-2.57-1.55-1.22-1.11-1.78-2.74-2.36-4.29-1.95-5.26-4.54-10.28-7.69-14.92-2.12-3.12-4.6-6.16-7.96-7.88-.42-.61.58-1.19,1.32-1.23,2.57-.15,5.17.16,7.64.92"/><path class="cls-26" d="m870.48,431.59c1.55-8.69,2.91-17.15,5.96-25.5-9.59-1.31-19.37-1.25-28.95.16.45-.07,9,10.55,10.12,11.93,3.89,4.8,9.36,8.34,12.88,13.41Z"/><g><circle class="cls-40" cx="806.04" cy="475.16" r="4.46"/><circle class="cls-40" cx="806.04" cy="475.16" r="3.43"/></g><g><circle class="cls-40" cx="783.79" cy="475.16" r="4.46"/><circle class="cls-40" cx="783.79" cy="475.16" r="3.43"/></g><g><circle class="cls-40" cx="806.04" cy="377.16" r="4.46"/><circle class="cls-40" cx="806.04" cy="377.16" r="3.43"/></g><g><circle class="cls-40" cx="783.79" cy="377.16" r="4.46"/><circle class="cls-40" cx="783.79" cy="377.16" r="3.43"/></g></g><path class="cls-16" d="m427.84,833.51h439.85c28.62,0,51.81-23.2,51.81-51.81L376.03,400.85v380.84c0,28.62,23.2,51.81,51.81,51.81Z"/><path class="cls-14" d="m1571.85,371.75c0,30.62-24.82,55.44-55.44,55.44s-55.44-24.82-55.44-55.44,24.82-97.3,55.44-97.3,55.44,66.68,55.44,97.3Z"/><path class="cls-34" d="m1570.18,368.44c0,30.62-24.82,55.44-55.44,55.44s-55.44-24.82-55.44-55.44,24.82-97.3,55.44-97.3,55.44,66.68,55.44,97.3Z"/><path class="cls-14" d="m1565.92,368.33c0,28.32-22.96,51.28-51.28,51.28s-51.28-22.96-51.28-51.28,22.96-93.14,51.28-93.14,51.28,64.82,51.28,93.14Z"/><circle class="cls-45" cx="1514.64" cy="368.33" r="30.02"/><path class="cls-10" d="m1490.04,369.01c0-16.58,13.44-30.02,30.02-30.02.35,0,.69.01,1.03.03-2.08-.46-4.24-.7-6.46-.7-16.58,0-30.02,13.44-30.02,30.02s12.89,29.45,28.99,29.99c-13.47-2.96-23.56-14.95-23.56-29.32Z"/><path class="cls-43" d="m1514.64,368.33c1.14,3.4,1.71,6.8,2.13,10.2.39,3.4.56,6.8.55,10.2-.01,3.4-.22,6.79-.65,10.19-.45,3.4-1.05,6.79-2.24,10.18-1.15-3.4-1.72-6.8-2.13-10.2-.39-3.4-.56-6.8-.54-10.2.02-3.4.23-6.79.65-10.19.45-3.4,1.05-6.79,2.23-10.18Z"/><path class="cls-7" d="m1514.59,405.15c-.42-3.4-.63-6.79-.64-10.19-.01-3.4.16-6.8.55-10.2.38-3.09.89-6.18,1.84-9.27-.38-2.39-.9-4.78-1.7-7.17-1.18,3.39-1.78,6.79-2.23,10.18-.43,3.4-.63,6.79-.65,10.19-.02,3.4.15,6.8.54,10.2.42,3.4.98,6.8,2.13,10.2.18-.53.35-1.05.51-1.58-.13-.79-.24-1.59-.35-2.38Z"/><path class="cls-43" d="m1531.46,348.82c-.52,2.38-1.48,4.39-2.56,6.3-1.08,1.9-2.35,3.64-3.75,5.27-1.4,1.62-2.94,3.14-4.66,4.49-1.73,1.34-3.58,2.58-5.86,3.44.52-2.39,1.48-4.39,2.55-6.3,1.08-1.9,2.35-3.64,3.76-5.26,1.41-1.62,2.94-3.13,4.66-4.48,1.73-1.34,3.57-2.58,5.86-3.45Z"/><path class="cls-7" d="m1520.5,364.87c.26-.2.51-.42.76-.63.2-2.03.73-3.86,1.36-5.63.74-2.06,1.7-3.99,2.8-5.83.14-.24.3-.47.45-.71-.09.07-.17.13-.26.2-1.72,1.35-3.25,2.86-4.66,4.48-1.4,1.62-2.67,3.36-3.76,5.26-1.07,1.91-2.03,3.91-2.55,6.3,2.29-.86,4.13-2.1,5.86-3.44Z"/><circle class="cls-43" cx="1514.64" cy="368.33" r="6.4"/><circle class="cls-7" cx="1514.64" cy="368.33" r="5.61"/><g class="cls-22"><path class="cls-30" d="m1031.29,802.61s-.02-.04-.03-.06c-.04-.09-.08-.17-.13-.26,0-.01-.02-.02-.02-.04-.05-.09-.11-.17-.18-.26,0,0,0-.01-.01-.02-.07-.09-.15-.17-.23-.26,0,0,0,0,0,0h0c-.32-.33-.71-.61-1.1-.86-7.77-5.03-21.55-3.88-30.12-2.35-4.81.85-10.58,2.29-14,6.06-1.02,1.12-1.84,2.42-2.26,3.86h0s0,0,0,0c-.08.27-.14.53-.19.81,0,.01,0,.03,0,.04-.05.28-.08.57-.1.87-.02.36,0,.69.02,1,.22,2.05,1.52,3.16,3.53,4.04,3.14,1.39,4.66,4.47,7.98,5.71,3.43,1.28,7.49.96,10.33,3.63,3.76,3.54,11.18-.78,14.59-3.52,2.5-2.01,4.57-4.48,6.39-7.14,1.82-2.66,3.4-5.51,4.92-8.27.06-.1.11-.21.17-.31.22-.42.42-.86.53-1.31.08-.34.09-.68.02-1.02-.03-.12-.06-.23-.11-.34Z"/><path class="cls-30" d="m1090.33,811.11c0-.13.01-.25.01-.38,0-.07,0-.15-.02-.23,0-.12-.02-.23-.04-.35-.01-.08-.03-.16-.04-.24-.02-.11-.05-.23-.08-.34-.02-.08-.04-.16-.07-.24-.04-.12-.08-.23-.12-.35-.03-.08-.06-.16-.09-.24-.05-.12-.1-.24-.16-.36-.03-.07-.06-.14-.1-.21-.08-.15-.16-.3-.24-.45-1.04-1.84-2.78-3.52-4.34-4.55-4.16-2.75-9.51-3.78-14.37-4.38-7.9-.97-20.04-1.79-27.12,2.79-.72.47-1.46,1.04-1.73,1.84h0c-.03.08-.06.16-.07.24-.05.23-.06.46-.03.68.02.23.08.45.15.67.07.22.17.44.27.66s.22.43.33.63c1.62,2.96,3.35,6.01,5.34,8.81.66.93,1.35,1.84,2.08,2.7.72.86,1.48,1.69,2.28,2.46,2.39,2.31,5.12,4.13,8.34,5.12.3.09.61.18.93.26.32.08.66.16,1,.24,1.02.22,2.11.37,3.17.41.35.01.71.01,1.05,0,.69-.03,1.36-.12,1.98-.29.31-.08.6-.19.88-.32.28-.13.54-.27.79-.43,1.51-.94,2.67-2.29,4.61-2.59.5-.08,1.01-.09,1.52-.09.51,0,1.02,0,1.53-.04.52-.05,1.02-.17,1.51-.34.73-.26,1.42-.64,2.03-1.12.61-.48,1.14-1.07,1.54-1.73.26-.41.47-.85.71-1.28.14-.26.29-.51.46-.74.12-.16.25-.31.38-.45.14-.14.28-.28.43-.4.6-.51,1.3-.91,1.99-1.32.17-.1.35-.2.52-.3s.34-.21.51-.31c.92-.58,1.53-1.25,1.88-1.96.12-.24.21-.48.27-.73.05-.18.08-.37.1-.56,0-.06,0-.13.01-.19Z"/></g><g><path class="cls-45" d="m983.94,808.14c.22,2.05,1.52,3.16,3.53,4.04,3.14,1.39,4.66,4.47,7.98,5.71s7.49.96,10.33,3.63c3.76,3.54,11.18-.78,14.59-3.52,5-4.02,8.28-9.87,11.31-15.41.45-.82.91-1.73.71-2.64-.2-.92-1.02-1.56-1.81-2.08-7.77-5.03-21.55-3.88-30.12-2.35-4.81.85-10.58,2.29-14,6.06-1.41,1.55-2.45,3.44-2.56,5.58-.02.36,0,.69.02,1Z"/><path class="cls-10" d="m1031.69,798.73s0,0,0,.01c-3.03,5.54-6.31,11.39-11.31,15.41-3.41,2.75-10.83,7.06-14.59,3.52-2.84-2.67-6.89-2.35-10.33-3.63-3.33-1.24-4.84-4.32-7.98-5.71-1.6-.71-2.74-1.56-3.25-2.91-.16.55-.27,1.13-.3,1.72-.02.36,0,.69.02,1,.22,2.05,1.52,3.16,3.53,4.04,3.14,1.39,4.66,4.47,7.98,5.71,3.43,1.28,7.49.96,10.33,3.63,3.76,3.54,11.18-.78,14.59-3.52,5-4.02,8.28-9.87,11.31-15.41.45-.82.91-1.73.71-2.64-.1-.47-.37-.87-.71-1.22Z"/><path class="cls-45" d="m1091.22,808.86c-.26.99-.93,1.92-2.15,2.7-1.35.85-2.89,1.51-3.84,2.79-.47.62-.76,1.36-1.17,2.02-1.09,1.76-3.03,2.98-5.09,3.18-1.01.1-2.04-.03-3.05.13-2.58.4-3.78,2.67-6.28,3.34s-5.75.11-8.14-.63c-8.59-2.64-13.72-11.2-18.03-19.09-.45-.82-.91-1.73-.71-2.64.2-.92,1.02-1.56,1.81-2.08,7.08-4.58,19.22-3.77,27.12-2.79,4.86.6,10.21,1.62,14.37,4.38,2.73,1.8,5.98,5.57,5.17,8.69Z"/><path class="cls-10" d="m1090.33,804.6c-.02.24-.05.49-.11.73-.26.99-.93,1.92-2.15,2.7-1.35.85-2.89,1.51-3.84,2.79-.47.62-.76,1.36-1.17,2.02-1.09,1.76-3.03,2.98-5.09,3.18-1.01.1-2.04-.03-3.05.13-2.58.4-3.78,2.67-6.28,3.34-2.47.67-5.75.11-8.14-.63-8.36-2.56-13.43-10.74-17.68-18.43-.03.08-.06.16-.07.24-.2.91.27,1.82.71,2.64,4.32,7.88,9.44,16.45,18.03,19.09,2.39.73,5.67,1.29,8.14.63,2.49-.67,3.69-2.94,6.28-3.34,1.01-.16,2.04-.03,3.05-.13,2.06-.21,4-1.42,5.09-3.18.41-.66.7-1.4,1.17-2.02.95-1.28,2.5-1.93,3.84-2.79,1.23-.78,1.9-1.7,2.15-2.7.36-1.37-.07-2.86-.89-4.26Z"/></g><path class="cls-21" d="m1129.4,745.63c.13-.32.26-.64.39-.96.2-.5.39-1,.57-1.5.12-.34.24-.69.35-1.04.16-.49.32-.98.46-1.48.11-.36.21-.72.31-1.08.13-.5.26-1,.38-1.5.09-.36.18-.72.26-1.09.11-.51.21-1.03.31-1.55.07-.35.14-.71.2-1.06.1-.56.18-1.12.26-1.68.05-.32.1-.64.14-.96.11-.85.21-1.71.3-2.57.03-.31.05-.62.08-.93.05-.59.1-1.17.14-1.76.03-.43.05-.85.07-1.28.02-.46.05-.93.07-1.39.02-.46.03-.93.04-1.39.01-.43.02-.85.03-1.28,0-.49,0-.98,0-1.46,0-.39,0-.78,0-1.18,0-.52-.01-1.03-.02-1.55,0-.35-.01-.7-.02-1.04-.01-.55-.03-1.11-.05-1.66,0-.26-.02-.52-.03-.79-.09-2.34-.22-4.66-.36-6.93-1-15.82-4.56-31.42-10.23-46.23-6.79-17.74-16.34-34.16-25.78-50.6-2.08-3.63-6.63-12.56-10.24-13.82-.21-.75-.42-1.5-.63-2.25-.27-.99-.55-1.98-.82-2.96-.93-3.3-1.88-6.6-2.86-9.89-4.77-16.01-15.89-33.48-31.32-42.13-.64-.36-1.29-.71-1.95-1.03-1.97-.99-4.01-1.83-6.12-2.51-2.8-.9-5.72-1.52-8.73-1.79-30.58-2.76-40.68,28.68-48.77,51.74-1.25,3.56-2.48,7.13-3.69,10.7-3.65.87-8.37,10.21-10.51,13.94-9.41,16.46-18.94,32.89-25.7,50.64-.25.65-.49,1.3-.73,1.96h0s0,0,0,0c-.64,1.76-1.26,3.53-1.84,5.3-.01.04-.03.08-.04.11-.57,1.74-1.11,3.5-1.63,5.26-.02.08-.04.15-.07.23-.5,1.73-.97,3.47-1.41,5.22-.03.11-.06.22-.08.33-.43,1.72-.84,3.45-1.21,5.18-.03.14-.06.27-.09.41-.37,1.72-.7,3.44-1.01,5.17-.03.15-.05.29-.08.44-.3,1.73-.58,3.46-.82,5.2-.02.13-.03.27-.05.4-.24,1.76-.45,3.52-.63,5.29,0,.09-.02.18-.03.28-.18,1.82-.33,3.64-.44,5.46-.11,1.82-.22,3.67-.3,5.54-.12,2.8-.2,5.64-.17,8.49,0,.95.03,1.9.06,2.85.13,3.79.47,7.57,1.14,11.26.33,1.84.75,3.66,1.26,5.45.51,1.79,1.11,3.54,1.83,5.25.72,1.71,1.54,3.38,2.49,4.99.54.91,1.09,1.48,1.65,1.79.19.1.37.18.56.22.19.05.37.07.56.07,1.49-.02,2.93-1.57,4.07-3.22.06-.09.12-.18.18-.28-.24,13.51,1.59,26.94,9.18,37.89.57.82,1.18,1.61,1.8,2.39.15.18.3.37.45.55.63.76,1.28,1.51,1.97,2.23.03.03.06.06.09.09.67.7,1.37,1.38,2.08,2.04.15.14.3.28.45.42.75.68,1.52,1.34,2.32,1.98.02.02.05.04.08.06.79.63,1.6,1.23,2.43,1.81.12.09.25.18.37.26.87.6,1.75,1.19,2.66,1.74,0,0,0,0,.01,0,.91.56,1.84,1.09,2.78,1.6.08.04.16.09.24.13,3.46,1.86,7.1,3.4,10.82,4.62,3.04,1,6.12,1.84,9.23,2.54,9.33,2.1,18.94,2.91,28.52,2.78h0c.69,0,1.37-.01,2.06-.01,2.06,0,4.13.05,6.2.12,4.38.14,8.77.35,13.15.4h0,0c.95,0,1.9.01,2.84,0,.04,0,.08,0,.12,0,.94,0,1.87-.03,2.81-.06.09,0,.18,0,.27-.01.78-.03,1.56-.07,2.33-.12.22-.01.44-.03.66-.04.88-.06,1.75-.14,2.62-.23,1.18-.13,2.35-.29,3.51-.47.16-.03.33-.04.49-.07.22-.04.44-.09.65-.12.8-.14,1.61-.29,2.4-.45.42-.09.85-.16,1.27-.26.98-.22,1.96-.45,2.93-.71.69-.18,1.37-.38,2.06-.57.34-.1.67-.2,1.01-.3,5.65-1.71,11.11-4.02,16.24-6.92,3.42-1.94,6.69-4.13,9.77-6.55,0,0,0,0,0,0,0,0,0,0,0,0,.32-.25.64-.52.96-.78.6-.48,1.18-.98,1.77-1.48.33-.28.66-.56.98-.85.78-.7,1.55-1.42,2.31-2.15.26-.25.52-.51.77-.77.65-.65,1.29-1.32,1.92-2,.18-.19.36-.37.53-.57.77-.85,1.51-1.71,2.23-2.6.18-.22.36-.45.54-.67.74-.93,1.47-1.87,2.17-2.83,6.04-8.37,7.59-17.43,7.57-26.82,0-2-.08-4.02-.2-6.04,1.03,1.7,2.46,3.59,3.99,4.11.09.03.19.06.28.09.9.2,1.82-.09,2.7-1.22.18-.23.36-.5.54-.8.45-.77.87-1.54,1.26-2.33.13-.26.25-.53.37-.79.25-.53.5-1.07.73-1.61Z"/><path class="cls-31" d="m1108.2,664.17c6.23,20.06,10.37,40.79,11.49,61.79.94,17.65,5.25,35.13-5.58,50.3-12,16.79-31.56,27.72-52,29.92-10.41,1.12-21.07-.18-31.53-.04-12.19.17-24.41-1.27-36.01-5.11-10.73-3.55-20.83-9.86-27.23-19.18-9.96-14.5-9.53-33.56-7.83-51.07,2.42-24.91,6.95-49.24,12.93-73.23,5.86-23.54,13.13-46.76,21.17-69.88,7.72-22.18,17.35-52.44,46.52-49.78,23,2.1,39.83,25.12,45.9,45.66,7.89,26.73,13.9,53.98,22.17,80.61Z"/><path class="cls-43" d="m1119.69,725.96c-1.12-21-5.26-41.73-11.49-61.79-8.27-26.62-14.28-53.88-22.17-80.61-6.06-20.54-22.9-43.57-45.9-45.66-29.17-2.66-38.8,27.6-46.52,49.78-8.05,23.12-15.31,46.33-21.17,69.88-5.98,23.99-10.5,48.32-12.93,73.23-1.7,17.51-2.13,36.56,7.83,51.07,4.87,7.09,11.89,12.44,19.7,16.15-5.11-2.57-9.64-5.87-13.02-9.93-9.05-10.86-8.66-25.12-7.11-38.23,2.2-18.65,6.31-36.87,11.74-54.83,5.33-17.63,11.92-35.01,19.23-52.32,7.01-16.61,15.76-39.26,42.25-37.27,20.89,1.57,36.17,18.81,41.68,34.19,7.17,20.01,12.62,40.42,20.13,60.35,5.66,15.02,9.42,30.54,10.43,46.26.85,13.22,4.77,26.3-5.07,37.66-2.01,2.32-4.26,4.49-6.7,6.49,5.12-4.06,9.7-8.8,13.51-14.13,10.84-15.17,6.52-32.64,5.58-50.3Z"/><path class="cls-24" d="m1119.69,725.96c-1-18.77-4.42-37.34-9.59-55.39,2.8,11.14,4.66,22.46,5.34,33.87.89,14.96,4.97,29.77-5.28,42.63-11.36,14.23-29.88,23.49-49.23,25.36-9.85.95-19.95-.16-29.85-.03-11.54.15-23.11-1.08-34.09-4.33-10.16-3.01-19.72-8.36-25.78-16.25-9.43-12.29-9.03-28.44-7.41-43.28,2.3-21.11,6.58-41.73,12.24-62.07,5.55-19.95,12.43-39.63,20.04-59.22,7.31-18.8,16.43-44.45,44.04-42.19,21.77,1.78,37.71,21.29,43.45,38.7,7.47,22.66,13.16,45.76,20.99,68.32.08.24.16.48.24.72-6.62-22.97-12.01-46.29-18.78-69.22-6.06-20.54-22.9-43.57-45.9-45.66-29.17-2.66-38.8,27.6-46.52,49.78-8.05,23.12-15.31,46.33-21.17,69.88-5.98,23.99-10.5,48.32-12.93,73.23-1.7,17.51-2.13,36.56,7.83,51.07,6.4,9.31,16.5,15.63,27.23,19.18,11.6,3.84,23.82,5.28,36.01,5.11,10.46-.15,21.12,1.16,31.53.04,20.44-2.21,40.01-13.13,52-29.92,10.84-15.17,6.52-32.64,5.58-50.3Z"/><path class="cls-43" d="m955.56,660.1c-5.38,14.25-8.75,29.27-9.69,44.49-.86,14.03-1.24,29.75,6.02,42.16,2.74,4.68,5.95.1,7.6-2.85,10.31-18.47,19.35-37.74,25.13-58.17,3.98-14.1,6.51-28.58,8.15-43.12,1.46-12.89,3.64-26.67,1.09-39.54-2.67-13.49-10.84,3.1-13.79,8.31-8.98,15.83-18.06,31.65-24.51,48.72Z"/><path class="cls-17" d="m993.04,635.58c-1.58,14.55-3.99,29.03-7.79,43.13-5.5,20.44-14.1,39.72-23.9,58.2-1.57,2.95-4.62,7.53-7.21,2.86-6.86-12.4-6.48-28.12-5.64-42.15.72-12.1,2.92-24.07,6.36-35.64-4.98,13.69-8.1,28.06-8.99,42.61-.86,14.03-1.24,29.75,6.02,42.16,2.74,4.68,5.95.1,7.6-2.85,10.31-18.47,19.35-37.74,25.13-58.17,3.98-14.1,6.51-28.58,8.15-43.12,1-8.83,2.33-18.07,2.26-27.15-.39,6.78-1.27,13.56-1.99,20.12Z"/><path class="cls-43" d="m1124.5,660.08c5.41,14.25,8.8,29.26,9.76,44.47.88,14.02,1.29,29.74-5.95,42.17-2.73,4.68-5.95.11-7.61-2.84-10.34-18.45-19.42-37.71-25.22-58.13-4.01-14.09-6.55-28.56-8.22-43.11-1.48-12.89-3.68-26.67-1.16-39.54,2.65-13.49,10.84,3.08,13.8,8.29,9,15.82,18.11,31.62,24.59,48.68Z"/><path class="cls-17" d="m1128.12,740.06c-2.73,4.68-5.95.11-7.6-2.84-10.34-18.45-19.42-37.71-25.22-58.13-4.01-14.09-6.55-28.56-8.22-43.11-.76-6.63-1.71-13.5-2.11-20.36-.05,9.04,1.3,18.24,2.31,27.03,1.67,14.55,4.21,29.02,8.22,43.11,5.81,20.42,14.89,39.68,25.22,58.13,1.65,2.95,4.88,7.52,7.6,2.84,6.42-11.01,6.82-24.61,6.22-37.33.09,10.68-1.11,21.56-6.41,30.66Z"/><ellipse class="cls-21" cx="1038.9" cy="588.52" rx="12.09" ry="7.86"/><g><ellipse class="cls-45" cx="1038.9" cy="587.52" rx="12.09" ry="6.86"/><path class="cls-10" d="m1038.9,590.58c-4.9,0-9.25-1.04-12.05-2.64.38,3.59,5.62,6.44,12.05,6.44s11.67-2.85,12.05-6.44c-2.8,1.61-7.15,2.64-12.05,2.64Z"/></g><circle class="cls-42" cx="1020.29" cy="573.88" r="4.39"/><circle class="cls-42" cx="1056.31" cy="573.88" r="4.39"/><circle class="cls-47" cx="1018.88" cy="572.56" r="1.32"/><circle class="cls-47" cx="1054.99" cy="572.56" r="1.32"/><g id="enchufes"><rect class="cls-33" x="1720.13" y="593.32" width="56.01" height="56.01" rx="7.28" ry="7.28"/><rect class="cls-4" x="1725.31" y="599" width="20.63" height="20.63" rx="3.19" ry="3.19"/><rect class="cls-4" x="1749.7" y="599" width="20.63" height="20.63" rx="3.19" ry="3.19"/><rect class="cls-4" x="1725.31" y="623.39" width="20.63" height="20.63" rx="3.19" ry="3.19"/><rect class="cls-4" x="1749.7" y="623.39" width="20.63" height="20.63" rx="3.19" ry="3.19"/><circle class="cls-33" cx="1735.62" cy="609.31" r="7.78"/><circle class="cls-33" cx="1760.01" cy="609.31" r="7.78"/><circle class="cls-33" cx="1760.01" cy="633.7" r="7.78"/><circle class="cls-33" cx="1735.62" cy="633.7" r="7.78"/><circle class="cls-4" cx="1732.9" cy="606.31" r="1.94"/><circle class="cls-4" cx="1738.25" cy="612.1" r="1.94"/><circle class="cls-4" cx="1757.34" cy="606.31" r="1.94"/><circle class="cls-4" cx="1762.69" cy="612.1" r="1.94"/></g><g id="enchufe_1"><path class="cls-21" d="m1844.63,792.84c-.38.02-.79.03-1.24.06-.48.03-1.01.06-1.57.1,0,0-.57.04-1.58.12-2.72.23-6.13.57-10.09.97-6.45.65-14.87,1.5-23.32,2.05-12.33.83-24.72,1.03-31.06-.9,0,0,0,0,0,0,0,0,0,0,0,0-.37-.11-.72-.23-1.05-.36-.04-.02-.08-.04-.12-.05-.26-.1-.5-.21-.73-.32-.09-.05-.18-.09-.26-.14-.04-.02-.08-.05-.12-.07-.2-.11-.38-.22-.55-.34-.14-.1-.27-.21-.39-.31-.05-.05-.12-.09-.17-.14-.08-.08-.14-.15-.21-.23-.18-.21-.32-.43-.4-.67-.09-.25-.13-.5-.11-.79.02-.33.07-.66.16-.99.09-.33.21-.65.37-.97.06.01.13.02.19.03.7.15,1.41.27,2.12.38.04,0,.09.02.13.02,10.41,1.53,24.05,2.03,29.87-4.29.2-.22.63-.69.93-1.33.23-.49.4-1.07.33-1.73,0,0,0-.01,0-.02-.09-.79-.5-1.41-.86-1.85-.06-.07-.12-.16-.18-.22-.03-.03-.06-.06-.09-.09-.22-.24-.46-.47-.71-.68-.09-.08-.19-.15-.29-.23-.21-.16-.42-.31-.63-.45-.05-.03-.09-.07-.14-.1-.1-.06-.2-.12-.3-.17-.1-.05-.19-.11-.29-.16-.09-.05-.17-.09-.26-.14-.08-.04-.16-.07-.24-.1-.14-.06-.28-.12-.42-.18-.19-.08-.37-.15-.56-.21-.1-.03-.19-.07-.29-.1-.24-.08-.48-.15-.73-.21-.04-.01-.08-.02-.12-.03-4.51-1.12-9.77-.05-11.73.44-2.94.73-9.65,2.39-14.32,5.69,0,0-.01,0-.02.01-.45.31-.87.64-1.27.99-.02.02-.04.03-.06.05-.03.03-.07.06-.11.09-.19.17-.37.34-.55.51,0,0,0,0-.01.01-.21.21-.42.42-.61.64-.01.01-.03.03-.04.04-.02,0-.01,0,0,0,0,0,0,0,0,0h0c-.33-.09-.66-.19-1-.29,0,0,.02,0,.02,0-3.34-.99-6.53-2.44-9.47-4.3-.01,0-.02-.02-.04-.02-.4-.25-.79-.51-1.18-.78-.04-.03-.09-.06-.13-.09-.36-.25-.71-.5-1.06-.76-.07-.06-.15-.11-.22-.17-.32-.24-.63-.48-.94-.73-.11-.09-.21-.18-.32-.26-.28-.23-.55-.46-.82-.69-.14-.12-.27-.25-.41-.37-.23-.21-.47-.42-.69-.63-.17-.16-.34-.33-.51-.5-.19-.19-.38-.37-.56-.56-.21-.21-.41-.43-.61-.64-.14-.15-.29-.3-.43-.46-.24-.27-.48-.54-.71-.82-.1-.11-.2-.22-.29-.34-.33-.39-.64-.79-.95-1.2-6.84-9.02-9.15-19.7-9.96-30.76-.4-5.43-.44-10.95-.48-16.4-.01-1.63-.02-3.25-.04-4.85-.06-4.03-.15-8.08-.26-12.12-.04-1.34-.07-2.67-.12-4.01-.12-3.93-.25-7.85-.38-11.7-.32-9.07-.63-18.37-.75-27.64h.39v-1.36h-.4c0-.07,0-.14,0-.21h.41v-1.36h0s-.41,0-.41,0c0-.07,0-.14,0-.21h.43v-1.36h-.43c0-.29,0-.57,0-.86h.5l.9-10.27c.94-.34,1.78-.82,2.5-1.42.29-.25.57-.51.83-.8.52-.57.97-1.2,1.36-1.89.2-.34.38-.7.54-1.06,1.16-2.55,1.62-5.59,1.62-8.35,0-.1,0-.2,0-.3,0-.1,0-.2,0-.29,0,.07,0,.14,0,.21,0-.15,0-.31,0-.46,0-.05,0-.1,0-.15,0-.29,0-.57,0-.85,0-.01,0-.03,0-.04,0-.02,0-.04,0-.06,0-.33-.01-.65-.02-.97,0-.02,0-.04,0-.06,0-.22-.02-.45-.04-.66,0-.03,0-.06,0-.09,0-.08-.01-.16-.02-.23,0,0,0-.02,0-.02-.02-.19-.03-.37-.05-.55,0,0,0-.01,0-.02-.05-.45-.12-.88-.21-1.3,0-.01,0-.02,0-.03-.02-.08-.04-.15-.06-.23,0-.02,0-.03-.01-.05-.05-.19-.1-.37-.16-.55,0-.02-.01-.04-.02-.06-.09-.26-.19-.51-.3-.75-.01-.03-.02-.05-.04-.08-.1-.21-.22-.41-.34-.61,0,0-.01-.02-.02-.03,0-.01-.02-.03-.03-.04-.02-.03-.04-.06-.05-.08-.15-.21-.31-.41-.49-.6-.03-.03-.05-.05-.08-.08-.1-.11-.21-.21-.32-.31,0,0-.01-.01-.02-.01-.08-.07-.17-.14-.26-.21-.03-.02-.06-.05-.1-.07-.09-.07-.18-.13-.27-.19,0,0,0,0-.01,0-.14-.09-.28-.18-.43-.26-.04-.02-.08-.04-.12-.06-.27-.14-.55-.27-.86-.39-.04-.02-.09-.03-.13-.05-.01,0-.02,0-.04-.01-.02,0-.03-.01-.05-.02-.29-.1-.61-.2-.94-.28-.04-.01-.09-.02-.13-.03-.38-.09-.78-.17-1.21-.23-.04,0-.08-.01-.12-.02-.45-.06-.92-.11-1.42-.15-.03,0-.06,0-.09,0-.53-.03-1.08-.05-1.68-.05h0c-.59,0-1.14.02-1.66.05-.03,0-.06,0-.08,0-.5.03-.96.08-1.41.15-.04,0-.08.01-.12.02-.43.06-.82.14-1.2.23-.04.01-.09.02-.13.03-.36.09-.7.2-1.02.32-.04.02-.09.03-.13.05-.31.12-.59.25-.86.39-.04.02-.08.04-.11.06-.26.14-.5.3-.72.46-.03.02-.06.05-.1.07-.22.17-.42.35-.6.54-.03.03-.05.05-.08.08-.18.19-.34.39-.49.6-.02.03-.04.06-.06.08-.15.22-.28.44-.4.68-.01.03-.02.05-.04.08-.12.24-.22.49-.31.75,0,.02-.01.04-.02.06-.09.27-.17.54-.24.83,0,0,0,.02,0,.03-.14.59-.23,1.22-.29,1.88,0,0,0,.01,0,.02-.03.32-.05.65-.07.99,0,.02,0,.03,0,.05-.01.33-.02.67-.03,1.01,0,.02,0,.04,0,.06,0,.35,0,.7,0,1.06h0s0,0,0,0c0,.23,0,.46,0,.69h0v.09c0,1.97.23,4.09.79,6.06.43,1.54,1.06,2.98,1.93,4.22,0,0,0,0,0,0,.02.03.04.07.07.11.2.27.41.53.63.78.01.01.02.03.03.04.02.03.04.05.06.08.22.24.45.45.69.66.03.03.05.05.08.08.25.22.52.41.8.6.05.03.09.07.14.11.26.17.55.31.84.45.08.04.14.08.22.12.28.12.57.22.87.32.1.03.19.08.3.11.06.02.13.03.19.04l.11,1.31h0l.76,8.7h.55c0,.29,0,.57,0,.86h-.46v1.36h.46c0,.07,0,.14,0,.21h-.48v1.36h.49c0,.07,0,.14,0,.21h-.49v1.02h0v.34h.5c.12,9.31.44,18.64.76,27.74.31,9.1.63,18.52.76,27.77.02,1.6.03,3.22.04,4.83.12,17.06.25,34.71,11.05,48.96,5.26,6.92,12.74,12.02,21.06,14.45-.03.09-.07.18-.1.28-.16.41-.28.84-.35,1.29-.01.06-.01.11-.02.17-.04.23-.07.45-.09.66,0,.04-.01.09-.02.13-.01.12-.01.24-.01.35,0,.16.01.31.03.47v.02c.01.13.03.26.06.39.03.17.07.34.12.5.25.85.74,1.62,1.44,2.3,1.47,1.41,3.94,2.4,7.19,3.05.07,0,.15.03.22.04.27.06.56.11.86.16.77.13,1.58.25,2.42.35.56.06,1.13.12,1.72.17.46.04.94.08,1.43.11.11,0,.22.02.33.02.33.03.67.05,1.01.06.36.02.73.04,1.1.05.33.02.66.03,1,.04.46,0,.92.02,1.4.03.36,0,.72,0,1.09,0,.22,0,.45,0,.67,0-.03,0-.06,0-.09,0,.21,0,.42,0,.64,0,7.15,0,15.57-.53,24.59-1.31,4.73-.41,9.62-.88,14.58-1.38,4.97-.5,9.24-.93,12.2-1.13.18-.01.35-.02.52-.03.17-.01.34-.02.5-.03.32-.02.61-.03.89-.04.6-.02,1.11-.02,1.5,0l.16-3c-.43-.02-.96-.02-1.58,0Zm-70.19-5.64c2.42-1.85,6.47-3.69,11.73-5.19.1-.03.2-.05.29-.08.7-.2,1.42-.39,2.17-.58.05-.01.11-.03.17-.04.41-.1.82-.19,1.25-.27.15-.03.31-.06.46-.09.42-.07.85-.14,1.28-.2.15-.02.3-.04.45-.05.34-.04.68-.07,1.02-.1.16-.01.33-.03.49-.04.41-.03.81-.04,1.22-.04.21,0,.42,0,.63,0,.29,0,.58.02.86.04.14,0,.28.01.41.03,0,0,0,0,0,0,1.7.15,3.25.55,4.44,1.3.19.12.38.25.55.39.03.02.05.04.08.07.18.15.36.31.51.49,0,0,.02.02.02.02.06.07.11.13.16.18.12.16.14.22.14.22,0,0-.02.21-.48.71-.27.29-.58.57-.92.83-.05.04-.09.08-.15.12-.31.23-.65.45-1,.66-.03.02-.06.04-.09.06-.03.03-.06.05-.1.06-.02.01-.04.02-.07.04-.38.21-.79.41-1.23.6-.1.04-.19.08-.29.12-.44.18-.89.35-1.38.5-.02,0-.04.01-.06.02-5.08,1.57-12.67,1.72-21.95.35-.22-.03-.44-.06-.65-.1,0,0,.02-.01.03-.02Zm22.42-6.62s0,0,0,0c0,0,0,0,0,0,0,0,0,0,0,0Z"/><g id="cable"><path class="cls-47" d="m1843.63,791.02c-.38.02-.79.03-1.24.06-.48.03-1.01.06-1.57.1,0,0-.57.04-1.58.12-2.72.23-6.13.57-10.09.97-6.45.65-14.87,1.5-23.32,2.05-12.33.83-24.72,1.03-31.06-.9-.7-.21-1.33-.45-1.87-.72-.12-.06-.24-.12-.35-.19-.47-.25-.86-.53-1.18-.83-.54-.51-.76-1.03-.72-1.69.04-.67.21-1.32.53-1.96.81.18,1.62.32,2.44.44,10.41,1.53,24.05,2.03,29.87-4.29.36-.39,1.44-1.56,1.26-3.08-.11-.93-.65-1.62-1.04-2.07-.55-.62-1.18-1.13-1.86-1.55-.11-.07-.22-.14-.33-.19-.17-.1-.34-.19-.52-.28-4.85-2.38-11.77-.98-14.09-.4-2.94.73-9.67,2.4-14.34,5.71-.25.17-.49.35-.73.54-.2.16-.4.32-.6.49-.03.03-.07.06-.11.09-.19.17-.37.34-.55.51-.24.23-.46.46-.67.7h0c-8.04-2.15-15.29-6.98-20.34-13.64-10.2-13.46-10.32-30.62-10.44-47.21-.01-1.63-.02-3.25-.04-4.86-.13-9.29-.45-18.73-.76-27.86-.43-12.39-.86-25.19-.81-37.78h-3c-.06,12.63.38,25.47.81,37.88.31,9.11.63,18.54.76,27.8.02,1.6.03,3.22.04,4.84.12,17.08.25,34.75,11.05,49.01,5.26,6.93,12.74,12.03,21.06,14.46-.03.09-.07.18-.1.28-.16.41-.28.84-.35,1.29-.06.33-.11.66-.13.96-.01.12-.01.24-.01.35,0,.16.01.31.03.47v.02c.01.13.03.26.06.39.03.17.07.34.12.5.25.85.74,1.62,1.44,2.3,1.47,1.41,3.94,2.4,7.19,3.05.07.01.15.03.22.04.27.06.56.11.86.16.77.13,1.58.25,2.42.35.56.06,1.13.12,1.72.17.46.04.94.08,1.43.11.11,0,.22.02.33.02.33.03.67.05,1.01.06.36.02.73.04,1.1.05.33.02.66.03,1,.04.46.01.92.02,1.4.03.36.01.72.01,1.09.01.4.01.8.01,1.21.01,10.9,0,24.73-1.24,39.18-2.69,7.47-.75,13.37-1.35,15.6-1.23l.16-3c-.43-.02-.96-.02-1.58-.01Zm-57.24-11.18c.41-.11.82-.22,1.24-.32.55-.14,1.12-.26,1.7-.37,2.12-.39,4.43-.59,6.52-.4,0,.01.01.01.01.01,1.72.15,3.29.56,4.49,1.33.07.04.15.09.22.15.09.06.18.13.27.2.1.08.2.16.29.24.12.11.23.23.34.35.26.29.3.41.3.41,0,.01-.02.21-.48.71-.16.18-.34.35-.52.51-.18.16-.37.32-.57.46-.18.14-.36.27-.55.38-.16.12-.34.23-.52.32-.03.03-.06.05-.1.06-.14.09-.29.17-.44.24-.15.08-.3.15-.46.22-.08.04-.15.08-.23.11-.19.08-.38.16-.57.23-.08.04-.15.07-.23.09-.21.09-.43.17-.66.24-.14.05-.28.1-.43.14-5.08,1.57-12.67,1.72-21.95.35-.22-.03-.44-.06-.65-.1,2.56-2.09,6.89-3.95,12.98-5.56Z"/><g class="cls-22"><path class="cls-47" d="m1773.41,785.4c2.78-2.13,7.74-4.27,14.22-5.88,2.53-.63,5.56-1.01,8.23-.77-3.1-1.95-8.64-1.46-12.8-.31-4.34,1.19-7.83,2.48-10.48,3.87-1,.7-1.91,1.48-2.66,2.33-.22-.06,2.16.65,3.49.75Z"/><path class="cls-47" d="m1799.12,777.57c.4.43.96,1.12,1.09,2.04.02.14.02.27.02.4.47.29.89.62,1.24,1.01.26.29.3.41.3.41,0,0-.02.21-.48.71-1.19,1.29-2.97,2.29-5.28,3.01-6.63,3.94-17.21,3.74-26.11,2.65-.37-.05-1.29-.45-1.67-.51-.27.72-.53,1.73-.58,2.53-.03.6.04,1.17.2,1.72,1.5.93,3.9,1.53,6.92,1.87-1.5-.45-2.66-1.03-3.4-1.74-.54-.51-.76-1.04-.72-1.69.04-.67.22-1.32.53-1.96.81.17,1.62.32,2.44.44,10.41,1.53,24.05,2.03,29.87-4.29.36-.39,1.43-1.56,1.26-3.08-.11-.92-.65-1.62-1.04-2.07-1.76-1.98-4.32-2.88-6.94-3.2.86.45,1.66,1.01,2.35,1.74Z"/><path class="cls-47" d="m1845.21,791.03l-.16,3c-2.23-.12-8.13.48-15.6,1.23-14.45,1.45-28.28,2.69-39.18,2.69-.41,0-.81,0-1.21-.01-.37,0-.73,0-1.09-.01-.48,0-.94-.02-1.4-.03-.34-.01-.67-.02-1-.04-.37,0-.74-.03-1.1-.05-.34-.01-.68-.03-1.01-.06-.11,0-.22-.01-.33-.02-.49-.03-.97-.07-1.43-.11-.59-.05-1.16-.11-1.72-.17-.85-.11-1.65-.22-2.42-.35-.29-.05-.58-.1-.86-.16-.07-.01-.15-.03-.22-.04-.76-.16-1.48-.33-2.15-.52,3.34.42,7.34.77,11.81.42,4.3-.32,6.58-.69,19.57-2.46.04-.01.08-.01.12-.02,8.45-.55,16.87-1.4,23.32-2.05,3.96-.4,7.37-.74,10.09-.97,1.01-.08,1.58-.12,1.58-.12.56-.04,1.09-.07,1.57-.1.45-.02.86-.04,1.24-.06.62-.01,1.15-.01,1.58.01Z"/></g><g class="cls-22"><path class="cls-47" d="m1736.24,653.3c-.06,12.59.38,25.39.8,37.77.31,9.13.64,18.57.76,27.87.02,1.61.03,3.23.04,4.85.12,16.6.24,33.76,10.44,47.22,5.05,6.66,10.27,10.88,18.31,13.03.09-.1,2.22.42,2.32.32-7.65-2.27-14.52-6.96-19.36-13.35-10.2-13.46-10.32-30.62-10.44-47.22-.01-1.63-.02-3.25-.04-4.85-.12-9.3-.45-18.74-.76-27.87-.42-12.38-.86-25.19-.8-37.77h-3s0,0,0,0h1.73Z"/><path class="cls-47" d="m1828.18,795.26c-14.17,1.43-27.74,2.64-38.54,2.69.21,0,.42,0,.64,0,10.89,0,24.72-1.24,39.17-2.69,6.27-.63,11.42-1.15,14.24-1.23-2.3-.1-8.14.49-15.51,1.23Z"/></g></g><g><polygon class="cls-47" points="1738.03 658.04 1733.99 658.04 1732.99 646.59 1739.03 646.59 1738.03 658.04"/><path class="cls-14" d="m1732.99,646.59l.24,2.74h1.86c1.12,0,2.01.96,1.91,2.08l-.58,6.63h1.62l1-11.45h-6.05Z"/><path class="cls-47" d="m1745.78,634.23c0,6.31-2.38,14.11-10.16,14.11s-10.16-7.79-10.16-14.11,0-11.43,10.16-11.43,10.16,5.12,10.16,11.43Z"/><path class="cls-14" d="m1740.25,623.28c.59,1.87.57,4.16.57,6.63,0,6.31-2.38,14.11-10.16,14.11-1.16,0-2.18-.19-3.11-.5,1.56,2.8,4.11,4.82,8.07,4.82,7.78,0,10.16-7.79,10.16-14.11,0-5.17.1-9.54-5.53-10.95Z"/><g class="cls-22"><path class="cls-47" d="m1745.78,634.13c0,5.52-2.38,12.34-10.16,12.34s-10.16-6.82-10.16-12.34v.1c0,6.31,2.36,14.11,10.16,14.11s10.16-7.79,10.16-14.11c0-.2,0-.4,0-.59,0,.16,0,.33,0,.49Z"/><path class="cls-47" d="m1735.62,624.13c9.89,0,10.15,4.11,10.16,9.32,0-5.95-.27-10.65-10.16-10.65s-10.14,4.7-10.16,10.65c.02-5.21.42-9.32,10.16-9.32Z"/></g><rect class="cls-47" x="1734.08" y="658.9" width="3.9" height="1.36"/><polygon class="cls-14" points="1736.67 658.9 1736.67 659.92 1734.08 659.92 1734.08 660.26 1737.97 660.26 1737.97 658.9 1736.67 658.9"/><rect class="cls-47" x="1734.06" y="660.47" width="3.9" height="1.36"/><polygon class="cls-14" points="1736.65 660.47 1736.65 661.5 1734.06 661.5 1734.06 661.84 1737.96 661.84 1737.96 660.47 1736.65 660.47"/><rect class="cls-47" x="1734.06" y="662.05" width="3.9" height="1.36"/><polygon class="cls-14" points="1736.65 662.05 1736.65 663.07 1734.06 663.07 1734.06 663.41 1737.96 663.41 1737.96 662.05 1736.65 662.05"/></g></g><g id="enchufe_2"><path class="cls-21" d="m1820.9,764.14c-14.83-1.73-29.34-8.21-40.86-18.27-4.75-4.14-7.97-8-10.13-12.14-2.73-5.22-4.77-11.14-6.04-17.61-1.45-7.33-1.24-15.57-1.04-23.54.03-1.18.06-2.34.08-3.51l.08-22.15h.4v-1.45h-.4v-.23h.4v-1.45h0s-.39,0-.39,0v-.23h.41v-1.45h-.4v-.91h.46l.9-10.92c.94-.37,1.78-.87,2.5-1.51.29-.26.57-.55.83-.85.52-.6.97-1.28,1.36-2,.2-.36.38-.74.54-1.13,1.16-2.71,1.62-5.94,1.62-8.88,0-.11,0-.21,0-.32,0-.1,0-.21,0-.31,0,.07,0,.15,0,.22,0-.16,0-.33,0-.49,0-.05,0-.11,0-.16,0-.31,0-.61,0-.91,0-.01,0-.03,0-.04,0-.02,0-.04,0-.07,0-.35-.01-.7-.02-1.03,0-.02,0-.04,0-.06,0-.24-.02-.47-.04-.71,0-.03,0-.06,0-.09,0-.08-.01-.17-.02-.25,0,0,0-.02,0-.02-.02-.2-.03-.39-.05-.59,0,0,0-.01,0-.02-.05-.48-.12-.94-.21-1.38,0-.01,0-.02,0-.04-.02-.08-.04-.16-.06-.24,0-.02,0-.04-.01-.05-.05-.2-.1-.39-.16-.58,0-.02-.01-.04-.02-.07-.09-.27-.19-.54-.3-.79-.01-.03-.02-.06-.04-.08-.1-.22-.22-.44-.34-.65,0,0-.01-.02-.02-.03,0-.01-.02-.03-.03-.04-.02-.03-.04-.06-.05-.09-.15-.22-.31-.44-.49-.64-.03-.03-.05-.06-.08-.09-.1-.11-.21-.22-.32-.33,0,0-.01-.01-.02-.02-.08-.08-.17-.15-.26-.23-.03-.03-.06-.05-.1-.08-.09-.07-.18-.14-.27-.2,0,0,0,0-.01,0-.14-.1-.28-.19-.43-.28-.04-.02-.08-.04-.12-.07-.27-.15-.55-.29-.86-.42-.04-.02-.09-.03-.13-.05-.01,0-.02,0-.04-.01-.02,0-.03-.01-.05-.02-.29-.11-.61-.21-.94-.3-.04-.01-.09-.02-.13-.03-.38-.1-.78-.18-1.21-.25-.04,0-.08-.01-.12-.02-.45-.07-.92-.12-1.42-.16-.03,0-.06,0-.09,0-.53-.04-1.08-.06-1.68-.06h0c-.59,0-1.14.02-1.66.06-.03,0-.06,0-.08,0-.5.04-.96.09-1.41.16-.04,0-.08.01-.12.02-.43.07-.82.15-1.2.25-.04.01-.09.02-.13.03-.36.1-.7.21-1.02.34-.04.02-.09.03-.13.05-.31.13-.59.27-.86.42-.04.02-.08.04-.11.07-.26.15-.5.32-.72.49-.03.03-.06.05-.1.08-.22.18-.42.37-.6.57-.03.03-.05.06-.08.09-.18.2-.34.42-.49.64-.02.03-.04.06-.06.09-.15.23-.28.47-.4.72-.01.03-.02.05-.04.08-.12.26-.22.52-.31.8,0,.02-.01.04-.02.07-.09.28-.17.58-.24.88,0,0,0,.02,0,.03-.14.63-.23,1.3-.29,2,0,0,0,.01,0,.02-.03.34-.05.69-.07,1.05,0,.02,0,.04,0,.05-.01.35-.02.71-.03,1.08,0,.02,0,.04,0,.06,0,.37,0,.75,0,1.13h0s0,0,0,0c0,.24,0,.49,0,.74h0v.1c0,2.09.23,4.34.79,6.44.43,1.63,1.06,3.17,1.93,4.48,0,0,0,0,0,.01.02.04.04.08.07.11.2.29.41.56.63.83.01.01.02.03.03.05.02.03.04.06.06.08.22.25.45.48.69.71.03.03.05.06.08.09.25.23.52.44.8.64.05.04.09.08.14.11.26.18.55.33.84.48.08.04.14.09.22.12.28.13.57.24.87.34.1.03.19.08.3.11.06.02.13.03.19.04l.11,1.4h0l.76,9.25h.59v.91h-.5v1.45h.49v.23h-.5v1.45h.5v.23h-.5v1.45h.49l-.08,22.11c-.02,1.14-.05,2.29-.08,3.46-.2,7.77-.42,16.58,1.1,24.28,1.34,6.78,3.48,13.01,6.36,18.51,2.36,4.5,5.8,8.64,10.85,13.05,11.97,10.44,27.04,17.18,42.44,18.98l.02-.24h0l.3-2.93Z"/><g id="cable2"><path class="cls-47" d="m1819.57,757.95c-15.4-1.69-30.47-8.04-42.44-17.87-5.05-4.15-8.5-8.05-10.85-12.29-2.88-5.18-5.02-11.04-6.36-17.43-1.52-7.25-1.3-15.54-1.1-22.86.03-1.1.06-2.19.08-3.26l.11-27.83h3s-.11,27.86-.11,27.86c-.02,1.1-.05,2.2-.08,3.31-.2,7.5-.41,15.26,1.04,22.17,1.28,6.09,3.31,11.67,6.04,16.58,2.17,3.9,5.39,7.53,10.13,11.43,11.52,9.47,26.03,15.58,40.86,17.21l-.33,2.98Z"/><path class="cls-14" d="m1768.91,726.33c-2.73-4.92-4.77-10.5-6.04-16.58-1.45-6.9-1.24-14.66-1.04-22.17.03-1.11.06-2.2.08-3.31l.11-27.85h-1.22s-.11,27.81-.11,27.81c-.02,1.07-.05,2.16-.08,3.26-.2,7.32-.42,15.61,1.1,22.86,1.34,6.38,3.48,12.25,6.36,17.43,2.36,4.24,5.8,8.14,10.85,12.29,11.51,9.46,25.9,15.68,40.69,17.65l.3-2.76c-14.83-1.63-29.34-7.74-40.86-17.21-4.75-3.9-7.97-7.53-10.13-11.43Z"/></g><g><polygon class="cls-47" points="1762.47 658.04 1758.42 658.04 1757.42 646.59 1763.47 646.59 1762.47 658.04"/><path class="cls-14" d="m1757.42,646.59l.24,2.74h1.86c1.12,0,2.01.96,1.91,2.08l-.58,6.63h1.62l1-11.45h-6.05Z"/><path class="cls-47" d="m1770.22,634.23c0,6.31-2.38,14.11-10.16,14.11s-10.16-7.79-10.16-14.11,0-11.43,10.16-11.43,10.16,5.12,10.16,11.43Z"/><path class="cls-14" d="m1764.68,623.28c.59,1.87.57,4.16.57,6.63,0,6.31-2.38,14.11-10.16,14.11-1.16,0-2.18-.19-3.11-.5,1.56,2.8,4.11,4.82,8.07,4.82,7.78,0,10.16-7.79,10.16-14.11,0-5.17.1-9.54-5.53-10.95Z"/><g class="cls-22"><path class="cls-47" d="m1770.22,634.13c0,5.52-2.38,12.34-10.16,12.34s-10.16-6.82-10.16-12.34v.1c0,6.31,2.36,14.11,10.16,14.11s10.16-7.79,10.16-14.11c0-.2,0-.4,0-.59,0,.16,0,.33,0,.49Z"/><path class="cls-47" d="m1760.06,624.13c9.89,0,10.15,4.11,10.16,9.32,0-5.95-.27-10.65-10.16-10.65s-10.14,4.7-10.16,10.65c.02-5.21.42-9.32,10.16-9.32Z"/></g><rect class="cls-47" x="1758.51" y="658.9" width="3.9" height="1.36"/><polygon class="cls-14" points="1761.1 658.9 1761.1 659.92 1758.51 659.92 1758.51 660.26 1762.41 660.26 1762.41 658.9 1761.1 658.9"/><rect class="cls-47" x="1758.49" y="660.47" width="3.9" height="1.36"/><polygon class="cls-14" points="1761.08 660.47 1761.08 661.5 1758.49 661.5 1758.49 661.84 1762.39 661.84 1762.39 660.47 1761.08 660.47"/><rect class="cls-47" x="1758.49" y="662.05" width="3.9" height="1.36"/><polygon class="cls-14" points="1761.08 662.05 1761.08 663.07 1758.49 663.07 1758.49 663.41 1762.39 663.41 1762.39 662.05 1761.08 662.05"/></g></g><path id="sombra-2" class="cls-21" d="m2436.71,502.4c-35.1-29.02-88.94-30.56-125.03-30.56h-431.42c-57.5,0-104.12,41.85-104.12,93.48v147.71c0,31.62,17.49,59.58,44.26,76.5,19.1,19.98,47.42,32.64,79.05,32.64h468.19c57.5,0,104.12-41.85,104.12-93.48v-156.35c0-27.83-13.55-52.82-35.05-69.94Z"/><g id="incubator_grande"><path class="cls-45" d="m2347.54,800.54h-459.06c-54.88,0-99.36-44.49-99.36-99.36v-151.79h607.78l50.01,151.79c0,54.88-44.49,99.36-99.36,99.36Z"/><path class="cls-10" d="m2347.54,800.54h-459.06c-54.88,0-99.36-44.49-99.36-99.36v-151.79h607.78l50.01,151.79c0,54.88-44.49,99.36-99.36,99.36Z"/><polygon class="cls-45" points="2396.89 549.39 1789.11 549.39 1807.42 568.76 2452.94 568.76 2396.89 549.39"/><polygon class="cls-10" points="2382.89 552.43 1805.96 552.43 1823.34 565.72 2436.1 565.72 2382.89 552.43"/><g id="huevos"><path class="cls-34" d="m1907.8,567.46c0,18.84-13.96,34.11-31.17,34.11-17.22,0-31.17-15.27-31.17-34.11,0-18.84,13.96-50.87,31.17-50.87,17.22,0,31.17,32.03,31.17,50.87Z"/><path class="cls-14" d="m1876.63,565.01c-12.58,0-23.41-6.05-28.34-14.75-1.81,6.1-2.83,12.13-2.83,17.2,0,18.84,13.96,34.11,31.17,34.11s31.17-15.27,31.17-34.11c0-5.07-1.02-11.1-2.83-17.2-4.92,8.7-15.76,14.75-28.34,14.75Z"/><path class="cls-34" d="m1987.36,573.31c-3.63,18.48-20.27,30.77-37.17,27.45-16.89-3.32-27.64-21-24.01-39.48,3.63-18.48,23.51-47.22,40.4-43.9s24.41,37.44,20.77,55.93Z"/><path class="cls-14" d="m1957.25,564.9c-12.35-2.43-21.81-10.45-24.96-19.94-2.96,5.64-5.12,11.35-6.1,16.33-3.63,18.48,7.11,36.16,24.01,39.48s33.53-8.97,37.17-27.45c.98-4.97,1.14-11.08.54-17.42-6.51,7.59-18.31,11.44-30.65,9.01Z"/><path class="cls-34" d="m2071.32,567.46c0,18.84-13.96,34.11-31.17,34.11-17.22,0-31.17-15.27-31.17-34.11,0-18.84,13.96-50.87,31.17-50.87,17.22,0,31.17,32.03,31.17,50.87Z"/><path class="cls-14" d="m2040.15,565.01c-12.58,0-23.41-6.05-28.34-14.75-1.81,6.1-2.83,12.13-2.83,17.2,0,18.84,13.96,34.11,31.17,34.11s31.17-15.27,31.17-34.11c0-5.07-1.02-11.1-2.83-17.2-4.92,8.7-15.76,14.75-28.34,14.75Z"/><path class="cls-34" d="m2153.08,567.46c0,18.84-13.96,34.11-31.17,34.11-17.22,0-31.17-15.27-31.17-34.11,0-18.84,13.96-50.87,31.17-50.87,17.22,0,31.17,32.03,31.17,50.87Z"/><path class="cls-14" d="m2121.91,565.01c-12.58,0-23.41-6.05-28.34-14.75-1.81,6.1-2.83,12.13-2.83,17.2,0,18.84,13.96,34.11,31.17,34.11s31.17-15.27,31.17-34.11c0-5.07-1.02-11.1-2.83-17.2-4.92,8.7-15.76,14.75-28.34,14.75Z"/><path class="cls-34" d="m2235.47,564.64c1.68,18.76-10.85,35.22-28,36.75-17.15,1.54-32.41-12.42-34.09-31.18-1.68-18.76,9.36-51.91,26.5-53.45,17.15-1.54,33.91,29.12,35.59,47.88Z"/><path class="cls-14" d="m2204.2,564.99c-12.53,1.12-23.86-3.93-29.54-12.16-1.26,6.24-1.74,12.33-1.29,17.38,1.68,18.76,16.95,32.72,34.09,31.18,17.15-1.54,29.68-17.99,28-36.75-.45-5.05-2.01-10.96-4.36-16.87-4.13,9.11-14.38,16.1-26.91,17.22Z"/><path class="cls-34" d="m2316.6,567.46c0,18.84-13.96,34.11-31.17,34.11-17.22,0-31.17-15.27-31.17-34.11,0-18.84,13.96-50.87,31.17-50.87,17.22,0,31.17,32.03,31.17,50.87Z"/><path class="cls-14" d="m2285.43,565.01c-12.58,0-23.41-6.05-28.34-14.75-1.81,6.1-2.83,12.13-2.83,17.2,0,18.84,13.96,34.11,31.17,34.11s31.17-15.27,31.17-34.11c0-5.07-1.02-11.1-2.83-17.2-4.92,8.7-15.76,14.75-28.34,14.75Z"/><path class="cls-34" d="m2396.74,572.06c-2.84,18.62-18.94,31.61-35.96,29.01-17.02-2.6-28.51-19.8-25.67-38.42,2.84-18.62,21.47-48.18,38.49-45.58,17.02,2.6,25.98,36.37,23.14,54.99Z"/><path class="cls-14" d="m2366.3,564.94c-12.44-1.9-22.23-9.51-25.79-18.86-2.71,5.76-4.63,11.56-5.39,16.57-2.84,18.62,8.65,35.82,25.67,38.42,17.02,2.6,33.12-10.39,35.96-29.01.77-5.01.67-11.12-.2-17.43-6.18,7.86-17.8,12.21-30.24,10.31Z"/></g><polygon class="cls-45" points="2444.15 565.72 1803.88 565.01 1807.42 568.76 2452.94 568.76 2444.15 565.72"/><path class="cls-45" d="m1807.42,568.76h645.52v149.05c0,54.84-44.52,99.36-99.36,99.36h-446.8c-54.84,0-99.36-44.52-99.36-99.36v-149.05h0Z"/><path class="cls-20" d="m2353.58,817.18h-446.8c-54.88,0-99.36-44.49-99.36-99.36l645.52-149.05v149.05c0,54.88-44.49,99.36-99.36,99.36Z"/><path class="cls-10" d="m2353.58,813.18h-446.8c-54.88,0-99.36-44.49-99.36-99.36v4c0,54.88,44.49,99.36,99.36,99.36h446.8c54.88,0,99.36-44.49,99.36-99.36v-4c0,54.88-44.49,99.36-99.36,99.36Z"/><g id="cristal-2"><path class="cls-26" d="m2300.18,444.81h-411.7c-54.88,0-99.36,44.49-99.36,99.36v5.22h610.43l53.4,19.37c0-119.8-97.89-123.95-152.77-123.95Z"/><path class="cls-26" d="m1906.78,452.27h446.8c54.84,0,99.36,44.52,99.36,99.36v17.13h-645.52v-17.13c0-54.84,44.52-99.36,99.36-99.36Z"/><path class="cls-28" d="m1906.78,452.27h446.8c54.84,0,99.36,44.52,99.36,99.36v17.13h-645.52v-17.13c0-54.84,44.52-99.36,99.36-99.36Z"/><path class="cls-27" d="m1906.78,452.27h446.8c54.84,0,99.36,44.52,99.36,99.36v17.13h-645.52v-17.13c0-54.84,44.52-99.36,99.36-99.36Z"/><path class="cls-26" d="m1890.16,544.37v-14.92c0-28.57,13.85-53.91,35.2-69.67h-1.94c-47.8,0-86.54,38.75-86.54,86.54v14.92h562.24l-508.96-16.87Z"/><path class="cls-26" d="m2385.55,526.25c1.53.1,3.3-.25,5.45-1.18,27-11.74,3.1-32.9-11.9-41.21-11.67-6.46-24.31-11.15-37.36-13.9-10.19-2.15-23.87-.59-10.89,9.53,14.39,11.21,29.64,21.57,42.05,35.07,4.86,5.29,7.17,11.35,12.64,11.7Z"/></g><path class="cls-10" d="m2317.34,790.78h-374.32c-57.76,0-104.75-46.99-104.75-104.75v-87.03h583.82v87.03c0,57.76-46.99,104.75-104.75,104.75Zm-468.29-181v76.25c0,51.82,42.16,93.97,93.97,93.97h374.32c51.82,0,93.97-42.16,93.97-93.97v-76.25h-562.26Z"/><g><rect class="cls-10" x="1838.27" y="574.6" width="72.5" height="18.73"/><rect class="cls-10" x="1843.33" y="578.34" width="19.42" height="11.25"/><rect class="cls-10" x="1869.12" y="578.34" width="7.7" height="4.87" transform="translate(3745.95 1161.55) rotate(180)"/><rect class="cls-10" x="1869.12" y="584.71" width="7.7" height="4.87"/><rect class="cls-10" x="1878.43" y="578.34" width="7.7" height="4.87" transform="translate(3764.56 1161.55) rotate(180)"/><rect class="cls-10" x="1878.43" y="584.71" width="7.7" height="4.87"/><circle class="cls-10" cx="1900.35" cy="583.96" r="3.87"/></g></g><g><path class="cls-45" d="m2355.21,165.96h-468.37c-53.98,0-97.73,43.76-97.73,97.73v30.34l20.21,3.84h643.63v-34.18c0-53.98-43.76-97.73-97.73-97.73Z"/><path class="cls-10" d="m2355.21,165.96h-468.37c-53.98,0-97.73,43.76-97.73,97.73v30.34l20.21,3.84h643.63v-34.18c0-53.98-43.76-97.73-97.73-97.73Z"/><path class="cls-45" d="m1907.05,165.96h448.16c53.94,0,97.73,43.79,97.73,97.73v34.18h-643.63v-34.18c0-53.94,43.79-97.73,97.73-97.73Z"/><polygon class="cls-20" points="1789.11 280.39 1789.11 294.03 1809.32 297.87 2452.94 297.87 2452.94 284.24 1809.32 284.24 1789.11 280.39"/><path class="cls-10" d="m2355.21,165.96h-468.37c-29.4,0-55.77,12.99-73.68,33.53h615.74c-17.92-20.55-44.28-33.53-73.68-33.53Z"/></g><g><rect class="cls-40" x="1994.26" y="0" width="20.72" height="165.96"/><rect class="cls-19" x="2001.65" width="13.34" height="165.96"/><rect class="cls-40" x="2231.26" y="0" width="20.72" height="165.96"/><rect class="cls-19" x="2238.64" y="0" width="13.34" height="165.96"/><rect class="cls-40" x="1964.67" y="144.48" width="318.67" height="21.47"/><rect class="cls-19" x="1964.67" y="155.22" width="318.67" height="10.74"/></g><path class="cls-21" d="m1553.82,612.1h-245.29c-28.3,0-51.24,25.18-51.24,56.24v92.6c0,29.06,20.08,52.97,45.84,55.93l16.68.31h220.7l16.67-.13c26.74-1.9,47.89-26.28,47.89-56.11v-92.6c0-31.06-22.94-56.24-51.24-56.24Z"/><g><g><polygon class="cls-44" points="1328.67 814.31 1315.94 814.31 1313.94 786.77 1330.67 786.77 1328.67 814.31"/><polygon class="cls-13" points="1328.67 814.31 1314.89 799.77 1313.94 786.77 1330.67 786.77 1328.67 814.31"/></g><g><polygon class="cls-44" points="1552.91 814.31 1540.18 814.31 1538.18 786.77 1554.91 786.77 1552.91 814.31"/><polygon class="cls-13" points="1553.91 800.54 1540.18 814.31 1538.18 786.77 1554.91 786.77 1553.91 800.54"/></g><rect class="cls-32" x="1271.11" y="617.09" width="328.55" height="170.52" rx="48.41" ry="48.41"/><rect class="cls-41" x="1271.11" y="623.11" width="328.55" height="170.52" rx="48.41" ry="48.41"/><path class="cls-8" d="m1551.25,792.62h-231.73c-26.74,0-48.41-21.67-48.41-48.41v1c0,26.74,21.67,48.41,48.41,48.41h231.73c26.74,0,48.41-21.67,48.41-48.41v-1c0,26.74-21.67,48.41-48.41,48.41Z"/><path class="cls-44" d="m1537.97,783.48h-205.17c-28.35,0-51.41-21.79-51.41-48.58v-53.07c0-26.79,23.06-48.58,51.41-48.58h205.17c28.35,0,51.41,21.79,51.41,48.58v53.07c0,26.79-23.06,48.58-51.41,48.58Zm-205.17-144.56c-25.04,0-45.41,19.25-45.41,42.91v53.07c0,23.66,20.37,42.91,45.41,42.91h205.17c25.04,0,45.41-19.25,45.41-42.91v-53.07c0-23.66-20.37-42.91-45.41-42.91h-205.17Z"/><rect class="cls-44" x="1283.83" y="682.18" width="299.45" height="7.37"/><rect class="cls-44" x="1284.89" y="732.37" width="299.45" height="7.37"/><path class="cls-16" d="m1551.25,793.62h-231.73c-26.74,0-48.41-21.67-48.41-48.41l328.55-73.7v73.7c0,26.74-21.67,48.41-48.41,48.41Z"/><g><circle class="cls-40" cx="1435.61" cy="651.19" r="7.37"/><circle class="cls-6" cx="1435.61" cy="651.19" r="5.21"/></g><g><circle class="cls-40" cx="1435.61" cy="702.78" r="7.37"/><circle class="cls-6" cx="1435.61" cy="702.78" r="5.21"/></g><g><circle class="cls-40" cx="1435.61" cy="752.33" r="7.37"/><circle class="cls-6" cx="1435.61" cy="752.33" r="5.21"/></g></g><polygon class="cls-21" points="1408.64 609.04 1373.79 615.06 1373.79 620.49 1403.84 624 1433.83 627.49 1444.22 628.83 1450.32 626.22 1459.39 620.12 1458 619.38 1408.64 609.04"/><g><polygon class="cls-1" points="1444.22 627.49 1373.79 619.49 1373.79 614.06 1444.22 621.06 1444.22 627.49"/><polygon class="cls-45" points="1444.22 621.06 1461.23 612.5 1407.75 608.04 1373.79 614.06 1444.22 621.06"/><polygon class="cls-45" points="1444.22 627.49 1444.22 621.06 1461.23 612.5 1461.23 617.3 1444.22 627.49"/><polygon class="cls-1" points="1444.22 627.49 1444.22 621.06 1461.23 612.5 1461.23 617.3 1444.22 627.49"/><polygon class="cls-34" points="1445.17 626.22 1445.17 621.78 1461.23 613.5 1461.23 616.3 1445.17 626.22"/><polygon class="cls-1" points="1390.84 613.41 1403.84 614.06 1416.85 610.47 1407.57 609.73 1390.84 613.41"/><path class="cls-49" d="m1449.71,619.97c3.16-1.87,6.49-3.48,9.92-4.8-2.47,1.21-7.44,3.62-9.92,4.8h0Z"/><path class="cls-49" d="m1448.06,622.31c2.2-1.51,4.57-2.76,7.06-3.72-2.35,1.27-4.69,2.5-7.06,3.72h0Z"/><path class="cls-49" d="m1449.71,622.57c1.76-1.18,4.88-3.4,11.4-6.39,0,0-11.4,6.39-11.4,6.39h0Z"/></g><polygon class="cls-21" points="1339.59 579.1 1339.59 560.82 1320.54 553.82 1319.4 557.44 1328.82 560.82 1317.26 560.82 1316.13 564.44 1316.13 622.6 1337.68 622.6 1338.86 622.6 1369.37 622.6 1369.5 617.2 1369.5 579.1 1339.59 579.1"/><g><rect class="cls-45" x="1337.68" y="584.99" width="30.19" height="37.13"/><polygon class="cls-45" points="1369 580.9 1338.68 580.9 1337.68 584.99 1367.88 584.99 1369 580.9"/><polygon class="cls-29" points="1369 580.9 1338.68 580.9 1337.68 584.99 1367.88 584.99 1369 580.9"/><polygon class="cls-38" points="1367.88 584.99 1369 580.9 1369 617 1367.88 622.12 1367.88 584.99"/><path class="cls-1" d="m1352.29,584.99c.21-.76,1.35-3.34,1.55-4.1"/><rect class="cls-1" x="1339.52" y="587.9" width="26.64" height="7.17"/><rect class="cls-1" x="1339.52" y="597.25" width="10.38" height="10.38"/><rect class="cls-1" x="1339.52" y="609.53" width="10.38" height="10.38"/><path class="cls-2" d="m1353.68,598.86c-.02,1.16.17,2.3.61,3.36,0,0-.48-.07-.48-.07.64-1.02,1.01-2.22,1.29-3.38.26.51.81,1.58,1.08,2.1,0,0-.71-.11-.71-.11.41-.44,1.42-1.56,1.82-1.99.19.9.42,1.9.91,2.69,0,0-.8-.09-.8-.09.75-.83,2.37-2.61,3.11-3.42,0,0-.44,1.83-.44,1.83-.08.32,0,.7.19.97l-.79.12c.34-1,1.29-1.69,2.11-2.28-.07.44-.44,1.31-.13,1.72,0,0-.55-.07-.55-.07.34-.27,1.08-.86,1.43-1.14-.15.62-.6,1.5.11,1.96,0,0-.34.07-.34.07.08-.1.97-1.13,1.03-1.2.25.29.44.64.47,1.01,0,0-.14-.07-.14-.07,1.03-.39,1.07-.36.08.18,0,0-.11.06-.11.06-.06-.31-.21-.6-.43-.81,0,0,.25-.01.25-.01l-.73,1.15-.12.19c-.65-.27-1.12-.92-1.02-1.67,0,0,.56.32.56.32l-.55.52-.3.28c-.36-.44-.66-.96-.56-1.55,0,0,.66.39.66.39-.62.49-.9,1.32-1.12,2.05-.59-.65-1.2-1.47-.95-2.4,0,0,.83.43.83.43l-1.82,2.04-.46.52-.34-.61c-.36-.65-.62-1.35-.78-2.08l.81.23c-.32.32-1.42,1.42-1.72,1.72,0,0-.25-.58-.25-.58l-.53-1.2.74-.05c-.36,1.07-.96,2.04-1.68,2.91-.43-1.29-.55-2.71-.24-4.04h0Z"/><path class="cls-2" d="m1352.89,605.29c.27.44.58.85.96,1.18l-.3.03c.15-.36.47-1.1.62-1.46.1.8.23,1.78.76,2.4,0,0-.63,0-.63,0,.25-.42.52-.84.8-1.25.56.26,1.26.29,1.77-.07,0,0,.67-.45.67-.45l.08.82.07.72-.67-.42c.82-.29,1.57-.84,2.24-1.39.13.6.27,1.31.37,1.9,0,0-.57-.34-.57-.34.53-.09.99-.79,1.33-1.15.06.36.01,1.1.33,1.36,0,0-.44,0-.44,0,.53-.37,1.08-.72,1.63-1.07.11.62.97.91,1.52.37-.28.61-1.31.76-1.83.09l.33.06c-.46.44-.94.87-1.42,1.29-.38-.25-.72-.59-.83-1.06,0,0,.72.16.72.16-.33.54-.96.8-1.55.97-.12-.53-.28-1.09-.39-1.62l.77.28c-.72.61-1.6,1.02-2.5,1.3-.03-.34-.08-1.02-.1-1.36l.75.36c-.69.45-1.56.5-2.29.19l.52-.16c-.33.44-.71.92-1.05,1.36-.47-.68-.83-1.49-.79-2.32,0,0,.49.11.49.11-.1.16-.46.65-.56.81-.37-.49-.69-1.04-.82-1.63h0Z"/><path class="cls-2" d="m1353.21,611.94c.26.74.45,1.49.68,2.23l-.47-.05c.32-.95.78-2.14,1.14-3.08.12.7.15,1.91.58,2.5,0,0-.49-.2-.49-.2.59-.36,1.01-1.37,1.99-.99.44.19.76.71.5,1.22l-.58-.7c.44-.14.83-.4,1.14-.74l.45-.49c.27.45.57.99,1,1.3,0,0-.59,0-.59,0l.9-.67.52-.38c.1.33.32,1.02.42,1.35,0,0-.66-.2-.66-.2l1.54-1.07.5.36s-.03.08.07.17c.46.32.83-.2,1.12-.62.07-.17.47.04.49.31.03.17-.03.37-.18.43.25-.22-.02-.63-.2-.57l.09-.06c-.16.36-.33.81-.81,1.05-.57.24-1.36-.18-1.19-.91,0,0,.5.36.5.36l-1.42,1.23-.44.38-.22-.58-.28-.74.7.21c-.21.17-.95.79-1.15.95-.47-.33-.91-.73-1.22-1.22,0,0,.79.07.79.07-.42.49-.98.84-1.59,1.02l-.58-.7c-.04.06-.01.15,0,.15,0,0-.01-.02-.02-.02-.45.11-.75.81-1.37.93,0,0-.33.09-.33.09-.31-.52-.52-1.11-.53-1.71,0,0,.71.12.71.12-.39.79-.85,1.64-1.26,2.43-.07-1.04-.21-2.12-.26-3.16h0Z"/><path class="cls-2" d="m1353.18,616.65c0,.44.09.86.26,1.23l-.28-.06c.53-.77,1.17-1.57,1.73-2.32.04.54-.05,1.59.24,1.99.12.2.43.28.46.21.04-.02.11-.13.24-.32.39-.71,1.43-.91,1.79-.07.06.12.1.22.12.25.04.05-.02-.04-.11-.05l-.31.05c.26-.13,1.3-.64,1.53-.75l.24.29.39.49-.51-.14c.48-.12.87-.5,1.2-.85.35.32.69.72.78,1.2,0,0-.58-.21-.58-.21.3-.18.61-.35,1-.41.37-.09.93.1,1.09.44.09.14.12.19.22.23.39.1.99-.42,1.33,0-.49-.25-.84.41-1.37.37-.5-.02-.63-.65-1.14-.41-.36.12-.79.48-1.1.73-.12-.32-.23-.81-.52-1.01,0,0,.6-.02.6-.02-.38.46-.93.77-1.49.96,0,0-.22-.25-.22-.25l-.42-.47.59.12c-.08.04-1.26.65-1.31.68-.52,0-.78-.43-.9-.77-.03-.07-.05-.07,0-.04.04.03.11.02.1.02-.08.03-.12.08-.2.19-.48.93-1.72.95-2.22-.02-.25-.52-.19-1.01-.17-1.42l.6.24c-.54.52-1.09,1.04-1.66,1.53-.13-.52-.17-1.09,0-1.59h0Z"/></g><g><rect class="cls-43" x="1316.85" y="563.96" width="20.83" height="58.17"/><polygon class="cls-31" points="1339.35 560.34 1318.89 560.34 1316.85 563.96 1337.68 563.96 1339.35 560.34"/><polygon class="cls-17" points="1339.35 560.34 1318.89 560.34 1316.85 563.96 1337.68 563.96 1339.35 560.34"/><polygon class="cls-31" points="1339.35 560.34 1321.89 553.34 1320.85 556.96 1337.68 563.96 1339.35 560.34"/><polygon class="cls-31" points="1337.68 563.96 1339.35 560.34 1339.35 580.9 1337.68 584.99 1337.68 563.96"/><rect class="cls-17" x="1321.35" y="568.86" width="12.14" height="14.08"/><rect class="cls-17" x="1321.35" y="586.88" width="4.9" height="14.63"/><path class="cls-31" d="m1328.31,588.33c.03-.27.1-.52.17-.78.35.26.71.56,1.01.88,0,0-.57-.07-.57-.07.37-.42.78-.79,1.2-1.15.96.52,1.9.74,3.19.67-.81.85-2.27.96-3.34.36l.55-.06c-.46.38-.98.72-1.5,1.03-.21-.4-.43-.81-.59-1.24l.31-.02c-.13.13-.28.26-.44.38h0Z"/><path class="cls-31" d="m1328.26,591.63c.09-.3.22-.59.35-.87.16.31.4.74.71.87,0,0-.42-.04-.42-.04.56-.43,1.19-.77,1.8-1.1.35,1.05,1.44,1.34,2.4,1.83-1.07.31-2.38.18-3.04-.9,0,0,.67.19.67.19-.56.3-1.14.56-1.75.76l-.14-.14c-.28-.28-.42-.66-.4-1.02l.35.09c-.16.12-.34.23-.52.33h0Z"/><path class="cls-31" d="m1328.21,596.04c1.56-.71,3.25-.85,4.95-.68.02.79.1,1.21-.48.3,0,0,.28.17.28.17-1.51.61-3.21.77-4.75.2h0Z"/><path class="cls-31" d="m1328.18,600.15c1.01-.72,3.58-1.42,4.22-.03-1.47-.1-2.61.71-4.22.03h0Z"/></g><path class="cls-21" d="m1240.51,261.92h-152.14c-.8,0-1.59.22-2.28.64l-.04.02c-1.32.8-2.12,2.23-2.12,3.77v212.59c0,2.43,1.97,4.4,4.4,4.4h156.05c3.19,0,3.67-3.46,3.67-5.74l-3.14-211.35c-.04-2.41-2-4.34-4.4-4.34Z"/><path class="cls-45" d="m1243.75,261.92h-152.27c-2.4,0-4.34,1.94-4.34,4.34v210.8c0,2.4,1.94,4.34,4.34,4.34h152.27c3.3,0,4.33-1.58,4.34-4.34v-210.8c0-2.4-1.94-4.34-4.34-4.34Z"/><path class="cls-10" d="m1243.75,480.39h-152.27c-2.4,0-4.34-1.94-4.34-4.34v1c0,2.4,1.94,4.34,4.34,4.34h152.27c3.3,0,4.33-1.58,4.34-4.34v-1c-.01,2.76-1.04,4.34-4.34,4.34Z"/><rect class="cls-54" x="1098.22" y="273" width="138.8" height="197.31"/><path class="cls-12" d="m1237.01,470.31v-197.31h-138.8v197.31h138.8Zm-2-1.56h-134.64v-194.18h134.64v194.18Z"/><rect class="cls-21" x="1110.27" y="413.41" width="55.66" height="36.46"/><rect class="cls-32" x="1112.04" y="414.13" width="55.66" height="36.46"/><rect class="cls-21" x="1186.67" y="309.64" width="36.63" height="56.81"/><rect class="cls-32" x="1187.89" y="310.86" width="36.63" height="56.81"/><rect class="cls-21" x="1137.42" y="309.64" width="29.96" height="36.25"/><rect class="cls-31" x="1137.66" y="310.25" width="29.96" height="36.25"/><circle class="cls-43" cx="1116.68" cy="445.18" r="1.58"/><circle class="cls-43" cx="1203.4" cy="443.6" r="1.58"/><circle class="cls-43" cx="1164.41" cy="417.29" r="1.58"/><circle class="cls-43" cx="1192.17" cy="361.62" r="1.58"/><circle class="cls-33" cx="1162.83" cy="445.18" r="1.58"/><circle class="cls-33" cx="1116.68" cy="417.29" r="1.58"/><circle class="cls-33" cx="1140.86" cy="343.53" r="1.58"/><circle class="cls-33" cx="1108.69" cy="372.63" r="1.58"/><circle class="cls-33" cx="1164.41" cy="339.27" r="1.58"/><circle class="cls-33" cx="1110.27" cy="380.47" r="1.58"/><circle class="cls-33" cx="1140.51" cy="312.89" r="1.58"/><circle class="cls-53" cx="1221.81" cy="316.67" r="1.58"/><circle class="cls-53" cx="1115.09" cy="371.05" r="1.58"/><path class="cls-18" d="m1087.14,316.67v160.39c0,2.4,1.94,4.34,4.34,4.34h152.27c3.3,0,4.33-1.58,4.34-4.34,0,0-99.03-7.18-119.83-27.91-19.44-19.37-41.12-132.48-41.12-132.48Z"/></g></g></g></g></svg>