<?xml version="1.0" encoding="UTF-8"?><svg xmlns="http://www.w3.org/2000/svg" viewBox="0 0 50.94 923.88"><defs><style>.cls-1{fill:#dde2a9;}.cls-2{isolation:isolate;}.cls-3{fill:#98c32d;}.cls-4{fill:#e5eeca;mix-blend-mode:soft-light;}</style></defs><g class="cls-2"><g id="Capa_2"><g id="fondo"><polygon class="cls-1" points="48.54 923.88 2.4 923.88 2.4 39.99 48.54 0 48.54 923.88"/><polygon class="cls-3" points="48.54 923.88 2.4 923.88 2.4 890.56 0 889.15 0 876.93 2.4 875.3 2.4 760.14 0 758.47 0 746.25 2.4 744.41 2.4 607.9 0 606.31 0 594.09 2.4 591.82 2.4 466.7 0 464.72 0 452.5 2.4 450.25 2.4 301.8 0 299.99 0 287.77 2.4 284.26 2.4 148.09 0 146.42 0 134.2 2.4 132.39 2.4 51.79 48.54 11.8 48.54 132.96 50.94 134.2 50.94 146.42 48.54 148.18 48.54 285.71 50.94 287.77 50.94 299.99 48.54 301.84 48.54 450.8 50.94 452.5 50.94 464.72 48.54 466.7 48.54 592 50.94 594.56 50.94 606.31 48.54 608.09 48.54 743.62 50.94 746.25 50.94 758.47 48.54 759.94 48.54 874.71 50.94 876.93 50.94 889.15 48.54 891.13 48.54 923.88"/><g><rect class="cls-1" x="0" y="134.2" width="50.94" height="12.22"/><rect class="cls-1" x="0" y="287.77" width="50.94" height="12.22"/><rect class="cls-1" x="0" y="452.5" width="50.94" height="12.22"/><rect class="cls-1" x="0" y="594.09" width="50.94" height="12.22"/><rect class="cls-1" x="0" y="746.25" width="50.94" height="12.22"/><rect class="cls-1" x="0" y="876.93" width="50.94" height="12.22"/></g><polygon class="cls-4" points="14.63 606.31 14.63 594.09 17.03 591.82 17.03 466.7 14.63 464.72 14.63 452.5 17.03 450.25 17.03 301.8 14.63 299.99 14.63 287.77 17.03 284.26 17.03 148.09 14.63 146.42 14.63 134.2 17.03 132.39 17.03 39.11 2.4 51.79 2.4 132.39 0 134.2 0 146.42 2.4 148.09 2.4 284.26 0 287.77 0 299.99 2.4 301.8 2.4 450.25 0 452.5 0 464.72 2.4 466.7 2.4 591.82 0 594.09 0 606.31 2.4 607.9 2.4 744.41 0 746.25 0 758.47 2.4 759.94 2.4 875.3 0 876.93 0 889.15 2.4 890.56 2.4 923.88 17.03 923.88 17.03 607.9 14.63 606.31"/></g></g></g></svg>