<?xml version="1.0" encoding="UTF-8"?><svg xmlns="http://www.w3.org/2000/svg" xmlns:xlink="http://www.w3.org/1999/xlink" viewBox="0 0 92.76 124.42"><defs><style>.cls-1{isolation:isolate;}.cls-2{fill:#98c32d;}.cls-3{clip-path:url(#clippath);}.cls-4{fill:none;}.cls-5{mix-blend-mode:multiply;}</style><clipPath id="clippath"><rect class="cls-4" width="92.76" height="124.42"/></clipPath></defs><g class="cls-1"><g id="Capa_2"><g id="fondo"><g class="cls-3"><g><path class="cls-2" d="m76.35,61.48c5.54,1.18,10.84-.25,16.41-.52,0,0-.04,2.23-.04,2.23-5.39-.45-11.14.19-16.37-1.71h0Z"/><path class="cls-2" d="m60.88,39.41c13.74,8.04,23.75,22.76,23.75,22.76,0,0-17.74-1.51-31.48-9.55S12.56,20,12.56,20c0,0,34.59,11.37,48.33,19.4Z"/><g class="cls-5"><path class="cls-2" d="m31.41,31.05c1.86.44,3.62,1.24,5.32,2.13,1.68.92,3.29,1.96,4.9,2.97,3.21,2.04,6.41,4.07,9.67,6.03,3.24,1.98,6.52,3.89,9.81,5.79,1.64.96,3.3,1.89,4.96,2.81l4.98,2.8c-3.52-1.46-6.97-3.1-10.35-4.85-3.4-1.73-6.71-3.63-9.98-5.6-3.25-1.99-6.46-4.06-9.56-6.28-1.55-1.11-3.09-2.21-4.69-3.21-1.59-1.03-3.27-1.91-5.05-2.6Z"/></g><path class="cls-2" d="m50.75,57.28c15.87-1.26,32.5,5.11,32.5,5.11,0,0-15.42,8.9-31.29,10.15-15.87,1.26-51.95-3.57-51.95-3.57,0,0,34.88-10.44,50.75-11.69Z"/><g class="cls-5"><path class="cls-2" d="m21.78,67.27c1.78-.7,3.68-1.05,5.58-1.29,1.91-.21,3.82-.28,5.72-.36,3.8-.16,7.59-.32,11.38-.57,3.79-.22,7.57-.53,11.36-.85,1.89-.15,3.79-.34,5.68-.53l5.69-.55c-3.72.82-7.49,1.44-11.27,1.94-3.78.52-7.58.86-11.39,1.11-3.81.23-7.62.35-11.44.32-1.9-.02-3.8-.05-5.69.05-1.89.06-3.77.3-5.63.75Z"/></g></g></g></g></g></g></svg>