<?xml version="1.0" encoding="UTF-8"?><svg xmlns="http://www.w3.org/2000/svg" xmlns:xlink="http://www.w3.org/1999/xlink" viewBox="0 0 92.76 93.39"><defs><style>.cls-1{isolation:isolate;}.cls-2{fill:#98c32d;}.cls-3{clip-path:url(#clippath);}.cls-4{fill:none;}.cls-5{mix-blend-mode:multiply;}</style><clipPath id="clippath"><rect class="cls-4" width="92.76" height="93.39"/></clipPath></defs><g class="cls-1"><g id="Capa_2"><g id="fondo"><g class="cls-3"><g><g><path class="cls-2" d="m17.39,41.59c-4.82,3.22-10.39,3.86-15.78,5.71,0,0,.88,2.1.88,2.1,4.95-2.47,10.65-4.03,14.91-7.81h0Z"/><path class="cls-2" d="m40.13,27.93c-15.55,4.8-28.94,17.13-28.94,17.13,0,0,18.02,2.63,33.56-2.18,15.55-4.8,48.01-23.02,48.01-23.02,0,0-37.08,3.26-52.63,8.07Z"/><g class="cls-5"><path class="cls-2" d="m71.42,26.47c-1.95.01-3.9.4-5.79.88-1.89.52-3.73,1.18-5.57,1.82-3.67,1.28-7.33,2.56-11.03,3.76-3.69,1.22-7.4,2.36-11.11,3.49-1.86.57-3.72,1.11-5.6,1.64l-5.61,1.63c3.85-.63,7.66-1.46,11.44-2.42,3.79-.94,7.53-2.05,11.24-3.25,3.7-1.22,7.38-2.54,10.98-4.02,1.8-.74,3.59-1.48,5.42-2.11,1.82-.66,3.7-1.14,5.63-1.41Z"/></g></g><g><path class="cls-2" d="m12.89,46.66c-4.43.31-8.38-1.37-12.67-2.19,0,0-.21,1.73-.21,1.73,4.23.24,8.62,1.36,12.89.46h0Z"/><path class="cls-2" d="m33.21,46.19c-12.17-2.7-25.77.43-25.77.43,0,0,11,8.58,23.17,11.28s40.69,2.89,40.69,2.89c0,0-25.92-11.89-38.1-14.6Z"/></g></g></g></g></g></g></svg>