<?xml version="1.0" encoding="UTF-8"?><svg xmlns="http://www.w3.org/2000/svg" xmlns:xlink="http://www.w3.org/1999/xlink" viewBox="0 0 92.76 120.45"><defs><style>.cls-1{isolation:isolate;}.cls-2{fill:#98c32d;}.cls-3{clip-path:url(#clippath);}.cls-4{fill:none;}.cls-5{mix-blend-mode:multiply;}</style><clipPath id="clippath"><rect class="cls-4" width="92.76" height="120.45"/></clipPath></defs><g class="cls-1"><g id="Capa_2"><g id="fondo"><g class="cls-3"><g><path class="cls-2" d="m76.59,53.49c4.92,3.38,10.65,4.12,16.17,6.1,0,0-.93,2.15-.93,2.15-5.07-2.61-10.91-4.3-15.24-8.25h0Z"/><path class="cls-2" d="m54.08,40.07c15.94,5.16,29.57,18.05,29.57,18.05,0,0-18.59,2.45-34.53-2.71C33.17,50.24,0,31.02,0,31.02c0,0,38.14,3.88,54.08,9.05Z"/><g class="cls-5"><path class="cls-2" d="m21.88,38.13c2.01.04,4.01.46,5.95.99,1.94.56,3.83,1.27,5.71,1.95,3.76,1.37,7.51,2.74,11.3,4.02,3.78,1.31,7.59,2.53,11.4,3.75,1.9.61,3.82,1.2,5.74,1.76l5.75,1.75c-3.95-.71-7.86-1.62-11.74-2.65-3.89-1.02-7.72-2.22-11.52-3.5-3.8-1.31-7.56-2.72-11.25-4.3-1.84-.79-3.68-1.58-5.55-2.24-1.86-.7-3.79-1.23-5.78-1.53Z"/></g></g></g></g></g></g></svg>