<?xml version="1.0" encoding="UTF-8"?><svg xmlns="http://www.w3.org/2000/svg" xmlns:xlink="http://www.w3.org/1999/xlink" viewBox="0 0 92.76 168.15"><defs><style>.cls-1{isolation:isolate;}.cls-2{fill:#98c32d;}.cls-3{clip-path:url(#clippath);}.cls-4{fill:none;}.cls-5{mix-blend-mode:multiply;}</style><clipPath id="clippath"><rect class="cls-4" width="92.76" height="168.15"/></clipPath></defs><g class="cls-1"><g id="Capa_2"><g id="fondo"><g class="cls-3"><g><path class="cls-2" d="m72.46,44.04C51.92,63.16,24.88,70.45,0,83.39c0,0,.13,2.51.13,2.51,27.55-15.27,55.22-20.43,72.32-41.86h0Z"/><path class="cls-2" d="m32.44,60.66c-5.36,4.54-8.6,11.71-8.6,11.71,0,0,7.6-2.01,12.97-6.55,5.36-4.54,15.17-17.28,15.17-17.28,0,0-14.18,7.58-19.54,12.12Z"/><g class="cls-5"><path class="cls-2" d="m44.62,54.78c-.77.34-1.48.82-2.15,1.33-.66.53-1.28,1.1-1.9,1.67-1.24,1.13-2.48,2.26-3.74,3.36-1.26,1.11-2.54,2.19-3.83,3.27-.64.54-1.29,1.07-1.95,1.6l-1.95,1.6c1.42-.9,2.79-1.88,4.13-2.9,1.35-1.01,2.64-2.09,3.91-3.19,1.26-1.11,2.5-2.26,3.68-3.46.59-.6,1.18-1.2,1.8-1.75.61-.57,1.27-1.08,2-1.51Z"/></g><path class="cls-2" d="m61.82,35.64c-7.99,10.61-10.95,25.16-10.95,25.16,0,0,13.17-6.87,21.15-17.48,7.99-10.61,20.74-38.16,20.74-38.16,0,0-22.96,19.88-30.94,30.48Z"/><g class="cls-5"><path class="cls-2" d="m81.81,19.72c-1.29.94-2.39,2.12-3.41,3.35-1,1.25-1.9,2.56-2.81,3.86-1.81,2.6-3.62,5.2-5.5,7.75-1.85,2.57-3.77,5.09-5.68,7.62-.96,1.26-1.93,2.51-2.92,3.76l-2.93,3.75c2.24-2.26,4.36-4.63,6.41-7.06,2.06-2.43,4-4.95,5.88-7.52,1.86-2.58,3.66-5.21,5.34-7.91.84-1.35,1.67-2.7,2.58-3.98.89-1.3,1.9-2.52,3.05-3.62Z"/></g><path class="cls-2" d="m39.12,73.72c-14.17-1.28-29.1,4.24-29.1,4.24,0,0,13.7,8.11,27.87,9.39,14.17,1.28,46.47-2.67,46.47-2.67,0,0-31.07-9.68-45.24-10.96Z"/><g class="cls-5"><path class="cls-2" d="m64.91,82.93c-1.58-.64-3.28-.97-4.98-1.21-1.7-.21-3.41-.28-5.11-.38-3.39-.18-6.78-.36-10.17-.63-3.39-.24-6.77-.55-10.15-.87-1.69-.16-3.38-.34-5.07-.53l-5.08-.55c3.32.77,6.68,1.36,10.05,1.84,3.37.5,6.77.84,10.17,1.11,3.4.24,6.81.39,10.22.4,1.7,0,3.4,0,5.08.1,1.69.07,3.37.3,5.02.73Z"/></g></g></g></g></g></g></svg>