<?xml version="1.0" encoding="UTF-8"?><svg xmlns="http://www.w3.org/2000/svg" viewBox="0 0 194.5 194.5"><defs><style>.cls-1{mix-blend-mode:multiply;}.cls-1,.cls-2,.cls-3{fill:#878787;}.cls-4{fill:#648bd1;}.cls-5{isolation:isolate;}.cls-2{mix-blend-mode:soft-light;}</style></defs><g class="cls-5"><g id="Capa_2"><g id="fondo"><g><circle class="cls-3" cx="97.25" cy="97.25" r="97.25"/><circle class="cls-1" cx="97.25" cy="97.25" r="92.38"/><circle class="cls-1" cx="97.25" cy="97.25" r="87.34"/><path class="cls-3" d="m34.61,45.2c-5.64,6.52-12.39,16.57-1.89,21.72,2.15,1.05,4.36,2.09,6.74,2.33,7.07.73,14.94-6.55,20.46-10.2,7.45-4.93,14.75-10.1,21.87-15.5,9.16-6.94-1.74-12.68-7.47-16.65-1.94-1.35-4.47-3.46-6.9-3.58-6.1-.29-13.07,4.6-17.75,8.02-5.44,3.98-10.44,8.56-14.87,13.64-.06.07-.12.14-.19.21Z"/><path class="cls-3" d="m16.3,102.57c.19,3.08.5,6.15.87,9.18.29,2.37.43,5.59,2.34,7.27,5.61,4.93,12.73-1.86,16.12-6.21,3.19-4.1,4.52-9.07,4.83-14.19.16-2.56.09-5.12,0-7.68-.34-8.77-3.9-13.4-11.87-17.08-8.78-4.06-11.1,1.51-12.1,9.58-.79,6.33-.58,12.78-.18,19.13Z"/><path class="cls-3" d="m68.38,145.77c3.16,3.09,6.04,6.36,8.07,10.12,1.43,2.66,1.15,5.87,1.15,8.73-2.07,12.89-10.09,9.79-18.81,5.47-7.75-3.85-14.85-8.87-20.75-15.22-3.77-4.05-13.19-14.28-11.73-20.35.32-1.33,1.18-2.46,2.08-3.49,2.9-3.37,7.55-9.93,12.39-9.68,6.47.35,10.31,7.29,14.12,11.59,3.97,4.47,9.01,8.47,13.49,12.83Z"/><path class="cls-3" d="m108.92,164.02c.48-.56,1.05-1.05,1.62-1.53,5.16-4.32,11.04-7.65,16.8-11.08,4.93-2.93,10.77-8.6,16.61-9.32,2.3-.28,4.77.62,6.15,2.49,1.57,2.13,3.87,5,4.32,7.66,1.32,7.95-12.92,14.39-18.29,17.66-6.43,3.87-12.97,6.86-20.18,8.74-2.75.72-6.19,1.35-7.67-1.69-1.21-2.49-1.41-9.45-.08-11.91.2-.37.45-.71.72-1.03Z"/><path class="cls-3" d="m157.5,98.49c-1.91-6.1-3.88-12.18-6.36-18.03-.77-1.82-1.56-3.78-1.2-5.73.69-3.76,5.13-6.46,8.1-8.33,10.46-6.62,16.02,3.18,19.11,12.01,2.55,7.29,3.2,15.2,2.7,22.88-.3,4.63-1.47,7.14-5.69,9.29-5.2,2.65-11.68,3.59-13.8-3-.97-3.01-1.91-6.05-2.85-9.08Z"/><path class="cls-3" d="m119.47,39.93c-.92-3.08-.81-6.36-.68-9.57.08-1.98.2-4.11,1.41-5.68,1.05-1.36,2.77-2.07,4.48-2.31,7.37-1.05,15.88,3.79,21.63,8.04,6.23,4.59,17.68,15.89,11.02,23.65-2.17,2.53-5.12,4.24-8.01,5.9-2.68,1.54-6.55,3.25-9.52,1.66-1.22-.65-2.23-1.61-3.23-2.57-5.63-5.37-14.78-11.36-17.1-19.13Z"/><path class="cls-3" d="m157.95,140.36c.67,1.16,1.43,2.37,2.63,2.97,0,1.57,4.64-.74,5.08-1.16,1.86-1.78,3.17-5.22,4.52-7.43,1.77-2.92,3.58-5.91,4.32-9.24.19-.86.31-1.77.03-2.61-.77-2.34-3.44-1.85-5.27-1.45-3.98.88-9.37,2.88-12.69,5.21-6.03,4.23-2.16,7.63,1.37,13.71Z"/><path class="cls-3" d="m102.71,33.98c1.04-.33,2.05-.9,3-1.77,6.33-5.83,10.01-17.2-2.02-17.96-4.61-.29-22.9-.82-19.13,7.25,2.67,5.73,11.2,14.65,18.15,12.48Z"/><path class="cls-4" d="m132.89,71.93c-.96.13-1.42,1.44-.94,2.29s1.54,1.21,2.51,1.16c.41-.02.84-.12,1.17-.37.72-.58.66-1.67.54-2.59-.02-.16-.05-.32-.15-.44-.11-.13-.29-.18-.46-.21-.98-.23-2.11-.42-2.9.2"/><path class="cls-3" d="m66.56,133.99c8.44,7.88,19.19,21.63,31.96,21.63,13.61.59,24.07-8.59,34.13-16.29,8.6-6.59,19.21-14.1,19.79-26.05.33-6.92-1.31-14.31-3.28-20.92-3.05-10.26-9.07-18.24-15.96-26.27-5.75-6.7-11.09-12.95-18.83-17.43-7.25-4.19-14.13-4.4-21.64-.91-12.62,5.86-23.28,12.89-34.24,21.19-2.53,1.92-4.96,4.04-6.73,6.68-5.58,8.33-4.21,18.61-3.61,28.02.82,12.97,9.23,21.79,18.41,30.36Z"/><path class="cls-3" d="m85.99,164.81c-2.4,2.79-3.47,8.29-2.76,11.1,1.1,4.42,12.08,5.12,15.3,3.45,3.19-1.66,2.06-9.05.8-11.68-1.94-4.04-7.06-5.82-11.24-4.39-.78.27-1.48.8-2.09,1.51Z"/><path class="cls-1" d="m177.92,42.93c.66,4.56,1.01,9.21,1.01,13.96,0,53.71-43.54,97.25-97.25,97.25-33.59,0-63.2-17.03-80.68-42.93,6.77,47.1,47.27,83.29,96.24,83.29,53.71,0,97.25-43.54,97.25-97.25,0-20.12-6.11-38.81-16.57-54.32Z"/><path class="cls-2" d="m140.68,10.24C127.61,3.7,112.86,0,97.25,0,46.55,0,4.93,38.8.42,88.33,20.53,40.29,76.48,7.39,140.68,10.24Z"/></g></g></g></g></svg>