<?xml version="1.0" encoding="UTF-8"?><svg xmlns="http://www.w3.org/2000/svg" viewBox="0 0 194.5 194.5"><defs><style>.cls-1{isolation:isolate;}.cls-2{fill:#8ee1a8;}.cls-2,.cls-3{mix-blend-mode:multiply;}.cls-4{fill:#95cb99;}.cls-5,.cls-6,.cls-3{fill:#13ce38;}.cls-6{mix-blend-mode:soft-light;}</style></defs><g class="cls-1"><g id="Capa_2"><g id="fondo"><g><circle class="cls-5" cx="97.25" cy="97.25" r="97.25"/><circle class="cls-3" cx="97.25" cy="97.25" r="92.38"/><circle class="cls-3" cx="97.25" cy="97.25" r="87.34"/><g><path class="cls-4" d="m139.21,147.55c-17.8,17.66-45.73,24.6-70.37,12.83-19.92-9.52-35.82-29.14-38.22-51.42-1.25-11.61,3.24-33.77,14.32-39.91,11.72-6.49,19.58,7.91,25.42,15.12,11.14,13.78,23.49,25.66,41.6,14.95,16.28-9.63,19.78-33.2,7.58-47.41-5.78-6.74-13.12-7.19-20.33-2.28-1.47,1-2.85,2.35-3.24,4.08-.5,2.18.89,4.62,3.01,5.3s4.68-.48,5.55-2.53c3.51-.66,5.65,4.75,3.38,7.51s-6.57,2.83-9.9,1.55c-24.59-9.48-2.65-32.4,13.04-35.06,41.33-7.03,48.94,51.77,46.09,80.01-1.49,14.75-8.19,27.6-17.93,37.26Z"/><circle class="cls-4" cx="89" cy="162.74" r="15.08"/><circle class="cls-4" cx="122.53" cy="155.45" r="10.97"/><circle class="cls-4" cx="144.73" cy="136.25" r="10.97"/><circle class="cls-4" cx="155.28" cy="108.38" r="8.89"/><circle class="cls-4" cx="155.28" cy="82" r="7.31"/><path class="cls-4" d="m147.97,65.12c-4.04,0-7.31-3.27-7.31-7.31,0-4.04,3.27-7.31,7.31-7.31,4.04,0,7.31,3.27,7.31,7.31,0,4.04-3.27,7.31-7.31,7.31Z"/><circle class="cls-4" cx="134.8" cy="36.73" r="5.81"/></g><path class="cls-2" d="m177.92,42.93c.66,4.56,1.01,9.21,1.01,13.96,0,53.71-43.54,97.25-97.25,97.25-33.59,0-63.2-17.03-80.68-42.93,6.77,47.1,47.27,83.29,96.24,83.29,53.71,0,97.25-43.54,97.25-97.25,0-20.12-6.11-38.81-16.57-54.32Z"/><path class="cls-6" d="m140.68,10.24C127.61,3.7,112.86,0,97.25,0,46.55,0,4.93,38.8.42,88.33,20.53,40.29,76.48,7.39,140.68,10.24Z"/></g></g></g></g></svg>