<?xml version="1.0" encoding="UTF-8"?><svg xmlns="http://www.w3.org/2000/svg" viewBox="0 0 194.5 194.5"><defs><style>.cls-1{fill:#c5c5c5;}.cls-2{isolation:isolate;}.cls-3,.cls-4{mix-blend-mode:multiply;}.cls-3,.cls-5,.cls-6{fill:#b9b9b9;}.cls-4{fill:#ddd;}.cls-5{mix-blend-mode:soft-light;}</style></defs><g class="cls-2"><g id="Capa_2"><g id="fondo"><g><circle class="cls-6" cx="97.25" cy="97.25" r="97.25"/><circle class="cls-3" cx="97.25" cy="97.25" r="92.38"/><circle class="cls-3" cx="97.25" cy="97.25" r="87.34"/><g id="alas"><path class="cls-1" d="m173.01,124.2c-7.98-8.24-16.6-21.35-27.87-21.09-24.87,2.35-43.46,1.52-63.51-15.93-17.66-13.34-30.6-34.07-34.21-55.6,18.62,17.14,34.25,30.9,55.53,42.76,9.53,6.49,22.15,7.46,33.86,8.87,24.69.9,34.99,18.17,36.21,41h0Z"/><path class="cls-1" d="m112.12,111.13c-30.96,25.73-80.7,1.12-89.28-35.52,16.82,5.08,29.88,12.94,44.81,19.54,14.86,6.92,27.75,10.62,44.47,15.98h0Z"/><path class="cls-1" d="m52.63,140.34c15.26-10.02,30.03-13.51,47.47-13.76,5.44.04,10.99.39,18.35,1.57-2.29,7.16-7.17,12.14-12.47,15.81-16.21,10.59-38.98,10.73-53.35-3.62h0Z"/><path class="cls-1" d="m101.51,167.61c4.59-20.76,20.23-34.63,41.72-35.05,1.23,22.37-19.81,40.47-41.72,35.05h0Z"/></g><path class="cls-4" d="m177.92,42.93c.66,4.56,1.01,9.21,1.01,13.96,0,53.71-43.54,97.25-97.25,97.25-33.59,0-63.2-17.03-80.68-42.93,6.77,47.1,47.27,83.29,96.24,83.29,53.71,0,97.25-43.54,97.25-97.25,0-20.12-6.11-38.81-16.57-54.32Z"/><path class="cls-5" d="m140.68,10.24C127.61,3.7,112.86,0,97.25,0,46.55,0,4.93,38.8.42,88.33,20.53,40.29,76.48,7.39,140.68,10.24Z"/></g></g></g></g></svg>