<?xml version="1.0" encoding="UTF-8"?><svg xmlns="http://www.w3.org/2000/svg" viewBox="0 0 150.26 150.26"><defs><style>.cls-1{fill:#6c33cd;}.cls-2{fill:#fff;}.cls-3{isolation:isolate;}.cls-4{fill:#bd97fb;}.cls-5{mix-blend-mode:soft-light;}.cls-6{fill:#8b66c7;}.cls-7{fill:#d9d9d9;}.cls-8{mix-blend-mode:multiply;}</style></defs><g class="cls-3"><g id="Capa_2"><g id="fondo"><g><g><path id="Trazado_1407" class="cls-4" d="m150.26,75.13c0,41.49-33.64,75.13-75.13,75.13S0,116.62,0,75.13,33.64,0,75.13,0s75.13,33.64,75.13,75.13"/><path id="Trazado_1408" class="cls-6" d="m145.93,75.13c0,39.11-31.7,70.81-70.81,70.81S4.32,114.23,4.32,75.13C4.32,36.02,36.02,4.32,75.13,4.32h0c39.11,0,70.81,31.7,70.81,70.81"/><path id="Trazado_1409" class="cls-1" d="m142.89,75.13c0,37.42-30.34,67.76-67.76,67.76S7.37,112.55,7.37,75.13C7.37,37.71,37.71,7.37,75.13,7.37h0c37.42,0,67.76,30.34,67.76,67.76"/><g id="Grupo_2510-2" class="cls-5"><path id="Trazado_1410" class="cls-4" d="m71.05,14.74c29.35-.67,56.42,15.78,69.33,42.16C130.32,20.86,92.96-.19,56.93,9.86c-11.65,3.25-22.22,9.57-30.61,18.29,13.24-8.83,28.82-13.5,44.73-13.41"/></g><g id="Grupo_2513" class="cls-8"><path id="Trazado_1411" class="cls-4" d="m69.2,135.53c-14.37.06-28.48-3.86-40.77-11.32,27.09,25.8,69.97,24.76,95.77-2.34,12-12.6,18.69-29.34,18.69-46.74,0-1.26-.04-2.5-.11-3.74-2.05,35.74-34.2,64.14-73.58,64.14"/></g><g id="Grupo_2516" class="cls-5"><path id="Trazado_1412" class="cls-7" d="m21.04,48.93c4.53-7.29,12.11-12.15,20.62-13.22,4.59-.77,11.47-.23,14.74-4.37,1.89-2.27,1.57-5.65-.7-7.53-.12-.1-.24-.19-.37-.28-2.93-1.46-6.31-1.74-9.44-.79-5.54,1.08-10.66,3.69-14.78,7.54-2.71,2.4-4.98,5.25-6.73,8.41-.88,1.61-1.6,3.29-2.17,5.04-.26,1.76-.65,3.49-1.17,5.19"/></g></g><path class="cls-2" d="m75.13,48.51c8.67,0,9.69.03,13.12.19,3.17.14,4.88.67,6.03,1.12,1.52.59,2.6,1.29,3.73,2.43,1.14,1.14,1.84,2.22,2.43,3.73.44,1.14.97,2.86,1.12,6.03.16,3.42.19,4.45.19,13.12s-.03,9.69-.19,13.12c-.14,3.17-.67,4.88-1.12,6.03-.59,1.52-1.29,2.6-2.43,3.73-1.14,1.14-2.22,1.84-3.73,2.43-1.14.44-2.86.97-6.03,1.12-3.42.16-4.45.19-13.12.19s-9.7-.03-13.12-.19c-3.17-.14-4.88-.67-6.03-1.12-1.52-.59-2.6-1.29-3.73-2.43-1.14-1.14-1.84-2.22-2.43-3.73-.44-1.14-.97-2.86-1.12-6.03-.16-3.42-.19-4.45-.19-13.12s.03-9.69.19-13.12c.14-3.17.67-4.88,1.12-6.03.59-1.52,1.29-2.6,2.43-3.73,1.14-1.14,2.22-1.84,3.73-2.43,1.14-.44,2.86-.97,6.03-1.12,3.42-.16,4.45-.19,13.12-.19m0-5.85c-8.82,0-9.92.04-13.38.2-3.46.16-5.82.71-7.88,1.51-2.13.83-3.95,1.94-5.75,3.74-1.8,1.8-2.91,3.62-3.74,5.75-.8,2.07-1.35,4.42-1.51,7.88-.16,3.46-.2,4.57-.2,13.38s.04,9.92.2,13.38c.16,3.46.71,5.82,1.51,7.88.83,2.13,1.94,3.95,3.74,5.75,1.8,1.8,3.62,2.91,5.75,3.74,2.07.8,4.42,1.35,7.88,1.51,3.46.16,4.57.2,13.38.2s9.92-.04,13.38-.2c3.46-.16,5.82-.71,7.88-1.51,2.13-.83,3.95-1.94,5.75-3.74,1.8-1.8,2.91-3.62,3.74-5.75.8-2.07,1.35-4.42,1.51-7.88.16-3.46.2-4.57.2-13.38s-.04-9.92-.2-13.38c-.16-3.46-.71-5.82-1.51-7.88-.83-2.13-1.94-3.95-3.74-5.75-1.8-1.8-3.62-2.91-5.75-3.74-2.07-.8-4.42-1.35-7.88-1.51-3.46-.16-4.57-.2-13.38-.2Zm0,15.79c-9.21,0-16.67,7.46-16.67,16.67s7.46,16.67,16.67,16.67,16.67-7.46,16.67-16.67-7.46-16.67-16.67-16.67Zm0,27.49c-5.98,0-10.82-4.84-10.82-10.82s4.84-10.82,10.82-10.82,10.82,4.84,10.82,10.82-4.84,10.82-10.82,10.82Zm21.22-28.15c0,2.15-1.74,3.9-3.9,3.9s-3.9-1.74-3.9-3.9,1.74-3.9,3.9-3.9,3.9,1.74,3.9,3.9Z"/></g></g></g></g></svg>