<?xml version="1.0" encoding="UTF-8"?><svg xmlns="http://www.w3.org/2000/svg" viewBox="0 0 118.95 118.95"><defs><style>.cls-1{isolation:isolate;}.cls-2,.cls-3{fill:#eee278;}.cls-2,.cls-4{mix-blend-mode:multiply;}.cls-5{fill:#bd97fb;}.cls-6{mix-blend-mode:soft-light;}.cls-7{fill:#f7ec41;}.cls-8{fill:#d9d9d9;}</style></defs><g class="cls-1"><g id="Capa_2"><g id="fondo"><g><path id="Trazado_1407" class="cls-3" d="m118.95,59.48c0,32.85-26.63,59.48-59.48,59.48S0,92.32,0,59.48,26.63,0,59.48,0s59.48,26.63,59.48,59.48"/><path id="Trazado_1408" class="cls-2" d="m115.53,59.48c0,30.96-25.1,56.05-56.05,56.05S3.42,90.43,3.42,59.48C3.42,28.52,28.52,3.42,59.48,3.42h0c30.96,0,56.05,25.1,56.05,56.05"/><path id="Trazado_1409" class="cls-7" d="m113.12,59.48c0,29.63-24.02,53.64-53.64,53.64S5.83,89.1,5.83,59.48C5.83,29.85,29.85,5.83,59.48,5.83h0c29.63,0,53.64,24.02,53.64,53.64"/><g id="Grupo_2510-2" class="cls-6"><path id="Trazado_1410" class="cls-5" d="m56.25,11.67c23.24-.53,44.67,12.49,54.88,33.37C103.17,16.51,73.59-.15,45.07,7.81c-9.23,2.58-17.59,7.57-24.23,14.48,10.48-6.99,22.81-10.69,35.41-10.62"/></g><g id="Grupo_2513" class="cls-4"><path id="Trazado_1411" class="cls-7" d="m54.78,107.29c-11.38.04-22.55-3.06-32.27-8.96,21.45,20.43,55.39,19.6,75.82-1.85,9.5-9.98,14.8-23.23,14.79-37,0-.99-.03-1.98-.09-2.96-1.62,28.29-27.08,50.77-58.25,50.77"/></g><g id="Grupo_2516" class="cls-6"><path id="Trazado_1412" class="cls-8" d="m16.66,38.74c3.59-5.77,9.58-9.62,16.32-10.47,3.63-.61,9.08-.18,11.67-3.46,1.49-1.8,1.25-4.47-.55-5.96-.09-.08-.19-.15-.29-.22-2.32-1.15-4.99-1.38-7.47-.62-4.38.85-8.44,2.92-11.7,5.97-2.14,1.9-3.95,4.15-5.33,6.66-.69,1.27-1.27,2.61-1.72,3.99-.21,1.39-.52,2.76-.93,4.11"/></g><path d="m59.48,38.26c6.91,0,7.73.03,10.46.15,2.52.12,3.89.54,4.81.89,1.21.47,2.07,1.03,2.98,1.94s1.47,1.77,1.94,2.98c.35.91.78,2.28.89,4.81.12,2.73.15,3.55.15,10.46s-.03,7.73-.15,10.46c-.12,2.52-.54,3.89-.89,4.81-.47,1.21-1.03,2.07-1.94,2.98-.91.91-1.77,1.47-2.98,1.94-.91.35-2.28.78-4.81.89-2.73.12-3.55.15-10.46.15s-7.73-.03-10.46-.15c-2.52-.12-3.89-.54-4.81-.89-1.21-.47-2.07-1.03-2.98-1.94-.91-.91-1.47-1.77-1.94-2.98-.35-.91-.78-2.28-.89-4.81-.12-2.73-.15-3.55-.15-10.46s.03-7.73.15-10.46c.12-2.52.54-3.89.89-4.81.47-1.21,1.03-2.07,1.94-2.98.91-.91,1.77-1.47,2.98-1.94.91-.35,2.28-.78,4.81-.89,2.73-.12,3.55-.15,10.46-.15m0-4.66c-7.03,0-7.91.03-10.67.16-2.75.13-4.64.56-6.28,1.2-1.7.66-3.14,1.55-4.58,2.98-1.44,1.44-2.32,2.88-2.98,4.58-.64,1.65-1.08,3.53-1.2,6.28-.13,2.76-.16,3.64-.16,10.67s.03,7.91.16,10.67c.13,2.75.56,4.64,1.2,6.28.66,1.7,1.55,3.14,2.98,4.58,1.44,1.44,2.88,2.32,4.58,2.98,1.65.64,3.53,1.08,6.28,1.2,2.76.13,3.64.16,10.67.16s7.91-.03,10.67-.16c2.75-.13,4.64-.56,6.28-1.2,1.7-.66,3.14-1.55,4.58-2.98,1.44-1.44,2.32-2.88,2.98-4.58.64-1.65,1.08-3.53,1.2-6.28.13-2.76.16-3.64.16-10.67s-.03-7.91-.16-10.67c-.13-2.75-.56-4.64-1.2-6.28-.66-1.7-1.55-3.14-2.98-4.58-1.44-1.44-2.88-2.32-4.58-2.98-1.65-.64-3.53-1.08-6.28-1.2-2.76-.13-3.64-.16-10.67-.16Zm0,12.59c-7.34,0-13.29,5.95-13.29,13.29s5.95,13.29,13.29,13.29,13.29-5.95,13.29-13.29-5.95-13.29-13.29-13.29Zm0,21.91c-4.76,0-8.63-3.86-8.63-8.63s3.86-8.63,8.63-8.63,8.63,3.86,8.63,8.63-3.86,8.63-8.63,8.63Zm16.92-22.44c0,1.72-1.39,3.11-3.11,3.11s-3.11-1.39-3.11-3.11,1.39-3.11,3.11-3.11,3.11,1.39,3.11,3.11Z"/></g></g></g></g></svg>