<?xml version="1.0" encoding="UTF-8"?><svg xmlns="http://www.w3.org/2000/svg" viewBox="0 0 150.26 150.26"><defs><style>.cls-1{fill:#6c33cd;}.cls-2{fill:#fff;}.cls-3{isolation:isolate;}.cls-4{fill:#bd97fb;}.cls-5{mix-blend-mode:soft-light;}.cls-6{fill:#8b66c7;}.cls-7{fill:#d9d9d9;}.cls-8{mix-blend-mode:multiply;}</style></defs><g class="cls-3"><g id="Capa_2"><g id="fondo"><g><g><path id="Trazado_1407" class="cls-4" d="m150.26,75.13c0,41.49-33.64,75.13-75.13,75.13S0,116.62,0,75.13,33.64,0,75.13,0s75.13,33.64,75.13,75.13"/><path id="Trazado_1408" class="cls-6" d="m145.93,75.13c0,39.11-31.7,70.81-70.81,70.81S4.32,114.23,4.32,75.13C4.32,36.02,36.02,4.32,75.13,4.32h0c39.11,0,70.81,31.7,70.81,70.81"/><path id="Trazado_1409" class="cls-1" d="m142.89,75.13c0,37.42-30.34,67.76-67.76,67.76S7.37,112.55,7.37,75.13C7.37,37.71,37.71,7.37,75.13,7.37h0c37.42,0,67.76,30.34,67.76,67.76"/><g id="Grupo_2510-2" class="cls-5"><path id="Trazado_1410" class="cls-4" d="m71.05,14.74c29.35-.67,56.42,15.78,69.33,42.16C130.32,20.86,92.96-.19,56.93,9.86c-11.65,3.25-22.22,9.57-30.61,18.29,13.24-8.83,28.82-13.5,44.73-13.41"/></g><g id="Grupo_2513" class="cls-8"><path id="Trazado_1411" class="cls-4" d="m69.2,135.53c-14.37.06-28.48-3.86-40.77-11.32,27.09,25.8,69.97,24.76,95.77-2.34,12-12.6,18.69-29.34,18.69-46.74,0-1.26-.04-2.5-.11-3.74-2.05,35.74-34.2,64.14-73.58,64.14"/></g><g id="Grupo_2516" class="cls-5"><path id="Trazado_1412" class="cls-7" d="m21.04,48.93c4.53-7.29,12.11-12.15,20.62-13.22,4.59-.77,11.47-.23,14.74-4.37,1.89-2.27,1.57-5.65-.7-7.53-.12-.1-.24-.19-.37-.28-2.93-1.46-6.31-1.74-9.44-.79-5.54,1.08-10.66,3.69-14.78,7.54-2.71,2.4-4.98,5.25-6.73,8.41-.88,1.61-1.6,3.29-2.17,5.04-.26,1.76-.65,3.49-1.17,5.19"/></g></g><path id="Trazado_1064" class="cls-2" d="m113.84,45.69l-6.18,5.92c-.53.41-.8,1.08-.69,1.74v43.55c-.11.66.15,1.33.69,1.74l6.04,5.93v1.3h-30.36v-1.3l6.25-6.07c.61-.61.61-.8.61-1.74v-35.19l-17.39,44.16h-2.35l-20.24-44.16v29.6c-.17,1.24.24,2.5,1.12,3.4l8.13,9.87v1.3h-23.06v-1.3l8.13-9.87c.87-.9,1.26-2.16,1.05-3.4v-34.22c.1-.95-.27-1.89-.98-2.53l-7.23-8.71v-1.3h22.45l17.34,38.05,15.25-38.05h21.4v1.3Z"/></g></g></g></g></svg>