<?xml version="1.0" encoding="UTF-8"?><svg xmlns="http://www.w3.org/2000/svg" viewBox="0 0 150.26 150.26"><defs><style>.cls-1{fill:#6c33cd;}.cls-2{fill:#fff;fill-rule:evenodd;}.cls-3{isolation:isolate;}.cls-4{fill:#bd97fb;}.cls-5{mix-blend-mode:soft-light;}.cls-6{fill:#8b66c7;}.cls-7{fill:#d9d9d9;}.cls-8{mix-blend-mode:multiply;}</style></defs><g class="cls-3"><g id="Capa_2"><g id="fondo"><g><g><path id="Trazado_1407" class="cls-4" d="m150.26,75.13c0,41.49-33.64,75.13-75.13,75.13S0,116.62,0,75.13,33.64,0,75.13,0s75.13,33.64,75.13,75.13"/><path id="Trazado_1408" class="cls-6" d="m145.93,75.13c0,39.11-31.7,70.81-70.81,70.81S4.32,114.23,4.32,75.13C4.32,36.02,36.02,4.32,75.13,4.32h0c39.11,0,70.81,31.7,70.81,70.81"/><path id="Trazado_1409" class="cls-1" d="m142.89,75.13c0,37.42-30.34,67.76-67.76,67.76S7.37,112.55,7.37,75.13C7.37,37.71,37.71,7.37,75.13,7.37h0c37.42,0,67.76,30.34,67.76,67.76"/><g id="Grupo_2510-2" class="cls-5"><path id="Trazado_1410" class="cls-4" d="m71.05,14.74c29.35-.67,56.42,15.78,69.33,42.16C130.32,20.86,92.96-.19,56.93,9.86c-11.65,3.25-22.22,9.57-30.61,18.29,13.24-8.83,28.82-13.5,44.73-13.41"/></g><g id="Grupo_2513" class="cls-8"><path id="Trazado_1411" class="cls-4" d="m69.2,135.53c-14.37.06-28.48-3.86-40.77-11.32,27.09,25.8,69.97,24.76,95.77-2.34,12-12.6,18.69-29.34,18.69-46.74,0-1.26-.04-2.5-.11-3.74-2.05,35.74-34.2,64.14-73.58,64.14"/></g><g id="Grupo_2516" class="cls-5"><path id="Trazado_1412" class="cls-7" d="m21.04,48.93c4.53-7.29,12.11-12.15,20.62-13.22,4.59-.77,11.47-.23,14.74-4.37,1.89-2.27,1.57-5.65-.7-7.53-.12-.1-.24-.19-.37-.28-2.93-1.46-6.31-1.74-9.44-.79-5.54,1.08-10.66,3.69-14.78,7.54-2.71,2.4-4.98,5.25-6.73,8.41-.88,1.61-1.6,3.29-2.17,5.04-.26,1.76-.65,3.49-1.17,5.19"/></g></g><path id="Path-3" class="cls-2" d="m39.48,70.91c19.91-8.64,33.19-14.37,39.82-17.18,18.94-7.91,22.93-9.27,25.49-9.33.95-.02,1.89.26,2.67.8.54.49.88,1.16.97,1.88.16.88.2,1.78.12,2.67-1.02,10.81-5.46,37.03-7.74,49.1-.97,5.12-2.84,6.83-4.66,7-3.98.34-7-2.62-10.81-5.12-6.03-3.92-9.39-6.37-15.25-10.24-6.78-4.44-2.39-6.88,1.48-10.86,1.02-1.02,18.49-16.95,18.83-18.37.09-.43-.04-.88-.34-1.2-.43-.27-.96-.31-1.42-.12-.63.12-10.18,6.49-28.79,19.06-2.12,1.66-4.7,2.62-7.4,2.73-2.45-.06-7.11-1.37-10.64-2.5-4.27-1.37-7.68-2.1-7.4-4.49.17-1.25,1.87-2.5,5.06-3.81Z"/></g></g></g></g></svg>