<?xml version="1.0" encoding="UTF-8"?><svg xmlns="http://www.w3.org/2000/svg" viewBox="0 0 118.95 118.95"><defs><style>.cls-1{isolation:isolate;}.cls-2,.cls-3{fill:#eee278;}.cls-2,.cls-4{mix-blend-mode:multiply;}.cls-5{fill:#bd97fb;}.cls-6{mix-blend-mode:soft-light;}.cls-7{fill:#f7ec41;}.cls-8{fill:#d9d9d9;}.cls-9{fill-rule:evenodd;}</style></defs><g class="cls-1"><g id="Capa_2"><g id="fondo"><g><path id="Trazado_1407" class="cls-3" d="m118.95,59.48c0,32.85-26.63,59.48-59.48,59.48S0,92.32,0,59.48,26.63,0,59.48,0s59.48,26.63,59.48,59.48"/><path id="Trazado_1408" class="cls-2" d="m115.53,59.48c0,30.96-25.1,56.05-56.05,56.05S3.42,90.43,3.42,59.48C3.42,28.52,28.52,3.42,59.48,3.42h0c30.96,0,56.05,25.1,56.05,56.05"/><path id="Trazado_1409" class="cls-7" d="m113.12,59.48c0,29.63-24.02,53.64-53.64,53.64S5.83,89.1,5.83,59.48C5.83,29.85,29.85,5.83,59.48,5.83h0c29.63,0,53.64,24.02,53.64,53.64"/><g id="Grupo_2510-2" class="cls-6"><path id="Trazado_1410" class="cls-5" d="m56.25,11.67c23.24-.53,44.67,12.49,54.88,33.37C103.17,16.51,73.59-.15,45.07,7.81c-9.23,2.58-17.59,7.57-24.23,14.48,10.48-6.99,22.81-10.69,35.41-10.62"/></g><g id="Grupo_2513" class="cls-4"><path id="Trazado_1411" class="cls-7" d="m54.78,107.29c-11.38.04-22.55-3.06-32.27-8.96,21.45,20.43,55.39,19.6,75.82-1.85,9.5-9.98,14.8-23.23,14.79-37,0-.99-.03-1.98-.09-2.96-1.62,28.29-27.08,50.77-58.25,50.77"/></g><g id="Grupo_2516" class="cls-6"><path id="Trazado_1412" class="cls-8" d="m16.66,38.74c3.59-5.77,9.58-9.62,16.32-10.47,3.63-.61,9.08-.18,11.67-3.46,1.49-1.8,1.25-4.47-.55-5.96-.09-.08-.19-.15-.29-.22-2.32-1.15-4.99-1.38-7.47-.62-4.38.85-8.44,2.92-11.7,5.97-2.14,1.9-3.95,4.15-5.33,6.66-.69,1.27-1.27,2.61-1.72,3.99-.21,1.39-.52,2.76-.93,4.11"/></g><path id="Path-3" class="cls-9" d="m31.06,56.11c15.87-6.89,26.45-11.46,31.74-13.7,15.1-6.3,18.28-7.39,20.32-7.44.76-.02,1.5.21,2.13.64.43.39.7.92.77,1.5.13.7.16,1.42.09,2.13-.82,8.62-4.35,29.52-6.17,39.14-.77,4.08-2.27,5.44-3.72,5.58-3.17.27-5.58-2.09-8.62-4.08-4.81-3.13-7.48-5.08-12.15-8.16-5.4-3.54-1.9-5.49,1.18-8.66.82-.82,14.74-13.51,15.01-14.65.07-.34-.03-.7-.27-.95-.34-.21-.76-.25-1.13-.09-.5.09-8.12,5.17-22.95,15.19-1.69,1.33-3.75,2.09-5.9,2.18-1.95-.05-5.67-1.09-8.48-2-3.4-1.09-6.12-1.68-5.9-3.58.13-1,1.49-2,4.03-3.04Z"/></g></g></g></g></svg>