<?xml version="1.0" encoding="UTF-8"?><svg xmlns="http://www.w3.org/2000/svg" viewBox="0 0 118.95 118.95"><defs><style>.cls-1{isolation:isolate;}.cls-2,.cls-3{fill:#eee278;}.cls-2,.cls-4{mix-blend-mode:multiply;}.cls-5{fill:#bd97fb;}.cls-6{mix-blend-mode:soft-light;}.cls-7{fill:#f7ec41;}.cls-8{fill:#d9d9d9;}</style></defs><g class="cls-1"><g id="Capa_2"><g id="fondo"><g><path id="Trazado_1407" class="cls-3" d="m118.95,59.48c0,32.85-26.63,59.48-59.48,59.48S0,92.32,0,59.48,26.63,0,59.48,0s59.48,26.63,59.48,59.48"/><path id="Trazado_1408" class="cls-2" d="m115.53,59.48c0,30.96-25.1,56.05-56.05,56.05S3.42,90.43,3.42,59.48C3.42,28.52,28.52,3.42,59.48,3.42h0c30.96,0,56.05,25.1,56.05,56.05"/><path id="Trazado_1409" class="cls-7" d="m113.12,59.48c0,29.63-24.02,53.64-53.64,53.64S5.83,89.1,5.83,59.48C5.83,29.85,29.85,5.83,59.48,5.83h0c29.63,0,53.64,24.02,53.64,53.64"/><g id="Grupo_2510-2" class="cls-6"><path id="Trazado_1410" class="cls-5" d="m56.25,11.67c23.24-.53,44.67,12.49,54.88,33.37C103.17,16.51,73.59-.15,45.07,7.81c-9.23,2.58-17.59,7.57-24.23,14.48,10.48-6.99,22.81-10.69,35.41-10.62"/></g><g id="Grupo_2513" class="cls-4"><path id="Trazado_1411" class="cls-7" d="m54.78,107.29c-11.38.04-22.55-3.06-32.27-8.96,21.45,20.43,55.39,19.6,75.82-1.85,9.5-9.98,14.8-23.23,14.79-37,0-.99-.03-1.98-.09-2.96-1.62,28.29-27.08,50.77-58.25,50.77"/></g><g id="Grupo_2516" class="cls-6"><path id="Trazado_1412" class="cls-8" d="m16.66,38.74c3.59-5.77,9.58-9.62,16.32-10.47,3.63-.61,9.08-.18,11.67-3.46,1.49-1.8,1.25-4.47-.55-5.96-.09-.08-.19-.15-.29-.22-2.32-1.15-4.99-1.38-7.47-.62-4.38.85-8.44,2.92-11.7,5.97-2.14,1.9-3.95,4.15-5.33,6.66-.69,1.27-1.27,2.61-1.72,3.99-.21,1.39-.52,2.76-.93,4.11"/></g><path id="Trazado_1065" d="m89.62,40.78c-2.26,1-4.65,1.66-7.1,1.95,2.58-1.54,4.52-3.98,5.44-6.84-2.43,1.44-5.08,2.46-7.85,3-4.68-4.99-12.51-5.24-17.5-.56-3.22,3.02-4.59,7.54-3.59,11.84-9.95-.5-19.21-5.19-25.49-12.92-3.28,5.65-1.61,12.88,3.82,16.51-1.96-.06-3.88-.59-5.6-1.55-.07,5.95,4.09,11.11,9.92,12.29-1.82.49-3.73.57-5.59.21,1.62,5.04,6.26,8.49,11.56,8.59-5.18,4.07-11.77,5.91-18.31,5.12,5.66,3.63,12.24,5.56,18.96,5.56,22.97,0,35.94-19.4,35.16-36.79,2.42-1.75,4.51-3.92,6.17-6.4Z"/></g></g></g></g></svg>