<?xml version="1.0" encoding="UTF-8"?><svg xmlns="http://www.w3.org/2000/svg" viewBox="0 0 150.26 150.26"><defs><style>.cls-1{fill:#6c33cd;}.cls-2{fill:#fff;}.cls-3{isolation:isolate;}.cls-4{fill:#bd97fb;}.cls-5{mix-blend-mode:soft-light;}.cls-6{fill:#8b66c7;}.cls-7{fill:#d9d9d9;}.cls-8{mix-blend-mode:multiply;}</style></defs><g class="cls-3"><g id="Capa_2"><g id="fondo"><g><g><path id="Trazado_1407" class="cls-4" d="m150.26,75.13c0,41.49-33.64,75.13-75.13,75.13S0,116.62,0,75.13,33.64,0,75.13,0s75.13,33.64,75.13,75.13"/><path id="Trazado_1408" class="cls-6" d="m145.93,75.13c0,39.11-31.7,70.81-70.81,70.81S4.32,114.23,4.32,75.13C4.32,36.02,36.02,4.32,75.13,4.32h0c39.11,0,70.81,31.7,70.81,70.81"/><path id="Trazado_1409" class="cls-1" d="m142.89,75.13c0,37.42-30.34,67.76-67.76,67.76S7.37,112.55,7.37,75.13C7.37,37.71,37.71,7.37,75.13,7.37h0c37.42,0,67.76,30.34,67.76,67.76"/><g id="Grupo_2510-2" class="cls-5"><path id="Trazado_1410" class="cls-4" d="m71.05,14.74c29.35-.67,56.42,15.78,69.33,42.16C130.32,20.86,92.96-.19,56.93,9.86c-11.65,3.25-22.22,9.57-30.61,18.29,13.24-8.83,28.82-13.5,44.73-13.41"/></g><g id="Grupo_2513" class="cls-8"><path id="Trazado_1411" class="cls-4" d="m69.2,135.53c-14.37.06-28.48-3.86-40.77-11.32,27.09,25.8,69.97,24.76,95.77-2.34,12-12.6,18.69-29.34,18.69-46.74,0-1.26-.04-2.5-.11-3.74-2.05,35.74-34.2,64.14-73.58,64.14"/></g><g id="Grupo_2516" class="cls-5"><path id="Trazado_1412" class="cls-7" d="m21.04,48.93c4.53-7.29,12.11-12.15,20.62-13.22,4.59-.77,11.47-.23,14.74-4.37,1.89-2.27,1.57-5.65-.7-7.53-.12-.1-.24-.19-.37-.28-2.93-1.46-6.31-1.74-9.44-.79-5.54,1.08-10.66,3.69-14.78,7.54-2.71,2.4-4.98,5.25-6.73,8.41-.88,1.61-1.6,3.29-2.17,5.04-.26,1.76-.65,3.49-1.17,5.19"/></g></g><path id="Trazado_1065" class="cls-2" d="m112.94,51.67c-2.83,1.26-5.84,2.08-8.91,2.44,3.24-1.94,5.67-4.99,6.82-8.58-3.04,1.81-6.38,3.08-9.85,3.77-5.87-6.25-15.69-6.57-21.95-.7-4.04,3.79-5.76,9.45-4.5,14.85-12.48-.62-24.1-6.52-31.98-16.21-4.12,7.09-2.02,16.16,4.8,20.72-2.46-.08-4.87-.75-7.02-1.94-.09,7.46,5.13,13.93,12.45,15.41-2.29.62-4.68.71-7.01.26,2.03,6.32,7.86,10.65,14.5,10.78-6.5,5.1-14.77,7.41-22.97,6.43,7.1,4.56,15.35,6.98,23.79,6.97,28.81,0,45.09-24.33,44.1-46.16,3.04-2.2,5.66-4.92,7.74-8.03Z"/></g></g></g></g></svg>