<svg version="1.2" xmlns="http://www.w3.org/2000/svg" viewBox="0 0 500 601" width="500" height="601"><defs><clipPath clipPathUnits="userSpaceOnUse" id="cp1"><path d="m0 0h500v601h-500z"/></clipPath><linearGradient id="P" gradientUnits="userSpaceOnUse"/><linearGradient id="g1" x1="249.1" y1="615.6" x2="250.4" y2="384" href="#P"><stop stop-color="#fff"/><stop offset=".3" stop-color="#fcfcfc"/><stop offset=".5" stop-color="#f3f3f3"/><stop offset=".7" stop-color="#e5e5e5"/><stop offset=".8" stop-color="#d0d0d0"/><stop offset="1" stop-color="#b6b6b6"/><stop offset="1" stop-color="#b0b0b0"/></linearGradient></defs><style>.a{fill:#d1dee4}.b{fill:#cceaf0}.c{mix-blend-mode:multiply;fill:url(#g1)}.d{mix-blend-mode:multiply;fill:#e4e4e4}.e{fill:#fbd58f}.f{mix-blend-mode:multiply;fill:#f1f1f1}.g{fill:#cacaca}.h{fill:#a6a6a6}.i{fill:#e8f8fe}.j{opacity:.2;mix-blend-mode:multiply}.k{fill:#3e3e3d}.l{mix-blend-mode:multiply;fill:#9b9b9a}.m{fill:#f9eb37}.n{fill:#222221}.o{fill:#fff}.p{fill:#e5bda1}.q{fill:#dcadde}.r{mix-blend-mode:multiply;fill:#dcadde}.s{fill:#cc7b88}.t{mix-blend-mode:multiply;fill:#895763}.u{fill:#f1dff5}.v{fill:none;stroke:#fff;stroke-width:3}.w{fill:#fff061}.x{fill:#b53a81}.y{fill:#f0cade}.z{mix-blend-mode:multiply;fill:#d8d8d8}</style><g clip-path="url(#cp1)"><path class="a" d="m0 0h500v378h-500z"/><path class="b" d="m-0.3 382h500.3v222.4h-500.3z"/><path class="c" d="m-0.3 382h500.3v222.4h-500.3z"/><path class="d" d="m540 606h-600l169.8-203.1 262.2-0.9 168 204z"/><path class="e" d="m537.4 606h-594.8l168.7-203.8 259.5-0.2 166.6 204z"/><path class="f" d="m398 435.3l-341.4 33.2 54.7-66.3 259.5-0.2 27.2 33.2z"/><path class="g" d="m0 378.1h500v24.1h-500z"/><path class="h" d="m0 399.8h500v2.4h-500z"/><path class="i" d="m0 375.5h500v2.4h-500z"/><path class="j" d="m337.5 477c-46.7 0-84.5-6.5-84.5-14.5 0-8 37.8-14.5 84.5-14.5 46.7 0 84.5 6.5 84.5 14.5 0 8-37.8 14.5-84.5 14.5z"/><path class="j" d="m152 477c-37.6 0-68-6.5-68-14.5 0-8 30.4-14.5 68-14.5 37.6 0 68 6.5 68 14.5 0 8-30.4 14.5-68 14.5z"/><path class="k" d="m417.2 442.2c0 0-0.1 0-0.1 0.1 2.7 2.5 3.6 8.3 3.4 11.8-0.3 3.5-1.8 6.9-3.7 9.8-3.2 4.8-7.7 8.8-13.1 10.5-5.5 1.7-11.9 0.6-15.9-3.4-4.1-4-5-11.1-1.4-15.5 1.9-2.4 4.7-3.8 7.3-5.5 2.6-1.7 5.1-3.9 5.7-7 0.7-4.1-2.7-7.5-6.1-9.3-3.4-1.8-6.9-2.3-1.5-4.7 4.6-2.2 9.7-0.3 13.8 2.1 4.1 2.3 8.8 3.9 12.1 7.4q-2.3 0-4.7 0c2.2 0.6 4.2 1.7 5.8 3.2-0.6-0.2-1.2 0-1.6 0.5z"/><path class="l" d="m391.8 429q0.4-0.2 0.9-0.4 0.3 0.2 0.6 0.3c3.4 1.8 6.8 5.2 6.1 9.4q-0.2 0.6-0.4 1.2c-0.9-2.5-3.3-4.6-5.7-5.8-3.3-1.8-6.9-2.3-1.6-4.7z"/><path class="l" d="m420.3 450.5q0.3 1.8 0.2 3.6c-0.3 3.5-1.8 6.9-3.8 9.8-3.1 4.8-7.6 8.8-13 10.5-5.5 1.7-11.9 0.6-15.9-3.4-2.9-2.9-4.2-7.3-3.4-11.2 0.4 2.4 1.6 4.7 3.4 6.5 4 4 10.4 5 15.9 3.3 5.4-1.6 9.9-5.7 13-10.4 1.8-2.7 3.2-5.6 3.6-8.7z"/><path class="k" d="m410.8 391.3q0.1 2.4-0.2 4.9-0.4-0.5-0.4-1.2 0.1 3.5-0.1 6.9-0.5-0.9-1.1-1.8c0.5 0.7 0.3 1.7 0.1 2.7-0.2 0.7-0.4 1.5-0.5 2q0 0.1 0 0.2-0.1 0.5-0.2 1-0.1 0.4-0.1 0.8-0.2 1.1-0.5 2.2-0.2 1-0.4 2-0.1 0.4-0.2 0.9-0.1 0.2-0.2 0.5 0 0.1 0 0.2-0.1 0.2-0.1 0.3-0.1 0.4-0.2 0.8-0.1 0.3-0.1 0.4-0.1 0.3-0.2 0.5-0.1 0.4-0.2 0.8-0.1 0.4-0.2 0.8-0.2 0.4-0.3 0.8-0.1 0.3-0.1 0.5l-0.2 0.4q-0.1 0.4-0.2 0.8-0.2 0.4-0.3 0.8-0.3 0.8-0.6 1.6-0.1 0.1-0.1 0.2 0 0 0 0c0 0 0 0.1-0.1 0.1q0.1 0.1 0 0.1 0 0.2-0.1 0.3 0 0.1-0.1 0.2-0.1 0.3-0.2 0.6-0.2 0.3-0.3 0.6-0.1 0.4-0.3 0.7-0.3 0.8-0.7 1.6-0.3 0.7-0.7 1.5-0.1 0.3-0.3 0.7-0.2 0.4-0.4 0.7 0 0.1 0 0.1 0 0.1 0 0.1-0.1 0-0.1 0 0 0.1 0 0.1 0 0.1-0.1 0.1-0.1 0.2-0.2 0.4-0.3 0.7-0.7 1.4-0.1 0.1-0.1 0.2-0.4 0.6-0.7 1.2-0.1 0.2-0.3 0.4-0.1 0.3-0.3 0.6-0.2 0.3-0.4 0.6-0.2 0.3-0.4 0.6 0 0.1-0.1 0.2 0 0.1-0.1 0.1 0 0.1 0 0.1-0.1 0.1-0.1 0.2-0.5 0.8-1 1.5-0.6 0.8-1.1 1.6-0.3 0.3-0.5 0.7-0.1 0.1-0.2 0.1-0.1 0.2-0.3 0.5 0 0.1-0.1 0.1-0.3 0.4-0.6 0.8 0 0-0.1 0.1 0 0 0 0 0 0.1 0 0.1-0.2 0.3-0.4 0.5-0.3 0.4-0.6 0.7-0.3 0.4-0.6 0.7 0 0 0 0-0.3 0.4-0.6 0.7-0.8 1-1.7 1.9 0 0.1-0.1 0.2-0.3 0.3-0.5 0.5-0.1 0.1-0.2 0.1-0.3 0.4-0.6 0.7-0.3 0.3-0.6 0.7-0.4 0.3-0.7 0.6 0 0 0 0.1-1 0.9-2 1.8-0.4 0.3-0.8 0.7-0.3 0.2-0.5 0.5-0.4 0.3-0.7 0.5-0.4 0.3-0.7 0.6-0.4 0.3-0.7 0.6l-0.8 0.6q-0.3 0.2-0.7 0.5-0.3 0.2-0.5 0.4-0.3 0.2-0.6 0.4-0.3 0.2-0.5 0.4-0.3 0.2-0.6 0.4-0.4 0.3-0.8 0.5-0.3 0.3-0.7 0.6-0.4 0.2-0.8 0.5-1 0.6-1.9 1.2-1 0.6-2 1.1-0.4 0.2-0.8 0.5-0.4 0.2-0.8 0.4-0.4 0.2-0.8 0.4-0.4 0.2-0.8 0.4-0.5 0.2-0.9 0.4-0.4 0.3-0.8 0.4-1.3 0.6-2.5 1.2-0.9 0.3-1.7 0.7-0.5 0.1-0.9 0.3-0.4 0.2-0.9 0.3 0 0 0 0-0.3 0.2-0.6 0.3-1 0.3-2 0.7-0.9 0.3-1.8 0.5-0.4 0.1-0.7 0.2-0.5 0.2-1 0.3-0.5 0.2-1 0.3-0.2 0-0.3 0.1-0.2 0-0.4 0.1-0.1 0-0.2 0-0.5 0.1-1 0.3-0.4 0.1-0.9 0.2-0.2 0-0.4 0.1-0.3 0-0.5 0.1-0.5 0.1-1 0.2 0 0-0.1 0-0.1 0-0.1 0-0.3 0.1-0.7 0.2 0 0 0 0-0.2 0-0.3 0-0.2 0.1-0.4 0.1-0.1 0-0.2 0-0.5 0.1-0.9 0.2-0.1 0-0.2 0-0.1 0-0.2 0-0.2 0.1-0.5 0.1-0.4 0.1-0.7 0.1-0.5 0.1-0.9 0.1-0.4 0.1-0.9 0.2-0.4 0-0.8 0.1-0.3 0-0.6 0-0.3 0.1-0.6 0.1 0 0-0.1 0-0.1 0-0.3 0 0 0 0 0-0.2 0-0.3 0-0.3 0.1-0.6 0.1-0.2 0-0.4 0-0.8 0.1-1.6 0.1-0.4 0.1-0.8 0.1-0.3 0-0.5 0-0.1 0-0.2 0-0.2 0-0.5 0-0.1 0-0.3 0 0 0-0.1 0-0.7 0.1-1.5 0.1-0.6 0-1.1 0-0.6 0-1.2 0-0.4 0-0.8 0-0.2 0-0.4 0-0.1 0-0.2 0 0 0-0.1 0h-0.1q-0.2 0-0.4-0.1-0.2 0-0.3 0-0.3 0-0.7 0-0.2 0-0.3 0-0.2 0-0.3 0-0.2 0-0.4-0.1-0.3 0-0.6 0-0.3 0-0.6 0-0.1 0-0.2-0.1-0.6 0-1.1 0-0.3-0.1-0.6-0.1 0 0-0.1 0-0.2 0-0.4 0-0.2 0-0.3-0.1 0 0-0.1 0 0 0 0 0-0.1 0-0.2 0-0.1 0-0.2 0-0.1 0-0.3 0-0.2-0.1-0.4-0.1-0.1 0-0.3 0-0.4-0.1-0.9-0.1-0.2-0.1-0.5-0.1-0.2 0-0.4-0.1 0 0-0.1 0-0.3 0-0.7-0.1-0.5-0.1-1.1-0.2-0.2 0-0.5-0.1-0.3 0-0.6-0.1-0.5-0.1-1.1-0.2-0.4-0.1-0.7-0.1-0.4-0.1-0.8-0.2-0.3-0.1-0.6-0.1-0.6-0.2-1.2-0.3-0.1 0-0.1-0.1-0.3 0-0.5-0.1-0.1 0-0.2 0-0.1 0-0.1 0-0.2-0.1-0.4-0.1-0.5-0.2-0.9-0.3-0.5-0.1-0.9-0.3-0.5-0.1-0.9-0.2-1-0.3-1.8-0.6-0.5-0.1-0.9-0.3-0.9-0.3-1.8-0.6-1.7-0.6-3.4-1.4-0.5-0.1-0.9-0.3 0 0-0.1-0.1-1.2-0.5-2.4-1.1-1.2-0.6-2.5-1.2 0-0.1 0-0.1-0.4-0.2-0.8-0.4-0.4-0.2-0.8-0.4-0.7-0.4-1.4-0.8-0.2-0.1-0.3-0.2-0.2-0.1-0.3-0.2-0.4-0.2-0.7-0.4-0.5-0.3-0.9-0.6-0.3-0.2-0.6-0.4-0.3-0.2-0.6-0.4-0.3-0.2-0.6-0.4-1.7-1.1-3.2-2.3-0.7-0.5-1.3-1-0.3-0.3-0.6-0.5-0.4-0.3-0.7-0.6-0.2-0.2-0.4-0.3-0.2-0.2-0.5-0.4 0-0.1-0.1-0.2-0.3-0.2-0.5-0.4-0.1-0.1-0.2-0.2-0.1-0.1-0.3-0.2-0.1-0.1-0.2-0.2-0.2-0.2-0.4-0.4-0.1 0-0.1-0.1-0.2-0.1-0.3-0.3-0.1 0-0.2-0.1-0.3-0.3-0.5-0.5-0.2-0.2-0.3-0.3-0.1-0.1-0.1-0.1-0.3-0.3-0.6-0.6-0.3-0.3-0.6-0.6-0.3-0.3-0.6-0.6-0.1-0.1-0.1-0.2-1.6-1.6-3-3.3-0.3-0.4-0.6-0.8-0.6-0.7-1.2-1.4-0.3-0.4-0.5-0.7-0.1-0.1-0.1-0.2-0.1 0-0.1-0.1-0.1-0.1-0.2-0.2-0.2-0.4-0.5-0.7 0 0 0-0.1-0.2-0.2-0.4-0.5-0.2-0.2-0.4-0.5-0.2-0.3-0.4-0.6-0.1-0.1-0.2-0.3-0.1-0.2-0.2-0.3-0.5-0.7-1-1.5-0.1-0.2-0.2-0.4-0.2-0.3-0.4-0.5-0.1-0.3-0.3-0.6l-0.2-0.4q-0.4-0.6-0.7-1.2-0.3-0.4-0.5-0.8 0-0.1-0.1-0.2-0.2-0.4-0.4-0.8-0.1-0.1-0.1-0.2-0.3-0.5-0.5-1-0.2-0.3-0.4-0.6 0-0.1 0-0.2-0.2-0.2-0.3-0.5-0.2-0.4-0.3-0.7 0 0 0-0.1-0.1-0.1-0.1-0.2-0.1 0-0.1-0.1-0.1-0.1-0.1-0.2 0 0 0-0.1-0.2-0.3-0.4-0.7-0.2-0.5-0.3-0.9-0.2-0.4-0.4-0.9-0.2-0.4-0.4-0.9-0.1-0.4-0.3-0.9-0.2-0.4-0.4-0.9-0.1-0.4-0.3-0.8 0-0.1 0-0.1-0.1-0.3-0.2-0.5-0.1-0.3-0.2-0.6-0.3-0.8-0.5-1.7-0.1 0-0.1-0.2-0.2-0.6-0.4-1.2-0.1-0.6-0.3-1.1 0-0.1 0-0.3-0.2-0.5-0.3-1.1-0.2-0.6-0.3-1.2 0 0-0.1-0.1 0-0.1 0-0.3-0.3-1.2-0.6-2.4 0 0 0-0.1 0-0.2-0.1-0.5 0-0.2-0.1-0.5-0.1-0.5-0.2-1 0-0.1 0-0.2-0.1-0.2-0.1-0.5-0.1-0.4-0.1-0.8-0.1-0.2-0.1-0.3 0-0.1 0-0.2-0.1-0.5-0.1-1 0 0 0-0.1-0.1-0.5-0.2-1 0-0.3 0-0.5-0.1-0.5-0.2-1.1 0 0 0-0.1 0-0.1 0-0.2 0-0.1 0-0.2-0.1-0.4-0.1-0.7 0-0.1 0-0.1c-0.1-1.5-0.1-3-0.1-4.4-0.2-1.9-0.8-3.6-0.6-5.5q-0.4 0.7-0.9 1.5 0.3-3 0.5-6c0 0.4-0.2 0.6-0.5 0.8q0.3-2.2 0.9-4.3-0.5 0.5-0.9 0.9c0.7-2.8 2.1-5.5 2.6-8.3q0.1-0.5 0.2-1.1 0.1-0.5 0.1-1 0.1-0.1 0.1-0.2 0 0 0 0 0.1-0.6 0.2-1.2 0.1-0.6 0.2-1.1 0.1-0.5 0.2-1 0-0.1 0-0.2 0.2-0.7 0.3-1.4 0.1-0.6 0.2-1.1 0.1-0.2 0.2-0.5 0-0.1 0-0.2 0.3-1.2 0.6-2.4 0-0.3 0.1-0.6 0.3-1.1 0.6-2.2 0-0.1 0.1-0.3 0.1-0.3 0.2-0.8c0 0 0 0 0 0q0.1-0.1 0.1 0 0.1 0 0.1 0 0 0 0.1 0 0 0 0 0 0.1 0.1 0.1 0.2c0.3 0.4 0.6 0.9 1 1.2q0.1 0.1 0.2 0.2 0.1 0.1 0.2 0.1c1.1 0.8 2.4 1.5 3.6 2.2q3.8 2.4 7.8 4.6c5.4 2.9 11 5.4 16.8 7.5 11.5 4.2 23.5 6.7 35.7 7.4 14 0.8 28.3 0.8 42.1-2.3 4.4-1 8.8-2.4 13.1-3.9 8.1-2.8 17.5-6.8 23.5-13.3q0.1-0.1 0.2-0.3 0.4-0.3 0.7-0.7 0 0.1 0.1 0.2 0 0.1 0 0.2 0 0.1 0.1 0.2 0 0.1 0 0.2 0.3 1.3 0.6 2.6 0.2 0.5 0.3 1 0.3 1.7 0.7 3.4 0.1 0.6 0.2 1.1 0.1 0.6 0.2 1.1 0.1 0.4 0.1 0.8 0.2 0.9 0.3 1.7 0.1 0.5 0.2 1.1 0 0.5 0.1 1.1 0.1 0.5 0.1 0.9 0.1 0.5 0.2 1 0 0.5 0.1 1 0 0 0 0.1 0 0.2 0 0.4 0.1 0.3 0.1 0.6 0 0 0 0.1 0 0.2 0.1 0.5c0.3 3.1 1.5 5.8 2.1 8.8q-0.4-0.8-0.8-1.7 0.3 1.4 0.3 2.9z"/><path class="l" d="m409.6 392.8q0 0.3 0 0.7 0 0 0 0 0 0 0 0 0 0 0 0.1 0 0.5 0 1-0.1 0.8-0.1 1.6-0.1 0.8-0.1 1.5-0.1 1.1-0.2 2.1 0 0.2 0 0.3 0 0.4-0.1 0.8 0 0.1 0 0.1-0.1 0.4-0.1 0.8 0 0 0 0 0 0.1 0 0.1 0 0 0 0.1 0 0.1 0 0.3-0.1 0.8-0.3 1.6 0 0 0 0 0 0.1 0 0.3 0 0.3-0.1 0.6 0 0.1 0 0.2-0.1 0.5-0.2 1-0.1 0.4-0.1 0.7-0.2 1.2-0.4 2.3-0.2 1-0.5 1.9-0.1 0.5-0.2 1-0.1 0.2-0.1 0.4 0 0.2-0.1 0.3 0 0.1 0 0.3-0.2 0.4-0.3 0.8 0 0.2-0.1 0.4 0 0.2-0.1 0.5-0.1 0.4-0.2 0.8-0.2 0.4-0.3 0.8-0.1 0.4-0.3 0.8 0 0.2-0.1 0.4 0 0.2-0.1 0.4-0.1 0.5-0.3 0.9-0.1 0.4-0.3 0.8-0.2 0.8-0.6 1.6 0 0.1 0 0.2 0 0 0 0 0 0 0 0-0.1 0.1-0.1 0.1 0 0 0 0.1-0.1 0.1-0.1 0.3-0.1 0.1-0.1 0.2-0.1 0.3-0.3 0.6-0.1 0.3-0.2 0.6-0.2 0.4-0.3 0.7-0.3 0.8-0.7 1.6-0.3 0.7-0.7 1.4-0.2 0.4-0.3 0.8-0.2 0.4-0.4 0.7 0 0.1-0.1 0.1 0 0 0 0.1 0 0 0 0 0 0 0 0.1-0.1 0-0.1 0.1-0.1 0.2-0.2 0.3-0.4 0.8-0.8 1.5 0 0.1-0.1 0.2-0.3 0.6-0.7 1.2-0.1 0.2-0.2 0.4-0.2 0.3-0.4 0.6-0.1 0.3-0.3 0.6-0.2 0.3-0.4 0.6-0.1 0.1-0.1 0.2-0.1 0-0.1 0.1 0 0.1-0.1 0.1 0 0.1-0.1 0.2-0.5 0.7-1 1.5-0.5 0.8-1 1.5-0.3 0.4-0.6 0.8 0 0.1-0.1 0.1-0.1 0.2-0.3 0.4-0.1 0.1-0.1 0.2-0.3 0.4-0.6 0.7 0 0.1-0.1 0.2 0 0 0 0 0 0-0.1 0.1-0.2 0.2-0.4 0.5-0.3 0.3-0.5 0.7-0.3 0.3-0.6 0.7 0 0 0 0-0.3 0.4-0.6 0.7-0.8 0.9-1.7 1.9-0.1 0.1-0.2 0.1-0.2 0.3-0.5 0.6 0 0.1-0.1 0.1-0.3 0.3-0.6 0.7-0.3 0.3-0.7 0.6-0.3 0.3-0.6 0.7 0 0-0.1 0-0.9 0.9-1.9 1.8-0.4 0.4-0.8 0.8-0.3 0.2-0.6 0.4-0.3 0.3-0.7 0.6-0.3 0.3-0.7 0.6-0.3 0.3-0.7 0.6-0.3 0.3-0.7 0.5-0.4 0.3-0.7 0.6-0.3 0.2-0.6 0.4-0.3 0.2-0.5 0.4-0.3 0.2-0.6 0.4-0.3 0.2-0.6 0.4-0.3 0.2-0.7 0.5-0.4 0.3-0.8 0.5-0.3 0.3-0.7 0.5-2 1.3-4 2.4-0.4 0.2-0.8 0.4-0.4 0.2-0.8 0.4-0.4 0.3-0.8 0.5-0.4 0.2-0.8 0.4-0.4 0.2-0.8 0.4-0.5 0.2-0.9 0.4-1.2 0.6-2.5 1.1-0.9 0.4-1.7 0.7-0.5 0.2-0.9 0.4-0.4 0.1-0.8 0.3-0.1 0-0.1 0-0.3 0.1-0.6 0.2-1 0.4-2 0.7-0.9 0.3-1.8 0.6-0.3 0.1-0.7 0.2-0.5 0.1-1 0.3-0.5 0.1-1 0.2-0.1 0.1-0.3 0.1-0.2 0.1-0.4 0.1-0.1 0-0.2 0.1-0.5 0.1-0.9 0.2-0.5 0.1-1 0.2-0.2 0-0.4 0.1-0.3 0.1-0.5 0.1-0.5 0.1-0.9 0.2-0.1 0-0.2 0 0 0-0.1 0-0.3 0.1-0.7 0.2 0 0 0 0-0.1 0-0.3 0-0.2 0.1-0.4 0.1-0.1 0-0.2 0-0.4 0.1-0.9 0.2-0.1 0-0.1 0-0.1 0-0.2 0-0.3 0.1-0.6 0.1-0.4 0.1-0.7 0.1-0.4 0.1-0.9 0.1-0.4 0.1-0.8 0.2-0.5 0-0.9 0.1-0.3 0-0.6 0-0.2 0-0.5 0.1-0.1 0-0.2 0-0.1 0-0.2 0-0.1 0-0.1 0-0.1 0-0.3 0-0.3 0.1-0.6 0.1-0.2 0-0.4 0-0.8 0.1-1.5 0.1-0.4 0.1-0.8 0.1-0.3 0-0.6 0-0.1 0-0.2 0-0.2 0-0.4 0-0.2 0-0.4 0 0 0 0 0-0.8 0.1-1.5 0.1-0.6 0-1.2 0-0.6 0-1.1 0-0.5 0-0.9-0.1-0.2 0-0.3 0-0.1 0-0.2 0-0.1 0-0.2 0 0 0-0.1 0-0.2 0.1-0.4 0-0.1 0-0.3 0-0.3 0-0.7 0-0.1 0-0.3 0-0.1 0-0.3 0-0.2 0-0.3-0.1-0.3 0-0.6 0-0.3 0-0.6 0-0.2 0-0.3-0.1-0.5 0-1-0.1-0.3 0-0.6 0-0.1 0-0.1 0-0.3 0-0.5-0.1-0.1 0-0.2 0-0.1 0-0.1 0-0.1 0-0.1 0 0 0-0.1 0-0.1 0-0.2 0-0.2 0-0.3-0.1-0.2 0-0.4 0-0.2 0-0.4-0.1-0.4 0-0.8-0.1-0.3 0-0.5 0-0.2-0.1-0.4-0.1-0.1 0-0.2 0-0.3-0.1-0.6-0.1-0.6-0.1-1.1-0.2-0.3 0-0.5-0.1-0.3 0-0.6-0.1-0.6-0.1-1.2-0.2-0.3-0.1-0.7-0.2-0.4 0-0.7-0.1-0.3-0.1-0.6-0.2-0.7-0.1-1.3-0.2 0 0-0.1-0.1-0.2 0-0.5-0.1-0.1 0-0.2-0.1-0.2 0-0.4-0.1-0.5-0.1-1-0.2-0.5-0.1-0.9-0.3-0.4-0.1-0.9-0.2-0.9-0.3-1.8-0.6-0.4-0.1-0.9-0.3-0.9-0.3-1.7-0.6-1.8-0.7-3.5-1.4-0.4-0.2-0.8-0.4-0.1 0-0.1 0-1.2-0.5-2.4-1.1-1.3-0.6-2.5-1.3 0 0-0.1 0-0.4-0.2-0.8-0.4-0.3-0.2-0.7-0.5-0.7-0.4-1.4-0.8-0.2-0.1-0.4-0.2-0.1-0.1-0.3-0.2-0.3-0.2-0.7-0.4-0.4-0.3-0.8-0.5-0.4-0.2-0.7-0.4-0.2-0.2-0.5-0.4-0.3-0.2-0.6-0.4-1.7-1.1-3.3-2.3-0.6-0.5-1.2-1-0.3-0.3-0.6-0.5-0.4-0.3-0.7-0.6-0.3-0.2-0.4-0.3-0.3-0.2-0.5-0.4-0.1-0.1-0.2-0.2-0.2-0.2-0.4-0.4-0.1-0.1-0.2-0.2-0.1-0.1-0.3-0.2-0.1-0.1-0.2-0.2-0.2-0.2-0.4-0.4-0.1 0-0.2-0.1-0.1-0.1-0.2-0.3-0.1 0-0.2-0.1-0.3-0.3-0.5-0.5-0.2-0.2-0.4-0.3 0 0 0-0.1-0.3-0.3-0.6-0.6-0.3-0.3-0.6-0.6-0.3-0.3-0.6-0.6-0.1-0.1-0.1-0.2-1.6-1.6-3-3.3-0.3-0.4-0.6-0.8-0.6-0.7-1.2-1.4-0.2-0.4-0.5-0.7-0.1-0.1-0.1-0.2-0.1 0-0.1-0.1-0.1-0.1-0.1-0.1-0.3-0.4-0.6-0.8 0 0 0-0.1-0.2-0.2-0.4-0.5-0.2-0.2-0.3-0.5-0.3-0.3-0.5-0.6-0.1-0.1-0.2-0.3-0.1-0.1-0.2-0.3-0.5-0.7-0.9-1.5-0.1-0.2-0.3-0.4-0.1-0.2-0.3-0.5-0.2-0.3-0.3-0.5-0.2-0.3-0.3-0.5-0.4-0.6-0.7-1.2-0.2-0.4-0.4-0.8-0.1-0.1-0.1-0.2-0.3-0.4-0.5-0.8 0-0.1 0-0.2-0.3-0.5-0.6-1-0.1-0.3-0.3-0.6 0-0.1-0.1-0.2-0.1-0.2-0.2-0.5-0.2-0.4-0.3-0.7-0.1 0-0.1 0 0-0.1-0.1-0.2 0-0.1 0-0.2-0.1-0.1-0.1-0.1 0-0.1 0-0.1-0.2-0.4-0.4-0.8-0.2-0.4-0.4-0.9-0.2-0.4-0.3-0.8-0.2-0.5-0.4-0.9-0.2-0.5-0.3-0.9-0.2-0.5-0.4-1-0.1-0.4-0.3-0.7 0-0.1 0-0.2-1.9-5.4-3.1-11.3-0.7-3.5-1.1-7.1 0-0.4 0-0.8 0-0.1-0.1-0.2-0.3-3.9-0.4-7.9v-0.1q0-0.3 0-0.7 0-6.1 0.8-12.6 0.1-0.8 0.2-1.5 0.3-2.5 0.8-5 0.1-0.7 0.2-1.3 0 0 0 0.1-0.1 1.7-0.1 3.4 0 0.4 0 0.8 0 1.3 0.1 2.6 0.1 2.4 0.3 4.8 0.2 1.6 0.4 3.1 0 0.5 0.1 0.9 0.9 6.6 2.7 12.6 1 3.3 2.3 6.4 0.2 0.6 0.5 1.2c2 4.9 4.6 9.5 7.7 13.9 2.8 4 4.5 8.6 7.8 12.3-0.3-1-0.2-2 0-3 1.5 1.9 3.6 3.4 5.5 4.9q2 1.7 4.1 3.2c4.4 3 9 5.6 14 7.7q0.5 0.2 1 0.4 1.2 0.5 2.5 0.9 2.5 0.9 5.1 1.7c3.6 1 7.3 1.6 11.1 2.3 3.2 0.7 5.9 2.6 9.1 3.5-0.2-0.1-0.5-2.2-0.5-2.5 1.6 1.3 2.8 3.2 4.1 4.8-0.5-0.6 4.5-3.7 5-4.1 0.1 0.8 0 1.6-0.2 2.3 2.8-0.9 5.1-2.2 7.7-3.6 2.1-1.2 4.2-1.4 6.7-2q0.9-0.2 1.8-0.5 4.6-1.3 9-3.1 0.4-0.1 0.8-0.3 6.4-2.7 12.1-6.5 1.6-1.1 3.1-2.2 0.2-0.1 0.3-0.2c2.6-2 5-4.1 7.3-6.4q0.3 1.3 0.6 2.5c3.8-3.6 6.5-9.3 9-13.9 3.2-5.8 6.4-11.2 8.6-17.6q1.4-4.1 2.3-8.4 0-0.1 0-0.2z"/><path class="l" d="m410.8 391.3q0.1 2.4-0.2 4.9-0.4-0.5-0.4-1.2 0.1 3.5-0.1 6.9-0.5-0.9-1.1-1.8c0.5 0.7 0.3 1.7 0.1 2.7-0.9-1.4-2.4-1.9-4.4-1.6-1.5 0.3-3.4 0.8-5.6 1.5-3 1.1-6.6 2.6-10.5 4.3q-2.4 1.1-4.9 2.2-2.2 1-4.4 2.1-1.9 0.9-3.8 1.8-2.6 1.2-5.3 2.5-1.3 0.7-2.7 1.4-0.8 0.3-1.5 0.7-1.2 0.6-2.4 1.2-1.5 0.7-2.9 1.4-0.4 0.2-0.8 0.4-0.3 0.1-0.6 0.3-1.4 0.7-2.8 1.3-0.4 0.2-0.9 0.5-0.1 0-0.1 0c-1.6 0.8-9.3 4.9-9.3 5.9q-0.1-0.7-0.2-1.4 0-0.2-0.1-0.4-0.6 0.2-1.3 0.5c-1.7 0.7-3.7 2.1-5.4 2.8q-0.1 0.1-0.2 0.1-1.5 0.6-2.8 1.1-0.6 0.2-1 0.3-0.6 0.2-1.1 0.3-0.1 0-0.3 0.1-0.7 0.1-1.2 0.1 0 0-0.1 0c-1.9 0.1-6-1.2-10.1-3.2-2.3-1.1-4.6-2.4-6.5-3.8q-0.1 0-0.2-0.1c-2.6-1.8-4.5-3.6-4.9-5.1 0.4 1.4 0.2 2.5 0.6 3.8q0.1 0.4 0.2 0.8-2.5-2.1-5-4-2.2-1.6-4.5-3.1c-4.7-3.2-9.6-6.1-14.9-8.9-6-3.3-12.5-7-19.2-8.8q-0.3-0.1-0.7-0.2-0.3-0.1-0.6-0.2-0.4 0-0.8-0.1-0.7-0.2-1.3-0.3-0.8-0.1-1.6-0.1-1 0-1.9 0.3-0.4 0.2-0.7 0.3c-2.5 0.8-4 1.4-4.2 1.5q0 0-0.1 0 0-0.1 0-0.2 0-0.1 0-0.2 0-0.1 0-0.2 0-0.1 0-0.2 0-0.1-0.1-0.2 0-0.1 0-0.2 0-0.1 0-0.2c-0.1-1.5-0.1-2.9-0.1-4.4-0.2-1.9-0.8-3.5-0.6-5.5q-0.4 0.8-0.9 1.5 0.3-2.9 0.5-5.9c0 0.3-0.2 0.6-0.5 0.7q0.3-2.2 0.9-4.2-0.5 0.4-0.9 0.8c0.7-2.7 2.1-5.5 2.6-8.2q0.1-0.6 0.2-1.2 0.1-0.5 0.1-1 0.1-0.1 0.1-0.2 0 0 0 0 0.1-0.6 0.2-1.1v-0.1q0.1-0.5 0.2-1.1 0.1-0.5 0.2-1 0-0.1 0-0.2 0.2-0.7 0.3-1.4 0.1-0.5 0.2-1.1 0.1-0.2 0.2-0.4 0-0.2 0-0.3 0.3-1.1 0.6-2.3 0-0.3 0.1-0.7 0.3-1 0.6-2.1 0-0.2 0.1-0.3 0.1-0.4 0.2-0.8c0 0 0-0.1 0-0.1q0.1 0 0.1 0 0.1 0 0.1 0 0 0 0.1 0 0 0 0 0.1 0.1 0 0.1 0.1c0.3 0.4 0.6 0.9 1 1.2q0.1 0.1 0.2 0.2 0.1 0.1 0.2 0.2c1.1 0.7 2.4 1.4 3.6 2.1q3.8 2.5 7.8 4.6c5.4 2.9 11 5.4 16.8 7.5 11.5 4.2 23.5 6.7 35.7 7.4 14 0.9 28.3 0.8 42.1-2.3 4.4-1 8.8-2.3 13.1-3.8 8.1-2.9 17.5-6.9 23.5-13.3q0.1-0.2 0.2-0.3 0.4-0.4 0.7-0.8 0 0.1 0.1 0.3 0 0 0 0.1 0 0.1 0.1 0.3 0 0 0 0.1 0.3 1.3 0.6 2.6 0.2 0.5 0.3 1 0.3 1.7 0.7 3.4 0.1 0.6 0.2 1.2 0.1 0.5 0.2 1.1 0.1 0.3 0.1 0.7 0.2 0.9 0.3 1.7 0.1 0.6 0.2 1.1 0 0.6 0.1 1.1 0.1 0.5 0.1 0.9 0.1 0.5 0.2 1 0 0.5 0.1 1 0 0.1 0 0.1 0 0.2 0 0.4 0.1 0.3 0.1 0.6 0 0.1 0 0.1 0 0.3 0.1 0.5c0.3 3.1 1.5 5.8 2.1 8.9q-0.4-0.9-0.8-1.7 0.3 1.4 0.3 2.8z"/><path class="k" d="m405.7 361.9q-0.4 0.4-0.7 0.8-1.3 1.5-2.8 2.8-0.4 0.4-0.9 0.8-1.4 1.2-2.9 2.4c-3.5 2.6-7.3 4.7-11.3 6.7q0 0-0.1 0-0.7 0.4-1.5 0.8-3 1.4-6.1 2.8-0.5 0.2-1.1 0.5-0.8 0.3-1.7 0.7-0.7 0.3-1.4 0.6-1.5 0.7-3 1.3-1 0.4-1.9 0.8-0.1 0-0.3 0.1-0.2 0.1-0.4 0.2-0.7 0.3-1.4 0.5-0.1 0.1-0.3 0.2-0.7 0.3-1.5 0.5-0.5 0.2-0.9 0.4-1.4 0.5-2.8 1-2.1 0.8-4.2 1.5c-4.1 1.4-8.1 2.6-12 3.5q0 0-0.1 0.1-0.5 0.1-1 0.2-0.3 0.1-0.6 0.1-1.9 0.4-3.6 0.7-0.2 0.1-0.4 0.1-0.7 0.1-1.3 0.2-3.3 0.4-6.2 0.4-0.1 0-0.1 0-0.3 0-0.7 0-0.4 0-0.9-0.1-0.4 0-0.7 0c-5-0.3-9.6-0.7-14.3-1.9q-1.6-0.4-3.2-1c0.9 1.3 1.6 2.7 2.4 4-3.5-2.3-6-4.2-8.6-7.5q0-0.1-0.1-0.2 0 0 0 0.1 0.2 1.8 0.4 3.6c-0.1-1.1-6.2-6.3-7.5-6.3-0.2 0.9-0.4 2.1-0.3 3.1-1.3-1.4-2.5-2.7-3.8-4-1.7-1.7-3.4-3.2-5.5-4.5q-0.6-0.4-1.3-0.8-0.2-0.1-0.4-0.1-0.4-0.3-0.8-0.5-2-1-3.9-2-1.2-0.6-2.3-1.2-0.3-0.2-0.5-0.3-0.7-0.3-1.3-0.6-0.4-0.2-0.9-0.5 0 0-0.1 0-0.7-0.4-1.5-0.7-2.2-1.1-4.5-2.2-0.6-0.3-1.2-0.6c-4.4-2.4-8.5-5.3-11.4-9.3q0.1-0.3 0.2-0.6 0.1-0.3 0.1-0.6 0.2-0.4 0.3-0.8 0.1-0.3 0.2-0.6 0-0.3 0.1-0.5 0.1-0.3 0.2-0.6 0.1-0.4 0.2-0.7 0.1-0.3 0.2-0.5 0-0.1 0-0.1 0.1-0.4 0.2-0.7 0.1-0.3 0.2-0.6 0.2-0.6 0.4-1.2 0.4-1.3 0.8-2.5c1.5-4.1 3.1-7.1 5.8-10.7-0.1 0.2-0.4 0.1-0.6 0.1-0.3 0.1-0.4 0.3-0.7 0.4-0.6 0.4-1.3 0.8-1.9 1.1 0.6-0.6 0.9-1.4 1.4-2.1q0.9-1.2 1.8-2.3c0.4-0.5 1.7-3.2 2-3.4q-0.7 0.4-1.5 0.7-0.3 0.2-0.5 0.3c-0.1 0-0.7 0-0.7 0.1q0.7-0.9 1.3-1.7c0.4-0.5 0.7-1 1.1-1.5 0.7-1 1.3-2.1 2-3 0.6-1 1.3-1.9 1.9-2.9q0-0.1 0-0.1 0.4-0.7 0.8-1.3 0-0.1 0.1-0.2 0 0 0 0 0.1-0.1 0.1-0.2 0.2-0.3 0.3-0.5 0.3-0.5 0.6-1 0.2-0.3 0.3-0.5 0.1-0.1 0.2-0.3 0 0 0 0 0.1-0.2 0.2-0.4l0.1-0.1c0 0 0 0 0 0q0.1-0.2 0.2-0.4 0.3-0.5 0.7-0.9v-0.1q0 0 0 0 0 0 0 0 0-0.1 0-0.1 0 0 0 0 0.1 0 0.1 0 0.1-0.2 0.3-0.5 0.3-0.5 0.6-0.9 0.1-0.1 0.1-0.2 0.2-0.3 0.4-0.6 0.2-0.3 0.4-0.6 0.3-0.4 0.5-0.8 0.1-0.1 0.2-0.2 0.1-0.2 0.3-0.4 0-0.1 0.1-0.1 0.2-0.4 0.5-0.7 0.2-0.3 0.4-0.6 0.1-0.2 0.3-0.4 0 0 0 0 0-0.1 0-0.1 0.1 0 0.1-0.1 0.3-0.5 0.7-0.9 0-0.1 0-0.1 2.3-3 4.7-5.8 1.7-2 3.5-3.9 0.4-0.4 0.9-0.8 0-0.1 0.1-0.1 0.2-0.3 0.5-0.6 0.2-0.2 0.4-0.4 0.2-0.2 0.3-0.3 0.1-0.1 0.2-0.2 0.2-0.2 0.4-0.4 0.2-0.1 0.3-0.3 0.3-0.3 0.6-0.5 0.3-0.4 0.7-0.7 0.1 0 0.1-0.1 0.2-0.2 0.4-0.3 0.6-0.6 1.2-1.1 0.3-0.2 0.6-0.5 0.6-0.5 1.2-1 0 0 0.1-0.1 0.1 0 0.1-0.1 0.5-0.3 0.9-0.7 0.2-0.2 0.5-0.3 0.2-0.2 0.4-0.4 0.4-0.3 0.8-0.6 0.3-0.2 0.6-0.4 0 0 0.1-0.1 0.5-0.4 1.1-0.7 0.2-0.2 0.4-0.3 0.3-0.2 0.6-0.4 0.1-0.1 0.3-0.2 0.6-0.4 1.2-0.8 0.5-0.3 0.9-0.6 0.2-0.1 0.5-0.2 0-0.1 0.1-0.1 0 0 0 0 0.1-0.1 0.1-0.1 0.1 0 0.2-0.1 0.2-0.1 0.4-0.2 0 0 0.1 0 0-0.1 0-0.1 0.1 0 0.1 0 0.1-0.1 0.1-0.1 0 0 0 0 0.1 0 0.2 0 0.1-0.1 0.3-0.2 0.4-0.2 0.8-0.4 0.3-0.2 0.6-0.4 0.3-0.1 0.5-0.2 0.2-0.1 0.4-0.2 0.3-0.2 0.6-0.3 0.1-0.1 0.2-0.1 0.1 0 0.1 0 0.2-0.1 0.3-0.2 0 0 0 0 0 0 0.1 0 0 0 0.1-0.1 0 0 0 0 0 0 0 0 0.2 0 0.3-0.1 0.2-0.1 0.4-0.2 0.1 0 0.1 0 0.4-0.2 0.8-0.3 0.3-0.2 0.7-0.3 0.4-0.2 0.8-0.4 0.2 0 0.4-0.1 0.2-0.1 0.4-0.1 0 0 0-0.1 0.1 0 0.2 0 0.3-0.1 0.6-0.2 0.1-0.1 0.2-0.1 0.3-0.1 0.6-0.2 0.1 0 0.3-0.1c1.4-0.4 2.8-0.8 4.3-1.1 0.2 0 2.6-0.7 2.7-0.6q-1-0.9-1.7-1.9c0.2 0.3 1.6 0.6 2 0.7 0.7 0.3 1.5 0.7 2.3 0.8 0.2 0.1 2.3-0.3 2.2-0.4-0.7-0.6-1.2-1.5-1.2-2.4 1.4 1.2 2.9 2.8 4.9 2.9q2 0.1 4.1 0.4 0.5 0 1 0.1 0.9 0.2 1.8 0.4 0 0 0.1 0 0 0 0.1 0 0.2 0.1 0.5 0.1 0.1 0.1 0.2 0.1 0.1 0 0.1 0 0.3 0.1 0.7 0.2 0.1 0 0.2 0 0.2 0.1 0.3 0.1 0.2 0 0.3 0.1 0.3 0 0.5 0.1 0 0 0.1 0c0.1 0.1 0.2 0.1 0.3 0.1q0.6 0.2 1.1 0.4 0.1 0 0.2 0 0.3 0.1 0.6 0.2 0.1 0.1 0.3 0.1 0.2 0.1 0.4 0.2 0.3 0.1 0.5 0.1 0 0 0 0.1 0.6 0.2 1.1 0.4 0.1 0 0.1 0 0.2 0.1 0.4 0.2 0.1 0 0.2 0.1 0.2 0.1 0.5 0.2 0.7 0.2 1.4 0.6 0.4 0.1 0.7 0.3 0 0 0.1 0 0 0 0.1 0.1 0.2 0.1 0.5 0.2 0.1 0.1 0.2 0.2 0.4 0.1 0.7 0.3 0.3 0.1 0.6 0.3 0 0 0.1 0.1 0 0 0.1 0 0.3 0.2 0.7 0.4 0.2 0.1 0.4 0.2 2.2 1.2 4.2 2.6 0.3 0.2 0.6 0.4 0.3 0.2 0.6 0.4 1.3 0.9 2.6 1.9 0.2 0.2 0.5 0.4 0.3 0.3 0.6 0.5 0.3 0.2 0.5 0.4 0 0 0.1 0.1 0 0 0.1 0.1 0 0 0.1 0 0.3 0.2 0.5 0.5 0.4 0.3 0.7 0.5 1.1 1 2.3 2.1 0.3 0.2 0.6 0.5 0.4 0.4 0.8 0.8 0.3 0.3 0.6 0.6 0.4 0.3 0.7 0.7 0.2 0.2 0.5 0.5 0.2 0.1 0.4 0.3 0.4 0.5 0.9 1 0.3 0.3 0.5 0.6 1.2 1.2 2.3 2.5 0.3 0.3 0.6 0.7 0 0.1 0.1 0.1 0.3 0.4 0.6 0.8 0.3 0.3 0.6 0.7 0.3 0.3 0.6 0.6 0.4 0.5 0.7 1 0.1 0 0.1 0 1.3 1.8 2.6 3.5 0.3 0.4 0.5 0.8 0.3 0.3 0.5 0.7 0.1 0.1 0.2 0.3 0.1 0 0.2 0.2 0.1 0.1 0.2 0.2 0.1 0.2 0.1 0.3 0.1 0 0.1 0 0 0.1 0 0.1 0.4 0.5 0.7 1 0 0 0 0.1 0.4 0.5 0.8 1 0 0 0 0.1 0.1 0.1 0.2 0.3 0.3 0.4 0.5 0.8 0.1 0.1 0.1 0.2 0.2 0.2 0.3 0.4 0.5 0.7 0.9 1.4 0 0 0 0.1 0.1 0 0.1 0.1 0.3 0.5 0.6 1c2 3.4 5.7 5.9 8.1 9.2q-1.7-0.8-3.3-1.6c2.5 4.5 4.4 9.7 6.2 14.6q0.1 0.1 0.1 0.3 1.3 3.1 2.4 6.3 0.1 0.5 0.3 1l0.1 0.2q0.1 0.5 0.3 1 0.2 0.5 0.4 1.1 0 0.1 0 0.2 0.2 0.5 0.4 1.1 0.2 0.7 0.4 1.4 0.1 0.5 0.3 0.9 0.6 2 1.1 4 0.1 0.5 0.2 1z"/><path class="l" d="m389.5 322.7c-1.3-1.5-2.6-3-3.9-4.6q0-0.1-0.1-0.1v-0.1c-2.1-2.5-4.2-5.1-6.5-7.7-1.9-2.1-3.7-4.3-6-5.9 0.3 0.4 0.6 1 0.6 1.6-0.9-1-1.8-1.9-2.7-2.9-1.1-1.1-2.4-2.1-3.6-3.1-1-0.8-2.1-1.4-3.3-1.9-1-0.5-2-1.1-3-1.5-0.8-0.3-2.2-0.7-2.7-1.3 0.7 0.8 1.2 1.7 2 2.4-0.7-0.7-2-1.2-3-1.7-1.8-1.1-3.8-2-5.8-2.9q-0.1 0.6 0.1 1.2c-0.1-0.4-1.7-1.5-2.1-1.9-1.5-1.8-2.7-4.1-3.3-6.4 0.2 0.3 0.4 0.6 0.7 0.7 0.2-0.2-0.7-3.6-0.6-3.5q0.3 0 0.5 0.1 0.2 0.1 0.3 0.2 0.3 0 0.5 0.1 0.2 0.1 0.4 0.2 0.1 0 0.1 0 0.5 0.2 1.1 0.4 0 0 0 0 0.3 0.1 0.5 0.2 0.1 0.1 0.2 0.1 0.2 0.1 0.5 0.2 0.7 0.3 1.4 0.6 0.3 0.2 0.7 0.3 0 0.1 0.1 0.1 0.3 0.1 0.6 0.3 0.1 0 0.2 0.1 0.3 0.2 0.7 0.3 0.3 0.2 0.6 0.4 0.1 0 0.1 0 0.4 0.2 0.7 0.4 0.3 0.1 0.5 0.3 2.1 1.2 4.2 2.6 0.3 0.2 0.6 0.4 0.3 0.2 0.6 0.4 1.3 0.9 2.5 1.9 0.3 0.2 0.5 0.3 0.7 0.6 1.4 1.1 0 0 0 0.1 0.3 0.2 0.6 0.4 0.3 0.3 0.7 0.6 1.1 1 2.3 2 0.3 0.3 0.6 0.6 0.4 0.4 0.8 0.7 0.3 0.3 0.6 0.7 0.3 0.3 0.7 0.6 0.2 0.3 0.4 0.5 0.2 0.2 0.4 0.4 0.5 0.5 1 1 0.2 0.2 0.5 0.5 1.1 1.2 2.2 2.5 0.4 0.4 0.7 0.8 0 0 0 0 0.4 0.4 0.7 0.8 0.3 0.4 0.6 0.7 0.3 0.3 0.5 0.7 0.4 0.5 0.8 1 0 0 0 0 1.4 1.7 2.7 3.5 0.2 0.4 0.5 0.7 0.3 0.4 0.5 0.7 0.3 0.4 0.5 0.8 0.1 0.1 0.2 0.2 0 0.1 0.1 0.1 0 0 0 0 0.3 0.5 0.7 1.1 0 0 0 0 0.4 0.5 0.7 1.1 0 0 0 0 0.2 0.2 0.3 0.4 0.4 0.7 0.9 1.4 0.4 0.6 0.8 1.3 0.1 0 0.1 0.1 0 0.1 0.1 0.2 0.3 0.4 0.6 0.9 0.4 0.7 0.8 1.4z"/><path class="l" d="m318.9 283c0 0-0.1 4-0.4 4.5q0.9-0.7 1.9-1.1c-0.4 1.9-1.7 3.5-3.3 4.7-1.7 1.4-3.7 2.6-5.6 3.8 0.7-0.4 1.2-1.2 1.3-2.1-0.1 0.9-3.9 2.6-4.6 3-1.7 1.2-3.9 1.7-5.7 2.8-0.4 0.3-0.8 0.6-1.3 0.5 0.5-0.2 1.2-0.8 1.3-1.3-0.8-0.1-2.2 0.7-2.9 1.1q-1.5 0.8-2.9 1.8-0.5 0.3-0.9 0.6c-8.9 6.4-14.1 14.5-19.9 21.1 2.3-4 4.9-7.8 7.5-11.4q0.1-0.1 0.1-0.1 2.3-3 4.7-5.8 1.7-2 3.5-3.9c3.1-3.3 6.4-6.3 9.9-8.9q2.9-2.2 6-4 0.4-0.3 0.9-0.6 0.1-0.1 0.3-0.2 0.2-0.1 0.4-0.2 0 0 0.1 0 0.2-0.1 0.4-0.2 0.3-0.2 0.7-0.4 0.3-0.2 0.7-0.4 0.4-0.2 0.9-0.4 0.3-0.2 0.6-0.3 0.7-0.4 1.5-0.7 0 0 0 0 0.4-0.2 0.8-0.4 0.4-0.1 0.8-0.3 0.4-0.1 0.8-0.3 0.4-0.2 0.8-0.3 0.8-0.3 1.6-0.5z"/><path class="k" d="m321.5 463.6c-1.9 4.3-6 6.3-11.1 6.7q-0.2 0-0.5 0-1.2 0.1-2.4 0-0.2 0-0.4 0c-4.3-0.3-9-1.6-13.6-3.6q-1.8-0.8-3.5-1.9-0.2-0.1-0.3-0.2-0.1-0.1-0.2-0.1c-2.6-1.7-5-3.9-7-6.3q-0.2-0.3-0.4-0.5-0.2-0.3-0.4-0.6-0.3-0.5-0.6-1c-1.4-2.3-2.3-4.7-2.6-7.3q-0.4-2.9 0.3-5.9-0.5 0.5-1 0.9c0.9-2.4 2.6-4.3 4.2-6.2 1.5-1.8 3.5-3.3 5.7-4.2 1.9-0.8 4-1.1 6.1-1.1 2.6 0 5.4 0 8 0.5-0.6 0.3-1.2 0.5-1.9 0.5 1.2 0 2.6 0.7 3.8 1.3q0.8 0.5 1.4 0.8c1.8 1.1 3.8 1.8 5.6 3 0.2 0.2 0.4 0.4 0.4 0.6q-0.7-0.1-1.5-0.1c1 0 2.5 2.5 3 3.1q2 2.2 3.7 4.4c1.3 1.7 2.5 3.4 3.4 5.3 2.2 4 3.4 8.4 1.8 11.9z"/><path class="l" d="m321.5 463.6c-1.9 4.3-6 6.3-11.1 6.7q-0.2 0-0.5 0-1.2 0.1-2.4 0-0.2 0-0.4 0c-4.3-0.3-9-1.6-13.6-3.6q-1.8-0.9-3.5-1.9-0.1-0.1-0.3-0.2-0.1-0.1-0.2-0.1c-2.8-1.8-5.1-4-7-6.3q-0.2-0.3-0.4-0.5-0.2-0.3-0.3-0.6-0.4-0.5-0.7-1c-1.4-2.3-2.3-4.7-2.6-7.3 0.2 0.5 0.9 1.3 1.2 1.7 2.6 3.4 5.8 6.4 9.4 8.8 1.9 1.3 3.8 2.5 5.9 3.5q1.6 0.7 3.3 1.3c0.8 0.3 1.8 0.4 2.7 0.5-1.1-0.2-1.8-2.1-2.6-2.8 1.2 1 4 1.5 5.5 1.8 2.1 0.4 4.5 0.8 6.6 0.6-0.5 0-2.2-1.2-2.5-1.7 3.2 0.8 7.6-0.2 9.7-3 1.6-2.1 3.2-5.2 2.1-7.9 2.1 4.1 3.3 8.5 1.7 12z"/><path class="k" d="m385.5 454q-0.2-1.1-0.7-2.1c-0.2 1.8-0.9 3.5-2 5.1-2.4 3.8-6.4 6.8-10.3 8.8q-0.2 0.2-0.5 0.3-0.3 0.2-0.6 0.3-0.2 0.1-0.5 0.2c-11.6 5.3-24.2 5.3-28-3.2q-0.5-1.1-0.8-2.1 0-0.2-0.1-0.5 0-0.3-0.1-0.5 0-0.1 0-0.2-0.1-0.3-0.1-0.7 0-0.2 0-0.4 0-0.2 0-0.5 0-0.2 0-0.4 0.1-0.4 0.2-0.8 0 0 0-0.1 0-0.2 0.1-0.4 0-0.3 0.1-0.5 0.1-0.2 0.2-0.5 0.1-0.2 0.2-0.5 0.1-0.3 0.3-0.7 0-0.1 0.1-0.3 0-0.1 0.1-0.2 0.2-0.3 0.3-0.5 0.1-0.2 0.1-0.3 0.2-0.3 0.3-0.5 0.6-1 1.2-2 0.1-0.1 0.2-0.2 0.2-0.3 0.4-0.5c1.6-2.4 4.5-5.9 7.6-9q0.3-0.3 0.6-0.6 0.3-0.3 0.7-0.7 0.3-0.3 0.6-0.6c1.7-1.5 3.6-2.9 5.6-3.9 2.4-1.2 5-1.7 7.6-2.2-0.4 0.1-1-0.7-1.5-0.7q1.7 0 3.4 0c0.3 0 0.7 0 0.8-0.2 0.3-0.5-0.5-0.9-0.8-1.4 5.9 3.1 11.7 4.2 14.8 10.9 1.7 3.9 0.8 8.2 0.5 12.3z"/><path class="l" d="m382.8 457c-2.4 3.8-6.4 6.8-10.3 8.8q-0.2 0.2-0.5 0.3-0.3 0.2-0.6 0.3-0.2 0.1-0.5 0.2c-11.6 5.3-24.2 5.3-28-3.2q-0.5-1.1-0.8-2.1 0-0.2-0.1-0.5 0-0.3-0.1-0.5 0-0.1 0-0.2-0.1-0.3-0.1-0.7 0-0.4 0-0.9 0-0.2 0-0.4 0.1-0.4 0.2-0.8 0 0 0-0.1 0-0.2 0.1-0.5 0-0.2 0.1-0.4 0.1-0.2 0.2-0.5 0.1-0.2 0.2-0.5 0.1-0.3 0.3-0.7 0-0.1 0.1-0.3 0.1-0.1 0.1-0.2 0.2-0.3 0.3-0.5 0.1-0.2 0.1-0.3 0.2-0.3 0.3-0.5 0.6-1 1.3-2 0-0.1 0.1-0.2 0.2-0.3 0.4-0.5c1.6-2.4 4.5-5.9 7.6-9q0.3-0.3 0.6-0.6 0.3-0.3 0.7-0.7 0.3-0.3 0.7-0.6-0.1 0-0.1 0c-1.7 2.1-3.2 4-4 5.4-0.9 1.3-1.7 2.6-2.4 4q0.9-0.9 2-1.5c-0.9 0.5-1.3 1.6-1.7 2.4-0.5 1.1-0.9 2.3-1.6 3.3 0.4-0.3 0.8-0.6 1.2-0.8-0.4 0.2-0.4 4.6-0.3 5.2 0.1 1.5 0.8 2.7 1.5 4q0.1-0.7 0.3-1.4c-0.2 1 2.6 2.4 3.3 2.7 1.2 0.5 2.5 0.7 3.8 1 2.9 0.6 5.7-0.2 8.5-1.2q-0.7 0.7-1.3 1.5c4.5-0.4 8.4-1.6 12.5-3.4 2.1-0.9 4.3-2.1 6-3.3z"/><path class="k" d="m293.9 421.2c-6.9 6.3-19.5 3.8-28.1-5.6q-0.3-0.3-0.6-0.7c-4.4-5.3-7.8-14.3-7.2-22 0.1-2 0.5-4.2 1-6.2q-0.8 0.5-1.5 1c1.6-2.9 3.7-5.4 6.6-7 2.8-1.5 6-2.4 9.1-2.7 3.2-0.2 6.6-0.3 9.7 0.5 3.6 0.9 5.3 3.2 7.1 6.2-0.5-0.3-1.1-0.5-1.8-0.6 1.3 1.1 2.1 3.6 2.8 5.1q-0.5-0.1-0.9-0.4c1.4 3.3 2.5 6.4 3.5 9.8 1.1 4 2.4 8.1 2.8 12.3q0.1 0.3 0.1 0.6 0 0.1 0 0.3 0.1 0.3 0.1 0.5 0 0.3 0 0.7 0 0.1 0 0.3c0.1 3.2-0.6 6-2.7 7.9z"/><path class="l" d="m293.9 421.2c-6.9 6.3-19.5 3.8-28.1-5.6q-0.3-0.3-0.6-0.7c-4.4-5.3-7.8-14.3-7.2-22 0.6 6.3 3.6 13 7.8 17.6 1.6 1.7 3 3.6 4.8 5.2q-0.1-0.5-0.2-1.1c6.3 5 17 7.4 23.5 1.4 1.4-1.3 2.2-3 2.5-5.1q0.1 0.3 0.1 0.6 0 0.2 0 0.3 0.1 0.3 0.1 0.5 0 0.4 0 0.7 0 0.1 0 0.3c0.1 3.2-0.6 6-2.7 7.9z"/><path class="k" d="m406.1 388.8c0.6 2 0.9 4.1 0.9 6.3 0.1 4-0.7 8.1-2.2 11.9q0 0 0 0-0.1 0.2-0.2 0.4-0.1 0.2-0.2 0.5c-0.8 1.7-1.7 3.4-2.7 4.9q-0.2 0.4-0.5 0.7-0.4 0.5-0.8 1.1-0.5 0.5-0.9 1c-8.6 9.4-21.2 11.9-28.1 5.6q-0.3-0.3-0.6-0.6-0.1-0.1-0.1-0.1-0.1-0.1-0.2-0.2-0.2-0.3-0.5-0.7 0-0.1-0.1-0.2 0-0.1-0.1-0.2 0-0.1-0.1-0.2 0 0 0-0.1-0.1-0.2-0.2-0.4 0-0.1-0.1-0.2 0-0.1 0-0.1-0.1-0.1-0.1-0.3-0.1-0.2-0.2-0.4 0-0.2 0-0.3-0.2-0.4-0.2-0.9c-0.2-1.1-0.3-2.4-0.2-3.6 0-1.1 0.2-2.2 0.3-3.2 0.4-2.2 0.8-4.5 1.7-6.5-0.3 0.2-0.7 0.4-1 0.4 0.6-1.3 1.4-2.5 1.7-3.9q0.7-2.3 1.4-4.6c0.4-1.6 1-3.1 1.5-4.6q0.4-1.3 0.8-2.6 0.3-1 0.8-1.9c0.5-1 1.6-3.2 2.7-3.7-0.4 0.2-1.6 0.4-1.9 0.8 0.7-0.9 1.5-1.7 2.4-2.3 0.7-0.5 2.3-1.6 3.1-1.4q-0.5-0.1-1-0.2c2.2-0.9 4.2-1 6.5-1.2 1.4-0.2 2.9 0.1 4.3 0.2 4.2 0.3 8.2 1.6 10.5 3.8 2.1 1.9 3.6 5 4.6 7.5q-0.5-0.2-1-0.5z"/><path class="l" d="m407 395.1c0.1 4-0.7 8.1-2.2 11.9q0 0 0 0-0.1 0.2-0.2 0.4-0.1 0.3-0.2 0.5c-0.8 1.7-1.7 3.4-2.7 4.9q-0.2 0.4-0.5 0.7-0.4 0.6-0.8 1.1-0.5 0.5-0.9 1c-8.6 9.4-21.2 11.9-28.1 5.6q-0.3-0.3-0.6-0.6-0.1 0-0.1-0.1-0.1-0.1-0.2-0.2-0.2-0.3-0.4-0.7-0.1-0.1-0.2-0.2 0-0.1-0.1-0.2 0-0.1-0.1-0.2 0 0 0-0.1-0.1-0.2-0.2-0.4 0-0.1-0.1-0.2 0 0 0-0.1-0.1-0.1-0.1-0.3-0.1-0.2-0.2-0.4 0-0.1 0-0.3-0.2-0.4-0.2-0.8c-0.2-1.2-0.3-2.5-0.2-3.7 0.1 2.8 2.5 6.3 4.7 7.8q-0.1-0.5-0.3-0.9c3.5 2.7 9.2 2.5 13.2 1.4 2.8-0.8 5.4-2 7.7-3.6 2.2-1.5 4.2-2.9 5-5.5q-0.2 1.3-0.5 2.6c2.8-3.2 4.9-7.1 6.4-11.1 1-2.6 1.8-5.4 2.1-8.3z"/><path class="m" d="m306.8 350.8c-4.4 0-8-3.6-8-8 0-4.4 3.6-8 8-8 4.4 0 8 3.6 8 8 0 4.4-3.6 8-8 8z"/><path class="n" d="m306.8 350.4c-4.2 0-7.6-3.4-7.6-7.6 0-4.2 3.4-7.6 7.6-7.6 4.2 0 7.6 3.4 7.6 7.6 0 4.2-3.4 7.6-7.6 7.6z"/><path class="o" d="m304.5 341.3c-1.2 0-2.1-1-2.1-2.2 0-1.2 0.9-2.1 2.1-2.1 1.2 0 2.2 0.9 2.2 2.1 0 1.2-1 2.2-2.2 2.2z"/><path class="m" d="m358.8 350.8c-4.4 0-8-3.6-8-8 0-4.4 3.6-8 8-8 4.4 0 8 3.6 8 8 0 4.4-3.6 8-8 8z"/><path class="n" d="m358.8 350.4c-4.2 0-7.6-3.4-7.6-7.6 0-4.2 3.4-7.6 7.6-7.6 4.2 0 7.6 3.4 7.6 7.6 0 4.2-3.4 7.6-7.6 7.6z"/><path class="o" d="m356.6 341.3c-1.1 0-2.1-1-2.1-2.2 0-1.2 1-2.1 2.1-2.1 1.2 0 2.2 0.9 2.2 2.1 0 1.2-1 2.2-2.2 2.2z"/><path class="p" d="m342.6 360.6c-0.1 0.3-2.4 2.3-2.7 2.6-1.5 1-4.4 3.2-7.2 3.2-2.8 0-5.9-2.2-7.6-3.4-0.3-0.2-1.5-1.6-1.9-2.1 0 0 0.2-0.4 0.7-0.4q0.8 0.2 1.7 0.2h0.3c2.1 0 4.2-0.8 5.4-2.7q0.1-0.1 0.1-0.2 0.3-0.6 0.5-1.2 0-0.1 0-0.2 0-0.1 0-0.2 0-0.1 0-0.2 0-0.1 0-0.2h1.6q0 0.2 0 0.4 0 0.2 0.1 0.5 0 0 0 0.1 0 0.1 0 0.2 0.1 0.1 0.1 0.3 0.1 0.2 0.2 0.3 0.3 0.6 0.7 1.1 0.2 0.2 0.4 0.3 0.1 0.2 0.3 0.3 0.1 0.1 0.1 0.1c1.3 0.9 2.7 1.3 4.1 1.3h0.3q0.7 0 1.3-0.1c0.6 0 1.2 0 1.6 0z"/><path class="n" d="m343.6 359.5q-0.4 0.6-0.9 1.1c-2.1 2.2-5.8 3.6-9.9 3.6-4.1 0-7.5-1.3-9.6-3.3q-0.5-0.5-1-1.1c1 0.6 2.2 0.9 3.4 0.9h0.3c2.1 0 4.3-0.9 5.5-2.9q0.5-0.8 0.5-1.7 0-0.1 0-0.3h1.6c0 0 0 0.1 0 0.2 0 1.4 0.8 2.6 1.8 3.3 1.2 1 2.7 1.5 4.2 1.5h0.3c1.2-0.1 2.3-0.4 3.4-1q0.2-0.2 0.4-0.3z"/><path class="n" d="m345.6 355.8c0 1.8-1 3.4-2.3 4.4q-0.3 0.2-0.6 0.4c-1.1 0.6-2.3 1-3.5 1.1q-0.3 0-0.6 0c-2.2 0-4.3-1-5.7-3q-0.1-0.1-0.2-0.3c-0.5 1-1.3 1.7-2 2.2-1.2 0.7-2.6 1-3.9 1.1q-0.3 0-0.6 0-1.5-0.1-3-0.8-0.3-0.2-0.6-0.4-0.3-0.2-0.5-0.3c-1.3-1-2.3-2.6-2.3-4.4 0.1 1.8 1.2 3.2 2.5 3.9q0 0 0 0 0.7 0.5 1.6 0.8 0.9 0.2 1.7 0.2h0.3c2.1 0 4.2-0.8 5.4-2.7q0.1-0.1 0.2-0.2 0.3-0.6 0.4-1.2 0-0.1 0-0.2 0.1-0.1 0-0.2 0 0 0-0.1 0-0.1 0-0.1 0-0.1 0-0.2h1.6c0 0 0 0.1 0 0.1q0 0.1 0 0.2 0 0.3 0.1 0.6 0 0 0 0.1 0 0.1 0.1 0.2 0 0.1 0.1 0.3 0 0.1 0.1 0.3 0.3 0.6 0.7 1.1 0.2 0.2 0.4 0.3 0.2 0.2 0.3 0.3 0.1 0.1 0.2 0.1c1.2 0.9 2.6 1.3 4.1 1.3h0.2q0.7 0 1.3-0.1 1.1-0.3 2.1-0.9 0.2-0.1 0.4-0.3c1.1-0.7 1.9-2 2-3.6z"/><path class="q" d="m332.8 370.7c-7.2 0-6.5-5.5-6.3-7.9q0-0.6 0.1-1.1 0 0 0.1 0h0.1c1.3 0 2.6-0.4 3.9-1.1 0.7-0.5 1.5-1.2 2-2.1q0.1 0.1 0.2 0.3c1.4 1.9 3.5 2.9 5.7 2.9q0 0 0.1 0c0 0.5 0 0.9 0.1 1.4 0.2 2.5 1 7.6-6 7.6z"/><path class="r" d="m338.7 361.7c-0.2 0-0.5 0.1-0.7 0.2q-0.4 0.1-0.8 0.2-0.1 0.1-0.3 0.1c-0.8 0.2-1.6 0.4-2.3 0.9q-0.2 0.1-0.4 0.3c-1.1 1-1.2 2.6-1.4 4.1-0.2-1.3-0.2-2.8-1.1-3.9-0.6-0.8-1.6-1.3-2.6-1.5-0.7-0.2-1.8-0.3-2.5-0.4h0.2c1.3 0 2.6-0.4 3.8-1.1 0.8-0.5 1.6-1.2 2.1-2.1q0.1 0.1 0.2 0.3c1.4 2 3.5 2.9 5.7 2.9q0 0 0.1 0z"/><path class="r" d="m338.7 361.7c-0.2 0-0.5 0.1-0.7 0.2q-0.4 0.1-0.8 0.2-0.1 0.1-0.3 0.1c-0.8 0.2-1.6 0.4-2.3 0.9q-0.2 0.1-0.4 0.3c-1.1 1-1.2 2.6-1.4 4.1-0.2-1.3-0.2-2.8-1.1-3.9-0.6-0.8-1.6-1.3-2.6-1.5-0.7-0.2-1.8-0.3-2.5-0.4h0.2c1.3 0 2.6-0.4 3.8-1.1 0.8-0.5 1.6-1.2 2.1-2.1q0.1 0.1 0.2 0.3c1.4 2 3.5 2.9 5.7 2.9q0 0 0.1 0z"/><path class="s" d="m337 353.6c0 1.8-3.4 4-4.3 4-0.9 0-4.3-2.1-4.3-4 0-1.4 1.9-1.4 4.3-1.4 2.4 0 4.3 0 4.3 1.4z"/><path class="t" d="m337 353.8c-0.2 1.8-3.4 3.8-4.3 3.8-0.9 0-4.1-2-4.3-3.9 0.2 1.5 3.4 3 4.3 3 0.9 0 4.1-1.6 4.3-3z"/><path class="q" d="m377.1 368.1c-4.7 0-8.6-3.8-8.6-8.5 0-4.8 3.9-8.6 8.6-8.6 4.7 0 8.6 3.8 8.6 8.6 0 4.7-3.9 8.5-8.6 8.5z"/><path class="q" d="m288.4 368.1c-4.7 0-8.5-3.8-8.5-8.5 0-4.8 3.8-8.6 8.5-8.6 4.8 0 8.6 3.8 8.6 8.6 0 4.7-3.8 8.5-8.6 8.5z"/><path class="n" d="m344.9 352c11.2-5.1 23.7-7.5 36-7.1-12.3 0.5-24.4 2.9-36 7.1z"/><path class="n" d="m348.3 354.2c12-1.6 24.3-1.1 36.2 1.5-12-1.7-24.1-2.2-36.2-1.5z"/><path class="n" d="m320.3 352c-11.5-4.2-23.7-6.6-35.9-7.1 12.3-0.4 24.7 2 35.9 7.1z"/><path class="n" d="m317 354.2c-12.1-0.7-24.2-0.2-36.2 1.5 11.8-2.6 24.2-3.1 36.2-1.5z"/><path class="k" d="m313.1 291.6q-2 1.1-4 2.2 0.3-0.4 0.6-0.7c-1.6 0.7-3.2 1.2-4.9 1.9q-2.6 1.2-5.1 2.7-2.2 1.2-4.2 2.6c-1.4 0.8-2.4 2.2-3.5 3.3q0.3-0.6 0.5-1.2c-2.6 2.5-5.3 4.7-7.7 7.3q-1.5 1.7-2.8 3.4c-0.9 1.2-1.5 2.6-2.1 3.9q0-0.4 0.1-0.9c-0.7 0.7-1.2 1.5-1.5 2.4-0.4-2.9 0-6.1 0.3-9q0.4-4.7 1.3-9.2c1.1-6 2.6-11.9 4.7-17.7 0.5-1.6 1.1-3.3 1.8-4.9q0.5-1.2 1.2-2.4c0.2-0.4 1-1.5 0-1.5 0.3-0.5 1.2-1.7 1.8-1.9q-0.7 0.2-1.4 0.4c5.9-6.4 17 2 22 5.8 1.5 1.2 3.1 2.5 4.3 4 0.7 0.7 1.2 1.5 1.6 2.4 0.4 0.7 1 1.8 0.9 2.6q0.3-0.2 0.6-0.5-0.2 0.9-0.6 1.7-0.2 0.4-0.5 0.7c-0.6 1.1-1.7 2.2-2.7 2.9q0.1-0.4 0.3-0.7-0.5 0.2-1 0.4z"/><path class="u" d="m308.1 290.1q-0.1 0-0.2 0-2.4-0.9-4.7-1.9c1.5 1 2.7 2.3 3.5 3.8q-3.3-1-6.7-1.9 1.5 1.4 2.9 2.7c0.5 0.6-13.5 7.9-14.2 8.9-0.1 0.2-0.2 0.4-0.4 0.5-0.1 0-0.3 0-0.5-0.1q-1-0.3-2.1-0.5c-0.4-0.1-0.8-0.3-0.9-0.6-0.3-0.5 0.1-1 0.5-1.4 0.4-0.3 0.9-0.5 1.2-1-0.2-0.6-0.9-1-1.5-0.9 0.9-3.7 1.9-7.2 3.2-10.7 1.2-3.1 2.4-5.7 4.5-8.3 4.2-5 14.2 3.1 16.8 6.6 0.8 1.2 1.3 2.7 0.8 4-0.1 0.4-0.3 0.7-0.6 0.9-0.5 0.3-1.1 0.1-1.7-0.1z"/><path class="k" d="m352 291.8c-0.8-0.4-1.5-0.9-2-1.6q-0.1 0.4-0.1 0.9c-1.1-1.6-2-3.3-1.3-5.3 0.9-3.2 3.9-5.7 6.4-7.6 1.9-1.5 3.6-2.9 5.4-4.4q-0.1 0.4-0.2 0.8c4.1-1.9 7.6-4.8 12.4-4.4 1.3 0.1 2.2 1.3 2.9 2.2 2.6 3.4 4.1 7.8 5.5 11.9 0.9 2.6 1.4 5.4 1.8 8.2q0.4-0.5 0.6-1.2c0.5 3.4 1.3 6.8 1.9 10.2q0.8 4.4 1.2 8.8 0.2 2.2 0.3 4.3c0.1 1.4-0.1 2.8 0.2 4.1-0.5-0.9-1.1-1.7-1.7-2.6 0 0.2 0 0.4 0 0.5 0 0.1 0 0.4 0 0.5-0.3-0.4-0.6-0.8-0.8-1.2-0.7-1.3-1.4-2.6-2.2-3.7-0.3-0.5-0.8-1-1.2-1.5 0.1 0.3 0.2 1 0.3 1.3-0.7-1.2-1.4-2.3-2.3-3.4q-1.3-1.6-2.8-3-1.5-1.4-3-2.7c-1.3-1.1-2.8-2.1-4.2-3q-2.7-1.8-5.6-3.3-1.4-0.7-2.9-1.4-0.7-0.3-1.5-0.6c-0.4-0.2-0.8-0.5-1.2-0.6 0.1 0.2 0.2 0.5 0.4 0.6-0.9-0.5-1.9-1-2.9-1.3-1.1-0.5-2.3-1-3.4-1.6z"/><path class="u" d="m355.5 290.2c-0.3-0.2-0.5-0.5-0.6-0.9-0.5-1.3 0-2.8 0.8-4 2.6-3.5 12.6-11.6 16.8-6.6 2.1 2.6 3.3 5.2 4.4 8.3 1.3 3.5 2.4 7 3.3 10.7-0.7-0.1-1.3 0.3-1.5 0.9 0.3 0.5 0.8 0.7 1.2 1 0.4 0.4 0.8 0.9 0.5 1.4-0.2 0.3-0.6 0.5-0.9 0.6q-1.1 0.2-2.1 0.5c-0.2 0.1-0.4 0.1-0.5 0.1-0.2-0.1-0.3-0.3-0.4-0.5-0.7-1-14.8-8.3-14.2-8.9q1.4-1.3 2.8-2.7-3.3 0.9-6.6 1.9c0.8-1.5 2-2.8 3.5-3.8q-2.4 1-4.7 1.9-0.1 0-0.2 0c-0.5 0.2-1.1 0.4-1.6 0.1z"/><path class="v" d="m29.5 378v-339h441.5v339"/><path class="f" d="m143.6 155.5c-39.2 0-76.3-3.1-114.4-9.3v-25.1c37.3 15.2 74.8 26.1 114.4 34.4z"/><path class="f" d="m242.8 69c-72.6 13.3-141.4 13-213.6-0.4v-29.8c70.1 23.9 139.7 33.6 213.6 30.2z"/><path class="f" d="m140.1 115.9c64.7 2.1 126.4-5.2 188.9-22.1v40.4c-68.3 4.7-122.3-2-188.9-18.3z"/><path class="f" d="m284.6 314.7c-39.2 0-76.3-3.1-114.4-9.4v-25c37.3 15.2 74.8 26 114.4 34.4z"/><path class="f" d="m383.8 228.1c-72.6 13.3-141.4 13.1-213.6-0.3v-29.8c70.1 23.9 139.7 33.6 213.6 30.1z"/><path class="f" d="m281.1 275.1c64.7 2 126.4-5.2 188.9-22.1v40.4c-68.3 4.7-122.3-2-188.9-18.3z"/><path class="w" d="m363.5 45c-3.6 0-6.5-2.9-6.5-6.5 0-3.6 2.9-6.5 6.5-6.5 3.6 0 6.5 2.9 6.5 6.5 0 3.6-2.9 6.5-6.5 6.5z"/><path class="w" d="m471.5 268c-3.6 0-6.5-2.9-6.5-6.5 0-3.6 2.9-6.5 6.5-6.5 3.6 0 6.5 2.9 6.5 6.5 0 3.6-2.9 6.5-6.5 6.5z"/><path class="w" d="m29.5 268c-3.6 0-6.5-2.9-6.5-6.5 0-3.6 2.9-6.5 6.5-6.5 3.6 0 6.5 2.9 6.5 6.5 0 3.6-2.9 6.5-6.5 6.5z"/><path class="x" d="m225.4 390c0 5.6-0.5 11-1.5 16.3-1.8 9.3-5 18.1-9.5 26-2.7 4.9-6 9.5-9.7 13.6-13.3 15.2-32.1 24.6-52.9 24.6-20.7 0-39-9.2-52.3-24-3.8-4.2-7.2-8.8-10-13.8-3.2-5.6-5.8-11.6-7.7-18.1q-1.9-6.3-2.7-13-0.8-5.7-0.8-11.6c0-6 0.6-12.5 1.7-19.4 0.9-5 2-10.2 3.4-15.5 2.2-8.4 5-16.8 8.5-25.1 2.4-5.9 5.2-11.6 8.2-17.1 13.3-24.2 31.6-42.9 51.7-42.9 13 0 25.2 7.7 35.8 19.7 3.2 3.6 6.3 7.7 9.3 12.1q3.5 5.3 6.7 11.1c3 5.5 5.7 11.2 8.2 17.1 8.1 19.3 13 40.1 13.5 57q0.1 1.5 0.1 3z"/><path class="y" d="m81.8 414.6q-1.9-6.3-2.8-13c7.6 12.9 32.3 20.1 52.9 24-34.3-1.4-46.1-7.2-50.1-11z"/><path class="y" d="m196.9 301.8c-3.2 4.3-26.8 5.6-47.1 2.2 27-1.8 38.8-8.2 37.8-14.3 3.2 3.7 6.3 7.7 9.3 12.1z"/><path class="y" d="m211.8 330c-2.2 5.5-14.2 10.6-33.5 13.2-29.9 4-66 0.5-80.7-7.8-3.1-1.7-5-3.5-5.8-5.4 2.5-5.9 5.3-11.6 8.3-17.1 0.5 1.7 2.2 3.4 5.1 5 12.6 7.2 43.7 10.2 69.5 6.8 17-2.3 27.5-6.9 28.9-11.8 3 5.5 5.7 11.2 8.2 17.1z"/><path class="y" d="m214.4 432.3c-2.7 4.9-6 9.5-9.7 13.6-4.6 3.8-14.5 7-28.4 8.9-27.9 3.8-61.5 0.5-75.2-7.3q-0.9-0.5-1.6-1c-3.8-4.2-7.2-8.8-10-13.8q1.4 1.2 3.3 2.3c16 9 55.2 12.8 87.6 8.5 17.2-2.4 29.1-6.5 34-11.2z"/><path class="y" d="m206.8 372.8c-44.5 17.3-116.6 10.6-126.8-2.2 0.8-5 2-10.2 3.4-15.5 7.7 20.1 85.5 27.4 123.4 17.7z"/><path class="y" d="m225.4 390c0 5.6-0.5 11-1.5 16.3-8.1 5.3-50.3 8.8-96.5-3 50.3 4.2 90.6-4.9 97.9-16.3q0.1 1.5 0.1 3z"/><path class="z" d="m203.6 444.5c-13.1 14.8-31.7 24-51.7 24-20 0-38.1-8.9-51.1-23.4-3.7-4.1-6.9-8.6-9.7-13.5-3.2-5.4-5.7-11.3-7.5-17.6-1.2-4.1-2.1-8.3-2.7-12.7q-0.7-5.5-0.7-11.3c0-5.9 0.5-12.3 1.6-19 0.9-4.9 2-10 3.3-15.1 1.3-4.9 2.8-9.8 4.5-14.6 4.2-11.4 9.4-22.6 15.6-32.4-1 6.3-1.5 12.2-1.5 17.8 0 43.8 32.5 79.3 72.5 79.3 18.2 0 34.7-7.3 47.5-19.3q0 0.2 0 0.3 0 1.5 0 3 0 8.2-1.4 15.9c-1.7 9.1-4.9 17.7-9.2 25.3-2.8 4.8-5.9 9.3-9.5 13.4z"/></g></svg>