<?xml version="1.0" encoding="UTF-8"?><svg xmlns="http://www.w3.org/2000/svg" xmlns:xlink="http://www.w3.org/1999/xlink" viewBox="0 0 500 601"><defs><style>.cls-1{fill:#e8f8fe;}.cls-2{fill:#fff;}.cls-3{fill:#cacaca;}.cls-4{fill:#dcadde;}.cls-5{fill:#a6a6a6;}.cls-6{isolation:isolate;}.cls-7{fill:#fbd58f;}.cls-8{fill:#f0c6c6;}.cls-9{fill:#b83b3b;}.cls-10{fill:url(#Degradado_sin_nombre_5);}.cls-10,.cls-11,.cls-12,.cls-13,.cls-14,.cls-15{mix-blend-mode:multiply;}.cls-16{stroke:#fff;stroke-miterlimit:10;stroke-width:3px;}.cls-16,.cls-17{fill:none;}.cls-11,.cls-18{fill:#f1f1f1;}.cls-19{fill:#d1dee4;}.cls-20{fill:#3e3e3d;}.cls-21{clip-path:url(#clippath);}.cls-22{fill:#ebebeb;}.cls-12{opacity:.22;}.cls-23{fill:#cceaf0;}.cls-24{fill:#222221;}.cls-25{fill:#3f2d1f;}.cls-13{fill:#e4e4e4;}.cls-26{fill:#fff061;}.cls-14{fill:#d8d8d8;}</style><clipPath id="clippath"><rect class="cls-17" width="500" height="601"/></clipPath><linearGradient id="Degradado_sin_nombre_5" x1="249.15" y1="612.07" x2="250.44" y2="383.91" gradientUnits="userSpaceOnUse"><stop offset="0" stop-color="#fff"/><stop offset=".32" stop-color="#fcfcfc"/><stop offset=".52" stop-color="#f3f3f3"/><stop offset=".69" stop-color="#e5e5e5"/><stop offset=".84" stop-color="#d0d0d0"/><stop offset=".97" stop-color="#b6b6b6"/><stop offset="1" stop-color="#b0b0b0"/></linearGradient></defs><g class="cls-6"><g id="Capa_2"><g id="Capa_1-2"><g class="cls-21"><rect id="pared" class="cls-19" width="500" height="378"/><rect id="suelo" class="cls-23" x="-.34" y="382" width="500.34" height="219"/><rect id="suelo-2" class="cls-10" x="-.34" y="382" width="500.34" height="219"/><g id="alfombra"><polygon class="cls-13" points="540 601 0 601 .01 530.96 109.8 402.83 371.99 402 500 553.62 540 601"/><polygon id="alfombra-2" class="cls-7" points="537.38 601 -.38 601 .01 533.38 111.31 402.24 370.84 402 500 556.33 537.38 601"/><polygon class="cls-11" points="397.98 434.43 56.55 466.86 111.31 402.24 370.84 402 397.98 434.43"/></g><g id="zocalo"><rect class="cls-3" y="378.13" width="500" height="24.06"/><rect class="cls-5" y="399.79" width="500" height="2.4"/><rect class="cls-1" y="375.49" width="500" height="2.4"/></g><ellipse class="cls-12" cx="337.5" cy="465.5" rx="84.5" ry="14.5"/><ellipse class="cls-12" cx="152" cy="465.5" rx="68" ry="14.5"/><g><g><g id="ursids" class="cls-15"><circle class="cls-18" cx="88.6" cy="152.57" r="59.31"/><ellipse class="cls-18" cx="175.45" cy="80.76" rx="35.29" ry="43.69" transform="translate(-16.87 98.54) rotate(-30)"/><circle class="cls-18" cx="183.77" cy="190.24" r="28.76"/></g><g id="ursids-2" class="cls-15"><circle class="cls-18" cx="346.1" cy="290.07" r="59.31"/><ellipse class="cls-18" cx="432.95" cy="218.26" rx="35.29" ry="43.69" transform="translate(-51.13 245.72) rotate(-30)"/><circle class="cls-18" cx="441.27" cy="327.74" r="28.76"/></g></g><polyline class="cls-16" points="29.46 378 29.46 39 471 39 471 378"/></g><g><g id="G02L01T01_BNB"><path class="cls-2" d="m421.23,388.96v1.38c0,.48,0,.96-.02,1.43,0,.28,0,.57-.02.85-.02.48-.03.96-.06,1.44,0,.09,0,.19,0,.28,0,.24-.02.48-.03.72-.03.6-.07,1.2-.11,1.79,0,.04,0,.08,0,.13-.05.69-.11,1.38-.17,2.06v.02c-.06.6-.12,1.2-.19,1.79-.02.14-.02.27-.04.38,0,.02,0,.05,0,.07-.08.66-.17,1.32-.26,1.98-.02.14-.04.28-.06.42-.09.6-.18,1.19-.28,1.78-.02.06-.02.11-.03.17-.11.65-.23,1.29-.35,1.93,0,.07-.02.13-.04.2-.1.55-.22,1.1-.34,1.64-.08.39-.17.77-.26,1.16-.04.19-.08.37-.13.55-.12.5-.24.99-.37,1.47-.04.19-.09.37-.14.54-.09.4-.2.8-.32,1.19-.14.55-.31,1.1-.47,1.64-.16.54-.33,1.08-.5,1.61-.02.07-.04.13-.07.2-.12.38-.24.75-.37,1.12-.13.4-.28.8-.43,1.21-.21.58-.43,1.17-.65,1.74-.22.58-.46,1.16-.69,1.73-1.07,2.59-2.28,5.1-3.6,7.51-.18.35-.37.69-.57,1.03-.29.51-.59,1.02-.89,1.53-.24.39-.46.77-.71,1.15-.03.06-.07.13-.11.18-.3.48-.6.96-.91,1.43,0,.02-.02.05-.04.06-.29.44-.58.88-.88,1.32-.08.11-.15.22-.23.32-.28.4-.57.8-.85,1.21-.07.09-.14.2-.21.29-.28.38-.56.76-.84,1.13-.09.11-.17.22-.25.32-.29.38-.58.75-.87,1.12-1.12,1.39-2.29,2.75-3.49,4.06-.31.34-.62.67-.94.99-.72.75-1.45,1.49-2.2,2.21-.28.27-.55.54-.84.79-.63.59-1.27,1.17-1.92,1.73-.31.27-.62.54-.93.8-.16.13-.31.26-.46.39-.36.3-.73.6-1.1.89-.09.07-.18.15-.28.22-.4.32-.81.64-1.23.95-.09.06-.17.13-.24.18-.35.27-.7.53-1.06.78-.26.19-.53.38-.79.57-.46.33-.92.65-1.39.96-1.47.99-2.96,1.93-4.49,2.81-.51.3-1.03.59-1.54.87-.52.28-1.05.57-1.57.84-.53.28-1.06.54-1.59.8-.47.24-.95.46-1.43.69-.11.05-.22.1-.33.15-.41.19-.83.38-1.25.56-.14.07-.28.13-.43.19-.48.21-.96.42-1.45.61-.55.23-1.1.45-1.66.66-.56.22-1.13.43-1.69.63-1.13.41-2.28.79-3.43,1.15-.58.18-1.16.35-1.74.52-1.75.5-3.52.95-5.32,1.34-.6.13-1.21.25-1.8.37-.51.1-1.02.2-1.54.28-.17.03-.32.06-.49.09-.54.09-1.09.18-1.63.26-.61.09-1.23.18-1.85.26-2.47.32-4.98.53-7.52.64-1.27.06-2.55.08-3.83.08s-2.58-.02-3.86-.08c-.64-.03-1.28-.06-1.91-.1-.62-.04-1.25-.09-1.87-.14h-.04c-1.26-.11-2.51-.24-3.76-.41-.62-.08-1.25-.17-1.86-.26-.61-.09-1.24-.19-1.84-.3-.61-.1-1.21-.21-1.8-.33-.03,0-.07-.02-.1-.02-.58-.11-1.17-.24-1.74-.36-.61-.13-1.21-.27-1.8-.42-.6-.14-1.19-.29-1.78-.45-.6-.16-1.18-.32-1.77-.5-.58-.17-1.17-.35-1.75-.53-1.16-.36-2.31-.76-3.44-1.17-.57-.2-1.13-.42-1.69-.64-.56-.22-1.11-.44-1.65-.67-.02,0-.02,0-.04-.02-.39-.16-.78-.32-1.17-.5-.5-.22-1.01-.44-1.51-.68-.37-.17-.73-.33-1.1-.51-.15-.07-.31-.14-.46-.22-.42-.2-.83-.4-1.23-.61-.46-.23-.92-.47-1.38-.72-.39-.2-.76-.41-1.14-.62-.06-.03-.12-.06-.18-.1-.43-.23-.84-.47-1.26-.72-2.66-1.54-5.21-3.25-7.65-5.1-.51-.39-1.01-.77-1.51-1.17-.5-.39-.99-.8-1.47-1.21-.6-.5-1.2-1.02-1.78-1.54-.36-.32-.73-.65-1.08-.99-.45-.41-.88-.83-1.32-1.25l-.13-.13c-.43-.43-.87-.85-1.28-1.29-.39-.39-.76-.79-1.13-1.19-.1-.1-.2-.21-.31-.32-.33-.37-.67-.74-1.01-1.12-.08-.09-.17-.2-.25-.3-.36-.4-.72-.82-1.06-1.24l-.12-.14c-.28-.34-.57-.68-.84-1.02-2.83-3.51-5.37-7.31-7.57-11.36-.27-.48-.53-.97-.77-1.47,0,0-.02-.02-.02-.03-.25-.49-.5-.99-.75-1.49-.06-.12-.11-.24-.17-.35-.2-.39-.39-.8-.57-1.2-.11-.22-.21-.45-.31-.68-.14-.29-.27-.59-.39-.89-.13-.28-.25-.57-.37-.86-.18-.42-.35-.84-.52-1.26-.2-.51-.41-1.02-.61-1.54-.09-.23-.17-.46-.25-.69-.16-.43-.32-.85-.46-1.28-.2-.59-.41-1.19-.6-1.8-.89-2.73-1.64-5.56-2.24-8.46-.1-.41-.18-.83-.26-1.24-.05-.24-.09-.47-.13-.71-.09-.43-.17-.87-.24-1.31-.05-.28-.09-.57-.13-.85-.07-.37-.13-.75-.18-1.13-.05-.31-.09-.62-.13-.94-.06-.37-.1-.75-.14-1.12-.05-.36-.09-.73-.13-1.1-.02-.14-.03-.28-.05-.43,0-.06-.02-.11-.02-.17,0-.06-.02-.13-.02-.2-.02-.13-.02-.26-.04-.39-.03-.34-.07-.69-.09-1.03-.05-.47-.08-.95-.11-1.42-.02-.17-.03-.35-.04-.52-.04-.58-.08-1.17-.1-1.77l-.02-.57c-.02-.55-.05-1.1-.06-1.66-.02-.71-.03-1.42-.03-2.14v-.26c0-.38,0-.76,0-1.13,0-.24,0-.48,0-.72,0-.2,0-.4.02-.6,0-.28,0-.55.02-.83,0-.15,0-.31.02-.46v-.12c0-.14.02-.29.02-.43v-.07c0-.06,0-.12,0-.17,0-.13,0-.25.02-.38.02-.29.02-.59.05-.88.02-.39.04-.78.07-1.17.05-.79.11-1.58.18-2.37.03-.39.06-.8.1-1.19.04-.4.09-.8.13-1.2.04-.4.09-.8.13-1.2l.14-1.21s0-.06.02-.08c.05-.35.09-.71.13-1.06.02-.06.02-.13.03-.2.05-.36.1-.73.15-1.08.06-.37.11-.73.17-1.1,0-.04.02-.08.02-.12.06-.4.13-.8.2-1.21.06-.37.12-.75.18-1.12,0-.05.02-.09.02-.14.07-.39.14-.78.21-1.17,0-.02,0-.03,0-.05.07-.4.15-.8.23-1.2.07-.35.14-.71.2-1.07.02-.06.02-.1.04-.16.08-.41.17-.82.25-1.23.09-.4.17-.82.27-1.23,0-.02,0-.02,0-.04.06-.28.12-.56.19-.84.4.12,40.89,11.78,77.4,11.78s76.91-11.58,77.58-11.78h0c.06.29.13.58.2.87.09.41.18.82.27,1.23.06.31.13.61.19.91.02.11.04.22.06.32,0,.06.02.1.03.16.02.1.04.21.06.32.06.25.1.5.15.76.08.4.15.8.23,1.2.08.44.16.88.24,1.32.06.36.12.72.18,1.07.13.78.25,1.56.37,2.34,0,.06.02.12.02.18.02.13.04.28.06.41.06.41.11.81.17,1.21,0,.07.02.14.02.2.03.23.06.46.09.68.02.16.05.31.06.46v.04c.04.26.07.53.09.79,0,.05,0,.09.02.13.04.3.07.6.1.9.04.39.08.76.12,1.14.04.42.08.84.11,1.25.03.35.06.72.09,1.07l.02.31c.02.28.04.55.06.83,0,.06,0,.11,0,.17.04.61.08,1.23.1,1.84.02.2.02.4.03.6,0,.06,0,.11,0,.17v.07c0,.14.02.29.02.43,0,.04,0,.08,0,.12,0,.16,0,.32.02.46,0,.28.02.55.02.83v.15c0,.15,0,.3,0,.45,0,.24,0,.47.02.72Z"/><path class="cls-22" d="m342.39,453.7c-21.38,0-40.79-7.49-55.21-20.66-15.67-14.31-25.44-35.33-25.44-60.74,0-1.21.02-2.44.07-3.67-1.35,7.36-2.07,14.59-2.07,21.46,0,48.8,36.06,81.4,80.65,81.4s80.08-31.93,80.83-79.87c-8.19,37.9-40.42,62.09-78.83,62.09Z"/><path class="cls-20" d="m421.23,390.09c0,.07,0,.16,0,.25-.03,1.92-.37,8.1-.61,10.51-.01.14-.03.27-.04.38,0,.02,0,.05,0,.07h0c-.4-.16-39.31-15.93-80.19-15.93s-80.12,14.87-80.12,14.87c-.01-.11-.02-.24-.04-.38-.18-2.06-.47-7.61-.5-9.49,0-.1,0-.19,0-.27,0-.38,0-.76,0-1.13,0-.24,0-.48.01-.71,0-.2,0-.4.01-.6,0-.27.01-.55.02-.82,0-.15,0-.31.02-.46,0-.04,0-.08,0-.12,0-.17.01-.34.02-.51,0-.06,0-.12,0-.18,0-.13,0-.25.02-.38.01-.29.03-.59.04-.88.02-.39.04-.78.07-1.18.05-.78.11-1.57.18-2.37.04-.4.07-.79.11-1.19.04-.4.08-.8.12-1.2s.09-.8.14-1.2c.05-.4.1-.8.14-1.2,0-.03,0-.05,0-.08.05-.35.09-.71.14-1.06,0-.06.02-.13.03-.19.05-.36.1-.72.15-1.09.05-.36.11-.73.16-1.1,0-.04.01-.08.02-.12.12-.78.25-1.56.39-2.34,0-.05.01-.1.02-.14.07-.39.14-.78.21-1.17,0-.01,0-.03,0-.05.07-.4.15-.8.23-1.2.07-.35.14-.71.21-1.07.01-.05.02-.11.03-.16.08-.41.17-.82.25-1.23.09-.42.18-.85.28-1.27.06-.28.12-.56.18-.84h0c.4.12,40.9,11.78,77.4,11.78s77.58-11.78,77.58-11.78c.07.29.13.58.2.88.09.41.18.82.27,1.23.07.3.13.6.19.91.04.16.07.32.1.48.02.1.04.21.06.31.05.25.1.51.15.76.08.4.15.8.23,1.2.08.44.16.88.24,1.32.06.36.12.71.18,1.07.13.78.25,1.56.37,2.34.03.2.06.39.08.59.06.41.11.81.17,1.21,0,.07.02.14.03.21.05.38.1.76.14,1.14,0,.01,0,.03,0,.04.03.26.07.53.09.79,0,.04,0,.09.01.13.04.3.07.6.1.89.04.38.08.76.12,1.14.04.42.08.83.11,1.25.03.36.06.71.09,1.07,0,.11.02.21.02.31.02.28.04.55.06.83.06.87.11,1.73.14,2.59,0,.06,0,.12,0,.18,0,.17.02.34.02.51,0,.04,0,.08,0,.12,0,.15.01.31.02.46,0,.28.02.55.02.82,0,.2,0,.4.01.6,0,.24,0,.48.01.71,0,.38,0,.76,0,1.13Z"/><g><path class="cls-24" d="m265.52,398.39c-2.44-8.03-3.76-16.76-3.76-26.08,0-1.21.02-2.44.07-3.67-1.35,7.36-2.07,14.59-2.07,21.46,0,.34,0,.67.01,1.01.07,2.13.28,6.22.44,8.28.03.28.06.57.09.85.13-.05,1.98-.76,5.22-1.84Z"/><path class="cls-24" d="m421.2,391.79c-.66,3.02-1.47,5.95-2.43,8.8,1.17.44,1.8.7,1.82.71.01-.1.02-.19.04-.29.19-1.87.47-6.51.58-9.21Z"/></g></g><g id="G3L02T01_panda_blanco"><path class="cls-2" d="m417.96,362.87s-40.9,11.78-77.58,11.78-77-11.67-77.4-11.78c9.81-43.28,40.72-88.7,77.4-88.7s67.72,45.42,77.58,88.7Z"/><g><g><path class="cls-2" d="m392.11,306.11c-5.18-6.95-10.9-13.11-17.05-18.13,0,0-9.77-4.7-8.38-1.86.66,1.36,5.48,3.58,10.21,7.87,5.15,4.66,10.25,11.42,10.88,13l4.34-.88Z"/><path class="cls-2" d="m392.11,306.11c-5.18-6.95-10.9-13.11-17.05-18.13,0,0-9.77-4.7-8.38-1.86.66,1.36,5.48,3.58,10.21,7.87,5.15,4.66,10.25,11.42,10.88,13l4.34-.88Z"/><path class="cls-2" d="m392.11,306.11c-5.18-6.95-10.9-13.11-17.05-18.13,0,0-9.77-4.7-8.38-1.86.66,1.36,5.48,3.58,10.21,7.87,5.15,4.66,10.25,11.42,10.88,13l4.34-.88Z"/><path class="cls-22" d="m392.11,306.11c-5.18-6.95-10.9-13.11-17.05-18.13,0,0-9.77-4.7-8.38-1.86.66,1.36,5.48,3.58,10.21,7.87,5.15,4.66,10.25,11.42,10.88,13l4.34-.88Z"/></g><g><path class="cls-2" d="m294.81,305.51c2.17-5.17,11.08-15,18.78-19.52,3.43-2.01,5.34-5.83,1.17-4.88-11.17,6.73-21.23,17.34-29.57,29.96,2.7-1.83,6.03-4.08,9.62-5.56Z"/><path class="cls-2" d="m294.81,305.51c2.17-5.17,11.08-15,18.78-19.52,3.43-2.01,5.34-5.83,1.17-4.88-11.17,6.73-21.23,17.34-29.57,29.96,2.7-1.83,6.03-4.08,9.62-5.56Z"/><path class="cls-2" d="m294.81,305.51c2.17-5.17,11.08-15,18.78-19.52,3.43-2.01,5.34-5.83,1.17-4.88-11.17,6.73-21.23,17.34-29.57,29.96,2.7-1.83,6.03-4.08,9.62-5.56Z"/><path class="cls-22" d="m294.81,305.51c2.17-5.17,11.08-15,18.78-19.52,3.43-2.01,5.34-5.83,1.17-4.88-11.17,6.73-21.23,17.34-29.57,29.96,2.7-1.83,6.03-4.08,9.62-5.56Z"/></g></g></g><ellipse id="G14L03T03_vacio_pardo" class="cls-25" cx="309.87" cy="336.26" rx=".13" ry=".14"/><circle id="G15L04T03_vacio_pardo" class="cls-25" cx="371.7" cy="336.35" r=".21"/><g><g id="G14L03T01_panda_negro"><path class="cls-20" d="m294.11,325.21c-5.67,10.15-22.01,17.5-15.01,26.78,7,9.28,29.95,6.71,39.24-.29,9.28-7,11.13-20.19,4.14-29.47-7-9.28-19.32-13.21-28.36,2.98Z"/><path class="cls-24" d="m317.18,341.94c-4.16,4.91-20,6.25-23.61,1-4.49-6.52,2.94-9.57,6.26-15.08,4.62-7.68,11.77-8.86,16.1-2.27,3.5,5.33,5.42,11.44,1.26,16.35Z"/></g><g id="G15L04T01_panda_negro"><path class="cls-20" d="m386.85,325.21c5.67,10.15,22.01,17.5,15.01,26.78-7,9.28-29.95,6.71-39.24-.29-9.28-7-11.13-20.19-4.14-29.47,7-9.28,19.32-13.21,28.36,2.98Z"/><path class="cls-24" d="m363.78,341.94c4.16,4.91,20,6.25,23.61,1,4.49-6.52-2.94-9.57-6.26-15.08-4.62-7.68-11.77-8.86-16.1-2.27-3.5,5.33-5.42,11.44-1.26,16.35Z"/></g></g><g id="G04L05T01_negro"><circle class="cls-2" cx="309.69" cy="335.51" r="7.52"/><circle class="cls-24" cx="309.69" cy="335.51" r="5.86"/><circle class="cls-2" cx="307.98" cy="333.17" r="1.64"/></g><g id="G05L06T01_negro"><circle class="cls-2" cx="371.63" cy="335.51" r="7.52"/><circle class="cls-24" cx="371.63" cy="335.51" r="5.86"/><circle class="cls-2" cx="369.76" cy="333.17" r="1.64"/></g><path id="G06L07T01_cerrada" class="cls-24" d="m346.04,362.58c-.3.1-.62.13-.93.19-.32.02-.62.07-.94.05-.62-.01-1.24-.09-1.85-.25l-.45-.13c-.15-.05-.3-.1-.44-.16-.2-.07-.4-.16-.59-.26v-3.43h-.9v3.45c-.18.11-.39.21-.59.29-.29.12-.58.22-.89.29-.6.16-1.23.23-1.87.22-.16,0-.32-.02-.48-.03l-.24-.02-.24-.04c-.16-.03-.32-.04-.48-.08l-.47-.12-.24-.06-.23-.08-.47-.15c-.16-.05-.3-.12-.46-.19l-.47-.19c.27.2.54.4.82.58.15.08.3.16.45.25l.22.12.23.1c.62.28,1.3.45,1.99.54.69.09,1.4.03,2.09-.1.35-.07.68-.18,1.01-.31.26-.11.5-.21.75-.36.25.12.48.22.73.31.32.12.65.22.99.29.67.14,1.37.2,2.05.13.34-.02.68-.09,1.02-.16.33-.11.66-.19.96-.34.63-.26,1.17-.67,1.66-1.11-.6.29-1.17.58-1.8.73Z"/><g id="G07L08T01_panda_negro"><g id="rubor"><circle id="rubor_D" class="cls-4" cx="386.99" cy="356.79" r="8.98"/><circle id="rubor_I" class="cls-4" cx="293.96" cy="356.79" r="8.98"/></g><path class="cls-20" d="m347.83,353.65c0,2.96-3.43,5.36-7.65,5.36s-7.65-2.4-7.65-5.36,3.43-2.56,7.65-2.56,7.65-.4,7.65,2.56Z"/><path class="cls-24" d="m347.83,353.65c0,2.96-3.43,5.36-7.65,5.36s-7.65-2.4-7.65-5.36,3.5.74,7.73.74,7.58-3.7,7.58-.74Z"/></g><g id="G08L09T01_negro_panda"><path class="cls-20" d="m288.5,305.18c7.16,7.82,6.34-5.8,14.17-12.96,7.82-7.16,21.33-5.14,14.17-12.96s-19.31-8.36-27.13-1.21c-7.82,7.16-8.36,19.31-1.21,27.13Z"/><path class="cls-24" d="m295.4,285.16c4.82-4.41,12.3-4.08,16.71.74.32.35.57.66.76.95-3.25,1.14-7.24,2.53-10.34,5.37-3.4,3.11-5.17,7.45-6.67,10.72-.36-.23-.75-.59-1.2-1.07-4.41-4.82-4.08-12.3.74-16.71Z"/></g><g id="G09L10T01_oreja_D_N"><path class="cls-20" d="m393.19,305.18c-7.16,7.82-6.34-5.8-14.17-12.96-7.82-7.16-21.33-5.14-14.17-12.96s19.31-8.36,27.13-1.21c7.82,7.16,8.36,19.31,1.21,27.13Z"/><path class="cls-24" d="m386.17,285.16c-4.82-4.41-12.3-4.08-16.71.74-.32.35-.57.66-.76.95,3.25,1.14,7.24,2.53,10.34,5.37,3.4,3.11,5.17,7.45,6.67,10.72.36-.23.75-.59,1.2-1.07,4.41-4.82,4.08-12.3-.74-16.71Z"/></g><g id="G10L11T01_negro_panda"><path class="cls-20" d="m310.12,435.58c4.85,2.19,10.5,8.73,13.26,12.32,4.17,5.43,7.83,12.66,5.4,18.05-4.04,8.95-17.2,8.67-29.38,3.17-12.19-5.5-18.79-17.22-14.75-26.17,4.04-8.95,13.28-12.86,25.47-7.36Z"/><path class="cls-24" d="m326.71,452.88c.2,1.81.01,3.56-.7,5.15-4.04,8.95-17.2,8.67-29.38,3.17-5.8-2.62-10.33-6.65-13.06-11.12.74,7.31,6.74,14.91,15.85,19.03,12.19,5.5,25.34,5.79,29.38-3.17,1.74-3.85.36-8.65-2.09-13.06Z"/></g><g id="G11L12T01_negro_panda"><path class="cls-20" d="m369.86,436.14c-5.54,2.5-13.64,12.13-16.4,16.35-3.31,5.07-4.47,8.29-2.26,13.18,4.04,8.95,17.2,8.95,29.38,3.44,12.19-5.5,18.79-17.22,14.75-26.17-4.04-8.95-13.28-12.3-25.47-6.8Z"/><path class="cls-24" d="m386.87,462.54c-12.19,5.5-25.34,5.51-29.38-3.44-2.21-4.88-1.05-8.1,2.26-13.18.93-1.42,2.47-3.47,4.32-5.64-4.35,3.93-8.72,9.33-10.6,12.21-3.31,5.07-4.47,8.29-2.26,13.18,4.04,8.95,17.2,8.95,29.38,3.44,5.42-2.45,9.74-6.13,12.5-10.25-1.86,1.41-3.94,2.65-6.22,3.68Z"/></g><g id="G12L13T01_negro_panda"><path class="cls-20" d="m296.6,386.01c1.94,12.3,10.47,28.83,3.22,35.46-7.25,6.63-20.44,4.01-29.46-5.86-5.94-6.49-8.59-16.92-7.65-25.19.49-4.29,1.95-8,4.43-10.27,2.51-2.3,6.64-3.66,11.02-3.99,8.25-.62,16.88-.08,18.44,9.85Z"/><path class="cls-24" d="m299.82,416.04c-7.25,6.63-20.44,4.01-29.46-5.86-4.54-4.96-7.16-12.23-7.72-19.07-.72,8.15,1.95,18.18,7.72,24.5,9.03,9.87,22.22,12.49,29.46,5.86,2.7-2.47,3.21-6.31,2.69-10.8-.34,2.14-1.16,3.98-2.69,5.37Z"/></g><g id="G13L14T01_negro_panda"><path class="cls-20" d="m384.35,386.01c-1.94,12.3-10.47,28.83-3.22,35.46,7.25,6.63,20.44,4.01,29.46-5.86,5.94-6.49,8.59-16.92,7.65-25.19-.49-4.29-1.95-8-4.43-10.27-2.51-2.3-6.64-3.66-11.02-3.99-8.25-.62-16.88-.08-18.44,9.85Z"/><path class="cls-24" d="m410.59,412.47c-9.03,9.87-22.22,12.49-29.46,5.86-1.76-1.61-2.59-3.8-2.81-6.38-.28,3.94.37,7.29,2.81,9.52,7.25,6.63,20.44,4.01,29.46-5.86,5.51-6.02,8.19-15.44,7.8-23.37-.35,7.17-3,14.98-7.8,20.23Z"/></g></g><g><path class="cls-9" d="m224.93,393.02c0,.41,0,.82,0,1.23-.03,1.94-.12,3.86-.26,5.76-.25,3.14-.66,6.24-1.23,9.27h0c-.83,4.45-2,8.75-3.48,12.9-.61,1.71-1.27,3.4-1.98,5.06-1.19,2.77-2.52,5.45-3.98,8.03h0c-.19.34-.39.68-.59,1.02-2.65,4.54-5.71,8.77-9.11,12.63,0,0,0,0,0,0-.89,1.01-1.81,1.99-2.74,2.95-1.61,1.65-3.29,3.21-5.03,4.69-2.86,2.44-5.89,4.65-9.06,6.6-2.33,1.44-4.73,2.74-7.21,3.89-1.87.88-3.79,1.67-5.74,2.38-2.59.94-5.25,1.72-7.96,2.34-.09.02-.18.04-.27.06-1.38.3-2.82.57-4.38.83,0,0,0,0,0,0-.08.01-.16.03-.23.04,0,0-.02,0-.03,0-.14.02-.27.04-.41.06,0,0-.01,0-.02,0-.9.13-1.8.25-2.71.34-.08,0-.17.02-.26.03-.03,0-.06,0-.1,0-.04,0-.09,0-.14.01-.14.01-.29.03-.46.04-.04,0-.08,0-.12.01-.1,0-.2.02-.31.03-.14.01-.28.02-.42.03-.01,0-.02,0-.04,0-.35.03-.7.05-1.05.07-.1,0-.2.01-.28.02h-.02s-.02,0-.03,0c-.07,0-.14,0-.22.01-.04,0-.09,0-.14,0-.18.01-.37.02-.55.03-.05,0-.11,0-.17,0,0,0-.01,0-.02,0-.04,0-.07,0-.11,0-.03,0-.05,0-.08,0-.02,0-.05,0-.08,0-.06,0-.11,0-.17,0-.06,0-.12,0-.18,0-.03,0-.05,0-.08,0-.04,0-.09,0-.13,0-.01,0-.02,0-.03,0-.03,0-.07,0-.1,0-.2,0-.39,0-.59.01-.04,0-.07,0-.11,0-.04,0-.09,0-.14,0h-.02c-.07,0-.14,0-.21,0-.22,0-.39,0-.57,0-.1,0-.2,0-.32,0-.56,0-1.12,0-1.68-.02-.02,0-.04,0-.06,0-.04,0-.08,0-.11,0,0,0-.01,0-.02,0-.03,0-.06,0-.09,0h-.19c-.08,0-.16-.01-.23-.02-.05,0-.11,0-.16,0-.06,0-.12,0-.18,0-.02,0-.03,0-.05,0-.1,0-.2,0-.31-.01-.29-.01-.58-.03-.87-.05-.21-.01-.4-.02-.56-.04-.04,0-.08,0-.11,0-.26-.02-.52-.04-.78-.06-.05,0-.1,0-.16-.01-.01,0-.02,0-.03,0-4.1-.35-8.11-1.06-12-2.11-.22-.06-.44-.12-.66-.18-.22-.06-.45-.12-.67-.19-.02,0-.03,0-.04-.01-.09-.03-.18-.05-.28-.08-.49-.14-.98-.3-1.47-.46-.06-.02-.13-.04-.19-.06-.01,0-.02,0-.03,0-.33-.11-.66-.22-.98-.33-1.71-.59-3.39-1.24-5.04-1.96-.04-.02-.08-.04-.12-.05-2.95-1.29-5.8-2.77-8.54-4.45-.02-.01-.04-.02-.06-.04-1.13-.69-2.24-1.41-3.34-2.17-2.1-1.45-4.12-3.01-6.07-4.67-2.52-2.15-4.9-4.47-7.14-6.95,0,0,0,0,0,0-3.68-4.08-6.97-8.59-9.79-13.47-.07-.12-.14-.24-.21-.37,0,0,0,0,0,0-1.82-3.18-3.45-6.51-4.86-9.97-1.07-2.62-2.01-5.31-2.82-8.07h0c-1.12-3.82-1.99-7.76-2.58-11.79-.06-.41-.12-.81-.17-1.22h0c-.28-2.15-.49-4.31-.62-6.51-.03-.56-.06-1.12-.08-1.69,0-.02,0-.04,0-.06-.04-1.12-.06-2.23-.06-3.36,0-1.9.06-3.86.18-5.87.22-3.69.63-7.54,1.23-11.5.1-.67.21-1.35.32-2.03.34-2.07.73-4.17,1.17-6.29.47-2.25.99-4.53,1.56-6.82.2-.81.41-1.61.62-2.42.7-2.65,1.47-5.32,2.3-7.99.86-2.76,1.79-5.52,2.78-8.27.87-2.42,1.8-4.84,2.77-7.23.21-.52.43-1.04.64-1.55,1.23-2.95,2.53-5.86,3.9-8.72.46-.96.92-1.91,1.4-2.86.94-1.89,1.92-3.75,2.92-5.58.72-1.32,1.46-2.62,2.21-3.9.27-.46.54-.92.82-1.37h0c1.3-2.17,2.64-4.29,4.03-6.33,4.41-6.52,9.21-12.36,14.32-17.18,1.73-1.63,3.5-3.15,5.3-4.53,3.5-2.69,7.13-4.89,10.85-6.5.72-.31,1.45-.61,2.19-.87.01,0,.03-.01.04-.01,1.48-.54,2.97-.98,4.47-1.33.65-.15,1.29-.28,1.94-.39.31-.05.63-.1.94-.14.1-.02.19-.03.29-.04,0,0,0,0,.02,0,.09-.01.18-.02.27-.03.02,0,.03,0,.04,0,.04,0,.08,0,.12-.01.05,0,.1-.01.15-.02.03,0,.07,0,.1-.01.02,0,.04,0,.06,0,.07,0,.14-.02.22-.02.16-.02.31-.03.46-.05.06,0,.12-.01.19-.02h0c.18-.02.37-.03.55-.04.03,0,.06,0,.09,0,.04,0,.07,0,.1,0,.07,0,.14,0,.2-.01.03,0,.06,0,.08,0,.05,0,.09,0,.14,0,.04,0,.09,0,.14,0,.09,0,.19,0,.33-.01.04,0,.08,0,.13,0,0,0,.02,0,.03,0h.09s.07,0,.1,0c.02,0,.04,0,.06,0h.02s.02,0,.02,0h.11s.04,0,.06,0h0c.16,0,.31,0,.47,0,.04,0,.08,0,.13,0,.27,0,.53,0,.8.01.39,0,.77.03,1.16.05,1.45.09,2.89.28,4.31.55.61.12,1.22.25,1.83.41,4.35,1.08,8.58,3,12.67,5.6,1.29.82,2.57,1.72,3.83,2.67,3.84,2.91,7.52,6.41,11.04,10.37.95,1.07,1.88,2.17,2.8,3.31,1.41,1.74,2.79,3.55,4.14,5.43.79,1.1,1.57,2.23,2.34,3.38,2.36,3.52,4.6,7.24,6.72,11.1h0c1.78,3.24,3.46,6.58,5.05,9.98,1.07,2.28,2.09,4.6,3.07,6.93.03.07.06.13.08.2,3.88,9.3,7.03,18.94,9.32,28.31.58,2.39,1.11,4.76,1.58,7.1.07.34.13.67.2,1.01,1.4,7.21,2.23,14.16,2.44,20.55.03,1.03.05,2.04.05,3.04Z"/><g><path class="cls-8" d="m225.72,388.46v.28c.04,1.44.1,3.36.09,4.8-.09,1.99-.15,4.66-.32,6.65-3.33,32.15-19.24,41.54-30.71,28.15-20.53-23.96,4.4-68.49,19.2-67.61,9.75.58,11.44,21.37,11.73,27.73h0Z"/><path class="cls-8" d="m160.6,472.87q-2.36.29-3.53.38-2.11.15-3.15.19-1.99.05-2.98.04c-.53-.01-1.24-.02-1.78-.04-3.53-.51-3.93-4.22.87-8.05,10.48-8.38,37.86-11.96,37.08-4.85-.22,2.01-3.58,5.42-10.44,8.15-3.05,1.12-8.73,3.21-16.07,4.18h0Z"/><path class="cls-8" d="m99.43,371.94l-.07.34c-6.32,27-18.45,28-20.85,25.13-.24-.29-.45-.62-.61-.98,0-.02,0-.04,0-.06-.04-1.12-.06-2.23-.06-3.36,0-1.9.06-3.86.18-5.87.22-3.69.63-7.54,1.23-11.5.1-.67.21-1.35.32-2.03.34-2.07.73-4.17,1.17-6.29.47-2.25.99-4.53,1.56-6.82.2-.81.41-1.61.62-2.42.7-2.65,1.47-5.32,2.3-7.99.86-2.76,1.79-5.52,2.78-8.27.87-2.42,1.8-4.84,2.77-7.23.21-.52.43-1.04.64-1.55,1.23-2.95,2.53-5.86,3.9-8.72.85-1.18,1.99-1.77,3.16,1.71,1.89,5.6,4.85,26.75.95,45.92Z"/><path class="cls-8" d="m174.14,316.6l.1.34c9.8,39.15-23.4,50.33-39.78,40.87-30.16-17.42-2.27-68.25,14.51-72.72,6.29-1.67,20.64,16.28,25.17,31.5h0Z"/><path class="cls-8" d="m160.48,419.71v.19c-1.93,22.22-28.12,25.68-40.38,10.15-11.93-15.12-1.18-33.83,18.27-31.77,10.85,1.15,22.39,9.66,22.11,21.42h0Z"/><path class="cls-8" d="m134.56,468.24l.06.07c1.5,1.69,2.83,3.38,2.9,3.7-.09,0-.21,0-.3-.02-1.37-.31-3.19-.76-4.54-1.13-3.74-1.15-4.04-1.25-6.42-2.17-1.7-.72-3.96-1.7-5.63-2.5-10.95-5.64-14.26-10.59-11.73-11.51,3.36-1.23,17.06,4.15,25.66,13.55h0Z"/><path class="cls-8" d="m197.34,308.42l.11.17c10,15.39,10.93,26.02,5.08,25.25-11.47-1.51-25.13-36.39-21.78-39.66,1.91-1.85,9.73,4.08,16.59,14.24h0Z"/></g><path class="cls-14" d="m203.26,447.55c3.57-4.05,6.75-8.51,9.47-13.32h0c4.34-7.68,7.5-16.24,9.21-25.37h0c.96-5.13,1.46-10.43,1.46-15.87,0-.97-.02-1.96-.05-2.97,0-.11,0-.22-.01-.33-12.72,12.04-29.3,19.33-47.44,19.33-40.06,0-72.54-35.53-72.54-79.37,0-5.51.51-11.51,1.49-17.78-6.15,9.86-11.43,21.02-15.58,32.41-1.72,4.86-3.23,9.76-4.5,14.6-1.36,5.15-2.46,10.23-3.27,15.16-1.11,6.7-1.69,13.1-1.69,18.95,0,3.85.25,7.63.74,11.33h0c.57,4.36,1.48,8.61,2.68,12.71h0c1.83,6.25,4.36,12.15,7.49,17.61,0,0,0,0,0,0,2.79,4.89,6.07,9.41,9.76,13.5,0,0,0,0,0,0,13.02,14.44,31.11,23.39,51.12,23.39s38.59-9.2,51.65-23.99c0,0,0,0,0,0Z"/></g><circle class="cls-26" cx="363.5" cy="38.5" r="6.5"/><circle class="cls-26" cx="471.5" cy="261.5" r="6.5"/><circle class="cls-26" cx="29.5" cy="261.5" r="6.5"/></g></g></g></g></svg>