<?xml version="1.0" encoding="UTF-8"?><svg xmlns="http://www.w3.org/2000/svg" xmlns:xlink="http://www.w3.org/1999/xlink" viewBox="0 0 500 503"><defs><style>.cls-1{fill:#e5bda1;}.cls-2{fill:#e8f8fe;}.cls-3{fill:#fff;}.cls-4,.cls-5,.cls-6,.cls-7,.cls-8,.cls-9,.cls-10,.cls-11,.cls-12,.cls-13,.cls-14{mix-blend-mode:multiply;}.cls-4,.cls-15{fill:#3e3e3d;}.cls-16{fill:#cacaca;}.cls-17,.cls-9{fill:#dcadde;}.cls-5,.cls-18{fill:#895763;}.cls-19{fill:#f9eb37;}.cls-20{fill:#a6a6a6;}.cls-21{isolation:isolate;}.cls-22{fill:#fbd58f;}.cls-23{fill:#cc7b88;}.cls-6{fill:url(#Degradado_sin_nombre_5);}.cls-24{stroke:#fff;stroke-miterlimit:10;stroke-width:3px;}.cls-24,.cls-25{fill:none;}.cls-26,.cls-12{fill:#9b9b9a;}.cls-7,.cls-27{fill:#f1f1f1;}.cls-28{fill:#f1dff5;}.cls-29{fill:#d1dee4;}.cls-8{fill:#6f6f6f;}.cls-30{clip-path:url(#clippath);}.cls-31{fill:#d6a656;}.cls-32,.cls-11{fill:#ebebeb;}.cls-10{opacity:.22;}.cls-33{fill:#cceaf0;}.cls-34{fill:#222221;}.cls-13{fill:#e4e4e4;}.cls-35{fill:#fff061;}</style><clipPath id="clippath"><rect class="cls-25" width="500" height="503"/></clipPath><linearGradient id="Degradado_sin_nombre_5" x1="249.45" y1="509.8" x2="250.17" y2="382.44" gradientUnits="userSpaceOnUse"><stop offset="0" stop-color="#fff"/><stop offset=".32" stop-color="#fcfcfc"/><stop offset=".52" stop-color="#f3f3f3"/><stop offset=".69" stop-color="#e5e5e5"/><stop offset=".84" stop-color="#d0d0d0"/><stop offset=".97" stop-color="#b6b6b6"/><stop offset="1" stop-color="#b0b0b0"/></linearGradient></defs><g class="cls-21"><g id="Capa_2"><g id="Capa_1-2"><g class="cls-30"><rect id="pared" class="cls-29" width="500" height="378"/><g id="suelo"><rect id="suelo-2" class="cls-33" x="-.34" y="382" width="500.34" height="121"/><rect id="suelo-3" class="cls-6" x="-.34" y="382" width="500.34" height="121"/></g><g id="alfombra"><polygon class="cls-13" points="540 606 -60 606 109.8 402.85 371.99 402 540 606"/><polygon id="alfombra-2" class="cls-22" points="537.38 606 -57.38 606 111.31 402.25 370.84 402 537.38 606"/><polygon class="cls-7" points="397.98 435.25 56.55 468.49 111.31 402.25 370.84 402 397.98 435.25"/></g><g id="zocalo"><rect class="cls-16" y="378.13" width="500" height="24.06"/><rect class="cls-20" y="399.79" width="500" height="2.4"/><rect class="cls-2" y="375.49" width="500" height="2.4"/></g><ellipse class="cls-10" cx="351" cy="430.5" rx="93" ry="14.5"/><ellipse class="cls-10" cx="131" cy="430.5" rx="93" ry="14.5"/><g><polyline class="cls-24" points="29.46 378 29.46 39 471 39 471 378"/><g><g id="felino" class="cls-14"><g><path class="cls-27" d="m143.6,155.51c-39.21-.02-76.26-3.09-114.4-9.35v-25.08c37.26,15.26,74.83,26.09,114.4,34.42Z"/><path class="cls-27" d="m242.79,68.97c-72.56,13.28-141.4,13.04-213.59-.34v-29.8c70.08,23.88,139.65,33.56,213.59,30.14Z"/><path class="cls-27" d="m140.12,115.9c64.7,2.07,126.38-5.15,188.85-22.07l.04,40.35c-68.29,4.73-122.34-1.96-188.88-18.28Z"/></g></g><g id="felino-2" class="cls-14"><g><path class="cls-27" d="m284.6,314.68c-39.21-.02-76.26-3.09-114.4-9.35v-25.08c37.26,15.26,74.83,26.09,114.4,34.42Z"/><path class="cls-27" d="m383.79,228.14c-72.56,13.28-141.4,13.04-213.59-.34v-29.8c70.08,23.88,139.65,33.56,213.59,30.14Z"/><path class="cls-27" d="m281.12,275.07c64.7,2.07,126.38-5.15,188.85-22.07l.04,40.35c-68.29,4.73-122.34-1.96-188.88-18.28Z"/></g></g><circle class="cls-35" cx="363.5" cy="38.5" r="6.5"/><circle class="cls-35" cx="471.5" cy="261.5" r="6.5"/><circle class="cls-35" cx="29.5" cy="261.5" r="6.5"/></g></g><g><g id="G01L01T010101_gatoNegro_sin"><path class="cls-15" d="m496.17,219.64c-.4,1.12-.91,2.15-1.52,3.13-.05.07-.09.15-.14.22-.1.16-.2.32-.32.48-.37.56-.78,1.09-1.23,1.6-.17.23-.37.44-.57.66-.03.05-.07.08-.11.12-.2.22-.42.43-.63.65-.65.65-1.33,1.25-2.03,1.8-.32.25-.65.51-.97.75-.65.49-1.31.95-1.99,1.39-1.37.92-2.79,1.76-4.19,2.55-.49.27-.97.54-1.47.8-.1.07-.22.12-.33.18-1.48.79-3,1.54-4.51,2.22-3.01,1.38-6.54,2.86-9.97,3.49,1.27.25,2.53.51,3.8.76-3.16.52-6.31,1.05-9.47,1.57,1.44.43,2.88.86,4.32,1.3-5.39.92-10.93,2.07-15.33,4.71-.46.27-.92.57-1.35.87-1.43,1.02-2.76,2.11-4.01,3.25-5.2,4.74-9.83,12.15-12.28,18.49-3.26,8.44-4,17.15-5.53,25.97-1.57,9.02-4.52,17.81-8.71,25.95-3.24,6.29-7.52,11.7-14.51,13.77,1.06.12,2.13.25,3.21.37-4.1,2.99-9.27,4.74-14.23,6.15-.88.26-1.76.5-2.61.74-6.36,1.77-12.93,2.72-19.51,3.12-5.04.29-10.09.25-14.96-.15-8.06-.65-24.04-2.29-27.86-10.67-.78-1.73-.78-3.97.51-5.35.94-1.02,2.38-1.4,3.74-1.69.43-.09.85-.17,1.27-.24.28-.06.57-.1.84-.14.19-.03.37-.06.56-.08.39-.06.77-.1,1.14-.14.43-.05.85-.09,1.27-.12,7.25-.56,14.47.52,21.71-.5,5.66-.8,11.35-1.28,17.01-2.27.15-.02.31-.06.48-.08,1.04-.19,2.07-.4,3.1-.62,2.2-.5,4.35-1.1,6.42-1.8,2.35-.78,4.59-1.72,6.68-2.83,3.75-1.96,7-4.43,9.48-7.5,14.47-17.95,4.31-44.75,12.93-65.18,5.64-13.38,15.13-25.27,26.14-34.68-.11.35-.15.72-.12,1.08,1.55-1.31,2.91-2.73,4.57-3.9,1.88-1.33,4-2.4,5.84-3.77,4.43-2.62,9.06-4.8,13.82-6.47-.45.62-.91,1.23-1.37,1.86,1.38-1.87,9.7-1.74,11.84-1.61,4.57.28,9.04,1.51,13.12,3.57.23.11.45.23.67.35,2.72,1.45,4.95,3.34,6.39,5.6.27.43.51.86.74,1.31,1.22,2.62,1.45,5.63.26,8.96Z"/><path class="cls-4" d="m496.17,219.64c-.4,1.12-.91,2.15-1.52,3.13-.05.07-.09.15-.14.22-.1.16-.2.32-.32.48-.37.56-.78,1.09-1.23,1.6-.17.23-.37.44-.57.66-.03.05-.07.08-.11.12-.2.22-.42.43-.63.65-.65.65-1.33,1.25-2.03,1.8-.32.25-.65.51-.97.75-.65.49-1.31.95-1.99,1.39-1.37.92-2.79,1.76-4.19,2.55-.49.27-.97.54-1.47.8-.1.07-.22.12-.33.18-1.48.79-3,1.54-4.51,2.22-3.01,1.38-6.54,2.86-9.97,3.49,1.27.25,2.53.51,3.8.76-3.16.52-6.31,1.05-9.47,1.57,1.44.43,2.88.86,4.32,1.3-5.39.92-10.93,2.07-15.33,4.71-.46.27-.92.57-1.35.87-1.43,1.02-2.76,2.11-4.01,3.25-5.2,4.74-9.83,12.15-12.28,18.49-3.26,8.44-4,17.15-5.53,25.97-1.57,9.02-4.52,17.81-8.71,25.95-3.24,6.29-7.52,11.7-14.51,13.77,1.06.12,2.13.25,3.21.37-4.1,2.99-9.27,4.74-14.23,6.15-.88.26-1.76.5-2.61.74-6.36,1.77-12.93,2.72-19.51,3.12-5.04.29-10.09.25-14.96-.15-8.06-.65-24.04-2.29-27.86-10.67-.78-1.73-.78-3.97.51-5.35.94-1.02,2.38-1.4,3.74-1.69.43-.09.85-.17,1.27-.24.28-.06.57-.1.84-.14.19-.03.37-.06.56-.08.39-.06.77-.1,1.14-.14.43-.05.85-.09,1.27-.12,7.25-.56,14.47.52,21.71-.5,5.66-.8,11.35-1.28,17.01-2.27.15-.02.31-.06.48-.08,1-.14,2.2-.24,3.1-.62,2.2-.5,4.35-1.1,6.42-1.8,2.35-.78,4.59-1.72,6.68-2.83-.07.99-.11,1.87-.19,2.47-.42,3.34-.14,6.19,1.85,9.01.23.31.48.62.84.76.43.17.92.03,1.36-.12,4.29-1.51,7.9-4.86,9.71-9.04.19.63.39,1.28.58,1.91-.18-.61,2.45-3.95,2.83-4.65,1.05-1.82,2.05-3.69,2.99-5.6,1.73-3.52,2.8-7,4.04-10.68,2.46-7.27,4-14.85,4.99-22.46.99-7.59,1.23-15.02,3.66-22.44,2.08-6.38,5.37-12.46,10.16-17.18-.15,1.53,0,3.08.42,4.57,1.87-2.37,4-4.54,6.32-6.48-.02.74-.06,1.46-.08,2.19.06-1.35,4.21-2.81,5.21-3.39,2.61-1.52,5.13-2.99,7.93-4.17,8.53-3.59,17.83-4.88,26.07-9.21,5.08-2.66,9.69-6.5,12.32-11.59.41.51.8,1.01,1.21,1.51.6-1.59,1.21-3.16,1.82-4.75,1.22,2.62,1.45,5.63.26,8.96Z"/></g><g id="G10L02T010101_gatoNegro_sin"><path class="cls-15" d="m323.13,429.71c-.07.23-.15.44-.23.66-.06.16-.12.32-.19.48-.05.1-.1.23-.16.33-.12.26-.26.51-.41.75-.14.24-.28.46-.46.7-1.36,1.84-3.25,2.96-5.37,3.55-1.84.52-3.85.65-5.83.5-.37-.02-.74-.06-1.12-.1-.35-.03-.73-.09-1.1-.16-.41-.07-.82-.15-1.21-.23-.35-.08-.71-.17-1.08-.23-.46-.09-.94-.16-1.43-.17-.99-.01-1.95.25-2.91.48-2.63.65-5.4,1.11-8.08.87-.18-.01-.36-.03-.54-.06-1.12-.14-2.23-.41-3.3-.86-.52-.22-1.03-.48-1.57-.61-.14-.03-.28-.07-.43-.08-.6-.06-1.19.08-1.78.19-1.05.19-2.2.23-3.36.11-1.25-.09-2.53-.35-3.7-.83-.03-.01-.08-.02-.12-.05-.24-.1-.46-.2-.68-.32-.17-.08-.34-.17-.5-.26-.15-.09-.31-.19-.44-.28-.12-.09-.25-.17-.37-.27-.16-.11-.31-.23-.44-.36-.19-.16-.39-.35-.56-.54-.16-.17-.31-.35-.45-.56-.12-.17-.24-.34-.34-.52-1.4-2.44-1.37-5.42-.56-8.1.4-1.28.96-2.49,1.64-3.57,1.39-2.21,3.07-3.47,5.2-4.28.67-.26,1.39-.48,2.15-.67.34-.09.67-.17,1-.26,6.19-1.69,10.11-4.25,10.79-11.91.06-.59.07-1.21-.2-1.73-.14-.25-.32-.45-.53-.63-.25-.22-.54-.41-.84-.58-9.25-5.59-15.95-12.67-20.19-22.52-.11.23-.87,1.28-.87,1.55-.85-2.04-1.39-4.19-1.63-6.39-.17.34-.58.53-.94.44-2.03-.48-.73-13.99-.48-15.71.78-5.32,2.45-10.48,4.44-15.45,1.42-3.55,2.9-7.38,4.55-11.22,3.86-9,8.68-18.08,15.9-23.71,8.95-6.99,16.41,2.73,22.67,8.46,4.49,4.11,10.96,13.52,12.25,19.5,2.95,13.66-9.89,22.61-11.11,35.3-.28-.17-.58-.34-.86-.5-.33,2.44-.42,4.92-.26,7.38-.71-.75-1.44-1.5-2.15-2.23-.03,4.65.94,8.85,3.57,12.8,2.03,3.05,4.85,5.85,5.31,9.47.11.94.07,1.9.02,2.84-.41,9.79,2.13,20.22-.68,29.59Z"/><path class="cls-8" d="m323.13,429.71c-.07.23-.15.44-.23.66-.06.16-.12.32-.19.48-.05.1-.1.23-.16.33-.12.26-.26.51-.41.75-.14.24-.28.46-.46.7-1.36,1.84-3.25,2.96-5.37,3.55-2.01.51-4.32.66-6.96.4-.35-.03-.73-.09-1.1-.16-.41-.07-.82-.15-1.21-.23-.36-.08-.71-.16-1.08-.23-.46-.09-.94-.16-1.43-.17-.99-.01-1.95.25-2.91.48-2.63.65-5.4,1.11-8.08.87-.18-.01-.36-.03-.54-.06-1.12-.14-2.23-.41-3.3-.86-.52-.22-1.03-.48-1.57-.61-.15-.03-.28-.07-.43-.08-.6-.06-1.19.08-1.78.19-1.05.19-2.2.23-3.36.11-1.25-.11-2.52-.39-3.7-.83-.03-.01-.08-.02-.12-.05-.24-.1-.46-.2-.68-.32-.17-.08-.34-.17-.5-.26-.15-.09-.31-.19-.44-.28-.12-.09-.25-.17-.37-.27-.16-.11-.31-.23-.44-.36-.19-.16-.39-.35-.56-.54-.16-.17-.31-.35-.45-.56-.12-.17-.24-.34-.34-.52-1.4-2.44-1.37-5.42-.56-8.1.16.7.35,1.38.62,2.04,1.29,3.03,4.48,5.01,7.64,4.49,2.06-.34,6.39-3.34,6.44-5.9-.02,1.73.19,4.24,1.72,5.31,1.71,1.2,4.99,1.1,6.89.8,3.7-.57,6.36-3.14,6.87-7.07-.59,4.57,1.9,6.87,6.2,7.04,3.98.16,7.15-1.61,8.34-5.5.28-.91.37-1.88.46-2.83-.52.36-1.86,1.4-2.48,1.06,1.28.71,1.06-10.64.99-11.11-.63-4.29-1.66-8.52-3.23-12.57-2.29-5.9-6.6-10.17-9.27-15.68-.34.68-.67,1.36-1,2.05-2.06-3.82-3.48-7.99-4.15-12.28-.58,1.52-1.16,3.03-1.72,4.53-6.03-11.19-10.47-23.29-15.87-34.82-2.04-4.34-3.99-8.18-4.36-12.51,3.86-9,8.68-18.08,15.9-23.71,8.95-6.99,16.41,2.73,22.67,8.46,4.49,4.11,10.96,13.52,12.25,19.5,2.95,13.66-9.89,22.61-11.11,35.3-.28-.17-.58-.34-.86-.5-.33,2.44-.42,4.92-.26,7.38-.71-.75-1.44-1.5-2.15-2.23-.03,4.65.94,8.85,3.57,12.8,2.03,3.05,4.85,5.85,5.31,9.47.11.94.07,1.9.02,2.84-.41,9.79,2.13,20.22-.68,29.59Z"/><g id="garras"><g><path class="cls-32" d="m274.94,428.98c.01.37.03.73.06,1.08.15,1.89.54,3.63.95,5.32.17-2.13.74-4.06,1.54-5.25.4-.57.84-.98,1.15-1.78.4-1.03.47-2.73.16-3.92-.19-.73-.71-1.33-1.16-1.62-.18-.11-.34-.17-.47-.17-.66-.02-1.3.78-1.69,1.95-.25.75-.41,1.6-.49,2.52-.05.6-.06,1.24-.05,1.87Z"/><path class="cls-11" d="m274.94,428.98c.01.37.03.73.06,1.08.15,1.89.54,3.63.95,5.32.17-2.13.74-4.06,1.54-5.25.4-.57.84-.98,1.15-1.78.4-1.03.47-2.73.16-3.92-.19-.73-.71-1.33-1.16-1.62.19.51.4,1.14.44,1.29.23.84.24,1.97-.06,2.73-.09.24-.21.44-.32.63l-1.23,2.05c-.17.29-.35.59-.56.67-.28.1-.47-.32-.61-.87-.16-.68-.25-1.62-.3-2.19-.05.6-.06,1.24-.05,1.87Z"/></g><g><path class="cls-32" d="m289.96,438.42c.4-2.52,1.19-4.97,2.4-6.3.52-.57,1.09-1.03,1.45-1.94.3-.78.4-1.81.37-2.79-.06-1.89-.39-3.43-1.24-4.17-.13-.14-.28-.24-.44-.32-1.25-.6-2.2-.08-2.91,2.16-.27.86-.45,1.79-.56,2.78-.04.38-.07.75-.09,1.13,0,.14-.02.29-.02.43-.14,3.13.23,6.32,1.04,9.03Z"/><path class="cls-11" d="m289.96,438.42c.4-2.52,1.19-4.97,2.4-6.3.52-.57,1.09-1.03,1.45-1.94.3-.78.4-1.81.37-2.79-.06-1.89-.39-3.43-1.24-4.17.18.63.3,1.43.36,1.89.13.95.17,2-.17,2.82-.34.82-.91,1.22-1.39,1.64-.38.34-.76.68-1.14,1.02-.21.18-.46.56-.71.46-.29-.13-.45-.73-.57-1.2s-.35-1.48-.3-2.01c-.04.38-.07.75-.09,1.13,0,.14-.02.29-.02.43-.14,3.13.23,6.32,1.04,9.03Z"/></g><g><path class="cls-32" d="m303.42,427.91v.02c-.05,1.89.33,3.76.69,5.58.29,1.4.57,2.81.86,4.21.03.14.06.3.09.44-.11-.53.39-1.87.53-2.38.26-.88.57-1.72.93-2.53.69-1.56,1.54-2.91,2.04-4.62.61-2.08.28-3.9-.93-5.24-.04-.07-.09-.12-.14-.17-.14-.14-.29-.24-.46-.31-2.3-1.07-3.54,2.33-3.62,5Z"/><path class="cls-11" d="m303.42,427.91v.02c-.05,1.89.33,3.76.69,5.58.29,1.4.57,2.81.86,4.21.03.14.06.3.09.44-.11-.53.39-1.87.53-2.38.26-.88.57-1.72.93-2.53.69-1.56,1.54-2.91,2.04-4.62.61-2.08.28-3.9-.93-5.24.08.96.43,1.53.31,2.59-.12,1.08-.45,2.14-1,2.95-.29.42-.64.76-.95,1.16-.34.45-.63.99-.86,1.57-.02.06-.04.12-.08.14-.07.05-.15-.01-.21-.08-.83-.92-1.17-2.37-1.43-3.8Z"/></g></g><path class="cls-8" d="m307.42,415.93c-.29.09-.59.19-.87.3-.71.27-1.41.6-2.16.66-1.28.11-2.48-.57-3.69-.99-2.26-.8-4.81-.75-7.04.14-.41.16-.84.36-1.28.32-.34-.03-.65-.19-.97-.34-2.21-1.03-4.65-1.06-7.02-1.06,6.19-1.69,10.11-4.25,10.79-11.91.06-.59.07-1.21-.2-1.73-.14-.25-.32-.45-.53-.63,1.73.76,3.49,1.44,5.15,2.34,5.04,2.74,9.8,8.04,12.45,13.09-1.73-.38-2.89-.77-4.62-.19Z"/></g><g id="G11L03T010101_gatoNegro_sin"><path class="cls-15" d="m338.63,429.71c.07.23.15.44.23.66.06.16.12.32.19.48.05.1.1.23.16.33.12.26.26.51.41.75.14.24.28.46.46.7,1.36,1.84,3.25,2.96,5.37,3.55,1.84.52,3.85.65,5.83.5.37-.02.74-.06,1.12-.1.35-.03.73-.09,1.1-.16.41-.07.82-.15,1.21-.23.35-.08.71-.17,1.08-.23.46-.09.94-.16,1.43-.17.99-.01,1.95.25,2.91.48,2.63.65,5.4,1.11,8.08.87.18-.01.36-.03.54-.06,1.12-.14,2.23-.41,3.3-.86.52-.22,1.03-.48,1.57-.61.14-.03.28-.07.43-.08.6-.06,1.19.08,1.78.19,1.05.19,2.2.23,3.36.11,1.25-.09,2.53-.35,3.7-.83.03-.01.08-.02.12-.05.24-.1.46-.2.68-.32.17-.08.34-.17.5-.26.15-.09.31-.19.44-.28.12-.09.25-.17.37-.27.16-.11.31-.23.44-.36.19-.16.39-.35.56-.54.16-.17.31-.35.45-.56.12-.17.24-.34.34-.52,1.4-2.44,1.37-5.42.56-8.1-.4-1.28-.96-2.49-1.64-3.57-1.39-2.21-3.07-3.47-5.2-4.28-.67-.26-1.39-.48-2.15-.67-.34-.09-.67-.17-1-.26-6.19-1.69-10.11-4.25-10.79-11.91-.06-.59-.07-1.21.2-1.73.14-.25.32-.45.53-.63.25-.22.54-.41.84-.58,9.25-5.59,15.95-12.67,20.19-22.52.11.23.87,1.28.87,1.55.85-2.04,1.39-4.19,1.63-6.39.17.34.58.53.94.44,2.03-.48.73-13.99.48-15.71-.78-5.32-2.45-10.48-4.44-15.45-1.42-3.55-2.9-7.38-4.55-11.22-3.86-9-8.68-18.08-15.9-23.71-8.95-6.99-16.41,2.73-22.67,8.46-4.49,4.11-10.96,13.52-12.25,19.5-2.95,13.66,9.89,22.61,11.11,35.3.28-.17.58-.34.86-.5.33,2.44.42,4.92.26,7.38.71-.75,1.44-1.5,2.15-2.23.03,4.65-.94,8.85-3.57,12.8-2.03,3.05-4.85,5.85-5.31,9.47-.11.94-.07,1.9-.02,2.84.41,9.79-2.13,20.22.68,29.59Z"/><path class="cls-8" d="m338.63,429.71c.07.23.15.44.23.66.06.16.12.32.19.48.05.1.1.23.16.33.12.26.26.51.41.75.14.24.28.46.46.7,1.36,1.84,3.25,2.96,5.37,3.55,2.01.51,4.32.66,6.96.4.35-.03.73-.09,1.1-.16.41-.07.82-.15,1.21-.23.36-.08.71-.16,1.08-.23.46-.09.94-.16,1.43-.17.99-.01,1.95.25,2.91.48,2.63.65,5.4,1.11,8.08.87.18-.01.36-.03.54-.06,1.12-.14,2.23-.41,3.3-.86.52-.22,1.03-.48,1.57-.61.15-.03.28-.07.43-.08.6-.06,1.19.08,1.78.19,1.05.19,2.2.23,3.36.11,1.25-.11,2.52-.39,3.7-.83.03-.01.08-.02.12-.05.24-.1.46-.2.68-.32.17-.08.34-.17.5-.26.15-.09.31-.19.44-.28.12-.09.25-.17.37-.27.16-.11.31-.23.44-.36.19-.16.39-.35.56-.54.16-.17.31-.35.45-.56.12-.17.24-.34.34-.52,1.4-2.44,1.37-5.42.56-8.1-.16.7-.35,1.38-.62,2.04-1.29,3.03-4.48,5.01-7.64,4.49-2.06-.34-6.39-3.34-6.44-5.9.02,1.73-.19,4.24-1.72,5.31-1.71,1.2-4.99,1.1-6.89.8-3.7-.57-6.36-3.14-6.87-7.07.59,4.57-1.9,6.87-6.2,7.04-3.98.16-7.15-1.61-8.34-5.5-.28-.91-.37-1.88-.46-2.83.52.36,1.86,1.4,2.48,1.06-1.28.71-1.06-10.64-.99-11.11.63-4.29,1.66-8.52,3.23-12.57,2.29-5.9,6.6-10.17,9.27-15.68.34.68.67,1.36,1,2.05,2.06-3.82,3.48-7.99,4.15-12.28.58,1.52,1.16,3.03,1.72,4.53,6.03-11.19,10.47-23.29,15.87-34.82,2.04-4.34,3.99-8.18,4.36-12.51-3.86-9-8.68-18.08-15.9-23.71-8.95-6.99-16.41,2.73-22.67,8.46-4.49,4.11-10.96,13.52-12.25,19.5-2.95,13.66,9.89,22.61,11.11,35.3.28-.17.58-.34.86-.5.33,2.44.42,4.92.26,7.38.71-.75,1.44-1.5,2.15-2.23.03,4.65-.94,8.85-3.57,12.8-2.03,3.05-4.85,5.85-5.31,9.47-.11.94-.07,1.9-.02,2.84.41,9.79-2.13,20.22.68,29.59Z"/><path class="cls-8" d="m354.34,415.93c.29.09.59.19.87.3.71.27,1.41.6,2.16.66,1.28.11,2.48-.57,3.69-.99,2.26-.8,4.81-.75,7.04.14.41.16.84.36,1.28.32.34-.03.65-.19.97-.34,2.21-1.03,4.65-1.06,7.02-1.06-6.19-1.69-10.11-4.25-10.79-11.91-.06-.59-.07-1.21.2-1.73.14-.25.32-.45.53-.63-1.73.76-3.49,1.44-5.15,2.34-5.04,2.74-9.8,8.04-12.45,13.09,1.73-.38,2.89-.77,4.62-.19Z"/><g id="garras-2"><g><path class="cls-32" d="m386.82,428.98c-.01.37-.03.73-.06,1.08-.15,1.89-.54,3.63-.95,5.32-.17-2.13-.74-4.06-1.54-5.25-.4-.57-.84-.98-1.15-1.78-.4-1.03-.47-2.73-.16-3.92.19-.73.71-1.33,1.16-1.62.18-.11.34-.17.47-.17.66-.02,1.3.78,1.69,1.95.25.75.41,1.6.49,2.52.05.6.06,1.24.05,1.87Z"/><path class="cls-11" d="m386.82,428.98c-.01.37-.03.73-.06,1.08-.15,1.89-.54,3.63-.95,5.32-.17-2.13-.74-4.06-1.54-5.25-.4-.57-.84-.98-1.15-1.78-.4-1.03-.47-2.73-.16-3.92.19-.73.71-1.33,1.16-1.62-.19.51-.4,1.14-.44,1.29-.23.84-.24,1.97.06,2.73.09.24.21.44.32.63l1.23,2.05c.17.29.35.59.56.67.28.1.47-.32.61-.87.16-.68.25-1.62.3-2.19.05.6.06,1.24.05,1.87Z"/></g><g><path class="cls-32" d="m371.8,438.42c-.4-2.52-1.19-4.97-2.4-6.3-.52-.57-1.09-1.03-1.45-1.94-.3-.78-.4-1.81-.37-2.79.06-1.89.39-3.43,1.24-4.17.13-.14.28-.24.44-.32,1.25-.6,2.2-.08,2.91,2.16.27.86.45,1.79.56,2.78.04.38.07.75.09,1.13,0,.14.02.29.02.43.14,3.13-.23,6.32-1.04,9.03Z"/><path class="cls-11" d="m371.8,438.42c-.4-2.52-1.19-4.97-2.4-6.3-.52-.57-1.09-1.03-1.45-1.94-.3-.78-.4-1.81-.37-2.79.06-1.89.39-3.43,1.24-4.17-.18.63-.3,1.43-.36,1.89-.13.95-.17,2,.17,2.82s.91,1.22,1.39,1.64c.38.34.76.68,1.14,1.02.21.18.46.56.71.46.29-.13.45-.73.57-1.2s.35-1.48.3-2.01c.04.38.07.75.09,1.13,0,.14.02.29.02.43.14,3.13-.23,6.32-1.04,9.03Z"/></g><g><path class="cls-32" d="m358.34,427.91v.02c.05,1.89-.33,3.76-.69,5.58-.29,1.4-.57,2.81-.86,4.21-.03.14-.06.3-.09.44.11-.53-.39-1.87-.53-2.38-.26-.88-.57-1.72-.93-2.53-.69-1.56-1.54-2.91-2.04-4.62-.61-2.08-.28-3.9.93-5.24.04-.07.09-.12.14-.17.14-.14.29-.24.46-.31,2.3-1.07,3.54,2.33,3.62,5Z"/><path class="cls-11" d="m358.34,427.91v.02c.05,1.89-.33,3.76-.69,5.58-.29,1.4-.57,2.81-.86,4.21-.03.14-.06.3-.09.44.11-.53-.39-1.87-.53-2.38-.26-.88-.57-1.72-.93-2.53-.69-1.56-1.54-2.91-2.04-4.62-.61-2.08-.28-3.9.93-5.24-.08.96-.43,1.53-.31,2.59.12,1.08.45,2.14,1,2.95.29.42.64.76.95,1.16.34.45.63.99.86,1.57.02.06.04.12.08.14.07.05.15-.01.21-.08.83-.92,1.17-2.37,1.43-3.8Z"/></g></g></g><g id="G12L04T010101_gatoNegro_sin"><g><g><path class="cls-32" d="m253.46,329.44c-.07-2.52.57-6.43,2.01-8.57.15-.22-.99-.93-1.15-1-.51-.24-1.09-.33-1.65-.31s-1.84.15-2.34.4c-.59.29-1.12.57-1.07,1.26.07.86.24,1.71.52,2.53.56,1.65,2.37,4.51,3.67,5.69Z"/><path class="cls-11" d="m254.33,319.88c-.51-.24-1.09-.33-1.65-.31-.55.02-1.84.15-2.34.4-.59.29-1.12.57-1.07,1.26.07.86.24,1.71.52,2.53.02.07.05.15.08.23-.02-.07.97-.13,1.04-.13.41,0,.87.06,1.19.33.78.68.27,2.3.46,3.22.07.36.07,1.16.31,1.43.2.23.4.43.58.6-.07-2.52.57-6.43,2.01-8.57.15-.22-.99-.93-1.15-1Z"/></g><g><path class="cls-32" d="m244.24,319.29c-1.66,1.96-2.1,7.27-2.29,9.79-.28-.32-.6-.83-.93-1.44v-.03c-.85-1.55-1.73-3.77-2.2-5.26-.12-.38-.21-.72-.27-.97-.18-.84-.27-1.7-.25-2.57,0-.08.01-.15.02-.2.22-.4.56-.71,1.17-.93.52-.19,1.09-.26,1.64-.22.57.04,1.14.2,1.62.5.14.09,1.67,1.14,1.49,1.33Z"/><path class="cls-11" d="m244.24,319.29c-1.66,1.96-2.1,7.27-2.29,9.79-.28-.32-.6-.83-.93-1.44v-.03c-.18-.38.17-1.11.23-1.49.11-.56.31-1.66.08-2.2-.17-.4-.93-.7-1.31-.9s-.82-.42-1.21-.67c-.12-.38-.21-.72-.27-.97-.18-.84-.27-1.7-.25-2.57,0-.08.01-.15.02-.2.22-.4.56-.71,1.17-.93.52-.19,1.09-.26,1.64-.22.57.04,1.14.2,1.62.5.14.09,1.67,1.14,1.49,1.33Z"/></g><g><path class="cls-32" d="m234.41,312.36c-1.46,2.13-1.88,5.62-1.84,8.14-.21-.19-.41-.42-.63-.68-.93-1.13-1.88-2.82-2.43-4.16-.11-.26-.21-.52-.27-.75-.27-.82-.43-1.67-.49-2.54-.05-.69.48-.97,1.08-1.25.5-.25,1.06-.37,1.61-.39.57,0,1.34.38,1.85.63.16.07,1.27.79,1.13,1.01Z"/><path class="cls-11" d="m234.41,312.36c-1.46,2.13-1.88,5.62-1.84,8.14-.21-.19-.41-.42-.63-.68-.36-.45-.37-1.08-.34-1.63.03-.59-.05-.86-.53-1.26-.53-.42-1.04-.86-1.57-1.28-.11-.26-.21-.52-.27-.75-.27-.82-.43-1.67-.49-2.54-.05-.69.48-.97,1.08-1.25.5-.25,1.06-.37,1.61-.39.57,0,1.34.38,1.85.63.16.07,1.27.79,1.13,1.01Z"/></g></g><path class="cls-15" d="m314.56,207.08v.05c-.02.33-.06.66-.09,1-.71,7.16-3.73,14.8-6.12,21.53-1.14,3.33-2.49,6.58-3.77,9.86-2.1,5.38-4.52,10.37-7.34,15.41-2.59,4.63-5.32,9.17-8.25,13.61-1.3,2.03-2.65,4.04-4,6.06-3.51,5.26-7.09,10.41-10.57,15.68-.78,1.16-1.54,2.31-2.3,3.48-1.81,2.8-4.03,5.31-5.79,8.16-.12.2-.24.41-.36.61-.22.39-.41.78-.6,1.18-.09.23-.19.46-.29.69-.15.35-.28.7-.41,1.06-2.02,5.62-2.23,12.11-7.82,15.75-3.22,2.1-7.79,2.13-10.98.05-.17-.1-.34-.22-.53-.25-.2-.05-.42.01-.63.06-3.86.86-7.16.42-9.61-2.86-.25-.33-.46-.69-.75-1-.41-.42-.93-.71-1.43-1.01-.66-.39-1.29-.82-1.93-1.28-.33-.26-.65-.51-.95-.77-.07-.06-.14-.11-.22-.18-.68-.59-1.22-1.29-1.77-1.99-.69-.95-1.25-1.99-1.68-3.17-.01-.05-.03-.08-.05-.12-.15-.43-.29-.88-.41-1.35-.03-.15-.07-.28-.1-.43-.32-1.39-.66-3.04-.31-4.45l-.61.61c.19-1.31.4-2.62.79-3.89-.34.27-.67.57-.96.88.08-.41.17-.83.28-1.22.82-3.15,2.27-6.29,3.68-9.22,1.45-2.98,3.1-5.86,4.95-8.61,4.61-6.84,9.52-13.49,14.71-19.92,2.59-3.21,5.27-6.37,8-9.46,1.36-1.54,2.74-3.08,4.15-4.6,1.17-1.27,2.48-2.39,3.63-3.69-.15,0-1.06-.11-1.14-.05,1.37-1.1,2.92-1.95,4.28-3.09-.45-.12-.88-.32-1.27-.57,1.42-1,3.04-1.84,4.4-2.9,1.31-1.02,2.44-2.4,3.61-3.58,2.62-2.61,5.25-5.2,7.89-7.77,5.08-4.93,10.21-9.8,15.43-14.59.16-.14.32-.28.48-.43,2.24-2.06,4.49-4.1,6.74-6.11,1.68-1.48,3.55-3.05,5.79-3.16,3.59-.18,4.43,2.63,4.23,6.02Z"/><path class="cls-8" d="m314.56,207.08v.05c-.02.33-.06.66-.09,1-.71,7.16-3.73,14.8-6.12,21.53-1.14,3.33-2.49,6.58-3.77,9.86-2.1,5.38-4.52,10.37-7.34,15.41-2.59,4.63-5.32,9.17-8.25,13.61-1.3,2.03-2.65,4.04-4,6.06-3.51,5.26-7.09,10.41-10.57,15.68-.78,1.16-1.54,2.31-2.3,3.48-1.81,2.8-4.03,5.31-5.79,8.16-.12.2-.24.41-.36.61-.22.39-.41.78-.6,1.18-.09.23-.19.46-.29.69-.15.35-.28.7-.41,1.06-2.02,5.62-2.23,12.11-7.82,15.75-3.22,2.1-7.79,2.13-10.98.05-.17-.1-.34-.22-.53-.25-.2-.05-.42.01-.63.06-3.86.86-7.16.42-9.61-2.86-.25-.33-.46-.69-.75-1-.41-.42-.93-.71-1.43-1.01-.66-.39-1.29-.82-1.93-1.28-.33-.26-.65-.51-.95-.77-.07-.06-.14-.11-.22-.18-.68-.59-1.22-1.29-1.77-1.99-.69-.95-1.25-1.99-1.68-3.17-.01-.05-.03-.08-.05-.12,1.54,1.48,3.44,2.63,5.61,2.83.62.06,1.27.05,1.87.24.57.18.84.48,1.28.87.78.7,1.69,1.27,2.69,1.63,2.03.73,4.24.58,6.31.14.53-.11,1.08-.26,1.62-.23,1.28.08,2.3,1.11,3.52,1.51,3.43,1.11,6.91-2.36,8.51-4.99,3.75-6.17,4.02-14.63,6.72-21.44,2.99-7.56,7.05-14.69,12.03-21.11.2.63.42,1.28.63,1.91,1.51-2.78,19.15-33.62,16.6-34.59-.76-.29-1.7-.1-2.29.46.46-1.94.92-3.89,1.38-5.83-1.27.19-2.53.39-3.8.56.48-.31,1.73-4.32,1.96-4.85.77-1.84,1.55-3.66,2.35-5.48,1.38-3.17,2.83-6.31,4-9.54.16-.14.32-.28.48-.43,2.24-2.06,4.49-4.1,6.74-6.11,1.68-1.48,3.55-3.05,5.79-3.16,3.59-.18,4.43,2.63,4.23,6.02Z"/></g><g id="G13L05T010101_gatoNegro_sin"><g><g><path class="cls-32" d="m408.67,329.44c.07-2.52-.57-6.43-2.01-8.57-.15-.22.99-.93,1.15-1,.51-.24,1.09-.33,1.65-.31s1.84.15,2.34.4c.59.29,1.12.57,1.07,1.26-.07.86-.24,1.71-.52,2.53-.56,1.65-2.37,4.51-3.67,5.69Z"/><path class="cls-11" d="m407.8,319.88c.51-.24,1.09-.33,1.65-.31.55.02,1.84.15,2.34.4.59.29,1.12.57,1.07,1.26-.07.86-.24,1.71-.52,2.53-.02.07-.05.15-.08.23.02-.07-.97-.13-1.04-.13-.41,0-.87.06-1.19.33-.78.68-.27,2.3-.46,3.22-.07.36-.07,1.16-.31,1.43-.2.23-.4.43-.58.6.07-2.52-.57-6.43-2.01-8.57-.15-.22.99-.93,1.15-1Z"/></g><g><path class="cls-32" d="m417.89,319.29c1.66,1.96,2.1,7.27,2.29,9.79.28-.32.6-.83.93-1.44v-.03c.85-1.55,1.73-3.77,2.2-5.26.12-.38.21-.72.27-.97.18-.84.27-1.7.25-2.57,0-.08-.01-.15-.02-.2-.22-.4-.56-.71-1.17-.93-.52-.19-1.09-.26-1.64-.22-.57.04-1.14.2-1.62.5-.14.09-1.67,1.14-1.49,1.33Z"/><path class="cls-11" d="m417.89,319.29c1.66,1.96,2.1,7.27,2.29,9.79.28-.32.6-.83.93-1.44v-.03c.18-.38-.17-1.11-.23-1.49-.11-.56-.31-1.66-.08-2.2.17-.4.93-.7,1.31-.9s.82-.42,1.21-.67c.12-.38.21-.72.27-.97.18-.84.27-1.7.25-2.57,0-.08-.01-.15-.02-.2-.22-.4-.56-.71-1.17-.93-.52-.19-1.09-.26-1.64-.22-.57.04-1.14.2-1.62.5-.14.09-1.67,1.14-1.49,1.33Z"/></g><g><path class="cls-32" d="m427.72,312.36c1.46,2.13,1.88,5.62,1.84,8.14.21-.19.41-.42.63-.68.93-1.13,1.88-2.82,2.43-4.16.11-.26.21-.52.27-.75.27-.82.43-1.67.49-2.54.05-.69-.48-.97-1.08-1.25-.5-.25-1.06-.37-1.61-.39-.57,0-1.34.38-1.85.63-.16.07-1.27.79-1.13,1.01Z"/><path class="cls-11" d="m427.72,312.36c1.46,2.13,1.88,5.62,1.84,8.14.21-.19.41-.42.63-.68.36-.45.37-1.08.34-1.63-.03-.59.05-.86.53-1.26.53-.42,1.04-.86,1.57-1.28.11-.26.21-.52.27-.75.27-.82.43-1.67.49-2.54.05-.69-.48-.97-1.08-1.25-.5-.25-1.06-.37-1.61-.39-.57,0-1.34.38-1.85.63-.16.07-1.27.79-1.13,1.01Z"/></g></g><path class="cls-15" d="m347.57,207.08v.05c.02.33.06.66.09,1,.71,7.16,3.73,14.8,6.12,21.53,1.14,3.33,2.49,6.58,3.77,9.86,2.1,5.38,4.52,10.37,7.34,15.41,2.59,4.63,5.32,9.17,8.25,13.61,1.3,2.03,2.65,4.04,4,6.06,3.51,5.26,7.09,10.41,10.57,15.68.78,1.16,1.54,2.31,2.3,3.48,1.81,2.8,4.03,5.31,5.79,8.16.12.2.24.41.36.61.22.39.41.78.6,1.18.09.23.19.46.29.69.15.35.28.7.41,1.06,2.02,5.62,2.23,12.11,7.82,15.75,3.22,2.1,7.79,2.13,10.98.05.17-.1.34-.22.53-.25.2-.05.42.01.63.06,3.86.86,7.16.42,9.61-2.86.25-.33.46-.69.75-1,.41-.42.93-.71,1.43-1.01.66-.39,1.29-.82,1.93-1.28.33-.26.65-.51.95-.77.07-.06.14-.11.22-.18.68-.59,1.22-1.29,1.77-1.99.69-.95,1.25-1.99,1.68-3.17.01-.05.03-.08.05-.12.15-.43.29-.88.41-1.35.03-.15.07-.28.1-.43.32-1.39.66-3.04.31-4.45l.61.61c-.19-1.31-.4-2.62-.79-3.89.34.27.67.57.96.88-.08-.41-.17-.83-.28-1.22-.82-3.15-2.27-6.29-3.68-9.22-1.45-2.98-3.1-5.86-4.95-8.61-4.61-6.84-9.52-13.49-14.71-19.92-2.59-3.21-5.27-6.37-8-9.46-1.36-1.54-2.74-3.08-4.15-4.6-1.17-1.27-2.48-2.39-3.63-3.69.15,0,1.06-.11,1.14-.05-1.37-1.1-2.92-1.95-4.28-3.09.45-.12.88-.32,1.27-.57-1.42-1-3.04-1.84-4.4-2.9-1.31-1.02-2.44-2.4-3.61-3.58-2.62-2.61-5.25-5.2-7.89-7.77-5.08-4.93-10.21-9.8-15.43-14.59-.16-.14-.32-.28-.48-.43-2.24-2.06-4.49-4.1-6.74-6.11-1.68-1.48-3.55-3.05-5.79-3.16-3.59-.18-4.43,2.63-4.23,6.02Z"/><path class="cls-8" d="m347.57,207.08v.05c.02.33.06.66.09,1,.71,7.16,3.73,14.8,6.12,21.53,1.14,3.33,2.49,6.58,3.77,9.86,2.1,5.38,4.52,10.37,7.34,15.41,2.59,4.63,5.32,9.17,8.25,13.61,1.3,2.03,2.65,4.04,4,6.06,3.51,5.26,7.09,10.41,10.57,15.68.78,1.16,1.54,2.31,2.3,3.48,1.81,2.8,4.03,5.31,5.79,8.16.12.2.24.41.36.61.22.39.41.78.6,1.18.09.23.19.46.29.69.15.35.28.7.41,1.06,2.02,5.62,2.23,12.11,7.82,15.75,3.22,2.1,7.79,2.13,10.98.05.17-.1.34-.22.53-.25.2-.05.42.01.63.06,3.86.86,7.16.42,9.61-2.86.25-.33.46-.69.75-1,.41-.42.93-.71,1.43-1.01.66-.39,1.29-.82,1.93-1.28.33-.26.65-.51.95-.77.07-.06.14-.11.22-.18.68-.59,1.22-1.29,1.77-1.99.69-.95,1.25-1.99,1.68-3.17.01-.05.03-.08.05-.12-1.54,1.48-3.44,2.63-5.61,2.83-.62.06-1.27.05-1.87.24-.57.18-.84.48-1.28.87-.78.7-1.69,1.27-2.69,1.63-2.03.73-4.24.58-6.31.14-.53-.11-1.08-.26-1.62-.23-1.28.08-2.3,1.11-3.52,1.51-3.43,1.11-6.91-2.36-8.51-4.99-3.75-6.17-4.02-14.63-6.72-21.44-2.99-7.56-7.05-14.69-12.03-21.11-.2.63-.42,1.28-.63,1.91-1.51-2.78-19.15-33.62-16.6-34.59.76-.29,1.7-.1,2.29.46-.46-1.94-.92-3.89-1.38-5.83,1.27.19,2.53.39,3.8.56-.48-.31-1.73-4.32-1.96-4.85-.77-1.84-1.55-3.66-2.35-5.48-1.38-3.17-2.83-6.31-4-9.54-.16-.14-.32-.28-.48-.43-2.24-2.06-4.49-4.1-6.74-6.11-1.68-1.48-3.55-3.05-5.79-3.16-3.59-.18-4.43,2.63-4.23,6.02Z"/></g><g id="G02L06T010101_gatoNegro_sin_N"><path class="cls-15" d="m382.98,231.64c-.87-.16-1.74-.33-2.62-.5.12.4,1.69,5.12,2.01,5.12-.97,0-1.94-.25-2.78-.73.43.24-.62,2.79-1.93,5.56-1.52,3.24-3.38,6.8-3.64,7.39-1.62,3.8-3.04,7.68-4.23,11.61-.17.58-.34,1.13-.5,1.7-.18.67-.36,1.34-.53,2.01-.11.43-.22.85-.32,1.27-.15.6-.28,1.2-.42,1.81-.23,1.03-.43,2.08-.63,3.13-.19,1.12-.37,2.23-.53,3.36-.09.56-.16,1.11-.22,1.68-.01.08-.02.17-.03.26-.01.08-.02.17-.03.25,0,.06-.01.12-.02.19-.26,2.36-.42,4.7-.48,7.1-.14,5.9,1.52,11.6,3.82,16.98.5,1.17,5.57,13.66,6.72,13.66-1.48.2-3.05-.1-4.35-.86.39.92.77,1.82,1.16,2.74-.87-.16-1.74-.33-2.62-.49-.26-.05-.54-.09-.76.05-.15.09-.24.24-.33.39-1.04,1.76-2.04,3.57-3.25,5.21-.54.74-2.8,2.45-2.8,3.33-.01-1.13-.01-2.24-.01-3.38-3.84,8.03-11.09,14.01-15.99,21.46-.07-.69-.14-1.4-.2-2.08-1.2,2.73-2.86,5.17-4.83,7.04.73-1.62,1.12-3.53,1.18-5.49-.95,2.44-3.68,4.5-5.45,5.66-.5.32-1.02.63-1.55.88-.2.1-.43.22-.65.29-.37.17-.76.32-1.14.43-.35.14-.71.25-1.09.33-.07.02-.12.03-.19.03-.35.09-.7.17-1.06.2-.39.08-.79.11-1.18.14-7.61.43-15.69-5.7-18.69-12.5.15.61.01,1.28-.35,1.79-1.91-2.74-3.94-5.76-6.37-8.06-.41.96-.51,1.94-.75,2.97-2.15-3.42-4.34-6.73-6.42-10.16-1.71-2.82-2.55-5.72-4.75-1.39-2.76-2.36-4.75-5.59-5.54-9.09-1.33.46-2.64.94-3.97,1.4,1.61-2.97,3.13-5.99,4.46-9.08.01-.05.03-.09.06-.14.17-.4.34-.79.5-1.19.37-.88.73-1.78,1.04-2.67.17-.45.34-.91.49-1.36.15-.42.28-.84.42-1.26.43-1.35.83-2.72,1.16-4.1.14-.51.25-1.03.36-1.55.69-3.23.99-6.53.99-9.83,0-.62-.01-1.25-.03-1.87-.15-4.34-.79-8.72-1.7-13.04-1.13-5.42-2.69-10.73-4.24-15.79-.06-.2-.12-.4-.17-.6-.87-2.84-1.62-5.73-2.49-8.6-.08-.28-.16-.56-.25-.84-.65-2.1-1.55-4.14-1.78-6.34-.75.56-1.51,1.1-2.25,1.65.39-.28.56-4.95.71-5.71.31-1.48.42-3.24,1.3-4.52-.97.06-1.96.12-2.93.18.14-.78.36-1.55.69-2.27-1.4.35-2.89.39-4.31.1,3.83-3.83,7.66-7.67,11.49-11.51.11-.11.22-.22.33-.33-1.31-.27-2.64-.62-3.98-.7,1.06-.79,7.55-4.78,8.74-4.01-1.3-.85-3.68-1.23-5.18-1.81,3.22-.91,6.3-2.19,9.27-3.69.33-.18.65-.36.97-.56.19-.07.39-.17.56-.28.25-.14.51-.27.76-.43.02,0,.05-.01.07-.02,2.61-1.46,5.19-3.15,7.77-4.77.05-.02.09-.05.12-.07.03-.01.07-.03.1-.07.19-.1.37-.22.59-.37,0-.01.01-.02.02-.03.23-.14.45-.27.68-.42.31-.19.62-.4.93-.59.42-.27.85-.56,1.28-.83.1-.07.22-.14.32-.2.53-.35,1.05-.74,1.59-1.1.36-.24.74-.5,1.11-.74.02-.01.06-.03.08-.05.09-.06.18-.11.27-.17.03-.02.08-.06.11-.08,1.14-.75,2.35-1.45,3.56-2.08.4-.23.82-.43,1.22-.63.58-.28,1.16-.56,1.73-.8.42-.18.84-.36,1.26-.52.17-.08.35-.15.52-.22.2-.07.41-.15.62-.22.2-.07.41-.14.62-.19.14-.06.27-.1.42-.15.35-.11.71-.22,1.06-.31.48-.14.94-.26,1.4-.34.12-.03.25-.08.35-.09.19-.03.4-.07.59-.09.02-.01.05-.01.06-.01.23-.03.43-.07.65-.1.5-.06,1.02-.12,1.54-.17.08-.01.17-.02.25-.02.32-.03.65-.05.96-.07h1.42c.27.02.56.03.82.06.28.02.56.06.84.09.24.02.48.06.71.09.33.06.67.11,1.01.18.03.01.08.02.12.02.19.05.4.1.59.16.2.05.41.09.61.14.24.05.46.11.68.18,1.84.5,3.65,1.25,5.42,2.12.52.25,1.03.57,1.55.84.31.18.61.34.91.5.08.05.14.1.19.15,1.11.62,2.19,1.37,3.26,2.06,2.13,1.36,4.28,2.76,6.25,4.21.02.01.03.03.06.03.02.01.05.02.07.02.06.03.1.08.16.11,2.21,1.56,4.37,3.13,6.5,4.51.32.2.62.39.93.6,1.34.94,2.76,1.79,4.18,2.62.46.28.94.56,1.42.83.02.01.05.02.07.05.39.22.78.44,1.18.66.62.35,1.34.88,2.04,1.03-.83.15-1.68.22-2.52.23-.4,0-1.21.02-1.55-.19,1.05.66,2.1,1.33,3.22,1.85,1.21.57,2.39,1.19,3.59,1.74-.33.14-.68.18-1.04.19h-.16c-.28-.01-.56-.03-.84-.06-.51-.05-.99-.08-1.48-.07-.06,0-.11,0-.19.01-.01,0-.02-.01-.03,0-.25.01-.57.03-.73-.08.77.7,1.54,1.43,2.29,2.18l.02.02c3.33,3.31,6.5,7.13,9.2,11.07,1.09,1.59,2.1,3.18,3,4.78-1.06-.49-4.4-.61-5.09-1.31,1.02,1.03,1.96,2.15,2.79,3.34Z"/><path class="cls-8" d="m376.62,313.51c-1.48.2-3.05-.1-4.35-.86.39.92.77,1.82,1.16,2.74-.87-.16-1.74-.33-2.62-.49-.26-.05-.54-.09-.76.05-.15.09-.24.24-.33.39-1.04,1.76-2.04,3.57-3.25,5.21-.54.74-2.8,2.45-2.8,3.33-.01-1.13-.01-2.24-.01-3.38-3.84,8.03-11.09,14.01-15.99,21.46-.07-.69-.14-1.4-.2-2.08-1.2,2.73-2.86,5.17-4.83,7.04.73-1.62,1.12-3.53,1.18-5.49-.95,2.44-3.68,4.5-5.45,5.66-.5.32-1.02.63-1.55.88-.2.1-.43.22-.65.29-.37.17-.76.32-1.14.43-.35.14-.71.25-1.09.33-.07.02-.12.03-.19.03-.35.09-.7.17-1.06.2-.39.08-.79.11-1.18.14-7.61.43-15.69-5.7-18.69-12.5.15.61.01,1.28-.35,1.79-1.91-2.74-3.94-5.76-6.37-8.06-.41.96-.51,1.94-.75,2.97-2.15-3.42-4.34-6.73-6.42-10.16-1.71-2.82-2.55-5.72-4.75-1.39-2.76-2.36-4.75-5.59-5.54-9.09-1.33.46-2.64.94-3.97,1.4,1.61-2.97,3.13-5.99,4.46-9.08.01-.05.03-.09.06-.14.17-.4.34-.79.5-1.19.37-.88.73-1.78,1.04-2.67.17-.45.34-.91.49-1.36.15-.42.28-.84.42-1.26.43-1.35.83-2.72,1.16-4.1.14-.51.25-1.03.36-1.55.69-3.23.99-6.53.99-9.83,0-.62-.01-1.25-.03-1.87,0-.17,0-.34-.01-.51-.17-3.98-.39-8.68-1.67-12.47-.01-.02-.01-.03-.02-.06-1.13-5.42-2.69-10.73-4.24-15.79-.06-.2-.12-.4-.17-.6-.87-2.84-1.62-5.73-2.49-8.6,4.59,6.12,7.73,13.26,11.73,19.78,1.31,2.14,3,5.89,5.08,7.4-1.36-.97-2.97-1.65-4.65-1.91.69,1.04,1.39,2.11,2.1,3.15-.82-.39-1.63-.77-2.45-1.13.68,2.91.8,5.7,1.3,8.6,1.25,9.46.91,19.07,2.7,28.46,1.51,7.9,7.9,15.31,13.22,21.31-.15-1.14-.28-2.29-.43-3.39,1,1.57,2.23,2.96,3.65,3.99-.16-.85-.32-1.69-.48-2.53.14.7,3.34,2.08,3.92,2.46,1.38.92,2.81,2.04,4.32,2.7,5.23,2.3,11.24-.43,15.75-3.89-.51,1.06-1.02,2.14-1.55,3.23.59-1.21,2.64-1.51,3.55-2.18,2.88-2.12,4.71-4.89,7.06-7.22,6.03-5.98,11.05-12.63,12.61-20.82,1.56-8.19.12-16.67-.44-24.32-.18-2.44-.15-4.91-2.54-6.81-.33-.26-2.81-2.49-3.25-2.11,2.53-2.14,6.02-4.31,8.09-7.12,2.2-2.98,4.33-6.15,6.25-9.6,1.99-3.57,4.18-6.98,6.63-10.23-1.52,3.24-3.38,6.8-3.64,7.39-1.62,3.8-3.04,7.68-4.23,11.61-.17.58-.34,1.13-.5,1.7-.18.67-.36,1.34-.53,2.01-.11.43-.22.85-.32,1.27-.15.6-.28,1.2-.42,1.81-.23,1.03-.43,2.08-.63,3.13-.19,1.12-.37,2.23-.53,3.36-.09.56-.16,1.11-.22,1.68-.01.08-.02.17-.03.26-.01.08-.02.17-.03.25,0,.06-.01.12-.02.19-.26,2.36-.42,4.7-.48,7.1-.14,5.9,1.52,11.6,3.82,16.98.5,1.17,5.57,13.66,6.72,13.66Z"/><path class="cls-8" d="m375.24,211.57c-.33.14-.68.18-1.04.19h-.16c-.61-.02-1.74-.07-2.52-.11-.01,0-.02-.01-.03,0-.35-.03-.62-.06-.73-.08.77.7,1.54,1.43,2.29,2.18-.48.24-.95.49-1.42.76-1.9,1.09-2.82,3.07-4.33,4.68-2.25,2.42-4.53,4.77-6.81,6.98-4.49,4.35-9.01,8.15-13.34,10.96-1.03.67-8.36,4.07-8.36,4.07,0,0,.7-2.28.68-3.46-1.35,1.36-2.54,2.88-3.53,4.49-1.74-1.12-3.49-2.46-5.38-3.27.39,2.59,1.9,4.35,3.32,5.9-3.43-1.11-13.8-11.13-13.8-11.13,0,0,1.28,4.75,1.88,6.99-7.6-3.19-15.43-10.79-24.82-18.66-2.45-2.05-5.63-6.65-8.96-8.02.11-.11.22-.22.33-.33-1.31-.27-2.64-.62-3.98-.7,1.06-.79,7.55-4.78,8.74-4.01-1.3-.85-3.68-1.23-5.18-1.81,3.22-.91,6.3-2.19,9.27-3.69.33-.18.65-.36.97-.56.19-.07.39-.17.56-.28.25-.14.51-.27.76-.43.02,0,.05-.01.07-.02,2.74-1.21,5.31-3.18,7.79-4.77.03-.02.07-.05.1-.07.03-.01.07-.03.1-.07.19-.11.37-.24.59-.37.01-.01.02-.01.03-.02.23-.15.44-.28.67-.43.31-.19.62-.4.93-.59.42-.27.85-.56,1.28-.83.1-.07.22-.14.32-.2.53-.35,1.05-.74,1.59-1.1.36-.24.74-.5,1.11-.74.02-.01.06-.03.08-.05.09-.06.18-.11.27-.17.03-.02.08-.05.11-.07,1.16-.7,2.35-1.45,3.56-2.1.4-.23.82-.43,1.22-.63.58-.28,1.16-.56,1.73-.8.42-.18.84-.36,1.26-.52.17-.07.35-.14.52-.2.2-.07.42-.15.62-.23.2-.07.41-.14.61-.2.14-.05.28-.09.43-.14.35-.11.71-.22,1.06-.31.46-.12.95-.24,1.4-.34.12-.03.24-.06.35-.08.19-.03.4-.07.59-.1.02-.01.05-.01.06-.01.22-.05.43-.08.63-.11.51-.07,1.04-.11,1.54-.17.09-.01.17-.01.26-.01.32-.03.65-.05.96-.07h1.42c.27.02.56.03.82.06.28.02.56.06.84.09.24.02.48.06.71.09.33.06.67.11,1.01.18.03.01.08.02.12.02.19.05.4.09.6.14.2.05.41.1.6.16.24.05.46.11.68.18,6.37,1.88,12,6.38,17.58,9.88.02.01.03.03.06.03.02.02.03.03.06.05.06.03.11.06.17.09,2.21,1.56,4.37,3.13,6.5,4.51.32.2.62.39.93.6,1.37.9,2.76,1.77,4.18,2.62.46.28.94.56,1.42.83.02.01.05.02.07.05.39.22.78.44,1.18.66.62.35,1.34.88,2.04,1.03-.83.15-1.68.22-2.52.23-.4,0-1.21.02-1.55-.19,1.05.66,2.1,1.33,3.22,1.85,1.21.57,2.39,1.19,3.59,1.74Z"/><path class="cls-8" d="m363.6,202.76c-1.77,1.91-4,5.09-4.6,5.82-3.31,4.02-7.66,7.66-11.34,10.21-1.37.95-4.25,2.31-4.25,2.31,0,0,2.75-3.19,3.45-5.47-2.3,1.3-4.66,2.67-6.67,4.41-.89.77-3.4,4.11-3.4,4.11,0,0-.05-1.98-.06-3,0,.19-3.64,3.42-3.95,3.87-1.1,1.6-2.43,3.84-2.94,5.78-.06.23-5.68-4.32-6.17-4.84-.89-.94-1.76-1.96-2.64-2.99-1.48-1.75-2.97-3.72-4.7-5.29.57,1.7,1.22,3.32,1.82,4.92-5.51-3.57-12.13-9.84-17.35-17-.25-.34-1.17-1.89-1.94-2.94,2.88-1.57,5.73-3.36,8.62-5.23,7.14-4.01,14.37-9.77,22.79-10.65.4-.04.82-.06,1.22-.08.25-.01.51-.02.77-.02.57,0,1.12.03,1.69.08,3.37.28,6.68,1.43,9.75,2.97.52.26,1.05.54,1.57.84.3.18.61.34.91.52.06.04.12.07.19.12,1.17.74,2.14,1.54,3.26,2.07,4.54,2.89,8.92,6.06,13.05,8.88.3.2.61.4.91.61Z"/></g><g id="G03L07T010101_gatoNegro_sin"><path class="cls-15" d="m372.09,184.65c-.08,1.34-.22,2.68-.42,3.98-.37-.27-.68-.66-.86-1.11-.29,1.23-.78,2.4-1.43,3.46,0-.71-.21-1.42-.58-2-.41,1.17-.82,2.35-1.22,3.52.14-.39-.01-1.38-.09-1.79-.62.74-1.36,1.34-2.02,2.03-.7.73-1.39,1.47-2.15,2.12-1.64,1.4-3.35,2.71-5.13,3.92-7.75,5.3-16.71,8.69-25.87,9.7-.28.04-.57.06-.85.08-.61.01-1.23-.01-1.85-.08-3.24-.36-6.45-1.02-9.6-1.95-5.54-1.63-10.87-4.13-15.76-7.4-.86-.58-1.72-1.16-2.57-1.76-1.46-1.04-2.89-2.14-4.24-3.35-1.62-1.45-2.83-2.83-3.78-4.88-.19.7-.31,1.42-.34,2.15-.59-.81-.92-1.68-1.19-2.65-.25-.9-.38-1.84-.39-2.78-.45.68-.7,1.45-.79,2.27-.43-.98-.59-2.07-.76-3.14-.08-.52-.19-1.04-.22-1.56-.02-.38-.1-1.35.16-1.65-.62.71-1.23,1.42-1.85,2.13.55-4.67,2.12-9.11,3.53-13.58.54-1.72,1.17-3.42,1.77-5.13.31-.89,1.21-4.83,2.04-5.21-.42.19-.84.38-1.27.58.72-1.78,1.32-3.48,2.3-5.15-.23.13-.53.14-.77.03.47-.69.81-1.45,1.02-2.25-.34.06-.68.11-1.02.17,2.41-4.27,4.4-8.68,6.88-12.9,3.68-6.28,8.83-11.64,14.7-15.55,2.77-1.84,5.57-2.57,8.62-2.92.95-.12,1.92-.19,2.93-.26-.28-.41-.95-1.11-1.58-1.54-.32-.22-.63-.37-.87-.39.49.03.97.06,1.46.1.58.05,1.17.13,1.75.23.4.06.79.15,1.18.26.73.19,1.45.45,2.15.8-.35-.33-.68-.68-.96-1.05-.46-.53-.85-1.08-1.18-1.68-.05-.06-.09-.13-.12-.19-.02-.04-.05-.09-.07-.14.04.05.06.09.1.13.04.05.07.09.12.14.58.59,1.7,1.12,2.71,1.54.26.1.5.19.73.28.38.15.7.28.95.39,1.63.71,3.21,1.29,4.75,2.16.15.08.29.17.44.24.44.26.89.5,1.32.73,1.14.62,2.28,1.21,3.44,1.8,1.6,1.11,3.14,2.33,4.61,3.68,3.65,3.35,6.82,7.19,9.32,11.43,1.25,2.12,2.32,4.33,3.2,6.61.94,2.43,2.26,4.35,3.52,6.65-.38.23-.87.28-1.28.12.83.93,1.55,1.96,2.14,3.05-.3-.1-.59-.21-.89-.31.37.51.73,1.02,1.1,1.53-.34.11-.72.1-1.06-.02.66.99,1.33,1.99,1.99,2.98-.3,0-.6,0-.91.01,1.03,4.09,3.03,7.95,3.85,12.21.21,1.07.45,2.08.64,3.07.53,2.61.66,5.35.5,8.06Z"/><path class="cls-12" d="m372.09,180.6c-.08,1.34-.22,2.68-.42,3.98-.37-.27-.68-.66-.86-1.11-.29,1.23-.78,2.4-1.43,3.46,0-.71-.21-1.42-.58-2-.41,1.17-.82,2.35-1.22,3.52.14-.39-.01-1.38-.09-1.79-.62.74-1.36,1.34-2.02,2.03-.7.73-1.39,1.47-2.15,2.12-1.64,1.4-3.35,2.71-5.13,3.92-7.75,5.3-16.71,8.69-25.87,9.7-.28.04-.57.06-.85.08-.61.01-1.23-.01-1.85-.08-3.24-.36-6.45-1.02-9.6-1.95-5.54-1.63-10.87-4.13-15.76-7.4-.86-.58-1.72-1.16-2.57-1.76-1.46-1.04-2.89-2.14-4.24-3.35-1.62-1.45-2.83-2.83-3.78-4.88-.19.7-.31,1.42-.34,2.15-.59-.81-.92-1.68-1.19-2.65-.25-.9-.38-1.84-.39-2.78-.45.68-.7,1.45-.79,2.27-.43-.98-.59-2.07-.76-3.14-.08-.52-.19-1.04-.22-1.56-.02-.38-.1-1.35.16-1.65-.29.33-.57.66-.86.99-.43,1.7-.78,3.42-.99,5.2.62-.71,1.23-1.42,1.85-2.13-.26.3-.18,1.27-.16,1.65.03.52.14,1.04.22,1.56.16,1.07.33,2.16.76,3.14.09-.82.35-1.59.79-2.27,0,.94.14,1.88.39,2.78.27.97.59,1.84,1.19,2.65.04-.73.15-1.45.34-2.15.94,2.05,2.16,3.43,3.78,4.88,1.35,1.21,2.78,2.31,4.24,3.35.85.6,1.71,1.19,2.57,1.76,4.89,3.26,10.21,5.76,15.76,7.4,3.15.94,6.36,1.59,9.6,1.95.62.06,1.24.09,1.85.08.28-.01.57-.04.85-.08,9.16-1,18.12-4.4,25.87-9.7,1.77-1.21,3.49-2.52,5.13-3.92.76-.65,1.45-1.39,2.15-2.12.66-.69,1.4-1.29,2.02-2.03.08.41.22,1.4.09,1.79.41-1.17.82-2.35,1.22-3.52.37.59.58,1.29.58,2,.65-1.06,1.14-2.23,1.43-3.46.19.44.49.83.86,1.11.2-1.3.35-2.64.42-3.98.08-1.36.08-2.73,0-4.09,0,.01,0,.02,0,.03Z"/><path class="cls-12" d="m328.27,173.69c.88.81,2.98.93,4.07.52.35-.13,1.24-.48,1.4-.82.05-.11.05-.23.04-.34-.1-2.02-.7-4.15-1.32-6.07-.49-1.53-1.19-3.48-.79-5.13-.18.74-.36,1.49-.54,2.23-.22-1.74-.33-3.5-.32-5.26-.68,2.64-1.28,5.32-1.94,7.94-.46,1.81-.85,3.63-1.03,5.5-.06.67.12,1.13.45,1.43Z"/><path class="cls-12" d="m323.28,146.32c-.82-1.81-1.24-3.69-.54-5.45.68-1.71,2.23-2.79,3.75-3.67,3.44-2,9.02-2.86,12.48-.42,1.98,1.4,3.23,4.14,2.55,6.59-.37,1.32-1.23,2.42-2.08,3.45-2.64,3.21-5.4,6.3-8.29,9.24.07-.08-4.08-5.15-4.34-5.56.23.59.26,1.26.09,1.87-.97-1.7-2.6-3.83-3.62-6.06Z"/></g><g id="G04L08T010101_gatoNegro"><path class="cls-19" d="m314.92,150.1h.24c1.46.1,3.02,1.09,4.25,2.17t.01.01c1.24,1.1,2.12,2.31,2.17,2.77h0s.01.04.01.06c0,2.97-2.41,5.38-5.38,5.38-2.97,0-5.38-2.41-5.38-5.38,0-1.67.85-3.05,1.94-4.15.52-.52,1.09-.77,1.69-.84,0,0,.06-.01.15-.01h.29Z"/><path class="cls-34" d="m311.27,154.91c0,2.86,2.31,5.17,5.17,5.17,2.8,0,5.07-2.23,5.15-5h0c-.06-.47-.93-1.69-2.17-2.79t-.01-.01c-1.23-1.09-2.79-2.08-4.25-2.17h-.11s-.04,0-.04,0c-.28,0-.54.06-.79.14-.38.14-.74.36-1.06.68h-.01c-.78.79-1.45,1.74-1.73,2.84-.04.18-.08.36-.1.56-.03.2-.04.39-.04.59Z"/><circle class="cls-3" cx="317.92" cy="153.81" r="1.48"/></g><g id="G05L09T010101_gatoNegro"><path class="cls-19" d="m347.5,150.12c.1,0,.15.01.15.01.6.07,1.17.32,1.69.84,1.09,1.1,1.94,2.48,1.94,4.15,0,2.97-2.41,5.38-5.38,5.38s-5.38-2.41-5.38-5.38c0-.01,0-.03.01-.04h0c.06-.47.93-1.69,2.17-2.79t.01-.01c1.23-1.09,2.79-2.08,4.25-2.17h.53Z"/><path class="cls-34" d="m350.86,154.91c0,2.86-2.31,5.17-5.17,5.17s-5.07-2.23-5.15-5h0c.06-.47.93-1.69,2.17-2.79t.01-.01c1.23-1.09,2.79-2.08,4.25-2.17h.15c.28,0,.54.06.79.14.38.14.74.36,1.06.68h.01c.78.79,1.45,1.74,1.73,2.84.04.18.08.36.1.56.03.2.04.39.04.59Z"/><circle class="cls-3" cx="344.21" cy="153.81" r="1.48"/></g><path id="G06L10T020101_cerrada_sincolmi" class="cls-34" d="m349.88,177.54c.09,2.01-1.47,3.76-3.26,4.76-1.75.98-3.9,1.55-6.1,1.65-.29.01-.59.02-.88.02-3.19-.02-6.36-1.04-8.38-3.22-.09-.11-.18-.21-.27-.32-.76.99-1.84,1.79-3,2.32-1.77.79-3.7,1.2-5.64,1.23-.29,0-.58,0-.87-.01-2.15-.09-4.26-.65-6.11-1.66-1.79-1-3.35-2.75-3.26-4.76.11,1.96,1.72,3.48,3.54,4.31,1.44.66,3.17,1.03,4.93,1.08.13,0,.26,0,.39,0,3.18,0,6.42-1.03,8.19-3.27.41-.56.65-1.17.69-1.78.01-.12.47-5.63.47-5.74h1.59l.21,5.39s0,.1,0,.15c0,1.54,1.26,2.9,2.7,3.71,1.81,1.02,4,1.54,6.19,1.54.13,0,.26,0,.39,0,1.72-.05,3.42-.41,4.93-1.09,1.81-.83,3.43-2.36,3.54-4.31Z"/><g id="G07L11T010201_gatoNegro_rosa_G"><path class="cls-23" d="m336.89,170.95c0,2.59-4.7,5.64-5.99,5.64-1.22,0-5.99-2.98-5.99-5.64,0-1.9,2.68-1.88,5.99-1.88s5.99-.02,5.99,1.88Z"/><path class="cls-5" d="m330.91,175.24c-1.19,0-5.73-2.12-5.98-4.08.25,2.61,4.79,5.42,5.98,5.42,1.25,0,5.72-2.88,5.97-5.42-.25,1.91-4.72,4.08-5.97,4.08Z"/><g id="bigotees"><path class="cls-34" d="m347.01,175.05c6.06.27,12.11,1.89,17.49,4.69-5.7-2.09-11.5-3.65-17.49-4.69h0Z"/><path class="cls-34" d="m315.05,175.05c-5.99,1.04-11.79,2.59-17.49,4.69,5.38-2.8,11.43-4.42,17.49-4.69h0Z"/><path class="cls-34" d="m343.64,170.23c11.74-4.24,24.33-6.18,36.8-5.81-12.45.4-24.83,2.3-36.8,5.81h0Z"/><path class="cls-34" d="m347.04,172.01c12.32-1.32,24.85-.89,37.05,1.28-12.3-1.42-24.69-1.84-37.05-1.28h0Z"/><path class="cls-34" d="m318.45,170.23c-11.96-3.51-24.34-5.41-36.8-5.81,12.47-.37,25.06,1.57,36.8,5.81h0Z"/><path class="cls-34" d="m315.05,172.01c-12.37-.63-24.75-.2-37.05,1.28,12.2-2.25,24.73-2.68,37.05-1.28h0Z"/></g></g><g id="G08L12T010101_gatoNegro_P_N"><path class="cls-15" d="m320.68,124.41c-.01.2-.02.41-.05.61-.04.2-.08.4-.14.61-.05.2-.12.39-.2.59-.3.83-.88,1.75-1.47,2.41.04-.18.08-.38.11-.56-.18.15-.38.31-.58.45-.83.65-1.64,1.36-2.41,2.08.09-.21.2-.4.29-.61-1,.76-2.06,1.32-3.06,2.07-1.57,1.18-3.02,2.58-4.34,4.05-1.27,1.42-2.77,3.08-3.16,5-.14-.37-.23-.76-.27-1.16-.82,2.26-2.3,4.21-3.76,6.12-.11-.31-.2-.65-.37-.92-.4.5-.48,1.65-.66,2.3-.19-.18-.35-.38-.48-.6-.25.52-.41,1.08-.46,1.65-.99-1.44-1.81-2.59-2.14-4.33-.24-1.28-.39-2.55-.5-3.84-.05-.71-.09-1.43-.12-2.13-.11-3.42.12-6.86.52-10.27.07-.56.14-1.13.21-1.69.16-1.25.31-2.5.55-3.75.13-.62.26-1.22.43-1.82.09-.34.51-1.21-.16-1.03.14-.41.55-1.37.94-1.59-.27.14-.53.28-.8.42-.04.02-.06.04-.09.06.1-.17.21-.34.33-.5.08-.11.17-.22.27-.32.08-.08.14-.15.22-.22.01-.02.02-.03.03-.05.05-.06.11-.12.19-.17.11-.1.23-.19.35-.27.07-.05.14-.11.21-.15.1-.08.23-.14.33-.2.16-.09.32-.16.48-.22.12-.05.25-.09.37-.13.01,0,.02-.02.05-.01.19-.07.38-.12.58-.16.19-.04.4-.07.61-.1.08,0,.14-.02.22-.02.24-.02.48-.03.72-.03.53-.02,1.08.03,1.63.12,1.69.24,3.45.81,5.07,1.46.03,0,.04.02.06.02.09.05.18.08.27.12,1.42.58,2.7,1.21,3.7,1.7.06.03.12.06.17.09,1.24.61,2.46,1.27,3.54,2.15.53.44,1.04.92,1.46,1.47.34.45.91,1.14.96,1.71.12-.14.24-.28.34-.41Z"/><path class="cls-28" d="m314.67,128.18s-.08-.01-.12-.02c-1.16-.2-2.32-.41-3.48-.61,1.15.43,2.18,1.18,2.96,2.14-1.61-.14-3.23-.27-4.84-.41.78.51,1.56,1.01,2.34,1.52.45.29-8.1,7.44-8.4,8.24-.05.13-.1.27-.21.35-.1.07-.23.06-.35.05-.51-.03-1.01-.07-1.52-.1-.27-.02-.56-.05-.73-.26-.24-.29-.08-.74.16-1.03s.56-.53.67-.89c-.22-.4-.73-.6-1.15-.45.09-2.71.28-5.27.65-7.94.32-2.32.78-4.3,1.87-6.41,2.15-4.13,10.13.18,12.43,2.26.74.67,1.28,1.67,1.16,2.67-.03.25-.11.51-.29.69-.29.28-.74.26-1.15.2Z"/></g><g id="G09L13T010101_gatoNegro_P_N"><path class="cls-15" d="m341.24,124.41c.01.2.02.41.05.61.04.2.08.4.14.61.05.2.12.39.2.59.3.83.88,1.75,1.47,2.41-.04-.18-.08-.38-.11-.56.18.15.38.31.58.45.83.65,1.64,1.36,2.41,2.08-.09-.21-.2-.4-.29-.61,1,.76,2.06,1.32,3.06,2.07,1.57,1.18,3.02,2.58,4.34,4.05,1.33,1.48,2.29,3.18,3.34,4.86.03-.51,0-1.03-.08-1.54.07.43.57,1,.76,1.41.2.44.43.87.62,1.3.43.99.59,2.04,1.4,2.82-.14-.56-.06-1.18.21-1.69.06.23.98,3.02.89,3.03.27-.04.5-.24.59-.5.62,1.1,1.18,2.15,1.97,3.16-.26-.34.77-2.09.93-2.43.33-.76.51-1.53.66-2.36.24-1.28.39-2.55.5-3.84.05-.71.09-1.43.12-2.13,0-1.84.04-3.62.2-5.45-.14.1-.27.21-.41.31.05-1.71-.09-3.42-.31-5.12-.07-.56-.14-1.13-.21-1.69-.16-1.25-.31-2.5-.55-3.75-.5-2.58-1.21-6.01-4.35-6.46-.08,0-.14-.02-.22-.02-.24-.02-.48-.03-.72-.03-.53-.02-1.08.03-1.63.12-1.35.21-2.7.56-3.98,1.04-.32.12-2.76.87-2.81,1.08.03-.13.01-.28.05-.4-.78.53-1.48,1.16-2.35,1.57-.06.03-.12.06-.16.09-1.24.61-2.46,1.27-3.54,2.15-.53.44-1.04.92-1.46,1.47-.34.45-.91,1.14-.96,1.71-.12-.14-.24-.28-.34-.41Z"/><path class="cls-28" d="m361.45,138.04c.24.28.4.74.16,1.03-.17.22-.46.25-.74.26-.5.03-1.01.07-1.52.1-.12.01-.25.02-.35-.05-.11-.08-.17-.22-.22-.35-.29-.79-8.85-7.94-8.4-8.24.59-.39,1.17-.76,1.76-1.14.19-.12.39-.25.58-.37-.59.05-1.17.1-1.76.15-1.03.09-2.06.17-3.08.26.78-.96,1.81-1.71,2.96-2.14-1.16.2-2.31.41-3.48.61-.03.01-.08.01-.12.02-.41.06-.85.08-1.14-.2-.18-.17-.26-.43-.29-.69-.11-.99.41-1.96,1.13-2.63.01-.01.02-.02.03-.03,2.3-2.08,10.28-6.4,12.43-2.27,1.1,2.1,1.55,4.08,1.88,6.4.11.8.2,1.6.28,2.39.19,1.84.31,3.66.36,5.55-.41-.15-.93.05-1.14.44.11.36.43.6.67.9Z"/></g></g><g><g id="G01L01T0101_negro_sin"><path class="cls-15" d="m225.57,253.92c0,.08,0,.16,0,.24,0,.06,0,.12-.01.18,0,.04,0,.09,0,.13,0,.04,0,.08,0,.12,0,0,0,.01,0,.02h0s0,.02,0,.03h0s0,.07,0,.1c0,.1-.02.21-.03.31-.02.18-.05.37-.07.55-.01.08-.02.16-.04.24-.01.07-.02.14-.04.2-.03.15-.06.3-.09.45-.01.06-.03.13-.04.19-.03.12-.06.24-.09.36,0,.03-.02.07-.02.1-.03.11-.06.22-.09.33-.03.11-.06.22-.09.33-.13.44-.27.88-.43,1.32-.02.05-.03.09-.05.14-.01.04-.02.07-.04.11-.03.09-.06.17-.1.25-.02.06-.04.11-.07.17,0,0,0,.01,0,.02l-.02.04s-.01.03-.02.04c0,0,0,.02-.01.02-.4,1-.86,2-1.37,3-.02.04-.04.08-.06.12-.03.06-.06.12-.09.17-.03.06-.07.13-.1.19-.03.06-.06.11-.08.16-.03.06-.06.11-.09.17-.02.03-.04.07-.05.1-.03.06-.07.12-.1.18-.01.01-.02.03-.02.05-.04.06-.07.12-.1.19-.02.05-.05.09-.08.14-.03.06-.06.11-.09.17-.08.14-.16.29-.24.43-.03.05-.06.11-.09.16-.04.07-.08.14-.12.21-.04.07-.08.14-.12.22-.02.04-.05.08-.07.12-.06.1-.12.2-.18.3-.02.03-.04.07-.06.1h0s-.01.02-.01.03c-.46.78-.93,1.55-1.39,2.3-.02.03-.03.06-.05.08-.06.1-.12.2-.19.31-.04.07-.09.14-.13.21-.11.17-.21.34-.32.51-.04.06-.07.12-.11.18-.06.1-.12.2-.19.29-.01.02-.03.05-.04.07-.03.04-.06.09-.08.13-.07.11-.14.22-.21.33-.05.07-.09.14-.14.22-.02.04-.05.08-.08.12-.04.07-.09.14-.13.2-.07.12-.15.24-.23.37-.06.09-.11.19-.17.28-.06.09-.12.19-.17.28-.13.22-.26.43-.39.64-.04.06-.07.12-.11.17-.16.27-.32.53-.46.79-.63,1.09-1.27,2.24-1.89,3.42-.11.2-.21.4-.31.59-.16.32-.33.63-.48.95-.01.02-.02.04-.03.06-.1.19-.2.39-.29.59-.1.2-.2.41-.29.61-.05.1-.09.19-.14.29-.16.33-.31.66-.45.99h0s-.01.03-.02.05c0,.02-.02.04-.02.05-.11.25-.22.51-.33.76-.04.09-.08.18-.11.27-.09.21-.18.43-.27.64-.01.02-.02.04-.03.06-.07.18-.14.35-.21.53-.03.08-.06.15-.09.23-.08.2-.15.4-.23.6,0,0,0,0,0,.01-.07.17-.13.33-.19.5-.05.14-.1.28-.15.42-.02.06-.04.12-.06.17-.03.1-.07.19-.1.29-.04.13-.09.25-.13.38-.06.17-.11.34-.17.51-.03.09-.06.19-.09.28-.06.2-.12.4-.18.6-.04.15-.09.3-.13.45-.07.23-.13.46-.19.69-.04.15-.08.3-.12.46,0,.02-.01.04-.01.05-.03.13-.07.27-.1.4-.02.1-.05.2-.07.3,0,.01-.01.03-.01.04-.1.45-.19.89-.27,1.34-.02.1-.04.2-.05.3,0,.02,0,.03,0,.05-.01.06-.02.13-.03.19-.04.23-.07.47-.11.7-.02.16-.04.32-.06.48,0,.02,0,.04,0,.06-.01.07-.02.15-.02.22-.02.17-.04.34-.05.51-.02.23-.04.46-.06.69-.01.23-.02.46-.03.69,1.15-1,2.3-2,3.45-3.01-.06.05-.11.1-.16.15-.03.02-.05.05-.08.08-.02.01-.04.03-.05.05-.02.02-.05.05-.07.07-.05.05-.09.1-.14.15,0,0,0,0-.01.01,0,0-.01.02-.02.02-.08.09-.15.18-.23.27,0,0-.01.02-.02.03-.04.05-.08.11-.12.16-.04.06-.08.11-.12.17,0,0-.01.01-.02.02-.05.07-.09.13-.14.2,0,0,0,.01-.01.02-.05.07-.1.15-.15.23-.05.08-.1.16-.15.25-.05.08-.1.17-.15.26-.03.06-.07.12-.09.17-.03.06-.06.12-.09.18-.04.08-.08.16-.12.24-.04.09-.09.17-.12.26-.04.08-.07.15-.11.24-.04.08-.07.17-.11.25,0,.02-.02.04-.02.06-.08.2-.16.4-.24.61-.02.04-.03.09-.05.13-.07.18-.13.37-.19.56-.03.09-.06.19-.09.29,0,.02-.02.05-.02.07-.03.08-.05.17-.08.25-.03.09-.06.17-.08.26,0,.02-.01.04-.02.06-.02.08-.04.16-.07.24-.02.08-.05.16-.07.24-.02.07-.04.15-.06.23-.02.08-.05.17-.07.25,0,.03-.02.06-.02.09t0,0c-.03.12-.06.24-.09.35-.01.05-.02.09-.03.14-.06.23-.11.46-.15.7,0,.02-.01.05-.01.07,0,.02-.01.04-.02.07h0c-.02.11-.04.22-.06.32-.02.11-.04.21-.06.32-.03.19-.07.37-.1.56-.04.24-.08.49-.12.73-.01.09-.03.19-.04.28-.03.22-.07.44-.09.66l-.05.37c0,.06-.02.12-.02.18-.02.19-.04.37-.07.56-.03.27-.06.54-.08.81-.07.68-.12,1.35-.15,2,0,.11-.01.23-.02.34-.01.22-.02.45-.03.67,0,.12-.01.24-.01.36-.02.68-.03,1.34-.02,1.97,0,.11,0,.23,0,.34,0,.22,0,.45.01.66,0,.17.01.34.02.5,0,.16.02.32.02.47,0,.03,0,.07,0,.1,0,.13.02.25.02.37.01.15.02.29.04.43,0,.11.02.2.03.3.01.11.02.2.03.3.99,8.14,3.14,16.3,4.58,24.41,3.38,19.05,5.21,40.07-3.38,58.07-1.17,2.45-2.56,4.82-4.16,7.04-2.75,3.81-6.12,7.18-10.06,9.74-1.41.92-3.92,2.63-5.22,2.07-.42-.19-.72-.61-.8-1.39-.26-2.5,4.74-6.81,6.11-8.62,4.22-5.56,6.54-13.19,6.82-20.75.03-.79.04-1.58.02-2.37,0-.13,0-.27-.01-.4,0-.17,0-.33-.02-.5,0-.03,0-.05,0-.08,0-.24-.02-.48-.04-.73,0-.07,0-.15-.01-.22-.01-.19-.02-.38-.04-.58-.01-.19-.03-.38-.05-.56,0-.04,0-.07-.01-.11-.02-.2-.04-.41-.06-.61-.01-.11-.02-.21-.04-.32-.01-.14-.03-.27-.05-.4-.01-.1-.02-.2-.04-.3-.03-.22-.06-.44-.1-.66,0,0,0-.01,0-.02-1.21-15.17-4.28-30.71-8.62-45.12-.06-.2-.12-.4-.18-.59-2.9-9.53-6.19-18.41-8.33-28.09-.86-3.88-1.29-7.84-1.32-11.8v-.03c-.05-6.4.95-12.81,2.9-18.89.34-1.05.71-2.12,1.11-3.2.06-.15.12-.31.18-.46.04-.11.08-.22.13-.33.11-.29.23-.58.35-.88.1-.24.2-.48.3-.72.25-.61.52-1.23.8-1.84.08-.17.15-.33.23-.5.06-.14.13-.28.2-.42.08-.16.15-.33.24-.49.04-.08.07-.15.11-.23.07-.15.14-.29.22-.43.12-.25.25-.5.37-.74.06-.11.12-.23.18-.34.09-.17.19-.35.28-.53.09-.17.19-.35.29-.52.09-.17.19-.34.28-.51.1-.18.2-.36.3-.53.02-.04.04-.07.06-.11.16-.27.32-.54.48-.81.02-.04.04-.07.07-.11.17-.29.35-.57.53-.84.06-.1.13-.2.2-.31.04-.06.07-.12.11-.17.02-.04.04-.07.07-.11.04-.07.09-.14.14-.21.19-.29.39-.58.59-.86.08-.12.16-.24.25-.35.03-.04.06-.09.1-.14.23-.32.46-.64.71-.95.05-.07.1-.13.15-.2.02-.03.04-.06.06-.08.11-.14.21-.27.32-.4.06-.07.11-.15.17-.22.13-.16.26-.32.4-.48.16-.19.32-.38.49-.57.01-.01.02-.03.04-.04.02-.02.04-.04.06-.07.08-.1.17-.19.25-.29.1-.12.2-.23.31-.34.09-.11.19-.21.29-.31.02-.02.04-.04.06-.07.06-.06.12-.12.17-.18.11-.12.23-.24.34-.35.12-.12.24-.24.36-.36.14-.14.28-.27.42-.4.04-.04.08-.07.12-.11.07-.07.15-.14.22-.21.2-.19.41-.38.62-.56.07-.06.13-.12.2-.17.23-.19.45-.38.69-.57.08-.07.17-.14.26-.2,0,0,0,0,0,0,.07-.06.14-.11.21-.16.24-.18.47-.36.71-.53.06-.04.11-.08.17-.12.05-.04.1-.07.15-.11.1-.07.2-.14.3-.2.21-.15.43-.29.65-.42.01-.01.02-.02.04-.02.04-.03.08-.05.12-.08.05-.03.1-.07.15-.1.08-.05.15-.09.24-.14.18-.11.36-.21.54-.31.12-.07.24-.13.36-.2.11-.06.23-.12.34-.18.27-.14.55-.28.83-.41.06-.03.12-.06.19-.09.06-.03.11-.05.17-.07.03-.02.07-.03.1-.05l.21-.09c.15-.07.31-.13.46-.19.15-.06.3-.12.46-.18.12-.05.25-.09.37-.14.26-.09.52-.18.79-.27,1.19-.37,2.43-.63,3.69-.76.23-.02.46-.04.68-.06.48-.03.96-.04,1.44-.03.14,0,.28,0,.41.02.12,0,.23.01.35.02.16.01.32.02.48.04.14.01.27.03.41.05.2.03.41.06.61.1,1.51.27,2.96.79,4.27,1.6.09.05.17.11.26.16.07.05.14.09.21.14.18.12.35.24.51.36.21.15.4.3.59.46.09.08.19.15.28.24.09.08.18.16.26.24.09.08.17.16.25.24.17.16.32.33.46.49.15.17.29.33.42.5.13.17.25.35.37.52.05.07.1.15.14.22,0,0,0,0,0,.01,0,0,.01.02.02.03.01.02.02.03.03.05.02.02.03.05.05.08h0s.02.04.03.06c.03.05.06.09.08.14.04.07.07.14.11.2h0c.04.07.07.14.1.2h0c.02.06.05.11.08.17.01.02.02.05.03.07.03.06.05.11.07.17.03.07.06.14.09.21.01.02.02.05.03.08.06.16.12.32.17.48.02.05.03.1.04.15.01.04.02.08.04.12,0,.02.01.05.02.07,0,.02.01.03.01.05.03.11.06.22.08.33,0,.03.01.06.02.09,0,.01,0,.02,0,.03,0,.02,0,.04.01.06.01.06.03.11.04.17.01.05.02.1.02.15.01.07.02.14.04.21h0c.02.13.04.26.05.39.01.1.02.2.03.31,0,.01,0,.03,0,.05,0,.02,0,.03,0,.05,0,.04,0,.07,0,.11,0,.08,0,.16.01.24,0,.01,0,.02,0,.03,0,.21,0,.43,0,.64Z"/><path class="cls-12" d="m216.8,243.67c-.66.14-1.31.3-1.95.51-.33.11-.65.22-.97.34-.09.03-.18.07-.27.11-.06.02-.11.04-.17.07-.12.05-.24.1-.36.15-.15.06-.29.12-.43.19-.46.21-.91.43-1.36.66-.08.04-.16.09-.25.14-.17.09-.34.19-.51.29-.13.07-.26.15-.39.23-.2.12-.4.25-.6.38-.11.07-.22.14-.33.22-.15.1-.31.2-.46.31-.11.07-.21.15-.31.22-.09.06-.17.12-.25.19-.66.48-1.3,1-1.92,1.55-.11.09-.21.18-.31.28-.42.38-.84.78-1.24,1.19-.12.12-.24.24-.35.36-.08.08-.16.17-.24.25-.08.08-.16.17-.24.25-.19.21-.38.42-.57.63-.14.15-.27.31-.41.47-.11.12-.21.25-.32.38-.19.23-.38.47-.57.71-.02.02-.03.04-.05.06-.2.26-.4.52-.6.78,0,0,0,0,0,0-.19.25-.38.51-.57.77-.02.02-.03.05-.05.07-.16.23-.32.45-.48.68-.24.35-.48.7-.71,1.06-.14.22-.29.45-.43.67-.51.82-1,1.66-1.47,2.5-.09.16-.18.32-.26.48-.19.36-.38.71-.56,1.07-.09.18-.19.36-.27.54-.09.18-.18.36-.27.54-.09.18-.18.36-.26.55-.02.04-.04.08-.06.13-.15.32-.3.64-.45.96-.08.18-.17.37-.25.55-.16.36-.32.73-.47,1.09-.07.17-.14.35-.22.52h0c-.08.19-.15.38-.23.58-.07.17-.13.33-.2.5-.17.44-.34.89-.51,1.33-.07.19-.14.38-.2.56-.25.68-.48,1.34-.69,2.01-.05.15-.1.31-.15.46-.06.18-.11.35-.17.53,0,2.58-.89,5.58-1.56,8.43h0c-.25,1.08-.47,2.13-.59,3.13-.14,1.1-.28,2.21-.43,3.31-.45,3.4-.94,6.8-1.39,10.2.73-.6,1.46-1.2,2.18-1.81-.06,2.48.15,7.21-.74,9.48.97-1.83,2.56-3.89,3.14-5.86-2.24,7.65-.18,15.84,2.29,23.42,3.98,12.19,6.38,24.67,9.43,37.11,3.33,13.6,6.32,30.05.1,43.27-2.75,3.81-6.12,7.18-10.06,9.74-1.41.92-3.92,2.63-5.22,2.07,1.42-2.35,4.32-5.03,5.31-6.37,4.8-6.47,7.14-15.67,6.82-24.4-.09-2.59-.25-5.2-.46-7.82,0,0,0-.01,0-.02-1.21-15.17-4.28-30.71-8.62-45.12-.06-.2-.12-.4-.18-.59-2.9-9.53-6.19-18.41-8.33-28.09-.86-3.88-1.29-7.84-1.32-11.8v-.03c0-.23,0-.45.01-.68.01-.86.05-1.73.11-2.59.01-.19.02-.37.04-.56,0-.07,0-.14.02-.22.01-.17.02-.33.04-.5,0-.07.01-.14.02-.22.02-.25.04-.49.07-.74.01-.12.02-.24.04-.35.02-.22.05-.43.07-.64,0-.02,0-.04,0-.05.02-.2.05-.39.07-.59.03-.26.06-.51.1-.77.02-.14.04-.28.06-.42,0-.04.01-.09.02-.13.03-.2.06-.41.09-.61.03-.21.07-.43.11-.64.07-.43.15-.85.23-1.28.06-.31.12-.61.18-.92.05-.27.11-.53.17-.8.07-.35.15-.69.23-1.03,0-.04.02-.08.03-.12.07-.31.15-.63.23-.94.04-.17.09-.34.13-.51.03-.14.07-.27.11-.4.05-.19.1-.38.16-.57.08-.29.16-.58.24-.86.11-.37.22-.74.33-1.11.38-1.23.81-2.48,1.29-3.75.06-.15.11-.3.17-.45.04-.1.07-.2.11-.29.08-.2.16-.41.24-.61,0-.01,0-.02.01-.03l.1-.25c.09-.23.19-.45.28-.68.13-.31.26-.62.39-.93.09-.21.18-.42.28-.63.04-.08.07-.15.1-.23.03-.08.07-.15.11-.23.12-.26.24-.53.36-.79.14-.29.28-.59.42-.88,0,0,0-.02.01-.03.15-.31.3-.62.46-.92.11-.22.23-.44.35-.66.06-.1.11-.21.17-.31.02-.03.03-.06.05-.09.12-.22.24-.45.36-.67.01-.03.03-.06.05-.08.11-.2.22-.4.34-.6,0-.02.02-.04.03-.06.06-.11.12-.21.18-.32.04-.06.07-.13.11-.19.11-.19.22-.37.33-.56.04-.07.08-.13.12-.2.15-.25.31-.5.46-.75.01-.02.03-.04.04-.07.17-.26.33-.52.5-.77.01-.01.02-.03.03-.04.16-.25.33-.49.5-.73.04-.05.07-.1.11-.15.02-.03.05-.07.07-.1.16-.23.32-.46.49-.68.19-.27.39-.53.59-.79.03-.04.06-.08.09-.12.02-.02.04-.05.06-.08.17-.22.33-.43.51-.64.11-.13.21-.26.32-.39l.31-.37c.12-.14.23-.27.35-.4.11-.13.22-.25.33-.38.18-.2.37-.4.55-.6.22-.24.45-.47.68-.7.11-.11.22-.22.33-.32.08-.08.17-.16.25-.24.1-.09.19-.18.29-.27.18-.17.36-.33.54-.49.01,0,.02-.02.03-.02.18-.16.36-.32.54-.47.13-.11.25-.21.38-.31.1-.08.2-.16.3-.24.15-.12.29-.23.44-.34.08-.06.15-.12.23-.17.15-.11.31-.23.46-.33.18-.12.35-.25.53-.37.21-.14.43-.28.64-.42.1-.06.2-.12.29-.18.19-.11.37-.22.56-.33.02-.01.04-.02.06-.04.17-.1.35-.19.53-.29.16-.08.32-.17.48-.24.12-.06.24-.12.35-.17.16-.08.32-.15.48-.22.01,0,.03-.01.04-.02.06-.03.13-.06.19-.09h0c.07-.03.13-.06.2-.08.15-.06.3-.13.45-.19.12-.05.24-.1.37-.14.1-.04.19-.07.29-.11.24-.09.48-.17.72-.25,1.19-.38,2.44-.65,3.69-.78.23-.02.46-.04.68-.06.48-.03.96-.04,1.44-.03.14,0,.28,0,.41.02.12,0,.23.01.35.02.16.01.32.02.48.04.14.01.27.03.41.05.2.03.41.06.61.1.2.04.4.08.6.13Z"/></g><g id="G02L02T0101_negro_sin"><g><path class="cls-31" d="m203.69,383.57c-.1,2.08-.32,4.16-.65,6.24-.05.35-.11.7-.17,1.05-.06.36-.13.71-.2,1.07-1.25,6.32-2.79,13.81-6.3,19.32-4.38,6.89-11.49,10.92-19.66,10.92-6.94,0-16.55,0-26.28.01-11.27.01-22.69.04-30.24.1-.18,0-.35,0-.52,0-.74,0-1.44.01-2.1.02-12.06.13-24.13-.02-36.19-.09-3.33-.02-6.19.3-8.91-.08-2.21-.3-4.32-1.05-6.53-2.8-4.54-3.6-7.93-8.57-10.11-13.91-8.46-20.65-5.41-41.64-.25-62.32,2.27-9.08,3.74-20.33,8.21-28.62-1.07.69-2.3,1.12-3.57,1.23,4.26-4.71,6.12-11.41,7.85-17.36.28-.97.56-1.95.81-2.93,1.25-4.72,2.16-9.49,2.21-14.35.01-.87,0-1.74-.06-2.61-.03-.54-.07-1.08-.12-1.62-2.38-24.18,30.31-24.12,46.57-24.18,16.04-.06,50.27,0,47.18,24.18-.16,1.25-.2,2.48-.14,3.7.25,4.93,1.64,5.6,5.9,7.92-1.43.34-2.64.4-4.09.17.09.03.18.06.27.09,0,0,0,0,.01,0,1.36.51,2.3,1.6,2.91,2.95-.79-.02-1.02.12-1.76.39.15-.06.4.22.72.69.03.05.05.1.07.13.57.98,1.01,2.04,1.49,3.07.03.07.06.13.09.2.47,1,1.09,1.96,1.65,2.86,0,.01.01.02.02.03.77,1.25,1.55,2.49,2.3,3.7,2.11,3.4,5.3,5.67,7.43,9.12-.97-.4-1.95-.79-2.92-1.19,2.39,4.73,5.25,9,7.71,13.7.69,1.33,1.36,2.66,2.02,4,.39.78.77,1.57,1.16,2.36,3.05,6.3,7.18,11.73,10.18,18.02-.91-.47-1.82-.94-2.72-1.41,3.31,7.46,4.88,14.82,6.07,22.93.63,4.41.89,8.85.67,13.28Z"/><path class="cls-3" d="m203.69,383.57c-.1,2.08-.32,4.16-.65,6.24-.05.35-.11.7-.17,1.05-.06.36-.13.71-.2,1.07-1.25,6.32-2.79,13.81-6.3,19.32-4.38,6.89-11.49,10.92-19.66,10.92-6.94,0-16.55,0-26.28.01-11.27.01-22.69.04-30.24.1-.18,0-.35,0-.52,0-.74,0-1.44.01-2.1.02-12.06.13-24.13-.02-36.19-.09-3.33-.02-6.19.3-8.91-.08-2.21-.3-4.32-1.05-6.53-2.8-4.54-3.6-7.93-8.57-10.11-13.91-8.46-20.65-5.41-41.64-.25-62.32,2.27-9.08,3.74-20.33,8.21-28.62-1.07.69-2.3,1.12-3.57,1.23,4.26-4.71,6.12-11.41,7.85-17.36.28-.97.56-1.95.81-2.93,1.25-4.72,2.16-9.49,2.21-14.35.01-.87,0-1.74-.06-2.61-.03-.54-.07-1.08-.12-1.62-2.38-24.18,30.31-24.12,46.57-24.18,16.04-.06,50.27,0,47.18,24.18-.16,1.25-.2,2.48-.14,3.7.25,4.93,1.64,5.6,5.9,7.92-1.43.34-2.64.4-4.09.17.09.03.18.06.27.09,0,0,0,0,.01,0,1.36.51,2.3,1.6,2.91,2.95-.79-.02-1.02.12-1.76.39.15-.06.4.22.72.69.03.05.05.1.07.13.57.98,1.01,2.04,1.49,3.07.03.07.06.13.09.2.47,1,1.09,1.96,1.65,2.86,0,.01.01.02.02.03.77,1.25,1.55,2.49,2.3,3.7,2.11,3.4,5.3,5.67,7.43,9.12-.97-.4-1.95-.79-2.92-1.19,2.39,4.73,5.25,9,7.71,13.7.69,1.33,1.36,2.66,2.02,4,.39.78.77,1.57,1.16,2.36,3.05,6.3,7.18,11.73,10.18,18.02-.91-.47-1.82-.94-2.72-1.41,3.31,7.46,4.88,14.82,6.07,22.93.63,4.41.89,8.85.67,13.28Z"/><path class="cls-3" d="m203.69,383.57c-.1,2.08-.32,4.16-.65,6.24-.05.35-.11.7-.17,1.05-.06.36-.13.71-.2,1.07-1.25,6.32-2.79,13.81-6.3,19.32-4.38,6.89-11.49,10.92-19.66,10.92-6.94,0-16.55,0-26.28.01-11.27.01-22.69.04-30.24.1-.18,0-.35,0-.52,0-.74,0-1.44.01-2.1.02-12.06.13-24.13-.02-36.19-.09-3.33-.02-6.19.3-8.91-.08-2.21-.3-4.32-1.05-6.53-2.8-4.54-3.6-7.93-8.57-10.11-13.91-8.46-20.65-5.41-41.64-.25-62.32,2.27-9.08,3.74-20.33,8.21-28.62-1.07.69-2.3,1.12-3.57,1.23,4.26-4.71,6.12-11.41,7.85-17.36.28-.97.56-1.95.81-2.93,1.25-4.72,2.16-9.49,2.21-14.35.01-.87,0-1.74-.06-2.61-.03-.54-.07-1.08-.12-1.62-2.38-24.18,30.31-24.12,46.57-24.18,16.04-.06,50.27,0,47.18,24.18-.16,1.25-.2,2.48-.14,3.7.25,4.93,1.64,5.6,5.9,7.92-1.43.34-2.64.4-4.09.17.09.03.18.06.27.09,0,0,0,0,.01,0,1.36.51,2.3,1.6,2.91,2.95-.79-.02-1.02.12-1.76.39.15-.06.4.22.72.69.03.05.05.1.07.13.57.98,1.01,2.04,1.49,3.07.03.07.06.13.09.2.47,1,1.09,1.96,1.65,2.86,0,.01.01.02.02.03.77,1.25,1.55,2.49,2.3,3.7,2.11,3.4,5.3,5.67,7.43,9.12-.97-.4-1.95-.79-2.92-1.19,2.39,4.73,5.25,9,7.71,13.7.69,1.33,1.36,2.66,2.02,4,.39.78.77,1.57,1.16,2.36,3.05,6.3,7.18,11.73,10.18,18.02-.91-.47-1.82-.94-2.72-1.41,3.31,7.46,4.88,14.82,6.07,22.93.63,4.41.89,8.85.67,13.28Z"/><path class="cls-3" d="m203.69,383.57c-.1,2.08-.32,4.16-.65,6.24-.05.35-.11.7-.17,1.05-.06.36-.13.71-.2,1.07-1.25,6.32-2.79,13.81-6.3,19.32-4.38,6.89-11.49,10.92-19.66,10.92-6.94,0-16.55,0-26.28.01-11.27.01-22.69.04-30.24.1-.18,0-.35,0-.52,0-.74,0-1.44.01-2.1.02-12.06.13-24.13-.02-36.19-.09-3.33-.02-6.19.3-8.91-.08-2.21-.3-4.32-1.05-6.53-2.8-4.54-3.6-7.93-8.57-10.11-13.91-8.46-20.65-5.41-41.64-.25-62.32,2.27-9.08,3.74-20.33,8.21-28.62-1.07.69-2.3,1.12-3.57,1.23,4.26-4.71,6.12-11.41,7.85-17.36.28-.97.56-1.95.81-2.93,1.25-4.72,2.16-9.49,2.21-14.35.01-.87,0-1.74-.06-2.61-.03-.54-.07-1.08-.12-1.62-2.38-24.18,30.31-24.12,46.57-24.18,16.04-.06,50.27,0,47.18,24.18-.16,1.25-.2,2.48-.14,3.7.25,4.93,1.64,5.6,5.9,7.92-1.43.34-2.64.4-4.09.17.09.03.18.06.27.09,0,0,0,0,.01,0,1.36.51,2.3,1.6,2.91,2.95-.79-.02-1.02.12-1.76.39.15-.06.4.22.72.69.03.05.05.1.07.13.57.98,1.01,2.04,1.49,3.07.03.07.06.13.09.2.47,1,1.09,1.96,1.65,2.86,0,.01.01.02.02.03.77,1.25,1.55,2.49,2.3,3.7,2.11,3.4,5.3,5.67,7.43,9.12-.97-.4-1.95-.79-2.92-1.19,2.39,4.73,5.25,9,7.71,13.7.69,1.33,1.36,2.66,2.02,4,.39.78.77,1.57,1.16,2.36,3.05,6.3,7.18,11.73,10.18,18.02-.91-.47-1.82-.94-2.72-1.41,3.31,7.46,4.88,14.82,6.07,22.93.63,4.41.89,8.85.67,13.28Z"/><path class="cls-3" d="m203.69,383.57c-.1,2.08-.32,4.16-.65,6.24-.05.35-.11.7-.17,1.05-.06.36-.13.71-.2,1.07-1.25,6.32-2.79,13.81-6.3,19.32-4.38,6.89-11.49,10.92-19.66,10.92-6.94,0-16.55,0-26.28.01-11.27.01-22.69.04-30.24.1-.18,0-.35,0-.52,0-.74,0-1.44.01-2.1.02-12.06.13-24.13-.02-36.19-.09-3.33-.02-6.19.3-8.91-.08-2.21-.3-4.32-1.05-6.53-2.8-4.54-3.6-7.93-8.57-10.11-13.91-8.46-20.65-5.41-41.64-.25-62.32,2.27-9.08,3.74-20.33,8.21-28.62-1.07.69-2.3,1.12-3.57,1.23,4.26-4.71,6.12-11.41,7.85-17.36.28-.97.56-1.95.81-2.93,1.25-4.72,2.16-9.49,2.21-14.35.01-.87,0-1.74-.06-2.61-.03-.54-.07-1.08-.12-1.62-2.38-24.18,30.31-24.12,46.57-24.18,16.04-.06,50.27,0,47.18,24.18-.16,1.25-.2,2.48-.14,3.7.25,4.93,1.64,5.6,5.9,7.92-1.43.34-2.64.4-4.09.17.09.03.18.06.27.09,0,0,0,0,.01,0,1.36.51,2.3,1.6,2.91,2.95-.79-.02-1.02.12-1.76.39.15-.06.4.22.72.69.03.05.05.1.07.13.57.98,1.01,2.04,1.49,3.07.03.07.06.13.09.2.47,1,1.09,1.96,1.65,2.86,0,.01.01.02.02.03.77,1.25,1.55,2.49,2.3,3.7,2.11,3.4,5.3,5.67,7.43,9.12-.97-.4-1.95-.79-2.92-1.19,2.39,4.73,5.25,9,7.71,13.7.69,1.33,1.36,2.66,2.02,4,.39.78.77,1.57,1.16,2.36,3.05,6.3,7.18,11.73,10.18,18.02-.91-.47-1.82-.94-2.72-1.41,3.31,7.46,4.88,14.82,6.07,22.93.63,4.41.89,8.85.67,13.28Z"/><path class="cls-15" d="m203.69,383.57c-.1,2.08-.32,4.16-.65,6.24-.05.35-.11.7-.17,1.05-.06.36-.13.71-.2,1.07-1.25,6.32-2.79,13.81-6.3,19.32-4.38,6.89-11.49,10.92-19.66,10.92-6.94,0-16.55,0-26.28.01-11.27.01-22.69.04-30.24.1-.18,0-.35,0-.52,0-.74,0-1.44.01-2.1.02-12.06.13-24.13-.02-36.19-.09-3.33-.02-6.19.3-8.91-.08-2.21-.3-4.32-1.05-6.53-2.8-4.54-3.6-7.93-8.57-10.11-13.91-8.46-20.65-5.41-41.64-.25-62.32,2.27-9.08,3.74-20.33,8.21-28.62-1.07.69-2.3,1.12-3.57,1.23,4.26-4.71,6.12-11.41,7.85-17.36.28-.97.56-1.95.81-2.93,1.25-4.72,2.16-9.49,2.21-14.35.01-.87,0-1.74-.06-2.61-.03-.54-.07-1.08-.12-1.62-2.38-24.18,30.31-24.12,46.57-24.18,16.04-.06,50.27,0,47.18,24.18-.16,1.25-.2,2.48-.14,3.7.25,4.93,1.64,5.6,5.9,7.92-1.43.34-2.64.4-4.09.17.09.03.18.06.27.09,0,0,0,0,.01,0,1.36.51,2.3,1.6,2.91,2.95-.79-.02-1.02.12-1.76.39.15-.06.4.22.72.69.03.05.05.1.07.13.57.98,1.01,2.04,1.49,3.07.03.07.06.13.09.2.47,1,1.09,1.96,1.65,2.86,0,.01.01.02.02.03.77,1.25,1.55,2.49,2.3,3.7,2.11,3.4,5.3,5.67,7.43,9.12-.97-.4-1.95-.79-2.92-1.19,2.39,4.73,5.25,9,7.71,13.7.69,1.33,1.36,2.66,2.02,4,.39.78.77,1.57,1.16,2.36,3.05,6.3,7.18,11.73,10.18,18.02-.91-.47-1.82-.94-2.72-1.41,3.31,7.46,4.88,14.82,6.07,22.93.63,4.41.89,8.85.67,13.28Z"/></g><g class="cls-14"><path class="cls-31" d="m203.69,383.57c-.17,2.44-.4,4.88-.82,7.29-.06.36-.13.71-.2,1.07-1.25,6.32-2.79,13.81-6.3,19.32-4.38,6.89-11.49,10.92-19.66,10.92-6.94,0-16.55,0-26.28.01-11.27.01-22.69.04-30.24.1-.18,0-.35,0-.52,0-1.34,0-2.48.01-3.36.02-11.36.14-30.23-.14-43.04-.14-.27,0-.53,0-.79-.02-2.21-.3-4.32-1.05-6.53-2.8-4.54-3.6-7.93-8.57-10.11-13.91-8.46-20.65-5.41-41.64-.25-62.32-.66,2.67,2.46,5.7,3.5,7.94,1.65,3.56,2.72,7.16,4.86,10.53-.03-2.05-.05-4.11-.08-6.16,2.18,3.37,4.52,6.63,7,9.79.15-.91.3-1.83.45-2.74-.44,2.68,5.59,8.33,7.26,10.16,3.09,3.37,6.89,6.35,10.63,8.95,3.95,2.75,8.19,4.32,12.41,6.49,3.7,1.9,6.78,4.36,10.9,5.53-.69-1.47-1.44-2.92-2.01-4.42,17.96,2.25,34.81-1.66,48.06-14.91,5.07-5.07,10.35-10.48,13.63-16.96.38.84.56,1.77.52,2.69,2.4-1.91,4-5.33,5.41-8,1.57-2.96,2.9-6.04,4.05-9.19,1.15-3.16,2.11-6.38,2.95-9.64.61-2.38,2.4-6.45,1.19-8.8.69,1.33,1.36,2.66,2.02,4,.39.78.77,1.57,1.16,2.36,3.05,6.3,7.18,11.73,10.18,18.02-.91-.47-1.82-.94-2.72-1.41,3.31,7.46,4.88,14.82,6.07,22.93.63,4.41.89,8.85.67,13.28Z"/><path class="cls-3" d="m203.69,383.57c-.17,2.44-.4,4.88-.82,7.29-.06.36-.13.71-.2,1.07-1.25,6.32-2.79,13.81-6.3,19.32-4.38,6.89-11.49,10.92-19.66,10.92-6.94,0-16.55,0-26.28.01-11.27.01-22.69.04-30.24.1-.18,0-.35,0-.52,0-1.34,0-2.48.01-3.36.02-11.36.14-30.23-.14-43.04-.14-.27,0-.53,0-.79-.02-2.21-.3-4.32-1.05-6.53-2.8-4.54-3.6-7.93-8.57-10.11-13.91-8.46-20.65-5.41-41.64-.25-62.32-.66,2.67,2.46,5.7,3.5,7.94,1.65,3.56,2.72,7.16,4.86,10.53-.03-2.05-.05-4.11-.08-6.16,2.18,3.37,4.52,6.63,7,9.79.15-.91.3-1.83.45-2.74-.44,2.68,5.59,8.33,7.26,10.16,3.09,3.37,6.89,6.35,10.63,8.95,3.95,2.75,8.19,4.32,12.41,6.49,3.7,1.9,6.78,4.36,10.9,5.53-.69-1.47-1.44-2.92-2.01-4.42,17.96,2.25,34.81-1.66,48.06-14.91,5.07-5.07,10.35-10.48,13.63-16.96.38.84.56,1.77.52,2.69,2.4-1.91,4-5.33,5.41-8,1.57-2.96,2.9-6.04,4.05-9.19,1.15-3.16,2.11-6.38,2.95-9.64.61-2.38,2.4-6.45,1.19-8.8.69,1.33,1.36,2.66,2.02,4,.39.78.77,1.57,1.16,2.36,3.05,6.3,7.18,11.73,10.18,18.02-.91-.47-1.82-.94-2.72-1.41,3.31,7.46,4.88,14.82,6.07,22.93.63,4.41.89,8.85.67,13.28Z"/><path class="cls-3" d="m203.69,383.57c-.17,2.44-.4,4.88-.82,7.29-.06.36-.13.71-.2,1.07-1.25,6.32-2.79,13.81-6.3,19.32-4.38,6.89-11.49,10.92-19.66,10.92-6.94,0-16.55,0-26.28.01-11.27.01-22.69.04-30.24.1-.18,0-.35,0-.52,0-1.34,0-2.48.01-3.36.02-11.36.14-30.23-.14-43.04-.14-.27,0-.53,0-.79-.02-2.21-.3-4.32-1.05-6.53-2.8-4.54-3.6-7.93-8.57-10.11-13.91-8.46-20.65-5.41-41.64-.25-62.32-.66,2.67,2.46,5.7,3.5,7.94,1.65,3.56,2.72,7.16,4.86,10.53-.03-2.05-.05-4.11-.08-6.16,2.18,3.37,4.52,6.63,7,9.79.15-.91.3-1.83.45-2.74-.44,2.68,5.59,8.33,7.26,10.16,3.09,3.37,6.89,6.35,10.63,8.95,3.95,2.75,8.19,4.32,12.41,6.49,3.7,1.9,6.78,4.36,10.9,5.53-.69-1.47-1.44-2.92-2.01-4.42,17.96,2.25,34.81-1.66,48.06-14.91,5.07-5.07,10.35-10.48,13.63-16.96.38.84.56,1.77.52,2.69,2.4-1.91,4-5.33,5.41-8,1.57-2.96,2.9-6.04,4.05-9.19,1.15-3.16,2.11-6.38,2.95-9.64.61-2.38,2.4-6.45,1.19-8.8.69,1.33,1.36,2.66,2.02,4,.39.78.77,1.57,1.16,2.36,3.05,6.3,7.18,11.73,10.18,18.02-.91-.47-1.82-.94-2.72-1.41,3.31,7.46,4.88,14.82,6.07,22.93.63,4.41.89,8.85.67,13.28Z"/><path class="cls-3" d="m203.69,383.57c-.17,2.44-.4,4.88-.82,7.29-.06.36-.13.71-.2,1.07-1.25,6.32-2.79,13.81-6.3,19.32-4.38,6.89-11.49,10.92-19.66,10.92-6.94,0-16.55,0-26.28.01-11.27.01-22.69.04-30.24.1-.18,0-.35,0-.52,0-1.34,0-2.48.01-3.36.02-11.36.14-30.23-.14-43.04-.14-.27,0-.53,0-.79-.02-2.21-.3-4.32-1.05-6.53-2.8-4.54-3.6-7.93-8.57-10.11-13.91-8.46-20.65-5.41-41.64-.25-62.32-.66,2.67,2.46,5.7,3.5,7.94,1.65,3.56,2.72,7.16,4.86,10.53-.03-2.05-.05-4.11-.08-6.16,2.18,3.37,4.52,6.63,7,9.79.15-.91.3-1.83.45-2.74-.44,2.68,5.59,8.33,7.26,10.16,3.09,3.37,6.89,6.35,10.63,8.95,3.95,2.75,8.19,4.32,12.41,6.49,3.7,1.9,6.78,4.36,10.9,5.53-.69-1.47-1.44-2.92-2.01-4.42,17.96,2.25,34.81-1.66,48.06-14.91,5.07-5.07,10.35-10.48,13.63-16.96.38.84.56,1.77.52,2.69,2.4-1.91,4-5.33,5.41-8,1.57-2.96,2.9-6.04,4.05-9.19,1.15-3.16,2.11-6.38,2.95-9.64.61-2.38,2.4-6.45,1.19-8.8.69,1.33,1.36,2.66,2.02,4,.39.78.77,1.57,1.16,2.36,3.05,6.3,7.18,11.73,10.18,18.02-.91-.47-1.82-.94-2.72-1.41,3.31,7.46,4.88,14.82,6.07,22.93.63,4.41.89,8.85.67,13.28Z"/><path class="cls-3" d="m203.69,383.57c-.17,2.44-.4,4.88-.82,7.29-.06.36-.13.71-.2,1.07-1.25,6.32-2.79,13.81-6.3,19.32-4.38,6.89-11.49,10.92-19.66,10.92-6.94,0-16.55,0-26.28.01-11.27.01-22.69.04-30.24.1-.18,0-.35,0-.52,0-1.34,0-2.48.01-3.36.02-11.36.14-30.23-.14-43.04-.14-.27,0-.53,0-.79-.02-2.21-.3-4.32-1.05-6.53-2.8-4.54-3.6-7.93-8.57-10.11-13.91-8.46-20.65-5.41-41.64-.25-62.32-.66,2.67,2.46,5.7,3.5,7.94,1.65,3.56,2.72,7.16,4.86,10.53-.03-2.05-.05-4.11-.08-6.16,2.18,3.37,4.52,6.63,7,9.79.15-.91.3-1.83.45-2.74-.44,2.68,5.59,8.33,7.26,10.16,3.09,3.37,6.89,6.35,10.63,8.95,3.95,2.75,8.19,4.32,12.41,6.49,3.7,1.9,6.78,4.36,10.9,5.53-.69-1.47-1.44-2.92-2.01-4.42,17.96,2.25,34.81-1.66,48.06-14.91,5.07-5.07,10.35-10.48,13.63-16.96.38.84.56,1.77.52,2.69,2.4-1.91,4-5.33,5.41-8,1.57-2.96,2.9-6.04,4.05-9.19,1.15-3.16,2.11-6.38,2.95-9.64.61-2.38,2.4-6.45,1.19-8.8.69,1.33,1.36,2.66,2.02,4,.39.78.77,1.57,1.16,2.36,3.05,6.3,7.18,11.73,10.18,18.02-.91-.47-1.82-.94-2.72-1.41,3.31,7.46,4.88,14.82,6.07,22.93.63,4.41.89,8.85.67,13.28Z"/><path class="cls-26" d="m203.69,383.57c-.17,2.44-.4,4.88-.82,7.29-.06.36-.13.71-.2,1.07-1.25,6.32-2.79,13.81-6.3,19.32-4.38,6.89-11.49,10.92-19.66,10.92-6.94,0-16.55,0-26.28.01-11.27.01-22.69.04-30.24.1-.18,0-.35,0-.52,0-1.34,0-2.48.01-3.36.02-11.36.14-30.23-.14-43.04-.14-.27,0-.53,0-.79-.02-2.21-.3-4.32-1.05-6.53-2.8-4.54-3.6-7.93-8.57-10.11-13.91-8.46-20.65-5.41-41.64-.25-62.32-.66,2.67,2.46,5.7,3.5,7.94,1.65,3.56,2.72,7.16,4.86,10.53-.03-2.05-.05-4.11-.08-6.16,2.18,3.37,4.52,6.63,7,9.79.15-.91.3-1.83.45-2.74-.44,2.68,5.59,8.33,7.26,10.16,3.09,3.37,6.89,6.35,10.63,8.95,3.95,2.75,8.19,4.32,12.41,6.49,3.7,1.9,6.78,4.36,10.9,5.53-.69-1.47-1.44-2.92-2.01-4.42,17.96,2.25,34.81-1.66,48.06-14.91,5.07-5.07,10.35-10.48,13.63-16.96.38.84.56,1.77.52,2.69,2.4-1.91,4-5.33,5.41-8,1.57-2.96,2.9-6.04,4.05-9.19,1.15-3.16,2.11-6.38,2.95-9.64.61-2.38,2.4-6.45,1.19-8.8.69,1.33,1.36,2.66,2.02,4,.39.78.77,1.57,1.16,2.36,3.05,6.3,7.18,11.73,10.18,18.02-.91-.47-1.82-.94-2.72-1.41,3.31,7.46,4.88,14.82,6.07,22.93.63,4.41.89,8.85.67,13.28Z"/></g><path class="cls-12" d="m170.04,295.98c.03.07.06.13.09.2-.33.37-.84.65-1.41.88-1.1.44-2.43.69-3.11.99-2.49,1.08-4.88,2.68-7.17,4.12-4.82,3.04-9.38,6.45-13.52,10.33-4.4,4.12-9.15,7.74-13.22,12.23-.31-.85-.51-1.75-.58-2.65,0,.97-4.56,5.49-5.37,6.3-1.94,1.97-4.37,3.54-6.56,5.28-.89-.68-1.81-1.32-2.77-1.91.2.69.4,1.39.59,2.08-4.02-.5-8.76-5.68-10.73-8.95.42,1.53.84,3.07,1.26,4.6-3.21-3.12-5.49-6.91-8.53-10.12-2.77-2.92-5.65-5.77-8.39-8.67-2.94-3.11-7.22-5.57-10.7-8.04-.8-.57-8.2-5.48-11.06-7.2,1.25-4.72,2.16-9.49,2.21-14.35.16-1.26.24-2.52-.06-2.61,11.38,3.43,29.54,13.61,46.53,14.02,12.73.31,33.98-6.96,46.95-11.94.25,4.93,1.64,5.6,5.9,7.92-1.43.34-2.64.4-4.09.17.09.03.18.06.27.09,0,0,0,0,.01,0,1.36.51,2.3,1.6,2.91,2.95-.79-.02-1.02.12-1.76.39.15-.06.4.22.72.69.03.05.05.1.07.13.57.98,1.01,2.04,1.49,3.07Z"/><path class="cls-12" d="m70.69,286.57c-.1.82,8.71,4.91,9.67,5.32,3.33,1.41,5.36,2.72,8.17,5.2.03-.73.07-1.45.1-2.18,9.5,3.78,18.31,9.14,29.01,9.14,8.85,0,16.43-4.38,24.53-6.92-.27.8-.06,1.73.51,2.35,1.94-1.76,22.95-14.22,23.74-13.49-1.22-1.13-1.75-2.54-1.9-5.32-5.42,2.99-12.06,5.09-19.04,6.52-9.97,3.06-20.42,5.5-27.92,5.32-7.13-.17-14.47-2.07-21.43-4.46-9.13-1.51-18.13-4.05-25.05-7.94.03,2.17-.12,4.32-.4,6.46Z"/></g><g id="G03L03T0101_negro_sin"><path class="cls-15" d="m171.47,277.23c-11.63,10.56-35.4,16.02-52.91,16.02s-40.62-6.02-52.22-16.02c-.3-.26-.59-.52-.89-.79-.14-.14-.27-.27-.41-.4-4.21-4.14-5.99-8.78-6.54-13.95-.24-2.27-.25-4.63-.13-7.1.29-5.69,1.28-11.95,1.73-18.79.02-.3.04-.61.06-.91.02-.19.03-.38.05-.57,0-.04,0-.06,0-.1.03-.27.05-.54.08-.81.04-.36.06-.7.11-1.04.06-.55.14-1.09.22-1.63.04-.23.06-.46.1-.68.03-.16.05-.33.08-.48.03-.16.05-.32.08-.48,0-.03,0-.05,0-.06.03-.12.05-.24.06-.35.02-.12.05-.24.06-.36.02-.11.05-.22.06-.33,0-.03,0-.06.02-.09.04-.18.07-.37.11-.55,0,0,0,0,0,0,.03-.18.07-.37.11-.54,0-.02,0-.04,0-.05.03-.12.05-.23.07-.34,0-.02,0-.04.02-.05.05-.22.09-.44.15-.65.34-1.44.73-2.83,1.17-4.18.05-.16.1-.32.15-.48,0,0,0-.02.02-.03.09-.27.18-.56.27-.83.11-.3.22-.6.33-.91,0-.03.03-.06.04-.1.12-.3.23-.6.35-.91.03-.05.05-.11.06-.16.12-.29.24-.58.36-.87.14-.34.28-.68.44-1.02.1-.25.21-.48.33-.73.02-.05.04-.09.06-.14.04-.1.09-.2.14-.3.23-.48.47-.97.71-1.45.08-.17.17-.35.27-.52,0-.03.03-.05.04-.07.04-.06.07-.14.11-.2,0-.02.02-.04.03-.05.11-.19.21-.38.32-.58,0-.02,0-.03.02-.05.05-.11.12-.21.18-.32.08-.16.17-.31.26-.46.05-.09.11-.18.16-.27.32-.56.65-1.11,1-1.65.04-.06.07-.12.11-.17,0-.02.02-.03.03-.05.1-.15.2-.3.29-.46.03-.04.05-.06.07-.1,0-.02,0-.03.02-.03.15-.22.28-.43.43-.64,0-.02,0-.03.02-.04.15-.22.3-.44.46-.65.13-.18.25-.35.37-.51.1-.14.19-.27.29-.4.02-.02.03-.04.04-.05.15-.2.29-.39.45-.59.03-.03.05-.06.07-.09.15-.19.29-.38.43-.56.05-.07.11-.15.17-.22.2-.25.4-.49.6-.74,5.42-6.54,12.24-11.54,19.71-14.97.09-.04.17-.07.25-.11,1-.46,2-.88,3.03-1.27.04-.02.06-.03.1-.05,1.15-.38,2.31-.75,3.45-1.13h0s2.82-.92,2.82-.92c.55-.15,1.09-.28,1.64-.41.35-.08.7-.16,1.08-.21h.03c.21-.04.42-.06.63-.09,3.16-.38,7.05-.22,9.45-1.49-.54-.59-.94-1.84-1.65-2.39.81-.05,1.43.22,2.16.55.75.34,1.58.66,2.38.44.79-.22,1.38-1.24.89-1.89,4.26,3.9,8.65,4,13.62,5.01.72.15,1.45.32,2.2.51,2.33.62,4.62,1.38,6.86,2.27.08.04.16.06.25.1.88.36,1.76.73,2.63,1.13.08.04.16.07.23.1.05.03.12.05.18.08.05.03.1.05.13.06.14.06.27.12.4.19.29.14.58.27.87.42.04.02.07.04.12.06.28.14.58.29.86.44.3.16.59.32.9.48.24.13.47.27.7.39.15.08.29.16.43.25.59.34,1.15.68,1.72,1.03.24.15.47.29.7.44.33.21.64.42.96.63.27.18.54.37.8.55.32.22.63.45.94.68.09.06.19.13.28.2.16.12.32.24.48.36,2.77,2.1,5.38,4.48,7.75,7.14.68.76,1.34,1.55,1.98,2.34.7.88,1.38,1.78,2.03,2.72.41.59.81,1.2,1.21,1.81,4.89,7.67,8.48,17.34,10.44,26.2-.64-.57-1.27-1.14-1.91-1.72,1.78,6.81,2.54,14.64,2.79,21.65.29,8.07-1.13,15.5-7.29,21.09Z"/><g class="cls-14"><path class="cls-26" d="m171.47,277.23c-11.63,10.55-35.4,16.02-52.91,16.02s-40.62-6.02-52.22-16.02c-.3-.26-.6-.53-.88-.79-.14-.13-.28-.27-.42-.4-4.21-4.15-5.99-8.78-6.54-13.95-.24-2.26-.25-4.63-.12-7.1.39,2.16,1.1,4.62,2.11,7.04,1.38,3.28,3.34,6.47,5.85,8.63,4.75,4.09,11.14,8.73,16.72,11.44.07-.54.14-1.07.21-1.61-.27,2.08,14.34,6.27,15.81,6.7,6.31,1.83,12.89,3.16,19.48,3.16,17.51,0,41.56-9.09,53.18-19.65,3.67-3.33,6.15-9.89,7.01-14.57.29,8.07-1.13,15.5-7.29,21.09Z"/><path class="cls-3" d="m171.47,277.23c-11.63,10.55-35.4,16.02-52.91,16.02s-40.62-6.02-52.22-16.02c-.3-.26-.6-.53-.88-.79-.14-.13-.28-.27-.42-.4-4.21-4.15-5.99-8.78-6.54-13.95-.24-2.26-.25-4.63-.12-7.1.39,2.16,1.1,4.62,2.11,7.04,1.38,3.28,3.34,6.47,5.85,8.63,4.75,4.09,11.14,8.73,16.72,11.44.07-.54.14-1.07.21-1.61-.27,2.08,14.34,6.27,15.81,6.7,6.31,1.83,12.89,3.16,19.48,3.16,17.51,0,41.56-9.09,53.18-19.65,3.67-3.33,6.15-9.89,7.01-14.57.29,8.07-1.13,15.5-7.29,21.09Z"/><path class="cls-3" d="m171.47,277.23c-11.63,10.55-35.4,16.02-52.91,16.02s-40.62-6.02-52.22-16.02c-.3-.26-.6-.53-.88-.79-.14-.13-.28-.27-.42-.4-4.21-4.15-5.99-8.78-6.54-13.95-.24-2.26-.25-4.63-.12-7.1.39,2.16,1.1,4.62,2.11,7.04,1.38,3.28,3.34,6.47,5.85,8.63,4.75,4.09,11.14,8.73,16.72,11.44.07-.54.14-1.07.21-1.61-.27,2.08,14.34,6.27,15.81,6.7,6.31,1.83,12.89,3.16,19.48,3.16,17.51,0,41.56-9.09,53.18-19.65,3.67-3.33,6.15-9.89,7.01-14.57.29,8.07-1.13,15.5-7.29,21.09Z"/><path class="cls-3" d="m171.47,277.23c-11.63,10.55-35.4,16.02-52.91,16.02s-40.62-6.02-52.22-16.02c-.3-.26-.6-.53-.88-.79-.14-.13-.28-.27-.42-.4-4.21-4.15-5.99-8.78-6.54-13.95-.24-2.26-.25-4.63-.12-7.1.39,2.16,1.1,4.62,2.11,7.04,1.38,3.28,3.34,6.47,5.85,8.63,4.75,4.09,11.14,8.73,16.72,11.44.07-.54.14-1.07.21-1.61-.27,2.08,14.34,6.27,15.81,6.7,6.31,1.83,12.89,3.16,19.48,3.16,17.51,0,41.56-9.09,53.18-19.65,3.67-3.33,6.15-9.89,7.01-14.57.29,8.07-1.13,15.5-7.29,21.09Z"/><path class="cls-3" d="m171.47,277.23c-11.63,10.55-35.4,16.02-52.91,16.02s-40.62-6.02-52.22-16.02c-.3-.26-.6-.53-.88-.79-.14-.13-.28-.27-.42-.4-4.21-4.15-5.99-8.78-6.54-13.95-.24-2.26-.25-4.63-.12-7.1.39,2.16,1.1,4.62,2.11,7.04,1.38,3.28,3.34,6.47,5.85,8.63,4.75,4.09,11.14,8.73,16.72,11.44.07-.54.14-1.07.21-1.61-.27,2.08,14.34,6.27,15.81,6.7,6.31,1.83,12.89,3.16,19.48,3.16,17.51,0,41.56-9.09,53.18-19.65,3.67-3.33,6.15-9.89,7.01-14.57.29,8.07-1.13,15.5-7.29,21.09Z"/><path class="cls-3" d="m171.47,277.23c-11.63,10.55-35.4,16.02-52.91,16.02s-40.62-6.02-52.22-16.02c-.3-.26-.6-.53-.88-.79-.14-.13-.28-.27-.42-.4-4.21-4.15-5.99-8.78-6.54-13.95-.24-2.26-.25-4.63-.12-7.1.39,2.16,1.1,4.62,2.11,7.04,1.38,3.28,3.34,6.47,5.85,8.63,4.75,4.09,11.14,8.73,16.72,11.44.07-.54.14-1.07.21-1.61-.27,2.08,14.34,6.27,15.81,6.7,6.31,1.83,12.89,3.16,19.48,3.16,17.51,0,41.56-9.09,53.18-19.65,3.67-3.33,6.15-9.89,7.01-14.57.29,8.07-1.13,15.5-7.29,21.09Z"/><path class="cls-3" d="m171.47,277.23c-11.63,10.55-35.4,16.02-52.91,16.02s-40.62-6.02-52.22-16.02c-.3-.26-.6-.53-.88-.79-.14-.13-.28-.27-.42-.4-4.21-4.15-5.99-8.78-6.54-13.95-.24-2.26-.25-4.63-.12-7.1.39,2.16,1.1,4.62,2.11,7.04,1.38,3.28,3.34,6.47,5.85,8.63,4.75,4.09,11.14,8.73,16.72,11.44.07-.54.14-1.07.21-1.61-.27,2.08,14.34,6.27,15.81,6.7,6.31,1.83,12.89,3.16,19.48,3.16,17.51,0,41.56-9.09,53.18-19.65,3.67-3.33,6.15-9.89,7.01-14.57.29,8.07-1.13,15.5-7.29,21.09Z"/><path class="cls-3" d="m171.47,277.23c-11.63,10.55-35.4,16.02-52.91,16.02s-40.62-6.02-52.22-16.02c-.3-.26-.6-.53-.88-.79-.14-.13-.28-.27-.42-.4-4.21-4.15-5.99-8.78-6.54-13.95-.24-2.26-.25-4.63-.12-7.1.39,2.16,1.1,4.62,2.11,7.04,1.38,3.28,3.34,6.47,5.85,8.63,4.75,4.09,11.14,8.73,16.72,11.44.07-.54.14-1.07.21-1.61-.27,2.08,14.34,6.27,15.81,6.7,6.31,1.83,12.89,3.16,19.48,3.16,17.51,0,41.56-9.09,53.18-19.65,3.67-3.33,6.15-9.89,7.01-14.57.29,8.07-1.13,15.5-7.29,21.09Z"/><path class="cls-3" d="m171.47,277.23c-11.63,10.55-35.4,16.02-52.91,16.02s-40.62-6.02-52.22-16.02c-.3-.26-.6-.53-.88-.79-.14-.13-.28-.27-.42-.4-4.21-4.15-5.99-8.78-6.54-13.95-.24-2.26-.25-4.63-.12-7.1.39,2.16,1.1,4.62,2.11,7.04,1.38,3.28,3.34,6.47,5.85,8.63,4.75,4.09,11.14,8.73,16.72,11.44.07-.54.14-1.07.21-1.61-.27,2.08,14.34,6.27,15.81,6.7,6.31,1.83,12.89,3.16,19.48,3.16,17.51,0,41.56-9.09,53.18-19.65,3.67-3.33,6.15-9.89,7.01-14.57.29,8.07-1.13,15.5-7.29,21.09Z"/><path class="cls-3" d="m171.47,277.23c-11.63,10.55-35.4,16.02-52.91,16.02s-40.62-6.02-52.22-16.02c-.3-.26-.6-.53-.88-.79-.14-.13-.28-.27-.42-.4-4.21-4.15-5.99-8.78-6.54-13.95-.24-2.26-.25-4.63-.12-7.1.39,2.16,1.1,4.62,2.11,7.04,1.38,3.28,3.34,6.47,5.85,8.63,4.75,4.09,11.14,8.73,16.72,11.44.07-.54.14-1.07.21-1.61-.27,2.08,14.34,6.27,15.81,6.7,6.31,1.83,12.89,3.16,19.48,3.16,17.51,0,41.56-9.09,53.18-19.65,3.67-3.33,6.15-9.89,7.01-14.57.29,8.07-1.13,15.5-7.29,21.09Z"/><path class="cls-3" d="m171.47,277.23c-11.63,10.55-35.4,16.02-52.91,16.02s-40.62-6.02-52.22-16.02c-.3-.26-.6-.53-.88-.79-.14-.13-.28-.27-.42-.4-4.21-4.15-5.99-8.78-6.54-13.95-.24-2.26-.25-4.63-.12-7.1.39,2.16,1.1,4.62,2.11,7.04,1.38,3.28,3.34,6.47,5.85,8.63,4.75,4.09,11.14,8.73,16.72,11.44.07-.54.14-1.07.21-1.61-.27,2.08,14.34,6.27,15.81,6.7,6.31,1.83,12.89,3.16,19.48,3.16,17.51,0,41.56-9.09,53.18-19.65,3.67-3.33,6.15-9.89,7.01-14.57.29,8.07-1.13,15.5-7.29,21.09Z"/><path class="cls-3" d="m171.47,277.23c-11.63,10.55-35.4,16.02-52.91,16.02s-40.62-6.02-52.22-16.02c-.3-.26-.6-.53-.88-.79-.14-.13-.28-.27-.42-.4-4.21-4.15-5.99-8.78-6.54-13.95-.24-2.26-.25-4.63-.12-7.1.39,2.16,1.1,4.62,2.11,7.04,1.38,3.28,3.34,6.47,5.85,8.63,4.75,4.09,11.14,8.73,16.72,11.44.07-.54.14-1.07.21-1.61-.27,2.08,14.34,6.27,15.81,6.7,6.31,1.83,12.89,3.16,19.48,3.16,17.51,0,41.56-9.09,53.18-19.65,3.67-3.33,6.15-9.89,7.01-14.57.29,8.07-1.13,15.5-7.29,21.09Z"/><path class="cls-3" d="m171.47,277.23c-11.63,10.55-35.4,16.02-52.91,16.02s-40.62-6.02-52.22-16.02c-.3-.26-.6-.53-.88-.79-.14-.13-.28-.27-.42-.4-4.21-4.15-5.99-8.78-6.54-13.95-.24-2.26-.25-4.63-.12-7.1.39,2.16,1.1,4.62,2.11,7.04,1.38,3.28,3.34,6.47,5.85,8.63,4.75,4.09,11.14,8.73,16.72,11.44.07-.54.14-1.07.21-1.61-.27,2.08,14.34,6.27,15.81,6.7,6.31,1.83,12.89,3.16,19.48,3.16,17.51,0,41.56-9.09,53.18-19.65,3.67-3.33,6.15-9.89,7.01-14.57.29,8.07-1.13,15.5-7.29,21.09Z"/><path class="cls-3" d="m171.47,277.23c-11.63,10.55-35.4,16.02-52.91,16.02s-40.62-6.02-52.22-16.02c-.3-.26-.6-.53-.88-.79-.14-.13-.28-.27-.42-.4-4.21-4.15-5.99-8.78-6.54-13.95-.24-2.26-.25-4.63-.12-7.1.39,2.16,1.1,4.62,2.11,7.04,1.38,3.28,3.34,6.47,5.85,8.63,4.75,4.09,11.14,8.73,16.72,11.44.07-.54.14-1.07.21-1.61-.27,2.08,14.34,6.27,15.81,6.7,6.31,1.83,12.89,3.16,19.48,3.16,17.51,0,41.56-9.09,53.18-19.65,3.67-3.33,6.15-9.89,7.01-14.57.29,8.07-1.13,15.5-7.29,21.09Z"/><path class="cls-3" d="m171.47,277.23c-11.63,10.55-35.4,16.02-52.91,16.02s-40.62-6.02-52.22-16.02c-.3-.26-.6-.53-.88-.79-.14-.13-.28-.27-.42-.4-4.21-4.15-5.99-8.78-6.54-13.95-.24-2.26-.25-4.63-.12-7.1.39,2.16,1.1,4.62,2.11,7.04,1.38,3.28,3.34,6.47,5.85,8.63,4.75,4.09,11.14,8.73,16.72,11.44.07-.54.14-1.07.21-1.61-.27,2.08,14.34,6.27,15.81,6.7,6.31,1.83,12.89,3.16,19.48,3.16,17.51,0,41.56-9.09,53.18-19.65,3.67-3.33,6.15-9.89,7.01-14.57.29,8.07-1.13,15.5-7.29,21.09Z"/><path class="cls-3" d="m171.47,277.23c-11.63,10.55-35.4,16.02-52.91,16.02s-40.62-6.02-52.22-16.02c-.3-.26-.6-.53-.88-.79-.14-.13-.28-.27-.42-.4-4.21-4.15-5.99-8.78-6.54-13.95-.24-2.26-.25-4.63-.12-7.1.39,2.16,1.1,4.62,2.11,7.04,1.38,3.28,3.34,6.47,5.85,8.63,4.75,4.09,11.14,8.73,16.72,11.44.07-.54.14-1.07.21-1.61-.27,2.08,14.34,6.27,15.81,6.7,6.31,1.83,12.89,3.16,19.48,3.16,17.51,0,41.56-9.09,53.18-19.65,3.67-3.33,6.15-9.89,7.01-14.57.29,8.07-1.13,15.5-7.29,21.09Z"/><path class="cls-26" d="m171.47,277.23c-11.63,10.55-35.4,16.02-52.91,16.02s-40.62-6.02-52.22-16.02c-.3-.26-.6-.53-.88-.79-.14-.13-.28-.27-.42-.4-4.21-4.15-5.99-8.78-6.54-13.95-.24-2.26-.25-4.63-.12-7.1.39,2.16,1.1,4.62,2.11,7.04,1.38,3.28,3.34,6.47,5.85,8.63,4.75,4.09,11.14,8.73,16.72,11.44.07-.54.14-1.07.21-1.61-.27,2.08,14.34,6.27,15.81,6.7,6.31,1.83,12.89,3.16,19.48,3.16,17.51,0,41.56-9.09,53.18-19.65,3.67-3.33,6.15-9.89,7.01-14.57.29,8.07-1.13,15.5-7.29,21.09Z"/></g><path class="cls-12" d="m165.31,209.08c-4.68-1.87-8.55-4.74-12.69-7.57-1.47-1.01-3.22-1.77-4.67-2.68-.43-.27-2.59-1.26-2.67-1.61.09.45.34.86.68,1.17-1.15-1.01-3.21-1.38-4.57-2.06-1.63-.81-3.2-1.75-4.7-2.78.19.33.38.66.57.99-1.22-.75-2.67-1.63-3.58-2.75-.76-.94-1.2-2.18-2.26-2.88.4.26.85.45,1.32.54-.2-.24-2-4.04-.91-3.82.72.15,1.46.31,2.2.51,2.33.62,4.62,1.38,6.86,2.27.08.03.16.07.25.1.88.35,1.76.73,2.62,1.13.08.04.16.07.23.1.06.03.12.06.19.09.05.02.1.04.13.06.13.06.27.12.4.19.29.14.58.28.87.43.04.02.08.04.12.06.29.14.58.29.86.44.3.15.59.32.89.48.24.13.47.26.71.4.15.08.29.16.43.25.58.33,1.15.68,1.72,1.03.23.14.46.29.69.44.32.21.64.42.96.63.27.18.53.36.8.55.32.22.63.44.94.67.09.07.19.14.28.2.16.12.32.24.48.36,2.78,2.1,5.38,4.48,7.75,7.14.68.76,1.34,1.54,1.98,2.34.14.31.27.62.38.94.12.32.54,2.58.72,2.65Z"/><path class="cls-12" d="m105.41,187.41c-.38.84-.76,1.84-1.2,2.8-.39.85-.82,1.67-1.34,2.32-.09-.28-.18-.58-.27-.87-1.91,3.46-6.2,3.65-9.62,4.97-1.13.44-2.49.79-3.56,1.34-1.14.59-2.01,1.62-3.19,2.22,0-.2.02-.4.03-.6-3.12,1.79-6.55,2.92-9.48,5.1-.1.06-.19.14-.28.21-1.61,1.27-2.86,2.74-4.76,3.71-.36.19-2.14.75-3.35,1.24.04-.06.07-.12.11-.17,0-.02.02-.03.03-.05.1-.15.2-.3.29-.46.03-.04.05-.06.07-.1,0-.02,0-.03.02-.03.15-.22.28-.43.43-.64,0-.02,0-.03.02-.04.15-.22.3-.44.46-.65.13-.18.25-.35.37-.51.1-.14.19-.27.29-.4.02-.02.03-.04.04-.05.15-.2.29-.39.45-.59.03-.03.05-.06.07-.09.15-.19.29-.38.43-.56.05-.07.11-.15.17-.22.2-.25.4-.49.6-.74,5.42-6.54,12.24-11.54,19.71-14.97.09-.04.17-.07.25-.11,1-.46,2-.88,3.03-1.27.04-.02.06-.03.1-.05,1.15-.38,2.31-.75,3.45-1.13h0s2.82-.92,2.82-.92c.55-.15,1.09-.28,1.64-.41.35-.08.7-.16,1.08-.21h.03c.36,0,.6-.05.63-.09-.39.94-1.21,1.99-1.13,2.93.47-.37.97-.75,1.56-.91Z"/></g><g id="G04L04T0101_Pupila_G"><circle class="cls-19" cx="90.93" cy="237.11" r="8.28"/><circle class="cls-34" cx="90.93" cy="237.11" r="7.85"/><circle class="cls-3" cx="88.55" cy="233.31" r="2.24"/></g><g id="G05L05T0101_Pupila_G"><circle class="cls-19" cx="144.9" cy="237.11" r="8.28"/><circle class="cls-34" cx="144.9" cy="237.11" r="7.85"/><circle class="cls-3" cx="142.66" cy="233.31" r="2.24"/></g><g id="G06L06T0301_lengua"><path class="cls-1" d="m128.52,255.61c-.16.33-2.48,2.42-2.81,2.65-1.57,1.09-4.61,3.33-7.51,3.33s-6.11-2.24-7.83-3.47c-.33-.24-1.63-1.72-1.99-2.24,0,0,.17-.37.7-.41.57.16,1.16.26,1.76.28h.27c2.17,0,4.38-.9,5.65-2.87.05-.07.09-.14.14-.21.2-.37.34-.76.42-1.16.02-.07.03-.15.04-.23.02-.08.02-.16.02-.25,0-.07.02-.14.02-.22,0-.05,0-.11,0-.17h1.6c0,.12,0,.25,0,.37,0,.18.03.36.07.53,0,.04,0,.08.02.11.02.07.03.13.05.19.02.11.06.21.11.31.04.12.09.23.14.34.2.41.47.79.77,1.13.12.12.23.24.35.36.12.11.25.22.37.31.04.03.09.06.12.09,1.26.91,2.75,1.37,4.24,1.37h.28c.44-.02.89-.07,1.32-.17.66.03,1.25.05,1.64.03Z"/><path class="cls-34" d="m129.48,254.41c-.26.42-.58.82-.96,1.2-2.17,2.25-5.93,3.74-10.2,3.74s-7.73-1.37-9.93-3.47c-.38-.36-.72-.75-1.01-1.15,1.01.62,2.24.97,3.47,1.02h.27c2.25,0,4.53-.97,5.79-3.08.29-.54.46-1.11.49-1.68,0-.12,0-.23,0-.34h1.6s0,.1,0,.15c0,1.46.9,2.74,1.91,3.51,1.29.97,2.83,1.46,4.37,1.46h.28c1.21-.05,2.41-.39,3.49-1.04.15-.09.3-.19.44-.3Z"/><path class="cls-34" d="m131.54,250.64c.06,1.9-1.04,3.56-2.31,4.51-.23.17-.47.33-.72.47-1.08.65-2.33,1.01-3.59,1.09-.21.02-.42.02-.62.02-2.25-.02-4.49-.98-5.92-3.05-.07-.1-.13-.2-.19-.31-.55.94-1.31,1.69-2.12,2.2-1.25.75-2.62,1.13-3.99,1.16-.2,0-.41,0-.62,0-1.07-.06-2.11-.34-3.09-.84-.23-.12-.48-.24-.7-.38h0c-.17-.11-.35-.23-.51-.35-1.27-.95-2.37-2.61-2.31-4.51.08,1.85,1.21,3.3,2.5,4.08,0,0,0,0,.02,0,.52.32,1.11.57,1.71.74.57.16,1.16.26,1.76.28h.27c2.17,0,4.38-.9,5.65-2.87.05-.07.09-.14.14-.21.2-.37.34-.76.42-1.16.02-.07.03-.15.04-.23.02-.08.02-.16.02-.25,0-.02,0-.03,0-.05,0-.06,0-.12,0-.17s0-.11,0-.17h1.6s0,.1,0,.15c0,.08,0,.16.02.23,0,.18.03.36.07.53,0,.04,0,.08.02.11.02.07.03.13.05.19.02.11.06.21.11.31.04.12.09.23.14.34.2.41.47.79.77,1.13.12.12.23.24.35.36.12.11.25.22.37.31.04.03.09.06.12.09,1.26.91,2.75,1.37,4.24,1.37h.28c.44-.02.89-.07,1.32-.17.76-.16,1.49-.45,2.17-.86.15-.09.3-.19.44-.3,1.1-.81,1.99-2.13,2.06-3.78Z"/><path class="cls-17" d="m118.31,266.04c-7.45,0-6.77-5.71-6.54-8.18.03-.36.08-.75.16-1.1,0,0,0-.02.02-.03h.16c1.37-.03,2.73-.41,3.99-1.16.81-.51,1.57-1.25,2.12-2.2.05.11.12.21.19.31,1.43,2.06,3.67,3.02,5.92,3.05.03,0,.05,0,.09,0h0c.06.49.06.98.1,1.48.19,2.61,1.07,7.84-6.21,7.84Z"/><path class="cls-9" d="m124.4,256.72c-.19.02-.52.16-.71.23-.27.09-.54.16-.81.23-.11.02-.22.05-.33.08-.79.19-1.71.41-2.41.88-.15.1-.3.22-.43.35-1.1,1.08-1.21,2.74-1.43,4.23-.23-1.36-.23-2.87-1.08-3.98-.7-.9-1.73-1.39-2.77-1.62-.68-.15-1.79-.33-2.49-.38h.16c1.37-.03,2.73-.41,3.99-1.16.81-.51,1.57-1.25,2.12-2.2.05.11.12.21.19.31,1.43,2.06,3.67,3.02,5.92,3.05.03,0,.05,0,.09,0Z"/><path class="cls-9" d="m124.4,256.72c-.19.02-.52.16-.71.23-.27.09-.54.16-.81.23-.11.02-.22.05-.33.08-.79.19-1.71.41-2.41.88-.15.1-.3.22-.43.35-1.1,1.08-1.21,2.74-1.43,4.23-.23-1.36-.23-2.87-1.08-3.98-.7-.9-1.73-1.39-2.77-1.62-.68-.15-1.79-.33-2.49-.38h.16c1.37-.03,2.73-.41,3.99-1.16.81-.51,1.57-1.25,2.12-2.2.05.11.12.21.19.31,1.43,2.06,3.67,3.02,5.92,3.05.03,0,.05,0,.09,0Z"/></g><g id="G07L07T0102_rosa_G"><path class="cls-23" d="m125.76,245.68c0,3.27-5.93,7.12-7.56,7.12-1.54,0-7.56-3.76-7.56-7.12,0-2.4,3.38-2.38,7.56-2.38s7.56-.02,7.56,2.38Z"/><g class="cls-14"><path class="cls-18" d="m118.2,251.11c-1.5,0-7.23-2.67-7.54-5.15.31,3.29,6.05,6.84,7.54,6.84,1.58,0,7.23-3.64,7.54-6.84-.32,2.41-5.96,5.15-7.54,5.15Z"/></g><g id="bigotes-rubor"><circle id="rubor_D" class="cls-17" cx="163.89" cy="254.54" r="8.89"/><circle id="rubor_I" class="cls-17" cx="71.86" cy="254.54" r="8.89"/><g id="bigotees-2"><path class="cls-34" d="m130.52,246.68c11.66-5.2,24.55-7.73,37.32-7.33-12.74.42-25.36,2.9-37.32,7.33h0Z"/><path class="cls-34" d="m133.97,248.93c12.49-1.6,25.28-1.05,37.58,1.62-12.43-1.86-25.03-2.41-37.58-1.62h0Z"/><path class="cls-34" d="m104.97,246.68c-11.95-4.43-24.58-6.91-37.32-7.33,12.76-.4,25.65,2.13,37.32,7.33h0Z"/><path class="cls-34" d="m101.52,248.93c-12.55-.78-25.14-.24-37.58,1.62,12.3-2.67,25.09-3.22,37.58-1.62h0Z"/></g></g></g><g id="G08L08T0102_negro_G"><path class="cls-15" d="m98.67,191.93c-1.4.77-2.78,1.6-4.12,2.49.2-.29.39-.57.59-.86-1.67.87-3.38,1.4-5.05,2.25-1.83.93-3.62,1.95-5.36,3.06-1.49.94-2.96,1.91-4.39,2.95s-2.43,2.58-3.56,3.9c.15-.46.31-.92.46-1.38-2.63,2.83-5.44,5.36-7.92,8.39-1.03,1.26-2.03,2.57-2.98,3.91-.95,1.35-1.47,2.92-2.1,4.48-.02-.36,0-.73.05-1.09-.68.81-1.21,1.77-1.55,2.81-.46-3.34-.03-7.06.27-10.41.32-3.55.8-7.08,1.39-10.58,1.16-6.86,2.73-13.67,4.84-20.24.62-1.92,1.22-3.85,1.95-5.72.36-.92.74-1.83,1.16-2.72.24-.49,1.12-1.73.07-1.66.33-.6,1.22-2,1.87-2.21-.48.16-.97.31-1.45.47,6.13-7.34,17.58,2.21,22.79,6.66,1.61,1.37,3.19,2.81,4.5,4.53.65.86,1.23,1.78,1.68,2.79.36.81.97,2.08.87,2.99.21-.19.42-.37.64-.56-.14.65-.35,1.29-.64,1.88-.14.29-.31.58-.47.86-.69,1.21-1.82,2.48-2.87,3.32.11-.28.22-.56.34-.84-.33.17-.66.35-.99.53Z"/><path class="cls-28" d="m93.42,190.18c-.06-.02-.11-.05-.17-.07-1.63-.7-3.25-1.4-4.88-2.1,1.54,1.06,2.81,2.57,3.66,4.34-2.31-.74-4.61-1.48-6.92-2.22.98,1.05,1.97,2.1,2.95,3.16.57.61-14.02,9.07-14.7,10.23-.11.19-.22.4-.41.48-.17.07-.36.02-.53-.03-.73-.22-1.45-.44-2.18-.66-.38-.12-.8-.27-.99-.65-.26-.54.1-1.2.54-1.57s.97-.65,1.24-1.18c-.19-.7-.88-1.18-1.53-1.08.94-4.23,2-8.2,3.34-12.29,1.17-3.55,2.42-6.52,4.65-9.48,4.37-5.8,14.68,3.59,17.39,7.62.88,1.3,1.36,3.05.89,4.59-.12.39-.31.78-.63.99-.51.35-1.16.17-1.73-.06Z"/></g><g id="G09L09T0102_negro_G"><path class="cls-15" d="m137.12,191.77c1.16.61,2.33,1.26,3.54,1.75,1.03.41,2.03.97,3.01,1.49-.19-.1-.38-.44-.45-.65.46.1.84.43,1.27.64.51.24,1.02.49,1.53.74,1.02.51,2.02,1.05,3.01,1.61,1.98,1.13,3.91,2.38,5.77,3.74,1.52,1.12,3.04,2.25,4.44,3.55,1.05.97,2.05,1.97,3.04,2.99,1.05,1.08,2.03,2.26,2.93,3.5.91,1.26,1.72,2.49,2.45,3.89-.17-.32-.23-1.13-.3-1.5.41.58.87,1.14,1.25,1.74.83,1.32,1.51,2.82,2.21,4.23.25.5.58.93.89,1.39-.03-.04,0-.41,0-.5-.01-.2.03-.41-.03-.61.58.99,1.23,1.92,1.77,2.95-.28-1.5-.13-3.12-.19-4.65-.07-1.68-.21-3.34-.35-5.01-.28-3.39-.71-6.77-1.24-10.13-.62-3.89-1.46-7.72-1.93-11.63-.12.47-.34.91-.64,1.28-.38-3.21-.99-6.34-1.91-9.41-1.41-4.66-2.98-9.67-5.66-13.65-.7-1.04-1.71-2.44-2.99-2.54-5.01-.4-8.7,2.88-12.9,5.14.08-.31.17-.62.25-.94-1.87,1.71-3.72,3.34-5.65,4.98-2.63,2.24-5.68,5.09-6.69,8.75-.63,2.28.24,4.26,1.45,6.1,0-.35,0-.7.01-1.05.57.82,1.29,1.37,2.13,1.81Z"/><path class="cls-28" d="m142.42,189.92c.06-.02.11-.05.17-.07,1.63-.7,3.25-1.4,4.88-2.1-1.54,1.06-2.81,2.57-3.66,4.34l6.92-2.22c-.98,1.05-1.97,2.1-2.95,3.16-.57.61,14.02,9.07,14.7,10.23.11.19.22.4.41.48.17.07.36.02.53-.03.73-.22,1.45-.44,2.18-.66.38-.12.8-.27.99-.65.26-.54-.1-1.2-.54-1.57s-.97-.65-1.24-1.18c.19-.7.88-1.18,1.53-1.08-.94-4.23-2-8.2-3.34-12.29-1.17-3.55-2.42-6.52-4.65-9.48-4.37-5.8-14.68,3.59-17.39,7.62-.88,1.3-1.36,3.05-.89,4.59.12.39.31.78.63.99.51.35,1.16.17,1.73-.06Z"/></g><g id="G10L10T0101_negro_sin"><path class="cls-15" d="m117.2,420.02c-.09.15-.18.3-.28.44-.08.12-.17.24-.26.36-.18.25-.34.51-.41.81-.07.3-.02.62,0,.93.12,1.75-.51,3.5-1.62,4.86-.07.09-.14.17-.21.25-.89,1-2.04,1.76-3.33,2.11.56,6.48-9.45,7.6-13.6,5.24-2.96-1.69-4.23-1.76-7.49-2.52-4.9-1.14-9.55-3.23-14.01-5.52-9.28-4.75-15.32-11.43-20.06-20.8-1.21-2.39-6.97-11.51-5.41-14.11-.68,1.14-1.37,2.28-2.05,3.42-.17-2.63-.47-5.39-.32-8.03.04-.67.17-4.85.43-5.06-.36.31-1.9,1.34-1.94,1.8.36-4.29.87-9.49,2.88-13.57,1.51-3.07,3.87-5.51,7.65-6.43,6.38-1.56,14.64,2.39,18.54,7.42,3.58,4.6,7.02,7.71,11.68,11.33-1.28.19-2.61.07-3.83-.35,2.88,2.8,5.79,6.2,9.15,8.44,4.43,3.95,10,6.64,14.88,10.03,4.16,2.89,7.83,6.28,9.85,11.4.97,2.43,1.09,5.35-.22,7.58Z"/><path class="cls-12" d="m116.26,422.85c.04,1.76-.67,3.5-1.83,4.81-.89,1-2.04,1.76-3.33,2.11.56,6.48-9.45,7.6-13.6,5.24-2.96-1.69-4.23-1.76-7.49-2.52-4.9-1.14-9.55-3.23-14.01-5.52-9.28-4.75-15.32-11.43-20.06-20.8-1.21-2.39-6.97-11.51-5.41-14.11-.68,1.14-1.37,2.28-2.05,3.42-.17-2.63-.47-5.39-.32-8.03.04-.67.17-4.85.43-5.06-.36.31-1.9,1.34-1.94,1.8.36-4.29.87-9.49,2.88-13.57.35,5.53.46,10.84,2.55,16.07,2.04,5.09,4.9,9.85,8.01,14.35.44-1.46.87-2.92,1.31-4.38-.67,2.22,3.56,7.9,4.8,9.6,1.89,2.57,3.97,5.49,6.27,7.68,6.2,5.92,13.54,8.58,21.82,9.95-.84-1.02-1.67-2.05-2.51-3.07,3.53,1.45,6.57,3.88,10.02,5.56,1.42.69,2.92,1.1,5.4.77,2.53-.33,9.09-.49,9.09-4.29Z"/></g><g id="G11L11T0101_negro_sin"><path class="cls-15" d="m203.65,396.56c-.27,3.21-.67,6.4-1.17,9.44-.17-1.08-.58-2.12-1.17-3.04.58,3.91-1.3,7.71-3.12,11.22-.14-1.05-.52-2.08-1.13-2.96-.05,1.31-.47,2.62-1.18,3.71,0-.61-.2-1.23-.54-1.74.93,1.4-10.74,11.53-12.07,12.6-3.53,2.85-7.29,5.14-11.26,6.94-2.19,1-4.45,1.84-6.76,2.53-.07.03-.15.05-.22.07-.68.2-1.36.39-2.06.57-2.47.64-5.01,1.12-7.62,1.45-.38.05-.74.09-1.12.14-.25.03-.48.05-.73.07-.36.04-.71.07-1.07.1-7.4.64-22.9,2.36-27.09-5.87-.19-.38-.36-.78-.6-1.13-.33-.47-.78-.83-1.18-1.24-.09-.08-.17-.17-.25-.27-.05-.05-.09-.1-.14-.15-.05-.05-.09-.1-.13-.16-.04-.05-.08-.09-.11-.15-.04-.04-.07-.08-.11-.13-.05-.07-.11-.15-.16-.23-.05-.07-.11-.16-.16-.24-.05-.07-.1-.15-.14-.23-.15-.24-.27-.48-.39-.74-.05-.11-.1-.21-.15-.32-.04-.11-.08-.22-.12-.32-.05-.11-.08-.22-.12-.33v-.03c-.11-.32-.19-.66-.27-1-.02-.11-.04-.23-.05-.34-.02-.12-.04-.23-.05-.34h0c-.05-.36-.06-.7-.06-1.05,0-1.35.31-2.71.96-3.9-1.4-1.7-1.95-4.08-1.42-6.23,1.08-4.36,6.23-5.09,11.38-5.94h0c3.3-.54,6.61-1.14,8.82-2.8,1.66-1.24,3.1-2.7,4.46-4.25,0,0,0,0,0,0,1.54-1.77,2.95-3.65,4.4-5.48,5.18-6.57,11.04-13.06,17.34-18.57-1.16-.23-2.39-.12-3.49.31,9.25-6.63,22.97-14.27,33.67-6.07.32.24.63.49.92.77.71.65,1.35,1.37,1.92,2.14.41.56.78,1.14,1.11,1.76.21.37.39.74.58,1.13,1.3,2.84,1.91,6.08,2.07,9.37.16,3.5.05,7.21-.25,10.89Z"/><path class="cls-12" d="m203.65,396.56c-.27,3.21-.67,6.4-1.17,9.44-.17-1.08-.58-2.12-1.17-3.04.58,3.91-1.3,7.71-3.12,11.22-.14-1.05-.52-2.08-1.13-2.96-.05,1.31-.47,2.62-1.18,3.71,0-.61-.2-1.23-.54-1.74.93,1.4-10.74,11.53-12.07,12.6-3.53,2.85-7.29,5.14-11.26,6.94-2.22.92-4.46,1.82-6.76,2.53-.07.03-.15.05-.22.07-.68.2-1.36.39-2.06.57-2.52.62-5.08,1.12-7.62,1.45-.38.05-.74.09-1.12.14-.25.03-.48.05-.73.07-.36.04-.71.07-1.07.1-7.4.64-22.9,2.36-27.09-5.87-.19-.38-.36-.78-.6-1.13-.33-.47-.78-.83-1.18-1.24-.09-.08-.17-.17-.25-.27-.05-.05-.09-.1-.14-.15-.05-.05-.09-.1-.13-.16-.04-.05-.08-.09-.11-.15-.04-.04-.07-.08-.11-.13-.05-.07-.11-.15-.16-.23-.05-.07-.11-.16-.16-.24-.05-.07-.1-.15-.14-.23-.15-.24-.27-.48-.39-.74-.05-.11-.1-.21-.15-.32-.04-.11-.08-.22-.12-.32-.05-.11-.08-.22-.12-.33v-.03c-.11-.32-.19-.66-.27-1-.02-.11-.04-.23-.05-.34-.02-.12-.04-.23-.05-.34.17.29.3.59.45.89,4.32,8.47,14.39,5.11,21.44,5.95-.13.33-.65,2.24-.93,2.32,6.27-1.83,13.04-4.55,18.51-8.15,6.23-4.11,12.73-9.41,15.74-16.44.38,1.11.76,2.21,1.14,3.32,2.86-3.23,5-7.1,6.22-11.24.66-2.24.65-4.55,1.53-6.76.09,0,2.84,4.13,2.98,4.89.06.32,1.41-2.61,1.51-2.89.6-1.7.93-3.49,1.22-5.27,1.13-7.05,2.43-14.15,7.19-19.82.71.65,1.35,1.37,1.92,2.14.41.56.78,1.14,1.11,1.76.21.37.39.74.58,1.13,1.3,2.84,1.91,6.08,2.07,9.37.16,3.5.05,7.21-.25,10.89Z"/><path class="cls-12" d="m143.46,403.34c-2.9,5.11-1.95,9.79-2.98,15.08-2.68-.45-5.43-2.48-7.46-4.26.96-.19,1.95-.27,2.93-.23-.2-.39-3.74-6.58-3.86-6.56,3.31-.54,6.62-1.14,8.82-2.8,1.65-1.24,3.1-2.7,4.46-4.26-.68.99-1.33,1.99-1.92,3.02Z"/></g><g id="G12L12T0101_negro_sin"><path class="cls-15" d="m102.75,372.71c-.37.85-1.02,1.49-1.29,2.4-.36,1.22.06,2.58-.07,3.85-.02.16-.05.33-.08.48-.13.63-.38,1.2-.73,1.71-.06.11-.14.21-.22.31-.04.06-.09.13-.15.18-.09.13-.2.25-.31.37-.06.08-.14.16-.22.24-.14.14-.27.27-.41.4-.09.08-.17.16-.27.24-.08.08-.17.16-.27.23s-.18.16-.27.23c-.09.07-.17.15-.27.22-.12.1-.25.19-.37.28s-.25.18-.37.27c-.24.17-.48.34-.71.48-.24.16-.48.3-.71.43-.24.14-.48.27-.7.38-.7.35-1.4.61-2.09.8-.46.13-.91.22-1.35.27-.18.02-.36.04-.54.05-.12,0-.25,0-.37.02h-.39c-.18,0-.36,0-.54-.02-.36-.02-.71-.06-1.06-.12-.11-.02-.22-.05-.32-.06-.11-.03-.22-.05-.32-.07-.14-.03-.27-.05-.39-.09h-.02c-.13-.04-.26-.08-.38-.13-.39-.11-.79-.26-1.17-.42-.11-.05-.23-.1-.34-.16-.13-.05-.26-.11-.38-.17-.13-.06-.25-.12-.37-.18-.05-.03-.08-.05-.12-.06,0,0-.03-.02-.04-.03-.03,0-.05-.03-.08-.05-.07-.04-.15-.08-.22-.12-.3-.17-.6-.36-.91-.56-.18-.12-.37-.25-.55-.38-.11-.07-.21-.15-.32-.23-.19-.14-.38-.28-.58-.44-.26-.19-.51-.4-.76-.62-.24-.19-.47-.39-.7-.6-.52-.48-1.04-.97-1.55-1.49-.17-.17-.34-.35-.49-.52-.21-.23-.42-.45-.63-.69-.05-.05-.09-.09-.13-.14-.16-.18-.33-.37-.49-.56-.09-.1-.18-.19-.26-.29-.06-.06-.12-.13-.16-.19-.48-.56-.96-1.13-1.42-1.72-.46-.57-.91-1.14-1.35-1.73,0,0,0-.02,0-.02-.45-.59-.89-1.18-1.33-1.77-.19-.27-.39-.53-.59-.8-1.02-1.45-2-2.93-2.93-4.45-.11-.18-.38-.56-.69-1-.08-.12-.16-.24-.26-.37-.22-.31-.44-.65-.64-.96-.05-.09-.11-.18-.16-.27-.26-.45-.44-.83-.44-1.07-.07.35-.14.7-.2,1.05-.58-1.4-1.16-2.8-1.75-4.19-.1.35-.19.7-.29,1.07-3.46-10.88-5.52-21.42-3.07-32.84.23-1.05.49-2.65.87-4.39.7-3.29,1.8-7.04,3.68-8.11-.71.4-1.42.81-2.13,1.22,1.67-.94,2.76-3.03,4.23-4.57.02,0,.03-.02.04-.03,1.22-.94,2.55-1.62,3.97-1.79,3.45.16,4.87,5.38,6.12,7.89-.39-1.3-.35-2.73.12-4.01.4,3.32,2.59,7.07,3.81,10.23,1.24,3.21,2.66,6.39,4.46,9.34.31.52.64,1.04.98,1.55,2.72,4.05,6.61,6.82,9.37,10.89-.75-.28-1.51-.58-2.27-.86,1.05.96,1.96,2.12,2.64,3.43-.49-.17-1.02-.23-1.53-.14.27.63.53,1.24.79,1.86.02.05.04.09.05.14,0,0,0,0,0,0,.19.46.38.91.56,1.36.15.37.29.73.44,1.1.19.48.38.98.58,1.47.09.22.18.44.27.68.09.22.17.45.26.67.13.34.26.65.38.97.18.51.37,1.02.55,1.52.05.16.11.33.16.49,0,.04.03.06.04.1.07.22.15.42.22.64.06.21.14.42.2.63.08.26.16.5.24.75.11.38.22.74.33,1.11.02.05.03.09.05.13.05.18.1.37.15.55.06.21.12.42.17.63.05.2.11.42.16.62.05.19.1.38.14.56.06.23.12.47.17.7.05.2.09.41.14.61.05.22.09.42.14.63.05.2.08.41.13.62.28,1.47.46,3.1-.12,4.42Z"/><path class="cls-12" d="m102.75,372.71c-.37.86-1.02,1.49-1.29,2.4-.36,1.22.06,2.58-.07,3.85-.21,2.07-1.77,3.46-3.19,4.61-.25.2-.48.38-.73.56-1.92,1.38-3.78,2.13-5.57,2.36-.18.02-.36.04-.54.05-.12.01-.25.01-.37.02h-.39c-.18,0-.36-.01-.54-.02-.36-.02-.71-.06-1.06-.12-.22-.04-.43-.08-.64-.13-.27-.06-.53-.13-.79-.22-.39-.11-.79-.26-1.17-.42-.11-.05-.23-.1-.34-.15-.26-.11-.5-.24-.74-.36-.08-.04-.16-.08-.24-.13-.07-.04-.15-.08-.22-.12-4.24-2.43-8.11-7.15-11.63-11.94-.19-.27-.39-.54-.59-.8-1.02-1.44-2-2.93-2.93-4.44-.33-.56-2.19-2.92-2.19-3.67-.07.35-.14.69-.2,1.05-.58-1.4-1.16-2.8-1.75-4.19-.1.35-.19.71-.29,1.07-3.46-10.87-5.52-21.41-3.07-32.84.23-1.05.49-2.66.87-4.39-.02.38-.04.77-.05,1.15-.7,18.71,6.83,40.91,20.92,51.78,4.76,3.68,14.88,7.82,15.91-2.09.14-1.28-.28-2.64.07-3.84.27-.91.91-1.56,1.29-2.41.58-1.32.4-2.94.11-4.42-.93-4.78-2.63-9.74-4.71-14.61.16.33.3.66.46.99.03.06.05.12.09.2.26.57.5,1.12.75,1.69.1.23.2.46.3.69.13.31.27.62.39.94.12.3.25.6.37.91.09.22.18.44.27.68.09.22.17.44.26.67.13.33.26.65.38.97.18.5.37,1.01.55,1.51.06.2.13.4.2.6.07.22.15.42.22.64.06.21.14.42.2.63.08.26.16.5.24.75.11.37.22.74.33,1.1.02.05.03.09.05.13.05.19.1.36.15.55.06.21.12.42.17.63s.11.42.16.63c.05.19.1.37.14.56.06.23.12.46.17.7.05.21.09.41.14.62.05.22.09.42.14.63.05.21.08.41.13.62.28,1.47.46,3.1-.12,4.42Z"/></g><g id="G13L13T0101_negro_sin"><path class="cls-15" d="m171.53,334.52c-.66,5.7-2.07,10.93-3.63,16.38-.42,1.46-.7,2.91-.95,4.34-.08.48-.16.95-.24,1.43-.58,3.57-1.13,7.07-3.09,10.57.45-.84.08-2.01-.77-2.44-.48,1.86-1.28,3.64-2.35,5.23.17-.95-.17-1.98-.87-2.65-1.75,6.59-12.35,13.94-19.01,14.14-.43.01-.87-.03-1.29-.12-.01,0-.02,0-.03,0-.24-.05-.46-.12-.69-.21-.14-.06-.28-.12-.41-.18-.6-.31-1.11-.75-1.45-1.33-2.06.3-4.13-.84-5.45-2.45-1-1.23-2.03-3.08-2.26-4.67-.17-1.17.29-2.24,0-3.45-.14-.6-.44-1.15-.69-1.71-.04-.09-.08-.19-.12-.28-4.68-11.29,7.95-24.35,13.62-32.85-1.14.21-2.36-.02-3.35-.64,6.5-2.63,9-7.19,13.02-12.41,2.94-3.82,6.97-8.57,12.32-8.27,10.06.56,8.35,15.65,7.67,21.56Z"/><path class="cls-12" d="m171.18,337.04c-.05.29-.09.58-.15.88-.74,4.08-2.12,8.09-2.9,12.16-.07.27-.15.54-.23.81-.37,1.3-.63,2.58-.86,3.85-.03.16-.06.33-.09.49-.08.48-.16.95-.24,1.43-.45,2.73-.87,5.41-1.91,8.08-.32.83-.71,1.66-1.18,2.49.07-.13.12-.26.15-.4.18-.77-.2-1.68-.92-2.04,0,.01,0,.03-.01.04-.48,1.85-1.27,3.61-2.34,5.19.01-.09.03-.18.04-.27.07-.87-.27-1.77-.9-2.37-.01.04-.02.09-.04.13-.49,1.72-1.57,3.5-3.03,5.18-4.08,4.71-11.07,8.69-15.94,8.84-.15,0-.3,0-.45,0h0c-.28-.02-.56-.06-.84-.12-.01,0-.02,0-.03,0-.24-.05-.46-.12-.69-.21-.14-.06-.28-.12-.41-.18-.6-.31-1.11-.75-1.45-1.33-.22.03-.44.05-.65.05-.13,0-.25,0-.38-.01,0,0,0,0,0,0-1.7-.13-3.31-1.15-4.41-2.48-1-1.23-2.03-3.08-2.26-4.67-.17-1.17.29-2.24,0-3.45-.14-.6-.44-1.15-.69-1.71-.04-.09-.08-.19-.12-.28-.13-.32-.25-.64-.36-.97-.51-1.57-.72-3.23-.65-4.89,0-.02,0-.05,0-.08.01-.26.03-.52.06-.78.04-.38.09-.76.15-1.14.04-.25.09-.51.14-.76.03-.13.05-.25.08-.38.02-.08.04-.17.06-.25.04-.17.09-.34.13-.52,0,0,0,0,0-.01.09-.35.19-.69.3-1.04,0,0,0,0,0-.01.18,1.41.02,2.78,0,4.22,0,1.33.25,2.63.73,3.87.43,1.09,1.22,1.57,1.89,2.49.61.85.7,1.95.84,2.99.3,2.25,1.62,3.77,3.78,4.48.25.08,2.41.24,2.41.24.35.58.87,1.02,1.48,1.33.75.37,1.62.55,2.47.52,2.74-.08,5.34-1.03,7.67-2.43,2.7-1.61,3.58-3.27,5.19-5.86.04.48.09.96.13,1.44,2.47-3.05,5.25-5.25,7.25-8.73,2.01-3.51,3.45-7.3,4.86-11.08,1.55-4.2,2.94-8.46,4.31-12.73Z"/></g></g></g></g></g></g></svg>