<?xml version="1.0" encoding="UTF-8"?><svg xmlns="http://www.w3.org/2000/svg" xmlns:xlink="http://www.w3.org/1999/xlink" viewBox="0 0 500 601"><defs><style>.cls-1{fill:#e8f8fe;}.cls-2{fill:#fff;}.cls-3,.cls-4,.cls-5,.cls-6,.cls-7,.cls-8,.cls-9,.cls-10{mix-blend-mode:multiply;}.cls-3,.cls-11{fill:#3e3e3d;}.cls-12{fill:#cacaca;}.cls-13{fill:#dcadde;}.cls-14{fill:#a6a6a6;}.cls-15{isolation:isolate;}.cls-16,.cls-6{fill:#4d65e3;}.cls-17{fill:#fbd58f;}.cls-18{fill:#ecca34;}.cls-19{fill:#f0e146;}.cls-4{fill:url(#Degradado_sin_nombre_5);}.cls-20{fill:#c4b99f;}.cls-21{stroke:#fff;stroke-miterlimit:10;stroke-width:3px;}.cls-21,.cls-22,.cls-23{fill:none;}.cls-24{fill:#6f6f6f;}.cls-5{fill:#f1f1f1;}.cls-25{fill:#d1dee4;}.cls-26{clip-path:url(#clippath);}.cls-27{fill:#858585;}.cls-7{opacity:.22;}.cls-28{fill:#cceaf0;}.cls-8{fill:#ebebeb;}.cls-29{fill:#585857;}.cls-30,.cls-9{fill:#222221;}.cls-9{opacity:.32;}.cls-31{fill:#998e33;}.cls-10{fill:#e4e4e4;}.cls-32{fill:#fff061;}.cls-23{opacity:0;}</style><clipPath id="clippath"><rect class="cls-22" width="500" height="601"/></clipPath><linearGradient id="Degradado_sin_nombre_5" x1="249.15" y1="612.07" x2="250.44" y2="383.91" gradientUnits="userSpaceOnUse"><stop offset="0" stop-color="#fff"/><stop offset=".32" stop-color="#fcfcfc"/><stop offset=".52" stop-color="#f3f3f3"/><stop offset=".69" stop-color="#e5e5e5"/><stop offset=".84" stop-color="#d0d0d0"/><stop offset=".97" stop-color="#b6b6b6"/><stop offset="1" stop-color="#b0b0b0"/></linearGradient></defs><g class="cls-15"><g id="Capa_2"><g id="Capa_1-2"><g class="cls-26"><rect id="pared" class="cls-25" width="500" height="378"/><rect id="suelo" class="cls-28" x="-.34" y="382" width="500.34" height="219"/><rect id="suelo-2" class="cls-4" x="-.34" y="382" width="500.34" height="219"/><g id="alfombra"><polygon class="cls-10" points="540 601 0 601 .01 530.96 109.8 402.83 371.99 402 500 553.62 540 601"/><polygon id="alfombra-2" class="cls-17" points="537.38 601 -.38 601 .01 533.38 111.31 402.24 370.84 402 500 556.33 537.38 601"/><polygon class="cls-5" points="397.98 434.43 56.55 466.86 111.31 402.24 370.84 402 397.98 434.43"/></g><g id="zocalo"><rect class="cls-12" y="378.13" width="500" height="24.06"/><rect class="cls-14" y="399.79" width="500" height="2.4"/><rect class="cls-1" y="375.49" width="500" height="2.4"/></g><ellipse class="cls-7" cx="337.5" cy="465.5" rx="84.5" ry="14.5"/><ellipse class="cls-7" cx="152" cy="465.5" rx="68" ry="14.5"/><g><g><path class="cls-5" d="m185.08,125.46c-4.35,2.69-8.61,5.47-12.8,8.32-8.36,5.72-16.45,11.72-24.31,17.96-7.87,6.22-15.51,12.68-22.97,19.31-.81.72-1.6,1.44-2.4,2.17.87-3.84,1.63-7.68,2.28-11.52,1.14-6.68,1.95-13.37,2.51-20.06.56-6.69.86-13.38.92-20.07.06-6.69-.12-13.39-.57-20.09-.45-6.7-1.14-13.4-2.17-20.1-1.01-6.7-2.36-13.41-4.1-20.11-.87-3.35-1.86-6.71-2.98-10.06-1.14-3.36-2.36-6.71-3.95-10.07-1.64,3.33-2.91,6.67-4.11,10.01-1.17,3.34-2.21,6.68-3.14,10.02-1.84,6.68-3.3,13.36-4.42,20.05-1.14,6.68-1.94,13.37-2.49,20.06-.55,6.69-.85,13.38-.89,20.07-.05,6.69.15,13.39.6,20.09.45,6.7,1.15,13.4,2.19,20.1.58,3.84,1.27,7.67,2.08,11.51-.78-.73-1.55-1.46-2.34-2.18-7.35-6.76-14.88-13.34-22.65-19.69-7.75-6.36-15.75-12.48-24.02-18.34-4.14-2.92-8.36-5.77-12.67-8.52-4.33-2.73-8.71-5.42-13.36-7.84,2.35,4.69,4.96,9.11,7.62,13.49,2.68,4.36,5.46,8.62,8.31,12.81,5.72,8.36,11.71,16.46,17.95,24.31,6.22,7.87,12.69,15.5,19.32,22.96,6.64,7.46,13.46,14.73,20.47,21.84l10.12,10.26,10.25-10.1c7.1-7,14.04-14.17,20.79-21.53,6.75-7.36,13.33-14.89,19.68-22.66,6.36-7.76,12.49-15.75,18.34-24.02,2.92-4.14,5.77-8.35,8.53-12.66,2.74-4.33,5.42-8.71,7.85-13.35-4.68,2.35-9.1,4.97-13.47,7.64Z"/><path class="cls-5" d="m456.08,249.46c-4.35,2.69-8.61,5.47-12.8,8.32-8.36,5.72-16.45,11.72-24.31,17.96-7.87,6.22-15.51,12.68-22.97,19.31-.81.72-1.6,1.44-2.4,2.17.87-3.84,1.63-7.68,2.28-11.52,1.14-6.68,1.95-13.37,2.51-20.06.56-6.69.86-13.38.92-20.07.06-6.69-.12-13.39-.57-20.09-.45-6.7-1.14-13.4-2.17-20.1-1.01-6.7-2.36-13.41-4.1-20.11-.87-3.35-1.86-6.71-2.98-10.06-1.14-3.36-2.36-6.71-3.95-10.07-1.64,3.33-2.91,6.67-4.11,10.01-1.17,3.34-2.21,6.68-3.14,10.02-1.84,6.68-3.3,13.36-4.42,20.05-1.14,6.68-1.94,13.37-2.49,20.06-.55,6.69-.85,13.38-.89,20.07-.05,6.69.15,13.39.6,20.09.45,6.7,1.15,13.4,2.19,20.1.58,3.84,1.27,7.67,2.08,11.51-.78-.73-1.55-1.46-2.34-2.18-7.35-6.76-14.88-13.34-22.65-19.69-7.75-6.36-15.75-12.48-24.02-18.34-4.14-2.92-8.36-5.77-12.67-8.52-4.33-2.73-8.71-5.42-13.36-7.84,2.35,4.69,4.96,9.11,7.62,13.49,2.68,4.36,5.46,8.62,8.31,12.81,5.72,8.36,11.71,16.46,17.95,24.31,6.22,7.87,12.69,15.5,19.32,22.96,6.64,7.46,13.46,14.73,20.47,21.84l10.12,10.26,10.25-10.1c7.1-7,14.04-14.17,20.79-21.53,6.75-7.36,13.33-14.89,19.68-22.66,6.36-7.76,12.49-15.75,18.34-24.02,2.92-4.14,5.77-8.35,8.53-12.66,2.74-4.33,5.42-8.71,7.85-13.35-4.68,2.35-9.1,4.97-13.47,7.64Z"/></g><polyline class="cls-21" points="29.46 378 29.46 39 471 39 471 378"/></g><circle class="cls-32" cx="471.5" cy="261.5" r="6.5"/><g><g id="G02L01T02_azul"><path class="cls-16" d="m419.01,398.62c.02-.57-.37-1.13-.91-1.31.18.56.37,1.15.32,1.74-.06.59-.42,1.19-.99,1.33.12.02.16,1.33.16,1.43,0,.25.02.51.03.77v.02c0,.08,0,.16,0,.24,0,.31-.02.62-.1.92,0,0,0,.01,0,.02-.02.09-.05.18-.09.26-.01-.04-.02-.09-.04-.13-.05-.13-.13-.26-.22-.37-.34,2.6-.89,5.17-1.57,7.7-.62,2.3-1.53,4.71-1.7,7.09,0,.13-.04.31-.08.5-.04.2-.1.43-.15.67,0,0,0,.01,0,.02-.02.1-.05.2-.07.31,0,.01,0,.02-.01.04-.18.77-.35,1.56-.23,1.91-.19-.55-.27-1.14-.22-1.71-.42,1.48-.84,2.95-1.26,4.43-.39-.14-.75-.39-1.01-.72-.81,2.29-1.11,4.68-1.95,6.96-.26-.3-.52-.61-.78-.92-.07.45-.15.89-.22,1.34-.38-.07-.72-.32-.91-.65.85,2.11-.08,4.56-1.01,6.68-.01-.62-.29-1.24-.74-1.66-.33.49-.67.97-1,1.46.03-.35.06-.69.1-1.04-.72,1.52-1.43,3.03-2.15,4.54-.24.51-.48,1.12-.3,1.64-.28-.62-.57-1.24-.85-1.85-.33,1.11-1.12,2.16-2.17,2.64-.03-.26-.2-.63-.23-.9-.03-.29-1.77,1.44-1.85,1.53-.91,1.07-1.56,2.58-2.3,3.78.26-.6.41-1.24.45-1.89-.02.32-2.87,2.28-3.23,2.57-1.69,1.35-3.38,2.68-5.15,3.92-4.47,3.13-9.25,5.81-14.26,7.98-3.36,1.46-6.81,2.43-10.28,3.58-2.51.75-4.81,2.44-7.23,3.42-.06.02-.12.05-.18.03-.06-.02-.1-.07-.13-.11-.19-.23-.34-.63-.6-.67-.25-.04-.84.38-1.06.5-.17.09-1.78,1.28-1.78,1.32-.53-.37-.93-.92-1.11-1.54-1.11.39-2.14,1.01-2.99,1.83-.31.3-1.02-1.14-1.11-1.17-.35-.12-1.68.55-2.12.62.07.22.2.43.36.6-.87-.04-2.73-.94-2.67-1.97-.45.43-.92.87-1.52,1.03-.6.15-1.35-.11-1.52-.71-.88.22-1.7.67-2.36,1.28-.67-.49-1.34-.98-2.02-1.46,0,.31-.02.63-.02.94-1-.24-2-.49-3-.73.17.35.35.7.52,1.04-2.33-.89-4.67-2.01-7.03-2.76-1.02-.32-7.23-.88-7.55-1.83,0-.03-.02-.06-.03-.08-.01.02-.03.04-.04.06-2.99-.89-5.91-1.94-8.73-3.16-.05-.06-.1-.11-.15-.17-.05.01-.11.02-.16.04-1.35-.59-2.68-1.21-3.98-1.88-.03-.19-.07-.39-.1-.58-.2.07-.41.14-.61.21-.94.32-5.06-2.87-5.93-3.44-1.51-.98-3.28-2.06-4.42-3.47.06.41.11.81.17,1.22-.87-.68-1.61-1.55-2.13-2.52-.02.32-.04.64-.07.97-1.35-1.54-2.63-3.13-3.83-4.78.35.97.7,1.94,1.06,2.92-2.43-2.66-4.47-5.6-6.79-8.33-2.61-3.06-5.39-6.04-7.2-9.67-.2.54-.4,1.08-.6,1.62-1.12-1.72-1.94-3.63-2.42-5.63-.12.47-.24.94-.37,1.41.38-1.41-1.58-5.27-2-6.73-.65-2.26-1.28-4.53-1.86-6.81-1.07-4.17-1.75-8.41-2.93-12.53-.32.37-.64.73-.96,1.1-.29-1.05-.14-2.21.41-3.15-.34-.04-.69.07-.94.29.18-1.13.35-2.27.53-3.4-.2.04-.38.17-.49.35.09-3.09.13-6.19.3-9.28,0-.09,0-.19,0-.3-.01-1.38-.41-4.38.34-5.2-.2.22-.41.44-.61.66-.12-3.34.43-6.71,1.63-9.83-.42.25-.84.51-1.25.76.07-.41.84-5.16,1.19-5.02-.15-.06-.3-.11-.45-.17.67-.79,1.16-1.73,1.42-2.72-.34.22-.68.45-1.02.67.17-1.82.78-3.59,1.77-5.13-.33.16-.63.39-.88.67.38-1.02.76-2.05,1.14-3.07-.29.1-.63.07-.89-.09.37-.8.97-1.21,1.67-1.78.06-.05.12-.1.19-.15.16-.13.32-.26.47-.4-.82.06-.76-1.05-1.39-1.12.15,0,.47-.47.63-.73.03-.04.06-.09.08-.13.06-.09.11-.18.17-.28.04-.08.09-.16.13-.25.09-.18.18-.37.27-.56.02-.03.03-.07.04-.1.02-.03.03-.07.04-.1,0,0,0,0,0-.02.14-.34.26-.69.43-1.01,0-.02.02-.04.03-.06,0,0,0,0,0-.01.06-.09.12-.2.17-.3.17-.31.34-.65.43-.9.02-.07.04-.13.05-.18.02-.07.02-.13,0-.17.06.09.12.2.18.29.43.74.83,1.56.76,2.04.06-.36.11-.72.16-1.08.19.93.3,1.88.32,2.83.15-.36.24-.78.41-1.1.83.49.68,2.1,1.07,2.93-.12-.26-.05-.59.16-.77.17.77.27,1.55.31,2.34.1-.64.27-1.27.51-1.88.76,1,1,2.37.62,3.57.51-.35.87-.92.97-1.53.82.88,1.41,1.97,1.68,3.14-.07-.8-.13-1.61-.2-2.42.7,1.19,1.4,2.37,2.1,3.56-.31-.75-.44-1.58-.39-2.39.24.64.47,1.28.71,1.92,0-.38,0-.76,0-1.14.54.93,1.08,1.85,1.62,2.78.01-.38.02-.76.03-1.15.35.48,1.69,1.34,1.7,1.94-.01-.49.03-.98.13-1.45.35.56.61,1.18.78,1.82-.08-.48-.04-.97.1-1.43.51.95.93,1.95,1.28,2.98-.16-.57-.26-1.16-.29-1.75.37.69.8,1.35,1.3,1.97.01-.26.02-.51.04-.77.13.06.26.15.35.26.29.32,2.23.85,2.85,1.23.11-.21.15-.46.11-.69.13.23.25.46.38.7.18-.56.24-1.17.18-1.76.06.48.22.95.48,1.36.13-.53.26-1.06.39-1.59.27.56.54,1.12.81,1.68.16-.35.25-.73.26-1.11.16.33.33.65.49.98.14-.14.28-.28.42-.43.06.22.13.47.32.6.19.13.53.06.55-.17.09.29.25.57.47.78.24-.24.43-.53.57-.84.35,1.03.71,2.05,1.06,3.08.32-.62.5-1.32.52-2.02.3.83.6,1.67.9,2.5.16-.29.32-.57.48-.86.14.97.51,1.9,1.08,2.7.17-.54.33-1.08.5-1.62.14.66.38,1.29.71,1.88.13-.18.26-.36.39-.54.13.46.37.89.7,1.24.03-.24.06-.47.09-.71.14.29.29.57.43.86.03-.69.06-1.37.09-2.06.44.95.88,1.9,1.31,2.84.31-.29.52-.69.56-1.11.38.67.8,1.31,1.24,1.94.2-.19.32-.45.33-.72.03-.61,1.8,1.43,1.81,1.44.16-.12.2-.37.08-.54.29-.11.48-.44.44-.75.13.17.25.35.38.52.54-.57.83-1.37.78-2.15.06.2.12.39.18.59,0-.31,0-.62,0-.93.13,1.09.54,2.15,1.2,3.04.08-.6.15-1.19.23-1.79.02.54.04,1.12.32,1.59.28.47.89.8,1.38.56.15.31.31.62.46.93.17-.12.33-.24.5-.36.39.76.85,1.49,1.38,2.16.13-.22.19-.48.18-.74.19.65.37,1.3.56,1.95.08-.27.21-.53.38-.76.17.24.33.48.5.73.16-.09.16-.32.12-.5-.04-.18-.09-.39.03-.53.07-.09.23-.07.3,0-.05-.47.11-.97.43-1.32.22-.43.28-.94.17-1.41.11.58.31,1.15.58,1.67.2-.57.41-1.14.61-1.71.28.68.56,1.36.83,2.04.08.2.17.41.36.51.18.11.48.03.5-.18.2.36.48.68.8.93.18-.17.37-.35.55-.52-.28.27,1.9,1.04,2.07,1.07,1.51.23,1.54-.41,1.67-1.76.33.75.65,1.5.98,2.25.04.1.09.21.19.25.1.04.25-.03.23-.13.17.48.4.95.66,1.4.07-.79.22-1.58.45-2.34-.03.91.2,1.83.64,2.63-.02-.98.13-1.95.45-2.87.22.53.44,1.06.65,1.6.2-.22.4-.45.6-.67.09.29.26.57.52.73.46.28,1.09.09,1.47-.29.26-.26,1.67,1.07,1.96,1.08.09,0,.18-.02.26,0,.38.07.26.73.59.92.17-.69.3-1.38.38-2.08.22.68.43,1.37.84,1.96.39-.55.79-1.1,1.19-1.65.05.39.14.85.49,1.03.9.46.59.69,1.55-.03.51-.38,1.01-.8,1.46-1.2.09.19,1.07,1.93,1.01,2,.79-.78,1.59-1.57,2.38-2.35.34.53.68,1.06,1.02,1.6.43-.62.86-1.23,1.28-1.85,1.08.1,2.16.2,3.24.29.29-.5.59-1,.89-1.51-.22.49.74.56,1.13.18.39-.38,1.11-.8,1.33-.31.38-1.05.75-2.1,1.13-3.15.04.67.26,1.33.64,1.89.29-.31.58-.62.86-.93.78.72,1.5,1.51,2.29,2.22.12-.16.24-.31.37-.47.04.28.24.52.5.62.33-.42.66-.85.98-1.27.05.42.1.84.15,1.26.41-.73.8-1.47,1.17-2.22.06.53.11,1.06.17,1.6.01.12.04.26.14.32.14.08.3-.05.42-.17.53-.56,1.06-1.12,1.59-1.68,0,.36.09.72.28,1.02.1-.51.78-.81,1.23-.55.11.07.23.17.36.16.13,0,.24-.11.32-.22.82-.96,1.6-2,2.49-2.87-.07.5-.09,1.11.34,1.49.27-.32.55-.63.82-.95.03.25.25.47.5.5.25.03.52-.12.62-.35.09.27.48.33.72.19.24-.15.38-.42.5-.68.12-.26.26-.53.5-.68.03.32.15.63.35.88,0-.07,1.56-2.1,1.7-2.28.55.82.53,2.89,1.95,1.34.22.62.33,1.29.48,1.94.02.08.05.17.13.19.07.02.15-.04.2-.09.97-.87,3.4-.66,3.91-2.14-.17.5-.34,1-.52,1.5.78-.92,1.78-1.65,2.89-2.13-.14.57-.27,1.14-.41,1.71.57.07,1.03-.44,1.39-.89.36-.45.86-.93,1.42-.81.32.07.44.47.38.76.69-.49,1.39-.98,2.08-1.48-.18.48-.36.97-.54,1.45.58-.64,1.16-1.28,1.75-1.93-.17.19-.14,1.06-.15,1.32.65-.14,1.05-1.31,1.28-1.9.06.35.2.69.41.98.24-.31.38-.71.38-1.11.46-.12.83-.55.88-1.02-.04.16.06.35.22.41.13-.73.25-1.45.38-2.18-.1.66.14,1.36.63,1.82.06-.81.21-1.62.43-2.4.16.55.32,1.1.48,1.65.04.14.09.29.22.35.11.06.29-.04.28-.15.05.2.1.39.15.59.08-.07.13-.16.17-.26.03.06.1.12.17.09.12-.05.15-.2.17-.32.11-.82.23-1.63.34-2.45.26.38.51.76.76,1.14.09.13.2.27.36.25.15-.02.23-.17.28-.31.16-.38.31-.75.47-1.13.11.35.22.7.33,1.04.07-.39.33-.77.71-.85.38-.08.82.29.72.67,1.3-1.16,2.25-2.71,2.7-4.4.05.62.1,1.24.15,1.87.04-.41.08-.82.12-1.23.11.25.21.49.32.74.12-.29.46-.48.77-.43.2-.24.39-.49.58-.74-.06.25-.11.5-.17.75.18-.17.36-.35.54-.53-.17.35.35.7.7.55.35-.15.52-.56.63-.92.46-1.42,2.09-2.76,3.04-3.9-.08.68-.15,1.37-.23,2.05,1.26-1.61,2.52-3.23,3.77-4.84-.11.52-.21,1.03-.32,1.55.37-1.14.74-2.28,1.11-3.41.02,0,.05,0,.07,0,1.48.08,1.9-.94,2.41-1.91h0c-.05.13-.1.25-.15.38-.08.2-.16.39-.24.59.47-.07.94-.14,1.41-.22-.28.35-.55.7-.82,1.05,0,0,0,0,0,0-.13.16-.25.33-.38.49,0,.01-.02.02-.03.04.28.08.51.22.71.42.41.41.65,1.03.82,1.63.03.09.05.18.07.27.39,1.5.96,2.94,1.26,4.47-.17-.22-.4-.39-.66-.49.05.16.1.31.17.46.65,1.58,2.03,2.97,2.21,4.64-.41-.33-.94-.51-1.46-.51.7,0,1.29,1.95,1.41,2.46.3,1.24.17,2.61.35,3.88-.09-.64-.41-1.24-.9-1.66.7,2.97,1.01,6.04.91,9.1-.17-.33-.4-.64-.66-.91-.1-.11-.21-.2-.32-.29.38,1.97.54,3.94.6,5.92.03,1.1.04,2.2.04,3.32,0,3.5,1.26,6.75,1.02,10.3Z"/><path class="cls-6" d="m419.01,398.62c.02-.57-.37-1.13-.91-1.31.18.56.37,1.15.32,1.74-.06.59-.42,1.19-.99,1.33.12.02.16,1.33.16,1.43,0,.25.02.51.03.77v.02c0,.08,0,.16,0,.24,0,.31-.01.62-.1.92,0,0,0,.01,0,.02-.02.08-.05.15-.08.23,0-.03-.02-.06-.04-.1-.05-.13-.13-.26-.22-.37-.34,2.6-.89,5.17-1.57,7.7-.62,2.3-1.53,4.71-1.7,7.09,0,.13-.04.31-.08.5-.06.22-.11.44-.15.67,0,0,0,.01,0,.02-.02.1-.04.2-.07.31,0,.01,0,.02-.01.04-.17.61-.42,1.35-.23,1.91-.19-.55-.27-1.14-.22-1.71-.42,1.48-.84,2.95-1.26,4.43-.39-.14-.75-.39-1.01-.72-.81,2.29-1.11,4.68-1.95,6.96-.26-.3-.52-.61-.78-.92-.07.45-.15.89-.22,1.34-.38-.07-.72-.32-.91-.65.85,2.11-.08,4.56-1.01,6.68-.01-.62-.29-1.24-.74-1.66-.33.49-.67.97-1,1.46.03-.35.06-.69.1-1.04-.72,1.52-1.43,3.03-2.15,4.54-.24.51-.48,1.12-.3,1.64-.28-.62-.57-1.24-.85-1.85-.33,1.11-1.12,2.16-2.17,2.64-.03-.26-.2-.63-.23-.9-.03-.29-1.77,1.44-1.85,1.53-.91,1.07-1.56,2.58-2.3,3.78.26-.6.41-1.24.45-1.89-.02.32-2.87,2.28-3.23,2.57-1.69,1.35-3.38,2.68-5.15,3.92-4.47,3.13-9.25,5.81-14.26,7.98-3.36,1.46-6.81,2.43-10.28,3.58-2.51.75-4.81,2.44-7.23,3.42-.06.02-.12.05-.18.03-.06-.02-.1-.07-.13-.11-.19-.23-.34-.63-.6-.67-.25-.04-.84.38-1.06.5-.17.09-1.78,1.28-1.78,1.32-.53-.37-.93-.92-1.11-1.54-1.11.39-2.14,1.01-2.99,1.83-.31.3-1.02-1.14-1.11-1.17-.35-.12-1.68.55-2.12.62.07.22.2.43.36.6-.87-.04-2.73-.94-2.67-1.97-.45.43-.92.87-1.52,1.03-.6.15-1.35-.11-1.52-.71-.88.22-1.7.67-2.36,1.28-.67-.49-1.34-.98-2.02-1.46,0,.31-.02.63-.02.94-1-.24-2-.49-3-.73.17.35.35.7.52,1.04-2.33-.89-4.67-2.01-7.03-2.76-1.02-.32-7.23-.88-7.55-1.83,0-.03-.02-.06-.03-.08-.01.02-.03.04-.04.06-2.99-.89-5.91-1.94-8.73-3.16-.05-.06-.1-.11-.15-.17-.05.01-.11.02-.16.04-1.35-.59-2.68-1.21-3.98-1.88-.03-.19-.07-.39-.1-.58-.2.07-.41.14-.61.21-.94.32-5.06-2.87-5.93-3.44-1.51-.98-3.28-2.06-4.42-3.47.06.41.11.81.17,1.22-.87-.68-1.61-1.55-2.13-2.52-.02.32-.04.64-.07.97-1.35-1.54-2.63-3.13-3.83-4.78.35.97.7,1.94,1.06,2.92-2.43-2.66-4.47-5.6-6.79-8.33-2.61-3.06-5.39-6.04-7.2-9.67-.2.54-.4,1.08-.6,1.62-1.12-1.72-1.94-3.63-2.42-5.63-.12.47-.24.94-.37,1.41.38-1.41-1.58-5.27-2-6.73-.65-2.26-1.28-4.53-1.86-6.81-1.07-4.17-1.75-8.41-2.93-12.53-.32.37-.64.73-.96,1.1-.29-1.05-.14-2.21.41-3.15-.34-.04-.69.07-.94.29.18-1.13.35-2.27.53-3.4-.2.04-.38.17-.49.35.09-3.09.13-6.19.3-9.28,0-.09,0-.19,0-.3.35,1.66-.02,2.99.31,4.59.28-.07.59-.01.82.16-.15.51-.31,1.03-.46,1.54.43.02.86.03,1.29.04-.11.68-.39,1.34-.81,1.89.27.03.54.06.82.09-.33.4-.26,1.07.16,1.39.14.11.31.17.43.29.65.62.41,3.65.59,4.59.4,2.09,1.04,4.13,1.91,6.08.21-.4.42-.79.63-1.19,1.38,3.01,2.77,6.02,4.15,9.03.26-.56.41-1.17.45-1.79.76,2.87,1.91,5.65,3.41,8.22-.21-.94-.2-1.93.03-2.87-.25,1.01,2.4,3.68,2.7,4.83.45-.15.89-.3,1.34-.45-.3.85.9,1.75,1.63,1.21.16.44.32.88.47,1.32.48-.04.97-.09,1.45-.14.58.92,1.16,1.83,1.75,2.75.34-.15.67-.3,1.01-.46.03.43.07.86.1,1.29.32-.37.98-.13,1.19.3.21.44.11.95.01,1.43.36-.49,1.32.02,1.13.59.34-.18.68-.36,1.02-.53.13,1.09,1.15,2.01,2.25,2.01-.12.59.54,1.49.77.93-.11.26.02.75.08,1.01,1.98-1.21,2.1.5,3.18,1.71,1.67,1.89,4.3,3.37,6.29,4.92-.04-.35-.07-.7-.11-1.04,1.79,1.38,3.61,2.7,5.48,3.97.18-.12.26-.36.21-.57.57.49,1.14.98,1.71,1.47-.07-.45-.14-.9-.22-1.35,1.41,1.09,2.39,1.51,4.03,1.51,1.22,0,1.72-1.23,2.15.82.14-.16.99-1.09.91-1.28.2.49.26,1.03.2,1.55.26-.26.51-.52.76-.78.32.45.65.9.97,1.36.43-.33.86-.65,1.28-.98.2.58.28,1.2.21,1.81.73-.18,1.41-.58,1.93-1.13.07.77.34,1.52.77,2.16.68-.37,1.36-.74,2.04-1.11.11.55.38,1.08.75,1.5.55-.57,1.11-1.14,1.66-1.71.04.35.24.69.54.87.57-.43,1.14-.86,1.71-1.3.23.41.46.83.69,1.25-.32-.57,3.18.41,3.27.42,2.24.22,3.76-.19,6.14.89-.05-.38.42-.73.77-.57.28.12.37.5.25.76.36-.43.72-.86,1.07-1.29.09.57.18,1.14.27,1.71.52-.49,1.05-.99,1.57-1.48.16.5.31,1,.47,1.51.31-.54.67-1.12,1.27-1.31.59-.19,1.39.32,1.2.92.26-.47.59-.99,1.11-1.08.47-.08.94.5.74.85.33-.36.65-.73.98-1.09.07.62,1.21.62,1.27,0,.66.23,1.33.46,1.99.69.03-.88,1.65-.97,1.77-.1.72-.39,1.43-.78,2.14-1.18,0,0,2.37.44,2.88.36,1.41-.22,2.93-.81,4.37-1.09.13-.03.26-.05.39-.02.53.14.32.95,0,1.39,2.05-.43,3.92-1.66,5.13-3.37-.27.41-.42.9-.44,1.39,2.22-.83,4.23-2.21,5.82-3.97l-.61,1.59c1.77-1.05,3.43-2.28,4.94-3.66.54-.5,1.58-2.08,2.22-2.29.13-.04,1.64-.23,1.51.3.13-.54.27-1.09.4-1.63.76.08,1.52.16,2.27.24.22-.62.45-1.24.67-1.85,1.03-.26,2.06-.51,3.09-.76.65-.31.92-1.21.56-1.83.71-.06,1.41-.12,2.12-.18-.13-1.49,1.35-2.9,2.83-2.69,0-.37.02-.74.03-1.11.09.22.55.29.72.04.2-.31.06-.72-.09-1.05,1.57-.16,5.35-3.19,5.32-4.91.01.73.03,1.46.04,2.19,1.84-1.84,3.38-3.98,4.55-6.3-.13.59-.26,1.18-.4,1.76.98-1.17,1.68-2.57,2.02-4.05,0,.33,0,.67,0,1,1.82-3.55,3.23-7.31,4.2-11.18.08.47.16.93.24,1.4.79-2.36,1.24-6.68,3.01-8.42,1.74-1.7,2.48-.46.55-3.13.1-.04,1.25-.66,1.18-.74-.33-.36-.67-.72-1-1.08.73-.17.94-1.34.32-1.76,0-1.51.71-3,1.87-3.96-.3.22-.54-.35-.48-.72.17-1,.33-2,.5-3,.18-.23.37-.49.55-.74.03,1.1.04,2.2.04,3.32,0,3.5,1.26,6.75,1.02,10.3Z"/><path class="cls-6" d="m415.65,361.92c.05.16.1.31.17.46-.03-.01-.07-.02-.11-.03-.14-.03-.3-.05-.42.02-.13.07-.19.26-.09.36-.66-.15-1.37-.11-2,.12.02.01.05.03.07.04.31.18.62.37.94.55-.73.75-1.61,1.36-2.57,1.77.43.24.93.37,1.43.37-.84.69-1.89,1.12-2.97,1.24.4.08.39.74.04.96-.34.23-.79.15-1.19.07.43.13.85.26,1.28.38-1.35.98-2.93,1.62-4.58,1.86.06.5.12,1.01.18,1.52-1.69,1.01-3.51,1.8-5.41,2.35.48-.14.28.75-.15,1-2.21,1.27-4.71,2.03-7.25,2.21,1.08.75,2.3,1.3,3.58,1.64-2.28.89-4.69,1.42-7.14,1.56.39.42-.41.91-.98.93-1.95,1.08-4.08,1.84-6.27,2.23.62.6,1.35,1.08,2.14,1.42-3.14.99-6.39,1.63-9.67,1.9.25.35.49.7.74,1.06-1.75.61-3.66.73-5.47.37.25.26.5.52.76.78-1.14.41-2.4.47-3.58.16.19.33.38.65.57.97-.46.16-.98.09-1.39-.16.16.3-.41.89-.89.79-.58-.13-1.25-.54-1.7-.15-.75.58-1.88.59-2.64.02.19.63.63,1.17,1.16,1.54-.68-.02-5.51-.49-5.56-1,.06.67.34,1.33.78,1.85-.74-.05-1.46-.29-2.07-.7.14.09.4,1.24.68,1.52-1.19.67-3.07.13-4.26-.44.32.52.63,1.05.95,1.58-.74-.24-1.47-.48-2.21-.72.07.3-.46.36-.69.15-.23-.21-.42-.54-.73-.52-.42.47-.51,1.21-.22,1.77-1.14,0-2.26-.63-2.85-1.6-.05.53.33.99.58,1.46.25.47.32,1.17-.14,1.43-.17.1-.39.11-.59.09-.83-.06-1.64-.48-2.17-1.13-.42.15-.77.49-.93.91-.24-.29-.49-.59-.73-.88-.14.29-.28.58-.43.87-.63.1-.96-1.07-1.58-.9-.19.05-.32.23-.44.4-.52.75-1.03,1.51-1.54,2.26-.81-.81-1.28-1.95-1.29-3.09-.61.24-1.06.85-1.13,1.5-.18-.22-.24-.53-.13-.8-.87.6-2.27-.42-1.97-1.43-1.12.4-2.29.66-3.48.78.1-.63.2-1.27.29-1.9-1.41.72-2.41.94-3.93.67-.23-.04-2.73-.65-2.18-1-.54.34-1.58.4-1.5-.24-.85.2-1.69.41-2.54.61-.45-.01-.9-.03-1.34-.04.15-.36.31-.71.46-1.07-2.34.8-4.97.71-7.25-.25.72-.69,1.45-1.39,2.17-2.08-2.26.45-4.52.9-6.78,1.35.35-.5.69-1.01,1.04-1.52-1.26.05-2.53.1-3.8.15-.43-.88-1.39-1.48-2.37-1.48.52-.11,1.04-.21,1.55-.35-2.53-.41-4.58-1.68-7.15-2.08.2-.49.59-.85,1.08-1.08-1.58-.54-3.16-1.08-4.73-1.62.36,0,.72-.16.95-.44-1.02-.35-2.04-.69-3.06-1.04.68-.46,1.44-.79,2.24-.99-1.93-.54-3.87-1.09-5.8-1.63.75-.06,1.49-.11,2.24-.17-1.29-1.01-2.76-1.79-4.33-2.29.55-.48,1.32-.69,2.03-.56-2.75-1.11-5.49-2.21-8.24-3.32.8.34,1.68.51,2.55.5-1.23-1.03-2.61-1.86-4.1-2.47.56.19,1.12.38,1.68.57-1.77-1.32-3.54-2.65-5.31-3.97,1.3.4,2.65.64,4.02.7-1.48-1.01-2.95-2.03-4.43-3.04-.01,0-.02-.02-.03-.03-2.1-.7-3.79-2.52-4.33-4.67.35.13.7.26,1.05.38-.8-.86-1.69-1.62-2.44-2.52-.43-.51-.69-1.09-.98-1.66.16-.13.32-.26.47-.4-.82.06-.76-1.05-1.39-1.12h0c.24-.21.45-.46.63-.73.03-.04.06-.09.08-.13.06-.09.11-.18.17-.28.04-.08.09-.16.13-.25.09-.18.18-.37.27-.56.02-.03.03-.07.04-.1.02-.03.03-.07.04-.1,0,0,0,0,0-.02.15-.34.29-.68.43-1.01,0-.02.02-.04.03-.06,0,0,0,0,0-.01.06-.09.12-.2.17-.3.17-.31.34-.65.43-.9.02-.07.04-.13.05-.18.02-.07.02-.13,0-.17,0,0,0,0,0-.01,0,0,0,0,0,.01.06.09.12.2.18.29.43.74.83,1.56.76,2.04.06-.36.11-.72.16-1.08.19.93.3,1.88.32,2.83.15-.36.24-.78.41-1.1.83.49.68,2.1,1.07,2.93-.12-.26-.05-.59.16-.77.17.77.27,1.55.31,2.34.1-.64.27-1.27.51-1.88.76,1,1,2.37.62,3.57.51-.35.87-.92.97-1.53.82.88,1.41,1.97,1.68,3.14-.07-.8-.13-1.61-.2-2.42.7,1.19,1.4,2.37,2.1,3.56-.31-.75-.44-1.58-.39-2.39.24.64.47,1.28.71,1.92,0-.38,0-.76,0-1.14.54.93,1.08,1.85,1.62,2.78.01-.38.02-.76.03-1.15.35.48,1.69,1.34,1.7,1.94-.01-.49.03-.98.13-1.45.35.56.61,1.18.78,1.82-.08-.48-.04-.97.1-1.43.51.95.93,1.95,1.28,2.98-.16-.57-.26-1.16-.29-1.75.37.69.8,1.35,1.3,1.97.01-.26.02-.51.04-.77.13.06.26.15.35.26.29.32,2.23.85,2.85,1.23.11-.21.15-.46.11-.69.13.23.25.46.38.7.18-.56.24-1.17.18-1.76.06.48.22.95.48,1.36.13-.53.26-1.06.39-1.59.27.56.54,1.12.81,1.68.16-.35.25-.73.26-1.11.16.33.33.65.49.98.14-.14.28-.28.42-.43.06.22.13.47.32.6.19.13.53.06.55-.17.09.29.25.57.47.78.24-.24.43-.53.57-.84.35,1.03.71,2.05,1.06,3.08.32-.62.5-1.32.52-2.02.3.83.6,1.67.9,2.5.16-.29.32-.57.48-.86.14.97.51,1.9,1.08,2.7.17-.54.33-1.08.5-1.62.14.66.38,1.29.71,1.88.13-.18.26-.36.39-.54.13.46.37.89.7,1.24.03-.24.06-.47.09-.71.14.29.29.57.43.86.03-.69.06-1.37.09-2.06.44.95.88,1.9,1.31,2.84.31-.29.52-.69.56-1.11.38.67.8,1.31,1.24,1.94.2-.19.32-.45.33-.72.03-.61,1.8,1.43,1.81,1.44.16-.12.2-.37.08-.54.29-.11.48-.44.44-.75.13.17.25.35.38.52.54-.57.83-1.37.78-2.15.06.2.12.39.18.59,0-.31,0-.62,0-.93.13,1.09.54,2.15,1.2,3.04.08-.6.15-1.19.23-1.79.02.54.04,1.12.32,1.59.28.47.89.8,1.38.56.15.31.31.62.46.93.17-.12.33-.24.5-.36.39.76.85,1.49,1.38,2.16.13-.22.19-.48.18-.74.19.65.37,1.3.56,1.95.08-.27.21-.53.38-.76.17.24.33.48.5.73.16-.09.16-.32.12-.5-.04-.18-.09-.39.03-.53.07-.09.23-.07.3,0-.05-.47.11-.97.43-1.32.22-.43.28-.94.17-1.41.11.58.31,1.15.58,1.67.2-.57.41-1.14.61-1.71.28.68.56,1.36.83,2.04.08.2.17.41.36.51.18.11.48.03.5-.18.2.36.48.68.8.93.18-.17.37-.35.55-.52-.28.27,1.9,1.04,2.07,1.07,1.51.23,1.54-.41,1.67-1.76.33.75.65,1.5.98,2.25.04.1.09.21.19.25.1.04.25-.03.23-.13.17.48.4.95.66,1.4.07-.79.22-1.58.45-2.34-.03.91.2,1.83.64,2.63-.02-.98.13-1.95.45-2.87.22.53.44,1.06.65,1.6.2-.22.4-.45.6-.67.09.29.26.57.52.73.46.28,1.09.09,1.47-.29.26-.26,1.67,1.07,1.96,1.08.09,0,.18-.02.26,0,.38.07.26.73.59.92.17-.69.3-1.38.38-2.08.22.68.43,1.37.84,1.96.39-.55.79-1.1,1.19-1.65.05.39.14.85.49,1.03.9.46.59.69,1.55-.03.51-.38,1.01-.8,1.46-1.2.09.19,1.07,1.93,1.01,2,.79-.78,1.59-1.57,2.38-2.35.34.53.68,1.06,1.02,1.6.43-.62.86-1.23,1.28-1.85,1.08.1,2.16.2,3.24.29.29-.5.59-1,.89-1.51-.22.49.74.56,1.13.18.39-.38,1.11-.8,1.33-.31.38-1.05.75-2.1,1.13-3.15.04.67.26,1.33.64,1.89.29-.31.58-.62.86-.93.78.72,1.5,1.51,2.29,2.22.12-.16.24-.31.37-.47.04.28.24.52.5.62.33-.42.66-.85.98-1.27.05.42.1.84.15,1.26.41-.73.8-1.47,1.17-2.22.06.53.11,1.06.17,1.6.01.12.04.26.14.32.14.08.3-.05.42-.17.53-.56,1.06-1.12,1.59-1.68,0,.36.09.72.28,1.02.1-.51.78-.81,1.23-.55.11.07.23.17.36.16.13,0,.24-.11.32-.22.82-.96,1.6-2,2.49-2.87-.07.5-.09,1.11.34,1.49.27-.32.55-.63.82-.95.03.25.25.47.5.5.25.03.52-.12.62-.35.09.27.48.33.72.19.24-.15.38-.42.5-.68.12-.26.26-.53.5-.68.03.32.15.63.35.88,0-.07,1.56-2.1,1.7-2.28.55.82.53,2.89,1.95,1.34.22.62.33,1.29.48,1.94.02.08.05.17.13.19.07.02.15-.04.2-.09.97-.87,3.4-.66,3.91-2.14-.17.5-.34,1-.52,1.5.78-.92,1.78-1.65,2.89-2.13-.14.57-.27,1.14-.41,1.71.57.07,1.03-.44,1.39-.89.36-.45.86-.93,1.42-.81.32.07.44.47.38.76.69-.49,1.39-.98,2.08-1.48-.18.48-.36.97-.54,1.45.58-.64,1.16-1.28,1.75-1.93-.17.19-.14,1.06-.15,1.32.65-.14,1.05-1.31,1.28-1.9.06.35.2.69.41.98.24-.31.38-.71.38-1.11.46-.12.83-.55.88-1.02-.04.16.06.35.22.41.13-.73.25-1.45.38-2.18-.1.66.14,1.36.63,1.82.06-.81.21-1.62.43-2.4.16.55.32,1.1.48,1.65.04.14.09.29.22.35.11.06.29-.04.28-.15.05.2.1.39.15.59.08-.07.13-.16.17-.26.03.06.1.12.17.09.12-.05.15-.2.17-.32.11-.82.23-1.63.34-2.45.26.38.51.76.76,1.14.09.13.2.27.36.25.15-.02.23-.17.28-.31.16-.38.31-.75.47-1.13.11.35.22.7.33,1.04.07-.39.33-.77.71-.85.38-.08.82.29.72.67,1.3-1.16,2.25-2.71,2.7-4.4.05.62.1,1.24.15,1.87.04-.41.08-.82.12-1.23.11.25.21.49.32.74.12-.29.46-.48.77-.43.2-.24.39-.49.58-.74-.06.25-.11.5-.17.75.18-.17.36-.35.54-.53-.17.35.35.7.7.55.35-.15.52-.56.63-.92.46-1.42,2.09-2.76,3.04-3.9-.08.68-.15,1.37-.23,2.05,1.26-1.61,2.52-3.23,3.77-4.84-.11.52-.21,1.03-.32,1.55.37-1.14.74-2.28,1.11-3.41.02,0,.05,0,.07,0,1.48.08,1.9-.94,2.41-1.91,0-.02.02-.04.03-.06-.06.15-.12.29-.18.43-.08.2-.16.39-.24.59.47-.07.94-.14,1.41-.22-.16.02-.73.89-.82,1.05,0,0,0,0,0,0-.13.16-.25.33-.38.49,0,.01-.02.02-.03.04.28.08.51.22.71.42.41.41.65,1.03.82,1.63.03.09.05.18.07.27.39,1.5.96,2.94,1.26,4.47-.17-.22-.4-.39-.66-.49Z"/></g><g id="G3L02T02_blanco"><path id="no" class="cls-23" d="m378.75,315.36h.79"/><path id="G3L02T02_blanco-2" class="cls-16" d="m412.71,352.71c.27.08.67.5.97.58-.52.97-.94,1.99-2.41,1.91-.02,0-.05,0-.07,0-.37,1.14-.74,2.28-1.11,3.41.11-.52.21-1.03.32-1.55-1.26,1.61-2.52,3.23-3.77,4.84.08-.68.15-1.37.23-2.05-.95,1.14-2.59,2.47-3.04,3.9-.12.37-.28.77-.63.92-.35.15-.87-.2-.7-.55-.18.18-.36.35-.54.53.06-.25.11-.5.17-.75-.19.24-.39.49-.58.74-.31-.05-.65.13-.77.43-.11-.25-.21-.49-.32-.74-.04.41-.08.82-.12,1.23-.05-.62-.1-1.24-.15-1.87-.45,1.69-1.4,3.23-2.7,4.4.1-.38-.34-.74-.72-.67-.39.08-.65.46-.71.85-.11-.35-.22-.7-.33-1.04-.16.38-.31.75-.47,1.13-.06.14-.14.29-.28.31-.15.02-.27-.13-.36-.25-.25-.38-.51-.76-.76-1.14-.11.81-.22,1.63-.34,2.45-.02.13-.05.28-.17.32-.07.03-.14-.03-.17-.09-.04.1-.09.19-.17.26-.05-.2-.1-.39-.15-.59.01.11-.16.21-.28.15-.13-.07-.18-.22-.22-.35-.16-.55-.32-1.1-.48-1.65-.22.78-.37,1.59-.43,2.4-.49-.46-.73-1.16-.63-1.82-.13.73-.25,1.45-.38,2.18-.15-.06-.25-.24-.22-.41-.05.48-.41.9-.88,1.02,0,.4-.13.8-.38,1.11-.21-.29-.35-.63-.41-.98-.23.59-.63,1.75-1.28,1.9.01-.26-.02-1.13.15-1.32-.58.64-1.16,1.28-1.75,1.93.18-.48.36-.97.54-1.45-.69.49-1.39.98-2.08,1.48.06-.29-.06-.69-.38-.76-.56-.12-1.06.36-1.42.81-.36.45-.82.95-1.39.89.13-.57.27-1.14.41-1.71-1.11.48-2.1,1.21-2.89,2.13.17-.5.34-1,.52-1.5-.51,1.48-2.94,1.27-3.91,2.14-.06.05-.13.11-.2.09-.08-.02-.11-.11-.13-.19-.15-.65-.26-1.32-.48-1.94-1.43,1.55-1.41-.52-1.95-1.34-.14.18-1.7,2.21-1.7,2.28-.2-.25-.32-.56-.35-.88-.25.14-.39.42-.5.68-.12.26-.26.54-.5.68-.24.15-.63.09-.72-.19-.1.24-.37.39-.62.35-.25-.03-.47-.25-.5-.5-.27.32-.55.63-.82.95-.43-.38-.4-.99-.34-1.49-.89.87-1.67,1.91-2.49,2.87-.09.1-.19.21-.32.22-.13,0-.24-.09-.36-.16-.45-.27-1.13.03-1.23.55-.19-.3-.29-.66-.28-1.02-.53.56-1.06,1.12-1.59,1.68-.11.12-.28.24-.42.17-.11-.06-.13-.2-.14-.32-.06-.53-.11-1.06-.17-1.6-.37.75-.76,1.49-1.17,2.22-.05-.42-.1-.84-.15-1.26-.33.42-.65.84-.98,1.27-.26-.09-.46-.34-.5-.62-.12.16-.24.31-.37.47-.8-.71-1.52-1.5-2.29-2.22-.29.31-.58.62-.86.93-.38-.56-.6-1.22-.64-1.89-.37,1.05-.75,2.1-1.13,3.15-.23-.49-.94-.06-1.33.31-.39.38-1.34.31-1.13-.18-.3.5-.59,1-.89,1.51-1.08-.1-2.16-.2-3.24-.29-.43.62-.86,1.23-1.28,1.85-.34-.53-.68-1.06-1.02-1.6-.79.78-1.59,1.57-2.38,2.35.07-.07-.92-1.81-1.01-2-.46.4-.95.82-1.46,1.2-.96.73-.65.49-1.55.03-.35-.18-.44-.64-.49-1.03-.4.55-.79,1.1-1.19,1.65-.4-.59-.62-1.28-.84-1.96-.09.7-.22,1.4-.38,2.08-.33-.19-.21-.86-.59-.92-.09-.01-.18.01-.26,0-.29-.01-1.7-1.34-1.96-1.08-.38.38-1.01.57-1.47.29-.26-.16-.43-.44-.52-.73-.2.22-.4.45-.6.67-.22-.53-.44-1.07-.65-1.6-.31.92-.46,1.9-.45,2.87-.44-.8-.67-1.71-.64-2.63-.23.76-.39,1.55-.45,2.34-.26-.44-.49-.91-.66-1.4.02.11-.13.18-.23.13-.1-.04-.15-.15-.19-.25-.33-.75-.65-1.5-.98-2.25-.13,1.35-.16,2-1.67,1.76-.17-.03-2.35-.8-2.07-1.07-.18.17-.37.35-.55.52-.33-.25-.6-.57-.8-.93-.02.21-.32.29-.5.18-.18-.11-.28-.32-.36-.51-.28-.68-.56-1.36-.83-2.04-.2.57-.41,1.14-.61,1.71-.27-.53-.47-1.09-.58-1.67.11.47.05.98-.17,1.41-.32.35-.48.85-.43,1.32-.07-.07-.23-.09-.3,0-.11.14-.07.35-.03.53.04.18.04.4-.12.5-.17-.24-.33-.49-.5-.73-.17.23-.3.49-.38.76-.19-.65-.37-1.3-.56-1.95.01.26-.05.52-.18.74-.53-.67-.99-1.4-1.38-2.16-.17.12-.33.24-.5.36-.15-.31-.31-.62-.46-.93-.5.24-1.11-.09-1.38-.56-.28-.47-.3-1.05-.32-1.59-.08.6-.16,1.19-.23,1.79-.66-.88-1.08-1.94-1.2-3.04,0,.31,0,.62,0,.93-.06-.2-.12-.39-.18-.59.05.78-.24,1.58-.78,2.15-.13-.17-.25-.35-.38-.52.04.31-.15.63-.44.75.12.16.08.41-.08.54,0-.01-1.77-2.05-1.81-1.44-.01.27-.13.53-.33.72-.44-.63-.86-1.28-1.24-1.94-.04.42-.24.83-.56,1.11-.44-.95-.88-1.9-1.31-2.84-.03.69-.06,1.37-.09,2.06-.14-.28-.29-.57-.43-.86-.03.24-.06.48-.09.71-.33-.35-.57-.77-.7-1.24-.13.18-.26.36-.39.54-.32-.59-.56-1.23-.71-1.88-.17.54-.33,1.08-.5,1.62-.56-.8-.94-1.74-1.08-2.7-.16.28-.32.57-.48.86-.3-.83-.6-1.67-.9-2.5-.03.7-.21,1.39-.52,2.02-.35-1.03-.71-2.05-1.06-3.08-.14.31-.33.59-.57.84-.22-.22-.38-.49-.47-.78-.02.23-.36.3-.55.17-.19-.13-.26-.38-.32-.6-.14.14-.28.28-.42.43-.16-.33-.33-.65-.49-.98-.01.38-.1.76-.26,1.11-.27-.56-.54-1.12-.81-1.68-.13.53-.26,1.06-.39,1.59-.25-.41-.42-.88-.48-1.36.06.59,0,1.2-.18,1.76-.13-.23-.26-.46-.38-.7.04.23,0,.48-.11.69-.61-.38-2.56-.91-2.85-1.23-.1-.11-.22-.2-.35-.26-.01.26-.03.51-.04.77-.49-.61-.93-1.27-1.3-1.97.03.59.13,1.18.29,1.75-.34-1.03-.77-2.02-1.28-2.98-.14.46-.18.95-.1,1.43-.17-.64-.43-1.26-.78-1.82-.1.48-.15.97-.13,1.45-.02-.6-1.35-1.45-1.7-1.94-.01.38-.02.76-.03,1.15-.54-.93-1.08-1.85-1.62-2.78,0,.38,0,.76,0,1.14-.24-.64-.48-1.28-.71-1.92-.05.81.08,1.64.39,2.39-.7-1.19-1.4-2.37-2.1-3.56.07.8.13,1.61.2,2.42-.27-1.17-.86-2.26-1.68-3.14-.1.61-.46,1.18-.97,1.53.38-1.2.15-2.57-.62-3.57-.24.6-.41,1.24-.51,1.88-.04-.79-.14-1.57-.31-2.34-.22.18-.29.52-.16.77-.39-.83-.24-2.44-1.07-2.93-.17.32-.25.74-.41,1.1-.02-.95-.13-1.9-.32-2.83-.05.36-.11.72-.16,1.08.07-.48-.33-1.3-.76-2.04-.06-.1-.12-.2-.18-.29.22-.23.5-.37.75-.62.26-.28.73-1.28.3-1.58-.39-.27-.93-.28-1.26-.6,1.72-1,2.67-2.6,3.41-4.34.41-.97.75-1.98,1.12-2.95.01-.04.03-.07.04-.11.75-1.71,1.32-3.37,1.31-5.23-.58-.04-1.21-.13-1.75-.37.76-.84,1.46-1.72,2.1-2.66-.46.27-1.12.14-1.45-.28,1.5-.99,2.75-2.36,3.6-3.94-.27,0-.54,0-.81-.01.2-.31.4-.62.6-.93.71-1.11,1.42-2.22,2.14-3.32.36-.55.71-1.11,1.06-1.66-.12-.17-.23-.33-.35-.5.15-.29.3-.59.45-.88-.42-.02-.82-.25-1.05-.6,1.93-1.05,14.22-10.39,11-13.34,1.39-.89,2.73-1.8,3.9-2.99-.38-.26-.77-.52-1.15-.77.99-1.26,2.28-2.29,3.73-2.98-.93-.37-1.81-.89-2.58-1.53,1.8-.85,3.61-1.71,5.42-2.56-.34-.77.82-1.28,1.66-1.33-.66-.17-1.18-.79-1.24-1.47,1.82.3,3.78-.34,5.06-1.67-.59-.07-1.1-.57-1.17-1.16,2.47-.09,5.21-1.56,7.35-2.77,2.63-1.49,5.49-2.85,8.03-4.45.13-.09.28-.18.32-.34.02-.09.01-.18-.02-.26-.05-.12-.15-.23-.24-.33-.45-.47-.9-.93-1.33-1.42.49.22,4.81.39,4.26-.11-.49-.46-.97-.91-1.46-1.36.96.27,1.98.34,2.98.2-.6-.73-1.05-1.57-1.33-2.47,1.48.81,3.27,1.56,4.97,1.73.95.09,2.76-.66,3.5-.45-1.1-.3-1.96-1.33-2.07-2.46,1.26.85,2.7,1.43,4.19,1.72-.63-1.08-1.04-2.29-1.2-3.53,1.28,1.17,2.91,1.97,4.62,2.27-.66-.91-.78-2.18-.32-3.2,1.6,2.39,4.39,3.5,7.32,4.1,2.19.45,4.45.63,6.36.84.02,0,.03,0,.04,0,3.12.45,6.26.9,9.31,1.73,2.47.67,5.26,2.42,7.84,2.4-.07,0-1.22,1.45-2.37,1.31,2.23.28,4.37.87,6.25,2.2.6.43,1.14.93,1.67,1.44,0,0,0,0,.01.01.42.36.81.73,1.18,1.09.81.69,1.71,1.27,2.88,1.47-.35.48-.93.74-1.52.76,1.91,1.33,3.28,3.3,4.88,4.95,1.95,2.01,4.3,3.36,6.94,4.39-.8.23-1.59.45-2.38.67.82.38,1.65.76,2.48,1.15-.41.09-.13.72.22.94.85.56,1.8.96,2.79,1.2-.41.29-.77.65-1.05,1.07,1.13.6,2.27,1.2,3.41,1.8-.68.07-1.35.3-1.93.68,1.01.85,2.08,1.63,3.2,2.33-.42.18-.85.37-1.27.55,1.3,1.03,2.6,2.06,3.91,3.1-.53.19-1.11.24-1.67.16.64,1.89,2.11,3.04,3.07,4.72l.05.08c2.33,3.99,4.2,7.43,8.5,9.65-.68.11-1.37.23-2.05.34.3.42.61.85.92,1.27-.11,1.75,1.37,3.45,3.12,3.58-.44.13-.89.26-1.33.4.48.2.98.44,1.21.89.24.46,0,1.16-.51,1.19.72.48,1.36,1.08,1.89,1.76-.7-.1-1.43.4-1.59,1.09-.27,1.12,1.67,3.97,2.17,4.99,1.16,2.34,2.52,4.57,4.23,6.55-.41-.48-.97,2.83-.97,2.84Z"/></g><g id="G04L03T02_negro"><circle class="cls-18" cx="313.87" cy="339.51" r="12.17"/><circle class="cls-20" cx="315.4" cy="340.41" r="9.69"/><circle class="cls-30" cx="315.4" cy="340.41" r="8.95"/><circle class="cls-2" cx="313.2" cy="337.38" r="2.12"/></g><g id="G05L04T02_negro"><circle class="cls-18" cx="366.79" cy="339.51" r="12.17"/><circle class="cls-20" cx="365.44" cy="340.41" r="9.69"/><circle class="cls-30" cx="365.44" cy="340.41" r="8.89"/><circle class="cls-2" cx="363.02" cy="337.38" r="2.12"/></g><g id="G06L05T02_picoloro"><g id="rubor"><circle id="rubor_D" class="cls-13" cx="385.25" cy="356.35" r="8.62"/><circle id="rubor_I" class="cls-13" cx="295.94" cy="356.35" r="8.62"/></g><path class="cls-18" d="m358.68,356.57c4.71,9.54,1.31,24.02-18.36,24.02s-22.14-13.99-18.32-24.02c1.66-4.36,6.79-.22,18.36-.22s16.25-3.98,18.32.22Z"/><path class="cls-30" d="m358.6,356.4c1.96,6.38-2.2,24.19-18.26,24.19s-19.86-17.26-18.28-24.3c1-4.46,8.86.01,18.31.01s16.89-4.24,18.22.1Z"/><path class="cls-29" d="m358.68,357.85c0,.16,0,.32-.02.47v.02c0,.14-.03.29-.05.43,0,.02,0,.03,0,.05h0c-.02.18-.06.37-.11.58-.93,3.91-5.98,12.6-9.25,17.46-5.49,8.16-5.69,15.05-7.73,16.83-.1.09-.21.16-.32.22-.22.12-.46.2-.72.21,0,0-.01,0-.02,0-.04,0-.08,0-.12,0-.04,0-.09,0-.14,0-.03,0-.07,0-.1-.01-.02,0-.03,0-.05,0-.01,0-.02,0-.03,0-.08-.02-.16-.04-.23-.07-2.33-.95-1.88-8.26-8.13-16.84-3.75-5.16-8.57-13.81-9.48-17.79-.05-.22-.09-.42-.11-.6-.04-.31-.07-.63-.07-.95,0-.36-.03-.74,0-1.11.01-.15.04-.3.08-.44,1.06-3.8,2.53-7.31,4.63-10.13.83-1.12,1.76-2.13,2.81-3,1.47-1.23,3.16-2.83,5.11-4.06,1.7-1.07,3.59-1.85,5.71-1.85s4.04.77,5.72,1.83c1.99,1.25,3.67,2.92,5.12,4.19.95.83,1.8,1.79,2.56,2.84,2.1,2.86,3.59,6.44,4.86,10.29.04.12.07.24.08.37.04.36,0,.72,0,1.07Z"/><path class="cls-27" d="m328.58,346.33c2.97-2.29,6.8-5.91,11.75-5.91s8.87,3.67,11.78,6.02c2.27,1.84,4,4.24,5.44,6.99-1.56-4.06-3.51-7.64-6.37-10.16-2.68-2.36-6.15-6.02-10.85-6.02s-8.08,3.61-10.82,5.91c-2.88,2.41-4.9,5.85-6.35,9.76,1.4-2.59,3.17-4.86,5.42-6.59Z"/><path class="cls-9" d="m358.68,357.85c0,.16,0,.32-.02.47v.02c0,.14-.03.29-.05.43,0,.02,0,.03,0,.05h0c-.02.18-.06.37-.11.58-.93,3.91-5.98,12.6-9.25,17.46-5.49,8.16-5.69,15.05-7.73,16.83-.1.09-.21.16-.32.22-.26.12-.5.19-.72.21,0,0-.01,0-.02,0-.04,0-.08,0-.12,0-.04,0-.09,0-.14,0h-.01s-.07,0-.11-.01c0,0-.02,0-.03,0s-.02,0-.03,0c-.08-.02-.16-.04-.23-.07-2.33-.95-1.88-8.26-8.13-16.84-3.75-5.16-8.57-13.81-9.48-17.79-.05-.22-.09-.42-.11-.6-.04-.31-.07-.63-.07-.95,0-.36-.03-.74,0-1.11.01-.15.04-.3.08-.44,1.06-3.8,2.53-7.31,4.63-10.13.83-1.12,1.76-2.13,2.81-3,1.47-1.23,3.16-2.83,5.11-4.06.22,11.44,3.32,51.62,5.76,51.62,2.56,0,5.47-40.22,5.68-51.63,1.99,1.25,3.67,2.92,5.12,4.19.95.83,1.8,1.79,2.56,2.84,2.1,2.86,3.59,6.44,4.86,10.29.04.12.07.24.08.37.04.36,0,.72,0,1.07Z"/><g><ellipse class="cls-11" cx="333.35" cy="342.77" rx="3.17" ry="1.2" transform="translate(-144.74 336.11) rotate(-45)"/><ellipse class="cls-11" cx="347.38" cy="342.77" rx="1.2" ry="3.17" transform="translate(-140.63 346.03) rotate(-45)"/><path class="cls-3" d="m334.19,343.62c-1.24,1.24-2.61,1.86-3.08,1.39-.2-.2-.2-.58-.03-1.04,0,.02.02.03.03.04.47.47,1.85-.16,3.08-1.39.7-.7,1.2-1.45,1.42-2.05.4.5-.22,1.84-1.42,3.05Z"/><path class="cls-3" d="m349.62,345.01c-.47.47-1.85-.16-3.08-1.39-1.2-1.2-1.82-2.55-1.42-3.05.22.6.72,1.35,1.42,2.05,1.24,1.24,2.62,1.86,3.08,1.39.01-.01.02-.02.03-.04.17.46.17.84-.03,1.04Z"/></g></g><g id="G10L06T02_gris"><path class="cls-24" d="m326.3,442.85c-.07.3-.13.61-.21.91-.03.14-.07.28-.1.42-.04.2-.09.39-.14.59-.03.11-.06.23-.09.34-.15.6-.3,1.19-.46,1.79-.08.3-.16.6-.25.89-.08.3-.17.59-.25.89-.07.25-.15.5-.22.75-.11.37-.22.74-.34,1.11-.07.25-.15.5-.23.74,0,.02,0,.03-.01.04-.09.29-.19.59-.28.88-.01.04-.02.08-.04.12-.08.25-.16.51-.24.76-.06.18-.12.36-.17.53-.09.26-.17.52-.26.78-.23.7-.47,1.39-.71,2.09-.05.15-.1.29-.15.44-.07.2-.14.4-.2.6-.09.26-.18.52-.27.78-.15.43-.3.86-.45,1.29-1.03,2.98-2.07,5.97-2.99,8.98-.82,2.68-3.53,4.44-6.48,4.44-.59,0-1.19-.07-1.78-.22-1.32-.33-2.49-1.01-3.37-1.94-1.06-1.12-1.12-2.34-1.46-3.74-.05-.22-.11-.45-.17-.67-1.25-4.92-3.25-9.5-6.62-13.61-.7-.86-1.44-1.68-2.22-2.49-3.5-3.66-7.63-6.84-11.79-9.87-2.88-2.1-3.32-5.9-.98-8.49.33-.37.7-.69,1.1-.96.13-.09.25-.17.39-.25,2.39-1.43,5.63-1.37,7.97.34,1.15.84,2.3,1.69,3.44,2.56.07.06.15.11.22.17.51.39,1.02.78,1.52,1.19,0,0,0,0,.01,0,.58.46,1.16.93,1.74,1.41.26.22.52.43.79.66.03.03.07.05.1.08.03.02.06.05.09.07,0-.04-.02-.08-.03-.12-.94-3.84-2.21-7.57-4-11.19-1.51-3.05.01-6.62,3.41-7.97,1.03-.41,2.11-.57,3.16-.51,2.41.14,4.67,1.44,5.72,3.57,2.31,4.65,3.87,9.37,4.99,14.1.02-.22.04-.43.07-.65.22-2.31.25-4.62.03-6.94-.32-3.32,2.43-6.25,6.13-6.53,1.21-.09,2.37.11,3.39.53,1.16.48,2.15,1.25,2.84,2.22.57.8.94,1.73,1.04,2.75.54,5.64-.04,11.06-1.19,16.32Z"/><g><path class="cls-29" d="m326.3,442.84c-.07.3-.13.61-.21.91-.03.14-.07.28-.1.42-.04.2-.09.39-.14.59-.03.11-.06.23-.09.34-.15.6-.3,1.19-.46,1.79-.08.3-.16.59-.25.89-.08.3-.17.59-.25.89-.07.25-.15.5-.22.75-.11.37-.22.74-.34,1.11-.07.25-.15.49-.23.74,0,.02,0,.03-.01.05-.09.29-.19.59-.28.88-.01.04-.02.08-.04.12-.08.25-.16.51-.24.76-.06.18-.12.36-.17.53-.09.26-.17.52-.26.78-.23.7-.47,1.39-.71,2.09-.05.14-.1.29-.15.44-.07.2-.14.4-.2.6-.09.26-.18.52-.27.78-.15.43-.3.86-.45,1.29-1.03,2.98-2.07,5.97-2.99,8.98-.82,2.68-3.53,4.44-6.48,4.44-.59,0-1.19-.07-1.78-.22-1.32-.32-2.49-1.01-3.37-1.94-1.06-1.12-1.12-2.34-1.46-3.74-.05-.22-.11-.45-.17-.67-1.25-4.92-3.25-9.5-6.62-13.61-.7-.86-1.44-1.68-2.22-2.49.67.29,1.36.56,1.89.91,1.08.73,2.18,1.59,3,2.56,1.13,1.32,2.09,2.86,2.92,4.38.37-.63.9-1.17,1.51-1.56-.23.78-.35,1.6-.35,2.41.26-.27.59-.47.95-.57-.31.71-.42,1.5-.33,2.27.07-.22.26-.4.48-.46-.48.13.15,2.67.27,2.99.4,1.14,1.06,2.19,1.77,3.16,1.17,1.6,3.19,2.72,5.33,2.07,2.7-.82,4.47-4.24,2.63-6.65.5.18,1.05.19,1.56.04-.53-.25-.96-.69-1.2-1.22.47.24,1.02.32,1.54.22-.45-.41-.8-.94-.99-1.52.29.21.6.43.95.46,1.59.12,2.77-2.86,3.15-4.01.51-1.55.79-3.16,1.26-4.72,1.15-3.83,3.86-8.47.83-12.04.36-.01.73.06,1.06.2-.19-.4-.37-.81-.56-1.21.4.07.79.14,1.19.2-.56-.95-1.56-1.53-2.15-2.39.24.34,1.83.39,2.22.42.6.05.57.2.94-.26,1-1.24.17-4.8.05-6.2-.17-2.12-.89-3.33-3.12-3.55.82-.71,1.87-.66,2.11-1.87.19-.95-.69-2.32-1.4-2.84,1.09.47,2.07,1.22,2.77,2.19.57.8.94,1.73,1.04,2.75.54,5.64-.04,11.05-1.19,16.32Z"/><path class="cls-29" d="m314.19,435.8c-1.62-3.35-2.76-6.89-4.38-10.24-.39-.8-.82-1.87-1.41-2.55-.25-.29-2.04-1.35-2.35-.75.23-.44.61-.79,1.06-.99-.56-.27-1.19-.39-1.81-.33.48-.29,1.03-.6,1.57-.71-.2-.12-1.04-.73-1.26-.65.23-.08.46-.16.69-.23-.8-.88-2-1.28-3-1.89,2.41.14,4.67,1.44,5.72,3.57,2.31,4.65,3.87,9.37,4.99,14.11.02-.21.04-.43.07-.65.04.44.09.88.13,1.31Z"/><path class="cls-29" d="m301.02,437.65c-.47-.19-.72-.63-1.19-.83-.42-.17-.93-.06-1.24.26.02-.33.07-.65.16-.96-.22-.07-.45-.1-.69-.09.08-.14.24-.24.41-.22-.52-.03-1.01-.59-1.55-.72-1.09-.26-2.24-.51-3.3-.16.26-.25.51-.5.77-.74-.87-.39-3.18-.08-3.8.76.5-.69,1.1-1.28,1.7-1.87-.71.05-2.32.11-2.87.61.67-.59,1.45-1.06,2.3-1.36-2.02-.84-3.75-1.49-6.02-1.4-.41.02-.82.04-1.22.09.13-.09.25-.17.39-.25,2.39-1.43,5.63-1.37,7.97.34,1.15.84,2.3,1.69,3.44,2.56.07.06.15.11.22.17.5.4.99.83,1.52,1.19,0,0,0,0,.01,0,.58.46,1.16.93,1.74,1.41.26.22.52.43.79.66.03.03.07.05.1.08.03.02.06.05.09.07,0-.04-.02-.08-.03-.12.12.16.22.33.3.51Z"/></g></g><g id="G11L07T02_gris"><path class="cls-24" d="m396.03,440.47c-4.16,3.03-8.29,6.21-11.79,9.87-.77.8-1.51,1.63-2.22,2.49-3.38,4.11-5.38,8.68-6.62,13.61-.06.22-.11.45-.17.67-.33,1.4-.39,2.62-1.46,3.74-.88.93-2.05,1.61-3.37,1.94-.59.15-1.19.22-1.78.22-2.95,0-5.66-1.76-6.48-4.44-.92-3.01-1.96-6-2.99-8.98-.15-.43-.3-.86-.45-1.29-.09-.26-.18-.52-.27-.78-.07-.2-.14-.4-.2-.6-.05-.15-.1-.29-.15-.44-.24-.69-.48-1.39-.71-2.09-.09-.26-.17-.52-.26-.78-.06-.18-.12-.35-.17-.53-.08-.25-.16-.5-.24-.76-.01-.04-.03-.08-.04-.12-.09-.29-.19-.59-.28-.88,0-.02,0-.03-.01-.04-.08-.25-.15-.5-.23-.74-.12-.37-.23-.74-.34-1.11-.07-.25-.15-.5-.22-.75-.09-.3-.17-.59-.25-.89-.08-.3-.17-.59-.25-.89-.16-.59-.32-1.19-.46-1.79-.03-.11-.06-.23-.09-.34-.05-.19-.1-.39-.14-.59-.03-.14-.07-.28-.1-.42-.07-.3-.14-.61-.21-.91-1.15-5.27-1.73-10.68-1.19-16.32.1-1.01.47-1.95,1.04-2.75.69-.97,1.68-1.74,2.84-2.22,1.03-.43,2.19-.63,3.39-.53,3.7.28,6.44,3.21,6.13,6.53-.22,2.32-.19,4.62.03,6.93h0c.02.22.04.44.07.66.11-.48.24-.97.36-1.45.01-.04.02-.09.04-.13.05-.18.09-.37.15-.55.01-.06.03-.11.04-.17.05-.2.11-.4.16-.6.04-.15.08-.29.12-.44l.12-.42c.05-.17.1-.35.16-.53.03-.09.05-.18.08-.27.07-.23.14-.46.21-.68.01-.04.02-.07.03-.11.09-.28.18-.56.28-.85.1-.3.2-.59.3-.88.1-.29.21-.59.31-.88.09-.24.18-.48.27-.72.08-.21.16-.43.24-.64.07-.19.15-.39.23-.58.11-.29.23-.57.35-.85.1-.24.21-.48.31-.73.13-.29.26-.59.39-.88.13-.29.27-.58.41-.87s.28-.58.42-.87c1.05-2.13,3.31-3.43,5.72-3.57,1.05-.06,2.13.1,3.16.51,3.39,1.36,4.92,4.93,3.41,7.97-1.81,3.65-3.08,7.41-4.03,11.28,0,0,0,.02,0,.03.03-.03.06-.05.09-.07.03-.03.06-.06.1-.08.26-.22.52-.44.79-.66,1.01-.83,2.02-1.64,3.02-2.41.07-.05.13-.1.2-.15.3-.24.61-.47.92-.7.46-.35.93-.7,1.4-1.05.47-.35.93-.69,1.4-1.03,2.34-1.71,5.59-1.77,7.97-.34.11.07.22.14.33.22.02.01.04.02.06.04.4.28.77.6,1.1.96,2.34,2.59,1.9,6.39-.98,8.49Z"/><g><path class="cls-29" d="m354.08,442.84c.07.3.13.61.21.91.03.14.07.28.1.42.04.2.09.39.14.59.03.11.06.23.09.34.15.6.3,1.19.46,1.79.08.3.16.59.25.89.08.3.17.59.25.89.07.25.15.5.22.75.11.37.22.74.34,1.11.07.25.15.49.23.74,0,.02,0,.03.01.05.09.29.19.59.28.88.01.04.02.08.04.12.08.25.16.51.24.76.06.18.12.36.17.53.09.26.17.52.26.78.23.7.47,1.39.71,2.09.05.14.1.29.15.44.07.2.14.4.2.6.09.26.18.52.27.78.15.43.3.86.45,1.29,1.03,2.98,2.07,5.97,2.99,8.98.82,2.68,3.53,4.44,6.48,4.44.59,0,1.19-.07,1.78-.22,1.32-.32,2.49-1.01,3.37-1.94,1.06-1.12,1.12-2.34,1.46-3.74.05-.22.11-.45.17-.67,1.25-4.92,3.25-9.5,6.62-13.61.56-.68,1.13-1.39,1.79-1.97-1.13.98-2.43,1.61-3.44,2.73-.18.2-1.65,2.16-1.92,1.9-.11-.11,0-.37-.15-.4-.09.49-.34,1.32-.77,1.59-.11-.16-.75-1.19-.73-1.35-.02.19-.55,2.48-.49,2.52-.41-.25-.77-.59-1.05-.97.05.57.09,1.14.14,1.71-.44-.29-.88-.58-1.32-.87,2.01,3.09-.06,6.13-1.95,8.72-1.17,1.6-3.19,2.72-5.33,2.07-2.52-.77-3.32-3.5-4.29-5.46-.96-1.95-.49-3.41,1.16-4.95-.9.13-1.73.63-2.28,1.35-.02-1.27.65-2.53,1.72-3.23-1.13,0-2.24.51-2.96,1.38-1.15-1.03-1.22-3.22-1.67-4.64-.64-1.98-1.21-3.98-1.73-5.99-.6-2.33-1.92-5.52-1.85-7.91.05-1.5.86-2.81,2.06-3.68-.84-.06-1.55.41-2.24.84.35-1.2,1.38-2.17,2.59-2.46l-3.23.05c-.09,0-.2,0-.27-.07-.09-.09-.07-.24-.04-.36.39-1.54,1.59-2.86,3.09-3.4-1.12.4-2.37-.12-3.07,1.11.09-2.53.26-4.99,1.47-7.26.31-.59.9-2.04,1.53-2.3-1.16.48-2.15,1.25-2.84,2.22-.57.8-.94,1.73-1.04,2.75-.54,5.64.04,11.05,1.19,16.32Z"/><path class="cls-29" d="m372.37,423.31c.36.2.72.46.88.5-.81.11-1.6.33-2.35.68.91-.08,1.83-.03,2.73.17-.76.29-1.65.82-2.42,1.01.98-.28,2.04-.29,3.03-.04-2.78.54-4.26,1.32-5.53,3.88-.64,1.29-1.24,2.6-1.75,3.95-.12.31-.22.63-.32.95-.07.23-.14.47-.2.7-.01.05-.05.11-.05.17.03-.25.09-.48.15-.73.07-.29.14-.58.22-.87.01-.04.02-.09.04-.13.05-.18.09-.37.15-.55.01-.06.03-.11.04-.17.05-.2.11-.4.16-.6.04-.15.08-.29.12-.44l.12-.42c.02-.08.05-.16.07-.24.03-.1.06-.2.09-.29.03-.09.05-.18.08-.27.07-.23.14-.46.21-.68.01-.04.02-.07.03-.11.09-.28.18-.56.28-.85.1-.3.2-.59.3-.88.03-.1.07-.2.1-.3.07-.19.14-.39.21-.58.09-.24.18-.48.27-.72.08-.21.16-.43.24-.64.07-.19.15-.39.23-.58.11-.29.23-.57.35-.85.1-.24.21-.48.31-.73.13-.29.26-.59.39-.88.13-.29.27-.58.41-.87s.28-.58.42-.87c1.05-2.12,3.31-3.43,5.72-3.57-1.6.09-3.37,2.09-4.23,3.28,1.18-.06,1.62.57,2.56,1.14-.64,0-1.32.04-1.96.15-.78.13-1.51.54-2.02,1.14.17-.2.55-.06.92.14Z"/><path class="cls-29" d="m385.89,434.07c-1.5.27-2.82,1.18-4.11,1.95-.67.4-1.36.71-1.98,1.19-.05.04-.21.12-.24.18.06-.1.16-.21.25-.29.26-.22.52-.44.79-.66,1.01-.83,2.02-1.64,3.02-2.41.07-.05.13-.1.2-.15.3-.24.61-.47.92-.7.46-.35.93-.7,1.4-1.05.47-.35.93-.69,1.4-1.03,2.34-1.71,5.59-1.77,7.97-.34.11.07.22.14.33.22-.63-.38-1.55-.28-2.25-.19-.41.05-.84.12-1.25.19-.19.03-1.02.39-1.14.33.25.14.45.35.59.6-.33-.03-.66.02-.96.15.43.19.91.41,1.09.84-.45-.1-1.59-.49-2.02-.29-.34.16-.24,1.07-.04,1.34-.39-.53-1.11-.79-1.75-.62.24.74.48,1.47.72,2.21-.05-.15-.25-.32-.35-.43-.13-.13-.27-.25-.42-.36-.29-.22-.62-.38-.96-.5-.43-.15-.77-.27-1.23-.18Z"/></g></g><g id="G12L08T02_azul"><path class="cls-16" d="m282.75,410.15c-1.05.57-2.38.61-3.33,1.39-.25.2-.45.43-.62.68-.52.75-.79,1.65-1.4,2.37-4.66,5.44-10.78,1.85-15.88-.35-2.5-1.08-5.06-2.18-7-3.93-3.55-3.2-5.67-7.53-6.26-12.25-.27-2.12-.25-4.32-.03-6.44.23-2.13,1.83-4.8,1.81-6.76,0,.57-.59,1.06-1.14.94.94-1.77,2.12-3.42,3.48-4.89.16.14-.24,0-.15-.2.32-.69.74-1.34,1.25-1.92l-1.82,1.28c1.44-2.73,3.19-5.3,5.2-7.64l-.9.73c1.17-1.96,2.69-3.72,4.46-5.17-.69.42-1.47.67-2.27.73,1.15-.08,3.07-1.9,3.14-3.08-1.23-.06-2.48.21-3.58.77,1.78-1.51,3.78-2.75,5.91-3.68l-1.09-.08c.66.05,2.33-1.93,3.57-1.98.94-.04,2.38.55,3.1,1.03-.76.47-1.4,1.66-.52,2.38.53-.15,1.08-.3,1.61-.18s1.03.6.97,1.14c1.36-.44,2.94-.16,4.07.72-.33-.05-.68.24-.68.58,0-.11,3.53,2.11,3.95,2.49,1.54,1.4,2.87,3.05,4.16,4.68-1.13-.69-2.4-1.16-3.71-1.35,1.6.52,3.04,1.52,4.09,2.82.1.13-.24.23-.23.07,1.12,1.06,2.24,2.12,3.36,3.18-.26-.33-.52-.65-.78-.98.51,1.05.94,2.15,1.27,3.28h-1.15c2.32-.01,3.73,6.13,3.96,7.74.39,2.78.68,5.54.48,8.35-.39,5.33-2.35,10.85-7.29,13.54Z"/><path class="cls-6" d="m288.92,385.27c-.13-.51-.27-1.01-.42-1.5,1.11,3.62,1.02,9.2-.38,12.75-.16.4-.77.8-.92.39.19.88.25,1.78.16,2.68-.24-.34-.48-.68-.71-1.02-.12.89-.24,1.77-.35,2.66-.17-.2-.35-.41-.52-.61-.48.87-.75,1.86-.78,2.85l-.88-.49c-.21.83-.65,1.6-1.26,2.2-.15-.57-.3-1.14-.45-1.71-.38.42-.5,1.01-.63,1.57s-.32,1.15-.79,1.47-1.28.18-1.39-.38c-.14.4-.29.8-.43,1.19-.55-.74-1.11-1.48-1.66-2.23-.25.92-.5,1.84-.75,2.75-.42-.23-.78-.56-1.04-.96-.39.56-.23,1.32-.03,1.98s.43,1.38.14,1.99-1.37.8-1.59.15c-.5,3.36-3.86,2.84-5.96,1.7-1-.54-2.41-.95-3.39-1.86.12.08,0,.29-.14.29s-.26-.12-.35-.23c-1.17-1.41-2.16-2.96-2.96-4.6-.05,1.07.07,2.15.35,3.19-.52.16-.93-.43-1.26-.86s-1.15-.7-1.31-.18c-.36-.23-.73-.45-1.09-.68-.02.46-.77.4-1.08.06s-.53-.87-.99-.92c-.22-.03-.44.07-.65.04-.43-.05-.68-.5-.85-.9-.53-1.21-1.07-2.41-1.6-3.62-.29.57-.48,1.19-.57,1.83-2.62-2.03-4.45-8.31-4.19-11.53-.51,6.54,1.14,12.87,6.36,17.57,1.94,1.74,4.5,2.85,7,3.93,5.11,2.2,11.22,5.79,15.88.35.61-.71.88-1.62,1.4-2.37.17-.25.37-.48.62-.68.95-.77,2.28-.81,3.33-1.39,8.48-4.61,8.21-17,6.17-24.89Z"/></g><g id="G13L09T02_azul"><path class="cls-16" d="m398.2,410.15c1.05.57,2.38.61,3.33,1.39.25.2.45.43.62.68.52.75.79,1.65,1.4,2.37,4.66,5.44,10.78,1.85,15.88-.35,2.5-1.08,5.06-2.18,7-3.93,3.55-3.2,5.67-7.53,6.26-12.25.27-2.12.25-4.32.03-6.44s-1.83-4.8-1.81-6.76c0,.57.59,1.06,1.14.94-.94-1.77-2.12-3.42-3.48-4.89-.16.14.24,0,.15-.2-.32-.69-.74-1.34-1.25-1.92l1.82,1.28c-1.44-2.73-3.19-5.3-5.2-7.64l.9.73c-1.17-1.96-2.69-3.72-4.46-5.17.69.42,1.47.67,2.27.73-1.15-.08-3.07-1.9-3.14-3.08,1.23-.06,2.48.21,3.58.77-1.78-1.51-3.78-2.75-5.91-3.68l1.09-.08c-.66.05-2.33-1.93-3.57-1.98-.94-.04-2.38.55-3.1,1.03.76.47,1.4,1.66.52,2.38-.53-.15-1.08-.3-1.61-.18s-1.03.6-.97,1.14c-1.36-.44-2.94-.16-4.07.72.33-.05.68.24.68.58,0-.11-3.53,2.11-3.95,2.49-1.54,1.4-2.87,3.05-4.16,4.68,1.13-.69,2.4-1.16,3.71-1.35-1.6.52-3.04,1.52-4.09,2.82-.1.13.24.23.23.07-1.12,1.06-2.24,2.12-3.36,3.18.26-.33.52-.65.78-.98-.51,1.05-.94,2.15-1.27,3.28h1.15c-2.32-.01-3.73,6.13-3.96,7.74-.39,2.78-.68,5.54-.48,8.35.39,5.33,2.35,10.85,7.29,13.54Z"/><path class="cls-6" d="m392.03,385.27c.13-.51.27-1.01.42-1.5-1.11,3.62-1.02,9.2.38,12.75.16.4.77.8.92.39-.19.88-.25,1.78-.16,2.68.24-.34.48-.68.71-1.02.12.89.24,1.77.35,2.66.17-.2.35-.41.52-.61.48.87.75,1.86.78,2.85l.88-.49c.21.83.65,1.6,1.26,2.2.15-.57.3-1.14.45-1.71.38.42.5,1.01.63,1.57s.32,1.15.79,1.47,1.28.18,1.39-.38c.14.4.29.8.43,1.19.55-.74,1.11-1.48,1.66-2.23.25.92.5,1.84.75,2.75.42-.23.78-.56,1.04-.96.39.56.23,1.32.03,1.98s-.43,1.38-.14,1.99,1.37.8,1.59.15c.5,3.36,3.86,2.84,5.96,1.7,1-.54,2.41-.95,3.39-1.86-.12.08,0,.29.14.29s.26-.12.35-.23c1.17-1.41,2.16-2.96,2.96-4.6.05,1.07-.07,2.15-.35,3.19.52.16.93-.43,1.26-.86s1.15-.7,1.31-.18c.36-.23.73-.45,1.09-.68.02.46.77.4,1.08.06s.53-.87.99-.92c.22-.03.44.07.65.04.43-.05.68-.5.85-.9.53-1.21,1.07-2.41,1.6-3.62.29.57.48,1.19.57,1.83,2.62-2.03,4.45-8.31,4.19-11.53.51,6.54-1.14,12.87-6.36,17.57-1.94,1.74-4.5,2.85-7,3.93-5.11,2.2-11.22,5.79-15.88.35-.61-.71-.88-1.62-1.4-2.37-.17-.25-.37-.48-.62-.68-.95-.77-2.28-.81-3.33-1.39-8.48-4.61-8.21-17-6.17-24.89Z"/></g></g><g><path class="cls-19" d="m225.05,393.02c0,.41,0,.82,0,1.23-.03,1.94-.12,3.86-.26,5.76-.25,3.14-.66,6.24-1.23,9.27h0c-.59,3.13-1.34,6.19-2.25,9.18-.91,3.01-1.99,5.94-3.21,8.78-1.19,2.77-2.52,5.45-3.98,8.03h0c-.19.34-.39.68-.59,1.02-2.65,4.54-5.71,8.77-9.11,12.63,0,0,0,0,0,0-.89,1.01-1.81,1.99-2.74,2.95-1.61,1.65-3.29,3.21-5.03,4.69-1.02.87-2.07,1.71-3.13,2.53,0,0,0,0,0,0-1.91,1.46-3.89,2.82-5.93,4.07-3.01,1.85-6.14,3.49-9.39,4.87,0,0,0,0,0,0-1.17.5-2.36.97-3.56,1.4-2.59.94-5.25,1.72-7.96,2.34-.09.02-.18.04-.27.06-1.38.3-2.83.57-4.38.83,0,0,0,0,0,0-.08.01-.16.03-.23.04,0,0-.02,0-.03,0-.14.02-.27.04-.41.06,0,0-.01,0-.02,0-.9.13-1.8.25-2.71.34-.08,0-.17.02-.26.03-.03,0-.06,0-.1,0-.04,0-.09,0-.14.01-.14.01-.29.03-.46.04-.04,0-.08,0-.12.01-.1,0-.2.02-.31.03-.51.04-1.02.08-1.53.11-.04,0-.07,0-.11,0-.06,0-.11,0-.16,0-.01,0-.02,0-.03,0-.07,0-.14,0-.22.01-.04,0-.09,0-.14,0-.18.01-.37.02-.55.03-.05,0-.11,0-.17,0-.02,0-.05,0-.07,0-.05,0-.1,0-.14,0-.08,0-.16,0-.24,0-.06,0-.12,0-.18,0-.03,0-.05,0-.08,0-.04,0-.09,0-.13,0-.01,0-.02,0-.03,0-.03,0-.07,0-.1,0-.2,0-.39,0-.59.01-.04,0-.07,0-.11,0-.04,0-.09,0-.14,0h-.02c-.14,0-.3,0-.5,0-.08,0-.15,0-.22,0-.12,0-.24,0-.38,0-.56,0-1.12,0-1.68-.02-.02,0-.04,0-.06,0-.04,0-.08,0-.11,0,0,0-.01,0-.02,0-.03,0-.06,0-.09,0h-.19c-.08,0-.16-.01-.23-.02-.05,0-.11,0-.16,0-.06,0-.12,0-.18,0-.02,0-.03,0-.05,0-.1,0-.2,0-.31-.01-.29-.01-.58-.03-.87-.05-.21-.01-.4-.02-.56-.04-.04,0-.08,0-.11,0-.26-.02-.52-.04-.78-.06-.05,0-.1,0-.16-.01-.01,0-.02,0-.03,0-4.1-.35-8.11-1.06-12-2.11-1.46-.4-2.9-.84-4.33-1.33-6.08-2.09-11.82-5.02-17.1-8.66-2.1-1.45-4.13-3.01-6.07-4.67-2.52-2.15-4.9-4.47-7.14-6.95,0,0,0,0,0,0-3.68-4.08-6.97-8.59-9.79-13.47-.07-.12-.14-.24-.21-.37,0,0,0,0,0,0-1.82-3.18-3.45-6.51-4.86-9.97-1.07-2.62-2.01-5.31-2.82-8.07h0c-1.12-3.82-1.99-7.76-2.58-11.79-.06-.41-.12-.81-.17-1.22h0c-.28-2.15-.49-4.31-.62-6.51-.03-.58-.06-1.16-.08-1.74-.04-1.12-.06-2.23-.06-3.36,0-1.67.05-3.37.14-5.12.01-.25.03-.5.04-.75.22-3.69.63-7.54,1.23-11.5.04-.27.08-.55.13-.82h0c.06-.41.13-.81.19-1.21.34-2.07.73-4.17,1.17-6.29.47-2.25.99-4.53,1.56-6.82.2-.81.41-1.61.62-2.42.7-2.65,1.47-5.32,2.3-7.99.86-2.76,1.79-5.52,2.78-8.27.87-2.42,1.8-4.84,2.77-7.23.21-.52.43-1.04.64-1.55,1.64-3.93,3.41-7.8,5.3-11.57.94-1.89,1.92-3.75,2.92-5.58.72-1.32,1.46-2.62,2.21-3.9.27-.46.54-.92.82-1.37h0c1.3-2.17,2.64-4.29,4.03-6.33,4.41-6.52,9.21-12.36,14.32-17.18,1.73-1.63,3.5-3.15,5.3-4.53,3.5-2.69,7.13-4.89,10.85-6.5.72-.31,1.45-.61,2.19-.87.01,0,.03-.01.04-.01,1.48-.54,2.97-.98,4.47-1.33.65-.15,1.29-.28,1.94-.39.31-.05.63-.1.94-.14.1-.02.19-.03.28-.04,0,0,0,0,.02,0,.09-.01.18-.02.27-.03.02,0,.03,0,.04,0,.04,0,.08,0,.12-.01.05,0,.1-.01.15-.02.03,0,.07,0,.1-.01.02,0,.04,0,.06,0,.07,0,.14-.02.22-.02.16-.02.31-.03.46-.05.06,0,.12-.01.19-.02h0c.18-.02.37-.03.55-.04.03,0,.06,0,.09,0,.04,0,.07,0,.1,0,.07,0,.14,0,.2-.01.03,0,.06,0,.08,0,.05,0,.09,0,.14,0,.04,0,.09,0,.14,0,.09,0,.19,0,.33-.01.04,0,.08,0,.13,0,0,0,.02,0,.03,0h.09s.07,0,.1,0c.02,0,.04,0,.06,0h.02s.02,0,.02,0h.11s.04,0,.06,0h0c.16,0,.31,0,.47,0,.04,0,.08,0,.13,0,.27,0,.53,0,.8.01.39,0,.77.03,1.16.05,1.45.09,2.89.28,4.31.55.61.12,1.22.25,1.83.41,4.35,1.08,8.58,3,12.67,5.6,1.29.82,2.57,1.72,3.83,2.67,3.84,2.91,7.52,6.41,11.04,10.37.95,1.07,1.88,2.17,2.8,3.31,1.41,1.74,2.79,3.55,4.14,5.43.79,1.1,1.57,2.23,2.34,3.38,2.36,3.52,4.6,7.24,6.72,11.1h0c1.78,3.24,3.46,6.58,5.05,9.98,1.07,2.28,2.09,4.6,3.07,6.93.03.07.06.13.08.2,3.88,9.3,7.03,18.94,9.32,28.31.58,2.39,1.11,4.76,1.58,7.1,1.52,7.58,2.42,14.87,2.63,21.56.01.38.02.76.03,1.14.01.64.02,1.28.02,1.9Z"/><g><path class="cls-31" d="m99.89,436.45c-.25,2.86-1.02,5.62-1.45,8.45l-1.16-1.28c-4.51-5.1-7.24-9.54-8.73-12.37q5.37,6.67,6.81,8.36c-2.48-5.54-4.43-9.91-4.14-14.51,1.83,4.15,5.35,15.01,5.39,15.11.75-2.05,2.19-3.37,3.3-3.93,0,.05,0,.12-.01.17h0Z"/><path class="cls-31" d="m165.3,454.08c-4.25,3.08-10,5.24-12.17,6.05l-.59-.99c-3.12-5.26-3.99-8.93-4.18-9.93,2.09,1.9,4.33,4.86,5.63,6.94.04-.04.07-.13.09-.19.79-3.89,3.53-8.71,6.38-11.22.13,2.94-1.43,7.99-4.67,11.95,5.42-1.89,8.58-2.55,9.68-2.74-.05.04-.12.09-.17.13h0Z"/><path class="cls-31" d="m123.85,343.43c-3.29,5.76-8.31,10.97-10.46,13.19l-.55-1.64c-2.18-6.78-2.3-12.19-2.17-14.81,1.23,2.39,3.31,8.56,3.54,9.25.04-.09.07-.23.08-.33.82-6.68,3.48-13.98,5.69-17.73-.21,4.05-1.88,12.28-4.22,18.5,2.94-2.85,6.17-5.47,8.23-6.66-.04.07-.09.16-.13.23h0Z"/><path class="cls-31" d="m145.08,412.1c-5.17,13.22-10.32,21.08-16.84,31.03l-3.28-2.4c-13.78-10.42-20.55-20.3-23.81-26.75,1.26.89,2.69,1.9,21.02,16.27-.81-3.31-2.33-6.41-3.1-9.73-1.11-4.75-1.5-8.92-1.62-10.5-.69-9.2,1.06-15.73,1.85-18.11.74,1.61,7.26,16.38,7.78,38.22.4-.53,9.82-13.16,18.19-18.52-.06.14-.13.34-.18.48h0Z"/><path class="cls-31" d="m181.93,464.56c5.21-2.21,8.82-4.01,11.57-5.48-1.91,1.46-3.89,2.82-5.93,4.07-3.01,1.85-6.14,3.49-9.39,4.87,0,0,0,0,0,0-2.42.99-4.43,1.68-5.82,2.16l1.02-1.21c.97-1.4,1.79-2.95,2.64-6.01,1.1-3.92,1.51-7.99,2.38-11.96,1.08,1.52,4.39,6.95,1.93,13.06,8.54-8.22,15.8-17.59,23.71-26.36-2.53,7.48-9.67,18.45-22.12,26.84Z"/><path class="cls-31" d="m204.51,342.88c-1.95,12.58-12.21,19.42-17.14,22.71l-1.72-4.4c-8.05-20.6-11.67-35.19-12.31-37.91,4.25,6.19,9.95,16.55,14.18,25.78,1.09-12.41-1.28-24.69-1.29-37.06,4.54,9.21,8.63,25.08,5.24,39.5,8.76-6.42,11.11-8.14,13.06-9.03,0,.13,0,.3-.02.42h0Z"/><path class="cls-31" d="m79.5,379.62c3.04.43,8.13,2.13,10.64,3.35-.09.06-.22.15-.31.21-2.68,1.8-8.49,4.38-11.74,4.71.01-.25.03-.5.04-.75.22-3.69.63-7.54,1.23-11.5.04-.27.08-.55.13-.82h0c3.81-15.6,10.7-25.03,14.22-28.17-4.25,11.2-9.66,21.9-14.22,32.97Z"/><path class="cls-31" d="m153.32,303.28c-3.09,13.3-12.21,25.37-16.11,30.52l-1.58-3.37c-5.5-12.62-5.18-22.49-3.95-28.54,2.05,5.44,3.77,11,6,16.38.07-.2.11-.48.12-.69.65-10.48,4.08-22.8,8.75-31.4q-4.9,29.36-5.69,32.42c2.39-3.09,10.37-13.37,12.55-15.76-.03.14-.07.32-.1.46h0Z"/><path class="cls-31" d="m225.05,393.02c0,.41,0,.82,0,1.23-.03,1.94-.12,3.86-.26,5.76-.25,3.14-.66,6.24-1.23,9.27h0c-.59,3.13-1.34,6.19-2.25,9.18-3.38-1.27-8.41-4.33-11.24-6.84,3.2-1.14,8.86-2.24,12.18-2.06,0-.04-.27-3.8-2.56-11.16-1.36-4.39-4.19-13.53-5.52-20.13.1.09,10,9.77,9.63,27.47.82-5.44,1.15-10.4,1.24-14.61.01.64.02,1.28.02,1.9Z"/><path class="cls-31" d="m166.47,288.14c2.57,4.33,2.86,8.4,3,10.36l-.97-.91c-4.07-3.84-6.47-6.92-7.31-8.07,1.16.74,3.21,2.36,5.35,4.23,0-.01-3.52-5.84-6.64-10.53,2.2,2.12,5.3,5.96,7.4,10.38-.22-1.89-.63-3.74-.91-5.62.03.04.06.1.09.15h0Z"/><path class="cls-31" d="m197.21,404.74c-.02.06-2.84,6.4-9.44,14.36l-1.13-1.17c-.07-.07-7.05-7.39-8.95-10.61,2.96,1.17,7.82,4.09,9.16,5.33.03-.09.02-.22,0-.31-1.56-8.72.7-15.24.79-15.52.54,1.05,3.14,6.75,1.41,15.59,1.19-1.44,6.35-6.39,8.24-7.9-.03.07-.06.15-.09.22h0Z"/><path class="cls-31" d="m132.05,466.01c-.09,1.43-.63,2.79-.74,4.22l-1.13-.52c-4.74-2.26-8-4.48-9.91-5.93,2.64,1.35,5.24,2.78,7.87,4.16-3.69-2.92-5.5-6.21-5.63-8.03,1.67,1.68,3.69,4.29,6.76,8.24.7-1.39,2.44-2.09,2.78-2.21,0,.03,0,.06,0,.09h0Z"/><path class="cls-31" d="m164.51,371.35c-2.47,6.52-7.67,12.44-9.63,14.67l-1.23-1.4c-5.49-6.34-7.76-11.58-8.48-13.54,2.54,1.82,6.09,5.36,8.56,8.06.03-.09.02-.23,0-.33-1.12-6.45-.33-14.46,1.07-18.47,1.47,4.07,2.38,12.07,1.17,18.88,1.35-1.45,5.44-5.85,8.65-8.12-.03.08-.06.18-.09.25h0Z"/><path class="cls-31" d="m122.34,295.43q-.71.65-10.01,8.84l.61-1.28c1.88-3.77,4.25-7.28,7.04-10.41-1.88,2.94-2.52,3.93-3.86,6.41,1.89-2.02,3.52-4.27,5.49-6.22,2.61-2.59,4.8-4.29,5.88-5.08-4.21,4.07-6.26,6.26-11.09,11.7,2.68-2.11,4.91-3.51,6.11-4.11-.05.04-.11.1-.16.15h0Z"/></g><path class="cls-8" d="m203.15,447.75c3.57-4.05,6.75-8.51,9.47-13.32h0c4.34-7.68,7.5-16.24,9.21-25.37h0c.96-5.13,1.46-10.43,1.46-15.87,0-.97-.02-1.96-.05-2.97,0-.11,0-.22-.01-.33-12.72,12.04-29.3,19.33-47.44,19.33-40.06,0-72.54-35.53-72.54-79.37,0-5.51.51-11.51,1.49-17.78-6.15,9.86-11.43,21.02-15.58,32.41-1.72,4.86-3.23,9.76-4.5,14.6-1.36,5.15-2.46,10.23-3.27,15.16-1.11,6.7-1.69,13.1-1.69,18.95,0,3.85.25,7.63.74,11.33h0c.57,4.36,1.48,8.61,2.68,12.71h0c1.83,6.25,4.36,12.15,7.49,17.61,0,0,0,0,0,0,2.79,4.89,6.07,9.41,9.76,13.5,0,0,0,0,0,0,13.02,14.44,31.11,23.39,51.12,23.39s38.59-9.2,51.65-23.99c0,0,0,0,0,0Z"/></g></g></g></g></g></svg>