<?xml version="1.0" encoding="UTF-8"?><svg xmlns="http://www.w3.org/2000/svg" xmlns:xlink="http://www.w3.org/1999/xlink" viewBox="0 0 500 503"><defs><style>.cls-1{fill:#e8f8fe;}.cls-2{fill:#fff;}.cls-3{fill:#cacaca;}.cls-4{fill:#f6f6f6;}.cls-5,.cls-6,.cls-7,.cls-8,.cls-9,.cls-10,.cls-11,.cls-12{mix-blend-mode:multiply;}.cls-5,.cls-13{fill:#ca9e67;}.cls-14{fill:#575756;}.cls-15{fill:#b2b2b2;}.cls-16{fill:#a6a6a6;}.cls-17{isolation:isolate;}.cls-6,.cls-18{fill:#683539;}.cls-19{fill:#fbd58f;}.cls-20{fill:#6fb9b9;}.cls-21{fill:#a3faf6;}.cls-22{fill:#e8b47c;}.cls-7{fill:url(#Degradado_sin_nombre_5);}.cls-23{stroke:#fff;stroke-width:3px;}.cls-23,.cls-24,.cls-25{fill:none;}.cls-23,.cls-25{stroke-miterlimit:10;}.cls-26{fill:#edb0e2;}.cls-8{fill:#f1f1f1;}.cls-27{fill:#d1dee4;}.cls-28{fill:#3c3c3b;}.cls-29{clip-path:url(#clippath);}.cls-9{opacity:.22;}.cls-30{fill:#cceaf0;}.cls-31{fill:#b17f4a;}.cls-10{fill:#e4e4e4;}.cls-32{fill:#fff061;}.cls-33{fill:#4da7bc;}.cls-11{fill:#d8d8d8;}.cls-34{fill:#a06013;}.cls-35{fill:#1d1d1b;}.cls-25{stroke:#1d1d1b;stroke-width:1.77px;}</style><clipPath id="clippath"><rect class="cls-24" width="500" height="503"/></clipPath><linearGradient id="Degradado_sin_nombre_5" x1="249.15" y1="612.07" x2="250.44" y2="383.91" gradientUnits="userSpaceOnUse"><stop offset="0" stop-color="#fff"/><stop offset=".32" stop-color="#fcfcfc"/><stop offset=".52" stop-color="#f3f3f3"/><stop offset=".69" stop-color="#e5e5e5"/><stop offset=".84" stop-color="#d0d0d0"/><stop offset=".97" stop-color="#b6b6b6"/><stop offset="1" stop-color="#b0b0b0"/></linearGradient></defs><g class="cls-17"><g id="Capa_2"><g id="Capa_1-2"><g class="cls-29"><rect id="pared" class="cls-27" width="500" height="378"/><rect id="suelo" class="cls-30" x="-.34" y="382" width="500.34" height="219"/><rect id="suelo-2" class="cls-7" x="-.34" y="382" width="500.34" height="219"/><g id="alfombra"><polygon class="cls-10" points="540 601 0 601 .01 530.96 109.8 402.83 371.99 402 500 553.62 540 601"/><polygon id="alfombra-2" class="cls-19" points="537.38 601 -.38 601 .01 533.38 111.31 402.24 370.84 402 500 556.33 537.38 601"/><polygon class="cls-8" points="397.98 434.43 56.55 466.86 111.31 402.24 370.84 402 397.98 434.43"/></g><g id="zocalo"><rect class="cls-3" y="378.13" width="500" height="24.06"/><rect class="cls-16" y="399.79" width="500" height="2.4"/><rect class="cls-1" y="375.49" width="500" height="2.4"/></g><ellipse class="cls-9" cx="337.5" cy="430.5" rx="84.5" ry="14.5"/><ellipse class="cls-9" cx="152" cy="430.5" rx="68" ry="14.5"/><g><g><polygon class="cls-8" points="29.35 82.79 59.51 130.27 90.95 56.5 122.89 115.23 155.08 49 187.41 115.04 219.18 56.57 250.7 130.22 280.87 82.79 250.72 162.8 219.17 108.84 187.41 177.98 155.11 115.78 122.85 178 91.09 108.41 59.51 162.72 29.35 82.79 29.35 82.79"/><polygon class="cls-8" points="218.35 244.79 248.51 292.27 279.95 218.5 311.89 277.23 344.08 211 376.41 277.04 408.18 218.57 439.7 292.22 469.87 244.79 439.72 324.8 408.17 270.84 376.41 339.98 344.11 277.78 311.85 340 280.09 270.41 248.51 324.72 218.35 244.79 218.35 244.79"/></g><polyline class="cls-23" points="29.46 378 29.46 39 471 39 471 378"/></g><g><g id="G01L01T01_labrador"><path class="cls-13" d="m436.53,380.45c1.29-.58,2.57-1.16,3.86-1.74-3.3,4.16-6.36,7.89-8.44,9.99,1.69-.43,3.31-.98,4.77-1.44-11.28,13.17-29.4,22.95-45.25,28.2-3.2,1.06-11.37,3.71-13.25-.34-.08-.18-.14-.36-.2-.53-.07-.27-.11-.55-.12-.83,0-.09,0-.19,0-.27,0-.12.02-.24.03-.36.05-.37.13-.73.26-1.09.03-.1.07-.2.11-.29.05-.13.11-.26.17-.38.09-.2.2-.4.31-.6h0c.74-1.3,1.79-2.45,2.6-3.27,4.48-4.45,10.77-6.12,16.03-9.17,15.16-8.78,31.83-25.92,38.3-42.92.86-2.27,2.44-5.92,3.75-6.75.53-.33.98-.47,1.39-.47,2.12,0,2.94,3.64,3.24,5.37.45,2.61.47,5.31.37,7.95-.27,6.95-2.55,15.71-7.93,18.95Z"/><path class="cls-5" d="m436.53,380.45c1.29-.58,2.57-1.16,3.86-1.74-3.3,4.16-6.36,7.89-8.44,9.99,1.69-.43,3.31-.98,4.77-1.44-11.28,13.17-29.4,22.95-45.25,28.2-3.2,1.06-11.37,3.71-13.25-.34-.08-.18-.14-.36-.2-.53-.07-.27-.11-.55-.12-.83,0-.09,0-.19,0-.27,0-.12.02-.24.03-.36.04-.37.13-.73.26-1.09.03-.1.07-.2.11-.29.05-.13.11-.26.17-.38.09-.2.2-.4.31-.6.03.09.06.16.1.25,1.72,4.02,9.4,1.29,12.41.19,14.91-5.4,32.01-15.37,42.72-28.63-2.42.96-4.92,1.68-7.45,2.18,4.11-2.92,7.84-6.57,10.97-10.76-1.21.6-2.42,1.18-3.64,1.78,5.6-6.15,8.18-16.39,7.55-23.41-.05-.56-.11-1.09-.19-1.55-.09-.53-.28-1.7-.42-2.63,2.12,0,2.94,3.64,3.24,5.37.45,2.61.47,5.31.37,7.95-.27,6.95-2.55,15.71-7.93,18.95Z"/></g><g id="G02L02T01_labrador"><path id="_Trazado_" class="cls-13" d="m419.05,355.6c0,48.52-36.05,80.95-80.4,80.95s-80.21-32.42-80.21-80.95c0-14.02,2.99-29.55,8.31-44.56.27-.77.55-1.55.84-2.32,16.13,28.87,40.17,41.56,71.05,41.56s55.39-12.69,71.2-41.56c.29.77.57,1.54.85,2.32,5.35,15.01,8.35,30.55,8.35,44.56Z"/><path class="cls-5" d="m337.78,419.53c-1.18-.39-2.64-1.28-3.86-2.1.15,1.04.21,1.96.15,2.93-1.19-.94-2.33-1.43-3.82-1.86-1.23-.35-2.63-.66-3.9-.84-2.58-.36-5.15-.84-7.69-1.44-4.9-1.16-9.69-2.76-14.29-4.8-12.35-5.49-23.18-14.19-31.05-25.2-4.05-5.65-7.3-11.86-9.69-18.38-1.25-3.41-2.27-6.9-3.06-10.44-.74-3.32-2.01-7.56-1.72-10.97-.27,3.11-.41,6.18-.41,9.17,0,48.52,35.86,80.95,80.21,80.95s80.4-32.42,80.4-80.95c0-2.99-.14-6.06-.41-9.17-.1,1.09-.22,2.17-.37,3.26-1.12,8.55-3.21,17.09-7.21,24.74-2.36,4.52-6.79,11.55-9.76,15.45-1.22,1.6-2.1,3.96-2.38,5.17-.51-.39-1.02-.78-1.52-1.17-.22,1.41-.64,2.78-1.22,4.08-.52-.52-.99-1.1-1.38-1.73-1.2,1.71-2.43,2.89-3.7,3.95-1.52,1.26-3.08,2.46-4.69,3.61-6.32,4.48-13.33,7.96-20.68,10.4-2.43.81-5.17,1.03-7.69,1.46-2.01.34-4.03.67-6.05.98-1.53.24-4.17.98-5.56,1.59,0-.38-.12-1.14-.33-1.43-.88,1.12-1.66,1.84-2.52,2.46-.35-.91-.95-1.72-1.72-2.32-.12.91-.41,1.79-.85,2.6-.38-.95-.53-2-.44-3.02-.99.81-2.44,2.2-2.81,3.01Z"/><path class="cls-5" d="m339.18,365.21c.18.76.13,2.24-.07,2.95,1.97-.87,3.76-2.16,5.21-3.75.42.97,1.32,2.25,2.1,3,.92-1.44,2.12-2.71,3.5-3.72.07,1.12-.05,2.26-.34,3.35,4.39-1.36,8.85-2.49,13.28-3.69,3.87-1.04,6.83-2.98,10.32-4.97.3,1.07.43,2.18.37,3.29,1.97-1.39,3.48-2.94,4.74-4.91.58.56,1.01,1.27,1.24,2.04,6.37-3.42,12.24-7.34,17.78-11.96,5.28-4.4,9.98-9.48,14.03-15.04.57-.79,4.15-4.9,3.87-5.74-1.43-5.8-3.22-11.62-5.36-17.35-15.81,28.87-40.32,41.56-71.2,41.56s-54.92-12.69-71.05-41.56c-2.13,5.73-3.92,11.55-5.34,17.36-.28,1.13,3.81,5.6,4.55,6.58,1.62,2.15,3.34,4.24,5.14,6.23,3.54,3.91,7.44,7.5,11.68,10.65,6.57,4.89,13.83,8.57,21.45,11.54-.45-1.34-.73-2.83-.81-4.35,2.77,2.72,5.93,5.05,9.35,6.9-.45-1.21-.9-2.42-1.34-3.63,3.1,1.65,6.53,3.36,9.87,4.42,1.9.6,3.84,1.02,5.79,1.41.71.14,5.24.54,5.47,1.09-.34-.79-.43-1.68-.26-2.52,1.08.71,1.98,1.69,2.59,2.83.86-.3,2.91-1.39,3.44-2.03Z"/></g><g id="G03L03T01_labrador"><path id="_Trazado_-2" class="cls-13" d="m338.65,353.57c-33.74,0-60.39-20.17-71.89-42.53,13.11-36.96,40.35-70.72,71.89-70.72s58.88,33.76,72.05,70.72c-1.07,2.38-5.71,8.86-6.78,10.25-2.61,3.38-5.48,6.57-8.56,9.52-3.19,3.06-6.63,5.86-10.26,8.38-2.69,1.86-7.12,4.89-8.82,6.58-.75-.27-1.48-.59-2.22-.9-.03.75-.06,1.5-.09,2.25-.81-.53-1.71-.93-2.65-1.17-.03.69-.05,1.37-.08,2.06-1.68-.02-5.1.93-7,1.56-2.65.86-5.34,1.59-8.07,2.18-5.75,1.23-11.63,1.83-17.52,1.83Z"/><g id="sombra_orejas" class="cls-12"><g><path class="cls-4" d="m322.39,248.95c-.64,1.94-2.13,2.58-4.32,3.65-2.07,1.01-4.15,1.99-6.16,3.14-1.29.74-5.4,4.73-6.18,5.6.04-.43.02-1.01-.2-1.34-4.67,4.01-9.15,10.13-11.33,12.08-2.35,2.1-5.66,3.02-8.83,3.05-.11,0-.24,0-.35-.02,10.29-14.75,23-26.39,37.08-31.68.72,1.71.83,3.89.29,5.52Z"/><path class="cls-13" d="m322.39,248.95c-.64,1.94-2.13,2.58-4.32,3.65-2.07,1.01-4.15,1.99-6.16,3.14-1.29.74-5.4,4.73-6.18,5.6.04-.43.02-1.01-.2-1.34-4.67,4.01-9.15,10.13-11.33,12.08-2.35,2.1-5.66,3.02-8.83,3.05-.11,0-.24,0-.35-.02,10.29-14.75,23-26.39,37.08-31.68.72,1.71.83,3.89.29,5.52Z"/><path class="cls-4" d="m322.39,248.95c-.64,1.94-2.13,2.58-4.32,3.65-2.07,1.01-4.15,1.99-6.16,3.14-1.29.74-5.4,4.73-6.18,5.6.04-.43.02-1.01-.2-1.34-4.67,4.01-9.15,10.13-11.33,12.08-2.35,2.1-5.66,3.02-8.83,3.05-.11,0-.24,0-.35-.02,10.29-14.75,23-26.39,37.08-31.68.72,1.71.83,3.89.29,5.52Z"/><path class="cls-13" d="m322.39,248.95c-.64,1.94-2.13,2.58-4.32,3.65-2.07,1.01-4.15,1.99-6.16,3.14-1.29.74-5.4,4.73-6.18,5.6.04-.43.02-1.01-.2-1.34-4.67,4.01-9.15,10.13-11.33,12.08-2.35,2.1-5.66,3.02-8.83,3.05-.11,0-.24,0-.35-.02,10.29-14.75,23-26.39,37.08-31.68.72,1.71.83,3.89.29,5.52Z"/></g><g><path class="cls-4" d="m392.37,275.1v.02c-.12,0-.24.02-.35.02-3.17-.03-6.48-.95-8.83-3.05-2.19-1.95-6.67-8.07-11.33-12.08-.21.33-.24.91-.2,1.34-.78-.87-4.89-4.86-6.18-5.6-2.01-1.15-4.09-2.13-6.16-3.14-2.19-1.07-3.68-1.71-4.32-3.65-.54-1.61-.43-3.79.28-5.49,14.06,5.31,26.77,16.94,37.08,31.65Z"/><path class="cls-13" d="m392.37,275.1v.02c-.12,0-.24.02-.35.02-3.17-.03-6.48-.95-8.83-3.05-2.19-1.95-6.67-8.07-11.33-12.08-.21.33-.24.91-.2,1.34-.78-.87-4.89-4.86-6.18-5.6-2.01-1.15-4.09-2.13-6.16-3.14-2.19-1.07-3.68-1.71-4.32-3.65-.54-1.61-.43-3.79.28-5.49,14.06,5.31,26.77,16.94,37.08,31.65Z"/><path class="cls-4" d="m392.37,275.1v.02c-.12,0-.24.02-.35.02-3.17-.03-6.48-.95-8.83-3.05-2.19-1.95-6.67-8.07-11.33-12.08-.21.33-.24.91-.2,1.34-.78-.87-4.89-4.86-6.18-5.6-2.01-1.15-4.09-2.13-6.16-3.14-2.19-1.07-3.68-1.71-4.32-3.65-.54-1.61-.43-3.79.28-5.49,14.06,5.31,26.77,16.94,37.08,31.65Z"/><path class="cls-13" d="m392.37,275.1v.02c-.12,0-.24.02-.35.02-3.17-.03-6.48-.95-8.83-3.05-2.19-1.95-6.67-8.07-11.33-12.08-.21.33-.24.91-.2,1.34-.78-.87-4.89-4.86-6.18-5.6-2.01-1.15-4.09-2.13-6.16-3.14-2.19-1.07-3.68-1.71-4.32-3.65-.54-1.61-.43-3.79.28-5.49,14.06,5.31,26.77,16.94,37.08,31.65Z"/></g></g><circle id="morro" class="cls-22" cx="338.76" cy="322.5" r="14.43"/><g id="puntitos"><path class="cls-31" d="m346.84,324.11l.24-.24c.09-.08.15-.18.18-.29.06-.11.08-.22.08-.34,0-.12-.02-.24-.08-.34-.04-.11-.1-.21-.18-.29l-.18-.14c-.14-.08-.29-.12-.45-.12l-.24.03c-.15.04-.28.12-.39.23l-.24.24c-.09.08-.15.18-.18.29-.06.11-.08.22-.08.34,0,.12.02.24.08.34.04.11.1.21.18.29l.18.14c.14.08.29.12.45.12l.24-.03c.15-.04.28-.12.39-.23h0Z"/><path class="cls-31" d="m348.9,321.43h.24c.12,0,.24-.02.34-.08.11-.04.21-.1.29-.18.09-.08.15-.18.18-.29.06-.11.08-.22.08-.34l-.03-.24c-.04-.15-.12-.28-.23-.39l-.18-.14c-.14-.08-.29-.12-.45-.12h-.24c-.12,0-.24.02-.34.08-.11.04-.21.1-.29.18-.09.08-.15.18-.18.29-.06.11-.08.22-.08.34l.03.24c.04.15.12.28.23.39l.18.14c.14.08.29.12.45.12h0Z"/><path class="cls-31" d="m349.27,325.8l.26.23c.08.09.18.15.29.18.11.06.22.08.34.08.12,0,.24-.02.34-.08.11-.04.21-.1.29-.18l.14-.18c.08-.14.12-.29.12-.45l-.03-.24c-.04-.15-.12-.28-.23-.39l-.26-.23c-.08-.09-.18-.15-.29-.18-.11-.06-.22-.08-.34-.08-.12,0-.24.02-.34.08-.11.04-.21.1-.29.18l-.14.18c-.08.14-.12.29-.12.45l.03.24c.04.15.12.28.23.39h0Z"/><path class="cls-31" d="m327.47,321.03v.24c0,.12.02.24.08.34.04.11.1.21.18.29.08.09.18.15.29.18.11.06.22.08.34.08l.24-.03c.15-.04.28-.12.39-.23l.14-.18c.08-.14.12-.29.12-.45v-.24c0-.12-.02-.24-.08-.34-.04-.11-.1-.21-.18-.29-.08-.09-.18-.15-.29-.18-.11-.06-.22-.08-.34-.08l-.24.03c-.15.04-.28.12-.39.23l-.14.18c-.08.14-.12.29-.12.45h0Z"/><path class="cls-31" d="m326.5,325.57l.24.24c.08.09.18.15.29.18.11.06.22.08.34.08.12,0,.24-.02.34-.08.11-.04.21-.1.29-.18l.14-.18c.08-.14.12-.29.12-.45l-.03-.24c-.04-.15-.12-.28-.23-.39l-.24-.24c-.08-.09-.18-.15-.29-.18-.11-.06-.22-.08-.34-.08-.12,0-.24.02-.34.08-.11.04-.21.1-.29.18l-.14.18c-.08.14-.12.29-.12.45l.03.24c.04.15.12.28.23.39h0Z"/><path class="cls-31" d="m331.63,323.97v.24c0,.12.02.24.08.34.04.11.1.21.18.29.08.09.18.15.29.18.11.06.22.08.34.08l.24-.03c.15-.04.28-.12.39-.23l.14-.18c.08-.14.12-.29.12-.45v-.24c0-.12-.02-.24-.08-.34-.04-.11-.1-.21-.18-.29-.08-.09-.18-.15-.29-.18-.11-.06-.22-.08-.34-.08l-.24.03c-.15.04-.28.12-.39.23l-.14.18c-.08.14-.12.29-.12.45h0Z"/></g><g id="cejas"><path class="cls-5" d="m352.73,293.57c-.3,1.88-.27,3.81.1,5.67.9-1.77,4.48-6.08,6.66-6.74-.52-.64-1.2-1.07-1.9-1.3,1.72-.7,3.56-1.09,5.42-1.15-2.97-.72-4.75-1.85-7.3-2.05-.31-.02-.64.02-.91.19-.26.16-.42.45-.56.72-.75,1.46-1.26,3.05-1.52,4.67Z"/><path class="cls-5" d="m324.51,293.57c.3,1.88.27,3.81-.1,5.67-.9-1.77-4.48-6.08-6.66-6.74.52-.64,1.2-1.07,1.9-1.3-1.72-.7-3.56-1.09-5.42-1.15,2.97-.72,4.75-1.85,7.3-2.05.31-.02.64.02.91.19.26.16.42.45.56.72.75,1.46,1.26,3.05,1.52,4.67Z"/></g></g><g id="G04L04T01_labrador"><circle class="cls-2" cx="311.82" cy="305" r="8.32"/><circle class="cls-33" cx="311.82" cy="305" r="6.91"/><circle class="cls-28" cx="311.82" cy="305" r="3.82"/><circle class="cls-2" cx="309.43" cy="301.18" r="2.25"/></g><g id="G05L05T01_labrador"><circle class="cls-2" cx="366.04" cy="305" r="8.32"/><circle class="cls-33" cx="366.04" cy="305" r="6.91"/><circle class="cls-28" cx="366.04" cy="305" r="3.82"/><circle class="cls-2" cx="363.79" cy="301.18" r="2.25"/></g><g id="G06L06T03_abierta"><line class="cls-25" x1="338.68" y1="318.66" x2="338.68" y2="326.92"/><path class="cls-34" d="m349.11,329.93s2.35-.78,2.35-.77c0,3.78-4.33,9.97-12.84,9.97s-12.84-6.19-12.84-9.97c0-.04,2.35.7,2.36.66,1.99.2,4.02-.21,5.81-1.24,1.5-.86,3.18-1.29,4.86-1.29s3.21.39,4.66,1.18l.54.29c1.59.86,3.35,1.25,5.1,1.17Z"/><path class="cls-18" d="m350.32,329.8c-.02.07-.03.13-.05.2-.34,1.45-1.3,3.1-2.9,4.48-1.97,1.71-4.89,3.01-8.75,3.01-4.28,0-7.52-1.74-9.51-3.84-1.22-1.29-1.97-2.7-2.2-3.94,0-.03-.02-.07-.02-.1.07.02.14.03.21.05h.02c.21.05.42.08.63.11.13.02.26.03.38.05.5.05,1,.06,1.5.03h.06c.45-.03.9-.09,1.34-.18.15-.02.3-.06.45-.1.16-.04.33-.09.49-.14.42-.13.82-.28,1.22-.47.18-.09.37-.17.55-.27.02,0,.04-.02.05-.02.18-.08.35-.16.53-.26.26-.14.53-.27.79-.38.27-.12.54-.22.82-.3.16-.05.32-.09.49-.13.08-.02.16-.05.24-.05.13-.03.26-.06.38-.09.02,0,.05,0,.06,0,.17-.03.34-.05.53-.08.38-.05.77-.07,1.17-.07.18,0,.35,0,.53.02.18,0,.36.02.55.05.19.02.37.05.55.08.18.03.36.07.54.11.72.17,1.43.43,2.09.77l.5.25c.14.07.29.14.44.2.04.02.07.04.11.05.29.16.59.29.9.42.11.05.22.09.33.13.57.21,1.17.37,1.77.46.1.02.2.03.29.04.56.08,1.13.09,1.7.07.09,0,.18,0,.27-.02.2,0,.4-.03.6-.05.11-.02.23-.03.34-.05Z"/><path class="cls-6" d="m350.27,330.01c-.41,1.75-1.52,3.27-2.84,4.44.95-.87-.2-2.66-.96-3.26-2.26-1.79-4.95-1.73-7.72-1.73-2.13,0-4.66.05-6.65.85-1.35.54-3.18,1.66-2.99,3.36-1.22-1.29-1.97-2.7-2.2-3.94.05-.02.12-.04.2-.05.69-.12,2.01.19,2.52.19h.06c.45-.03.9-.09,1.34-.18.15-.02.3-.06.45-.1.16-.04.33-.09.49-.14.42-.13.82-.28,1.22-.47.18-.09.37-.17.55-.27.02,0,.04-.02.05-.02.18-.08.35-.16.53-.26.26-.14.53-.27.79-.38.27-.12.54-.22.82-.3.16-.05.32-.09.49-.13.08-.02.16-.05.24-.05.13-.03.26-.06.38-.09.02,0,.05,0,.06,0,.17-.03.34-.05.53-.08.38-.05.77-.07,1.17-.07.18,0,.35,0,.53.02.18,0,.36.02.55.05.19.02.37.05.55.08.18.03.36.07.54.11.72.17,1.43.43,2.09.77l.5.25c.14.07.29.14.44.2.04.02.07.04.11.05.29.16.59.29.9.42.11.05.22.09.33.13.57.21,1.17.37,1.77.46.1.02.2.03.29.04.09,0,.19.02.29.02.63.02,1.68-.2,2.28-.02.09.02.17.05.24.1.02.02.04.03.05.05Z"/><g><path class="cls-4" d="m332.27,332.92c.13-.08.28-.12.43-.08.17.05.28.22.33.39s.04.35.06.53c.04.57.2,1.14.3,1.71.02.09.03.18,0,.27-.1.31-.64.18-.86.11-.43-.13-1.2-.51-1.28-1.02-.11-.65.36-1.33.83-1.75.06-.05.13-.11.2-.15Z"/><path class="cls-15" d="m333.38,335.47c-.1-.57-.27-1.13-.3-1.71,0-.12-.01-.25-.03-.37-.01.54.08,1.09.12,1.63,0,.09.01.18-.03.27-.13.29-.66.11-.87.02-.32-.14-.81-.44-1.04-.8,0,.11-.01.21,0,.32.09.51.85.89,1.28,1.02.22.07.76.2.86-.11.03-.09.01-.18,0-.27Z"/></g><g><path class="cls-4" d="m345.05,332.92c-.13-.08-.28-.12-.43-.08-.17.05-.28.22-.33.39s-.04.35-.06.53c-.04.57-.2,1.14-.3,1.71-.02.09-.03.18,0,.27.1.31.64.18.86.11.43-.13,1.2-.51,1.28-1.02.11-.65-.36-1.33-.83-1.75-.06-.05-.13-.11-.2-.15Z"/><path class="cls-15" d="m343.94,335.47c.1-.57.27-1.13.3-1.71,0-.12.01-.25.03-.37.01.54-.08,1.09-.12,1.63,0,.09-.01.18.03.27.13.29.66.11.87.02.32-.14.81-.44,1.04-.8,0,.11.01.21,0,.32-.09.51-.85.89-1.28,1.02-.22.07-.76.2-.86-.11-.03-.09-.01-.18,0-.27Z"/></g><path class="cls-35" d="m358.16,325.87c-2.11,1.48-4.05,3.27-6.49,4.2-2.46.95-5.85.61-7.86-.49-1.08-.58-2.27-1.11-3.49-1.29-1.18-.2-2.35-.1-3.27.02,0,0,.16-.01.16-.01-.38.08-.58.12-1.04.25-.47.12-1.7.71-2.15.92-3,1.78-8.18,1.33-11.22-1.36-1.04-.73-2.07-1.48-3.09-2.25,1.16.54,2.31,1.09,3.44,1.67,3.17,1.93,7.12,2.27,10.34.36-.11.04.02-.02.05-.04.11-.06.44-.23.55-.28,1.07-.54,2.09-.88,3.03-1.01,0,0-.16.01-.16.01l.55-.09h.05s.07,0,.07,0h0s-.11,0-.11,0c2.18-.23,4.12.1,6.1,1.11.13.08.55.29.68.38,2.09,1.24,4.67,1.57,7.03,1.01,2.34-.62,4.54-2.16,6.82-3.11h0Z"/></g><g id="G07L07T01_labrador"><g id="rubor"><circle id="rubor_D" class="cls-26" cx="385.12" cy="322.5" r="8.93"/><circle id="rubor_I" class="cls-26" cx="292.66" cy="322.5" r="8.93"/></g><path class="cls-14" d="m346.76,316.71c0,.23,0,.46-.03.68,0,.07-.01.13-.02.19,0,.06-.02.12-.03.18-.56,3.22-5.73,5.07-7.83,5.12-.03,0-.07,0-.1,0s-.06,0-.1,0c-.03,0-.07,0-.1,0-2.16-.11-7.17-2.02-7.72-5.15-.01-.06-.02-.12-.03-.18-.01-.07-.02-.13-.02-.2-.02-.21-.03-.42-.03-.65.03-4.36,3.58-6.96,8-6.96s8,2.6,8,6.96Z"/><path class="cls-28" d="m346.73,317.39c0,.07-.01.13-.02.19,0,.06-.02.12-.03.18-.56,3.22-5.73,5.07-7.83,5.12-.03,0-.07,0-.1,0s-.06,0-.1,0c-.03,0-.07,0-.1,0-2.16-.11-7.17-2.02-7.72-5.15-.01-.06-.02-.12-.03-.18-.01-.07-.02-.13-.02-.2.34-3.65,3.78-5.61,7.97-5.61s7.66,1.97,7.97,5.64Z"/><path class="cls-35" d="m338.68,318.19c.7,1.4.68,2.82-.08,4.19-.71-1.4-.67-2.82.08-4.19h0Z"/></g><g id="G08L08T01_labrador"><path class="cls-13" d="m321.15,246.12c0,.07,0,.14,0,.21,0,.04,0,.08,0,.11,0,.05-.01.1-.02.15h0s-.01-.03-.01-.03c-.02.1-.04.2-.07.3-.06.21-.15.41-.29.59-.02.03-.05.06-.08.09-.03.03-.06.06-.1.09-.46.44-1.12.67-1.8.84-.57.14-1.17.24-1.68.39-.08.02-.15.04-.23.07-.17.06-.34.12-.5.18-1.26.49-2.29,1.22-3.19,2.2-.07.08-.14.16-.21.23-.17.19-.33.39-.47.59-.7.93-1.33,1.92-1.91,2.96-.01.02-.03.04-.04.07-.02.03-.03.05-.05.08-.03.05-.06.1-.08.15-.06.11-.13.23-.18.34-.08.15-.16.3-.24.46-.06.11-.11.21-.16.32-.06.12-.13.24-.19.37-.08.16-.16.33-.23.49-.04.09-.09.18-.13.27-.08.16-.15.31-.22.47-.03.06-.06.13-.09.19-.16.35-.31.71-.46,1.06-.04.11-.09.21-.13.32-.11.25-.21.5-.31.75-.1.24-.19.48-.28.72-.16.41-.32.83-.48,1.26-.34.9-.66,1.81-1,2.75-.08.23-.16.47-.25.7-.13.36-.26.73-.38,1.09-.16.44-.31.89-.47,1.33-.13.38-.26.75-.4,1.13-.28.81-.58,1.62-.88,2.45-.15.41-.3.81-.45,1.22s-.31.81-.47,1.22c-.16.41-.31.81-.48,1.21-.12.3-.24.6-.37.9-.04.1-.08.21-.13.31-.26.62-.53,1.24-.8,1.86-.08.18-.16.36-.24.54-.12.26-.24.53-.36.79-.06.14-.13.28-.2.42-4.04,8.57-14.18,25.88-21.54,25.88s-8.68-13.86-9.3-18.96c-.26-2.12-.5-4.24-.72-6.37-.09-.91-.19-1.82-.27-2.73-.05-.58-.11-1.16-.16-1.74-.04-.44-.08-.87-.11-1.31-.03-.31-.05-.61-.07-.92-.05-.71-.1-1.43-.15-2.14-.02-.28-.04-.56-.05-.84-.02-.3-.04-.59-.05-.89-.02-.29-.03-.58-.04-.88-.02-.42-.04-.84-.05-1.26-.01-.26-.02-.52-.03-.78-.01-.36-.02-.71-.03-1.06,0-.36-.02-.73-.03-1.09v-.07c-.05-2.45-.02-4.9.09-7.36.08-1.8.21-3.66,1.08-5.23,1.16-2.11,3.43-3.35,5.66-4.26,2.67-1.09,5.44-1.87,8.23-2.59,2.23-.58,4.46-1.12,6.67-1.76,3.86-1.12,7.59-3.83,11.37-5.11.7-.23,1.39-.42,2.09-.54,4.36-.75,9.7-.26,13.66,1.8,1.64.86,3.14,2.06,3.91,3.73.06.13.12.27.17.41t0,0c.08.21.14.43.2.66.11.45.16.84.17,1.18Z"/><path class="cls-5" d="m270.33,292.77c.54,1.43,1.46,2.72,2.43,3.92,1.8,2.23,4.16,4.45,7.02,4.42,3.54-.04,6.92-3.23,9.32-5.5,3.28-3.11,6.38-6.59,8.65-10.54,2.33-4.05,3.94-8.47,5.42-12.9,1.51-4.54,2.9-9.12,4.15-13.74,1.11-4.09,2.6-7.35,5.17-10.79,1.04-1.39,2.51-2.64,4.18-3.21,1.63-.56,3.67.32,4.25,1.97.06.16.1.32.12.46-.06.21-.15.41-.29.59-.02.03-.05.06-.08.09-.03.03-.06.06-.1.09-.46.44-1.12.67-1.8.84-.57.14-1.17.24-1.68.39-.08.02-.15.04-.23.07-.17.06-.34.12-.5.18-1.26.49-2.29,1.22-3.19,2.2-.07.08-.14.16-.21.23-.17.19-.33.39-.47.59-.7.93-1.33,1.92-1.91,2.96-.01.02-.03.04-.04.07-.02.03-.03.05-.05.08-.03.05-.06.1-.08.15-.06.11-.13.23-.18.34-.08.15-.16.3-.24.46-.06.11-.11.21-.16.32-.06.12-.13.24-.19.37-.08.16-.16.33-.23.49-.04.09-.09.18-.13.27-.08.16-.15.31-.22.47-.03.06-.06.13-.09.19-.16.35-.31.71-.46,1.06l-.13.32c-.11.25-.21.5-.31.75-.1.24-.19.48-.28.72-.17.42-.33.84-.48,1.26-.17.45-.34.9-.5,1.36-.17.46-.33.93-.5,1.39-.08.23-.16.47-.25.7l-.38,1.09c-.16.44-.31.89-.47,1.33-.13.38-.26.75-.4,1.13-.29.82-.58,1.64-.88,2.45-.15.41-.3.81-.45,1.22s-.31.81-.47,1.22c-.16.41-.31.81-.48,1.21-.12.3-.24.6-.37.9-.04.1-.08.21-.13.31-.26.62-.53,1.24-.8,1.86-.08.18-.16.36-.24.54-.12.26-.24.53-.36.79-.06.14-.13.28-.2.42-4.04,8.57-14.18,25.88-21.54,25.88-4.31,0-6.24-3.93-7.38-8-.01-.04-.02-.08-.03-.11-.37-1.33-.66-2.67-.92-3.89l-.25-1.44Z"/></g><g id="G09L09T01_labrador"><path class="cls-13" d="m356.08,246.12c0,.07,0,.14,0,.21,0,.04,0,.08,0,.11,0,.05.01.1.02.15h0s.01-.03.01-.03c.02.1.04.2.07.3.06.21.15.41.29.59.02.03.05.06.08.09.03.03.06.06.1.09.46.44,1.12.67,1.8.84.57.14,1.17.24,1.68.39.08.02.15.04.23.07.17.06.34.12.5.18,1.26.49,2.29,1.22,3.19,2.2.07.08.14.16.21.23.17.19.33.39.47.59.7.93,1.33,1.92,1.91,2.96.01.02.03.04.04.07.02.03.03.05.05.08.03.05.06.1.08.15.06.11.13.23.18.34.08.15.16.3.24.46.06.11.11.21.16.32.06.12.13.24.19.37.08.16.16.33.23.49.04.09.09.18.13.27.08.16.15.31.22.47.03.06.06.13.09.19.16.35.31.71.46,1.06.04.11.09.21.13.32.11.25.21.5.31.75.1.24.19.48.28.72.16.41.32.83.48,1.26.34.9.66,1.81,1,2.75.08.23.16.47.25.7.13.36.26.73.38,1.09.16.44.31.89.47,1.33.13.38.26.75.4,1.13.28.81.58,1.62.88,2.45.15.41.3.81.45,1.22s.31.81.47,1.22c.16.41.31.81.48,1.21.12.3.24.6.37.9.04.1.08.21.13.31.26.62.53,1.24.8,1.86.08.18.16.36.24.54.12.26.24.53.36.79.06.14.13.28.2.42,4.04,8.57,14.18,25.88,21.54,25.88,7.54,0,8.68-13.86,9.3-18.96.26-2.12.5-4.24.72-6.37.09-.91.19-1.82.27-2.73.05-.58.11-1.16.16-1.74.04-.44.08-.87.11-1.31.03-.31.05-.61.07-.92.05-.71.1-1.43.15-2.14.02-.28.04-.56.05-.84.02-.3.04-.59.05-.89.02-.29.03-.58.04-.88.02-.42.04-.84.05-1.26.01-.26.02-.52.03-.78.01-.36.02-.71.03-1.06,0-.36.02-.73.03-1.09v-.07c.05-2.45.02-4.9-.09-7.36-.08-1.8-.21-3.66-1.08-5.23-1.16-2.11-3.43-3.35-5.66-4.26-2.67-1.09-5.44-1.87-8.23-2.59-2.23-.58-4.46-1.12-6.67-1.76-3.86-1.12-7.59-3.83-11.37-5.11-.7-.23-1.39-.42-2.09-.54-4.36-.75-9.7-.26-13.66,1.8-1.64.86-3.14,2.06-3.91,3.73-.06.13-.12.27-.17.41t0,0c-.08.21-.14.43-.2.66-.11.45-.16.84-.17,1.18Z"/><path class="cls-5" d="m406.65,294.21c-.26,1.22-.55,2.56-.92,3.89,0,.04-.02.07-.03.11-1.15,4.07-3.07,8-7.38,8-7.36,0-17.5-17.32-21.54-25.88-.07-.14-.13-.28-.2-.42-.12-.26-.24-.53-.36-.79-.08-.18-.16-.36-.24-.54-.27-.61-.54-1.23-.8-1.86-.04-.1-.09-.21-.13-.31-.13-.3-.25-.6-.37-.9-.16-.4-.32-.81-.48-1.21-.16-.41-.31-.81-.47-1.22s-.3-.81-.45-1.22c-.3-.81-.59-1.63-.88-2.45-.13-.38-.26-.75-.4-1.13-.16-.44-.31-.89-.47-1.33l-.38-1.09c-.08-.23-.16-.47-.25-.7-.16-.46-.33-.93-.5-1.39-.16-.45-.33-.91-.5-1.36-.16-.42-.31-.84-.48-1.26-.09-.24-.19-.48-.28-.72-.1-.25-.2-.5-.31-.75l-.13-.32c-.15-.36-.3-.71-.46-1.06-.03-.06-.06-.13-.09-.19-.07-.16-.14-.32-.22-.47-.04-.09-.08-.18-.13-.27-.08-.16-.15-.33-.23-.49-.06-.13-.12-.25-.19-.37-.05-.11-.11-.22-.16-.32-.08-.15-.16-.31-.24-.46-.06-.11-.12-.23-.18-.34-.03-.05-.05-.1-.08-.15-.01-.03-.03-.06-.05-.08-.01-.02-.03-.04-.04-.07-.58-1.04-1.21-2.03-1.91-2.96-.15-.2-.31-.39-.47-.59-.07-.08-.14-.16-.21-.23-.9-.98-1.93-1.71-3.19-2.2-.16-.06-.33-.13-.5-.18-.08-.03-.15-.05-.23-.07-.51-.14-1.11-.24-1.68-.39-.68-.17-1.33-.4-1.8-.84-.04-.03-.07-.06-.1-.09-.03-.03-.05-.06-.08-.09-.14-.18-.23-.38-.29-.59.02-.14.06-.3.12-.46.58-1.64,2.62-2.52,4.25-1.97,1.66.57,3.13,1.81,4.18,3.21,2.57,3.44,4.06,6.69,5.17,10.79,1.25,4.62,2.64,9.2,4.15,13.74,1.48,4.43,3.09,8.85,5.42,12.9,2.27,3.94,5.37,7.43,8.65,10.54,2.39,2.27,5.77,5.46,9.32,5.5,2.87.03,5.22-2.19,7.02-4.42.97-1.2,1.89-2.49,2.43-3.92l-.25,1.44Z"/></g><g id="G10L10T01_labrador"><path class="cls-13" d="m327.48,430.99c-1.79,3.98-5.4,6.12-9.93,6.79-1.34.2-2.76.26-4.23.21-2.3-.07-4.58-.45-6.81-1-1.14-.28-2.27-.6-3.39-.97-1.65-.54-3.26-1.17-4.84-1.89-9.06-4.09-15.02-11.65-15.76-18.91-.25-2.45.09-4.86,1.11-7.1,2.59-5.73,7.76-9.58,14.11-9.82,4.08-.16,7.77.87,11.12,2.65,4.3,2.27,8.02,5.78,11.21,9.58.63.74,1.23,1.49,1.83,2.25,1.3,1.68,2.51,3.43,3.53,5.28.42.77.82,1.55,1.18,2.35,1.44,3.25,2.41,7.17.87,10.58Z"/><path class="cls-5" d="m327.48,430.99c-1.79,3.98-5.4,6.12-9.93,6.79-1.34.2-2.76.26-4.23.21-2.3-.07-4.58-.45-6.81-1-1.14-.28-2.27-.6-3.39-.97-1.65-.54-3.26-1.17-4.84-1.89-9.06-4.09-15.02-11.65-15.76-18.91,4.33,6.46,16.49,15.71,25.31,16.75-.91-.86-1.83-1.71-2.72-2.59,3.65,1.03,7.29,1.14,11.02.29,3.72-.85,6.99-2.99,8.6-6.54.71-1.56.89-3.28.71-5.06.42.77.82,1.55,1.18,2.35,1.44,3.25,2.41,7.17.87,10.58Z"/></g><g id="G11L11T01_labrador"><path class="cls-13" d="m394.72,415.22c-.3,2.95-1.47,5.96-3.35,8.75-2.75,4.08-7.03,7.73-12.41,10.16-1.58.72-3.2,1.35-4.84,1.89-1.11.37-2.24.69-3.39.97-2.23.55-4.51.92-6.81,1-1.47.05-2.89-.02-4.23-.21-4.53-.67-8.13-2.81-9.93-6.79-1.54-3.41-.57-7.33.87-10.58.36-.8.75-1.58,1.18-2.35,1.03-1.85,2.23-3.6,3.53-5.28.6-.76,1.2-1.51,1.83-2.25,1.58-1.87,3.28-3.68,5.13-5.31h0c1.88-1.66,3.91-3.13,6.08-4.27,3.35-1.78,7.05-2.81,11.12-2.65,6.36.24,11.53,4.09,14.11,9.82,1.01,2.24,1.36,4.66,1.11,7.1Z"/><path class="cls-5" d="m391.37,423.97c-2.75,4.08-7.03,7.73-12.41,10.16-1.58.72-3.2,1.35-4.84,1.89-1.11.37-2.24.69-3.39.97-2.23.55-4.51.92-6.81,1-1.47.05-2.89-.02-4.23-.21-4.53-.67-8.13-2.81-9.93-6.79-1.54-3.41-.57-7.33.87-10.58.36-.8.75-1.58,1.18-2.35,1.03-1.85,2.23-3.6,3.53-5.28.6-.76,1.2-1.51,1.83-2.25,1.58-1.87,3.28-3.68,5.13-5.31-1.82,2.16-3.12,4.44-4.04,5.86-2.63,4.02-4.4,8.4-3.31,13.26.12-.74.89-2.19,1.39-2.83-.11,5.18,5.21,8.8,9.43,9.54,6.54,1.14,13.53-.78,19.46-3.45,2.26-1.03,4.32-2.23,6.16-3.63Z"/></g><g id="G12L12T01_labrador"><path class="cls-13" d="m301.12,378.57c.05,3.13-.64,6.1-2.94,8.21-6.64,6.07-18.3,4.33-27.11-3.65-3.8-3.45-6.27-7.37-7.97-12.23-.3-.85-.56-1.73-.79-2.63-.84-3.17-1.26-6.58-1.19-9.76,0-.26.02-.51.02-.77.02-.37.04-.74.08-1.11.35-4.29,1.71-8.57,5.22-11.36,3.06-2.44,6.36-3.23,10.2-3.52,4.15-.31,7.28.45,10.64,2.93,1.24.91,2.34,1.92,3.31,3.02,5.17,5.78,6.85,13.5,8.72,20.78.58,2.26,1.32,5.02,1.64,7.79.09.78.15,1.54.16,2.3Z"/><path class="cls-5" d="m301.12,378.57c.05,3.13-.64,6.1-2.94,8.21-6.64,6.07-18.3,4.33-27.11-3.65-3.8-3.45-6.27-7.37-7.97-12.23-.3-.85-.56-1.73-.79-2.63-.84-3.17-1.26-6.58-1.19-9.76,0-.26.02-.51.02-.77.02-.37.04-.74.08-1.11,0,0,0-.02,0-.02,2.26,11.95,7.63,21.69,15.13,25.69-.49-.9-.96-1.8-1.27-2.74,5.71,6.1,16.64,7.74,23.1,1.83,1.51-1.39,2.34-3.21,2.66-5.34.04.08.07.15.1.23.09.78.15,1.54.16,2.3Z"/></g><g id="G13L13T01_labrador"><path class="cls-13" d="m414.87,368.26c-.23.9-.49,1.78-.79,2.63-1.7,4.87-4.17,8.79-7.97,12.23-8.81,7.99-20.47,9.73-27.11,3.65-2.3-2.1-2.99-5.08-2.94-8.21,0-.39.02-.79.05-1.18.22-3.14,1.09-6.34,1.75-8.91,1.87-7.28,3.55-15.01,8.72-20.78.97-1.1,2.07-2.11,3.31-3.02,3.36-2.48,6.5-3.24,10.64-2.93,3.85.29,7.15,1.08,10.2,3.52,3.81,3.04,5.09,7.81,5.3,12.47,0,.26.02.51.02.77.07,3.17-.35,6.58-1.19,9.76Z"/><path class="cls-5" d="m414.87,368.26c-.23.9-.49,1.78-.79,2.63-1.7,4.87-4.17,8.79-7.97,12.23-8.81,7.99-20.47,9.73-27.11,3.65-2.3-2.1-2.99-5.08-2.94-8.21,0-.39.02-.79.05-1.18.24,2.52,1.31,4.68,3.05,6.27,6.87,6.29,15.96,3.61,22.48-1.44.02.31.1.95.1,1.32,6.46-4.91,11.5-13.97,14.29-25.81,0,.26.02.51.02.77.07,3.17-.35,6.58-1.19,9.76Z"/></g></g><g><path class="cls-21" d="m225.37,358.02c0,5.57-.52,11-1.5,16.25h0c-1.76,9.36-5,18.12-9.44,25.99h0c-2.78,4.93-6.04,9.5-9.7,13.65,0,0,0,0,0,0-13.37,15.15-32.13,24.58-52.91,24.58s-39.03-9.17-52.36-23.96c0,0,0,0,0,0-3.78-4.19-7.13-8.82-10-13.83,0,0,0,0,0,0-3.2-5.59-5.79-11.64-7.67-18.04h0c-1.23-4.2-2.16-8.55-2.75-13.02h0c-.5-3.79-.76-7.67-.76-11.61,0-5.99.6-12.55,1.73-19.41.83-5.05,1.96-10.26,3.35-15.53,2.2-8.33,5.06-16.82,8.49-25.05,2.46-5.9,5.21-11.67,8.22-17.15,13.29-24.23,31.57-42.89,51.75-42.89,12.98,0,25.18,7.72,35.76,19.68,3.25,3.67,6.35,7.74,9.28,12.12,2.36,3.52,4.6,7.24,6.72,11.1h0c3,5.47,5.75,11.23,8.2,17.12,8.06,19.33,12.99,40.1,13.53,56.97.03,1.03.05,2.04.05,3.04Z"/><path class="cls-20" d="m222.95,335.33q.33,3.2.54,6.34l.08,2.29c.1,7.06-.49,12.59-2.03,19.09-.12-.47-.29-1.09-.41-1.56-2.22-9.06-5.61-20.65-17.68-43.75-.04,16.31-1.33,28.57-8.05,46.65-7.67-11.1-15.68-21.97-23.03-33.29-3.61,7.69-4.36,9.29-8.89,17.33l-2.64,4.39-2.69,4.28c-.97,1.48-2.98,4.57-5.99,8.78-.17-.19-.4-.44-.57-.62-3.45-5.88-12.13-22.01-18.19-44.93-.22.45-.51,1.04-.73,1.48-8.23,16.47-14.69,28.06-22.87,42.73-.36-.69-.84-1.61-1.2-2.31-2.11-4.24-7.72-15.49-10.33-31.21-1.78,2.98-4.12,6.97-5.85,9.98-2.81,5.02-3.41,6.26-5.67,10.85l-1.52,3.39-1.3,3.26-1.07,3.13-.46,1.57c-2.38-9.23-2.4-15.97-2.22-21.56l.14-2.31c.17-2.06.22-2.59.48-4.65-.51,3.27-.6,4.04-.95,7.31l-.21,2.39c-.9,12.97.47,24.05,4.46,35.92.26-1.49.6-3.47.99-4.93l1.06-3.1,1.37-3.21,1.66-3.04,1.88-2.67,2.08-2.84.55-.75c2.13,10.52,6.09,30.11,22.66,52.68.82-16.28,12.19-38.78,13.28-40.07q.43.2,6.45,9.38c1.63,2.54,3.83,5.91,5.52,8.41,3.28,4.68,5.44,7.78,10.42,14.38,4.51-5.94,6.85-9.03,10.62-14.37,1.73-2.51,4.02-5.87,5.69-8.41q3.96-6.11,6.41-9.72c1.32,1.51,13.17,21.01,15.71,35.79,13.99-19.56,18.12-35.25,20.89-48.42.16.23.37.54.53.77l1.92,2.85q1.61,2.49,3.18,5.78l1.18,3.26.87,3.15c.26,1.5.61,3.51.74,5.03.65-2.18,1.55-5.09,2.1-7.3,2.44-10.84,2.96-19.21,1.95-30.9l-.26-2.41c-.17-1.33-.31-2.47-.59-4.27"/><path class="cls-11" d="m203.6,412.55c3.57-4.05,6.75-8.51,9.47-13.32h0c4.34-7.68,7.5-16.24,9.21-25.37h0c.96-5.13,1.46-10.43,1.46-15.87,0-.97-.02-1.96-.05-2.97,0-.11,0-.22-.01-.33-12.72,12.04-29.3,19.33-47.44,19.33-40.06,0-72.54-35.53-72.54-79.37,0-5.51.51-11.51,1.49-17.78-6.15,9.86-11.43,21.02-15.58,32.41-1.72,4.86-3.23,9.76-4.5,14.6-1.36,5.15-2.46,10.23-3.27,15.16-1.11,6.7-1.69,13.1-1.69,18.95,0,3.85.25,7.63.74,11.33h0c.57,4.36,1.48,8.61,2.68,12.71h0c1.83,6.25,4.36,12.15,7.49,17.61,0,0,0,0,0,0,2.79,4.89,6.07,9.41,9.76,13.5,0,0,0,0,0,0,13.02,14.44,31.11,23.39,51.12,23.39s38.59-9.2,51.65-23.99c0,0,0,0,0,0Z"/></g><circle class="cls-32" cx="363.5" cy="38.5" r="6.5"/><circle class="cls-32" cx="471.5" cy="261.5" r="6.5"/><circle class="cls-32" cx="29.5" cy="261.5" r="6.5"/></g></g></g></g></svg>