<svg version="1.2" xmlns="http://www.w3.org/2000/svg" viewBox="0 0 500 601" width="500" height="601"><defs><clipPath clipPathUnits="userSpaceOnUse" id="cp1"><path d="m0 0h500v601h-500z"/></clipPath><linearGradient id="P" gradientUnits="userSpaceOnUse"/><linearGradient id="g1" x1="249.1" y1="615.6" x2="250.4" y2="384" href="#P"><stop stop-color="#fff"/><stop offset=".3" stop-color="#fcfcfc"/><stop offset=".5" stop-color="#f3f3f3"/><stop offset=".7" stop-color="#e5e5e5"/><stop offset=".8" stop-color="#d0d0d0"/><stop offset="1" stop-color="#b6b6b6"/><stop offset="1" stop-color="#b0b0b0"/></linearGradient></defs><style>.a{fill:#d1dee4}.b{fill:#cceaf0}.c{mix-blend-mode:multiply;fill:url(#g1)}.d{mix-blend-mode:multiply;fill:#e4e4e4}.e{fill:#fbd58f}.f{mix-blend-mode:multiply;fill:#f1f1f1}.g{fill:#cacaca}.h{fill:#a6a6a6}.i{fill:#e8f8fe}.j{opacity:.2;mix-blend-mode:multiply}.k{fill:none;stroke:#fff;stroke-width:3}.l{fill:#fff061}.m{fill:#3e3e3d}.n{mix-blend-mode:multiply;fill:#3e3e3d}.o{mix-blend-mode:multiply;fill:#6f6f6f}.p{fill:#ebebeb}.q{mix-blend-mode:multiply;fill:#ebebeb}.r{mix-blend-mode:multiply;fill:#9b9b9a}.s{fill:#f9eb37}.t{fill:#222221}.u{fill:#fff}.v{fill:#cc7b88}.w{mix-blend-mode:multiply;fill:#895763}.x{fill:#f1dff5}.y{fill:#d6a656}.z{mix-blend-mode:multiply;fill:#d6a656}.A{mix-blend-mode:multiply;fill:#fff}.B{fill:#e5bda1}.C{fill:#dcadde}.D{mix-blend-mode:multiply;fill:#dcadde}</style><g clip-path="url(#cp1)"><path class="a" d="m0 0h500v378h-500z"/><path class="b" d="m-0.3 382h500.3v222.4h-500.3z"/><path class="c" d="m-0.3 382h500.3v222.4h-500.3z"/><path class="d" d="m540 606h-600l169.8-203.1 262.2-0.9 168 204z"/><path class="e" d="m537.4 606h-594.8l168.7-203.8 259.5-0.2 166.6 204z"/><path class="f" d="m398 435.3l-341.4 33.2 54.7-66.3 259.5-0.2 27.2 33.2z"/><path class="g" d="m0 378.1h500v24.1h-500z"/><path class="h" d="m0 399.8h500v2.4h-500z"/><path class="i" d="m0 375.5h500v2.4h-500z"/><path class="j" d="m351 477c-51.4 0-93-6.5-93-14.5 0-8 41.6-14.5 93-14.5 51.4 0 93 6.5 93 14.5 0 8-41.6 14.5-93 14.5z"/><path class="j" d="m131 477c-51.4 0-93-6.5-93-14.5 0-8 41.6-14.5 93-14.5 51.4 0 93 6.5 93 14.5 0 8-41.6 14.5-93 14.5z"/><path class="k" d="m29.5 378v-339h441.5v339"/><path class="f" d="m143.6 155.5c-39.2 0-76.3-3.1-114.4-9.3v-25.1c37.3 15.2 74.8 26.1 114.4 34.4z"/><path class="f" d="m242.8 69c-72.6 13.3-141.4 13-213.6-0.4v-29.8c70.1 23.9 139.7 33.6 213.6 30.2z"/><path class="f" d="m140.1 115.9c64.7 2.1 126.4-5.2 188.9-22.1v40.4c-68.3 4.7-122.3-2-188.9-18.3z"/><path class="f" d="m284.6 314.7c-39.2 0-76.3-3.1-114.4-9.4v-25c37.3 15.2 74.8 26 114.4 34.4z"/><path class="f" d="m383.8 228.1c-72.6 13.3-141.4 13.1-213.6-0.3v-29.8c70.1 23.9 139.7 33.6 213.6 30.1z"/><path class="f" d="m281.1 275.1c64.7 2 126.4-5.2 188.9-22.1v40.4c-68.3 4.7-122.3-2-188.9-18.3z"/><path class="l" d="m363.5 45c-3.6 0-6.5-2.9-6.5-6.5 0-3.6 2.9-6.5 6.5-6.5 3.6 0 6.5 2.9 6.5 6.5 0 3.6-2.9 6.5-6.5 6.5z"/><path class="l" d="m471.5 268c-3.6 0-6.5-2.9-6.5-6.5 0-3.6 2.9-6.5 6.5-6.5 3.6 0 6.5 2.9 6.5 6.5 0 3.6-2.9 6.5-6.5 6.5z"/><path class="l" d="m29.5 268c-3.6 0-6.5-2.9-6.5-6.5 0-3.6 2.9-6.5 6.5-6.5 3.6 0 6.5 2.9 6.5 6.5 0 3.6-2.9 6.5-6.5 6.5z"/><path class="m" d="m496.2 251.6q-0.6 1.7-1.6 3.2 0 0.1-0.1 0.2-0.1 0.2-0.3 0.5-0.6 0.8-1.2 1.6-0.3 0.3-0.6 0.6-0.1 0.1-0.1 0.2-0.3 0.3-0.7 0.6-0.9 1-2 1.8-0.5 0.4-1 0.8-0.9 0.7-1.9 1.3c-1.4 1-2.8 1.8-4.2 2.6q-0.8 0.4-1.5 0.8-0.2 0.1-0.3 0.2-2.3 1.2-4.5 2.2c-3.1 1.4-6.6 2.9-10 3.5q1.9 0.4 3.8 0.7-4.7 0.8-9.5 1.6 2.2 0.7 4.3 1.3c-5.4 0.9-10.9 2.1-15.3 4.7q-0.7 0.4-1.3 0.9-2.2 1.5-4.1 3.2c-5.2 4.8-9.8 12.2-12.2 18.5-3.3 8.5-4 17.2-5.6 26-1.5 9-4.5 17.8-8.7 26-3.2 6.2-7.5 11.7-14.5 13.7q1.6 0.2 3.2 0.4c-4.1 3-9.2 4.7-14.2 6.1q-1.3 0.4-2.6 0.8c-6.4 1.7-12.9 2.7-19.5 3.1-5.1 0.3-10.1 0.2-15-0.1-8-0.7-24-2.3-27.8-10.7-0.8-1.8-0.8-4 0.5-5.4 0.9-1 2.3-1.4 3.7-1.7q0.7-0.1 1.3-0.2 0.4-0.1 0.8-0.1 0.3-0.1 0.6-0.1 0.6-0.1 1.1-0.2 0.7 0 1.3-0.1c7.2-0.5 14.5 0.5 21.7-0.5 5.7-0.8 11.3-1.3 17-2.2q0.2-0.1 0.5-0.1 1.5-0.3 3.1-0.6 3.3-0.8 6.4-1.8 3.5-1.2 6.7-2.9c3.7-1.9 7-4.4 9.5-7.5 14.4-17.9 4.3-44.7 12.9-65.2 5.6-13.3 15.1-25.2 26.1-34.6q-0.1 0.5-0.1 1c1.6-1.3 2.9-2.7 4.6-3.9 1.9-1.3 4-2.4 5.8-3.7 4.5-2.6 9.1-4.8 13.8-6.5q-0.6 0.9-1.3 1.9c1.4-1.9 9.7-1.8 11.8-1.6 4.6 0.2 9.1 1.5 13.1 3.5q0.4 0.2 0.7 0.4c2.7 1.4 5 3.3 6.4 5.6q0.4 0.6 0.7 1.3c1.3 2.6 1.5 5.6 0.3 8.9z"/><path class="n" d="m496.2 251.6q-0.6 1.7-1.6 3.2 0 0.1-0.1 0.2-0.1 0.2-0.3 0.5-0.6 0.8-1.2 1.6-0.3 0.3-0.6 0.6-0.1 0.1-0.1 0.2-0.3 0.3-0.7 0.6-0.9 1-2 1.8-0.5 0.4-1 0.8-0.9 0.7-1.9 1.3c-1.4 1-2.8 1.8-4.2 2.6q-0.8 0.4-1.5 0.8-0.2 0.1-0.3 0.2-2.3 1.2-4.5 2.2c-3.1 1.4-6.6 2.9-10 3.5q1.9 0.4 3.8 0.7-4.7 0.8-9.5 1.6 2.2 0.7 4.3 1.3c-5.4 0.9-10.9 2.1-15.3 4.7q-0.7 0.4-1.3 0.9-2.2 1.5-4.1 3.2c-5.2 4.8-9.8 12.2-12.2 18.5-3.3 8.5-4 17.2-5.6 26-1.5 9-4.5 17.8-8.7 26-3.2 6.2-7.5 11.7-14.5 13.7q1.6 0.2 3.2 0.4c-4.1 3-9.2 4.7-14.2 6.1q-1.3 0.4-2.6 0.8c-6.4 1.7-12.9 2.7-19.5 3.1-5.1 0.3-10.1 0.2-15-0.1-8-0.7-24-2.3-27.8-10.7-0.8-1.8-0.8-4 0.5-5.4 0.9-1 2.3-1.4 3.7-1.7q0.7-0.1 1.3-0.2 0.4-0.1 0.8-0.1 0.3-0.1 0.6-0.1 0.6-0.1 1.1-0.2 0.7 0 1.3-0.1c7.2-0.5 14.5 0.5 21.7-0.5 5.7-0.8 11.3-1.3 17-2.2q0.2-0.1 0.5-0.1c1-0.2 2.2-0.3 3.1-0.6q3.3-0.8 6.4-1.8 3.5-1.2 6.7-2.9c-0.1 1-0.1 1.9-0.2 2.5-0.4 3.3-0.1 6.2 1.8 9 0.3 0.3 0.5 0.6 0.9 0.8 0.4 0.1 0.9 0 1.3-0.2 4.3-1.5 7.9-4.8 9.8-9q0.2 1 0.5 1.9c-0.1-0.6 2.5-3.9 2.9-4.6q1.5-2.8 3-5.6c1.7-3.6 2.8-7 4-10.7 2.5-7.3 4-14.9 5-22.5 1-7.6 1.2-15 3.6-22.4 2.1-6.4 5.4-12.5 10.2-17.2-0.1 1.5 0 3.1 0.4 4.6 1.9-2.4 4-4.6 6.3-6.5q0 1.1 0 2.2c0-1.4 4.2-2.8 5.2-3.4 2.6-1.5 5.1-3 7.9-4.2 8.5-3.6 17.8-4.9 26.1-9.2 5.1-2.6 9.7-6.5 12.3-11.6q0.6 0.8 1.2 1.5 0.9-2.3 1.8-4.7c1.2 2.6 1.5 5.6 0.3 8.9z"/><path class="m" d="m323.1 461.7q-0.1 0.3-0.2 0.7-0.1 0.2-0.2 0.5-0.1 0.1-0.2 0.3-0.1 0.4-0.4 0.7-0.2 0.4-0.4 0.7c-1.4 1.9-3.3 3-5.4 3.6-1.8 0.5-3.8 0.6-5.8 0.5q-0.6-0.1-1.1-0.1-0.6-0.1-1.1-0.2-0.7-0.1-1.3-0.2-0.5-0.1-1-0.2-0.7-0.2-1.5-0.2c-1 0-1.9 0.2-2.9 0.5-2.6 0.6-5.4 1.1-8.1 0.8q-0.2 0-0.5 0-1.7-0.2-3.3-0.9c-0.5-0.2-1-0.5-1.6-0.6q-0.2 0-0.4-0.1c-0.6 0-1.2 0.1-1.8 0.2-1 0.2-2.2 0.2-3.3 0.1-1.3-0.1-2.6-0.3-3.7-0.8q-0.1 0-0.2-0.1-0.3-0.1-0.6-0.3-0.3-0.1-0.5-0.2-0.3-0.2-0.5-0.3-0.2-0.1-0.3-0.3-0.3-0.1-0.5-0.3-0.3-0.3-0.5-0.6-0.3-0.2-0.5-0.5-0.2-0.3-0.3-0.6c-1.4-2.4-1.4-5.4-0.6-8.1 0.4-1.2 1-2.5 1.6-3.5 1.4-2.2 3.1-3.5 5.2-4.3q1.1-0.4 2.2-0.7 0.5-0.1 1-0.2c6.2-1.7 10.1-4.3 10.8-12 0-0.5 0.1-1.2-0.2-1.7q-0.2-0.3-0.5-0.6-0.4-0.3-0.9-0.6c-9.2-5.6-15.9-12.7-20.2-22.5-0.1 0.2-0.8 1.3-0.8 1.5q-1.3-3-1.7-6.3c-0.1 0.3-0.6 0.5-0.9 0.4-2-0.5-0.7-14-0.5-15.7 0.8-5.3 2.5-10.5 4.4-15.5 1.5-3.5 2.9-7.3 4.6-11.2 3.9-9 8.7-18.1 15.9-23.7 8.9-7 16.4 2.7 22.7 8.5 4.5 4.1 10.9 13.5 12.2 19.5 3 13.6-9.9 22.6-11.1 35.3q-0.4-0.3-0.9-0.5-0.4 3.6-0.2 7.3-1.1-1.1-2.2-2.2c0 4.7 1 8.9 3.6 12.8 2 3.1 4.9 5.9 5.3 9.5 0.1 0.9 0.1 1.9 0 2.8-0.4 9.8 2.2 20.2-0.6 29.6z"/><path class="o" d="m323.1 461.7q-0.1 0.3-0.2 0.7-0.1 0.2-0.2 0.5-0.1 0.1-0.2 0.3-0.1 0.4-0.4 0.7-0.2 0.4-0.4 0.7c-1.4 1.9-3.3 3-5.4 3.6q-3 0.8-7 0.4-0.5-0.1-1.1-0.2-0.6-0.1-1.2-0.2-0.5-0.1-1-0.2-0.7-0.2-1.5-0.2c-1 0-1.9 0.2-2.9 0.5-2.6 0.6-5.4 1.1-8.1 0.8q-0.2 0-0.5 0-1.7-0.2-3.3-0.9c-0.5-0.2-1-0.5-1.6-0.6q-0.2 0-0.4-0.1c-0.6 0-1.2 0.1-1.8 0.2-1 0.2-2.2 0.2-3.3 0.1-1.3-0.1-2.6-0.4-3.7-0.8q-0.1 0-0.2-0.1-0.3-0.1-0.6-0.3-0.3-0.1-0.5-0.2-0.3-0.2-0.5-0.3-0.2-0.1-0.4-0.3-0.2-0.1-0.4-0.3-0.3-0.3-0.6-0.6-0.2-0.2-0.4-0.5-0.2-0.3-0.3-0.6c-1.4-2.4-1.4-5.4-0.6-8.1q0.2 1.1 0.6 2.1c1.3 3 4.5 5 7.7 4.5 2-0.4 6.3-3.4 6.4-5.9 0 1.7 0.2 4.2 1.7 5.3 1.7 1.2 5 1.1 6.9 0.8 3.7-0.6 6.4-3.2 6.9-7.1-0.6 4.6 1.9 6.9 6.2 7.1 4 0.1 7.1-1.7 8.3-5.5 0.3-1 0.4-1.9 0.5-2.9-0.5 0.4-1.9 1.4-2.5 1.1 1.3 0.7 1.1-10.7 1-11.1-0.6-4.3-1.7-8.5-3.2-12.6-2.3-5.9-6.6-10.2-9.3-15.7q-0.5 1-1 2.1c-2.1-3.8-3.5-8-4.2-12.3q-0.8 2.3-1.7 4.5c-6-11.2-10.5-23.3-15.9-34.8-2-4.3-3.9-8.2-4.3-12.5 3.8-9 8.7-18.1 15.9-23.7 8.9-7 16.4 2.7 22.7 8.4 4.4 4.2 10.9 13.6 12.2 19.5 3 13.7-9.9 22.7-11.1 35.3q-0.4-0.2-0.9-0.5-0.5 3.7-0.2 7.4-1.1-1.1-2.2-2.2c0 4.6 1 8.8 3.6 12.8 2 3 4.8 5.8 5.3 9.5 0.1 0.9 0.1 1.9 0 2.8-0.4 9.8 2.2 20.2-0.7 29.6z"/><path class="p" d="m275 459.1q0.1-1.4 0.5-2.5c0.4-1.2 1-2 1.7-2q0.2 0 0.4 0.2c0.5 0.3 1 0.9 1.2 1.6 0.3 1.2 0.2 2.9-0.2 3.9-0.3 0.8-0.7 1.3-1.1 1.8-0.8 1.2-1.4 3.1-1.6 5.3-0.4-1.7-0.8-3.5-0.9-5.3q0-0.6-0.1-1.1 0-1 0.1-1.9z"/><path class="q" d="m274.9 461q0-1 0.1-1.9c0 0.6 0.1 1.5 0.3 2.2 0.1 0.6 0.3 1 0.6 0.9 0.2-0.1 0.4-0.4 0.6-0.7l1.2-2q0.2-0.3 0.3-0.7c0.3-0.7 0.3-1.9 0.1-2.7-0.1-0.2-0.3-0.8-0.5-1.3 0.5 0.3 1 0.9 1.2 1.6 0.3 1.2 0.2 2.9-0.2 4-0.3 0.7-0.7 1.2-1.1 1.7-0.8 1.2-1.4 3.1-1.5 5.3-0.5-1.7-0.8-3.5-1-5.3q0-0.6-0.1-1.1z"/><path class="p" d="m288.9 461.4q0-0.2 0-0.4 0.1-0.6 0.1-1.2 0.2-1.4 0.6-2.7c0.7-2.3 1.6-2.8 2.9-2.2q0.2 0.1 0.4 0.3c0.9 0.8 1.2 2.3 1.3 4.2 0 1-0.1 2-0.4 2.8-0.4 0.9-0.9 1.4-1.4 1.9-1.3 1.4-2 3.8-2.4 6.3-0.9-2.7-1.2-5.9-1.1-9z"/><path class="q" d="m290 470.4c-0.9-2.7-1.2-5.9-1.1-9q0-0.2 0-0.4 0.1-0.6 0.1-1.2c0 0.6 0.2 1.6 0.3 2 0.1 0.5 0.3 1.1 0.6 1.2 0.2 0.1 0.5-0.2 0.7-0.4q0.6-0.5 1.1-1c0.5-0.4 1.1-0.9 1.4-1.7 0.4-0.8 0.3-1.8 0.2-2.8-0.1-0.5-0.2-1.3-0.4-1.9 0.9 0.8 1.2 2.3 1.3 4.2 0 1-0.1 2-0.4 2.8-0.4 0.9-0.9 1.4-1.4 1.9-1.3 1.4-2 3.8-2.4 6.3z"/><path class="p" d="m307 454.9q0.3 0.1 0.5 0.3 0.1 0.1 0.1 0.2c1.2 1.3 1.6 3.2 1 5.2-0.5 1.7-1.4 3.1-2.1 4.7q-0.5 1.2-0.9 2.5c-0.2 0.5-0.7 1.8-0.5 2.4q-0.1-0.3-0.1-0.5-0.5-2.1-0.9-4.2c-0.3-1.8-0.7-3.7-0.7-5.6 0.1-2.7 1.3-6.1 3.6-5z"/><path class="q" d="m303.4 459.9c0.3 1.4 0.6 2.9 1.4 3.8 0.1 0.1 0.2 0.1 0.3 0.1q0 0 0-0.1 0.4-0.9 0.9-1.6c0.3-0.4 0.7-0.8 0.9-1.2 0.6-0.8 0.9-1.8 1-2.9 0.2-1.1-0.2-1.7-0.3-2.6 1.2 1.3 1.6 3.2 1 5.2-0.5 1.7-1.4 3.1-2.1 4.7q-0.5 1.2-0.9 2.5c-0.1 0.5-0.6 1.8-0.5 2.4q-0.1-0.3-0.1-0.5-0.5-2.1-0.9-4.2c-0.3-1.8-0.7-3.7-0.7-5.6z"/><path class="o" d="m307.4 447.9q-0.4 0.2-0.8 0.3c-0.8 0.3-1.5 0.6-2.2 0.7-1.3 0.1-2.5-0.6-3.7-1-2.3-0.8-4.8-0.7-7 0.1-0.5 0.2-0.9 0.4-1.3 0.4-0.4-0.1-0.7-0.2-1-0.4-2.2-1-4.6-1-7-1 6.2-1.7 10.1-4.3 10.8-11.9 0-0.6 0.1-1.3-0.2-1.8q-0.2-0.3-0.5-0.6c1.7 0.8 3.4 1.4 5.1 2.3 5 2.8 9.8 8.1 12.5 13.1-1.8-0.4-2.9-0.8-4.7-0.2z"/><path class="m" d="m338.6 461.7c-2.8-9.4-0.3-19.8-0.7-29.6 0-0.9-0.1-1.9 0-2.8 0.5-3.6 3.3-6.4 5.3-9.5 2.7-3.9 3.6-8.1 3.6-12.8q-1.1 1.1-2.1 2.2 0.2-3.7-0.3-7.3-0.4 0.2-0.9 0.5c-1.2-12.7-14-21.7-11.1-35.3 1.3-6 7.8-15.4 12.3-19.5 6.2-5.8 13.7-15.5 22.7-8.5 7.2 5.6 12 14.7 15.9 23.7 1.6 3.9 3.1 7.7 4.5 11.2 2 5 3.7 10.2 4.4 15.5 0.3 1.7 1.6 15.2-0.4 15.7-0.4 0.1-0.8-0.1-1-0.4q-0.3 3.3-1.6 6.3c0-0.2-0.8-1.3-0.9-1.5-4.2 9.8-10.9 16.9-20.2 22.5q-0.4 0.3-0.8 0.6-0.3 0.3-0.5 0.6c-0.3 0.5-0.3 1.2-0.2 1.7 0.7 7.7 4.6 10.3 10.8 12q0.5 0.1 1 0.2 1.1 0.3 2.1 0.7c2.1 0.8 3.8 2.1 5.2 4.3 0.7 1 1.3 2.3 1.6 3.5 0.9 2.7 0.9 5.7-0.5 8.1q-0.2 0.3-0.3 0.6-0.3 0.3-0.5 0.5-0.3 0.3-0.6 0.6-0.2 0.2-0.4 0.3-0.2 0.2-0.4 0.3-0.2 0.1-0.4 0.3-0.3 0.1-0.5 0.2-0.3 0.2-0.7 0.3-0.1 0.1-0.1 0.1c-1.2 0.5-2.5 0.7-3.7 0.8-1.2 0.1-2.3 0.1-3.4-0.1-0.6-0.1-1.1-0.2-1.7-0.2q-0.3 0.1-0.5 0.1c-0.5 0.1-1 0.4-1.5 0.6q-1.7 0.7-3.3 0.9-0.3 0-0.6 0c-2.7 0.3-5.4-0.2-8.1-0.8-0.9-0.3-1.9-0.5-2.9-0.5q-0.7 0-1.4 0.2-0.6 0.1-1.1 0.2-0.6 0.1-1.2 0.2-0.6 0.1-1.1 0.2-0.6 0-1.1 0.1c-2 0.1-4 0-5.8-0.5-2.2-0.6-4.1-1.7-5.4-3.6q-0.3-0.3-0.5-0.7-0.2-0.3-0.4-0.7-0.1-0.2-0.2-0.3-0.1-0.3-0.1-0.5-0.2-0.4-0.3-0.7z"/><path class="o" d="m338.6 461.7c-2.8-9.4-0.3-19.8-0.7-29.6 0-0.9-0.1-1.9 0.1-2.8 0.4-3.7 3.2-6.5 5.3-9.5 2.6-4 3.6-8.2 3.5-12.8q-1 1.1-2.1 2.2 0.2-3.7-0.3-7.4-0.4 0.3-0.8 0.5c-1.3-12.6-14.1-21.6-11.1-35.3 1.2-5.9 7.7-15.3 12.2-19.5 6.3-5.7 13.7-15.4 22.7-8.4 7.2 5.6 12 14.7 15.9 23.7-0.4 4.3-2.3 8.2-4.4 12.5-5.4 11.5-9.8 23.6-15.9 34.8q-0.8-2.2-1.7-4.5c-0.6 4.3-2.1 8.5-4.1 12.3q-0.5-1.1-1-2.1c-2.7 5.5-7 9.8-9.3 15.7-1.6 4.1-2.6 8.3-3.2 12.6-0.1 0.4-0.3 11.8 1 11.1-0.7 0.3-2-0.7-2.5-1.1 0.1 1 0.2 1.9 0.4 2.9 1.2 3.8 4.4 5.6 8.4 5.5 4.3-0.2 6.8-2.5 6.2-7.1 0.5 3.9 3.2 6.5 6.8 7.1 1.9 0.3 5.2 0.4 6.9-0.8 1.6-1.1 1.8-3.6 1.8-5.3 0 2.5 4.3 5.5 6.4 5.9 3.2 0.5 6.3-1.5 7.6-4.5q0.4-1 0.7-2.1c0.8 2.7 0.8 5.7-0.6 8.1q-0.2 0.3-0.3 0.6-0.2 0.3-0.5 0.5-0.3 0.3-0.5 0.6-0.2 0.2-0.5 0.3-0.2 0.2-0.4 0.3-0.2 0.1-0.4 0.3-0.2 0.1-0.5 0.2-0.3 0.2-0.7 0.3 0 0.1-0.1 0.1c-1.2 0.4-2.4 0.7-3.7 0.8-1.2 0.1-2.3 0.1-3.4-0.1-0.5-0.1-1.1-0.2-1.7-0.2q-0.3 0.1-0.5 0.1c-0.5 0.1-1 0.4-1.5 0.6q-1.7 0.7-3.3 0.9-0.3 0-0.6 0c-2.7 0.3-5.4-0.2-8.1-0.8-0.9-0.3-1.9-0.5-2.9-0.5q-0.7 0-1.4 0.2-0.5 0.1-1.1 0.2-0.6 0.1-1.2 0.2-0.6 0.1-1.1 0.2-3.9 0.4-6.9-0.4c-2.2-0.6-4.1-1.7-5.4-3.6q-0.3-0.3-0.5-0.7-0.2-0.3-0.4-0.7-0.1-0.2-0.2-0.3-0.1-0.3-0.1-0.5-0.2-0.4-0.3-0.7z"/><path class="o" d="m349.7 448.1c2.7-5 7.4-10.3 12.5-13.1 1.6-0.9 3.4-1.6 5.1-2.3q-0.3 0.3-0.5 0.6c-0.3 0.5-0.3 1.2-0.2 1.7 0.7 7.7 4.6 10.3 10.8 12-2.4 0-4.8 0-7 1-0.4 0.2-0.7 0.3-1 0.4-0.5 0-0.9-0.2-1.3-0.4-2.2-0.8-4.8-0.9-7-0.1-1.2 0.4-2.5 1.1-3.7 1-0.8-0.1-1.5-0.4-2.2-0.7q-0.4-0.1-0.9-0.3c-1.7-0.6-2.9-0.2-4.6 0.2z"/><path class="p" d="m386.8 461q0 0.5 0 1.1c-0.2 1.8-0.6 3.6-1 5.3-0.2-2.1-0.7-4.1-1.5-5.3-0.4-0.5-0.9-1-1.2-1.7-0.4-1.1-0.5-2.8-0.1-4 0.1-0.7 0.7-1.3 1.1-1.6q0.3-0.2 0.5-0.2c0.7 0 1.3 0.8 1.7 2q0.4 1.1 0.5 2.5 0 0.9 0 1.9z"/><path class="q" d="m386.8 461q0 0.5 0 1.1c-0.2 1.8-0.6 3.6-1 5.3-0.2-2.1-0.7-4.1-1.5-5.3-0.4-0.5-0.9-1-1.2-1.7-0.4-1.1-0.5-2.8-0.1-4 0.1-0.7 0.7-1.3 1.1-1.6-0.2 0.5-0.4 1.1-0.4 1.3-0.3 0.8-0.3 2 0 2.7q0.2 0.4 0.4 0.7l1.2 2c0.2 0.3 0.3 0.6 0.6 0.7 0.2 0.1 0.4-0.3 0.6-0.9 0.1-0.7 0.2-1.6 0.3-2.2q0 0.9 0 1.9z"/><path class="p" d="m371.8 470.4c-0.4-2.5-1.2-4.9-2.4-6.3-0.5-0.5-1.1-1-1.4-1.9-0.3-0.8-0.4-1.8-0.4-2.8 0-1.9 0.4-3.4 1.2-4.2q0.2-0.2 0.5-0.3c1.2-0.6 2.2-0.1 2.9 2.2q0.4 1.3 0.5 2.7 0.1 0.6 0.1 1.2 0 0.2 0 0.4c0.2 3.1-0.2 6.3-1 9z"/><path class="q" d="m371.8 470.4c-0.4-2.5-1.2-4.9-2.4-6.3-0.5-0.5-1.1-1-1.4-1.9-0.3-0.8-0.4-1.8-0.4-2.8 0-1.9 0.4-3.4 1.2-4.2-0.2 0.6-0.3 1.4-0.3 1.9-0.2 1-0.2 2 0.1 2.8 0.4 0.8 0.9 1.3 1.4 1.7q0.6 0.5 1.2 1c0.2 0.2 0.4 0.5 0.7 0.4 0.3-0.1 0.4-0.7 0.5-1.2 0.2-0.4 0.4-1.4 0.3-2q0.1 0.6 0.1 1.2 0 0.2 0 0.4c0.2 3.1-0.2 6.3-1 9z"/><path class="p" d="m358.3 459.9c0.1 1.9-0.3 3.8-0.7 5.6q-0.4 2.1-0.8 4.2-0.1 0.2-0.1 0.5c0.1-0.6-0.4-1.9-0.5-2.4q-0.4-1.3-1-2.5c-0.7-1.6-1.5-3-2-4.7-0.6-2-0.3-3.9 0.9-5.2q0.1-0.1 0.2-0.2 0.2-0.2 0.4-0.3c2.3-1.1 3.6 2.3 3.6 5z"/><path class="q" d="m358.3 459.9c0.1 1.9-0.3 3.8-0.7 5.6q-0.4 2.1-0.8 4.2-0.1 0.2-0.1 0.5c0.1-0.6-0.4-1.9-0.5-2.4q-0.4-1.3-1-2.5c-0.7-1.6-1.5-3-2-4.7-0.6-2-0.3-3.9 0.9-5.2-0.1 0.9-0.4 1.5-0.3 2.6 0.1 1.1 0.5 2.1 1 2.9 0.3 0.4 0.7 0.8 1 1.2q0.5 0.7 0.8 1.6 0.1 0.1 0.1 0.1c0.1 0 0.2 0 0.2-0.1 0.8-0.9 1.2-2.4 1.4-3.8z"/><path class="p" d="m249.8 355.7q-0.4-1.2-0.5-2.5c-0.1-0.7 0.4-0.9 1-1.2 0.5-0.3 1.8-0.4 2.4-0.4 0.5-0.1 1.1 0 1.6 0.3 0.2 0 1.3 0.7 1.2 1-1.5 2.1-2.1 6-2 8.5-1.3-1.1-3.2-4-3.7-5.7z"/><path class="q" d="m254.3 351.9c0.2 0 1.3 0.8 1.2 1-1.5 2.1-2.1 6-2.1 8.5q-0.2-0.2-0.5-0.6c-0.3-0.2-0.3-1-0.3-1.4-0.2-0.9 0.3-2.5-0.5-3.2-0.3-0.3-0.8-0.3-1.2-0.3-0.1 0-1 0-1 0.1q-0.1-0.1-0.1-0.2-0.4-1.3-0.5-2.6c-0.1-0.7 0.5-0.9 1-1.2 0.5-0.3 1.8-0.4 2.4-0.4 0.5 0 1.1 0 1.6 0.3z"/><path class="p" d="m244.2 351.3c-1.6 1.9-2.1 7.3-2.3 9.8-0.2-0.3-0.6-0.8-0.9-1.5-0.8-1.5-1.7-3.8-2.2-5.2q-0.2-0.6-0.2-1-0.3-1.3-0.3-2.6 0-0.1 0-0.2c0.2-0.4 0.6-0.7 1.2-0.9 0.5-0.2 1.1-0.3 1.6-0.2 0.6 0 1.2 0.2 1.7 0.5 0.1 0 1.6 1.1 1.4 1.3z"/><path class="q" d="m244.2 351.3c-1.6 1.9-2.1 7.3-2.3 9.8-0.2-0.3-0.6-0.8-0.9-1.5-0.2-0.4 0.2-1.1 0.3-1.5 0.1-0.5 0.3-1.6 0-2.2-0.1-0.4-0.9-0.7-1.3-0.9-0.4-0.2-0.8-0.4-1.2-0.6q-0.2-0.6-0.3-1-0.2-1.3-0.2-2.6 0-0.1 0-0.2c0.2-0.4 0.6-0.7 1.2-0.9 0.5-0.2 1.1-0.3 1.6-0.2 0.6 0 1.2 0.2 1.6 0.5 0.2 0 1.7 1.1 1.5 1.3z"/><path class="p" d="m234.4 344.4c-1.4 2.1-1.9 5.6-1.8 8.1q-0.3-0.3-0.7-0.7c-0.9-1.1-1.8-2.8-2.4-4.1q-0.2-0.4-0.3-0.8-0.4-1.2-0.4-2.5c-0.1-0.7 0.4-1 1-1.3 0.5-0.2 1.1-0.4 1.6-0.4 0.6 0 1.4 0.4 1.9 0.7 0.2 0 1.3 0.8 1.1 1z"/><path class="q" d="m234.4 344.4c-1.4 2.1-1.9 5.6-1.8 8.1q-0.3-0.3-0.7-0.7c-0.3-0.4-0.3-1.1-0.3-1.6 0-0.6 0-0.9-0.5-1.3q-0.8-0.6-1.6-1.2-0.2-0.4-0.3-0.8-0.4-1.2-0.5-2.5c0-0.7 0.5-1 1.1-1.3 0.5-0.2 1.1-0.4 1.6-0.4 0.6 0 1.4 0.4 1.9 0.7 0.1 0 1.3 0.7 1.1 1z"/><path class="m" d="m314.6 239.1q-0.1 0.5-0.1 1c-0.7 7.2-3.8 14.8-6.2 21.6-1.1 3.3-2.4 6.5-3.7 9.8-2.1 5.4-4.5 10.4-7.4 15.4q-3.8 7-8.2 13.6-2 3.1-4 6.1c-3.5 5.3-7.1 10.4-10.6 15.7q-1.1 1.7-2.3 3.5c-1.8 2.8-4 5.3-5.8 8.1q-0.1 0.3-0.3 0.6-0.4 0.6-0.6 1.2-0.2 0.4-0.3 0.7-0.2 0.5-0.4 1.1c-2.1 5.6-2.3 12.1-7.9 15.7-3.2 2.1-7.7 2.1-10.9 0.1-0.2-0.1-0.4-0.3-0.6-0.3-0.2 0-0.4 0-0.6 0.1-3.9 0.8-7.2 0.4-9.6-2.9-0.3-0.3-0.5-0.7-0.8-1-0.4-0.4-0.9-0.7-1.4-1q-1-0.6-1.9-1.3-0.5-0.4-1-0.7-0.1-0.1-0.2-0.2c-0.7-0.6-1.2-1.3-1.8-2q-1-1.4-1.6-3.2 0-0.1-0.1-0.1-0.2-0.7-0.4-1.4 0-0.2-0.1-0.4c-0.3-1.4-0.7-3-0.3-4.4l-0.6 0.6c0.2-1.3 0.4-2.6 0.8-3.9q-0.5 0.4-1 0.9 0.1-0.7 0.3-1.3c0.8-3.1 2.3-6.2 3.7-9.2q2.2-4.5 4.9-8.6 6.9-10.3 14.7-19.9 3.9-4.8 8-9.5 2.1-2.3 4.2-4.6c1.2-1.2 2.5-2.4 3.6-3.7-0.1 0-1-0.1-1.1 0 1.3-1.1 2.9-2 4.3-3.1q-0.7-0.2-1.3-0.6c1.4-1 3-1.8 4.4-2.9 1.3-1 2.4-2.4 3.6-3.5q3.9-4 7.9-7.8 7.6-7.4 15.4-14.6 0.3-0.2 0.5-0.4 3.4-3.1 6.7-6.1c1.7-1.5 3.6-3.1 5.8-3.2 3.6-0.2 4.5 2.6 4.3 6z"/><path class="o" d="m314.6 239.1q-0.1 0.5-0.1 1c-0.7 7.2-3.8 14.8-6.2 21.6-1.1 3.3-2.4 6.5-3.7 9.8-2.1 5.4-4.5 10.4-7.4 15.4q-3.8 7-8.2 13.6-2 3.1-4 6.1c-3.5 5.3-7.1 10.4-10.6 15.7q-1.1 1.7-2.3 3.5c-1.8 2.8-4 5.3-5.8 8.1q-0.1 0.3-0.3 0.6-0.4 0.6-0.6 1.2-0.2 0.4-0.3 0.7-0.2 0.5-0.4 1.1c-2.1 5.6-2.3 12.1-7.9 15.7-3.2 2.1-7.7 2.1-10.9 0.1-0.2-0.1-0.4-0.3-0.6-0.3-0.2 0-0.4 0-0.6 0.1-3.9 0.8-7.2 0.4-9.6-2.9-0.3-0.3-0.5-0.7-0.8-1-0.4-0.4-0.9-0.7-1.4-1q-1-0.6-1.9-1.3-0.5-0.4-1-0.7-0.1-0.1-0.2-0.2c-0.7-0.6-1.2-1.3-1.8-2q-1-1.4-1.6-3.2 0-0.1-0.1-0.1c1.6 1.5 3.5 2.6 5.6 2.8 0.6 0.1 1.3 0.1 1.9 0.3 0.6 0.1 0.8 0.4 1.3 0.8 0.8 0.7 1.7 1.3 2.7 1.7 2 0.7 4.2 0.5 6.3 0.1 0.5-0.1 1.1-0.3 1.6-0.2 1.3 0.1 2.3 1.1 3.5 1.5 3.4 1.1 6.9-2.4 8.5-5 3.8-6.2 4-14.6 6.7-21.4 3-7.6 7.1-14.7 12.1-21.2q0.3 1 0.6 2c1.5-2.8 19.2-33.7 16.6-34.6-0.8-0.3-1.7-0.1-2.3 0.4q0.7-2.9 1.4-5.8-1.9 0.3-3.8 0.6c0.5-0.4 1.7-4.4 2-4.9q1.1-2.8 2.3-5.5c1.4-3.1 2.8-6.3 4-9.5q0.2-0.2 0.5-0.4 3.4-3.1 6.7-6.2c1.7-1.4 3.6-3 5.8-3.1 3.6-0.2 4.4 2.6 4.2 6z"/><path class="p" d="m408.7 361.4c0-2.5-0.6-6.4-2-8.5-0.2-0.3 1-1 1.1-1 0.5-0.3 1.1-0.4 1.7-0.3 0.5 0 1.8 0.1 2.3 0.4 0.6 0.3 1.1 0.5 1.1 1.2q-0.1 1.3-0.6 2.5c-0.5 1.7-2.3 4.6-3.6 5.7z"/><path class="q" d="m407.8 351.9c0.5-0.3 1.1-0.3 1.6-0.3 0.6 0 1.9 0.1 2.4 0.4 0.6 0.3 1.1 0.5 1.1 1.2q-0.1 1.3-0.6 2.6 0 0.1 0 0.2c0-0.1-1-0.1-1.1-0.1-0.4 0-0.9 0-1.2 0.3-0.8 0.7-0.2 2.3-0.4 3.2-0.1 0.4-0.1 1.2-0.3 1.4q-0.3 0.4-0.6 0.6c0-2.5-0.6-6.4-2-8.5-0.2-0.3 1-1 1.1-1z"/><path class="p" d="m419.4 350c0.5-0.3 1-0.5 1.6-0.5 0.6-0.1 1.1 0 1.6 0.2 0.7 0.2 1 0.5 1.2 0.9q0 0.1 0 0.2 0.1 1.3-0.2 2.6-0.1 0.4-0.3 1c-0.5 1.4-1.3 3.7-2.2 5.2-0.3 0.7-0.6 1.2-0.9 1.5-0.2-2.5-0.6-7.9-2.3-9.8-0.2-0.2 1.3-1.2 1.5-1.3z"/><path class="q" d="m419.4 350c0.5-0.3 1-0.5 1.6-0.5 0.6-0.1 1.1 0 1.6 0.2 0.7 0.2 1 0.5 1.2 0.9q0 0.1 0 0.2 0.1 1.3-0.2 2.6-0.1 0.4-0.3 1c-0.4 0.2-0.8 0.4-1.2 0.6-0.4 0.2-1.1 0.5-1.3 0.9-0.2 0.6 0 1.7 0.1 2.2 0 0.4 0.4 1.1 0.2 1.5-0.3 0.7-0.6 1.2-0.9 1.5-0.2-2.5-0.6-7.9-2.3-9.8-0.2-0.2 1.4-1.2 1.5-1.3z"/><path class="p" d="m427.7 344.4c-0.1-0.3 1-1 1.1-1 0.6-0.3 1.3-0.7 1.9-0.7 0.5 0 1.1 0.2 1.6 0.4 0.6 0.3 1.1 0.6 1.1 1.3q-0.1 1.3-0.5 2.5-0.1 0.4-0.3 0.8c-0.5 1.3-1.5 3-2.4 4.1q-0.3 0.4-0.6 0.7c0-2.5-0.4-6-1.9-8.1z"/><path class="q" d="m428.8 343.4c0.6-0.3 1.3-0.7 1.9-0.7 0.5 0 1.1 0.2 1.6 0.4 0.6 0.3 1.1 0.6 1.1 1.3q-0.1 1.3-0.5 2.5-0.1 0.4-0.3 0.8-0.8 0.6-1.5 1.2c-0.5 0.4-0.6 0.7-0.6 1.3 0.1 0.5 0 1.2-0.3 1.6q-0.3 0.4-0.6 0.7c0-2.5-0.4-6-1.9-8.1-0.1-0.3 1-1 1.1-1z"/><path class="m" d="m347.6 239.1c-0.2-3.4 0.6-6.2 4.2-6 2.2 0.1 4.1 1.7 5.8 3.2q3.4 3 6.7 6.1 0.3 0.2 0.5 0.4 7.8 7.2 15.4 14.6 4 3.8 7.9 7.8c1.2 1.1 2.3 2.5 3.6 3.5 1.4 1.1 3 1.9 4.4 2.9q-0.5 0.4-1.2 0.6c1.3 1.1 2.9 2 4.3 3.1-0.1-0.1-1 0-1.2 0 1.2 1.3 2.5 2.5 3.6 3.7q2.2 2.3 4.2 4.6 4.1 4.7 8 9.5 7.8 9.6 14.7 19.9 2.8 4.1 5 8.6c1.4 3 2.8 6.1 3.6 9.2q0.2 0.6 0.3 1.3-0.4-0.5-0.9-0.9c0.3 1.3 0.6 2.6 0.7 3.9l-0.6-0.6c0.4 1.4 0 3-0.3 4.4q0 0.2-0.1 0.4-0.2 0.7-0.4 1.4 0 0 0 0.1-0.7 1.8-1.7 3.2c-0.6 0.7-1.1 1.4-1.8 2q-0.1 0.1-0.2 0.2-0.5 0.3-1 0.7-0.9 0.7-1.9 1.3c-0.5 0.3-1 0.6-1.4 1-0.3 0.3-0.5 0.7-0.8 1-2.4 3.3-5.7 3.7-9.6 2.9-0.2-0.1-0.4-0.1-0.6-0.1-0.2 0-0.4 0.2-0.5 0.3-3.2 2-7.8 2-11-0.1-5.6-3.6-5.8-10.1-7.8-15.7q-0.2-0.6-0.5-1.1-0.1-0.3-0.2-0.7-0.3-0.6-0.6-1.2-0.2-0.3-0.4-0.6c-1.8-2.8-4-5.3-5.8-8.1q-1.1-1.8-2.3-3.5c-3.5-5.3-7.1-10.4-10.6-15.7q-2-3-4-6.1-4.3-6.6-8.2-13.6c-2.8-5-5.3-10-7.4-15.4-1.2-3.3-2.6-6.5-3.7-9.8-2.4-6.8-5.4-14.4-6.1-21.6q-0.1-0.5-0.1-1z"/><path class="o" d="m347.6 239.1c-0.2-3.4 0.6-6.2 4.2-6 2.3 0.1 4.1 1.7 5.8 3.1q3.4 3.1 6.7 6.2 0.3 0.2 0.5 0.4c1.2 3.2 2.6 6.4 4 9.5q1.2 2.7 2.4 5.5c0.2 0.5 1.5 4.5 1.9 4.9q-1.9-0.3-3.8-0.6 0.7 2.9 1.4 5.8c-0.6-0.5-1.5-0.7-2.3-0.4-2.5 0.9 15.1 31.8 16.6 34.6q0.3-1 0.7-2c4.9 6.5 9 13.6 12 21.2 2.7 6.8 3 15.2 6.7 21.4 1.6 2.6 5.1 6.1 8.5 5 1.2-0.4 2.3-1.4 3.5-1.5 0.6-0.1 1.1 0.1 1.7 0.2 2 0.4 4.2 0.6 6.3-0.1 1-0.4 1.9-1 2.7-1.7 0.4-0.4 0.7-0.7 1.2-0.8 0.6-0.2 1.3-0.2 1.9-0.3 2.2-0.2 4.1-1.3 5.6-2.8q0 0 0 0.1-0.7 1.8-1.7 3.2c-0.6 0.7-1.1 1.4-1.8 2q-0.1 0.1-0.2 0.2-0.5 0.3-1 0.7-0.9 0.7-1.9 1.3c-0.5 0.3-1 0.6-1.4 1-0.3 0.3-0.5 0.7-0.8 1-2.4 3.3-5.7 3.7-9.6 2.9-0.2-0.1-0.4-0.1-0.6-0.1-0.2 0-0.4 0.2-0.5 0.3-3.2 2-7.8 2-11-0.1-5.6-3.6-5.8-10.1-7.8-15.7q-0.2-0.6-0.5-1.1-0.1-0.3-0.2-0.7-0.3-0.6-0.6-1.2-0.2-0.3-0.4-0.6c-1.8-2.8-4-5.3-5.8-8.1q-1.1-1.8-2.3-3.5c-3.5-5.3-7.1-10.4-10.6-15.7q-2-3-4-6.1-4.3-6.6-8.2-13.6c-2.8-5-5.3-10-7.4-15.4-1.2-3.3-2.6-6.5-3.7-9.8-2.4-6.8-5.4-14.4-6.1-21.6q-0.1-0.5-0.1-1z"/><path class="m" d="m383 263.6q-1.3-0.2-2.6-0.5c0.1 0.4 1.7 5.2 2 5.2-1 0-2-0.3-2.8-0.8 0.4 0.3-0.6 2.8-1.9 5.6-1.6 3.2-3.4 6.8-3.7 7.4q-2.4 5.7-4.2 11.6-0.3 0.8-0.5 1.7-0.3 1-0.5 2-0.2 0.6-0.4 1.3-0.2 0.9-0.4 1.8-0.3 1.5-0.6 3.1-0.3 1.7-0.5 3.4-0.2 0.8-0.3 1.6 0 0.2 0 0.3 0 0.1 0 0.3 0 0 0 0.1c-0.3 2.4-0.5 4.7-0.5 7.1-0.2 5.9 1.5 11.6 3.8 17 0.5 1.2 5.6 13.7 6.7 13.7-1.5 0.2-3-0.1-4.3-0.9q0.6 1.4 1.1 2.8-1.3-0.3-2.6-0.5c-0.2-0.1-0.5-0.1-0.7 0-0.2 0.1-0.3 0.3-0.4 0.4-1 1.8-2 3.6-3.2 5.2-0.6 0.8-2.8 2.5-2.8 3.4q0-1.7 0-3.4c-3.9 8-11.1 14-16 21.4q-0.1-1-0.2-2c-1.2 2.7-2.9 5.1-4.9 7 0.8-1.6 1.2-3.5 1.2-5.5-0.9 2.4-3.7 4.5-5.4 5.7q-0.8 0.5-1.6 0.8c-0.2 0.1-0.4 0.3-0.6 0.3q-0.6 0.3-1.2 0.5-0.5 0.2-1.1 0.3-0.1 0-0.1 0-0.6 0.2-1.1 0.2-0.6 0.1-1.2 0.2c-7.6 0.4-15.7-5.7-18.7-12.5 0.2 0.6 0 1.2-0.3 1.8-1.9-2.8-4-5.8-6.4-8.1-0.4 1-0.5 1.9-0.7 3-2.2-3.5-4.4-6.8-6.5-10.2-1.7-2.8-2.5-5.7-4.7-1.4-2.8-2.3-4.8-5.6-5.6-9.1q-1.9 0.7-3.9 1.4c1.6-2.9 3.1-6 4.4-9.1q0 0 0.1-0.1 0.2-0.6 0.5-1.2 0.6-1.3 1-2.7 0.3-0.6 0.5-1.3 0.2-0.6 0.4-1.3 0.7-2 1.2-4.1 0.2-0.7 0.4-1.5c0.7-3.3 1-6.6 1-9.9q0-0.9-0.1-1.8c-0.1-4.4-0.8-8.7-1.7-13.1-1.1-5.4-2.7-10.7-4.2-15.8q-0.1-0.3-0.2-0.6c-0.9-2.8-1.6-5.7-2.5-8.6q-0.1-0.4-0.2-0.8c-0.7-2.1-1.6-4.1-1.8-6.3q-1.1 0.8-2.3 1.6c0.4-0.3 0.6-4.9 0.8-5.7 0.3-1.5 0.4-3.2 1.3-4.5q-1.5 0.1-3 0.2 0.2-1.2 0.7-2.3c-1.4 0.3-2.9 0.4-4.3 0.1q5.7-5.7 11.5-11.5 0.2-0.2 0.3-0.3c-1.3-0.3-2.6-0.7-4-0.7 1.1-0.8 7.6-4.8 8.8-4.1-1.3-0.8-3.7-1.2-5.2-1.8 3.2-0.9 6.3-2.2 9.3-3.7q0.5-0.2 0.9-0.5 0.3-0.1 0.6-0.3 0.4-0.2 0.8-0.4 0 0 0 0c2.6-1.5 5.2-3.2 7.8-4.8q0.1 0 0.1-0.1 0.1 0 0.1-0.1 0.3-0.1 0.6-0.3 0 0 0-0.1 0.4-0.2 0.7-0.4 0.5-0.3 0.9-0.6 0.7-0.4 1.3-0.8 0.2-0.1 0.3-0.2c0.6-0.3 1.1-0.7 1.6-1.1q0.6-0.4 1.1-0.7 0.1 0 0.1-0.1 0.2-0.1 0.3-0.2 0 0 0.1 0c1.1-0.8 2.4-1.5 3.6-2.1q0.6-0.3 1.2-0.6 0.9-0.5 1.7-0.8 0.6-0.3 1.3-0.6 0.2-0.1 0.5-0.2 0.3-0.1 0.6-0.2 0.3-0.1 0.6-0.2 0.2-0.1 0.5-0.1 0.5-0.2 1-0.4 0.7-0.2 1.4-0.3c0.1 0 0.3-0.1 0.4-0.1q0.3 0 0.6-0.1 0 0 0 0 0.3 0 0.7-0.1 0.7-0.1 1.5-0.2 0.1 0 0.3 0 0.4 0 0.9 0h1.4q0.4 0 0.9 0 0.4 0.1 0.8 0.1 0.4 0 0.7 0.1 0.5 0.1 1 0.2 0.1 0 0.1 0 0.3 0.1 0.6 0.2 0.3 0 0.6 0.1 0.4 0.1 0.7 0.2c1.9 0.5 3.7 1.2 5.4 2.1 0.6 0.2 1.1 0.6 1.6 0.8q0.4 0.3 0.9 0.5 0.1 0.1 0.2 0.2c1.1 0.6 2.2 1.4 3.2 2 2.2 1.4 4.3 2.8 6.3 4.3q0 0 0.1 0 0 0 0 0 0.1 0.1 0.2 0.1c2.2 1.6 4.4 3.2 6.5 4.5q0.5 0.3 0.9 0.6c1.4 1 2.8 1.8 4.2 2.7q0.7 0.4 1.4 0.8 0 0 0.1 0 0.6 0.4 1.2 0.7c0.6 0.3 1.3 0.9 2 1q-1.3 0.2-2.5 0.3c-0.4 0-1.2 0-1.6-0.2 1.1 0.6 2.1 1.3 3.3 1.8 1.2 0.6 2.3 1.2 3.5 1.8-0.3 0.1-0.6 0.1-1 0.1h-0.2q-0.4 0-0.8 0-0.8-0.1-1.5-0.1-0.1 0-0.2 0 0 0 0 0c-0.2 0-0.6 0.1-0.7-0.1q1.1 1.1 2.3 2.2c3.3 3.4 6.5 7.2 9.2 11.1q1.6 2.4 3 4.8c-1.1-0.5-4.4-0.6-5.1-1.3q1.5 1.5 2.8 3.3z"/><path class="o" d="m376.6 345.5c-1.5 0.2-3-0.1-4.3-0.9q0.5 1.4 1.1 2.8-1.3-0.3-2.6-0.5c-0.3-0.1-0.5-0.1-0.8 0-0.1 0.1-0.2 0.3-0.3 0.4-1 1.8-2 3.6-3.2 5.2-0.6 0.8-2.8 2.5-2.8 3.4q0-1.7 0-3.4c-3.9 8-11.1 14-16 21.5q-0.1-1.1-0.2-2.1c-1.2 2.7-2.9 5.1-4.9 7 0.8-1.6 1.2-3.5 1.2-5.5-0.9 2.5-3.7 4.5-5.4 5.7q-0.8 0.5-1.6 0.9c-0.2 0.1-0.4 0.2-0.6 0.3q-0.6 0.2-1.2 0.4-0.5 0.2-1.1 0.3-0.1 0-0.1 0-0.6 0.2-1.1 0.2-0.6 0.2-1.2 0.2c-7.6 0.4-15.7-5.7-18.7-12.5 0.2 0.6 0 1.3-0.3 1.8-1.9-2.8-4-5.8-6.4-8.1-0.4 1-0.5 2-0.7 3-2.2-3.4-4.4-6.7-6.5-10.2-1.7-2.8-2.5-5.7-4.7-1.4-2.8-2.3-4.8-5.6-5.6-9.1q-1.9 0.8-3.9 1.4c1.6-2.9 3.1-5.9 4.4-9q0-0.1 0.1-0.2 0.2-0.6 0.5-1.2 0.6-1.3 1-2.6 0.3-0.7 0.5-1.4 0.2-0.6 0.4-1.3 0.7-2 1.2-4.1 0.2-0.7 0.4-1.5c0.7-3.2 1-6.5 1-9.8q0-1-0.1-1.9 0-0.3 0-0.5c-0.2-4-0.4-8.7-1.7-12.5q0 0 0 0c-1.1-5.5-2.7-10.8-4.2-15.8q-0.1-0.3-0.2-0.6c-0.9-2.9-1.6-5.8-2.5-8.6 4.6 6.1 7.8 13.2 11.8 19.7 1.3 2.2 3 5.9 5 7.4-1.3-0.9-2.9-1.6-4.6-1.9q1 1.6 2.1 3.2-1.2-0.6-2.5-1.1c0.7 2.9 0.8 5.7 1.3 8.6 1.3 9.4 0.9 19 2.7 28.4 1.5 7.9 7.9 15.3 13.3 21.3-0.2-1.1-0.3-2.3-0.5-3.4 1 1.6 2.3 3 3.7 4q-0.3-1.2-0.5-2.5c0.1 0.7 3.3 2.1 3.9 2.5 1.4 0.9 2.8 2 4.3 2.7 5.3 2.3 11.3-0.5 15.8-3.9q-0.8 1.6-1.6 3.2c0.6-1.2 2.7-1.5 3.6-2.2 2.9-2.1 4.7-4.9 7-7.2 6.1-6 11.1-12.6 12.7-20.8 1.5-8.2 0.1-16.7-0.5-24.3-0.2-2.5-0.1-5-2.5-6.9-0.4-0.2-2.8-2.4-3.3-2.1 2.6-2.1 6-4.3 8.1-7.1 2.2-3 4.3-6.1 6.3-9.6q2.9-5.3 6.6-10.2c-1.5 3.2-3.4 6.8-3.6 7.4q-2.5 5.7-4.3 11.6-0.2 0.8-0.5 1.7-0.3 1-0.5 2-0.2 0.6-0.3 1.3-0.2 0.9-0.4 1.8-0.4 1.5-0.7 3.1-0.3 1.7-0.5 3.4-0.1 0.8-0.2 1.6 0 0.2-0.1 0.3 0 0.1 0 0.3 0 0 0 0.1c-0.3 2.4-0.4 4.7-0.5 7.1-0.1 5.9 1.5 11.6 3.8 17 0.5 1.2 5.6 13.7 6.8 13.7z"/><path class="o" d="m375.2 243.6c-0.3 0.1-0.6 0.2-1 0.2h-0.2c-0.6-0.1-1.7-0.1-2.5-0.2q0 0 0 0c-0.4 0-0.6 0-0.7 0q1.1 1 2.3 2.1-0.8 0.4-1.5 0.8c-1.9 1.1-2.8 3.1-4.3 4.7-2.2 2.4-4.5 4.8-6.8 7-4.5 4.3-9 8.1-13.3 10.9-1.1 0.7-8.4 4.1-8.4 4.1 0 0 0.7-2.3 0.7-3.5-1.4 1.4-2.6 2.9-3.6 4.5-1.7-1.1-3.4-2.4-5.3-3.2 0.4 2.5 1.9 4.3 3.3 5.9-3.4-1.2-13.8-11.2-13.8-11.2 0 0 1.3 4.8 1.9 7-7.6-3.2-15.5-10.8-24.9-18.6-2.4-2.1-5.6-6.7-8.9-8.1q0.1-0.1 0.3-0.3c-1.3-0.3-2.6-0.6-4-0.7 1.1-0.8 7.6-4.8 8.8-4-1.3-0.9-3.7-1.2-5.2-1.8 3.2-0.9 6.3-2.2 9.3-3.7q0.5-0.3 0.9-0.6 0.3-0.1 0.6-0.2 0.4-0.2 0.8-0.5 0 0 0 0c2.8-1.2 5.3-3.2 7.8-4.8q0.1 0 0.1 0 0.1 0 0.1-0.1 0.3-0.2 0.6-0.4 0 0 0 0 0.4-0.2 0.7-0.4 0.5-0.3 0.9-0.6 0.7-0.4 1.3-0.8 0.2-0.1 0.3-0.2c0.6-0.4 1.1-0.8 1.6-1.1q0.6-0.4 1.1-0.8 0.1 0 0.1 0 0.1-0.1 0.3-0.2 0 0 0.1-0.1c1.2-0.7 2.3-1.4 3.6-2.1q0.6-0.3 1.2-0.6 0.8-0.4 1.7-0.8 0.6-0.3 1.3-0.5 0.2-0.1 0.5-0.2 0.3-0.1 0.6-0.3 0.3-0.1 0.6-0.2 0.2 0 0.4-0.1 0.6-0.2 1.1-0.3c0.5-0.1 1-0.2 1.4-0.3q0.2-0.1 0.4-0.1 0.2-0.1 0.5-0.1 0.1 0 0.1 0 0.3-0.1 0.6-0.1c0.5-0.1 1.1-0.2 1.6-0.2q0.1 0 0.2 0 0.5-0.1 1-0.1h1.4q0.4 0 0.8 0.1 0.5 0 0.9 0.1 0.3 0 0.7 0 0.5 0.1 1 0.2 0 0 0.1 0.1 0.3 0 0.6 0.1 0.3 0.1 0.6 0.1 0.4 0.1 0.7 0.2c6.4 1.9 12 6.4 17.6 9.9q0 0 0 0 0.1 0.1 0.1 0.1 0.1 0 0.2 0.1c2.2 1.5 4.3 3.1 6.5 4.5q0.4 0.3 0.9 0.6 2 1.3 4.2 2.6 0.7 0.4 1.4 0.8 0 0.1 0.1 0.1 0.5 0.3 1.1 0.7c0.7 0.3 1.4 0.8 2.1 1q-1.3 0.2-2.5 0.2c-0.4 0-1.2 0-1.6-0.2 1.1 0.7 2.1 1.4 3.2 1.9 1.2 0.5 2.4 1.2 3.6 1.7z"/><path class="o" d="m363.6 234.8c-1.8 1.9-4 5-4.6 5.8-3.3 4-7.7 7.6-11.3 10.2-1.4 0.9-4.3 2.3-4.3 2.3 0 0 2.8-3.2 3.5-5.5-2.3 1.3-4.7 2.7-6.7 4.4-0.9 0.8-3.4 4.1-3.4 4.1 0 0-0.1-1.9-0.1-3 0 0.2-3.6 3.5-3.9 3.9-1.1 1.6-2.4 3.9-3 5.8 0 0.2-5.6-4.3-6.1-4.8-0.9-1-1.8-2-2.7-3-1.5-1.8-2.9-3.8-4.7-5.3 0.6 1.7 1.3 3.3 1.9 4.9-5.6-3.6-12.2-9.8-17.4-17-0.3-0.3-1.2-1.9-1.9-2.9 2.8-1.6 5.7-3.4 8.6-5.3 7.1-4 14.3-9.7 22.8-10.6q0.6-0.1 1.2-0.1 0.4 0 0.8 0 0.8 0 1.7 0.1c3.3 0.2 6.6 1.4 9.7 2.9q0.8 0.4 1.6 0.9 0.4 0.2 0.9 0.5 0.1 0 0.2 0.1c1.1 0.7 2.1 1.5 3.2 2.1 4.6 2.9 9 6 13.1 8.9q0.4 0.3 0.9 0.6z"/><path class="m" d="m372.1 216.7q-0.1 2-0.4 3.9c-0.4-0.2-0.7-0.6-0.9-1.1-0.3 1.2-0.8 2.4-1.4 3.5 0-0.7-0.2-1.4-0.6-2q-0.6 1.7-1.2 3.5c0.1-0.4 0-1.4-0.1-1.8-0.6 0.8-1.4 1.4-2 2-0.7 0.8-1.4 1.5-2.2 2.2q-2.4 2.1-5.1 3.9c-7.8 5.3-16.7 8.7-25.9 9.7q-0.4 0-0.8 0.1-0.9 0-1.9-0.1-4.8-0.6-9.6-2c-5.5-1.6-10.9-4.1-15.7-7.4q-1.3-0.8-2.6-1.7c-1.5-1.1-2.9-2.2-4.3-3.4-1.6-1.4-2.8-2.8-3.7-4.9q-0.3 1.1-0.4 2.2c-0.6-0.8-0.9-1.7-1.2-2.7q-0.3-1.3-0.4-2.7-0.6 1-0.7 2.2c-0.5-0.9-0.6-2-0.8-3.1-0.1-0.5-0.2-1-0.2-1.6 0-0.3-0.1-1.3 0.1-1.6q-0.9 1-1.8 2.1c0.5-4.7 2.1-9.1 3.5-13.6 0.6-1.7 1.2-3.4 1.8-5.1 0.3-0.9 1.2-4.8 2-5.2q-0.6 0.3-1.2 0.6c0.7-1.8 1.3-3.5 2.3-5.2-0.3 0.2-0.6 0.2-0.8 0.1q0.7-1.1 1-2.3-0.5 0.1-1 0.2c2.4-4.3 4.4-8.7 6.9-12.9 3.6-6.3 8.8-11.7 14.7-15.6 2.7-1.8 5.5-2.5 8.6-2.9q1.4-0.2 2.9-0.3c-0.3-0.4-0.9-1.1-1.6-1.5-0.3-0.2-0.6-0.4-0.8-0.4q0.7 0.1 1.4 0.1 0.9 0.1 1.8 0.2 0.6 0.1 1.2 0.3 1.1 0.3 2.1 0.8-0.5-0.5-1-1-0.6-0.8-1.1-1.7-0.1-0.1-0.2-0.2 0-0.1 0-0.2 0 0.1 0.1 0.2 0 0 0.1 0.1c0.6 0.6 1.7 1.1 2.7 1.6q0.4 0.1 0.7 0.2 0.6 0.3 1 0.4c1.6 0.7 3.2 1.3 4.7 2.2q0.3 0.1 0.5 0.2 0.6 0.4 1.3 0.7 1.7 1 3.4 1.8 2.4 1.7 4.6 3.7c3.7 3.4 6.9 7.2 9.4 11.5q1.8 3.1 3.2 6.6c0.9 2.4 2.2 4.3 3.5 6.6-0.4 0.3-0.9 0.3-1.3 0.1q1.3 1.4 2.1 3.1-0.4-0.2-0.8-0.3 0.5 0.7 1.1 1.5c-0.4 0.1-0.8 0.1-1.1 0q1 1.5 2 3-0.5 0-0.9 0c1 4.1 3 7.9 3.8 12.2 0.2 1.1 0.5 2.1 0.7 3.1 0.5 2.6 0.6 5.3 0.5 8z"/><path class="r" d="m372.1 212.6q0.1 2 0 4.1-0.1 2-0.4 3.9c-0.4-0.2-0.7-0.6-0.9-1.1-0.3 1.3-0.8 2.4-1.4 3.5 0-0.7-0.2-1.4-0.6-2q-0.6 1.8-1.2 3.5c0.1-0.4 0-1.4-0.1-1.8-0.6 0.8-1.4 1.4-2 2.1-0.7 0.7-1.4 1.4-2.2 2.1q-2.4 2.1-5.1 3.9c-7.8 5.3-16.7 8.7-25.9 9.7q-0.4 0.1-0.8 0.1-0.9 0-1.9-0.1-4.8-0.6-9.6-2c-5.5-1.6-10.9-4.1-15.7-7.4q-1.3-0.8-2.6-1.7c-1.5-1.1-2.9-2.2-4.3-3.4-1.6-1.4-2.8-2.8-3.7-4.8q-0.3 1-0.4 2.1c-0.6-0.8-0.9-1.7-1.2-2.6q-0.3-1.4-0.4-2.8-0.6 1-0.7 2.2c-0.5-0.9-0.6-2-0.8-3.1-0.1-0.5-0.2-1-0.2-1.6 0-0.3-0.1-1.3 0.1-1.6q-0.9 1.1-1.8 2.1c0.2-1.8 0.5-3.5 1-5.2q0.4-0.5 0.8-1c-0.2 0.3-0.1 1.3-0.1 1.7 0 0.5 0.1 1 0.2 1.5 0.2 1.1 0.3 2.2 0.8 3.2q0.1-1.3 0.7-2.3 0.1 1.4 0.4 2.8c0.3 1 0.6 1.8 1.2 2.6q0.1-1.1 0.4-2.1c0.9 2 2.1 3.4 3.7 4.9 1.4 1.2 2.8 2.3 4.3 3.3q1.3 0.9 2.6 1.8c4.8 3.3 10.2 5.8 15.7 7.4q4.8 1.4 9.6 1.9 1 0.1 1.9 0.1 0.4 0 0.8-0.1c9.2-1 18.1-4.4 25.9-9.7q2.7-1.8 5.1-3.9c0.8-0.6 1.5-1.4 2.2-2.1 0.6-0.7 1.4-1.3 2-2 0.1 0.4 0.2 1.4 0.1 1.7q0.6-1.7 1.2-3.5c0.4 0.6 0.6 1.3 0.6 2 0.6-1 1.1-2.2 1.4-3.4 0.2 0.4 0.5 0.8 0.9 1.1q0.3-2 0.4-4 0 0 0 0z"/><path class="r" d="m328.3 205.7c-0.3-0.3-0.5-0.8-0.5-1.4 0.2-1.9 0.6-3.7 1.1-5.5 0.6-2.7 1.2-5.3 1.9-8q0 2.7 0.3 5.3 0.3-1.1 0.6-2.2c-0.4 1.6 0.3 3.6 0.8 5.1 0.6 1.9 1.2 4 1.3 6.1q0 0.1-0.1 0.3c-0.1 0.3-1 0.7-1.4 0.8-1.1 0.4-3.2 0.3-4-0.5z"/><path class="r" d="m323.3 178.3c-0.8-1.8-1.3-3.7-0.6-5.4 0.7-1.7 2.3-2.8 3.8-3.7 3.4-2 9-2.9 12.5-0.4 1.9 1.4 3.2 4.1 2.5 6.6-0.4 1.3-1.2 2.4-2.1 3.4q-3.9 4.8-8.3 9.3c0.1-0.1-4-5.2-4.3-5.6 0.2 0.6 0.3 1.3 0.1 1.9-1-1.7-2.6-3.9-3.6-6.1z"/><path class="s" d="m314.9 182.1h0.3c1.4 0.1 3 1.1 4.2 2.2q0 0 0 0c1.3 1.1 2.1 2.3 2.2 2.7q0 0.1 0 0.1c0 3-2.4 5.4-5.4 5.4-2.9 0-5.4-2.4-5.4-5.4 0-1.7 0.9-3 2-4.1 0.5-0.6 1.1-0.8 1.7-0.9q0 0 0.1 0h0.3z"/><path class="t" d="m311.3 186.9q0-0.3 0-0.6 0.1-0.3 0.1-0.5c0.3-1.1 1-2.1 1.7-2.9h0.1q0.4-0.4 1-0.7 0.4-0.1 0.8-0.1h0.2c1.4 0.1 3 1.1 4.2 2.2q0 0 0 0c1.3 1.1 2.1 2.3 2.2 2.8-0.1 2.7-2.3 5-5.2 5-2.8 0-5.1-2.3-5.1-5.2z"/><path class="u" d="m317.9 187.3c-0.8 0-1.5-0.7-1.5-1.5 0-0.8 0.7-1.5 1.5-1.5 0.8 0 1.5 0.7 1.5 1.5 0 0.8-0.7 1.5-1.5 1.5z"/><path class="s" d="m347.5 182.1q0.1 0 0.1 0c0.7 0.1 1.2 0.3 1.7 0.9 1.1 1.1 2 2.4 2 4.1 0 3-2.4 5.4-5.4 5.4-3 0-5.4-2.4-5.4-5.4q0 0 0 0c0.1-0.5 1-1.7 2.2-2.8q0 0 0 0c1.2-1.1 2.8-2.1 4.3-2.2h0.5z"/><path class="t" d="m350.9 186.9c0 2.9-2.3 5.2-5.2 5.2-2.9 0-5.1-2.3-5.2-5 0.1-0.5 1-1.7 2.2-2.8q0 0 0 0c1.3-1.1 2.8-2.1 4.3-2.2h0.1q0.4 0 0.8 0.1 0.6 0.3 1.1 0.7c0.8 0.8 1.4 1.8 1.7 2.9q0.1 0.2 0.1 0.5 0.1 0.3 0.1 0.6z"/><path class="u" d="m344.2 187.3c-0.8 0-1.5-0.7-1.5-1.5 0-0.8 0.7-1.5 1.5-1.5 0.8 0 1.5 0.7 1.5 1.5 0 0.8-0.7 1.5-1.5 1.5z"/><path class="t" d="m349.9 209.5c0.1 2-1.5 3.8-3.3 4.8-1.7 1-3.9 1.5-6.1 1.6q-0.4 0.1-0.9 0.1c-3.1-0.1-6.3-1.1-8.3-3.3q-0.2-0.1-0.3-0.3c-0.8 1-1.8 1.8-3 2.4-1.8 0.7-3.7 1.1-5.6 1.2q-0.5 0-0.9 0c-2.2-0.1-4.3-0.7-6.1-1.7-1.8-1-3.4-2.7-3.3-4.7 0.1 1.9 1.7 3.4 3.6 4.3 1.4 0.6 3.1 1 4.9 1q0.2 0 0.4 0c3.2 0 6.4-1 8.2-3.2q0.6-0.9 0.7-1.8c0-0.1 0.4-5.6 0.4-5.7h1.6l0.2 5.3c0 0 0 0.1 0 0.2 0 1.5 1.3 2.9 2.7 3.7 1.8 1 4 1.5 6.2 1.5q0.2 0 0.4 0c1.7 0 3.4-0.4 4.9-1.1 1.8-0.8 3.5-2.3 3.6-4.3z"/><path class="v" d="m336.9 202.9c0 2.6-4.7 5.7-6 5.7-1.2 0-6-3-6-5.7 0-1.9 2.7-1.8 6-1.8 3.3 0 6-0.1 6 1.8z"/><path class="w" d="m336.9 203.2c-0.3 2.5-4.7 5.4-6 5.4-1.2 0-5.7-2.8-6-5.4 0.3 1.9 4.8 4 6 4 1.3 0 5.7-2.1 6-4z"/><path class="t" d="m347 207.1c6.1 0.2 12.1 1.8 17.5 4.6-5.7-2-11.5-3.6-17.5-4.6z"/><path class="t" d="m315.1 207.1c-6 1-11.8 2.5-17.5 4.6 5.3-2.8 11.4-4.4 17.4-4.6z"/><path class="t" d="m343.6 202.2c11.8-4.2 24.4-6.2 36.8-5.8-12.4 0.4-24.8 2.3-36.8 5.8z"/><path class="t" d="m347 204c12.4-1.3 24.9-0.9 37.1 1.3-12.3-1.4-24.7-1.9-37.1-1.3z"/><path class="t" d="m318.4 202.2c-11.9-3.5-24.3-5.4-36.8-5.8 12.5-0.4 25.1 1.6 36.9 5.8z"/><path class="t" d="m315.1 204c-12.4-0.6-24.8-0.2-37.1 1.3 12.2-2.3 24.7-2.7 37-1.3z"/><path class="m" d="m320.7 156.4q0 0.3-0.1 0.6 0 0.3-0.1 0.6-0.1 0.3-0.2 0.6c-0.3 0.9-0.9 1.8-1.5 2.4q0.1-0.2 0.1-0.5-0.2 0.2-0.5 0.4-1.3 1-2.5 2.1 0.2-0.3 0.3-0.6c-1 0.7-2 1.3-3 2.1-1.6 1.1-3 2.5-4.4 4-1.2 1.4-2.7 3.1-3.1 5q-0.2-0.5-0.3-1.1c-0.8 2.2-2.3 4.2-3.8 6.1-0.1-0.3-0.2-0.7-0.3-0.9-0.4 0.5-0.5 1.6-0.7 2.3q-0.3-0.3-0.5-0.6-0.4 0.7-0.4 1.6c-1-1.4-1.8-2.6-2.2-4.3q-0.3-1.9-0.5-3.9 0-1-0.1-2.1c-0.1-3.4 0.1-6.9 0.5-10.3q0.1-0.8 0.2-1.7c0.2-1.2 0.4-2.5 0.6-3.7q0.2-0.9 0.4-1.8c0.1-0.4 0.5-1.2-0.1-1.1 0.1-0.4 0.5-1.3 0.9-1.5q-0.4 0.2-0.8 0.4-0.1 0-0.1 0 0.2-0.2 0.3-0.5 0.2-0.1 0.3-0.3 0.1-0.1 0.2-0.2 0 0 0.1-0.1 0-0.1 0.1-0.1 0.2-0.2 0.4-0.3 0.1-0.1 0.2-0.1c0.1-0.1 0.2-0.2 0.3-0.2q0.3-0.2 0.5-0.3 0.2 0 0.4-0.1 0 0 0 0 0.3-0.1 0.6-0.2 0.3 0 0.6-0.1 0.1 0 0.3 0 0.3 0 0.7 0 0.8 0 1.6 0.1c1.7 0.2 3.5 0.8 5.1 1.5q0 0 0 0 0.2 0 0.3 0.1c1.4 0.6 2.7 1.2 3.7 1.7q0.1 0 0.2 0.1c1.2 0.6 2.4 1.3 3.5 2.1 0.5 0.5 1.1 1 1.5 1.5 0.3 0.5 0.9 1.2 0.9 1.7q0.2-0.2 0.4-0.4z"/><path class="x" d="m314.7 160.2c0 0-0.1 0-0.1 0q-1.8-0.3-3.5-0.7c1.1 0.5 2.2 1.2 2.9 2.2l-4.8-0.4q1.2 0.7 2.3 1.5c0.5 0.3-8.1 7.4-8.4 8.2 0 0.2-0.1 0.3-0.2 0.4-0.1 0.1-0.2 0.1-0.3 0q-0.8 0-1.5-0.1c-0.3 0-0.6 0-0.8-0.2-0.2-0.3-0.1-0.8 0.2-1 0.2-0.3 0.5-0.6 0.7-0.9-0.3-0.4-0.8-0.6-1.2-0.5 0.1-2.7 0.3-5.3 0.7-7.9 0.3-2.3 0.7-4.3 1.8-6.4 2.2-4.2 10.2 0.1 12.5 2.2 0.7 0.7 1.2 1.7 1.1 2.7 0 0.2-0.1 0.5-0.3 0.7-0.3 0.3-0.7 0.2-1.1 0.2z"/><path class="m" d="m341.6 156.8c0-0.6 0.6-1.2 0.9-1.7 0.5-0.5 1-1 1.5-1.5 1.1-0.8 2.3-1.5 3.5-2.1q0.1-0.1 0.2-0.1c0.9-0.4 1.6-1 2.4-1.6-0.1 0.2-0.1 0.3-0.1 0.4 0.1-0.2 2.5-0.9 2.8-1.1 1.3-0.4 2.6-0.8 4-1q0.8-0.1 1.6-0.1 0.4 0 0.7 0 0.2 0 0.3 0c3.1 0.5 3.8 3.9 4.3 6.5 0.3 1.3 0.4 2.5 0.6 3.8q0.1 0.8 0.2 1.6c0.2 1.7 0.3 3.5 0.3 5.2q0.2-0.2 0.4-0.3c-0.2 1.8-0.2 3.6-0.2 5.4q0 1.1-0.1 2.1-0.2 2-0.5 3.9c-0.2 0.8-0.4 1.6-0.7 2.3-0.1 0.4-1.2 2.1-0.9 2.5-0.8-1-1.4-2.1-2-3.2-0.1 0.3-0.3 0.5-0.6 0.5 0.1 0-0.8-2.8-0.9-3-0.2 0.5-0.3 1.1-0.2 1.7-0.8-0.8-0.9-1.9-1.4-2.9-0.2-0.4-0.4-0.8-0.6-1.3-0.2-0.4-0.7-0.9-0.8-1.4q0.2 0.8 0.1 1.6c-1-1.7-2-3.4-3.3-4.9-1.3-1.5-2.8-2.9-4.4-4-1-0.8-2-1.4-3-2.1q0.1 0.3 0.3 0.6-1.2-1.1-2.4-2.1-0.3-0.2-0.6-0.4 0 0.3 0.1 0.5c-0.6-0.6-1.2-1.5-1.5-2.4q-0.1-0.3-0.2-0.6-0.1-0.3-0.1-0.6-0.1-0.3-0.1-0.6 0.2 0.2 0.4 0.4z"/><path class="x" d="m361.4 170c0.3 0.3 0.4 0.8 0.2 1.1-0.2 0.2-0.4 0.2-0.7 0.2q-0.8 0.1-1.5 0.1c-0.2 0-0.3 0-0.4 0-0.1-0.1-0.2-0.2-0.2-0.4-0.3-0.8-8.9-7.9-8.4-8.2q0.9-0.6 1.7-1.2 0.3-0.1 0.6-0.3-0.9 0.1-1.7 0.1-1.6 0.2-3.1 0.3c0.8-1 1.8-1.7 2.9-2.2q-1.7 0.4-3.4 0.7-0.1 0-0.2 0c-0.4 0-0.8 0.1-1.1-0.2-0.2-0.2-0.3-0.4-0.3-0.7-0.1-1 0.4-2 1.1-2.6q0.1-0.1 0.1-0.1c2.3-2 10.2-6.4 12.4-2.2 1.1 2.1 1.5 4 1.9 6.4q0.1 1.2 0.3 2.4c0.1 1.8 0.3 3.6 0.3 5.5-0.4-0.1-0.9 0.1-1.1 0.4 0.1 0.4 0.4 0.6 0.7 0.9z"/><path class="m" d="m225.6 285.9q0 0.1 0 0.3 0 0.1 0 0.1 0 0.1 0 0.2 0 0 0 0.1 0 0 0 0 0 0 0 0c0 0 0 0.1 0 0.1q0 0.2-0.1 0.4 0 0.2 0 0.5-0.1 0.1-0.1 0.2 0 0.1 0 0.2-0.1 0.3-0.1 0.5 0 0.1 0 0.2-0.1 0.2-0.1 0.3 0 0.1-0.1 0.1 0 0.2 0 0.4-0.1 0.1-0.1 0.3-0.2 0.7-0.5 1.3 0 0.1 0 0.2 0 0-0.1 0.1 0 0.1-0.1 0.2 0 0.1 0 0.2 0 0 0 0v0.1q-0.1 0-0.1 0 0 0 0 0-0.6 1.5-1.3 3-0.1 0.1-0.1 0.1-0.1 0.1-0.1 0.2 0 0.1-0.1 0.2 0 0.1-0.1 0.2 0 0-0.1 0.1 0 0.1 0 0.1-0.1 0.1-0.1 0.2 0 0 0 0.1-0.1 0-0.1 0.1-0.1 0.1-0.1 0.2-0.1 0.1-0.1 0.2-0.1 0.2-0.2 0.4-0.1 0.1-0.1 0.1-0.1 0.1-0.2 0.3 0 0.1-0.1 0.2 0 0 0 0.1-0.1 0.1-0.2 0.3-0.1 0-0.1 0.1 0 0 0 0-0.7 1.2-1.4 2.3 0 0.1 0 0.1-0.1 0.1-0.2 0.3-0.1 0.1-0.2 0.2-0.1 0.3-0.3 0.5 0 0.1-0.1 0.2-0.1 0.2-0.2 0.3 0 0 0 0.1-0.1 0-0.1 0.1-0.1 0.2-0.2 0.3-0.1 0.1-0.1 0.3-0.1 0-0.1 0.1-0.1 0.1-0.2 0.2-0.1 0.1-0.2 0.3-0.1 0.2-0.2 0.3-0.1 0.2-0.1 0.3-0.2 0.3-0.4 0.6-0.1 0.1-0.1 0.2-0.3 0.4-0.5 0.8-0.9 1.6-1.9 3.4-0.1 0.3-0.3 0.6-0.2 0.5-0.5 1 0 0 0 0-0.2 0.3-0.3 0.6-0.1 0.3-0.3 0.6 0 0.2-0.1 0.3-0.3 0.5-0.5 1 0 0 0 0.1 0 0 0 0-0.2 0.4-0.3 0.8-0.1 0.1-0.1 0.2-0.2 0.4-0.3 0.7 0 0 0 0-0.2 0.3-0.3 0.6 0 0.1 0 0.2-0.2 0.3-0.3 0.6 0 0 0 0-0.1 0.3-0.2 0.5 0 0.2-0.1 0.4 0 0.1-0.1 0.2 0 0.1-0.1 0.3 0 0.2-0.1 0.4-0.1 0.2-0.2 0.5 0 0.1-0.1 0.3-0.1 0.3-0.1 0.6-0.1 0.2-0.2 0.4-0.1 0.3-0.2 0.7 0 0.2-0.1 0.5 0 0 0 0 0 0.2-0.1 0.4 0 0.2-0.1 0.3 0 0 0 0-0.1 0.7-0.2 1.4-0.1 0.1-0.1 0.3 0 0 0 0 0 0.1 0 0.2-0.1 0.4-0.1 0.7-0.1 0.3-0.1 0.5 0 0 0 0.1 0 0.1 0 0.2-0.1 0.2-0.1 0.5 0 0.3 0 0.7 0 0.3-0.1 0.7 1.8-1.5 3.5-3-0.1 0-0.2 0.1 0 0 0 0.1-0.1 0-0.1 0 0 0.1-0.1 0.1 0 0.1-0.1 0.2 0 0 0 0 0 0 0 0-0.2 0.1-0.3 0.3 0 0 0 0 0 0.1-0.1 0.2-0.1 0-0.1 0.1 0 0 0 0-0.1 0.1-0.2 0.2 0 0 0 0.1-0.1 0.1-0.1 0.2-0.1 0.1-0.2 0.2-0.1 0.2-0.1 0.3-0.1 0.1-0.1 0.2-0.1 0.1-0.1 0.2-0.1 0.1-0.1 0.2-0.1 0.1-0.2 0.3 0 0.1-0.1 0.2 0 0.1-0.1 0.2 0 0.1 0 0.1-0.1 0.3-0.2 0.6-0.1 0.1-0.1 0.1-0.1 0.3-0.2 0.6 0 0.1-0.1 0.3 0 0 0 0.1 0 0.1-0.1 0.2 0 0.1-0.1 0.3 0 0 0 0 0 0.2 0 0.3-0.1 0.1-0.1 0.2 0 0.1-0.1 0.2 0 0.2 0 0.3-0.1 0-0.1 0.1 0 0.2-0.1 0.3 0 0.1 0 0.2-0.1 0.3-0.1 0.7 0 0 0 0-0.1 0.1-0.1 0.1 0 0.2 0 0.3-0.1 0.2-0.1 0.4 0 0.2-0.1 0.5 0 0.4-0.1 0.7 0 0.2 0 0.3-0.1 0.4-0.1 0.7l-0.1 0.4q0 0 0 0.1 0 0.3-0.1 0.6 0 0.4-0.1 0.8-0.1 1-0.1 2 0 0.2 0 0.3 0 0.4-0.1 0.7 0 0.2 0 0.4 0 1 0 1.9 0 0.2 0 0.4 0 0.3 0 0.6 0 0.3 0 0.5 0.1 0.3 0.1 0.5 0 0.1 0 0.1 0 0.2 0 0.4 0 0.2 0 0.4 0 0.2 0.1 0.3 0 0.2 0 0.3c1 8.2 3.1 16.3 4.6 24.4 3.3 19.1 5.2 40.1-3.4 58.1-1.2 2.4-2.6 4.8-4.2 7-2.7 3.8-6.1 7.2-10 9.8-1.4 0.9-4 2.6-5.3 2-0.4-0.1-0.7-0.6-0.8-1.3-0.2-2.5 4.8-6.9 6.2-8.7 4.2-5.5 6.5-13.2 6.8-20.7q0-1.2 0-2.4 0-0.2 0-0.4 0-0.2 0-0.5 0 0 0-0.1 0-0.3-0.1-0.7 0-0.1 0-0.2 0-0.3 0-0.6 0-0.3-0.1-0.6 0 0 0-0.1 0-0.3 0-0.6-0.1-0.1-0.1-0.3 0-0.2 0-0.4-0.1-0.1-0.1-0.3 0-0.3-0.1-0.7 0 0 0 0c-1.2-15.1-4.3-30.7-8.6-45.1q-0.1-0.3-0.2-0.6c-2.9-9.5-6.2-18.4-8.3-28.1-0.9-3.9-1.3-7.8-1.3-11.8-0.1-6.4 0.9-12.8 2.9-18.9q0.5-1.6 1.1-3.2 0.1-0.2 0.2-0.5 0-0.1 0.1-0.3 0.2-0.4 0.3-0.9 0.2-0.3 0.3-0.7 0.4-0.9 0.8-1.8 0.2-0.3 0.3-0.5 0.1-0.2 0.2-0.4 0.1-0.3 0.2-0.5 0.1-0.2 0.1-0.3 0.1-0.2 0.2-0.4 0.2-0.4 0.4-0.7 0.1-0.2 0.2-0.4 0.1-0.2 0.3-0.5 0.1-0.3 0.3-0.5 0.1-0.3 0.2-0.5 0.2-0.3 0.3-0.6 0.1 0 0.1-0.1 0.2-0.4 0.5-0.8 0 0 0.1-0.1 0.2-0.4 0.5-0.8 0.1-0.2 0.2-0.3 0-0.1 0.1-0.2 0-0.1 0.1-0.1 0-0.1 0.1-0.2 0.3-0.5 0.6-0.9 0.1-0.2 0.2-0.3 0.1-0.1 0.1-0.2 0.4-0.5 0.8-0.9 0-0.1 0.1-0.2 0-0.1 0.1-0.1 0.1-0.2 0.3-0.4 0.1-0.1 0.2-0.2 0.1-0.3 0.4-0.5 0.2-0.3 0.4-0.6 0.1 0 0.1 0 0-0.1 0-0.1 0.2-0.1 0.3-0.3 0.1-0.2 0.3-0.3 0.1-0.2 0.3-0.3 0-0.1 0.1-0.1 0-0.1 0.1-0.2 0.2-0.2 0.4-0.3 0.1-0.2 0.3-0.4 0.2-0.2 0.4-0.4 0.1-0.1 0.2-0.1 0.1-0.1 0.2-0.2 0.3-0.3 0.6-0.6 0.1-0.1 0.2-0.1 0.3-0.3 0.7-0.6 0.1-0.1 0.3-0.2 0.1-0.1 0.2-0.2 0.3-0.3 0.7-0.5 0.1-0.1 0.1-0.1 0.1-0.1 0.2-0.1 0.1-0.1 0.3-0.2 0.3-0.3 0.6-0.5 0.1 0 0.1 0 0 0 0.1-0.1 0.1 0 0.2-0.1 0.1 0 0.2-0.1 0.3-0.2 0.5-0.3 0.2-0.1 0.4-0.2 0.2-0.1 0.3-0.2 0.4-0.2 0.9-0.4 0 0 0.2-0.1 0 0 0.1-0.1 0.1 0 0.1 0l0.2-0.1q0.3-0.1 0.5-0.2 0.2-0.1 0.5-0.2 0.1 0 0.3-0.1 0.4-0.1 0.8-0.3 1.8-0.5 3.7-0.7 0.3-0.1 0.7-0.1 0.7 0 1.4 0 0.2 0 0.4 0 0.2 0 0.4 0 0.2 0 0.5 0.1 0.2 0 0.4 0 0.3 0 0.6 0.1c1.5 0.3 2.9 0.8 4.3 1.6q0.1 0.1 0.2 0.2 0.1 0 0.2 0.1 0.3 0.2 0.5 0.4 0.3 0.2 0.6 0.4 0.2 0.1 0.3 0.3 0.1 0.1 0.3 0.2 0.1 0.1 0.2 0.2 0.3 0.3 0.5 0.5 0.2 0.3 0.4 0.5 0.2 0.3 0.4 0.6 0 0.1 0.1 0.2 0 0 0 0 0 0 0 0 0 0 0.1 0.1 0 0 0 0c0 0 0 0.1 0 0.1q0.1 0.1 0.1 0.1 0.1 0.1 0.1 0.2 0.1 0.1 0.1 0.2 0.1 0.1 0.1 0.2 0 0 0 0.1 0.1 0.1 0.1 0.2 0 0.1 0.1 0.2 0 0 0 0 0.1 0.3 0.2 0.5 0 0.1 0 0.2 0 0 0.1 0.1 0 0 0 0.1 0 0 0 0 0 0.2 0.1 0.3 0 0.1 0 0.1 0 0 0 0.1 0 0 0 0 0 0.1 0.1 0.2 0 0.1 0 0.1 0 0.1 0 0.3 0 0.1 0.1 0.3 0 0.2 0 0.4 0 0 0 0 0 0 0 0.1 0 0 0 0.1 0 0.1 0 0.2 0 0 0 0 0 0.4 0 0.7z"/><path class="r" d="m216.8 275.7q-1 0.2-1.9 0.5-0.5 0.1-1 0.3-0.2 0.1-0.3 0.1-0.1 0.1-0.2 0.1-0.1 0.1-0.3 0.1-0.2 0.1-0.5 0.2-0.6 0.4-1.3 0.7-0.1 0.1-0.3 0.1-0.2 0.2-0.5 0.3-0.2 0.1-0.4 0.3-0.3 0.1-0.6 0.3-0.1 0.1-0.3 0.3-0.2 0.1-0.5 0.3-0.1 0.1-0.3 0.2-0.1 0.1-0.2 0.2-1 0.7-1.9 1.5-0.2 0.2-0.3 0.3-0.7 0.6-1.3 1.2-0.2 0.2-0.3 0.4-0.2 0.1-0.3 0.2-0.1 0.1-0.2 0.3-0.3 0.3-0.6 0.6-0.2 0.2-0.4 0.5-0.2 0.1-0.3 0.3-0.3 0.4-0.6 0.8 0 0 0 0-0.3 0.4-0.6 0.8-0.3 0.4-0.6 0.8 0 0-0.1 0-0.2 0.4-0.4 0.7-0.4 0.5-0.7 1.1-0.3 0.3-0.5 0.6-0.7 1.3-1.4 2.5-0.2 0.3-0.3 0.5-0.3 0.6-0.6 1.1-0.1 0.3-0.2 0.5-0.2 0.3-0.3 0.6-0.1 0.2-0.3 0.5 0 0.1 0 0.2-0.2 0.4-0.5 0.9-0.1 0.3-0.2 0.6-0.3 0.5-0.5 1.1-0.1 0.2-0.2 0.5-0.1 0.3-0.2 0.6-0.1 0.2-0.2 0.5-0.3 0.6-0.6 1.3-0.1 0.3-0.2 0.5-0.3 1.1-0.6 2.1-0.1 0.2-0.2 0.4-0.1 0.3-0.2 0.5c0 2.6-0.9 5.6-1.5 8.5-0.3 1-0.5 2.1-0.6 3.1q-0.2 1.7-0.4 3.3c-0.5 3.4-1 6.8-1.4 10.2q1.1-0.9 2.1-1.8c0 2.5 0.2 7.2-0.7 9.5 1-1.9 2.6-3.9 3.1-5.9-2.2 7.7-0.1 15.9 2.3 23.4 4 12.2 6.4 24.7 9.5 37.1 3.3 13.7 6.3 30.1 0.1 43.3-2.8 3.8-6.2 7.2-10.1 9.8-1.4 0.9-3.9 2.6-5.2 2 1.4-2.3 4.3-5 5.3-6.3 4.8-6.5 7.1-15.7 6.8-24.4q-0.1-3.9-0.4-7.9 0 0 0 0c-1.3-15.1-4.3-30.7-8.7-45.1q-0.1-0.3-0.1-0.6c-2.9-9.5-6.2-18.4-8.4-28.1-0.8-3.9-1.3-7.8-1.3-11.8q0-0.3 0-0.7 0-1.3 0.1-2.6 0-0.3 0.1-0.5 0-0.1 0-0.3 0-0.2 0-0.5 0-0.1 0-0.2 0.1-0.3 0.1-0.7 0-0.2 0.1-0.4 0-0.3 0-0.6 0 0 0-0.1 0.1-0.3 0.1-0.5 0-0.4 0.1-0.8 0-0.2 0.1-0.4 0-0.1 0-0.2 0-0.3 0.1-0.6 0-0.3 0.1-0.6 0.1-0.7 0.2-1.3 0.1-0.5 0.2-0.9 0.1-0.4 0.2-0.8 0.1-0.5 0.2-1 0-0.1 0-0.2 0.1-0.4 0.2-0.9 0.1-0.3 0.2-0.5 0-0.2 0.1-0.4 0.1-0.3 0.1-0.6 0.2-0.4 0.3-0.8 0.2-0.6 0.3-1.2 0.6-1.8 1.3-3.7 0.1-0.2 0.2-0.5 0-0.1 0.1-0.2 0.1-0.4 0.2-0.7 0 0 0 0l0.1-0.2q0.2-0.4 0.3-0.7 0.2-0.5 0.4-0.9 0.1-0.4 0.3-0.7 0-0.1 0.1-0.2 0-0.1 0.1-0.2 0.2-0.4 0.4-0.8 0.2-0.5 0.4-0.9 0 0 0 0 0.2-0.5 0.4-1 0.2-0.3 0.4-0.6 0.1-0.2 0.2-0.3 0-0.1 0-0.1 0.2-0.4 0.4-0.7 0 0 0-0.1 0.2-0.3 0.4-0.6 0 0 0 0 0.1-0.2 0.2-0.3 0-0.1 0.1-0.2 0.2-0.3 0.3-0.6 0.1-0.1 0.1-0.2 0.3-0.4 0.5-0.7 0-0.1 0-0.1 0.3-0.4 0.5-0.8 0.1 0 0.1 0 0.2-0.4 0.5-0.8 0 0 0.1-0.1 0-0.1 0.1-0.1 0.2-0.4 0.4-0.7 0.3-0.4 0.6-0.8 0.1 0 0.1-0.1 0 0 0.1-0.1 0.2-0.3 0.5-0.6 0.2-0.2 0.3-0.4l0.3-0.4q0.2-0.2 0.4-0.4 0.1-0.2 0.3-0.4 0.3-0.3 0.6-0.6 0.3-0.3 0.6-0.7 0.2-0.1 0.4-0.3 0.1-0.1 0.2-0.2 0.2-0.2 0.3-0.3 0.3-0.2 0.5-0.5 0.1 0 0.1 0 0.2-0.2 0.5-0.5 0.2-0.1 0.4-0.3 0.1-0.1 0.3-0.2 0.2-0.2 0.4-0.4 0.1-0.1 0.3-0.1 0.2-0.2 0.4-0.4 0.3-0.1 0.6-0.3 0.3-0.2 0.6-0.4 0.1-0.1 0.3-0.2 0.3-0.2 0.5-0.4 0.1 0 0.1 0 0.3-0.1 0.5-0.3 0.3-0.1 0.5-0.2 0.2-0.1 0.4-0.2 0.2-0.1 0.4-0.2 0.1 0 0.1 0 0.1-0.1 0.2-0.1 0.1-0.1 0.2-0.1 0.2-0.1 0.4-0.2 0.2-0.1 0.4-0.1 0.1-0.1 0.3-0.1 0.3-0.2 0.7-0.3c1.2-0.4 2.4-0.6 3.7-0.8q0.3 0 0.7 0 0.7-0.1 1.4-0.1 0.2 0 0.4 0.1 0.2 0 0.4 0 0.2 0 0.5 0 0.2 0 0.4 0.1 0.3 0 0.6 0.1 0.3 0 0.6 0.1z"/><path class="y" d="m203.7 415.6q-0.2 3.1-0.7 6.2 0 0.5-0.1 1.1-0.1 0.5-0.2 1c-1.3 6.3-2.8 13.8-6.3 19.3-4.4 6.9-11.5 11-19.7 11-6.9 0-16.5 0-26.3 0-11.2 0-22.7 0-30.2 0.1q-0.3 0-0.5 0-1.1 0-2.1 0c-12.1 0.1-24.2 0-36.2-0.1-3.4 0-6.2 0.3-8.9-0.1-2.2-0.3-4.3-1-6.6-2.8-4.5-3.6-7.9-8.5-10.1-13.9-8.4-20.6-5.4-41.6-0.2-62.3 2.3-9.1 3.7-20.3 8.2-28.6-1.1 0.7-2.3 1.1-3.6 1.2 4.3-4.7 6.1-11.4 7.9-17.4q0.4-1.4 0.8-2.9c1.2-4.7 2.1-9.5 2.2-14.3q0-1.3-0.1-2.6 0-0.9-0.1-1.7c-2.4-24.1 30.3-24.1 46.6-24.1 16-0.1 50.3 0 47.2 24.1q-0.3 1.9-0.2 3.7c0.3 5 1.7 5.6 5.9 8-1.4 0.3-2.6 0.4-4.1 0.1q0.2 0.1 0.3 0.1 0 0 0 0c1.4 0.5 2.3 1.6 2.9 3-0.8-0.1-1 0.1-1.7 0.4 0.1-0.1 0.4 0.2 0.7 0.6q0 0.1 0.1 0.2c0.5 1 1 2 1.4 3q0.1 0.1 0.1 0.2c0.5 1 1.1 2 1.7 2.9q0 0 0 0 1.2 1.9 2.3 3.7c2.1 3.4 5.3 5.7 7.4 9.2q-1.4-0.6-2.9-1.2c2.4 4.7 5.3 9 7.7 13.7q1.1 2 2 4 0.6 1.1 1.2 2.3c3.1 6.3 7.2 11.8 10.2 18q-1.4-0.7-2.7-1.4c3.3 7.5 4.8 14.9 6 23 0.7 4.4 0.9 8.8 0.7 13.2z"/><path class="u" d="m203.7 415.6q-0.2 3.1-0.7 6.2 0 0.5-0.1 1.1-0.1 0.5-0.2 1c-1.3 6.3-2.8 13.8-6.3 19.3-4.4 6.9-11.5 11-19.7 11-6.9 0-16.5 0-26.3 0-11.2 0-22.7 0-30.2 0.1q-0.3 0-0.5 0-1.1 0-2.1 0c-12.1 0.1-24.2 0-36.2-0.1-3.4 0-6.2 0.3-8.9-0.1-2.2-0.3-4.3-1-6.6-2.8-4.5-3.6-7.9-8.5-10.1-13.9-8.4-20.6-5.4-41.6-0.2-62.3 2.3-9.1 3.7-20.3 8.2-28.6-1.1 0.7-2.3 1.1-3.6 1.2 4.3-4.7 6.1-11.4 7.9-17.4q0.4-1.4 0.8-2.9c1.2-4.7 2.1-9.5 2.2-14.3q0-1.3-0.1-2.6 0-0.9-0.1-1.7c-2.4-24.1 30.3-24.1 46.6-24.1 16-0.1 50.3 0 47.2 24.1q-0.3 1.9-0.2 3.7c0.3 5 1.7 5.6 5.9 8-1.4 0.3-2.6 0.4-4.1 0.1q0.2 0.1 0.3 0.1 0 0 0 0c1.4 0.5 2.3 1.6 2.9 3-0.8-0.1-1 0.1-1.7 0.4 0.1-0.1 0.4 0.2 0.7 0.6q0 0.1 0.1 0.2c0.5 1 1 2 1.4 3q0.1 0.1 0.1 0.2c0.5 1 1.1 2 1.7 2.9q0 0 0 0 1.2 1.9 2.3 3.7c2.1 3.4 5.3 5.7 7.4 9.2q-1.4-0.6-2.9-1.2c2.4 4.7 5.3 9 7.7 13.7q1.1 2 2 4 0.6 1.1 1.2 2.3c3.1 6.3 7.2 11.8 10.2 18q-1.4-0.7-2.7-1.4c3.3 7.5 4.8 14.9 6 23 0.7 4.4 0.9 8.8 0.7 13.2z"/><path class="u" d="m203.7 415.6q-0.2 3.1-0.7 6.2 0 0.5-0.1 1.1-0.1 0.5-0.2 1c-1.3 6.3-2.8 13.8-6.3 19.3-4.4 6.9-11.5 11-19.7 11-6.9 0-16.5 0-26.3 0-11.2 0-22.7 0-30.2 0.1q-0.3 0-0.5 0-1.1 0-2.1 0c-12.1 0.1-24.2 0-36.2-0.1-3.4 0-6.2 0.3-8.9-0.1-2.2-0.3-4.3-1-6.6-2.8-4.5-3.6-7.9-8.5-10.1-13.9-8.4-20.6-5.4-41.6-0.2-62.3 2.3-9.1 3.7-20.3 8.2-28.6-1.1 0.7-2.3 1.1-3.6 1.2 4.3-4.7 6.1-11.4 7.9-17.4q0.4-1.4 0.8-2.9c1.2-4.7 2.1-9.5 2.2-14.3q0-1.3-0.1-2.6 0-0.9-0.1-1.7c-2.4-24.1 30.3-24.1 46.6-24.1 16-0.1 50.3 0 47.2 24.1q-0.3 1.9-0.2 3.7c0.3 5 1.7 5.6 5.9 8-1.4 0.3-2.6 0.4-4.1 0.1q0.2 0.1 0.3 0.1 0 0 0 0c1.4 0.5 2.3 1.6 2.9 3-0.8-0.1-1 0.1-1.7 0.4 0.1-0.1 0.4 0.2 0.7 0.6q0 0.1 0.1 0.2c0.5 1 1 2 1.4 3q0.1 0.1 0.1 0.2c0.5 1 1.1 2 1.7 2.9q0 0 0 0 1.2 1.9 2.3 3.7c2.1 3.4 5.3 5.7 7.4 9.2q-1.4-0.6-2.9-1.2c2.4 4.7 5.3 9 7.7 13.7q1.1 2 2 4 0.6 1.1 1.2 2.3c3.1 6.3 7.2 11.8 10.2 18q-1.4-0.7-2.7-1.4c3.3 7.5 4.8 14.9 6 23 0.7 4.4 0.9 8.8 0.7 13.2z"/><path class="u" d="m203.7 415.6q-0.2 3.1-0.7 6.2 0 0.5-0.1 1.1-0.1 0.5-0.2 1c-1.3 6.3-2.8 13.8-6.3 19.3-4.4 6.9-11.5 11-19.7 11-6.9 0-16.5 0-26.3 0-11.2 0-22.7 0-30.2 0.1q-0.3 0-0.5 0-1.1 0-2.1 0c-12.1 0.1-24.2 0-36.2-0.1-3.4 0-6.2 0.3-8.9-0.1-2.2-0.3-4.3-1-6.6-2.8-4.5-3.6-7.9-8.5-10.1-13.9-8.4-20.6-5.4-41.6-0.2-62.3 2.3-9.1 3.7-20.3 8.2-28.6-1.1 0.7-2.3 1.1-3.6 1.2 4.3-4.7 6.1-11.4 7.9-17.4q0.4-1.4 0.8-2.9c1.2-4.7 2.1-9.5 2.2-14.3q0-1.3-0.1-2.6 0-0.9-0.1-1.7c-2.4-24.1 30.3-24.1 46.6-24.1 16-0.1 50.3 0 47.2 24.1q-0.3 1.9-0.2 3.7c0.3 5 1.7 5.6 5.9 8-1.4 0.3-2.6 0.4-4.1 0.1q0.2 0.1 0.3 0.1 0 0 0 0c1.4 0.5 2.3 1.6 2.9 3-0.8-0.1-1 0.1-1.7 0.4 0.1-0.1 0.4 0.2 0.7 0.6q0 0.1 0.1 0.2c0.5 1 1 2 1.4 3q0.1 0.1 0.1 0.2c0.5 1 1.1 2 1.7 2.9q0 0 0 0 1.2 1.9 2.3 3.7c2.1 3.4 5.3 5.7 7.4 9.2q-1.4-0.6-2.9-1.2c2.4 4.7 5.3 9 7.7 13.7q1.1 2 2 4 0.6 1.1 1.2 2.3c3.1 6.3 7.2 11.8 10.2 18q-1.4-0.7-2.7-1.4c3.3 7.5 4.8 14.9 6 23 0.7 4.4 0.9 8.8 0.7 13.2z"/><path class="u" d="m203.7 415.6q-0.2 3.1-0.7 6.2 0 0.5-0.1 1.1-0.1 0.5-0.2 1c-1.3 6.3-2.8 13.8-6.3 19.3-4.4 6.9-11.5 11-19.7 11-6.9 0-16.5 0-26.3 0-11.2 0-22.7 0-30.2 0.1q-0.3 0-0.5 0-1.1 0-2.1 0c-12.1 0.1-24.2 0-36.2-0.1-3.4 0-6.2 0.3-8.9-0.1-2.2-0.3-4.3-1-6.6-2.8-4.5-3.6-7.9-8.5-10.1-13.9-8.4-20.6-5.4-41.6-0.2-62.3 2.3-9.1 3.7-20.3 8.2-28.6-1.1 0.7-2.3 1.1-3.6 1.2 4.3-4.7 6.1-11.4 7.9-17.4q0.4-1.4 0.8-2.9c1.2-4.7 2.1-9.5 2.2-14.3q0-1.3-0.1-2.6 0-0.9-0.1-1.7c-2.4-24.1 30.3-24.1 46.6-24.1 16-0.1 50.3 0 47.2 24.1q-0.3 1.9-0.2 3.7c0.3 5 1.7 5.6 5.9 8-1.4 0.3-2.6 0.4-4.1 0.1q0.2 0.1 0.3 0.1 0 0 0 0c1.4 0.5 2.3 1.6 2.9 3-0.8-0.1-1 0.1-1.7 0.4 0.1-0.1 0.4 0.2 0.7 0.6q0 0.1 0.1 0.2c0.5 1 1 2 1.4 3q0.1 0.1 0.1 0.2c0.5 1 1.1 2 1.7 2.9q0 0 0 0 1.2 1.9 2.3 3.7c2.1 3.4 5.3 5.7 7.4 9.2q-1.4-0.6-2.9-1.2c2.4 4.7 5.3 9 7.7 13.7q1.1 2 2 4 0.6 1.1 1.2 2.3c3.1 6.3 7.2 11.8 10.2 18q-1.4-0.7-2.7-1.4c3.3 7.5 4.8 14.9 6 23 0.7 4.4 0.9 8.8 0.7 13.2z"/><path class="m" d="m203.7 415.6q-0.2 3.1-0.7 6.2 0 0.5-0.1 1.1-0.1 0.5-0.2 1c-1.3 6.3-2.8 13.8-6.3 19.3-4.4 6.9-11.5 11-19.7 11-6.9 0-16.5 0-26.3 0-11.2 0-22.7 0-30.2 0.1q-0.3 0-0.5 0-1.1 0-2.1 0c-12.1 0.1-24.2 0-36.2-0.1-3.4 0-6.2 0.3-8.9-0.1-2.2-0.3-4.3-1-6.6-2.8-4.5-3.6-7.9-8.5-10.1-13.9-8.4-20.6-5.4-41.6-0.2-62.3 2.3-9.1 3.7-20.3 8.2-28.6-1.1 0.7-2.3 1.1-3.6 1.2 4.3-4.7 6.1-11.4 7.9-17.4q0.4-1.4 0.8-2.9c1.2-4.7 2.1-9.5 2.2-14.3q0-1.3-0.1-2.6 0-0.9-0.1-1.7c-2.4-24.1 30.3-24.1 46.6-24.1 16-0.1 50.3 0 47.2 24.1q-0.3 1.9-0.2 3.7c0.3 5 1.7 5.6 5.9 8-1.4 0.3-2.6 0.4-4.1 0.1q0.2 0.1 0.3 0.1 0 0 0 0c1.4 0.5 2.3 1.6 2.9 3-0.8-0.1-1 0.1-1.7 0.4 0.1-0.1 0.4 0.2 0.7 0.6q0 0.1 0.1 0.2c0.5 1 1 2 1.4 3q0.1 0.1 0.1 0.2c0.5 1 1.1 2 1.7 2.9q0 0 0 0 1.2 1.9 2.3 3.7c2.1 3.4 5.3 5.7 7.4 9.2q-1.4-0.6-2.9-1.2c2.4 4.7 5.3 9 7.7 13.7q1.1 2 2 4 0.6 1.1 1.2 2.3c3.1 6.3 7.2 11.8 10.2 18q-1.4-0.7-2.7-1.4c3.3 7.5 4.8 14.9 6 23 0.7 4.4 0.9 8.8 0.7 13.2z"/><path class="z" d="m203.7 415.6c-0.2 2.4-0.4 4.8-0.8 7.3q-0.1 0.5-0.2 1c-1.3 6.3-2.8 13.8-6.3 19.3-4.4 6.9-11.5 11-19.7 11-6.9 0-16.5 0-26.3 0-11.2 0-22.7 0-30.2 0.1q-0.3 0-0.5 0-2.1 0-3.4 0c-11.4 0.1-30.2-0.1-43-0.1q-0.4 0-0.8-0.1c-2.2-0.3-4.3-1-6.6-2.8-4.5-3.6-7.9-8.5-10.1-13.9-8.4-20.6-5.4-41.6-0.2-62.3-0.7 2.7 2.4 5.7 3.5 7.9 1.6 3.6 2.7 7.2 4.8 10.6q0-3.1 0-6.2 3.2 5.1 7 9.8 0.2-1.4 0.4-2.7c-0.4 2.6 5.6 8.3 7.3 10.1 3.1 3.4 6.9 6.4 10.6 9 4 2.7 8.2 4.3 12.4 6.5 3.7 1.9 6.8 4.3 10.9 5.5-0.7-1.5-1.4-2.9-2-4.4 18 2.2 34.8-1.7 48.1-14.9 5-5.1 10.3-10.5 13.6-17 0.4 0.8 0.6 1.8 0.5 2.7 2.4-1.9 4-5.3 5.4-8 1.6-3 2.9-6 4.1-9.2 1.1-3.2 2.1-6.4 2.9-9.6 0.6-2.4 2.4-6.5 1.2-8.8q1.1 2 2 4 0.6 1.1 1.2 2.3c3.1 6.3 7.2 11.8 10.2 18q-1.4-0.7-2.7-1.4c3.3 7.5 4.8 14.9 6 23 0.7 4.4 0.9 8.8 0.7 13.2z"/><path class="A" d="m203.7 415.6c-0.2 2.4-0.4 4.8-0.8 7.3q-0.1 0.5-0.2 1c-1.3 6.3-2.8 13.8-6.3 19.3-4.4 6.9-11.5 11-19.7 11-6.9 0-16.5 0-26.3 0-11.2 0-22.7 0-30.2 0.1q-0.3 0-0.5 0-2.1 0-3.4 0c-11.4 0.1-30.2-0.1-43-0.1q-0.4 0-0.8-0.1c-2.2-0.3-4.3-1-6.6-2.8-4.5-3.6-7.9-8.5-10.1-13.9-8.4-20.6-5.4-41.6-0.2-62.3-0.7 2.7 2.4 5.7 3.5 7.9 1.6 3.6 2.7 7.2 4.8 10.6q0-3.1 0-6.2 3.2 5.1 7 9.8 0.2-1.4 0.4-2.7c-0.4 2.6 5.6 8.3 7.3 10.1 3.1 3.4 6.9 6.4 10.6 9 4 2.7 8.2 4.3 12.4 6.5 3.7 1.9 6.8 4.3 10.9 5.5-0.7-1.5-1.4-2.9-2-4.4 18 2.2 34.8-1.7 48.1-14.9 5-5.1 10.3-10.5 13.6-17 0.4 0.8 0.6 1.8 0.5 2.7 2.4-1.9 4-5.3 5.4-8 1.6-3 2.9-6 4.1-9.2 1.1-3.2 2.1-6.4 2.9-9.6 0.6-2.4 2.4-6.5 1.2-8.8q1.1 2 2 4 0.6 1.1 1.2 2.3c3.1 6.3 7.2 11.8 10.2 18q-1.4-0.7-2.7-1.4c3.3 7.5 4.8 14.9 6 23 0.7 4.4 0.9 8.8 0.7 13.2z"/><path class="A" d="m203.7 415.6c-0.2 2.4-0.4 4.8-0.8 7.3q-0.1 0.5-0.2 1c-1.3 6.3-2.8 13.8-6.3 19.3-4.4 6.9-11.5 11-19.7 11-6.9 0-16.5 0-26.3 0-11.2 0-22.7 0-30.2 0.1q-0.3 0-0.5 0-2.1 0-3.4 0c-11.4 0.1-30.2-0.1-43-0.1q-0.4 0-0.8-0.1c-2.2-0.3-4.3-1-6.6-2.8-4.5-3.6-7.9-8.5-10.1-13.9-8.4-20.6-5.4-41.6-0.2-62.3-0.7 2.7 2.4 5.7 3.5 7.9 1.6 3.6 2.7 7.2 4.8 10.6q0-3.1 0-6.2 3.2 5.1 7 9.8 0.2-1.4 0.4-2.7c-0.4 2.6 5.6 8.3 7.3 10.1 3.1 3.4 6.9 6.4 10.6 9 4 2.7 8.2 4.3 12.4 6.5 3.7 1.9 6.8 4.3 10.9 5.5-0.7-1.5-1.4-2.9-2-4.4 18 2.2 34.8-1.7 48.1-14.9 5-5.1 10.3-10.5 13.6-17 0.4 0.8 0.6 1.8 0.5 2.7 2.4-1.9 4-5.3 5.4-8 1.6-3 2.9-6 4.1-9.2 1.1-3.2 2.1-6.4 2.9-9.6 0.6-2.4 2.4-6.5 1.2-8.8q1.1 2 2 4 0.6 1.1 1.2 2.3c3.1 6.3 7.2 11.8 10.2 18q-1.4-0.7-2.7-1.4c3.3 7.5 4.8 14.9 6 23 0.7 4.4 0.9 8.8 0.7 13.2z"/><path class="A" d="m203.7 415.6c-0.2 2.4-0.4 4.8-0.8 7.3q-0.1 0.5-0.2 1c-1.3 6.3-2.8 13.8-6.3 19.3-4.4 6.9-11.5 11-19.7 11-6.9 0-16.5 0-26.3 0-11.2 0-22.7 0-30.2 0.1q-0.3 0-0.5 0-2.1 0-3.4 0c-11.4 0.1-30.2-0.1-43-0.1q-0.4 0-0.8-0.1c-2.2-0.3-4.3-1-6.6-2.8-4.5-3.6-7.9-8.5-10.1-13.9-8.4-20.6-5.4-41.6-0.2-62.3-0.7 2.7 2.4 5.7 3.5 7.9 1.6 3.6 2.7 7.2 4.8 10.6q0-3.1 0-6.2 3.2 5.1 7 9.8 0.2-1.4 0.4-2.7c-0.4 2.6 5.6 8.3 7.3 10.1 3.1 3.4 6.9 6.4 10.6 9 4 2.7 8.2 4.3 12.4 6.5 3.7 1.9 6.8 4.3 10.9 5.5-0.7-1.5-1.4-2.9-2-4.4 18 2.2 34.8-1.7 48.1-14.9 5-5.1 10.3-10.5 13.6-17 0.4 0.8 0.6 1.8 0.5 2.7 2.4-1.9 4-5.3 5.4-8 1.6-3 2.9-6 4.1-9.2 1.1-3.2 2.1-6.4 2.9-9.6 0.6-2.4 2.4-6.5 1.2-8.8q1.1 2 2 4 0.6 1.1 1.2 2.3c3.1 6.3 7.2 11.8 10.2 18q-1.4-0.7-2.7-1.4c3.3 7.5 4.8 14.9 6 23 0.7 4.4 0.9 8.8 0.7 13.2z"/><path class="A" d="m203.7 415.6c-0.2 2.4-0.4 4.8-0.8 7.3q-0.1 0.5-0.2 1c-1.3 6.3-2.8 13.8-6.3 19.3-4.4 6.9-11.5 11-19.7 11-6.9 0-16.5 0-26.3 0-11.2 0-22.7 0-30.2 0.1q-0.3 0-0.5 0-2.1 0-3.4 0c-11.4 0.1-30.2-0.1-43-0.1q-0.4 0-0.8-0.1c-2.2-0.3-4.3-1-6.6-2.8-4.5-3.6-7.9-8.5-10.1-13.9-8.4-20.6-5.4-41.6-0.2-62.3-0.7 2.7 2.4 5.7 3.5 7.9 1.6 3.6 2.7 7.2 4.8 10.6q0-3.1 0-6.2 3.2 5.1 7 9.8 0.2-1.4 0.4-2.7c-0.4 2.6 5.6 8.3 7.3 10.1 3.1 3.4 6.9 6.4 10.6 9 4 2.7 8.2 4.3 12.4 6.5 3.7 1.9 6.8 4.3 10.9 5.5-0.7-1.5-1.4-2.9-2-4.4 18 2.2 34.8-1.7 48.1-14.9 5-5.1 10.3-10.5 13.6-17 0.4 0.8 0.6 1.8 0.5 2.7 2.4-1.9 4-5.3 5.4-8 1.6-3 2.9-6 4.1-9.2 1.1-3.2 2.1-6.4 2.9-9.6 0.6-2.4 2.4-6.5 1.2-8.8q1.1 2 2 4 0.6 1.1 1.2 2.3c3.1 6.3 7.2 11.8 10.2 18q-1.4-0.7-2.7-1.4c3.3 7.5 4.8 14.9 6 23 0.7 4.4 0.9 8.8 0.7 13.2z"/><path class="r" d="m203.7 415.6c-0.2 2.4-0.4 4.8-0.8 7.3q-0.1 0.5-0.2 1c-1.3 6.3-2.8 13.8-6.3 19.3-4.4 6.9-11.5 11-19.7 11-6.9 0-16.5 0-26.3 0-11.2 0-22.7 0-30.2 0.1q-0.3 0-0.5 0-2.1 0-3.4 0c-11.4 0.1-30.2-0.1-43-0.1q-0.4 0-0.8-0.1c-2.2-0.3-4.3-1-6.6-2.8-4.5-3.6-7.9-8.5-10.1-13.9-8.4-20.6-5.4-41.6-0.2-62.3-0.7 2.7 2.4 5.7 3.5 7.9 1.6 3.6 2.7 7.2 4.8 10.6q0-3.1 0-6.2 3.2 5.1 7 9.8 0.2-1.4 0.4-2.7c-0.4 2.6 5.6 8.3 7.3 10.1 3.1 3.4 6.9 6.4 10.6 9 4 2.7 8.2 4.3 12.4 6.5 3.7 1.9 6.8 4.3 10.9 5.5-0.7-1.5-1.4-2.9-2-4.4 18 2.2 34.8-1.7 48.1-14.9 5-5.1 10.3-10.5 13.6-17 0.4 0.8 0.6 1.8 0.5 2.7 2.4-1.9 4-5.3 5.4-8 1.6-3 2.9-6 4.1-9.2 1.1-3.2 2.1-6.4 2.9-9.6 0.6-2.4 2.4-6.5 1.2-8.8q1.1 2 2 4 0.6 1.1 1.2 2.3c3.1 6.3 7.2 11.8 10.2 18q-1.4-0.7-2.7-1.4c3.3 7.5 4.8 14.9 6 23 0.7 4.4 0.9 8.8 0.7 13.2z"/><path class="r" d="m170 328q0.1 0.1 0.1 0.2c-0.3 0.4-0.8 0.6-1.4 0.9-1.1 0.4-2.4 0.6-3.1 1-2.5 1-4.9 2.6-7.2 4.1-4.8 3-9.3 6.4-13.5 10.3-4.4 4.1-9.1 7.7-13.2 12.2q-0.5-1.3-0.6-2.6c0 1-4.5 5.5-5.4 6.3-1.9 2-4.3 3.5-6.5 5.3q-1.3-1.1-2.8-1.9 0.3 1 0.6 2c-4-0.5-8.8-5.7-10.7-8.9q0.6 2.3 1.2 4.6c-3.2-3.1-5.5-6.9-8.5-10.1-2.8-3-5.6-5.8-8.4-8.7-2.9-3.1-7.2-5.6-10.7-8.1-0.8-0.5-8.2-5.4-11-7.2 1.2-4.7 2.1-9.4 2.2-14.3 0.1-1.3 0.2-2.5-0.1-2.6 11.4 3.4 29.5 13.6 46.5 14 12.8 0.3 34-7 47-11.9 0.2 4.9 1.6 5.6 5.9 7.9-1.4 0.3-2.7 0.4-4.1 0.2q0.1 0 0.3 0 0 0 0 0c1.3 0.6 2.3 1.6 2.9 3-0.8 0-1 0.1-1.8 0.4 0.2-0.1 0.4 0.2 0.7 0.7q0.1 0.1 0.1 0.1c0.6 1 1 2 1.5 3.1z"/><path class="r" d="m70.7 318.6q0.4-3.2 0.4-6.5c6.9 3.9 15.9 6.4 25 7.9 7 2.4 14.3 4.3 21.5 4.5 7.5 0.2 17.9-2.3 27.9-5.3 7-1.4 13.6-3.5 19-6.5 0.2 2.7 0.7 4.2 1.9 5.3-0.8-0.7-21.8 11.7-23.7 13.5-0.6-0.6-0.8-1.6-0.5-2.4-8.1 2.6-15.7 6.9-24.6 6.9-10.7 0-19.5-5.3-29-9.1q0 1.1-0.1 2.2c-2.8-2.5-4.8-3.8-8.1-5.2-1-0.4-9.8-4.5-9.7-5.3z"/><path class="m" d="m171.5 309.2c-11.7 10.6-35.4 16.1-52.9 16.1-17.5 0-40.7-6.1-52.3-16.1q-0.4-0.4-0.9-0.8-0.2-0.2-0.4-0.4c-4.2-4.1-5.9-8.7-6.5-13.9-0.2-2.3-0.3-4.6-0.1-7.1 0.3-5.7 1.3-12 1.7-18.8q0-0.5 0.1-0.9 0-0.3 0-0.6 0 0 0-0.1 0.1-0.4 0.1-0.8 0-0.5 0.1-1 0.1-0.9 0.2-1.7 0.1-0.3 0.1-0.6 0.1-0.3 0.1-0.5 0-0.3 0.1-0.5 0 0 0-0.1 0-0.1 0-0.3 0.1-0.2 0.1-0.4 0-0.1 0.1-0.3 0 0 0-0.1 0-0.3 0.1-0.5 0-0.3 0.1-0.6 0 0 0 0 0-0.2 0.1-0.4 0 0 0 0 0.1-0.4 0.1-0.7 0.5-2.1 1.2-4.2 0.1-0.2 0.2-0.4 0 0 0-0.1 0.1-0.4 0.2-0.8 0.2-0.4 0.4-0.9 0 0 0-0.1 0.2-0.4 0.4-0.9 0-0.1 0-0.2 0.2-0.4 0.4-0.8 0.2-0.6 0.4-1.1 0.2-0.3 0.4-0.7 0-0.1 0-0.1 0.1-0.2 0.2-0.3 0.3-0.8 0.7-1.5 0.1-0.2 0.2-0.5 0.1 0 0.1-0.1 0-0.1 0.1-0.2 0 0 0 0 0.2-0.3 0.3-0.6 0 0 0.1-0.1 0-0.1 0.1-0.3 0.2-0.2 0.3-0.4 0.1-0.2 0.2-0.3 0.4-0.8 1-1.7 0 0 0.1-0.1 0 0 0-0.1 0.2-0.2 0.3-0.4 0-0.1 0.1-0.1 0-0.1 0-0.1 0.2-0.3 0.4-0.6 0 0 0 0 0.3-0.4 0.5-0.7 0.2-0.3 0.4-0.5 0.1-0.2 0.3-0.4 0 0 0-0.1 0.2-0.2 0.4-0.5 0.1-0.1 0.1-0.1 0.2-0.3 0.4-0.6 0.1-0.1 0.2-0.2 0.3-0.4 0.6-0.8c5.4-6.5 12.2-11.5 19.7-14.9q0.2-0.1 0.3-0.1 1.5-0.7 3-1.3 0 0 0.1-0.1 1.7-0.5 3.4-1.1l2.9-0.9q0.8-0.2 1.6-0.4 0.5-0.1 1.1-0.2 0.3-0.1 0.6-0.1c3.2-0.4 7.1-0.2 9.5-1.5-0.5-0.6-0.9-1.8-1.7-2.4 0.9 0 1.5 0.2 2.2 0.6 0.8 0.3 1.6 0.6 2.4 0.4 0.8-0.2 1.4-1.2 0.9-1.9 4.2 3.9 8.6 4 13.6 5q1.1 0.2 2.2 0.5 3.5 1 6.9 2.3 0.1 0 0.2 0.1 1.3 0.5 2.6 1.1 0.2 0.1 0.3 0.1 0.1 0.1 0.1 0.1 0.1 0.1 0.2 0.1 0.2 0.1 0.4 0.2 0.4 0.2 0.8 0.4 0.1 0 0.2 0 0.4 0.3 0.8 0.5 0.5 0.2 0.9 0.5 0.4 0.2 0.7 0.3 0.3 0.2 0.5 0.3 0.8 0.5 1.7 1 0.3 0.2 0.7 0.5 0.5 0.3 0.9 0.6 0.4 0.3 0.8 0.5 0.5 0.4 1 0.7 0.1 0.1 0.3 0.2 0.2 0.2 0.4 0.4c2.8 2.1 5.4 4.5 7.8 7.1q1 1.2 2 2.4 1 1.3 2 2.7 0.6 0.9 1.2 1.8c4.9 7.7 8.5 17.3 10.4 26.2q-0.9-0.9-1.9-1.7c1.8 6.8 2.6 14.6 2.8 21.6 0.3 8.1-1.1 15.5-7.3 21.1z"/><path class="r" d="m171.5 309.2c-11.7 10.6-35.4 16.1-52.9 16.1-17.5 0-40.7-6.1-52.3-16.1q-0.4-0.4-0.8-0.8-0.3-0.2-0.5-0.4c-4.2-4.1-5.9-8.7-6.5-13.9-0.2-2.3-0.3-4.6-0.1-7.1 0.4 2.2 1.1 4.6 2.1 7 1.4 3.3 3.3 6.5 5.8 8.7 4.8 4.1 11.2 8.7 16.8 11.4q0.1-0.8 0.2-1.6c-0.3 2.1 14.3 6.3 15.8 6.7 6.3 1.8 12.9 3.2 19.5 3.2 17.5 0 41.5-9.1 53.1-19.7 3.7-3.3 6.2-9.9 7-14.6 0.3 8.1-1.1 15.5-7.2 21.1z"/><path class="A" d="m171.5 309.2c-11.7 10.6-35.4 16.1-52.9 16.1-17.5 0-40.7-6.1-52.3-16.1q-0.4-0.4-0.8-0.8-0.3-0.2-0.5-0.4c-4.2-4.1-5.9-8.7-6.5-13.9-0.2-2.3-0.3-4.6-0.1-7.1 0.4 2.2 1.1 4.6 2.1 7 1.4 3.3 3.3 6.5 5.8 8.7 4.8 4.1 11.2 8.7 16.8 11.4q0.1-0.8 0.2-1.6c-0.3 2.1 14.3 6.3 15.8 6.7 6.3 1.8 12.9 3.2 19.5 3.2 17.5 0 41.5-9.1 53.1-19.7 3.7-3.3 6.2-9.9 7-14.6 0.3 8.1-1.1 15.5-7.2 21.1z"/><path class="A" d="m171.5 309.2c-11.7 10.6-35.4 16.1-52.9 16.1-17.5 0-40.7-6.1-52.3-16.1q-0.4-0.4-0.8-0.8-0.3-0.2-0.5-0.4c-4.2-4.1-5.9-8.7-6.5-13.9-0.2-2.3-0.3-4.6-0.1-7.1 0.4 2.2 1.1 4.6 2.1 7 1.4 3.3 3.3 6.5 5.8 8.7 4.8 4.1 11.2 8.7 16.8 11.4q0.1-0.8 0.2-1.6c-0.3 2.1 14.3 6.3 15.8 6.7 6.3 1.8 12.9 3.2 19.5 3.2 17.5 0 41.5-9.1 53.1-19.7 3.7-3.3 6.2-9.9 7-14.6 0.3 8.1-1.1 15.5-7.2 21.1z"/><path class="A" d="m171.5 309.2c-11.7 10.6-35.4 16.1-52.9 16.1-17.5 0-40.7-6.1-52.3-16.1q-0.4-0.4-0.8-0.8-0.3-0.2-0.5-0.4c-4.2-4.1-5.9-8.7-6.5-13.9-0.2-2.3-0.3-4.6-0.1-7.1 0.4 2.2 1.1 4.6 2.1 7 1.4 3.3 3.3 6.5 5.8 8.7 4.8 4.1 11.2 8.7 16.8 11.4q0.1-0.8 0.2-1.6c-0.3 2.1 14.3 6.3 15.8 6.7 6.3 1.8 12.9 3.2 19.5 3.2 17.5 0 41.5-9.1 53.1-19.7 3.7-3.3 6.2-9.9 7-14.6 0.3 8.1-1.1 15.5-7.2 21.1z"/><path class="A" d="m171.5 309.2c-11.7 10.6-35.4 16.1-52.9 16.1-17.5 0-40.7-6.1-52.3-16.1q-0.4-0.4-0.8-0.8-0.3-0.2-0.5-0.4c-4.2-4.1-5.9-8.7-6.5-13.9-0.2-2.3-0.3-4.6-0.1-7.1 0.4 2.2 1.1 4.6 2.1 7 1.4 3.3 3.3 6.5 5.8 8.7 4.8 4.1 11.2 8.7 16.8 11.4q0.1-0.8 0.2-1.6c-0.3 2.1 14.3 6.3 15.8 6.7 6.3 1.8 12.9 3.2 19.5 3.2 17.5 0 41.5-9.1 53.1-19.7 3.7-3.3 6.2-9.9 7-14.6 0.3 8.1-1.1 15.5-7.2 21.1z"/><path class="A" d="m171.5 309.2c-11.7 10.6-35.4 16.1-52.9 16.1-17.5 0-40.7-6.1-52.3-16.1q-0.4-0.4-0.8-0.8-0.3-0.2-0.5-0.4c-4.2-4.1-5.9-8.7-6.5-13.9-0.2-2.3-0.3-4.6-0.1-7.1 0.4 2.2 1.1 4.6 2.1 7 1.4 3.3 3.3 6.5 5.8 8.7 4.8 4.1 11.2 8.7 16.8 11.4q0.1-0.8 0.2-1.6c-0.3 2.1 14.3 6.3 15.8 6.7 6.3 1.8 12.9 3.2 19.5 3.2 17.5 0 41.5-9.1 53.1-19.7 3.7-3.3 6.2-9.9 7-14.6 0.3 8.1-1.1 15.5-7.2 21.1z"/><path class="A" d="m171.5 309.2c-11.7 10.6-35.4 16.1-52.9 16.1-17.5 0-40.7-6.1-52.3-16.1q-0.4-0.4-0.8-0.8-0.3-0.2-0.5-0.4c-4.2-4.1-5.9-8.7-6.5-13.9-0.2-2.3-0.3-4.6-0.1-7.1 0.4 2.2 1.1 4.6 2.1 7 1.4 3.3 3.3 6.5 5.8 8.7 4.8 4.1 11.2 8.7 16.8 11.4q0.1-0.8 0.2-1.6c-0.3 2.1 14.3 6.3 15.8 6.7 6.3 1.8 12.9 3.2 19.5 3.2 17.5 0 41.5-9.1 53.1-19.7 3.7-3.3 6.2-9.9 7-14.6 0.3 8.1-1.1 15.5-7.2 21.1z"/><path class="A" d="m171.5 309.2c-11.7 10.6-35.4 16.1-52.9 16.1-17.5 0-40.7-6.1-52.3-16.1q-0.4-0.4-0.8-0.8-0.3-0.2-0.5-0.4c-4.2-4.1-5.9-8.7-6.5-13.9-0.2-2.3-0.3-4.6-0.1-7.1 0.4 2.2 1.1 4.6 2.1 7 1.4 3.3 3.3 6.5 5.8 8.7 4.8 4.1 11.2 8.7 16.8 11.4q0.1-0.8 0.2-1.6c-0.3 2.1 14.3 6.3 15.8 6.7 6.3 1.8 12.9 3.2 19.5 3.2 17.5 0 41.5-9.1 53.1-19.7 3.7-3.3 6.2-9.9 7-14.6 0.3 8.1-1.1 15.5-7.2 21.1z"/><path class="A" d="m171.5 309.2c-11.7 10.6-35.4 16.1-52.9 16.1-17.5 0-40.7-6.1-52.3-16.1q-0.4-0.4-0.8-0.8-0.3-0.2-0.5-0.4c-4.2-4.1-5.9-8.7-6.5-13.9-0.2-2.3-0.3-4.6-0.1-7.1 0.4 2.2 1.1 4.6 2.1 7 1.4 3.3 3.3 6.5 5.8 8.7 4.8 4.1 11.2 8.7 16.8 11.4q0.1-0.8 0.2-1.6c-0.3 2.1 14.3 6.3 15.8 6.7 6.3 1.8 12.9 3.2 19.5 3.2 17.5 0 41.5-9.1 53.1-19.7 3.7-3.3 6.2-9.9 7-14.6 0.3 8.1-1.1 15.5-7.2 21.1z"/><path class="A" d="m171.5 309.2c-11.7 10.6-35.4 16.1-52.9 16.1-17.5 0-40.7-6.1-52.3-16.1q-0.4-0.4-0.8-0.8-0.3-0.2-0.5-0.4c-4.2-4.1-5.9-8.7-6.5-13.9-0.2-2.3-0.3-4.6-0.1-7.1 0.4 2.2 1.1 4.6 2.1 7 1.4 3.3 3.3 6.5 5.8 8.7 4.8 4.1 11.2 8.7 16.8 11.4q0.1-0.8 0.2-1.6c-0.3 2.1 14.3 6.3 15.8 6.7 6.3 1.8 12.9 3.2 19.5 3.2 17.5 0 41.5-9.1 53.1-19.7 3.7-3.3 6.2-9.9 7-14.6 0.3 8.1-1.1 15.5-7.2 21.1z"/><path class="A" d="m171.5 309.2c-11.7 10.6-35.4 16.1-52.9 16.1-17.5 0-40.7-6.1-52.3-16.1q-0.4-0.4-0.8-0.8-0.3-0.2-0.5-0.4c-4.2-4.1-5.9-8.7-6.5-13.9-0.2-2.3-0.3-4.6-0.1-7.1 0.4 2.2 1.1 4.6 2.1 7 1.4 3.3 3.3 6.5 5.8 8.7 4.8 4.1 11.2 8.7 16.8 11.4q0.1-0.8 0.2-1.6c-0.3 2.1 14.3 6.3 15.8 6.7 6.3 1.8 12.9 3.2 19.5 3.2 17.5 0 41.5-9.1 53.1-19.7 3.7-3.3 6.2-9.9 7-14.6 0.3 8.1-1.1 15.5-7.2 21.1z"/><path class="A" d="m171.5 309.2c-11.7 10.6-35.4 16.1-52.9 16.1-17.5 0-40.7-6.1-52.3-16.1q-0.4-0.4-0.8-0.8-0.3-0.2-0.5-0.4c-4.2-4.1-5.9-8.7-6.5-13.9-0.2-2.3-0.3-4.6-0.1-7.1 0.4 2.2 1.1 4.6 2.1 7 1.4 3.3 3.3 6.5 5.8 8.7 4.8 4.1 11.2 8.7 16.8 11.4q0.1-0.8 0.2-1.6c-0.3 2.1 14.3 6.3 15.8 6.7 6.3 1.8 12.9 3.2 19.5 3.2 17.5 0 41.5-9.1 53.1-19.7 3.7-3.3 6.2-9.9 7-14.6 0.3 8.1-1.1 15.5-7.2 21.1z"/><path class="A" d="m171.5 309.2c-11.7 10.6-35.4 16.1-52.9 16.1-17.5 0-40.7-6.1-52.3-16.1q-0.4-0.4-0.8-0.8-0.3-0.2-0.5-0.4c-4.2-4.1-5.9-8.7-6.5-13.9-0.2-2.3-0.3-4.6-0.1-7.1 0.4 2.2 1.1 4.6 2.1 7 1.4 3.3 3.3 6.5 5.8 8.7 4.8 4.1 11.2 8.7 16.8 11.4q0.1-0.8 0.2-1.6c-0.3 2.1 14.3 6.3 15.8 6.7 6.3 1.8 12.9 3.2 19.5 3.2 17.5 0 41.5-9.1 53.1-19.7 3.7-3.3 6.2-9.9 7-14.6 0.3 8.1-1.1 15.5-7.2 21.1z"/><path class="A" d="m171.5 309.2c-11.7 10.6-35.4 16.1-52.9 16.1-17.5 0-40.7-6.1-52.3-16.1q-0.4-0.4-0.8-0.8-0.3-0.2-0.5-0.4c-4.2-4.1-5.9-8.7-6.5-13.9-0.2-2.3-0.3-4.6-0.1-7.1 0.4 2.2 1.1 4.6 2.1 7 1.4 3.3 3.3 6.5 5.8 8.7 4.8 4.1 11.2 8.7 16.8 11.4q0.1-0.8 0.2-1.6c-0.3 2.1 14.3 6.3 15.8 6.7 6.3 1.8 12.9 3.2 19.5 3.2 17.5 0 41.5-9.1 53.1-19.7 3.7-3.3 6.2-9.9 7-14.6 0.3 8.1-1.1 15.5-7.2 21.1z"/><path class="A" d="m171.5 309.2c-11.7 10.6-35.4 16.1-52.9 16.1-17.5 0-40.7-6.1-52.3-16.1q-0.4-0.4-0.8-0.8-0.3-0.2-0.5-0.4c-4.2-4.1-5.9-8.7-6.5-13.9-0.2-2.3-0.3-4.6-0.1-7.1 0.4 2.2 1.1 4.6 2.1 7 1.4 3.3 3.3 6.5 5.8 8.7 4.8 4.1 11.2 8.7 16.8 11.4q0.1-0.8 0.2-1.6c-0.3 2.1 14.3 6.3 15.8 6.7 6.3 1.8 12.9 3.2 19.5 3.2 17.5 0 41.5-9.1 53.1-19.7 3.7-3.3 6.2-9.9 7-14.6 0.3 8.1-1.1 15.5-7.2 21.1z"/><path class="A" d="m171.5 309.2c-11.7 10.6-35.4 16.1-52.9 16.1-17.5 0-40.7-6.1-52.3-16.1q-0.4-0.4-0.8-0.8-0.3-0.2-0.5-0.4c-4.2-4.1-5.9-8.7-6.5-13.9-0.2-2.3-0.3-4.6-0.1-7.1 0.4 2.2 1.1 4.6 2.1 7 1.4 3.3 3.3 6.5 5.8 8.7 4.8 4.1 11.2 8.7 16.8 11.4q0.1-0.8 0.2-1.6c-0.3 2.1 14.3 6.3 15.8 6.7 6.3 1.8 12.9 3.2 19.5 3.2 17.5 0 41.5-9.1 53.1-19.7 3.7-3.3 6.2-9.9 7-14.6 0.3 8.1-1.1 15.5-7.2 21.1z"/><path class="r" d="m171.5 309.2c-11.7 10.6-35.4 16.1-52.9 16.1-17.5 0-40.7-6.1-52.3-16.1q-0.4-0.4-0.8-0.8-0.3-0.2-0.5-0.4c-4.2-4.1-5.9-8.7-6.5-13.9-0.2-2.3-0.3-4.6-0.1-7.1 0.4 2.2 1.1 4.6 2.1 7 1.4 3.3 3.3 6.5 5.8 8.7 4.8 4.1 11.2 8.7 16.8 11.4q0.1-0.8 0.2-1.6c-0.3 2.1 14.3 6.3 15.8 6.7 6.3 1.8 12.9 3.2 19.5 3.2 17.5 0 41.5-9.1 53.1-19.7 3.7-3.3 6.2-9.9 7-14.6 0.3 8.1-1.1 15.5-7.2 21.1z"/><path class="r" d="m165.3 241.1c-4.7-1.9-8.5-4.8-12.7-7.6-1.5-1-3.2-1.8-4.6-2.7-0.5-0.2-2.6-1.2-2.7-1.6 0.1 0.5 0.3 0.9 0.7 1.2-1.2-1-3.2-1.4-4.6-2.1q-2.5-1.2-4.7-2.8 0.3 0.5 0.6 1c-1.3-0.7-2.7-1.6-3.6-2.7-0.8-0.9-1.2-2.2-2.3-2.9q0.6 0.4 1.3 0.5c-0.2-0.2-2-4-0.9-3.8q1.1 0.2 2.2 0.5 3.5 1 6.9 2.3 0.1 0.1 0.2 0.1 1.4 0.5 2.7 1.1 0.1 0.1 0.2 0.1 0.1 0.1 0.2 0.1 0.1 0.1 0.1 0.1 0.2 0.1 0.4 0.2 0.4 0.2 0.9 0.4 0 0 0.1 0.1 0.4 0.2 0.9 0.4 0.4 0.2 0.9 0.5 0.3 0.2 0.7 0.4 0.2 0.1 0.4 0.2 0.9 0.5 1.7 1.1 0.4 0.2 0.7 0.4 0.5 0.3 1 0.6 0.4 0.3 0.8 0.6 0.4 0.3 0.9 0.7 0.1 0.1 0.3 0.2 0.2 0.1 0.5 0.3 4.1 3.2 7.7 7.2 1 1.1 2 2.3 0.2 0.5 0.4 0.9c0.1 0.4 0.5 2.6 0.7 2.7z"/><path class="r" d="m105.4 219.4c-0.4 0.8-0.8 1.8-1.2 2.8-0.4 0.9-0.8 1.7-1.3 2.3q-0.2-0.4-0.3-0.8c-1.9 3.4-6.2 3.6-9.6 4.9-1.2 0.5-2.5 0.8-3.6 1.4-1.1 0.6-2 1.6-3.2 2.2q0-0.3 0.1-0.6c-3.2 1.8-6.6 2.9-9.5 5.1q-0.2 0.1-0.3 0.2c-1.6 1.3-2.9 2.7-4.8 3.7-0.3 0.2-2.1 0.8-3.3 1.3q0-0.1 0.1-0.2 0 0 0-0.1 0.2-0.2 0.3-0.4 0.1-0.1 0.1-0.1 0-0.1 0-0.1 0.2-0.3 0.4-0.6 0 0 0.1 0 0.2-0.4 0.4-0.7 0.2-0.3 0.4-0.5 0.1-0.2 0.3-0.4 0 0 0 0 0.2-0.3 0.5-0.6 0-0.1 0-0.1 0.3-0.3 0.5-0.6 0-0.1 0.1-0.2 0.3-0.4 0.6-0.7c5.5-6.6 12.3-11.6 19.8-15q0.1-0.1 0.2-0.1 1.5-0.7 3-1.3 0.1 0 0.1-0.1 1.8-0.5 3.5-1.1l2.8-0.9q0.8-0.2 1.6-0.4 0.6-0.1 1.1-0.2c0.4 0 0.6-0.1 0.7-0.1-0.4 0.9-1.2 2-1.2 2.9 0.5-0.4 1-0.7 1.6-0.9z"/><path class="s" d="m90.9 277.4c-4.5 0-8.3-3.7-8.3-8.3 0.1-4.6 3.8-8.3 8.3-8.3 4.6 0 8.3 3.7 8.3 8.3 0 4.6-3.7 8.3-8.3 8.3z"/><path class="t" d="m90.9 277c-4.3 0-7.8-3.5-7.8-7.9 0-4.3 3.5-7.8 7.8-7.8 4.4 0 7.9 3.5 7.9 7.8 0 4.4-3.5 7.9-7.9 7.9z"/><path class="u" d="m88.6 267.6c-1.3-0.1-2.3-1.1-2.3-2.3 0-1.2 1-2.2 2.3-2.2 1.2 0 2.2 1 2.2 2.2 0 1.2-1 2.2-2.2 2.2z"/><path class="s" d="m144.9 277.4c-4.6 0-8.3-3.7-8.3-8.3 0-4.6 3.7-8.3 8.3-8.3 4.6 0 8.3 3.7 8.3 8.3 0 4.6-3.7 8.3-8.3 8.3z"/><path class="t" d="m144.9 277c-4.3 0-7.8-3.5-7.8-7.9 0-4.3 3.5-7.8 7.8-7.8 4.3 0 7.8 3.5 7.8 7.8 0 4.4-3.5 7.9-7.8 7.9z"/><path class="u" d="m142.7 267.6c-1.3-0.1-2.3-1.1-2.3-2.3 0-1.2 1-2.2 2.3-2.2 1.2 0 2.2 1 2.2 2.2 0 1.2-1 2.2-2.2 2.2z"/><path class="B" d="m128.5 287.6c-0.1 0.3-2.5 2.4-2.8 2.7-1.6 1-4.6 3.3-7.5 3.3-2.9 0-6.1-2.3-7.8-3.5-0.4-0.2-1.7-1.7-2-2.2 0 0 0.1-0.4 0.7-0.4q0.8 0.2 1.7 0.2h0.3c2.2 0 4.4-0.9 5.7-2.8q0-0.1 0.1-0.2 0.3-0.6 0.4-1.2 0-0.1 0.1-0.2 0-0.1 0-0.3 0-0.1 0-0.2 0-0.1 0-0.2h1.6q0 0.2 0 0.4 0 0.3 0.1 0.5 0 0.1 0 0.1 0 0.2 0 0.2 0.1 0.2 0.1 0.3 0.1 0.2 0.2 0.4 0.3 0.6 0.8 1.1 0.1 0.2 0.3 0.4 0.2 0.1 0.4 0.3 0 0 0.1 0.1c1.3 0.9 2.7 1.3 4.2 1.3h0.3q0.7 0 1.3-0.1c0.7 0 1.3 0 1.7 0z"/><path class="t" d="m129.5 286.4q-0.4 0.6-1 1.2c-2.2 2.3-5.9 3.8-10.2 3.8-4.2 0-7.7-1.4-9.9-3.5q-0.6-0.6-1-1.2c1 0.7 2.2 1 3.4 1.1h0.3c2.3 0 4.6-1 5.8-3.1q0.4-0.8 0.5-1.7 0-0.2 0-0.3h1.6c0 0 0 0.1 0 0.1 0 1.5 0.9 2.7 1.9 3.5 1.3 1 2.8 1.5 4.4 1.5h0.3c1.2-0.1 2.4-0.4 3.5-1.1q0.2-0.1 0.4-0.3z"/><path class="t" d="m131.5 282.6c0.1 1.9-1 3.6-2.3 4.5q-0.3 0.3-0.7 0.5c-1.1 0.7-2.3 1-3.6 1.1q-0.3 0-0.6 0c-2.3 0-4.5-1-5.9-3q-0.1-0.2-0.2-0.3c-0.6 0.9-1.3 1.7-2.1 2.2-1.3 0.7-2.7 1.1-4 1.1q-0.3 0-0.6 0-1.7-0.1-3.1-0.8-0.4-0.2-0.7-0.4-0.3-0.2-0.5-0.3c-1.3-1-2.4-2.7-2.4-4.6 0.1 1.9 1.3 3.3 2.5 4.1q0 0 0.1 0 0.8 0.5 1.7 0.8 0.8 0.2 1.7 0.2h0.3c2.2 0 4.4-0.9 5.7-2.8q0-0.1 0.1-0.2 0.3-0.6 0.4-1.2 0-0.1 0.1-0.2 0-0.1 0-0.3 0 0 0 0 0-0.1 0-0.2 0-0.1 0-0.2h1.6c0 0 0 0.1 0 0.2q0 0.1 0 0.2 0 0.3 0.1 0.5 0 0.1 0 0.2 0 0.1 0 0.1 0.1 0.2 0.2 0.4 0 0.1 0.1 0.3 0.3 0.6 0.8 1.1 0.1 0.2 0.3 0.4 0.2 0.2 0.4 0.3 0 0 0.1 0.1c1.3 0.9 2.8 1.4 4.2 1.4h0.3q0.7-0.1 1.3-0.2 1.2-0.3 2.2-0.9 0.2-0.1 0.5-0.3c1.1-0.8 1.9-2.1 2-3.8z"/><path class="C" d="m118.3 298c-7.4 0-6.8-5.7-6.5-8.1 0-0.4 0.1-0.8 0.1-1.1q0 0 0.1-0.1h0.1c1.4 0 2.7-0.4 4-1.1 0.8-0.5 1.6-1.3 2.1-2.2q0.1 0.1 0.2 0.3c1.4 2 3.7 3 5.9 3q0.1 0 0.1 0c0.1 0.5 0.1 1 0.1 1.5 0.2 2.6 1.1 7.9-6.2 7.8z"/><path class="D" d="m124.4 288.7c-0.2 0-0.5 0.2-0.7 0.3q-0.4 0.1-0.8 0.2-0.2 0-0.4 0.1c-0.7 0.2-1.7 0.4-2.4 0.8q-0.2 0.2-0.4 0.4c-1.1 1.1-1.2 2.7-1.4 4.2-0.3-1.3-0.3-2.8-1.1-4-0.7-0.9-1.7-1.3-2.8-1.6-0.7-0.1-1.8-0.3-2.5-0.4h0.2c1.4 0 2.7-0.4 4-1.1 0.8-0.5 1.6-1.3 2.1-2.2q0.1 0.1 0.2 0.3c1.4 2.1 3.7 3 5.9 3q0.1 0 0.1 0z"/><path class="D" d="m124.4 288.7c-0.2 0-0.5 0.2-0.7 0.3q-0.4 0.1-0.8 0.2-0.2 0-0.4 0.1c-0.7 0.2-1.7 0.4-2.4 0.8q-0.2 0.2-0.4 0.4c-1.1 1.1-1.2 2.7-1.4 4.2-0.3-1.3-0.3-2.8-1.1-4-0.7-0.9-1.7-1.3-2.8-1.6-0.7-0.1-1.8-0.3-2.5-0.4h0.2c1.4 0 2.7-0.4 4-1.1 0.8-0.5 1.6-1.3 2.1-2.2q0.1 0.1 0.2 0.3c1.4 2.1 3.7 3 5.9 3q0.1 0 0.1 0z"/><path class="v" d="m125.8 277.7c0 3.3-6 7.1-7.6 7.1-1.5 0-7.6-3.8-7.6-7.1 0-2.4 3.4-2.4 7.6-2.4 4.2 0 7.6 0 7.6 2.4z"/><path class="w" d="m125.7 278c-0.3 3.2-5.9 6.8-7.5 6.8-1.5 0-7.2-3.5-7.5-6.8 0.3 2.4 6 5.1 7.5 5.1 1.6 0 7.2-2.7 7.5-5.1z"/><path class="C" d="m163.9 295.4c-4.9 0-8.9-3.9-8.9-8.9 0-4.9 4-8.8 8.9-8.8 4.9 0 8.9 3.9 8.9 8.8 0 5-4 8.9-8.9 8.9z"/><path class="C" d="m71.9 295.4c-5 0-8.9-3.9-8.9-8.9 0-4.9 3.9-8.8 8.9-8.8 4.9 0 8.8 3.9 8.8 8.8 0 5-3.9 8.9-8.8 8.9z"/><path class="t" d="m130.5 278.7c11.7-5.2 24.6-7.8 37.3-7.3-12.7 0.4-25.3 2.9-37.3 7.3z"/><path class="t" d="m134 280.9c12.5-1.6 25.3-1 37.6 1.7-12.5-1.9-25.1-2.5-37.6-1.7z"/><path class="t" d="m105 278.7c-12-4.4-24.6-6.9-37.3-7.3 12.7-0.4 25.6 2.1 37.3 7.3z"/><path class="t" d="m101.5 280.9c-12.5-0.7-25.1-0.2-37.6 1.7 12.3-2.7 25.1-3.3 37.6-1.7z"/><path class="m" d="m98.7 223.9q-2.1 1.2-4.2 2.5 0.3-0.4 0.6-0.8c-1.6 0.8-3.3 1.4-5 2.2q-2.8 1.4-5.4 3.1-2.2 1.4-4.4 2.9c-1.3 1-2.4 2.6-3.5 3.9q0.2-0.7 0.4-1.4c-2.6 2.9-5.4 5.4-7.9 8.4q-1.5 1.9-3 3.9c-0.9 1.4-1.4 3-2.1 4.5q0-0.5 0.1-1.1c-0.7 0.8-1.2 1.8-1.6 2.8-0.4-3.3 0-7 0.3-10.4q0.5-5.3 1.4-10.6c1.2-6.8 2.7-13.6 4.8-20.2 0.7-1.9 1.3-3.8 2-5.7q0.5-1.4 1.1-2.7c0.3-0.5 1.2-1.8 0.1-1.7 0.3-0.6 1.2-2 1.9-2.2q-0.7 0.2-1.5 0.5c6.2-7.4 17.6 2.2 22.8 6.6 1.6 1.4 3.2 2.8 4.5 4.6 0.7 0.8 1.3 1.7 1.7 2.7 0.4 0.9 1 2.1 0.9 3q0.3-0.2 0.6-0.5-0.2 1-0.6 1.9-0.2 0.4-0.5 0.8c-0.7 1.2-1.8 2.5-2.9 3.3q0.2-0.4 0.4-0.8-0.5 0.3-1 0.5z"/><path class="x" d="m93.4 222.2q-0.1-0.1-0.2-0.1-2.4-1-4.8-2.1c1.5 1.1 2.8 2.6 3.6 4.4q-3.4-1.2-6.9-2.3 1.5 1.6 3 3.2c0.5 0.6-14.1 9.1-14.7 10.2-0.2 0.2-0.3 0.4-0.4 0.5-0.2 0.1-0.4 0-0.6 0q-1.1-0.4-2.2-0.7c-0.3-0.1-0.8-0.3-1-0.6-0.2-0.6 0.1-1.2 0.6-1.6 0.4-0.4 1-0.7 1.2-1.2-0.2-0.7-0.9-1.2-1.5-1.1 0.9-4.2 2-8.2 3.3-12.3 1.2-3.5 2.5-6.5 4.7-9.4 4.4-5.8 14.7 3.6 17.4 7.6 0.9 1.3 1.3 3 0.9 4.6-0.2 0.4-0.3 0.8-0.7 1-0.5 0.3-1.1 0.1-1.7-0.1z"/><path class="m" d="m137.1 223.8c-0.8-0.5-1.5-1-2.1-1.8q0 0.5 0 1c-1.2-1.8-2.1-3.8-1.5-6.1 1.1-3.7 4.1-6.5 6.7-8.7 2-1.7 3.8-3.3 5.7-5q-0.1 0.5-0.3 0.9c4.2-2.2 7.9-5.5 12.9-5.1 1.3 0.1 2.3 1.5 3 2.5 2.7 4 4.3 9 5.7 13.7 0.9 3 1.5 6.2 1.9 9.4q0.5-0.6 0.6-1.3c0.5 3.9 1.3 7.7 2 11.6q0.8 5.1 1.2 10.2c0.1 1.6 0.3 3.3 0.4 5 0 1.5-0.1 3.1 0.1 4.6-0.5-1-1.1-1.9-1.7-2.9 0 0.2 0 0.4 0 0.6 0 0.1 0 0.4 0 0.5-0.3-0.5-0.6-0.9-0.9-1.4-0.7-1.4-1.4-2.9-2.2-4.2-0.4-0.6-0.8-1.2-1.2-1.8 0 0.4 0.1 1.2 0.3 1.5-0.8-1.4-1.6-2.6-2.5-3.9q-1.3-1.8-2.9-3.5-1.5-1.5-3.1-3c-1.4-1.3-2.9-2.4-4.4-3.5q-2.8-2.1-5.8-3.7-1.5-0.9-3-1.7-0.7-0.3-1.5-0.7c-0.4-0.2-0.8-0.5-1.3-0.6 0.1 0.2 0.3 0.5 0.5 0.6-1-0.5-2-1.1-3-1.5-1.2-0.5-2.4-1.1-3.6-1.7z"/><path class="x" d="m142.4 221.9c-0.5 0.3-1.2 0.4-1.7 0.1-0.3-0.2-0.5-0.6-0.6-1-0.5-1.5 0-3.3 0.9-4.6 2.7-4 13-13.4 17.3-7.6 2.3 3 3.5 5.9 4.7 9.5 1.3 4.1 2.4 8 3.3 12.3-0.6-0.1-1.3 0.3-1.5 1 0.3 0.6 0.8 0.9 1.2 1.2 0.5 0.4 0.8 1.1 0.6 1.6-0.2 0.4-0.6 0.5-1 0.6q-1.1 0.4-2.2 0.7c-0.2 0.1-0.3 0.1-0.5 0-0.2 0-0.3-0.3-0.4-0.4-0.7-1.2-15.3-9.7-14.7-10.3q1.5-1.6 2.9-3.1l-6.9 2.2c0.9-1.8 2.1-3.3 3.7-4.4q-2.5 1.1-4.9 2.1-0.1 0.1-0.2 0.1z"/><path class="m" d="m117.2 452q-0.1 0.2-0.3 0.5-0.1 0.1-0.2 0.3c-0.2 0.3-0.4 0.5-0.5 0.8 0 0.3 0 0.6 0 1 0.2 1.7-0.5 3.5-1.6 4.8q-0.1 0.2-0.2 0.3c-0.9 1-2 1.7-3.3 2.1 0.5 6.5-9.5 7.6-13.6 5.2-3-1.7-4.2-1.7-7.5-2.5-4.9-1.1-9.6-3.2-14-5.5-9.3-4.8-15.3-11.4-20.1-20.8-1.2-2.4-6.9-11.5-5.4-14.1q-1 1.7-2 3.4c-0.2-2.6-0.5-5.4-0.4-8 0.1-0.7 0.2-4.9 0.5-5.1-0.4 0.3-1.9 1.3-2 1.8 0.4-4.3 0.9-9.5 2.9-13.6 1.5-3 3.9-5.5 7.7-6.4 6.3-1.6 14.6 2.4 18.5 7.4 3.6 4.6 7 7.7 11.7 11.4-1.3 0.1-2.6 0-3.8-0.4 2.8 2.8 5.7 6.2 9.1 8.4 4.4 4 10 6.7 14.9 10.1 4.1 2.9 7.8 6.3 9.8 11.4 1 2.4 1.1 5.3-0.2 7.6z"/><path class="r" d="m116.3 454.9c0 1.7-0.7 3.5-1.9 4.8-0.9 1-2 1.7-3.3 2.1 0.6 6.5-9.5 7.6-13.6 5.2-3-1.7-4.2-1.7-7.5-2.5-4.9-1.1-9.5-3.2-14-5.5-9.3-4.8-15.3-11.5-20.1-20.8-1.2-2.4-6.9-11.5-5.4-14.1q-1 1.7-2 3.4c-0.2-2.6-0.5-5.4-0.3-8 0-0.7 0.1-4.9 0.4-5.1-0.4 0.3-1.9 1.3-2 1.8 0.4-4.3 0.9-9.5 2.9-13.6 0.4 5.6 0.5 10.9 2.6 16.1 2 5.1 4.9 9.8 8 14.3q0.6-2.1 1.3-4.3c-0.7 2.2 3.6 7.9 4.8 9.6 1.9 2.5 4 5.5 6.3 7.6 6.2 6 13.5 8.6 21.8 10q-1.3-1.5-2.5-3.1c3.5 1.5 6.5 3.9 10 5.6 1.4 0.7 2.9 1.1 5.4 0.8 2.5-0.4 9.1-0.5 9.1-4.3z"/><path class="m" d="m203.6 428.6c-0.2 3.2-0.6 6.4-1.1 9.4-0.2-1.1-0.6-2.1-1.2-3 0.6 3.9-1.3 7.7-3.1 11.2-0.2-1.1-0.5-2.1-1.1-3-0.1 1.3-0.5 2.6-1.2 3.7 0-0.6-0.2-1.2-0.6-1.7 1 1.4-10.7 11.5-12 12.6-3.6 2.8-7.3 5.1-11.3 6.9q-3.3 1.5-6.8 2.6-0.1 0-0.2 0-1 0.3-2 0.6-3.7 1-7.7 1.4-0.5 0.1-1.1 0.2-0.3 0-0.7 0.1-0.5 0-1.1 0.1c-7.4 0.6-22.9 2.3-27.1-5.9-0.2-0.4-0.3-0.8-0.6-1.1-0.3-0.5-0.7-0.9-1.1-1.3q-0.2-0.1-0.3-0.3-0.1 0-0.1-0.1-0.1-0.1-0.2-0.2 0 0-0.1-0.1 0-0.1-0.1-0.1-0.1-0.1-0.1-0.3-0.1-0.1-0.2-0.2-0.1-0.1-0.1-0.2-0.3-0.4-0.4-0.8-0.1-0.1-0.2-0.3 0-0.2-0.1-0.3-0.1-0.2-0.1-0.4-0.2-0.5-0.3-1 0-0.1 0-0.3-0.1-0.2-0.1-0.4-0.1-0.5-0.1-1c0-1.4 0.4-2.7 1-3.9-1.4-1.7-1.9-4.1-1.4-6.2 1.1-4.4 6.2-5.1 11.4-6 3.3-0.5 6.6-1.1 8.8-2.8 1.6-1.2 3.1-2.7 4.4-4.2 1.6-1.8 3-3.7 4.4-5.5 5.2-6.6 11.1-13.1 17.4-18.6-1.2-0.2-2.4-0.1-3.5 0.3 9.2-6.6 23-14.2 33.7-6q0.5 0.3 0.9 0.7 1.1 1 1.9 2.2 0.6 0.8 1.1 1.7 0.3 0.6 0.6 1.2c1.3 2.8 1.9 6 2.1 9.3 0.1 3.5 0 7.2-0.3 10.9z"/><path class="r" d="m203.6 428.6c-0.2 3.2-0.6 6.4-1.1 9.4-0.2-1.1-0.6-2.1-1.2-3 0.6 3.9-1.3 7.7-3.1 11.2-0.2-1.1-0.5-2.1-1.1-3-0.1 1.3-0.5 2.6-1.2 3.7 0-0.6-0.2-1.2-0.6-1.7 1 1.4-10.7 11.5-12 12.6-3.6 2.8-7.3 5.1-11.3 6.9-2.2 1-4.5 1.8-6.8 2.6q-0.1 0-0.2 0-1 0.3-2 0.6c-2.6 0.6-5.1 1.1-7.7 1.4q-0.5 0.1-1.1 0.2-0.3 0-0.7 0.1-0.5 0-1.1 0.1c-7.4 0.6-22.9 2.3-27.1-5.9-0.2-0.4-0.3-0.8-0.6-1.1-0.3-0.5-0.7-0.9-1.1-1.3q-0.2-0.1-0.3-0.3-0.1 0-0.1-0.1-0.1-0.1-0.2-0.2 0 0-0.1-0.1 0-0.1-0.1-0.1-0.1-0.1-0.1-0.3-0.1-0.1-0.2-0.2-0.1-0.1-0.1-0.2-0.3-0.4-0.4-0.8-0.1-0.1-0.2-0.3 0-0.2-0.1-0.3-0.1-0.2-0.1-0.4-0.2-0.5-0.3-1 0-0.1 0-0.3-0.1-0.2-0.1-0.4 0.2 0.5 0.5 0.9c4.3 8.5 14.3 5.1 21.4 6-0.1 0.3-0.7 2.2-0.9 2.3 6.2-1.8 13-4.6 18.5-8.1 6.2-4.2 12.7-9.5 15.7-16.5q0.6 1.7 1.2 3.3c2.8-3.2 5-7.1 6.2-11.2 0.6-2.3 0.6-4.6 1.5-6.8 0.1 0 2.8 4.2 3 4.9 0 0.3 1.4-2.6 1.5-2.9 0.6-1.7 0.9-3.5 1.2-5.2 1.1-7.1 2.4-14.2 7.2-19.9q1.1 1 1.9 2.2 0.6 0.8 1.1 1.7 0.3 0.6 0.6 1.2c1.3 2.8 1.9 6 2.1 9.3 0.1 3.5 0 7.2-0.3 10.9z"/><path class="r" d="m143.5 435.3c-2.9 5.1-2 9.8-3 15.1-2.7-0.4-5.4-2.5-7.5-4.2q1.5-0.3 3-0.3c-0.2-0.4-3.8-6.6-3.9-6.5 3.3-0.6 6.6-1.2 8.8-2.8 1.7-1.3 3.1-2.7 4.5-4.3q-1.1 1.5-1.9 3z"/><path class="m" d="m102.8 404.7c-0.4 0.9-1.1 1.5-1.3 2.4-0.4 1.2 0 2.6-0.1 3.9q0 0.2-0.1 0.4-0.2 1-0.7 1.7-0.1 0.2-0.2 0.4-0.1 0.1-0.2 0.1-0.1 0.2-0.3 0.4-0.1 0.1-0.2 0.3-0.2 0.2-0.4 0.3-0.2 0.2-0.3 0.3-0.1 0.1-0.3 0.2-0.1 0.1-0.2 0.3-0.2 0.1-0.3 0.2-0.2 0.1-0.4 0.3-0.2 0.1-0.4 0.2-0.3 0.3-0.7 0.5-0.3 0.2-0.7 0.4-0.3 0.2-0.7 0.4-1 0.5-2.1 0.8-0.7 0.2-1.3 0.3-0.3 0-0.6 0-0.1 0-0.3 0.1h-0.4q-0.3 0-0.6-0.1-0.5 0-1-0.1-0.2 0-0.3 0-0.2-0.1-0.4-0.1-0.2-0.1-0.3-0.1h-0.1q-0.2-0.1-0.3-0.1-0.6-0.2-1.2-0.5-0.2 0-0.3-0.1-0.2-0.1-0.4-0.2-0.2-0.1-0.4-0.2-0.1 0-0.1 0 0 0-0.1-0.1 0 0 0 0-0.1-0.1-0.3-0.1-0.4-0.3-0.9-0.6-0.2-0.2-0.5-0.4-0.2-0.1-0.3-0.2-0.3-0.2-0.6-0.4-0.4-0.3-0.8-0.7-0.3-0.2-0.7-0.6-0.8-0.7-1.5-1.5-0.3-0.2-0.5-0.5-0.3-0.3-0.7-0.7 0 0-0.1-0.1-0.2-0.3-0.5-0.6-0.1-0.1-0.2-0.3-0.1 0-0.2-0.1-0.7-0.9-1.4-1.8-0.7-0.8-1.4-1.7-0.6-0.9-1.3-1.8-0.3-0.4-0.6-0.8-1.5-2.2-2.9-4.4c-0.1-0.2-0.4-0.6-0.7-1q-0.1-0.2-0.3-0.4-0.3-0.5-0.6-1-0.1-0.1-0.2-0.2c-0.2-0.5-0.4-0.9-0.4-1.1q-0.1 0.5-0.2 1.1-0.9-2.2-1.7-4.2-0.2 0.5-0.3 1c-3.5-10.8-5.6-21.4-3.1-32.8 0.2-1.1 0.5-2.7 0.9-4.4 0.7-3.3 1.8-7 3.6-8.1q-1 0.6-2.1 1.2c1.7-0.9 2.8-3 4.2-4.6q0.1 0 0.1 0c1.2-0.9 2.5-1.6 4-1.8 3.4 0.2 4.8 5.4 6.1 7.9-0.4-1.3-0.4-2.7 0.1-4 0.4 3.3 2.6 7.1 3.8 10.2 1.2 3.2 2.7 6.4 4.5 9.4q0.4 0.8 0.9 1.5c2.8 4.1 6.7 6.8 9.4 10.9q-1.1-0.4-2.3-0.8c1.1 0.9 2 2.1 2.7 3.4-0.5-0.2-1-0.2-1.5-0.2q0.4 1 0.7 1.9 0.1 0.1 0.1 0.1 0.3 0.7 0.6 1.4 0.2 0.6 0.4 1.1 0.3 0.7 0.6 1.5 0.1 0.3 0.2 0.7 0.2 0.3 0.3 0.6 0.2 0.5 0.4 1 0.3 0.8 0.5 1.5 0.1 0.3 0.2 0.5c0 0 0 0.1 0 0.1q0.1 0.3 0.3 0.6 0.1 0.4 0.2 0.7 0.1 0.4 0.2 0.7 0.2 0.6 0.3 1.1 0 0.1 0.1 0.2 0 0.2 0.1 0.5 0.1 0.3 0.2 0.6 0.1 0.4 0.2 0.7 0 0.2 0.1 0.5 0.1 0.4 0.2 0.7 0 0.3 0.1 0.6 0.1 0.4 0.1 0.7 0.1 0.3 0.2 0.6c0.2 1.5 0.4 3.1-0.1 4.4z"/><path class="r" d="m102.8 404.7c-0.4 0.9-1.1 1.5-1.3 2.4-0.4 1.2 0 2.6-0.1 3.9-0.2 2-1.8 3.4-3.2 4.6q-0.4 0.3-0.7 0.5c-1.9 1.4-3.8 2.2-5.6 2.4q-0.3 0-0.5 0-0.2 0.1-0.4 0.1h-0.4q-0.3 0-0.5-0.1-0.6 0-1.1-0.1-0.3 0-0.6-0.1-0.4-0.1-0.8-0.2-0.6-0.2-1.2-0.5-0.2 0-0.3-0.1-0.4-0.2-0.8-0.4-0.1 0-0.2-0.1-0.1-0.1-0.2-0.1c-4.3-2.4-8.1-7.2-11.7-11.9q-0.3-0.5-0.6-0.9-1.5-2.1-2.9-4.4c-0.3-0.6-2.2-2.9-2.2-3.7q-0.1 0.6-0.2 1.1-0.8-2.1-1.7-4.2-0.2 0.5-0.3 1.1c-3.5-10.9-5.5-21.4-3.1-32.9 0.2-1 0.5-2.6 0.9-4.4q-0.1 0.6-0.1 1.2c-0.7 18.7 6.9 40.9 21 51.8 4.7 3.6 14.8 7.8 15.9-2.1 0.1-1.3-0.3-2.7 0-3.9 0.3-0.9 0.9-1.5 1.3-2.4 0.6-1.3 0.4-2.9 0.1-4.4-0.9-4.8-2.6-9.7-4.7-14.6q0.3 0.5 0.5 1 0 0.1 0.1 0.2 0.4 0.8 0.7 1.7 0.2 0.3 0.3 0.7 0.2 0.4 0.4 0.9 0.2 0.5 0.4 0.9 0.1 0.3 0.3 0.7 0.1 0.3 0.2 0.7 0.2 0.5 0.4 0.9 0.3 0.8 0.5 1.6 0.1 0.2 0.2 0.6 0.2 0.3 0.3 0.6 0.1 0.3 0.2 0.6 0.1 0.4 0.2 0.8 0.2 0.5 0.3 1.1 0.1 0 0.1 0.1 0.1 0.3 0.1 0.6 0.1 0.3 0.2 0.6 0.1 0.3 0.2 0.6 0 0.3 0.1 0.6 0.1 0.3 0.2 0.7 0 0.3 0.1 0.6 0.1 0.3 0.2 0.6 0 0.3 0.1 0.6c0.3 1.5 0.4 3.1-0.1 4.5z"/><path class="m" d="m171.5 366.5c-0.6 5.7-2 10.9-3.6 16.4-0.4 1.5-0.7 2.9-0.9 4.3q-0.2 0.8-0.3 1.5c-0.6 3.5-1.1 7-3.1 10.5 0.5-0.8 0.1-2-0.8-2.4-0.4 1.9-1.2 3.6-2.3 5.2 0.2-0.9-0.2-2-0.9-2.6-1.7 6.6-12.3 13.9-19 14.1q-0.6 0-1.3-0.1 0 0 0 0-0.4-0.1-0.7-0.2-0.2-0.1-0.4-0.2c-0.6-0.3-1.1-0.7-1.4-1.3-2.1 0.3-4.2-0.9-5.5-2.5-1-1.2-2-3-2.3-4.6-0.1-1.2 0.3-2.3 0-3.5-0.1-0.6-0.4-1.1-0.6-1.7q-0.1-0.1-0.2-0.3c-4.6-11.3 8-24.3 13.7-32.8-1.2 0.2-2.4 0-3.4-0.7 6.5-2.6 9-7.2 13-12.4 3-3.8 7-8.5 12.3-8.2 10.1 0.5 8.4 15.6 7.7 21.5z"/><path class="r" d="m171.2 369q-0.1 0.5-0.2 0.9c-0.7 4.1-2.1 8.1-2.9 12.2q-0.1 0.4-0.2 0.8c-0.4 1.3-0.6 2.6-0.9 3.8q0 0.3-0.1 0.5-0.1 0.7-0.2 1.5c-0.4 2.7-0.9 5.4-1.9 8q-0.5 1.3-1.2 2.5 0.1-0.2 0.2-0.4c0.1-0.7-0.2-1.6-0.9-2q0 0-0.1 0c-0.4 1.9-1.2 3.6-2.3 5.2q0-0.1 0-0.2c0.1-0.9-0.2-1.8-0.9-2.4q0 0 0 0.1c-0.5 1.7-1.6 3.5-3 5.2-4.1 4.7-11.1 8.7-16 8.8q-0.2 0-0.4 0-0.4 0-0.9-0.1 0 0 0 0-0.3-0.1-0.7-0.2-0.2-0.1-0.4-0.2c-0.6-0.3-1.1-0.7-1.4-1.3q-0.4 0-0.7 0-0.2 0-0.4 0c-1.7-0.1-3.3-1.1-4.4-2.4-1-1.3-2-3.1-2.2-4.7-0.2-1.2 0.3-2.3 0-3.5-0.2-0.6-0.5-1.1-0.7-1.7q-0.1-0.1-0.1-0.3-0.2-0.4-0.4-0.9c-0.5-1.6-0.7-3.3-0.7-4.9q0-0.1 0-0.1 0.1-0.4 0.1-0.8 0.1-0.5 0.2-1.1 0-0.4 0.1-0.8 0-0.2 0.1-0.4 0-0.1 0-0.2 0.1-0.3 0.2-0.5 0 0 0 0 0.1-0.6 0.3-1.1 0 0 0 0c0.1 1.4 0 2.8 0 4.2q0 2 0.7 3.9c0.4 1.1 1.2 1.6 1.9 2.5 0.6 0.8 0.7 1.9 0.8 3 0.3 2.2 1.6 3.8 3.8 4.5 0.3 0 2.4 0.2 2.4 0.2 0.4 0.6 0.9 1 1.5 1.3 0.7 0.4 1.6 0.6 2.5 0.6 2.7-0.1 5.3-1.1 7.6-2.5 2.7-1.6 3.6-3.2 5.2-5.8q0.1 0.7 0.1 1.4c2.5-3 5.3-5.2 7.3-8.7 2-3.5 3.4-7.3 4.9-11.1 1.5-4.2 2.9-8.5 4.3-12.7z"/></g></svg>