<?xml version="1.0" encoding="UTF-8"?><svg xmlns="http://www.w3.org/2000/svg" xmlns:xlink="http://www.w3.org/1999/xlink" viewBox="0 0 500 503"><defs><style>.cls-1{fill:#e8f8fe;}.cls-2{fill:#fff;}.cls-3{fill:#cacaca;}.cls-4{fill:#dcadde;}.cls-5{fill:#f5f5f5;}.cls-6{fill:#a6a6a6;}.cls-7{isolation:isolate;}.cls-8{fill:#fbd58f;}.cls-9{fill:#585857;}.cls-9,.cls-10,.cls-11,.cls-12,.cls-13,.cls-14,.cls-15{mix-blend-mode:multiply;}.cls-10{fill:url(#Degradado_sin_nombre_5);}.cls-16{stroke:#fff;stroke-miterlimit:10;stroke-width:3px;}.cls-16,.cls-17{fill:none;}.cls-11,.cls-18{fill:#f1f1f1;}.cls-19{fill:#d1dee4;}.cls-20{fill:#3e3e3d;}.cls-21{clip-path:url(#clippath);}.cls-22{fill:#ebebeb;}.cls-12{opacity:.22;}.cls-23{fill:#cceaf0;}.cls-24{fill:#222221;}.cls-13{fill:#e4e4e4;}.cls-25{fill:#fff061;}.cls-14{fill:#d8d8d8;}.cls-26{fill:#c4c4c4;}</style><clipPath id="clippath"><rect class="cls-17" width="500" height="503"/></clipPath><linearGradient id="Degradado_sin_nombre_5" x1="249.15" y1="612.07" x2="250.44" y2="383.91" gradientUnits="userSpaceOnUse"><stop offset="0" stop-color="#fff"/><stop offset=".32" stop-color="#fcfcfc"/><stop offset=".52" stop-color="#f3f3f3"/><stop offset=".69" stop-color="#e5e5e5"/><stop offset=".84" stop-color="#d0d0d0"/><stop offset=".97" stop-color="#b6b6b6"/><stop offset="1" stop-color="#b0b0b0"/></linearGradient></defs><g class="cls-7"><g id="Capa_2"><g id="Capa_1-2"><g class="cls-21"><rect id="pared" class="cls-19" width="500" height="378"/><rect id="suelo" class="cls-23" x="-.34" y="382" width="500.34" height="219"/><rect id="suelo-2" class="cls-10" x="-.34" y="382" width="500.34" height="219"/><g id="alfombra"><polygon class="cls-13" points="540 601 0 601 .01 530.96 109.8 402.83 371.99 402 500 553.62 540 601"/><polygon id="alfombra-2" class="cls-8" points="537.38 601 -.38 601 .01 533.38 111.31 402.24 370.84 402 500 556.33 537.38 601"/><polygon class="cls-11" points="397.98 434.43 56.55 466.86 111.31 402.24 370.84 402 397.98 434.43"/></g><g id="zocalo"><rect class="cls-3" y="378.13" width="500" height="24.06"/><rect class="cls-6" y="399.79" width="500" height="2.4"/><rect class="cls-1" y="375.49" width="500" height="2.4"/></g><g><g><g id="ursids" class="cls-15"><circle class="cls-18" cx="88.6" cy="152.57" r="59.31"/><ellipse class="cls-18" cx="175.45" cy="80.76" rx="35.29" ry="43.69" transform="translate(-16.87 98.54) rotate(-30)"/><circle class="cls-18" cx="183.77" cy="190.24" r="28.76"/></g><g id="ursids-2" class="cls-15"><circle class="cls-18" cx="346.1" cy="290.07" r="59.31"/><ellipse class="cls-18" cx="432.95" cy="218.26" rx="35.29" ry="43.69" transform="translate(-51.13 245.72) rotate(-30)"/><circle class="cls-18" cx="441.27" cy="327.74" r="28.76"/></g></g><polyline class="cls-16" points="29.46 378 29.46 39 471 39 471 378"/></g><ellipse class="cls-12" cx="342" cy="429.5" rx="93" ry="14.5"/><ellipse class="cls-12" cx="122" cy="429.5" rx="93" ry="14.5"/><g><g id="G12L01T010101_NBN_sin_N"><g><path class="cls-2" d="m217.52,343.23s-3.17,16.68,1.7,25.3c0,0,7.56-9.12,7.31-10.08-.12-.47-.4-3.49-2.6-7.14-2.25-3.73-6.41-8.08-6.41-8.08Z"/><path class="cls-2" d="m217.52,343.23s-3.17,16.68,1.7,25.3c0,0,7.56-9.12,7.31-10.08-.12-.47-.4-3.49-2.6-7.14-2.25-3.73-6.41-8.08-6.41-8.08Z"/><path class="cls-22" d="m226.53,358.45c-.12-.47-.4-3.49-2.6-7.14-.94-1.57-2.23-3.24-3.4-4.66-.46,2.97-1.7,12.85,1.21,18.76,2.17-2.74,4.94-6.38,4.78-6.96Z"/><path class="cls-2" d="m229.43,358.42s-.88,12.65,1.76,18.88c0,0,4-6.18,7.45-8.62,2.11-1.5-1.35-4.33-3.94-7.25-1.69-1.9-5.27-3.01-5.27-3.01Z"/><path class="cls-22" d="m234.7,361.43c-.73-.83-1.82-1.5-2.82-2-.12,2.67-.31,10.11,1.02,15.43,1.49-2,3.71-4.74,5.74-6.18,2.11-1.5-1.35-4.33-3.94-7.25Z"/><path class="cls-2" d="m240.58,366.84s-2.04,7.03,1.26,15.49c0,0,4.54-4.6,7.48-6.72,1.47-1.06-.82-3.81-3.05-6.19s-5.69-2.58-5.69-2.58Z"/><path class="cls-22" d="m242.82,367.3c-.35,1.56-1.26,6.88.77,13.31,1.59-1.53,3.95-3.72,5.73-5,1.47-1.06-.82-3.81-3.05-6.19-1.05-1.12-2.36-1.75-3.45-2.12Z"/></g><path class="cls-20" d="m292.49,224.82s-36.73,26.53-53.94,51.71-24.86,44.23-24.86,57.32c0,11.64,10.83,26.33,15.8,31.75,4.96,5.42,14.21,15.51,25.97,10.21,11.76-5.29,27.65-74.75,31.02-89.12,2.4-10.24,16.76-56.73,6.02-61.88Z"/><path class="cls-24" d="m292.49,224.82s-27.15,56.33-37.43,71.85c-20.79,31.37-26.14,41.38-25.77,59.22.2,9.71,5.6,14.58,5.94,15.46,5.14,4.43,12.08,8.13,20.22,4.47,11.76-5.29,27.65-74.75,31.02-89.12,2.4-10.24,16.76-56.73,6.02-61.88Z"/></g><g id="G13L02T010101_NBN_sin_N"><g><path class="cls-2" d="m465.94,343.23s3.17,16.68-1.7,25.3c0,0-7.56-9.12-7.31-10.08.12-.47.4-3.49,2.6-7.14,2.25-3.73,6.41-8.08,6.41-8.08Z"/><path class="cls-2" d="m465.94,343.23s3.17,16.68-1.7,25.3c0,0-7.56-9.12-7.31-10.08.12-.47.4-3.49,2.6-7.14,2.25-3.73,6.41-8.08,6.41-8.08Z"/><path class="cls-22" d="m456.94,358.45c.12-.47.4-3.49,2.6-7.14.94-1.57,2.23-3.24,3.4-4.66.46,2.97,1.7,12.85-1.21,18.76-2.17-2.74-4.94-6.38-4.78-6.96Z"/><path class="cls-2" d="m454.04,358.42s.88,12.65-1.76,18.88c0,0-4-6.18-7.45-8.62-2.11-1.5,1.35-4.33,3.94-7.25,1.69-1.9,5.27-3.01,5.27-3.01Z"/><path class="cls-22" d="m448.76,361.43c.73-.83,1.82-1.5,2.82-2,.12,2.67.31,10.11-1.02,15.43-1.49-2-3.71-4.74-5.74-6.18-2.11-1.5,1.35-4.33,3.94-7.25Z"/><path class="cls-2" d="m442.89,366.84s2.04,7.03-1.26,15.49c0,0-4.54-4.6-7.48-6.72-1.47-1.06.82-3.81,3.05-6.19,2.25-2.4,5.69-2.58,5.69-2.58Z"/><path class="cls-22" d="m440.65,367.3c.35,1.56,1.26,6.88-.77,13.31-1.59-1.53-3.95-3.72-5.73-5-1.47-1.06.82-3.81,3.05-6.19,1.05-1.12,2.36-1.75,3.45-2.12Z"/></g><path class="cls-20" d="m392.2,224.82s36.73,26.53,53.94,51.71c17.21,25.18,24.86,44.23,24.86,57.32,0,11.64-10.83,26.33-15.8,31.75-4.96,5.42-14.21,15.51-25.97,10.21-11.76-5.29-27.65-74.75-31.02-89.12-2.4-10.24-16.76-56.73-6.02-61.88Z"/><path class="cls-24" d="m392.18,224.82s27.15,56.33,37.43,71.85c20.79,31.37,27.6,41.47,25.77,59.22-1.3,12.65-5.6,14.58-5.94,15.46-5.14,4.43-12.08,8.13-20.22,4.47-11.76-5.29-27.65-74.75-31.02-89.12-2.4-10.24-16.76-56.73-6.02-61.88Z"/></g><g id="G10L03T010101_NBN_sin"><path class="cls-20" d="m251.44,367.38c.03.7.07,1.42.11,2.15.21,3.42.6,7.1,1.26,10.95.2,1.11.41,2.24.64,3.37.06.32.12.65.21.99,1.19,5.5,2.91,11.24,5.31,16.94,9.36,22.17,14.54,34.69,40.19,34.69,2.48,0,4.7-.02,6.68-.08.36-.01.73-.02,1.09-.04,3.27-.12,5.84-.37,7.88-.82.02-.01.03-.01.05-.01.5-.12.97-.25,1.41-.39.02,0,.04-.01.05-.01.45-.15.85-.31,1.23-.5.36-.17.69-.33.97-.5.22-.14.41-.26.55-.37.12-.1.25-.21.36-.31,1.21-1.03,1.93-2.45,2.33-4.33.14-.6.24-1.22.31-1.84-.01-.01-.01-.02,0-.03.03-.28.05-.56.08-.84.08-.95.14-1.97.16-3.09v-.56c.03-1.91-.01-4.08-.03-6.55v-.05c-.02-1.4-.03-2.9-.03-4.49,0-.67-.02-1.33-.03-2.01-.02-.68-.05-1.34-.07-2.02-.18-4.85.73-8.97,2.52-13.48,1.71-4.32,1.1-7.84-.55-11.19h0c-1.25-2.52-3.08-4.93-4.99-7.5-2.96-4.01-5.57-8.07-8.63-12.05-2.46-3.19-4.74-6.46-7.17-9.63-.05-.07-.11-.15-.18-.23-1.16-1.5-2.33-2.98-3.6-4.42-.26-.32-.54-.62-.81-.94-8.61-9.55-18.34-20.28-32.34-20.32-.85-.01-1.72.04-2.52.33-1.87.68-3.06,2.49-4.01,4.24-3.08,5.71-5.91,12.56-7.36,18.88-.06.29-.14.59-.2.9-.15.7-.28,1.41-.39,2.11-.05.33-.09.68-.14,1.02-.02.17-.04.33-.06.5-.04.49-.09,1-.14,1.54-.08,1.07-.15,2.21-.19,3.41-.06,2.02-.06,4.24.03,6.59Z"/><path class="cls-9" d="m251.44,367.38c.03.7.07,1.42.11,2.15.21,3.42.6,7.1,1.26,10.95.2,1.11.41,2.24.64,3.37.06.32.12.65.21.99,1.75,4.57,17.1,19.82,20.6,23.51,16.09,16.92,23.34,21.66,31.58,28.05.36-.01.73-.02,1.09-.04,2.56-.1,5.07-.35,7.6-.78.09-.01.19-.03.28-.04.02-.01.03-.01.05-.01.5-.12.97-.25,1.41-.39.02,0,.04-.01.05-.01.45-.15.85-.31,1.23-.5.36-.17.69-.33.97-.5.22-.14.41-.26.55-.37.12-.1.25-.21.36-.31,1.21-1.03,1.93-2.45,2.33-4.33.14-.6.24-1.22.31-1.84-.01-.01-.01-.02,0-.03.03-.28.05-.56.08-.84.08-.95.14-1.97.16-3.09v-.56c0-2.16-.19-4.4-.03-6.55v-.05c-.02-1.4-.03-2.9-.03-4.49,0-.67-.02-1.33-.03-2.01-.02-.68-.05-1.34-.07-2.02-.18-4.85.73-8.97,2.52-13.48,1.71-4.32,1.1-7.84-.55-11.19h0c-1.75-2.41-3.22-5.09-4.99-7.5-2.96-4.01-5.57-8.07-8.63-12.05-2.46-3.19-4.74-6.46-7.17-9.63-.05-.07-.11-.15-.18-.23-1.21-1.47-2.36-2.98-3.6-4.42-.26-.32-.54-.62-.81-.94-8.61-9.55-18.34-20.28-32.34-20.32-.85-.01-1.72.04-2.52.33-1.87.68-3.06,2.49-4.01,4.24-3.08,5.71-5.91,12.56-7.36,18.88-.06.29-.14.59-.2.9-.15.7-.28,1.41-.39,2.11-.05.33-.09.68-.14,1.02-.02.17-.04.33-.06.5-.05.49-.09,1-.14,1.54-.08,1.07-.15,2.21-.19,3.41-.06,2.02-.06,4.24.03,6.59Z"/><g id="garras"><path class="cls-22" d="m291.13,436.45c-.16.3-.53.41-1.16.31-.97-.16-1.95-.32-2.88-.71-.77-.32-2.52-1.2-2.09-2.62.37-1.23,2.22-1.18,3.21-.99,1.55.29,2.32,1.08,2.82,2.56.22.66.27,1.15.11,1.45Z"/><path class="cls-14" d="m285,433.43c.37-1.23,2.22-1.18,3.21-.99,1.55.29,2.32,1.08,2.82,2.56.22.66.27,1.15.11,1.45-.07.12-.17.21-.31.27.09-.3.04-.74-.13-1.32-.44-1.48-1.13-2.27-2.5-2.56-.87-.19-2.51-.24-2.85.99-.13.47-.04.88.16,1.24-.43-.43-.71-.97-.51-1.64Z"/><path class="cls-22" d="m300.95,437.42c-.26.02-.54-.01-.85-.09-1.1-.27-3.32-1.84-3.61-3.3-.08-.4.25-.73.56-.91,1.18-.66,3.97-.82,5.24-.34,1.38.52.69,2.55.21,3.46-.4.75-.89,1.13-1.55,1.17Z"/><path class="cls-14" d="m301.8,436.67c.48-.91,1.17-2.93-.21-3.46-1.16-.44-3.57-.35-4.88.17.1-.11.22-.2.34-.26,1.18-.66,3.97-.82,5.24-.34,1.38.52.69,2.55.21,3.46-.32.6-.7.96-1.17,1.1.17-.18.33-.4.48-.68Z"/><path class="cls-22" d="m312.04,433.14c.77.24,1.35.63,1.45,1.26.24,1.5-2.13,2.82-3.37,2.64-1.38-.2-4.44-2.8-2.58-4.04,1.15-.77,3.29-.24,4.5.13Z"/><path class="cls-14" d="m312.43,434.76c-.1-.64-.68-1.03-1.45-1.26-.9-.27-2.3-.64-3.44-.49,1.15-.77,3.29-.23,4.5.14.77.24,1.35.63,1.45,1.26.21,1.26-1.45,2.39-2.72,2.62.96-.48,1.81-1.33,1.66-2.26Z"/></g></g><g id="G11L04T010101_NBN_sin"><path class="cls-20" d="m432.19,367.38c-.03.7-.07,1.42-.11,2.15-.21,3.42-.6,7.1-1.26,10.95-.2,1.11-.41,2.24-.64,3.37-.06.32-.12.65-.21.99-1.19,5.5-2.91,11.24-5.31,16.94-9.36,22.17-14.54,34.69-40.19,34.69-2.48,0-4.7-.02-6.68-.08-.36-.01-.73-.02-1.09-.04-3.27-.12-5.84-.37-7.88-.82-.02-.01-.03-.01-.05-.01-.5-.12-.97-.25-1.41-.39-.02,0-.04-.01-.05-.01-.45-.15-.85-.31-1.23-.5-.36-.17-.69-.33-.97-.5-.22-.14-.41-.26-.55-.37-.12-.1-.25-.21-.36-.31-1.21-1.03-1.93-2.45-2.33-4.33-.14-.6-.24-1.22-.31-1.84.01-.01.01-.02,0-.03-.03-.28-.05-.56-.08-.84-.08-.95-.14-1.97-.16-3.09v-.56c-.03-1.91.01-4.08.03-6.55v-.05c.02-1.4.03-2.9.03-4.49,0-.67.02-1.33.03-2.01.02-.68.05-1.34.07-2.02.18-4.85-.73-8.97-2.52-13.48-1.71-4.32-1.1-7.84.55-11.19h0c1.25-2.52,3.08-4.93,4.99-7.5,2.96-4.01,5.57-8.07,8.63-12.05,2.46-3.19,4.74-6.46,7.17-9.63.05-.07.11-.15.18-.23,1.16-1.5,2.33-2.98,3.6-4.42.26-.32.54-.62.81-.94,8.61-9.55,18.34-20.28,32.34-20.32.85-.01,1.72.04,2.52.33,1.87.68,3.06,2.49,4.01,4.24,3.08,5.71,5.91,12.56,7.36,18.88.06.29.14.59.2.9.15.7.28,1.41.39,2.11.05.33.09.68.14,1.02.02.17.04.33.06.5.04.49.09,1,.14,1.54.08,1.07.15,2.21.19,3.41.06,2.02.06,4.24-.03,6.59Z"/><path class="cls-9" d="m432.19,367.38c-.03.7-.07,1.42-.11,2.15-.21,3.42-.6,7.1-1.26,10.95-.2,1.11-.41,2.24-.64,3.37-.06.32-.12.65-.21.99-1.75,4.57-17.1,19.82-20.6,23.51-16.09,16.92-23.34,21.66-31.58,28.05-.36-.01-.73-.02-1.09-.04-2.56-.1-5.07-.35-7.6-.78-.09-.01-.19-.03-.28-.04-.02-.01-.03-.01-.05-.01-.5-.12-.97-.25-1.41-.39-.02,0-.04-.01-.05-.01-.45-.15-.85-.31-1.23-.5-.36-.17-.69-.33-.97-.5-.22-.14-.41-.26-.55-.37-.12-.1-.25-.21-.36-.31-1.21-1.03-1.93-2.45-2.33-4.33-.14-.6-.24-1.22-.31-1.84.01-.01.01-.02,0-.03-.03-.28-.05-.56-.08-.84-.08-.95-.14-1.97-.16-3.09v-.56c0-2.16.19-4.4.03-6.55v-.05c.02-1.4.03-2.9.03-4.49,0-.67.02-1.33.03-2.01.02-.68.05-1.34.07-2.02.18-4.85-.73-8.97-2.52-13.48-1.71-4.32-1.1-7.84.55-11.19h0c1.75-2.41,3.22-5.09,4.99-7.5,2.96-4.01,5.57-8.07,8.63-12.05,2.46-3.19,4.74-6.46,7.17-9.63.05-.07.11-.15.18-.23,1.21-1.47,2.36-2.98,3.6-4.42.26-.32.54-.62.81-.94,8.61-9.55,18.34-20.28,32.34-20.32.85-.01,1.72.04,2.52.33,1.87.68,3.06,2.49,4.01,4.24,3.08,5.71,5.91,12.56,7.36,18.88.06.29.14.59.2.9.15.7.28,1.41.39,2.11.05.33.09.68.14,1.02.02.17.04.33.06.5.05.49.09,1,.14,1.54.08,1.07.15,2.21.19,3.41.06,2.02.06,4.24-.03,6.59Z"/><g id="garras-2"><path class="cls-22" d="m391.7,436.45c.16.3.53.41,1.16.31.97-.16,1.95-.32,2.88-.71.77-.32,2.52-1.2,2.09-2.62-.37-1.23-2.22-1.18-3.21-.99-1.55.29-2.32,1.08-2.82,2.56-.22.66-.27,1.15-.11,1.45Z"/><path class="cls-14" d="m397.83,433.43c-.37-1.23-2.22-1.18-3.21-.99-1.55.29-2.32,1.08-2.82,2.56-.22.66-.27,1.15-.11,1.45.07.12.17.21.31.27-.09-.3-.04-.74.13-1.32.44-1.48,1.13-2.27,2.5-2.56.87-.19,2.51-.24,2.85.99.13.47.04.88-.16,1.24.43-.43.71-.97.51-1.64Z"/><path class="cls-22" d="m381.88,437.42c.26.02.54-.01.85-.09,1.1-.27,3.32-1.84,3.61-3.3.08-.4-.25-.73-.56-.91-1.18-.66-3.97-.82-5.24-.34-1.38.52-.69,2.55-.21,3.46.4.75.89,1.13,1.55,1.17Z"/><path class="cls-14" d="m381.03,436.67c-.48-.91-1.17-2.93.21-3.46,1.16-.44,3.57-.35,4.88.17-.1-.11-.22-.2-.34-.26-1.18-.66-3.97-.82-5.24-.34-1.38.52-.69,2.55-.21,3.46.32.6.7.96,1.17,1.1-.17-.18-.33-.4-.48-.68Z"/><path class="cls-22" d="m370.79,433.14c-.77.24-1.35.63-1.45,1.26-.24,1.5,2.13,2.82,3.37,2.64,1.38-.2,4.44-2.8,2.58-4.04-1.15-.77-3.29-.24-4.5.13Z"/><path class="cls-14" d="m370.39,434.76c.1-.64.68-1.03,1.45-1.26.9-.27,2.3-.64,3.44-.49-1.15-.77-3.29-.23-4.5.14-.77.24-1.35.63-1.45,1.26-.21,1.26,1.45,2.39,2.72,2.62-.96-.48-1.81-1.33-1.66-2.26Z"/></g></g><g id="G02L05T010101_BNB_sin_N"><path class="cls-2" d="m430.59,314.9c6.06,21.09,1.58,51.54,1.58,51.54-15.05,21.66-64.62,41.54-90.22,41.9-24.72.35-75.34-21.3-90.57-42.68,0,0-4.66-26.96,1.93-50.76,9.48-34.25,28.68-63.76,40.74-85.24,7.32-13.05,23.58-20.12,47.93-20.86,24.04-.72,40.35,5.4,48.03,18.49,13.98,23.85,31.11,54.68,40.58,87.6Z"/><path class="cls-22" d="m344.7,392.27c-24.03.34-68.08-16.33-94.46-36.31.47,5.95,1.12,9.7,1.12,9.7,15.23,21.38,65.85,43.02,90.57,42.68,25.6-.36,75.17-20.24,90.22-41.9,0,0,.29-1.95.62-5.19-26.25,17.49-65.08,30.7-88.07,31.03Z"/><path class="cls-20" d="m341.74,255.07c18.2,0,50.16,1.65,71.77,15.75-6.6-16.68-15.97-30.77-23.46-43.53-7.68-13.1-23.99-19.22-48.03-18.49-24.34.73-40.64,7.81-47.96,20.86-6.48,11.55-15.74,24.89-23.05,41.16,21.48-14.26,52.04-15.75,70.74-15.75Z"/><path class="cls-24" d="m394.63,236.08c.12-.11.31-.31.43-.42-1.68-3.01-3.32-5.54-5.09-8.31-8.19-12.78-23.99-19.22-48.03-18.49-24.34.73-40.64,7.81-47.96,20.86-1.18,2.1-2.45,4.26-3.78,6.48,11.59,9.88,34.96,15.82,51.81,15.82s41.07-5.44,52.63-15.94Z"/></g><g id="G08L06T010101_Negro_G_N"><path id="oreja_I" class="cls-20" d="m316.99,149.51c0,8.25-2.93,13.42-11.82,20.64-6.4,5.2-19.46-2.65-18.05-20.64.65-8.22,8.64-15.48,16.89-15.48,5.22,0,12.98,7.28,12.98,15.48Z"/><path id="oreja_I-2" class="cls-24" d="m311.47,150.76c0,5.21-1.85,8.48-7.47,13.04-4.04,3.28-12.29-1.68-11.4-13.04.41-5.19,5.46-9.78,10.67-9.78,3.3,0,8.2,4.6,8.2,9.78Z"/></g><g id="G09L07T010101_Negro_G_N"><g id="oreja_D"><path class="cls-20" d="m366.72,149.51c0,8.25,2.93,13.42,11.82,20.64,6.4,5.2,19.46-2.65,18.05-20.64-.65-8.22-8.64-15.48-16.89-15.48-5.22,0-12.98,7.28-12.98,15.48Z"/><path class="cls-20" d="m366.72,149.51c0,8.25,2.93,13.42,11.82,20.64,6.4,5.2,19.46-2.65,18.05-20.64-.65-8.22-8.64-15.48-16.89-15.48-5.22,0-12.98,7.28-12.98,15.48Z"/><path class="cls-20" d="m366.72,149.51c0,8.25,2.93,13.42,11.82,20.64,6.4,5.2,19.46-2.65,18.05-20.64-.65-8.22-8.64-15.48-16.89-15.48-5.22,0-12.98,7.28-12.98,15.48Z"/></g><path id="oreja_D-2" class="cls-24" d="m372.24,150.76c0,5.21,1.85,8.48,7.47,13.04,4.04,3.28,12.29-1.68,11.4-13.04-.41-5.19-5.46-9.78-10.67-9.78-3.3,0-8.2,4.6-8.2,9.78Z"/></g><g id="G03L08T010101_Albino_sin_F1"><path id="cabeza" class="cls-2" d="m399.2,194.16c0,15.37.92,28.62-9.28,37.89-10.52,9.55-32.02,14.49-47.87,14.49s-36.75-5.45-47.25-14.49c-10.81-9.31-10.58-21.29-10.58-37.12,0-31.22,32.87-57.25,56.92-57.25s58.06,25.27,58.06,56.49Z"/><path class="cls-22" d="m390.63,226.33c-10.52,9.55-32.68,15.93-48.52,15.93s-35.42-5.87-45.92-14.92c-9.01-7.76-11.68-21.92-11.88-34.08-.02.55-.03,1.11-.03,1.66,0,15.83-.22,27.81,10.58,37.12,10.5,9.04,31.86,14.49,47.25,14.49s37.35-4.94,47.87-14.49c10.02-9.1,9.31-22.03,9.28-37.05-.15,11.08-.73,24.16-8.63,31.34Z"/></g><g id="G14L09T010101_negro_panda"><path class="cls-20" d="m304.21,176.53c-4.64,8.3-18,14.31-12.28,21.9,5.72,7.59,24.5,5.49,32.09-.23,7.59-5.72,9.1-16.51,3.38-24.1-5.72-7.59-15.8-10.8-23.19,2.43Z"/><path class="cls-24" d="m323.69,190.21c-3.4,4.01-16.35,5.11-19.31.82-3.68-5.33,2.4-7.82,5.12-12.33,3.78-6.28,9.63-7.24,13.17-1.85,2.86,4.36,4.43,9.36,1.03,13.37Z"/></g><g id="G15L10T010101_negro_panda"><path class="cls-20" d="m380.05,176.53c4.64,8.3,18,14.31,12.28,21.9-5.72,7.59-24.5,5.49-32.09-.23-7.59-5.72-9.1-16.51-3.38-24.1,5.72-7.59,15.8-10.8,23.19,2.43Z"/><path class="cls-24" d="m361.18,190.21c3.4,4.01,16.35,5.11,19.31.82,3.68-5.33-2.4-7.82-5.12-12.33-3.78-6.28-9.63-7.24-13.17-1.85-2.86,4.36-4.43,9.36-1.03,13.37Z"/></g><g id="G04L11T010101_negro"><path class="cls-2" d="m323.26,186.62h0c-.04.18-.09.33-.16.49-.04.1-.08.21-.12.31-.12.3-.28.57-.45.84-.1.16-.21.3-.31.45,0,.01-.01.01-.01.01-.12.16-.24.3-.37.44-.14.15-.27.29-.43.42-.14.12-.27.23-.42.33-.3.24-.64.44-.98.59-.17.08-.34.16-.53.23-.16.05-.32.11-.49.16-.04.01-.07.02-.11.03-.18.04-.35.08-.53.1-.2.04-.4.06-.6.07-3.4.22-6.31-2.35-6.53-5.75-.02-.39-.01-.76.04-1.12,0-.11.02-.23.04-.34.11-.71.36-1.37.72-1.98.06-.12.14-.24.22-.35.16-.24.32-.46.52-.67.09-.12.21-.24.32-.34.1-.1.22-.2.32-.29.23-.19.47-.36.72-.52l.37-.22s.01,0,.01,0l.41-.19c.59.11,1.35.43,2.18.85,1.72.89,3.67,2.26,4.85,3.42.49.47.84.91.99,1.26.02.05.03.09.04.15.17.61.3,1.18.29,1.62Z"/><path class="cls-24" d="m322.13,184.65c.17,2.63-1.83,4.92-4.47,5.08-2.65.18-4.93-1.83-5.09-4.47-.17-2.65,1.83-4.92,4.47-5.09h.05c1.72.89,3.67,2.26,4.85,3.42v.02c.04.12.07.25.09.37.05.22.08.44.09.67Z"/><circle class="cls-2" cx="315.95" cy="183.04" r="1.34"/></g><g id="G05L12T010101_negro"><path class="cls-2" d="m374.15,185.35c-.22,3.4-3.15,5.97-6.54,5.75-.37-.02-.73-.08-1.08-.17-.16-.04-.3-.08-.45-.14-.16-.05-.3-.1-.45-.17-.03-.01-.06-.02-.08-.03-.12-.05-.24-.11-.35-.18-.67-.33-1.26-.79-1.75-1.34-.1-.11-.2-.23-.29-.35-.08-.09-.16-.2-.22-.3-.09-.14-.19-.27-.26-.42t-.02-.02c-.06-.12-.13-.25-.19-.37-.02-.04-.04-.07-.05-.11-.06-.14-.11-.27-.17-.41-.06-.16-.11-.32-.16-.48-.04-.17-.08-.33-.11-.5.04-.33.15-.72.25-1.11.01-.05.03-.09.05-.15.17-.4.6-.92,1.21-1.46,1.19-1.11,3.01-2.37,4.62-3.23h.01c.86-.44,1.66-.76,2.26-.87h.02c.09.04.19.08.27.12.11.05.23.11.33.18.07.03.14.07.2.11.17.09.33.21.49.32.11.09.24.19.35.29.53.46.98,1.01,1.32,1.62.06.1.12.22.18.33.01.02.02.04.03.06.06.11.11.24.16.36.16.37.26.77.33,1.18.02.11.04.23.04.34.05.36.06.74.04,1.12Z"/><path class="cls-24" d="m372.78,185.27c-.17,2.63-2.45,4.65-5.08,4.47-2.65-.17-4.65-2.45-4.48-5.08.02-.25.05-.49.1-.73.04-.19.09-.36.16-.53,1.19-1.11,3.01-2.37,4.62-3.23h.01c.06,0,.14,0,.2.01,2.63.18,4.65,2.45,4.47,5.09Z"/><circle class="cls-2" cx="366.47" cy="183.04" r="1.34"/></g><path id="G06L13T010101_cerrada" class="cls-24" d="m349.31,223.48c-.42.14-.86.19-1.28.26-.44.02-.86.09-1.3.06-.86-.02-1.72-.12-2.56-.35l-.62-.18c-.2-.07-.41-.13-.61-.21-.28-.1-.56-.23-.81-.36v-4.75h-1.24v4.78c-.25.15-.54.29-.82.41-.4.16-.81.3-1.23.4-.84.23-1.71.31-2.59.31-.22,0-.44-.03-.66-.04l-.33-.03-.33-.05c-.22-.04-.44-.06-.66-.1l-.65-.16-.33-.08-.32-.11-.65-.21c-.22-.07-.42-.17-.64-.26l-.65-.26c.37.27.74.56,1.14.81.2.12.41.23.62.34l.31.17.33.14c.86.39,1.8.62,2.76.75.96.12,1.94.05,2.9-.14.48-.09.94-.25,1.4-.42.36-.15.69-.3,1.03-.5.34.17.67.3,1.01.43.45.16.91.3,1.37.4.93.19,1.89.28,2.84.19.48-.02.94-.13,1.41-.22.45-.15.91-.26,1.33-.47.87-.37,1.62-.93,2.3-1.54-.82.4-1.62.81-2.49,1.01Z"/><g id="G07L14T010101_pandanegro_G"><path class="cls-20" d="m354.54,210.67c0,5.06-5.86,9.16-13.08,9.16s-13.08-4.1-13.08-9.16,5.86-4.37,13.08-4.37,13.08-.68,13.08,4.37Z"/><path class="cls-24" d="m354.54,210.67c0,5.06-5.86,9.16-13.08,9.16s-13.08-4.1-13.08-9.16,5.99,1.26,13.22,1.26,12.95-6.32,12.95-1.26Z"/></g></g><g><g id="G02L01T0101_BNB_sin"><g><path class="cls-2" d="m175.24,409.52c-17.23,0-40.85,0-54.82.13-14.28.14-37.98-.13-54.08-.13-20.08,0-29.2-29.26-26.9-49.84.02-.16.04-.32.06-.48.02-.16.05-.33.07-.5.02-.11.04-.23.06-.34,0-.02,0-.04.01-.06.01-.08.03-.16.05-.25.15-.79.34-1.63.57-2.52.03-.12.06-.24.1-.36.16-.61.34-1.25.54-1.91.06-.2.12-.4.18-.6.12-.39.24-.78.38-1.19.14-.41.27-.83.42-1.26.06-.19.13-.38.2-.57.06-.18.13-.36.19-.55.7-2.01,1.5-4.16,2.36-6.39.14-.36.27-.72.42-1.08.53-1.36,1.07-2.76,1.64-4.19,1.83-4.64,3.79-9.55,5.62-14.44.39-1.03.78-2.06,1.2-3.09,5.7-14.29,13.43-27.65,15.95-39.67.12-.55.22-1.09.31-1.63.52-3.02.68-5.95.36-8.79-.33-2.95-.05-5.52.73-7.76,5.34-15.48,34.17-15.43,49.48-15.49,14.1-.05,41.22-.02,48.97,12.58.76,1.23,1.33,2.57,1.68,4.05.47,1.97.57,4.16.22,6.62-.36,2.48-.27,5.07.14,7.75.06.43.14.87.22,1.3,1.21,6.34,4.13,13.13,7.36,20.11,3.2,6.92,6.69,14.03,9.1,21.04.05.15.1.3.15.45.02.04.03.09.04.13,0,0,0,0,0,.01.23.68.44,1.35.65,2.02.03.09.05.18.08.26,1.44,4.73,2.92,9.24,4.34,13.67.32.98.63,1.96.94,2.93.15.49.31.97.46,1.46.15.48.3.97.45,1.45.11.36.22.71.33,1.06.14.45.27.9.41,1.35.09.29.17.57.26.86.11.36.22.72.32,1.09.14.48.28.97.42,1.45.42,1.45.81,2.9,1.19,4.36.13.49.25.97.37,1.46.38,1.51.73,3.04,1.06,4.57.1.44.19.89.28,1.34,2.65,13.04-3.43,49.6-24.54,49.6Z"/><path class="cls-2" d="m175.24,409.52c-17.23,0-40.85,0-54.82.13-14.28.14-37.98-.13-54.08-.13-20.08,0-29.2-29.26-26.9-49.84.02-.16.04-.32.06-.48.02-.16.05-.33.07-.5.02-.11.04-.23.06-.34,0-.02,0-.04.01-.06.01-.08.03-.16.05-.25.15-.79.34-1.63.57-2.52.03-.12.06-.24.1-.36.16-.61.34-1.25.54-1.91.06-.2.12-.4.18-.6.12-.39.24-.78.38-1.19.14-.41.27-.83.42-1.26.06-.19.13-.38.2-.57.06-.18.13-.36.19-.55.7-2.01,1.5-4.16,2.36-6.39.14-.36.27-.72.42-1.08.53-1.36,1.07-2.76,1.64-4.19,1.83-4.64,3.79-9.55,5.62-14.44.39-1.03.78-2.06,1.2-3.09,5.7-14.29,13.43-27.65,15.95-39.67.12-.55.22-1.09.31-1.63.52-3.02.68-5.95.36-8.79-.33-2.95-.05-5.52.73-7.76,5.34-15.48,34.17-15.43,49.48-15.49,14.1-.05,41.22-.02,48.97,12.58.76,1.23,1.33,2.57,1.68,4.05.47,1.97.57,4.16.22,6.62-.36,2.48-.27,5.07.14,7.75.06.43.14.87.22,1.3,1.21,6.34,4.13,13.13,7.36,20.11,3.2,6.92,6.69,14.03,9.1,21.04.05.15.1.3.15.45.02.04.03.09.04.13,0,0,0,0,0,.01.23.68.44,1.35.65,2.02.03.09.05.18.08.26,1.44,4.73,2.92,9.24,4.34,13.67.32.98.63,1.96.94,2.93.15.49.31.97.46,1.46.15.48.3.97.45,1.45.11.36.22.71.33,1.06.14.45.27.9.41,1.35.09.29.17.57.26.86.11.36.22.72.32,1.09.14.48.28.97.42,1.45.42,1.45.81,2.9,1.19,4.36.13.49.25.97.37,1.46.38,1.51.73,3.04,1.06,4.57.1.44.19.89.28,1.34,2.65,13.04-3.43,49.6-24.54,49.6Z"/><path class="cls-2" d="m175.24,409.52c-17.23,0-40.85,0-54.82.13-14.28.14-37.98-.13-54.08-.13-20.08,0-29.2-29.26-26.9-49.84.02-.16.04-.32.06-.48.02-.16.05-.33.07-.5.02-.11.04-.23.06-.34,0-.02,0-.04.01-.06.01-.08.03-.16.05-.25.15-.79.34-1.63.57-2.52.03-.12.06-.24.1-.36.16-.61.34-1.25.54-1.91.06-.2.12-.4.18-.6.12-.39.24-.78.38-1.19.14-.41.27-.83.42-1.26.06-.19.13-.38.2-.57.06-.18.13-.36.19-.55.7-2.01,1.5-4.16,2.36-6.39.14-.36.27-.72.42-1.08.53-1.36,1.07-2.76,1.64-4.19,1.83-4.64,3.79-9.55,5.62-14.44.39-1.03.78-2.06,1.2-3.09,5.7-14.29,13.43-27.65,15.95-39.67.12-.55.22-1.09.31-1.63.52-3.02.68-5.95.36-8.79-.33-2.95-.05-5.52.73-7.76,5.34-15.48,34.17-15.43,49.48-15.49,14.1-.05,41.22-.02,48.97,12.58.76,1.23,1.33,2.57,1.68,4.05.47,1.97.57,4.16.22,6.62-.36,2.48-.27,5.07.14,7.75.06.43.14.87.22,1.3,1.21,6.34,4.13,13.13,7.36,20.11,3.2,6.92,6.69,14.03,9.1,21.04.05.15.1.3.15.45.02.04.03.09.04.13,0,0,0,0,0,.01.23.68.44,1.35.65,2.02.03.09.05.18.08.26,1.44,4.73,2.92,9.24,4.34,13.67.32.98.63,1.96.94,2.93.15.49.31.97.46,1.46.15.48.3.97.45,1.45.11.36.22.71.33,1.06.14.45.27.9.41,1.35.09.29.17.57.26.86.11.36.22.72.32,1.09.14.48.28.97.42,1.45.42,1.45.81,2.9,1.19,4.36.13.49.25.97.37,1.46.38,1.51.73,3.04,1.06,4.57.1.44.19.89.28,1.34,2.65,13.04-3.43,49.6-24.54,49.6Z"/><path class="cls-2" d="m175.24,409.52c-17.23,0-40.85,0-54.82.13-14.28.14-37.98-.13-54.08-.13-20.08,0-29.2-29.26-26.9-49.84.02-.16.04-.32.06-.48.02-.16.05-.33.07-.5.02-.11.04-.23.06-.34,0-.02,0-.04.01-.06.01-.08.03-.16.05-.25.15-.79.34-1.63.57-2.52.03-.12.06-.24.1-.36.16-.61.34-1.25.54-1.91.06-.2.12-.4.18-.6.12-.39.24-.78.38-1.19.14-.41.27-.83.42-1.26.06-.19.13-.38.2-.57.06-.18.13-.36.19-.55.7-2.01,1.5-4.16,2.36-6.39.14-.36.27-.72.42-1.08.53-1.36,1.07-2.76,1.64-4.19,1.83-4.64,3.79-9.55,5.62-14.44.39-1.03.78-2.06,1.2-3.09,5.7-14.29,13.43-27.65,15.95-39.67.12-.55.22-1.09.31-1.63.52-3.02.68-5.95.36-8.79-.33-2.95-.05-5.52.73-7.76,5.34-15.48,34.17-15.43,49.48-15.49,14.1-.05,41.22-.02,48.97,12.58.76,1.23,1.33,2.57,1.68,4.05.47,1.97.57,4.16.22,6.62-.36,2.48-.27,5.07.14,7.75.06.43.14.87.22,1.3,1.21,6.34,4.13,13.13,7.36,20.11,3.2,6.92,6.69,14.03,9.1,21.04.05.15.1.3.15.45.02.04.03.09.04.13,0,0,0,0,0,.01.23.68.44,1.35.65,2.02.03.09.05.18.08.26,1.44,4.73,2.92,9.24,4.34,13.67.32.98.63,1.96.94,2.93.15.49.31.97.46,1.46.15.48.3.97.45,1.45.11.36.22.71.33,1.06.14.45.27.9.41,1.35.09.29.17.57.26.86.11.36.22.72.32,1.09.14.48.28.97.42,1.45.42,1.45.81,2.9,1.19,4.36.13.49.25.97.37,1.46.38,1.51.73,3.04,1.06,4.57.1.44.19.89.28,1.34,2.65,13.04-3.43,49.6-24.54,49.6Z"/><path class="cls-2" d="m175.24,409.52c-17.23,0-40.85,0-54.82.13-14.28.14-37.98-.13-54.08-.13-20.08,0-29.2-29.26-26.9-49.84.02-.16.04-.32.06-.48.02-.16.05-.33.07-.5.02-.11.04-.23.06-.34,0-.02,0-.04.01-.06.01-.08.03-.16.05-.25.15-.79.34-1.63.57-2.52.03-.12.06-.24.1-.36.16-.61.34-1.25.54-1.91.06-.2.12-.4.18-.6.12-.39.24-.78.38-1.19.14-.41.27-.83.42-1.26.06-.19.13-.38.2-.57.06-.18.13-.36.19-.55.7-2.01,1.5-4.16,2.36-6.39.14-.36.27-.72.42-1.08.53-1.36,1.07-2.76,1.64-4.19,1.83-4.64,3.79-9.55,5.62-14.44.39-1.03.78-2.06,1.2-3.09,5.7-14.29,13.43-27.65,15.95-39.67.12-.55.22-1.09.31-1.63.52-3.02.68-5.95.36-8.79-.33-2.95-.05-5.52.73-7.76,5.34-15.48,34.17-15.43,49.48-15.49,14.1-.05,41.22-.02,48.97,12.58.76,1.23,1.33,2.57,1.68,4.05.47,1.97.57,4.16.22,6.62-.36,2.48-.27,5.07.14,7.75.06.43.14.87.22,1.3,1.21,6.34,4.13,13.13,7.36,20.11,3.2,6.92,6.69,14.03,9.1,21.04.05.15.1.3.15.45.02.04.03.09.04.13,0,0,0,0,0,.01.23.68.44,1.35.65,2.02.03.09.05.18.08.26,1.44,4.73,2.92,9.24,4.34,13.67.32.98.63,1.96.94,2.93.15.49.31.97.46,1.46.15.48.3.97.45,1.45.11.36.22.71.33,1.06.14.45.27.9.41,1.35.09.29.17.57.26.86.11.36.22.72.32,1.09.14.48.28.97.42,1.45.42,1.45.81,2.9,1.19,4.36.13.49.25.97.37,1.46.38,1.51.73,3.04,1.06,4.57.1.44.19.89.28,1.34,2.65,13.04-3.43,49.6-24.54,49.6Z"/><path class="cls-2" d="m175.24,409.52c-17.23,0-40.85,0-54.82.13-14.28.14-37.98-.13-54.08-.13-20.08,0-29.2-29.26-26.9-49.84.02-.16.04-.32.06-.48.02-.16.05-.33.07-.5.02-.11.04-.23.06-.34,0-.02,0-.04.01-.06.01-.08.03-.16.05-.25.15-.79.34-1.63.57-2.52.03-.12.06-.24.1-.36.16-.61.34-1.25.54-1.91.06-.2.12-.4.18-.6.12-.39.24-.78.38-1.19.14-.41.27-.83.42-1.26.06-.19.13-.38.2-.57.06-.18.13-.36.19-.55.7-2.01,1.5-4.16,2.36-6.39.14-.36.27-.72.42-1.08.53-1.36,1.07-2.76,1.64-4.19,1.83-4.64,3.79-9.55,5.62-14.44.39-1.03.78-2.06,1.2-3.09,5.7-14.29,13.43-27.65,15.95-39.67.12-.55.22-1.09.31-1.63.52-3.02.68-5.95.36-8.79-.33-2.95-.05-5.52.73-7.76,5.34-15.48,34.17-15.43,49.48-15.49,14.1-.05,41.22-.02,48.97,12.58.76,1.23,1.33,2.57,1.68,4.05.47,1.97.57,4.16.22,6.62-.36,2.48-.27,5.07.14,7.75.06.43.14.87.22,1.3,1.21,6.34,4.13,13.13,7.36,20.11,3.2,6.92,6.69,14.03,9.1,21.04.05.15.1.3.15.45.02.04.03.09.04.13,0,0,0,0,0,.01.23.68.44,1.35.65,2.02.03.09.05.18.08.26,1.44,4.73,2.92,9.24,4.34,13.67.32.98.63,1.96.94,2.93.15.49.31.97.46,1.46.15.48.3.97.45,1.45.11.36.22.71.33,1.06.14.45.27.9.41,1.35.09.29.17.57.26.86.11.36.22.72.32,1.09.14.48.28.97.42,1.45.42,1.45.81,2.9,1.19,4.36.13.49.25.97.37,1.46.38,1.51.73,3.04,1.06,4.57.1.44.19.89.28,1.34,2.65,13.04-3.43,49.6-24.54,49.6Z"/></g><g><path class="cls-5" d="m193.3,336.55c-14.63,25.46-42.09,42.61-73.56,42.61s-58.3-16.76-73.05-41.74c-3.59,9.1-6.66,17.2-7.23,22.27-2.3,20.58,6.82,49.84,26.9,49.84,16.09,0,39.8.27,54.08.13,13.97-.13,37.59-.13,54.82-.13,21.1,0,27.19-36.56,24.54-49.6-1.62-7.95-3.96-15.52-6.49-23.37Z"/><path class="cls-2" d="m193.3,336.55c-14.63,25.46-42.09,42.61-73.56,42.61s-58.3-16.76-73.05-41.74c-3.59,9.1-6.66,17.2-7.23,22.27-2.3,20.58,6.82,49.84,26.9,49.84,16.09,0,39.8.27,54.08.13,13.97-.13,37.59-.13,54.82-.13,21.1,0,27.19-36.56,24.54-49.6-1.62-7.95-3.96-15.52-6.49-23.37Z"/><path class="cls-2" d="m193.3,336.55c-14.63,25.46-42.09,42.61-73.56,42.61s-58.3-16.76-73.05-41.74c-3.59,9.1-6.66,17.2-7.23,22.27-2.3,20.58,6.82,49.84,26.9,49.84,16.09,0,39.8.27,54.08.13,13.97-.13,37.59-.13,54.82-.13,21.1,0,27.19-36.56,24.54-49.6-1.62-7.95-3.96-15.52-6.49-23.37Z"/><path class="cls-2" d="m193.3,336.55c-14.63,25.46-42.09,42.61-73.56,42.61s-58.3-16.76-73.05-41.74c-3.59,9.1-6.66,17.2-7.23,22.27-2.3,20.58,6.82,49.84,26.9,49.84,16.09,0,39.8.27,54.08.13,13.97-.13,37.59-.13,54.82-.13,21.1,0,27.19-36.56,24.54-49.6-1.62-7.95-3.96-15.52-6.49-23.37Z"/><path class="cls-2" d="m193.3,336.55c-14.63,25.46-42.09,42.61-73.56,42.61s-58.3-16.76-73.05-41.74c-3.59,9.1-6.66,17.2-7.23,22.27-2.3,20.58,6.82,49.84,26.9,49.84,16.09,0,39.8.27,54.08.13,13.97-.13,37.59-.13,54.82-.13,21.1,0,27.19-36.56,24.54-49.6-1.62-7.95-3.96-15.52-6.49-23.37Z"/><path class="cls-22" d="m193.3,336.55c-14.63,25.46-42.09,42.61-73.56,42.61s-58.3-16.76-73.05-41.74c-3.59,9.1-6.66,17.2-7.23,22.27-2.3,20.58,6.82,49.84,26.9,49.84,16.09,0,39.8.27,54.08.13,13.97-.13,37.59-.13,54.82-.13,21.1,0,27.19-36.56,24.54-49.6-1.62-7.95-3.96-15.52-6.49-23.37Z"/></g><path class="cls-20" d="m188.97,322.97s-34.82-19.51-67.77-19.82c-.21,0-.42,0-.63,0-.26,0-.52,0-.78,0-31.61.24-64.53,18.55-67.22,20.07-.12.07-.18.1-.18.1.34-1.15.71-2.3,1.11-3.44,4.79-13.92,13.19-27.53,15.95-39.67.13-.54.24-1.08.34-1.61.54-2.91.73-5.73.43-8.45-1.85-16.76,15.95-21.41,32.61-22.72.57-.05,1.14-.09,1.71-.12.2-.02.41-.03.61-.04.27-.02.53-.03.8-.05.34-.02.69-.04,1.03-.05.03,0,.07,0,.1,0,.3-.02.59-.03.89-.04.54-.02,1.08-.05,1.62-.06.14,0,.28,0,.42-.01,1.33-.05,2.63-.07,3.88-.09.3,0,.59-.01.88-.01.35,0,.69,0,1.02-.01.25,0,.5,0,.74,0,.48,0,.95,0,1.42,0,.14,0,.28,0,.43,0,.44,0,.86,0,1.28,0,.24,0,.48,0,.72,0,1.63,0,3.43-.01,5.36,0,.24,0,.49,0,.73,0,.55,0,1.12.01,1.69.02.45,0,.9.02,1.36.03.52.01,1.05.03,1.58.04,1.33.04,2.69.1,4.07.18.27.02.55.03.83.05.28.02.57.04.85.05.55.03,1.1.07,1.66.12,12.36.97,25.44,3.77,30.66,11.7.81,1.23,1.43,2.58,1.83,4.07.55,2.05.68,4.37.31,6.97-.35,2.41-.3,4.88.05,7.4.06.44.13.87.21,1.31,1.14,6.39,4.09,13.1,7.38,20.1,3.17,6.77,6.66,13.8,9.1,21.04.05.15.1.3.15.45.02.04.03.09.04.13,0,0,0,0,0,.01.25.76.49,1.52.71,2.28.01.03.02.07.03.1Z"/><path class="cls-24" d="m188.03,320.17c-8.29-19.31-34.57-19.31-67.75-19.31-27.93,0-58.35.52-66.36,18.24-.5,1.41-.96,2.82-1.38,4.23,0,0,34.86-20.18,68.03-20.18s68.55,19.82,68.55,19.82c-.59-2.01-.79-2.11-1.09-2.8Z"/><path class="cls-24" d="m171.57,278.86s0,0-.01,0c-13.43,8.63-34.85,13.08-51.17,13.08s-37.23-4.94-50.6-13.34c0,0-.02,0-.02-.02.52-3.02.68-5.95.36-8.79-.33-2.95-.05-5.52.73-7.76.06-.02.13-.04.19-.06,3.58-9.43,16.08-12.94,28.64-14.25.3-.03.6-.06.9-.09.5-.05.99-.1,1.49-.14.25-.02.49-.04.74-.06.57-.05,1.14-.09,1.71-.12.2-.02.41-.03.61-.04.27-.02.53-.03.8-.05.34-.02.69-.04,1.03-.05.03,0,.07,0,.1,0,.3-.02.59-.03.89-.04.54-.02,1.08-.05,1.62-.06.14,0,.28,0,.42-.01,1.33-.05,2.63-.07,3.88-.09.3,0,.59,0,.88-.01.35,0,.69,0,1.02-.01.25,0,.5,0,.74,0,.48,0,.95,0,1.42,0,.14,0,.28,0,.43,0,.44,0,.86,0,1.28,0,.24,0,.48,0,.72,0,1.63,0,3.43-.01,5.36,0,.24,0,.49,0,.73,0,.55,0,1.12.01,1.69.02.45,0,.9.02,1.36.03.52.01,1.05.03,1.58.04,1.33.04,2.69.1,4.07.18.27.02.55.03.83.05.28.02.57.04.85.05.55.04,1.1.08,1.66.12.77.06,1.54.13,2.32.2h0c.77.08,1.55.16,2.32.25,0,0,0,0,.01,0,10.82,1.3,21.37,4.31,25.94,11.23.02,0,.05,0,.07.01.05,0,.1.02.15.02.76,1.23,1.33,2.57,1.68,4.05.55,2.05.68,4.37.31,6.97-.35,2.41-.3,4.88.05,7.4.06.43.14.87.22,1.3Z"/></g><g id="G08L02T0101_NegroPan_G"><path id="oreja_I-3" class="cls-20" d="m93.79,182.45c0,8.77-3.12,14.26-12.56,21.94-6.8,5.53-20.68-2.82-19.18-21.94.69-8.74,9.18-16.45,17.95-16.45,5.55,0,13.79,7.74,13.79,16.45Z"/><path id="oreja_I-4" class="cls-24" d="m87.92,183.77c0,5.54-1.97,9.01-7.94,13.86-4.3,3.49-13.06-1.78-12.11-13.86.43-5.52,5.8-10.39,11.34-10.39,3.51,0,8.71,4.89,8.71,10.39Z"/></g><g id="G09L03T0101_NegroPan_G"><g id="oreja_D-3"><path class="cls-20" d="m146.63,182.45c0,8.77,3.12,14.26,12.56,21.94,6.8,5.53,20.68-2.82,19.18-21.94-.69-8.74-9.18-16.45-17.95-16.45-5.55,0-13.79,7.74-13.79,16.45Z"/><path class="cls-20" d="m146.63,182.45c0,8.77,3.12,14.26,12.56,21.94,6.8,5.53,20.68-2.82,19.18-21.94-.69-8.74-9.18-16.45-17.95-16.45-5.55,0-13.79,7.74-13.79,16.45Z"/><path class="cls-20" d="m146.63,182.45c0,8.77,3.12,14.26,12.56,21.94,6.8,5.53,20.68-2.82,19.18-21.94-.69-8.74-9.18-16.45-17.95-16.45-5.55,0-13.79,7.74-13.79,16.45Z"/></g><path id="oreja_D-4" class="cls-24" d="m152.5,183.77c0,5.54,1.97,9.01,7.94,13.86,4.3,3.49,13.06-1.78,12.11-13.86-.43-5.52-5.8-10.39-11.34-10.39-3.51,0-8.71,4.89-8.71,10.39Z"/></g><g id="G10L04T0101_NegroPan_sin"><path class="cls-20" d="m102.96,433.47c-.23,0-.45,0-.68-.01-9.81-.59-17.44.78-27.18-3.7-9.01-4.15-17.52-10.25-24.68-17.52-12.98-13.17-14.79-34.88-10.48-44.09,7.91-16.9,32.01-13.95,39-9.82,29.44,17.35,12.31,38.41,28.25,38.28,6.06-.05,12.1,2.06,12.07,9.61-.01,3.29-1.43,6.32-2.59,9.26-1.68,4.28-2.65,9.35-5.35,13.07-2.03,2.8-5.11,4.84-8.36,4.93Z"/><path class="cls-24" d="m119.25,406.21c.03-7.07-5.26-9.37-10.91-9.59,1.29,1.08,2.15,2.72,2.29,5.1.15,2.59-.82,5.07-1.58,7.45-1.12,3.47-1.63,7.53-3.57,10.61-1.46,2.32-3.79,4.11-6.34,4.37-.18.02-.36.03-.54.03-7.76.11-13.71,1.64-21.6-1.33-7.31-2.74-14.31-7.06-20.31-12.36-10.88-9.62-13.37-26.62-10.43-34.13,5.4-13.78,22.92-2.92,28.63-.08,24.05,11.95,13.2,19.61,25.75,18.57.24-.02.48-.03.72-.05-5.51-5.44,1.77-22.22-22.43-36.48-6.99-4.12-31.09-7.07-39,9.82-4.31,9.21-2.5,30.92,10.48,44.09,7.16,7.26,15.67,13.37,24.68,17.52,9.74,4.48,17.37,3.11,27.18,3.7.23.01.45.02.68.01,3.25-.08,6.33-2.13,8.36-4.93,2.69-3.71,3.66-8.79,5.35-13.07,1.16-2.94,2.58-5.97,2.59-9.26Z"/></g><g id="G11L05T0101_negroPan_sin"><path class="cls-20" d="m199.68,380.07c.49-5.3.28-13.59-2.63-18.15-3.77-5.9-12.05-8.59-18.56-8.43-13.4.31-33.89,6.81-36.68,22.46-.55,3.07.11,6.24-.1,9.35-.34,5.04-2.97,9.7-6.4,13.36-5.48,5.86-13.05,8.13-14.33,17.02-1.07,7.47,3.74,14.91,9.97,18.47,11.07,6.33,25.78,2.08,35.94-4.16,17.75-10.91,30.79-28.3,32.79-49.92Z"/><path class="cls-24" d="m197.04,361.92c-3.77-5.9-12.05-8.59-18.56-8.43-13.4.31-33.89,6.81-36.68,22.46-.55,3.07.11,6.24-.1,9.35-.23,3.35-1.47,6.53-3.28,9.36.35-.21.69-.43,1.03-.66,3.36-2.31,5.93-12.34,11.84-16.7,6.81-5.03,22.17-7.24,30.23-8.62,7.25-1.24,11.52,1.53,13.49,6.85,1.52,4.12.24,10.72-1.07,14.83-5.37,16.78-18.78,28.31-34.82,33.9-9.17,3.2-21.63,4.03-29.33-2.89-3.54-3.18-5.88-8.24-5.44-13.11-1.66,1.94-2.91,4.27-3.37,7.42-1.07,7.47,3.74,14.91,9.97,18.47,11.07,6.33,25.78,2.08,35.94-4.16,17.75-10.91,30.79-28.3,32.79-49.92.49-5.3.28-13.59-2.63-18.15Z"/></g><g id="G12L06T0101_negroPan_sin"><g><path class="cls-26" d="m86.68,361.02s9-1.52,13.08-7.22c0,0-8.12-2.1-8.66-1.65-.27.22-2.73.99-3.81,3.8-.92,2.39-.62,5.06-.62,5.06Z"/><path class="cls-22" d="m98.9,354.87c.31-.34.6-.69.86-1.07,0,0-8.12-2.1-8.66-1.65-.14.12-.94.41-1.8,1.09,1.72-.04,7.28,1.13,9.59,1.63Z"/><path class="cls-26" d="m91.11,352.15s6.49-2.74,9.7-6.3c0,0-5.16-.71-7.76-2.18-1.59-.9-3.44.96-3.48,4.7-.03,2.39,1.54,3.78,1.54,3.78Z"/><path class="cls-22" d="m93.05,343.68c-1.15-.65-2.43.14-3.07,2.04.62-.57,1.35-.7,2.04-.31,2.01,1.14,5.55,1.82,7.05,2.07.63-.51,1.22-1.06,1.73-1.62,0,0-5.16-.71-7.76-2.18Z"/><path class="cls-26" d="m91.62,344s5.12-.81,9.57-5.45c0,0-6.26-1.47-8.5-2.72-1.12-.62-1.62,1.46-1.78,3.76s.71,4.41.71,4.41Z"/><path class="cls-22" d="m92.69,335.82c-.9-.5-1.4.75-1.64,2.45.18-.08.39-.08.62.05,1.57.87,5.11,1.86,7.09,2.37.81-.61,1.63-1.32,2.43-2.15,0,0-6.26-1.47-8.5-2.72Z"/></g><g><path class="cls-24" d="m95.4,344.65c0,.48-.01.97-.05,1.46-.02.18-.03.37-.05.55-.12,1.31-.3,2.54-.53,3.68-.15.76-.33,1.48-.52,2.17-.13.46-.27.9-.42,1.33-.05.14-.1.27-.15.4h0s-.02.05-.03.07c0,.02-.02.05-.03.07-.06.17-.13.34-.2.51-.1.24-.2.47-.3.7-.1.22-.2.43-.3.63-.16.31-.32.61-.49.9-.06.1-.11.19-.17.28-.06.1-.11.19-.17.28-.06.09-.12.18-.18.27-.11.18-.24.36-.36.53-.06.08-.12.16-.18.24-.06.09-.13.17-.2.26-.06.08-.13.16-.19.24-.26.32-.53.62-.81.9h0c-.14.15-.28.28-.43.41-.11.1-.22.2-.33.29-.11.1-.22.19-.34.28-.07.06-.15.12-.23.18-.15.12-.31.24-.46.34-.08.06-.16.11-.24.16-.08.05-.16.11-.24.16-.41.26-.83.5-1.27.72-.1.05-.19.09-.29.14-.02.01-.03.02-.05.02-.13.06-.27.12-.4.18-.09.04-.17.07-.26.11-.26.11-.53.21-.8.3-.09.03-.18.06-.27.09-.18.06-.36.11-.55.16-.24.07-.49.13-.74.19-.26.06-.51.11-.77.16-.16.03-.32.06-.48.08-.13.02-.26.04-.39.06-.13.02-.26.03-.39.05-.13.01-.26.03-.39.04-.13.01-.26.02-.38.03-.09,0-.18.01-.28.02-.08,0-.16.01-.24.01-.23.01-.47.02-.71.03-.07,0-.15,0-.23,0h-.19c-.94,0-1.91-.05-2.89-.14-.16-.02-.33-.03-.5-.06-.41-.05-.82-.1-1.24-.16-.34-.05-.67-.11-1.01-.17-1.3-.23-2.6-.54-3.91-.89-.11-.03-.21-.06-.32-.09-.33-.09-.65-.18-.98-.28-.22-.06-.43-.13-.65-.2-.32-.1-.63-.2-.95-.3-1.13-.37-2.24-.77-3.33-1.19-.35-.14-.71-.27-1.05-.42-.37-.15-.74-.3-1.11-.45-13.03-5.43-25.42-21.27-19.12-50.64.19-.9.4-1.79.61-2.67.05-.22.11-.45.16-.67.06-.26.13-.52.19-.78,1.03-4.08,2.25-7.97,3.63-11.64,2.29-6.12,5.02-11.62,8-16.27,1.85-2.89,3.81-5.45,5.83-7.63,5.8-6.28,12.11-9.42,17.98-8.17,4.2.9.88,10.04-2.43,20.3-2.08,6.44-4.15,13.33-4.35,18.89-.08,2.35.17,4.46.89,6.2,1.21,2.89,2.87,5.6,4.77,8.21,5.35,7.35,12.51,13.82,16.14,20.9.58,1.13,1.07,2.28,1.45,3.45h0c.35,1.08.6,2.18.74,3.3h0c.08.62.12,1.24.13,1.87Z"/><path class="cls-20" d="m95.4,344.65c0,.48-.01.97-.05,1.46-.02.18-.03.37-.05.55-.12,1.31-.3,2.54-.53,3.68-.15.76-.33,1.48-.52,2.17-.13.46-.27.9-.42,1.33-.05.14-.1.27-.15.4h0s-.02.05-.03.07c0,.02-.02.05-.03.07-.06.17-.13.34-.2.51-.1.24-.2.47-.3.7-.1.22-.2.43-.3.63-.16.31-.32.61-.49.9-.06.1-.11.19-.17.28-.06.1-.11.19-.17.28-.06.09-.12.18-.18.27-.11.18-.24.36-.36.53-.06.08-.12.16-.18.24-.06.09-.13.17-.2.26-.06.08-.13.16-.19.24-.26.32-.53.62-.81.9h0c-.14.15-.28.28-.43.41-.11.1-.22.2-.33.29-.11.1-.22.19-.34.28-.07.06-.15.12-.23.18-.15.12-.31.24-.46.34-.08.06-.16.11-.24.16-.08.05-.16.11-.24.16-.41.26-.83.5-1.27.72-.1.05-.19.09-.29.14-.02.01-.03.02-.05.02-.13.06-.27.12-.4.18-.09.04-.17.07-.26.11-.26.11-.53.21-.8.3-.09.03-.18.06-.27.09-.18.06-.36.11-.55.16-.24.07-.49.13-.74.19-.26.06-.51.11-.77.16-.16.03-.32.06-.48.08-.13.02-.26.04-.39.06-.13.02-.26.03-.39.05-.13.01-.26.03-.39.04-.13.01-.26.02-.38.03-.09,0-.18.01-.28.02-.08,0-.16.01-.24.01-.23.01-.47.02-.71.03-.07,0-.15,0-.23,0h-.19c-.94,0-1.91-.05-2.89-.14-.16-.02-.33-.03-.5-.06-.41-.05-.82-.1-1.24-.16-.34-.05-.67-.11-1.01-.17-1.3-.23-2.6-.54-3.91-.89-.11-.03-.21-.06-.32-.09-.33-.09-.65-.18-.98-.28-.22-.06-.43-.13-.65-.2-.32-.1-.63-.2-.95-.3-1.13-.37-2.24-.77-3.33-1.19-.35-.14-.71-.27-1.05-.42-.37-.15-.74-.3-1.11-.45-13.03-5.43-25.42-21.27-19.12-50.64.19-.9.4-1.79.61-2.67.05-.22.11-.45.16-.67.06-.26.13-.52.19-.78,1.03-4.08,2.25-7.97,3.63-11.64,2.29-6.12,5.02-11.62,8-16.27,1.85-2.89,3.81-5.45,5.83-7.63,5.8-6.28,12.11-9.42,17.98-8.17,4.2.9.88,10.04-2.43,20.3-2.08,6.44-4.15,13.33-4.35,18.89-.08,2.35.17,4.46.89,6.2,1.21,2.89,2.87,5.6,4.77,8.21,5.35,7.35,12.51,13.82,16.14,20.9.58,1.13,1.07,2.28,1.45,3.45h0c.35,1.08.6,2.18.74,3.3h0c.08.62.12,1.24.13,1.87Z"/></g><g><path class="cls-24" d="m67.34,354.87c-13.57-3.88-27.72-18.17-24.87-48.08.05-.52.1-1.04.16-1.55-.34,1.35-.66,2.73-.96,4.12-6.3,29.37,6.1,45.21,19.12,50.64,12.14,5.06,27.64,8.38,32.89-5.75-6.64,4.72-17.29,3.21-26.34.62Z"/><path class="cls-24" d="m67.34,354.87c-13.57-3.88-27.72-18.17-24.87-48.08.05-.52.1-1.04.16-1.55-.34,1.35-.66,2.73-.96,4.12-6.3,29.37,6.1,45.21,19.12,50.64,12.14,5.06,27.64,8.38,32.89-5.75-6.64,4.72-17.29,3.21-26.34.62Z"/></g><path class="cls-24" d="m75.63,281.83c-4.24-2.06-8-4.4-11.01-6.99-1.91-1.64-3.39-3.36-4.54-5.15,5.8-6.28,12.11-9.42,17.98-8.17,4.2.9.88,10.04-2.43,20.3Z"/></g><g id="G13L07T0101_negroPan_sin"><g><path class="cls-26" d="m166.22,364.89s-7.41,5.33-14.33,4.22c0,0,4.22-7.24,4.92-7.31.35-.03,2.62-1.24,5.38-.03,2.34,1.03,4.03,3.12,4.03,3.12Z"/><path class="cls-22" d="m153.25,369.24c-.46-.02-.91-.06-1.37-.14,0,0,4.22-7.24,4.92-7.31.19-.02.95-.38,2.04-.51-1.24,1.2-4.32,5.96-5.59,7.96Z"/><path class="cls-26" d="m156.81,361.8s-6.51,2.69-11.3,2.46c0,0,3.13-4.17,3.91-7.05.48-1.77,3.1-1.77,5.79.83,1.72,1.66,1.6,3.75,1.6,3.75Z"/><path class="cls-22" d="m149.41,357.21c.35-1.28,1.81-1.63,3.61-.74-.84.04-1.45.47-1.66,1.23-.61,2.23-2.61,5.22-3.49,6.47-.81.09-1.61.13-2.37.09,0,0,3.13-4.17,3.91-7.05Z"/><path class="cls-26" d="m150.65,356.42s-4.18,3.07-10.61,2.96c0,0,3.36-5.49,4.05-7.96.35-1.23,2.18-.13,3.93,1.38s2.64,3.61,2.64,3.61Z"/><path class="cls-22" d="m144.09,351.43c.28-.99,1.52-.47,2.9.56-.19.07-.33.22-.4.48-.48,1.73-2.28,4.94-3.31,6.71-1,.15-2.08.23-3.24.21,0,0,3.36-5.49,4.05-7.96Z"/></g><path class="cls-20" d="m185.89,357.93s0,0,0,0c-.1.1-.2.21-.3.31-.02.02-.05.04-.07.07-.47.48-.96.94-1.46,1.36-.52.45-1.05.86-1.6,1.25-.11.08-.22.15-.33.23-.11.07-.22.15-.33.22-.67.43-1.34.82-2.04,1.16-.12.06-.23.11-.35.17,0,0,0,0-.01,0-.35.16-.7.31-1.05.45-.12.05-.24.09-.36.14-.24.09-.48.17-.73.25,0,0,0,0,0,0-.12.04-.24.07-.36.11-.12.04-.24.07-.37.11-.11.03-.22.06-.33.09-.39.1-.78.18-1.17.26-3.47.64-7.14,1.11-10.71,1.17-3.2.05-6.31-.23-9.11-1.02-.47-.13-.93-.28-1.39-.45-.64-.23-1.26-.49-1.86-.79-1.2-.6-2.31-1.32-3.29-2.21-.51-.45-.98-.96-1.42-1.5-.34-.41-.65-.85-.94-1.31-.71-1.13-1.28-2.42-1.69-3.87-.27-.96-.48-1.98-.61-3.09t0,0c-.27-2.25-.24-4.82.14-7.76.03-.22.06-.44.09-.67.09-.63.19-1.25.31-1.87.03-.18.07-.36.11-.54.13-.67.28-1.32.44-1.98.03-.15.07-.29.11-.44.04-.14.07-.28.11-.42.05-.18.1-.36.15-.55.03-.13.07-.25.11-.38.05-.18.1-.35.15-.52.01-.05.03-.1.04-.14.05-.18.11-.35.16-.52.06-.19.12-.39.19-.58.04-.13.08-.24.12-.37.05-.16.11-.32.16-.48.16-.45.32-.91.49-1.36.05-.14.11-.28.16-.43,1.04-2.7,2.3-5.33,3.72-7.94.15-.27.3-.54.45-.81.09-.16.18-.32.27-.48.12-.21.24-.42.36-.63.14-.25.29-.51.44-.76.5-.86,1.02-1.72,1.56-2.58.24-.39.49-.78.73-1.17.25-.39.5-.78.75-1.17.25-.39.51-.78.76-1.17,1.98-3,4.09-6.03,6.27-9.15,0,0,0,0,0,0,.37-.53.73-1.06,1.1-1.59,3.26-4.71,2.96-13.67,2.16-22.41-1.08-11.8-3.07-23.2,1.61-23.2.6,0,1.2.04,1.81.13,13.69,1.94,29.06,25.5,29.06,54.26,0,21.26-4.62,36.54-12.25,44.58Z"/><path class="cls-24" d="m185.36,358.13c-14.37,6.61-32.86-.84-33.69-15.88-.69-12.63,4.75-23.83,10.73-36.1-8.65,12.44-16.44,23.44-18.23,37.11-3.03,23.17,15.88,23.61,30.87,20.83,4.06-.75,7.72-2.84,10.86-6.16-.18.07-.37.12-.54.2Z"/><path class="cls-24" d="m182.24,267.2c-1.09,2.75-2.8,5.31-5.38,7.65-3.05,2.77-6.88,5.21-11.21,7.31-1.08-11.8-3.07-23.2,1.61-23.2.6,0,1.2.04,1.81.13,0,0,0,0,0,.01,4.41.65,8.98,3.53,13.16,8.09Z"/></g><g id="G03L08T0101_BNB_Pan_sin"><path id="cabeza-2" class="cls-2" d="m175.91,229.9c0,16.34,6.23,30.42-4.62,40.26-11.18,10.15-34.03,15.4-50.87,15.4s-39.05-5.79-50.21-15.4c-11.49-9.89-6-22.63-6-39.45,0-33.18,29.69-60.84,55.24-60.84s56.46,26.86,56.46,60.03Z"/><g><path class="cls-2" d="m171.56,263.88c-11.18,10.15-34.3,18.89-51.14,18.89s-39.05-9.32-50.21-18.94c-4.62-3.98-6.49-11.56-7.08-16.54-.67,9.01-.28,16.52,7.08,22.86,11.16,9.61,33.86,15.4,50.21,15.4s39.69-5.25,50.87-15.4c3.03-2.75,4.72-5.83,5.6-9.19.98-3.77.92-7.9.55-12.34-.58,4.5-2.01,11.74-5.88,15.26Z"/><path class="cls-2" d="m171.56,263.88c-11.18,10.15-34.3,18.89-51.14,18.89s-39.05-9.32-50.21-18.94c-4.62-3.98-6.49-11.56-7.08-16.54-.67,9.01-.28,16.52,7.08,22.86,11.16,9.61,33.86,15.4,50.21,15.4s39.69-5.25,50.87-15.4c3.03-2.75,4.72-5.83,5.6-9.19.98-3.77.92-7.9.55-12.34-.58,4.5-2.01,11.74-5.88,15.26Z"/><path class="cls-2" d="m171.56,263.88c-11.18,10.15-34.3,18.89-51.14,18.89s-39.05-9.32-50.21-18.94c-4.62-3.98-6.49-11.56-7.08-16.54-.67,9.01-.28,16.52,7.08,22.86,11.16,9.61,33.86,15.4,50.21,15.4s39.69-5.25,50.87-15.4c3.03-2.75,4.72-5.83,5.6-9.19.98-3.77.92-7.9.55-12.34-.58,4.5-2.01,11.74-5.88,15.26Z"/><path class="cls-2" d="m171.56,263.88c-11.18,10.15-34.3,18.89-51.14,18.89s-39.05-9.32-50.21-18.94c-4.62-3.98-6.49-11.56-7.08-16.54-.67,9.01-.28,16.52,7.08,22.86,11.16,9.61,33.86,15.4,50.21,15.4s39.69-5.25,50.87-15.4c3.03-2.75,4.72-5.83,5.6-9.19.98-3.77.92-7.9.55-12.34-.58,4.5-2.01,11.74-5.88,15.26Z"/><path class="cls-2" d="m171.56,263.88c-11.18,10.15-34.3,18.89-51.14,18.89s-39.05-9.32-50.21-18.94c-4.62-3.98-6.49-11.56-7.08-16.54-.67,9.01-.28,16.52,7.08,22.86,11.16,9.61,33.86,15.4,50.21,15.4s39.69-5.25,50.87-15.4c3.03-2.75,4.72-5.83,5.6-9.19.98-3.77.92-7.9.55-12.34-.58,4.5-2.01,11.74-5.88,15.26Z"/><path class="cls-2" d="m171.56,263.88c-11.18,10.15-34.3,18.89-51.14,18.89s-39.05-9.32-50.21-18.94c-4.62-3.98-6.49-11.56-7.08-16.54-.67,9.01-.28,16.52,7.08,22.86,11.16,9.61,33.86,15.4,50.21,15.4s39.69-5.25,50.87-15.4c3.03-2.75,4.72-5.83,5.6-9.19.98-3.77.92-7.9.55-12.34-.58,4.5-2.01,11.74-5.88,15.26Z"/><path class="cls-2" d="m171.56,263.88c-11.18,10.15-34.3,18.89-51.14,18.89s-39.05-9.32-50.21-18.94c-4.62-3.98-6.49-11.56-7.08-16.54-.67,9.01-.28,16.52,7.08,22.86,11.16,9.61,33.86,15.4,50.21,15.4s39.69-5.25,50.87-15.4c3.03-2.75,4.72-5.83,5.6-9.19.98-3.77.92-7.9.55-12.34-.58,4.5-2.01,11.74-5.88,15.26Z"/><path class="cls-2" d="m171.56,263.88c-11.18,10.15-34.3,18.89-51.14,18.89s-39.05-9.32-50.21-18.94c-4.62-3.98-6.49-11.56-7.08-16.54-.67,9.01-.28,16.52,7.08,22.86,11.16,9.61,33.86,15.4,50.21,15.4s39.69-5.25,50.87-15.4c3.03-2.75,4.72-5.83,5.6-9.19.98-3.77.92-7.9.55-12.34-.58,4.5-2.01,11.74-5.88,15.26Z"/><path class="cls-2" d="m171.56,263.88c-11.18,10.15-34.3,18.89-51.14,18.89s-39.05-9.32-50.21-18.94c-4.62-3.98-6.49-11.56-7.08-16.54-.67,9.01-.28,16.52,7.08,22.86,11.16,9.61,33.86,15.4,50.21,15.4s39.69-5.25,50.87-15.4c3.03-2.75,4.72-5.83,5.6-9.19.98-3.77.92-7.9.55-12.34-.58,4.5-2.01,11.74-5.88,15.26Z"/><path class="cls-2" d="m171.56,263.88c-11.18,10.15-34.3,18.89-51.14,18.89s-39.05-9.32-50.21-18.94c-4.62-3.98-6.49-11.56-7.08-16.54-.67,9.01-.28,16.52,7.08,22.86,11.16,9.61,33.86,15.4,50.21,15.4s39.69-5.25,50.87-15.4c3.03-2.75,4.72-5.83,5.6-9.19.98-3.77.92-7.9.55-12.34-.58,4.5-2.01,11.74-5.88,15.26Z"/><path class="cls-2" d="m171.56,263.88c-11.18,10.15-34.3,18.89-51.14,18.89s-39.05-9.32-50.21-18.94c-4.62-3.98-6.49-11.56-7.08-16.54-.67,9.01-.28,16.52,7.08,22.86,11.16,9.61,33.86,15.4,50.21,15.4s39.69-5.25,50.87-15.4c3.03-2.75,4.72-5.83,5.6-9.19.98-3.77.92-7.9.55-12.34-.58,4.5-2.01,11.74-5.88,15.26Z"/><path class="cls-2" d="m171.56,263.88c-11.18,10.15-34.3,18.89-51.14,18.89s-39.05-9.32-50.21-18.94c-4.62-3.98-6.49-11.56-7.08-16.54-.67,9.01-.28,16.52,7.08,22.86,11.16,9.61,33.86,15.4,50.21,15.4s39.69-5.25,50.87-15.4c3.03-2.75,4.72-5.83,5.6-9.19.98-3.77.92-7.9.55-12.34-.58,4.5-2.01,11.74-5.88,15.26Z"/><path class="cls-2" d="m171.56,263.88c-11.18,10.15-34.3,18.89-51.14,18.89s-39.05-9.32-50.21-18.94c-4.62-3.98-6.49-11.56-7.08-16.54-.67,9.01-.28,16.52,7.08,22.86,11.16,9.61,33.86,15.4,50.21,15.4s39.69-5.25,50.87-15.4c3.03-2.75,4.72-5.83,5.6-9.19.98-3.77.92-7.9.55-12.34-.58,4.5-2.01,11.74-5.88,15.26Z"/><path class="cls-2" d="m171.56,263.88c-11.18,10.15-34.3,18.89-51.14,18.89s-39.05-9.32-50.21-18.94c-4.62-3.98-6.49-11.56-7.08-16.54-.67,9.01-.28,16.52,7.08,22.86,11.16,9.61,33.86,15.4,50.21,15.4s39.69-5.25,50.87-15.4c3.03-2.75,4.72-5.83,5.6-9.19.98-3.77.92-7.9.55-12.34-.58,4.5-2.01,11.74-5.88,15.26Z"/><path class="cls-2" d="m171.56,263.88c-11.18,10.15-34.3,18.89-51.14,18.89s-39.05-9.32-50.21-18.94c-4.62-3.98-6.49-11.56-7.08-16.54-.67,9.01-.28,16.52,7.08,22.86,11.16,9.61,33.86,15.4,50.21,15.4s39.69-5.25,50.87-15.4c3.03-2.75,4.72-5.83,5.6-9.19.98-3.77.92-7.9.55-12.34-.58,4.5-2.01,11.74-5.88,15.26Z"/><path class="cls-2" d="m171.56,263.88c-11.18,10.15-34.3,18.89-51.14,18.89s-39.05-9.32-50.21-18.94c-4.62-3.98-6.49-11.56-7.08-16.54-.67,9.01-.28,16.52,7.08,22.86,11.16,9.61,33.86,15.4,50.21,15.4s39.69-5.25,50.87-15.4c3.03-2.75,4.72-5.83,5.6-9.19.98-3.77.92-7.9.55-12.34-.58,4.5-2.01,11.74-5.88,15.26Z"/><path class="cls-22" d="m171.56,263.88c-11.18,10.15-34.3,18.89-51.14,18.89s-39.05-9.32-50.21-18.94c-4.62-3.98-6.49-11.56-7.08-16.54-.67,9.01-.28,16.52,7.08,22.86,11.16,9.61,33.86,15.4,50.21,15.4s39.69-5.25,50.87-15.4c3.03-2.75,4.72-5.83,5.6-9.19.98-3.77.92-7.9.55-12.34-.58,4.5-2.01,11.74-5.88,15.26Z"/></g></g><g id="G14L09T0101_negro_panda"><path class="cls-20" d="m80.2,221.65c-4.93,8.82-19.13,15.21-13.05,23.28,6.08,8.07,26.03,5.83,34.1-.25,8.07-6.08,9.68-17.55,3.6-25.62-6.08-8.07-16.79-11.48-24.65,2.59Z"/><path class="cls-24" d="m100.9,236.19c-3.62,4.26-17.38,5.43-20.52.87-3.91-5.67,2.55-8.32,5.44-13.11,4.01-6.67,10.23-7.7,13.99-1.97,3.04,4.63,4.71,9.94,1.09,14.21Z"/></g><g id="G15L10T0101_negro_panda"><path class="cls-20" d="m160.8,221.65c4.93,8.82,19.13,15.21,13.05,23.28-6.08,8.07-26.03,5.83-34.1-.25-8.07-6.08-9.68-17.55-3.6-25.62,6.08-8.07,16.79-11.48,24.65,2.59Z"/><path class="cls-24" d="m140.75,236.19c3.62,4.26,17.38,5.43,20.52.87,3.91-5.67-2.55-8.32-5.44-13.11-4.01-6.67-10.23-7.7-13.99-1.97-3.04,4.63-4.71,9.94-1.09,14.21Z"/></g><g id="G04L11T0101_negro"><circle class="cls-2" cx="94.16" cy="230.61" r="6.54"/><circle class="cls-24" cx="94.16" cy="230.61" r="5.09"/><circle class="cls-2" cx="92.68" cy="228.57" r="1.43"/></g><g id="G05L12T0101_negro"><circle class="cls-2" cx="148" cy="230.61" r="6.54"/><circle class="cls-24" cx="148" cy="230.61" r="5.09"/><circle class="cls-2" cx="146.37" cy="228.57" r="1.43"/></g><path id="G06L13T0101_cerrada" class="cls-24" d="m125.78,254.06c-.29.1-.59.13-.88.18-.3.02-.59.06-.89.04-.59-.01-1.18-.08-1.76-.24l-.43-.12c-.14-.05-.28-.09-.42-.15-.19-.07-.38-.16-.56-.25v-3.26h-.85v3.28c-.17.1-.37.2-.56.28-.27.11-.56.21-.84.28-.57.15-1.17.22-1.78.21-.15,0-.3-.02-.45-.03l-.23-.02-.23-.04c-.15-.02-.3-.04-.45-.07l-.45-.11-.23-.05-.22-.07-.45-.15c-.15-.05-.29-.12-.44-.18l-.44-.18c.26.19.51.38.78.55.14.08.28.16.42.23l.21.12.22.1c.59.27,1.24.43,1.89.52.66.08,1.33.03,1.99-.1.33-.06.65-.17.96-.29.24-.1.47-.2.71-.34.23.12.46.21.7.29.31.11.62.2.94.28.64.13,1.3.19,1.95.13.33-.02.65-.09.97-.15.31-.1.63-.18.92-.33.6-.25,1.12-.64,1.58-1.06-.57.28-1.12.56-1.71.69Z"/><g id="G07L14T0101_pandanegroG"><path class="cls-20" d="m130.49,244.88c0,3.82-4.43,6.92-9.89,6.92s-9.89-3.1-9.89-6.92,4.43-3.31,9.89-3.31,9.89-.52,9.89,3.31Z"/><path class="cls-24" d="m130.49,244.88c0,3.82-4.43,6.92-9.89,6.92s-9.89-3.1-9.89-6.92,4.53.95,9.99.95,9.79-4.78,9.79-.95Z"/><g id="rubor"><circle id="rubor_D" class="cls-4" cx="160.96" cy="249.1" r="7.81"/><circle id="rubor_I" class="cls-4" cx="80.11" cy="249.1" r="7.81"/></g></g></g><circle class="cls-25" cx="363.5" cy="38.5" r="6.5"/><circle class="cls-25" cx="471.5" cy="261.5" r="6.5"/><circle class="cls-25" cx="29.5" cy="261.5" r="6.5"/></g></g></g></g></svg>