<?xml version="1.0" encoding="UTF-8"?><svg xmlns="http://www.w3.org/2000/svg" xmlns:xlink="http://www.w3.org/1999/xlink" viewBox="0 0 500 601"><defs><style>.cls-1{fill:#f4d79f;}.cls-2{fill:#e8f8fe;}.cls-3{fill:#fff;}.cls-4{fill:#cacaca;}.cls-5{fill:#a6a6a6;}.cls-6{isolation:isolate;}.cls-7{fill:#fbd58f;}.cls-8,.cls-9,.cls-10,.cls-11,.cls-12,.cls-13,.cls-14,.cls-15{mix-blend-mode:multiply;}.cls-8,.cls-16{fill:#9c8c78;}.cls-17{fill:#e4807e;}.cls-9{fill:url(#Degradado_sin_nombre_5);}.cls-18{stroke:#fff;stroke-miterlimit:10;stroke-width:3px;}.cls-18,.cls-19{fill:none;}.cls-20{fill:#ecd934;}.cls-21{fill:#edb0e2;}.cls-10{fill:#f1f1f1;}.cls-22{fill:#d1dee4;}.cls-23{clip-path:url(#clippath);}.cls-11{opacity:.22;}.cls-24{fill:#cceaf0;}.cls-25,.cls-12{fill:#e6d6bf;}.cls-26{fill:#93752e;}.cls-13{fill:#dadada;}.cls-14{fill:#e4e4e4;}.cls-27{fill:#fff061;}.cls-15{fill:#d8d8d8;}.cls-28{fill:#d97a78;}.cls-29{fill:#1d1d1b;}</style><clipPath id="clippath"><rect class="cls-19" width="500" height="601"/></clipPath><linearGradient id="Degradado_sin_nombre_5" x1="249.15" y1="612.07" x2="250.44" y2="383.91" gradientUnits="userSpaceOnUse"><stop offset="0" stop-color="#fff"/><stop offset=".32" stop-color="#fcfcfc"/><stop offset=".52" stop-color="#f3f3f3"/><stop offset=".69" stop-color="#e5e5e5"/><stop offset=".84" stop-color="#d0d0d0"/><stop offset=".97" stop-color="#b6b6b6"/><stop offset="1" stop-color="#b0b0b0"/></linearGradient></defs><g class="cls-6"><g id="Capa_2"><g id="Capa_1-2"><g class="cls-23"><rect id="pared" class="cls-22" width="500" height="378"/><rect id="suelo" class="cls-24" x="-.34" y="382" width="500.34" height="219"/><rect id="suelo-2" class="cls-9" x="-.34" y="382" width="500.34" height="219"/><g id="alfombra"><polygon class="cls-14" points="540 601 0 601 .01 530.96 109.8 402.83 371.99 402 500 553.62 540 601"/><polygon id="alfombra-2" class="cls-7" points="537.38 601 -.38 601 .01 533.38 111.31 402.24 370.84 402 500 556.33 537.38 601"/><polygon class="cls-10" points="397.98 434.43 56.55 466.86 111.31 402.24 370.84 402 397.98 434.43"/></g><g id="zocalo"><rect class="cls-4" y="378.13" width="500" height="24.06"/><rect class="cls-5" y="399.79" width="500" height="2.4"/><rect class="cls-2" y="375.49" width="500" height="2.4"/></g><ellipse class="cls-11" cx="337.5" cy="465.5" rx="84.5" ry="14.5"/><ellipse class="cls-11" cx="152" cy="465.5" rx="68" ry="14.5"/><g><g><path class="cls-10" d="m118.49,174.2c-3.65,18.22-8.83,36.24-15.11,52.8h-12.21c16.8-42.66,25.47-94.6,19.83-125.67-1.31-7.31-4.97-18.5-11.24-28.01-4.16-6.36-10.73-13.85-18.63-13.47-5.24.23-13.75,5.93-21.17,14.18-7.31,8.1-12.23,17.34-11.95,22.45.18,3.8,4.98,10.69,11.65,16.72,6.52,5.9,13.7,9.93,17.62,9.93h.25c1.29-.07,4.29-2.33,7.21-8.33,2.49-5.15,4.16-11.65,3.97-15.45-.13-2.72-1.62-6.62-3.61-9.46-2.08-2.97-3.98-4.03-5-4.03-.25.07-1.56.89-3.02,3.56-1.41,2.59-2.36,5.9-2.25,7.9.07,1.44-.44,2.85-1.43,3.93-1.05,1.1-2.46,1.77-4,1.85-3.16.13-5.83-2.21-6-5.23-.2-4,1.16-9.18,3.54-13.55,3.2-5.87,7.64-9.23,12.52-9.46,5.59-.26,10.93,2.88,15.11,8.88,3.16,4.56,5.29,10.32,5.54,15.04.29,5.67-1.67,13.78-5.03,20.68-1.88,3.85-4.05,7.03-6.41,9.44-3.25,3.26-6.8,5.03-10.6,5.21-.25.02-.51.02-.75.02-10.41,0-22.14-9.88-25.5-12.9-3.43-3.13-14.72-14.09-15.24-24.21-.25-4.42,1.18-9.6,4.2-15.36,2.57-4.93,6.21-10.06,10.54-14.88,9.77-10.83,20.7-17.55,29.25-17.95,10.55-.51,20.53,5.92,28.86,18.57,7.18,10.88,11.32,23.67,12.85,32.02,3.43,18.96,2.08,45.51-3.79,74.75Z"/><path class="cls-10" d="m448.49,320.2c-3.65,18.22-8.83,36.24-15.11,52.8h-12.21c16.8-42.66,25.47-94.6,19.83-125.67-1.31-7.31-4.97-18.5-11.24-28.01-4.16-6.36-10.73-13.85-18.63-13.47-5.24.23-13.75,5.93-21.17,14.18-7.31,8.1-12.23,17.34-11.95,22.45.18,3.8,4.98,10.69,11.65,16.72,6.52,5.9,13.7,9.93,17.62,9.93h.25c1.29-.07,4.29-2.33,7.21-8.33,2.49-5.15,4.16-11.65,3.97-15.45-.13-2.72-1.62-6.62-3.61-9.46-2.08-2.97-3.98-4.03-5-4.03-.25.07-1.56.89-3.02,3.56-1.41,2.59-2.36,5.9-2.25,7.9.07,1.44-.44,2.85-1.43,3.93-1.05,1.1-2.46,1.77-4,1.85-3.16.13-5.83-2.21-6-5.23-.2-4,1.16-9.18,3.54-13.55,3.2-5.87,7.64-9.23,12.52-9.46,5.59-.26,10.93,2.88,15.11,8.88,3.16,4.56,5.29,10.32,5.54,15.04.29,5.67-1.67,13.78-5.03,20.68-1.88,3.85-4.05,7.03-6.41,9.44-3.25,3.26-6.8,5.03-10.6,5.21-.25.02-.51.02-.75.02-10.41,0-22.14-9.88-25.5-12.9-3.43-3.13-14.72-14.09-15.24-24.21-.25-4.42,1.18-9.6,4.2-15.36,2.57-4.93,6.21-10.06,10.54-14.88,9.77-10.83,20.7-17.55,29.25-17.95,10.55-.51,20.53,5.92,28.86,18.57,7.18,10.88,11.32,23.67,12.85,32.02,3.43,18.96,2.08,45.51-3.79,74.75Z"/></g><polyline class="cls-18" points="29.46 378 29.46 39 471 39 471 378"/></g><circle class="cls-27" cx="363.5" cy="38.5" r="6.5"/><circle class="cls-27" cx="471.5" cy="261.5" r="6.5"/><circle class="cls-27" cx="29.5" cy="261.5" r="6.5"/><g><path class="cls-26" d="m225.37,393.02c0,.41,0,.82,0,1.23-.03,1.94-.12,3.86-.26,5.76-.25,3.14-.66,6.24-1.23,9.27h0c-.83,4.45-2,8.75-3.48,12.9-.31.88-.64,1.76-.98,2.63,0,0,0,0,0,0-.32.81-.65,1.62-1,2.42-1.19,2.77-2.52,5.45-3.98,8.04-.19.34-.39.68-.59,1.02-.18.31-.36.62-.55.92,0,0,0,0,0,.01-2.52,4.19-5.38,8.1-8.56,11.7h0c-.89,1.01-1.81,1.99-2.74,2.95-1.61,1.65-3.29,3.21-5.03,4.69-2.86,2.44-5.89,4.65-9.06,6.6-2.33,1.44-4.73,2.74-7.21,3.89-1.74.82-3.52,1.56-5.32,2.23h0c-.14.05-.28.1-.41.15-1.34.48-2.69.93-4.06,1.33h0c-1.28.38-2.58.71-3.89,1.02-.09.02-.18.04-.27.06-1.38.3-2.82.57-4.38.83,0,0,0,0,0,0-.08.01-.16.03-.23.04,0,0-.02,0-.03,0-.14.02-.27.04-.41.06,0,0-.01,0-.02,0-.62.09-1.25.18-1.88.25-.28.03-.55.06-.83.09-.08,0-.17.02-.26.03-.03,0-.06,0-.1,0-.04,0-.09,0-.14.01-.14.01-.29.03-.46.04-.04,0-.08,0-.12.01-.1,0-.2.02-.31.03-.14.01-.28.02-.42.04h-.04c-.08,0-.17.01-.25.02-.27.02-.53.04-.8.05-.1,0-.2.01-.28.02h-.02s-.02,0-.03,0c-.07,0-.14,0-.22.01-.04,0-.09,0-.14,0-.18.01-.37.02-.55.03-.05,0-.11,0-.17,0,0,0-.01,0-.02,0-.04,0-.07,0-.11,0-.03,0-.05,0-.08,0-.02,0-.05,0-.08,0-.06,0-.11,0-.17,0-.06,0-.12,0-.18,0-.03,0-.05,0-.08,0-.04,0-.09,0-.13,0-.01,0-.02,0-.03,0-.03,0-.07,0-.1,0-.2,0-.39,0-.59.01h-.11s-.09,0-.14,0h-.02c-.07,0-.14,0-.21,0-.22,0-.39,0-.57,0-.1,0-.2,0-.32,0-.56,0-1.12,0-1.68-.02-.02,0-.04,0-.06,0-.04,0-.08,0-.11,0,0,0-.01,0-.02,0-.03,0-.06,0-.09,0h-.19c-.08,0-.16-.01-.23-.02-.05,0-.11,0-.16,0-.06,0-.12,0-.18,0-.02,0-.03,0-.05,0-.1,0-.2,0-.3-.01-.29-.01-.58-.03-.87-.04-.09,0-.18-.01-.26-.02h-.16s-.1-.02-.14-.02c-.04,0-.08,0-.11,0-.26-.02-.52-.04-.78-.06-.05,0-.1,0-.16-.01-.01,0-.02,0-.03,0-.06,0-.12,0-.18-.02h0c-3.6-.31-7.12-.91-10.56-1.77-.43-.1-.85-.22-1.27-.33-.22-.06-.44-.12-.66-.18-.22-.06-.45-.12-.67-.19-.02,0-.03,0-.04-.01-.09-.02-.18-.05-.28-.08-.49-.14-.98-.3-1.47-.45-.06-.02-.13-.04-.19-.06-.01,0-.02,0-.03,0-.33-.11-.66-.22-.98-.33-.55-.19-1.09-.38-1.63-.58-1.15-.43-2.29-.89-3.41-1.37-.04-.02-.08-.04-.12-.05-2.95-1.29-5.8-2.77-8.54-4.45-.02-.01-.04-.02-.06-.04-1.13-.69-2.24-1.41-3.34-2.17-2.1-1.45-4.13-3.01-6.07-4.67-2.52-2.14-4.9-4.47-7.14-6.95h0c-3.68-4.09-6.97-8.6-9.79-13.47-.07-.12-.14-.24-.21-.36,0,0,0,0,0,0-.14-.25-.28-.5-.43-.75,0,0,0,0,0,0-1.15-2.06-2.22-4.17-3.2-6.35h0c-.43-.95-.83-1.9-1.22-2.86-1.07-2.62-2.01-5.31-2.82-8.07h0c-1.12-3.82-1.99-7.76-2.58-11.8-.06-.41-.12-.81-.17-1.22h0c-.28-2.14-.49-4.31-.62-6.51-.03-.56-.06-1.12-.08-1.69,0-.02,0-.04,0-.06-.04-1.12-.06-2.23-.06-3.36,0-1.9.06-3.86.18-5.87.22-3.69.63-7.54,1.23-11.5.1-.68.21-1.35.32-2.03.34-2.07.73-4.17,1.17-6.29.47-2.25.99-4.53,1.56-6.82.2-.81.41-1.61.62-2.42.7-2.65,1.47-5.32,2.3-7.99.86-2.76,1.79-5.52,2.78-8.27.87-2.42,1.8-4.84,2.77-7.23.21-.52.43-1.04.64-1.55,1.23-2.94,2.53-5.86,3.9-8.72.46-.96.92-1.91,1.4-2.85.94-1.89,1.92-3.75,2.92-5.58.72-1.32,1.46-2.62,2.21-3.9.27-.46.54-.92.82-1.38h0c1.3-2.17,2.64-4.29,4.03-6.33,4.41-6.52,9.21-12.36,14.32-17.18,1.73-1.63,3.5-3.15,5.3-4.53,3.5-2.69,7.13-4.89,10.85-6.5.72-.31,1.45-.6,2.19-.87.01,0,.03,0,.04-.01,1.48-.54,2.97-.98,4.47-1.33.65-.14,1.29-.28,1.94-.39.31-.05.63-.1.94-.14.1-.01.19-.03.29-.04,0,0,0,0,.02,0,.09-.01.18-.02.27-.03.02,0,.03,0,.04,0,.04,0,.08,0,.12-.01.05,0,.1-.01.15-.02.03,0,.07,0,.1-.01.02,0,.04,0,.06,0,.07-.01.14-.02.22-.03.16-.02.31-.03.46-.04.06,0,.12-.01.19-.02h0c.18-.02.37-.03.55-.04.03,0,.06,0,.09,0,.04,0,.07,0,.1,0,.07,0,.14-.01.2-.01.03,0,.06,0,.08,0,.05,0,.09,0,.14,0,.04,0,.09,0,.14,0,.09,0,.19,0,.33-.01.04,0,.08,0,.13,0,0,0,.02,0,.03,0h.09s.07,0,.1,0c.02,0,.04,0,.06,0h.15s.04,0,.06,0h0c.16,0,.31,0,.47,0,.04,0,.08,0,.13,0,.27,0,.53,0,.8.01.39,0,.77.03,1.16.05,1.45.09,2.89.28,4.31.55.61.12,1.22.25,1.83.41,4.35,1.08,8.58,3,12.67,5.6,1.29.82,2.57,1.72,3.83,2.67,3.84,2.91,7.52,6.41,11.04,10.38.95,1.07,1.88,2.17,2.8,3.31,1.41,1.74,2.79,3.56,4.14,5.43.79,1.1,1.57,2.23,2.34,3.37,2.36,3.53,4.6,7.24,6.72,11.1h0c1.78,3.24,3.46,6.58,5.05,9.98,1.07,2.28,2.09,4.6,3.07,6.93.03.07.06.13.08.2,2.55,6.12,4.79,12.38,6.67,18.61.98,3.25,1.87,6.48,2.65,9.69.58,2.39,1.11,4.76,1.58,7.11.07.33.13.67.2,1.01.57,2.95,1.05,5.85,1.42,8.68.55,4.11.89,8.09,1.01,11.87.03,1.03.05,2.04.05,3.04Z"/><g><path class="cls-1" d="m135.37,471.47c-.43-.1-.85-.22-1.27-.33-.22-.06-.44-.12-.66-.18-.22-.06-.45-.12-.67-.19-.02,0-.03,0-.04-.01-.09-.02-.18-.05-.28-.08-.49-.14-.98-.3-1.47-.45-.06-.02-.13-.04-.19-.06-.01,0-.02,0-.03,0-.33-.11-.66-.22-.98-.33-.55-.19-1.09-.38-1.63-.58-29.17-14.32-31.01-46.82-20.77-49.98.74-.23,1.82-.15,2.59-.08,6.89,1.69,20.71,22.43,20.73,29.28,0,.2-1.56,18.13-13.17,6.8-11.51-11.23-10.31-21.88-5.78-21.88,4.4,0,10.95,12.79,9.13,14.34-.85.73-3.01-.33-3.96-2.95-.86-2.38-2.36-4.61-3.1-5.37-3.76,1.83,3.35,14.1,6.76,15.47,1.87.76,7.29-5.17,4.62-10.94-.14-.29-14.19-27.08-18.6-14.32-3.9,11.31,5.57,33.78,28.77,41.87Z"/><path class="cls-1" d="m219.41,424.8s0,0,0,0c-.32.81-.65,1.62-1,2.42-1.19,2.77-2.52,5.45-3.98,8.04-.19.34-.39.68-.59,1.02-.18.31-.36.62-.55.92,0,0,0,0,0,.01-6.64,9.82-16.16,18.19-17.77,14.03-2.79-7.22,5.41-40.12,14.07-36.63,4.53,1.82,3.63,17.72-1.08,19.12-.47.14-1.95.3-1.16-3.42.79-3.72.03-6.3-.46-6.97-4.23,3.37-7.54,17.87-5.89,22.56,8.65-1.13,24.65-27.5,10.04-39.82-3.98-3.36-8.2-3.39-19.48,30.39-6.43,19.27-10.62,28.26-16.19,32.81h0c-.14.05-.28.1-.41.15-1.34.48-2.69.93-4.06,1.33,4.96-4.04,8.16-13.17,14.54-34.64,9.37-31.54,16.68-37.7,21.37-39.59,7.58-1.83,17.54,11.36,12.62,28.27Z"/><path class="cls-1" d="m145.93,473.23h0c-10.18-2.47-15.07-13.49-7.92-19.3,1.75-1.43,3.06-1.48,4.57-1.55,4.69.33,16.05,9.47,14.27,13.86-.75,1.85-5.27,5.86-7.96,5.67-3.23-.23-6.96-4.58-7.82-6.78-1.24-3.15,2.12-5.32,5.53-3.56,2.4,1.23,4.16,4.63,2.23,5.25-.7.23-2.32-.02-2.88-1.6-.14-.41-.48-.63-.59-.69h0c-1.96.2.93,4.07,2.38,5.28.08.07.19.15.27.21,1.96-.57,5.46-3.9,5.2-4.94-.31-1.25-4.59-5.51-8.25-7.49-4.84-2.62-6.96,5.49-6.1,7.89.9,2.51,3.95,6.52,8.63,7.88h0l-1.56-.12Z"/><path class="cls-1" d="m179.23,425.87c-2.6,25.31-12.98,42.98-19.47,47.15-.28.03-.55.06-.83.09-.08,0-.17.02-.26.03-.03,0-.06,0-.1,0-.04,0-.09,0-.14.01-.14.01-.29.03-.46.04-.04,0-.08,0-.12.01-.1,0-.2.02-.31.03-.14.01-.28.02-.42.04h-.04c-.08,0-.17.01-.25.02,5.41-4.24,17.74-25.6,17.17-60.16-.43-25.88-13.68-52.12-20.26-54.59-7.41-2.77-30.94,26.51-23.79,42.52.15.35,15.99,33,25.07,8.55,6.18-16.61-2.93-27.2-5.25-25.62-1.35.92-4.05,6.53-4.21,11.78-.11,3.6-2.97,3.91-3.86,3.2-1.4-1.12-2.15-2.01-1.2-7.25,1.74-9.62,8.41-22.7,16.65-10.93,12.36,17.67,1.51,48.37-11.49,44.73-7.31-2.04-23.02-18.92-22.63-32.14.39-13.05,16.49-36.83,24.84-41.67.86-.5,2.16-1.25,4.26-1.3,13.84,2.16,30.46,42.28,27.06,75.45Z"/><path class="cls-1" d="m217.12,379.56c-1.51,19.12-21.36-3.49-21.56-3.73-15.23-18.36-8.72-63-6.71-63.92,6.45-.77,20.25,16.52,29.62,39.73.98,3.25,1.87,6.48,2.65,9.69.58,2.39,1.11,4.76,1.58,7.11.07.33.13.67.2,1.01.57,2.95,1.05,5.85,1.42,8.68-5.95-31.91-23.98-58.66-31.33-59.79-5.05-.77-4,39.98,3.77,50.33,3.98,5.31,16.09,16.58,17.21,8.79,1.77-12.36-6.24-35.9-12.06-35.48-1.18,6.48,6.38,11.92,2.26,18.75-5.88.8-5.67-25.48-5.29-25.8,5.36-4.5,19.91,23.62,18.25,44.63Z"/><path class="cls-1" d="m92.89,442.11c1.31,2.05,2.89,4.51,4.21,6.34-1.54-2.12-2.94-4.24-4.21-6.34Z"/><path class="cls-1" d="m107.24,402.15c-1.3,4.88-15.76,27.19-21.03,17.39-8.74-16.27,2.04-47.05,8.42-43.75,3.25,1.69,4.84,23.82,1.69,23.68-.88-.04-1.99-1.48-1.78-4.1.02-.21,1.36-20.36-4.79-9.53-5.49,9.66-3.74,27.97-3.05,28.86,2.27,2.9,16.15-10.89,16.9-16.78.53-4.18-3.68-41.03-11.62-34.31-.29.25-20.85,33.57-2.96,71.3-1.15-2.06-2.22-4.17-3.2-6.35h0s-.02-.07-.02-.07c-13.22-33.41,2.17-76.61,11.71-72.59,5.12,3.2,12.21,36.91,9.72,46.23Z"/></g><path class="cls-15" d="m203.7,447.55c3.57-4.05,6.75-8.51,9.47-13.32h0c4.34-7.68,7.5-16.24,9.21-25.37h0c.96-5.13,1.46-10.43,1.46-15.87,0-.97-.02-1.96-.05-2.97,0-.11,0-.22-.01-.33-12.72,12.04-29.3,19.33-47.44,19.33-40.06,0-72.54-35.53-72.54-79.37,0-5.51.51-11.51,1.49-17.78-6.15,9.86-11.43,21.02-15.58,32.41-1.72,4.86-3.23,9.76-4.5,14.6-1.36,5.15-2.46,10.23-3.27,15.16-1.11,6.7-1.69,13.1-1.69,18.95,0,3.85.25,7.63.74,11.33h0c.57,4.36,1.48,8.61,2.68,12.71h0c1.83,6.25,4.36,12.15,7.49,17.61,0,0,0,0,0,0,2.79,4.89,6.07,9.41,9.76,13.5,0,0,0,0,0,0,13.02,14.44,31.11,23.39,51.12,23.39s38.59-9.2,51.65-23.99c0,0,0,0,0,0Z"/></g><g><g id="G01L01T03_macaco"><path class="cls-25" d="m338.97,456.69c-4.24,2.34-9.18,2.85-13.98,3.31-8.33.8-16.16,2.86-24.4,3.75-1.15.12-2.29.21-3.44.28-3.86.23-7.71.56-11.57.88-.24.02-.49.04-.74.06-7.5.63-16.64,1.49-21.86-5.39-.39-.52-.75-1.98-.82-3.49-.11-2.14.38-4.36,2.22-4.1-.62-.09-1.25-.1-1.86,0,1.73-2.47,4.38-4.14,7.22-4.61-.34-.52-.78-.99-1.28-1.34,2.73-.32,5.42.18,8.1.33.2,0,.4.02.6.03,0,0,.02,0,.04,0,.78.02,1.56,0,2.33-.08.14-.02.27-.03.42-.05,3.72-.51,7.44-1.25,11.14-1.99,2.82-.56,5.64-1.12,8.43-1.57,8.39-1.37,15.99-5.61,24.23-7.27,4.43-.9,9.08-1.46,13.42-.16,3.46,1.03,6.69,3.54,8.13,6.85.36.83.61,1.71.72,2.64.6,4.91-2.8,9.59-7.04,11.93Z"/><path class="cls-12" d="m338.97,456.69c-4.24,2.34-9.18,2.85-13.98,3.31-8.33.8-16.16,2.86-24.4,3.75-1.15.12-2.29.21-3.44.28-3.86.23-7.71.56-11.57.88-.24.02-.49.04-.74.06-7.5.63-16.64,1.49-21.86-5.39-.39-.52-.75-1.98-.82-3.49,1.69,1.5,3.61,2.77,5.41,4.14-.16-.13-.31-1.81-.45-2.15,4.68,3.46,11.79,4.56,14.71-1.62-.67-.28-1.35-.23-2.07,0,.21-.71.89-1.18,1.25-1.84,1.28-2.42-3.06-6.32-4.38-8.21.17,0,.34,0,.52,0,0,0,.02,0,.04,0,.78-.02,1.56,0,2.33-.08.14-.02.27-.03.42-.05,3.7-.51,7.56-.94,11.14-1.99,2.82-.56,5.64-1.12,8.43-1.57,8.39-1.37,15.99-5.61,24.23-7.27,4.43-.9,9.08-1.46,13.42-.16,3.46,1.03,6.69,3.54,8.13,6.85.36.83.61,1.71.72,2.64.6,4.91-2.8,9.59-7.04,11.93Z"/></g><g id="G02L02T03_macaco"><path class="cls-25" d="m426.53,399.14c-.49-.43-.98-.87-1.46-1.3.34,1.23.69,2.47,1.04,3.7-.82-.4-1.5-1.07-1.93-1.87.57,3.94.87,7.92.88,11.9,0,.21,0,.42,0,.63-.13-.56-.31-1.12-.55-1.64-.34-.77-.8-1.49-1.36-2.11-.11-.13-.23-.27-.36-.39.54,2.5.45,5.13-.24,7.6-.13.44-.27.87-.42,1.29-.05-.23-.13-.46-.23-.68-.02-.05-.05-.09-.07-.14-.12-.22-.26-.42-.44-.61,0-.02-.02-.02-.03-.04-.05-.05-.09-.1-.15-.14.31.7-1.88,8.4-1.93,9.59l-.47-2.19c-.81,3.23-1.55,6.51-2.48,9.71-.26-1.32-.55-3.01.11-4.28-1.01,1.94-5.76,8.54-3.95,11.05-.49-.59-.82-1.3-.97-2.05-.79,1.75-1.48,3.52-2.06,5.34.12-.91.05-1.85-.17-2.73-2.47,3.67-4.93,7.15-7.75,10.56.13-.51.29-2.8.61-3.12-5.14,5.3-10.46,9.62-16.94,13.35-.51.3-1.03.59-1.54.87-.52.28-1.04.56-1.56.83-.52.27-1.05.54-1.58.8-.47.23-.95.46-1.43.69-.11.05-.22.1-.33.15-.41.19-.82.38-1.24.56-.14.07-.28.13-.42.19-.48.21-.96.42-1.44.61-.55.23-1.1.45-1.65.66-.56.22-1.12.42-1.68.63-1.13.41-2.26.78-3.41,1.14-.58.18-1.15.35-1.73.52-1.74.5-3.5.94-5.29,1.33-.6.13-1.2.25-1.79.37-.51.1-1.02.2-1.53.28-.16.03-.32.05-.49.09-.54.09-1.08.18-1.62.26-.61.09-1.22.18-1.84.26-2.45.31-4.95.52-7.47.63-1.26.05-2.53.08-3.81.08s-2.57-.02-3.84-.08c-.63-.03-1.27-.06-1.9-.1-.62-.04-1.24-.09-1.86-.14h-.04c-1.25-.11-2.5-.24-3.74-.41-.62-.08-1.24-.16-1.85-.26-.61-.09-1.23-.19-1.83-.3-.6-.1-1.2-.21-1.79-.33-.03,0-.07-.02-.1-.02-.58-.11-1.16-.23-1.73-.36-.6-.13-1.2-.27-1.79-.42-.6-.14-1.18-.29-1.77-.45-.6-.16-1.17-.32-1.76-.49-.58-.16-1.16-.34-1.74-.52-1.15-.36-2.29-.75-3.42-1.16-.56-.2-1.13-.42-1.68-.63-.56-.22-1.1-.44-1.64-.67-.02,0-.02,0-.04-.02-.39-.16-.78-.32-1.16-.49-.5-.22-1-.44-1.5-.67-.37-.16-.73-.33-1.09-.51-.15-.07-.31-.14-.46-.22-.42-.2-.82-.4-1.22-.61-.45-.23-.92-.47-1.37-.71-.38-.2-.76-.41-1.14-.62-.06-.03-.12-.06-.18-.1-.42-.23-.84-.47-1.25-.71-2.64-1.54-5.18-3.23-7.6-5.07-.51-.38-1-.77-1.5-1.17-.49-.39-.98-.79-1.46-1.2-.6-.5-1.19-1.01-1.77-1.53-.46-.41-1.16-.99-1.92-1.64-.53-.46-1.1-.96-1.63-1.46-.16-.15-.31-.29-.45-.43-.95-.94-1.72-1.87-1.91-2.6.43,1.61.87,3.21,1.31,4.82-2.65-3.26-4.97-6.77-6.94-10.47-1.63-3.05-4.13-5.67-5.26-8.99-.04.87-.08,1.75-.12,2.62-1.02-2.33-1.86-4.74-2.51-7.2-.07.93-.13,1.86-.2,2.8-1.16-3.06-2.03-6.23-2.59-9.45.02,1.21.03,2.43.05,3.63-.22-.42-.42-.83-.62-1.25-.14-.3-.27-.6-.39-.89-.05-.11-.09-.23-.14-.34-.13-.34-.26-.67-.38-1.01-.14-.4-.27-.81-.39-1.21-.12-.4-.23-.81-.34-1.22-.1-.42-.19-.83-.27-1.25-.16-.79-.28-1.6-.36-2.4,0,.2-.03.41-.09.6-.03.1-.06.2-.1.3-.05.1-.09.2-.15.29-.13.22-.3.42-.49.58-.05-.79-.11-1.58-.18-2.37-.06-.78-.14-1.56-.22-2.34-.08-.77-.16-1.53-.24-2.29-.04-.39-.09-.78-.13-1.16-.08-.76-.16-1.52-.23-2.27-.31-3.15-.54-6.28-.45-9.48.02-.35.03-.7.05-1.05,0-.09,0-.18.02-.27.02-.47.06-.94.1-1.43.04-.47.09-.94.16-1.42.04-.38.09-.77.16-1.16-.49.79-1.19,1.44-2.02,1.86.6-1.9,1.35-3.77,2.25-5.55-.6.34-1.18.68-1.78,1.03.7-1.98,1.46-3.94,2.29-5.87-.76.56-1.59,1.02-2.47,1.37.35-.9,2.44-8.01,4.04-13.37,1-3.36,1.82-6.03,1.9-6.03.42.12,40.65,11.71,76.92,11.71s76.43-11.51,77.1-11.71c.06.29.13.58.2.87.09.41.18.81.27,1.22.18.88.38,1.75.6,2.62,1.59,6.24,4.1,12.26,5.18,18.62-1.32-.67-2.4-1.81-2.99-3.17.65,1.49,1.22,3.5,1.62,5.47.28,1.35.48,2.69.56,3.79-.52-.16-.98-.53-1.25-1.01.19.74.38,1.47.57,2.21.05.22.12.44.17.66.37,1.44.74,2.88,1.11,4.32Z"/><path class="cls-12" d="m424.18,399.66c.57,3.94.87,7.92.88,11.9-.02.02-.02.03-.04.05-.16-.35-.32-.7-.5-1.06-.11-.24-.25-.47-.38-.7-.14-.24-.28-.47-.44-.7-.17-.25-.35-.5-.55-.72-.11-.13-.23-.27-.36-.39.54,2.5.45,5.13-.24,7.6-.33.49-.49.89-.4,1.11-.07-.16-.16-.33-.25-.5-.02-.05-.05-.09-.07-.14-.13-.22-.27-.42-.44-.61,0-.02-.02-.02-.03-.04-.05-.05-.09-.1-.15-.14.31.7-1.88,8.4-1.93,9.59l-.47-2.19c-.81,3.23-1.55,6.51-2.48,9.71-.26-1.32-.55-3.01.11-4.28-1.01,1.94-5.76,8.54-3.95,11.05-.49-.59-.82-1.3-.97-2.05-.79,1.75-1.48,3.52-2.06,5.34.12-.91.05-1.85-.17-2.73-2.47,3.67-4.93,7.15-7.75,10.56.13-.51.29-2.8.61-3.12-5.14,5.3-10.46,9.62-16.94,13.35-.51.3-1.03.59-1.54.87-.52.28-1.04.56-1.56.83-.52.27-1.05.54-1.58.8-.47.23-.95.46-1.43.69-.11.05-.22.1-.33.15-.41.19-.82.38-1.24.56-.14.07-.28.13-.42.19-.48.21-.96.42-1.44.61-.55.23-1.1.45-1.65.66-.56.22-1.12.42-1.68.63-1.13.41-2.26.78-3.41,1.14-.58.18-1.15.35-1.73.52-1.74.5-3.5.94-5.29,1.33-.6.13-1.2.25-1.79.37-.51.1-1.02.2-1.53.28-.16.03-.32.05-.49.09-.54.09-1.08.18-1.62.26-.61.09-1.22.18-1.84.26-2.45.31-4.95.52-7.47.63-1.26.05-2.53.08-3.81.08s-2.57-.02-3.84-.08c-.63-.03-1.27-.06-1.9-.1-.62-.04-1.24-.09-1.86-.14h-.04c-1.25-.11-2.5-.24-3.74-.41-.62-.08-1.24-.16-1.85-.26-.61-.09-1.23-.19-1.83-.3-.6-.1-1.2-.21-1.79-.33-.03,0-.07-.02-.1-.02-.58-.11-1.16-.23-1.73-.36-.6-.13-1.2-.27-1.79-.42-.6-.14-1.18-.29-1.77-.45-.6-.16-1.17-.32-1.76-.49-.58-.16-1.16-.34-1.74-.52-1.15-.36-2.29-.75-3.42-1.16-.56-.2-1.13-.42-1.68-.63-.56-.22-1.1-.44-1.64-.67-.02,0-.02,0-.04-.02-.39-.16-.78-.32-1.16-.49-.5-.22-1-.44-1.5-.67-.37-.16-.73-.33-1.09-.51-.15-.07-.31-.14-.46-.22-.42-.2-.82-.4-1.22-.61-.45-.23-.92-.47-1.37-.71-.38-.2-.76-.41-1.14-.62-.06-.03-.12-.06-.18-.1-.42-.23-.84-.47-1.25-.71-2.64-1.54-5.18-3.23-7.6-5.07-.51-.38-1-.77-1.5-1.17-.49-.39-.98-.79-1.46-1.2-.6-.5-1.19-1.01-1.77-1.53-.46-.41-1.16-.99-1.92-1.64-.53-.46-1.1-.96-1.63-1.46-.16-.15-.31-.29-.45-.43-.95-.94-1.72-1.87-1.91-2.6.43,1.61.87,3.21,1.31,4.82-2.65-3.26-4.97-6.77-6.94-10.47-1.63-3.05-4.13-5.67-5.26-8.99-.04.87-.08,1.75-.12,2.62-1.02-2.33-1.86-4.74-2.51-7.2-.07.93-.13,1.86-.2,2.8-1.16-3.06-2.03-6.23-2.59-9.45.02,1.21.03,2.43.05,3.63-.22-.42-.42-.83-.62-1.25-.14-.3-.27-.6-.39-.89-.05-.11-.09-.23-.14-.34-.13-.34-.26-.67-.38-1.01-.14-.4-.27-.81-.39-1.21-.12-.4-.23-.81-.34-1.22-.1-.42-.19-.83-.27-1.25-.16-.79-.27-1.59-.36-2.4v-.06s0-.04,0-.05v.08c0,.22-.03.43-.09.64-.03.1-.06.2-.1.3-.05.1-.09.2-.15.29-.13.22-.3.42-.49.58-.05-.79-.11-1.58-.18-2.37-.06-.78-.14-1.56-.22-2.34-.08-.77-.16-1.53-.24-2.29-.04-.39-.09-.78-.13-1.16-.08-.76-.16-1.52-.23-2.27-.31-3.15-.54-6.28-.45-9.48.02-.35.03-.7.05-1.05,0-.09,0-.18.02-.27.02-.47.06-.94.1-1.43.02-.23.05-.45.08-.68-.77,8.38,3.02,17.73,6.6,25.09.27-1.21.36-2.45.27-3.69.74,3.63,2.8,9.59,5.19,12.47.06-.52.27-1.48.05-1.97,1.25,2.9,2.6,5.75,4.05,8.55.34-.88.48-1.86.37-2.8,1.07,3.34,5.15,5.22,5.99,8.3-.44-1.6-.88-3.2-1.31-4.81.49,1.79,4.44,4.82,5.91,6.12.58.52,1.17,1.03,1.77,1.54.49.41.97.81,1.46,1.2.5.4.99.78,1.5,1.17,2.43,1.84,4.97,3.53,7.6,5.07.42.24.83.49,1.25.71.06.04.12.07.18.1.38.21.75.42,1.14.62.45.24.92.49,1.37.71.4.21.81.42,1.22.61.16.08.31.15.46.22.36.18.72.34,1.09.51.49.23.99.45,1.5.67.38.17.77.34,1.16.49.02,0,.02,0,.04.02.54.23,1.09.45,1.64.67.56.22,1.12.43,1.68.63,6.58,2.38,12.14,6.24,19.46,6.37-2.31-.95-4.39-2.45-6-4.36,2.85,1.19,5.69,2.38,8.54,3.57-.25-.54-.17-1.22.21-1.67,1.88,2.02,5.26,2.41,7.55.87.04.57.28,1.12.66,1.55.59-.77,1.38-1.39,2.26-1.79.34.54.69,1.08,1.03,1.61,1.05-.51,2.1-1.01,3.15-1.52-.11.51.05,1.07.4,1.45.66-.81,1.55-1.43,2.53-1.76.24.71.48,1.42.73,2.13,2.97-1.77,5.94-3.53,8.9-5.3-.15.9-.29,1.8-.44,2.69,3.72-1.34,7.18-2.97,10.82-4.4.56-.21,1.1-.43,1.65-.66.49-.2.96-.4,1.44-.61.14-.06.28-.12.42-.19.42-.18.83-.37,1.24-.56.11-.05.22-.1.33-.15.48-.23.96-.45,1.43-.69.53-.26,1.06-.52,1.58-.8.52-.27,1.04-.55,1.56-.83.51-.28,1.03-.57,1.54-.87,3.3-1.93,6.46-4.06,9.44-6.47,2.29-1.84,6.36-4.3,7.73-6.92-.11,1.33-.38,2.65-.78,3.92,2.27-2.74,4.29-5.69,6.03-8.8-.25,1.3-.28,2.65-.09,3.96,0-2.9,3.35-6.45,4.17-9.3-.02,1.31-.05,2.61-.09,3.92,1.62-3.27,2.85-6.74,3.66-10.31.14.88.28,1.77.43,2.65-.3-1.77,1.26-5.92,1.95-7.52.08,1.18.16,2.36.24,3.53-.13-1.88,1.31-3.88,1.87-5.62.9-2.75,1.44-5.69,1.92-8.54.5,1.16.99,2.32,1.49,3.48-.05-.52.09-3.72.31-6.73.15-2.02-.02-4.07,0-6.12,0,.04.96.67,1.93,1.37.37,1.44.74,2.88,1.11,4.32-.49-.43-.98-.87-1.46-1.3.34,1.23.69,2.47,1.04,3.7-.82-.4-1.5-1.07-1.93-1.87Z"/></g><g id="G08L03T03_macaco"><path class="cls-17" d="m290.58,333.56c-.3,2.06-.91,4.11-1.76,6.24-.02.03-.02.07-.04.1-.06.16-.13.33-.2.49-.05.14-.11.27-.16.41-.02.05-.04.09-.06.13h0c-1.9,3.78-5.36,7.12-9.37,8.53-2.64.94-5.51,1.03-8.3-.14-.48-.2-.96-.45-1.43-.72-6.13-4.09-7.4-10.74-5.87-17.58,1.17-5.55,3.81-10.48,6.01-15.63,2.02-4.72,7.41-2.87,10.82-.93,4.5,2.55,8.41,6.06,9.84,11.21.78,2.79.89,5.36.52,7.89Z"/><path class="cls-13" d="m288.39,340.81s-.02.09-.03.13h0c-1.9,3.78-5.36,7.12-9.37,8.53-1.41.05-2.92-.2-4.49-.75-5.83-2.08-5.98-9.4-1.72-12.92,1.69-1.4,3.72-2.53,4.84-4.42,1.48-2.49,1.46-8.37-1.86-9.56-.58-.2-3.31-.38-3.65.11,1.69-2.48,4.82-3.28,7.43-1.86,2.81,1.53,5.19,4.52,6.74,7.26,2.27,4.02,3.18,8.81,2.1,13.49Z"/></g><g id="G09L04T03_macaco"><path class="cls-17" d="m395.98,333.56c.3,2.06.91,4.11,1.76,6.24.02.03.02.07.04.1.06.16.13.33.2.49.05.14.11.27.16.41.02.05.04.09.06.13h0c1.9,3.78,5.36,7.12,9.37,8.53,2.64.94,5.51,1.03,8.3-.14.48-.2.96-.45,1.43-.72,6.13-4.09,7.4-10.74,5.87-17.58-1.17-5.55-3.81-10.48-6.01-15.63-2.02-4.72-7.41-2.87-10.82-.93-4.5,2.55-8.41,6.06-9.84,11.21-.78,2.79-.89,5.36-.52,7.89Z"/><path class="cls-13" d="m398.18,340.81s.02.09.03.13h0c1.9,3.78,5.36,7.12,9.37,8.53,1.41.05,2.92-.2,4.49-.75,5.83-2.08,5.98-9.4,1.72-12.92-1.69-1.4-3.72-2.53-4.84-4.42-1.48-2.49-1.46-8.37,1.86-9.56.58-.2,3.31-.38,3.65.11-1.69-2.48-4.82-3.28-7.43-1.86-2.81,1.53-5.19,4.52-6.74,7.26-2.27,4.02-3.18,8.81-2.1,13.49Z"/></g><g id="G3L05T03_macaco"><path class="cls-25" d="m419.34,364.21c.09.86.24,1.74.23,2.61-.96-.78-2-1.83-3.32-1.95-.44-.04-3.39.53-3.38,1,.02.66.27,1.3.7,1.79-1.57-.14-3.15-.28-4.73-.42.28.69.41,1.45.36,2.19-2.69-.94-5.79-.58-8.18.96.17-.64-.11-1.38-.67-1.74-.74,1.14-1.84,2.04-3.1,2.54-.15-.85-.93-1.54-1.79-1.57.02.61-.21,1.23-.62,1.69-1.24-.57-2.69-.67-3.99-.26.18.48.23,1,.16,1.5-1.07-.12-2.12-.23-3.18-.36-.15.77-.81,1.4-1.57,1.52-.09-.51-.49-.96-.99-1.1-1.25,1.23-2.76,2.19-4.42,2.78.22-.62-.17-1.38-.8-1.57-.71.75-1.54,1.41-2.43,1.95-1.79-1.03-3.91-1.5-5.97-1.33.12.54.23,1.07.34,1.61-1.93-.27-3.87-.54-5.81-.81-.97-.14-2.42.22-2.17,1.17-1.35-1.22-3.61-.92-4.71.46.79-1.41-.56-2.15-1.8-1.99-1.74.23-1.93,1.99-2.87,3.06-.44-.34-2.16-1.55-2.24-2.11.07.51.15,1.01.23,1.51-2-.34-3.95-.94-5.79-1.78.13.63,0,1.31-.35,1.85-1.03-.09-1.85-1.19-1.64-2.21-1.38.31-3.42,1.91-4.66,1.95-.97.04-1.86-1.03-2.84-1.43-1.02-.42-2.41-.7-3.5-.43-.52.13-2.21,1.63-2.22,1.63-.71-.05-1.31-.52-1.87-.95-.57-.43-1.21-.85-1.93-.79-.7.06-1.34.9-.95,1.49-.86-.16-1.45-1.16-1.19-1.99-.81.09-1.62.17-2.44.26.05.42.12.83.17,1.25-1.82.05-2.9-1.42-4.57-1.61-.74-.09-3.59.45-3.41,1.61-.12-.47-.14-1.28-.46-1.6-.85-.85-2.51.06-3.23.78-.23-.64-.73-1.68-1.22-2.18-.27-.27-2.47-1.13-2.45-.95.06.39.13.79.19,1.19-1.87-.67-3.75-1.35-5.62-2.02.24.62.55,1.08.63,1.7-1.59-.6-3.12-1.49-4.66-2.25.06.71.13,1.43.2,2.14-1.66-.81-3.37-1.54-5.11-2.19-.56-.2-1.48-.12-1.37.46-1.47-.43-2.94-.85-4.42-1.28-.85-.25-1.75-.12-2.58-.37.35.49.59,1.06.66,1.66-1.47-.65-2.91-1.37-4.32-2.16.35.41.54.94.51,1.46,0-.74-2.93-2.4-3.56-2.75-1.53-.85-3.22-1.5-4.92-1.95.34.52.52,1.13.77,1.69-1.88-.71-3.47-1.82-5.14-2.87-.2.63-.33,1.43-.45,2.05.09-.49-1.97-2.75-2.39-3.05-.7.6-2.29,1.82-2.62,2.7,1.53-3.99,2.75-8.43,4.96-12.15.22-.38.45-.76.7-1.13-.66.49-1.35.92-2.07,1.32h0c-.23.13-.47.24-.7.36.08-.17.16-.34.25-.51.85-1.79,1.73-3.58,2.62-5.36.97-1.93,1.95-3.84,2.95-5.75-.79.66-1.58,1.32-2.37,1.97.96-1.34,1.84-2.76,2.69-4.23.2-.34.4-.69.59-1.04.46-.81.91-1.64,1.35-2.47,1.15-2.15,2.26-4.34,3.44-6.43.21-.39.43-.78.66-1.17-.88,0-1.75.41-2.35,1.07,2.69-4.97,5.95-9.63,9.72-13.85-1.13.13-2.19.69-2.95,1.53,2.55-3.72,5.11-7.44,7.68-11.17-.57.16-1.18.19-1.77.06,2.7-2.93,5.79-5.5,9.16-7.62-.8-.07-1.62.12-2.32.53.97-1.61,2.22-3.03,3.68-4.19.42-.34.85-.66,1.3-.95.5-.32,1.02-.62,1.55-.88-.48-.45-1.12-.72-1.78-.76.31-.38.65-.73,1-1.05.09-.09.18-.16.27-.23.09-.09.2-.17.3-.25,1.28-1.09,2.78-1.9,4.38-2.37-.11-.3-.23-.6-.34-.89.52-.23,1.05-.46,1.57-.69-.52.02-1.04-.18-1.42-.54,1.16-.27,2.38-.62,3.56-1.08.84-.32,1.65-.7,2.4-1.14.13-.06.26-.14.38-.22.07-.04.13-.08.2-.12.21-.13.42-.26.6-.41.11-.09.22-.17.32-.27l.16-.16c.11-.1.2-.22.28-.33.33-.42.51-.88.53-1.42,0-.06.02-.13.02-.2,0-.09,0-.16-.02-.25,0-.07-.02-.15-.02-.23,0-.07-.02-.15-.04-.23-.02-.08-.03-.16-.05-.23.87.05,1.75.25,2.62.42.44.08.92.16,1.32-.05.84-.45.64-1.68.33-2.58,1.25.31,2.51.55,3.79.7,0-.2,0-.42.02-.62.03-.67.12-1.32.26-1.97.61.2,1.19.48,1.74.81-.05-.7.08-1.42.38-2.05.46.26.93.52,1.4.78.34-.52.67-1.03,1.01-1.55.48.21.96.42,1.44.64.53-1.03,1.19-2,1.96-2.86-1.71,1.92,2.7,2.98,3.59,2.88.03-.74.16-1.47.39-2.18.6.75,1.39,1.36,2.26,1.78.37-.76.73-1.52,1.1-2.27.5,1.1,1.28,2.07,2.25,2.79.23-.59.46-1.17.7-1.76-.33.83,2.75,2.24,3.48,1.82.66-.38.97-1.23.85-1.98.95.83,1.96,1.58,3.02,2.26.23.15,2.83-2.64,3.34-2.85-.13.54-.2,1.1-.19,1.66,0,.11,0,.23.08.32.21.29.67-.02.82-.34.16-.33.39-.75.74-.67-.13.89-.05,1.87.52,2.58,1.26,1.54,3.39-.16,4.69-.78.04.45.09.9.13,1.35.46-.16.8-.63.81-1.12-.05,1.9,1.83,3.1,3.34,3.85.2.09.38.19.56.27.09-.99.81-1.9,1.76-2.2.04.36.12.71.23,1.05.2.64.53,1.25.96,1.76.26-.26.52-.52.78-.78.2-.2.39-.4.59-.6,0,.11.02.23.02.34.04.38.11.77.22,1.14.05.2.12.41.19.61,0,0,0,0,0,0,.1.28.21.56.35.82.14.26.29.52.45.76.07.1.14.2.22.28.35.5.79.96,1.28,1.35.38-.34.76-.67,1.14-1,.23-.2.46-.41.69-.61.05-.05.11-.1.16-.15.06.46.21.88.42,1.28,0,0,0,.02.02.03.66,1.17,1.9,2.05,3.13,2.65.21.1.42.2.64.29,1.23.54,2.51,1,3.59,1.76.23.15.46.32.67.51-.45,0-.9.03-1.35.09-.56.06-1.1.18-1.64.33.23.18.47.35.71.52.45.34.91.67,1.37.99.48.34.96.68,1.45,1.02.31.22.62.44.93.66,1.74,1.22,3.46,2.47,5.07,3.88.09.07.16.15.25.22-1.08-.41-2.28-.49-3.41-.25,3.38,1.35,6.45,3.45,8.94,6.1-.75.09-1.5.17-2.26.26,2.64,1.89,5.09,4.16,6.87,6.91-.82-.29-1.64-.58-2.47-.87.06.02.13.05.2.08,2.02.87,4.43,4.37,5.71,5.97-.47.02-.94.04-1.41.05,1.93,2.82,4.07,5.49,6.4,7.99-.39-.31-.92-.45-1.41-.38,1.61,2.3,3.23,4.61,4.86,6.91-.44-.09-.88-.16-1.32-.24-.27-.05-.53-.1-.81-.15-.43-.08,1.64,2.37,1.71,2.46.78,1.03,1.54,2.13,2.26,3.27,1.05,1.66,2.02,3.4,2.87,5.1-.57-.26-1.14-.52-1.72-.78.07.12.15.24.22.36,1.3,2.15,2.59,4.29,3.89,6.44-.5.19-1.09.13-1.55-.15.67,1.13,1.32,2.26,1.99,3.39.34.58.68,1.16,1.02,1.74-.38-.2-.78-.38-1.16-.57,1.35.88,1.64,4.72,2.81,5.95-.76-.28-1.51-.61-2.26-.92,1.86,3.41,3.53,6.92,4.99,10.53-1.57-.51-2.58-1.49-3.64-2.6Z"/><path class="cls-12" d="m410.04,330.39c-.44-.09-.88-.16-1.32-.24-6.31-6.41-13.18-12.01-20.36-17.4,1.35-.56,2.87-.85,4.3-1.23-3.3-2.98-7.45-4.99-11.83-5.75.86-.67,1.92-1.07,3-1.14-2.4-.52-4.79-1.05-7.19-1.58-6.76-1.48-14.41-1.15-19.99,3.62-2.19,1.88-3.41,4.34-6.15,5.74-.12.06-.26.12-.39.07-.16-.05-.24-.21-.32-.36-.24-.5-.49-1.01-.74-1.52-.45.75-.98,1.46-1.58,2.1-.17.17-.36.35-.6.42-.42.13-.88-.12-1.17-.45-.31-.32-.52-.73-.85-1.03-.11-.1-.24-.2-.39-.19-.14,0-.27.1-.38.2-.58.49-1.15.98-1.73,1.46-.4-.71-.71-1.46-.92-2.25-.52.48-1.03.95-1.55,1.43-.13.12-.27.24-.44.23-.17,0-.31-.13-.43-.27-.15-.17-1.23-1.44-1.23-1.71-.13.67-.27,1.35-.42,2.01-1.01-.63-1.98-1.31-2.98-1.95-4.47-2.89-7.25-5.98-12.67-7.36-4.75-1.21-10.19-2.09-14.23.69,1.58.23,3.05,1.1,4,2.38-2.61-2.62-15.7,4.82-17.67,6.19,1.69.15,3.39.29,5.08.44-6.35,4.02-11.76,9.34-17.12,14.63-1.16,1.14-2.32,2.29-3.48,3.43.21-.39.43-.78.66-1.17-.88,0-1.75.41-2.35,1.07,2.69-4.97,5.95-9.63,9.72-13.85-1.13.13-2.19.69-2.95,1.53,2.55-3.72,5.11-7.44,7.68-11.17-.57.16-1.18.19-1.77.06,2.7-2.93,5.79-5.5,9.16-7.62-.8-.07-1.62.12-2.32.53.56-.92,1.2-1.77,1.93-2.55.18-.2.37-.4.56-.58.38-.38.78-.73,1.19-1.06.42-.34.85-.66,1.3-.95.5-.32,1.02-.62,1.55-.88-.48-.45-1.12-.72-1.78-.76.31-.38.65-.73,1-1.05.05-.05.09-.09.15-.13,1.36-1.27,3.02-2.19,4.79-2.72-.11-.3-.23-.6-.34-.89.38-.17.78-.34,1.16-.51.14-.06.27-.12.42-.18-.11,0-.21,0-.31-.02-.42-.05-.81-.23-1.1-.52,1.16-.27,2.38-.62,3.56-1.08.98-.38,1.93-.82,2.79-1.35.07-.04.13-.08.2-.12.21-.13.42-.26.6-.41.11-.09.22-.17.32-.27l.16-.16c.11-.1.2-.22.28-.33.3-.41.49-.88.53-1.42,0-.14,0-.29,0-.45,0-.07-.02-.15-.02-.23,0-.07-.02-.15-.04-.23-.02-.08-.03-.16-.05-.23.87.05,1.75.25,2.62.42.44.08.92.16,1.32-.05.84-.45.64-1.68.33-2.58,1.25.31,2.51.55,3.79.7,0-.87.09-1.74.27-2.59.61.2,1.19.48,1.74.81-.05-.7.08-1.42.38-2.05.46.26.93.52,1.4.78.34-.52.67-1.03,1.01-1.55.48.21.96.42,1.44.64.53-1.03,1.19-2,1.96-2.86-1.71,1.92,2.7,2.98,3.59,2.88.03-.74.16-1.47.39-2.18.6.75,1.39,1.36,2.26,1.78.37-.76.73-1.52,1.1-2.27.5,1.1,1.28,2.07,2.25,2.79.23-.59.46-1.17.7-1.76-.33.83,2.75,2.24,3.48,1.82.66-.38.97-1.23.85-1.98.95.83,1.96,1.58,3.02,2.26.23.15,2.83-2.64,3.34-2.85-.13.54-.2,1.1-.19,1.66,0,.11,0,.23.08.32.21.29.67-.02.82-.34.16-.33.39-.75.74-.67-.13.89-.05,1.87.52,2.58,1.26,1.54,3.39-.16,4.69-.78.04.45.09.9.13,1.35.46-.16.8-.63.81-1.12-.05,2.15,2.34,3.39,3.89,4.12.09-.99.81-1.9,1.76-2.2-.2.06-.04.52.23,1.05.34.7.88,1.5.99,1.6.22-.26.47-.46.74-.62.19-.11.39-.2.61-.26.2,1.93,1.2,3.77,2.73,4.97.67-.59,1.32-1.17,1.99-1.76.23,1.8,1.83,3.11,3.46,3.92.04.02.07.04.11.05.21.1.42.2.64.29,1.46.64,3,1.17,4.2,2.22.02.02.05.03.07.05-.05,0-.1,0-.16,0-.96.02-1.91.16-2.84.42,1.15.87,2.34,1.7,3.53,2.53.31.22.62.44.93.66,1.74,1.22,3.46,2.47,5.07,3.88.09.07.16.15.25.22-1.08-.41-2.28-.49-3.41-.25,3.38,1.35,6.45,3.45,8.94,6.1-.75.09-1.5.17-2.26.26,2.64,1.89,5.09,4.16,6.87,6.91-.82-.29-1.64-.58-2.47-.87.06.02.13.05.2.08,2.02.87,4.43,4.37,5.71,5.97-.47.02-.94.04-1.41.05,1.93,2.82,4.07,5.49,6.4,7.99-.39-.31-.92-.45-1.41-.38,1.61,2.3,3.23,4.61,4.86,6.91Z"/><path class="cls-12" d="m298.62,297.27c.09,0,.2.02.29.02-.29.18-.57.37-.85.56.18-.2.37-.4.56-.58Z"/><path class="cls-12" d="m311.49,290.67c-1.35-1.35-5.5-.02-9.46,1.77,1.36-1.27,3.02-2.19,4.79-2.72-.11-.3-.23-.6-.34-.89.38-.17.78-.34,1.16-.51,1.52.26,2.93,1.11,3.85,2.35Z"/><path class="cls-12" d="m376.22,287.3c-6.66-1.38-14.11-.96-19.56,3.7-2.19,1.88-3.41,4.34-6.15,5.74-.12.06-.26.12-.39.07-.16-.05-.24-.21-.32-.36-.24-.5-.49-1.01-.74-1.52-.45.75-.98,1.46-1.58,2.1-.17.17-.36.35-.6.42-.42.13-.88-.12-1.17-.45-.31-.32-.52-.73-.85-1.03-.11-.1-.24-.2-.39-.19-.14,0-.27.1-.38.2-.58.49-1.15.98-1.73,1.46-.4-.71-.71-1.46-.92-2.25-.52.48-1.03.95-1.55,1.43-.13.12-.27.24-.44.23-.17,0-.31-.13-.43-.27-.15-.17-1.23-1.44-1.23-1.71-.13.67-.27,1.35-.42,2.01-1.01-.63-1.98-1.31-2.98-1.95-4.47-2.89-7.25-5.98-12.67-7.36-4.65-1.19-9.96-2.05-13.97.52-.42-.05-.81-.23-1.1-.52,1.16-.27,2.38-.62,3.56-1.08.98-.38,1.93-.82,2.79-1.35.07-.04.13-.08.2-.12.21-.13.42-.26.6-.41.11-.09.22-.17.32-.27l.16-.16c.11-.1.2-.22.28-.33.3-.41.49-.88.53-1.42,0-.14,0-.29,0-.45,0-.07-.02-.15-.02-.23,0-.07-.02-.15-.04-.23-.02-.08-.03-.16-.05-.23.87.05,1.75.25,2.62.42.44.08.92.16,1.32-.05.84-.45.64-1.68.33-2.58,1.25.31,2.51.55,3.79.7,0-.87.09-1.74.27-2.59.61.2,1.19.48,1.74.81-.05-.7.08-1.42.38-2.05.46.26.93.52,1.4.78.34-.52.67-1.03,1.01-1.55.48.21.96.42,1.44.64.53-1.03,1.19-2,1.96-2.86-1.71,1.92,2.7,2.98,3.59,2.88.03-.74.16-1.47.39-2.18.6.75,1.39,1.36,2.26,1.78.37-.76.73-1.52,1.1-2.27.5,1.1,1.28,2.07,2.25,2.79.23-.59.46-1.17.7-1.76-.33.83,2.75,2.24,3.48,1.82.66-.38.97-1.23.85-1.98.95.83,1.96,1.58,3.02,2.26.23.15,2.83-2.64,3.34-2.85-.13.54-.2,1.1-.19,1.66,0,.11,0,.23.08.32.21.29.67-.02.82-.34.16-.33.39-.75.74-.67-.13.89-.05,1.87.52,2.58,1.26,1.54,3.39-.16,4.69-.78.04.45.09.9.13,1.35.46-.16.8-.63.81-1.12-.05,2.15,2.34,3.39,3.89,4.12.09-.99.81-1.9,1.76-2.2-.2.06-.04.52.23,1.05.34.7.88,1.5.99,1.6.22-.26.47-.46.74-.62.19-.11.39-.2.61-.26.2,1.93,1.2,3.77,2.73,4.97.67-.59,1.32-1.17,1.99-1.76.23,1.8,1.83,3.11,3.46,3.92Z"/><path class="cls-12" d="m381.24,289.92c-.05,0-.1,0-.16,0,.03-.02.06-.04.09-.06.02.02.05.03.07.05Z"/><path class="cls-28" d="m359.97,315.89c-2.78-.14-5.45.28-7.9,1.15-5.55,1.97-11.68,1.97-17.23,0-2.45-.87-5.12-1.28-7.9-1.15-12.1.61-20.37,12.66-25.06,22.58,1.08-1.1,2.16-2.2,3.24-3.3-.57,2.13-.6,4.26-.55,6.45.35-.83.86-1.5,1.34-2.25.2-.31,1.25-1.41,1.24-1.65.22,5.21,2.78,9.62,6.42,13.21,3.82,3.78,9.05,5.93,14.42,5.93,2.39,0,4.69-.41,6.82-1.16,5.57-1.97,11.71-1.97,17.28,0,2.13.75,4.43,1.16,6.82,1.16,11.93,0,18.34-8.87,20.62-19.44.88.39,1.77.78,2.65,1.17-.17-1.13-.62-2.21-1.29-3.13,1.27.49,2.47,1.17,3.55,2-4.94-9.52-12.71-21-24.48-21.59Z"/><circle class="cls-17" cx="328.1" cy="336.37" r="16.94"/><circle class="cls-17" cx="358.83" cy="336.37" r="16.94"/></g><g id="G04L06T03_macaco"><circle class="cls-3" cx="328.34" cy="336.37" r="7.48"/><circle class="cls-20" cx="328.34" cy="336.37" r="6.11"/><circle class="cls-29" cx="328.34" cy="336.37" r="3.55"/><circle class="cls-3" cx="326.65" cy="334.04" r="1.63"/></g><g id="G05L07T03_macaco"><circle class="cls-3" cx="358.58" cy="336.37" r="7.48"/><circle class="cls-20" cx="358.58" cy="336.37" r="6.11"/><circle class="cls-29" cx="358.58" cy="336.37" r="3.55"/><circle class="cls-3" cx="356.71" cy="334.04" r="1.63"/></g><g id="G06L08T03_orangutan"><path class="cls-17" d="m368.53,376.17c0,2.12-.33,4.17-.95,6.12-.02.05-.02.08-.04.13,0,0,0,.02,0,.03-.07.19-.13.37-.2.56-.04.11-.07.22-.12.33-.05.14-.1.27-.16.41-.13.33-.28.65-.43.97-.16.36-.34.72-.52,1.06h0c-.19.36-.39.71-.59,1.05-.02.02-.02.03-.03.05-.19.3-.38.59-.57.88-.05.07-.11.15-.16.23-.21.3-.43.59-.65.88-.25.32-.5.63-.76.93-.25.29-.52.58-.79.86l-.02.02s-.07.08-.11.12c-.26.27-.53.54-.81.8-.02.02-.04.04-.07.06-.2.18-.4.36-.61.54-.2.18-.41.35-.62.52-.3.25-.6.48-.91.71-.62.46-1.27.89-1.93,1.28-.34.2-.67.4-1.02.58-.31.16-.62.33-.93.48-.1.05-.2.1-.29.14-.18.09-.36.17-.54.25-.3.14-.59.26-.89.38-.07.04-.14.06-.21.08-.39.15-.77.3-1.16.43-.4.14-.8.26-1.21.39-.02,0-.03,0-.05,0-.83.25-1.67.45-2.54.6-.75.15-1.49.25-2.25.33-.98.1-1.95.15-2.93.15-.34,0-.67,0-1.01-.02-.21,0-.4-.02-.6-.04-.24,0-.47-.02-.71-.05-.48-.04-.98-.08-1.46-.15-.14-.02-.29-.04-.43-.06-.29-.04-.57-.08-.85-.14-.34-.06-.69-.14-1.03-.21-.85-.19-1.71-.42-2.54-.69-.38-.13-.75-.26-1.13-.4-.37-.15-.74-.29-1.11-.45-.55-.24-1.08-.48-1.61-.75-.52-.27-1.04-.55-1.54-.86-.33-.2-.66-.41-.98-.62-6.11-4.08-10.07-10.59-10.07-17.92,0-1.11.09-2.27.27-3.46,1.77-11.98,12.2-29.53,24.8-29.53s22.97,17.47,24.79,29.43c.18,1.22.28,2.41.28,3.56Z"/><path class="cls-28" d="m355.4,360.83c0,1.21-.16,2.39-.45,3.5,0,.03-.01.05-.02.07,0,0,0,.01,0,.02-.03.11-.06.21-.09.32-.02.06-.04.12-.06.19-.02.08-.05.16-.07.23-.06.19-.13.37-.2.56-.08.21-.16.41-.25.61h0c-.09.21-.18.41-.28.6,0,.01-.01.02-.02.03-.09.17-.18.34-.27.5-.02.04-.05.08-.07.13-.1.17-.2.34-.31.5-.12.18-.24.36-.36.53-.12.17-.25.33-.37.49h0s-.04.06-.05.08c-.13.16-.25.31-.39.46,0,.01-.02.02-.03.04-.09.1-.19.21-.29.31-.09.1-.2.2-.29.3-.14.14-.29.28-.43.41-.3.27-.61.51-.92.73-.16.11-.32.23-.48.33-.15.09-.3.19-.45.28-.05.03-.09.06-.14.08-.09.05-.17.1-.26.14-.14.08-.28.15-.43.22-.03.02-.07.04-.1.05-.18.09-.37.17-.55.24-.19.08-.38.15-.58.22,0,0-.02,0-.02,0-.39.14-.8.26-1.21.34-.36.08-.71.15-1.07.19-.46.06-.93.09-1.39.09-.16,0-.32,0-.48-.01-.1,0-.19-.01-.29-.02-.11,0-.22-.01-.34-.03-.23-.02-.46-.05-.7-.09-.07-.01-.14-.02-.2-.04-.14-.02-.27-.05-.41-.08-.16-.04-.33-.08-.49-.12-.41-.11-.81-.24-1.21-.4-.18-.07-.36-.15-.54-.23-.18-.08-.35-.17-.53-.26-.26-.14-.52-.28-.77-.43-.25-.16-.5-.32-.73-.49-.16-.11-.31-.23-.47-.35-2.91-2.34-4.8-6.06-4.8-10.25,0-.63.04-1.3.13-1.98.84-6.85,5.81-14.43,11.81-14.43s10.94,7.53,11.81,14.37c.09.7.13,1.38.13,2.04Z"/><path class="cls-13" d="m367.58,377.78s-.02.08-.04.13c0,0,0,.02,0,.03-.07.19-.13.37-.2.56-.04.11-.07.22-.12.33-.05.14-.1.27-.16.41-.13.33-.28.65-.43.97-.16.36-.34.72-.52,1.06h0c-.19.36-.39.71-.59,1.05-.02.02-.02.03-.03.05-.19.3-.38.59-.57.88-.05.07-.11.15-.16.23-.21.3-.43.59-.65.88-.25.32-.5.63-.76.93-.25.29-.52.58-.79.86l-.02.02s-.07.08-.11.12c-.26.27-.53.54-.81.8-.02.02-.04.04-.07.06-.2.18-.4.36-.61.54-.2.18-.41.35-.62.52-.3.25-.6.48-.91.71-.62.46-1.27.89-1.93,1.28-.34.2-.67.4-1.02.58-.31.16-.62.33-.93.48-.1.05-.2.1-.29.14-.18.09-.36.17-.54.25-.3.14-.59.26-.89.38-.07.04-.14.06-.21.08-.39.15-.77.3-1.16.43-.4.14-.8.26-1.21.39-.02,0-.03,0-.05,0-.83.25-1.67.45-2.54.6-.75.15-1.49.25-2.25.33-.98.1-1.95.15-2.93.15-.34,0-.67,0-1.01-.02-.21,0-.4-.02-.6-.04-.24,0-.47-.02-.71-.05-.48-.04-.98-.08-1.46-.15-.14-.02-.29-.04-.43-.06-.29-.04-.57-.08-.85-.14-.34-.06-.69-.14-1.03-.21-.85-.19-1.71-.42-2.54-.69-.38-.13-.75-.26-1.13-.4-.37-.15-.74-.29-1.11-.45-.55-.24-1.08-.48-1.61-.75-.52-.27-1.04-.55-1.54-.86-.33-.2-.66-.41-.98-.62-5.48-3.66-9.22-9.28-9.94-15.68-.08.77-.13,1.54-.13,2.28,0,7.33,3.96,13.83,10.07,17.92.33.21.66.42.98.62.5.31,1.02.59,1.54.86.52.27,1.06.52,1.61.75.37.15.74.3,1.11.45.38.14.75.27,1.13.4.84.27,1.69.5,2.54.69.34.07.69.15,1.03.21.28.05.57.1.85.14.14.03.29.05.43.06.48.07.98.12,1.46.15.24.03.47.05.71.05.2.02.39.03.6.04.34,0,.67.02,1.01.02.98,0,1.95-.05,2.93-.15.75-.07,1.5-.18,2.25-.33.87-.15,1.71-.35,2.54-.6.02,0,.03,0,.05,0,.41-.13.81-.25,1.21-.39.39-.13.77-.27,1.16-.43.07-.02.14-.05.21-.08.3-.12.6-.25.89-.38.18-.07.36-.15.54-.25.09-.04.19-.08.29-.14.31-.15.62-.32.93-.48.34-.18.68-.38,1.02-.58.66-.39,1.3-.82,1.93-1.28.31-.23.62-.46.91-.71.21-.16.42-.34.62-.52.21-.17.41-.35.61-.54.02-.03.05-.05.07-.06.28-.26.55-.53.81-.8.04-.04.07-.08.11-.12l.02-.02c.27-.28.53-.57.79-.86.26-.3.52-.61.76-.93.22-.29.43-.58.65-.88.05-.08.11-.15.16-.23.2-.29.39-.58.57-.88,0-.02.02-.03.03-.05.21-.34.4-.68.59-1.04h0c.18-.35.36-.71.52-1.07.15-.32.3-.65.43-.97.06-.14.11-.27.16-.41.05-.11.08-.22.12-.33.07-.19.13-.37.2-.56,0,0,0-.02,0-.03.02-.05.02-.08.04-.13.62-1.95.95-4,.95-6.12,0-.75-.06-1.52-.13-2.3-.15,1.34-.41,2.65-.82,3.91Z"/><path class="cls-29" d="m349.64,381.25c-2.37,4.45-9.63,4.41-12.44.42,1.15.3,2.2.58,3.24.74,3.18.54,6.21.19,9.2-1.16h0Z"/><ellipse class="cls-29" cx="338.61" cy="369.73" rx="1.3" ry="2.51" transform="translate(-151.78 265.43) rotate(-35.51)"/><ellipse class="cls-29" cx="348.31" cy="369.73" rx="2.51" ry="1.3" transform="translate(-154.96 438.52) rotate(-54.49)"/><g id="rubor"><circle id="rubor_D" class="cls-21" cx="388.26" cy="353.6" r="8.93"/><circle id="rubor_I" class="cls-21" cx="298.94" cy="353.6" r="8.93"/></g></g><g id="G10L09T03_macaco"><path class="cls-16" d="m315.03,438.43c3.17,1.4,6.81,3.22,8.79,6.19.03.05.08.09.12.14,1.05,1.21,1.97,2.36,2.69,3.3.17.22.34.45.51.67.18.25.37.5.55.76.18.25.36.51.53.78.13.17.24.35.35.53.09.13.16.25.24.38.37.56.71,1.14,1.04,1.73.57,1.01,1.08,2.04,1.52,3.1.06.16.13.32.19.48,0,.02,0,.02.02.04,0,.02.02.03.02.05.52,1.33.89,2.67,1.07,3.98.12.87.14,1.73.06,2.56-.04.47-.1.93-.21,1.39-.04.15-.08.3-.13.45-.02.08-.04.16-.07.23-.04.1-.07.2-.11.29-.06.18-.13.35-.21.52-2.57,5.7-8.88,7.64-16.27,6.84-.35-.04-.7-.09-1.06-.13-.93-.13-1.82-.3-2.67-.48-.02,0-.05,0-.08-.02-.22-.05-.43-.09-.66-.15-.31-.08-.61-.16-.92-.23-.37-.09-.74-.2-1.1-.31-.73-.21-1.46-.44-2.18-.69-.72-.25-1.43-.52-2.15-.8-.71-.27-1.42-.57-2.12-.89-1.13-.51-2.2-1.07-3.23-1.68-.26-.16-.51-.31-.77-.47-.7-.45-1.39-.92-2.04-1.4-.3-.23-.59-.45-.87-.67-.22-.18-.43-.36-.63-.53-.09-.08-.17-.15-.26-.23-.07-.05-.13-.12-.2-.17-.21-.18-.41-.37-.61-.56-.16-.16-.34-.32-.5-.49-.17-.16-.33-.33-.5-.51-.16-.16-.31-.33-.46-.49-.23-.26-.46-.52-.68-.78-.73-.85-1.38-1.74-1.95-2.65-.09-.14-.19-.28-.27-.43-.08-.11-.14-.23-.21-.34-.15-.24-.28-.49-.42-.74-.15-.27-.29-.55-.42-.83-.11-.23-.22-.47-.32-.7-.02-.04-.03-.09-.05-.13-.2-.45-.37-.92-.52-1.37-.09-.27-.17-.53-.25-.81-.09-.31-.17-.63-.24-.94-.02-.05-.02-.09-.03-.15,0-.04-.02-.09-.03-.13,0-.02,0-.03,0-.05-.12-.56-.2-1.11-.26-1.66,0-.05,0-.12-.02-.17-.05-.49-.07-.96-.07-1.43,0-1.39.2-2.74.61-4.05,1.9-6,8.03-9.23,14.03-9.37,4.63-.1,9.16,1.36,13.4,3.23Z"/><path class="cls-8" d="m332.66,460.55c-.17-1.31-.55-2.65-1.07-3.98,0-.02,0-.03-.02-.05,0-.02,0-.02-.02-.04-.05-.16-.13-.32-.19-.48,0,0,0,0,0-.02-.43-1.04-.94-2.08-1.51-3.09-.16-.3-.34-.59-.51-.88-.1-.16-.2-.34-.31-.5h0c-.42-.7-.88-1.38-1.35-2.04h0c-.29-.02-.54.02-.78.13-.99.44-1.6,1.9-2.98,3.24-1.46,1.42-2.86,2.9-4.17,4.46-1.64,1.93-3.21,4.01-5.33,5.41-4.4,2.92-10.06.49-14.38-1.46-3.3-1.49-6.18-3.43-8.54-5.65-1.78-1.68-3.27-3.49-4.42-5.4.05.55.14,1.1.26,1.66,0,.02,0,.03,0,.05v.02s0,0,0,.02h0c.02.09.03.17.05.24.07.31.15.63.24.94.08.27.16.54.25.81.15.45.32.92.52,1.37.02.05.04.09.05.13.1.23.21.47.32.7.13.28.27.56.42.83.13.25.27.49.42.74.1.18.21.36.33.54.05.08.09.16.15.23,0,.02.02.03.02.04.13.21.27.42.42.63.11.16.22.33.34.49.22.31.45.61.7.92.15.19.31.38.47.57.22.27.45.52.68.78.31.34.63.67.96,1,.16.16.34.32.5.49.34.32.7.64,1.07.96.2.17.42.35.63.53.28.23.57.45.87.67.65.49,1.33.96,2.04,1.4.26.16.51.31.77.47,1.03.61,2.11,1.17,3.25,1.68.7.31,1.39.61,2.1.89.71.28,1.43.55,2.15.8.72.25,1.45.48,2.18.69.37.11.74.21,1.1.31.31.08.61.16.92.23.23.05.44.1.66.15.02,0,.05,0,.08.02.13.03.27.05.41.09.72.15,1.48.28,2.26.39.35.05.7.09,1.06.13,7.39.8,13.7-1.14,16.27-6.84.08-.17.15-.34.21-.52.04-.09.07-.19.11-.29.03-.08.05-.16.07-.23.05-.15.09-.3.13-.45.11-.45.17-.92.21-1.39.08-.83.05-1.69-.06-2.56Zm-3.97,5.87c-1.39,1.39-3.25,2.41-5.22,2.69-1.23.17-2.78.05-3.78-.72,2.65-1.41,5.08-3.26,7.15-5.44-.45.1-.9.2-1.35.31,1.07-1.34,4.75-7.82,5.39-2.96.32,2.46-.61,4.56-2.19,6.12Z"/><path class="cls-25" d="m329.95,452.1c-.27-.23-.58-.43-.91-.57h0c-.45-.2-.96-.28-1.45-.25.41,0,.32,2.51.16,2.88-.32-.15-.69-.2-1.03-.15.39,1.14.61,2.35.65,3.56l-1.01-.99c.02.75.17,1.5.48,2.19-.56.41-1.1.31-1.75.27.2.34.38.67.58,1-.6.45-1.36.66-2.1.58.14.3.27.6.42.89-.53.28-1.17.38-1.76.25.3.22.6.44.91.66-1.18.91-2.52,1.61-3.94,2.09.63,0,1.26,0,1.9.02-1.24,1.13-2.6,2.11-4.05,2.94-1.27.73-2.08,1.66-3.19,2.63.34-.03.68-.07,1.02-.11-.16.02-.53.45-.68.55-.25.16-.52.31-.79.43-.34.15-.7.29-1.07.34-.08.02-.72.13-.72.13.23.32.49.61.81.85.16.13.32.24.49.34-2.17-.35-4.21-.84-6.3-1.5-.34-.11-.69-.23-1.03-.34-.27-.09-.78-.16-.99-.34.4.35.73.78.98,1.26-1.46-.54-2.86-1.21-4.19-2.02-.02-.02-.05-.02-.08-.04-.78-.46-2.65-1.21-3.01-1.93.27.53.53,1.06.8,1.59-.64-.49-1.28-.98-1.9-1.48-2.8-2.24-5.54-4.86-6.54-8.43.05.23-.23.84-.12,1.03-.43-.66-.95-1.23-1.33-1.93-.39-.7-.71-1.42-1.03-2.15-.58-1.35-1.07-2.91-.82-4.41h0s0-.08.02-.12c0,.03-.02.06-.02.09-.12.58-.31,1.16-.45,1.74-.26-.78-.44-1.5-.53-2.32-.02-.2-.03-.41-.04-.61-.08-1.68.17-3.31.71-4.95.18-.57.4-1.15.65-1.73.09-.23.2-.45.31-.68h0s.03-.09.05-.13c.58-1.21,1.28-2.39,2.08-3.54.11-.16.23-.31.34-.46.42-.53.87-1.04,1.35-1.52.19-.19.38-.37.59-.55.46-.42.96-.81,1.47-1.17.2-.14.4-.27.6-.4,0,0,.02-.02.03-.02.09-.06.19-.13.29-.18.18-.11.36-.21.55-.31.09-.05.17-.09.26-.13.24-.13.49-.24.73-.35.19-.09.38-.16.56-.23.04-.02.08-.03.13-.05.09-.04.18-.07.27-.1.2-.08.41-.15.62-.21.26-.08.52-.16.78-.22.12-.03.23-.05.34-.08.19-.05.37-.09.56-.13.27-.05.56-.1.83-.14.02,0,.02,0,.04,0,.54-.07,1.09-.12,1.64-.15.13,0,.27,0,.42,0,1.15-.03,2.31.05,3.47.22.34.05.67.11,1.01.17.67.13,1.34.29,2,.47.44.13.88.26,1.32.4.2.07.41.14.61.21.88.31,1.72.65,2.55,1.03.16.07.31.14.45.22.15.07.31.16.46.23,1.69.85,3.12,2,4.68,3.05,1.46.99,2.9,1.92,4.18,3.17-.31.04-.62.09-.92.13.86.61,1.65,1.28,2.49,1.91.23.17,2.37,2.37,2.29,2.4-.34.06-.77.09-1.13.07.36.02.85.48,1.37,1.11.74.92,1.54,2.21,2.08,3.1.23.4.43.72.54.89Z"/><path class="cls-12" d="m329.95,452.1c-.27-.23-.58-.43-.91-.57h0c-.45-.2-.96-.28-1.45-.25.41,0,.32,2.51.16,2.88-.32-.15-.69-.2-1.03-.15.39,1.14.61,2.35.65,3.56l-1.01-.99c.02.75.17,1.5.48,2.19-.56.41-1.1.31-1.75.27.2.34.38.67.58,1-.6.45-1.36.66-2.1.58.14.3.27.6.42.89-.53.28-1.17.38-1.76.25.3.22.6.44.91.66-1.18.91-2.52,1.61-3.94,2.09.63,0,1.26,0,1.9.02-1.24,1.13-2.6,2.11-4.05,2.94-1.27.73-2.08,1.66-3.19,2.63.34-.03.68-.07,1.02-.11-.16.02-.53.45-.68.55-.25.16-.52.31-.79.43-.34.15-.7.29-1.07.34-.08.02-.72.13-.72.13.23.32.49.61.81.85.16.13.32.24.49.34-2.17-.35-4.21-.84-6.3-1.5-.34-.11-.69-.23-1.03-.34-.27-.09-.78-.16-.99-.34.4.35.73.78.98,1.26-1.46-.54-2.86-1.21-4.19-2.02-.02-.02-.05-.02-.08-.04-.78-.46-2.65-1.21-3.01-1.93.27.53.53,1.06.8,1.59-.64-.49-1.28-.98-1.9-1.48-2.8-2.24-5.54-4.86-6.54-8.43.05.23-.23.84-.12,1.03-.43-.66-.95-1.23-1.33-1.93-.39-.7-.71-1.42-1.03-2.15-.58-1.35-1.07-2.91-.82-4.41h0s0-.08.02-.12c0,.03-.02.06-.02.09-.12.58-.31,1.16-.45,1.74-.26-.78-.44-1.5-.53-2.32-.02-.2-.03-.41-.04-.61-.08-1.68.17-3.31.71-4.95.04.19.09.38.13.56.85,3.34,2.35,6.48,4.33,9.26,3.76,5.26,9.27,9.29,15.49,11.19-.35-.52-.8-.99-1.31-1.37,3.81.93,8.56-.22,11.78-2.37,2.7-1.81,4.75-4.46,6.4-7.25-.08.31-.02.67.15.94.05.07.09.13.15.2.35-.55,1.91-4.61,2.75-7.33.09-.31.18-.59.26-.85.06-.24.12-.46.16-.66.74.92,1.54,2.21,2.08,3.1.23.4.43.72.54.89Z"/></g><g id="G11L10T03_macaco"><path class="cls-16" d="m354.2,463.11c.04.47.1.93.21,1.39.04.15.08.3.13.45.02.08.04.16.07.23.04.1.07.2.11.29.06.18.13.35.21.52,2.57,5.7,8.88,7.64,16.27,6.84.35-.04.7-.09,1.06-.13.93-.13,1.82-.3,2.67-.48.02,0,.05,0,.08-.02.22-.05.43-.09.66-.15.31-.08.61-.16.92-.23.37-.09.74-.2,1.1-.31.73-.21,1.46-.44,2.18-.69.72-.25,1.43-.52,2.15-.8.71-.27,1.42-.57,2.12-.89,1.13-.51,2.2-1.07,3.23-1.68.26-.16.51-.31.77-.47.7-.45,1.39-.92,2.04-1.4.3-.23.59-.45.87-.67.22-.18.43-.36.63-.53.09-.08.17-.15.26-.23.07-.05.13-.12.2-.17.21-.18.41-.37.61-.56.16-.16.34-.32.5-.49.17-.16.33-.33.5-.51.16-.16.31-.33.46-.49.23-.26.46-.52.68-.78.73-.85,1.38-1.74,1.95-2.65.09-.14.19-.28.27-.43.08-.11.14-.23.21-.34.15-.24.28-.49.42-.74.15-.27.29-.55.42-.83.11-.23.22-.47.32-.7.02-.04.03-.09.05-.13.2-.45.37-.92.52-1.37.09-.27.17-.53.25-.81.09-.31.17-.63.24-.94.02-.05.02-.09.03-.15,0-.04.02-.09.03-.13,0-.02,0-.03,0-.05.12-.56.2-1.11.26-1.66,0-.05,0-.12.02-.17.05-.49.07-.96.07-1.43,0-1.39-.2-2.74-.61-4.05-1.93-3.36-5.26-5.69-8.99-6.84-1.74-.54-3.55-.81-5.37-.97-2.74-.25-5.52-.27-8.23.2-4.81.83-10.82,3.46-13.63,7.67-.03.05-.08.09-.12.14-1.05,1.21-1.97,2.36-2.69,3.3-.17.22-.34.45-.51.67-.18.25-.37.5-.55.76-.18.25-.36.51-.53.78-.13.17-.24.35-.35.53-.09.13-.16.25-.24.38-.37.56-.71,1.14-1.04,1.73-.57,1.01-1.08,2.04-1.52,3.1-.06.16-.13.32-.19.48,0,.02,0,.02-.02.04,0,.02-.02.03-.02.05-.52,1.33-.89,2.67-1.07,3.98-.12.87-.14,1.73-.06,2.56Z"/><path class="cls-8" d="m354.2,463.11c.04.47.1.93.21,1.39.04.15.08.3.13.45.02.08.04.16.07.23.04.1.07.2.11.29.06.18.13.35.21.52,2.57,5.7,8.88,7.64,16.27,6.84.35-.04.7-.09,1.06-.13.78-.11,1.54-.24,2.26-.39.14-.03.27-.05.41-.09.02,0,.05,0,.08-.02.22-.05.43-.09.66-.15.31-.08.61-.16.92-.23.37-.09.74-.2,1.1-.31.73-.21,1.46-.44,2.18-.69.72-.25,1.43-.52,2.15-.8.7-.28,1.4-.58,2.1-.89,1.14-.51,2.22-1.07,3.25-1.68.26-.16.51-.31.77-.47.7-.45,1.39-.92,2.04-1.4.3-.23.59-.45.87-.67.22-.18.43-.36.63-.53.37-.31.72-.63,1.07-.96.16-.16.34-.32.5-.49.34-.33.65-.67.96-1,.23-.26.46-.52.68-.78.16-.19.32-.38.47-.57.24-.31.48-.61.7-.92.12-.16.23-.32.34-.49.15-.21.29-.42.42-.63,0,0,.02-.02.02-.04.05-.08.1-.16.15-.23.12-.18.23-.36.33-.54.15-.24.28-.49.42-.74.15-.27.29-.55.42-.83.11-.23.22-.47.32-.7.02-.04.03-.09.05-.13.2-.45.37-.92.52-1.37.09-.27.17-.53.25-.81.09-.31.17-.63.24-.94.02-.07.03-.16.05-.23h0s0-.02,0-.02v-.02s0-.03,0-.05c.12-.56.2-1.11.26-1.66-1.16,1.9-2.65,3.72-4.42,5.4-2.37,2.22-5.25,4.17-8.54,5.65-4.32,1.95-9.98,4.38-14.38,1.46-2.11-1.4-3.68-3.48-5.33-5.41-1.32-1.56-2.71-3.04-4.17-4.46-1.39-1.35-2-2.8-2.98-3.24-.23-.1-.49-.15-.78-.13h0c-.47.66-.92,1.34-1.35,2.04h0c-.1.16-.2.34-.31.5-.17.29-.34.58-.51.88-.57,1.01-1.08,2.04-1.51,3.09,0,0,0,0,0,.02-.06.16-.13.32-.19.48,0,.02,0,.02-.02.04,0,.02-.02.03-.02.05-.52,1.33-.89,2.67-1.07,3.98-.12.87-.14,1.73-.06,2.56Zm1.85-2.82c.64-4.86,4.32,1.62,5.39,2.96-.45-.1-.91-.2-1.35-.31,2.07,2.19,4.5,4.03,7.15,5.44-1,.77-2.55.89-3.78.72-1.97-.28-3.82-1.31-5.22-2.69-1.57-1.57-2.51-3.67-2.19-6.12Z"/><path class="cls-25" d="m356.97,452.1c.27-.23.58-.43.91-.57h0c.45-.2.96-.28,1.45-.25-.41,0-.32,2.51-.16,2.88.32-.15.69-.2,1.03-.15-.39,1.14-.61,2.35-.65,3.56l1.01-.99c-.02.75-.17,1.5-.48,2.19.56.41,1.1.31,1.75.27-.2.34-.38.67-.58,1,.6.45,1.36.66,2.1.58-.14.3-.27.6-.42.89.53.28,1.17.38,1.76.25-.3.22-.6.44-.91.66,1.18.91,2.52,1.61,3.94,2.09-.63,0-1.26,0-1.9.02,1.24,1.13,2.6,2.11,4.05,2.94,1.27.73,2.08,1.66,3.19,2.63-.34-.03-.68-.07-1.02-.11.16.02.53.45.68.55.25.16.52.31.79.43.34.15.7.29,1.07.34.08.02.72.13.72.13-.23.32-.49.61-.81.85-.16.13-.32.24-.49.34,2.17-.35,4.21-.84,6.3-1.5.34-.11.69-.23,1.03-.34.27-.09.78-.16.99-.34-.4.35-.73.78-.98,1.26,1.46-.54,2.86-1.21,4.19-2.02.02-.02.05-.02.08-.04.78-.46,2.65-1.21,3.01-1.93-.27.53-.53,1.06-.8,1.59.64-.49,1.28-.98,1.9-1.48,2.8-2.24,5.54-4.86,6.54-8.43-.05.23.23.84.12,1.03.43-.66.95-1.23,1.33-1.93.39-.7.71-1.42,1.03-2.15.58-1.35,1.07-2.91.82-4.41h0s0-.08-.02-.12c0,.03.02.06.02.09.12.58.31,1.16.45,1.74.26-.78.44-1.5.53-2.32.02-.2.03-.41.04-.61.08-1.68-.17-3.31-.71-4.95-.18-.57-.4-1.15-.65-1.73-.09-.23-.2-.45-.31-.68h0s-.03-.09-.05-.13c-.58-1.21-1.28-2.39-2.08-3.54-.11-.16-.23-.31-.34-.46-.42-.53-.87-1.04-1.35-1.52-.19-.19-.38-.37-.59-.55-.46-.42-.96-.81-1.47-1.17-.2-.14-.4-.27-.6-.4,0,0-.02-.02-.03-.02-.09-.06-.19-.13-.29-.18-.18-.11-.36-.21-.55-.31-.09-.05-.17-.09-.26-.13-.24-.13-.49-.24-.73-.35-.19-.09-.38-.16-.56-.23-.04-.02-.08-.03-.13-.05-.09-.04-.18-.07-.27-.1-.2-.08-.41-.15-.62-.21-.26-.08-.52-.16-.78-.22-.12-.03-.23-.05-.34-.08-.19-.05-.37-.09-.56-.13-.27-.05-.56-.1-.83-.14-.02,0-.02,0-.04,0-.54-.07-1.09-.12-1.64-.15-.13,0-.27,0-.42,0-1.15-.03-2.31.05-3.47.22-.34.05-.67.11-1.01.17-.67.13-1.34.29-2,.47-.44.13-.88.26-1.32.4-.2.07-.41.14-.61.21-.88.31-1.72.65-2.55,1.03-.16.07-.31.14-.45.22-.15.07-.31.16-.46.23-1.69.85-3.12,2-4.68,3.05-1.46.99-2.9,1.92-4.18,3.17.31.04.62.09.92.13-.86.61-1.65,1.28-2.49,1.91-.23.17-2.37,2.37-2.29,2.4.34.06.77.09,1.13.07-.36.02-.85.48-1.37,1.11-.74.92-1.54,2.21-2.08,3.1-.23.4-.43.72-.54.89Z"/><path class="cls-12" d="m356.97,452.1c.27-.23.58-.43.91-.57h0c.45-.2.96-.28,1.45-.25-.41,0-.32,2.51-.16,2.88.32-.15.69-.2,1.03-.15-.39,1.14-.61,2.35-.65,3.56l1.01-.99c-.02.75-.17,1.5-.48,2.19.56.41,1.1.31,1.75.27-.2.34-.38.67-.58,1,.6.45,1.36.66,2.1.58-.14.3-.27.6-.42.89.53.28,1.17.38,1.76.25-.3.22-.6.44-.91.66,1.18.91,2.52,1.61,3.94,2.09-.63,0-1.26,0-1.9.02,1.24,1.13,2.6,2.11,4.05,2.94,1.27.73,2.08,1.66,3.19,2.63-.34-.03-.68-.07-1.02-.11.16.02.53.45.68.55.25.16.52.31.79.43.34.15.7.29,1.07.34.08.02.72.13.72.13-.23.32-.49.61-.81.85-.16.13-.32.24-.49.34,2.17-.35,4.21-.84,6.3-1.5.34-.11.69-.23,1.03-.34.27-.09.78-.16.99-.34-.4.35-.73.78-.98,1.26,1.46-.54,2.86-1.21,4.19-2.02.02-.02.05-.02.08-.04.78-.46,2.65-1.21,3.01-1.93-.27.53-.53,1.06-.8,1.59.64-.49,1.28-.98,1.9-1.48,2.8-2.24,5.54-4.86,6.54-8.43-.05.23.23.84.12,1.03.43-.66.95-1.23,1.33-1.93.39-.7.71-1.42,1.03-2.15.58-1.35,1.07-2.91.82-4.41h0s0-.08-.02-.12c0,.03.02.06.02.09.12.58.31,1.16.45,1.74.26-.78.44-1.5.53-2.32.02-.2.03-.41.04-.61.08-1.68-.17-3.31-.71-4.95-.04.19-.09.38-.13.56-.85,3.34-2.35,6.48-4.33,9.26-3.76,5.26-9.27,9.29-15.49,11.19.35-.52.8-.99,1.31-1.37-3.81.93-8.56-.22-11.78-2.37-2.7-1.81-4.75-4.46-6.4-7.25.08.31.02.67-.15.94-.05.07-.09.13-.15.2-.35-.55-1.91-4.61-2.75-7.33-.09-.31-.18-.59-.26-.85-.06-.24-.12-.46-.16-.66-.74.92-1.54,2.21-2.08,3.1-.23.4-.43.72-.54.89Z"/></g><g id="G12L11T03_macaco"><path class="cls-16" d="m306.12,413.13c.44,2.93-.84,6.32-3,8.3-.34.31-.68.59-1.03.85h0c-2.75,2.04-6.19,2.93-9.85,2.76h-.07c-.09,0-.17,0-.26-.02-.2-.02-.41-.03-.61-.05-.21-.02-.42-.04-.62-.07-2.87-.36-5.85-1.34-8.73-2.9-.42-.23-.82-.46-1.22-.71-.2-.11-.41-.23-.6-.38-.2-.13-.4-.27-.6-.4-.2-.13-.4-.27-.6-.42-.15-.1-.3-.21-.45-.32-.12-.08-.23-.16-.34-.26-.33-.24-.65-.5-.96-.77-.2-.16-.38-.32-.57-.49-.23-.19-.45-.39-.68-.6-.13-.12-.26-.23-.39-.37-.29-.27-.57-.54-.84-.82-.29-.29-.57-.58-.84-.88-.2-.21-.39-.43-.57-.66-.13-.14-.24-.28-.36-.42-.16-.2-.32-.41-.47-.61-.25-.34-.5-.67-.74-1.02-.24-.35-.47-.7-.7-1.07-.29-.45-.56-.92-.81-1.39-.25-.47-.49-.94-.73-1.43,0,0,0,0,0-.02-.23-.49-.45-.98-.66-1.47-.21-.5-.41-1-.59-1.51-.15-.41-.29-.82-.42-1.24-.2-.63-.38-1.28-.56-1.92-.07-.26-.13-.52-.2-.78-.09-.38-.29-1.28-.49-2.41-.42-2.49-.58-4.98-.45-7.33.22-1.36.76-2.27,1.84-2.15.43.05.8.32,1.14.6,2.62,2.13,4.84,4.77,7.72,6.52,2.89,1.75,6.81,2.42,9.53.43,1-.73,1.77-1.76,2.83-2.4,1.54-.93,3.45-.92,5.26-.85,2.51.11,5.07.27,7.42,1.14,1.14.42,2.24,1.04,3.16,1.83.6.92,1.26,1.82,2,2.66.03.04.06.07.1.11,1.3,1.47,2.77,2.84,3.83,4.48.22.33.42.67.6,1.03,1.99,4.06-.81,8.13-5.4,7.39Z"/><path class="cls-8" d="m311.52,405.74c-.17-.36-.38-.7-.6-1.03.15,1.23.05,2.47-.4,3.61-.55,1.42-1.89,2.84-3.48,3-.18-1.57-.36-3.13-.53-4.7.31.12.62.23.93.35.27-2.15.54-4.39-.22-6.42-.04-.11-.09-.22-.13-.32-.04-.04-.07-.07-.1-.11-.74-.85-1.4-1.74-2-2.66-.92-.79-2.03-1.41-3.16-1.83-2.36-.87-4.91-1.03-7.42-1.14-1.8-.07-3.72-.09-5.26.85-1.06.64-1.82,1.68-2.83,2.4-2.73,1.99-6.64,1.32-9.53-.43-2.88-1.75-5.11-4.39-7.72-6.52-.34-.27-.7-.55-1.14-.6-1.08-.12-1.62.79-1.84,2.15-.33,2.05.06,5.14.45,7.33.2,1.14.39,2.03.49,2.41.06.26.13.52.2.78.17.64.35,1.28.56,1.92.13.42.27.83.42,1.24.18.51.38,1.01.59,1.51.21.49.43.99.66,1.47,0,0,0,.02,0,.02.23.49.48.96.73,1.43.26.47.52.94.81,1.39.23.36.45.71.7,1.07.17.27.36.52.55.78.05.08.12.16.19.23.15.2.31.41.47.61.12.14.23.28.36.42.18.23.38.45.57.66.27.3.55.59.84.88.27.28.55.56.84.82.13.13.26.25.39.37.23.21.45.42.68.6.19.16.38.33.57.49.31.27.63.52.96.77.11.09.23.18.34.26.15.11.3.22.45.32.2.15.39.29.6.42.2.13.4.27.6.4.2.14.4.27.6.38.4.25.81.49,1.22.71,2.72,1.5,5.67,2.54,8.73,2.9.2.03.41.05.62.07.2.02.41.03.61.05.09,0,.17,0,.26.02h.07c3.67.17,7.1-.71,9.85-2.75h0c.35-.27.7-.56,1.03-.86,2.16-1.98,3.44-5.37,3-8.3,4.6.74,7.39-3.34,5.4-7.39Zm-8.33,12.6c-.97.61-2.98.44-3.16-.88-.12-.9,2.27-2.42,2.94-2.94.83-.64,1.05,2.92.54,3.55-.08.1-.19.19-.31.27Z"/><path class="cls-25" d="m305.93,402.07c-.03.13-.07.26-.11.38-.03,0-.17-.09-.34-.2-.38-.22-.91-.54-.91-.58-.96,3.19-2.12,6.22-3.63,9.23-.09-.44-.18-.88-.27-1.32-1.17,1.92-2.41,3.79-3.71,5.62,0-.51.02-1.03.02-1.54-.6,1.35-1.46,2.58-2.51,3.61-.86-.51-1.86-.79-2.87-.81.22.49.44.99.66,1.48-.02,0-.02.02-.04.04-.02,0-.04.02-.05.03-.24.16-.9.49-.98.52-.37.17-.75.32-1.15.44-.74.22-1.59.41-2.37.39.06,0,.2.18.25.22.09.06.21.12.31.18.24.14.45.23.72.31-.27.12-.54.2-.83.27-.31.07-.62.13-.93.18-.63.1-1.26.17-1.9.2-1.26.06-2.54-.02-3.77-.29-1.04-.23-2.06-.58-3.01-1.08.14.38.27.74.41,1.12-2.13-.96-4.1-3.05-5.58-4.82.2.45.34.93.43,1.42-.83-.98-1.54-1.9-2.22-2.99-.62-1.01-1.21-2.04-1.75-3.1-.3-.58-.6-1.17-.88-1.78,0,0,0,0,0-.02-.59-1.22-1.12-2.47-1.5-3.75-.08-.26-.16-.52-.22-.78,0,.29-.08.59-.2.85-.31-.75-.5-1.55-.59-2.37-.11.31-.22.61-.32.91-.27-2.52-.52-5.02-.68-7.55-.21.57-.43,1.14-.65,1.72-.25-2.55-.13-5.24.43-7.84.83-3.81,2.58-7.4,5.44-10.01,2.5-2.29,6.6-3.64,10.96-3.96,3.85-.29,7.81-.16,11.18,1.98,4,2.53,7.06,6.32,9.19,10.5.59,1.16,1.03,2.37,1.65,3.51.34.63.59,1.3.95,1.92.15.26.77,1.52,1.06,1.56-.48-.06-.93-.29-1.27-.63.2.56.44,1.14.68,1.72.28.7.56,1.41.77,2.13.27.99.38,1.99.13,2.97Z"/><path class="cls-12" d="m305.93,402.07c-.03.13-.07.26-.11.38-.03,0-.17-.09-.34-.2-.38-.22-.91-.54-.91-.58-.96,3.19-2.12,6.22-3.63,9.23-.09-.44-.18-.88-.27-1.32-1.17,1.92-2.41,3.79-3.71,5.62,0-.51.02-1.03.02-1.54-.6,1.35-1.46,2.58-2.51,3.61-.86-.51-1.86-.79-2.87-.81.22.49.44.99.66,1.48-.02,0-.02.02-.04.04-.02,0-.04.02-.05.03-.24.16-.9.49-.98.52-.37.17-.75.32-1.15.44-.74.22-1.59.41-2.37.39.06,0,.2.18.25.22.09.06.21.12.31.18.24.14.45.23.72.31-.27.12-.54.2-.83.27-.31.07-.62.13-.93.18-.63.1-1.26.17-1.9.2-1.26.06-2.54-.02-3.77-.29-1.04-.23-2.06-.58-3.01-1.08.14.38.27.74.41,1.12-2.13-.96-4.1-3.05-5.58-4.82.2.45.34.93.43,1.42-.83-.98-1.54-1.9-2.22-2.99-.62-1.01-1.21-2.04-1.75-3.1-.3-.58-.6-1.17-.88-1.78,0,0,0,0,0-.02-.5-1.25-1.08-2.46-1.5-3.75-.08-.26-.16-.52-.22-.78,0,.29-.08.59-.2.85-.31-.75-.5-1.55-.59-2.37-.11.31-.22.61-.32.91-.27-2.52-.52-5.02-.68-7.55-.21.57-.43,1.14-.65,1.72-.25-2.55-.13-5.24.43-7.84.2,1.76.64,3.51,1.08,5.2.6,2.3,1.43,4.56,2.47,6.7,1.42,2.91,3.1,5.73,5.2,8.2,2.29,2.69,4.81,4.5,8,5.97-.2-.45-.39-.91-.59-1.35.81.78,1.82,1.35,2.91,1.68-.18-.06-.8-1.02-.99-1.22,2.37.51,4.68.7,7,0,1.46-.44,2.9-.99,4.24-1.73,1.45-.79,2.69-1.9,3.71-3.19,1.14-1.43,2.44-2.89,3.02-4.64.21.42.36.88.42,1.35.49-1.14.84-2.34,1.27-3.5.49-1.31.97-2.6,1.32-3.96.1.31.26.62.47.88.09.1,1.02-1.57,1.06-1.68.27.99.38,1.99.13,2.97Z"/></g><g id="G13L12T03_macaco"><path class="cls-16" d="m380.72,413.13c-.44,2.93.84,6.32,3,8.3.34.31.68.59,1.03.85h0c2.75,2.04,6.19,2.93,9.85,2.76h.07c.09,0,.17,0,.26-.02.2-.02.41-.03.61-.05.21-.02.42-.04.62-.07,2.87-.36,5.85-1.34,8.73-2.9.42-.23.82-.46,1.22-.71.2-.11.41-.23.6-.38.2-.13.4-.27.6-.4.2-.13.4-.27.6-.42.15-.1.3-.21.45-.32.12-.08.23-.16.34-.26.33-.24.65-.5.96-.77.2-.16.38-.32.57-.49.23-.19.45-.39.68-.6.13-.12.26-.23.39-.37.29-.27.57-.54.84-.82.29-.29.57-.58.84-.88.2-.21.39-.43.57-.66.13-.14.24-.28.36-.42.16-.2.32-.41.47-.61.25-.34.5-.67.74-1.02.24-.35.47-.7.7-1.07.29-.45.56-.92.81-1.39.25-.47.49-.94.73-1.43,0,0,0,0,0-.02.23-.49.45-.98.66-1.47.21-.5.41-1,.59-1.51.15-.41.29-.82.42-1.24.2-.63.38-1.28.56-1.92.07-.26.13-.52.2-.78.09-.38.29-1.28.49-2.41.42-2.49.58-4.98.45-7.33-.22-1.36-.76-2.27-1.84-2.15-.43.05-.8.32-1.14.6-2.62,2.13-4.84,4.77-7.72,6.52-2.89,1.75-6.81,2.42-9.53.43-1-.73-1.77-1.76-2.83-2.4-1.54-.93-3.45-.92-5.26-.85-2.51.11-5.07.27-7.42,1.14-1.14.42-2.24,1.04-3.16,1.83-.6.92-1.26,1.82-2,2.66-.03.04-.06.07-.1.11-1.3,1.47-2.77,2.84-3.83,4.48-.22.33-.42.67-.6,1.03-1.99,4.06.81,8.13,5.4,7.39Z"/><path class="cls-8" d="m380.72,413.13c-.44,2.93.84,6.32,3,8.3.34.31.68.59,1.03.85h0c2.75,2.04,6.19,2.93,9.85,2.76h.07c.09,0,.17,0,.26-.02.2-.02.41-.03.61-.05.21-.02.42-.04.62-.07,3.06-.36,6.01-1.39,8.73-2.9.42-.23.82-.46,1.22-.71.2-.11.41-.23.6-.38.2-.13.4-.27.6-.4.2-.13.4-.27.6-.42.15-.1.3-.21.45-.32.12-.08.23-.16.34-.26.33-.24.65-.5.96-.77.2-.16.38-.32.57-.49.23-.19.45-.39.68-.6.13-.12.26-.23.39-.37.29-.27.57-.54.84-.82.29-.29.57-.58.84-.88.2-.21.39-.43.57-.66.13-.14.24-.28.36-.42.16-.2.32-.41.47-.61.07-.08.13-.16.19-.23.19-.26.38-.52.55-.78.24-.35.47-.7.7-1.07.29-.45.56-.92.81-1.39.25-.47.49-.94.73-1.43,0,0,0,0,0-.02.23-.49.45-.98.66-1.47.21-.5.41-1,.59-1.51.15-.41.29-.82.42-1.24.2-.63.38-1.28.56-1.92.07-.26.13-.52.2-.78.09-.38.29-1.28.49-2.41.39-2.19.78-5.28.45-7.33-.22-1.36-.76-2.27-1.84-2.15-.43.05-.8.32-1.14.6-2.62,2.13-4.84,4.77-7.72,6.52-2.89,1.75-6.81,2.42-9.53.43-1-.73-1.77-1.76-2.83-2.4-1.54-.93-3.45-.92-5.26-.85-2.51.11-5.07.27-7.42,1.14-1.14.42-2.24,1.04-3.16,1.83-.6.92-1.26,1.82-2,2.66-.03.04-.06.07-.1.11-.05.1-.09.21-.13.32-.76,2.03-.49,4.28-.22,6.42.31-.12.63-.23.93-.35-.17,1.57-.35,3.13-.53,4.7-1.59-.16-2.93-1.58-3.48-3-.45-1.14-.55-2.38-.4-3.61-.22.33-.42.67-.6,1.03-1.99,4.06.81,8.13,5.4,7.39Zm2.61,4.94c-.51-.63-.29-4.19.54-3.55.66.51,3.06,2.03,2.94,2.94-.18,1.32-2.19,1.49-3.16.88-.12-.08-.23-.17-.31-.27Z"/><path class="cls-25" d="m380.91,402.07c.03.13.07.26.11.38.03,0,.17-.09.34-.2.38-.22.91-.54.91-.58.96,3.19,2.12,6.22,3.63,9.23.09-.44.18-.88.27-1.32,1.17,1.92,2.41,3.79,3.71,5.62,0-.51-.02-1.03-.02-1.54.6,1.35,1.46,2.58,2.51,3.61.86-.51,1.86-.79,2.87-.81-.22.49-.44.99-.66,1.48.02,0,.02.02.04.04.02,0,.04.02.05.03.24.16.9.49.98.52.37.17.75.32,1.15.44.74.22,1.59.41,2.37.39-.06,0-.2.18-.25.22-.09.06-.21.12-.31.18-.24.14-.45.23-.72.31.27.12.54.2.83.27.31.07.62.13.93.18.63.1,1.26.17,1.9.2,1.26.06,2.54-.02,3.77-.29,1.04-.23,2.06-.58,3.01-1.08-.14.38-.27.74-.41,1.12,2.13-.96,4.1-3.05,5.58-4.82-.2.45-.34.93-.43,1.42.83-.98,1.54-1.9,2.22-2.99.62-1.01,1.21-2.04,1.75-3.1.3-.58.6-1.17.88-1.78,0,0,0,0,0-.02.59-1.22,1.12-2.47,1.5-3.75.08-.26.16-.52.22-.78,0,.29.08.59.2.85.31-.75.5-1.55.59-2.37.11.31.22.61.32.91.27-2.52.52-5.02.68-7.55.21.57.43,1.14.65,1.72.25-2.55.13-5.24-.43-7.84-.83-3.81-2.58-7.4-5.44-10.01-2.5-2.29-6.6-3.64-10.96-3.96-3.85-.29-7.81-.16-11.18,1.98-4,2.53-7.06,6.32-9.19,10.5-.59,1.16-1.03,2.37-1.65,3.51-.34.63-.59,1.3-.95,1.92-.15.26-.77,1.52-1.06,1.56.48-.06.93-.29,1.27-.63-.2.56-.44,1.14-.68,1.72-.28.7-.56,1.41-.77,2.13-.27.99-.38,1.99-.13,2.97Z"/><path class="cls-12" d="m380.91,402.07c.03.13.07.26.11.38.03,0,.17-.09.34-.2.38-.22.91-.54.91-.58.96,3.19,2.12,6.22,3.63,9.23.09-.44.18-.88.27-1.32,1.17,1.92,2.41,3.79,3.71,5.62,0-.51-.02-1.03-.02-1.54.6,1.35,1.46,2.58,2.51,3.61.86-.51,1.86-.79,2.87-.81-.22.49-.44.99-.66,1.48.02,0,.02.02.04.04.02,0,.04.02.05.03.24.16.9.49.98.52.37.17.75.32,1.15.44.74.22,1.59.41,2.37.39-.06,0-.2.18-.25.22-.09.06-.21.12-.31.18-.24.14-.45.23-.72.31.27.12.54.2.83.27.31.07.62.13.93.18.63.1,1.26.17,1.9.2,1.26.06,2.54-.02,3.77-.29,1.04-.23,2.06-.58,3.01-1.08-.14.38-.27.74-.41,1.12,2.13-.96,4.1-3.05,5.58-4.82-.2.45-.34.93-.43,1.42.83-.98,1.54-1.9,2.22-2.99.62-1.01,1.21-2.04,1.75-3.1.3-.58.6-1.17.88-1.78,0,0,0,0,0-.02.5-1.25,1.08-2.46,1.5-3.75.08-.26.16-.52.22-.78,0,.29.08.59.2.85.31-.75.5-1.55.59-2.37.11.31.22.61.32.91.27-2.52.52-5.02.68-7.55.21.57.43,1.14.65,1.72.25-2.55.13-5.24-.43-7.84-.2,1.76-.64,3.51-1.08,5.2-.6,2.3-1.43,4.56-2.47,6.7-1.42,2.91-3.1,5.73-5.2,8.2-2.29,2.69-4.81,4.5-8,5.97.2-.45.39-.91.59-1.35-.81.78-1.82,1.35-2.91,1.68.18-.06.8-1.02.99-1.22-2.37.51-4.68.7-7,0-1.46-.44-2.9-.99-4.24-1.73-1.45-.79-2.69-1.9-3.71-3.19-1.14-1.43-2.44-2.89-3.02-4.64-.21.42-.36.88-.42,1.35-.49-1.14-.84-2.34-1.27-3.5-.49-1.31-.97-2.6-1.32-3.96-.1.31-.26.62-.47.88-.09.1-1.02-1.57-1.06-1.68-.27.99-.38,1.99-.13,2.97Z"/></g></g></g></g></g></g></svg>