<?xml version="1.0" encoding="UTF-8"?><svg xmlns="http://www.w3.org/2000/svg" xmlns:xlink="http://www.w3.org/1999/xlink" viewBox="0 0 500 503"><defs><style>.cls-1{fill:#e5bda1;}.cls-2{fill:#e8f8fe;}.cls-3{fill:#fff;}.cls-4{fill:#cacaca;}.cls-5,.cls-6{fill:#dcadde;}.cls-7{fill:#f9eb37;}.cls-8{fill:#a6a6a6;}.cls-9{isolation:isolate;}.cls-10{fill:#fbd58f;}.cls-11{fill:#cc7b88;}.cls-12{fill:url(#Degradado_sin_nombre_5);}.cls-12,.cls-13,.cls-6,.cls-14,.cls-15,.cls-16,.cls-17,.cls-18{mix-blend-mode:multiply;}.cls-19{stroke:#fff;stroke-miterlimit:10;stroke-width:3px;}.cls-19,.cls-20{fill:none;}.cls-21{fill:#895763;}.cls-22,.cls-15{fill:#9b9b9a;}.cls-23{fill:#b53a81;}.cls-13,.cls-24{fill:#f1f1f1;}.cls-25{fill:#f1dff5;}.cls-26{fill:#d1dee4;}.cls-27{fill:#3e3e3d;}.cls-28{clip-path:url(#clippath);}.cls-14{opacity:.22;}.cls-29{fill:#cceaf0;}.cls-30{fill:#222221;}.cls-16{fill:#e4e4e4;}.cls-31{fill:#fff061;}.cls-17{fill:#d8d8d8;}.cls-32{fill:#f0cade;}</style><clipPath id="clippath"><rect class="cls-20" width="500" height="503"/></clipPath><linearGradient id="Degradado_sin_nombre_5" x1="249.14" y1="615.64" x2="250.45" y2="383.96" gradientUnits="userSpaceOnUse"><stop offset="0" stop-color="#fff"/><stop offset=".32" stop-color="#fcfcfc"/><stop offset=".52" stop-color="#f3f3f3"/><stop offset=".69" stop-color="#e5e5e5"/><stop offset=".84" stop-color="#d0d0d0"/><stop offset=".97" stop-color="#b6b6b6"/><stop offset="1" stop-color="#b0b0b0"/></linearGradient></defs><g class="cls-9"><g id="Capa_2"><g id="Capa_1-2"><g class="cls-28"><rect id="pared" class="cls-26" width="500" height="378"/><g id="suelo"><rect id="suelo-2" class="cls-29" x="-.34" y="382" width="500.34" height="222.42"/><rect id="suelo-3" class="cls-12" x="-.34" y="382" width="500.34" height="222.42"/></g><g id="alfombra"><polygon class="cls-16" points="540 606 -60 606 109.8 402.85 371.99 402 540 606"/><polygon id="alfombra-2" class="cls-10" points="537.38 606 -57.38 606 111.31 402.25 370.84 402 537.38 606"/><polygon class="cls-13" points="397.98 435.25 56.55 468.49 111.31 402.25 370.84 402 397.98 435.25"/></g><g id="zocalo"><rect class="cls-4" y="378.13" width="500" height="24.06"/><rect class="cls-8" y="399.79" width="500" height="2.4"/><rect class="cls-2" y="375.49" width="500" height="2.4"/></g><ellipse class="cls-14" cx="337.5" cy="430.5" rx="84.5" ry="14.5"/><ellipse class="cls-14" cx="152" cy="430.5" rx="68" ry="14.5"/><g><g id="G01L01T01_gatonegro"><path class="cls-27" d="m417.18,410.16s-.05.06-.08.09c2.66,2.59,3.64,8.35,3.37,11.84-.27,3.54-1.77,6.89-3.72,9.85-3.13,4.76-7.62,8.8-13.07,10.47s-11.87.62-15.91-3.39c-4.04-4.01-4.97-11.09-1.41-15.54,1.92-2.4,4.78-3.81,7.36-5.48,2.58-1.67,5.11-3.93,5.64-6.96.73-4.19-2.62-7.57-6.02-9.35s-6.94-2.25-1.59-4.72c4.6-2.12,9.77-.22,13.87,2.13,4.08,2.34,8.73,3.86,12.05,7.37-1.55,0-3.09,0-4.64,0,2.15.59,4.14,1.71,5.77,3.22-.57-.16-1.23.03-1.62.47Z"/><g class="cls-18"><path class="cls-22" d="m393.34,401.69c2.38,1.24,4.73,3.27,5.68,5.81.15-.4.27-.8.34-1.23.73-4.19-2.62-7.57-6.02-9.35-.22-.11-.43-.22-.65-.32-.32.11-.63.23-.94.37-5.36,2.47-1.77,2.97,1.59,4.72Z"/><path class="cls-22" d="m416.75,427.17c-3.13,4.76-7.62,8.8-13.07,10.47-5.45,1.66-11.87.62-15.91-3.39-1.75-1.74-2.92-4.05-3.39-6.48-.8,3.93.49,8.37,3.39,11.25,4.04,4.01,10.46,5.06,15.91,3.39,5.45-1.66,9.94-5.71,13.07-10.47,1.95-2.96,3.45-6.31,3.72-9.85.09-1.2.04-2.4-.14-3.59-.48,3.1-1.85,6.04-3.58,8.67Z"/></g></g><g id="G02L02T01_negro_gato"><path class="cls-27" d="m410.77,359.25c.1,1.65.02,3.31-.2,4.95-.23-.35-.37-.75-.41-1.17.06,2.29.05,4.58-.06,6.87-.35-.61-.7-1.21-1.05-1.82.43.74.28,1.75.03,2.74-.17.73-.41,1.45-.49,2.03,0,.05-.02.11-.03.17-.05.33-.11.66-.17,1-.04.25-.08.5-.13.75-.14.75-.28,1.5-.43,2.23-.14.66-.28,1.32-.44,1.96-.07.33-.15.65-.23.98-.04.14-.07.28-.11.42-.02.09-.05.19-.07.28-.02.09-.05.18-.08.26-.07.29-.14.56-.22.84-.04.14-.08.28-.11.41-.04.14-.08.28-.12.42-.08.28-.16.55-.24.83s-.17.55-.25.83c-.08.27-.17.54-.26.82-.04.14-.08.27-.13.41l-.14.41c-.09.27-.18.53-.27.8s-.18.54-.28.8c-.2.54-.4,1.09-.6,1.63-.02.06-.05.12-.07.18t-.02.05s-.02.06-.04.09c0,.02,0,.04-.02.05-.05.12-.09.24-.14.35-.02.05-.04.11-.06.15-.08.22-.17.44-.26.65-.08.2-.17.41-.25.62-.1.24-.2.47-.3.71-.22.5-.44,1.01-.67,1.51-.23.5-.46,1-.7,1.5-.11.24-.23.49-.36.73-.12.25-.24.49-.36.74-.02.03-.04.07-.05.1,0,.02-.02.03-.02.05s-.02.02-.02.04c-.02.02-.03.05-.05.08-.02.04-.03.08-.05.11-.06.12-.13.24-.19.36-.26.49-.51.98-.78,1.46-.04.06-.07.12-.11.19-.22.41-.44.8-.68,1.19-.08.14-.15.26-.23.39-.12.2-.24.41-.36.6-.12.2-.24.4-.37.6-.12.2-.24.4-.37.59-.05.08-.09.16-.14.23-.02.03-.04.06-.06.09-.02.05-.05.08-.08.13-.03.05-.06.09-.09.14-.34.53-.68,1.04-1.02,1.55-.35.51-.7,1.02-1.06,1.53-.18.25-.36.5-.54.74-.03.05-.07.1-.11.14-.11.14-.2.28-.31.42-.05.06-.09.12-.14.17-.19.25-.38.49-.56.74-.03.04-.06.08-.1.13,0,0-.02.02-.03.04-.02.02-.03.04-.05.06-.13.17-.26.33-.39.5-.2.24-.38.48-.58.71s-.38.47-.58.7c0,0,0,.02-.02.03-.19.23-.38.45-.58.68-.54.64-1.1,1.26-1.67,1.88-.05.05-.1.11-.16.17-.17.19-.35.38-.52.56-.04.04-.08.08-.11.11-.21.23-.42.44-.63.66-.21.22-.43.44-.64.65-.22.21-.44.42-.65.64-.02.02-.05.04-.07.06-.63.62-1.28,1.23-1.93,1.81-.28.26-.56.5-.84.74-.17.16-.35.31-.53.46-.23.2-.46.4-.69.59-.24.2-.47.39-.71.59-.23.19-.47.38-.71.57l-.72.56c-.24.18-.48.37-.72.55-.18.14-.36.28-.55.41-.18.14-.37.27-.55.41-.19.14-.38.26-.56.4-.18.13-.37.26-.56.39-.25.17-.5.35-.75.52-.26.17-.5.34-.76.51-.26.17-.51.33-.77.5-.64.41-1.29.82-1.94,1.21s-1.32.77-1.98,1.15c-.27.15-.53.29-.8.44-.27.14-.54.29-.81.43-.26.14-.53.29-.8.42-.26.14-.54.28-.8.41-.29.15-.58.29-.87.43-.27.14-.55.26-.82.39-.83.39-1.68.77-2.53,1.13-.57.24-1.14.47-1.71.7-.29.11-.58.23-.87.34-.29.11-.56.21-.85.32-.02,0-.02.02-.03.02-.22.08-.44.16-.65.23-.66.23-1.32.46-1.98.68-.59.2-1.2.38-1.79.56-.23.07-.45.14-.68.2-.34.1-.68.2-1.01.29-.34.1-.68.19-1.03.28-.09.02-.18.05-.27.07-.14.05-.29.08-.44.12-.06.02-.14.03-.2.05-.31.08-.62.15-.92.23-.3.08-.61.14-.92.21-.15.04-.3.07-.45.11-.17.04-.32.07-.48.1-.32.07-.62.14-.94.2-.05.02-.11.02-.16.03-.02,0-.05.02-.07.02-.23.05-.44.09-.68.13,0,0-.02,0-.03,0-.11.02-.2.04-.31.06-.13.02-.26.05-.38.07-.08.02-.17.03-.26.05-.27.05-.55.1-.83.14-.06,0-.13.02-.19.03-.06,0-.12.02-.19.03-.19.03-.38.06-.58.09-.23.03-.47.07-.71.11-.28.04-.56.08-.84.11-.29.05-.58.08-.87.11-.29.04-.57.07-.86.11-.19.02-.38.04-.59.06-.18.02-.36.04-.55.06-.05,0-.11,0-.17.02-.08,0-.15.02-.23.02-.02,0-.05,0-.07,0-.11,0-.2.02-.3.02-.2.02-.39.04-.59.05-.13,0-.26.02-.38.03-.52.04-1.04.08-1.57.11-.26.02-.53.03-.8.05-.19,0-.38.02-.57.02-.06,0-.13,0-.19,0-.14,0-.29.02-.44.02-.11,0-.23,0-.34.02-.02,0-.05,0-.08,0-.5.02-1,.03-1.5.04-.38,0-.76,0-1.14,0s-.75,0-1.13,0c-.29,0-.59,0-.88-.02-.11,0-.21,0-.32,0-.07,0-.13,0-.2,0-.06,0-.11,0-.17,0h-.06c-.14,0-.28,0-.42-.02-.1,0-.2,0-.29,0-.23-.02-.47-.02-.71-.04-.11,0-.21,0-.32-.02-.1,0-.19,0-.28-.02-.12,0-.25-.02-.37-.02-.2,0-.41-.02-.62-.04-.2,0-.39-.02-.59-.04-.08,0-.16-.02-.23-.02-.36-.02-.71-.05-1.07-.09-.2-.02-.38-.03-.57-.05-.04,0-.08,0-.11,0-.17-.02-.32-.03-.47-.05-.08,0-.16-.02-.24-.03-.04,0-.07,0-.11,0-.02,0-.04,0-.06,0-.04,0-.08,0-.11-.02-.08,0-.14-.02-.22-.02-.09,0-.19-.02-.28-.03-.14-.02-.28-.03-.42-.05-.11,0-.23-.02-.34-.04-.29-.04-.57-.08-.86-.11-.17-.02-.34-.05-.5-.08-.14-.02-.26-.03-.39-.05-.05,0-.09,0-.14-.02-.23-.03-.45-.07-.68-.11-.36-.05-.72-.11-1.07-.17-.17-.03-.34-.06-.51-.09-.2-.03-.41-.07-.61-.11-.38-.08-.75-.14-1.13-.22-.24-.05-.48-.1-.72-.15-.26-.05-.5-.11-.76-.17-.2-.04-.4-.08-.6-.13-.41-.1-.81-.19-1.22-.29-.03,0-.07-.02-.11-.02-.17-.04-.34-.08-.51-.13-.07-.02-.13-.03-.2-.05-.02,0-.04,0-.05,0-.14-.04-.28-.08-.42-.11-.32-.08-.63-.17-.95-.26-.3-.08-.6-.17-.9-.26-.3-.08-.6-.17-.9-.26-.6-.18-1.2-.37-1.79-.56-.29-.09-.59-.2-.89-.29-.59-.2-1.17-.41-1.75-.62-1.16-.42-2.31-.88-3.45-1.36-.29-.13-.58-.25-.86-.38-.02,0-.05-.02-.07-.03-.81-.36-1.63-.73-2.43-1.12-.83-.4-1.65-.81-2.47-1.25-.03-.02-.05-.03-.08-.05-.26-.14-.53-.28-.8-.42-.24-.14-.49-.27-.73-.41-.48-.27-.96-.55-1.44-.83-.11-.06-.22-.12-.32-.19-.11-.06-.21-.12-.32-.19-.23-.14-.46-.28-.68-.42-.3-.18-.59-.37-.89-.56-.2-.14-.41-.26-.61-.4-.2-.13-.38-.26-.58-.38-.2-.14-.4-.27-.59-.41-1.1-.75-2.18-1.53-3.23-2.33-.42-.32-.84-.65-1.26-.98-.21-.17-.41-.33-.62-.5-.24-.2-.47-.39-.7-.59-.14-.11-.27-.23-.41-.34-.15-.13-.29-.25-.44-.38-.06-.05-.12-.11-.18-.17-.16-.13-.31-.26-.46-.4-.06-.05-.13-.11-.19-.17-.1-.08-.19-.17-.28-.25-.08-.06-.15-.13-.22-.2-.13-.11-.26-.23-.39-.35-.05-.05-.11-.11-.17-.16-.09-.08-.17-.17-.26-.26-.07-.05-.13-.11-.19-.17-.17-.16-.33-.31-.49-.47-.11-.11-.23-.22-.35-.33-.02-.02-.03-.03-.05-.05-.21-.21-.42-.41-.64-.62-.2-.2-.39-.41-.59-.6-.2-.2-.39-.41-.59-.61-.05-.05-.08-.09-.13-.14-1.04-1.09-2.04-2.22-3.01-3.38-.2-.23-.39-.47-.59-.71-.38-.47-.77-.95-1.14-1.44-.18-.25-.37-.49-.56-.74-.03-.05-.07-.09-.1-.14-.03-.04-.05-.08-.08-.11-.05-.06-.09-.12-.14-.18-.19-.26-.38-.52-.57-.78,0,0,0-.02-.02-.03-.13-.17-.25-.35-.37-.52-.12-.17-.23-.32-.35-.49-.14-.21-.29-.41-.43-.62-.06-.1-.13-.19-.2-.29-.07-.11-.14-.22-.22-.32-.32-.48-.64-.97-.95-1.47-.08-.13-.16-.26-.24-.39-.12-.19-.23-.37-.35-.56-.11-.17-.21-.35-.31-.52l-.27-.45c-.24-.41-.47-.82-.71-1.23-.14-.25-.28-.5-.41-.74-.05-.08-.09-.17-.14-.26-.15-.26-.29-.53-.44-.8-.02-.05-.05-.1-.08-.15-.17-.33-.35-.67-.52-1.01-.11-.22-.22-.44-.32-.65-.02-.05-.05-.1-.07-.14-.09-.18-.17-.35-.26-.53-.11-.23-.23-.47-.34-.71,0,0,0-.02-.02-.04-.03-.07-.06-.14-.09-.2-.03-.05-.05-.1-.08-.15-.02-.05-.05-.09-.06-.14-.02-.04-.04-.08-.05-.11-.11-.26-.23-.5-.34-.76-.13-.29-.26-.58-.38-.87-.12-.29-.25-.59-.37-.89-.12-.29-.24-.59-.36-.89-.11-.3-.23-.6-.35-.9-.12-.32-.24-.63-.36-.95-.09-.25-.18-.5-.27-.74-.02-.06-.04-.12-.06-.17-.06-.17-.12-.34-.18-.5-.07-.2-.14-.39-.2-.59-.18-.54-.35-1.08-.53-1.63-.03-.07-.05-.13-.07-.21-.12-.41-.25-.81-.37-1.22-.11-.38-.22-.76-.32-1.14-.02-.07-.04-.14-.06-.23-.1-.37-.2-.74-.3-1.13-.11-.41-.2-.83-.3-1.24,0-.02,0-.02-.02-.04-.02-.1-.05-.2-.07-.3-.19-.81-.37-1.62-.53-2.45,0-.02,0-.05-.02-.07-.03-.17-.07-.33-.1-.5-.04-.18-.07-.35-.1-.53-.07-.33-.13-.66-.19-1,0-.08-.02-.15-.04-.23-.02-.14-.05-.27-.07-.41-.05-.29-.1-.58-.14-.87-.02-.1-.03-.2-.05-.29-.02-.08-.02-.14-.03-.22-.05-.31-.1-.62-.14-.93,0-.03,0-.06,0-.1-.05-.35-.1-.71-.14-1.07-.02-.17-.05-.34-.06-.51-.05-.34-.08-.67-.12-1.01,0-.05,0-.11-.02-.17,0-.07-.02-.13-.02-.2,0-.06,0-.13-.02-.2-.02-.22-.05-.44-.06-.65,0-.06,0-.11-.02-.17-.1-1.47-.05-2.92-.14-4.37-.11-1.89-.78-3.55-.52-5.5-.31.5-.62,1.01-.93,1.53.18-1.99.36-3.98.54-5.97-.05.31-.26.59-.54.71.17-1.43.47-2.84.9-4.22-.31.29-.62.58-.93.86.74-2.76,2.17-5.49,2.61-8.27.06-.38.12-.77.19-1.16.05-.32.11-.64.16-.96.02-.07.03-.14.04-.2,0-.02,0-.02,0-.04.07-.38.14-.75.2-1.13,0,0,0-.02,0-.02.06-.38.14-.77.21-1.15.07-.34.14-.68.2-1.01,0-.05.02-.11.03-.16.1-.47.2-.95.3-1.44.08-.35.15-.69.23-1.04.04-.17.07-.33.11-.49.02-.08.04-.14.05-.21.18-.79.36-1.58.56-2.37.05-.2.11-.41.16-.63.18-.73.37-1.46.56-2.19.02-.09.05-.19.08-.29.07-.26.14-.52.22-.8,0,0,.04-.07.05-.08.02-.02.05-.02.08,0,.04,0,.08.02.11.03.02,0,.03.02.05.02,0,0,.02.02.03.02.05.05.09.11.13.17.26.42.58.86.95,1.22.06.05.12.11.2.17.06.05.12.11.19.15,1.1.78,2.43,1.44,3.58,2.18,2.54,1.61,5.15,3.13,7.8,4.55,5.43,2.92,11.08,5.43,16.87,7.53,11.46,4.16,23.51,6.67,35.68,7.4,14.02.84,28.3.77,42.08-2.29,4.46-.99,8.82-2.36,13.13-3.87,8.12-2.86,17.44-6.84,23.44-13.3.09-.1.17-.19.26-.29.23-.26.47-.52.69-.78.02.09.05.17.07.26.02.05.03.11.04.16.02.08.05.16.06.24.02.05.03.1.04.14.22.88.43,1.76.62,2.63.08.33.16.67.23,1.01.26,1.13.49,2.26.71,3.39.07.38.14.76.21,1.14.07.37.14.74.2,1.1.05.25.09.5.13.75.1.58.2,1.15.29,1.72.05.35.11.7.15,1.05.06.38.11.77.17,1.15.05.3.08.6.12.89.05.34.08.67.13,1,.04.34.08.67.11,1.01,0,.02,0,.03,0,.05.02.14.03.28.05.41.02.21.05.41.07.62,0,.03,0,.05,0,.08.02.18.04.36.05.53.33,3.07,1.59,5.76,2.15,8.83-.27-.56-.53-1.13-.8-1.7.17.94.27,1.89.32,2.84Z"/><path class="cls-15" d="m409.6,360.77c0,.24,0,.47-.02.71,0,0,0,0,0,.01,0,0,0,.01,0,.02,0,.03,0,.05,0,.08-.01.33-.02.65-.03.97-.02.54-.04,1.07-.07,1.6-.03.53-.06,1.06-.1,1.59-.05.71-.11,1.41-.17,2.1,0,.09-.02.18-.02.27-.03.27-.05.54-.09.81,0,.04,0,.07-.01.11-.03.25-.06.5-.09.75,0,.02,0,.04,0,.05,0,.02,0,.03,0,.05,0,.03,0,.06-.01.09h0c-.01.11-.02.22-.04.33-.06.53-.14,1.06-.21,1.59,0,0,0,0,0,.01-.01.09-.03.19-.04.28-.03.21-.06.43-.1.64,0,.05-.02.11-.03.16-.05.33-.11.66-.16,1-.04.25-.09.5-.13.75-.13.75-.27,1.5-.43,2.24-.13.66-.28,1.31-.43,1.96-.07.33-.15.65-.23.97-.03.14-.07.28-.1.42-.02.09-.05.19-.07.28-.02.09-.05.18-.07.27-.07.28-.15.56-.22.84-.04.14-.08.28-.11.42-.04.14-.07.28-.12.42-.08.28-.16.55-.24.83-.08.27-.17.55-.25.82-.08.27-.17.55-.26.82-.04.14-.09.27-.13.41-.04.13-.09.27-.13.41-.09.27-.18.54-.27.81-.09.27-.18.54-.28.8-.19.55-.39,1.09-.6,1.63-.02.06-.05.12-.07.18,0,.01,0,.02-.01.03,0,0,0,0,0,.01-.01.03-.02.06-.04.1,0,.02-.01.03-.02.05-.05.12-.09.24-.14.36-.02.05-.04.1-.06.15-.09.22-.17.43-.26.65-.08.21-.17.41-.25.62-.1.24-.2.48-.3.71-.22.51-.44,1.01-.67,1.51-.23.5-.46,1-.7,1.49-.12.25-.24.49-.36.74-.12.25-.24.49-.37.73-.01.03-.03.07-.05.1,0,.02-.01.03-.02.05,0,.01-.01.02-.02.04-.01.02-.03.05-.04.07-.02.04-.03.07-.06.11-.06.12-.12.24-.19.36-.25.49-.51.97-.78,1.45-.04.06-.07.13-.11.19-.22.4-.45.8-.68,1.2-.07.13-.15.26-.23.39-.12.2-.24.4-.36.6-.12.2-.24.4-.37.6-.12.2-.25.4-.37.59-.05.08-.1.16-.15.23-.02.03-.04.06-.06.09-.02.04-.05.09-.08.13-.03.05-.06.09-.09.14-.33.52-.67,1.04-1.02,1.55-.34.51-.7,1.02-1.06,1.52-.18.25-.36.5-.54.75-.03.05-.07.1-.1.14-.1.14-.21.28-.31.42-.04.06-.09.12-.14.18-.18.25-.37.49-.56.73-.03.04-.06.09-.1.13,0,.01-.02.02-.03.04-.01.02-.03.04-.05.06-.13.17-.26.33-.39.5-.19.24-.38.48-.58.71-.19.23-.38.46-.58.7,0,.01-.01.02-.02.03-.19.23-.38.46-.58.68-.54.63-1.1,1.26-1.67,1.87-.05.06-.1.11-.16.17-.17.19-.35.38-.52.56-.03.04-.07.07-.11.11-.21.22-.42.44-.63.66-.21.22-.43.43-.64.65-.22.21-.43.43-.65.64-.02.02-.05.04-.07.06-.63.62-1.28,1.22-1.93,1.81-.28.26-.56.51-.84.75-.17.15-.35.3-.53.46-.23.2-.46.39-.7.59-.23.19-.47.39-.7.58-.23.19-.47.38-.71.57-.24.19-.48.38-.72.56-.24.19-.48.37-.73.55-.18.14-.36.27-.55.41-.18.14-.37.27-.55.4-.19.14-.37.27-.56.4-.18.13-.37.26-.56.39-.25.17-.5.35-.75.52-.25.17-.51.34-.76.51-.25.17-.51.33-.77.5-1.28.83-2.59,1.61-3.92,2.36-.27.15-.54.3-.8.44-.27.15-.54.29-.81.43-.27.14-.53.28-.8.42-.27.14-.54.27-.81.41-.29.15-.58.29-.87.43-.27.13-.54.26-.82.39-.83.39-1.68.77-2.53,1.13-.57.24-1.14.48-1.72.7-.29.11-.58.23-.87.34-.29.11-.57.21-.85.32-.01,0-.02.01-.03.01-.22.08-.44.16-.66.24-.66.24-1.32.46-1.98.68-.59.2-1.19.38-1.79.56-.22.07-.45.13-.67.2-.34.1-.67.19-1.02.29-.34.09-.68.19-1.02.27-.09.03-.18.05-.27.07-.15.04-.29.08-.44.11-.07.02-.14.03-.21.05-.3.07-.61.15-.92.22-.3.07-.61.14-.92.21-.15.03-.3.07-.46.1-.16.04-.32.07-.48.1-.31.07-.62.13-.94.19-.05.01-.11.02-.16.03-.02,0-.05.01-.07.01-.23.05-.45.09-.68.13-.01,0-.02,0-.03,0-.1.02-.2.04-.31.06-.13.02-.26.05-.38.07-.08.02-.17.03-.25.05-.27.05-.55.1-.83.14-.06.01-.13.02-.19.03-.06,0-.12.02-.18.03-.19.03-.38.06-.58.09-.23.03-.47.07-.71.1-.28.04-.56.08-.84.12-.29.04-.58.08-.87.11-.29.03-.57.07-.86.1-.19.02-.39.04-.59.06-.18.02-.36.04-.55.06-.06,0-.12.01-.18.02-.07,0-.15.02-.22.02-.02,0-.05,0-.07,0-.1,0-.2.02-.3.03-.2.02-.39.03-.59.05-.13.01-.25.02-.38.03-.52.04-1.05.08-1.57.11-.27.02-.53.03-.8.04-.19.01-.38.02-.57.03-.06,0-.12,0-.19,0-.14,0-.29.01-.43.02-.11,0-.23,0-.34.01-.03,0-.05,0-.08,0-.5.02-1,.03-1.5.03-.38,0-.76,0-1.14,0s-.75,0-1.13,0c-.29,0-.59,0-.88-.02-.11,0-.22,0-.33,0-.07,0-.13,0-.2,0-.06,0-.11,0-.17,0-.02,0-.04,0-.06,0-.14,0-.28,0-.42-.01-.1,0-.2,0-.29-.01-.24-.01-.47-.02-.71-.03-.11,0-.21-.01-.32-.02-.09,0-.18,0-.27-.02-.13,0-.25-.01-.37-.02-.2-.01-.4-.02-.6-.04h-.01c-.19-.01-.39-.03-.59-.04-.08,0-.16-.01-.23-.02-.36-.03-.71-.06-1.07-.09-.19-.02-.38-.03-.57-.05-.04,0-.07,0-.11-.01-.16-.01-.32-.03-.47-.05-.08,0-.16-.02-.23-.03-.04,0-.07,0-.11-.01-.02,0-.04,0-.06,0-.04,0-.08,0-.12-.01-.07,0-.14-.02-.22-.02-.09-.01-.19-.02-.28-.03-.14-.02-.28-.03-.42-.05-.11-.01-.22-.03-.34-.04-.29-.03-.58-.07-.86-.11-.17-.02-.34-.04-.5-.07-.13-.02-.26-.03-.39-.06-.05,0-.09-.01-.14-.02-.23-.03-.45-.07-.68-.1-.36-.06-.72-.11-1.07-.18-.17-.03-.34-.06-.51-.09-.2-.03-.41-.07-.61-.11-.38-.07-.75-.14-1.13-.22-.24-.05-.48-.1-.73-.15-.25-.05-.5-.11-.76-.16-.2-.04-.4-.09-.6-.13-.41-.09-.81-.19-1.22-.29-.03,0-.07-.02-.11-.03-.17-.04-.34-.08-.51-.13-.06-.01-.13-.03-.19-.05-.16-.04-.32-.08-.47-.12-.32-.08-.63-.17-.95-.25-.3-.08-.61-.17-.9-.26-.3-.09-.6-.17-.9-.26-.6-.18-1.19-.37-1.79-.56-.3-.1-.59-.19-.89-.3-.59-.2-1.17-.41-1.76-.62-1.16-.43-2.31-.89-3.45-1.37-.29-.12-.58-.25-.86-.37-.02,0-.04-.02-.06-.03-.82-.36-1.63-.73-2.43-1.12-.83-.4-1.65-.82-2.46-1.25-.03-.02-.06-.03-.08-.05-.27-.14-.53-.28-.79-.43-.25-.13-.49-.27-.73-.41-.49-.27-.97-.55-1.44-.83-.11-.06-.21-.13-.32-.19-.11-.06-.21-.13-.32-.19-.23-.14-.46-.28-.68-.42-.3-.18-.6-.37-.89-.56-.2-.13-.41-.26-.61-.39-.19-.13-.39-.25-.58-.38-.2-.13-.4-.27-.6-.4-1.1-.75-2.18-1.53-3.23-2.33-.42-.32-.84-.65-1.26-.98-.21-.17-.41-.33-.62-.5-.23-.19-.47-.39-.7-.58-.14-.11-.27-.23-.4-.34-.15-.13-.3-.25-.44-.38-.06-.05-.12-.11-.18-.16-.15-.13-.3-.27-.45-.4-.06-.05-.13-.11-.19-.17-.09-.08-.19-.17-.28-.25-.07-.06-.15-.13-.22-.2-.13-.12-.26-.23-.39-.35-.06-.05-.12-.1-.17-.16-.09-.08-.18-.17-.27-.25-.06-.06-.13-.11-.19-.18-.16-.15-.33-.31-.49-.46-.11-.11-.23-.22-.34-.33-.02-.01-.03-.03-.05-.05-.21-.21-.42-.42-.63-.63-.2-.2-.39-.4-.59-.6-.2-.2-.39-.4-.58-.61-.05-.05-.09-.09-.13-.14-1.03-1.09-2.04-2.22-3.01-3.38-.19-.23-.39-.47-.58-.71-.39-.47-.77-.95-1.14-1.44-.19-.24-.37-.49-.56-.73-.03-.05-.07-.09-.1-.14-.03-.03-.05-.07-.08-.1-.05-.06-.09-.12-.13-.18-.19-.26-.38-.52-.57-.78,0,0-.01-.02-.02-.03-.13-.17-.25-.35-.37-.52-.11-.16-.23-.33-.34-.49-.14-.21-.29-.41-.42-.62-.07-.1-.13-.19-.2-.29-.07-.11-.15-.22-.22-.33-.32-.48-.64-.97-.95-1.46-.08-.13-.16-.26-.25-.39-.11-.18-.23-.37-.34-.56-.11-.17-.21-.34-.31-.52-.09-.15-.18-.3-.27-.45-.24-.41-.47-.82-.7-1.23-.14-.25-.28-.5-.41-.74-.05-.09-.09-.17-.14-.26-.15-.27-.29-.54-.43-.81-.02-.05-.05-.1-.07-.14-.18-.34-.35-.67-.52-1.01-.11-.22-.22-.43-.32-.65-.02-.05-.05-.1-.07-.15-.09-.18-.17-.35-.26-.53-.11-.23-.22-.47-.33-.7,0-.01-.01-.02-.02-.04-.03-.07-.06-.14-.09-.2-.03-.05-.05-.1-.07-.15-.02-.04-.04-.09-.06-.14-.02-.04-.03-.07-.05-.11-.11-.25-.23-.5-.34-.76-.13-.29-.26-.58-.38-.87-.13-.29-.25-.59-.37-.88-.12-.3-.24-.59-.36-.89-.12-.3-.23-.6-.35-.9-.12-.31-.24-.63-.36-.95-.09-.25-.18-.5-.27-.75-.02-.06-.04-.12-.06-.18-1.27-3.59-2.29-7.35-3.05-11.24-.45-2.34-.82-4.73-1.08-7.18-.03-.26-.05-.51-.08-.77,0-.06-.01-.13-.02-.2-.25-2.59-.39-5.24-.41-7.93v-.07c0-.23,0-.45,0-.68,0-4.08.26-8.29.77-12.59.06-.52.13-1.03.2-1.55.22-1.64.47-3.28.75-4.94.08-.46.16-.91.25-1.37,0,.04,0,.09,0,.13h0c-.04,1.14-.06,2.26-.06,3.38,0,.29,0,.57,0,.86,0,.84.03,1.68.06,2.52v.02c.06,1.64.16,3.26.31,4.86.09,1.05.21,2.08.34,3.11.03.28.07.56.11.83.6,4.4,1.53,8.62,2.76,12.65,0,0,0,0,0,0,.66,2.16,1.4,4.28,2.23,6.33.16.41.33.81.5,1.22,2.06,4.89,4.65,9.56,7.72,13.9,2.84,4.01,4.56,8.59,7.78,12.36-.21-1.01-.2-2.07.03-3.07,1.51,1.89,3.6,3.4,5.47,4.93,1.35,1.11,2.75,2.16,4.19,3.17,4.33,3.04,9,5.61,13.94,7.69.32.14.65.27.97.4.85.34,1.7.67,2.56.98,1.66.61,3.35,1.15,5.07,1.65,3.66,1.05,7.35,1.61,11.07,2.35,3.23.64,5.91,2.57,9.15,3.48-.24-.07-.46-2.17-.5-2.48,1.57,1.29,2.81,3.2,4.1,4.79-.53-.65,4.46-3.73,4.95-4.09.12.77.07,1.56-.14,2.3,2.77-.97,5.13-2.22,7.64-3.63,2.19-1.23,4.26-1.4,6.71-2.01.6-.15,1.2-.31,1.79-.47,3.11-.85,6.13-1.89,9.07-3.1.26-.11.52-.21.78-.33,4.26-1.81,8.32-3.99,12.13-6.52,1.05-.69,2.07-1.41,3.08-2.16.11-.08.21-.16.32-.24,2.6-1.95,5.01-4.04,7.28-6.36.19.83.39,1.67.58,2.5,3.84-3.59,6.46-9.34,8.97-13.88,3.22-5.84,6.48-11.28,8.63-17.66.91-2.7,1.69-5.49,2.31-8.37.01-.05.02-.11.04-.16h0s0-.02,0-.02Z"/><path class="cls-15" d="m410.77,359.25c.1,1.65.02,3.31-.2,4.95-.23-.35-.37-.75-.41-1.17.06,2.29.05,4.58-.06,6.87-.35-.61-.7-1.21-1.05-1.82.43.74.28,1.75.03,2.74-.89-1.37-2.38-1.87-4.4-1.57-1.46.22-3.34.74-5.55,1.5-3,1.03-6.6,2.51-10.56,4.26-1.58.7-3.22,1.44-4.9,2.22-1.43.66-2.89,1.35-4.37,2.05-1.24.58-2.49,1.18-3.75,1.78-1.76.85-3.53,1.71-5.31,2.58-.91.44-1.83.89-2.74,1.33-.5.25-1,.49-1.5.73-.81.4-1.62.8-2.44,1.19-.95.46-1.89.92-2.83,1.38-.29.14-.56.28-.84.41-.21.11-.42.2-.63.31-.93.45-1.84.89-2.74,1.33-.31.15-.61.29-.91.44-.05.02-.09.04-.14.06-1.55.77-9.28,4.89-9.28,5.88-.06-.47-.1-.95-.17-1.41-.02-.11-.04-.23-.07-.35-.42.09-.86.24-1.32.44-1.77.76-3.68,2.12-5.4,2.86-.07.02-.14.05-.2.08-1.04.41-1.99.77-2.84,1.05-.36.13-.71.24-1.04.34-.39.12-.74.22-1.08.29-.08.02-.15.04-.23.06-.47.11-.88.17-1.23.19-.04,0-.07,0-.1,0-1.92.09-5.97-1.29-10.06-3.27-2.3-1.11-4.62-2.41-6.58-3.75-.05-.04-.11-.08-.17-.11-2.56-1.77-4.47-3.58-4.86-5.07.35,1.32.14,2.47.52,3.77.08.25.17.5.29.75-1.68-1.38-3.37-2.68-5.06-3.93-1.48-1.09-2.97-2.13-4.47-3.16-4.73-3.19-9.63-6.07-14.91-8.91-6.05-3.27-12.48-6.97-19.22-8.79-.21-.06-.43-.11-.64-.17-.21-.06-.42-.11-.64-.16-.27-.06-.55-.12-.83-.18-.44-.09-.86-.17-1.26-.22-.56-.08-1.09-.11-1.57-.11-.72,0-1.36.09-1.92.28-.27.09-.53.18-.77.26-2.5.84-3.96,1.4-4.19,1.48,0,0-.02,0-.03.02,0-.05,0-.11-.02-.17,0-.07-.02-.13-.02-.2,0-.06,0-.13-.02-.2,0-.08,0-.14-.02-.22,0-.07-.02-.13-.02-.2,0-.08-.02-.16-.03-.23,0-.06,0-.11-.02-.17-.1-1.47-.05-2.92-.14-4.37-.11-1.89-.78-3.55-.52-5.5-.31.5-.62,1.01-.93,1.53.18-1.99.36-3.98.54-5.97-.05.31-.26.59-.54.71.17-1.43.47-2.84.9-4.22-.31.29-.62.58-.93.86.74-2.76,2.17-5.49,2.61-8.27.06-.38.12-.77.19-1.16.05-.32.11-.64.16-.96.02-.07.03-.14.04-.2,0-.02,0-.02,0-.04.07-.38.14-.75.2-1.13,0,0,0-.02,0-.02.06-.38.14-.77.21-1.15.07-.34.14-.68.2-1.01,0-.05.02-.11.03-.16.1-.47.2-.95.3-1.44.08-.35.15-.69.23-1.04.04-.17.07-.33.11-.49.02-.08.04-.14.05-.21.18-.79.36-1.58.56-2.37.05-.2.11-.41.16-.63.18-.73.37-1.46.56-2.19.02-.09.05-.19.08-.29.07-.26.14-.52.22-.8,0,0,.04-.07.05-.08.02-.02.05-.02.08,0,.04,0,.08.02.11.03.02,0,.03.02.05.02,0,0,.02.02.03.02.05.05.09.11.13.17.26.42.58.86.95,1.22.06.05.12.11.2.17.05.06.13.11.19.15,1.1.78,2.43,1.44,3.58,2.18,2.54,1.61,5.15,3.13,7.8,4.55,5.43,2.92,11.08,5.43,16.87,7.53,11.46,4.16,23.51,6.67,35.68,7.4,14.02.84,28.3.77,42.08-2.29,4.46-.99,8.82-2.36,13.13-3.87,8.12-2.86,17.44-6.84,23.44-13.3.09-.1.17-.19.26-.29.23-.26.47-.52.69-.78.02.09.05.17.07.26.02.05.03.11.04.16.02.08.05.16.06.24.02.05.03.1.04.14.22.88.43,1.76.62,2.63.08.33.16.67.23,1.01.26,1.13.49,2.26.71,3.39.07.38.14.76.21,1.14.07.37.14.74.2,1.1.05.25.09.5.13.75.1.58.2,1.15.29,1.72.05.35.11.7.15,1.05.06.38.11.77.17,1.15.05.3.08.6.12.89.05.34.08.67.13,1,.04.34.08.67.11,1.01,0,.02,0,.03,0,.05.02.14.03.28.05.41.02.21.05.41.07.62,0,.03,0,.05,0,.08.02.18.04.36.05.53.33,3.07,1.59,5.76,2.15,8.83-.27-.56-.53-1.13-.8-1.7.17.94.27,1.89.32,2.84Z"/></g><g id="G03L03T01_negro"><path class="cls-27" d="m405.67,329.94c-.23.27-.46.53-.69.78-.88.97-1.8,1.89-2.75,2.77-.31.29-.63.57-.95.85-.93.81-1.89,1.57-2.88,2.31-3.51,2.6-7.33,4.77-11.29,6.73-.04.02-.08.04-.12.06-.48.24-.96.47-1.45.71-2.02.97-4.06,1.9-6.11,2.81-.36.16-.73.33-1.1.49-.58.26-1.16.51-1.75.77-.46.2-.92.4-1.38.6-1,.44-2.02.87-3.04,1.29-.62.26-1.25.52-1.87.78-.09.04-.17.07-.25.1-.16.06-.32.13-.48.19-.45.18-.9.37-1.35.55-.1.04-.2.08-.31.12-.5.2-1,.4-1.51.59-.31.12-.62.24-.93.36-.91.35-1.83.7-2.74,1.03-1.41.53-2.83,1.03-4.24,1.51-4.09,1.39-8.12,2.6-11.97,3.5-.02,0-.04.01-.07.02-.33.08-.66.16-.99.23-.22.05-.44.1-.66.14-1.23.26-2.43.49-3.6.68-.14.03-.29.05-.43.07-.41.07-.82.12-1.23.18-2.21.3-4.29.45-6.24.44-.03,0-.07,0-.1,0-.22,0-.45,0-.67-.01-.31-.01-.61-.02-.92-.04-.23-.01-.47-.03-.7-.04-4.98-.31-9.57-.67-14.27-1.9-1.06-.27-2.12-.59-3.2-.96.88,1.25,1.57,2.65,2.4,3.95-3.51-2.31-6.07-4.24-8.58-7.52-.05-.06-.1-.13-.15-.2,0,.05.01.09.02.14.14,1.19.29,2.39.43,3.58-.14-1.14-6.28-6.26-7.55-6.3-.24.95-.35,2.09-.31,3.12-1.29-1.38-2.51-2.73-3.77-4-1.68-1.7-3.44-3.25-5.56-4.56-.4-.25-.81-.48-1.24-.71-.12-.07-.25-.13-.38-.2-.27-.14-.53-.28-.8-.42-1.35-.71-2.68-1.41-3.97-2.08-.76-.4-1.51-.78-2.25-1.16-.18-.09-.37-.19-.55-.28-.42-.21-.83-.41-1.23-.62-.31-.16-.62-.31-.93-.46-.02,0-.04-.02-.07-.03-.51-.25-1.01-.49-1.5-.72-1.5-.7-3.04-1.43-4.56-2.21-.4-.2-.79-.41-1.18-.62-4.38-2.35-8.54-5.21-11.37-9.25.06-.21.11-.42.17-.63.05-.19.1-.37.15-.56.08-.26.15-.52.22-.78.06-.22.13-.44.2-.67.05-.17.1-.34.15-.51.06-.2.12-.39.18-.59.07-.23.14-.46.21-.69.05-.17.1-.34.16-.51,0-.04.02-.08.03-.11.07-.23.15-.46.22-.7.06-.2.12-.39.18-.58.13-.4.26-.8.39-1.19.27-.83.55-1.65.84-2.48,1.46-4.13,3.04-7.13,5.79-10.69-.13.15-.45.08-.62.12-.27.06-.42.22-.66.37-.64.4-1.31.76-1.97,1.13.59-.63.96-1.47,1.47-2.17.56-.77,1.15-1.52,1.76-2.26.45-.55,1.72-3.24,2-3.38-.48.26-.96.51-1.46.71-.19.08-.39.16-.58.22-.1.03-.61.05-.66.1.46-.54.9-1.08,1.33-1.65.38-.5.65-1.05,1.04-1.54.75-.95,1.29-2.04,1.99-3.01.66-.91,1.34-1.87,1.91-2.85.03-.04.05-.09.08-.14.25-.43.49-.86.74-1.28.04-.06.07-.13.11-.19,0,0,0,0,0-.01.05-.07.09-.14.13-.22.1-.17.2-.34.3-.5.2-.33.39-.65.59-.98.09-.16.19-.31.28-.46.06-.11.13-.22.2-.33,0-.01.02-.03.03-.04.06-.1.12-.21.19-.31l.06-.1s.03-.04.04-.06c.08-.12.15-.24.22-.35.2-.33.41-.65.62-.98h0s.02-.04.02-.04c0,0,0-.02.01-.02,0-.01.02-.02.02-.03,0-.01.01-.02.02-.03,0-.01.01-.02.02-.03,0-.01.01-.02.02-.03.09-.14.18-.29.29-.44.21-.33.42-.65.64-.98.04-.06.07-.12.11-.17.13-.19.26-.38.38-.57.14-.21.28-.41.42-.62.18-.26.36-.53.54-.79.04-.05.08-.11.12-.16.1-.14.2-.29.3-.43.03-.04.06-.09.1-.14.17-.24.33-.47.5-.7.13-.19.27-.37.4-.56.1-.13.19-.27.29-.4,0,0,0,0,.02-.02.02-.03.04-.06.06-.09.02-.03.04-.06.07-.1.22-.31.45-.61.68-.92.02-.03.04-.06.06-.08,1.52-2.02,3.09-3.98,4.7-5.85,1.13-1.31,2.28-2.59,3.46-3.82.28-.3.57-.59.85-.88.03-.04.07-.07.1-.1.18-.18.35-.36.53-.53.15-.16.31-.31.46-.46.07-.08.15-.15.22-.22.07-.08.15-.15.22-.22.13-.13.27-.26.4-.39.11-.1.22-.21.32-.31.2-.18.39-.37.58-.55.24-.22.48-.44.72-.66.03-.03.06-.06.09-.08.13-.12.27-.25.41-.37.39-.35.77-.69,1.17-1.03.21-.18.42-.36.63-.54.39-.33.78-.65,1.18-.98.03-.02.06-.04.09-.07.05-.04.1-.08.15-.12.3-.24.61-.49.91-.72.14-.11.28-.22.43-.33.14-.11.28-.22.43-.33,0,0,0,0,0,0,.28-.21.56-.42.84-.63.17-.13.35-.26.52-.39.04-.03.08-.05.12-.08.37-.27.75-.53,1.12-.79.12-.09.25-.18.38-.26.2-.13.39-.26.58-.39.1-.07.2-.14.31-.2.42-.28.85-.55,1.28-.82.29-.18.58-.36.88-.54.15-.09.29-.18.44-.26.03-.02.07-.04.1-.05.03-.02.06-.04.08-.05.03-.02.06-.04.09-.05.06-.03.11-.07.17-.1.11-.07.23-.14.35-.2.04-.02.08-.05.12-.07,0,0,0,0,0,0,.02-.01.04-.02.06-.04.02-.01.05-.03.08-.04.03-.02.06-.04.1-.05,0,0,0,0,.01,0,.04-.02.09-.05.14-.07.12-.07.24-.13.36-.2.24-.13.49-.26.73-.39.21-.11.43-.22.64-.33.18-.09.36-.18.54-.27.12-.06.24-.12.36-.18.21-.1.42-.2.63-.31,0,0,.01,0,.01,0,.05-.02.11-.05.16-.07.04-.02.09-.04.14-.06.08-.04.16-.08.24-.11,0,0,.02,0,.03-.01.02,0,.04-.02.06-.03.04-.02.09-.04.13-.06,0,0,0,0,.01,0,.01,0,.02,0,.03-.01.08-.04.16-.07.24-.11.16-.07.32-.14.47-.21.01,0,.02,0,.03-.01.26-.11.52-.22.78-.33.26-.11.52-.22.78-.32.26-.1.52-.21.79-.31.13-.05.26-.1.39-.15.13-.05.26-.1.4-.14,0,0,.02,0,.03-.01.05-.02.1-.04.16-.06.2-.07.4-.14.6-.21.07-.02.14-.05.21-.07.19-.06.39-.13.58-.19.1-.03.19-.06.29-.1,1.41-.45,2.85-.78,4.3-1.07.21-.04,2.58-.73,2.68-.64-.62-.59-1.18-1.23-1.68-1.92.2.27,1.59.57,1.99.72.73.29,1.51.67,2.28.84.22.05,2.36-.39,2.26-.47-.69-.57-1.23-1.43-1.25-2.35,1.43,1.2,2.98,2.74,4.89,2.84,1.38.07,2.76.2,4.12.41.33.05.65.1.98.15.63.1,1.25.22,1.86.36.01,0,.02,0,.04,0,.04,0,.08.02.12.03.17.03.34.07.51.11.09.02.17.04.26.06,0,0,.01,0,.02,0,.24.05.48.11.72.18.08.02.17.04.26.06.09.02.18.05.27.07.1.03.2.05.31.08.16.04.33.09.49.14.01,0,.03,0,.04.01.11.04.24.1.34.1.37.11.74.22,1.11.34.06.02.12.04.17.05.2.06.4.13.59.2.1.03.21.07.31.11.15.05.3.1.45.16.15.05.3.1.45.16,0,0,.02,0,.04.01.37.14.74.28,1.11.42.02,0,.03.01.04.02.15.06.31.12.46.19.06.02.12.04.17.07.16.07.33.14.49.2.47.2.93.4,1.4.61.24.11.48.22.71.33.02.01.05.02.08.04.02.01.05.02.08.04.18.09.37.18.55.27.07.04.14.07.22.11.22.11.43.22.65.33.22.11.43.22.64.33.02.01.04.02.07.04.02.01.05.02.08.04.23.12.47.25.7.38.16.09.32.18.48.27,1.42.8,2.82,1.66,4.2,2.59.2.13.39.26.59.4.2.14.4.28.59.41.86.6,1.71,1.23,2.56,1.88.17.13.33.26.5.39.22.17.44.35.66.52.15.12.31.25.46.37.02.02.04.03.06.05.05.04.09.08.14.12.03.02.05.04.08.06.18.15.36.29.54.45.22.18.44.37.66.55.77.66,1.54,1.34,2.3,2.04.2.18.41.37.61.56.27.25.54.51.8.76.21.2.42.41.63.62.22.22.45.44.67.66.16.16.32.32.47.48.13.13.26.26.39.39.32.33.64.66.96.99.16.18.33.35.5.53.76.82,1.51,1.65,2.25,2.51.22.25.44.5.65.76.01.02.02.03.04.04.23.27.46.54.69.81.18.22.37.45.56.67.19.22.37.45.55.68.27.33.53.66.79.99,0,0,0,0,0,0,0,0,0,0,0,0,0,0,.01.01.01.02,0,0,0,0,0,0,.9,1.14,1.79,2.31,2.65,3.5.18.24.35.48.52.72.17.23.34.47.51.71.07.1.14.19.2.29.04.06.09.12.13.19.06.09.13.18.19.27.06.09.13.18.19.27.01.02.02.04.04.05.01.02.02.03.03.05.24.34.47.67.7,1.02.01.02.02.03.03.05.24.36.48.72.72,1.07,0,0,.01.01.01.02.08.13.17.25.25.38,0,0,0,0,0,0,0,0,0,0,0,0,.17.26.34.51.51.78.04.05.07.1.1.16.1.15.2.31.29.46.29.44.57.89.85,1.34.01.02.03.04.04.08.04.06.07.12.11.18.19.3.38.61.56.92,2.04,3.44,5.73,5.94,8.15,9.22-1.13-.53-2.25-1.06-3.38-1.6,2.59,4.48,4.49,9.73,6.27,14.63.03.08.07.17.1.25.84,2.11,1.62,4.23,2.35,6.37.11.32.22.63.33.96l.07.21c.1.33.21.65.32.98.13.38.25.76.37,1.14.02.07.04.14.07.21.11.35.22.7.33,1.05.15.48.3.96.44,1.44.09.31.18.61.27.92.39,1.31.75,2.63,1.09,3.95.08.33.17.65.25.98Z"/><path class="cls-15" d="m389.51,290.68c-1.31-1.46-2.59-3.01-3.88-4.6-.03-.04-.06-.08-.1-.12,0,0,0,0,0,0l-.04-.05c-2.05-2.52-4.14-5.15-6.45-7.73-1.9-2.12-3.72-4.29-6.06-5.9.36.46.58,1.03.62,1.61-.87-1.03-1.81-1.94-2.74-2.9-1.07-1.12-2.36-2.14-3.57-3.11-.98-.79-2.13-1.39-3.27-1.91-1.03-.48-2.01-1.05-3.06-1.49-.71-.3-2.14-.69-2.67-1.25.72.77,1.25,1.63,2.05,2.38-.72-.72-2.09-1.21-2.99-1.71-1.89-1.08-3.89-1.97-5.83-2.93-.06.4-.05.81.04,1.21-.08-.39-1.68-1.45-2.02-1.85-1.53-1.86-2.7-4.11-3.34-6.44.19.27.4.59.69.74.19-.19-.74-3.59-.63-3.56.2.04.38.11.57.18.1.03.21.07.31.11.15.05.3.1.45.16.15.05.3.11.45.16.01,0,.02,0,.04.01.37.14.74.28,1.11.42.02,0,.03.01.05.02.15.06.31.12.46.19.06.02.12.05.17.07.17.07.33.14.49.21.47.2.93.4,1.4.61.24.11.47.22.71.33.05.02.1.05.16.07.18.09.37.18.55.27.07.04.14.07.22.11.22.11.43.22.65.33.22.11.43.22.64.34.05.02.09.05.14.07.23.13.47.25.7.38.16.09.32.18.48.27,1.42.8,2.82,1.66,4.2,2.59.2.13.39.26.59.4.2.14.4.27.59.41.86.6,1.71,1.23,2.56,1.88.17.13.34.26.5.39.44.34.88.7,1.32,1.06.03.02.05.04.08.06.18.15.36.29.54.45.22.18.44.37.66.55.77.66,1.54,1.34,2.3,2.04.2.19.41.38.61.57.27.25.54.51.81.76.21.2.42.41.63.62.22.22.45.44.67.66.16.16.32.32.47.48.13.13.26.26.39.39.32.33.64.66.95.99.17.18.33.35.5.53.76.82,1.51,1.65,2.25,2.51.22.25.44.5.66.76.01.02.02.03.04.05.23.27.46.54.69.81.19.22.37.45.56.67.19.23.37.45.55.68.27.33.53.66.79.99,0,0,0,0,0,0s0,0,0,0c0,0,.01.01.01.02,0,0,0,0,0,0,.9,1.14,1.79,2.31,2.65,3.5.18.24.35.48.52.72.17.23.34.47.51.71.18.25.35.49.52.74.06.09.13.18.19.27.01.02.02.03.03.05.01.02.02.03.03.05.23.34.47.67.7,1.02.01.02.02.03.03.05.24.36.48.71.72,1.07,0,0,.01.01.01.02.09.13.17.26.25.38,0,0,0,0,0,0,0,0,0,0,0,0,.3.46.61.93.9,1.39.29.44.57.89.85,1.34.01.02.03.05.05.07.04.06.07.12.11.18.19.3.38.61.56.92.3.49.59.97.88,1.46Z"/><path class="cls-15" d="m318.86,251.04s-.06,3.94-.34,4.45c.58-.44,1.22-.79,1.9-1.05-.47,1.87-1.77,3.51-3.28,4.67-1.78,1.38-3.76,2.54-5.65,3.78.73-.43,1.23-1.22,1.3-2.05-.08.87-3.88,2.53-4.56,2.98-1.77,1.18-3.98,1.64-5.78,2.82-.39.25-.8.52-1.26.51.47-.28,1.23-.8,1.32-1.35-.82-.13-2.19.75-2.93,1.14-1,.52-1.96,1.11-2.88,1.75-.32.22-.63.44-.95.66-8.85,6.33-14.05,14.46-19.88,21.03,2.36-3.98,4.89-7.8,7.57-11.39.02-.03.04-.06.06-.08,1.52-2.03,3.08-3.98,4.7-5.85,1.13-1.31,2.28-2.59,3.46-3.82,3.15-3.3,6.45-6.29,9.89-8.9,0,0,0,0,0,0,1.97-1.5,3.98-2.86,6.02-4.09.29-.18.59-.35.88-.52.11-.07.23-.14.35-.2.12-.07.25-.14.37-.21.05-.02.09-.05.14-.07.12-.07.24-.13.36-.2.24-.13.49-.26.73-.39.21-.11.43-.23.65-.34.3-.15.6-.31.9-.45.21-.1.42-.21.63-.31,0,0,.01,0,.01,0,.5-.24,1.01-.47,1.52-.69.01,0,.02,0,.03-.01.26-.11.52-.22.78-.33.26-.11.52-.22.78-.32.26-.1.52-.21.79-.31.26-.1.53-.2.79-.29.53-.19,1.06-.37,1.59-.54Z"/></g><g id="G10L04T01_negro"><path class="cls-27" d="m321.49,431.62c-1.93,4.27-6.02,6.33-11.09,6.68-.17.01-.33.02-.5.03-.78.03-1.57.03-2.39-.01-.14,0-.27-.02-.41-.02-4.29-.28-9.03-1.58-13.62-3.65-1.17-.53-2.33-1.14-3.46-1.84-.12-.07-.24-.15-.36-.23-.05-.03-.09-.06-.13-.09-2.64-1.71-5.08-3.85-7-6.31-.14-.18-.27-.35-.4-.53-.13-.18-.26-.36-.39-.54-.23-.34-.45-.68-.67-1.03-1.38-2.25-2.31-4.72-2.62-7.33-.22-1.88-.11-3.83.39-5.83-.34.29-.67.58-1.01.87.88-2.36,2.52-4.25,4.12-6.17,1.54-1.84,3.5-3.34,5.73-4.25,1.94-.78,4.03-1.12,6.11-1.1,2.62.03,5.4.07,7.99.52-.57.32-1.22.51-1.87.55,1.14-.06,2.58.61,3.81,1.29.51.29.98.57,1.38.81,1.83,1.09,3.8,1.8,5.59,2.98.21.14.45.34.43.59-.51-.06-1.02-.09-1.53-.07.98,0,2.46,2.44,3.04,3.08,1.3,1.42,2.52,2.9,3.69,4.42,1.24,1.61,2.43,3.38,3.41,5.22,2.18,4.07,3.34,8.44,1.74,11.98Z"/><path class="cls-15" d="m321.49,431.62c-1.93,4.27-6.02,6.33-11.09,6.68-.17.01-.33.02-.5.03-.78.03-1.57.03-2.39-.01-.14,0-.27-.02-.41-.02-4.28-.29-9.01-1.58-13.59-3.65-1.22-.55-2.39-1.17-3.48-1.84-.12-.07-.24-.15-.36-.23-.05-.03-.09-.06-.13-.09-2.81-1.79-5.18-3.96-7-6.31-.14-.18-.27-.35-.4-.53-.13-.18-.26-.36-.39-.54-.23-.34-.46-.68-.67-1.03-1.38-2.25-2.31-4.72-2.62-7.33.23.56.97,1.32,1.26,1.7,2.62,3.45,5.78,6.47,9.37,8.89,1.88,1.26,3.81,2.46,5.86,3.44,1.07.51,2.18.96,3.31,1.35.88.31,1.84.34,2.75.44-1.16-.13-1.82-2.09-2.58-2.75,1.18,1.02,4.01,1.43,5.51,1.75,2.07.45,4.45.8,6.57.61-.55,0-2.25-1.22-2.56-1.68,3.27.82,7.63-.17,9.73-2.98,1.62-2.17,3.2-5.23,2.07-7.88,2.18,4.07,3.34,8.44,1.74,11.98Z"/></g><g id="G11L05T01_negro"><path class="cls-27" d="m385.47,421.96c-.12-.71-.33-1.41-.63-2.06-.27,1.82-.98,3.54-2,5.12-2.4,3.76-6.48,6.81-10.3,8.81-.19.1-.38.19-.56.29-.19.09-.37.18-.55.27-.18.09-.37.17-.55.26-11.62,5.24-24.16,5.25-28.01-3.28-.32-.71-.57-1.39-.74-2.04-.05-.18-.09-.37-.13-.55h0c-.03-.16-.06-.32-.09-.47-.01-.08-.03-.16-.03-.23-.03-.21-.05-.42-.06-.63-.01-.14-.01-.29-.02-.43,0-.17,0-.34.01-.52,0-.13.02-.27.03-.4.03-.27.07-.53.12-.8,0-.03.01-.06.02-.09.03-.15.07-.3.1-.46.04-.15.08-.31.13-.46.05-.16.1-.32.16-.48.06-.16.12-.32.18-.49.1-.25.2-.49.32-.74.04-.08.08-.17.12-.25.04-.08.08-.17.13-.25.09-.17.17-.34.26-.51.05-.09.09-.17.14-.26.1-.18.2-.35.3-.53.36-.63.77-1.28,1.22-1.96.06-.09.11-.17.18-.26.11-.17.23-.34.35-.51,1.65-2.35,4.51-5.87,7.58-8.95.21-.21.41-.41.62-.61.23-.22.46-.44.69-.66.22-.2.43-.4.66-.59,1.71-1.54,3.56-2.93,5.59-3.94,2.36-1.17,5.02-1.74,7.58-2.22-.39.07-1.03-.68-1.47-.69,1.13.02,2.27.04,3.4.05.3,0,.65-.02.79-.28.28-.51-.56-.87-.85-1.38,5.96,3.14,11.77,4.23,14.8,10.94,1.77,3.92.84,8.14.54,12.27Z"/><path class="cls-15" d="m382.84,425.02c-2.4,3.76-6.48,6.81-10.3,8.81-.19.1-.38.19-.56.29-.19.09-.37.18-.55.27-.18.09-.37.17-.55.26-11.62,5.24-24.16,5.25-28.01-3.28-.32-.71-.57-1.39-.74-2.04-.05-.18-.09-.37-.13-.55h0c-.03-.16-.06-.32-.09-.47-.01-.08-.03-.16-.03-.23-.03-.21-.05-.42-.06-.63-.02-.32-.02-.64,0-.95,0-.13.02-.27.03-.4.03-.27.07-.53.12-.8,0-.03.01-.06.02-.09.03-.15.07-.3.1-.46.04-.15.08-.31.13-.46.05-.16.1-.32.16-.48.06-.16.12-.32.18-.49.1-.25.21-.49.32-.74.04-.08.08-.17.12-.25.04-.08.08-.17.13-.25.09-.17.17-.34.26-.51.05-.09.09-.17.14-.26.1-.18.2-.35.3-.53.36-.63.77-1.28,1.22-1.96.06-.09.11-.17.18-.26.11-.17.23-.34.35-.51,1.65-2.35,4.51-5.87,7.58-8.95.21-.21.41-.41.62-.61.23-.22.46-.44.69-.66.23-.22.46-.43.69-.64-.01.01-.02.03-.03.04-1.74,2.06-3.2,3.99-4.08,5.33-.85,1.3-1.62,2.67-2.39,4.02.61-.58,1.3-1.07,2.04-1.44-.87.44-1.27,1.57-1.69,2.38-.56,1.09-.87,2.24-1.63,3.23.4-.26.8-.55,1.22-.75-.43.2-.38,4.64-.32,5.22.14,1.5.85,2.67,1.47,4.01.13-.48.25-.95.38-1.43-.27,1.01,2.6,2.4,3.26,2.68,1.22.51,2.53.76,3.82,1.01,2.91.56,5.72-.22,8.44-1.22-.42.52-.84,1.03-1.26,1.55,4.46-.45,8.39-1.63,12.53-3.4,2.09-.94,4.25-2.08,5.98-3.35Z"/></g><g id="G12L06T01_negro"><path class="cls-27" d="m293.89,389.22c-6.91,6.32-19.48,3.82-28.08-5.59-.21-.23-.42-.46-.61-.7-4.45-5.31-7.79-14.38-7.23-22.04.15-2.03.56-4.23,1.01-6.19-.49.34-.97.68-1.46,1.02,1.6-2.95,3.64-5.42,6.62-7.02,2.79-1.5,5.94-2.44,9.1-2.68,3.2-.24,6.54-.36,9.68.45,3.58.93,5.24,3.18,7.07,6.25-.54-.3-1.14-.52-1.75-.59,1.24,1.02,2.04,3.61,2.73,5.06-.33-.06-.64-.19-.92-.38,1.46,3.25,2.55,6.35,3.52,9.78,1.15,4.04,2.42,8.13,2.87,12.32.02.19.04.39.06.58.01.1.02.2.03.3.02.18.03.35.04.53.01.22.02.43.03.65,0,.1,0,.19,0,.29.07,3.26-.64,6.03-2.73,7.94Z"/><path class="cls-15" d="m293.89,389.22c-6.91,6.32-19.48,3.82-28.08-5.59-.21-.23-.42-.46-.61-.7-4.45-5.31-7.79-14.38-7.23-22.03.67,6.34,3.64,12.98,7.84,17.56,1.6,1.75,3.01,3.65,4.79,5.26-.06-.36-.11-.73-.17-1.09,6.31,4.93,16.94,7.36,23.46,1.41,1.45-1.33,2.24-3.07,2.56-5.11.02.19.05.39.06.58.01.1.02.2.03.3.02.18.03.35.04.53.01.22.02.43.03.65,0,.1,0,.19,0,.29.07,3.26-.64,6.03-2.73,7.94Z"/></g><g id="G13L07T01_negro"><path class="cls-27" d="m406.15,356.78c.56,2.02.84,4.16.87,6.34.05,3.97-.76,8.09-2.25,11.85,0,.01,0,.02-.01.03-.05.13-.1.26-.16.39-.07.17-.14.34-.21.5-.75,1.75-1.66,3.42-2.71,4.94-.15.22-.3.43-.46.65-.27.38-.56.75-.85,1.11-.29.36-.59.71-.9,1.05-8.6,9.4-21.17,11.9-28.08,5.59-.21-.19-.41-.4-.6-.61-.04-.05-.09-.1-.13-.15-.06-.07-.11-.13-.16-.2-.17-.21-.31-.43-.45-.66-.04-.06-.07-.13-.11-.19-.04-.07-.08-.15-.12-.22-.03-.05-.06-.1-.08-.16-.02-.05-.05-.09-.07-.14-.06-.13-.12-.26-.18-.4-.02-.06-.05-.11-.07-.17s-.04-.1-.06-.15c-.03-.08-.06-.16-.09-.24-.05-.16-.1-.32-.15-.48-.02-.08-.05-.16-.07-.25-.07-.28-.14-.57-.19-.86-.21-1.18-.25-2.41-.19-3.62h0c.05-1.11.19-2.19.35-3.21.35-2.2.77-4.48,1.65-6.53-.26.25-.63.39-.99.38.63-1.31,1.37-2.51,1.76-3.9.44-1.53.89-3.05,1.31-4.59.43-1.58,1.05-3.06,1.54-4.62.27-.87.53-1.74.83-2.6.22-.63.47-1.24.78-1.83.52-1.01,1.63-3.26,2.68-3.76-.43.19-1.56.46-1.84.82.7-.89,1.45-1.68,2.4-2.32.62-.42,2.25-1.56,3.04-1.4-.32-.06-.65-.13-.97-.19,2.19-.9,4.23-.94,6.49-1.18,1.38-.15,2.94.13,4.34.24,4.18.31,8.11,1.61,10.5,3.8,2.05,1.88,3.56,4.92,4.53,7.49-.32-.15-.63-.34-.93-.54Z"/><path class="cls-15" d="m407.02,363.13c.05,3.97-.76,8.09-2.25,11.85,0,.01,0,.02-.01.03-.05.13-.1.26-.16.39-.07.17-.14.34-.21.5-.76,1.74-1.67,3.41-2.71,4.94-.15.22-.3.43-.46.65-.27.38-.56.75-.85,1.11-.29.36-.59.71-.9,1.05-8.6,9.4-21.17,11.9-28.08,5.59-.21-.19-.41-.4-.6-.61-.04-.05-.09-.1-.13-.15-.06-.07-.11-.13-.16-.2-.17-.21-.31-.43-.45-.66-.04-.06-.07-.13-.11-.19-.04-.07-.08-.15-.12-.22-.03-.05-.06-.1-.08-.16-.02-.05-.05-.09-.07-.14-.06-.13-.12-.26-.18-.4-.02-.06-.05-.11-.07-.17s-.04-.1-.06-.15c-.03-.08-.06-.16-.09-.24-.05-.16-.1-.32-.15-.48-.02-.08-.05-.16-.07-.25-.07-.28-.14-.57-.19-.86-.21-1.18-.25-2.41-.19-3.62.15,2.8,2.54,6.29,4.68,7.73-.06-.3-.16-.58-.3-.85,3.53,2.66,9.2,2.46,13.23,1.37,2.77-.75,5.38-2.01,7.76-3.62,2.18-1.47,4.11-2.86,4.99-5.45-.17.85-.35,1.71-.52,2.56,2.79-3.18,4.92-7.06,6.36-11.03.98-2.68,1.8-5.48,2.15-8.32Z"/></g><g id="G04L08T01_gato1"><circle class="cls-7" cx="306.8" cy="310.79" r="7.98"/><circle class="cls-30" cx="306.8" cy="310.79" r="7.56"/><circle class="cls-3" cx="304.52" cy="307.13" r="2.16"/></g><g id="G05L09T01_gato1"><circle class="cls-7" cx="358.81" cy="310.79" r="7.98"/><circle class="cls-30" cx="358.81" cy="310.79" r="7.56"/><circle class="cls-3" cx="356.65" cy="307.13" r="2.16"/></g><g id="G06L10T03_lengua"><path class="cls-1" d="m342.65,328.61c-.15.32-2.4,2.34-2.71,2.56-1.52,1.05-4.45,3.21-7.25,3.21s-5.9-2.16-7.55-3.35c-.32-.23-1.57-1.66-1.92-2.16,0,0,.17-.36.68-.4.55.16,1.12.25,1.7.27h.26c2.1,0,4.22-.87,5.45-2.77.05-.07.09-.14.14-.2.2-.36.33-.74.41-1.12.02-.07.03-.14.04-.22.02-.08.02-.16.02-.24,0-.07.02-.14.02-.21,0-.05,0-.11,0-.17h1.55c0,.12,0,.24,0,.36,0,.17.03.35.07.51,0,.04,0,.08.02.11.02.07.03.13.05.19.02.11.06.2.11.3.04.11.08.23.14.33.2.4.45.77.74,1.09.11.12.23.23.34.35.12.11.24.21.36.3.04.03.08.06.12.08,1.22.88,2.65,1.32,4.1,1.32h.27c.43-.02.86-.07,1.28-.17.64.03,1.2.05,1.59.03Z"/><path class="cls-30" d="m343.58,327.46c-.26.41-.56.79-.92,1.16-2.1,2.17-5.72,3.61-9.85,3.61s-7.46-1.32-9.58-3.35c-.37-.35-.7-.72-.98-1.11.98.6,2.16.93,3.35.98h.26c2.17,0,4.37-.93,5.58-2.98.28-.52.44-1.07.47-1.62,0-.11,0-.22,0-.33h1.55s0,.1,0,.14c0,1.41.86,2.65,1.84,3.39,1.24.93,2.73,1.41,4.22,1.41h.27c1.17-.05,2.33-.38,3.37-1,.14-.08.29-.18.42-.29Z"/><path class="cls-30" d="m345.57,323.81c.06,1.83-1,3.43-2.22,4.35-.22.17-.45.32-.69.45-1.04.62-2.25.98-3.46,1.05-.2.02-.41.02-.6.02-2.17-.02-4.34-.95-5.71-2.94-.07-.1-.13-.2-.18-.3-.53.91-1.26,1.63-2.04,2.12-1.21.72-2.53,1.09-3.85,1.12-.2,0-.4,0-.59,0-1.03-.06-2.04-.33-2.98-.81-.23-.11-.46-.23-.68-.37h0c-.17-.11-.34-.22-.5-.34-1.23-.92-2.28-2.52-2.22-4.35.08,1.79,1.17,3.19,2.41,3.94,0,0,0,0,.02,0,.5.31,1.07.55,1.65.71.55.16,1.12.25,1.7.27h.26c2.1,0,4.22-.87,5.45-2.77.05-.07.09-.14.14-.2.2-.36.33-.74.41-1.12.02-.07.03-.14.04-.22.02-.08.02-.16.02-.24,0-.02,0-.03,0-.05,0-.06,0-.11,0-.17s0-.11,0-.17h1.55s0,.1,0,.14c0,.08,0,.15.02.22,0,.17.03.35.07.51,0,.04,0,.08.02.11.02.07.03.13.05.19.02.11.06.2.11.3.04.11.08.23.14.33.2.4.45.77.74,1.09.11.12.23.23.34.35.12.11.24.21.36.3.04.03.08.06.12.08,1.22.88,2.65,1.32,4.1,1.32h.27c.43-.02.86-.07,1.28-.17.73-.16,1.44-.44,2.09-.83.14-.08.29-.18.42-.29,1.06-.78,1.92-2.06,1.99-3.65Z"/><path class="cls-5" d="m332.79,338.68c-7.18,0-6.53-5.51-6.31-7.9.03-.35.08-.72.16-1.06,0,0,0-.02.02-.03h.15c1.32-.03,2.64-.4,3.85-1.12.78-.49,1.52-1.21,2.04-2.12.05.11.11.2.18.3,1.38,1.99,3.54,2.92,5.71,2.94.03,0,.05,0,.09,0h0c.06.47.06.95.1,1.43.19,2.52,1.04,7.57-5.99,7.57Z"/><path class="cls-6" d="m338.68,329.68c-.19.02-.5.16-.68.22-.26.08-.52.16-.78.22-.11.02-.21.05-.32.08-.77.19-1.65.4-2.33.85-.14.1-.29.21-.41.34-1.06,1.04-1.16,2.65-1.38,4.08-.23-1.31-.23-2.77-1.04-3.84-.68-.86-1.67-1.35-2.68-1.56-.65-.14-1.73-.32-2.41-.37h.15c1.32-.03,2.64-.4,3.85-1.12.78-.49,1.52-1.21,2.04-2.12.05.11.11.2.18.3,1.38,1.99,3.54,2.92,5.71,2.94.03,0,.05,0,.09,0Z"/><path class="cls-6" d="m338.68,329.68c-.19.02-.5.16-.68.22-.26.08-.52.16-.78.22-.11.02-.21.05-.32.08-.77.19-1.65.4-2.33.85-.14.1-.29.21-.41.34-1.06,1.04-1.16,2.65-1.38,4.08-.23-1.31-.23-2.77-1.04-3.84-.68-.86-1.67-1.35-2.68-1.56-.65-.14-1.73-.32-2.41-.37h.15c1.32-.03,2.64-.4,3.85-1.12.78-.49,1.52-1.21,2.04-2.12.05.11.11.2.18.3,1.38,1.99,3.54,2.92,5.71,2.94.03,0,.05,0,.09,0Z"/></g><g id="G07L11T01_rosa"><path class="cls-11" d="m336.97,321.59c0,1.85-3.35,4.03-4.27,4.03-.87,0-4.27-2.12-4.27-4.03,0-1.36,1.91-1.34,4.27-1.34s4.27-.01,4.27,1.34Z"/><g class="cls-18"><path class="cls-21" d="m332.69,324.66c-.85,0-4.09-1.51-4.27-2.91.18,1.86,3.42,3.87,4.27,3.87.89,0,4.09-2.06,4.27-3.87-.18,1.36-3.37,2.91-4.27,2.91Z"/></g><g id="bigotes-rubor"><circle id="rubor_D" class="cls-5" cx="377.1" cy="327.58" r="8.56"/><circle id="rubor_I" class="cls-5" cx="288.43" cy="327.58" r="8.56"/><g id="bigotees"><path class="cls-30" d="m344.94,320.01c11.2-5.09,23.66-7.54,35.95-7.06-12.27.49-24.41,2.87-35.95,7.06h0Z"/><path class="cls-30" d="m348.27,322.18c12.02-1.62,24.37-1.09,36.21,1.56-11.99-1.7-24.11-2.23-36.21-1.56h0Z"/><path class="cls-30" d="m320.33,320.01c-11.55-4.19-23.68-6.57-35.95-7.06,12.3-.48,24.75,1.97,35.95,7.06h0Z"/><path class="cls-30" d="m317.01,322.18c-12.1-.67-24.21-.14-36.21,1.56,11.83-2.66,24.19-3.19,36.21-1.56h0Z"/></g></g></g><g id="G08L12T01_negro"><path class="cls-27" d="m313.12,259.65c-1.35.67-2.68,1.39-3.97,2.17.19-.25.38-.5.57-.75-1.61.75-3.25,1.22-4.87,1.96-1.76.81-3.48,1.7-5.16,2.66-1.43.82-2.85,1.66-4.23,2.57s-2.35,2.25-3.43,3.39c.15-.4.3-.8.44-1.2-2.53,2.46-5.24,4.67-7.63,7.3-1,1.1-1.96,2.23-2.87,3.4-.91,1.17-1.42,2.54-2.02,3.9-.02-.32,0-.64.05-.95-.66.7-1.17,1.54-1.5,2.44-.44-2.91-.03-6.15.26-9.07.31-3.09.77-6.16,1.34-9.21,1.12-5.97,2.63-11.9,4.66-17.62.59-1.67,1.18-3.35,1.88-4.98.34-.8.71-1.6,1.12-2.37.23-.43,1.08-1.51.07-1.44.32-.53,1.17-1.74,1.8-1.92-.47.14-.93.27-1.4.41,5.91-6.39,16.93,1.93,21.96,5.8,1.55,1.19,3.07,2.44,4.34,3.94.63.75,1.19,1.55,1.62,2.43.34.71.93,1.81.84,2.61.2-.16.41-.32.61-.48-.13.57-.34,1.12-.62,1.63-.14.26-.3.5-.45.75-.67,1.05-1.75,2.16-2.76,2.89.11-.24.22-.49.32-.73-.32.15-.63.3-.95.46Z"/><path class="cls-25" d="m308.05,258.13c-.06-.02-.11-.04-.16-.06-1.57-.61-3.13-1.22-4.7-1.83,1.48.92,2.71,2.24,3.53,3.78-2.22-.65-4.44-1.29-6.67-1.94.95.92,1.89,1.83,2.84,2.75.55.53-13.51,7.9-14.16,8.91-.11.17-.21.35-.4.42-.16.06-.34.02-.51-.03-.7-.19-1.4-.38-2.1-.57-.37-.1-.78-.23-.95-.57-.25-.47.1-1.04.52-1.37s.93-.57,1.2-1.03c-.19-.61-.85-1.03-1.47-.94.9-3.68,1.92-7.14,3.22-10.7,1.13-3.09,2.33-5.68,4.48-8.25,4.21-5.05,14.15,3.13,16.76,6.63.85,1.14,1.31,2.65.85,3.99-.12.34-.3.67-.61.86-.49.3-1.11.15-1.67-.06Z"/></g><g id="G09L13T01_negro"><path class="cls-27" d="m352.02,259.74c1.12.53,2.25,1.1,3.41,1.52.99.36,1.95.84,2.9,1.3-.19-.09-.37-.38-.43-.56.44.09.81.38,1.22.55.49.21.99.42,1.47.65.98.44,1.95.91,2.9,1.4,1.91.98,3.77,2.07,5.56,3.26,1.46.97,2.92,1.96,4.28,3.09,1.01.84,1.97,1.71,2.93,2.61,1.01.94,1.95,1.97,2.82,3.05.88,1.1,1.66,2.17,2.36,3.39-.16-.28-.22-.98-.29-1.31.39.5.84.99,1.2,1.51.8,1.15,1.46,2.45,2.13,3.68.24.44.56.81.85,1.21-.03-.04,0-.36,0-.44-.01-.17.02-.36-.03-.53.56.86,1.19,1.67,1.7,2.57-.27-1.31-.12-2.72-.18-4.05-.07-1.46-.2-2.91-.33-4.36-.27-2.95-.68-5.89-1.2-8.81-.6-3.39-1.4-6.72-1.86-10.12-.12.41-.33.8-.62,1.11-.36-2.8-.95-5.52-1.84-8.19-1.36-4.06-2.87-8.42-5.46-11.89-.67-.91-1.65-2.12-2.88-2.21-4.83-.35-8.38,2.51-12.43,4.48.08-.27.16-.54.24-.82-1.8,1.49-3.59,2.9-5.45,4.34-2.53,1.95-5.47,4.43-6.44,7.62-.61,1.99.23,3.71,1.39,5.31,0-.3,0-.61.01-.91.55.71,1.25,1.19,2.05,1.58Z"/><path class="cls-25" d="m357.13,258.13c.06-.02.11-.04.16-.06,1.57-.61,3.13-1.22,4.7-1.83-1.48.92-2.71,2.24-3.53,3.78,2.22-.65,4.44-1.29,6.67-1.94-.95.92-1.89,1.83-2.84,2.75-.55.53,13.51,7.9,14.16,8.91.11.17.21.35.4.42.16.06.34.02.51-.03.7-.19,1.4-.38,2.1-.57.37-.1.78-.23.95-.57.25-.47-.1-1.04-.52-1.37s-.93-.57-1.2-1.03c.19-.61.85-1.03,1.47-.94-.9-3.68-1.92-7.14-3.22-10.7-1.13-3.09-2.33-5.68-4.48-8.25-4.21-5.05-14.15,3.13-16.76,6.63-.85,1.14-1.31,2.65-.85,3.99.12.34.3.67.61.86.49.3,1.11.15,1.67-.06Z"/></g></g><g><polyline class="cls-19" points="29.46 378 29.46 39 471 39 471 378"/><g><g id="felino" class="cls-18"><g><path class="cls-24" d="m143.6,155.51c-39.21-.02-76.26-3.09-114.4-9.35v-25.08c37.26,15.26,74.83,26.09,114.4,34.42Z"/><path class="cls-24" d="m242.79,68.97c-72.56,13.28-141.4,13.04-213.59-.34v-29.8c70.08,23.88,139.65,33.56,213.59,30.14Z"/><path class="cls-24" d="m140.12,115.9c64.7,2.07,126.38-5.15,188.85-22.07l.04,40.35c-68.29,4.73-122.34-1.96-188.88-18.28Z"/></g></g><g id="felino-2" class="cls-18"><g><path class="cls-24" d="m284.6,314.68c-39.21-.02-76.26-3.09-114.4-9.35v-25.08c37.26,15.26,74.83,26.09,114.4,34.42Z"/><path class="cls-24" d="m383.79,228.14c-72.56,13.28-141.4,13.04-213.59-.34v-29.8c70.08,23.88,139.65,33.56,213.59,30.14Z"/><path class="cls-24" d="m281.12,275.07c64.7,2.07,126.38-5.15,188.85-22.07l.04,40.35c-68.29,4.73-122.34-1.96-188.88-18.28Z"/></g></g><circle class="cls-31" cx="363.5" cy="38.5" r="6.5"/><circle class="cls-31" cx="471.5" cy="261.5" r="6.5"/><circle class="cls-31" cx="29.5" cy="261.5" r="6.5"/></g></g><g><path class="cls-23" d="m225.37,358.03c0,5.57-.52,11-1.5,16.25h0c-1.76,9.36-4.99,18.12-9.44,25.98h0c-2.78,4.93-6.04,9.5-9.7,13.65,0,0,0,0,0,0-13.37,15.15-32.13,24.57-52.9,24.57s-39.02-9.17-52.36-23.96c0,0,0,0,0,0-3.78-4.19-7.13-8.82-10-13.83,0,0,0,0,0,0-3.2-5.59-5.79-11.64-7.67-18.04h0c-1.23-4.2-2.16-8.55-2.75-13.02h0c-.5-3.79-.76-7.67-.76-11.61,0-5.99.6-12.55,1.73-19.41.83-5.05,1.96-10.25,3.35-15.53,2.2-8.33,5.06-16.82,8.49-25.05,2.46-5.9,5.21-11.67,8.22-17.15,13.29-24.22,31.57-42.88,51.75-42.88,12.98,0,25.18,7.72,35.76,19.67,3.25,3.67,6.35,7.74,9.28,12.12,2.36,3.52,4.6,7.24,6.72,11.1h0c3,5.47,5.75,11.23,8.2,17.11,8.06,19.33,12.99,40.1,13.53,56.96.03,1.03.05,2.04.05,3.04Z"/><g><path class="cls-32" d="m81.79,382.65h0c-1.23-4.2-2.16-8.55-2.75-13.02,7.54,12.87,32.23,20.11,52.91,24.02-34.33-1.43-46.12-7.28-50.17-11Z"/><path class="cls-32" d="m196.87,269.81c-3.15,4.25-26.73,5.62-47.08,2.17,26.98-1.73,38.81-8.21,37.8-14.28,3.25,3.67,6.35,7.74,9.28,12.12Z"/><path class="cls-32" d="m211.78,298.02c-2.15,5.52-14.15,10.61-33.44,13.2-29.92,4.02-66.08.53-80.75-7.81-3.06-1.74-4.95-3.55-5.74-5.37,2.46-5.9,5.21-11.67,8.22-17.15.56,1.71,2.22,3.42,5.1,5.06,12.63,7.17,43.74,10.18,69.49,6.72,17.07-2.29,27.5-6.86,28.91-11.77,3,5.47,5.75,11.23,8.2,17.11Z"/><path class="cls-32" d="m214.43,400.27c-2.78,4.93-6.04,9.5-9.7,13.64,0,0,0,0,0,0-4.65,3.77-14.49,7.04-28.43,8.91-27.86,3.75-61.52.49-75.18-7.27-.6-.34-1.15-.68-1.65-1.03,0,0,0,0,0,0-3.78-4.19-7.13-8.82-10-13.83.93.78,2.05,1.54,3.38,2.3,15.91,9.04,55.11,12.83,87.55,8.46,17.21-2.31,29.07-6.46,34.03-11.19Z"/><path class="cls-32" d="m206.83,340.78c-44.48,17.29-116.65,10.6-126.81-2.15.83-5.05,1.96-10.25,3.35-15.53,7.69,20.08,85.49,27.36,123.46,17.68Z"/><path class="cls-32" d="m225.37,358.03c0,5.57-.52,11-1.5,16.25h0c-8.08,5.35-50.22,8.81-96.43-2.95,50.31,4.21,90.6-4.89,97.88-16.34.03,1.03.05,2.04.05,3.04Z"/></g><path class="cls-17" d="m203.59,412.55c3.57-4.05,6.75-8.51,9.47-13.32h0c4.34-7.68,7.5-16.23,9.21-25.37h0c.96-5.13,1.46-10.43,1.46-15.87,0-.97-.02-1.96-.05-2.97,0-.11,0-.22-.01-.33-12.72,12.04-29.3,19.33-47.43,19.33-40.06,0-72.53-35.53-72.53-79.36,0-5.51.51-11.5,1.49-17.78-6.15,9.86-11.43,21.01-15.58,32.4-1.72,4.86-3.23,9.76-4.5,14.6-1.36,5.15-2.46,10.23-3.27,15.16-1.11,6.7-1.69,13.1-1.69,18.94,0,3.85.25,7.63.74,11.33h0c.57,4.36,1.48,8.61,2.68,12.71h0c1.83,6.25,4.36,12.15,7.49,17.61,0,0,0,0,0,0,2.79,4.89,6.07,9.41,9.76,13.5,0,0,0,0,0,0,13.02,14.44,31.11,23.39,51.11,23.39s38.59-9.2,51.64-23.99c0,0,0,0,0,0Z"/></g></g></g></g></g></svg>