<?xml version="1.0" encoding="UTF-8"?><svg xmlns="http://www.w3.org/2000/svg" xmlns:xlink="http://www.w3.org/1999/xlink" viewBox="0 0 500 503"><defs><style>.cls-1{fill:#e8f8fe;}.cls-2{fill:#fff;}.cls-3{fill:#cacaca;}.cls-4{fill:#f6f6f6;}.cls-5{stroke-width:1.71px;}.cls-5,.cls-6{stroke:#1d1d1b;}.cls-5,.cls-6,.cls-7{stroke-miterlimit:10;}.cls-5,.cls-6,.cls-7,.cls-8{fill:none;}.cls-9,.cls-10,.cls-11,.cls-12,.cls-13,.cls-14,.cls-15,.cls-16,.cls-17{mix-blend-mode:multiply;}.cls-9,.cls-18{fill:#ca9e67;}.cls-19{fill:#575756;}.cls-20{fill:#b2b2b2;}.cls-21{fill:#a6a6a6;}.cls-22{isolation:isolate;}.cls-10,.cls-23{fill:#683539;}.cls-24{fill:#fbd58f;}.cls-25,.cls-11{fill:#f7f7eb;}.cls-6{stroke-width:1.08px;}.cls-26{fill:#e8b47c;}.cls-12{fill:url(#Degradado_sin_nombre_5);}.cls-7{stroke:#fff;stroke-width:3px;}.cls-27{fill:#edb0e2;}.cls-13{fill:#f1f1f1;}.cls-28{fill:#d1dee4;}.cls-29{fill:#3c3c3b;}.cls-30{clip-path:url(#clippath);}.cls-14{opacity:.22;}.cls-31{fill:#cceaf0;}.cls-32{fill:#b17f4a;}.cls-15{fill:#dadada;}.cls-16{fill:#e4e4e4;}.cls-33{fill:#fff061;}.cls-34{fill:#4da7bc;}.cls-35{fill:#a06013;}.cls-36{fill:#1d1d1b;}</style><clipPath id="clippath"><rect class="cls-8" width="500" height="503"/></clipPath><linearGradient id="Degradado_sin_nombre_5" x1="249.15" y1="612.07" x2="250.44" y2="383.91" gradientUnits="userSpaceOnUse"><stop offset="0" stop-color="#fff"/><stop offset=".32" stop-color="#fcfcfc"/><stop offset=".52" stop-color="#f3f3f3"/><stop offset=".69" stop-color="#e5e5e5"/><stop offset=".84" stop-color="#d0d0d0"/><stop offset=".97" stop-color="#b6b6b6"/><stop offset="1" stop-color="#b0b0b0"/></linearGradient></defs><g class="cls-22"><g id="Capa_2"><g id="Capa_1-2"><g class="cls-30"><rect id="pared" class="cls-28" width="500" height="378"/><rect id="suelo" class="cls-31" x="-.34" y="382" width="500.34" height="219"/><rect id="suelo-2" class="cls-12" x="-.34" y="382" width="500.34" height="219"/><g id="alfombra"><polygon class="cls-16" points="539 601 -1 601 -.99 530.96 108.8 402.83 370.99 402 499 553.62 539 601"/><polygon id="alfombra-2" class="cls-24" points="536.38 601 -1.38 601 -.99 533.38 110.31 402.24 369.84 402 499 556.33 536.38 601"/><polygon class="cls-13" points="396.98 434.43 55.55 466.86 110.31 402.24 369.84 402 396.98 434.43"/></g><g id="zocalo"><rect class="cls-3" y="378.13" width="500" height="24.06"/><rect class="cls-21" y="399.79" width="500" height="2.4"/><rect class="cls-1" y="375.49" width="500" height="2.4"/></g><g><polyline class="cls-7" points="29.46 378 29.46 39 471 39 471 378"/><g><g><polygon class="cls-13" points="29.35 82.79 59.51 130.27 90.95 56.5 122.89 115.23 155.08 49 187.41 115.04 219.18 56.57 250.7 130.22 280.87 82.79 250.72 162.8 219.17 108.84 187.41 177.98 155.11 115.78 122.85 178 91.09 108.41 59.51 162.72 29.35 82.79 29.35 82.79"/><polygon class="cls-13" points="218.35 244.79 248.51 292.27 279.95 218.5 311.89 277.23 344.08 211 376.41 277.04 408.18 218.57 439.7 292.22 469.87 244.79 439.72 324.8 408.17 270.84 376.41 339.98 344.11 277.78 311.85 340 280.09 270.41 248.51 324.72 218.35 244.79 218.35 244.79"/></g><polyline class="cls-7" points="29.46 378 29.46 39 471 39 471 378"/></g></g><ellipse class="cls-14" cx="348" cy="429.5" rx="93" ry="14.5"/><ellipse class="cls-14" cx="128" cy="429.5" rx="93" ry="14.5"/><g><g id="G01L01T0101_labrador_sin"><path class="cls-18" d="m225.15,340.21s-.04.08-.06.12c3.21-1.54,6.2-3.52,8.87-5.88-1.43,3.11-2.9,6.18-4.42,9.23-1.37,2.71-3.21,5.3-5.08,7.73-.63.82-6.04,8.18-6.76,7.88.41.17,4.15-1.22,4.28-1.58-.78,2.05-2.46,3.82-3.88,5.46-5.61,6.48-11.43,12.61-17.58,18.55-.38.36-.76.73-1.14,1.09-.28.26-.55.53-.83.79-6.43,6.09-13.07,12.32-21.28,15.65-.11.04-.21.08-.32.12-1.59.56-3.27.5-4.64-.07,0,0-.02,0-.02-.01-1.15-.48-2.07-1.33-2.54-2.47,0-.02-.01-.03-.02-.05-.4-1-.44-2.22.03-3.61,1.25-3.68,5.9-7.98,8.86-11.26.32-.35.61-.68.88-1,6.56-7.83,12.43-16.26,17.4-25.19,3.84-6.9,10.73-17.33,11.13-25.42-.08,1.71.1,3.44.55,5.1,4.36-15.66,7.39-31.51,11.97-47.12.1-.37.24-.76.43-1.09.26-.46.61-.82,1.12-.89.41-.05.81.11,1.17.3.39.21.77.45,1.14.72,1.15.83,2.22,1.95,3.19,3.27,1.54,2.09,2.84,4.72,3.85,7.59.75,2.12,1.33,4.38,1.73,6.67.04.2.07.41.1.62.04.24.08.49.11.73,1.05,7.22.25,14.48-3.08,18.31-.09.1-.18.2-.27.3,1.39-1.47,2.79-2.94,4.18-4.41-.06.23-.13.45-.2.68-1.91,6.3-4.95,11.81-8.02,17.54-.29.54-.58,1.09-.87,1.64Z"/><path class="cls-9" d="m195.17,372.27c9.24-8.16,16.61-18.72,23.34-28.82,2.81-4.22,5.21-8.6,7.79-12.96-1.28.9-2.53,1.49-3.91,2.14-.52.25-3.16,1.11-3.35,1.4,3.75-5.46,6.95-11.29,9.55-17.39-1.24,1.54-3.32,2.23-4.68,3.74,3.28-3.66,3.53-8.4,3.97-13.03.26-2.78.34-5.6.04-8.38-.25-2.28-.44-4.79-1.6-6.84-.53.75-.98,1.62-1.58,2.36.74-2.52.14-4.72-.3-7.2,1.15.83,2.22,1.95,3.19,3.27,1.54,2.09,2.84,4.72,3.85,7.59.66,2.2,1.32,4.4,1.73,6.67.04.2.07.41.1.62,0,.03.01.05.01.08.03.21.07.43.1.65.87,5.85,1.04,13.64-3.08,18.31-.09.1-.18.2-.27.3,1.39-1.47,2.79-2.94,4.18-4.41-.06.23-.13.45-.2.68-1.84,6.18-4.55,12.1-8.02,17.54-.4.62-.81,1.25-1.23,1.86.12-.08.24-.15.35-.22-.02.04-.04.08-.06.12,3.21-1.54,6.2-3.52,8.87-5.88-1.43,3.11-2.9,6.18-4.42,9.23-1.37,2.71-3.21,5.3-5.08,7.73-.63.82-6.04,8.18-6.76,7.88.41.17,4.15-1.22,4.28-1.58-.78,2.05-2.46,3.82-3.88,5.46-5.61,6.48-11.43,12.61-17.58,18.55-.38.36-.76.73-1.14,1.09-.28.26-.55.53-.83.79-6.43,6.09-13.07,12.32-21.28,15.65-.11.04-.21.08-.32.12-1.76.64-3.34.54-4.64-.07,0,0-.02,0-.02-.01-1.07-.51-1.94-1.37-2.54-2.47,0-.02-.01-.03-.02-.05-.4-1-.44-2.22.03-3.61,1.25-3.68,5.9-7.98,8.86-11.26,1.06-1.18,3.29-1.4,4.72-1.84,2.3-.72,4.38-1.99,6.33-3.39,1.91-1.36,3.74-2.83,5.5-4.39Z"/></g><g id="G02L02T0101_labrador_sin"><path class="cls-18" d="m207.01,370.85c.03.8.05,1.61.05,2.43-.01,3.01-.31,5.89-.86,8.64-1.07,5.39-3.11,10.28-5.88,14.68,0,.01-.01.03-.02.04-.52.81-1.06,1.61-1.63,2.4-1.81,2.81-3.93,5.45-6.4,7.91-.33.33-.67.66-1.02.99-13.72,12.86-29.93,17.29-48.01,18.18-3.45.17-6.91.27-10.37.28h-.18c-.14,0-.28,0-.42,0-.16,0-.31,0-.46,0-.09,0-.19,0-.28,0-.18,0-.35,0-.53,0h-.48c-.35,0-.71,0-1.07,0-.4,0-.79,0-1.19-.01-.19,0-.39,0-.59,0-.39,0-.79-.02-1.18-.03-.06,0-.12,0-.18,0-.33,0-.67.02-1,.02-.19,0-.39,0-.59,0-.39,0-.79,0-1.19.01-.36,0-.71,0-1.07,0h-.48c-.15,0-.3,0-.45,0-.28,0-.55,0-.82,0-.14,0-.28,0-.42,0h-.18c-3.46,0-6.92-.11-10.37-.28-18.08-.89-34.29-5.32-48.01-18.18-.35-.33-.69-.65-1.02-.99-.15-.15-.31-.31-.46-.46-2.27-2.32-4.24-4.81-5.94-7.44-.43-.59-.84-1.19-1.24-1.8,0,0-.01-.02-.02-.03-2.98-4.55-5.16-9.64-6.28-15.28-.55-2.75-.84-5.63-.86-8.64,0-.74,0-1.48.04-2.2,0-.07,0-.15,0-.22-.02-.62-.04-1.25-.04-1.88,0-.21,0-.42,0-.63,0-.24,0-.47,0-.71,0-.21,0-.43.01-.65,0-.1,0-.2,0-.3,0-.28.01-.55.03-.82,0-.02,0-.04,0-.06.37-8.21,3.73-15.56,5.99-23.37,1.77-6.11-.15-13.59-.64-19.91-.53-6.84-1.06-13.71-.62-20.55.62-9.7,2.52-21.58,7.39-30.15.69-1.21,1.39-2.43,2.09-3.63.3-.51.59-1.01.89-1.52.06-.1.12-.2.17-.29.89-1.5,1.8-2.99,2.74-4.47,0-.01.02-.03.03-.04,1.12-1.78,2.27-3.54,3.45-5.27.38-.55.76-1.1,1.14-1.64.46-.65.93-1.3,1.4-1.95.01-.02.03-.03.04-.05.13-.18.27-.37.4-.55.25-.33.5-.67.75-1,7.05-9.3,15.38-17.4,26.07-22.7,7.29-3.62,15.27-5.47,23.32-6.37,8.83-.98,17.79-.56,26.52,1.05,15.26,2.83,26.39,14.95,34.87,27.24.05.08.1.15.15.23.03.04.06.08.09.13.37.53.73,1.07,1.09,1.6.18.27.36.55.54.82.18.27.36.55.54.82.21.33.43.65.64.98.32.49.63.98.94,1.47.75,1.18,1.48,2.36,2.19,3.54.22.36.44.73.65,1.09.08.12.15.25.22.37.15.25.29.49.43.74.21.37.43.74.64,1.11.21.37.42.74.62,1.12.21.37.41.74.61,1.12.33.6.64,1.21.96,1.81.19.37.38.73.56,1.1.47.93.92,1.86,1.36,2.79,4.42,9.4,7.34,19.27,8.06,30.51.44,6.85-.09,13.71-.62,20.55-.49,6.33-2.41,13.81-.64,19.91.15.5.29,1,.44,1.49,2.23,7.27,5.19,14.19,5.54,21.88,0,.02,0,.04,0,.06,0,.19.01.38.02.58,0,.08,0,.17,0,.25,0,.1,0,.2,0,.3,0,.21,0,.43.01.65,0,.24,0,.47,0,.71,0,.84-.02,1.68-.05,2.51Z"/><path class="cls-9" d="m207.01,370.85c.03.8.05,1.61.05,2.43-.01,3.01-.31,5.89-.86,8.64-1.07,5.39-3.11,10.28-5.88,14.68,0,.01-.01.03-.02.04-1.73,2.65-3.64,5.12-5.67,7.28-13.39,14.26-34.04,21.24-53.22,22.19-3.19.16-6.4.26-9.6.28-.27,0-.54,0-.81,0h-.48c-.35,0-.71,0-1.07,0-.4,0-.79,0-1.19-.01-.19,0-.39,0-.59,0-.45,0-.91-.01-1.36-.02-.26,0-.52-.01-.78-.02l-1.25.03c-.12,0-.24,0-.36,0-.74.01-1.48.02-2.22.03h-.16c-.28,0-.55,0-.82,0-.14,0-.28,0-.42,0h-.18c-3.46,0-6.92-.11-10.37-.28-18.08-.89-34.29-5.32-48.01-18.18-.35-.33-.69-.65-1.02-.99-3.09-3.06-5.61-6.3-7.64-9.71,0,0-.01-.02-.02-.03-4.77-8.02-6.8-16.9-7.1-26.12-.03-.91-.04-1.82-.04-2.73,0-.24,0-.47,0-.71,0-.21,0-.43.01-.65,0-.1,0-.2,0-.3,0-.28.01-.55.03-.82,0-.02,0-.04,0-.06.37-8.21,3.73-15.56,5.99-23.37,5.24,11.42,13.63,21.54,23.23,29.53,9.62,8,20.08,17.36,32.7,19.95-.98-.8-1.19-1.43-1.94-2.31,4.61,1.87,8.77,3.55,13.88,4.27,7.5,1.05,15.08,1.34,22.54-.12,8.22-1.61,13.96-5.69,21.2-9.58,10.23-5.5,19.24-13.04,27.3-22.4,1.84-2.14,4.02-3.89,5.64-6.21.24.79.37,1.65.54,2.48,2.36-2.98,5.62-10.16,4.4-14.1,2.23,7.27,5.19,14.19,5.54,21.88,0,.02,0,.04,0,.06,0,.19.01.38.02.58,0,.08,0,.17,0,.25,0,.1,0,.2,0,.3,0,.21,0,.43.01.65,0,.24,0,.47,0,.71,0,.84-.02,1.68-.05,2.51Z"/><path class="cls-9" d="m194.22,271.45c-.13,1.16-.55,2.31-1.04,3.38-1.09,2.41-2.54,4.66-4.28,6.66.04-.53,0-1.05-.13-1.57-2.96,3.22-6.12,6.49-8.78,9.96-1.08,1.4-2.19,2.35-3.73,3.33-.54.34-5.18,2.34-5.21,2.6.07-.63.13-1.26.2-1.89-2.89,1.96-5.99,3.6-9.25,4.86.12-.84.4-1.66.82-2.39-2.67,1.93-6.26,2.87-9.35,3.9-3.5,1.18-7.17,1.79-10.67,2.96-4.01,1.34-7.67,3.54-11.28,5.71-.76.46-3.61,1.52-3.96,2.26.37-.79.82-1.57,1.4-2.22-.25.1-3.01.74-3.01.26,0-.47-.02-.95-.02-1.42-.79.79-1.62,1.54-2.47,2.25-.54-2.62-2.09-4.08-4.36-5.23-1.83-.92-3.86-1.32-5.86-1.68-4.99-.9-9.94-1.78-14.66-3.7-.18.68.03,1.56.24,2.2-.89-.53-1.78-1.07-2.67-1.6-.05,1.16.45,2.34,1.33,3.1-7.75-1.96-14.95-6.06-20.6-11.72.09.88.34,1.74.74,2.54-2.99-2.57-5.73-5.42-8.17-8.51-.15,1.52.08,3.08.67,4.5-3.89-4.11-6.48-9.32-8.15-14.7-.72-2.34-1.45-4.7-1.77-7.13.3-.51.59-1.01.89-1.52.06-.1.12-.2.17-.29.89-1.5,1.8-2.99,2.74-4.47,0-.01.02-.03.03-.04,1.12-1.78,2.27-3.54,3.45-5.27.38-.55.76-1.1,1.14-1.64.46-.65.93-1.3,1.4-1.95.28,0,.56.03.85.08,3.58.6,6.53,5.93,9.21,8.06,3.27,2.59,6.58,5.17,9.1,8.53-1-1.33-1.79-2.81-2.34-4.38,2.08,1.55,4.21,3.04,6.38,4.46.25.16.5.32.75.49.3.2.61.39.91.58.28.18.57.36.86.53.63.39,1.27.78,1.92,1.16,1.24.74,2.5,1.46,3.77,2.15-1.76-2.04-3.26-4.3-4.44-6.72.65,1.34,5.97,1.67,7.29,2.06,1.81.54,3.41,1.5,5.22,2.02,5.36,1.51,11.54,1.61,17.07,1.61.37,0,.73,0,1.09,0,.63,0,1.26-.02,1.88-.04,1.25-.04,2.5-.1,3.74-.19.62-.04,1.24-.1,1.85-.15,2.47-.23,4.9-.55,7.3-.98.34-.06.69-.12,1.03-.19.34-.06.68-.13,1.02-.2.34-.07.68-.14,1.02-.21.34-.07.68-.15,1.02-.22.33-.08.67-.15,1-.23.34-.08.67-.16,1-.24.34-.08.67-.17,1-.26,3.46-.9,5.97-2.31,9.02-4.17-.19,1.36-.38,2.71-.58,4.06,3.46-2.38,6.91-4.75,10.37-7.13-.25,1.77-.5,3.55-.75,5.32,3.56-3.83,7.85-7.3,11.09-11.38,1.48-1.86,2.62-4.34,3.46-6.6.03.04.06.08.09.13.37.53.73,1.07,1.09,1.6.18.27.36.55.54.82.18.27.36.55.54.82.21.33.43.65.64.98.32.49.63.98.94,1.47.75,1.18,1.48,2.36,2.19,3.54.22.36.44.73.65,1.09.08.12.15.25.22.37.15.25.29.49.43.74.21.37.43.74.64,1.11.21.37.42.74.62,1.12.21.37.41.74.61,1.12.33.6.64,1.21.96,1.81.19.37.38.73.56,1.1.47.93.92,1.86,1.36,2.79Z"/><path class="cls-9" d="m188.98,261.65c-3.74,3.98-8.43,7.52-12.51,11.19-4.11,3.69-8.4,7.21-13.23,9.93-11.14,6.27-23.96,9.72-36.75,9.72s-24.86-3.96-35.77-9.63c-6.07-3.15-11.8-7.11-16.78-11.82-1.44-1.36-2.83-2.78-4.27-4.14-1.84-1.73-3.73-3.39-5.68-5,0-.01.01-.03.02-.04,1.12-1.78,2.27-3.54,3.45-5.27.38-.55.76-1.1,1.14-1.64.47-.67.95-1.34,1.44-2,.35,0,.75.16,1.08.27,2.55.86,6.64,6.09,8.94,7.92,3.27,2.59,6.58,5.17,9.1,8.53-1-1.33-1.79-2.81-2.34-4.38,2.08,1.55,4.21,3.04,6.38,4.46.06.04.13.09.2.13.18.12.37.24.55.35.3.2.61.39.91.58.28.18.57.36.86.53.63.39,1.27.78,1.91,1.16,0,0,0,0,.01,0,1.04.61,3,1.25,3.77,2.15-1.76-2.04-3.26-4.3-4.44-6.72.65,1.34,5.97,1.67,7.29,2.06,1.81.54,3.41,1.5,5.22,2.02,5.36,1.51,11.54,1.61,17.07,1.61.37,0,.73,0,1.09,0,.63,0,1.26-.02,1.88-.04,1.25-.04,2.5-.1,3.74-.19.62-.04,1.24-.1,1.85-.15,2.47-.23,4.9-.55,7.3-.98.34-.06.69-.12,1.03-.19.34-.06.68-.13,1.02-.2.34-.07.68-.14,1.02-.21.34-.07.68-.15,1.02-.22.33-.08.67-.15,1-.23.34-.08.67-.16,1-.24.34-.08.67-.17,1-.26,3.46-.9,5.97-2.31,9.02-4.17-.19,1.36-.38,2.71-.58,4.06,3.46-2.38,6.91-4.75,10.37-7.13-.25,1.77-.5,3.55-.75,5.32,3.56-3.83,7.85-7.3,11.09-11.38.36-.45,2.14-3.65,3.55-6.47.37.53.73,1.07,1.09,1.6.18.27.36.55.54.82.18.27.36.55.54.82.21.33.43.65.64.98.32.49.63.98.94,1.47.75,1.18,1.48,2.36,2.19,3.54.22.36.44.73.65,1.09.06.12.11.24.16.36Z"/></g><g id="G03L03T0101_labrador_sin"><path class="cls-18" d="m126.49,289.58c-27.57,0-68.85-24.76-62.77-54.06,2.8-13.47,8.18-26.64,16.09-37.96.88-1.26,1.79-2.5,2.74-3.72,4.57-5.88,9.95-11.18,16.16-15.31,5.46-3.64,11.64-5.15,17.37-7.84,1-.47,1.97-.97,2.94-1.53.14-.08.28-.16.44-.17.27-.01.5.19.75.3.58.24,1.26-.11,1.62-.62.35-.51.46-1.16.56-1.77.74.78,1.6,1.61,2.67,1.63.69.01,1.33-.32,2-.51.66-.19,1.48-.2,1.93.32.17.19.3.46.55.49.16.02.31-.08.44-.17,1.26-.84,2.43-1.79,3.51-2.85-1.21,1.18,1.42,4.42,2.27,5.04.24.18.47.32.69.42,1.07.53,1.95.37,3.28.6,3.6.6,7.14,2.34,10.34,4.07,6.72,3.63,12.63,8.63,17.67,14.35,2.22,2.51,4.28,5.16,6.19,7.93,7.14,10.36,12.1,22.31,14.75,34.54.2.92.39,1.84.56,2.76,5.41,29.1-33.69,54.06-62.77,54.06Z"/><path id="sombra" class="cls-9" d="m126.49,285.26c-25.02,0-61.33-20.38-63.29-46.05-2.11,27.66,36.88,50.38,63.29,50.38,27.97,0,65.2-23.08,63.19-50.74-1.88,25.7-36.69,46.42-63.19,46.42Z"/><ellipse id="morro" class="cls-26" cx="126.48" cy="246.42" rx="15.08" ry="20.7"/><g id="puntitos"><path class="cls-32" d="m134.78,248.81l.26-.26c.07-.07.12-.14.15-.23.05-.09.07-.18.06-.28,0-.1-.02-.19-.06-.28-.03-.09-.08-.17-.15-.23l-.15-.11c-.11-.07-.24-.1-.37-.1l-.19.03c-.12.03-.23.1-.32.19l-.26.26c-.07.07-.12.14-.15.23-.05.09-.07.18-.06.28,0,.1.02.19.06.28.03.09.08.17.15.23l.15.11c.11.07.24.1.37.1l.19-.03c.12-.03.23-.1.32-.19h0Z"/><path class="cls-32" d="m137.08,245.96h.26c.1,0,.19-.02.28-.06.09-.03.17-.08.23-.15.07-.07.12-.14.15-.23.05-.09.07-.18.06-.28l-.03-.19c-.03-.12-.1-.23-.19-.32l-.15-.11c-.11-.07-.24-.1-.37-.1h-.26c-.1,0-.19.02-.28.06-.09.03-.17.08-.23.15-.07.07-.12.14-.15.23-.05.09-.07.18-.06.28l.03.19c.03.12.1.23.19.32l.15.11c.11.07.24.1.37.1h0Z"/><path class="cls-32" d="m137.6,250.58l.27.24c.07.07.14.12.23.15.09.05.18.07.28.06.1,0,.19-.02.28-.06.09-.03.17-.08.23-.15l.11-.15c.07-.11.1-.24.1-.37l-.03-.19c-.03-.12-.1-.23-.19-.32l-.27-.24c-.07-.07-.14-.12-.23-.15-.09-.05-.18-.07-.28-.06-.1,0-.19.02-.28.06-.09.03-.17.08-.23.15l-.11.15c-.07.11-.1.24-.1.37l.03.19c.03.12.1.23.19.32h0Z"/><path class="cls-32" d="m114.89,245.74v.26c0,.1.02.19.06.28.03.09.08.17.15.23.07.07.14.12.23.15.09.05.18.07.28.06l.19-.03c.12-.03.23-.1.32-.19l.11-.15c.07-.11.1-.24.1-.37v-.26c0-.1-.02-.19-.06-.28-.03-.09-.08-.17-.15-.23-.07-.07-.14-.12-.23-.15-.09-.05-.18-.07-.28-.06l-.19.03c-.12.03-.23.1-.32.19l-.11.15c-.07.11-.1.24-.1.37h0Z"/><path class="cls-32" d="m113.82,250.35l.26.26c.07.07.14.12.23.15.09.05.18.07.28.06.1,0,.19-.02.28-.06.09-.03.17-.08.23-.15l.11-.15c.07-.11.1-.24.1-.37l-.03-.19c-.03-.12-.1-.23-.19-.32l-.26-.26c-.07-.07-.14-.12-.23-.15-.09-.05-.18-.07-.28-.06-.1,0-.19.02-.28.06-.09.03-.17.08-.23.15l-.11.15c-.07.11-.1.24-.1.37l.03.19c.03.12.1.23.19.32h0Z"/><path class="cls-32" d="m119.23,248.81v.26c0,.1.02.19.06.28.03.09.08.17.15.23.07.07.14.12.23.15.09.05.18.07.28.06l.19-.03c.12-.03.23-.1.32-.19l.11-.15c.07-.11.1-.24.1-.37v-.26c0-.1-.02-.19-.06-.28-.03-.09-.08-.17-.15-.23-.07-.07-.14-.12-.23-.15-.09-.05-.18-.07-.28-.06l-.19.03c-.12.03-.23.1-.32.19l-.11.15c-.07.11-.1.24-.1.37h0Z"/></g><g id="cejas"><path class="cls-9" d="m140.97,210.37c-.35,2.17-.4,4.21-.07,6.37-.07-.45,1.12-1.89,1.43-2.3.66-.89,1.45-1.69,2.19-2.52,1.38-1.57,2.9-2.97,4.73-4.01-1.05-.08-2.11-.08-3.16,0,1.82-1.4,3.92-2.44,6.13-3.06-.64.18-1.92-.31-2.58-.46-.89-.2-1.78-.38-2.68-.47-1.59-.15-3.57-.03-4.39,1.58-.78,1.53-1.31,3.18-1.59,4.88Z"/><path class="cls-9" d="m111.7,210.37c.35,2.17.4,4.21.07,6.37.07-.45-1.12-1.89-1.43-2.3-.66-.89-1.45-1.69-2.19-2.52-1.38-1.57-2.9-2.97-4.73-4.01,1.05-.08,2.11-.08,3.16,0-1.82-1.4-3.92-2.44-6.13-3.06.64.18,1.92-.31,2.58-.46.89-.2,1.78-.38,2.68-.47,1.59-.15,3.57-.03,4.39,1.58.78,1.53,1.31,3.18,1.59,4.88Z"/></g></g><g id="G04L04T0101_labrador"><circle class="cls-2" cx="98.34" cy="229.71" r="8.69"/><circle class="cls-34" cx="98.34" cy="229.71" r="7.22"/><circle class="cls-29" cx="98.34" cy="229.71" r="3.99"/><circle class="cls-2" cx="95.85" cy="225.72" r="2.35"/></g><g id="G05L05T0101_labrador"><circle class="cls-2" cx="154.99" cy="229.71" r="8.69"/><circle class="cls-34" cx="154.99" cy="229.71" r="7.22"/><circle class="cls-29" cx="154.99" cy="229.71" r="3.99"/><circle class="cls-2" cx="152.64" cy="225.72" r="2.35"/></g><g id="G06L06T0301_abierta"><line class="cls-5" x1="126.31" y1="242.33" x2="126.31" y2="252.6"/><path class="cls-35" d="m139.3,256.35s2.93-.97,2.93-.96c0,4.7-5.39,12.41-15.99,12.41s-15.99-7.71-15.99-12.41c0-.05,2.93.87,2.94.82,2.48.25,5-.26,7.24-1.54,1.87-1.07,3.96-1.61,6.05-1.61s3.99.49,5.8,1.47l.67.36c1.98,1.07,4.18,1.56,6.35,1.45Z"/><path class="cls-23" d="m140.8,256.19c-.02.09-.04.17-.06.25-.42,1.8-1.62,3.85-3.61,5.58-2.45,2.13-6.09,3.75-10.9,3.75-5.33,0-9.36-2.17-11.83-4.78-1.52-1.6-2.46-3.37-2.74-4.91,0-.04-.02-.09-.03-.13.09.02.18.04.26.06h.02c.26.06.53.1.79.14.16.03.32.04.48.06.62.07,1.25.08,1.87.04h.08c.57-.04,1.12-.11,1.67-.22.19-.03.37-.08.56-.13.2-.05.41-.11.61-.18.52-.16,1.02-.35,1.52-.59.22-.11.46-.21.68-.34.03,0,.05-.02.07-.03.22-.1.44-.2.65-.32.32-.18.65-.33.99-.48.33-.15.67-.27,1.02-.37.2-.07.4-.12.6-.17.1-.03.2-.06.29-.07.16-.04.32-.08.48-.11.03,0,.06,0,.08,0,.21-.04.43-.07.65-.1.48-.06.96-.09,1.45-.09.22,0,.44,0,.66.02.22,0,.45.03.68.06.23.03.46.06.68.1.22.04.45.09.67.14.9.21,1.78.54,2.6.96l.62.31c.18.09.36.18.55.25.05.03.09.05.14.07.36.2.73.36,1.12.52.14.06.27.12.41.16.71.26,1.45.46,2.2.58.13.02.24.04.36.05.7.1,1.4.12,2.12.09.12,0,.22,0,.34-.02.24,0,.5-.04.74-.07.14-.02.28-.04.42-.07Z"/><path class="cls-10" d="m140.74,256.45c-.51,2.17-1.89,4.07-3.54,5.52,1.18-1.08-.25-3.31-1.19-4.05-2.81-2.23-6.16-2.16-9.61-2.16-2.65,0-5.79.06-8.27,1.06-1.68.68-3.96,2.06-3.72,4.18-1.52-1.6-2.46-3.37-2.74-4.91.07-.03.15-.05.25-.07.86-.15,2.51.23,3.14.23h.08c.57-.04,1.12-.11,1.67-.22.19-.03.37-.08.56-.13.2-.05.41-.11.61-.18.52-.16,1.02-.35,1.52-.59.22-.11.46-.21.68-.34.03,0,.05-.02.07-.03.22-.1.44-.2.65-.32.32-.18.65-.33.99-.48.33-.15.67-.27,1.02-.37.2-.07.4-.12.6-.17.1-.03.2-.06.29-.07.16-.04.32-.08.48-.11.03,0,.06,0,.08,0,.21-.04.43-.07.65-.1.48-.06.96-.09,1.45-.09.22,0,.44,0,.66.02.22,0,.45.03.68.06.23.03.46.06.68.1.22.04.45.09.67.14.9.21,1.78.54,2.6.96l.62.31c.18.09.36.18.55.25.05.03.09.05.14.07.36.2.73.36,1.12.52.14.06.27.11.41.16.71.26,1.45.46,2.2.58.13.02.24.04.36.05.12,0,.23.02.36.03.78.02,2.09-.25,2.84-.03.12.02.21.07.3.13.03.02.05.04.06.06Z"/><g><path class="cls-4" d="m118.33,260.08c.17-.1.35-.15.53-.09.21.07.35.27.41.48s.06.43.07.65c.04.72.25,1.41.37,2.12.02.11.04.23,0,.33-.13.38-.8.22-1.08.13-.54-.17-1.49-.64-1.6-1.27-.14-.81.45-1.65,1.03-2.17.08-.07.16-.13.25-.19Z"/><path class="cls-20" d="m119.71,263.24c-.12-.71-.33-1.41-.37-2.12,0-.16-.02-.31-.04-.47-.01.68.1,1.36.15,2.03,0,.11.01.23-.03.33-.17.37-.82.13-1.08.02-.4-.17-1.01-.54-1.3-1-.01.13-.01.26,0,.39.11.63,1.06,1.1,1.6,1.27.27.08.95.25,1.08-.13.04-.11.02-.22,0-.33Z"/></g><g><path class="cls-4" d="m134.25,260.08c-.17-.1-.35-.15-.53-.09-.21.07-.35.27-.41.48s-.06.43-.07.65c-.04.72-.25,1.41-.37,2.12-.02.11-.04.23,0,.33.13.38.8.22,1.08.13.54-.17,1.49-.64,1.6-1.27.14-.81-.45-1.65-1.03-2.17-.08-.07-.16-.13-.25-.19Z"/><path class="cls-20" d="m132.86,263.24c.12-.71.33-1.41.37-2.12,0-.16.02-.31.04-.47.01.68-.1,1.36-.15,2.03,0,.11-.01.23.03.33.17.37.82.13,1.08.02.4-.17,1.01-.54,1.3-1,.01.13.01.26,0,.39-.11.63-1.06,1.1-1.6,1.27-.27.08-.95.25-1.08-.13-.04-.11-.02-.22,0-.33Z"/></g><path class="cls-36" d="m150.56,251.3c-2.66,1.76-5.09,3.96-8.12,5.08-3.05,1.12-7.1.73-9.65-.66-1.61-.88-3.38-1.6-5.23-1.74-.84-.1-1.71-.02-2.55.03,0,0,.12,0,.12,0-.16.03-.68.1-.84.11,0,0,.16-.01.16-.01-.66.12-1.55.38-2.18.63,0,0-1.82.85-1.82.85-3.84,2.25-10.04,1.68-13.84-1.56-1.3-.9-2.62-1.78-3.9-2.71,1.43.69,2.82,1.43,4.23,2.16,3.9,2.49,9.2,2.94,13.09.51,1.46-.78,2.99-1.39,4.35-1.57,0,0-.15.01-.15.01.85-.14,1.55-.2,2.57-.2,1.95.08,3.76.5,5.6,1.44.16.1.68.36.84.46,2.66,1.56,5.92,1.96,8.91,1.2,2.93-.82,5.62-2.76,8.44-4.02h0Z"/></g><g id="G07L07T0101_labrador_G"><g id="rubor"><circle id="rubor_D" class="cls-27" cx="174.91" cy="248" r="9.33"/><circle id="rubor_I" class="cls-27" cx="78.32" cy="248" r="9.33"/></g><path class="cls-19" d="m138.12,240.09c0,.34-.01.67-.04.99,0,.1-.02.19-.03.28-.01.09-.02.18-.04.26-.82,4.68-8.33,7.37-11.38,7.45-.05,0-.1,0-.14,0s-.09,0-.14,0c-.05,0-.1,0-.15,0-3.15-.17-10.42-2.93-11.23-7.48-.02-.09-.03-.17-.04-.26-.02-.1-.03-.19-.04-.29-.03-.3-.05-.61-.04-.94.04-6.34,5.21-10.12,11.63-10.12s11.63,3.78,11.63,10.12Z"/><path class="cls-29" d="m138.08,241.07c0,.1-.02.19-.03.28-.01.09-.02.18-.04.26-.82,4.68-8.33,7.37-11.38,7.45-.05,0-.1,0-.14,0s-.09,0-.14,0c-.05,0-.1,0-.15,0-3.15-.17-10.42-2.93-11.23-7.48-.02-.09-.03-.17-.04-.26-.02-.1-.03-.19-.04-.29.49-5.3,5.49-8.16,11.59-8.16s11.13,2.87,11.59,8.2Z"/><path class="cls-36" d="m126.37,242.24c.79,2.03.76,4.09-.12,6.09-.8-2.03-.75-4.09.12-6.09h0Z"/></g><g id="G08L08T0102_labrador_P"><path class="cls-18" d="m112.33,172.86c0,.07,0,.14,0,.21,0,.04,0,.07,0,.11,0,.05-.01.1-.02.14l-.02-.03c-.02.1-.04.19-.07.29-.07.21-.17.4-.32.58-.03.03-.06.06-.08.09-.03.03-.07.06-.11.09-.52.43-1.25.65-2,.81-.64.14-1.3.24-1.87.37-.08.02-.17.04-.25.07-.19.06-.38.11-.56.17-1.4.48-2.55,1.18-3.56,2.13-.08.08-.15.15-.23.23-.19.19-.36.38-.53.57-.78.9-1.48,1.85-2.13,2.86-.01.02-.03.04-.04.06-.02.02-.04.05-.05.08-.03.05-.06.1-.09.15-.07.11-.14.22-.21.33-.09.15-.18.29-.26.44-.07.1-.12.21-.18.31-.07.12-.14.24-.21.36-.09.15-.18.31-.26.47-.05.08-.1.17-.14.26-.08.15-.17.3-.24.46-.03.06-.06.12-.1.18-.18.34-.35.68-.51,1.03-.05.1-.1.2-.15.3-.12.24-.23.49-.35.73-.11.23-.21.46-.31.69-.18.4-.36.8-.54,1.21-.19.44-.37.87-.56,1.31-.19.45-.37.9-.55,1.34-.09.23-.18.46-.28.68-.14.35-.28.71-.43,1.06-.17.43-.35.86-.52,1.29-.15.36-.3.73-.44,1.09-.33.79-.65,1.58-.98,2.37-.17.39-.34.79-.51,1.18-.17.39-.35.78-.52,1.18-.17.39-.35.78-.53,1.17-.13.29-.27.58-.41.87-.04.1-.09.2-.14.3-.29.6-.59,1.2-.89,1.8-.09.17-.18.35-.27.52-.13.26-.27.51-.4.77-.07.13-.14.27-.22.41-.29.51-.58,1.02-.87,1.53-.18.31-.36.62-.55.94-.24.41-.48.82-.73,1.23-.24.41-.49.81-.74,1.22-.19.3-.37.61-.57.91-.57.91-1.16,1.8-1.75,2.69-.4.59-.8,1.18-1.22,1.76-.13.19-.27.39-.42.58-.14.19-.28.39-.42.58-.42.58-.85,1.14-1.29,1.7-.15.19-.29.38-.44.56-.15.19-.3.37-.45.55-.15.19-.3.37-.45.55-.18.22-.36.43-.54.64-.89,1.05-1.82,2.08-2.78,3.07-3.42,3.53-8.22,8.48-13.63,6.42-.33-.12-.66-.28-.88-.55-.41-.49-.35-1.2-.31-1.84,0-.09.01-.18.01-.26,0-.04,0-.09,0-.13,1.01-15.29-9.01-28.73-8.22-43.93.09-1.74.24-3.54,1.2-5.07,1.29-2.04,3.82-3.24,6.31-4.12,1.59-.56,3.22-1.04,4.85-1.47,1.21-.32,2.42-.61,3.64-.89.23-.05.45-.1.68-.15.61-.14,1.22-.27,1.82-.41,1.88-.42,3.76-.83,5.61-1.3.8-.2,1.6-.46,2.39-.75,3.46-1.26,6.85-3.19,10.29-4.2.46-.13.92-.25,1.38-.35.23-.05.46-.1.69-.13.08-.01.17-.03.26-.04,4.86-.72,10.82-.26,15.22,1.75,1.83.83,3.51,1.99,4.36,3.61.07.13.13.26.19.4.09.21.16.42.22.64.12.44.18.81.19,1.14Z"/><path class="cls-9" d="m112.2,173.58c-.07.21-.17.4-.32.58-.03.03-.06.06-.08.09-.03.03-.07.06-.11.09-.52.43-1.25.65-2,.81-.64.14-1.3.24-1.87.37-.08.02-.17.04-.25.07-.19.06-.38.11-.56.17-1.4.48-2.55,1.18-3.56,2.13-.08.08-.15.15-.23.23-.19.19-.36.38-.53.57-.78.9-1.48,1.85-2.13,2.86-.01.02-.03.04-.04.06-.02.02-.04.05-.05.08-.03.05-.06.1-.09.15-.07.11-.14.22-.21.33-.09.15-.18.29-.26.44-.07.1-.12.21-.18.31-.07.12-.14.24-.21.36-.09.15-.18.31-.26.47-.05.08-.1.17-.14.26-.08.15-.17.3-.24.46-.03.06-.06.12-.1.18-.18.34-.35.68-.51,1.03-.05.1-.1.2-.15.3-.12.24-.23.49-.35.73-.11.23-.21.46-.31.69-.19.4-.36.81-.54,1.21-.19.44-.37.87-.56,1.31-.19.45-.37.9-.55,1.34-.09.23-.18.46-.28.68-.14.35-.28.71-.43,1.06-.17.43-.35.86-.52,1.29-.15.36-.3.73-.44,1.09-.33.79-.65,1.58-.98,2.37-.17.39-.34.79-.51,1.18-.17.39-.35.78-.52,1.18-.17.39-.35.78-.53,1.17-.13.29-.27.58-.41.87-.04.1-.09.2-.14.3-.29.6-.59,1.2-.89,1.8-.09.17-.18.35-.27.52-.13.26-.27.51-.4.77-.07.13-.14.27-.22.41-.29.51-.58,1.02-.87,1.53-.18.31-.36.62-.55.94-.24.41-.48.82-.73,1.23-.24.41-.49.81-.74,1.22-.19.3-.37.61-.57.91-.57.91-1.15,1.81-1.75,2.69-.39.59-.8,1.18-1.22,1.76-.13.19-.27.39-.42.58-.14.19-.28.39-.42.58-.42.58-.85,1.14-1.29,1.7-.15.19-.29.38-.44.56-.15.19-.3.37-.45.55-.15.19-.3.37-.45.55-.18.22-.36.43-.54.64-.89,1.05-1.82,2.08-2.78,3.07-3.42,3.53-8.22,8.48-13.63,6.42-.33-.12-.66-.28-.88-.55-.41-.49-.35-1.2-.31-1.84,0-.09.01-.18.01-.26.16.25.49.69.53.75.34.39.84.62,1.31.79,3.39,1.2,6.49-1.59,8.92-3.58,2.61-2.13,4.87-4.64,7.12-7.13,2.17-2.4,4.41-4.68,6.31-7.34.28-.39.55-.79.82-1.19,2.6-3.92,4.4-8.2,6.04-12.49,1.69-4.39,3.23-8.83,4.63-13.3,1.24-3.96,2.9-7.12,5.77-10.44,1.16-1.35,2.8-2.55,4.66-3.1,1.81-.54,4.09.31,4.73,1.9.06.16.11.31.13.45Z"/></g><g id="G09L09T0102_labrador_P"><path class="cls-18" d="m140.31,172.86c0,.07,0,.14,0,.21,0,.04,0,.07,0,.11,0,.05.01.1.02.14l.02-.03c.02.1.04.19.07.29.07.21.17.4.32.58.03.03.06.06.08.09.03.03.07.06.11.09.52.43,1.25.65,2,.81.64.14,1.3.24,1.87.37.08.02.17.04.25.07.19.06.38.11.56.17,1.4.48,2.55,1.18,3.56,2.13.08.08.15.15.23.23.19.19.36.38.53.57.78.9,1.48,1.85,2.13,2.86.01.02.03.04.04.06.02.02.04.05.05.08.03.05.06.1.09.15.07.11.14.22.21.33.09.15.18.29.26.44.07.1.12.21.18.31.07.12.14.24.21.36.09.15.18.31.26.47.05.08.1.17.14.26.08.15.17.3.24.46.03.06.06.12.1.18.18.34.35.68.51,1.03.05.1.1.2.15.3.12.24.23.49.35.73.11.23.21.46.31.69.18.4.36.8.54,1.21.19.44.37.87.56,1.31.19.45.37.9.55,1.34.09.23.18.46.28.68.14.35.28.71.43,1.06.17.43.35.86.52,1.29.15.36.3.73.44,1.09.33.79.65,1.58.98,2.37.17.39.34.79.51,1.18.17.39.35.78.52,1.18.17.39.35.78.53,1.17.13.29.27.58.41.87.04.1.09.2.14.3.29.6.59,1.2.89,1.8.09.17.18.35.27.52.13.26.27.51.4.77.07.13.14.27.22.41.29.51.58,1.02.87,1.53.18.31.36.62.55.94.24.41.48.82.73,1.23.24.41.49.81.74,1.22.19.3.37.61.57.91.57.91,1.16,1.8,1.75,2.69.4.59.8,1.18,1.22,1.76.13.19.27.39.42.58.14.19.28.39.42.58.42.58.85,1.14,1.29,1.7.15.19.29.38.44.56.15.19.3.37.45.55.15.19.3.37.45.55.18.22.36.43.54.64.89,1.05,1.82,2.08,2.78,3.07,3.42,3.53,8.22,8.48,13.63,6.42.33-.12.66-.28.88-.55.41-.49.35-1.2.31-1.84,0-.09-.01-.18-.01-.26,0-.04,0-.09,0-.13-1.01-15.29,9.01-28.73,8.22-43.93-.09-1.74-.24-3.54-1.2-5.07-1.29-2.04-3.82-3.24-6.31-4.12-1.59-.56-3.22-1.04-4.85-1.47-1.21-.32-2.42-.61-3.64-.89-.23-.05-.45-.1-.68-.15-.61-.14-1.22-.27-1.82-.41-1.88-.42-3.76-.83-5.61-1.3-.8-.2-1.6-.46-2.39-.75-3.46-1.26-6.85-3.19-10.29-4.2-.46-.13-.92-.25-1.38-.35-.23-.05-.46-.1-.69-.13-.08-.01-.17-.03-.26-.04-4.86-.72-10.82-.26-15.22,1.75-1.83.83-3.51,1.99-4.36,3.61-.07.13-.13.26-.19.4-.09.21-.16.42-.22.64-.12.44-.18.81-.19,1.14Z"/><path class="cls-9" d="m140.44,173.58c.07.21.17.4.32.58.03.03.06.06.08.09.03.03.07.06.11.09.52.43,1.25.65,2,.81.64.14,1.3.24,1.87.37.08.02.17.04.25.07.19.06.38.11.56.17,1.4.48,2.55,1.18,3.56,2.13.08.08.15.15.23.23.19.19.36.38.53.57.78.9,1.48,1.85,2.13,2.86.01.02.03.04.04.06.02.02.04.05.05.08.03.05.06.1.09.15.07.11.14.22.21.33.09.15.18.29.26.44.07.1.12.21.18.31.07.12.14.24.21.36.09.15.18.31.26.47.05.08.1.17.14.26.08.15.17.3.24.46.03.06.06.12.1.18.18.34.35.68.51,1.03.05.1.1.2.15.3.12.24.23.49.35.73.11.23.21.46.31.69.19.4.36.81.54,1.21.19.44.37.87.56,1.31.19.45.37.9.55,1.34.09.23.18.46.28.68.14.35.28.71.43,1.06.17.43.35.86.52,1.29.15.36.3.73.44,1.09.33.79.65,1.58.98,2.37.17.39.34.79.51,1.18.17.39.35.78.52,1.18.17.39.35.78.53,1.17.13.29.27.58.41.87.04.1.09.2.14.3.29.6.59,1.2.89,1.8.09.17.18.35.27.52.13.26.27.51.4.77.07.13.14.27.22.41.29.51.58,1.02.87,1.53.18.31.36.62.55.94.24.41.48.82.73,1.23.24.41.49.81.74,1.22.19.3.37.61.57.91.57.91,1.15,1.81,1.75,2.69.39.59.8,1.18,1.22,1.76.13.19.27.39.42.58.14.19.28.39.42.58.42.58.85,1.14,1.29,1.7.15.19.29.38.44.56.15.19.3.37.45.55.15.19.3.37.45.55.18.22.36.43.54.64.89,1.05,1.82,2.08,2.78,3.07,3.42,3.53,8.22,8.48,13.63,6.42.33-.12.66-.28.88-.55.41-.49.35-1.2.31-1.84,0-.09-.01-.18-.01-.26-.16.25-.49.69-.53.75-.34.39-.84.62-1.31.79-3.39,1.2-6.49-1.59-8.92-3.58-2.61-2.13-4.87-4.64-7.12-7.13-2.17-2.4-4.41-4.68-6.31-7.34-.28-.39-.55-.79-.82-1.19-2.6-3.92-4.4-8.2-6.04-12.49-1.69-4.39-3.23-8.83-4.63-13.3-1.24-3.96-2.9-7.12-5.77-10.44-1.16-1.35-2.8-2.55-4.66-3.1-1.81-.54-4.09.31-4.73,1.9-.06.16-.11.31-.13.45Z"/></g><g id="G10L10T0101_labrador_sin"><path class="cls-18" d="m124.82,421.3c-.09.3-.21.59-.33.85-.51,1.11-1.13,1.94-1.38,3.34-.74,4.18-2.06,6.56-5.82,8.8-.86.52-1.58,1.23-2.39,1.8-1.6,1.1-3.72,1.23-5.59,1.18-.15,0-.3-.01-.45-.02-.1,0-.2-.01-.29-.01-.2-.01-.4-.03-.6-.05-.14-.01-.29-.02-.43-.04-.16-.01-.32-.03-.47-.05-3.22-.38-6.39-1.33-9.49-2.24-10.05-2.94-20.27-6.25-29.03-12.16-.12-.09-.25-.17-.38-.26-3.91-2.71-7.47-6-10.35-9.79-1.47-1.94-2.83-3.97-4.04-6.09-.75-1.29-3.04-4.4-3.04-6-.08.82-.15,1.66-.23,2.47-2.08-5.06-3.72-10.3-4.89-15.65-1.07-4.85-1.18-8.99-1.09-13.81.04-1.78.1-3.54.2-5.3.1-2.13.25-4.26.42-6.39-.39.35-.78.71-1.17,1.06.13-.11.17-.65.22-.82.09-.32.17-.64.26-.97.17-.62.35-1.23.54-1.84.38-1.22.79-2.42,1.26-3.61.94-2.35,2.23-4.49,3.39-6.73.25-.48.46-1.08.79-1.51,0,.46.21.89.44,1.29.4.72.83,1.47,1.34,2.12.83,1.07,1.84,1.99,2.73,3.01.13-.58.27-1.16.4-1.74-.38,1.74,9.96,7.55,11.33,8.72,7.01,5.94,13.11,13.25,19.86,19.54-.92-.16-1.84-.31-2.75-.46,1.72,1.09,3.22,2.53,4.38,4.19-.47-.17-.95-.34-1.43-.52,2.39,2.66,4.25,5.93,6.78,8.43,3.72,3.69,7.51,7.06,11.75,9.72,2.29,1.45,4.73,2.69,7.35,3.66.59.22,1.19.42,1.8.62,1.64.51,3.28,1.02,4.75,1.89.2.12.39.24.59.38,2.16,1.48,3.75,3.75,4.58,6.24.64,1.94,1.17,4.75.52,6.75Z"/><path class="cls-9" d="m124.82,421.3c-.09.3-.21.59-.33.85-.51,1.11-1.13,1.94-1.38,3.34-.74,4.18-2.06,6.56-5.82,8.8-.86.52-1.58,1.23-2.39,1.8-1.6,1.1-3.72,1.23-5.59,1.18-.15,0-.3-.01-.45-.02-.1,0-.2-.01-.29-.01-.2-.01-.4-.03-.6-.05-.14-.01-.29-.02-.43-.04-.16-.01-.32-.03-.47-.05-3.22-.38-6.39-1.33-9.49-2.24-10.05-2.94-20.27-6.25-29.03-12.16-.12-.09-.25-.17-.38-.26-3.91-2.71-7.47-6-10.35-9.79-1.47-1.94-2.83-3.97-4.04-6.09-.75-1.29-3.04-4.4-3.04-6-.08.82-.15,1.66-.23,2.47-2.08-5.06-3.72-10.3-4.89-15.65-1.07-4.85-1.18-8.99-1.09-13.81.04-1.78.1-3.54.2-5.3-.14,2.46,1.08,5.64,1.58,8.07.56,2.71.95,5.61,1.89,8.22,1.72,4.83,4.67,9.06,7.91,13,3.95,4.81,8.21,9.07,12.61,13.4-.93-.31-1.86-.63-2.79-.94,5.28,6.66,12.45,11.44,19.73,15.63,7.21,4.15,14.65,8.42,23.37,7.8,2.01-.14,4.92-.98,5.49-3.21.35-1.4-.32-3-1.58-3.73,3.1,1.8,5.43,2.23,7.18-1.68.36-.81.69-1.7.55-2.58-.21-1.29-1.34-2.2-2.39-2.98.67.35,1.33.71,2,1.06.19.11.41.21.63.17.25-.05.42-.29.56-.52.02-.04.04-.09.06-.13,2.04-3.83.02-7.94-1.77-11.56,2.16,1.48,3.75,3.75,4.58,6.24.64,1.94,1.17,4.75.52,6.75Z"/><path class="cls-9" d="m101.92,416.65c-3.75,1.81-7.42,3.23-11.42,4.32-1.1.29-2.58.02-3.56.73,2.67-1.93,5.29-3.9,7.88-5.92,4.15-3.23,9.63-8.43,10.42-14.02,2.29,1.45,4.73,2.69,7.35,3.66-4.36,2.88-12.04,10.51-13.29,11.31.83-.32,1.77-.35,2.62-.08Z"/></g><g id="G11L11T0101_labrador_sin"><path class="cls-18" d="m212.79,376.46c-.81.17-1.71-.36-1.94-1.16.18,1.74.25,3.45.21,5.19v.07c-.4,16.75-6.68,32.5-20.81,41.34-.48.3-.98.61-1.48.89-.51.29-1.02.57-1.55.84-.54.27-1.07.54-1.61.79-9.89,4.61-19.85,9.47-30.77,10.94-.22.03-.45.06-.69.09-3.59.4-7.41.3-11.02-.24-.63-.09-1.25-.2-1.87-.32-1.06-.21-2.3-.47-3.43-.92-.02,0-.03-.01-.04-.02-1.42-.71-2.76-1.59-3.3-3.2-.19-.57-.24-1.19-.6-1.68-.19-.26-.46-.46-.73-.68-.12-.1-.23-.19-.33-.29-.15-.15-.29-.3-.43-.45-.63-.7-1.09-1.49-1.4-2.36-.57-1.48-.7-3.15-.44-4.72.05-.33.12-.67,0-.98-.09-.24-.29-.43-.47-.63-1.67-1.78-1.56-4.62-.74-6.91.94-2.64,2.57-4.69,4.64-6.22.08-.06.16-.12.24-.18,1.46-1.06,3.13-1.86,4.94-2.45,1.62-.53,3.29-.85,4.89-1.41,1.69-.59,3.34-1.26,5.04-1.85,3.44-1.17,6.95-2.16,10.27-3.64,4.8-2.14,8.1-4.96,10.45-9.65.97-1.94,1.7-3.97,2.85-5.82.58-.92,2.96-5.45,3.75-5.77-.71.29-1.42.57-2.13.86,4.39-9.01,12.41-17.02,19.65-23.86,2-1.89,4.35-3.38,6.37-5.28.58-.54,1.13-1.09,1.48-1.8,0,.24,2.08,2.62,2.3,2.95.15.24.31.51.47.76s.32.52.47.77c.4.66.8,1.32,1.15,2,1.12,2.14,2.01,4.42,2.86,6.69,1.13,3.03,1.26,6.16,1.87,9.29.58,3.02,1.39,5.98,1.87,9.03Z"/><path class="cls-9" d="m211.06,380.49v.07c-.4,16.75-6.68,32.5-20.81,41.34-.48.3-.98.61-1.48.89-.51.29-1.02.57-1.55.84-.54.27-1.07.54-1.61.79-9.89,4.61-19.85,9.47-30.77,10.94-.22.03-.45.06-.69.09-3.01.33-6.14.22-9.13-.04-.6-.06-1.23-.12-1.89-.2-1.76-.2-3.65-.55-5.3-1.24-.02,0-.03-.01-.04-.02-1.42-.71-2.76-1.59-3.3-3.2-.19-.57-.24-1.19-.6-1.68-.19-.26-.46-.46-.73-.68-.12-.1-.23-.19-.33-.29-.15-.15-.29-.3-.43-.45-.61-.72-1.01-1.53-1.4-2.36-.57-1.48-.7-3.15-.44-4.72.05-.33.12-.67,0-.98-.09-.24-.29-.43-.47-.63-1.67-1.78-1.56-4.62-.74-6.91.94-2.64,2.57-4.69,4.64-6.22-1.4,1.95-2.39,4.21-2.86,6.57-.33,1.66-.49,3.36.8,4.64,1.08,1.05,2.56,1.32,3.85.45-.62.41-1.23.84-1.85,1.25-.3.2-.61.41-.84.69-.55.67-.58,1.6-.57,2.44.01,1.7.57,4.19,2.71,4.36,1.47.12,2.51-1.17,3.85-1.47-.3.07-1.69,2.08-1.85,2.42-.62,1.33-.22,2.7,1.06,3.41,5.23,2.93,10.02,1.8,15.54.95,6.23-.96,12.59-2.64,17.88-6.16-.39.6-.58,1.33-.54,2.05,2.36-1.94,5.42-2.88,7.6-4.96.15.39.22.81.21,1.22,4.52-3.3,8.92-6.71,13.16-10.37,5.15-4.42,10.83-10.94,13.54-17.17,2.09-4.83,3.7-10.04,5.23-15.12.05-.18.11-.35.16-.54Z"/></g><g id="G12L12T0101_labrador_sin"><path class="cls-18" d="m113.55,363.43c-.83.87-2.03,1.56-3.2,1.27.03,2.58-1.59,5.14-4.06,5.97-.37.14-2.67.15-2.74.23-3.31,3.94-9.59,4.08-13.37.74-.13-.12-.26-.24-.39-.37-.91-.91-1.62-2-2.42-3.01-2.3-2.87-5.39-4.95-8.49-6.87-2.85-1.76-5.56-3.85-8.25-5.84-5.6-4.13-11.04-8.7-14.87-14.58-4.89-7.55-6.3-17.5-6.6-26.69-.01-.29-.02-.59-.02-.87-.01-.27-.02-.54-.02-.81-.02-1.2-.02-2.39-.01-3.56.04-3.68-.04-7.89.99-11.44-.18.64-.66,1.18-1.25,1.45.65-2.18,1.3-4.37,1.95-6.56-.65.6-1.16,1.34-1.52,2.15.38-7.26,4.4-14.33,7.43-20.85.88-1.89,2.1-4.01,3.46-5.6.52.53.92,1.27,1.24,1.94.34.73.71,1.45,1.07,2.18.52,1.03,1.06,2.04,1.55,3.09,1.3,2.79,2.55,5.66,3.74,8.47,1.18,2.78,2.19,6.08,2.87,9.03.23-1.08.24-2.19.05-3.27,1.02,1.92,1.93,3.88,2.81,5.88.69,1.57,1.29,3.17,1.91,4.78.4,1.08.8,2.16,1.19,3.24,1.28,3.59,2.51,7.17,4.08,10.71.29.66.6,1.3,1.02,1.88.41.58.94,1.06,1.46,1.54,4.76,4.33,9.88,8.12,14.59,12.5,4.88,4.56,10.13,8.9,13.93,14.44.04.05.07.11.11.16,1.52,2.23,3.02,5.35,3.72,8.56.81,3.67.56,7.43-1.95,10.08Z"/><path class="cls-9" d="m49.13,313.42c0,.28.01.58.02.87.29,9.18,1.71,19.14,6.6,26.69,3.83,5.88,9.27,10.44,14.87,14.58,2.7,1.99,5.4,4.08,8.25,5.84,3.1,1.92,6.19,4,8.49,6.87.81,1.01,1.52,2.1,2.42,3.01.13.13.26.25.39.37,3.79,3.34,10.06,3.2,13.37-.74.07-.08,2.36-.09,2.74-.23,2.47-.83,4.09-3.39,4.06-5.97,1.17.28,2.37-.4,3.2-1.27,2.51-2.65,2.76-6.41,1.95-10.08-.03,2.33-.67,4.67-1.85,6.68-.49.85-1.11,1.67-1.96,2.18-.64.38-1.81.75-2.52.32-.68-.39-1.23-1.59-1.7-2.22.56,1.03,1.12,2.08,1.33,3.2.31,1.66-.55,3.66-2.05,4.48-2.08,1.14-3.98-.36-5.02-2.18,2.66,4.6-1.94,5.8-5.97,4.17-4.06-1.64-7.4-5.34-10.7-8.11-8.81-7.4-17.11-13.97-22.92-24.11-.06.51-.29,1-.64,1.37-6.13-7.6-9.43-16.49-12.38-25.71Z"/><path class="cls-9" d="m111.67,344.63c-5.84-5.87-11.94-11.21-18.54-16.3-1.93-1.49-3.87-3.01-5.97-4.26-1.11-.66-7.03-2.9-6.24-5.05-.13.37-.27.75-.41,1.12-.24-.9-.47-1.8-.72-2.69-.06.45-.27.89-.61,1.21-.97-3.39-1.62-6.87-2.1-10.36-.21-1.58-.45-3.15-.49-4.74,1.28,3.59,2.51,7.17,4.08,10.71.29.66.6,1.3,1.02,1.88.41.58.94,1.06,1.46,1.54,4.76,4.33,9.88,8.12,14.59,12.5,4.88,4.56,10.13,8.9,13.93,14.44Z"/></g><g id="G13L13T0101_labrador_sin"><path class="cls-18" d="m203.73,309.05c.01,1.16.01,2.35-.01,3.56,0,.27-.01.54-.02.81,0,.28-.01.58-.02.87-.29,9.18-1.71,19.14-6.6,26.69-3.83,5.88-9.27,10.44-14.87,14.58-2.7,1.99-5.4,4.08-8.25,5.84-3.1,1.92-6.19,4-8.49,6.87-.81,1.01-1.52,2.1-2.42,3.01-.13.13-.26.25-.39.37-3.79,3.34-10.06,3.2-13.37-.74-.07-.08-2.36-.09-2.74-.23-2.47-.83-4.09-3.39-4.06-5.97-1.17.28-2.37-.4-3.2-1.27-2.51-2.65-2.76-6.41-1.95-10.08.68-3.09,2.09-6.1,3.56-8.31.05-.08.11-.16.16-.24,3.81-5.63,9.11-10.01,14.04-14.61.9-.84,1.82-1.66,2.74-2.44,3.91-3.4,8-6.56,11.85-10.06.53-.47,1.05-.96,1.46-1.54.42-.58.73-1.22,1.02-1.88,1.61-3.59,2.84-7.23,4.15-10.88.36-1.02.74-2.05,1.12-3.07.62-1.61,1.22-3.21,1.91-4.78.88-2,1.79-3.96,2.81-5.88-.19,1.08-.18,2.19.05,3.27.63-2.73,1.54-5.75,2.61-8.38.08-.22.17-.43.26-.65,1.19-2.82,2.43-5.69,3.74-8.47.48-1.05,1.03-2.06,1.55-3.09.36-.73.73-1.45,1.07-2.18.32-.67.73-1.41,1.24-1.94,1.36,1.59,2.59,3.71,3.46,5.6,2.76,5.93,4.61,12.17,7.44,18.06-.49-.25-.98-.49-1.46-.74.88,2.18.63,4.57.88,6.85.4,3.69.73,7.36.75,11.07Z"/><path class="cls-9" d="m203.7,313.42c0,.28-.01.58-.02.87-.29,9.18-1.71,19.14-6.6,26.69-3.83,5.88-9.27,10.44-14.87,14.58-2.7,1.99-5.4,4.08-8.25,5.84-3.1,1.92-6.19,4-8.49,6.87-.81,1.01-1.52,2.1-2.42,3.01-.13.13-.26.25-.39.37-3.79,3.34-10.06,3.2-13.37-.74-.07-.08-2.36-.09-2.74-.23-2.47-.83-4.09-3.39-4.06-5.97-1.17.28-2.37-.4-3.2-1.27-2.51-2.65-2.76-6.41-1.95-10.08.03,2.33.67,4.67,1.85,6.68.49.85,1.11,1.67,1.96,2.18.64.38,1.81.75,2.52.32.68-.39,1.23-1.59,1.7-2.22-.56,1.03-1.12,2.08-1.33,3.2-.31,1.66.55,3.66,2.05,4.48,2.08,1.14,3.98-.36,5.02-2.18-2.66,4.6,1.94,5.8,5.97,4.17,4.06-1.64,7.4-5.34,10.7-8.11,4.19-3.53,8.38-7.04,12.58-10.57,4.52-3.79,9.12-7.69,12.06-12.8-.6.26-1.19.53-1.79.79,2.74-4.05,5.82-7.78,7.97-12.25,2.11-4.38,3.65-9,5.13-13.63Z"/><path class="cls-9" d="m176.3,303.39c-.55,5.17-1.22,10.17-2.69,15.27-.33-.32-.55-.76-.61-1.21-.24.89-.47,1.79-.72,2.69-.14-.37-.28-.75-.41-1.12.79,2.15-5.13,4.39-6.24,5.05-2.1,1.25-4.04,2.77-5.97,4.26-6.64,5.13-13.36,10.35-18.79,16.71.05-.08.11-.16.16-.24,3.81-5.63,9.11-10.01,14.04-14.61.9-.84,1.82-1.66,2.74-2.44,3.91-3.4,8-6.56,11.85-10.06.53-.47,1.05-.96,1.46-1.54.42-.58.73-1.22,1.02-1.88,1.61-3.59,2.84-7.23,4.15-10.88Z"/></g></g><circle class="cls-33" cx="363.5" cy="38.5" r="6.5"/><circle class="cls-33" cx="471.5" cy="261.5" r="6.5"/><circle class="cls-33" cx="29.5" cy="261.5" r="6.5"/><g><g id="G01L01T010101_labrador_sin_N"><path class="cls-18" d="m475.09,342.95c.27-.03.55-.04.82-.07.41-.04.81-.09,1.23-.11-.46.04-2.86,4.66-3.34,5.44-1.74,2.79-3.29,5.51-5.44,7.89,1.92.52,3.67-.38,5.37-1.36-.25.48-.49.97-.75,1.43-1.75,3.19-3.44,5.44-6.33,7.75-2.31,1.85-4.87,3.47-7.6,4.62-.57.24-6.31,2.62-6.16,2.75.58.6,1.16,1.2,1.75,1.79-1.53.02-3.04-.01-4.57-.11.89.62,1.78,1.24,2.68,1.86-2.37.07-4.75.01-7.1-.19-3.03-.25-7.04-.19-9.78-1.64,2.57,1.36,5.14,2.73,7.71,4.08-5.68,1.29-11.57,1.16-17.21-.33-1.02-.26-2.02-.58-3.02-.93,2.7,1.24,5.42,2.49,8.12,3.74-11.46.85-23.12-2.51-33.02-9.51.97,2.11,1.93,4.21,2.89,6.32-7.38-3.58-14.44-8.15-20.99-13.58.78,2.81,1.97,5.47,3.51,7.81-6.42-4.4-43.9-29.01-37.44-40.57.23-.42.51-.79.81-1.15,1.15-1.31,2.7-2.08,4.31-2.36.23-.04.47-.08.71-.1.18-.02.36-.03.54-.03.63-.01,1.25.04,1.89.16.29.05.58.12.87.2.3.08.59.16.89.26.44.15.88.32,1.32.49.45.19.89.38,1.33.59.3.14.59.3.89.44.44.23.88.46,1.32.69.43.24.87.48,1.3.71.29.16.57.32.86.47.43.24.85.47,1.26.69.29.14.56.3.84.43.27.14.54.27.81.4.13.07.26.13.4.19,5.65,2.55,11.35,4.93,17.09,7.2,1.53.59,3.05,1.2,4.59,1.82.3.12.6.23.91.35,1.73.69,3.44,1.35,5.18,2.02.13.05.26.11.4.16,3.34,1.27,6.75,2.53,10.15,3.65.36.12.74.24,1.1.36.3.09.58.2.88.27.53.18,1.07.34,1.6.51,1.68.51,3.36.97,5.05,1.38,5.77,1.44,11.58,2.33,17.36,2.27,8.2-.07,16.3-1.87,24.18-4.52,3.91-1.32,7.78-2.86,11.63-4.45,3.56-1.48,7.13-3.91,10.86-4.58-.38.07-2.26,3.74-2.65,4.38Z"/><path class="cls-9" d="m477.15,342.77c-.46.04-2.86,4.66-3.34,5.44-1.74,2.79-3.29,5.51-5.44,7.89,1.92.52,3.67-.38,5.37-1.36-.25.48-.49.97-.75,1.43-1.75,3.19-3.44,5.44-6.33,7.75-2.31,1.85-4.87,3.47-7.6,4.62-.57.24-6.31,2.62-6.16,2.75.58.6,1.16,1.2,1.75,1.79-1.53.02-3.04-.01-4.57-.11.89.62,1.78,1.24,2.68,1.86-2.37.07-4.75.01-7.1-.19-3.03-.25-7.04-.19-9.78-1.64,2.57,1.36,5.14,2.73,7.71,4.08-5.68,1.29-11.57,1.16-17.21-.33-1.02-.26-2.02-.58-3.02-.93,2.7,1.24,5.42,2.49,8.12,3.74-11.46.85-23.12-2.51-33.02-9.51.97,2.11,1.93,4.21,2.89,6.32-7.38-3.58-14.44-8.15-20.99-13.58.78,2.81,1.97,5.47,3.51,7.81-6.42-4.4-43.9-29.01-37.44-40.57.23-.42.51-.79.81-1.15,1.21-1.19,2.67-2.04,4.31-2.36.23-.04.47-.08.71-.1.18-.02.36-.03.54-.03.63-.01,1.25.04,1.89.16.29.05.58.12.87.2.3.08.59.16.89.26.44.15.88.32,1.32.49.45.19.89.38,1.33.59.3.14.59.3.89.44.44.23.88.46,1.32.69.43.24.87.48,1.3.71.29.16.57.32.86.47.43.24.85.47,1.26.69.29.14.56.3.84.43.27.14.54.27.81.4.13.07.26.13.4.19,5.65,2.55,11.35,4.93,17.09,7.2,1.53.59,3.05,1.2,4.59,1.82.3.12.6.23.91.35,1.73.69,3.44,1.35,5.18,2.02.13.05.26.11.4.16,3.07,1.19,6.6,2.75,10.15,3.65.36.12.74.24,1.1.36.3.09.58.2.88.27.53.18,1.07.34,1.6.51,1.68.51,3.36.97,5.05,1.38,3.13,7.47,7.46,14.16,14.26,18.8-.39-.26-1.07-2.85-1.07-3.35,8.57,1.88,16.88,2.74,25.6,1.06,4.04-.77,6.72-2.31,10.12-4.56-2.2.37-4.28.55-6.48.73,2.76-1.47,5.53-2.94,8.04-4.8s4.76-4.15,6.21-6.92c-1.11.43-2.47,1.05-3.58.63,3.28-2.64,6.23-5.46,9.1-8.55.41-.04.81-.09,1.23-.11Z"/></g><g id="G10L02T010101_labrador_sin"><path class="cls-18" d="m338.74,347.88c0,.38-.04.95-.12,1.62-.04.53-.12,1.12-.2,1.76-.36,2.96-1.16,5.66-1.99,8.38-.43,1.43-.9,2.93-1.46,4.43-.82,2.19-1.89,4.13-3.08,6.12-.97,1.64-2.22,2.9-3.33,4.42-.46.64-.91,1.27-1.34,1.92-.08.1-.14.2-.21.3-.49.76-.98,1.52-1.44,2.3-.49.84-.98,1.7-1.43,2.62-2.97,5.93-.08,12.24,4.32,16.38-.38.04-.78,0-1.13-.14.49.68.99,1.36,1.48,2.04-.3.14-.67.07-.95-.1.44.99.77,2.12.71,3.23-.01.34-.07.69-.16,1.03-.04.14-.1.27-.16.41-.14.3-.33.58-.58.86-3.13,3.43-7.12,8.51-5.33,13.52,1.23,3.45,3.91,8.02,2.27,11.76-2.45,5.53-10.27,4.52-15.05,4.46-1.45-.02-2.9-.04-4.35-.08h-.25c-.35-.01-.71-.02-1.07-.03-.22,0-.45-.01-.67-.02-.1,0-.19,0-.29-.01-.95-.02-1.9-.05-2.85-.1-1.84-.07-3.66-.14-5.49-.25-.12-.01-.25-.01-.37-.02,0,0-.11,0-.11-.01-.24,0-.52-.01-.8-.02-.33-.02-.67-.03-1.04-.04-.19-.01-.36-.02-.56-.03-2.08-.11-4.66-.31-6.98-.84-.31-.07-.62-.14-.91-.23-.33-.09-.66-.19-.97-.3-.65-.22-1.25-.47-1.79-.78-1.69-.95-2.73-2.33-2.41-4.35.08-.54.26-1.13.56-1.78-.35.02-.7.04-1.05.07.41-.97,1.03-1.84,1.82-2.51-.47-.02-.95-.04-1.42-.07,1.88-3.49,6.35-2.59,9.48-1.98,4.38.86,7.56-3.31,10.77-5.74,3.65-2.77,7.29-5.67,9.85-9.53-.6-.15-1.27-.05-1.8.26,1.2-.73,1.81-3.45,1.67-4.71-.03-.32-.11-.62-.22-.91-.44-1.18-1.38-2.19-2.26-3.04-1.35-1.32-2.93-2.47-4.57-3.57-1.62-1.08-3.29-2.1-4.85-3.16-.31-.2-.62-.41-.91-.62-.59-.42-1.18-.86-1.74-1.3-1.1-.84-2.14-1.7-3.14-2.63-1.29-1.18-2.51-2.45-3.7-3.88-.6-.73-1.18-1.52-1.69-2.35-2.32-3.7-3.69-8.29-3.42-12.53.22-3.4,1.59-6.45,3.24-9.35-.44.15-.89.32-1.34.48.86-1.26,1.71-2.53,2.57-3.79-.47.07-.93.14-1.41.22,3.63-3.81,5.47-9.23,8.43-13.56,1.8-2.64,3.77-5.15,5.74-7.66,3.07-3.92,6.75-7.57,8.24-12.35.52-1.64,3.3-8.95,2.21-10.38,4.27,5.68,11.56,10.4,16.63,15.6.07.07.13.13.19.2,1.57,1.6,3.13,3.21,4.6,4.9,4.08,4.66,6.58,9.13,7.6,15.27.01.07.01.13.01.2Z"/><g class="cls-17"><path class="cls-18" d="m308.31,401.18c-.44-1.18-1.38-2.19-2.26-3.04-1.35-1.32-2.93-2.47-4.57-3.57-1.54-1.15-3.23-2.1-4.85-3.16-.31-.2-.62-.41-.91-.62-.59-.42-1.18-.86-1.74-1.3-1.08-.86-2.11-1.74-3.14-2.63-1.29-1.18-2.51-2.45-3.7-3.88-.6-.73-1.18-1.52-1.69-2.35,1.35,1.15,2.69,2.35,4.08,3.44,1.8,1.41,3.79,2.55,5.58,3.96,2.33,1.84,4.76,3.52,7.13,5.29.23.16.46.32.67.51,1.98,1.7,4.4,3.15,5.21,5.8.15.49.22,1.03.2,1.56Z"/><path class="cls-18" d="m327.68,405.45c-3.13,3.43-7.12,8.51-5.33,13.52,1.23,3.45,3.91,8.02,2.27,11.76-2.45,5.53-10.27,4.52-15.05,4.46-1.45-.02-2.9-.04-4.35-.08h-.25c-.35-.01-.71-.02-1.07-.03-.22,0-.45-.01-.67-.02-.1,0-.19,0-.29-.01-.95-.02-1.9-.05-2.85-.1-1.84-.07-3.66-.14-5.49-.25-.12-.01-.25-.01-.37-.02-.04,0-.08,0-.11-.01-.27-.01-.54-.03-.8-.05-.37-.02-.75-.05-1.11-.09-.19-.01-.37-.03-.56-.05-2.33-.21-4.58-.53-6.86-.92-.32-.04-.64-.1-.96-.16-.33-.05-.65-.11-.98-.18-.53-.1-1.07-.2-1.6-.31h-.02s-.02-.03-.02-.05c0-.01-.01-.01-.01-.02-.05-.13-.1-.26-.13-.4-1.69-.95-2.73-2.33-2.41-4.35.56.7,1.32,1.33,2.15,1.84,1.1.68,2.32,1.13,3.4,1.29.09.01.18.02.26.03.68.09,1.36.12,2.03.12,1.29.03,2.58-.04,3.87-.08.81-.03,1.64-.03,2.45.01.32.02.65.03.97.04.71.04,1.43.09,2.14.11,1.8.1,3.59.16,5.38.21.04.01.1.01.14.01,1.13.03,2.26.07,3.41.08.49.02,1,.03,1.51.03.47.01.95.02,1.42.02,4.78.04,12.6,1.05,15.05-4.47,1.64-3.73-1.04-8.31-2.27-11.76-.95-2.65-.44-5.59,1.12-7.9,1.01-1.49,5.11-5.58,6.57-3.05-.14.3-.33.58-.58.86Z"/><path class="cls-18" d="m338.74,347.88c0,.38-.04.95-.12,1.62-.04.53-.12,1.12-.2,1.76-.36,2.96-1.16,5.66-1.99,8.38-.43,1.43-.9,2.93-1.46,4.43-.82,2.19-1.89,4.13-3.08,6.12-.97,1.64-2.22,2.9-3.33,4.42-.46.64-.91,1.27-1.34,1.92-.08.1-.14.2-.21.3-.54.73-1.02,1.48-1.44,2.3-.49.84-.98,1.7-1.43,2.62-2.97,5.93-.08,12.24,4.32,16.38-.38.04-.78,0-1.13-.14.49.68.99,1.36,1.48,2.04-.3.14-.67.07-.95-.1.44.99.77,2.12.71,3.23-.12.38-.21.75-.16,1.03-.21-1.33-.6-2.66-1.1-3.98-2.75-7.29-8.66-14.47-4.96-21.88,1.67-3.34,2.67-6.55,3.73-10.06-.44.19-.89.38-1.33.57.37-1.12.77-2.22,1.22-3.3-.22.13-.45.27-.67.4,2.87-5.48-1.76-12.01-5.5-15.88-1.9-1.97-3.49-4.71-3.48-7.52.01-3.23.89-6.07,2.48-8.85,1.53-2.66,5.11-4.62,7.71-6.19,1.57,1.6,3.13,3.21,4.6,4.9,4.08,4.66,6.58,9.13,7.6,15.27.01.07.01.13.01.2Z"/></g><g><path class="cls-25" d="m307.99,427.66c.17.13.31.24.31.23-.16.06-.33.08-.5.07,1.54.23,1.19,1.98.24,2.69-.56.42-1.22.69-1.75,1.15-1.51,1.31-1.44,3.63-1.26,5.62-1.28-1.31-2.58-2.67-3.31-4.35s-.78-3.79.35-5.22c.78-.99,2.1-1.45,3.33-1.36.6.05,1.16.23,1.69.5.1.05.56.41.88.66Z"/><path class="cls-11" d="m301.28,431.08c.44,1.78,1.5,3.33,2.54,4.84.15-1.99.47-4.29,2.17-5.33.6-.36,1.3-.52,1.92-.85.39-.21.73-.57.92-.97.15.62-.2,1.44-.77,1.87-.56.42-1.22.69-1.75,1.15-1.51,1.31-1.44,3.63-1.26,5.62-1.28-1.31-2.58-2.67-3.31-4.35-.31-.71-.5-1.5-.52-2.28.02.1.04.19.06.29Z"/><path class="cls-25" d="m297.17,430.65c-.56.42-1.22.69-1.75,1.15-1.51,1.31-1.44,3.63-1.26,5.62-1.28-1.31-2.58-2.67-3.31-4.35s-.78-3.79.35-5.22c.73-.73,1.03-.96,2.06-1.12-.13.21-.22.45-.26.69.7-.44,1.22-1.02,2.06-.86.2.04,2.08.89,1.98,1.01-.06.08-.12.15-.18.23,1.43.64,1.59,1.87.3,2.85Z"/><path class="cls-11" d="m293.39,435.78c-.19-1.99-.25-4.31,1.26-5.62.53-.46,1.19-.73,1.75-1.15.43-.33.7-.68.81-1.04,1.11.67,1.15,1.78-.04,2.68-.56.42-1.22.69-1.75,1.15-1.51,1.31-1.44,3.63-1.26,5.62-1.28-1.31-2.58-2.67-3.31-4.35-.08-.19-.16-.39-.22-.6.75,1.22,1.76,2.28,2.76,3.31Z"/><path class="cls-25" d="m287.61,430.65c-.35.26-.74.46-1.11.69-.22.14-.44.29-.64.46-.54.47-.88,1.07-1.08,1.74-.02.07-.04.12-.05.19-.31,1.15-.23,2.48-.12,3.69-1.29-1.32-2.58-2.67-3.32-4.35-.02-.05-.04-.11-.07-.18-.01-.01-.02-.03-.02-.05,0-.01-.01-.01-.01-.02-.05-.13-.1-.26-.13-.4-.26-.81-.36-1.68-.25-2.52.1-.75.36-1.45.84-2.05.71-.9,1.53-1.08,2.57-1.23.3.1.62.08.89-.05-.16.24-.33.47-.48.71.84-.18,1.7-.46,2.47-.05.24.13.48.31.7.52.08.08.16.16.23.25.08.09.14.18.2.27.05.08.1.15.14.24.05.11.09.23.12.35.14.69-.32,1.36-.88,1.79Z"/><path class="cls-11" d="m287.61,430.65c-.35.26-.74.46-1.11.69-.22.14-.44.29-.64.46-.54.47-.88,1.07-1.08,1.74-.02.07-.04.12-.05.19-.31,1.15-.23,2.48-.12,3.69-1.29-1.32-2.58-2.67-3.32-4.35-.02-.05-.04-.11-.07-.18-.01-.01-.02-.03-.02-.05.01.02.02.03.04.05.73,1.14,1.69,2.14,2.64,3.12-.08-.81-.13-1.69-.07-2.52,0-.04,0-.09.01-.12.07-.78.25-1.53.64-2.15.18-.31.41-.58.68-.82.53-.46,1.19-.73,1.75-1.15.48-.36.89-.92.9-1.51.08.08.16.16.23.25.08.09.14.18.2.27.05.08.1.15.14.24.05.11.09.23.12.35.14.69-.32,1.36-.88,1.79Z"/></g></g><g id="G11L03T010101_labrador_sin"><path class="cls-18" d="m420.39,429.77v.04c0,.2-.01.38-.03.57-.01.14-.03.27-.07.41,0,.01,0,.02-.01.03-.07.31-.18.6-.33.89-.04.08-.09.16-.14.24-1.02,1.53-3.24,2.01-5.07,2.33-.25.04-.51.09-.76.13-2.3.4-4.64.23-6.96.23-.45,0-.91.01-1.36.03-.14,0-.29,0-.43.01-1.24.07-2.49.13-3.74.19-.85.04-1.68.08-2.53.1-.55.02-1.11.03-1.66.05-2.34.07-4.69.11-7.03.15-.58.01-1.18.01-1.76-.01-.14,0-.29,0-.44-.01-.15,0-.32,0-.47-.01h-.03c-.19-.01-.4-.01-.59-.02-.31-.01-.63-.02-.93-.04-.07,0-.12-.01-.19-.01-.49-.02-1-.07-1.53-.11-.22-.01-.45-.04-.67-.07-.04,0-.08-.01-.12-.01-1.86-.2-3.79-.53-5.41-1.07-2.32-.77-3.86-1.87-4.04-4.37-.32-4.14,2.08-6.84,3.41-10.48,1.99-5.44-3.23-9.78-6.08-13.38-.21-.26-.38-.55-.51-.86-.01-.01-.01-.03-.01-.04-.02-.03-.03-.05-.04-.09-.2-.52-.29-1.07-.29-1.63,0-.14.01-.27.02-.42.01-.15.02-.31.04-.45.04-.2.08-.38.13-.57.04-.16.1-.33.15-.49.04-.15.1-.3.15-.45.62-1.66,1.63-3.18,2.63-4.7.27-.41.54-.82.79-1.23.05-.08.1-.15.14-.23.25-.41.48-.81.7-1.22.01-.03.02-.05.04-.09.13-.24.25-.48.35-.73.11-.23.21-.45.3-.68.01-.03.03-.07.04-.11.08-.21.15-.42.21-.63.1-.27.18-.56.24-.86.02-.1.05-.2.08-.3.3-1.16.44-2.36.35-3.62,0-.18-.02-.34-.04-.52-.14-1.26-.54-2.57-1.22-3.95-.18-.36-.36-.7-.56-1.05-1.21-2.15-3.36-4.1-4.31-6.32-.18.2-.38.37-.63.52-.13-.48-.26-.97-.41-1.45-.15.1-.32.19-.47.29-.58-1.99-1.55-3.34-2.57-5.09-.8-1.38-1.52-2.84-2.1-4.34-1.38-3.53-2.12-7.32-2-11.12.15-4.95-1.03-9.73,1.4-14.33.91-1.74,2.08-3.36,3.36-4.91,1.92-2.34,4.14-4.51,6.2-6.62,5.06-5.21,12.34-9.92,16.62-15.6-.68.91.11,2.69.26,3.66.29,1.84.33,3.68.76,5.51.98,4.2,3.51,7.29,6.34,10.2,2.08,2.15,4.14,4.31,6.24,6.44,1.75,1.78,3.73,3.42,5.01,5.59-.55-.19-1.09-.38-1.64-.57,1.18.92,2.03,2.24,2.41,3.69-.33-.18-.67-.35-1.01-.49,2.12,3.25,3.89,7.15,5.11,10.82.36,1.1.75,2.26,1.11,3.47.86,2.76,1.59,5.69,1.59,8.38.14,1.16.19,2.29.11,3.37-.03.54-.1,1.08-.21,1.63-.05.31-.12.6-.2.9-.08.31-.18.62-.27.92-.42,1.25-1.04,2.46-1.89,3.64-.23.32-.47.65-.7.96-.01.01-.02.02-.03.03-.3.4-.6.79-.91,1.18-.1.13-.21.27-.31.4-.77.97-1.59,1.89-2.42,2.81-.19.21-.38.42-.59.63-.91.97-1.89,1.88-2.92,2.76-1.08.91-2.16,1.81-3.25,2.71-1.1.88-2.18,1.78-3.29,2.68-.34.27-.68.55-1.01.81-.16.13-.33.26-.49.38-.16.13-.32.26-.47.4-.95.77-1.84,1.52-2.64,2.32-.27.25-.54.53-.79.81-.25.29-.51.57-.74.87-.25.3-.47.58-.68.86-.83,1.1-1.44,2.43-1.28,3.83.18,1.63,1.3,2.83,1.98,4.27-.3,0-.6-.11-.81-.32.42.69.97,1.3,1.62,1.79-.2.09-.44.06-.61-.07,1.03,1.34,2.18,2.34,3.44,3.46,2.01,1.74,4.05,3.36,6.26,4.84,1.96,1.31,3.7,3.42,6.21,3.6,1.41.11,2.81-.43,4.22-.33,1.62.11,3.09,1.08,4.11,2.33.46.57.84,1.21,1.15,1.87.38.79.69,1.63.95,2.47.14.46.26.96.35,1.44.07.37.11.75.11,1.12Z"/><g class="cls-17"><path class="cls-18" d="m416.31,373.41c-.05.31-.12.6-.2.9-.08.31-.18.62-.27.92-.42,1.25-1.04,2.46-1.89,3.64-.23.32-.47.65-.7.96-.01.01-.02.02-.03.03-.34.33-.63.77-.91,1.18-.1.13-.21.27-.31.4-.77.97-1.59,1.89-2.42,2.81-.19.21-.38.42-.59.63-.91.97-1.89,1.88-2.92,2.76-1.08.91-2.16,1.81-3.25,2.71-1.1.88-2.18,1.78-3.29,2.68-.34.27-.68.55-1.01.81-.16.13-.33.26-.49.38-.16.13-.32.26-.47.4-.95.77-1.84,1.52-2.64,2.32-.27.25-.54.53-.79.81-.25.29-.51.57-.74.87-.24.3-.46.6-.69.92,0-.02,0-.04.01-.07.05-.37.21-.74.35-1.1,1.78-4.2,4.49-6.25,7.89-9.13,2.53-2.13,5.62-4.23,7.57-6.92.02.4.03.78.05,1.18,0-.73.96-1.51,1.41-1.95.02.29-.03.56-.14.81,1.52-1.4,2.98-2.86,4.15-4.56.95-1.36,1.74-2.84,2.33-4.4Z"/><path class="cls-18" d="m375.05,358.44c-1.19,2.91-1.63,6.14-1.18,9.26.26-.35.53-.69.79-1.04-.12,3.54.97,6.71,2.3,9.93.86,2.05,2.64,4.81,2.54,7.12-.25,5.81-4.71,10.46-7.07,15.51-.75,1.58-1.31,3.23-1.52,4.96-.02.12-.04.25-.05.37v.04c-.2-.52-.29-1.07-.29-1.63,0-.14.01-.27.02-.42.01-.15.02-.31.04-.45.04-.2.08-.38.13-.57.04-.16.1-.33.15-.49.04-.15.1-.3.15-.45.62-1.66,1.63-3.18,2.63-4.7.27-.41.54-.82.79-1.23.05-.08.1-.15.14-.23.25-.41.48-.81.7-1.22.01-.03.02-.05.04-.09.12-.24.24-.47.35-.73.11-.22.21-.45.3-.68.01-.03.03-.07.04-.11.08-.2.15-.41.21-.63.1-.27.18-.56.24-.86.02-.1.05-.2.08-.3.3-1.16.44-2.36.35-3.62,0-.18-.02-.34-.04-.52-.14-1.26-.54-2.57-1.22-3.95-.18-.36-.36-.7-.56-1.05-1.21-2.15-3.36-4.1-4.31-6.32-.18.2-.38.37-.63.52-.13-.48-.26-.97-.41-1.45-.15.1-.32.19-.47.29-.58-1.99-1.55-3.34-2.57-5.09-.8-1.38-1.52-2.84-2.1-4.34-1.38-3.53-2.12-7.32-2-11.12.15-4.95-1.03-9.73,1.4-14.33.91-1.74,2.08-3.36,3.36-4.91.91-.84,1.92-1.52,2.99-2.01,2.85-1.32,6.18-1.68,9.34-.74.63.19,1.25.43,1.85.73.02.02.04.03.07.04.27.14.56.3.82.46,1.41.9,2.57,2.14,3.13,3.7,1.55,4.32-2.85,11.34-5.3,14.86-1.81,2.59-4.02,4.45-5.26,7.47Z"/><path class="cls-18" d="m420.39,429.77v.04c0,.77-.15,1.51-.58,2.14-1.02,1.53-3.24,2.01-5.07,2.33-.25.04-.51.09-.76.13-2.3.4-4.64.23-6.96.23-.45,0-.91.01-1.36.03-.14,0-.29,0-.43.01-1.24.07-2.49.13-3.74.19-.85.04-1.68.08-2.53.1-.55.02-1.11.03-1.66.05-2.34.07-4.69.11-7.03.15-.58.01-1.18.01-1.76-.01-.14,0-.29,0-.44-.01-.15,0-.32,0-.47-.01h-.03c-.19-.01-.4-.01-.59-.02-.31-.01-.63-.02-.93-.04-.07,0-.12-.01-.19-.01-.49-.02-1-.07-1.53-.11-.22-.01-.45-.04-.67-.07-.04,0-.08-.01-.12-.01-1.86-.2-3.79-.53-5.41-1.07-2.32-.77-3.86-1.87-4.04-4.37-.32-4.14,2.08-6.84,3.41-10.48,1.99-5.44-3.23-9.78-6.08-13.38-.21-.26-.38-.55-.51-.86-.01-.01-.01-.03-.01-.04-.59-1.67,4.11-.73,4.66-.46,2.84,1.37,4.3,4.65,4.6,7.64.12,1.15-.01,2.24-.27,3.31-.63,2.47-2,4.79-2.69,7.3-.31,1.14-.57,2.31-.45,3.48.63,5.9,11.13,5.52,15.4,5.46,4.75-.05,9.49-.21,14.24-.49,5.12-.31,9.76-1.54,12.59-6.18.38.79.69,1.63.95,2.47.14.46.26.96.35,1.44.07.37.11.75.11,1.12Z"/></g><g><path class="cls-25" d="m391.98,427.66c-.17.13-.31.24-.31.23.16.06.33.08.5.07-1.54.23-1.19,1.98-.24,2.69.56.42,1.22.69,1.75,1.15,1.51,1.31,1.44,3.63,1.26,5.62,1.28-1.31,2.58-2.67,3.31-4.35.73-1.68.78-3.79-.35-5.22-.78-.99-2.1-1.45-3.33-1.36-.6.05-1.16.23-1.69.5-.1.05-.56.41-.88.66Z"/><path class="cls-11" d="m398.7,431.08c-.44,1.78-1.5,3.33-2.54,4.84-.15-1.99-.47-4.29-2.17-5.33-.6-.36-1.3-.52-1.92-.85-.39-.21-.73-.57-.92-.97-.15.62.2,1.44.77,1.87.56.42,1.22.69,1.75,1.15,1.51,1.31,1.44,3.63,1.26,5.62,1.28-1.31,2.58-2.67,3.31-4.35.31-.71.5-1.5.52-2.28-.02.1-.04.19-.06.29Z"/><path class="cls-25" d="m402.81,430.65c.56.42,1.22.69,1.75,1.15,1.51,1.31,1.44,3.63,1.26,5.62,1.28-1.31,2.58-2.67,3.31-4.35.73-1.68.78-3.79-.35-5.22-.73-.73-1.03-.96-2.06-1.12.13.21.22.45.26.69-.7-.44-1.22-1.02-2.06-.86-.2.04-2.08.89-1.98,1.01.06.08.12.15.18.23-1.43.64-1.59,1.87-.3,2.85Z"/><path class="cls-11" d="m406.59,435.78c.19-1.99.25-4.31-1.26-5.62-.53-.46-1.19-.73-1.75-1.15-.43-.33-.7-.68-.81-1.04-1.11.67-1.15,1.78.04,2.68.56.42,1.22.69,1.75,1.15,1.51,1.31,1.44,3.63,1.26,5.62,1.28-1.31,2.58-2.67,3.31-4.35.08-.19.16-.39.22-.6-.75,1.22-1.76,2.28-2.76,3.31Z"/><path class="cls-25" d="m418.33,427.85c-.72-.9-1.52-1.07-2.57-1.22-.29.09-.61.07-.89-.06.16.24.33.47.49.71-.84-.17-1.71-.46-2.48-.05-.61.33-1.24.94-1.39,1.64-.15.68.32,1.36.87,1.79s1.22.69,1.75,1.15c1.51,1.31,1.44,3.63,1.26,5.62,1.28-1.31,2.58-2.67,3.31-4.35.73-1.68.78-3.79-.35-5.22Z"/><path class="cls-11" d="m416.09,436.02c.19-1.99.25-4.31-1.26-5.62-.53-.46-1.19-.73-1.75-1.15-.48-.37-.89-.92-.9-1.51-.33.32-.6.71-.69,1.12-.15.68.32,1.36.87,1.79s1.22.69,1.75,1.15c1.51,1.31,1.44,3.63,1.26,5.62,1.28-1.31,2.58-2.67,3.31-4.35.04-.08.07-.17.1-.25-.74,1.17-1.72,2.2-2.69,3.2Z"/></g></g><g id="G12L04T010101_labrador_sin"><g id="garras"><g><path class="cls-25" d="m272.99,338.32c-1.6-.28-2.91-1.59-3.95-3.21-.67-1.08-2.02-2.93-1.48-4.59.34-1.04,1.35-1.59,2.06-1.95,1.84-.94,2.58.35,2.9,2.34.33,2.07.19,4.91.37,6.74.03.24.06.47.1.67Z"/><path class="cls-11" d="m272.99,338.32c-1.6-.28-2.91-1.59-3.95-3.21-.67-1.08-2.02-2.93-1.48-4.59.34-1.04,1.35-1.59,2.06-1.95,1.84-.94,2.58.35,2.9,2.34-.35.38-.65.81-.92,1.3-.3.56-.54,1.22-.55,1.92,0,.94.41,1.79.9,2.41.31.39.62.74.94,1.1.03.24.06.47.1.67Z"/></g><g><path class="cls-25" d="m263.27,339.66c-.14-.03-.27-.05-.41-.11-1.22-.35-2.26-1.3-3.14-2.52-.14-.2-.26-.39-.4-.59-.08-.12-.15-.24-.23-.36-.41-.62-.9-1.41-1.18-2.26-.21-.65-.29-1.32-.08-1.96.34-1.04,1.34-1.59,2.05-1.95,1.85-.94,2.58.35,2.9,2.34.1.62.15,1.3.19,2,.09,1.67.07,3.44.19,4.73.03.24.07.47.1.67Z"/><path class="cls-11" d="m262.25,338.76c.19.3.4.56.62.79-1.22-.35-2.26-1.3-3.14-2.52-.14-.2-.26-.39-.4-.59-.08-.12-.15-.24-.23-.36-.45-.73-.88-1.49-1.18-2.26-.21-.65-.29-1.32-.08-1.96.34-1.04,1.34-1.59,2.05-1.95,1.85-.94,2.58.35,2.9,2.34.1.62.15,1.3.19,2-.6.59-1.16,1.3-1.3,2.22-.11.81.15,1.64.56,2.29Z"/></g><g><path class="cls-25" d="m254.27,339.66c-.14-.03-.27-.05-.41-.11-1.22-.35-2.26-1.3-3.14-2.52-.14-.2-.26-.39-.4-.59-.08-.12-.15-.24-.23-.36-.41-.62-.9-1.41-1.18-2.26-.21-.65-.29-1.32-.08-1.96.34-1.04,1.34-1.59,2.05-1.95,1.85-.94,2.58.35,2.9,2.34.1.62.15,1.3.19,2,.09,1.67.07,3.44.19,4.73.03.24.07.47.1.67Z"/><path class="cls-11" d="m253.25,338.76c.19.3.4.56.62.79-1.22-.35-2.26-1.3-3.14-2.52-.14-.2-.26-.39-.4-.59-.08-.12-.15-.24-.23-.36-.45-.73-.88-1.49-1.18-2.26-.21-.65-.29-1.32-.08-1.96.34-1.04,1.34-1.59,2.05-1.95,1.85-.94,2.58.35,2.9,2.34.1.62.15,1.3.19,2-.6.59-1.16,1.3-1.3,2.22-.11.81.15,1.64.56,2.29Z"/></g></g><path class="cls-18" d="m315.75,204.67v.1c.07,1.66-.29,3.27-.38,4.92-.41,6.6-1.59,13.24-3.1,19.77-.79,3.44-1.66,6.86-2.55,10.21-2.34,8.85-5.78,17.53-11.08,25.02-.13.21-.29.42-.44.63-.36.51-.75,1.01-1.13,1.52-4.36,5.6-12.11,11.25-14.1,18.31-2,7.09-2.18,15.86-2.57,23.23-.31,5.76-.59,10.96-2.84,16.33-1.88,4.48-6.65,7.48-11.51,7.1-.44-.04-.87-.1-1.3-.03-.51.08-.97.32-1.43.53-1.92.87-4.1,1.16-6.19.85-.74-.11-1.47-.3-2.22-.26-.96.04-1.86.44-2.79.64-.29.05-.57.1-.84.13-2.14.24-3.87-.46-5.26-1.75-3.96-3.58-5.26-11.7-5.6-16.11-.65-8.29.56-16.53,2.79-24.47-.32.18-.65.35-.98.53.47-1.86,1.04-3.64,1.57-5.47-.47.25-.95.49-1.42.75,3.99-11.92,7.64-23.18,14.23-34.06,5.9-9.73,12.52-19.21,20.33-27.48,2.87-3.04,5.87-5.98,9.08-8.65,5.13-4.27,10.9-7.69,16.93-10.52,1.47-.69,2.97-1.34,4.47-1.97,1.31-.55,2.66-1,3.98-1.53,1.14-.46,2.44-.92,3.6-.22.66.41.69,1.24.73,1.97Z"/><path class="cls-9" d="m314.76,211.88c-.05.48.04.92.03,1.4-.02.68-.26,1.4-.4,2.07-.3,1.42-.58,2.82-.88,4.24-.66,3.2-1.26,6.51-1.95,9.75-.53,2.51-1.07,4.91-1.55,7.19-2.13,9.95-5.51,19.8-11.38,28.18-.13.21-.29.42-.44.63-.36.51-.75,1.01-1.13,1.52-4.36,5.6-12.11,11.25-14.1,18.31-2,7.09-2.18,15.86-2.57,23.23-.31,5.76-.59,10.96-2.84,16.33-1.88,4.48-6.65,7.48-11.51,7.1-.44-.04-.87-.1-1.3-.03-.51.08-.97.32-1.43.53-1.92.87-4.1,1.16-6.19.85-.74-.11-1.47-.3-2.22-.26-.96.04-1.86.44-2.79.64-.29.05-.57.1-.84.13-2.22.26-3.93-.45-5.26-1.75-.85-.82-1.53-1.88-2.09-3.07,1.92.79,3.95,1.16,5.95.49,1.35-.45,2.26-.91,3.68-.48,1.16.36,2.14,1.2,3.4,1.32,1.81.19,3.95-.25,5.14-1.76.25-.32.48-.71.89-.85.24-.09.52-.04.78-.02,7.15.69,9.38-8.01,10.78-13.42,2.41-9.64,2.03-19.8,3.27-29.58-.42.24-.89.41-1.36.49.59-1.48.99-3.03,1.16-4.62-.57.36-1.26.53-1.93.44,3.05-4.92,4.85-10.26,6.93-15.62,2.15-5.52,4.4-11.01,5.71-16.78,1.53-6.65,2.68-13.18,4.8-19.68-.57.15-1.11.4-1.6.71.12-1.53,1.11-3.18,1.62-4.62-.44.22-.96.26-1.43.11,2.03-5.16,4.87-10.33,8.23-14.77.64-.85,1.31-1.66,1.99-2.46.36-.43.69-.89,1.01-1.34,1.47-.69,2.97-1.34,4.47-1.97,1.31-.55,2.66-1,3.98-1.53,1.14-.46,2.44-.92,3.6-.22.66.41.69,1.24.73,1.97-.35,2.41-.73,4.8-.99,7.21Z"/></g><g id="G13L05T010101_labrador_sin"><g id="garras-2"><g><path class="cls-25" d="m425.72,338.32c1.6-.28,2.91-1.59,3.95-3.21.67-1.08,2.02-2.93,1.48-4.59-.34-1.04-1.35-1.59-2.06-1.95-1.84-.94-2.58.35-2.9,2.34-.33,2.07-.19,4.91-.37,6.74-.03.24-.06.47-.1.67Z"/><path class="cls-11" d="m425.72,338.32c1.6-.28,2.91-1.59,3.95-3.21.67-1.08,2.02-2.93,1.48-4.59-.34-1.04-1.35-1.59-2.06-1.95-1.84-.94-2.58.35-2.9,2.34.35.38.65.81.92,1.3.3.56.54,1.22.55,1.92,0,.94-.41,1.79-.9,2.41-.31.39-.62.74-.94,1.1-.03.24-.06.47-.1.67Z"/></g><g><path class="cls-25" d="m435.44,339.66c.14-.03.27-.05.41-.11,1.22-.35,2.26-1.3,3.14-2.52.14-.2.26-.39.4-.59.08-.12.15-.24.23-.36.41-.62.9-1.41,1.18-2.26.21-.65.29-1.32.08-1.96-.34-1.04-1.34-1.59-2.05-1.95-1.85-.94-2.58.35-2.9,2.34-.1.62-.15,1.3-.19,2-.09,1.67-.07,3.44-.19,4.73-.03.24-.07.47-.1.67Z"/><path class="cls-11" d="m436.46,338.76c-.19.3-.4.56-.62.79,1.22-.35,2.26-1.3,3.14-2.52.14-.2.26-.39.4-.59.08-.12.15-.24.23-.36.45-.73.88-1.49,1.18-2.26.21-.65.29-1.32.08-1.96-.34-1.04-1.34-1.59-2.05-1.95-1.85-.94-2.58.35-2.9,2.34-.1.62-.15,1.3-.19,2,.6.59,1.16,1.3,1.3,2.22.11.81-.15,1.64-.56,2.29Z"/></g><g><path class="cls-25" d="m444.44,339.66c.14-.03.27-.05.41-.11,1.22-.35,2.26-1.3,3.14-2.52.14-.2.26-.39.4-.59.08-.12.15-.24.23-.36.41-.62.9-1.41,1.18-2.26.21-.65.29-1.32.08-1.96-.34-1.04-1.34-1.59-2.05-1.95-1.85-.94-2.58.35-2.9,2.34-.1.62-.15,1.3-.19,2-.09,1.67-.07,3.44-.19,4.73-.03.24-.07.47-.1.67Z"/><path class="cls-11" d="m445.46,338.76c-.19.3-.4.56-.62.79,1.22-.35,2.26-1.3,3.14-2.52.14-.2.26-.39.4-.59.08-.12.15-.24.23-.36.45-.73.88-1.49,1.18-2.26.21-.65.29-1.32.08-1.96-.34-1.04-1.34-1.59-2.05-1.95-1.85-.94-2.58.35-2.9,2.34-.1.62-.15,1.3-.19,2,.6.59,1.16,1.3,1.3,2.22.11.81-.15,1.64-.56,2.29Z"/></g></g><path class="cls-18" d="m382.96,204.67v.1c-.07,1.66.29,3.27.38,4.92.41,6.6,1.59,13.24,3.1,19.77.79,3.44,1.66,6.86,2.55,10.21,2.34,8.85,5.78,17.53,11.08,25.02.13.21.29.42.44.63.36.51.75,1.01,1.13,1.52,4.36,5.6,12.11,11.25,14.1,18.31,2,7.09,2.18,15.86,2.57,23.23.31,5.76.59,10.96,2.84,16.33,1.88,4.48,6.65,7.48,11.51,7.1.44-.04.87-.1,1.3-.03.51.08.97.32,1.43.53,1.92.87,4.1,1.16,6.19.85.74-.11,1.47-.3,2.22-.26.96.04,1.86.44,2.79.64.29.05.57.1.84.13,2.14.24,3.87-.46,5.26-1.75,3.96-3.58,5.26-11.7,5.6-16.11.65-8.29-.56-16.53-2.79-24.47.32.18.65.35.98.53-.47-1.86-1.04-3.64-1.57-5.47.47.25.95.49,1.42.75-3.99-11.92-7.64-23.18-14.23-34.06-5.9-9.73-12.52-19.21-20.33-27.48-2.87-3.04-5.87-5.98-9.08-8.65-5.13-4.27-10.9-7.69-16.93-10.52-1.47-.69-2.97-1.34-4.47-1.97-1.31-.55-2.66-1-3.98-1.53-1.14-.46-2.44-.92-3.6-.22-.66.41-.69,1.24-.73,1.97Z"/><path class="cls-9" d="m383.95,211.88c.05.48-.04.92-.03,1.4.02.68.26,1.4.4,2.07.3,1.42.58,2.82.88,4.24.66,3.2,1.26,6.51,1.95,9.75.53,2.51,1.07,4.91,1.55,7.19,2.13,9.95,5.51,19.8,11.38,28.18.13.21.29.42.44.63.36.51.75,1.01,1.13,1.52,4.36,5.6,12.11,11.25,14.1,18.31,2,7.09,2.18,15.86,2.57,23.23.31,5.76.59,10.96,2.84,16.33,1.88,4.48,6.65,7.48,11.51,7.1.44-.04.87-.1,1.3-.03.51.08.97.32,1.43.53,1.92.87,4.1,1.16,6.19.85.74-.11,1.47-.3,2.22-.26.96.04,1.86.44,2.79.64.29.05.57.1.84.13,2.22.26,3.93-.45,5.26-1.75.85-.82,1.53-1.88,2.09-3.07-1.92.79-3.95,1.16-5.95.49-1.35-.45-2.26-.91-3.68-.48-1.16.36-2.14,1.2-3.4,1.32-1.81.19-3.95-.25-5.14-1.76-.25-.32-.48-.71-.89-.85-.24-.09-.52-.04-.78-.02-7.15.69-9.38-8.01-10.78-13.42-2.41-9.64-2.03-19.8-3.27-29.58.42.24.89.41,1.36.49-.59-1.48-.99-3.03-1.16-4.62.57.36,1.26.53,1.93.44-3.05-4.92-4.85-10.26-6.93-15.62-2.15-5.52-4.4-11.01-5.71-16.78-1.53-6.65-2.68-13.18-4.8-19.68.57.15,1.11.4,1.6.71-.12-1.53-1.11-3.18-1.62-4.62.44.22.96.26,1.43.11-2.03-5.16-4.87-10.33-8.23-14.77-.64-.85-1.31-1.66-1.99-2.46-.36-.43-.69-.89-1.01-1.34-1.47-.69-2.97-1.34-4.47-1.97-1.31-.55-2.66-1-3.98-1.53-1.14-.46-2.44-.92-3.6-.22-.66.41-.69,1.24-.73,1.97.35,2.41.73,4.8.99,7.21Z"/></g><g id="G02L06T010101_labrador_sinF1"><path class="cls-18" d="m404.63,241.42c.02,1.24.01,2.47-.03,3.7-.21,4.8-.91,9.57-1.7,14.31-.23,1.4-.51,2.8-.81,4.24-1.88,8.84-4.8,17.95-4.33,26.89.02.44.04.89.09,1.33-.63-.33-1.09-.93-1.24-1.62-.24,1.89-.47,3.78-.71,5.67-.11-.43-.34-.84-.66-1.15-.46,3.67-1.25,7.24-1.9,10.89-.22,1.2-.47,2.46-.71,3.77-.1.52-.2,1.04-.29,1.58-.1.54-.19,1.08-.27,1.62-.08.54-.15,1.09-.22,1.63-.03.21-.05.41-.08.62-.16,1.54-.25,3.07-.16,4.54v.11c.01.3.03.58.07.87.01.16.03.33.05.48.03.32.08.63.14.93.07.37.14.75.24,1.11.1.38.23.79.15,1.2-.07.33-.26.6-.46.88-2.46,3.44-4.75,7.07-7.25,10.56-1.55,2.14-3.11,4.27-4.68,6.42-.09-.54-.19-1.08-.27-1.62-1.48,2.21-2.92,3.91-4.82,5.77.07-.64.12-1.27.18-1.91-1.88,1.44-3.36,3.4-5.16,4.96-1.86,1.59-3.87,3.03-6,4.23-4.21,2.36-9.13,3.95-13.99,3.95h-.37c-2.68-.08-8.22-1.34-13.3-3.52-2.3-.98-4.51-2.33-6.51-3.82-.95-.71-1.89-1.44-2.77-2.23-.93-.85-1.79-1.71-2.42-2.85.16.7.18,1.44.03,2.15-1.44-1.75-2.71-3.64-3.78-5.64.04.87,0,1.75.01,2.62-3.37-5.46-7.4-10.53-11.03-15.82-.75-1.09-1.49-2.18-2.25-3.24-.2-.27-.4-.55-.46-.88-.08-.41.05-.81.15-1.2.09-.33.16-.66.23-1,.05-.31.11-.62.14-.93.05-.33.09-.66.11-1,.03-.33.04-.67.05-1.01.02-.59.01-1.19-.01-1.78-.03-.77-.1-1.56-.19-2.34,0-.02,0-.04-.01-.07-.03-.32-.08-.65-.11-.97-.38-2.84-1-5.65-1.45-8.15-.15-.88-.32-1.77-.49-2.65-1.09-5.67-2.41-11.31-3.6-16.96-1.68-8.02-2.55-16.09-4.23-24.09-1.71-7.88-2.67-16.44-2.36-24.54.05-1.25.25-3.29.87-4.67-.3.32-.79.63-1.22.76.27-1.77.99-3.52,1.93-5.03-.42.12-.82.24-1.23.35,1.99-5.75,5.2-11.25,8.07-16.64,1.55-2.92,3.8-5.35,6.2-7.59.86-.79,1.69-1.47,2.55-2.09.29-.21.57-.41.87-.6,1.71-1.16,3.48-2.14,5.43-3.36,3.74-2.32,7.43-4.78,11.55-6.38,5-1.95,9.98-2.82,15-3.01.33-.01.67-.02,1-.02,1.59-.02,3.19.01,4.79.1,5.4.32,10.81,1.24,16.3,2.32,7.46,1.46,14.32,6.15,20.11,11.03.07.05.14.12.21.18.36.31.71.6,1.07.91,5.63,4.89,10.58,10.93,12.76,18.19.95,3.16,1.73,6.36,2.27,9.62.56,3.27.89,6.6.96,9.92Z"/><path class="cls-9" d="m403.68,231.5c-.55-3.25-1.33-6.46-2.28-9.62-.63-2.12-1.43-4.09-2.37-5.94.11.35.24.69.34,1.05.91,3.16,1.66,6.37,2.19,9.62.53,3.27.85,6.6.92,9.92.02,1.24.01,2.47-.04,3.7-.19,4.8-.87,9.57-1.63,14.31-.22,1.4-.49,2.8-.78,4.24-1.81,8.84-4.61,17.95-4.16,26.89.02.44.04.89.08,1.33-.6-.33-1.05-.93-1.19-1.62-.23,1.89-.45,3.78-.69,5.67-.11-.43-.33-.84-.63-1.15-.44,3.67-1.2,7.24-1.83,10.89-.21,1.2-.45,2.46-.69,3.77-.1.52-.19,1.04-.27,1.58-.1.54-.18,1.08-.26,1.62-.07.54-.15,1.09-.21,1.63-.92,7.86-3.32,15.12-6.47,22.35-.15-1.1-.3-2.2-.45-3.3.48,3.48-5.65,8.42-7.81,10.54-3.7,3.64-7.75,6.93-12.24,9.55-4.04,2.36-8.77,3.94-13.44,3.94h-.36c-4.72-.14-11.3-1.67-15.19-4.33.13.36.28.81.24,1.2-2.29-1.64-4.38-3.57-6.21-5.72.28.72.56,1.45.83,2.17-6.19-6.12-12.51-12.75-16.19-20.74-3.5-7.61-3.97-16.13-5.34-24.28-.15-.88-.31-1.77-.47-2.65-1.05-5.67-2.31-11.31-3.46-16.96-1.62-8.02-2.45-16.09-4.07-24.09-1.64-7.88-2.57-16.44-2.27-24.54.05-1.25.24-3.29.83-4.67-.28.31-.76.63-1.17.75.27-1.77.95-3.51,1.86-5.03-.39.12-.79.24-1.18.36.14-.43.31-.86.46-1.29-.97,2.03-1.86,4.09-2.58,6.18.41-.12.82-.24,1.23-.36-.94,1.52-1.65,3.26-1.93,5.03.43-.12.93-.44,1.22-.75-.61,1.38-.81,3.41-.86,4.67-.31,8.1.65,16.66,2.36,24.54,1.68,8,2.55,16.07,4.23,24.09,1.2,5.65,2.52,11.29,3.6,16.96.18.88.34,1.77.49,2.65.45,2.51,1.07,5.32,1.45,8.15.03.32.08.65.11.97.01.02.01.04.01.07.09.78.15,1.57.19,2.34.02.59.03,1.19.01,1.78-.01.34-.02.68-.05,1.01-.02.34-.05.67-.11,1-.03.32-.09.63-.14.93-.07.34-.14.67-.23,1-.1.38-.23.79-.15,1.2.07.33.26.6.46.88.76,1.07,1.51,2.15,2.25,3.24,3.64,5.3,7.66,10.36,11.04,15.82-.02-.87.03-1.74-.02-2.61,1.07,2,2.34,3.89,3.79,5.63.14-.71.13-1.45-.04-2.15.63,1.12,1.49,2,2.43,2.84.88.79,1.82,1.52,2.77,2.23,2,1.49,4.21,2.85,6.51,3.82,5.08,2.18,10.62,3.44,13.3,3.52h.37c4.85,0,9.78-1.58,13.98-3.94,2.14-1.2,4.14-2.64,6-4.23,1.81-1.55,3.29-3.51,5.17-4.96-.06.64-.12,1.28-.18,1.92,1.9-1.86,3.33-3.57,4.82-5.77.09.54.18,1.07.27,1.61,1.57-2.14,3.13-4.27,4.68-6.42,2.51-3.49,4.79-7.12,7.25-10.56.2-.27.4-.55.46-.88.08-.41-.05-.81-.15-1.2-.1-.36-.18-.74-.24-1.11-.07-.31-.11-.62-.14-.93-.02-.15-.04-.32-.05-.48-.03-.29-.05-.57-.07-.87v-.11c-.09-1.47,0-3,.16-4.54.02-.21.04-.41.08-.62.07-.54.14-1.09.22-1.63.09-.54.18-1.08.27-1.62.09-.54.19-1.07.29-1.58.24-1.31.49-2.57.71-3.77.65-3.65,1.44-7.22,1.9-10.89.32.32.55.73.66,1.15.24-1.89.47-3.78.71-5.67.15.68.62,1.29,1.24,1.62-.04-.44-.07-.89-.09-1.33-.47-8.95,2.45-18.05,4.33-26.89.31-1.44.58-2.85.81-4.24.79-4.74,1.5-9.5,1.7-14.31.05-1.23.06-2.47.04-3.7-.07-3.32-.4-6.65-.95-9.92Z"/><path class="cls-9" d="m347.71,272.99c-.84-.32-1.81-.27-2.49.33.12-.93.24-1.86.36-2.78-1.37.02-2.75-.42-3.85-1.24,2.55-1.28,4.82-2.77,7.71-2.94,2.87-.17,5.91.78,8.67,1.45,2.04.49,5.5,2.25,7.61,1.64-2.97.86-5.94,1.73-8.9,2.59-.63.18-1.27.37-1.85.66-1.58.79-2.72,2.39-2.97,4.13-.53-1.04-1.07-2.08-1.6-3.13-.34.42-.67.85-1.01,1.27-.09-.93-.8-1.66-1.66-1.98Z"/><path class="cls-9" d="m387.27,210.53c-.02.08-.04.14-.07.21-.18-.34-.34-.67-.52-1.01-.04,1-.3,1.98-.73,2.88-.24-.31-.43-.66-.55-1.03.04,1.22-.16,2.45-.62,3.58-.24-.38-.37-.85-.37-1.32,0,2.44-2.2,5.24-3.59,7.07-1.8,2.36-3.92,4.48-6.1,6.52-2.88,2.69-5.98,4.81-9.2,7.14-3.25,2.41-6.67,4.52-10.12,6.65-.11.07-.23.14-.35.11-.27-.05-.24-.45-.15-.71.16-.45.33-.91.48-1.36-.35.34-4.55,3.54-4.79,3.29-.4-.42-.8-.82-1.21-1.24-.09.51-.18,1.02-.26,1.53-4.32-2.01-8.49-4.52-12.38-7.3-2.74-1.96-5.33-4.12-7.74-6.46-3.81-3.69-9.02-7.74-11.44-12.55-.18.36-.35.73-.53,1.09-.68-1.62-1.37-3.23-2.07-4.85-.12.16-.25.34-.37.51-.97-2-1.21-4.18-1.81-6.29-.41-1.44-.71-2.97-.46-4.43.29-.21.57-.41.87-.6,1.71-1.16,3.48-2.14,5.43-3.36,3.74-2.32,7.43-4.78,11.55-6.38,5-1.95,9.98-2.82,15-3.01.33-.01.67-.02,1-.02,1.59-.02,3.19.01,4.79.1,5.4.32,10.81,1.24,16.3,2.32,7.46,1.46,14.32,6.15,20.11,11.03.07.05.14.12.21.18.33,2.74.33,5.44-.31,7.75Z"/><path class="cls-9" d="m386,201.6c-.24.87-.57,1.77-.98,2.7-.42.96-.79,1.89-1.26,2.79-6.46,12.33-20.27,24.13-34.43,24.47-4.44.1-8.72-1.45-12.54-3.6-2-1.13-3.9-2.43-5.73-3.81-.66-.5-4.41-2.85-4.32-3.8-.04.36-.07.72-.11,1.07-.94-.92-1.76-1.95-2.45-3.07.07.29-.03.62-.25.82-3.71-5.86-8.25-10.91-10-17.81,1.59-.89,3.15-1.84,4.68-2.79,3.74-2.32,7.43-4.78,11.55-6.38,5-1.95,9.98-2.82,15-3.01.33-.01.67-.02,1-.02,1.59-.02,3.19.01,4.79.1,5.4.32,10.81,1.24,16.3,2.32,5.1,1,9.18,3.23,13.24,6.41,1.03.8,2.09,1.56,3.19,2.26.76.47,1.53.93,2.32,1.35Z"/></g><g id="G03L07T010101_labrador_sin"><path class="cls-18" d="m349.42,227.8c-18.66,0-46.4-16.43-43.63-36.16.06-.43.13-.86.22-1.3,1.78-8.6,5.08-28.1,9.87-37.24.41-.78.83-1.48,1.26-2.1.61-.88,1.24-1.73,1.9-2.57,3.16-4.07,6.88-7.75,11.18-10.61,3.77-2.52,8.05-3.57,12.01-5.43.69-.33,1.37-.67,2.03-1.06.09-.06.2-.11.3-.12.19,0,.34.14.52.21.4.17.87-.07,1.12-.43.24-.36.32-.8.38-1.23.51.54,1.11,1.11,1.85,1.13.47,0,.92-.22,1.38-.36.46-.13,1.02-.14,1.34.22.11.13.21.32.38.34.11,0,.21-.05.31-.11.87-.58,1.68-1.24,2.43-1.97-.84.82.98,3.06,1.57,3.49.17.12.33.22.48.29.74.37,1.35.26,2.27.42,2.49.42,4.94,1.62,7.15,2.82,4.65,2.51,8.74,5.98,12.22,9.94,1.54,1.74,2.96,3.58,4.28,5.49.07.09.13.19.19.29.38.58.75,1.25,1.11,1.99,4.24,8.66,7.23,26.99,8.9,34.69.14.64.27,1.28.38,1.92.02.12.05.24.06.36,3.36,20.02-23.48,37.1-43.47,37.1Z"/><path class="cls-9" d="m349.42,224.79c-17.3,0-42.41-14.13-43.76-31.91-1.46,19.17,25.5,34.92,43.76,34.92,19.36,0,45.13-16.01,43.7-35.2-1.28,17.82-25.37,32.19-43.7,32.19Z"/><path id="morro-2" class="cls-26" d="m371.54,203.22c0,7.92-13.49,14.34-22.11,14.34s-22.11-6.42-22.11-14.34,13.37-27.18,21.99-27.18,22.23,19.26,22.23,27.18Z"/><g id="puntitos-2"><path class="cls-32" d="m355.15,203.88l.18-.18s.08-.1.1-.16c.03-.06.05-.12.04-.19,0-.07-.01-.13-.04-.19-.02-.06-.05-.12-.1-.16l-.1-.08c-.08-.05-.16-.07-.25-.07l-.13.02c-.09.02-.16.07-.22.13l-.18.18s-.08.1-.1.16c-.03.06-.05.12-.04.19,0,.07.01.13.04.19.02.06.05.12.1.16l.1.08c.08.05.16.07.25.07l.13-.02c.09-.02.16-.07.22-.13h0Z"/><path class="cls-32" d="m356.74,201.9h.18c.07,0,.13-.01.19-.04.06-.02.12-.05.16-.1.05-.05.08-.1.1-.16.03-.06.05-.12.04-.19l-.02-.13c-.02-.09-.07-.16-.13-.22l-.1-.08c-.08-.05-.16-.07-.25-.07h-.18c-.07,0-.13.01-.19.04-.06.02-.12.05-.16.1-.05.05-.08.1-.1.16-.03.06-.05.12-.04.19l.02.13c.02.09.07.16.13.22l.1.08c.08.05.16.07.25.07h0Z"/><path class="cls-32" d="m357.1,205.1l.19.17s.1.08.16.1c.06.03.12.05.19.04.07,0,.13-.01.19-.04.06-.02.12-.05.16-.1l.08-.1c.05-.08.07-.16.07-.25l-.02-.13c-.02-.09-.07-.16-.13-.22l-.19-.17s-.1-.08-.16-.1c-.06-.03-.12-.05-.19-.04-.07,0-.13.01-.19.04-.06.02-.12.05-.16.1l-.08.1c-.05.08-.07.16-.07.25l.02.13c.02.09.07.16.13.22h0Z"/><path class="cls-32" d="m341.39,201.75v.18c0,.07.01.13.04.19.02.06.05.12.1.16.05.05.1.08.16.1.06.03.12.05.19.04l.13-.02c.09-.02.16-.07.22-.13l.08-.1c.05-.08.07-.16.07-.25v-.18c0-.07-.01-.13-.04-.19-.02-.06-.05-.12-.1-.16-.05-.05-.1-.08-.16-.1-.06-.03-.12-.05-.19-.04l-.13.02c-.09.02-.16.07-.22.13l-.08.1c-.05.08-.07.16-.07.25h0Z"/><path class="cls-32" d="m340.66,204.94l.18.18s.1.08.16.1c.06.03.12.05.19.04.07,0,.13-.01.19-.04.06-.02.12-.05.16-.1l.08-.1c.05-.08.07-.16.07-.25l-.02-.13c-.02-.09-.07-.16-.13-.22l-.18-.18s-.1-.08-.16-.1c-.06-.03-.12-.05-.19-.04-.07,0-.13.01-.19.04-.06.02-.12.05-.16.1l-.08.1c-.05.08-.07.16-.07.25l.02.13c.02.09.07.16.13.22h0Z"/><path class="cls-32" d="m344.4,203.87v.18c0,.07.01.13.04.19.02.06.05.12.1.16.05.05.1.08.16.1.06.03.12.05.19.04l.13-.02c.09-.02.16-.07.22-.13l.08-.1c.05-.08.07-.16.07-.25v-.18c0-.07-.01-.13-.04-.19-.02-.06-.05-.12-.1-.16-.05-.05-.1-.08-.16-.1-.06-.03-.12-.05-.19-.04l-.13.02c-.09.02-.16.07-.22.13l-.08.1c-.05.08-.07.16-.07.25h0Z"/></g><g id="cejas-2"><path class="cls-9" d="m356.18,166.4c-.24,1.5-.28,2.91-.05,4.41-.05-.31.78-1.31.99-1.6.46-.62,1-1.17,1.51-1.75.95-1.08,2.01-2.06,3.27-2.78-.73-.06-1.46-.06-2.19,0,1.26-.97,2.71-1.69,4.24-2.12-.44.12-1.33-.22-1.78-.32-.61-.14-1.23-.27-1.86-.32-1.1-.1-2.47-.02-3.04,1.09-.54,1.06-.91,2.2-1.1,3.38Z"/><path class="cls-9" d="m342.44,166.4c.24,1.5.28,2.91.05,4.41.05-.31-.78-1.31-.99-1.6-.46-.62-1-1.17-1.51-1.75-.95-1.08-2.01-2.06-3.27-2.78.73-.06,1.46-.06,2.19,0-1.26-.97-2.71-1.69-4.24-2.12.44.12,1.33-.22,1.78-.32.61-.14,1.23-.27,1.86-.32,1.1-.1,2.47-.02,3.04,1.09.54,1.06.91,2.2,1.1,3.38Z"/></g></g><g id="G04L08T010101_labrador"><path class="cls-15" d="m326.71,173.63c-.35,2.98.12,5.98,3.76,7.12,4.9,1.54,8.77-3.56,8.77-7.47,0-.86-.23-1.25-1.08-1.93h0c-.16-.14-.33-.27-.5-.39-1.43-.99-3.58-1.7-5.39-2.04-.14-.02-.27-.05-.41-.07-.16-.03-.31-.05-.47-.06-.1-.01-.21-.02-.31-.03-1.03-.09-1.82-.02-2.1.26-.15.16-.29.32-.44.49-1,1.15-1.64,2.42-1.83,4.12Z"/><path class="cls-2" d="m327.22,173.28c0,3.33,2.69,6.02,6.01,6.02,3.32,0,6.01-2.69,6.01-6.02,0-.71-.42-1.36-1.08-1.93h0c-.15-.14-.32-.27-.5-.39-1.43-.99-3.58-1.7-5.39-2.04-.14-.02-.27-.05-.41-.07-.16-.03-.31-.05-.47-.06-.1-.01-.21-.02-.31-.03-1.03-.09-1.82-.02-2.1.26-.15.16-.29.32-.44.49-.83,1.03-1.33,2.34-1.33,3.77Z"/><path class="cls-34" d="m328.24,173.28c0,2.76,2.23,5.01,4.99,5.01,2.76,0,5-2.24,5-5.01,0-.84-.2-1.62-.57-2.31-1.76-1.22-4.6-2.02-6.58-2.2-1.68.81-2.84,2.53-2.84,4.52Z"/><ellipse class="cls-29" cx="333.23" cy="173.28" rx="2.76" ry="2.76"/><circle class="cls-2" cx="335.23" cy="171.62" r="1.25"/></g><g id="G05L09T010101_labrador"><path class="cls-15" d="m372.24,173.63c.35,2.98-.12,5.98-3.76,7.12-4.9,1.54-8.77-3.56-8.77-7.47,0-.86.23-1.25,1.08-1.93h0c.16-.14.33-.27.5-.39,1.43-.99,3.58-1.7,5.39-2.04.14-.02.27-.05.41-.07.16-.03.31-.05.47-.06.1-.01.21-.02.31-.03,1.03-.09,1.82-.02,2.1.26.15.16.29.32.44.49,1,1.15,1.64,2.42,1.83,4.12Z"/><path class="cls-2" d="m371.73,173.28c0,3.33-2.69,6.02-6.01,6.02s-6.01-2.69-6.01-6.02c0-.71.42-1.36,1.08-1.93h0c.15-.14.32-.27.5-.39,1.43-.99,3.58-1.7,5.39-2.04.14-.02.27-.05.41-.07.16-.03.31-.05.47-.06.1-.01.21-.02.31-.03,1.03-.09,1.82-.02,2.1.26.15.16.29.32.44.49.83,1.03,1.33,2.34,1.33,3.77Z"/><path class="cls-34" d="m370.72,173.28c0,2.76-2.23,5.01-4.99,5.01s-5-2.24-5-5.01c0-.84.2-1.62.57-2.31,1.76-1.22,4.6-2.02,6.58-2.2,1.68.81,2.84,2.53,2.84,4.52Z"/><ellipse class="cls-29" cx="365.72" cy="173.28" rx="2.76" ry="2.76"/><circle class="cls-2" cx="363.73" cy="171.62" r="1.25"/></g><g id="G06L10T030101_abierta"><line class="cls-6" x1="349.19" y1="197.59" x2="349.19" y2="204.67"/><path class="cls-35" d="m358.37,207.11s2.06-.37,2.05-.24c-.29,3.05-4.09,7.64-11.28,7.64s-11.08-4.72-11.29-7.77c0-.08,2.06.32,2.07.29,1.75.16,3.54-.17,5.11-.99,1.32-.69,2.8-1.04,4.27-1.04s2.82.31,4.1.95l.48.23c1.4.69,2.95,1.01,4.49.94Z"/><path class="cls-23" d="m359.43,207c-.01.06-.03.11-.04.16-.3,1.16-1.14,2.49-2.55,3.6-1.73,1.37-4.3,2.42-7.7,2.42-3.76,0-6.61-1.4-8.36-3.09-1.08-1.03-1.74-2.17-1.94-3.17,0-.03-.01-.06-.02-.08.06.01.12.03.19.04h.01c.19.04.37.06.56.09.11.02.23.03.34.04.44.04.88.05,1.32.03h.06c.4-.03.79-.07,1.18-.14.13-.02.26-.05.39-.08.14-.03.29-.07.43-.11.37-.1.72-.23,1.08-.38.16-.07.32-.14.48-.22.02,0,.03-.01.05-.02.16-.06.31-.13.46-.21.23-.11.46-.21.7-.31.23-.09.48-.18.72-.24.14-.04.28-.08.43-.11.07-.02.14-.04.21-.04.11-.03.23-.05.34-.07.02,0,.04,0,.06,0,.15-.03.3-.04.46-.06.34-.04.68-.06,1.03-.06.16,0,.31,0,.47.01.16,0,.32.02.48.04.17.02.32.04.48.06.16.03.32.06.48.09.63.14,1.25.35,1.84.62l.44.2c.12.06.25.11.39.16.03.02.06.03.1.04.25.13.52.23.79.33.1.04.19.08.29.1.5.17,1.03.3,1.56.37.09.01.17.03.25.03.5.06.99.08,1.5.06.08,0,.16,0,.24-.01.17,0,.35-.03.52-.04.1-.01.2-.03.3-.04Z"/><path class="cls-10" d="m359.39,207.17c-.36,1.4-1.33,2.62-2.5,3.56.84-.7-.18-2.14-.84-2.62-1.99-1.44-4.35-1.39-6.79-1.39-1.87,0-4.09.04-5.85.68-1.19.44-2.8,1.33-2.63,2.7-1.08-1.03-1.74-2.17-1.94-3.17.05-.02.1-.03.18-.04.61-.09,1.77.15,2.22.15h.06c.4-.03.79-.07,1.18-.14.13-.02.26-.05.39-.08.14-.03.29-.07.43-.11.37-.1.72-.23,1.08-.38.16-.07.32-.14.48-.22.02,0,.03-.01.05-.02.16-.06.31-.13.46-.21.23-.11.46-.21.7-.31.23-.09.48-.18.72-.24.14-.04.28-.08.43-.11.07-.02.14-.04.21-.04.11-.03.23-.05.34-.07.02,0,.04,0,.06,0,.15-.03.3-.04.46-.06.34-.04.68-.06,1.03-.06.16,0,.31,0,.47.01.16,0,.32.02.48.04.17.02.32.04.48.06.16.03.32.06.48.09.63.14,1.25.35,1.84.62l.44.2c.12.06.25.11.39.16.03.02.06.03.1.04.25.13.52.23.79.33.1.04.19.07.29.1.5.17,1.03.3,1.56.37.09.01.17.03.25.03.08,0,.17.01.26.02.55.01,1.47-.16,2.01-.02.08.01.15.04.21.08.02.01.03.03.04.04Z"/><g><path class="cls-4" d="m343.69,208.86c.11-.1.24-.16.36-.1.14.07.24.29.28.51s.04.46.05.7c.03.76.17,1.51.26,2.26.01.12.03.24,0,.35-.09.41-.55.23-.74.14-.37-.18-1.02-.68-1.1-1.36-.1-.87.31-1.76.71-2.32.05-.07.11-.14.17-.2Z"/><path class="cls-20" d="m344.64,212.23c-.09-.76-.23-1.5-.26-2.26,0-.17-.01-.33-.03-.5,0,.57.04,1.13.08,1.7.02.37-.13.77-.59.7-.47-.07-.87-.5-1.04-.92,0,.14,0,.28,0,.42.07.68.73,1.18,1.1,1.36.19.09.65.26.74-.14.02-.11.01-.24,0-.35Z"/></g><g><path class="cls-4" d="m354.65,208.86c-.11-.1-.24-.16-.36-.1-.14.07-.24.29-.28.51s-.04.46-.05.7c-.03.76-.17,1.51-.26,2.26-.01.12-.03.24,0,.35.09.41.55.23.74.14.37-.18,1.02-.68,1.1-1.36.1-.87-.31-1.76-.71-2.32-.05-.07-.11-.14-.17-.2Z"/><path class="cls-20" d="m353.7,212.23c.09-.76.23-1.5.26-2.26,0-.17.01-.33.03-.5,0,.6-.04,1.19-.08,1.79-.02.22,0,.52.24.63.27.12.63-.07.84-.22.2-.15.58-.44.57-.71,0,.14,0,.28,0,.42-.07.68-.73,1.18-1.1,1.36-.19.09-.65.26-.74-.14-.02-.11-.01-.24,0-.35Z"/></g><path class="cls-35" d="m360.41,206.86c-.29,3.06-4.08,7.65-11.27,7.65s-11.08-4.72-11.29-7.77c0-.04.57.05,1.12.14-.05,0-.1-.01-.15-.02.01.02.01.05.02.08.2.99.86,2.13,1.94,3.16,1.75,1.69,4.59,3.08,8.35,3.08,3.41,0,5.97-1.04,7.69-2.41,1.42-1.11,2.26-2.44,2.56-3.61.01-.05.02-.1.04-.16-.1.02-.2.03-.3.05-.17.01-.35.03-.52.04-.09,0-.16.01-.24.01,0,.01,2.05-.37,2.04-.25Z"/><path class="cls-36" d="m365.88,203.77c-4.34,3.29-7.85,5.55-13.04,2.64-1.57-.83-3.56-.95-5.05-.7,0,0,.11-.01.11-.01-.46.08-1.07.26-1.5.43,0,0-1.25.58-1.25.58-2.56,1.55-7.02,1.14-9.53-1.08-.9-.62-1.8-1.22-2.68-1.87.98.47,1.94.99,2.91,1.49,2.78,1.76,6.39,2.02,9.16.27.93-.49,1.95-.88,2.79-.99,1-.25,3.29-.16,4.74.48.49.18,1.07.51,1.52.76,1.81,1.02,4,1.27,6.01.76,2.02-.56,3.87-1.9,5.81-2.77h0Z"/></g><g id="G07L11T010101_labrador_G"><path class="cls-19" d="m357.57,196.53c0,.23,0,.46-.03.68,0,.07-.01.13-.02.19,0,.06-.02.12-.03.18-.56,3.24-5.76,5.1-7.87,5.16-.03,0-.07,0-.1,0s-.06,0-.1,0c-.03,0-.07,0-.1,0-2.18-.12-7.21-2.03-7.76-5.18-.01-.06-.02-.12-.03-.18-.01-.07-.02-.13-.02-.2-.02-.21-.03-.43-.03-.65.03-4.39,3.6-13.53,8.05-13.53s8.05,9.14,8.05,13.53Z"/><path class="cls-29" d="m357.54,197.21c0,.07-.01.13-.02.19,0,.06-.02.12-.03.18-.56,3.24-5.76,5.1-7.87,5.16-.03,0-.07,0-.1,0s-.06,0-.1,0c-.03,0-.07,0-.1,0-2.18-.12-7.21-2.03-7.76-5.18-.01-.06-.02-.12-.03-.18-.01-.07-.02-.13-.02-.2.34-3.67,3.8-5.65,8.01-5.65s7.7,1.99,8.02,5.68Z"/><path class="cls-36" d="m349.44,198.02c.55,1.41.52,2.83-.08,4.22-.55-1.41-.52-2.83.08-4.22h0Z"/></g><g id="G08L12T010201_labrador_P_N"><path class="cls-18" d="m339.62,135.38s0,.1,0,.14c0,.03,0,.05,0,.07,0,.04,0,.07-.01.1v-.02c-.03.07-.04.13-.06.2-.05.14-.11.28-.22.4-.02.02-.04.04-.06.06-.02.02-.05.04-.07.06-.36.3-.86.45-1.39.56-.44.1-.9.16-1.3.26-.06.01-.12.03-.17.05-.13.04-.26.08-.39.12-.97.33-1.77.82-2.46,1.48-.05.05-.11.1-.16.16-.13.13-.25.26-.36.39-.54.62-1.02,1.28-1.47,1.98-.01.01-.02.03-.03.04-.01.02-.03.04-.04.05-.02.03-.04.07-.06.1-.05.07-.1.15-.14.23-.06.1-.12.2-.18.31-.05.07-.09.14-.13.22-.05.08-.1.17-.14.25-.06.11-.12.22-.18.33-.03.06-.07.12-.1.18-.06.1-.11.21-.17.32-.02.04-.04.08-.07.12-.12.24-.24.47-.36.71-.03.07-.07.14-.1.21-.08.17-.16.34-.24.51-.07.16-.15.32-.22.48-.12.28-.25.56-.37.84-.13.3-.26.61-.39.91-.13.31-.26.62-.38.93-.06.16-.13.32-.19.47-.1.24-.2.49-.3.73-.12.3-.24.59-.36.89-.1.25-.2.5-.31.75-.22.55-.45,1.1-.68,1.64-.12.27-.23.55-.35.82-.12.27-.24.54-.36.82-.12.27-.24.54-.37.81-.09.2-.19.4-.28.6-.03.07-.06.14-.1.21-.2.42-.41.83-.61,1.25-.06.12-.12.24-.19.36-.09.18-.18.35-.28.53-.05.09-.1.19-.15.28-.2.35-.4.71-.6,1.06-.12.22-.25.43-.38.65-.17.28-.33.57-.5.85-.17.28-.34.56-.51.84-.13.21-.26.42-.39.63-.4.63-.8,1.25-1.21,1.87-.28.41-.56.82-.84,1.22-.09.13-.19.27-.29.4-.1.13-.19.27-.29.4-.29.4-.59.79-.89,1.18-.1.13-.2.26-.31.39-.1.13-.2.26-.31.38-.1.13-.21.26-.31.38-.12.15-.25.3-.37.45-.62.73-1.26,1.44-1.92,2.13-2.37,2.44-5.69,5.88-9.43,4.45-.22-.09-.45-.19-.61-.38-.28-.34-.24-.83-.21-1.27,0-.06,0-.12.01-.18,0-.03,0-.06,0-.09.7-10.59-6.23-19.91-5.69-30.44.06-1.21.16-2.45.83-3.51.89-1.42,2.64-2.25,4.36-2.85,1.1-.39,2.22-.72,3.36-1.02.84-.22,1.68-.42,2.52-.61.16-.04.31-.07.47-.11.42-.09.84-.19,1.26-.28,1.3-.29,2.6-.58,3.88-.9.55-.14,1.1-.32,1.65-.52,2.39-.88,4.74-2.21,7.11-2.91.32-.09.64-.18.96-.24.16-.04.32-.07.48-.09.06-.01.12-.02.18-.03,3.36-.5,7.48-.18,10.53,1.21,1.27.58,2.42,1.38,3.01,2.5.05.09.09.18.13.28.06.14.11.29.15.44.09.3.13.56.13.79Z"/><path class="cls-9" d="m339.54,135.88c-.05.14-.11.28-.22.4-.02.02-.04.04-.06.06-.02.02-.05.04-.07.06-.36.3-.86.45-1.39.56-.44.1-.9.16-1.3.26-.06.01-.12.03-.17.05-.13.04-.26.08-.39.12-.97.33-1.77.82-2.46,1.48-.05.05-.11.1-.16.16-.13.13-.25.26-.36.39-.54.62-1.02,1.28-1.47,1.98-.01.01-.02.03-.03.04-.01.02-.03.04-.04.05-.02.03-.04.07-.06.1-.05.07-.1.15-.14.23-.06.1-.12.2-.18.31-.05.07-.09.14-.13.22-.05.08-.1.17-.14.25-.06.11-.12.22-.18.33-.03.06-.07.12-.1.18-.06.1-.11.21-.17.32-.02.04-.04.08-.07.12-.12.24-.24.47-.36.71-.03.07-.07.14-.1.21-.08.17-.16.34-.24.51-.07.16-.15.32-.22.48-.13.28-.25.56-.37.84-.13.3-.26.61-.39.91-.13.31-.26.62-.38.93-.06.16-.13.32-.19.47-.1.24-.2.49-.3.73-.12.3-.24.59-.36.89-.1.25-.2.5-.31.75-.22.55-.45,1.1-.68,1.64-.12.27-.23.55-.35.82-.12.27-.24.54-.36.82-.12.27-.24.54-.37.81-.09.2-.19.4-.28.6-.03.07-.06.14-.1.21-.2.42-.41.83-.61,1.25-.06.12-.12.24-.19.36-.09.18-.18.35-.28.53-.05.09-.1.19-.15.28-.2.35-.4.71-.6,1.06-.12.22-.25.43-.38.65-.17.28-.33.57-.5.85-.17.28-.34.56-.51.84-.13.21-.26.42-.39.63-.39.63-.8,1.25-1.21,1.87-.27.41-.55.82-.84,1.22-.09.13-.19.27-.29.4-.1.13-.19.27-.29.4-.29.4-.59.79-.89,1.18-.1.13-.2.26-.31.39-.1.13-.2.26-.31.38-.1.13-.21.26-.31.38-.12.15-.25.3-.37.45-.62.73-1.26,1.44-1.92,2.13-2.37,2.44-5.69,5.88-9.43,4.45-.22-.09-.45-.19-.61-.38-.28-.34-.24-.83-.21-1.27,0-.06,0-.12.01-.18.11.17.34.48.37.52.23.27.58.43.91.55,2.35.83,4.49-1.1,6.17-2.48,1.81-1.48,3.37-3.21,4.93-4.94,1.5-1.67,3.05-3.24,4.36-5.08.19-.27.38-.55.57-.82,1.8-2.72,3.04-5.68,4.18-8.65,1.17-3.04,2.23-6.12,3.2-9.21.86-2.75,2-4.93,3.99-7.24.8-.93,1.94-1.77,3.22-2.15,1.25-.37,2.83.22,3.27,1.32.04.11.07.21.09.31Z"/></g><g id="G09L13T010201_labrador_P_N"><path class="cls-18" d="m358.98,135.38s0,.1,0,.14c0,.03,0,.05,0,.07,0,.04,0,.07.01.1v-.02c.03.07.04.13.06.2.05.14.11.28.22.4.02.02.04.04.06.06.02.02.05.04.07.06.36.3.86.45,1.39.56.44.1.9.16,1.3.26.06.01.12.03.17.05.13.04.26.08.39.12.97.33,1.77.82,2.46,1.48.05.05.11.1.16.16.13.13.25.26.36.39.54.62,1.02,1.28,1.47,1.98.01.01.02.03.03.04.01.02.03.04.04.05.02.03.04.07.06.1.05.07.1.15.14.23.06.1.12.2.18.31.05.07.09.14.13.22.05.08.1.17.14.25.06.11.12.22.18.33.03.06.07.12.1.18.06.1.11.21.17.32.02.04.04.08.07.12.12.24.24.47.36.71.03.07.07.14.1.21.08.17.16.34.24.51.07.16.15.32.22.48.12.28.25.56.37.84.13.3.26.61.39.91.13.31.26.62.38.93.06.16.13.32.19.47.1.24.2.49.3.73.12.3.24.59.36.89.1.25.2.5.31.75.22.55.45,1.1.68,1.64.12.27.23.55.35.82.12.27.24.54.36.82.12.27.24.54.37.81.09.2.19.4.28.6.03.07.06.14.1.21.2.42.41.83.61,1.25.06.12.12.24.19.36.09.18.18.35.28.53.05.09.1.19.15.28.2.35.4.71.6,1.06.12.22.25.43.38.65.17.28.33.57.5.85.17.28.34.56.51.84.13.21.26.42.39.63.4.63.8,1.25,1.21,1.87.28.41.56.82.84,1.22.09.13.19.27.29.4.1.13.19.27.29.4.29.4.59.79.89,1.18.1.13.2.26.31.39.1.13.2.26.31.38.1.13.21.26.31.38.12.15.25.3.37.45.62.73,1.26,1.44,1.92,2.13,2.37,2.44,5.69,5.88,9.43,4.45.22-.09.45-.19.61-.38.28-.34.24-.83.21-1.27,0-.06,0-.12-.01-.18,0-.03,0-.06,0-.09-.7-10.59,6.23-19.91,5.69-30.44-.06-1.21-.16-2.45-.83-3.51-.89-1.42-2.64-2.25-4.36-2.85-1.1-.39-2.22-.72-3.36-1.02-.84-.22-1.68-.42-2.52-.61-.16-.04-.31-.07-.47-.11-.42-.09-.84-.19-1.26-.28-1.3-.29-2.6-.58-3.88-.9-.55-.14-1.1-.32-1.65-.52-2.39-.88-4.74-2.21-7.11-2.91-.32-.09-.64-.18-.96-.24-.16-.04-.32-.07-.48-.09-.06-.01-.12-.02-.18-.03-3.36-.5-7.48-.18-10.53,1.21-1.27.58-2.42,1.38-3.01,2.5-.05.09-.09.18-.13.28-.06.14-.11.29-.15.44-.09.3-.13.56-.13.79Z"/><path class="cls-9" d="m359.06,135.88c.05.14.11.28.22.4.02.02.04.04.06.06.02.02.05.04.07.06.36.3.86.45,1.39.56.44.1.9.16,1.3.26.06.01.12.03.17.05.13.04.26.08.39.12.97.33,1.77.82,2.46,1.48.05.05.11.1.16.16.13.13.25.26.36.39.54.62,1.02,1.28,1.47,1.98.01.01.02.03.03.04.01.02.03.04.04.05.02.03.04.07.06.1.05.07.1.15.14.23.06.1.12.2.18.31.05.07.09.14.13.22.05.08.1.17.14.25.06.11.12.22.18.33.03.06.07.12.1.18.06.1.11.21.17.32.02.04.04.08.07.12.12.24.24.47.36.71.03.07.07.14.1.21.08.17.16.34.24.51.07.16.15.32.22.48.13.28.25.56.37.84.13.3.26.61.39.91.13.31.26.62.38.93.06.16.13.32.19.47.1.24.2.49.3.73.12.3.24.59.36.89.1.25.2.5.31.75.22.55.45,1.1.68,1.64.12.27.23.55.35.82.12.27.24.54.36.82.12.27.24.54.37.81.09.2.19.4.28.6.03.07.06.14.1.21.2.42.41.83.61,1.25.06.12.12.24.19.36.09.18.18.35.28.53.05.09.1.19.15.28.2.35.4.71.6,1.06.12.22.25.43.38.65.17.28.33.57.5.85.17.28.34.56.51.84.13.21.26.42.39.63.39.63.8,1.25,1.21,1.87.27.41.55.82.84,1.22.09.13.19.27.29.4.1.13.19.27.29.4.29.4.59.79.89,1.18.1.13.2.26.31.39.1.13.2.26.31.38.1.13.21.26.31.38.12.15.25.3.37.45.62.73,1.26,1.44,1.92,2.13,2.37,2.44,5.69,5.88,9.43,4.45.22-.09.45-.19.61-.38.28-.34.24-.83.21-1.27,0-.06,0-.12-.01-.18-.11.17-.34.48-.37.52-.23.27-.58.43-.91.55-2.35.83-4.49-1.1-6.17-2.48-1.81-1.48-3.37-3.21-4.93-4.94-1.5-1.67-3.05-3.24-4.36-5.08-.19-.27-.38-.55-.57-.82-1.8-2.72-3.04-5.68-4.18-8.65-1.17-3.04-2.23-6.12-3.2-9.21-.86-2.75-2-4.93-3.99-7.24-.8-.93-1.94-1.77-3.22-2.15-1.25-.37-2.83.22-3.27,1.32-.04.11-.07.21-.09.31Z"/></g></g></g></g></g></g></svg>