<svg id="Grupo_2506" data-name="Grupo 2506" xmlns="http://www.w3.org/2000/svg" xmlns:xlink="http://www.w3.org/1999/xlink" width="96.901" height="96.901" viewBox="0 0 96.901 96.901">
  <defs>
    <clipPath id="clip-path">
      <rect id="Rect치ngulo_374" data-name="Rect치ngulo 374" width="96.901" height="96.901" fill="none"/>
    </clipPath>
  </defs>
  <rect id="Rect치ngulo_373" data-name="Rect치ngulo 373" width="96.901" height="96.901" rx="26" fill="#8c8c8c"/>
  <g id="Grupo_2505" data-name="Grupo 2505">
    <g id="Grupo_2504" data-name="Grupo 2504" clip-path="url(#clip-path)">
      <path id="Trazado_1405" data-name="Trazado 1405" d="M81.661,54.238q-2.209,1.363-4.329,2.817-4.243,2.9-8.224,6.074t-7.772,6.534c-.273.243-.542.489-.813.733q.443-1.948.77-3.9c.385-2.262.659-4.524.848-6.787s.292-4.527.311-6.792-.042-4.53-.192-6.8-.386-4.533-.736-6.8a67.065,67.065,0,0,0-1.386-6.805c-.3-1.134-.629-2.269-1.006-3.405A32.119,32.119,0,0,0,57.8,25.7a31.994,31.994,0,0,0-1.39,3.386q-.594,1.694-1.06,3.389a66.917,66.917,0,0,0-1.5,6.782c-.386,2.262-.656,4.524-.844,6.787s-.286,4.527-.3,6.792.049,4.53.2,6.8.39,4.533.739,6.8q.295,1.947.7,3.894c-.264-.245-.526-.493-.791-.737-2.489-2.285-5.035-4.513-7.664-6.66s-5.328-4.224-8.127-6.2q-2.1-1.483-4.286-2.882c-1.466-.924-2.949-1.832-4.522-2.651.794,1.586,1.678,3.082,2.58,4.563s1.847,2.917,2.813,4.333q2.9,4.245,6.073,8.226c2.1,2.663,4.293,5.244,6.538,7.768s4.554,4.985,6.924,7.387l3.425,3.473,3.467-3.417q3.6-3.553,7.035-7.283t6.658-7.666q3.227-3.935,6.205-8.125,1.484-2.1,2.885-4.284c.925-1.465,1.835-2.945,2.656-4.516-1.584.8-3.078,1.682-4.558,2.584" transform="translate(-9.123 -8.098)" fill="#fff"/>
    </g>
  </g>
</svg>
