<?xml version="1.0" encoding="UTF-8"?><svg id="Capa_2" xmlns="http://www.w3.org/2000/svg" viewBox="0 0 141.46 141.46"><defs><style>.cls-1{fill:#fff;}.cls-2{fill:#f0e146;}</style></defs><g id="fondo"><g id="ave"><circle class="cls-2" cx="70.73" cy="70.73" r="70.73"/><path class="cls-1" d="m105.9,67.68c-2.15,1.33-4.25,2.7-6.32,4.11-4.13,2.83-8.13,5.79-12.01,8.87-3.89,3.07-7.66,6.26-11.35,9.54-.4.35-.79.71-1.19,1.07.43-1.9.81-3.79,1.12-5.69.56-3.3.96-6.6,1.24-9.91.28-3.3.43-6.61.45-9.91.03-3.31-.06-6.61-.28-9.92-.22-3.31-.56-6.62-1.07-9.93-.5-3.31-1.17-6.62-2.02-9.93-.43-1.66-.92-3.31-1.47-4.97-.56-1.66-1.16-3.32-1.95-4.97-.81,1.65-1.44,3.29-2.03,4.94-.58,1.65-1.09,3.3-1.55,4.95-.91,3.3-1.63,6.6-2.18,9.9-.56,3.3-.96,6.6-1.23,9.91-.27,3.3-.42,6.61-.44,9.92-.02,3.31.07,6.61.3,9.92.22,3.31.57,6.62,1.08,9.93.29,1.89.63,3.79,1.03,5.69-.39-.36-.77-.72-1.16-1.08-3.63-3.34-7.35-6.59-11.19-9.72-3.83-3.14-7.78-6.17-11.86-9.06-2.04-1.44-4.13-2.85-6.26-4.21-2.14-1.35-4.3-2.68-6.6-3.87,1.16,2.32,2.45,4.5,3.76,6.66,1.32,2.15,2.7,4.26,4.11,6.33,2.83,4.13,5.79,8.13,8.87,12.01,3.07,3.89,6.27,7.66,9.54,11.34,3.28,3.68,6.65,7.28,10.11,10.78l5,5.07,5.06-4.99c3.51-3.46,6.93-7,10.27-10.63,3.34-3.63,6.58-7.35,9.72-11.19,3.14-3.83,6.17-7.78,9.06-11.86,1.44-2.04,2.85-4.13,4.21-6.25,1.35-2.14,2.68-4.3,3.88-6.59-2.31,1.16-4.49,2.46-6.65,3.77Z"/></g></g></svg>