<?xml version="1.0" encoding="UTF-8"?><svg id="Capa_2" xmlns="http://www.w3.org/2000/svg" xmlns:xlink="http://www.w3.org/1999/xlink" viewBox="0 0 141.46 141.46"><defs><style>.cls-1{fill:#fff;}.cls-2{fill:#8c8c8c;}.cls-3{clip-path:url(#clippath);}.cls-4{fill:none;}</style><clipPath id="clippath"><circle class="cls-4" cx="70.73" cy="70.73" r="70.73"/></clipPath></defs><g id="fondo"><g id="primate"><circle class="cls-2" cx="70.73" cy="70.73" r="70.73"/><g class="cls-3"><path class="cls-1" d="m95.93,109.73c-3.36,16.77-8.84,33.25-15.54,46.85h-7.76c14.45-27.64,22.85-68.6,18.74-91.31-.81-4.46-3.04-11.29-6.86-17.09-2.55-3.88-6.55-8.46-11.38-8.23-3.2.14-8.39,3.62-12.92,8.65-4.46,4.95-7.46,10.58-7.29,13.7.12,2.33,3.05,6.53,7.11,10.21,3.98,3.59,8.36,6.05,10.75,6.05h.15c.79-.04,2.61-1.42,4.39-5.08,1.53-3.13,2.55-7.1,2.42-9.43-.08-1.66-.99-4.04-2.2-5.77-1.27-1.82-2.43-2.46-3.05-2.46-.15.04-.95.54-1.85,2.17-.86,1.58-1.43,3.59-1.36,4.81.04.88-.27,1.74-.87,2.4-.63.67-1.5,1.08-2.44,1.12-1.92.09-3.56-1.35-3.65-3.19-.12-2.43.7-5.59,2.15-8.26,1.95-3.58,4.66-5.63,7.64-5.77,3.41-.16,6.67,1.76,9.23,5.42,1.93,2.78,3.23,6.29,3.38,9.18.17,3.46-1.03,8.41-3.08,12.62-1.15,2.35-2.47,4.29-3.91,5.76-1.98,2-4.15,3.08-6.47,3.18-.15,0-.31,0-.46,0-6.35,0-13.51-6.03-15.56-7.87-2.09-1.9-8.99-8.59-9.3-14.77-.14-2.7.72-5.85,2.56-9.37,1.58-3.01,3.8-6.14,6.44-9.07,5.96-6.61,12.63-10.71,17.85-10.96,6.44-.31,12.53,3.61,17.61,11.33,4.37,6.64,6.91,14.44,7.83,19.54,2.09,11.57,1.28,27.77-2.31,45.62Z"/></g></g></g></svg>