<svg id="Grupo_2509" data-name="Grupo 2509" xmlns="http://www.w3.org/2000/svg" xmlns:xlink="http://www.w3.org/1999/xlink" width="96.901" height="96.901" viewBox="0 0 96.901 96.901">
  <defs>
    <clipPath id="clip-path">
      <rect id="Rect치ngulo_376" data-name="Rect치ngulo 376" width="96.901" height="96.901" fill="none"/>
    </clipPath>
  </defs>
  <rect id="Rect치ngulo_375" data-name="Rect치ngulo 375" width="96.901" height="96.901" rx="26" transform="translate(0)" fill="#8c8c8c"/>
  <g id="Grupo_2508" data-name="Grupo 2508" transform="translate(0)">
    <g id="Grupo_2507" data-name="Grupo 2507" clip-path="url(#clip-path)">
      <path id="Trazado_1406" data-name="Trazado 1406" d="M80.181,85.144a141.424,141.424,0,0,1-6.316,22.071h-5.1c7.021-17.831,10.645-39.539,8.289-52.526a33.472,33.472,0,0,0-4.7-11.707c-1.74-2.658-4.487-5.788-7.789-5.631-2.192.1-5.747,2.48-8.85,5.925-3.055,3.384-5.11,7.247-4.994,9.385.075,1.589,2.082,4.466,4.87,6.987,2.726,2.466,5.727,4.151,7.364,4.151h.1c.541-.027,1.795-.973,3.014-3.48a15.676,15.676,0,0,0,1.658-6.46,8.552,8.552,0,0,0-1.507-3.952c-.87-1.24-1.665-1.685-2.089-1.685a3.281,3.281,0,0,0-1.26,1.486,7.247,7.247,0,0,0-.938,3.3,2.286,2.286,0,0,1-.6,1.644,2.486,2.486,0,0,1-1.671.774,2.371,2.371,0,0,1-2.507-2.185,11.574,11.574,0,0,1,1.48-5.665c1.336-2.452,3.192-3.857,5.233-3.952,2.336-.11,4.569,1.206,6.316,3.713A13.016,13.016,0,0,1,72.5,53.627a19.516,19.516,0,0,1-2.1,8.645,15.112,15.112,0,0,1-2.678,3.946A6.678,6.678,0,0,1,63.289,68.4c-.1.007-.212.007-.315.007-4.35,0-9.254-4.131-10.659-5.391-1.432-1.308-6.151-5.891-6.371-10.118A12.722,12.722,0,0,1,47.7,46.475a31.01,31.01,0,0,1,4.4-6.22c4.083-4.528,8.652-7.336,12.227-7.5,4.411-.212,8.583,2.473,12.063,7.761A38.492,38.492,0,0,1,81.764,53.9c1.432,7.926.87,19.023-1.582,31.243" transform="translate(-14.469 -10.314)" fill="#fff"/>
    </g>
  </g>
</svg>
