<?xml version="1.0" encoding="UTF-8"?><svg id="Capa_2" xmlns="http://www.w3.org/2000/svg" viewBox="0 0 141.43 141.46"><defs><style>.cls-1{fill:#fff;}.cls-2{fill:#93752e;}</style></defs><g id="fondo"><g><rect id="Rectángulo_369" class="cls-2" x="0" width="141.43" height="141.43" rx="37.02" ry="37.02"/><path class="cls-1" d="m95.91,109.24c-2.23,11.12-5.39,22.11-9.22,32.22h-7.45c10.25-26.03,15.54-57.72,12.1-76.68-.8-4.46-3.03-11.29-6.86-17.09-2.54-3.88-6.55-8.45-11.37-8.22-3.2.14-8.39,3.62-12.92,8.65-4.46,4.94-7.46,10.58-7.29,13.7.11,2.32,3.04,6.52,7.11,10.2,3.98,3.6,8.36,6.06,10.75,6.06h.15c.79-.04,2.62-1.42,4.4-5.08,1.52-3.14,2.54-7.11,2.42-9.43-.08-1.66-.99-4.04-2.2-5.77-1.27-1.81-2.43-2.46-3.05-2.46-.15.04-.95.54-1.84,2.17-.86,1.58-1.44,3.6-1.37,4.82.04.88-.27,1.74-.87,2.4-.64.67-1.5,1.08-2.44,1.13-1.93.08-3.56-1.35-3.66-3.19-.12-2.44.71-5.6,2.16-8.27,1.95-3.58,4.66-5.63,7.64-5.77,3.41-.16,6.67,1.76,9.22,5.42,1.93,2.78,3.23,6.3,3.38,9.18.18,3.46-1.02,8.41-3.07,12.62-1.15,2.35-2.47,4.29-3.91,5.76-1.98,1.99-4.15,3.07-6.47,3.18-.15.01-.31.01-.46.01-6.35,0-13.51-6.03-15.56-7.87-2.09-1.91-8.98-8.6-9.3-14.77-.15-2.7.72-5.86,2.56-9.37,1.57-3.01,3.79-6.14,6.43-9.08,5.96-6.61,12.63-10.71,17.85-10.95,6.44-.31,12.53,3.61,17.61,11.33,4.38,6.64,6.91,14.44,7.84,19.54,2.09,11.57,1.27,27.77-2.31,45.61Z"/></g></g></svg>