<svg version="1.2" xmlns="http://www.w3.org/2000/svg" viewBox="0 0 470 470" width="470" height="470"><style>.a{fill:#3c3c3b}.b{mix-blend-mode:multiply;fill:#b2b2b2}.c{fill:#f9d9a8}.d{mix-blend-mode:soft-light;fill:#844f0f}.e{mix-blend-mode:multiply;fill:#f9d9a8}.f{mix-blend-mode:soft-light;fill:#cbbba0}.g{fill:#ededed}.h{mix-blend-mode:multiply;fill:#ededed}.i{fill:#e8a94f}.j{mix-blend-mode:multiply;fill:#e8a94f}.k{fill:#ffed00}.l{fill:#1d1d1b}.m{fill:#fff}.n{fill:#afe4ec}.o{fill:#97c4cb}.p{fill:#f4bfa2}.q{mix-blend-mode:multiply;fill:#f4bfa2}.r{fill:#912d45}.s{fill:#bb8bb2}.t{mix-blend-mode:multiply;fill:#bb8bb2}.u{mix-blend-mode:multiply;fill:#815a5d}.v{fill:#e57c8b}.w{mix-blend-mode:multiply;fill:#9b5663}.x{fill:#f9e1f7}</style><path class="a" d="m429.8 154.6c-2.3 6.5-8 11.9-13.7 15.6-4.9 3.1-9.8 5.9-15.1 8.3-4.4 1.9-9.4 4.1-14.4 5 1.9 0.4 3.5 0.9 5.5 1.1-4.6 1.3-8.9 2-13.7 2.2 2 0.9 4.1 1.5 6.3 1.9-8.3 1.4-17.2 3.1-24.1 8.1q-3.1 2.2-5.8 4.7c-7.5 6.8-14.1 17.5-17.7 26.6-4.7 12.2-5.7 24.8-7.9 37.5-2.3 13-6.6 25.6-12.6 37.4-4.7 9-10.9 16.8-20.9 19.8q2.3 0.3 4.6 0.6c-5.9 4.3-13.4 6.8-20.5 8.8q-1.9 0.6-3.8 1.1c-9.1 2.5-18.6 3.9-28.1 4.5-7.3 0.4-14.6 0.3-21.6-0.2-11.6-1-34.6-3.3-40.1-15.4-1.2-2.5-1.2-5.7 0.7-7.7 3-3.2 8.7-3.2 12.7-3.5 10.5-0.8 20.9 0.8 31.3-0.7 8.2-1.2 16.4-1.9 24.5-3.3q0.3 0 0.7-0.1 2.3-0.4 4.5-0.9 4.8-1.1 9.3-2.6c3.3-1.1 6.6-2.5 9.6-4.1 5.4-2.8 10.1-6.4 13.7-10.8 20.8-25.9 6.2-64.5 18.6-94 8.2-19.3 21.8-36.4 37.7-50q-0.2 0.8-0.2 1.6c2.3-2 4.3-3.9 6.6-5.6 2.7-2.1 5.1-3.6 8.2-5.7 6.4-3.8 13.3-6.7 20.2-9.1-0.8 0.9-1.3 1.7-2 2.7 2.8-1 5.8-1.4 8.7-1.7 11.6-1.5 25.1 0.7 33.9 8.9 1.3 1.2 2.5 2.6 3.5 4.2 2.9 4.4 3.3 9.8 1.5 14.8z"/><path class="b" d="m429.8 154.6c-0.5 1.6-1.3 3.1-2.2 4.5q-0.1 0.2-0.2 0.3-0.2 0.4-0.4 0.7-0.8 1.2-1.8 2.3c-0.2 0.3-0.5 0.6-0.8 1q-0.1 0-0.2 0.1-0.4 0.5-0.9 1-1.4 1.4-2.9 2.6-0.7 0.5-1.4 1.1-1.4 1-2.9 2c-2 1.3-4 2.5-6 3.6q-1.1 0.6-2.1 1.2-0.3 0.1-0.5 0.3c-2.1 1.1-4.3 2.2-6.5 3.2-4.3 1.9-9.4 4.1-14.4 5 1.9 0.3 3.7 0.7 5.5 1.1q-6.8 1.1-13.7 2.2 3.2 1 6.3 1.9c-7.8 1.3-15.8 3-22.1 6.8q-1 0.6-2 1.3-3.1 2.2-5.7 4.7c-7.5 6.8-14.2 17.5-17.8 26.6-4.7 12.2-5.7 24.8-7.9 37.5-2.3 13-6.5 25.6-12.6 37.4-4.7 9-10.8 16.8-20.9 19.8q2.3 0.3 4.6 0.6c-5.9 4.3-13.4 6.8-20.5 8.8q-1.9 0.6-3.8 1.1c-9.1 2.5-18.6 3.9-28.1 4.5-7.3 0.4-14.5 0.3-21.5-0.2-11.7-1-34.7-3.3-40.2-15.4-1.1-2.5-1.1-5.7 0.7-7.7 1.4-1.5 3.5-2.1 5.4-2.5q0.9-0.2 1.9-0.3 0.6-0.1 1.2-0.2 0.4-0.1 0.8-0.1 0.8-0.1 1.6-0.2 0.9-0.1 1.8-0.2c10.5-0.8 20.9 0.8 31.3-0.7 8.2-1.2 16.4-1.9 24.6-3.3q0.3 0 0.6-0.1c1.5-0.2 3.2-0.3 4.5-0.9q4.8-1.1 9.3-2.6c3.4-1.1 6.6-2.5 9.6-4.1-0.1 1.5-0.1 2.7-0.3 3.6-0.6 4.8-0.2 8.9 2.7 13 0.3 0.4 0.7 0.9 1.2 1.1 0.6 0.2 1.3 0 2-0.2 6.2-2.2 11.4-7 14-13q0.4 1.3 0.8 2.7c-0.3-0.9 3.5-5.7 4.1-6.7q2.3-3.9 4.3-8c2.5-5.1 4-10.1 5.8-15.4 3.6-10.5 5.8-21.5 7.2-32.4 1.4-11 1.8-21.7 5.3-32.4 3-9.2 7.7-17.9 14.6-24.7-0.2 2.2 0 4.4 0.6 6.5 2.7-3.4 5.8-6.5 9.1-9.3 0 1.1-0.1 2.2-0.1 3.2 2.2-1.8 6.1-4.1 7.5-4.9 3.8-2.2 7.4-4.3 11.5-6 12.3-5.2 25.7-7.1 37.6-13.3 7.3-3.9 13.9-9.4 17.7-16.7 0.8 0.5 1.4 1.2 1.8 2.1 1.1-1.9 2.2-4.1 2.6-6.8 1.7 3.8 2.1 8.1 0.4 12.9z"/><path class="c" d="m182.2 438.1c0.3 6.6 0 13.1-1.8 19.3q-0.2 0.6-0.4 1.1-0.1 0.2-0.2 0.4-0.2 0.5-0.4 1-0.4 0.6-0.8 1.2 0 0 0 0-0.4 0.6-0.9 1.1-0.4 0.6-0.9 1.1-0.1 0-0.1 0-0.5 0.5-1 0.9 0 0-0.1 0-0.5 0.4-1.1 0.8-0.6 0.3-1.1 0.6-0.1 0.1-0.2 0.1-0.5 0.2-1 0.4-0.2 0.1-0.4 0.2-0.6 0.2-1.3 0.4c-2.6 0.8-5.5 0.9-8.4 0.7q-1.6-0.1-3.2-0.4c-1.1-0.1-2.1-0.4-3.3-0.6q-1-0.2-2-0.2c-1.5-0.1-2.8 0.3-4.2 0.6-3.8 1-7.8 1.6-11.7 1.3q-0.4 0-0.8-0.1-0.5 0-0.9-0.1-0.3-0.1-0.6-0.1-0.4-0.1-0.9-0.2-0.3-0.1-0.7-0.2-0.4-0.2-0.8-0.3c-0.3-0.1-0.5-0.2-0.8-0.3-0.8-0.3-1.5-0.7-2.3-0.9q-0.3-0.1-0.6-0.1c-0.9-0.1-1.7 0.1-2.6 0.3-1.5 0.3-3.1 0.3-4.8 0.1-1.5-0.1-3-0.4-4.5-0.8-0.7-0.3-1.3-0.5-2-0.9-0.7-0.3-1.3-0.7-1.9-1.2-0.5-0.4-1-0.8-1.4-1.3-0.5-0.4-0.9-1-1.2-1.5-2-3.5-2-7.8-0.8-11.7 0.6-1.9 1.4-3.6 2.4-5.2 2-3.1 4.4-5 7.5-6.1 1.5-0.6 3-1 4.5-1.4q0.2 0 0.3 0 2.3-0.7 4.2-1.5 1.9-0.7 3.5-1.7 0 0 0 0c4.3-2.6 6.9-6.7 7.6-13.9 0-0.9 0.1-1.8-0.3-2.5-0.4-0.8-1.3-1.3-2-1.8q-1.9-1.1-3.7-2.4c-11.5-7.6-19.9-17.2-25.4-30-0.4 0.3-1 1.6-1.3 2.2-1.2-2.9-2-6-2.3-9.2-0.4 0.1-1 0.4-1.4 0.6-1.9-7.4-1-20.1-0.7-22.6 1.2-7.7 3.6-15.1 6.4-22.3 2.1-5.1 4.2-10.6 6.6-16.2 5.6-12.9 12.5-26 22.9-34.2 12.9-10 23.7 4 32.7 12.2 6.5 6 15.8 19.5 17.7 28.1 4.2 19.7-14.3 32.6-16.1 50.9q-0.6-0.3-1.2-0.7c-0.5 3.5-0.6 7.1-0.4 10.7q-1.5-1.7-3.1-3.3c0 6.7 1.4 12.8 5.2 18.5 1.3 2 2.9 4 4.3 6 1.6 2.4 3 4.8 3.3 7.6 0.2 1.4 0.1 2.8 0.1 4.1-0.3 6.9 0.4 13.9 0.7 20.9q0.1 1.3 0.1 2.5z"/><path class="d" d="m180.4 457.4q-0.2 0.6-0.4 1.1-0.1 0.2-0.2 0.4-0.2 0.5-0.5 1-0.3 0.6-0.7 1.2 0 0 0 0-0.4 0.6-0.9 1.1-0.4 0.6-1 1.1 0 0 0 0-0.5 0.5-1 0.9 0 0-0.1 0-0.5 0.4-1.1 0.8-0.6 0.3-1.1 0.6-0.1 0.1-0.2 0.1-0.5 0.2-1 0.4-0.2 0.1-0.4 0.2-0.6 0.2-1.3 0.4c-2.6 0.8-5.5 0.9-8.4 0.7q-1.6-0.1-3.3-0.4c-1-0.1-2-0.4-3.2-0.6q-1-0.2-2-0.2c-1.5-0.1-2.8 0.3-4.2 0.6-3.8 1-7.8 1.7-11.7 1.3q-0.4 0-0.8-0.1-0.5 0-0.9-0.1-0.3-0.1-0.6-0.1-0.4-0.1-0.9-0.2-0.3-0.1-0.7-0.2-0.4-0.2-0.8-0.3c-0.3-0.1-0.5-0.2-0.8-0.3-0.8-0.3-1.5-0.7-2.3-0.9q-0.3-0.1-0.6-0.1c-0.9-0.1-1.7 0.1-2.6 0.3-1.5 0.3-3.1 0.3-4.8 0.1-1.5-0.1-3-0.3-4.5-0.8-0.7-0.3-1.4-0.5-2-0.9-0.7-0.3-1.3-0.7-1.9-1.2-0.5-0.4-1-0.8-1.5-1.3-0.4-0.4-0.8-1-1.1-1.5-2-3.5-2-7.8-0.8-11.7 0.6-1.9 1.4-3.6 2.4-5.2 2-3.1 4.4-5 7.5-6.1 1.5-0.6 3-1 4.5-1.4q0.2 0 0.3 0 2.3-0.7 4.2-1.5 1.9-0.7 3.5-1.7 0 0 0 0c4.3-2.6 6.9-6.7 7.6-13.9 0-0.9 0.1-1.8-0.3-2.5-0.4-0.8-1.3-1.3-2-1.8q-1.9-1.1-3.7-2.4c2.9 0.1 5.7 0 8.7-0.3-0.3-1.9-0.3-3.7 0.5-5.5 1.3 1.9 3.2 3.4 5.4 4.2-0.1-1.6 0.2-3.3 1.1-4.7 0.9 1.5 2.3 2.7 3.8 3.5 0.2-1.2 0.7-2.4 1.4-3.4q3.1 1.6 6.4 2.7 0-2 0.1-3.9 5.1 1.9 10.5 3.1c0.3-0.9 0.9-1.6 1.6-2.2q0.5 0.6 0.6 1.4c0.7-0.9 2.6-2.5 3.8-4.2 1.6 2.4 3 4.8 3.3 7.7 0.2 1.3 0.1 2.7 0.1 4.1-0.3 6.8 0.4 13.8 0.7 20.8q0.1 1.3 0.1 2.5c0.3 6.6 0 13.1-1.8 19.3z"/><path class="e" d="m182.2 438.1c0.3 6.6 0 13.1-1.8 19.3q-0.2 0.6-0.4 1.1-0.1 0.2-0.2 0.4-0.2 0.5-0.4 1-0.4 0.6-0.8 1.2 0 0 0 0-0.4 0.6-0.9 1.1-0.4 0.6-0.9 1.1-0.1 0-0.1 0-0.5 0.5-1 0.9 0 0-0.1 0-0.5 0.4-1.1 0.8-0.6 0.3-1.1 0.6-0.1 0.1-0.2 0.1-0.5 0.2-1 0.4-0.2 0.1-0.4 0.2-0.6 0.2-1.3 0.4c-2.6 0.8-5.5 0.9-8.4 0.7q-1.6-0.1-3.2-0.4c-1.1-0.1-2.1-0.4-3.3-0.6q-1-0.2-2-0.2c-1.5-0.1-2.8 0.3-4.2 0.6-3.8 1-7.8 1.6-11.7 1.3q-0.4 0-0.8-0.1-0.5 0-0.9-0.1-0.3-0.1-0.6-0.1-0.4-0.1-0.9-0.2-0.3-0.1-0.7-0.2-0.4-0.2-0.8-0.3c-0.3-0.1-0.5-0.2-0.8-0.3-0.8-0.3-1.5-0.7-2.3-0.9q-0.3-0.1-0.6-0.1c-0.9-0.1-1.7 0.1-2.6 0.3-1.5 0.3-3.1 0.3-4.8 0.1-1.5-0.1-3-0.4-4.5-0.8-0.7-0.3-1.3-0.5-2-0.9-0.7-0.3-1.3-0.7-1.9-1.2-0.5-0.4-1-0.8-1.4-1.3-0.5-0.4-0.9-1-1.2-1.5-2-3.5-2-7.8-0.8-11.7q0.3 1.5 0.9 2.9c1.9 4.4 6.5 7.3 11 6.5 3-0.5 9.2-4.8 9.3-8.5 0 2.5 0.3 6.1 2.5 7.7 2.5 1.7 7.2 1.5 9.9 1.1 5.4-0.8 9.2-4.5 9.9-10.2-0.8 6.6 2.8 9.9 8.9 10.2 5.8 0.2 10.4-2.3 12.1-8 0.4-1.3 0.5-2.7 0.7-4-0.8 0.5-2.4 1.2-3.6 1.5 1.1-3.3 1.9-11.8 1.4-16-0.7-6.2-2.4-12.3-4.6-18.1-3.4-8.5-9.6-14.7-13.4-22.6q-0.7 1.4-1.5 2.9c-2.9-5.5-5-11.5-5.9-17.7q-1.3 3.3-2.5 6.5c-8.7-16.1-15.5-29.4-23.3-47.2-2.8-6.6-5.4-14.8-5.9-21 5.6-13 12.5-26.1 22.9-34.2 12.9-10.1 23.7 4 32.7 12.2 6.5 5.9 15.8 19.5 17.7 28.1 4.2 19.7-14.3 32.6-16.1 50.9q-0.6-0.3-1.2-0.7c-0.5 3.5-0.6 7.1-0.4 10.6q-1.5-1.6-3.1-3.2c0 6.7 1.4 12.8 5.2 18.5 2.9 4.4 7 8.4 7.6 13.6 0.2 1.4 0.1 2.8 0.1 4.1-0.3 6.9 0.4 13.9 0.7 20.9q0.1 1.2 0.2 2.5z"/><path class="e" d="m124.8 436.1c3.2 0 7 0.2 9.8 1.6 0.5 0.2 0.9 0.4 1.4 0.5 0.7 0 1.3-0.3 1.9-0.5 3.2-1.3 6.9-1.4 10.1-0.2 1.8 0.6 3.5 1.6 5.3 1.4 1.3-0.1 2.4-0.8 3.5-1.1 1.2-0.4 2.3-0.5 3.5-0.5q1 0 2 0.1c0.3 0.1 2 0.2 2.1 0.4-3.8-7.3-10.7-14.9-18-18.9-2.4-1.3-6.1-3.1-8.6-4.2 0.7 0.5 1.5 1 2 1.8 0.3 0.7 0.3 1.6 0.3 2.5-1 10.9-6.5 14.6-15.3 17.1z"/><path class="f" d="m180.4 457.4q-0.4 1.3-1.1 2.5-0.1 0.4-0.3 0.7-0.3 0.5-0.7 1c-2 2.7-4.7 4.3-7.7 5.2-2.7 0.7-5.6 0.9-8.5 0.7q-0.8-0.1-1.6-0.2-0.8-0.1-1.6-0.2-0.8-0.2-1.7-0.3c-0.5-0.1-1-0.3-1.6-0.4q-1-0.2-2-0.2c-1.4 0-2.8 0.4-4.2 0.7-3.8 0.9-7.8 1.6-11.7 1.2q-0.4 0-0.8 0-0.4-0.1-0.8-0.2-0.1 0-0.1 0c-0.7-0.2-1.4-0.4-2.2-0.5q-0.8-0.3-1.6-0.6c-0.8-0.3-1.5-0.7-2.3-0.9q-0.3-0.1-0.6-0.1c-0.9-0.1-1.7 0.1-2.6 0.3-1.5 0.3-3.1 0.3-4.8 0.1-1.5-0.1-3-0.3-4.5-0.8-0.7-0.3-1.3-0.5-2-0.9-0.7-0.3-1.3-0.7-1.9-1.2-0.5-0.4-1-0.8-1.4-1.3-0.5-0.4-0.9-1-1.2-1.5-2-3.5-2-7.8-0.8-11.7 0.6-1.8 1.4-3.6 2.4-5.1 2-3.2 4.4-5 7.5-6.2 1.5-0.6 3-0.9 4.5-1.4q0.2 0 0.3 0 2.3-0.7 4.2-1.5 0.2 0 0.4-0.1 1.5 0.2 3 0.6c0.9 0.3 1.9 0.7 2.9 0.7 0.9-0.1 1.8-0.4 2.7-0.6 2.6-0.8 5.5-1 8.2-0.7 2.5 0.4 5.3 2.3 7.8 2.2 2.7-0.2 5.7-2 8.5-2.4 3.2-0.5 6.5-0.5 9.6-0.2 3.8 0.5 7.5 1.7 10.1 4 0.3 6.6 0 13.1-1.8 19.3z"/><path class="f" d="m180.4 457.4q-0.4 1.3-1.1 2.5c-1.8 3.4-5 5.8-8.8 6.8-2.6 0.8-5.5 1-8.4 0.7q-1.6-0.1-3.2-0.3c-1.1-0.2-2.1-0.5-3.3-0.7q-1-0.2-2-0.2c-1.4 0-2.8 0.3-4.2 0.7-3.8 0.9-7.8 1.6-11.7 1.2q-0.4 0-0.8-0.1-0.4 0-0.9-0.1-1.1-0.2-2.2-0.5-0.8-0.3-1.6-0.6c-0.8-0.3-1.5-0.7-2.3-0.9q-0.3-0.1-0.6-0.1c-0.9-0.1-1.7 0.1-2.6 0.3-1.5 0.3-3.1 0.3-4.8 0.2-1.5-0.2-3-0.4-4.5-0.9-0.7-0.3-1.3-0.5-2-0.9-0.7-0.3-1.3-0.7-1.9-1.1-0.5-0.5-1-0.9-1.4-1.4-0.5-0.4-0.9-1-1.2-1.5-2-3.5-2-7.8-0.8-11.7 0.6-1.8 1.4-3.6 2.4-5.1 2-3.2 4.4-5 7.5-6.2 1.5-0.6 3-0.9 4.5-1.3q0.2-0.1 0.3-0.1 2.3-0.6 4.2-1.4 1.9-0.8 3.5-1.7 0-0.1 0-0.1 0.1 0 0.2 0c0.8 0.3 1.6 0.7 2.4 1.3 6.1-2.4 13.2-2 19.1 0.9 7-4.1 15.8-4.9 23.4-2q2.7 1 4.5 2.5 0.1 1.3 0.1 2.5c0.3 6.6 0 13.1-1.8 19.3z"/><path class="g" d="m110.9 456.4q0 0.7 0.1 1.5c0.2 2.7 0.8 5.3 1.4 7.7 0.2-3.1 1-5.9 2.2-7.6 0.5-0.8 1.2-1.4 1.6-2.6 0.6-1.4 0.7-3.9 0.3-5.6-0.3-1.1-1.1-1.9-1.7-2.3q-0.4-0.3-0.7-0.3c-0.9 0-1.9 1.1-2.4 2.8-0.4 1.1-0.6 2.3-0.7 3.7q-0.1 1.3-0.1 2.7z"/><path class="h" d="m110.9 456.4q0 0.7 0.1 1.5c0.2 2.7 0.8 5.3 1.4 7.7 0.2-3.1 1-5.9 2.2-7.6 0.5-0.8 1.2-1.4 1.6-2.6 0.6-1.4 0.7-3.9 0.3-5.6-0.3-1.1-1.1-1.9-1.7-2.3 0.3 0.7 0.6 1.6 0.6 1.8 0.3 1.2 0.4 2.9-0.1 3.9-0.1 0.4-0.3 0.7-0.4 1l-1.8 2.9c-0.2 0.4-0.5 0.9-0.8 1-0.4 0.1-0.7-0.5-0.9-1.3-0.2-1-0.4-2.3-0.4-3.1q-0.1 1.3-0.1 2.7z"/><path class="g" d="m132.6 470c0.5-3.7 1.7-7.2 3.4-9.1 0.8-0.8 1.6-1.5 2.1-2.8 0.5-1.1 0.6-2.6 0.5-4 0-2.7-0.5-5-1.7-6-0.2-0.3-0.4-0.4-0.7-0.5-1.8-0.9-3.1-0.1-4.2 3.1q-0.5 1.9-0.8 4-0.1 0.8-0.1 1.6 0 0.3 0 0.6c-0.2 4.6 0.3 9.1 1.5 13.1z"/><path class="h" d="m132.6 470c0.5-3.7 1.7-7.2 3.4-9.1 0.8-0.8 1.6-1.5 2.1-2.8 0.5-1.1 0.6-2.6 0.5-4 0-2.7-0.5-5-1.7-6 0.2 0.9 0.4 2 0.5 2.7 0.2 1.3 0.2 2.9-0.3 4-0.4 1.2-1.3 1.8-2 2.4q-0.8 0.7-1.6 1.5c-0.3 0.2-0.7 0.8-1 0.6-0.4-0.1-0.7-1-0.9-1.7-0.1-0.7-0.5-2.1-0.4-2.9q-0.1 0.8-0.1 1.6 0 0.3 0 0.6c-0.2 4.6 0.3 9.1 1.5 13.1z"/><path class="g" d="m152 454.8c-0.1 2.8 0.4 5.5 1 8.1q0.6 3 1.2 6.1 0.1 0.3 0.1 0.6c-0.1-0.8 0.6-2.7 0.8-3.4q0.6-1.9 1.3-3.7c1-2.2 2.3-4.2 3-6.7 0.9-3 0.4-5.6-1.3-7.5q-0.1-0.2-0.2-0.3-0.3-0.3-0.7-0.4c-3.3-1.6-5.1 3.3-5.2 7.2z"/><path class="h" d="m152 454.8c-0.1 2.8 0.4 5.5 1 8.1q0.6 3 1.2 6.1 0.1 0.3 0.1 0.6c-0.1-0.8 0.6-2.7 0.8-3.4q0.6-1.9 1.3-3.7c1-2.2 2.3-4.2 3-6.7 0.9-3 0.4-5.6-1.3-7.5 0.1 1.4 0.6 2.2 0.4 3.7-0.2 1.6-0.6 3.1-1.4 4.3-0.5 0.6-1 1.1-1.4 1.6q-0.8 1-1.3 2.3 0 0.2-0.1 0.2c-0.1 0.1-0.2 0-0.3-0.1-1.2-1.3-1.7-3.4-2-5.5z"/><path class="a" d="m279.4 375.9c-0.4-0.2-1-0.5-1.4-0.6-0.3 3.2-1.1 6.3-2.3 9.2-0.3-0.6-0.9-1.9-1.3-2.2-6.1 14.2-15.8 24.4-29.1 32.5-0.7 0.4-1.6 0.9-2 1.7-0.4 0.8-0.4 1.7-0.3 2.5 1 10.9 6.5 14.7 15.3 17.1q0.1 0 0.3 0.1c1.5 0.4 3 0.7 4.5 1.3 3.1 1.2 5.5 3 7.5 6.2 1 1.5 1.8 3.3 2.4 5.1 1.2 3.9 1.2 8.2-0.8 11.7-0.3 0.5-0.7 1.1-1.1 1.5-0.5 0.5-1 0.9-1.5 1.4-0.6 0.4-1.2 0.8-1.9 1.1-0.6 0.4-1.3 0.6-2 0.9-1.5 0.5-3 0.7-4.5 0.9-1.7 0.1-3.3 0.1-4.8-0.2-0.9-0.2-1.7-0.4-2.6-0.3q-0.3 0.1-0.6 0.1c-0.8 0.2-1.5 0.6-2.3 0.9-1.5 0.7-3.1 1.1-4.7 1.3q-0.4 0-0.8 0c-3.9 0.4-7.9-0.3-11.7-1.2-1.3-0.4-2.7-0.7-4.2-0.7q-1 0-2 0.2c-1.2 0.3-2.2 0.5-3.2 0.7-1.1 0.2-2.2 0.3-3.3 0.4-2.9 0.2-5.8 0-8.4-0.8-4.7-1.3-8.5-4.6-9.9-9.3-4-13.5-0.3-28.5-0.9-42.6-0.1-1.4-0.2-2.8 0-4.1 0.6-5.1 4.5-9 7.4-13.3q0.1-0.2 0.3-0.4c3.7-5.7 5.1-11.8 5.1-18.5q-1.5 1.6-3.1 3.3c0.2-3.6 0.1-7.2-0.4-10.7q-0.6 0.4-1.2 0.8c-1.8-18.3-20.3-31.2-16-50.9 1.8-8.7 11.2-22.2 17.6-28.2 9.1-8.2 19.8-22.2 32.7-12.2 10.4 8.2 17.4 21.3 22.9 34.2 2.4 5.6 4.5 11.1 6.6 16.2 2.9 7.2 5.3 14.6 6.4 22.3 0.4 2.5 1.3 15.3-0.7 22.6z"/><path class="b" d="m272.2 460.5c-0.3 0.6-0.7 1.1-1.1 1.6-0.5 0.4-1 0.9-1.5 1.3-0.6 0.4-1.2 0.8-1.9 1.2-0.6 0.3-1.3 0.6-2 0.8-1.5 0.5-3 0.7-4.5 0.9-1.7 0.1-3.3 0.1-4.8-0.2-0.9-0.2-1.7-0.4-2.6-0.3q-0.3 0.1-0.6 0.1c-0.8 0.2-1.5 0.6-2.3 0.9-1.5 0.7-3.1 1.1-4.7 1.3q-0.4 0-0.8 0c-3.9 0.4-7.9-0.3-11.7-1.2-1.3-0.3-2.7-0.7-4.2-0.7q-1 0-2 0.2c-1.2 0.3-2.2 0.5-3.2 0.7-1.1 0.2-2.2 0.3-3.3 0.4-2.9 0.2-5.8 0-8.4-0.8-4.7-1.3-8.5-4.6-9.9-9.3-4-13.5-0.3-28.5-0.9-42.6-0.1-1.4-0.2-2.8 0-4.1 0.6-5.1 4.5-9 7.4-13.3q0.1-0.2 0.3-0.4c3.7-5.7 5.1-11.8 5.1-18.5q-1.5 1.6-3.1 3.3c0.2-3.6 0.1-7.2-0.4-10.7q-0.6 0.4-1.2 0.8c-1.8-18.3-20.3-31.2-16-50.9 1.8-8.7 11.2-22.2 17.6-28.1 9.1-8.3 19.8-22.3 32.7-12.2 10.4 8.1 17.4 21.2 22.9 34.1-0.5 6.3-3 14.4-5.9 21-7.7 17.8-14.6 31.1-23.3 47.3q-1.2-3.3-2.4-6.6c-1 6.2-3 12.2-6 17.8q-0.7-1.5-1.4-3c-3.9 7.9-10.1 14.1-13.4 22.6-2.3 5.8-4 11.9-4.7 18.1-0.4 4.2 0.4 12.7 1.5 16-1.3-0.3-2.9-1-3.6-1.5 0.1 1.4 0.2 2.8 0.6 4.1 1.8 5.6 6.3 8.1 12.1 7.9 6.2-0.2 9.8-3.6 8.9-10.1 0.7 5.6 4.6 9.3 9.9 10.2 2.8 0.4 7.5 0.5 10-1.2 2.2-1.6 2.5-5.2 2.4-7.7 0.1 3.7 6.3 8.1 9.3 8.5 4.6 0.8 9.2-2.1 11-6.4q0.6-1.5 0.9-3c1.2 3.9 1.3 8.2-0.8 11.7z"/><path class="b" d="m258.3 436.1c-3.2 0-7 0.3-9.8 1.6-0.5 0.2-0.9 0.4-1.4 0.5-0.7 0-1.3-0.3-1.9-0.5-3.2-1.3-6.9-1.3-10.1-0.2-1.8 0.6-3.5 1.6-5.4 1.4-1.2-0.1-2.3-0.8-3.5-1.1-1.1-0.3-2.2-0.5-3.4-0.5q-1 0-2 0.2c-0.3 0-2 0.1-2.1 0.3 3.8-7.2 10.7-14.9 18-18.8 2.4-1.3 6.1-3.2 8.6-4.2-0.7 0.4-1.6 0.9-2 1.7-0.3 0.8-0.3 1.7-0.2 2.5 0.9 10.9 6.5 14.7 15.2 17.1z"/><path class="g" d="m272.2 456.4q0 0.8-0.1 1.6c-0.2 2.7-0.8 5.2-1.3 7.6-0.3-3.1-1.1-5.8-2.3-7.6-0.5-0.8-1.2-1.4-1.6-2.5-0.6-1.5-0.7-3.9-0.3-5.7 0.3-1 1.1-1.9 1.7-2.3q0.4-0.2 0.7-0.2c0.9-0.1 1.9 1.1 2.4 2.8 0.4 1 0.6 2.3 0.7 3.6q0.1 1.3 0.1 2.7z"/><path class="h" d="m272.2 456.4q0 0.8-0.1 1.6c-0.2 2.7-0.8 5.2-1.3 7.6-0.3-3.1-1.1-5.8-2.3-7.6-0.5-0.8-1.2-1.4-1.6-2.5-0.6-1.5-0.7-3.9-0.3-5.7 0.3-1 1.1-1.9 1.7-2.3-0.3 0.7-0.6 1.7-0.6 1.9-0.3 1.2-0.4 2.8 0.1 3.9 0.1 0.3 0.3 0.6 0.4 0.9l1.8 3c0.3 0.4 0.5 0.8 0.8 0.9 0.4 0.2 0.7-0.4 0.9-1.2 0.2-1 0.4-2.4 0.4-3.2q0.1 1.3 0.1 2.7z"/><path class="g" d="m250.5 470c-0.5-3.6-1.7-7.2-3.4-9.1-0.8-0.8-1.6-1.5-2.1-2.8-0.5-1.1-0.6-2.6-0.5-4 0-2.7 0.5-4.9 1.7-6 0.2-0.2 0.4-0.4 0.7-0.5 1.8-0.8 3.1-0.1 4.2 3.1q0.5 1.9 0.8 4 0.1 0.8 0.1 1.7 0 0.3 0 0.6c0.2 4.5-0.3 9.1-1.5 13z"/><path class="h" d="m250.5 470c-0.5-3.6-1.7-7.2-3.4-9.1-0.8-0.8-1.6-1.5-2.1-2.8-0.5-1.1-0.6-2.6-0.5-4 0-2.7 0.5-4.9 1.7-6-0.2 0.9-0.4 2-0.5 2.7-0.2 1.4-0.2 2.9 0.3 4.1 0.4 1.2 1.3 1.7 2 2.3q0.8 0.8 1.6 1.5c0.3 0.3 0.7 0.8 1 0.7 0.4-0.2 0.7-1.1 0.9-1.8 0.1-0.6 0.5-2.1 0.4-2.9q0.1 0.8 0.1 1.7 0 0.3 0 0.6c0.2 4.5-0.3 9.1-1.5 13z"/><path class="g" d="m231.1 454.9c0.1 2.7-0.4 5.4-1 8q-0.6 3-1.2 6.1-0.1 0.3-0.1 0.6c0.1-0.7-0.6-2.7-0.8-3.4q-0.6-1.9-1.3-3.7c-1-2.2-2.3-4.2-3-6.6-0.9-3-0.4-5.6 1.3-7.6q0.1-0.1 0.2-0.2 0.3-0.3 0.7-0.5c3.3-1.5 5.1 3.4 5.2 7.2z"/><path class="h" d="m231.1 454.9c0.1 2.7-0.4 5.4-1 8q-0.6 3-1.2 6.1-0.1 0.3-0.1 0.6c0.1-0.7-0.6-2.7-0.8-3.4q-0.6-1.9-1.3-3.7c-1-2.2-2.3-4.2-3-6.6-0.9-3-0.4-5.6 1.3-7.6-0.1 1.4-0.6 2.2-0.4 3.8 0.2 1.5 0.6 3 1.4 4.2 0.5 0.6 1 1.1 1.4 1.7q0.8 1 1.3 2.2 0 0.2 0.1 0.3c0.1 0 0.2-0.1 0.3-0.2 1.2-1.3 1.7-3.4 2-5.4z"/><path class="g" d="m79.4 312.9c-0.1-3.6 0.8-9.3 2.9-12.4 0.2-0.3-1.4-1.3-1.6-1.4-0.8-0.3-1.6-0.5-2.4-0.4-0.8 0-2.7 0.2-3.4 0.5-0.8 0.4-1.6 0.8-1.5 1.8q0.1 1.9 0.7 3.7c0.8 2.4 3.4 6.5 5.3 8.2z"/><path class="h" d="m80.7 299.1c-0.8-0.3-1.6-0.5-2.4-0.4-0.8 0-2.7 0.2-3.4 0.5-0.8 0.4-1.6 0.8-1.5 1.8q0.1 1.9 0.7 3.7 0.1 0.1 0.1 0.3c0-0.1 1.4-0.2 1.5-0.2 0.6 0 1.3 0.1 1.7 0.5 1.2 1 0.4 3.3 0.7 4.7 0.1 0.5 0.1 1.6 0.5 2q0.4 0.5 0.8 0.9c-0.1-3.7 0.8-9.3 2.9-12.4 0.2-0.3-1.4-1.3-1.6-1.4z"/><path class="g" d="m66.1 298.3c-2.4 2.8-3 10.4-3.3 14.1-0.4-0.5-0.8-1.2-1.3-2.1v-0.1c-1.2-2.2-2.5-5.4-3.2-7.5-0.2-0.6-0.3-1.1-0.4-1.4q-0.4-1.9-0.3-3.7 0-0.2 0-0.3c0.3-0.6 0.8-1 1.7-1.4 0.7-0.2 1.5-0.3 2.3-0.3 0.9 0.1 1.7 0.3 2.4 0.7 0.2 0.2 2.4 1.7 2.1 1.9z"/><path class="h" d="m66.1 298.3c-2.4 2.8-3 10.4-3.3 14.1-0.4-0.5-0.8-1.2-1.3-2.1v-0.1c-0.3-0.5 0.2-1.6 0.3-2.1 0.2-0.8 0.5-2.4 0.1-3.2-0.2-0.5-1.3-1-1.8-1.3-0.6-0.3-1.2-0.6-1.8-0.9-0.2-0.6-0.3-1.1-0.4-1.4q-0.4-1.9-0.4-3.7 0-0.2 0.1-0.3c0.3-0.6 0.8-1.1 1.7-1.4 0.7-0.2 1.5-0.3 2.3-0.3 0.8 0.1 1.7 0.3 2.4 0.7 0.2 0.2 2.4 1.7 2.1 1.9z"/><path class="g" d="m52 288.3c-2.2 3-2.8 8.1-2.7 11.7q-0.4-0.4-0.9-1c-1.4-1.6-2.7-4.1-3.5-6q-0.3-0.6-0.4-1.1-0.6-1.8-0.7-3.6c-0.1-1 0.7-1.4 1.5-1.8 0.7-0.4 1.6-0.6 2.4-0.6 0.8 0 1.9 0.5 2.6 0.9 0.2 0.1 1.9 1.1 1.6 1.5z"/><path class="h" d="m52 288.3c-2.2 3-2.8 8.1-2.7 11.7q-0.4-0.4-0.9-1c-0.5-0.6-0.6-1.5-0.5-2.3 0.1-0.9-0.1-1.3-0.8-1.9q-1.1-0.9-2.2-1.8-0.2-0.6-0.4-1.1-0.6-1.8-0.7-3.6c-0.1-1 0.7-1.4 1.5-1.8 0.8-0.4 1.6-0.6 2.4-0.6 0.8 0 1.9 0.5 2.6 0.9 0.3 0.1 1.9 1.1 1.7 1.5z"/><path class="a" d="m39.4 269.2c-0.5 1.7-1.1 4.5-1.1 5.6 0.4-0.5 0.8-0.8 0.8-0.8-0.4 1.6-0.1 3.5 0.2 5.2 0.1 0.6 0.3 1.2 0.4 1.8 0.2 0.7 0.4 1.3 0.6 1.9q0 0.1 0.1 0.2 0.1 0.2 0.1 0.4 0.9 2.3 2.3 4.2c1.3 1.6 2.6 2.9 4.2 4.2q1.4 1 2.8 1.9c0.7 0.4 1.5 0.8 2.1 1.4 0.4 0.5 0.7 1 1 1.5 3.6 4.7 8.3 5.3 13.9 4.1 0.3-0.1 0.6-0.2 0.9-0.1 0.3 0.1 0.5 0.2 0.8 0.4q0.6 0.4 1.2 0.7c0.8 0.4 1.6 0.7 2.5 0.9 1 0.3 1.9 0.5 2.9 0.6 3.2 0.2 6.5-0.6 9.2-2.3 1.7-1.1 3-2.4 4.3-4 1.1-1.4 2-3 2.7-4.8 1.8-4.5 2.6-9.3 4.3-13.9 0.7-2 1.6-3.8 2.7-5.6q0.8-1.3 1.7-2.5 1.2-1.7 2.5-3.3 0.3-0.6 0.7-1.1 1.1-1.4 2.1-2.8 0.5-0.8 1-1.6 1.7-2.5 3.3-5c5.1-7.6 10.2-15 15.3-22.6 1.9-2.9 3.9-5.8 5.7-8.7 4.3-6.4 8.2-13 11.9-19.6 2.9-5.1 13.9-25.9 16.5-31.2 3.8-7.9 7.3-16 9.6-24.5 1.2-4.3 2.5-8.9 2.3-13.5-0.1-5-2.8-10.8-8.8-9.2h-0.1c-2.9 0.9-5.8 3.3-7.9 5-2.2 1.6-8.4 7.2-11.8 10.3-0.8 0.8-1.5 1.4-1.9 1.8-5.6 5.6-11.5 11.3-17.3 16.6-3.2 2.8-6.2 5.9-9.3 8.9q-3.5 3.4-6.9 6.7c-1.4 1.3-2.8 2.7-4.2 3.9-1.5 1.3-3.5 2-5.2 3.1 0.6 0.2 1.2 0.5 1.8 0.8-2.4 1.3-4.3 2.7-6.1 4.5 0.5-0.1 1.2 0 1.6 0.1-1.6 1.8-3.5 3.5-5.2 5.3q-3.1 3.3-6 6.6-5.9 6.7-11.5 13.7-3.8 4.6-7.3 9.3-7.3 9.5-13.9 19.4c-1.8 2.6-3.4 5.3-4.9 8q-1.2 2.2-2.3 4.4c-0.9 1.7-1.7 3.6-2.5 5.4-1.1 2.6-2.1 5.2-2.8 7.9-0.1 0.5-0.3 1.1-0.4 1.7 0.4-0.5 0.9-0.9 1.4-1.2z"/><path class="b" d="m40.5 283.5q0.9 2.3 2.3 4.2c1.2 1.6 2.6 2.9 4.2 4.2q1.4 1 2.8 1.9c0.7 0.4 1.5 0.8 2.1 1.4 0.4 0.5 0.7 1 1 1.5 3.6 4.7 8.3 5.3 13.9 4.1 0.3-0.1 0.6-0.2 0.9-0.1 0.3 0.1 0.5 0.2 0.8 0.4q0.6 0.4 1.2 0.7c0.8 0.4 1.6 0.7 2.5 0.9 1 0.3 1.9 0.5 2.9 0.6 3.2 0.2 6.5-0.6 9.2-2.3 1.7-1.1 3-2.4 4.3-4 1.1-1.4 2-3 2.7-4.8 1.8-4.5 2.6-9.3 4.3-13.9 0.7-2 1.5-3.8 2.7-5.6q0.8-1.3 1.7-2.5c1-1.5 2.1-2.9 3.2-4.4q1.1-1.4 2.1-2.8 0.5-0.8 1-1.6 1.6-2.5 3.3-5c5-7.6 10.2-15 15.3-22.6 1.9-2.9 3.9-5.8 5.7-8.7 4.2-6.4 8.2-13 11.9-19.6 2.9-5.1 13.9-25.9 16.5-31.2 3.8-7.9 7.3-16 9.6-24.5 1.2-4.3 2.5-8.9 2.3-13.5-0.1-5-2.8-10.8-8.8-9.2h-0.1c-2.9 0.9-5.8 3.3-8 5-2.1 1.6-8.3 7.2-11.7 10.3-0.3 1.2-0.7 2.4-1.2 3.5q-2.1 4.9-4.2 9.7c-1.2 2.6-4.5 11.3-6.2 14.9q2.7-0.4 5.5-0.8-1 4.2-2 8.4c0.8-0.8 2.2-1.4 3.3-0.7 3.3 2.1-21.8 45.9-24 49.9q-0.4-1.4-0.9-2.8c-7.2 9.3-13 19.6-17.3 30.5-3.9 9.8-4.3 22-9.7 30.9-2.3 3.7-7.3 8.7-12.3 7.1-1.7-0.5-3.2-2-5.1-2.1-0.7-0.1-1.5 0.1-2.3 0.3-3 0.6-6.2 0.9-9.1-0.2-1.4-0.5-2.7-1.3-3.9-2.3-0.6-0.6-1-1-1.8-1.3-0.9-0.3-1.8-0.3-2.7-0.3-2.8-0.3-5.6-1.7-7.9-3.6z"/><path class="g" d="m303.7 312.9c0.1-3.6-0.8-9.3-2.9-12.4-0.2-0.3 1.4-1.3 1.6-1.4 0.8-0.3 1.6-0.5 2.4-0.4 0.8 0 2.7 0.2 3.4 0.5 0.8 0.4 1.6 0.8 1.5 1.8q-0.1 1.9-0.7 3.7c-0.8 2.4-3.4 6.5-5.3 8.2z"/><path class="h" d="m302.4 299.1c0.8-0.3 1.6-0.5 2.4-0.4 0.8 0 2.7 0.2 3.4 0.5 0.8 0.4 1.6 0.8 1.5 1.8q-0.1 1.9-0.7 3.7-0.1 0.1-0.1 0.3c0-0.1-1.4-0.2-1.5-0.2-0.6 0-1.3 0.1-1.7 0.5-1.2 1-0.4 3.3-0.7 4.7-0.1 0.5-0.1 1.6-0.5 2q-0.4 0.5-0.8 0.9c0.1-3.7-0.8-9.3-2.9-12.4-0.2-0.3 1.4-1.3 1.7-1.4z"/><path class="g" d="m317 298.3c2.4 2.8 3 10.4 3.3 14.1 0.4-0.5 0.8-1.2 1.3-2.1v-0.1c1.2-2.2 2.5-5.4 3.2-7.5 0.2-0.6 0.3-1.1 0.4-1.4q0.4-1.9 0.4-3.7-0.1-0.2-0.1-0.3c-0.3-0.6-0.8-1-1.7-1.4-0.7-0.2-1.5-0.3-2.3-0.3-0.8 0.1-1.7 0.3-2.4 0.7-0.2 0.2-2.4 1.7-2.1 1.9z"/><path class="h" d="m317 298.3c2.4 2.8 3 10.4 3.3 14.1 0.4-0.5 0.8-1.2 1.3-2.1v-0.1c0.3-0.5-0.2-1.6-0.3-2.1-0.2-0.8-0.5-2.4-0.1-3.2 0.2-0.5 1.3-1 1.9-1.3 0.5-0.3 1.1-0.6 1.7-0.9 0.2-0.6 0.3-1.1 0.4-1.4q0.4-1.9 0.4-3.7 0-0.2-0.1-0.3c-0.3-0.6-0.8-1.1-1.6-1.4-0.8-0.2-1.6-0.3-2.4-0.3-0.8 0.1-1.7 0.3-2.4 0.7-0.2 0.2-2.4 1.7-2.1 1.9z"/><path class="g" d="m331.1 288.3c2.2 3 2.8 8.1 2.7 11.7q0.4-0.4 0.9-1c1.3-1.6 2.7-4.1 3.5-6q0.3-0.6 0.4-1.1 0.6-1.8 0.7-3.6c0.1-1-0.7-1.4-1.5-1.8-0.8-0.4-1.6-0.6-2.4-0.6-0.8 0-1.9 0.5-2.6 0.9-0.3 0.1-1.9 1.1-1.7 1.5z"/><path class="h" d="m331.1 288.3c2.2 3 2.8 8.1 2.7 11.7q0.4-0.4 0.9-1c0.5-0.6 0.5-1.5 0.5-2.3-0.1-0.9 0.1-1.3 0.7-1.9q1.2-0.9 2.3-1.8 0.2-0.6 0.4-1.1 0.6-1.8 0.7-3.6c0.1-1-0.7-1.4-1.5-1.8-0.8-0.4-1.6-0.6-2.4-0.6-0.8 0-1.9 0.5-2.6 0.9-0.3 0.1-1.9 1.1-1.7 1.5z"/><path class="i" d="m343.7 269.2c0.5 1.7 1.1 4.5 1.1 5.6-0.4-0.5-0.8-0.8-0.8-0.8 0.4 1.6 0.1 3.5-0.2 5.2-0.1 0.6-0.3 1.2-0.4 1.8-0.2 0.7-0.4 1.3-0.6 1.9 0 0.1-0.1 0.1-0.1 0.2q-0.1 0.2-0.1 0.4-0.9 2.3-2.3 4.2c-1.3 1.6-2.6 2.9-4.2 4.2q-1.4 1-2.8 1.9c-0.7 0.4-1.5 0.8-2.1 1.4-0.4 0.5-0.7 1-1 1.5-3.6 4.7-8.3 5.3-13.9 4.1-0.3-0.1-0.6-0.2-0.9-0.1-0.3 0.1-0.5 0.2-0.8 0.4q-0.6 0.4-1.2 0.7c-0.9 0.4-1.6 0.7-2.5 0.9-1 0.3-1.9 0.5-2.9 0.6-3.2 0.2-6.5-0.6-9.2-2.3-1.7-1.1-3.1-2.4-4.3-4-1.1-1.4-2-3-2.7-4.8-1.8-4.5-2.6-9.3-4.3-13.9-0.7-2-1.6-3.8-2.7-5.6q-0.8-1.3-1.7-2.5c-1-1.5-2.1-2.9-3.2-4.4q-1.1-1.4-2.1-2.8-0.5-0.8-1-1.6-1.7-2.5-3.3-5c-5.1-7.6-10.2-15-15.3-22.6-1.9-2.9-3.9-5.8-5.8-8.7-4.2-6.4-8.1-13-11.8-19.6-2.9-5.1-13.9-25.9-16.5-31.2-3.8-7.9-7.3-16-9.6-24.5-1.2-4.3-2.5-8.9-2.3-13.5 0.1-5 2.8-10.8 8.8-9.2h0.1c2.9 0.9 5.8 3.3 7.9 5 2.2 1.6 8.4 7.2 11.8 10.3 0.8 0.8 1.5 1.4 1.8 1.8 5.7 5.6 11.6 11.3 17.4 16.6 3.2 2.8 6.2 5.9 9.3 8.9q3.5 3.4 6.9 6.7c1.4 1.3 2.8 2.7 4.2 3.9 1.5 1.3 3.5 2 5.2 3.1-0.6 0.2-1.2 0.5-1.8 0.8 2.4 1.3 4.3 2.7 6.1 4.5-0.5-0.1-1.2 0-1.6 0.1 1.6 1.8 3.5 3.5 5.2 5.3q3.1 3.3 6 6.6 5.9 6.7 11.5 13.7 11.3 13.9 21.2 28.7c1.8 2.6 3.4 5.3 4.9 8q1.2 2.2 2.3 4.4c0.8 1.7 1.7 3.6 2.4 5.4 1.2 2.6 2.2 5.2 2.9 7.9 0.1 0.5 0.3 1.1 0.4 1.7-0.4-0.5-0.9-0.9-1.4-1.2z"/><path class="j" d="m342.6 283.5q-0.9 2.3-2.3 4.2c-1.3 1.6-2.6 2.9-4.2 4.2q-1.4 1-2.8 1.9c-0.7 0.4-1.5 0.8-2.1 1.4-0.4 0.5-0.7 1-1 1.5-3.6 4.7-8.3 5.3-13.9 4.1-0.3-0.1-0.6-0.2-0.9-0.1-0.3 0.1-0.5 0.2-0.8 0.4q-0.6 0.4-1.2 0.7c-0.8 0.4-1.6 0.7-2.5 0.9-1 0.3-1.9 0.5-2.9 0.6-3.2 0.2-6.5-0.6-9.2-2.3-1.7-1.1-3-2.4-4.3-4-1.1-1.4-2-3-2.7-4.8-1.8-4.5-2.6-9.3-4.3-13.9-0.7-2-1.5-3.8-2.7-5.6q-0.8-1.3-1.7-2.5c-1-1.5-2.1-2.9-3.2-4.4q-1.1-1.4-2.1-2.8-0.5-0.8-1-1.6-1.6-2.5-3.3-5c-5-7.6-10.2-15-15.3-22.6-1.9-2.9-3.9-5.8-5.7-8.7-4.3-6.4-8.2-13-11.9-19.6-2.9-5.1-13.9-25.9-16.5-31.2-3.8-7.9-7.3-16-9.6-24.5-1.2-4.3-2.5-8.9-2.3-13.5 0.1-5 2.8-10.8 8.8-9.2h0.1c2.9 0.9 5.8 3.3 8 5 2.1 1.6 8.3 7.2 11.7 10.3 0.3 1.2 0.7 2.4 1.2 3.5q2.1 4.9 4.2 9.7c1.1 2.6 4.5 11.3 6.2 14.9q-2.7-0.4-5.5-0.8 1 4.2 2 8.4c-0.8-0.8-2.2-1.4-3.3-0.7-3.3 2.1 21.8 45.9 24 49.9q0.4-1.4 0.9-2.8c7.2 9.3 13 19.6 17.3 30.5 3.9 9.8 4.3 22 9.7 30.9 2.3 3.7 7.3 8.7 12.3 7.1 1.7-0.5 3.2-2 5.1-2.1 0.7-0.1 1.5 0.1 2.3 0.3 3 0.6 6.2 0.9 9.1-0.2 1.4-0.5 2.7-1.3 3.9-2.3 0.6-0.6 1-1 1.8-1.3 0.9-0.3 1.8-0.3 2.7-0.3 2.8-0.3 5.6-1.7 7.9-3.6z"/><path class="a" d="m266.6 171.9q-1.8-0.3-3.7-0.7c0.6 2.6 1.7 5.1 2.9 7.4-1.4-0.2-2.6-0.5-4-1.1-0.9 2.9-2 5.7-3.2 8.6-4.6 11.2-11 22.5-12.9 34-7.2 24.5-2 49 11.8 69.8-2.1 0.3-4.4-0.1-6.3-1.2q0.9 2 1.7 3.9c-1.7 0.1-3.1 0-5.4 0-1.9 4.5-5.1 8.7-8.7 12.3 0-1.7 0-3.3 0-4.9-5.5 11.6-13.2 21.6-23 30.9-0.1-1-0.2-2-0.3-3-1.8 4-3.1 5.3-6 7.4 0.5-2 0.6-3.2 0.7-5.1-11 18-34.8 10.1-44.7-6.6-0.6 0.9-0.9 1.8-1.2 3-3.5-3.5-5.7-7.3-7.5-12.3-0.3 1.6-1.2 3.4-2.1 4.6-2.6-6.4-8.7-15.5-12.8-19.8-1.3 0.7-2.2 1.4-3.3 3.1-4-3.4-6.8-8-8-13.1q-2.8 1-5.7 2.1 2.3-3.4 4.1-6.8c10.8-20.3 10.5-41.3 6.3-62.4-2.1-10.6-5.3-21.3-8.5-31.8q-0.1-0.5-0.3-1c-1.1-3.6-2.2-7.3-3.3-10.9q-1.6 1.2-3.2 2.4c0.2-5.8 1-10.8 2.9-14.8-1.4 0.1-2.9 0.2-4.3 0.3 0.2-1.1 0.6-2.2 1-3.3-1.9-0.2-3.9-0.1-6.2 0.2q8.5-8.5 16.9-16.9 0.1-0.1 0.2-0.2c-1.9-0.4-3.8-0.9-5.8-1 2.4-1.9 9.3-5.1 12.6-5.8-2.2-1-4.5-1.9-7.4-2.6 5.9-1.9 10.6-3.8 15.5-6.5q0.6-0.3 1.1-0.6c4.2-2.4 8.4-5.1 12.5-7.7q5.9-4.4 11.2-7.4c20.3-11.7 35.6-8.7 57.6 8.3 3.6 2.5 7.2 4.9 10.8 7 4.3 2.6 8.7 4.9 13.3 6.9-1.5 0.9-3.8 1.6-5.4 1.7 3.3 1.9 5.7 3 9 4.7-2 0.5-4.1 0.8-5.7 0.7q1.3 1.1 2.4 2.3c7.1 6.8 12.8 14.3 17.8 23-2.2-0.9-4.7-1.6-7.4-1.9q2.3 2.2 4.1 4.8z"/><path class="b" d="m257.5 289.9c-2.1 0.3-4.4-0.1-6.3-1.2q0.9 2 1.7 3.9c-1.7 0.1-3.1 0-5.4 0-1.9 4.5-5.1 8.7-8.7 12.3 0-1.7 0-3.3 0-4.9-5.5 11.6-13.2 21.6-23 30.9-0.1-1-0.2-2-0.3-3-1.8 4-3.1 5.3-6 7.4 0.5-2 0.6-3.2 0.7-5.1-11 18-34.8 10.1-44.7-6.6-0.6 0.9-0.9 1.8-1.2 3-3.5-3.5-5.7-7.3-7.5-12.3-0.3 1.6-1.2 3.4-2.1 4.6-2.6-6.4-8.7-15.5-12.8-19.8-1.3 0.7-2.2 1.4-3.3 3.1-4-3.4-6.8-8-8-13.1q-2.8 1-5.7 2.1 2.3-3.4 4.1-6.8c10.8-20.3 10.5-41.3 6.3-62.4-2.1-10.6-5.3-21.3-8.5-31.8 6 8.4 10.8 18.2 16.2 27 1.9 3.1 5.1 7.5 7.4 10.7-2.5-1.3-5-2.4-6.7-2.8 1 1.5 2 3 3 4.5q-1.8-0.8-3.6-1.6c0.8 3.9 1.2 8.2 1.9 12.4 1.8 13.7 1.3 27.5 3.9 41 2.2 11.4 11.4 22.1 19.1 30.8-0.2-1.7-0.4-3.3-0.6-4.9 1.4 2.3 3.2 4.2 5.2 5.7q-0.3-1.8-0.7-3.6c2.6 2.5 8.3 6.1 11.9 7.4 6.9 2.5 16.2-0.6 22.7-5.6-0.4 1.4-1.4 3.4-2.2 4.7 1.6-0.8 3.8-2.2 5.1-3.2 4.1-3 7.8-5.7 11.2-9.1 8.7-8.6 14.9-19.5 17.1-31.3 2.3-11.8 0.2-24-0.6-35.1-0.3-3.5-2.7-10.8-8.4-12.8 4.2-2.6 8.7-6.2 11.7-10.3 3.2-4.3 6-9 9-13.8 3.1-5 6.1-9 9.2-14.2-4.6 11.2-11.1 22.5-12.9 34-7.2 24.5-2.1 49.1 11.8 69.8z"/><path class="b" d="m249.8 143.7q1.3 1.1 2.4 2.3c-1.2 1.5-6.5 6.2-8.1 7.9-3.3 3.5-6.6 6.9-9.9 10.1-6.4 6.3-13 11.7-19.2 15.8-4.3 2.8-12 5.8-12 5.8 0 0 1.3-2.7 1-4.9-2.2 1.5-3.7 3.3-5.1 6.4-3.2-1.4-5.2-2.6-7.8-4.7 0.6 2.6 2.7 6.3 4.8 8.5-10.5-4.8-16.6-10.4-19.9-16 0.1 2.9 0.8 6.6 2.7 10.1-10.6-5.6-22.2-14.3-35.8-26.9-4.8-4.8-9.5-9.7-12.3-11.8-0.1-0.1-0.2-0.1-0.3-0.1q0.1-0.1 0.2-0.2c-1.9-0.4-3.8-0.9-5.8-1 2.4-1.9 9.3-5.1 12.6-5.8-2.2-1-4.5-1.8-7.4-2.6 6.3-2 11.3-4 16.6-7.1 4.2-2.4 8.4-5.1 12.5-7.7 26.4-19.7 43-19.1 68.8 0.9 7.8 5.5 15.7 10.2 24.1 13.9-1.5 0.9-3.7 1.6-5.4 1.7 3.3 1.9 5.7 3.1 9 4.7-2 0.5-4.1 0.8-5.7 0.7z"/><path class="b" d="m238.6 129.7q-0.1 0.2-0.2 0.3c-6.2 9.1-12.7 17.5-21.9 23.8-1.9 1.4-5.9 2.8-5.9 2.8 0 0 3-4.5 4-7.8-3.4 4.1-9.2 9.5-14.5 12.3 0.2-1.7 0.2-2.6-0.1-4.3-4.4 2.8-9.1 8.5-9.9 13.9-7.5-5.1-16.5-15.5-19.1-19 0.1 2.5 0.4 4.6 1 6.8-5.5-4.1-9.6-7.9-14.2-12.8-4.7-4.8-9.1-9.9-12.4-15.6q0.6-0.3 1.1-0.6c4.2-2.4 8.3-5.1 12.5-7.7 26.4-19.7 42.9-19.1 68.8 0.9 3.6 2.5 7.1 4.9 10.8 7z"/><path class="a" d="m251 104.2q-0.2 2.9-0.7 5.7c-0.5-0.4-0.9-1-1.2-1.6-0.4 1.8-1.1 3.5-2.1 5 0-1-0.3-2.1-0.8-2.9q-0.9 2.5-1.7 5.1c0.2-0.6-0.1-2-0.2-2.6-0.9 1.1-1.9 1.9-2.9 2.9-1 1.1-2 2.1-3.1 3.1q-3.5 3-7.4 5.6c-11.2 7.7-24.1 12.6-37.3 14q-0.6 0.1-1.2 0.1-1.3 0-2.7-0.1-7-0.8-13.8-2.8c-8-2.4-15.7-6-22.7-10.7q-1.9-1.2-3.7-2.5c-2.1-1.5-4.2-3.1-6.1-4.8-2.4-2.1-4.1-4.1-5.5-7.1q-0.4 1.6-0.5 3.1c-0.8-1.1-1.3-2.4-1.7-3.8-0.3-1.3-0.5-2.7-0.5-4-0.7 1-1.1 2.1-1.2 3.3-0.6-1.4-0.9-3-1.1-4.5-0.1-0.8-0.3-1.5-0.3-2.3 0-0.5-0.2-1.9 0.2-2.4q-1.3 1.6-2.6 3.1c0.7-6.7 3-13.1 5-19.6 0.8-2.4 1.7-4.9 2.6-7.4 0.4-1.2 1.7-6.9 2.9-7.5q-0.9 0.4-1.8 0.9c1.1-2.6 1.9-5.1 3.3-7.5-0.3 0.2-0.7 0.2-1.1 0.1 0.7-1 1.2-2.1 1.5-3.3q-0.7 0.2-1.5 0.3c3.5-6.2 6.4-12.5 9.9-18.6 5.4-9.1 12.8-16.8 21.2-22.4 4-2.7 8.1-3.7 12.5-4.2q2-0.3 4.2-0.4c-0.4-0.6-1.4-1.6-2.3-2.2-0.5-0.3-0.9-0.6-1.3-0.6q1.1 0.1 2.1 0.2 1.3 0.1 2.6 0.3 0.8 0.1 1.7 0.4 1.5 0.4 3.1 1.1-0.8-0.7-1.4-1.5-1-1.1-1.7-2.4-0.1-0.2-0.2-0.3-0.1-0.1-0.1-0.2 0.1 0.1 0.1 0.2 0.1 0.1 0.2 0.2c0.8 0.8 2.5 1.6 3.9 2.2q0.6 0.2 1.1 0.4c0.5 0.2 1 0.4 1.3 0.6 2.4 1 4.7 1.8 6.9 3.1q0.3 0.2 0.6 0.3 1 0.6 1.9 1.1c1.7 0.9 3.3 1.7 5 2.6q3.5 2.4 6.6 5.3c5.3 4.8 9.9 10.4 13.5 16.5q2.7 4.5 4.6 9.5c1.3 3.5 3.2 6.3 5 9.6-0.5 0.3-1.2 0.4-1.8 0.1q1.8 2.1 3.1 4.4-0.7-0.2-1.3-0.4 0.8 1.1 1.6 2.2c-0.5 0.2-1 0.1-1.5 0q1.4 2.1 2.8 4.3-0.6 0-1.3 0c1.5 5.9 4.4 11.5 5.6 17.6 0.3 1.5 0.6 3 0.9 4.4 0.8 3.8 1 7.7 0.7 11.6z"/><path class="b" d="m251 98.3q-0.2 2.9-0.7 5.8c-0.5-0.4-0.9-1-1.2-1.6-0.4 1.7-1.1 3.4-2.1 4.9 0-1-0.3-2-0.8-2.9q-0.9 2.6-1.7 5.1c0.2-0.5-0.1-2-0.2-2.6-0.9 1.1-1.9 2-2.9 3-1 1-2 2.1-3.1 3q-3.5 3.1-7.4 5.7c-11.2 7.6-24.1 12.5-37.3 14q-0.6 0-1.2 0.1-1.3 0-2.7-0.1-7-0.8-13.8-2.9c-8-2.3-15.7-5.9-22.7-10.6q-1.9-1.3-3.7-2.6c-2.1-1.5-4.2-3-6.1-4.8-2.4-2.1-4.1-4.1-5.5-7q-0.4 1.5-0.5 3.1c-0.8-1.2-1.3-2.4-1.7-3.8-0.3-1.3-0.5-2.7-0.5-4.1-0.7 1-1.1 2.1-1.2 3.3-0.6-1.4-0.9-3-1.1-4.5-0.1-0.7-0.3-1.5-0.3-2.2 0-0.6-0.2-2 0.2-2.4q-0.6 0.7-1.2 1.4c-0.6 2.5-1.1 5-1.4 7.5q1.3-1.5 2.6-3c-0.4 0.4-0.2 1.8-0.2 2.3 0 0.8 0.2 1.5 0.3 2.3 0.2 1.5 0.5 3.1 1.1 4.5 0.1-1.2 0.5-2.3 1.2-3.3q0 2.1 0.5 4c0.4 1.4 0.9 2.7 1.7 3.8q0.1-1.5 0.5-3.1c1.4 3 3.1 5 5.5 7.1 1.9 1.7 4 3.3 6.1 4.8q1.8 1.3 3.7 2.5c7 4.7 14.7 8.4 22.7 10.7q6.8 2 13.8 2.8 1.4 0.2 2.7 0.1 0.6 0 1.2-0.1c13.2-1.4 26.1-6.3 37.3-14q3.9-2.6 7.4-5.6c1.1-0.9 2.1-2 3.1-3.1 1-1 2-1.8 2.9-2.9 0.1 0.6 0.3 2 0.2 2.6q0.8-2.6 1.7-5.1c0.6 0.9 0.8 1.9 0.8 2.9 1-1.5 1.7-3.2 2.1-5 0.3 0.7 0.7 1.2 1.2 1.6q0.5-2.8 0.7-5.7 0.1-3 0-5.9 0 0 0 0z"/><path class="b" d="m187.8 88.3c1.3 1.2 4.3 1.4 5.8 0.8 0.5-0.2 1.8-0.7 2.1-1.2 0-0.1 0-0.3 0-0.5-0.1-2.9-1-6-1.9-8.7-0.7-2.2-1.7-5.1-1.1-7.4q-0.4 1.6-0.8 3.2-0.5-3.8-0.5-7.6c-1 3.8-1.8 7.7-2.8 11.5-0.6 2.6-1.2 5.2-1.5 7.9-0.1 1 0.2 1.6 0.7 2.1z"/><path class="b" d="m180.6 48.9c-1.2-2.6-1.8-5.3-0.8-7.9 1-2.4 3.2-4 5.4-5.2 5-2.9 13-4.2 18-0.6 2.9 2 4.7 5.9 3.7 9.5-0.5 1.9-1.8 3.4-3 4.9q-5.7 7-12 13.3c0.2-0.1-5.8-7.4-6.2-8 0.3 0.9 0.4 1.9 0.1 2.7-1.4-2.4-3.7-5.5-5.2-8.7z"/><path class="k" d="m168.5 54.3h0.2 0.2c2.1 0.2 4.3 1.6 6.1 3.2q0 0 0 0c1.8 1.6 3.1 3.3 3.2 4 0 0 0 0.1 0 0.1 0 4.3-3.5 7.7-7.8 7.7-4.2 0-7.7-3.4-7.7-7.7 0-2.4 1.2-4.4 2.8-6 0.7-0.8 1.5-1.1 2.4-1.2q0 0 0.2 0c0 0 0.4-0.1 0.4-0.1z"/><path class="l" d="m163.3 61.3c0 4.1 3.3 7.4 7.4 7.4 4.1 0 7.3-3.2 7.5-7.2-0.1-0.7-1.4-2.4-3.2-4q0 0 0 0c-1.8-1.6-4-3-6.1-3.2h-0.2q-0.6 0-1.2 0.2-0.8 0.3-1.5 1c-1.1 1.2-2.1 2.5-2.5 4.1q-0.1 0.4-0.2 0.8 0 0.4 0 0.9z"/><path class="m" d="m172.9 61.8c-1.2 0-2.2-0.9-2.2-2.1 0-1.2 1-2.1 2.2-2.1 1.1 0 2.1 0.9 2.1 2.1 0 1.2-1 2.1-2.1 2.1z"/><path class="l" d="m203.9 65.7c0 2.1 0.2 4.4 0.7 6.3 0.1-0.8 0.2-1.3 0.5-1.9 0.4-1 1.8-1.3 3.2-1.2 1.6 0.3 3.2 0.7 4.9 0.7 1.8-0.1 3.5-0.7 4.9-1.7 2.9-2.1 3.6-5.9 3.4-9.3q1.6-0.5 3.3-0.6c-1.8-1-3.9-2.2-4.6-2.7-0.3-0.2-1.8-1.2-2.7-1.7-1.4-1-3-0.6-4.6 0-3.4 1.4-5.7 3.8-7.9 6.6-0.3 0.3-0.5 0.5-0.6 0.9-0.1 0.2-0.1 0.5-0.2 0.7-0.2 1.2-0.3 2.5-0.3 3.9z"/><path class="n" d="m220.3 61.3c0 0.5 0 1-0.1 1.5q-0.3 1.4-1.1 2.6-0.4 0.6-0.9 1.1c-0.9 0.9-1.9 1.5-3.1 1.9q-0.8 0.2-1.7 0.3-0.2 0-0.5 0-0.3 0-0.5 0c-1.9-0.2-3.5-1-4.8-2.2q-0.2-0.2-0.4-0.5-0.3-0.3-0.5-0.6-0.6-0.9-0.9-2-0.1-0.3-0.2-0.7 0-0.2-0.1-0.5 0-0.3 0-0.7c0-0.5 0.7-1.5 1.8-2.6v-0.1q0.6-0.6 1.3-1.3 0 0 0 0c1-0.9 2.2-1.8 3.4-2.3 0.9-0.5 1.8-0.8 2.8-0.9h0.3l0.4 0.1q0.2 0 0.2 0c0.2 0 0.3 0.1 0.4 0.1q0.8 0.5 1.6 1c1.2 1.1 2.1 2.5 2.5 4.1q0.1 0.4 0.1 0.8 0.1 0.4 0.1 0.9z"/><path class="o" d="m219.1 61.2c0 2-0.9 3.8-2.4 4.9-1 0.8-2.4 1.3-3.8 1.3-1.4 0-2.8-0.5-3.8-1.4h-0.1c-1.4-1.1-2.3-2.8-2.3-4.8q0-1.2 0.5-2.3v-0.1q0.6-0.6 1.4-1.3 0 0 0 0c1-0.9 2.2-1.8 3.4-2.3q0.4-0.1 0.9-0.1c1.4 0 2.7 0.4 3.7 1.2 1.5 1.1 2.5 2.9 2.5 4.9z"/><path class="l" d="m212.9 64.7c-1.9 0-3.4-1.6-3.4-3.5 0-1.9 1.5-3.4 3.4-3.4 1.9 0 3.4 1.5 3.4 3.4 0 1.9-1.5 3.5-3.4 3.5z"/><path class="m" d="m215.1 59.8c-1.2 0-2.1-0.9-2.1-2 0-1.1 0.9-2 2.1-2 1.1 0 2 0.9 2 2 0 1.1-0.9 2-2 2z"/><path class="p" d="m206.7 101.7q-0.4 0.8-1.2 1.5c-2.7 2.3-7.9 5.5-13.8 5.5-5.9 0-11-3.3-13.7-5.5q-0.8-0.7-1.3-1.5 0.7 0 1.5 0c4.3-0.2 8.5-1.7 10.9-4.7 0.5-0.6 0.8-1.3 0.9-2q0-0.2 0.1-0.3 0-0.4 0-0.8h3.3v0.2q0 0.2 0 0.4c0.2 2 1.9 3.9 3.9 5 2.3 1.3 5.2 2 8 2.1q0.7 0.1 1.5 0.1z"/><path class="q" d="m206.7 101.7c-0.3 0.5-1.3 0.5-1.8 1-2.7 2.3-7.3 4.8-13.2 4.8-6 0-9.8-2-12.4-4.3-0.6-0.5-2.3-1-2.6-1.5q0.7 0 1.5 0c4.3-0.2 8.5-1.7 10.9-4.7 0.4-0.6 0.8-1.3 0.9-2q0-0.2 0-0.3 0.1-0.4 0.1-0.8h3.3v0.2q0 0.2 0 0.4c0.2 2 1.9 3.9 3.9 5 2.3 1.3 5.1 2 8 2.1q0.7 0.1 1.4 0.1z"/><path class="r" d="m205.3 101.7q-0.5 0.3-1.1 0.6-1.3 0.7-2.7 1.4c-0.5 0.2-1 0.5-1.5 0.7q-0.1 0-0.2 0.1-0.5 0.2-1 0.4-0.1 0-0.3 0.1c-1.4 0.6-2.9 1-4.6 1.2q-1.1 0.2-2.2 0.2-1 0-1.9-0.1c-1.4-0.2-2.7-0.5-4-1q-0.4-0.1-0.9-0.3-0.4-0.1-0.7-0.3-0.2 0-0.3-0.1c-1.5-0.6-2.8-1.3-3.9-1.9q-0.4-0.2-0.7-0.4-0.6-0.3-1.1-0.6c4.2-0.2 8.5-1.7 10.9-4.7 0.4-0.7 0.7-1.3 0.9-2q0-0.2 0-0.4 0.1-0.1 0.1-0.2 0-0.3 0-0.5h3.3v0.2q-0.1 0.2 0 0.4c0.2 2.1 1.9 3.9 3.8 5 2.4 1.3 5.2 2 8.1 2.1z"/><path class="s" d="m198.6 104.7q0 0.2-0.1 0.3c-2 0.8-4.3 1.4-6.8 1.4-2.1 0-4.1-0.4-5.9-1.1q-0.2-0.3-0.2-0.7c-0.1-2.1 1.2-4.2 2.7-5.6 0.6-0.6 1.2-1.2 2-1.4 1.9-0.5 3.8 0.1 5.2 1.4 0.8 0.7 1.3 1.4 1.8 2.2 0.8 1.2 1.2 2.1 1.3 3.5z"/><path class="t" d="m205.3 101.7q-0.5 0.3-1.1 0.6-1.3 0.7-2.7 1.4c-0.5 0.2-1 0.5-1.5 0.7q-0.1 0-0.2 0.1-0.5 0.2-1 0.4-0.1 0-0.3 0.1c-1.4 0.6-2.9 1-4.6 1.2q0.4-0.1 0.8-0.3 1.1-0.5 2.1-1.2c1.6-1 0.2-2.3-0.9-2.7-0.8-0.2-1.5-0.3-2.2-0.2-0.3 0.1-1.9 0.8-1.9 0.8-0.9-0.4-1.8-0.7-2.8-0.6-1.1 0.1-2.8 0.9-2.2 2.3 0.2 0.5 0.7 0.9 1.2 1.2 0.6 0.3 1.2 0.6 1.8 0.8-1.4-0.2-2.7-0.5-4-1q-0.4-0.1-0.9-0.3-0.4-0.1-0.7-0.3-0.2 0-0.3-0.1c-1.5-0.6-2.8-1.3-3.9-1.9q-0.4-0.2-0.7-0.4-0.6-0.3-1.1-0.6c4.3-0.2 8.5-1.7 10.9-4.7 0.4-0.7 0.8-1.3 0.9-2q0-0.2 0-0.4 0.1-0.1 0.1-0.2 0-0.3 0-0.5h3.3v0.2q-0.1 0.2 0 0.4c0.2 2.1 1.9 3.9 3.8 5 2.4 1.3 5.2 2 8.1 2.1z"/><path class="u" d="m205.3 101.7c-2 1.5-4.3 1.5-6.7 0.9-2-0.6-3.9-1.6-6-1.7-1.4-0.1-2.8 0.3-4.1 0.7-2.2 0.6-4.4 1.3-6.6 1.2-0.7 0-1.5-0.1-2.1-0.3-0.3-0.1-0.6-0.2-0.8-0.3-0.2-0.1-0.7-0.5-0.8-0.5 4.3-0.2 8.5-1.7 10.9-4.7 0.4-0.6 0.8-1.3 0.9-2q0-0.2 0-0.3 0.1-0.2 0.1-0.3 0-0.3 0-0.5h3.3v0.2q0 0.2 0 0.4c0.2 2.1 1.9 3.9 3.9 5 2.3 1.3 5.1 2 8 2.2z"/><path class="l" d="m218.9 93.9c0.2 2.9-2.1 5.4-4.7 6.9-2.5 1.4-5.6 2.2-8.7 2.3q-0.7 0.1-1.3 0.1c-4.6-0.1-9.2-1.5-12.1-4.7q-0.2-0.2-0.4-0.4c-1.1 1.4-2.6 2.5-4.3 3.3-2.5 1.2-5.3 1.7-8.1 1.8q-0.7 0-1.3 0c-3.1-0.2-6.1-1-8.8-2.5-2.6-1.4-4.8-3.9-4.7-6.8 0.2 2.8 2.5 5 5.1 6.2 2.1 1 4.6 1.5 7.1 1.6q0.3 0 0.6 0c4.6 0 9.2-1.5 11.8-4.7 0.6-0.9 0.9-1.7 1-2.6 0-0.2 0.7-8.1 0.7-8.3h2.2l0.4 7.8q0 0.1 0 0.2c0 2.2 1.8 4.2 3.8 5.4 2.7 1.4 5.8 2.2 9 2.2q0.2 0 0.5 0c2.5-0.1 5-0.6 7.1-1.6 2.7-1.2 5-3.4 5.1-6.2z"/><path class="v" d="m200.1 84.4c0 3.7-6.8 8.1-8.6 8.1-1.8 0-8.6-4.3-8.6-8.1 0-2.7 3.8-2.7 8.6-2.7 4.8 0 8.6 0 8.6 2.7z"/><path class="w" d="m191.5 90.6c-1.7 0-8.3-3.1-8.6-5.9 0.3 3.8 6.9 7.8 8.6 7.8 1.8 0 8.2-4.1 8.6-7.8-0.4 2.8-6.8 5.9-8.6 5.9z"/><path class="l" d="m214.5 90.3c8.7 0.4 17.5 2.7 25.2 6.8-8.2-3-16.6-5.3-25.2-6.8z"/><path class="l" d="m168.4 90.3c-8.6 1.5-17 3.8-25.2 6.8 7.8-4.1 16.5-6.4 25.2-6.8z"/><path class="l" d="m209.6 83.4c17-6.2 35.1-8.9 53.1-8.4-18 0.6-35.8 3.3-53.1 8.4z"/><path class="l" d="m214.6 85.9c17.7-1.9 35.8-1.3 53.4 1.9-17.8-2.1-35.6-2.7-53.4-1.9z"/><path class="l" d="m173.3 83.4c-17.2-5.1-35.1-7.8-53-8.4 18-0.5 36.1 2.2 53 8.4z"/><path class="l" d="m168.4 85.9c-17.8-0.9-35.7-0.3-53.4 1.9 17.6-3.3 35.7-3.9 53.4-1.9z"/><path class="a" d="m176.4 17.3q-0.1 0.4-0.1 0.9c-0.1 0.3-0.1 0.6-0.2 0.9q-0.1 0.4-0.3 0.8c-0.4 1.2-1.3 2.5-2.1 3.5 0-0.3 0.1-0.6 0.1-0.8q-0.4 0.3-0.8 0.6-1.8 1.4-3.5 3c0.2-0.3 0.3-0.6 0.4-0.9-1.4 1.1-2.9 1.9-4.4 3-2.2 1.7-4.3 3.7-6.2 5.9-1.8 2-4 4.4-4.6 7.2q-0.3-0.8-0.4-1.7c-1.2 3.3-3.3 6.1-5.4 8.8-0.2-0.4-0.3-0.9-0.5-1.3-0.6 0.7-0.7 2.4-1 3.3q-0.4-0.3-0.7-0.8-0.5 1.1-0.6 2.4c-1.5-2.1-2.7-3.8-3.1-6.3q-0.5-2.7-0.7-5.5-0.2-1.6-0.2-3.1c-0.2-4.9 0.2-9.9 0.7-14.8q0.2-1.2 0.3-2.4c0.3-1.8 0.5-3.6 0.8-5.4q0.3-1.4 0.7-2.7c0.1-0.4 0.7-1.7-0.3-1.4 0.2-0.6 0.8-2 1.4-2.3q-0.6 0.3-1.2 0.6 0 0-0.1 0.1 0.2-0.4 0.5-0.8 0.1-0.2 0.4-0.4 0.1-0.2 0.3-0.3 0-0.1 0-0.1 0.1-0.1 0.3-0.3 0.2-0.2 0.5-0.4 0.2-0.1 0.3-0.2 0.2-0.1 0.5-0.3 0.3-0.1 0.7-0.3 0.2-0.1 0.5-0.2c0 0 0 0 0.1 0q0.4-0.1 0.8-0.2 0.4-0.1 0.9-0.2 0.2 0 0.3 0 0.5 0 1.1 0 1.1-0.1 2.3 0.1c2.4 0.4 5 1.2 7.3 2.1q0.1 0.1 0.1 0.1 0.2 0.1 0.4 0.1c2 0.9 3.9 1.8 5.3 2.5q0.2 0 0.3 0.1c1.7 0.9 3.5 1.8 5.1 3.1 0.7 0.6 1.4 1.3 2.1 2.1 0.4 0.7 1.3 1.7 1.3 2.5q0.3-0.3 0.5-0.6z"/><path class="x" d="m167.7 22.7q-0.1 0-0.2 0-2.5-0.4-5-0.9c1.7 0.7 3.2 1.7 4.3 3.1q-3.5-0.3-7-0.6 1.7 1.1 3.4 2.2c0.6 0.4-11.7 10.7-12.1 11.9-0.1 0.2-0.2 0.4-0.3 0.5-0.2 0.1-0.4 0.1-0.5 0.1q-1.1-0.1-2.2-0.2c-0.4 0-0.8-0.1-1.1-0.4-0.3-0.4-0.1-1 0.2-1.5 0.4-0.4 0.8-0.7 1-1.2-0.3-0.6-1-0.9-1.6-0.7 0.1-3.9 0.4-7.6 0.9-11.4 0.5-3.4 1.1-6.2 2.7-9.3 3.1-5.9 14.6 0.3 17.9 3.3 1.1 1 1.9 2.4 1.7 3.9 0 0.3-0.2 0.7-0.4 1-0.4 0.4-1.1 0.3-1.7 0.2z"/><path class="a" d="m206 17.3q0 0.4 0.1 0.9c0 0.3 0.1 0.6 0.2 0.9q0.1 0.4 0.3 0.8c0.4 1.2 1.2 2.5 2.1 3.5q-0.1-0.4-0.2-0.8 0.4 0.3 0.9 0.6 1.8 1.4 3.4 3c-0.1-0.3-0.2-0.6-0.4-0.9 1.5 1.1 3 1.9 4.4 3 2.3 1.7 4.4 3.7 6.3 5.9 1.9 2.1 3.3 4.5 4.8 7q0.1-1.1-0.1-2.2c0.1 0.6 0.8 1.4 1.1 2 0.3 0.6 0.6 1.3 0.9 1.9 0.6 1.4 0.8 2.9 2 4.1-0.2-0.9-0.1-1.8 0.3-2.5 0.1 0.3 1.4 4.4 1.3 4.4 0.4-0.1 0.7-0.4 0.8-0.7-0.1 0.5 2.2 3.5 2.5 4.3 0.1 0.1 2.7-3.3 2.9-3.7 0.8-1.4 1.5-3 2-4.6 1-3.3 1.6-6.8 2.6-10.2q-0.3 0.2-0.7 0.1 0.5-1.4 0.9-2.9-0.5 0.3-1 0.6c1.3-4.8 1.1-10 0.8-14.9-0.3-4.2-0.9-8.6-2.9-12.3-0.9-1.6-2.2-3.1-3.9-3.8-0.9-0.5-1.9-0.7-2.9-0.7-1.2 0-2.2-0.1-3.4 0.5-0.1-0.2 0-0.4 0-0.6q-0.7 0.3-1.3 0.7 0-0.2-0.1-0.4c-1.8 1.4-3.8 1.9-6 2.7q-3.2 1.4-6.3 3.2c-3.9 2.1-6.9 5.7-9.5 9.2-0.5 0.7-1.3 1.7-1.4 2.5q-0.3-0.3-0.5-0.6z"/><path class="x" d="m235.5 36.5q0.2 0.3 0.4 0.5c0.3 0.4 1 0.7 0.9 1.3-0.1 0.7-1.1 0.7-1.7 0.8-1.3 0.1-2.2 0.4-3.3-0.5-1.1-0.9-2-1.9-3.1-2.9-0.5-0.5-6.8-5.7-6.5-6.2q0.4-0.7 0.8-1.3-1.2-0.2-2.3-0.4c1-1.1 2.2-2.1 3.6-2.8-2.3-0.8-4.7-1.1-7.1-1.1 0.5-1.1 1.4-1.9 2.4-2.4-0.2-0.3-0.7-0.3-1-0.2-1.1 0.1-2.2 0.4-3.2 0.4-4-0.1-2.2-3.3-0.8-5.3 2-2.9 5.1-4.9 8.1-6.6 3-1.7 6.1-3.3 9.5-4 3.1-0.7 4.5 2.3 5.2 4.8 1.1 3.8 1.1 7.8 0.9 11.8-0.2 3.4-0.6 6.6-0.8 10 0 0.5 0.4 2.2-0.5 2.2q-0.3 0-0.5-0.1c-0.4-0.2-1-0.3-1.3 0.1-0.1 0.2-0.1 0.5-0.1 0.7q0.1 0.7 0.4 1.2z"/></svg>