<svg version="1.2" xmlns="http://www.w3.org/2000/svg" viewBox="0 0 470 470" width="470" height="470"><style>.a{fill:#e6d6bf}.b{mix-blend-mode:multiply;fill:#e6d6bf}.c{fill:none}.d{fill:#322f2a}.e{mix-blend-mode:multiply;fill:#878787}.f{fill:#5f584f}.g{mix-blend-mode:multiply;fill:#b2b2b2}.h{fill:#d8c7ad}.i{fill:#bf6d34}.j{fill:#dca43c}.k{mix-blend-mode:multiply;fill:#bf6d34}.l{fill:#665c4f}.m{fill:#aa8971}.n{fill:#9c8c78}.o{mix-blend-mode:multiply;fill:#9c8c78}.p{fill:#d97a78}.q{fill:#e4807e}.r{fill:#fff}.s{fill:#3c3c3b}.t{fill:#1d1d1b}.u{fill:#634e42}.v{mix-blend-mode:multiply;fill:#dadada}</style><path class="a" d="m258.6 369.4c-0.1 0-0.1 0.1-0.1 0.1-1 9.3-4.2 17.8-7.2 26.9q-0.3 1.1-0.6 2.1-0.2 0.7-0.4 1.4-0.2 0.4-0.2 0.8c-0.8 2.7-1.5 5.5-2.3 8.3-0.2 0.7-0.4 1.5-0.6 2.2q-0.2 0.5-0.3 1.1-0.3 0.9-0.6 1.8-0.3 1-0.7 2c-1 2.6-2.1 5.1-3.5 7.5-1 1.6-2 3.1-3.2 4.5 0.1-1.8-0.6-3.5-1.9-4.7-2 2.8-23.2 17.9-23.3 16.3q-0.2-3-0.3-5.9c-2 1.2-3.6 3-4.6 5.1q-0.6-1.4-1.3-2.8-0.9-1.9-1.8-3.8-0.6 0.6-1.3 1.1c-2.7 2.1-6.4 2.9-9.8 2 1.7-3.1 2.5-6.6 2.4-10.1-2.7 1.1-5.2 2.9-7.1 5.1 0.1-4.6 0.6-9.2 1.4-13.7-2.4 1.3-4.4 3.2-5.9 5.4q-0.1-2.6 0.4-4.9 0.1-0.7 0.3-1.3c0.7-2.6 2-4.9 3.4-7.2 1.6-2.6 3.5-5.1 5.1-7.7 0.8-1.4 1.5-2.8 2.2-4.3q0.3-0.7 0.5-1.4 1.8-4.3 3.3-8.7 0 0 0.1 0 1.6-4.5 2.9-9.1c2.9-9.3 5.1-18.8 6.7-28.4 0.3-2.2 0.7-4.4 1.1-6.6q0.2-0.9 0.4-1.7 0.2-0.5 0.3-1.1 0.1-0.3 0.2-0.6 0.1-0.4 0.2-0.7 0.2-0.4 0.3-0.9 0.2-0.5 0.4-0.9 0.2-0.5 0.4-0.9 0.4-0.9 0.9-1.7 0.3-0.5 0.6-0.9 0.4-0.6 0.8-1.2 0.2-0.2 0.4-0.5 0.3-0.2 0.5-0.5c0.2-0.2 0.4-0.3 0.6-0.6q0.5-0.5 1.1-0.9 0.6-0.5 1.2-0.9 0.1-0.1 0.2-0.2 0.6-0.4 1.2-0.7 0.2-0.1 0.4-0.2 0.6-0.3 1.3-0.6 0.7-0.4 1.4-0.6 0.8-0.3 1.6-0.5 0.1-0.1 0.2-0.1c0.2 0 0.5-0.1 0.8-0.2q0.1 0 0.1 0 0.5-0.1 1-0.2 0.4 0 0.8-0.1 0.5-0.1 0.9-0.1 0.4 0 0.8 0c3.4-0.2 6.8 0.3 9.8 1.7 11.5 5.2 17.5 20.8 18.5 32.6q0.1 0.8 0.1 1.5c0.2 3 0.1 5.8-0.2 8.6z"/><path class="b" d="m258.5 369.3c0 0 0 0 0 0.1-1 9.2-4.2 17.8-7.1 26.9q-0.4 1-0.7 2.1-0.2 0.7-0.4 1.4-0.1 0.4-0.2 0.7c-0.7 2.8-1.4 5.6-2.2 8.4q-0.3 1.1-0.6 2.2-0.1 0.5-0.3 1.1-0.3 0.9-0.6 1.8-0.3 1-0.7 2c-0.9 2.6-2 5.1-3.4 7.5-1 1.6-2 3.1-3.2 4.5 0.1-1.7-0.6-3.5-1.9-4.7-2 2.8-23.1 18.1-23.2 16.5q-0.2-3-0.4-6c-1.9 1.3-3.5 3.1-4.5 5.2q-0.7-1.4-1.4-2.8-0.8-1.9-1.8-3.8-0.6 0.6-1.3 1.1c-2.7 2.1-6.4 2.9-9.7 2 1.6-3.1 2.4-6.6 2.3-10.1-2.7 1.2-5.2 2.9-7.1 5.2q0.1-6.9 1.3-13.7c-2.3 1.3-4.3 3.2-5.8 5.4q-0.2-2.6 0.3-4.9 0.2-0.7 0.3-1.3c0.7-2.6 2-4.9 3.4-7.2 1.6-2.6 3.5-5.1 5-7.8 0.8-1.4 1.6-2.8 2.2-4.3q0.3-0.7 0.6-1.4 1.7-4.3 3.2-8.7 0 0 0.1 0 1.5-4.5 2.9-9.1c2.8-9.3 5-18.8 6.5-28.4 0.4-2.2 0.7-4.4 1.1-6.6q0.2-0.9 0.4-1.8 0.2-0.5 0.3-1 0.1-0.3 0.2-0.6 0.1-0.4 0.2-0.7 0.2-0.5 0.3-0.9 0.2-0.5 0.4-0.9 0.2-0.5 0.4-0.9 0.4-0.9 0.9-1.8 0.2-0.4 0.5-0.8 0.4-0.7 0.9-1.2 0.2-0.3 0.4-0.5 0.2-0.3 0.5-0.5c0.2-0.2 0.3-0.4 0.5-0.6q0.6-0.5 1.1-0.9c0.4-0.4 0.8-0.7 1.2-1q0.1 0 0.2-0.1 0.6-0.4 1.2-0.7 0.2-0.2 0.4-0.2 0.6-0.4 1.3-0.7 0.7-0.3 1.4-0.5 0.8-0.4 1.6-0.6 0.1 0 0.2 0c0.3-0.1 0.5-0.2 0.8-0.2q0.1-0.1 0.1-0.1 0.5-0.1 1-0.2 0.4 0 0.8-0.1 0.5-0.1 0.9-0.1 0.4 0 0.8-0.1c3.4-0.2 6.8 0.4 9.9 1.7 11.5 5.1 17.5 20.8 18.6 32.6 0 0.5 0.1 1 0.1 1.5q0.3 4.4-0.2 8.6z"/><path class="b" d="m258.6 369.4c-0.1 0-0.1 0.1-0.1 0.1-1 9.3-4.2 17.8-7.2 26.9q-0.3 1.1-0.6 2.1-0.4 1.1-0.6 2.2c-0.8 2.7-1.5 5.5-2.3 8.3-0.2 0.7-0.4 1.5-0.6 2.2q-0.2 0.5-0.3 1.1-0.3 0.9-0.6 1.8-0.3 1-0.7 2c-1 2.6-2.1 5.1-3.5 7.5q-0.4-6.4-1.2-12.7c-6 6.7-12.7 12.9-19.8 18.3 0.7-0.5-0.2-5.9-0.3-7 0 1.6-9 6-10.3 6.4 1.1-3.2 1.1-6.6 1.6-10-2.5 3.8-5.8 7.2-9.6 9.6 0.5-4.3 0.5-8.8 0.1-13.1q-4.4 3.9-8.2 8.6 1.1-5.8 2.2-11.6c-3.9 1.1-7.5 2.8-10.8 5.1 0.6-3.1 2-5.9 3.7-8.5 1.6-2.6 3.5-5.1 5.1-7.7 0.8-1.4 1.6-2.8 2.2-4.3q0.3-0.7 0.5-1.4c1.7-2.6 2.5-5.7 3.3-8.7q0.1 0 0.1 0c0.8-3.2 1.6-6.3 3-9.1 4.2-8.4 5.2-19.8 6.6-28.4 0.4-2.2 0.7-4.4 1.2-6.6q0.1-0.9 0.4-1.7 0.1-0.5 0.2-1 0.1-0.4 0.2-0.7 0.1-0.3 0.2-0.7 0.2-0.4 0.4-0.9 0.1-0.4 0.3-0.9 0.2-0.5 0.4-0.9 0.4-0.9 0.9-1.7 0.3-0.5 0.6-0.9 0.4-0.6 0.8-1.1 0.2-0.3 0.5-0.5 0.2-0.3 0.5-0.6c0.1-0.2 0.3-0.3 0.5-0.6q0.5-0.5 1.1-0.9 0.6-0.5 1.2-0.9 0.1-0.1 0.2-0.2 0.6-0.3 1.2-0.7 0.2-0.1 0.4-0.2 0.6-0.3 1.3-0.6 0.7-0.3 1.4-0.6 0.8-0.3 1.6-0.5 0.1 0 0.2-0.1c0.3 0 0.5-0.1 0.8-0.1q0.1-0.1 0.1-0.1 0.5-0.1 1-0.2 0.4 0 0.8-0.1 0.5-0.1 0.9-0.1 0.4 0 0.8 0c3.4-0.2 6.8 0.3 9.8 1.7 11.6 5.2 17.5 20.8 18.5 32.6q0.1 0.8 0.1 1.5c0.1 2.8 0 5.7-0.2 8.6z"/><path class="c" d="m236 393.5l0.5 0.5"/><path class="d" d="m126.9 341.9c-0.1 0.2-0.4 0.4-0.6 0.6-1.9 1-3.9 1.5-5.8 1.9-1.1 0.3-2.2 0.6-3.3 1-3.4 1.4-3.3 2.1-5.6 5.2-1.9 2.6-3.9 4.1-6.8 4.7q-1 0.2-2.1 0.3-0.4 0-0.8 0-1.5 0-3-0.2-0.7-0.1-1.4-0.2c-1.4-0.3-2.7-0.5-3.9 0.2-2.5 1.5-4.7 1.6-7.1 0.8q-0.4-0.2-0.7-0.3-0.2-0.1-0.3-0.2-0.2 0-0.4-0.1-0.4-0.2-0.8-0.4-0.5-0.3-1-0.6c-4.3-2.7-10.7-7.3-13.5-12.3q-0.4-0.9-0.8-1.8-0.5-1.1-0.8-2.3c-1-3.4-1.6-7.4-2-11.2-0.3-2.9-0.6-5.7-0.9-8.2q-0.1-0.3-0.1-0.6c-0.9-5.3-1-11.1-0.5-16.8 2-8.4 5.1-16.3 8-22.2 3.6-7.6 7.1-15.1 14.3-16.3 3.6 2.2 6.5 8 8.7 13.7 2.8 7.4 5.9 14.7 9.8 21.5q0.2 0.4 0.4 0.7 0.3 0.5 0.7 0.9 0.2 0.3 0.4 0.5c3.8 5.1 6.7 10.3 10.4 15.5q0.3 0.5 0.7 1c0.7 1.1 1.5 2.3 2 3.6 0.7 1.8 0.9 3.6 1 5.4 0.2 2.3 0.3 4.5 1.1 6.6q0 0.1 0 0.2c0.4 0.9 0.9 1.9 1.4 2.8 0.7 1.3 1.5 2.6 2.2 3.9q0.5 0.8 0.9 1.7c0.2 0.3 0.3 0.6 0.2 0.9z"/><path fill-rule="evenodd" class="e" d="m126.9 341.9c-0.1 0.2-0.4 0.4-0.6 0.6-1.9 1-3.9 1.5-5.8 1.9-1.1 0.3-2.2 0.6-3.3 1-3.4 1.3-3.3 2.1-5.5 5.2-2 2.6-4 4.1-6.9 4.7q-1 0.2-2.1 0.3-0.4 0-0.8 0-1.5 0.1-3-0.2-0.7-0.1-1.4-0.2c-1.4-0.3-2.7-0.5-3.9 0.2-2.5 1.5-4.7 1.6-7.1 0.8q-0.3-0.2-0.7-0.3-0.2-0.1-0.3-0.2-0.2 0-0.3-0.1-0.4-0.2-0.9-0.4-0.5-0.3-1-0.6c-4.3-2.7-10.7-7.3-13.5-12.3q-0.4-0.9-0.8-1.8-0.5-1.1-0.8-2.3c1.6 5.3 9.5 8.6 14.5 9.7-1.3-2.5-7.4-16.7-6.2-18.6q-1.2 1.8-2.4 3.7c-1.5-1.5-7.1-7.1-6.6-9.6-0.2 0.8-0.8 2.2-1.3 3.6-0.3-2.9-0.5-5.7-0.9-8.2q-0.1-0.3-0.1-0.6c-0.9-5.3-1-11.1-0.5-16.8 2-8.4 5.1-16.3 8-22.2 3.6-7.5 7.1-15.1 14.3-16.3 3.6 2.2 6.5 8 8.7 13.7 2.8 7.5 5.9 14.8 9.8 21.5q0.2 0.4 0.5 0.7 0.2 0.5 0.6 0.9 0.2 0.3 0.4 0.5c3.8 5.1 6.7 10.4 10.4 15.5q0.3 0.5 0.7 1c-1 1.8-2.1 3.5-3 5.3-0.9 1.8-3.8 9-1.3 10.2 0.9 0.4 1.9 0.2 2.7-0.3 1.8-0.9 2.8-2.8 3.8-4.5q0.4-0.9 0.8-1.6c0.2 2.2 0.3 4.4 1.1 6.5q0 0.1 0.1 0.2c0.3 0.9 0.8 1.9 1.3 2.8-1.2 0.6-3 1.1-3.5 1.9-0.5 0.9-0.1 2 0.6 2.6 0.8 0.5 1.9 0.6 2.8 0.4 0.9-0.3 1.6-0.9 2.4-1q0.4 0.8 0.8 1.7c0.2 0.3 0.3 0.6 0.2 1zm-50.4-12.6q0 0 0 0 0 0 0 0zm28.3 16.8c4.8-6-6.7-16.7-3.5-23.5-1.1 2.4-1.8 5-2 7.7q-1.8-2.5-3.2-5.2c0.1 2.9-1.3 6.3-1.3 9.6-0.1 1.6-6-2.7-6.3-3-0.4 0.5-0.3 1.2-0.2 1.9 1.3 5.7 3.9 10.5 9.6 13.1 2 0.9 4.8 1.2 6.5-0.2q0.2-0.2 0.4-0.4zm-3.5-23.5q0 0 0 0 0 0 0 0z"/><path class="f" d="m176.1 182.6q0 0.1 0 0.2-0.3 1.4-0.5 2.5-0.3 1.5-0.6 3.1-0.1 0.2-0.1 0.4c-1.4 7.1-2.7 14.6-5.1 21.4q-0.5 1.5-1.1 2.8c-6.5 14.9-20.3 23.4-27.6 37.5q0.1-1.5 0.3-2.9-2.4 2.1-4.8 4.2c0.2-1.7 0.5-3.5 1-5.1-3.8 5.6-11.5 7.1-15.6 12.4-4.1 5.4-3.5 14.6-5.6 21-0.2-1.6-0.8-3.2-1.6-4.7q-1 5.6-2.4 11.1-0.9-1.6-1.8-3.2c-2.1 6-4.2 14.8-0.6 20.7 1 1.5 4.9 7.2 6.3 8-7.1-3.8-7.6-2.3-10.3 4.2-1.2-1.6-8.5-7.4-8.5-9.1q-0.8 5.8-0.4 11.7c-1.3-2-2.2-4.2-2.9-6.4-0.6 3.6-6.1 15.2-3 18.3q-2.1-2.2-4.2-4.3-0.7-0.7-1.4-1.5c-0.6 2.1-0.8 4.3-0.7 6.5-0.4-0.2-1.3-0.7-2.3-1.3-3.6-2.2-9.4-6.3-8.5-8.1q-1.1 2.4-1.6 5.1c0.5-2.2-4.9-10.1-6.2-11.9q-1.6 2.7-3.2 5.4-0.1-5.3-0.2-10.6-0.9 2.4-1.9 4.7c0-13.2 1-27 5.3-39.5 4.2-12.1 5-25.1 9.5-37.2-1.6 0.6-3.1 1.4-4.4 2.6 2.7-5.7 5.7-11.2 9-16.5q-1.2 0.4-2.4 0.8c8-11.6 18.6-21.8 26-33.5 5.7-8.8 11.7-16.7 19.8-23.5-1.5-0.2-3.1 0.1-4.6 0.6 4-2.3 7.6-5 10.9-8.2q-2.1 0-4.2 0.1c10.9-8.4 20.8-17.1 32.9-22.4q0.2-0.1 0.5-0.2c4.1-1.7 8.4-3.1 13-3.9 0.5-0.1 1-0.1 1.6-0.2q0.1 0 0.3 0c11.3 8.2 4.7 35.8 1.9 48.9z"/><path class="g" d="m176.1 182.6q0 0.1 0 0.2-0.3 1.4-0.5 2.5-0.3 1.5-0.6 3.1-0.1 0.2-0.1 0.4c-1.4 7.1-2.7 14.6-5.1 21.4q-0.5 1.5-1.1 2.8c-6.5 14.9-20.3 23.4-27.6 37.5q0.1-1.5 0.3-2.9-2.4 2.1-4.8 4.2c0.2-1.7 0.5-3.5 1-5.1-3.8 5.6-11.5 7.1-15.6 12.4-4.1 5.4-3.5 14.6-5.6 21-0.2-1.6-0.8-3.2-1.6-4.7q-1 5.6-2.4 11.1-0.9-1.6-1.8-3.2c-2.1 6-4.2 14.8-0.6 20.7 1 1.5 4.9 7.2 6.3 8-7.1-3.8-7.6-2.3-10.3 4.2-1.2-1.6-8.5-7.4-8.5-9.1q-0.8 5.8-0.4 11.7c-1.3-2-2.2-4.2-2.9-6.4-0.6 3.6-6.1 15.2-3 18.3q-2.1-2.2-4.2-4.3-0.7-0.7-1.4-1.5c-0.6 2.1-0.8 4.3-0.7 6.5-0.4-0.2-1.3-0.7-2.3-1.3-2.7-4.1-4.7-8.6-5.7-13.3 2.3-0.2 4.7 0.7 6.4 2.4 1-3.7 1.4-7.5 1.2-11.2q1.2 2.4 2.4 4.8c0.7-12.8 1.7-24.2 4.7-36.5q-0.9 1.1-1.8 2.2c1.4-11.9 4.5-23.4 7.2-35.1-1.4 0.4-2.8 0.3-4.1-0.3 5.3-9.5 11.2-18.7 17.6-27.4-1.1 0.3-2.3 0.2-3.2-0.3 4.8-7 10.1-13.6 15.9-19.9q-1.3 0.2-2.6 0.3c4-6.7 8.5-13.1 13.4-19.2 0.7-0.9 10.5-13.2 10.2-13.2q-2 0-3.9 0 5.8-7.3 11.6-14.5c-1 0.1-2.1 0.2-3.1 0.3 2.6-3.6 6.3-7.9 10.5-11.4 4-1.7 8.4-3.1 13-3.9 0.5-0.1 1-0.1 1.5-0.2q0.2 0 0.3 0c11.4 8.2 4.8 35.8 2 48.9z"/><path class="d" d="m341.9 341.9c0.1 0.2 0.4 0.4 0.6 0.6 1.9 1 3.8 1.5 5.8 1.9 1.1 0.3 2.2 0.6 3.3 1 3.4 1.4 3.3 2.1 5.5 5.2 2 2.6 4 4.1 6.9 4.7q1 0.2 2.1 0.3 0.4 0 0.8 0 1.5 0 2.9-0.2 0.8-0.1 1.5-0.2c1.4-0.3 2.7-0.5 3.9 0.2 2.4 1.5 4.7 1.6 7.1 0.8q0.3-0.2 0.7-0.3 0.1-0.1 0.3-0.2 0.2 0 0.3-0.1 0.4-0.2 0.9-0.4 0.5-0.3 1-0.6c4.3-2.7 10.7-7.3 13.5-12.3q0.4-0.9 0.8-1.8 0.4-1.1 0.8-2.3c1-3.4 1.5-7.4 2-11.2 0.3-2.9 0.5-5.7 0.9-8.2q0.1-0.3 0.1-0.6c0.9-5.3 1-11.1 0.5-16.8-2-8.4-5.1-16.3-8-22.2-3.6-7.6-7.1-15.1-14.3-16.3-3.6 2.2-6.5 8-8.7 13.7-2.8 7.4-5.9 14.7-9.8 21.5q-0.2 0.4-0.5 0.7-0.2 0.5-0.6 0.9-0.2 0.3-0.4 0.5c-3.8 5.1-6.7 10.3-10.4 15.5q-0.3 0.5-0.7 1c-0.8 1.1-1.5 2.3-2 3.6-0.7 1.8-0.9 3.6-1 5.4-0.2 2.3-0.3 4.5-1.1 6.6q0 0.1-0.1 0.2c-0.3 0.9-0.8 1.9-1.3 2.8-0.7 1.3-1.5 2.6-2.3 3.9q-0.4 0.8-0.8 1.7c-0.2 0.3-0.3 0.6-0.2 0.9z"/><path fill-rule="evenodd" class="e" d="m342.1 340.9q0.4-0.9 0.8-1.7c0.7 0.1 1.5 0.7 2.4 0.9 0.9 0.3 2 0.2 2.8-0.3 0.7-0.6 1.1-1.7 0.6-2.6-0.5-0.8-2.3-1.3-3.5-1.9 0.5-0.9 1-1.9 1.3-2.8q0.1-0.1 0.1-0.2c0.8-2.1 0.9-4.3 1.1-6.6q0.4 0.8 0.8 1.6c1 1.8 2 3.7 3.8 4.6 0.8 0.5 1.8 0.7 2.7 0.3 2.5-1.3-0.4-8.4-1.3-10.2-0.9-1.8-2-3.5-3-5.3q0.4-0.5 0.7-1c3.7-5.2 6.6-10.4 10.4-15.5q0.2-0.2 0.4-0.5 0.3-0.4 0.6-0.9 0.3-0.3 0.5-0.7c3.9-6.8 7-14.1 9.8-21.5 2.2-5.7 5.1-11.5 8.7-13.7 7.2 1.2 10.6 8.7 14.3 16.3 2.9 5.9 6 13.8 8 22.2 0.5 5.7 0.4 11.5-0.5 16.8q-0.1 0.3-0.1 0.6c-0.4 2.5-0.6 5.3-0.9 8.2-0.6-1.4-1.1-2.8-1.3-3.6 0.5 2.5-5.1 8.1-6.6 9.6q-1.2-1.9-2.4-3.7c1.2 1.9-4.9 16.1-6.2 18.6 4.9-1.1 12.9-4.4 14.5-9.7q-0.4 1.2-0.8 2.3-0.4 0.9-0.8 1.8c-2.8 5-9.2 9.6-13.5 12.3q-0.5 0.3-1 0.5-0.5 0.3-0.9 0.5-0.1 0.1-0.3 0.1-0.2 0.1-0.3 0.2-0.4 0.1-0.7 0.2c-2.4 0.9-4.7 0.8-7.1-0.7-1.2-0.7-2.5-0.5-3.9-0.3q-0.7 0.2-1.5 0.3-1.4 0.2-2.9 0.2-0.4 0-0.8-0.1-1.1 0-2.1-0.2c-2.9-0.6-4.9-2.1-6.9-4.7-2.2-3.1-2.1-3.9-5.5-5.2-1.1-0.4-2.2-0.7-3.3-1-2-0.4-3.9-0.9-5.8-1.9-0.2-0.2-0.5-0.4-0.6-0.6-0.1-0.4 0-0.7 0.2-1zm50.2-11.6q0 0 0 0 0 0 0 0zm-27.9 17.2c1.7 1.4 4.4 1.1 6.5 0.2 5.7-2.6 8.3-7.4 9.6-13.1 0.1-0.7 0.2-1.4-0.2-1.9-0.3 0.3-6.3 4.6-6.3 2.9 0-3.2-1.5-6.6-1.3-9.5q-1.4 2.7-3.2 5.2c-0.2-2.7-0.9-5.3-2-7.7 3.2 6.8-8.3 17.5-3.5 23.4q0.2 0.3 0.4 0.5z"/><path class="f" d="m407.8 314.7q-1-2.3-1.9-4.7-0.1 5.3-0.3 10.6-1.5-2.7-3.1-5.4c-1.3 1.8-6.8 9.7-6.2 11.9-0.3-1.8-0.9-3.5-1.6-5.1 0.9 1.9-4.9 5.9-8.5 8.1-1.1 0.6-1.9 1.1-2.3 1.3 0-2.1-0.1-4.4-0.7-6.4q-0.7 0.7-1.4 1.4-2.1 2.1-4.2 4.3c3-3.1-2.4-14.7-3-18.3-0.7 2.2-1.7 4.4-2.9 6.4q0.3-5.9-0.4-11.7c0 1.7-7.3 7.5-8.5 9.1-2.7-6.5-3.2-8-10.3-4.2 1.4-0.8 5.3-6.5 6.2-8 3.7-5.8 1.6-14.7-0.6-20.7q-0.8 1.6-1.7 3.2-1.4-5.5-2.4-11c-0.8 1.4-1.4 3-1.6 4.6-2.1-6.4-1.5-15.6-5.6-21-4.1-5.3-11.8-6.8-15.7-12.4 0.6 1.6 0.9 3.4 1.1 5.1q-2.4-2.1-4.8-4.2 0.2 1.5 0.3 2.9c-7.3-14.1-21.1-22.6-27.6-37.4q-0.6-1.4-1.1-2.9c-2.4-6.8-3.8-14.3-5.1-21.4q-0.1-0.2-0.1-0.4-0.3-1.6-0.6-3.1-0.2-1.1-0.5-2.5 0-0.1 0-0.2c-2.8-13.1-9.4-40.7 1.9-48.9q0.2 0 0.3 0 0.8 0.1 1.5 0.3c4.7 0.7 9 2.1 13.1 3.8q0.2 0.1 0.5 0.2c12.1 5.3 22 14 32.9 22.4q-2.2-0.1-4.3-0.1c3.3 3.2 7 5.9 11 8.2-1.5-0.5-3.1-0.8-4.7-0.6 8.2 6.8 14.2 14.7 19.8 23.5 7.5 11.7 18.1 21.9 26.1 33.5q-1.2-0.4-2.4-0.8 3.8 6.1 7 12.5 1 2 1.9 4c-1.2-1.2-2.7-2-4.3-2.6 4.5 12.1 5.3 25.1 9.5 37.2 2.1 6.2 3.5 12.7 4.2 19.3q0.7 5.6 0.9 11.1 0.2 4.6 0.2 9.1z"/><path class="h" d="m406.7 294.5q-0.4 1.5-0.8 2.9-1.6 5.2-3.3 10.4c-1.5-1.7-3.1-4.1-4.7-5.8q-1.3 2.3-2.6 4.6c-0.8-5.3-2.7-10.3-5.6-14.8-1.4 1.4-3 2.7-4.1 4.3-0.4-2.3-4.7-12.3-4-13.8-1.2 2.6-2.9 5.1-4.9 7.2-1.3-11.4-2.8-23.2-8.9-32.9 1.6 1.2 3 2.8 4 4.5q-2.5-10.5-5.1-21 2 0.6 3.9 1.1-1.2-4.1-2.3-8.3c3.1 2.1 7.6 3.3 9.9 6.2 0.1-3.1-0.8-6.4-2.2-9.2 3.5 1.1 17.8 3.4 19.4 6.7q1 2 1.9 4c-1.2-1.2-2.7-2-4.3-2.6 4.5 12.1 5.3 25.1 9.5 37.1 2.1 6.3 3.5 12.8 4.2 19.4z"/><path class="g" d="m292.7 182.6q0 0.1 0 0.2 0.3 1.4 0.5 2.5 0.3 1.5 0.6 3.1 0 0.2 0.1 0.4c1.3 7.1 2.7 14.6 5.1 21.4q0.5 1.5 1.1 2.8c6.5 14.9 20.3 23.4 27.6 37.5q-0.1-1.5-0.3-2.9 2.4 2.1 4.8 4.2c-0.2-1.7-0.5-3.5-1.1-5.1 3.9 5.6 11.6 7.1 15.7 12.4 4.1 5.4 3.5 14.6 5.6 21 0.2-1.6 0.8-3.2 1.6-4.7q1 5.6 2.4 11.1 0.9-1.6 1.7-3.2c2.2 6 4.3 14.8 0.6 20.7-0.9 1.5-4.8 7.2-6.2 8 7.1-3.8 7.6-2.3 10.3 4.2 1.2-1.6 8.5-7.4 8.5-9.1q0.7 5.8 0.4 11.7c1.3-2 2.2-4.2 2.9-6.4 0.6 3.6 6 15.2 3 18.3q2.1-2.2 4.2-4.3 0.7-0.7 1.4-1.5c0.6 2.1 0.7 4.3 0.7 6.5 0.4-0.2 1.2-0.7 2.3-1.3 2.7-4.1 4.7-8.6 5.7-13.3-2.3-0.2-4.7 0.7-6.4 2.4-1-3.7-1.4-7.5-1.2-11.2q-1.2 2.4-2.4 4.8c-0.7-12.8-1.7-24.2-4.8-36.5q1 1.1 1.9 2.2c-1.4-11.9-4.5-23.4-7.2-35.1 1.3 0.4 2.8 0.3 4-0.3-5.2-9.5-11.1-18.7-17.5-27.4 1 0.3 2.2 0.2 3.2-0.3-4.8-7-10.2-13.6-15.9-19.9q1.3 0.2 2.6 0.3c-4-6.7-8.5-13.1-13.4-19.2-0.8-0.9-10.5-13.2-10.2-13.2q1.9 0 3.9 0-5.8-7.3-11.6-14.5c1 0.1 2 0.2 3.1 0.3-2.7-3.6-6.3-7.9-10.5-11.4-4.1-1.7-8.4-3.1-13-3.9-0.5-0.1-1-0.1-1.6-0.2q-0.1 0-0.3 0c-11.3 8.2-4.7 35.8-1.9 48.9z"/><path class="i" d="m222.9 396.2c-2.8 6.2-5.6 12.4-7.3 19-0.5 2.2-4.3 15.3-2.9 17.1-0.6-0.8-1.3-1.4-2.2-1.8q0.1 1.9 0.1 3.9-0.1 3.9-0.7 7.8c-0.1-1.2-1.2-2.2-2.4-2.2 1 3.8 1.4 7.8 1 11.8q-0.1 0.9-0.2 1.8-0.5-1.4-1.3-2.6-1-1.9-2.3-3.6 0.3 1.5 0.5 2.9c0.4 3.8-0.1 7.3-2.2 9.8-1.3 1.6-3.1 2.8-5.5 3.5-7.8 2.3-17.2-0.2-25.1-0.7-1.2 0-2.6-0.1-4-0.1-2 0-4.3 0-6.5-0.1q0 0 0 0c-4.1-0.2-8.1-0.8-11-2.4-2.4-1.3-4.6-2.9-6.6-4.8-2.5-2.3-4.6-5-6.1-8.1q-0.4-0.7-0.8-1.5c-1.1-2.9-1.8-6-1.7-9.4q-0.1 4-0.2 8c-3.4-7.4-5.8-15.2-7.1-23.3q-0.3 2.1-0.6 4.3c-5.3-9.4-7.9-20.2-7.6-31q-1.4 2.8-2.9 5.6c-1.9-11.7-0.8-23.9 2.4-35.7 3-11.3 8-22.2 14.1-31.9q0.7-1.1 1.5-2.2c9.4-14.3 27.7-27.5 44.6-30.7 46.5-8.9 56.9 67.3 43 96.6z"/><path class="j" d="m122.7 389.3c0.6 7.6 3.2 14.9 7.4 21.2q0.5-1.7 1-3.4c3.1 5.1 6.8 9.7 11.2 13.6q0.3-3.4 0.7-6.8 6.2 5.2 12.4 10.4c0.2-4.9 1-9.8 2.6-14.4 1.6 1.8 2.6 4.2 2.8 6.6q2.7-7.3 4.4-14.9 3.1 1.4 6.2 2.7c-1.5-9.6-5.3-20.1-10.3-28.5-4.1-6.8-9.9-12.8-16.5-17.4q-0.5 4.1-1 8.2c0.1-0.6-3.4-4-3.8-4.8q-1.7-2.6-2.8-5.5c-1.5-3.9-2.4-7.6-1.7-11.8-4.3 5.7-8 11.3-10.6 17.9-1.2 3.1-2.3 6.3-3 9.5-0.7 3.1-0.4 6.6-1.2 9.6 0.3-1 1.3-1.7 2.4-1.6q-0.6 4.7-0.2 9.4z"/><path class="k" d="m222.9 396.2c-2.8 6.2-5.6 12.4-7.3 19-0.5 2.2-4.3 15.3-2.9 17.1-0.6-0.8-1.3-1.4-2.2-1.8q0.1 1.9 0.1 3.9-0.1 3.9-0.7 7.8c-0.1-1.2-1.2-2.2-2.4-2.2 1 3.8 1.4 7.8 1 11.8q-0.1 0.9-0.2 1.8-0.5-1.4-1.3-2.6-1-1.9-2.3-3.6 0.3 1.5 0.5 2.9c0.4 3.8-0.1 7.3-2.2 9.8-1.3 1.6-3.1 2.8-5.5 3.5-7.8 2.3-17.2-0.2-25.1-0.7-1.2 0-2.6-0.1-4-0.1-2 0-4.3 0-6.5-0.1q0 0 0 0c-4.1-0.2-8.1-0.8-11-2.4-2.4-1.3-4.6-2.9-6.6-4.8-2.5-2.3-4.6-5-6.1-8.1q-0.4-0.7-0.8-1.5c5.8-1.5 18.9-7.7 20.1-8.1-1 2.3-2.5 4.4-4.2 6.2 6.4 0.6 12.7-2 18.6-4.5 3.7-1.7 7.7-3.5 9.8-7 1.4-2.4 1.8-5.3 2.1-8.1-2.5 3.2-5.9 5.7-9.8 6.9 1.8-2.6 2.4-5.9 1.6-9-3.4-0.3-6.2 1.4-9.3 1.5-0.8-3.8-1.6-7.7-3.3-11.2q-0.5 0-0.9 0.1-1 0.1-2.1 0.3-1.6 0.3-3.1 0.7c-1.2 0.4-2.4 0.8-3.6 1.2-1.5-2.4-2.7-5.1-3.2-7.9q-1.4 1.7-2.7 3.3c-1.2-5.3-7-7.9-11.4-11.2-4.7-3.6-8.3-8.6-10-14.3q-0.9 2.6-1.8 5.1-0.9-1.3-1.7-2.7c-3.7-7.2-4.2-15-2.8-22.8 3-11.3 8-22.2 14.1-31.9q0.7-1.1 1.5-2.2c9.4-14.3 27.7-27.5 44.6-30.7 46.5-8.9 56.9 67.3 43.1 96.6z"/><path class="l" d="m213.5 464.1c-0.3 1.1-0.9 1.9-1.7 2.5-1.2 1.1-3 1.6-4.6 1.9-4.7 1-9.5 1.9-14.2 1.3-5.8-0.7-10.9-3.5-17-2.1-1.8 0.4-3.6 1.2-5.4 1.7-6.1 1.7-11.2-1-16.9-1.5q-1.1-0.1-2.2 0c-7.2 0.2-14.5 3-21.7 1.1-1.7-0.4-3.4-1.1-4.9-2.5-1.5-1.4-2.7-3.8-3.1-6.5q0-0.7 0-1.4 0-1.1 0.2-2.2c0.5-3 1.9-5.6 3.7-7.1 5.5-4.5 15.7-1.9 20.9 1.5 1.4 0.9 2.6 1.8 3.7 2.7q0.2-0.2 0.4-0.5c3.7-4.6 9-7.4 14.3-7.6 3.7-0.1 7.4 1 10.6 3.1 1.9 1.2 3.3 3.3 5.1 4.6 1.1 1 2.4 1.5 4 1.2 1.3-0.3 2.5-1 3.8-1.5 0.2-0.2 0.4-0.3 0.7-0.4 1.7-0.7 3.4-1.1 5.2-1.5 4.8-1 9.7-2.1 14.1 0.9 1.9 1.3 3.9 3.4 4.9 5.8 0.8 2 1 4.2 0.1 6.5z"/><path class="e" d="m213.5 464.1c-0.3 1.1-0.9 1.9-1.7 2.5-1.3 1-2.9 1.6-4.6 1.9-4.7 1-9.5 1.9-14.2 1.3-5.8-0.7-10.9-3.5-17-2.1-1.8 0.4-3.6 1.2-5.4 1.7-6.1 1.7-11.2-1-16.9-1.5q-1.1-0.1-2.2 0c-7.2 0.2-14.5 3-21.7 1.1-1.7-0.4-3.4-1.1-4.9-2.5-1.5-1.4-2.7-3.8-3.1-6.5q0-0.7 0-1.4 0-1.1 0.2-2.2c2.5 14.9 21.7 5.2 24.6-5.6 1.4 0.9 2.6 1.8 3.7 2.7q0.2-0.2 0.4-0.5c0.7 7.2 7.1 9.3 12.2 9.8 7.1 0.8 15.3-1 17.7-9.6 1.2 0.9 2.5 1.4 4.1 1.1 1.3-0.3 2.5-1 3.8-1.5q2.2 1.6 4.3 3.2c5.7 4.3 14.6 6.2 20.6 1.7 0.8 1.9 1 4.1 0.1 6.4z"/><path class="a" d="m354.4 408q-1.7-0.8-3.4-1.5 0.5 6 1 12c-1-0.9-1.7-2.1-2-3.4 0.1 2.3-0.9 26.2 0 26.1-0.9 0.1-1.9-0.1-2.6-0.6 0.6 3.7-1.6 8.6-2.4 12.3-0.4 1.9-0.9 3.9-2.2 5.4-1.4 1.7-3.5 2.5-5.6 3.2q-5.2 1.7-10.7 2.5-0.6 0-1.1 0.1-0.7 0.1-1.5 0.2-1.1 0.1-2.2 0.1h-0.1q-0.7 0.1-1.3 0.1-0.2 0-0.4 0-3.5 0.1-7-0.1-5.3-0.4-10.4-1.7-2.7-0.7-5.3-1.6c-2.3-0.7-2.4-0.8-3.2-2.6-1.4-3.6-1.7-7.8-1.3-11.6q-1.4 0.3-2.9 0.1c1.9-1.5 5.2-3.9 4.4-6.6-1 0.8-3.9 1.9-5.3 2.9q-0.5 0.4-0.7 0.7c2.7-4.7 3.2-9.1 2.6-13.6q0-0.5-0.1-0.9 0-0.1 0-0.3c-0.5-2.8-1.5-5.7-2.6-8.6-0.9 1-1.2 2.6-0.8 3.9q-2.7-6.9-5.3-13.8-0.7 2.9-1.3 5.7c-1-3.9-3.3-7.5-6.5-10 0.3 1.6-0.1 3.3-1 4.6-1.7-5.9-5.4-12.7-9.6-17.2-0.6 2.8-1 5.9-2.6 8.5 0.1-5.4-1.5-10.8-4.5-15.2 0 2.1-0.9 4.2-2.5 5.6 0.8-6.9 0.2-13.9-1.9-20.6-1.1 1.1-2 2.5-2.4 4-1.4-3.9-2.5-8.1-3.3-12.3-3.3-17.6-0.8-37 10.1-51 11.5-14.7 28.8-17.5 45.2-9.5 13.4 6.6 21.9 19.7 35 26q-1.4 0.7-2.8 1.4c2.5 2.7 4.7 5.6 6.6 8.7-1.2-0.7-2.6-1-3.9-0.7 3.6 2.3 6.6 5.3 9 8.8 1.4 2.1 2.5 4.3 3.4 6.5-1-1.2-2.6-2-4.1-1.9 2.1 5.5 5.5 10.5 10 14.3q-2.6-0.7-5.2-1.5c1.6 2.5 2.6 5.3 2.8 8.2q-1.3-1-2.6-2c2.7 6 4.5 12.3 5.4 18.8q-1.7-1.7-3.5-3.4 0.1 3.8 0.4 7.5 0.7 7.1 2.2 14z"/><path class="m" d="m354.4 408q-1.7-0.8-3.4-1.5 0.5 6 1 12c-1-0.9-1.7-2.1-2-3.4 0.1 2.3-0.9 26.2 0 26.1-0.9 0.1-1.9-0.1-2.6-0.6 0.6 3.7-1.6 8.6-2.4 12.3-0.4 1.9-0.9 3.9-2.2 5.4-1.4 1.7-3.5 2.5-5.6 3.2q-5.2 1.7-10.7 2.5-0.6 0-1.1 0.1-0.7 0.1-1.5 0.2-1.1 0.1-2.2 0.1h-0.1q-0.7 0.1-1.3 0.1-6.5-0.2-12.8-1.4c2.5-4.3 5.7-8.3 8.4-12.5 6-9 10.4-21.4 3.2-31 2.2 0 4.3 0.1 6.4 0.1-5.9-7.7-10.9-15.9-15-24.5 3.3 0.9 6.7 1.7 10 2.5-7.4-7.3-10.3-18.2-7.3-27.7 0.5 1.9 1.7 3.7 3.3 5-0.3-6.3 1.4-12.7 4.8-18.3-0.1 2.4 1.5 4.7 3.8 5.7 0.6-3.3 0-6.7-1.6-9.7q9.2 1.4 18.3 2.7c-0.6-0.1-3.9-6.1-4.4-6.9 0.3 0.5 6.6-1.3 7.8-1.1q0.2 0.1 0.4 0.1c1.4 2 2.5 4.2 3.4 6.5-1-1.3-2.6-2-4.1-1.9 2.1 5.5 5.5 10.4 10 14.3q-2.6-0.7-5.2-1.5c1.6 2.4 2.6 5.3 2.8 8.2q-1.3-1-2.6-2c2.7 5.9 4.5 12.3 5.4 18.7q-1.7-1.6-3.5-3.3 0.1 3.7 0.4 7.4 0.7 7.1 2.2 14.1z"/><path class="m" d="m292.8 391.1c0.8-1.7 2.2-3.1 3.8-3.9 2.2 4.1 3 8.9 2.1 13.4 8.2-7.4 10-16.6 8-27.2-0.3-1.7-0.6-3.9-1.6-5.4-0.4-0.7-4.4-3.4-4.4-3.8-0.7 4.5-2.6 8.8-5.2 12.4-1.6-1.7-2.3-4.3-1.9-6.6-1.7 2.7-3.5 5.4-4.5 8.5-1.9 5.2-1.1 10.3 3 14.3q0.2-0.9 0.7-1.8z"/><path class="b" d="m246.4 363.8c0.8 4.2 1.9 8.3 3.3 12.2 0.4-1.5 1.3-2.9 2.4-4 2 6.7 2.7 13.8 1.9 20.7 1.6-1.4 2.5-3.6 2.5-5.7 3 4.5 4.6 9.9 4.5 15.2 1.6-2.6 2-5.6 2.6-8.4 4.2 4.5 7.9 11.3 9.6 17.2 0.9-1.3 1.3-3.1 1-4.7 3.2 2.6 5.5 6.1 6.5 10.1q0.6-2.9 1.3-5.7 2.6 6.9 5.3 13.7c-0.4-1.3-0.1-2.8 0.8-3.9-0.3 0.4 2.1 7 2.6 8.7q0 0.2 0 0.3 0.1 0.4 0.1 0.8c0.4 2.6 0.6 5.6-0.1 8-0.5 1.7-1.1 3.4-1.8 5 1.4-1 4.3-2.1 5.3-2.9 0.8 2.7-2.5 5.1-4.4 6.6q1.5 0.1 2.9-0.1c-0.4 3.7-0.1 8 1.3 11.5 0.8 1.9 0.9 1.9 3.2 2.7q2.6 0.9 5.3 1.6 5.1 1.3 10.4 1.6c3.7-0.1 7.3 0.2 11-0.1q0.8 0 1.5-0.1 0.5-0.1 1.1-0.2c0-2.3 0-4.6 0.5-6.1 1.7-5.3 5-10.2 9.1-14-0.9 0.7-7.2-1.5-8.2-1.7-0.2-2 1.3-3.8 2.9-4.7-4.3-3.8-10.7-2-14.3-8.2-0.1 1.4-0.2 2.7-0.3 4 0 0.4-6.2-7.1-6.7-8.1-2.3-4.4-4.5-8.9-7-13.3 2.3 3.2 6.1 5.3 10 5.6-3.7-3.3-6.4-7.7-7.7-12.4 2.6 1.5 5.5 2.5 8.4 2.9-4.8-2.3-7.9-6.3-10-11.1-2.3-5.3-1.2-11.6-3.2-16.6 0.9 2.3 2.5 4.3 4.6 5.7 0.9-5.3 1.4-9.5 3.2-14.6 4.7 1.5 8.8 4.9 11.1 9.3q2.3-4.7 5.4-8.8c-0.3 3.1 0.1 6.3 1 9.3q2.2-4.6 5.2-8.7c-0.7 3.6 0.5 7.5 3 10.2-0.2-1-0.4-2-0.1-3 0.3-0.9 1.4-1.8 2.3-1.4 0.3 0.1 0.6 0.4 0.9 0.6 3 2.8 5.1 6.7 5.6 10.9 1.2-1.2 2-2.7 2.4-4.3 3 2.4 5.6 5.3 7.7 8.5q-0.4-3.7-0.5-7.4 1.8 1.6 3.5 3.3c-0.9-6.4-2.7-12.8-5.4-18.7q1.3 1 2.6 2c-0.2-2.9-1.2-5.8-2.8-8.2q2.6 0.7 5.2 1.5c-4.4-3.9-7.9-8.8-10-14.3 1.6-0.1 3.1 0.6 4.1 1.9-2.4-6.3-6.8-11.8-12.4-15.4 1.3-0.2 2.7 0.1 3.9 0.8-1.9-3.2-4.1-6.1-6.6-8.8q1.4-0.7 2.8-1.4c-13.1-6.2-21.6-19.4-35-25.9-16.4-8.1-33.7-5.3-45.2 9.4-10.9 14.1-13.4 33.5-10.1 51.1z"/><path class="n" d="m274.1 462.8q0.2 1 0.7 1.8c1.3 2.2 4.1 3.1 6 3.5 5.6 1.4 11.5 0.2 17.1-1.3q0.7-0.1 1.4-0.3c7.7-1.9 14.1 4 21.5 2.7q0.4-0.1 0.7-0.2c4.6-0.9 9.1-2.7 13.8-2.7q0.3 0 0.6 0.1c5.3 0.3 15.1 6.1 18.9 0.5 1.1-1.6 1.4-3.8 1.1-5.8q-0.2-1.1-0.6-2.1c-0.4-1.3-0.9-2.5-1.5-3.6q-1.4-2.8-3.2-5.4c-1.8-2.8-4-5.4-6.9-6.4-3.6-1.2-5.4 1.2-7.6 3.1-0.7 0.7-1.6 1.3-2.6 1.7q-0.2 0.1-0.4 0.1c-1.7 0.6-3.3-0.1-4.9-1.2-2.3-1.6-4.4-3.9-6.9-4.8-3-1.1-6.2 0.2-8.8 2.2-2.3 1.8-4.3 4.2-6.3 6.3q-0.1 0.1-0.1 0.1c-0.3 0.3-0.6 0.6-0.9 0.9-2.3 2.4-4 1.1-6.1-1q-1.1-1.1-2.4-1.5c-2.4-0.8-5.1-0.2-7.4 1-3.2 1.8-6 4.3-9.5 5.4-1.5 0.5-4 1.8-5.1 3.9-0.5 0.9-0.8 1.9-0.6 3z"/><path class="o" d="m274.1 462.8q0.2 1 0.7 1.8c1.3 2.2 4.1 3.1 6 3.5 5.6 1.4 11.5 0.2 17.1-1.3q0.7-0.1 1.4-0.3c7.7-1.9 14.1 4 21.5 2.7q0.4-0.1 0.7-0.2c4-0.9 10.3-3.8 14.4-2.7 5.3 0.4 15.2 6.2 18.9 0.6 1.1-1.6 1.4-3.8 1.1-5.9q-0.2-1-0.6-2.1c-0.6 2.2-2 4-3.8 4.8-2.1 1-7.7 0-4.9-3.7 0.7-0.9 1.7-1.4 2.7-1.8-1.6-1.8-4.4-1.2-6.6-2.2-3.8-1.7-5.1-5.3-6.5-9.3q-0.1-0.1-0.1-0.2c-0.8 0.8-1.7 1.5-2.6 1.9q-0.2 0.1-0.4 0.1c-1.7 0.5-3.3-0.1-4.9-1.2-0.2 2.1-0.4 4.2-0.5 4.8-0.5 3.5-1.8 5.9-4 8.1-1.8 1.9-4.1 2.7-6.5 2.3-2.4-0.4-4.4-2.6-1.1-4 1-0.4 2.3-0.7 2.7-1.9-2.8-1.2-5.9 0.3-8.7-0.7-2.3-0.8-2.9-2.4-4-4.7-0.4 0.2-0.6 0.5-0.9 0.8-2.3 2.4-4 1.1-6.1-1q-1.1-1.1-2.4-1.5c-0.7 3.1-2.2 5.9-4.3 7.7-1.3 1.1-2.8 1.8-4.4 1.9-0.8 0-1.5-0.1-2.3-0.3-0.7-0.1-1.7-0.6-2.4-0.4-0.2 0.1-0.4 0.3-0.6 0.5q-0.4 0.6-0.9 1.3c-1.4 1.7-4.1 3-5.9 1.5-0.2-0.1-0.8-1.1-1.2-1.9-0.5 0.9-0.8 1.9-0.6 3z"/><path class="a" d="m326.9 319.2q0.1 1.3 0.1 2.6c-0.9-1.5-2.2-2.7-3.8-3.3 1.4 4.3 0.3 8.9-2.7 12.4 0.3-2.2-0.2-4.5-1.5-6.3-0.3 5.5-2.7 10.9-6.7 14.8 0.5-1.8 0.2-3.8-0.9-5.4-1.7 4.4-4 8.5-7 12.1 0-0.7-0.3-1.5-0.9-2q-6.3 5.9-12.7 11.8 0.1-1.9 0.1-3.8c-1.3 4.4-3.7 7.5-6.1 11.3q-0.3-1.9-1.2-3.6c-1.8 4-4.7 7.5-8.3 9.9 1.7-1.3 2.8-5.1 0.8-6.5-2.2 1.7-4.2 3.6-6.5 5.2-1 0.7-2 1.4-3 2.2q-0.3 0.1-0.5 0.3c-2.1 1.6-4.4 3.1-6.6 4.8-2.5 2-5.2 4-8 5.7 0.4-0.9 0.5-1.9 0.4-2.9l-11.2 8.2q-0.8-2.6-2.1-5c-0.7 2.4-2.2 4.4-4.3 5.6 0.1-1.5-0.4-3-1.2-4.2-1.2 1.7-2.5 3.3-4 4.8-1-3.3-3.4-6.2-6.5-7.6q-0.5 1.2-1 2.4-3.2-2.7-6.3-5.4c-0.2 1.1-0.2 2.3 0.1 3.5-4.2-1.8-6.6-4.5-9.6-7.7-1.4-1.6-6.4-3.1-6.8-5.2q0.4 2 0.8 3.9c-3.3-1.7-6.2-4.3-8.2-7.5q-0.2 2.6-0.7 5.2c-1.5-4.7-3.9-9.2-7.1-13-0.1 1.9 0.4 3.9 1.4 5.5-6.3-4.8-11.6-10.8-15.6-17.6 1.1 1.6 1.3 3.8 0.5 5.5-1.6-5.1-4.9-9.8-9.2-13.1 0.4 1.6 0.3 3.4-0.2 5-3.2-3.3-5.7-7.3-7.2-11.6q-0.5 1.6-1 3.3c-2.2-2.5-3.5-5.8-3.6-9.1-1 1.8-1.5 3.9-1.3 6-1.1-4.1-2.7-7.8-1.4-11.9-1 0.4-2 1.1-2.8 2q-0.5 0.6-0.9 1.3c-0.2-5.8 1.6-11.4 3.4-16.9q0.7-2.3 1.4-4.5 0.6-2.1 1.2-4.3c1.1-4.3 2.1-8.7 3.3-13 0.8-2.9 0.3-8.8 1.3-11-0.6 1.2-2 2.1-3.4 2.1 1.7-3.8 2.8-7.9 3.4-12.1-1.7 1.2-2.9 3-3.7 4.9 0.3-6.4 2.4-12 5.5-17.6 2.8-5.3 3.6-10.1 4.3-16.2q0.1-1.1 0.2-2.2c0.3-4.3 0-8.6 0.2-12.9q-2.2 1.9-4.4 3.9c1.8-8.2 4.1-16.2 5.9-24.4-1.4 1.7-3.4 2.9-5.6 3.4q2-3.7 3.5-7.7-1.8 1.1-3.8 1.9c1.9-3.6 3.7-7.4 5.3-11.2 0.8-2 1.4-4 1.5-6.2 0.1-0.9-0.5-3.3 0.2-4-1.4 1.2-5.7 5.8-5.7 7.7-0.2-6.8 1.6-13.9 5-19.9-1.5 1.1-3.7 1.5-5.5 0.7 2.8-6.1 6.4-11.8 10.7-16.8-2.9-0.1-5 2.6-6.6 5 1.1-5 3.9-9.1 6.8-13.2q1.7-2.4 3.2-4.9 0.7-1.2 1.3-2.4 0.7-1.5 1.3-2.9 0.1-0.2 0.1-0.3 0.3-0.7 0.7-1.4 0 0 0 0 1.5-3.1 3.8-5.5 0.4-0.3 0.7-0.7 0.1-0.1 0.2-0.2 0.4-0.4 0.9-0.8 0.5-0.5 1.1-1 0.1-0.1 0.2-0.1 0.9-0.7 1.9-1.3c0.4-0.3 0.9-0.7 1.4-1q0.2-0.1 0.5-0.2 0.7-0.5 1.5-0.8 0.2-0.2 0.4-0.2 0.8-0.5 1.7-0.8 0.2-0.1 0.3-0.2 0.7-0.3 1.3-0.5 0.6-0.2 1.1-0.4 0.5-0.2 0.9-0.3 1.6-0.6 3.2-1 0.3-0.2 0.7-0.2 1-0.3 2-0.5 0.1-0.1 0.2-0.1 1-0.2 2-0.4 0.7-0.2 1.4-0.3c1.3-0.2 2.6-0.5 3.9-0.7q0.5-0.1 0.9-0.1 1.2-0.2 2.4-0.3c3.7-0.5 7.6-0.8 11.5-1q0.9-0.1 1.9-0.1 1.2-0.1 2.4-0.1 4-0.2 8-0.2c0.8 0 1.7 0 2.5 0h2.5c0.2-0.1 0.2-0.1 0.4-0.1q1.4 0 2.9 0 1.2 0 2.5 0c0.5 0 1.1 0 1.7 0.1q1.5 0 2.9 0 1.4 0 2.9 0.1 0.9 0 1.9 0 0.9 0.1 1.9 0.1 0.7 0.1 1.5 0.1 0.2 0 0.4 0 0.8 0.1 1.6 0.1c1.3 0.1 2.7 0.3 4 0.4q0.6 0 1.1 0.1 0.9 0.1 1.8 0.2 1.2 0.2 2.3 0.4 0.8 0.1 1.6 0.3 0.4 0 0.9 0.1 0.1 0 0.3 0.1c4.6 0.9 8.4 2.2 11.8 3.8q0.9 0.4 1.8 0.8 0.7 0.4 1.3 0.8 0.8 0.4 1.5 0.9c1.5 0.9 2.9 2 4.3 3.1q0.6 0.5 1.2 1 0.1 0.1 0.2 0.2 0.6 0.5 1.1 1 0.1 0 0.1 0.1 0.1 0.1 0.1 0.1 0.5 0.4 0.9 0.8 0.8 0.8 1.5 1.6c0.3 0.3 0.5 0.7 0.7 1.1q0.9 1.4 1.7 3.1 1.3 3 3 5.9c1.6 2.8 3.3 5.5 5 8.3q1.3 2 2.6 4.1c-0.3-0.5-1.5-1-2.5-1.4q-0.1 0-0.2-0.1c-0.6-0.2-1.2-0.4-1.5-0.6 1.5 3 1.6 6.3 2.4 9.5q0.2 0.6 0.3 1.2c1.7 5.3 4.1 10.4 5.9 15.7-2.7-0.6-5.3-2-7.3-4.1 1.8 4.4 4.7 8.3 8.3 11.3-1.9 0.4-4.4 1.9-6.3 1.2 0.5 1.2 6.7 17.5 6.8 17.5-1.4 0.6-3 0.5-4.3-0.4 1.9 4.4 3.4 7.7 3.4 12.6-1.4-1.9-3.1-3.6-5.1-4.9 3.2 4.5 5.5 9.6 6.7 15-1.4-0.8-3-1.3-4.7-1.5 1 6.3 4.2 12.2 8.9 16.4-0.5-0.4-5.8-0.9-6.8-1.2 0.1 3.7-0.3 6.2 1.3 9.7 1.6 3.8 3.9 7.4 4.2 11.5-0.8-1.1-2-2-3.4-2.3 0.6 0.1 1.2 10.3 1.5 11.5 1.1 4.9 3.1 9.6 5.8 13.8-1.8 0.3-3.8-0.6-4.9-2.1 2 4.9 4.7 9.5 7.6 14-1.8-0.7-4.1-1-5.6-2.3 0.4 2.8 0.7 5.9 1.3 8.9 0.3 1.7 0.7 3.3 1.2 4.8 1.5 4.3 5.6 8.4 8.2 12.1-1.4-1.2-3.1-2.2-4.8-2.8 0.9 1.7 0.8 3.6 1.4 5.4q0 0.1 0.1 0.3c0.3 1.7 0.6 3.5 0.7 5.4z"/><path class="b" d="m326.9 319.2q0.1 1.3 0.1 2.6c-0.9-1.5-2.2-2.7-3.8-3.3 1.4 4.3 0.3 8.9-2.7 12.4 0.3-2.2-0.2-4.5-1.5-6.3-0.3 5.5-2.7 10.9-6.7 14.8 0.5-1.8 0.2-3.8-0.9-5.4-1.7 4.4-4 8.5-7 12.1 0-0.7-0.3-1.5-0.9-2q-6.3 5.9-12.7 11.8 0.1-1.9 0.1-3.8c-1.3 4.4-3.7 7.5-6.1 11.3q-0.3-1.9-1.2-3.6c-1.8 4-4.7 7.5-8.3 9.9 1.7-1.3 2.8-5.1 0.8-6.5-2.2 1.7-4.2 3.6-6.5 5.2-1 0.7-2 1.4-3 2.2q-0.3 0.1-0.5 0.3c-2.1 1.6-4.4 3.1-6.6 4.8-2.5 2-5.2 4-8 5.7 0.4-0.9 0.5-1.9 0.4-2.9l-11.1 8.1c0 0-0.1 0.1-0.1 0.1q-0.8-2.6-2.1-5c-0.7 2.4-2.2 4.4-4.3 5.6 0.1-1.5-0.4-3-1.2-4.2-1.2 1.7-2.5 3.3-4 4.8-1-3.3-3.4-6.2-6.5-7.6q-0.6 1.2-1.1 2.3-3.1-2.6-6.2-5.3c-0.2 1.1-0.2 2.3 0.1 3.5-4.3-1.9-6.6-4.5-9.6-7.7-1.4-1.6-6.4-3.1-6.9-5.2q0.5 2 0.9 3.9c-3.3-1.7-6.2-4.3-8.2-7.5q-0.2 2.6-0.7 5.2c-1.5-4.7-3.9-9.2-7.1-13-0.1 1.9 0.4 3.9 1.4 5.5-6.3-4.8-11.6-10.8-15.6-17.6 1.1 1.6 1.3 3.7 0.5 5.5-1.6-5.1-4.9-9.8-9.2-13.1 0.4 1.6 0.3 3.4-0.2 5-3.3-3.3-5.7-7.3-7.2-11.6q-0.5 1.6-1 3.3c-2.2-2.5-3.5-5.8-3.6-9.1-1 1.8-1.5 3.9-1.3 6-1.1-4.1-2.7-7.8-1.4-11.9-1 0.4-2 1.1-2.8 2q-0.5 0.6-0.9 1.3c-0.2-5.8 1.6-11.4 3.4-16.9q0.7-2.3 1.4-4.5 0.6-2.1 1.2-4.3c0.7-2.6 1.3-5.1 1.9-7.7 1.1 4.3 2.3 8.6 2.6 10 1.9 7.4 6 14.8 10.6 20.9q0.6-3.9 1.2-7.7c4.5 5 7.7 10.7 12.1 15.8 0.1-1.6 0.2-3.1 0.4-4.7 3.4 3.5 7.9 9.1 12.1 11.5 0.3-3.2 1.5-6.4 3.6-8.8-2.6 3 11.1 20.6 13.7 23q2-3.5 4-7.1c0.7 5.9 3.5 11.4 7.8 15.4 1.7-3.1 2.8-6.7 3-10.3q3.1 6.7 6.2 13.5c5.5-4.6 11.6-8.5 18-11.5q-1 5.8-2.1 11.6c6.2-3 11.3-8 14.5-14.1q0.9 4.7 1.7 9.4c2.7-3.6 4.7-7.8 5.6-12.2 2.5 2.3 5.4 5.9 6.8 9 2.5-5 4.2-10.4 5.1-15.9 1.6 2.2 2.7 4.7 3.4 7.3q3.4-6.1 5.7-12.7c2.1 1.6 3.3 4.2 3.8 6.7 10.5-8.7 13.4-27.1 17.2-39.6q2.9 4.1 5.9 8.1 3.5-5.1 7.1-10.3 0.4 1.6 0.9 3.1c1.5 4.3 5.5 8.4 8.1 12.1-1.4-1.2-3-2.1-4.7-2.8 0.8 1.7 0.7 3.6 1.3 5.4q0.1 0.1 0.1 0.3c0.4 1.8 0.7 3.6 0.8 5.4z"/><path class="b" d="m268.2 187.3c-4 9.1-10.3 15.2-19.3 20.1 1.8-2.6 2.1-6.2 0.8-9.1q-3.5 4.1-6.9 8.1c-2.5-2.2-4.2-5.3-4.8-8.6-3 2.6-5.2 6.3-6 10.2q-5.3-5.6-10.5-11.2c0.5 0.6-4.3 5.8-6.1 4.6-1.7-1.1-1.4-8.5-1.9-10.4-0.3 1.8-1.2 3.4-2.5 4.7 0.7-4.3 0.3-8.8-1.2-12.9-3.6 2.8-4.9 5.7-3.7 10-4.6-3.4-8.1-8.2-10-13.6q-2.3 3.6-3.5 7.6c-5.1-4.3-9.3-9.9-12-16q-0.8 1.3-1.6 2.6c-4.3-4.9-6.8-11.4-6.7-17.9q-2.2 1.1-4.5 2.2l2.1-14c-1.4-1-3.4-1.3-5.1-0.6q1.5-2.7 2.1-5.8c1.6-2.4 3.2-4.8 4.5-7.3q0.7-1.4 1.3-2.9 0.1-0.2 0.1-0.3 0.3-0.7 0.7-1.4 0 0 0 0 1.5-3.1 3.9-5.5 0.3-0.3 0.6-0.7 0.1-0.1 0.2-0.2 0.5-0.4 0.9-0.8 0.5-0.5 1.1-1 0.1-0.1 0.2-0.1 0.9-0.7 1.9-1.3c0.4-0.3 0.9-0.7 1.5-1q0.1-0.1 0.4-0.2 0.7-0.5 1.5-0.8 0.2-0.2 0.4-0.2 0.8-0.5 1.7-0.8 0.2-0.1 0.3-0.2 0.7-0.3 1.3-0.5 0.6-0.2 1.1-0.4 0.5-0.2 1-0.3 1.5-0.6 3.1-1 0.3-0.1 0.7-0.2 1-0.3 2-0.5 0.1-0.1 0.2-0.1 1-0.2 2-0.4 0.7-0.2 1.4-0.3c1.3-0.2 2.6-0.5 3.9-0.7q0.5-0.1 0.9-0.1 1.2-0.2 2.4-0.3c3.7-0.5 7.6-0.8 11.5-1q0.9-0.1 1.9-0.1 1.2-0.1 2.4-0.1 4-0.2 8-0.2c0.8 0 1.7 0 2.5 0h2.5c0.2-0.1 0.2-0.1 0.4-0.1q1.4 0 2.9 0 1.2 0 2.5 0c0.5 0 1.2 0 1.7 0.1q1.5 0 2.9 0 1.5 0 2.9 0.1 0.9 0 1.9 0 0.9 0.1 1.9 0.1 0.7 0.1 1.5 0.1 0.2 0 0.4 0 0.8 0.1 1.6 0.1c1.4 0.1 2.7 0.3 4 0.4q0.6 0 1.1 0.1 1 0.1 1.9 0.2 1.1 0.2 2.3 0.4 0.7 0.1 1.5 0.3 0.5 0 0.9 0.2 0.2 0 0.3 0c4.6 1 8.4 2.2 11.8 3.8q0.9 0.4 1.8 0.9 0.7 0.3 1.3 0.7 0.8 0.5 1.5 0.9c1.5 0.9 2.9 2 4.3 3.1q0.6 0.5 1.2 1 0.1 0.1 0.2 0.2 0.6 0.5 1.1 1 0.1 0 0.1 0.1 0.1 0.1 0.2 0.1 0.4 0.4 0.8 0.8 0.8 0.8 1.5 1.6c0.3 0.3 0.5 0.7 0.7 1.1q0.9 1.4 1.7 3.1 1.3 3 3 5.9c2.4 4.3 5.1 8.3 7.6 12.4-0.6-1-3-1.7-4.1-2 2.5 6.7 1.5 11.1 1.9 18.1q-3.3-0.6-6.5-1.3c-1.5 4.1-3.5 8.2-6.1 11.7-1 1.3-7.5 6.8-6.7 8.5-0.8-1.8-2.2-3.2-3.8-4 1 1.9-0.5 4.2-2 5.7-1.5 1.6-3.3 3.4-2.9 5.6-1-2.6-1.1-5.4-0.1-8-2.2 0.8-3.7 2.9-4.2 5.1-0.5 2.2-0.2 4.5 0.3 6.7-1.3-2.2-3-4.2-5.1-5.8q-0.3 0.9-0.7 1.8z"/><path class="b" d="m305.8 143.7v0.7q0-0.3-0.2-0.7c-0.5-1.6-2.1-3.8-2.5-5-0.6 4.7 0.4 11.1-1.2 15.4 0 0-4.4-4.7-4.7-5-3.6 5-5.2 10.3-10 14.5-0.6-1.8-1.9-3.5-3.8-4.3-1 3.8-2.4 7.5-5.5 10-0.2-1.4-2-3.3-2.1-4.3 0.1 2.5-1 5.1-3 6.8q-1.2-1.8-2.5-3.5c-1.4 1.9-2 4.3-1.8 6.7-1.9-1-3.5-2.4-4.8-4.1-1.4 5.6-4.4 10.9-8.4 15 2-3 3.2-9.4-0.1-11.7-0.9 0.6-5.2 6-3.6 7.3-1.9-1.5-3.2-3.8-3.6-6.2-2 4.9-6.8 8.6-12 9.2 1.5-1.8 2.3-4.3 2.2-6.6-1.3 2-3.3 3.5-5.5 4.4 0.9-1.3 1-3.1 0.4-4.5-3.4 1.5-5.7 5.3-5.5 9-3.8-2-6.7-5.5-8-9.6q-2.3 2.5-4.5 5.1-1.4-5.8-2.8-11.5c-2.8 0.8-4.7 3.7-4.3 6.6-4.3-2.1-7.4-6.3-8.1-11-0.4 2-1.5 3.9-3.1 5.2-0.2-4.6-3.8-8.8-8.3-9.7q0.1 2.4 0.2 4.8c-2.5-2.4-4.7-5.2-6.3-8.3q-0.5 2.2-1 4.3c-1.2-1.5-11.6-20.5-9.6-21-1.5 0.3-3.2 0.1-4.5-0.8 1.5-2.7 2.8-5.4 2.8-8.6q0.7-1.1 1.3-2.4 0.7-1.4 1.3-2.9 0.1-0.1 0.1-0.2 0.3-0.7 0.6-1.4 0.1 0 0.1-0.1 1.5-3 3.8-5.4 0.3-0.4 0.7-0.7 0.1-0.1 0.2-0.3 0.4-0.3 0.8-0.7 0.6-0.5 1.2-1c0.1-0.1 0.2-0.1 0.2-0.2q0.9-0.7 1.8-1.3c0.5-0.3 1-0.6 1.5-0.9q0.2-0.2 0.4-0.3 0.8-0.4 1.6-0.8 0.2-0.1 0.4-0.2 0.8-0.4 1.7-0.8 0.2-0.1 0.3-0.1 0.7-0.3 1.3-0.5 0.5-0.3 1.1-0.5 0.5-0.1 0.9-0.3 1.6-0.5 3.2-1 0.3-0.1 0.7-0.1 1-0.3 2-0.6 0.1 0 0.2 0 1-0.2 2-0.5 0.7-0.1 1.4-0.2c1.2-0.3 2.6-0.5 3.9-0.7q0.5-0.1 0.9-0.1 1.2-0.2 2.4-0.4c3.7-0.4 7.6-0.8 11.5-1q0.9 0 1.8-0.1 1.3 0 2.5-0.1 4-0.1 8-0.1c0.8-0.1 1.7-0.1 2.5-0.1h2.5c0.1 0 0.2 0 0.4 0q1.4 0 2.9 0 1.2 0 2.4 0c0.6 0 1.2 0 1.8 0q1.4 0 2.8 0.1 1.5 0 3 0.1 0.9 0 1.9 0 0.9 0 1.8 0.1 0.8 0 1.6 0.1 0.2 0 0.4 0 0.8 0 1.6 0.1c1.3 0.1 2.7 0.2 4 0.4q0.6 0 1.1 0.1 0.9 0.1 1.8 0.2 1.2 0.1 2.3 0.3 0.8 0.2 1.6 0.3 0.4 0.1 0.8 0.2 0.2 0 0.4 0.1c4.5 0.9 8.4 2.2 11.8 3.7q0.9 0.5 1.7 0.9 0.7 0.4 1.4 0.8 0.8 0.4 1.5 0.9c1.5 0.9 2.9 1.9 4.3 3.1q0.6 0.4 1.1 0.9 0.2 0.1 0.3 0.3 0.6 0.4 1.1 0.9 0 0.1 0.1 0.2 0.1 0 0.1 0.1 0.5 0.4 0.9 0.8 0.7 0.7 1.5 1.5c0.3 0.4 0.5 0.8 0.7 1.1q0.9 1.5 1.6 3.2 1.4 3 3.1 5.9c1.6 2.8 3.3 5.5 5 8.2q0 1.4 0.1 2.8z"/><path class="f" d="m180.7 72.2c0.5 2.4 0.7 4.9 0.6 7.2q0 0.1 0 0.1 0 0.3 0 0.6 0 0.3 0 0.5 0 0.1-0.1 0.2c-0.3 4.4-1.8 8.3-4 10.7q-0.3 0.3-0.5 0.6-0.2 0.1-0.4 0.3-0.2 0.1-0.3 0.3-0.3 0.1-0.5 0.3-0.2 0.1-0.4 0.3-0.1 0-0.1 0-0.2 0.1-0.4 0.2-0.3 0.2-0.6 0.3c-2.7 0.9-5.6 0.1-8-2.1-1.2-1.1-2.4-2.6-3.3-4.2-0.9-1.7-1.7-3.6-2.5-5.4q0.3 0.1 0.6 0.2c0 0-0.2-0.6-0.2-0.7q-0.2-0.5-0.4-1-0.4-1.1-0.8-2.2c0.2 0.4 0.5 0.6 0.8 0.9-1.2-3.5-1.1-7.4-0.5-10.9 0.6-2.6 1.5-4.6 2.8-6.5-0.2-0.4-0.8-0.2-1.1-0.1q0.6-0.8 1.4-1.2-0.6-0.3-1.2-0.6c0.5-0.3 1-0.7 1.5-1 0.2 0 1.8-0.7 1.9-0.6-0.1-0.5-0.6-0.8-0.9-1.1q-0.5-0.5-1-1.1c3.3 0 8 1.2 11 3.6 2.8 2.3 5.2 6.4 6.4 11.5q0.1 0.4 0.2 0.9z"/><path class="g" d="m165.5 61.1q0.6 0.5 1.1 1.1c0.3 0.3 0.7 0.6 0.8 1.1 0-0.1-1.6 0.6-1.8 0.6-0.5 0.3-1 0.7-1.5 1q0.6 0.3 1.1 0.6-0.7 0.4-1.3 1.2c0.3-0.1 0.7 0 0.9 0.3-1.2 0.9-2 2.7-2.5 4.6-0.5 2.1-0.8 4.6-0.5 6.8 0.2 1.6 0.7 3.2 1.1 4.7-0.4-0.5-0.7-1.1-1.1-1.7 0.1 0.5 0.1 1.1 0.2 1.6q0.1 0.4 0.1 0.8 0.1 0.4 0.2 0.9 0.5 2.1 1.2 4c2.9 4.3 6.8 6.4 10.5 5.1q0.3-0.1 0.5-0.3 0.3-0.1 0.5-0.2 0 0 0 0 0.3-0.2 0.5-0.3 0.2-0.2 0.5-0.3 0.1-0.2 0.3-0.3 0.2-0.2 0.4-0.3 0.2-0.3 0.5-0.6c2.2-2.4 3.7-6.3 4-10.7q0-0.1 0-0.2 0.1-0.2 0.1-0.5 0-0.3 0-0.6 0 0 0-0.1c0.1-2.3-0.1-4.8-0.6-7.2q-0.1-0.5-0.2-1-0.4-1.6-1-3.2c-0.9-1.3-1.9-2.4-3-3.3-3-2.4-7.6-3.6-11-3.6z"/><path class="f" d="m289 71.8c-0.6 2.4-0.8 4.8-0.8 7.2q0 0 0 0.1 0 0.3 0 0.6 0 0.3 0.1 0.5-0.1 0.1 0 0.1c0.2 4.5 1.6 8.4 3.8 10.9q0.2 0.3 0.5 0.6 0.2 0.2 0.3 0.3 0.2 0.2 0.4 0.3 0.2 0.2 0.4 0.3 0.3 0.2 0.5 0.3 0 0.1 0.1 0.1 0.2 0.1 0.4 0.2 0.3 0.2 0.5 0.3h0.1c2.6 1 5.5 0.3 8-1.8 1.3-1.1 2.4-2.5 3.4-4.1 0.9-1.6 1.7-3.6 2.5-5.3q-0.3 0.1-0.6 0.2c0 0 0.3-0.6 0.3-0.7q0.2-0.5 0.4-1 0.4-1.1 0.9-2.2c-0.3 0.4-0.6 0.6-0.9 0.8 1.3-3.3 1.3-7.3 0.7-10.8-0.5-2.7-1.4-4.6-2.6-6.6 0.2-0.4 0.8-0.2 1.1 0q-0.6-0.9-1.4-1.3 0.6-0.3 1.2-0.6c-0.5-0.3-1-0.7-1.5-1-0.2 0-1.8-0.8-1.8-0.6 0.1-0.5 0.6-0.9 0.8-1.1q0.6-0.6 1.1-1.1c-3.3-0.1-8 0.9-11 3.2-2.9 2.2-5.4 6.2-6.7 11.3q-0.1 0.4-0.2 0.9z"/><path class="g" d="m304.4 61.2q-0.6 0.5-1.1 1.1c-0.3 0.3-0.8 0.6-0.9 1.1 0-0.2 1.7 0.6 1.8 0.6 0.6 0.3 1 0.7 1.5 1q-0.6 0.3-1.2 0.6 0.8 0.4 1.4 1.3c-0.3-0.2-0.7-0.1-1 0.2 1.3 0.9 2 2.8 2.4 4.7 0.5 2.1 0.8 4.6 0.4 6.8-0.2 1.6-0.7 3.2-1.1 4.7 0.3-0.6 0.7-1.1 1-1.7 0 0.5-0.1 1.1-0.1 1.6q-0.1 0.4-0.2 0.8-0.1 0.4-0.2 0.8-0.5 2.2-1.2 4.1c-3 4.2-7 6.1-10.6 4.7q-0.3-0.2-0.6-0.3-0.2-0.1-0.4-0.3-0.1 0-0.1 0-0.2-0.1-0.5-0.3-0.2-0.1-0.4-0.3-0.2-0.2-0.4-0.3-0.1-0.2-0.3-0.3-0.2-0.3-0.5-0.6c-2.2-2.5-3.5-6.4-3.8-10.9q0-0.1 0-0.1-0.1-0.3-0.1-0.5 0-0.3 0-0.6 0-0.1 0-0.2c0-2.3 0.2-4.7 0.8-7.2q0.1-0.4 0.2-0.9 0.5-1.6 1.1-3.1 1.4-2 3-3.3c3.1-2.3 7.7-3.3 11.1-3.2z"/><path class="a" d="m307.4 124q-2.2-2-4.4-3.9c0.1 0.9 0.3 1.8 0.4 2.8 0.4 2.9 0.8 6.1 2.4 8.2-1.7 0.3-3.4-1.1-3.5-2.7 0.3 4.7-2 9.3-3.9 13.5q-0.8-2.2-1.5-4.4-2.9 4.1-6.4 7.8c0.5-1.2 0.5-2.6 0-3.8q-2.4 3.2-4.8 6.2c-0.1-1-0.3-2.1-0.9-3q-2.8 4.6-5.7 9.3c0.5-1.4 0.5-3-0.1-4.4q-2.9 3.8-5.8 7.5-0.7-1.5-1.3-3c-2.2 3.2-5.1 5.9-8.5 7.8 0.9-1.4 1.2-3.2 0.9-4.8-4.6 5-9.9 9.3-15.8 12.6 1.7-2 2.2-5 1.4-7.5-4.2 3.3-8.9 6-13.8 8.2 0.6-1.1 0.7-2.4 0.2-3.4-1.4 0.7-2.5 2.1-2.9 3.6-3.1-1-6-2.7-8.3-4.9-0.6 1.1-0.9 2.3-0.7 3.5-1.8-1.6-3.1-3.7-4-5.9-1.4 0.9-2.1 2.6-1.9 4.2-2.9-2.9-5.4-6.2-7.2-9.9-0.6 0.7-0.9 1.6-0.8 2.6-1.3-0.9-12-7-11.5-8.5-0.4 1.3-0.5 2.7-0.1 4-3.7-1.6-6.7-4.7-8.3-8.5-0.7 1.4-1.1 2.8-1.3 4.3-2.2-2.1-11.3-6.9-9.9-11-0.9 2.4-1.3 5-1.3 7.7-3.2-4.2-4.9-9.5-4.6-14.7-1.3 1.8-2.2 3.9-2.5 6.1q-0.1 0.4-0.1 0.9-0.1-0.2-0.1-0.3c-1.5-2.7-2.2-5.8-2.4-8.9 0-2.1 0.2-4.2 0.8-6.2q0.1-0.4 0.2-0.8l0.3-0.9q-3.1 1.9-6.2 3.9 1.1-1.9 1.9-3.9 0.7-1.6 1.1-3.3c0.7-2.5 1.1-5.1 1.2-7.7-2.2 2.4-4.9 4.5-7.8 6.2 1.7-2.8 2.9-5.8 3.7-9q-2.2 1.3-4.4 2.5c1.6-2.4 3.5-4.7 5-7.2 1-1.6 1.4-5.9 2.8-6.9-2.3 1.7-4.8 3.2-7.4 4.3 3.3-4.8 4.7-10 7.4-15-1.7 1.1-3.2 2.4-4.5 4 1.3-1.7 1.7-6.2 2.3-9.6 0.2-1 0.5-2 0.7-2.7 1.3-3 2.8-6.2 4.3-9.1q-3.3 2.6-6.6 5.2c1-3 2.6-5.4 4.3-7.9 1-1.6 2-4.4 3.3-5.6-2.2 2-4.8 3.4-7.7 4.1 3.7-4.7 8.6-10.2 10.7-15.8-1.9 0.5-3.7 1.3-5.3 2.4 3.9-2.7 4.7-9.3 9.9-10.9-2.3-1.3-4.9-2.1-7.5-2.2 2.7-2 6.1-2.9 9.4-2.6q1.4 0.1 2.8 0.5 0 0 0 0 0 0 0 0c-1.1-2.8-3.5-5.1-6.3-6.1 3.1-1.9 7.1-2.1 10.3-0.6-0.2-3.4-2.5-6.5-5.6-7.9 4.6-0.6 9.5 0.6 13.2 3.3q-2.5-5.1-5.1-10.3 3.3 3.1 6.6 6.1c-2.3-3.8-2.8-8.7-1.3-12.9-0.3 3.9 2.1 7.9 5.6 9.5q-0.8-5.6-1.9-11.1c3.5 1.9 6.6 4.5 9.2 7.5-0.1-3.1-1.9-6.2-4.6-7.8 4.9 0 9.8 1.9 13.4 5.3 0.6-3.4-0.6-7.1-3.1-9.5 3 1.2 5.6 3.5 7 6.4 0.8-2.1 0.5-4.5-0.7-6.3 4.3 0.4 8.4 3.2 10.4 7.1 3.1-2.9 5.9-6.2 8.1-9.8 1.3 2.6 2.8 5.1 4.6 7.4l6.9-4.2c0 2.5-1 5-2.5 6.9 4.8-2.7 10.6-3.6 16-2.6q-3.9 3.2-7.8 6.4c5.3-0.8 10.8-0.8 16.1 0.2-2.1 0.9-5.7 1.5-6.7 3.8 5.6-0.5 11.3 0.1 16.7 1.7-3.1-0.1-6.3 0.9-8.7 2.8 3.8 0.6 7.7 0.7 11.6 0.5-1.5 2.9-4.2 5.1-7.3 5.9 3.8 1 8 0.4 11.5-1.5-1.2 1.8-2.2 3.8-2.9 5.8q-0.7 2.1-0.9 4.3c4.1-2 8.5-3.3 13-3.7-3.9 1.6-6.4 5.4-8.6 9 2.8-1.6 6.4-1.6 9.3-0.1-2.8 0.6-5.6 1.6-8.2 2.8 0.8-0.4 5.5 1.2 7 0.9-1.5 1.6-3.6 3.3-2.8 5.7 0.4 1.2 2.4 2.8 3.2 3.7 0.9 1 4.1 5.4 5.6 5.4-2.5 0.2-4.9-0.3-7.2-1.3 4.1 2.4 7.5 5.8 9.8 9.9-2.7-0.8-5.5-1.3-8.3-1.3 4.3 4.6 7.4 10.5 8.6 16.8q-0.8-0.9-1.8-1.6c-1.2-0.9-2.5-1.4-3.9-1.7 4.1 4.4 7.2 9.9 8.8 15.7-1.5-1-3.3-1.9-5.1-2.4 1.1 5.1 3.2 10 6.1 14.3q-1.8-0.5-3.5-1.4-1.9-1-3.5-2.3c0.8 2.4 1.9 4.7 3.4 6.7-1.4-0.2-2.6-1-3.3-2.2q1.6 5.7 3.3 11.5 0.3 1.1 0.6 2.2z"/><path class="b" d="m303.4 123c0.4 2.8 0.8 6 2.4 8.1-1.7 0.3-3.4-1.1-3.5-2.7 0.3 4.7-2 9.3-4 13.5q-0.7-2.2-1.4-4.4-3 4.1-6.4 7.8c0.5-1.2 0.5-2.6 0-3.7q-2.4 3.1-4.8 6.1c-0.1-1-0.4-2.1-0.9-3q-2.9 4.6-5.7 9.3c0.5-1.4 0.5-3-0.1-4.4q-2.9 3.8-5.8 7.5-0.7-1.5-1.3-3c-2.2 3.2-5.1 5.9-8.5 7.8 0.9-1.4 1.2-3.2 0.9-4.8-4.6 5-9.9 9.3-15.8 12.6 1.7-2 2.2-5 1.4-7.5-4.2 3.3-8.9 6-13.8 8.2 0.6-1.1 0.7-2.3 0.2-3.4-1.5 0.7-2.6 2.1-2.9 3.6-3.1-1-6-2.7-8.4-4.9-0.5 1.1-0.8 2.3-0.6 3.5-1.8-1.6-3.2-3.7-4-5.9-1.4 0.9-2.1 2.6-1.9 4.2-2.9-2.9-5.4-6.2-7.2-9.9-0.6 0.7-0.9 1.6-0.8 2.6-1.3-0.9-12.1-7-11.5-8.5-0.5 1.3-0.5 2.7-0.1 4-3.7-1.6-6.8-4.7-8.4-8.5-0.6 1.4-1 2.8-1.2 4.3-2.2-2.1-11.3-6.9-9.9-11-0.9 2.4-1.3 5-1.3 7.7-3.2-4.2-4.9-9.5-4.6-14.7-1.3 1.8-2.2 3.9-2.5 6.1q-0.1 0.4-0.1 0.9-0.1-0.2-0.2-0.3c-1.4-2.7-2.2-5.8-2.3-8.9 0.1-2.2 0.3-4.4 0.8-6.2q0.1-0.4 0.2-0.8l0.3-0.9q-3.1 1.9-6.2 3.9 1.1-1.9 1.9-3.9c2.2-2.7 4.3-5.4 6.3-8.3-0.3 0.4-0.5 1.2-0.6 2.1-0.4 3.8 0.6 10.5 0.6 12.7 1.1-2.1 2.4-4.5 4-6.2 1.9 6.4 5.1 12.3 9.2 17.5q-0.3-4.2-0.6-8.3c2.1 5.9 6.1 11.2 11.3 15-0.9-3.4-0.3-6.2 0.3-9.5 1.2 4.6 4.9 8.3 8.8 11.1-0.4-2.7-0.1-5.5 1-8 1.1 3.8 4.2 6.6 7.1 9.2 0.7 0.7 6.9 5 6.9 5.9 0.1-2.4 1.1-4.7 2.8-6.4 1.8 3.8 4.9 7 8.6 9 0.5-2.6 1.9-5 3.9-6.6q0.8 3.4 1.6 6.7 3.4-2.1 6.2-4.9c0.5 1.5 0.6 3.1 0.4 4.7 4.3-2.4 11.9-3.8 14.3-8.4 0.7 1.2 0 3.1-0.8 4.2 0.3 0.5 1 0.2 1.5-0.1 4.8-3.5 9.2-7.5 13.1-12q-1.1 3.5-2.3 7c3.3-2.4 6.8-4.8 9.7-7.6 1.7-1.7 5.7-4.8 5.6-7.6q0.1 2.6 0.2 5.2c2.9-2.3 5.1-4.6 7.3-7.5 0.2 1.5 0 2.9-0.1 4.4 2.9-1.9 4.4-5.9 6.1-8.8q1 3.2 1.3 6.5c1.9-5.6 3.1-10.7 2.8-16.6-0.1-0.5-0.1-1.1 0.3-1.4q2.5 2.5 4.6 5.3 0.3 1.2 0.6 2.3-2.2-2-4.4-3.9c0.2 0.9 0.3 1.9 0.5 2.9z"/><path class="b" d="m306.3 85.2q-0.8-0.9-1.9-1.6-1.8-2.5-3.4-5.2c-0.7-1.2-7.9-12.7-9.1-12.7 1.5-0.6 3.1-0.9 4.6-1.3-2.8-4.1-6.9-7-11.9-8.2 1.1-0.9 2.4-1.4 3.6-1.4q-4-1.3-8.3-2.5c-8.2-2.3-19.4-2.1-27.3 4.4-3.1 2.5-4.9 5.8-8.6 7.7-0.1 0.1-0.3 0.1-0.5 0.1-0.2-0.1-0.3-0.3-0.4-0.5-0.3-0.7-0.6-1.4-1-2.1q-0.9 1.6-2.2 2.9c-0.2 0.2-0.4 0.4-0.8 0.5-0.5 0.2-1.1-0.1-1.5-0.6-0.4-0.4-0.7-0.9-1.2-1.3-0.1-0.2-0.3-0.3-0.5-0.3-0.2 0-0.4 0.1-0.5 0.3q-1.2 0.9-2.3 1.9c-0.6-0.9-1-1.9-1.3-3q-1.1 1-2.1 1.9c-0.1 0.2-0.3 0.3-0.6 0.3-0.2 0-0.4-0.1-0.6-0.3-0.2-0.2-1.6-2-1.6-2.3-0.2 0.9-0.4 1.8-0.6 2.7-1.3-0.8-2.7-1.8-4-2.6-6.2-3.9-10.2-8.1-17.8-9.8-6.7-1.5-14.1-2.5-18.6 1.5 1.9 0.2 3.9 1.3 5.2 3-3.5-3.4-17 7.1-18.8 9q2.7 0.1 5.3 0.3c-4-0.3-8.3 10.3-10.5 13.1-0.7 0.9-1.5 1.8-2.3 2.6 0.1-1 0.4-2 0.7-2.7 1.3-3 2.7-6.2 4.2-9.1q-3.2 2.6-6.5 5.1c0.9-2.9 2.5-5.3 4.2-7.9 1-1.5 2-4.4 3.3-5.5-2.1 2-4.8 3.4-7.6 4.1 3.7-4.7 8.5-10.3 10.6-15.8-1.9 0.5-3.7 1.3-5.3 2.4 3.9-2.7 4.8-9.3 10-10.9-2.3-1.3-4.9-2.1-7.6-2.2 3.5-2.6 8.2-3.4 12.3-2.1-1.1-2.8-3.5-5.1-6.3-6.1 3-1.9 7-2.1 10.3-0.6-0.3-3.4-2.5-6.5-5.6-7.9 4.6-0.6 9.4 0.6 13.1 3.3q-2.5-5.2-5-10.4 3.3 3.2 6.5 6.2c-2.3-3.8-2.7-8.7-1.2-12.9-0.3 3.9 2 7.9 5.6 9.5q-0.8-5.6-2-11.1c3.5 1.9 6.7 4.5 9.2 7.5-0.1-3.1-1.8-6.2-4.5-7.8 4.9-0.1 9.8 1.9 13.3 5.3 0.6-3.4-0.6-7.1-3-9.5 3 1.2 5.5 3.5 7 6.4 0.7-2.1 0.5-4.5-0.8-6.3 4.4 0.4 8.4 3.2 10.4 7.1 3.2-2.9 5.9-6.2 8.2-9.8 1.2 2.6 2.7 5.1 4.5 7.4l7-4.2c-0.1 2.5-1 5-2.6 6.9 4.9-2.7 10.6-3.6 16.1-2.6q-3.9 3.2-7.9 6.4c5.4-0.8 10.8-0.8 16.1 0.1-2.1 1-5.7 1.5-6.7 3.9 5.6-0.5 11.3 0.1 16.7 1.7-3.1-0.1-6.2 0.9-8.7 2.8 3.9 0.6 7.8 0.7 11.6 0.5-1.4 2.9-4.1 5.1-7.2 5.9 3.8 1 8 0.4 11.4-1.5-2 3-3.3 6.5-3.8 10.1 4.1-2 8.6-3.3 13.1-3.7-3.9 1.6-6.4 5.4-8.7 9 2.9-1.6 6.5-1.6 9.4-0.1-2.9 0.6-5.6 1.6-8.2 2.8 0.8-0.4 5.4 1.2 7 0.9-1.6 1.5-3.7 3.3-2.9 5.7 0.4 1.2 2.4 2.8 3.3 3.7 0.8 0.9 4 5.4 5.5 5.4-2.4 0.2-4.9-0.3-7.1-1.3 4 2.4 7.4 5.8 9.8 9.9-2.7-0.8-5.6-1.3-8.4-1.3 4.4 4.6 7.4 10.5 8.7 16.8z"/><path class="b" d="m288.6 27.3c-1.2 1.8-2.2 3.8-2.8 5.8-1.3 0.9-2.6 1.9-3.7 3.1q-1.7-1-3.5-1.7c-3.6-1.5-7.5-2.3-11.4-2.4 2 1.6 3.7 3.7 4.9 5.9-4.9-3.5-11.4-3.6-17.4-3.6 3.1 0.2 6.8 0.8 8.3 3.6-0.8-1.5-12.5 0.2-14.1 0.6-4.1 1.2-8.4 4.6-11.5 7.5-0.6-2-0.9-4.1-0.9-6.2-1.5 1.3-2.7 2.8-3.5 4.5-2.5-2-4.6-4.5-6.1-7.3-0.2 2.3-0.7 4.5-1.4 6.7-2.2-1.9-3.4-4.1-5.8-5.7-7.1-4.6-16.6-1.9-24 0.4 4.3-2.7 8.9-4.8 13.7-6.2-5.7 0.2-11.4 1.4-16.7 3.7 0.9-1.8 2.3-3.5 3.8-4.8-5.5 0.8-9.5 2.4-13.4 5.9-1.2-2.8-3.5-5.1-6.3-6.1 3-1.9 7-2.1 10.3-0.6-0.3-3.4-2.5-6.6-5.6-7.9 4.6-0.7 9.4 0.5 13.2 3.3q-2.6-5.2-5.1-10.4 3.3 3.1 6.5 6.2c-2.3-3.8-2.7-8.7-1.2-12.9-0.3 3.9 2 7.9 5.6 9.5q-0.8-5.6-2-11.1c3.5 1.9 6.7 4.4 9.3 7.5-0.1-3.2-1.9-6.2-4.6-7.9 4.9 0 9.8 2 13.3 5.4 0.6-3.5-0.6-7.1-3-9.6 3 1.2 5.5 3.6 7 6.4 0.8-2 0.5-4.4-0.8-6.3 4.4 0.5 8.4 3.3 10.4 7.2 3.2-2.9 5.9-6.2 8.2-9.8 1.2 2.6 2.7 5.1 4.5 7.4l7-4.2c-0.1 2.5-1 4.9-2.6 6.9 4.9-2.7 10.7-3.6 16.1-2.6q-3.9 3.2-7.9 6.3c5.4-0.8 10.8-0.7 16.2 0.2-2.2 1-5.8 1.5-6.8 3.9 5.6-0.6 11.3 0 16.7 1.7-3.1-0.1-6.2 0.9-8.7 2.8 3.9 0.5 7.8 0.7 11.7 0.5-1.5 2.8-4.2 5-7.3 5.9 3.8 1 8 0.4 11.5-1.5z"/><path class="p" d="m280.8 62.3c-3.7-6.6-10.4-10.5-18.3-10.6 0.9-1.5 2.5-2.6 4.2-3-5.1 0.3-10.4 1-15.2 2.5 0.7-1.4 1.6-2.7 2.7-3.8-6.9 2.4-14.2 5.8-19.1 11.4 0.9-1-10.1-7.4-11.1-7.8-4.8-2.3-10-3.7-15.4-3.9 1.2 1.2 2.1 2.7 2.7 4.2-6.8-1.5-13.9-2.7-19.5 2.5 0.3-0.4 4.4-0.2 5 0-2.8 1.5-5.5 3.6-7 6.3-0.9 1.5-1.7 3.1-2.3 4.7-0.5 1.2-0.7 3.6-1.5 4.6 1.4-1.7 3.2-3 5.3-3.7-1.2 0.3-1.6 1.7-1.7 2.9-0.5 3.8-0.4 8 0.8 11.6 3 9.1 9.6 17.5 18.9 20.5 10 3.2 19.8-0.9 25.6-9.6 5.9 8.8 15.7 13 25.7 9.7 10.3-3.3 16.5-13.1 19.1-23.1 1.2-4.4 1.7-10-1.3-13.7q2 0.9 4 1.8-0.7-1.8-1.6-3.5z"/><path class="q" d="m238.7 76.5c-2.1 9.1-12.4 14.5-23 12-10.6-2.4-17.5-11.8-15.3-20.9 2.1-9.1 11.3-9.8 21.9-7.3 10.6 2.5 18.5 7.2 16.4 16.2z"/><path class="q" d="m231.3 76.6c2.2 9.1 12.5 14.5 23 12 10.6-2.4 17.5-11.8 15.4-20.9-2.2-9.1-11.3-9.8-21.9-7.3-10.6 2.5-18.6 7.1-16.5 16.2z"/><path class="r" d="m225.5 72.4q0 0.4-0.1 1 0 0.1 0 0.3-0.1 0.3-0.2 0.6 0 0 0 0.1-0.1 0.3-0.2 0.5-0.3 0.8-0.7 1.5-0.2 0.2-0.4 0.5 0 0 0 0-0.2 0.3-0.5 0.5-0.2 0.3-0.4 0.5-0.4 0.3-0.8 0.6 0 0-0.1 0c-0.1 0.2-0.2 0.2-0.4 0.3q-0.6 0.4-1.2 0.6-0.2 0.1-0.5 0.1-0.4 0.2-0.8 0.2-0.2 0.1-0.3 0.1-0.1 0-0.2 0-0.1 0-0.2 0-0.1 0-0.2 0.1-0.2 0-0.5 0-0.3 0-0.7-0.1-0.2 0-0.5 0-0.2 0-0.3-0.1-0.3 0-0.6-0.1-0.1 0-0.1-0.1-0.3 0-0.6-0.1-0.7-0.3-1.4-0.8-0.2-0.1-0.5-0.3 0 0 0-0.1-0.3-0.2-0.6-0.4-0.2-0.2-0.4-0.5-0.4-0.3-0.6-0.8-0.1 0-0.1 0c-0.1-0.2-0.2-0.3-0.2-0.4q-0.4-0.6-0.6-1.2-0.1-0.3-0.2-0.5-0.1-0.4-0.2-0.8 0-0.3 0-0.5-0.1-0.5-0.1-1 0-0.3 0-0.6 0.1-0.3 0.1-0.5 0-0.2 0.1-0.4 0 0 0 0 0-0.3 0.1-0.6 0.1-0.2 0.2-0.4c0.6-1.5 1.7-2.1 3.2-2.3 1.3-0.1 2.8 0.1 4.6 0.4 1.8 0.3 3.6 0.6 4.9 1.3 1.4 0.7 2.3 1.7 2.3 3.4z"/><path class="s" d="m224.1 71.8c0.3 3.4-2.4 6.4-5.9 6.7-3.5 0.2-6.5-2.5-6.7-5.9q0-0.6 0-1.1 0-0.1 0.1-0.2 0-0.3 0.1-0.5 0-0.3 0.1-0.6 0-0.1 0.1-0.2 0.1-0.2 0.2-0.5 0 0 0 0 0.2-0.3 0.3-0.6c0.4-0.6 0.8-1.1 1.4-1.6 1.3-0.1 2.8 0.1 4.5 0.4 1.9 0.3 3.7 0.6 5 1.3q0.2 0.3 0.3 0.6 0.2 0.3 0.3 0.7 0.1 0.4 0.1 0.7 0.1 0.4 0.1 0.8z"/><path class="t" d="m217.8 75.8c-2 0-3.7-1.6-3.7-3.6 0-2.1 1.7-3.7 3.7-3.7 2 0 3.7 1.6 3.7 3.7 0 2-1.7 3.6-3.7 3.6z"/><path class="r" d="m216.1 71.4c-1 0-1.7-0.7-1.7-1.7 0-0.9 0.7-1.6 1.7-1.6 0.9 0 1.7 0.7 1.7 1.6 0 1-0.8 1.7-1.7 1.7z"/><path class="r" d="m260 72.2q0 0.2 0 0.5 0 0.3-0.1 0.7 0 0.3-0.1 0.6-0.1 0.4-0.2 0.7-0.2 0.6-0.5 1.1-0.4 0.8-1.1 1.5-0.2 0.3-0.4 0.5 0 0 0 0-0.3 0.3-0.6 0.5-0.2 0.2-0.5 0.4-0.6 0.4-1.3 0.6-1 0.4-2.1 0.5-0.4 0.1-0.8 0.1-0.3 0-0.5 0-0.2 0-0.3-0.1-0.3 0-0.5-0.1-0.4 0-0.8-0.1-0.3-0.1-0.5-0.2-0.6-0.2-1.2-0.6-0.3-0.1-0.5-0.3-0.4-0.3-0.8-0.6-0.2-0.2-0.5-0.5-0.2-0.2-0.4-0.5 0 0-0.1 0-0.1-0.3-0.3-0.5-0.4-0.7-0.7-1.4-0.1-0.3-0.2-0.6-0.2-0.5-0.3-1 0-0.6 0-1c0-1.7 0.8-2.7 2.1-3.4q0.1 0 0.1 0c1.3-0.7 3.1-1 5-1.3 1.7-0.3 3.2-0.5 4.5-0.4h0.1c1.2 0.2 2.2 0.6 2.8 1.7q0.2 0.3 0.3 0.5 0.1 0.2 0.1 0.5 0.2 0.6 0.3 1.3c0 0.3 0 0.6 0 0.9z"/><path class="u" d="m258.6 71.8c0.2 3.4-2.4 6.4-5.9 6.7-3.5 0.2-6.5-2.5-6.7-5.9q0-0.6 0-1.1 0-0.2 0.1-0.3 0-0.4 0.1-0.7 0.1-0.4 0.3-0.8 0.1-0.3 0.3-0.7 0.1 0 0.2 0c1.3-0.7 3-1 4.9-1.3 1.7-0.3 3.2-0.5 4.5-0.4q0.2 0.2 0.4 0.4 0.3 0.3 0.5 0.5 0.1 0.2 0.3 0.4 0 0.1 0.1 0.2 0.1 0.2 0.2 0.5 0.2 0.2 0.3 0.5 0 0 0 0 0.1 0.3 0.2 0.6 0.1 0.4 0.2 0.7 0 0.3 0 0.6z"/><path class="t" d="m252.3 75.8c-2 0-3.7-1.6-3.7-3.6 0-2.1 1.7-3.7 3.7-3.7 2 0 3.7 1.6 3.7 3.7 0 2-1.7 3.6-3.7 3.6z"/><path class="r" d="m250.4 71.4c-1 0-1.7-0.7-1.7-1.7 0-0.9 0.7-1.6 1.7-1.6 0.9 0 1.7 0.7 1.7 1.6 0 1-0.8 1.7-1.7 1.7z"/><path class="q" d="m267.2 132.1q0 0.5 0 0.9c-0.1 3-0.5 5.8-1.3 8.5v0.1c-0.5 1.7-1.1 3.4-1.8 5l-0.1 0.1q-0.3 0.7-0.7 1.5c-3.9 7.5-10.5 13.4-18.3 16q0 0 0 0c-19.7 7.1-41.7-9-41.9-31.1q0-0.5 0-0.9c0.3-19.3 14.5-49.4 32-49.8 17.5 0.4 31.7 30.5 32.1 49.8z"/><path class="p" d="m247.3 110.2c0.9 4.1 1.1 8.3-1.1 11.8-2.9 4.5-8.5 7-13.7 6.1-2.6-0.5-4.5-1.9-6.5-3.6-4.4-3.9-4.8-9.3-3.3-14.8 1.6-5.5 3.9-10.9 5.9-16.2 1.4-3.6 2.3-9.6 7-9.6 2.5 0 4 2.3 4.9 4.4 1.6 3.4 2.4 7.2 3.4 10.9 1 3.6 2.5 7.3 3.3 11z"/><path class="v" d="m267.2 133.1c-0.1 2.9-0.5 5.7-1.3 8.5-0.5 1.7-1.1 3.4-1.8 5l-0.1 0.1q-0.3 0.7-0.7 1.5c-3.9 7.5-10.5 13.4-18.3 16q0 0 0 0c-19.7 7.1-41.7-9-41.9-31.1q0-1.4 0.1-2.9c0.9 9.3 5.7 17.4 12.7 22.7q0.7 0.5 1.3 0.9 1 0.6 2 1.2 1 0.6 2 1.1 0.7 0.4 1.4 0.7 0.8 0.3 1.5 0.6 1.6 0.5 3.2 1 0.7 0.1 1.4 0.3 0.5 0.1 1.1 0.2 0.2 0 0.5 0 0.9 0.2 1.9 0.3 0.4 0 0.9 0 0.3 0.1 0.7 0.1 0.7 0 1.3 0 1.9 0 3.8-0.2 1.4-0.2 2.8-0.5 1.7-0.3 3.3-0.9 0.8-0.2 1.6-0.5 0.8-0.3 1.5-0.7 0.1 0 0.2-0.1 0.6-0.2 1.2-0.5 0.3-0.2 0.7-0.4 0.1-0.1 0.3-0.2 0.6-0.3 1.2-0.7 0.7-0.4 1.3-0.8 1.3-0.9 2.5-1.9 0.6-0.5 1.2-1 0.4-0.4 0.7-0.8 0.4-0.3 0.8-0.7 0.1-0.1 0.1-0.1 0.6-0.6 1-1.2 0.1-0.1 0.2-0.2 0.5-0.6 1-1.3 0.5-0.6 1-1.3 0.4-0.6 0.8-1.3c0.1-0.1 0.2-0.2 0.2-0.3q0.4-0.6 0.7-1.3c0 0 0.1 0 0.1 0q0.4-0.8 0.7-1.5 0.4-0.8 0.7-1.6 0.3-0.7 0.6-1.4 0.1-0.3 0.2-0.6 0-0.2 0.1-0.5 0.1-0.4 0.3-0.8c0-0.1 0-0.1 0-0.2q0.8-2.7 1.1-5.7c0 1 0.1 2 0.1 2.9z"/><path class="t" d="m243.8 141.4c-5.7 2-11.7 2-17.3 0 5.6-1.9 11.6-1.9 17.2 0z"/><path class="t" d="m230.7 127.2c-0.8 0.5-2.3-0.5-3.3-2.2-0.9-1.7-1.1-3.4-0.2-3.9 0.8-0.5 2.2 0.5 3.2 2.2 1 1.7 1.1 3.4 0.3 3.9z"/><path class="t" d="m242.8 125c-1 1.7-2.4 2.7-3.2 2.2-0.9-0.5-0.7-2.2 0.2-3.9 1-1.7 2.5-2.7 3.3-2.2 0.8 0.5 0.7 2.2-0.3 3.9z"/></svg>