<svg version="1.2" xmlns="http://www.w3.org/2000/svg" viewBox="0 0 470 470" width="470" height="470"><style>.a{fill:#d3bea6}.b{mix-blend-mode:multiply;fill:#d3bea6}.c{fill:#312e2d}.d{fill:#d69f5d}.e{opacity:.9;mix-blend-mode:multiply;fill:#312e2d}.f{fill:#fff}.g{fill:#ededed}.h{fill:#3c3c3b}.i{mix-blend-mode:multiply;fill:#575756}.j{mix-blend-mode:multiply;fill:#dadada}.k{mix-blend-mode:multiply;fill:#312e2d}.l{fill:#b17f4a}.m{mix-blend-mode:multiply;fill:#b17f4a}.n{mix-blend-mode:hard-light;fill:#cbbba0}.o{mix-blend-mode:multiply;fill:#a48a7b}.p{fill:#1d1d1b}.q{fill:#b56696}.r{mix-blend-mode:multiply;fill:#b56696}.s{fill:#44373c}.t{fill:#7f6770}</style><path class="a" d="m72.7 372.8c-0.7-5.1-0.7-12.9 4.4-15.2 4-1.8 10.3 0.2 11.5 4.7 1 3.8-1.3 7.7-3 10.9-2.8 5.1-4.5 10.5-4.4 16.4 0 0.4 0 0.9-0.4 1.1-0.4 0.2-0.8-0.1-1.1-0.4-4.5-4.7-6.1-11.1-7-17.5z"/><path class="b" d="m79.9 357c3.7-0.2 7.8 1.8 8.7 5.3 1 3.8-1.3 7.7-3 10.9-2.4 4.5-4.1 9.3-4.4 14.5-3.3-4.5-4.7-10.1-5.5-15.7-0.7-5-0.6-12.5 4.2-15z"/><path class="a" d="m53.2 364.5c-1.4-7.2-0.7-29 12.5-19.8 3.6 2.6 5.1 7.4 4.4 11.8-0.9 6.3-5.2 11.4-6.2 17.9-0.5 3.2-0.3 6.2 0 9.5 0 0.3 0 0.6-0.2 0.8-0.5 0.4-1.1-0.1-1.5-0.5-4.7-5.1-7.6-12.4-9-19.7z"/><path class="b" d="m65.7 344.7c3.6 2.6 5.1 7.4 4.4 11.8-0.9 6.3-5.2 11.4-6.2 17.9-0.3 2-0.3 4-0.3 6-3.6-5-6-11.2-7.2-17.5-0.9-4.8-0.9-16.2 3.2-20.4 1.6-0.1 3.6 0.5 6.1 2.2z"/><path class="a" d="m50.4 341.7c-1.9 3.4-2.9 7.3-3.2 11.1-0.4 3.4-0.4 6.8-0.4 10.2q0 0.2-0.1 0.4c-0.1 0.2-0.4 0.3-0.6 0.2-0.3-0.1-0.4-0.3-0.6-0.5-2.8-3.6-4.4-8.6-5.3-12.9-1.6-7.5-2.8-22.2 6.9-24.7 3.3-0.8 5.6 1 6.6 4.1 1.7 4.6-1.2 8.2-3.3 12.1z"/><path class="b" d="m48.5 325.3c2.5 0 4.3 1.7 5.2 4.3 1.7 4.6-1.2 8.3-3.4 12.1-1.9 3.4-2.8 7.3-3.2 11.1q-0.1 1.9-0.2 3.8c-1.1-2.5-1.9-5.3-2.5-7.9-1.4-6.6-2.5-18.9 4.1-23.4z"/><path class="c" d="m146.9 234c-5.2 22.5-30.1 131.3-48.5 139.5-18.4 8.3-32.9-7.5-40.7-16-7.8-8.5-24.7-31.4-24.7-49.7q0-2.9 0.3-6.1c1.7-15.9 9.6-36.5 24.7-62q6.2-10.3 13.9-21.6c27-39.4 84.5-81 84.5-81 16.8 8.1-5.7 80.9-9.5 96.9z"/><path class="d" d="m49.8 297.3c-5.2 4.1-11.1 5.4-16.4 4.4 1.6-15.9 9.5-36.5 24.7-62 2.6 3.2 4.6 7.4 5.7 12.1 3.5 14.6-1.9 36-14 45.5z"/><path class="d" d="m84.6 283.5c-3.5-4.1-8.7-6.2-13.7-3.1-1.7 1.1-3 2.9-3.9 4.8-2.2 5-1.4 11.3 2.3 15.3 3.8 3.9 10.4 5 15 2.1 2-1.3 3.6-3.2 4.2-5.4 1.3-4.4-0.6-9.9-3.9-13.7z"/><path class="e" d="m156.4 137.1c0 0-42.5 88.2-58.6 112.5-32.6 49.1-43.2 65-40.4 92.7 2.1 19.8 8.8 22.9 9.3 24.2 8.1 7 19 12.8 31.7 7 18.4-8.3 43.3-117 48.6-139.5 3.7-16 26.2-88.8 9.4-96.9z"/><path class="f" d="m428.1 322.5c-0.1 0 4.9 26.2-2.7 39.7 0 0-11.8-14.3-11.5-15.8 0.2-0.8 0.7-5.5 4.1-11.2 3.5-5.8 10-12.6 10-12.6z"/><path class="f" d="m428.1 322.5c-0.1 0 4.9 26.2-2.7 39.7 0 0-11.8-14.3-11.5-15.8 0.2-0.8 0.7-5.5 4.1-11.2 3.5-5.8 10-12.6 10-12.6z"/><path class="g" d="m413.9 346.4c0.2-0.8 0.7-5.5 4.1-11.2 1.5-2.4 3.5-5.1 5.3-7.3 0.8 4.6 2.7 20.1-1.9 29.4-3.4-4.3-7.7-10-7.5-10.9z"/><path class="f" d="m409.4 346.3c0 0 1.4 19.8-2.7 29.6 0 0-6.3-9.7-11.7-13.5-3.3-2.4 2.1-6.8 6.2-11.4 2.6-3 8.2-4.7 8.2-4.7z"/><path class="g" d="m401.1 351c1.2-1.3 2.9-2.3 4.5-3.1 0.2 4.2 0.5 15.8-1.6 24.2-2.4-3.2-5.8-7.5-9-9.7-3.3-2.4 2.1-6.8 6.1-11.4z"/><path class="f" d="m391.9 359.5c0.1 0 3.2 11-1.9 24.2 0 0-7.1-7.2-11.7-10.5-2.3-1.6 1.2-5.9 4.7-9.7 3.6-3.7 9-4 9-4z"/><path class="g" d="m388.4 360.2c0.6 2.5 2 10.8-1.2 20.9-2.4-2.4-6.1-5.9-8.9-7.9-2.3-1.6 1.2-5.9 4.7-9.7 1.7-1.7 3.7-2.7 5.5-3.3z"/><path class="h" d="m436 307.8c0 7.5-2.9 15.8-6.8 23.5-1.5 3-3.1 5.9-4.8 8.6-2.6 4.2-5.3 7.9-7.7 11.1-2.1 2.7-3.9 4.9-5.4 6.5q-0.9 0.9-1.8 1.9c-1.2 1.4-2.7 2.9-4.2 4.3-1.4 1.4-3 2.8-4.6 4.2-2.5 1.9-5.2 3.7-8 5.1q-1.9 0.9-3.9 1.6-1.3 0.4-2.5 0.7-0.8 0.1-1.5 0.3-0.4 0-0.8 0.1-1 0.1-2 0.1-0.2 0.1-0.4 0.1-1.9 0-3.7-0.2-0.2-0.1-0.4-0.1-0.3 0-0.5-0.1-0.5-0.1-1-0.2-0.1 0-0.1 0-0.5-0.1-1-0.2-1.2-0.3-2.5-0.8-0.2-0.1-0.5-0.2 0 0 0 0-0.7-0.3-1.3-0.6c-18.4-8.3-43.3-117-48.6-139.5-4.8-20.4-11-40.4-14.1-61.3-0.1-1.1-0.4-2.5-0.7-4q-0.6-5.3-0.7-10.7c-0.2-4.2-0.8-9.2 0.4-13.4 1-2 2.6-3.5 4.9-4.3q0.6-0.1 1.1-0.3 3-0.7 6.1-0.7c20.2-0.1 41.2 23.1 48.5 38.8 4 8.6 6.2 18 9.9 26.8 7.4 17.5 21.6 28.9 33.3 43.4 14 17.2 25.3 36.7 25.3 59.5z"/><path class="f" d="m417.4 292.8c-2.5-2.3-7.1-1.5-9.9-0.3-2.5 1.1-4.8 3-6.4 5.2-1.7 2.5-2.8 5.3-3.7 8.2-2.2 7.3-3.8 19.8 2.5 25.7 3.1 2.9 7.4 2.2 11 0.5 1.9-0.9 3.8-2 5.4-3.4 0.9-0.8 1.6-1.7 2.2-2.8 1.9-3.5 3-7.5 3.1-11.5 0-1-0.1-2-0.5-2.9-0.3-0.7-0.8-1.3-1.2-2-2.2-4-0.5-9.1-1.1-13.5-0.2-1.2-0.5-2.4-1.4-3.2z"/><path class="f" d="m435.4 299.4q-0.1 0-0.1 0c-0.9 1.4-2 2.7-2.8 3.7-1.1 1.4-1.9 2.3-3.8 2.2-4.7 0-4.5-4.6-4.6-8-0.1-4.4-4.1-10.3 3-11.7 1.9-0.3 3.8 0.3 5.4 1.3q0.1 0.1 0.2 0.1 1.9 6.6 2.7 12.4z"/><path class="f" d="m412.1 285.6c0.2 0.6 0.6 1 1.5 1 2.7 0.3 5.6-1.9 6.2-4.6 0.2-0.9 0.1-1.9-0.5-2.6-0.4-0.3-0.9-0.5-1.4-0.7-2.7-0.6-4.2 1.1-5.3 3.4-0.4 0.9-0.9 2.4-0.5 3.5z"/><path class="i" d="m411.5 342.3c-2 19.8-8.7 22.9-9.3 24.2q-1.1 1-2.2 1.9-0.6 0.4-1.2 0.9-0.5 0.3-1 0.7-0.7 0.5-1.4 0.9-0.5 0.3-1.1 0.7-0.7 0.4-1.4 0.8-0.6 0.3-1.3 0.6-0.5 0.3-1 0.5-0.5 0.2-0.9 0.4-1 0.4-2 0.7-0.4 0.1-0.8 0.3-0.4 0.1-0.8 0.2-0.1 0-0.2 0-0.5 0.2-1.1 0.3-0.3 0-0.7 0.1-0.5 0.1-1.1 0.2-0.7 0.1-1.4 0.1-0.1 0-0.2 0-0.4 0-0.8 0-0.1 0.1-0.1 0-1 0.1-2.1 0-0.7 0-1.4-0.1-0.7-0.1-1.5-0.3-0.3 0-0.7-0.1-1-0.2-2.1-0.6-0.6-0.2-1.3-0.4-0.5-0.2-1-0.4-0.4-0.2-0.8-0.4-0.4-0.1-0.7-0.3-1-0.6-2-1.5c-18-16.5-40.8-116.3-45.9-137.7-4.8-20.4-11.1-40.4-14.1-61.3-0.1-1.1-0.4-2.5-0.7-4q-0.6-5.3-0.7-10.7-0.1-1.7-0.2-3.5-0.1-0.9-0.1-1.9 0-0.3 0-0.6c-0.1-2.5 0-5.1 0.6-7.4 1.1-2 2.6-3.5 5-4.3q0.6-0.1 1.1-0.2 0.4-0.1 0.8-0.2 0.1 0 0.2-0.1c0.2 0 0.3-0.1 0.5-0.1q0.3 0 0.6-0.1 0.2 0 0.4-0.1 0.3 0 0.6 0c0.2-0.1 0.3-0.1 0.5-0.1 0.3 5.1 2.1 10.1 4.2 14.7 2 4.4 3.9 8.8 6.3 12.9q7.1 12.1 13.7 24.5c4.2 7.9 9.6 14.7 14.7 22 8.9 12.5 14.4 27.1 21 40.8 6.7 13.9 15.6 26.4 23.2 39.9 8.5 15.2 13.7 30.6 11.9 48.1z"/><path class="h" d="m92.2 360.3q0.1 1.7 0.2 3.4c0.3 5.3 0.9 11.1 2 17.1q0.4 2.7 1 5.3 0.1 0.8 0.3 1.6c1.8 8.6 4.5 17.6 8.3 26.5 14.7 34.7 22.8 54.3 62.9 54.3q5.8 0 10.5-0.1 0.8 0 1.7-0.1c5.1-0.2 9.1-0.6 12.3-1.3q0.1 0 0.1 0 1.2-0.3 2.2-0.6 0.1 0 0.1 0 1-0.4 1.9-0.8 0.9-0.4 1.5-0.8 0.5-0.3 0.9-0.6 0.3-0.2 0.6-0.5c1.9-1.6 3-3.8 3.6-6.7q0.3-1.5 0.5-2.9 0-0.1 0-0.1 0.1-0.6 0.1-1.3 0.2-2.2 0.3-4.8v-0.9c0-3 0-6.4-0.1-10.3v-0.1q0-3.2 0-7 0-1.5-0.1-3.1 0-1.6-0.1-3.2c-0.3-7.6 1.1-14 4-21.1 2.6-6.8 1.7-12.3-0.9-17.5-2-4-4.8-7.7-7.8-11.7-4.6-6.3-8.7-12.7-13.5-18.9-3.9-5-7.5-10.1-11.3-15.1q-0.1-0.2-0.2-0.4c-1.8-2.3-3.7-4.6-5.7-6.9-0.4-0.5-0.8-0.9-1.2-1.4-13.5-15-28.8-31.8-50.7-31.8-1.3-0.1-2.7 0-3.9 0.5-3 1-4.8 3.9-6.3 6.6-4.8 9-9.3 19.7-11.5 29.6q-0.2 0.7-0.3 1.4-0.4 1.6-0.6 3.3-0.2 0.8-0.3 1.6 0 0.4-0.1 0.8-0.1 1.1-0.2 2.4-0.2 2.5-0.3 5.3c-0.1 3.2-0.1 6.6 0.1 10.3z"/><path class="f" d="m148.3 430.8c-0.2 1.5 0.1 3 0.3 4.4 0.2 3-0.3 6-1.4 8.4-1.7 4-5 6.9-9.7 7.9q-1 0.3-2 0.4c-4.8 0.5-9.6-0.6-14-2.8-5.5-7.5-9.9-17.1-14.8-28.5 1.2-1.7 3-2.7 5.8-2.6 1.6 0 3 0.8 4.5 1q0.5 0.1 0.9 0c1.3 0 2.5-0.5 3.5-1.3 1.2-1.1 2.2-2.6 3-4 1.4-2.6 2.7-5.6 5.3-6.9 1.9-0.9 4.2-0.7 6.2-0.3 6.5 1.3 19.3 7.7 15.8 16-1.1 2.8-3.1 5.3-3.4 8.3z"/><path class="f" d="m154.3 426q0.2-0.7 0.4-1.3c0.3-0.9 0.7-1.9 1.7-2.1 3.1-0.4 1.8 1.7 3.4 3.3 1 1.1 4 0.1 3.2 2.4-0.9 2.5-4.3 3.1-6.5 3.5-4.6 0.7-3.2-2.9-2.2-5.8z"/><path class="i" d="m92.2 360.3q0.1 1.7 0.2 3.4c0.3 5.3 0.9 11.1 2 17.1q0.4 2.7 1 5.3 0.1 0.8 0.3 1.6c2.7 7.1 26.8 31 32.2 36.8 25.2 26.5 36.6 33.9 49.5 43.9q0.8 0 1.7-0.1c4-0.2 7.9-0.5 11.9-1.2q0.2 0 0.4-0.1 0.1 0 0.1 0 1.2-0.3 2.2-0.6 0.1 0 0.1 0 1-0.4 1.9-0.8 0.9-0.4 1.5-0.8 0.5-0.3 0.9-0.6 0.3-0.2 0.6-0.5c1.9-1.6 3-3.8 3.6-6.7q0.3-1.5 0.5-2.9 0-0.1 0-0.1 0.1-0.6 0.1-1.3 0.2-2.2 0.3-4.8v-0.9c0-3.4-0.3-6.9-0.1-10.3v-0.1q0-3.2 0-7 0-1.5-0.1-3.1 0-1.6-0.1-3.2c-0.3-7.6 1.1-14 4-21.1 2.6-6.8 1.7-12.3-0.9-17.5-2.7-3.8-5-8-7.8-11.7-4.6-6.3-8.7-12.7-13.5-18.9-3.9-5-7.5-10.1-11.3-15.1q-0.1-0.2-0.2-0.4c-1.9-2.3-3.7-4.6-5.7-6.9-0.4-0.5-0.8-0.9-1.2-1.4-13.5-15-28.8-31.8-50.7-31.8-1.3-0.1-2.7 0-3.9 0.5-3 1-4.8 3.9-6.3 6.6-4.8 9-9.3 19.7-11.5 29.6q-0.2 0.7-0.3 1.4-0.4 1.6-0.6 3.3-0.2 0.8-0.3 1.6 0 0.4-0.1 0.8-0.1 1.1-0.2 2.4-0.2 2.5-0.3 5.3c-0.1 3.2-0.1 6.6 0.1 10.3z"/><path class="g" d="m154.4 468.5q-0.4 0.7-1.8 0.5c-1.6-0.3-3.1-0.5-4.6-1.2-1.2-0.5-3.9-1.8-3.2-4.1 0.6-1.9 3.4-1.8 5-1.5 2.4 0.4 3.6 1.7 4.4 4 0.3 1 0.4 1.8 0.2 2.3z"/><path class="j" d="m144.8 463.8c0.6-2 3.4-1.9 5-1.6 2.4 0.5 3.6 1.7 4.4 4 0.3 1 0.4 1.8 0.2 2.3q-0.2 0.3-0.5 0.4 0.2-0.7-0.2-2.1c-0.7-2.3-1.8-3.5-4-4-1.3-0.3-3.9-0.4-4.4 1.6-0.2 0.7-0.1 1.4 0.3 1.9-0.7-0.7-1.2-1.5-0.8-2.6z"/><path class="g" d="m169.7 470q-0.6 0-1.3-0.1c-1.7-0.5-5.2-2.9-5.7-5.2-0.1-0.6 0.4-1.2 0.9-1.4 1.9-1.1 6.2-1.3 8.2-0.6 2.2 0.9 1.1 4 0.3 5.4-0.6 1.2-1.3 1.8-2.4 1.9z"/><path class="j" d="m171.1 468.8c0.7-1.4 1.8-4.6-0.4-5.4-1.8-0.7-5.6-0.5-7.6 0.3q0.2-0.3 0.5-0.4c1.9-1.1 6.2-1.3 8.2-0.6 2.2 0.9 1.1 4 0.4 5.4-0.5 1-1.1 1.5-1.9 1.8q0.4-0.4 0.8-1.1z"/><path class="g" d="m187.1 463.3c1.2 0.4 2.1 1 2.3 2 0.4 2.3-3.4 4.4-5.3 4.1-2.2-0.3-7-4.4-4-6.3 1.8-1.2 5.1-0.4 7 0.2z"/><path class="j" d="m187.7 465.8c-0.1-1-1.1-1.6-2.3-1.9-1.4-0.5-3.6-1-5.3-0.8 1.8-1.2 5.1-0.4 7 0.2 1.2 0.4 2.1 1 2.3 2 0.3 1.9-2.3 3.7-4.3 4.1 1.5-0.8 2.9-2.1 2.6-3.6z"/><path class="c" d="m375.2 360.3q-0.1 1.7-0.2 3.4c-0.3 5.3-0.9 11-1.9 17q0 0.1-0.1 0.1-0.4 2.7-0.9 5.3-0.2 0.8-0.4 1.6c-1.8 8.6-4.5 17.6-8.3 26.5-8.1 19.2-14.2 33.7-24.8 42.9-4.8 4.2-10.6 7.3-18 9.2q-3.9 1-8.3 1.5-0.3 0.1-0.6 0.1-5.2 0.6-11.2 0.6h-0.1q-2.9 0-5.5 0-0.3 0-0.7 0-2.2-0.1-4.2-0.1-0.8 0-1.7-0.1-1.9-0.1-3.7-0.2-3.2-0.2-5.7-0.6-0.8-0.1-1.4-0.2h-0.1q-0.7-0.1-1.4-0.3-0.1 0-0.1 0-1.2-0.3-2.2-0.6-0.1 0-0.1 0-1.1-0.4-1.9-0.8-0.9-0.4-1.5-0.8-0.6-0.3-0.9-0.6-0.3-0.2-0.6-0.5c-1.9-1.6-3-3.8-3.6-6.7q-0.3-1.5-0.5-2.9 0-0.1 0-0.1-0.1-0.6-0.1-1.3-0.2-2.2-0.3-4.8v-0.9c0-3 0-6.4 0.1-10.3v-0.1q0-3.2 0-7 0-1.6 0.1-3.1 0-1.6 0.1-3.2c0.3-7.6-1.2-14-4-21.1-2.6-6.8-1.7-12.3 0.9-17.5 2-4 4.8-7.7 7.8-11.8 4.6-6.2 8.7-12.6 13.5-18.8 3.9-5 7.4-10.1 11.2-15.1q0.2-0.2 0.3-0.4c1.8-2.3 3.7-4.6 5.7-6.9 0.4-0.5 0.8-1 1.2-1.4 13.5-15 28.7-31.8 50.7-31.9 1.3 0 2.6 0.1 3.9 0.6 2.9 1 4.8 3.9 6.3 6.6 4.8 8.9 9.2 19.7 11.5 29.6q0.2 0.7 0.3 1.4 0.4 1.6 0.6 3.3 0.1 0.8 0.2 1.6 0.1 0.4 0.1 0.8 0.2 1.1 0.2 2.4 0.2 2.5 0.3 5.3c0.1 3.2 0.1 6.6 0 10.3z"/><path class="d" d="m373.1 380.7c0 0-0.1 0.1-0.1 0.1q-0.4 2.7-1 5.3-0.1 0.8-0.3 1.6c-1.8 8.6-4.5 17.6-8.3 26.5-8.1 19.2-14.2 33.7-24.8 42.9-2.1-1.1-4-2.6-5.6-4.3-2.9-3.1-3.3-7.7-2.5-11.9 0.5-3.3 1.5-6.6 2.7-9.9 2.4-6.7 5.8-13.2 9.4-18.9 4-6.5 8.3-12.8 13.5-18.4 3-3.2 10.5-13.9 16.6-13q0.2 0 0.3 0.1z"/><path class="d" d="m345.9 379.4c-4.5 1.5-8.6 7.2-7.6 11.2 1 3.8 6.4 4.9 9.9 3.1 4.4-2.2 8-9.3 3.9-13-1.8-1.8-4-2-6.2-1.3z"/><path class="d" d="m359.8 371.2c-2.4 1.5-3.9 3.9-2.5 6.6 1.1 2.3 4.2 3.1 6.7 2.5 2.5-0.7 4.6-2.7 5-5.1 0.9-6.4-5.3-6.6-9.2-4z"/><path class="e" d="m375.2 360.3q-0.1 1.7-0.2 3.4c-0.3 5.3-0.9 11-1.9 17q0 0.1-0.1 0.1-0.4 2.7-0.9 5.3-0.2 0.8-0.4 1.6c-2.7 7.1-26.7 31-32.2 36.8q-3.3 3.4-6.3 6.5c-16.2 16.5-26.1 24.4-35.2 31.3q-0.5 0.4-1 0.8-1.4 1-2.8 2.1-0.5 0.4-1 0.8c-1.1 0.7-2.1 1.6-3.2 2.4q-0.8 0-1.7-0.1-1.8-0.1-3.6-0.2-2.9-0.2-5.9-0.6-0.7-0.1-1.4-0.3c-0.3 0-0.7-0.1-1-0.1q-0.2-0.1-0.4-0.1-0.1 0-0.1 0-1.2-0.3-2.2-0.6-0.1 0-0.1 0-1-0.4-1.9-0.8-0.9-0.4-1.5-0.8-0.5-0.3-0.9-0.6-0.3-0.2-0.5-0.5c-1.9-1.6-3.1-3.8-3.7-6.7q-0.3-1.5-0.5-2.9 0-0.1 0-0.1-0.1-0.6-0.1-1.3-0.2-2.2-0.3-4.8v-0.9c0-3.4 0.3-6.9 0.1-10.3v-0.1q0-3.2 0-7 0.1-1.6 0.1-3.1 0-1.6 0.1-3.2c0.3-7.6-1.1-14-3.9-21.1-2.7-6.8-1.8-12.3 0.8-17.5 2.8-3.8 5.1-8 7.8-11.8 4.7-6.2 8.7-12.6 13.5-18.8 3.9-5 7.5-10.1 11.3-15.1q0.1-0.2 0.2-0.4c1.9-2.3 3.7-4.6 5.7-6.9 0.4-0.5 0.8-1 1.3-1.4 13.4-15 28.7-31.8 50.6-31.9 1.3 0 2.7 0.1 3.9 0.6 3 1 4.8 3.9 6.3 6.6 4.8 8.9 9.3 19.7 11.5 29.6q0.2 0.7 0.3 1.4 0.4 1.6 0.7 3.3 0.1 0.8 0.2 1.6 0 0.4 0.1 0.8 0.1 1.1 0.2 2.4 0.2 2.5 0.3 5.3c0.1 3.2 0.1 6.6-0.1 10.3z"/><path class="a" d="m311.8 468.5q0.4 0.7 1.8 0.5c1.5-0.3 3.1-0.5 4.5-1.2 1.2-0.5 4-1.8 3.3-4.1-0.6-1.9-3.5-1.8-5-1.5-2.5 0.4-3.7 1.7-4.4 4-0.4 1-0.5 1.8-0.2 2.3z"/><path class="b" d="m321.4 463.8c-0.6-2-3.5-1.9-5-1.6-2.4 0.5-3.7 1.7-4.4 4-0.4 1-0.5 1.8-0.2 2.3q0.1 0.3 0.5 0.4-0.2-0.7 0.2-2.1c0.7-2.3 1.7-3.5 3.9-4 1.4-0.3 3.9-0.4 4.5 1.6 0.2 0.7 0 1.4-0.3 1.9 0.7-0.7 1.1-1.5 0.8-2.6z"/><path class="a" d="m296.4 470q0.6 0 1.4-0.1c1.7-0.5 5.2-2.9 5.6-5.2 0.2-0.6-0.4-1.2-0.8-1.4-1.9-1.1-6.3-1.3-8.2-0.6-2.2 0.9-1.1 4-0.4 5.4 0.6 1.2 1.4 1.8 2.4 1.9z"/><path class="b" d="m295.1 468.8c-0.8-1.4-1.8-4.6 0.3-5.4 1.8-0.7 5.6-0.5 7.7 0.3q-0.3-0.3-0.6-0.4c-1.8-1.1-6.2-1.3-8.2-0.6-2.1 0.9-1 4-0.3 5.4 0.5 1 1.1 1.5 1.9 1.8q-0.4-0.4-0.8-1.1z"/><path class="a" d="m279.1 463.3c-1.2 0.4-2.1 1-2.3 2-0.4 2.3 3.3 4.4 5.3 4.1 2.1-0.3 6.9-4.4 4-6.3-1.8-1.2-5.1-0.4-7 0.2z"/><path class="b" d="m278.5 465.8c0.1-1 1-1.6 2.2-1.9 1.4-0.5 3.6-1 5.4-0.8-1.8-1.2-5.1-0.4-7 0.2-1.2 0.4-2.1 1-2.3 2-0.3 1.9 2.3 3.7 4.3 4.1-1.6-0.8-2.9-2.1-2.6-3.6z"/><path class="f" d="m375.2 358.9c-2.2 3.2-4.9 6.3-8 9.4q-0.8 0.8-1.6 1.6-2.4 2.3-5.1 4.6-1.8 1.5-3.7 3-1.9 1.5-3.9 2.9-1.3 1-2.6 1.9-1.2 0.9-2.6 1.8-1.3 0.9-2.7 1.8-5.7 3.7-12 7.2-2.1 1.1-4.2 2.3c-6.2 3.3-12.7 6.4-19.4 9.3q-1.8 0.8-3.7 1.6 0 0.1-0.2 0.1-2.2 0.9-4.5 1.8-1.6 0.7-3.2 1.3-4.8 1.9-9.6 3.5-1.7 0.6-3.4 1.2-3.5 1.2-7 2.2-1.8 0.6-3.5 1c-4.7 1.4-9.2 2.5-13.6 3.5q-1.4 0.3-2.8 0.6-0.8 0.2-1.4 0.3-1.4 0.3-2.8 0.5-1.3 0.3-2.6 0.5-1.6 0.2-3.1 0.5-1 0.1-1.9 0.2-1 0.2-2.1 0.3c-0.6 0-1.3 0.1-1.9 0.2q-1.4 0.1-2.8 0.2-1.5 0.1-3 0.2-0.6 0-1.2 0-0.6 0.1-1.2 0.1h-1q-0.9 0-1.8-0.1-0.8 0-1.7 0-0.8-0.1-1.5-0.1-0.5 0-0.9-0.1-1.9-0.1-3.8-0.4-2-0.2-4-0.5-2-0.3-4.1-0.6-1-0.2-2-0.4-2.7-0.5-5.6-1.2-2.4-0.5-4.8-1.1-2.4-0.6-4.9-1.3-1.3-0.4-2.6-0.8-1.6-0.4-3.3-0.9-1.6-0.5-3.3-1.1-1.7-0.5-3.3-1.1-1.8-0.6-3.5-1.2-2.2-0.7-4.3-1.5-2.6-1-5.2-2-0.5-0.2-0.9-0.4-1.8-0.7-3.5-1.4-1.8-0.7-3.5-1.4-1.8-0.8-3.5-1.5-5.2-2.3-10.3-4.8-3.3-1.6-6.5-3.3-0.1 0-0.3-0.1-5-2.6-9.8-5.4-1.6-0.9-3.1-1.8-1.6-0.9-3.1-1.9-1.6-1-3.1-1.9-1.4-1-2.9-2-2.7-1.8-5.3-3.6-1.2-0.9-2.4-1.8-3.1-2.2-5.9-4.5-2.2-1.8-4.2-3.6-2-1.8-3.8-3.7-0.5-0.5-1-1-2-2.1-3.8-4.2-1.8-2.1-3.3-4.2c0 0-1-5.8-1.7-15.1-1.3-15.7-1.7-41 4.8-64.3 6.8-24.8 16.9-47.9 27.7-69q0 0 0 0c10.2-20.1 21-38.3 30.1-54.1q3.1-5.4 5.9-10.4 1.7-2.9 3.6-5.5 0.7-0.8 1.3-1.6 0.1-0.1 0.1-0.1 0.6-0.8 1.3-1.5 0.7-0.8 1.5-1.5 0.1-0.2 0.2-0.3 0.3-0.4 0.8-0.8 0.3-0.3 0.6-0.6 0.1-0.1 0.2-0.1 0.8-0.8 1.7-1.5 0.8-0.8 1.7-1.5 0.8-0.6 1.7-1.3 0.1 0 0.2-0.1 0.8-0.6 1.8-1.2 0.1-0.1 0.1-0.1 1-0.7 2.1-1.3 0.7-0.4 1.3-0.8 0.3-0.2 0.5-0.3c13.5-7.6 31.7-11.7 54.3-12.4 37.6-1.2 62.4 8.9 75.2 28.9q0.8 1.3 1.7 2.6 3 5.2 6.1 10.6c9.5 16.7 19.6 35.1 29 54.7q0 0.1 0.1 0.2c10.3 21.8 19.8 45 26.7 69 9.5 33 2.5 80.7 2.5 80.7z"/><path class="g" d="m238.2 399.3c-37.6 0.5-106.6-25.6-147.8-56.8 0.7 9.3 1.7 15.1 1.7 15.1 23.8 33.5 103.1 67.4 141.8 66.9 40.1-0.6 117.7-31.7 141.3-65.6-0.1 0 0.4-3.1 0.9-8.2-41.1 27.4-101.9 48.1-137.9 48.6z"/><path class="j" d="m345.9 209.2c-33.8-22.1-83.8-24.7-112.3-24.7-28.5 0-77.1 2.3-110.7 24.7 10.2-20.1 21-38.3 30.1-54.1q3.1-5.4 5.9-10.4 1.7-2.9 3.6-5.5 0.7-0.8 1.3-1.6 0.1-0.1 0.1-0.1 0.6-0.8 1.3-1.5 0.7-0.8 1.4-1.5 0.2-0.2 0.3-0.3 0.3-0.4 0.7-0.8 0.4-0.3 0.7-0.6 0.1-0.1 0.1-0.1 0.9-0.8 1.7-1.5 0.9-0.8 1.8-1.5 0.8-0.6 1.7-1.3 0.1 0 0.1-0.1 0.9-0.6 1.9-1.2 0-0.1 0.1-0.1 1-0.7 2.1-1.3 0.7-0.4 1.3-0.8 0.3-0.2 0.5-0.3c13.5-7.6 31.6-11.7 54.3-12.4 37.6-1.2 62.4 8.9 75.2 28.9q0.8 1.3 1.6 2.6 3.1 5.2 6.2 10.6c9.5 16.7 19.6 35.1 29 54.7q0 0.1 0.1 0.2z"/><path class="j" d="m316.9 154.3c-0.2 0.2-0.4 0.3-0.5 0.5-18.1 16.4-55.1 24.9-82.4 24.9-27.3 0-62.8-9.2-81-24.6q3.1-5.4 6-10.4 1.6-2.9 3.5-5.5 0.7-0.8 1.3-1.6 0.1-0.1 0.1-0.1 0.6-0.8 1.3-1.5 0.7-0.8 1.5-1.5 0.1-0.2 0.2-0.3 0.3-0.4 0.8-0.8 0.3-0.3 0.6-0.6 0.1-0.1 0.2-0.1 0.8-0.8 1.7-1.5 0.8-0.8 1.7-1.5 0.8-0.6 1.7-1.3 0.1 0 0.1-0.1 0.9-0.6 1.9-1.2 0.1-0.1 0.1-0.1 1-0.7 2.1-1.3 0.7-0.4 1.3-0.8 0.3-0.2 0.5-0.3c13.5-7.6 31.7-11.7 54.3-12.4 37.6-1.2 62.4 8.9 75.2 28.9q0.8 1.3 1.7 2.6 3 5.2 6.1 10.6z"/><path class="j" d="m250.9 263.3q5.5 11.3 11.7 22.2c2.5 4.4 5.6 9.1 10.4 10.5 3.6 1.1 7.5 0.2 11.1-0.8 8.3-2.2 16.9-4.5 23.3-10.2 7.4-6.5 10.7-16.3 13-25.9 5.5-23.8-7.4-58.5-38.8-51.8-11.1 2.4-13.9 13.3-19.3 21.8-8.1 12.7-19.3 17.6-11.4 34.2z"/><path class="j" d="m242.1 204.1c-4.7 0.9-9.6 2.1-13.3 5.1-3.8 3-6.2 8.3-4.5 12.8 2.1 5.8 10 7.7 15.7 5.4 5.8-2.3 9.7-7.5 13.2-12.7 6.8-10.2-5.6-11.8-13.3-10.4 0 0 2.2-0.2 2.2-0.2z"/><path class="c" d="m146.5 33.8c0.3 7.4 3.1 13.3 7.4 19.2q0.9 1.3 2.1 2.1c4.9 3.7 12.6 2.1 19.1-0.5 3.6-1.5 6.8-3.2 9.1-4.5 4.6-2.6 9.9-5.6 13.1-10 1.6-2.1 2.7-4.5 3.1-7.3 1.5-10.6-7.3-21.3-16-26-9-4.7-19.9-3.8-27.7 2.7-7.1 5.9-10.5 15.2-10.2 24.3z"/><path class="k" d="m150.7 42.2c0.6 4.7 2.5 9.2 5.3 12.9 4.9 3.7 12.6 2.1 19.1-0.6 3.6-1.4 6.8-3.1 9.1-4.4 4.6-2.6 9.9-5.6 13.1-10 1.5-10.5-2.3-20.3-13.3-25.5-8-3.7-17.4-2.9-24.3 2.8-7.2 6-10.1 15.7-9 24.8z"/><path class="f" d="m281.1 20.1c0 10.8 3.8 17.5 15.4 26.9 8.3 6.8 25.3-3.4 23.5-26.9-0.9-10.7-11.3-20.1-22-20.1-6.8 0-16.9 9.5-16.9 20.1z"/><path class="h" d="m281.1 20.1c0 10.8 3.8 17.5 15.4 26.9 8.3 6.8 25.3-3.4 23.5-26.9-0.9-10.7-11.3-20.1-22-20.1-6.8 0-16.9 9.5-16.9 20.1z"/><path class="f" d="m281.1 20.1c0 10.8 3.8 17.5 15.4 26.9 8.3 6.8 25.3-3.4 23.5-26.9-0.9-10.7-11.3-20.1-22-20.1-6.8 0-16.9 9.5-16.9 20.1z"/><path class="j" d="m288.3 21.8c0 6.7 2.4 11 9.7 16.9 5.3 4.3 16-2.1 14.9-16.9-0.6-6.8-7.1-12.8-13.9-12.8-4.3 0-10.7 6-10.7 12.8z"/><path class="l" d="m323.6 96.7c0.6 1.4 1.3 2.8 2.1 4q-0.7-0.6-1.5-1.2c-0.1 2.9-0.3 5.9-0.5 8.9q0 1.2-0.1 2.4 0 0.5 0 1c-0.1 0.8 0 1.6 0 2.5 0.3 2.5 0.8 5.2 0.5 7.9-0.4-0.8-1.3-1.4-2.2-1.5q-0.1 2.5-0.1 4.9-0.6-0.4-1.1-0.7c0.6 0.4-0.7 6.7-0.8 7.5-0.1 0.5-0.3 1-0.7 1.3q-0.1 2.1-0.1 4.2-0.8-1.1-1.6-2.3c-0.2-0.3-0.5-0.7-0.9-0.6-0.3 0.1-0.5 0.4-0.6 0.7q-1.3 3.1-2.2 6.3c-0.4-0.1-0.8-0.4-1-0.7q-0.8 1.2-1.6 2.4c-0.2 0.2-0.4 0.5-0.7 0.6-0.3 0-0.6-0.2-0.6-0.4-0.5 1-0.9 2.1-1.3 3.1-0.5 0.2-1.2 0-1.4-0.5q-0.5 1.4-1.5 2.5c-0.6-0.4-1-1-1.3-1.7q-0.6 0.9-1.2 1.8-0.7-0.2-1.4-0.4c-0.6 0-7.1 7.6-8 8.4-0.1 0.1-0.3 0.3-0.5 0.3-0.8 0 0-1.4-0.5-2q-1.1 1.3-2.3 2.6c-0.3-0.4-0.5-1-0.4-1.4q-1.8 1.6-3.3 3.6c-0.3-0.4-0.4-0.8-0.3-1.3-1.7 0.9-3.3 2-4.6 3.5q-0.1-0.6-0.3-1.2-1.8 1.8-3.4 3.5-0.1-0.7-0.2-1.4c-0.3 0.4-0.7 0.6-1.1 0.7q-0.1-0.7-0.2-1.4c-0.9 0.8-7.2 3.8-7.4 4.6 0.1-0.4-0.1-0.8-0.4-1.1-0.8 1.1-1.6 2.1-2.4 3.2q0.2-1.7 0.3-3.3c-1.2 0.8-2.2 2-2.8 3.3q0.3-1.2 0.6-2.4-1.9 1.6-3.9 3.2 0.3-1.6 0.7-3.2-1.7 2.2-3.3 4.3 0.4-0.9 0.7-1.9-2 1.2-4 2.4 0-0.9 0-1.9-1.4 1-2.7 1.9 0.1-0.5-0.1-0.9-0.9 0.9-2.1 1.5-0.1-0.6-0.2-1.2c-0.6 0.5-1.2 1-1.6 1.7 0.3-0.3 0.3-0.9 0.1-1.3 0 0-1.8 1.2-2 1.3-1 0.3-1.2-0.4-1.8-0.3-2.7 0.4-5.7 2.1-8 3.4q-0.1-1.4-0.2-2.8-1.2 1.1-2.1 2.5 0.1-1 0.2-1.9c-0.7 0.9-1.3 1.8-2.1 2.7-2.2-1.3-7.7-5.1-10.1-2.3q-1.5-1.8-3.1-3.6c0.8 1.3 1.3 2.8 1.5 4.3-1.1-0.8-2-1.8-2.6-3 0 0.3-0.4 0.4-0.7 0.3-0.2-0.2-0.5-0.4-0.7-0.4-0.3-0.1-0.5 0.2-0.4 0.4q-1.1-1-2.1-2-0.2 0.8-0.4 1.5-1-1-1.9-2-0.1 0.6-0.1 1.1c-0.5-0.2-0.9-0.7-1.1-1.2-0.1 0.2-0.2 0.5-0.3 0.7-1.2-0.1-4.2-1.1-4.8-2.4q0.7 1.4 1.7 2.7c-2-1.4-4.1-2.5-6.4-3.3 0.5 0.3 0.1 1-0.4 1.2-0.6 0.1-1.1-0.3-1.5-0.6q-4.5-2.9-8.6-6.3c0.3 0.6 0.5 1.3 0.4 1.9q-1.3-1-2.5-1.9-0.1 0.6-0.2 1.2-0.8-0.9-1.5-1.7c0.4 0.5 0.7 1.1 0.8 1.8-1-1-1.9-2-3.1-2.8-0.9-0.6-3.4-1.5-3.8-2.4 0.2 0.4 0.4 1 0.4 1.5q-3.5-2.3-6.7-5.2 0 0.6 0.3 1.2c-2.3-1.3-4.4-3-6.2-4.9q0 0.6 0 1.2c-1.2-0.6-2.2-1.4-3.1-2.4-0.1-0.2-0.3-0.4-0.6-0.4q-0.1 0.1-0.1 0.2c-2.7-2.1-5.1-4.4-7.4-6.9q-1-1.1-2-2.2-0.2 1.2-0.3 2.4-1.6-1.8-3.2-3.7 0.3 1 0.2 2.1c-1-1.2-1.4-2.8-1.9-4.3-0.5-1.6-1-2.8-1.8-4.2-0.2-0.3-1-1.7-0.8-2q-0.3 0.5-0.6 1-0.8-2.2-1.3-4.6-0.1 0.6-0.3 1.1c-0.4-2.2-0.8-4.4-0.8-6.7-0.7 0-1.5 0.3-1.9 0.9q0.3-2.2 0.6-4.4c0.1-1.2-0.5-1.8-1.7-1.7-0.2-1.6 0.2-3.1 0.5-4.6q-0.5 0.6-1.2 1.1c0.1-1 0.3-1.8 0.6-2.6q0.2-0.4 0.4-0.9 0.1-0.1 0.1-0.2c0.5-1.1 1.1-2.2 1.4-3.7 0.4-1.7-0.2-3.4 0.2-5.2-0.3 0.6-0.7 1.1-1.2 1.5 0.3-1.7 0.7-3.3 1.3-4.9-0.4 0.8-1 1.6-1.8 2.2 0.3-2.1 2.1-6.7 1.4-8.4-0.1 0-0.5 0.2-0.6 0.2 1.2-2.1 2.2-4.4 3.2-6.6-0.2 0.3-0.6 0.4-1 0.3 1.1-1.2 1.8-2.7 2.2-4.3q-1.7 1.3-3.3 2.6 1.2-2.5 1.8-5.2c0.9-1.4 1.6-2.9 1.9-4.5q-0.6 0.4-1.3 0.9c1.4-1.3 1.9-3.4 1.1-5.1q2.6-2.1 5.1-4.2c-0.4-0.1-1 0-1.3 0.3q0.7-1.1 1.4-2.2c0.1-0.3 0.3-0.6 0.2-0.8-0.1-0.2-0.3-0.3-0.5-0.3 1.4-1.7 3.1-2.7 4.8-3.9 0.7-0.5 1.4-1 2.1-1.6 0.8-0.8 4.3-6.3 4.3-6.3 0.3-0.1 0.6-0.1 0.9 0.1q-0.1-0.4-0.3-0.7c0.9 0.7 2.6 0 2.6-1.2 0-0.3-0.1-0.6 0-0.9 0.3-1 1.8-0.8 2.6-1.5 1.6-1.3-1.4-3.9-0.4-5.7 1.4 0.6 3.1 0.4 4.3-0.5-0.2-0.7-0.1-1.4 0.1-2.1q0.9 0.1 1.8 0.3c-0.5-1.1 1.4-2.2 2.2-1.3q-0.6-0.9-1.3-1.8 0.9 0.1 1.6 0.2 3.9-1.8 7.8-3.6-0.8-0.6-1.6-1.2c4.5-1.1 9.7-1.7 14-3.2 0.8-0.2 7.8-4.7 7.8-4.8-0.7-0.3-1.1-0.9-1.2-1.5 4-1.3 8.3-1.6 12.4-0.7-1.2-1.4-2.9-2.4-4.7-2.7 2.7-0.5 5.6-0.3 8.2 0.6 0.8 0.3 1.7 0.7 2.5 0.6 0.9-0.1 1.8-0.9 1.6-1.7 0.9-0.4 2-0.5 3-0.2 0-0.7-0.3-1.5-0.5-2.1 5.4 1.4 10.9 3.2 16.3 1.2-0.8 0.4-1.4 1-1.9 1.8q2.2 0.1 4.4 0.1-0.2 0.7-0.6 1.4c4 0.2 8-0.5 11.6-2-0.8 0.5-1.6 1-2 1.7-0.4 0.8-0.1 2 0.8 2.2 0.5 0.2 1.1 0 1.6 0.2 0.4 0.1 0.3 0.9 0 0.9q4.8 1.1 9.7 1.2c-1.3-0.1-3.2 0.5-2.8 1.7 0.6 2.7 19.1 5.8 21.5 6.1q-0.8 0.4-1.7 0.8c0.9 0.4 1.8 0.6 2.8 0.7-0.6 0.3-0.5 1.2 0 1.6 0.4 0.4 1.1 0.5 1.8 0.7q0.7 0.1 1.4 0.4c2.6 0.8 4.9 2.3 6.6 4.3q-0.8-0.1-1.5-0.2 2 0.7 4 1.3-1.4 0.6-2.8 0.9c2.3 0.4 4.7 1.3 6.6 2.6-0.8-0.4-3 0.5-3.7 0.8 0 0.1 14.6 10.9 15.9 11.8-0.6 0.3-1.2 0.4-1.9 0.3q0.4 0.9 0.8 1.7-0.8 0.7-1.6 1.5c0.8 1.2 2.2 2.1 3.7 2.5q-0.9 0.3-1.9 0.7 1.6 1 3.2 2c-0.5-0.1-1.1 0.3-1.1 0.8 0.4 0.8 1.4 1.2 2.2 1.5q0.5 0.2 0.9 0.5c1.1 0.7 1.4 2.7 0.1 2.8q1.7 1.3 3.3 2.7 0.3 0.2 0.6 0.5c-1.3 0-2.7-0.3-3.9-0.9 0.9 3.3 2.8 6.3 5.4 8.6q-0.6-0.4-1.2-0.7c0.5 0.8 0.9 1.8 1 2.8 0-0.2-1.3-0.3-1.5-0.4 1.3 3.4 2.3 6.9 3.5 10.3q-0.8 0.2-1.6 0.4 0.2 0.3 0.3 0.7 0.9 2.3 1.8 4.6-1.4-1-2.8-2z"/><path class="m" d="m324.1 122.2c-0.4-0.8-1.3-1.4-2.2-1.5q-0.1 2.5-0.1 4.9-0.6-0.4-1.1-0.7c0.6 0.4-0.7 6.7-0.8 7.5-0.1 0.5-0.3 1-0.7 1.3q-0.1 2.1-0.1 4.2-0.8-1.1-1.6-2.3c-0.2-0.3-0.5-0.7-0.9-0.6-0.3 0.1-0.5 0.4-0.6 0.7q-1.3 3.1-2.2 6.3c-0.4-0.1-0.8-0.4-1-0.7q-0.8 1.2-1.6 2.4c-0.2 0.2-0.4 0.5-0.7 0.6-0.3 0-0.6-0.2-0.6-0.4-0.5 1-0.9 2.1-1.3 3.1-0.5 0.2-1.2-0.1-1.4-0.5q-0.5 1.4-1.5 2.5c-0.6-0.4-1-1-1.3-1.7q-0.6 0.9-1.2 1.7-0.7-0.1-1.4-0.4c-0.6 0-7.1 7.7-8 8.5-0.1 0.1-0.3 0.3-0.5 0.3-0.8-0.1 0-1.5-0.5-2q-1.1 1.3-2.3 2.6c-0.3-0.4-0.5-1-0.4-1.5q-1.8 1.7-3.3 3.7c-0.3-0.4-0.4-0.9-0.3-1.3-1.7 0.8-3.3 2-4.6 3.5q-0.1-0.6-0.3-1.2-1.8 1.7-3.4 3.5-0.1-0.7-0.2-1.5c-0.3 0.4-0.7 0.7-1.1 0.8q-0.1-0.7-0.2-1.4c-0.9 0.8-7.2 3.8-7.4 4.6 0.1-0.4-0.1-0.9-0.4-1.1-0.8 1-1.6 2.1-2.4 3.2q0.2-1.7 0.3-3.3c-1.2 0.8-2.2 1.9-2.8 3.2q0.3-1.2 0.6-2.3-1.9 1.6-3.9 3.2 0.3-1.6 0.7-3.2-1.7 2.1-3.3 4.3 0.4-0.9 0.7-1.9-2 1.2-4 2.4 0-0.9 0-1.9-1.4 1-2.7 1.9 0.1-0.5-0.1-1-0.9 1-2.1 1.6-0.1-0.6-0.2-1.2c-0.6 0.4-1.2 1-1.6 1.7 0.3-0.4 0.3-0.9 0.1-1.3 0 0-1.8 1.2-2 1.3-1 0.3-1.2-0.4-1.8-0.3-2.7 0.4-5.7 2.1-8 3.4q-0.1-1.4-0.2-2.8-1.2 1.1-2.1 2.4 0.1-0.9 0.2-1.8c-0.7 0.9-1.3 1.8-2.1 2.6-2.2-1.3-7.7-5-10.1-2.3q-1.5-1.7-3.1-3.5c0.8 1.3 1.3 2.8 1.5 4.3-1.1-0.8-2-1.8-2.6-3 0 0.3-0.4 0.4-0.7 0.3-0.2-0.2-0.5-0.4-0.7-0.5-0.3 0-0.5 0.3-0.4 0.5q-1.1-1-2.1-2-0.2 0.8-0.4 1.5-1-1-1.9-2-0.1 0.6-0.1 1.1c-0.5-0.2-0.9-0.7-1.1-1.3-0.1 0.3-0.2 0.6-0.3 0.8-1.2-0.1-4.2-1.1-4.8-2.4q0.7 1.4 1.7 2.7c-2-1.4-4.1-2.5-6.4-3.3 0.5 0.3 0.1 1-0.4 1.1-0.6 0.1-1.1-0.2-1.5-0.5q-4.5-2.9-8.6-6.3c0.3 0.5 0.5 1.2 0.4 1.9q-1.3-1-2.5-1.9-0.1 0.6-0.2 1.2-0.8-0.9-1.5-1.7c0.4 0.5 0.7 1.1 0.8 1.8-1-1-1.9-2-3.1-2.8-0.9-0.6-3.4-1.6-3.8-2.4 0.2 0.4 0.4 1 0.4 1.5q-3.5-2.3-6.7-5.2 0 0.6 0.3 1.2c-2.3-1.3-4.4-3-6.2-4.9q0 0.6 0 1.2c-1.2-0.6-2.2-1.4-3.1-2.4-0.1-0.2-0.3-0.4-0.6-0.4q-0.1 0.1-0.1 0.2c-2.7-2.1-5.1-4.4-7.4-6.9q-1-1.1-2-2.2-0.2 1.2-0.3 2.4-1.6-1.8-3.2-3.7 0.3 1 0.2 2.1c-1-1.2-1.4-2.8-1.9-4.3-0.5-1.6-1-2.8-1.8-4.2-0.2-0.3-1-1.7-0.8-2q-0.3 0.5-0.6 1-0.8-2.3-1.3-4.6-0.1 0.5-0.3 1.1c-0.4-2.2-0.8-4.4-0.8-6.7-0.7 0-1.5 0.3-1.9 0.9q0.3-2.2 0.6-4.4c0.1-1.2-0.5-1.8-1.7-1.8-0.2-1.5 0.2-3 0.5-4.6q-0.5 0.7-1.2 1.2c0.1-1.4 0.5-2.4 1-3.5-0.2 0.5 1.3 3.2 1.5 3.8q0.7 2.4 1.8 4.7 0-0.7 0.4-1.3 1.2 3.1 2.4 6.1 0.1-0.6 0.2-1.2c-0.2 1.1 1 3.5 1.4 4.7 0.5 1.3 1.4 2.4 2.1 3.7 0.2-0.1 0.5 0.1 0.7 0.4q1.6 2.2 3.2 4.3c0.3-0.4 0.3-1 0-1.4q1.9 2.3 3.8 4.7 0-0.9 0-1.8 2.7 3 5.4 5.9c-0.2-0.3 0.4-0.8 0.8-0.6 0.4 0.1 0.6 0.5 1 0.7 0.4 0.2 1.1 0.1 1-0.4q1.6 1.7 3.2 3.4c-0.2-0.4 0.7-0.5 1.1-0.2 1.7 1.4 2.8 3.4 4.6 4.6q0.2-0.5 0.4-1.1 2.1 1.6 4.3 3.2c0.1-0.8 1.4-0.4 1.7 0.3 0.3 0.6 0.5 1.6 1.2 1.8q0.4-0.5 0.7-1.1 1.8 2 3.5 4c0.6-0.4 1.1-1.1 1.2-1.8q1.3 2 3 3.6c0.6-0.6 1-1.4 1.2-2.2 3.7 3.1 7.5 5.2 12.3 6.4q1.7 0.4 3.4 0.8 0-0.3 0-0.7 1 1 2.1 2 0.4-0.9 0.5-1.9 1.4 1.3 2.9 2.7c0.1-0.4 0.2-0.8 0.3-1.3 1.2 1.8 3.5 2.8 5.6 2.4q1.1 0.4 2.3 0.8-0.1-1.5-0.2-3.1 1.2 1.2 2.3 2.3 0.2-0.8 0.3-1.5 0.8 0.8 1.7 1.6c0-0.2 3.4 0.4 3.8 0.6 1.4 0.7 3.2 1.9 4.7 1.8 1.3 0 0.6-2 2.7-0.5 0.4-0.8 0.8-1.6 1.5-2.3 0.4 0.3 0.5 0.8 0.5 1.2q1.5-0.9 2.8-1.9c0.3 0.9 0.3 1.8 0.1 2.7 3.6-1.3 6.8-3.3 10.4-4.8 0.7-0.3 1.8-0.5 2.2 0.2 1.5-1 3.1-1.8 4.7-2.3 0.3 0.4 0.2 1 0 1.4 0.9-1.2 2.2-2.1 3.6-2.7q-0.1 1-0.1 2c4.9-1.9 9.7-4.3 14.2-7.1q-0.1 0.8-0.1 1.5c1-1.5 2.7-2.7 4.5-3.2-0.2 0.5 0 1.1 0.4 1.4 1.3-1.7 3.2-2.7 5.3-3 1.2-1.2 2.6-2.2 4.2-2.8q0.1 1.4 0.2 2.8c0-0.3 5.2-4.1 5.8-4.9 1.8-2.4 3.8-4.7 6-6.7q-0.2 0.7-0.4 1.4c0.2-0.4 1-0.1 0.7 0.3 2.1-1.6 3.9-3.7 5.2-5.9 0.4 0.5 0.6 1.3 0.5 2 0.7-2.4 1.8-4.7 3.4-6.6q0.1 1.9 0.1 3.9c0.4-1.7 1.2-3.4 2.1-4.8 0 0.3 0.3 0.6 0.6 0.8-0.2-0.1 6.4-10.4 4.4-11.7q0.6 0.3 1.1 0.7c-0.8-0.6 0.7-3.3 1.9-5.2 0.2 2.6 0.7 5.3 0.5 8z"/><path class="n" d="m268.1 111.2c14.9 23-13.6 43.5-35.1 44.6-22.1 1.1-49.2-22.9-35.2-44.6 7.6-11.7 20.9-34.1 35.2-34.1 14.3 0 27.5 22.4 35.1 34.1z"/><path class="o" d="m317.7 66.9q-0.4 0.3-1 0.4c-0.4 0-0.8-0.1-1.2-0.1-0.5 0-0.9 0.4-1.4 0.7q-1.1 0.9-2.2 1.7c-1.2 0-2.3 0.4-3.2 1.1-0.9-0.2-1.7-0.7-2.3-1.3 0 0.4 0 0.8-0.1 1.2-0.6 0.1-1.4 0.1-2-0.2 0.3 0.4-0.5 0.8-1 0.8-8.8 0.4-12.9-4.5-19.3-8.1-0.4-0.2-0.7-0.7-0.9-1.2-0.8-2-1.2-4.3-1-6.5q-0.5 0.6-1 1.1c-0.6-2.4-1.1-4.9-0.6-7.3 0.2-0.6 0.4-1.2 0.3-1.9 0-0.1-0.1-0.2-0.1-0.4-0.1-0.3-0.3-0.6-0.4-0.9-0.6-2.2 1.5-4.2 3.3-5.6q-1.8 0.5-3.7 1.1c3.4-1 6-5.3 9.4-7.2 2.5 0.8 4.8 2.3 6.5 4.3q-0.7-0.1-1.5-0.2 2 0.7 4 1.3-1.4 0.6-2.8 0.9c2.4 0.4 4.7 1.3 6.7 2.6-0.8-0.4-3.1 0.5-3.8 0.8 0 0.1 14.6 10.9 15.9 11.8-0.5 0.3-1.2 0.4-1.9 0.4q0.4 0.8 0.8 1.6-0.8 0.7-1.6 1.5c0.9 1.2 2.2 2.2 3.7 2.5q-0.9 0.4-1.9 0.7 1.6 1 3.2 2c-0.5-0.1-1.1 0.3-1.1 0.9 0.4 0.7 1.4 1.1 2.3 1.5z"/><path class="o" d="m262.6 38.3c1.4 1.1 2.6 1.2 3.7 2.7q0.3-0.3 0.5-0.7c0.2 0.1 0.2 0.3 0.4 0.5 0.1 0.1 0.4 0.3 0.6 0.2 0.1-0.1 0.2-0.3 0.2-0.4 0.3-0.3 0.9-0.2 1.3 0 0.3 0.3 0.6 0.6 1.1 0.6-0.1-0.1 0.1-0.3 0.4-0.3 0.2 0 0.4 0.1 0.6 0.3 2.9 1.6 6.4-2.2 6.8-4.1 0.4-1.9-0.2-3.7-1.1-5.4-0.4-0.8-0.9-1.6-1.7-2.1-1.6-1-4-0.8-6.2-0.5-1.7 0.3-4.1 1.1-5.5 2q0.3 0.2 0.7 0.2c-0.3 0.1-0.2 0.5-0.2 0.7 0 0.2-0.2 0.3-0.3 0.4q-0.8 0.6-1.5 1.3c-0.3 0.2-0.6 0.7-0.1 0.8q-0.6 0.6-0.8 1.3c0.8-0.1 0.5 2.1 1 2.5z"/><path class="o" d="m261.6 46.1c-0.5 1.2-2.6 1.1-3.9 1.8-1.6 1.1-1 3.1-0.2 4.6q1.1 2 2.1 4c1-0.8 3 0 2.6 1.1 1.8-0.1 3.5-0.3 5.2-0.8 0.2 1.2 2.3 1.3 3.6 0.7 4.5-1.8 5.8-7 2.7-9.9-3.1-3-9.7-2.9-13.1-0.1 0 0 1-1.4 1-1.4z"/><path class="o" d="m323.6 96.7c0.6 1.4 1.3 2.8 2.1 4q-0.7-0.6-1.5-1.2c-0.1 2.9-0.3 5.9-0.5 8.9q-0.2-0.2-0.5-0.3c-0.2 0.5-0.1 1.1 0.2 1.5-1.4 0.1-4.4 1.2-5-0.7 0.1 0.2 0.1 0.5 0 0.7q-0.9-0.3-1.6-0.9-0.2 0.6-0.5 1.2c-1-0.6-1.9-1.3-2.6-2.2q0 0.4 0 0.8c-0.8-0.3-1.4-0.6-2.1-1-1.8-1.2-3-2.9-4.2-5-0.9-1.7-1.3-3.3-2-5.1 0.2 0.1 0.5 0.2 0.8 0.4q-1.1-2.4-2.1-4.7c-0.1-0.3-0.3-0.7-0.2-1 0.2-0.3 0.7-0.5 0.9-0.2q-0.6-1.2-1.3-2.5c0.5 0.1 1 0.1 1.4 0q-0.8-0.9-1.6-1.8 0.7-0.2 1.3-0.6c-0.7-0.9-1-2.1-0.6-3.1q0.4-0.1 0.8-0.2-0.1-0.9-0.2-1.9 0.9 0.2 1.7 0.2-0.4-0.8-0.9-1.5c0.9-0.3 1.8-0.7 2.5-1.3-0.4-0.5-0.8-1-1.2-1.5 0.8 0.1 1.6 0 2.3-0.2-0.2-0.5-0.4-1.1-0.4-1.7 1.3-0.6 2.5-1.4 3.7-2 1.8-1 3.8-1.6 5.8-1.6q2 0 3.9 0.6 0.3 0.2 0.7 0.5c-1.4 0-2.8-0.3-3.9-0.9 0.9 3.3 2.7 6.3 5.3 8.6q-0.6-0.4-1.2-0.7c0.5 0.9 0.9 1.8 1.1 2.8-0.1-0.1-1.4-0.3-1.6-0.4 1.3 3.4 2.3 6.9 3.5 10.3q-0.8 0.2-1.6 0.4 0.2 0.4 0.3 0.7 0.9 2.3 1.8 4.6-1.4-1-2.8-2z"/><path class="o" d="m164.8 82.1c-0.7 1.1-1.3 2.3-2 3.4 0.3-0.3 0.9 0 1 0.5 0.1 0.5-0.2 1-0.5 1.5q-1.7 3.2-3.3 6.4 0.4-0.2 0.9-0.4c-1.1 2.6-2 4.8-3.4 7.1-1.8 3-3.6 5.2-6 6.6q-1.2 0.8-2.7 1.2c0.1-0.4 0.1-0.7 0.2-1.1-1 1.1-2.2 2-3.5 2.7q-0.2-0.9-0.5-1.8-0.9 0.8-2 1c-0.1-0.3 0-0.7 0.1-1.1-0.4 1.1-1.2 1.4-2 1.4q0.1-0.4 0.3-0.8 0.1-0.2 0.1-0.2c0.6-1.2 1.1-2.3 1.4-3.7 0.4-1.8-0.2-3.4 0.2-5.2-0.3 0.5-0.7 1.1-1.2 1.4 0.3-1.7 0.7-3.3 1.3-4.9-0.4 0.8-1 1.6-1.7 2.2 0.2-2.1 2-6.7 1.3-8.4 0 0-0.5 0.2-0.6 0.2 1.2-2.1 2.2-4.4 3.2-6.6-0.2 0.3-0.6 0.4-1 0.4 1.1-1.3 1.9-2.8 2.3-4.4q-1.7 1.3-3.4 2.6 1.2-2.5 1.8-5.2c0.9-1.4 1.6-2.9 1.9-4.5q-0.6 0.4-1.2 0.9c1.3-1.2 1.8-3.4 1.1-5.1q2.5-2.1 5.1-4.2c-0.5-0.1-1 0-1.4 0.3q0.7-1.1 1.4-2.2c0.2-0.2 0.3-0.6 0.2-0.8-0.1-0.2-0.3-0.3-0.5-0.2 1.5-1.7 3.2-2.8 4.9-4q0.5 0.4 0.9 0.8c1.3 1.2 2.6 2.4 4 3.6-0.2 0.8-0.5 1.7-0.9 2.4 0.9 0.4 1.8 0.6 2.8 0.6q-0.9 1.1-1.8 2.1c0.8 0.9 1.7 1.6 2.8 2.2q-0.8 1-1.5 2 1 0.3 2.1 0.1-0.3 1.3-0.6 2.7 0.5 0.2 0.9 0.4c0.3 1.6-0.3 3.3-1.3 4.4 0.4 0.5 0.9 0.9 1.4 1.1q-1.1 1.2-2.3 2.4c0.6 0.2 1.2 0.3 1.7 0.2z"/><path class="f" d="m204.7 77.3v0.1q-0.1 0.4-0.3 0.7-0.1 0.3-0.2 0.5-0.3 0.7-0.7 1.3-0.2 0.4-0.5 0.7 0 0.1 0 0-0.3 0.4-0.6 0.7-0.3 0.4-0.6 0.7-0.4 0.3-0.7 0.5-0.7 0.6-1.5 0.9-0.4 0.2-0.9 0.4c-0.2 0.1-0.5 0.2-0.7 0.2q-0.1 0.1-0.2 0.1-0.4 0.1-0.8 0.1-0.5 0.1-1 0.1c-5.3 0.4-9.9-3.6-10.2-9q-0.1-0.9 0.1-1.7 0-0.3 0-0.6 0.3-1.6 1.2-3.1 0.1-0.2 0.3-0.5 0.4-0.6 0.8-1 0.3-0.3 0.5-0.6 0.3-0.2 0.5-0.4 0.6-0.5 1.2-0.9l0.6-0.3 0.6-0.3c0.9 0.2 2.1 0.7 3.4 1.3 2.7 1.4 5.8 3.6 7.6 5.4 0.8 0.7 1.3 1.4 1.6 2q0 0.1 0 0.2c0.3 1 0.5 1.8 0.5 2.5z"/><path class="p" d="m202.9 74.3c0.2 4.1-2.9 7.7-7 7.9-4.1 0.3-7.7-2.9-8-7-0.2-4.1 2.9-7.7 7-7.9h0.1c2.7 1.3 5.7 3.5 7.6 5.3q0.1 0.3 0.1 0.6 0.2 0.5 0.2 1.1z"/><path class="f" d="m193.2 73.8c-1.1 0-2.1-0.9-2.1-2.1 0-1.1 1-2.1 2.1-2.1 1.2 0 2.1 1 2.1 2.1 0 1.2-0.9 2.1-2.1 2.1z"/><path class="f" d="m284.3 75.4c-0.3 5.3-4.9 9.3-10.2 9-0.6-0.1-1.1-0.2-1.7-0.3q-0.4-0.1-0.7-0.2-0.4-0.1-0.7-0.3-0.1 0-0.1 0-0.3-0.1-0.6-0.3c-1-0.5-2-1.2-2.7-2.1q-0.3-0.3-0.5-0.5-0.2-0.3-0.3-0.5-0.3-0.3-0.4-0.7 0 0-0.1 0-0.1-0.3-0.3-0.6c0-0.1 0-0.1 0-0.2q-0.2-0.3-0.3-0.6-0.2-0.4-0.2-0.8-0.1-0.4-0.2-0.7c0.1-0.6 0.2-1.2 0.4-1.8q0-0.1 0-0.2c0.3-0.6 1-1.4 1.9-2.3 1.9-1.7 4.8-3.7 7.3-5 1.3-0.7 2.6-1.2 3.5-1.4h0.1q0.2 0.1 0.4 0.2 0.3 0.1 0.5 0.3 0.2 0 0.3 0.1 0.4 0.3 0.8 0.6 0.3 0.2 0.5 0.4 1.3 1.1 2.1 2.6 0.2 0.2 0.3 0.5 0 0 0 0.1 0.2 0.3 0.3 0.5 0.3 0.9 0.5 1.9 0.1 0.3 0.1 0.5 0.1 0.9 0 1.8z"/><path class="p" d="m282.2 75.2c-0.3 4.2-3.8 7.3-8 7-4.1-0.2-7.2-3.8-7-7.9q0.1-0.6 0.2-1.2 0.1-0.4 0.2-0.8c1.9-1.7 4.7-3.7 7.3-5q0.1-0.1 0.3 0c4.1 0.3 7.3 3.8 7 7.9z"/><path class="f" d="m272.3 73.8c-1.2 0-2.1-0.9-2.1-2.1 0-1.1 0.9-2.1 2.1-2.1 1.2 0 2.1 1 2.1 2.1 0 1.2-0.9 2.1-2.1 2.1z"/><path class="q" d="m246.5 133.1c-1.9 3-6 5.9-13.3 5.9-7.4 0-11-2.6-13.3-5.9q0 0 0 0 0 0 0 0c1.4 0.4 2.8 0.7 4.3 0.8 1.6 0.2 3.3 0.1 4.9-0.2 0.9-0.1 1.7-0.3 2.4-0.5 0.6-0.2 1.2-0.4 1.8-0.7 0.6 0.2 1.1 0.4 1.7 0.6q1.2 0.3 2.4 0.5c1.6 0.3 3.2 0.4 4.8 0.3 0.8-0.1 1.6-0.2 2.4-0.3 0.7-0.2 1.3-0.3 1.9-0.5z"/><path class="r" d="m244.1 132.8c-1.5 1.9-4.9 3.7-10.9 3.7-6 0-9-1.6-10.9-3.6v-0.1q0 0 0 0 0 0 0 0c1.1 0.3 2.3 0.4 3.5 0.5 1.4 0.1 2.7 0.1 4.1-0.1q1-0.1 1.9-0.3 0.8-0.2 1.5-0.4 0.7 0.2 1.4 0.3 0.9 0.2 1.9 0.3c1.3 0.2 2.7 0.3 4 0.2q1-0.1 2-0.2c0.5-0.1 1-0.2 1.5-0.3z"/><path class="p" d="m246.5 132.2c-0.7 0.2-1.4 0.3-2.2 0.4-0.7 0-1.4 0.1-2.2 0.1-1.4-0.1-2.9-0.2-4.3-0.5l-1.1-0.3q-0.5-0.1-1-0.2-0.7-0.3-1.4-0.5v-6.3h-2.1v6.3c-0.4 0.2-0.9 0.4-1.4 0.6q-1 0.3-2.1 0.5-2.2 0.4-4.4 0.4c-0.4 0-0.8 0-1.1 0l-0.6-0.1h-0.5q-0.6-0.1-1.2-0.2l-1.1-0.2-0.5-0.1-0.6-0.1-1.1-0.3c-0.4-0.1-0.7-0.3-1.1-0.4l-1.1-0.3c0.6 0.3 1.3 0.7 2 1.1q0.5 0.2 1 0.4l0.5 0.2 0.6 0.2c1.5 0.5 3.1 0.8 4.7 1 1.6 0.2 3.3 0.1 4.9-0.2 0.8-0.1 1.6-0.3 2.4-0.5 0.6-0.2 1.2-0.4 1.8-0.7q0.8 0.3 1.7 0.6 1.1 0.3 2.3 0.5c1.6 0.3 3.3 0.4 4.9 0.3 0.8-0.1 1.6-0.2 2.4-0.3 0.8-0.2 1.5-0.4 2.3-0.7 1.4-0.5 2.7-1.2 3.9-2-1.4 0.5-2.8 1.1-4.3 1.3z"/><path class="s" d="m251.8 112.1c0 7.2-4.4 15-18.7 15-13.4 0-18.6-7.8-18.6-15 0-7.2 8.3-12 18.6-12 10.3 0 18.7 4.8 18.7 12z"/><path class="t" d="m248.9 113.2c0 6.4-7.1 11.7-15.8 11.7-8.7 0-15.8-5.3-15.8-11.7 0-4.2 7.2-7 16-7 8.7 0 15.6 2.9 15.6 7z"/></svg>