<svg version="1.2" xmlns="http://www.w3.org/2000/svg" viewBox="0 0 470 469" width="470" height="469"><style>.a{fill:#fff}.b{fill:#c6c6c6}.c{mix-blend-mode:multiply;fill:#ededed}.d{fill:#ededed}.e{fill:#f7f7eb}.f{mix-blend-mode:multiply;fill:#f7f7eb}.g{fill:#3c3c3b}.h{fill:#aa692b}.i{mix-blend-mode:multiply;fill:#9d9d9c}.j{fill:#575756}.k{fill:#ca9e67}.l{mix-blend-mode:multiply;fill:#ca9e67}.m{fill:#e8b47c}.n{fill:#b17f4a}.o{mix-blend-mode:multiply;fill:#dadada}.p{fill:#efa543}.q{fill:#a06013}.r{fill:none;stroke:#1d1d1b;stroke-width:1.1}.s{fill:#683539}.t{mix-blend-mode:multiply;fill:#683539}.u{fill:#f6f6f6}.v{fill:#b2b2b2}.w{fill:#1d1d1b}.x{mix-blend-mode:multiply;fill:#3c3c3b}</style><path class="a" d="m410.5 400.6c-0.2 2-3.4 10.6-2.3 12.1q-2.4-3.3-4.8-6.5c-2.8 9.8-4.5 22.3-17.8 26.4q0.6-5.9 1.1-11.7c-5 10.3-15.7 18.8-30.3 18.4 4.5 0 6.8-7.4 7.3-12.2 0.2-1.3 0.2-2.4 0.1-3.1-0.2-1.2-0.5-2.6-1-3.9-1.4-4.1-4.2-8.6-8-10.8-2.9 2.6-4.4 6.1-4.3 9.6-6.5-6.5-11.5-15.1-12.4-23.5-0.5-3.8-0.2-7.6-0.5-11.4-0.1-2.5-0.5-4.9-1.5-7.4q-0.6-1.7-1.6-3.4c-0.3 2.2-1.8 4.2-3.9 5.5-1.1-12.2-5.7-26.7-17.1-35.3-6.2-4.8-13.7-8.4-21.3-11.4-4.9-1.9-17.3-3.4-20.8-6.4q2.7 2.3 5 4.9c-15.5-5.2-31.9-8.5-48.4-9.7-17-1.2-0.2-10.6 6.8-12.5 17.2-4.7 41.7-2.8 59.6-0.7q0.8 0.1 1.5 0.2 0.5 0.1 1 0.1 0.4 0.1 0.9 0.2 1.9 0.3 3.9 0.6 0.7 0.1 1.5 0.3 0.5 0.1 1.1 0.2c1.6 0.3 3.2 0.6 4.8 1 5.3 1.1 10.6 2.3 16 3.3 5.3 1 10.6 1.9 16.1 2.2-5.7-0.3-11.5 0.3-16.8 1.8 13.7 0.6 27.8 4.1 39.6 10.2 9.4 4.9 21.5 8.7 27.9 16.6-3.6-1.5-7.5-2.5-11.4-3h-0.1q-0.2-0.1-0.5-0.1c3.9 2.2 7.4 4.8 10.4 7.8q0.9 1 1.8 2 0.4 0.5 0.8 1 0.4 0.5 0.8 1 1.4 1.7 2.5 3.5 0.4 0.6 0.7 1.2 0 0.1 0.1 0.1 0.3 0.7 0.7 1.4 0 0.1 0.1 0.3 1.7 3.3 2.6 6.9-2.8-1.4-5.5-2.7 1.7 0.8 3.3 2.3 0.9 0.9 1.9 2c3.1 3.5 5.7 8.4 7.5 12.7q0 0.1 0 0.2c0.1 0.2 0.2 0.4 0.3 0.7q0.2 0.4 0.3 0.9 0.3 0.8 0.6 1.6 0.1 0.2 0.1 0.4 0.2 0.4 0.3 0.8 0 0.2 0.1 0.5 0.1 0.3 0.2 0.6 0 0.1 0 0.2 0.1 0.2 0.2 0.4c1 4.5 1.2 9.1 0.8 13.5z"/><path class="b" d="m375 412.5c0 1.3-0.2 2.8-0.9 3.9-0.4-1.2-1-2.4-1.9-3.3 0.5 1.5-0.5 3-1.1 4.3-0.5 1-2.7 3.7-2.7 4.6 0-1.1-0.3-2.1-0.9-3 0.8 1.1-2.1 5.7-2.8 6.7q-0.5 0.7-1 1.4c0.2-1.3 0.2-2.4 0.1-3.1-0.2-1.2-0.5-2.6-1-3.9-1.4-4.1-4.2-8.5-8-10.8-2.9 2.6-4.4 6.1-4.3 9.6-6.5-6.5-11.5-15.1-12.4-23.5-0.5-3.8-0.2-7.6-0.5-11.4 0.6-5.3 0.6-10.6-1.1-15.7 3.2 3.3 5.4 7.6 6.2 12.1q0.4-2.2 0.8-4.4c1.1 2.2 2 4.5 2.5 6.9q0.4-1.5 0.8-3.1c0.8 5 1.5 10.1 2.2 15.2 0.9-2.7 2.3-5.2 4.3-7.2-1 4.6-0.8 8.7 2.1 12.6-0.6-1.8-0.6-3.8 0.2-5.6 1 2.3 2.4 4.4 4.1 6.2-0.2-2.9 0.6-5.8 2-8.2 0.4 2.9 1.3 5.8 2.6 8.5 0.6-2.7 2.6-5.1 5.2-6.1-0.9 0.3 1.3 5.3 1.7 5.8q0-1.3 0.6-2.5c2.3 4.3 3.4 9.1 3.2 14z"/><path class="b" d="m400 368q-1.1-0.4-2.2-0.7-2.1-0.5-4.3-0.7c0.5 0.7 0.8 1.5 0.9 2.4q-2-2.1-4.4-3.9c-0.4-0.3-4.3-2.5-4.3-2.9 0 2.6 1.3 5 3.4 6.5-7.4-1-14.2-5.9-17.4-12.6 2.2 0.5 4.3 2 5.4 4-2.2-3.8-3.7-8.3-5.3-12.3 1.4 0.6 2.4 2 3.5 3-0.4-3.6-1.3-7.2-2.9-10.5 2.4-0.8 5.7-0.1 8 1q-0.3-0.1-0.5-0.1c3.9 2.2 7.4 4.8 10.3 7.8q1 1 1.8 2 0.5 0.5 0.9 1 0.4 0.5 0.8 1 1.3 1.7 2.5 3.5 0.3 0.6 0.7 1.2 0 0.1 0 0.1 0.4 0.7 0.7 1.3 0.1 0.2 0.2 0.3 1.7 3.4 2.6 7-2.8-1.4-5.6-2.7 1.7 0.8 3.3 2.3 1 0.9 1.9 2z"/><path class="c" d="m410.5 400.6c-0.2 2-3.4 10.6-2.3 12.1q-2.4-3.3-4.8-6.6c-2.8 10-4.6 22.4-17.8 26.5q0.6-5.9 1.1-11.7c-5 10.3-15.8 18.9-30.5 18.4 6 0.2 8-12.2 7.6-15.3-0.2-1.2-0.5-2.6-1-3.9-1.4-4.2-4.2-8.6-8-10.8-2.9 2.6-4.4 6.1-4.3 9.6-6.5-6.5-11.5-15.1-12.4-23.5-0.7-6.4 0.4-12.6-1.9-18.8q-0.7-1.7-1.7-3.4c-0.3 2.2-1.8 4.2-3.9 5.5-1.1-12.2-5.7-26.7-17.1-35.3-6.2-4.8-13.7-8.4-21.3-11.4-4.9-1.9-17.4-3.4-20.8-6.4q2.7 2.3 5 4.9c-15.5-5.2-31.9-8.5-48.4-9.6-17-1.3-0.2-10.7 6.8-12.6 17.2-4.7 41.7-2.8 59.6-0.7q0.7 0.1 1.5 0.2 0.5 0.1 0.9 0.2 0.5 0 1 0.1 1.9 0.3 3.9 0.6 0.7 0.2 1.4 0.3 0.6 0.1 1.2 0.2 2.4 0.5 4.8 1c-4.9-0.1-9.6 0.3-13.8 1.3-5.1 1.3-17.4 8.4-5.8 10.2 11.2 1.7 22.1 5.2 32.3 10.3q-1.4-2.3-3-4.3c2.1 2.6 10.5 4.4 13.7 6.2 5 2.8 9.8 6.2 13.6 10.5 7.1 7.7 9 20 8.6 30.2 1.6-1 2.8-2.6 3.2-4.4 2.4 6.4 0.6 12.4 0.5 18.7q0 0.2 0 0.4c0 5.3 1.5 10.8 4 15.6q0.1 0.1 0.1 0.2 1 2 2.3 3.8 0 0.1 0.1 0.2c0.2-3 1.5-5.8 3.7-7.9 3.3 2.8 4.9 8.5 4.9 12.7 0.1 2.6-2.4 12.8-6.5 12.4 10 1.1 18.1-5.6 22.5-13.9q-0.9 4.8-1.8 9.7c9.5-2.9 11.8-13.1 14.5-21.2q1.4 2.8 2.7 5.6c-0.6-1.2 2.4-8.3 2.7-10 0.6-3.7 0.9-7.5 0.6-11.3-0.1-1.2-0.3-2.8-0.7-4.5q0.2 0.5 0.4 0.9 0.1 0.4 0.3 0.9 0.3 0.8 0.6 1.6 0 0.2 0.1 0.4 0.1 0.4 0.2 0.8 0.1 0.3 0.2 0.5 0.1 0.3 0.1 0.6 0.1 0.1 0.1 0.2 0.1 0.3 0.1 0.5c1.1 4.4 1.2 9 0.9 13.5z"/><path class="a" d="m203.7 351.6c-1.2-0.8-2.2-1.8-3-3-0.9 3-1.4 6.1-2.1 9.2-0.7 2.7-3.6 7.7-3.3 10.4q-0.2-2.3-0.8-4.5c-0.7 2.5-1.7 4.9-3 7.2 0.6-1.1 0.7-2.4 0.4-3.6-3.7 5.4-7.1 11.2-10 17-5.6 11.3 3.3 22.2 7.5 33.3 1 2.5 1.7 5 1.9 7.6-0.5-1.3-1.4-2.4-2.6-3l-1.2 2.2c0.1-1.3-0.5-2.5-1.4-3.3-3.7 6.2-9.8 11.9-7 19.8 1.9 5.3 6 12.2 3.5 17.9-3.7 8.4-15.6 6.9-22.9 6.8q-11.4-0.1-22.8-0.8c-5-0.2-20.4 2.2-20.8-5.7-0.5 0.1-2.8 0.5-3 1q0-0.2 0.1-0.4 0-0.2 0.1-0.4 0 0 0-0.1 0.1-0.2 0.2-0.3 0.1-0.3 0.2-0.5 0.2-0.6 0.6-1.2 0.1-0.1 0.2-0.3 0.7-1.1 1.7-1.9-1.5 0.7-2.9 1.4c3.2-6.3 9.4-8.1 15.7-10 2.6-0.8 5.8-3.2 7.9-4.9 8.3-5.6 17.6-13.4 23.5-21.4q-2.4 0.6-4.8 1.1c1.5-3.4 3.9-2.2 2.9-6.5-0.3-1.3-1.5-2.7-2.8-3.9q-0.4-0.4-0.8-0.7-0.2-0.2-0.4-0.4c-0.8-0.7-1.6-1.3-2.2-1.8-1.3-1.1-14.8-10.6-14.8-11.6-0.5 0.9-0.6 2.2 0.3 3-2.7-2.1-4.6-4.9-6.5-7.7-0.3 0.3-0.6 0.5-0.9 0.7q-0.3 0.2-0.6 0.5c-0.3 0.3-0.6 0.6-0.8 1.2-1.7-1.2-2.8-3.2-3.2-5.3-0.4 1.7-0.8 3.5-1.1 5.3 0.9-4.3-0.2-7.9-1.3-11.5-0.6-2.2-1.3-4.4-1.6-6.8q-0.9 1.2-1.7 2.3c-1.2-6.4-0.8-13 1.3-19.2-1 0.7-1.8 1.6-2.2 2.7 1.4-9.5 6.7-18.3 14.3-24.1q-2.3 0.6-4.6 1.3c8.1-9.4 16.1-17.9 21.4-29.1 2.4-5.2 4.6-10.5 6.3-16 0.8-2.5 5-13.6 3.3-15.8 6.5 8.7 17.6 15.8 25.3 23.8 8.2 8.4 18.2 18.4 18.9 30.9q0 0.2 0 0.3c0 1.1-0.2 3-0.5 5.2-0.6 5.3-1.5 12.4 0.1 13.6z"/><path class="d" d="m156 411.1q-0.5-0.5-1.1-1-0.2-0.2-0.4-0.4c-0.8-0.7-1.6-1.3-2.2-1.8-1.3-1.1-14.8-10.5-14.8-11.6-0.5 0.9-0.6 2.3 0.3 3-2.7-2.1-4.6-4.9-6.5-7.7-0.3 0.3-0.6 0.5-0.9 0.7q-0.3 0.2-0.6 0.5c-0.3 0.3-0.6 0.6-0.8 1.2-1.7-1.2-2.8-3.2-3.2-5.3q-0.6 2.7-1.1 5.4 0-0.1 0-0.1c0.9-4.3-0.2-7.9-1.3-11.5q1.3 1.6 2.6 3.2c0.5 0.6 0.8 1.3 1.5 1.3 0.4 0 0.6-0.6 1-0.5 0.9 0.2 2.5 3.4 3.1 4.2 1 1.3 2.2 2.5 3.5 3.5-0.9-0.7-0.8-2.2-0.4-3 0 1 13.6 10.4 14.9 11.5 1.9 1.7 5.5 4.2 6.2 6.8q0.2 1 0.2 1.6z"/><path class="d" d="m203.7 351.6c-1.2-0.8-2.2-1.8-3-3-0.9 3-1.4 6.1-2.1 9.2-0.7 2.7-3.6 7.8-3.3 10.4q-0.2-2.3-0.8-4.5c-0.6 2.5-1.7 5-3 7.2 0.6-1.1 0.7-2.4 0.4-3.6-3.7 5.4-7.1 11.2-10 17-5.6 11.3 3.3 22.2 7.5 33.3 1 2.5 1.7 5 1.9 7.6-0.5-1.3-1.4-2.4-2.6-3q-0.6 1.1-1.2 2.2c0.1-1.3-0.5-2.5-1.4-3.3-3.7 6.2-9.8 12-7 19.8 1.9 5.3 6 12.3 3.5 17.9-3.7 8.4-15.6 6.9-22.9 6.8q-11.4-0.1-22.8-0.7c-5-0.3-20.4 2.1-20.9-5.8-0.4 0.1-2.7 0.6-2.9 1q0-0.2 0.1-0.4 0-0.2 0.1-0.4 0 0 0-0.1 0.1-0.1 0.2-0.3 0-0.2 0.1-0.4 0.3-0.7 0.7-1.2 0.1-0.2 0.2-0.4c3.8 4.2 15.5 2.5 19.7 2.8q11.4 0.6 22.8 0.7c7.3 0.1 19.2 1.6 22.9-6.8 2.5-5.6-1.6-12.6-3.5-17.8-2.8-7.9 3.3-13.7 6.9-19.9 1 0.8 1.5 2.1 1.4 3.3q0.7-1.1 1.3-2.2c1.2 0.7 2.1 1.7 2.6 3-0.3-2.6-1-5.1-1.9-7.6-4.2-11.1-13.2-22-7.6-33.3 6.7-13.3 9.9-20.5 4.9-35-0.4 0.4-0.9 0.7-1.5 0.8-1.6-2.1-2.9-4.5-3.8-7q0.3 3-0.2 5.9c0.2-1.3-5-7.3-5.8-8.8-1.5-3.2-2.8-6.7-2.7-10.3 0-6.6 1.9-12.8 7.7-16.7 1.4-1 3-1.7 4.6-2.2 1.7 0.1 3.4 0.5 4.9 1.3 9.2 4.5 16.3 15.2 16.9 25.4q0 0.2 0 0.3-0.2 2.6-0.5 5 0 0.1 0 0.2c-0.4 2.9-2.6 11.6 0 13.6z"/><path class="e" d="m157.3 454.2c0.3 0.2 0.5 0.3 0.5 0.3q-0.4 0.2-0.8 0.1c2.4 0.4 1.8 3 0.4 4.1-0.8 0.7-1.9 1.1-2.7 1.8-2.2 2-2.1 5.5-1.9 8.5-1.9-2-3.9-4.1-5-6.6-1.1-2.6-1.2-5.8 0.5-7.9 1.2-1.6 3.2-2.2 5.1-2.1 0.9 0.1 1.8 0.3 2.6 0.8 0.1 0 0.8 0.6 1.3 1z"/><path class="f" d="m147.1 459.4c0.7 2.7 2.3 5 3.9 7.3 0.2-3 0.7-6.5 3.3-8.1 0.9-0.5 1.9-0.8 2.9-1.3 0.6-0.3 1.1-0.8 1.4-1.4 0.2 0.9-0.3 2.1-1.2 2.8-0.8 0.6-1.8 1.1-2.6 1.7-2.3 2-2.2 5.6-2 8.6-1.9-2-3.9-4.1-5-6.6-0.5-1.1-0.7-2.3-0.8-3.5q0.1 0.2 0.1 0.5z"/><path class="e" d="m140.9 458.7c-0.9 0.6-1.9 1.1-2.7 1.8-2.3 1.9-2.2 5.5-1.9 8.5-1.9-2-3.9-4.1-5-6.6-1.1-2.6-1.2-5.8 0.5-8 1.1-1.1 1.6-1.4 3.1-1.7q-0.3 0.5-0.4 1.1c1.1-0.7 1.9-1.6 3.2-1.3 0.3 0.1 3.1 1.3 3 1.5q-0.2 0.2-0.3 0.4c2.2 1 2.4 2.8 0.5 4.3z"/><path class="f" d="m135.1 466.5c-0.3-3-0.4-6.5 1.9-8.5 0.8-0.7 1.8-1.1 2.7-1.8q1-0.7 1.2-1.6c1.7 1.1 1.7 2.7-0.1 4.1-0.8 0.6-1.8 1.1-2.6 1.8-2.3 1.9-2.2 5.5-1.9 8.5-2-2-3.9-4.1-5-6.6q-0.2-0.5-0.4-0.9c1.1 1.8 2.7 3.4 4.2 5z"/><path class="e" d="m117.3 454.4c1-1.3 2.3-1.6 3.9-1.8 0.4 0.1 0.9 0.1 1.3-0.1q-0.4 0.5-0.7 1.1c1.2-0.3 2.6-0.7 3.7-0.1 1 0.5 1.9 1.4 2.2 2.5 0.2 1-0.5 2.1-1.4 2.7-0.8 0.7-1.8 1.1-2.6 1.8-2.3 2-2.2 5.5-1.9 8.5-2-2-4-4.1-5.1-6.6-1.1-2.6-1.2-5.8 0.6-7.9z"/><path class="f" d="m120.7 466.9c-0.3-3-0.4-6.6 1.9-8.6 0.8-0.7 1.8-1.1 2.6-1.7 0.8-0.6 1.4-1.4 1.4-2.3 0.5 0.5 0.9 1.1 1 1.7 0.3 1-0.4 2.1-1.3 2.7-0.8 0.7-1.8 1.1-2.6 1.8-2.3 2-2.2 5.5-2 8.5-1.9-2-3.9-4-5-6.6q-0.1-0.2-0.1-0.4c1.1 1.8 2.6 3.4 4.1 4.9z"/><path class="g" d="m328.2 457.4c0 1.1-0.1 2.1-0.6 2.9q-0.1 0.2-0.3 0.4c-1.5 2.3-4.9 3.1-7.7 3.5q-0.5 0.1-1.1 0.2c-3.5 0.6-7.1 0.4-10.6 0.4q-1 0-2.1 0-0.3 0-0.6 0.1-2.8 0.1-5.7 0.2-1.9 0.1-3.8 0.2-1.3 0-2.6 0.1-5.3 0.2-10.6 0.2-1.4 0-2.7 0-0.3 0-0.7 0-0.3 0-0.7-0.1c-0.3 0-0.6 0-1 0q-0.7 0-1.4-0.1-0.1 0-0.2 0-1.2 0-2.4-0.1c-0.3-0.1-0.7-0.1-1-0.1q-0.1-0.1-0.2-0.1c-2.8-0.3-5.7-0.8-8.2-1.6-3.5-1.2-5.9-2.8-6.1-6.6-0.5-6.3 3.1-10.4 5.1-16 3.1-8.2-4.9-14.8-9.2-20.3q-0.5-0.6-0.8-1.3 0-0.1 0-0.1 0-0.1-0.1-0.1-0.4-1.3-0.4-2.5 0-0.3 0-0.6 0.1-0.8 0.3-1.6c0.5-1.9 1.4-3.7 2.5-5.5q0 0 0 0c2.3-3.8 5.3-7.4 6.3-11.8q0-0.3 0.1-0.5c0.4-1.8 0.7-3.6 0.5-5.5q0-0.4-0.1-0.8-0.3-2.9-1.8-6-0.4-0.8-0.8-1.6c-3.7-6.6-9-11.8-12.8-18.3-1.2-2.1-2.3-4.3-3.2-6.6-2.1-5.4-3.2-11.1-3-16.9 0.2-7.5-1.6-14.8 2.1-21.8 1.4-2.7 3.2-5.1 5.1-7.5 2.9-3.6 6.3-6.8 9.4-10.1 7.7-7.9 18.8-15 25.3-23.7-1 1.4 0.2 4.1 0.4 5.6 0.4 2.8 0.5 5.6 1.1 8.3 1.5 6.4 5.4 11.1 9.7 15.6 2.9 3 6 5.9 8.8 9 2.4 2.9 4.4 6 6.6 9q1.1 1.6 2.5 3.3-1 0.1-2-0.1 0.8 1 1.6 2.1c3.2 4.7 5.2 10 7 15.4 0.6 1.7 1.1 3.5 1.7 5.3 1.3 4.2 2.4 8.7 2.4 12.7 0.5 3.8 0.2 7.2-0.9 10.4q-0.9 2.9-2.8 5.6-0.7 0.9-1.3 1.7c-3.2 4.2-6.6 8.1-10.7 11.6q-2 1.7-4.1 3.3-2.9 2.5-5.9 4.9-0.7 0.6-1.5 1.2-0.4 0.3-0.7 0.6-0.4 0.3-0.8 0.6c-1.4 1.2-2.8 2.3-4 3.5q-0.6 0.6-1.2 1.3-0.6 0.6-1.1 1.3-0.6 0.7-1 1.3c-2.7 3.7-2.9 6.5 0.5 11.3-0.8 0-1.6-0.2-2.2-0.6 1.3 0.7 2.6 3.7 3.7 4.9 1.4 1.5 3 2.8 4.5 4.1 3.1 2.6 6.2 5.1 9.6 7.3 2.9 2 5.6 5.2 9.4 5.5 2.2 0.2 4.3-0.6 6.4-0.5 2.5 0.2 4.7 1.7 6.3 3.6 0.7 0.8 1.3 1.8 1.7 2.8q0.9 1.8 1.5 3.8 0.3 1 0.5 2.1 0.2 0.9 0.2 1.7z"/><path class="h" d="m328.2 457.4c0 1.1-0.1 2.1-0.6 2.9q-0.1 0.2-0.3 0.4c-1.5 2.3-4.9 3.1-7.7 3.5q-0.5 0.1-1.1 0.2c-3.5 0.6-7.1 0.4-10.6 0.4q-1 0-2.1 0-0.3 0-0.6 0.1-2.8 0.1-5.7 0.2-1.9 0.1-3.8 0.2-1.3 0-2.6 0.1-5.3 0.2-10.6 0.2-1.4 0-2.7 0-0.3 0-0.7 0-0.3 0-0.7-0.1c-0.3 0-0.6 0-1 0q-0.7 0-1.4-0.1-0.1 0-0.2 0-1.2 0-2.4-0.1c-0.3-0.1-0.7-0.1-1-0.1q-0.1-0.1-0.2-0.1c-2.8-0.3-5.7-0.8-8.2-1.6-3.5-1.2-5.9-2.8-6.1-6.6-0.5-6.3 3.1-10.4 5.1-16 3.1-8.2-4.9-14.8-9.2-20.3q-0.5-0.6-0.8-1.3 0-0.1 0-0.1 0-0.1-0.1-0.1-0.4-1.3-0.4-2.5 0-0.3 0-0.6c0.3-2.5 1.7-4.7 2.8-7.1q0 0 0 0c2.3-3.8 5.3-7.4 6.3-11.9q0-0.2 0.1-0.4c0.4-1.8 0.7-3.6 0.5-5.5q0-0.4-0.1-0.8-0.3-2.9-1.8-6-0.4-0.8-0.9-1.6c-3.6-6.6-8.9-11.8-12.7-18.3-1.2-2.1-2.3-4.3-3.2-6.6 0.9-3.1 2.1-6 3.6-8.7 5.7-10.1 20.9-23.5 32.9-15.2 18.3 12.5 27.7 40.3 22.8 61.4q-0.2 0.7-0.4 1.3-2.9 2.5-5.9 4.9-0.7 0.6-1.5 1.2-0.4 0.3-0.7 0.6-0.4 0.3-0.8 0.6c-1.4 1.2-2.8 2.3-4 3.5q-0.6 0.6-1.2 1.3-0.6 0.6-1.1 1.3-0.6 0.7-1 1.3c-2.7 3.7-2.9 6.5 0.5 11.3-0.8 0-1.6-0.2-2.2-0.6 1.3 0.7 2.6 3.7 3.7 4.9 1.4 1.5 3 2.8 4.5 4.1 3.1 2.6 6.2 5.1 9.6 7.3 2.9 2 5.6 5.2 9.4 5.5 2.2 0.2 4.3-0.6 6.4-0.5 2.5 0.2 4.7 1.7 6.3 3.6 0.7 0.8 1.3 1.8 1.7 2.8q0.9 1.8 1.5 3.8 0.3 1 0.5 2.1 0.2 0.9 0.2 1.7z"/><path class="i" d="m321.3 374.4q-0.9 2.9-2.9 5.6c-3.5 4.9-7.3 9.4-12 13.3q-4.9 4.1-9.9 8.2-0.8 0.6-1.5 1.2-0.4 0.3-0.8 0.6-0.4 0.3-0.7 0.6c-1.4 1.2-2.8 2.3-4 3.5q-0.6 0.6-1.2 1.3-0.6 0.6-1.1 1.3-0.6 0.7-1.1 1.4 0-0.1 0-0.1c0.1-0.6 0.4-1.1 0.6-1.7 2.7-6.4 6.8-9.5 12-13.9 4.1-3.5 8.3-7.1 12.3-10.8 1.5-1.3 2.7-2.9 4.1-4.4 0.1-0.2 0.4-0.4 0.6-0.4 0.2 0 0.3 0.2 0.3 0.4q2.5-3.2 5.3-6.1z"/><path class="i" d="m255.3 410.9c-1.2 2.6-2.1 5.3-2.4 8.2-0.5-1.5-0.5-3.1-0.1-4.7 1.7-6.2 7.3-10.9 8.7-17.3q0.1-0.3 0.2-0.5c0.4-1.7 0.6-3.6 0.5-5.5q0-0.4-0.1-0.8-0.3-2.8-1.8-6c-3.7-7.4-9.5-12.9-13.6-19.9-4.2-7.1-6.5-15.3-6.3-23.5 0.3-7.5-1.5-14.8 2.2-21.8 1.4-2.6 3.1-5.1 5.1-7.5 1.4-1.3 2.9-2.3 4.5-3 4.4-2.1 9.4-2.6 14.2-1.2 1 0.3 1.9 0.7 2.8 1.1q0.1 0.1 0.1 0.1 0.7 0.3 1.3 0.7c2.1 1.4 3.9 3.3 4.7 5.6 2.4 6.6-4.3 17.3-8 22.6-2.8 4-6.1 6.8-8 11.4-1.9 4.6-2.5 9.3-1.8 14.1q0.6-0.8 1.2-1.6c-0.2 5.4 1.5 10.2 3.5 15.1 1.3 3.1 4 7.3 3.9 10.8-0.4 8.9-7.2 15.9-10.8 23.6z"/><path class="i" d="m328.2 457.4c0 1.2-0.2 2.3-0.9 3.3-1.5 2.3-4.9 3.1-7.7 3.5q-0.5 0.1-1.1 0.2c-3.5 0.6-7.1 0.4-10.6 0.4q-1 0-2.1 0-0.3 0-0.6 0.1-2.8 0.1-5.7 0.2-1.9 0.1-3.8 0.2-1.3 0-2.5 0.1-5.4 0.1-10.7 0.2-1.4 0-2.7 0-0.3 0-0.7 0-0.3 0-0.7-0.1c-0.3 0-0.6 0-0.9 0q-0.8 0-1.5-0.1-0.1 0-0.2 0-1.2 0-2.4-0.1c-0.3-0.1-0.7-0.1-1-0.1q-0.1-0.1-0.2-0.1c-2.8-0.3-5.7-0.8-8.2-1.6-3.5-1.2-5.9-2.8-6.1-6.6-0.5-6.3 3.1-10.4 5.1-16 3.1-8.2-4.9-14.8-9.2-20.3q-0.5-0.6-0.8-1.3 0-0.1 0-0.1c-0.9-2.5 6.3-1.1 7.1-0.7 4.3 2.1 6.5 7.1 7 11.6 0.2 1.8 0 3.4-0.4 5-1 3.8-3.1 7.3-4.1 11.1-0.5 1.8-0.9 3.6-0.7 5.3 1 9 16.9 8.4 23.4 8.4q10.8-0.2 21.7-0.8c7.8-0.5 14.8-2.3 19.1-9.4q0.9 1.8 1.5 3.8 0.3 1 0.5 2.2 0.2 0.8 0.2 1.7z"/><path class="e" d="m285 454.2c-0.2 0.2-0.4 0.3-0.4 0.3q0.3 0.2 0.7 0.1c-2.3 0.4-1.8 3-0.4 4.1 0.9 0.7 1.9 1.1 2.7 1.8 2.3 2 2.2 5.5 1.9 8.5 2-2 3.9-4.1 5-6.6 1.2-2.6 1.2-5.8-0.5-7.9-1.2-1.6-3.2-2.2-5.1-2.1-0.9 0.1-1.7 0.3-2.5 0.8-0.2 0-0.9 0.6-1.4 1z"/><path class="f" d="m295.3 459.4c-0.7 2.7-2.3 5-3.9 7.3-0.2-3-0.7-6.5-3.3-8.1-0.9-0.5-2-0.8-2.9-1.3-0.6-0.3-1.1-0.8-1.4-1.4-0.3 0.9 0.3 2.1 1.1 2.8 0.9 0.6 1.9 1.1 2.7 1.7 2.3 2 2.2 5.6 1.9 8.6 1.9-2 3.9-4.1 5-6.6 0.5-1.1 0.8-2.3 0.8-3.5q0 0.2-0.1 0.5z"/><path class="e" d="m301.5 458.7c0.8 0.6 1.9 1.1 2.6 1.8 2.3 1.9 2.2 5.5 2 8.5 1.9-2 3.9-4.1 5-6.6 1.1-2.6 1.2-5.8-0.5-8-1.2-1.1-1.6-1.4-3.2-1.7q0.3 0.5 0.4 1.1c-1-0.7-1.8-1.6-3.1-1.3-0.3 0.1-3.2 1.3-3 1.5q0.1 0.2 0.2 0.4c-2.1 1-2.4 2.8-0.4 4.3z"/><path class="f" d="m307.2 466.5c0.3-3 0.4-6.5-1.9-8.5-0.8-0.7-1.8-1.1-2.6-1.8q-1-0.7-1.3-1.6c-1.6 1.1-1.7 2.7 0.1 4.1 0.9 0.6 1.9 1.1 2.7 1.8 2.3 1.9 2.2 5.5 1.9 8.5 1.9-2 3.9-4.1 5-6.6q0.2-0.5 0.3-0.9c-1.1 1.8-2.6 3.4-4.2 5z"/><path class="e" d="m325.1 454.4c-1.1-1.3-2.3-1.6-3.9-1.8-0.5 0.1-0.9 0.1-1.4-0.1q0.4 0.5 0.8 1.1c-1.3-0.3-2.6-0.7-3.8-0.1-0.9 0.5-1.9 1.4-2.1 2.5-0.2 1 0.5 2.1 1.3 2.7 0.9 0.7 1.9 1.1 2.7 1.8 2.3 2 2.2 5.5 1.9 8.5 1.9-2 3.9-4.1 5-6.6 1.1-2.6 1.2-5.8-0.5-7.9z"/><path class="f" d="m321.7 466.9c0.3-3 0.4-6.6-1.9-8.6-0.8-0.7-1.8-1.1-2.7-1.7-0.7-0.6-1.3-1.4-1.4-2.3-0.5 0.5-0.9 1.1-1 1.7-0.2 1 0.5 2.1 1.3 2.7 0.9 0.7 1.9 1.1 2.7 1.8 2.3 2 2.2 5.5 1.9 8.5 1.9-2 3.9-4 5-6.6q0.1-0.2 0.2-0.4c-1.1 1.8-2.6 3.4-4.1 4.9z"/><path class="e" d="m106.8 323.8c0 0-0.1 0-0.1 0-0.5 0.3-1.3 0.1-1.8-0.1-0.8-0.3-1.6-0.8-2.3-1.2q-0.4-0.3-0.8-0.6c-1.7-1.2-2.9-2.8-3.7-4.7-0.1-0.3-0.3-0.7-0.2-1 0-0.5 0.3-0.9 0.6-1.2 0.8-1 1.9-1.7 3-2.3 1.3-0.7 2.9-1.2 4.4-0.7 0.5 0.1 1 0.4 1.2 0.9 0.4 0.6 0.2 1.5 0 2.3q-0.2 0.9-0.2 1.8c-0.1 1.6 0 3.1 0.2 4.7 0 0.7 0.3 1.6-0.3 2.1z"/><path class="f" d="m107.2 315.2q-0.2 0.9-0.3 1.8c0 0-0.1 0.1-0.1 0.1-1 0.7-2.4 0.8-3.3 1.6-0.6 0.6-0.9 1.5-1 2.4q0 0.7 0.1 1.4-0.4-0.3-0.8-0.6c-1.7-1.2-2.9-2.8-3.7-4.7-0.1-0.3-0.2-0.7-0.2-1 0-0.4 0.3-0.9 0.6-1.2 0.8-1 1.9-1.7 3-2.3 1.3-0.7 3-1.1 4.4-0.7 0.5 0.1 1 0.4 1.3 0.9 0.3 0.7 0.1 1.5 0 2.3z"/><path class="e" d="m94.2 316.3q-0.1 0.4-0.2 0.8-0.1 0.2-0.2 0.4 0 0 0 0.1 0 0 0 0-0.2 0.7-0.3 1.3-0.1 0.4-0.1 0.7c-0.2 1.4-0.3 2.9-0.4 4.3 0 0.7 0.1 1.7-0.6 2.1q0 0-0.1 0.1c-0.6 0.2-1.3-0.2-1.8-0.4-0.8-0.5-1.5-1-2.2-1.6q-0.4-0.4-0.8-0.7-0.4-0.4-0.7-0.7c-1.2-1.4-2.1-3-2.5-4.8-0.1-0.2-0.2-0.6-0.1-0.9q0 0 0-0.1 0.1-0.4 0.4-0.7 0.2-0.3 0.4-0.5c1-0.9 2.2-1.5 3.4-2 1.5-0.5 3.3-0.8 4.7-0.1 0.5 0.2 1 0.6 1.2 1 0.2 0.6 0.1 1.1-0.1 1.7z"/><path class="f" d="m94.2 316.3q-0.1 0.4-0.2 0.8-0.1 0.2-0.2 0.4 0 0 0 0.1 0 0 0 0-0.2 0.7-0.3 1.3-0.1 0.4-0.1 0.7c-1.3-0.2-2.7-0.1-3.9 0.4-1.2 0.6-2.2 1.5-2.7 2.7-1.3-1.4-2.1-3-2.5-4.7-0.1-0.3-0.2-0.6-0.2-1q0.2-0.4 0.5-0.8 0.1-0.2 0.4-0.5c1-0.9 2.2-1.5 3.4-1.9 1.5-0.6 3.2-0.9 4.7-0.2 0.5 0.2 1 0.6 1.2 1.1 0.2 0.5 0.1 1-0.1 1.6z"/><path class="e" d="m79.9 315.7q0 0.5-0.3 1.1-0.1 0.3-0.2 0.5-0.3 0.9-0.5 1.8-0.1 0.3-0.1 0.7c-0.3 1.3-0.4 2.7-0.5 4.2 0 0.6 0.1 1.6-0.6 2q-0.1 0-0.2 0c-0.5 0.2-1.3-0.2-1.7-0.4q-1.3-0.7-2.3-1.7-0.4-0.3-0.8-0.7-0.6-0.6-1.1-1.2c-0.9-1.3-1.6-2.7-1.9-4.2-0.1-0.3-0.2-0.7-0.2-1q0 0 0.1-0.1c0.1-0.4 0.4-0.8 0.8-1.1 1-0.8 2.2-1.4 3.5-1.8 1.5-0.4 3.3-0.6 4.8 0.1 0.5 0.2 0.9 0.6 1.1 1.1q0.1 0.2 0.1 0.4 0 0.1 0 0.3z"/><path class="f" d="m79.9 315.7c-0.1 0.4-0.2 0.7-0.3 1.1q-0.1 0.3-0.2 0.5-0.3 0.9-0.5 1.8-0.1 0.3-0.1 0.7-0.6-0.1-1.2-0.1c-0.8 0.1-4.9 1-6 2.3-0.9-1.3-1.6-2.7-1.9-4.2-0.1-0.3-0.2-0.7-0.2-1q0 0 0.1-0.1c0.1-0.4 0.4-0.8 0.8-1.1 1-0.8 2.2-1.4 3.5-1.8 1.5-0.4 3.3-0.6 4.8 0.1 0.5 0.2 0.9 0.6 1.1 1.1q0.1 0.2 0.1 0.4 0 0.1 0 0.3z"/><path class="g" d="m175.6 128.6c-2.1 14.8-5.3 29.6-7.5 44.3-2.3 14.8-6.3 29.5-10.6 43.9-3.7 12.5-6.6 25.1-12.4 37.1-5.2 10.5-11.8 20.3-19.7 29.1-1.5 1.6-3.1 3.4-4.2 5.3-2.7 5-3.8 12-6.4 17.9-1.6 3.5-3.6 6.5-6.7 8.5-1.8 1.2-3.9 1.9-6 2.1-2.1 0.3-4.2 0.1-6.2-0.6-2.4 2.2-6.1 2.9-9 1.8-2.3-0.8-4.5-2.5-6.8-1.7-0.9 0.4-1.6 1.1-2.5 1.6q-0.9 0.6-1.8 0.9c-3.8 1.2-7.6-1.2-10.7-4.5-3.5-4-5.4-8.1-6.3-12.4-1.8-9.4 1.2-19.6 2.7-29.5q0.1-0.3 0.1-0.5c0.6-4.1 1.4-8.1 2.4-12.2 2.5-10.1 6.2-20.1 10.4-29.9 4-9.3 8.6-18.5 13.3-27.3q0.9-1.7 1.9-3.4 1.4-2.7 3-5.3c2.5-4.2 5.2-8.3 8.2-12.5 5.5-7.6 10.5-15.5 15.8-23.2q0.7-1.1 1.5-2.2 1.6-2.3 3.2-4.6c4.6-6.7 9.6-13.2 15.2-19.2 6.2-6.7 15.5-16.5 25.3-20 2.3-0.8 4.5-1.2 6.8-1.3 8.4-0.1 7.7 12.5 6.9 17.8z"/><path class="h" d="m155.8 223q-0.9 3.4-1.8 6.7-0.6 2-1.1 4c-5.4 18.2-14.4 34.6-27.5 49.3-1.5 1.7-3.1 3.4-4.2 5.3-2.7 5-3.9 12-6.4 17.9-1.6 3.5-3.6 6.6-6.7 8.6-1.8 1.1-3.9 1.8-6 2-2.1 0.3-4.2 0.1-6.2-0.6-2.4 2.2-6.1 2.9-9 1.8-2.3-0.8-4.5-2.5-6.8-1.7-0.9 0.4-1.6 1.1-2.5 1.6q-0.9 0.6-1.8 0.9c-3.8 1.2-7.6-1.2-10.7-4.5-3.3-3.7-5.7-8.5-6.5-11.5q-0.1-0.4-0.1-0.7-0.2-0.9-0.3-1.7-0.1-0.7-0.1-1.3c-0.7-9.5 2.4-20.3 3.4-26.7 5.8-0.2 11.6 0.4 17.4-0.1 6-0.6 11.8-2.6 17.1-5.4 11.2-5.8 21.6-14.6 31.6-22.2q8.2-6.3 16.3-12.9c1.9-1.6 7.9-5.3 11.9-8.8z"/><path class="j" d="m122 171.6c0.2 5.7-1.7 11.3-4.2 16.4-1.8 3.5-4 6.9-7.1 9.3-3.1 2.4-7.4 3.6-11.1 2.2-2.9-1.1-5-3.3-7-5.7 2.5-4.2 5.2-8.3 8.2-12.5 5.5-7.5 10.5-15.4 15.8-23.2 1 1 1.9 2.2 2.6 3.5 1.7 3.1 2.6 6.5 2.8 10z"/><path class="j" d="m100.6 216.5c0.3 5-2.1 10.1-6.2 13.2-4 3-9.5 3.9-14.4 2.6-2-0.6-3.8-1.5-5.6-2.5 4-9.3 8.6-18.5 13.3-27.3q0.9-1.7 1.9-3.4c2.7 1.8 5 4.7 6.7 7.3 2 2.9 4 6.5 4.3 10.1z"/><path class="j" d="m111.7 202.1c-4.4 3.3-7.4 10.2-6.1 14.5 0.8 2.9 3.2 6 6.6 5.9 4.4 0 6.6-5.5 8.3-8.9 1.1-2.4 2.1-5.1 1.7-7.7-0.3-2.7-2.3-5.3-4.9-5.6-2-0.2-3.9 0.5-5.6 1.8z"/><path class="i" d="m175.6 128.6c-2.1 14.8-5.3 29.6-7.5 44.3-2.3 14.8-6.3 29.5-10.6 43.9-3.7 12.5-6.6 25.1-12.4 37.1-5.2 10.5-11.8 20.3-19.7 29.1-1.5 1.6-3.1 3.4-4.2 5.3-2.7 5-3.8 12-6.4 17.9-1.6 3.5-3.6 6.5-6.7 8.5-1.8 1.2-3.9 1.9-6 2.1-2.1 0.3-4.2 0.1-6.2-0.6-2.4 2.2-6.1 2.9-9 1.8-2.3-0.8-4.5-2.5-6.8-1.7-0.9 0.4-1.6 1.1-2.5 1.6q-0.9 0.6-1.8 0.9c-3.8 1.2-7.6-1.2-10.7-4.5-3.5-4-5.4-8.1-6.3-12.4 0.3 0.2 0.5 0.3 0.7 0.5 3.5 2.2 9.8 2 13.8 1.8 9.6-0.5 19.7-3.9 27.1-9.9 41.3-33.8 18.7-93.9 17.7-138.4q1.6-2.3 3.2-4.6c4.7-6.7 9.6-13.2 15.2-19.2 6.2-6.7 15.5-16.5 25.3-20 2.3-0.8 4.5-1.2 6.8-1.3 8.4-0.1 7.7 12.5 6.9 17.8z"/><path class="e" d="m336.3 318.3c2.5-0.4 4.5-2.4 6-4.9 1.1-1.6 3.1-4.4 2.3-7-0.5-1.5-2.1-2.4-3.1-2.9-2.8-1.5-4 0.5-4.4 3.5-0.5 3.2-0.3 7.5-0.6 10.3q-0.1 0.5-0.2 1z"/><path class="f" d="m336.3 318.3c2.5-0.4 4.5-2.4 6-4.9 1.1-1.6 3.1-4.4 2.3-7-0.5-1.5-2.1-2.4-3.1-2.9-2.8-1.5-4 0.5-4.4 3.5q0.7 0.9 1.4 2c0.4 0.9 0.8 1.9 0.8 2.9 0 1.5-0.6 2.8-1.4 3.7-0.5 0.6-0.9 1.1-1.4 1.7q-0.1 0.5-0.2 1z"/><path class="e" d="m351.1 320.4q0.3-0.1 0.6-0.2c1.9-0.5 3.5-2 4.8-3.8 0.2-0.3 0.4-0.6 0.6-0.9q0.2-0.3 0.4-0.6c0.6-0.9 1.3-2.1 1.8-3.4 0.3-1 0.4-2 0.1-3-0.5-1.6-2.1-2.4-3.1-3-2.8-1.4-4 0.5-4.5 3.6-0.1 0.9-0.2 2-0.2 3-0.2 2.6-0.1 5.3-0.3 7.2q-0.1 0.6-0.2 1z"/><path class="f" d="m352.7 319q-0.5 0.7-1 1.2c1.9-0.5 3.5-2 4.8-3.8 0.2-0.3 0.4-0.6 0.6-0.9q0.2-0.3 0.4-0.6c0.7-1.1 1.3-2.2 1.8-3.4 0.3-1 0.4-2 0.1-3-0.5-1.6-2.1-2.4-3.1-3-2.9-1.4-4 0.5-4.5 3.6-0.1 0.9-0.2 2-0.2 3 0.9 0.9 1.7 2 1.9 3.4 0.2 1.2-0.2 2.5-0.8 3.5z"/><path class="e" d="m364.8 320.4q0.3-0.1 0.6-0.2c1.9-0.5 3.5-2 4.8-3.8 0.2-0.3 0.4-0.6 0.6-0.9q0.2-0.3 0.4-0.6c0.6-0.9 1.3-2.1 1.7-3.4 0.4-1 0.5-2 0.2-3-0.6-1.6-2.1-2.4-3.2-3-2.8-1.4-3.9 0.5-4.4 3.6-0.1 0.9-0.2 2-0.2 3-0.2 2.6-0.1 5.3-0.3 7.2q-0.1 0.6-0.2 1z"/><path class="f" d="m366.4 319q-0.5 0.7-1 1.2c1.9-0.5 3.5-2 4.8-3.8 0.2-0.3 0.4-0.6 0.6-0.9q0.2-0.3 0.4-0.6c0.6-1.1 1.3-2.2 1.7-3.4 0.4-1 0.5-2 0.2-3-0.6-1.6-2.1-2.4-3.2-3-2.8-1.4-3.9 0.5-4.4 3.6-0.1 0.9-0.2 2-0.2 3 0.9 0.9 1.7 2 1.9 3.4 0.2 1.2-0.2 2.5-0.8 3.5z"/><path class="a" d="m271.3 115.1v0.1c-0.1 2.5 0.4 5 0.6 7.5 0.6 10.1 2.4 20.1 4.7 30.1 1.2 5.2 2.5 10.4 3.9 15.5 3.5 13.4 8.8 26.6 16.8 38 4.6 6.5 8.6 12.3 11.7 19.8 0-1.3 0.8-2.7 2-3.2q1.2 5.3 3.5 10.1c-0.2-1.6 0.7-3 2.2-3.6 2.6 6.7 5.5 11.1 6.6 18.7 1.8 12.8 0.5 23.1-1.6 35.9q1.5-1.8 3.2-3.5c-1.1 5.2-0.9 10.7 0.5 15.8 0.3-1.4 1-2.8 2.1-3.8 0.1 3.2 1.6 6.1 3 8.9 0.4 0.8 4.9 8.1 5.6 7.7 0.9-0.5 1.7-1.2 2.4-2.1 1.2 0.9 2 2.4 1.9 3.9q1.7-1.6 3.6-3 1.4 1.9 2.8 3.9c0.9-1.6 2-3 3.2-4.3 0.5 1 0.5 2.2-0.1 3.2 1.3-0.2 2.5-0.8 3.3-1.7 0.3 0.2 3.7 3.2 3.7 3.2 1.6-0.5 3.1-1.4 4.5-2.4 0.1 1.1-0.1 2.3-0.6 3.3 2.1-0.5 3.9-1.6 5.2-3.2q1.1 1.8 2.2 3.6c0-1.8 0.4-3.5 1.1-5.1 1.1 0.9 1.5 2.5 1.3 3.8 2.2-1.3 4.2-3.2 5.8-5.3 0.5 0.7 0.7 1.7 0.5 2.6 1.3-1 2.7-2 3.7-3.3 0.7-1.1 1.2-2.5 1.1-3.7q-0.1-0.5-0.3-1 0.3 0.3 0.5 0.7 0.3 0.6 0.5 1.2 0.3 0.9 0.4 1.8c0.6-1.5 1.5-5 0.2-6.4q1.7 1.8 3.4 3.6c-0.5-5.2-2.7-9.4-2.3-14.8 0.7 1.8 1.8 3.5 3.2 5 0.7-6.2 0-12.5-2.2-18.4 2.2 1.8 3.7 4.5 4 7.3 1-6.6 0.3-13.4-2.1-19.6-2.5-6.4-3.9-13.3-6.8-19.6q1.7 0.3 3.4 0.6c-1.5-1.7-2.3-3.8-3.3-5.7 1.1 0.8 4 0.9 4.7 1.5-0.8-1.1-6.6-9.8-5.9-10.1 1.1-0.5 2.1-0.4 3.3 0-3.4-3.4-6.1-7.4-8-11.8q2 0.4 3.9 0.7c-2.5-5.7-6.2-11-10.6-15.5q3.1 1.9 6.1 3.8c-3.6-6.4-7.9-12.3-13-17.5q2.1 0.8 4.3 1.7c-4-6.3-8.8-12.1-14.4-17 1.3 0.1 2.5 0.2 3.8-0.1-0.9-2.1-9.7-13.8-12.6-12.9 1.4-0.4 2.8-0.4 4.1 0.2-3.1-4.5-7-6.9-11.2-10.2-2.7-2.2-5.1-6.2-8.1-7.9 1.7 1 3.9 0.8 5.5-0.3-4.3-1.4-15.2-11.2-19-10.7q2.6-0.4 5.3-0.7c-3.9-2.5-8.1-4.7-12.4-6.4 1.6-0.1 3.1-0.7 4.4-1.7-7.1-0.4-13.6-2.4-20.1-4.9q-3.2-1.3-6.5-2.6c-2-0.9-4-1.6-6-2.4q-0.1 0-0.2 0c-1.4-0.6-2.9-1.1-4.4-0.7q-0.5 0.1-0.9 0.4c-1 0.6-1.1 1.9-1.1 3z"/><path class="d" d="m271.3 115.1v0.1c-0.1 2.5 0.4 5 0.6 7.5 0.6 10.1 2.4 20.1 4.7 30.1 1.2 5.2 2.5 10.4 3.9 15.5 3.5 13.4 8.8 26.6 16.8 38 4.6 6.5 8.6 12.3 11.7 19.8 0-1.3 0.8-2.7 2-3.2q1.2 5.3 3.5 10.1c-0.2-1.6 0.7-3 2.2-3.6 2.6 6.7 5.5 11.1 6.6 18.7 1.8 12.8 0.5 23.1-1.6 35.9q1.5-1.8 3.2-3.5c-1.1 5.2-0.9 10.7 0.5 15.8 0.3-1.4 1-2.8 2.1-3.8 0.1 3.2 1.6 6.1 3 8.9 0.4 0.8 4.9 8.1 5.6 7.7 0.9-0.5 1.7-1.2 2.4-2.1 1.2 0.9 2 2.4 1.9 3.9q1.7-1.6 3.6-3 1.4 1.9 2.8 3.9c0.9-1.6 2-3 3.2-4.3 0.5 1 0.5 2.2-0.1 3.2 1.3-0.2 2.5-0.8 3.3-1.7 0.3 0.2 3.7 3.2 3.7 3.2 1.6-0.5 3.1-1.4 4.5-2.4 0.1 1.1-0.1 2.3-0.6 3.3 2.1-0.5 3.9-1.6 5.2-3.2q1.1 1.8 2.2 3.6c0-1.8 0.4-3.5 1.1-5.1 1.1 0.9 1.5 2.5 1.3 3.8 2.2-1.3 4.2-3.2 5.8-5.3 0.5 0.7 0.7 1.7 0.5 2.6 1.3-1 2.7-2 3.7-3.3 0.7-1.1 1.2-2.5 1.1-3.7-2.5 3.1-6.9 2.6-10.1 4.9 0.6-1.3 0.8-2.7 0.9-4.1-1 0.9-2.3 1.5-3.6 1.9 0.3-1 0.4-2 0.1-3 0.1 0.4-7.6 3.6-8.3 3.7-3.4 0.5-5.5-1.7-8.2-3.1-3.1-1.6-6.2-0.7-9.6-1.7 0.8-0.4 1.4-1.4 1.4-2.3q-2.2 0.6-4.4 1.2c0.7-1.6 1-3.3 0.8-5q-1.2 0.5-2.4 1.1c-1.8-4.8-3.1-9.6-4.4-14.6-3.6-14.7-3.1-30.1-5-45q1 0.6 2.1 0.8-1.3-3.4-1.8-7c0.9 0.5 2 0.8 3 0.6-2 0.4-11.7-24.7-12.7-27.7 1.2 1.1 3 1.6 4.7 1.2-3.4-3.6-6.2-7.7-8.3-12.1 1.3 0.7 2.7 1.1 4.1 1.1-4.3-5.6-7.1-12.4-8.7-19.2-0.7-2.8-3.1-21.8-5.6-22.5q1.3 0.4 2.4 1.1c-0.2-2.3-1.7-4.8-2.5-7 0.7 0.3 1.5 0.4 2.2 0.2-3.1-7.9-7.4-15.7-12.5-22.5-1-1.3-2-2.5-3-3.7-0.6-0.7-1.1-1.4-1.6-2.1q-0.1-0.2-0.3-0.3c-1.8-1.8-7.9-4-12.7-5-1.7-0.4-3.3-0.7-4.4-0.7q-0.5 0.1-0.9 0.4c-1 0.6-1.1 1.9-1.1 3z"/><path class="k" d="m304.3 170.9q0 2.9-0.1 5.7c-0.3 7.3-1.4 14.5-2.6 21.7q-0.5 3.2-1.2 6.5c-2.9 13.4-7.3 27.3-6.6 40.9q0.1 1 0.1 2c-0.9-0.5-1.6-1.4-1.9-2.5q-0.5 4.3-1 8.7c-0.2-0.7-0.6-1.3-1-1.8-0.7 5.6-1.9 11-2.9 16.6-0.4 1.8-0.7 3.7-1.1 5.7q-0.3 1.2-0.5 2.4-0.2 1.2-0.4 2.5-0.2 1.2-0.3 2.4-0.1 0.5-0.1 1c-0.3 2.3-0.4 4.6-0.3 6.9v0.1q0.1 0.7 0.1 1.4 0.1 0.3 0.1 0.7 0.1 0.7 0.2 1.4 0.2 0.9 0.4 1.7c0.2 0.6 0.3 1.2 0.2 1.8-0.1 0.5-0.4 1-0.7 1.4-3.7 5.2-7.2 10.7-11 16q-3.5 4.9-7.1 9.8-0.2-1.2-0.4-2.5c-2.3 3.4-4.5 6-7.4 8.8q0.2-1.4 0.3-2.9c-2.9 2.2-5.1 5.2-7.9 7.5-2.8 2.5-5.8 4.6-9.1 6.5-6.4 3.6-13.9 6-21.3 6h-0.5c-4.1-0.2-12.5-2.1-20.2-5.4-3.5-1.5-6.9-3.5-9.9-5.8-1.5-1.1-2.9-2.2-4.2-3.4-1.5-1.3-2.8-2.6-3.7-4.3 0.2 1 0.3 2.2 0 3.3-2.2-2.7-4.1-5.6-5.7-8.6 0 1.3 0 2.6 0 4-5.1-8.3-11.2-16-16.8-24.1-1.1-1.6-2.2-3.3-3.4-4.9-0.3-0.4-0.6-0.9-0.7-1.4-0.1-0.6 0.1-1.2 0.2-1.8q0.2-0.7 0.4-1.5 0.1-0.7 0.2-1.4 0.1-0.8 0.2-1.5 0-0.8 0-1.6 0.1-1.3 0-2.7-0.1-1.8-0.3-3.5 0-0.1 0-0.1c0-0.5-0.1-1-0.2-1.5-0.5-4.3-1.5-8.6-2.2-12.4q-0.3-2-0.7-4c-1.7-8.7-3.7-17.2-5.5-25.8-2.6-12.2-3.9-24.5-6.4-36.7-2.6-11.9-4.1-25-3.6-37.3 0.1-1.9 0.4-5 1.3-7.1-0.4 0.5-1.2 1-1.8 1.2 0.4-2.7 1.5-5.4 2.9-7.7q-1 0.3-1.9 0.6c3-8.8 7.9-17.1 12.3-25.3 2.4-4.5 5.8-8.2 9.4-11.6 1.3-1.2 2.6-2.2 3.9-3.2q0.6-0.4 1.3-0.9c2.6-1.7 5.3-3.2 8.3-5.1 5.6-3.5 11.3-7.3 17.5-9.7 7.6-3 15.2-4.3 22.8-4.6q0.8 0 1.6 0 3.6-0.1 7.2 0.1c8.2 0.5 16.5 1.9 24.8 3.6 11.4 2.2 21.8 9.3 30.6 16.8q0.2 0.1 0.3 0.2 0.9 0.7 1.6 1.4c8.6 7.5 16.1 16.6 19.5 27.7 1.4 4.8 2.6 9.7 3.4 14.6 0.9 5 1.4 10 1.5 15.1z"/><path class="l" d="m302.8 155.9c-0.8-5-2-9.8-3.4-14.7-1-3.2-2.2-6.2-3.6-9 0.1 0.5 0.3 1.1 0.5 1.6 1.4 4.8 2.5 9.7 3.3 14.6 0.8 5 1.3 10.1 1.4 15.1q0.1 2.8-0.1 5.6c-0.3 7.4-1.3 14.6-2.4 21.8q-0.6 3.2-1.2 6.4c-2.8 13.5-7.1 27.3-6.4 40.9q0.1 1 0.2 2.1c-1-0.5-1.6-1.5-1.8-2.5q-0.6 4.3-1.1 8.6c-0.1-0.6-0.5-1.2-0.9-1.7-0.7 5.6-1.9 11-2.8 16.5-0.3 1.9-0.7 3.8-1.1 5.8q-0.2 1.1-0.4 2.4-0.2 1.2-0.4 2.4-0.1 1.3-0.3 2.5c-1.4 12-5 23-9.8 34q-0.4-2.5-0.7-5c0.7 5.3-8.6 12.8-11.9 16-5.6 5.5-11.8 10.5-18.6 14.5-6.2 3.6-13.4 6-20.4 6h-0.6c-7.2-0.2-17.2-2.5-23.1-6.6 0.2 0.6 0.4 1.3 0.4 1.9-3.5-2.5-6.7-5.5-9.5-8.7q0.7 1.6 1.3 3.3c-9.4-9.3-19-19.4-24.6-31.5-5.4-11.6-6.1-24.6-8.1-37q-0.4-2-0.8-4c-1.5-8.6-3.5-17.2-5.2-25.8-2.5-12.2-3.8-24.4-6.2-36.6-2.5-12-3.9-25-3.4-37.3 0-1.9 0.3-5 1.2-7.1-0.4 0.5-1.1 1-1.8 1.1 0.4-2.6 1.5-5.3 2.8-7.6q-0.9 0.3-1.7 0.5 0.3-0.9 0.6-1.9c-1.4 3.1-2.8 6.2-3.9 9.4q1-0.3 1.9-0.6c-1.4 2.3-2.5 5-3 7.7 0.7-0.2 1.5-0.7 1.9-1.2-0.9 2.1-1.2 5.2-1.3 7.1-0.5 12.4 1 25.4 3.6 37.4 2.5 12.1 3.9 24.4 6.4 36.6 1.8 8.6 3.8 17.1 5.5 25.8q0.4 2 0.7 4c0.7 3.8 1.7 8.1 2.2 12.4 0.1 0.5 0.2 1 0.2 1.5q0 0 0 0.1 0.2 1.8 0.3 3.5 0.1 1.4 0 2.7 0 0.8 0 1.6-0.1 0.7-0.2 1.5-0.1 0.7-0.2 1.4-0.2 0.8-0.4 1.5c-0.1 0.6-0.3 1.2-0.2 1.8 0.1 0.5 0.4 1 0.7 1.4q1.7 2.4 3.4 4.9c5.6 8.1 11.7 15.8 16.8 24.1 0-1.3 0-2.7 0-4 1.6 3 3.5 5.9 5.7 8.6 0.3-1.1 0.2-2.2 0-3.3 0.9 1.7 2.2 3 3.7 4.3 1.3 1.2 2.7 2.3 4.2 3.4 3 2.3 6.4 4.3 9.9 5.8 7.7 3.3 16.1 5.3 20.2 5.4h0.5c7.4 0 14.9-2.4 21.3-6 3.3-1.8 6.3-4 9.1-6.4 2.8-2.4 5-5.4 7.9-7.6q-0.1 1.5-0.3 2.9c2.9-2.8 5.1-5.4 7.4-8.7q0.2 1.2 0.4 2.4c2.4-3.2 4.8-6.5 7.1-9.7 3.8-5.4 7.3-10.9 11-16.1 0.3-0.4 0.6-0.8 0.7-1.3 0.2-0.7 0-1.3-0.2-1.9q-0.2-0.8-0.4-1.7-0.1-0.7-0.2-1.4 0-0.3-0.1-0.7 0-0.7-0.1-1.3v-0.2c-0.1-2.2 0-4.6 0.3-6.9q0-0.5 0.1-0.9 0.2-1.3 0.3-2.5 0.2-1.2 0.5-2.5 0.2-1.2 0.4-2.4 0.6-3 1.1-5.7c1-5.6 2.2-11 2.9-16.6 0.4 0.5 0.8 1.1 1 1.8q0.5-4.3 1.1-8.6c0.2 1 0.9 1.9 1.8 2.4q0-1-0.1-2c-0.7-13.6 3.7-27.5 6.6-40.9q0.7-3.3 1.2-6.4c1.2-7.2 2.3-14.5 2.6-21.8q0.1-2.8 0.1-5.6c-0.1-5.1-0.6-10.1-1.5-15.1z"/><path class="l" d="m217.7 219c-1.3-0.5-2.8-0.4-3.8 0.5q0.3-2.1 0.6-4.3c-2.1 0.1-4.2-0.6-5.9-1.8 3.9-2 7.3-4.3 11.7-4.5 4.4-0.3 9 1.2 13.2 2.2 3.1 0.7 8.4 3.4 11.6 2.5q-6.8 1.9-13.6 3.9c-0.9 0.3-1.9 0.6-2.8 1-2.4 1.2-4.1 3.7-4.5 6.3q-1.2-2.4-2.4-4.8-0.8 1-1.6 2c-0.1-1.4-1.2-2.5-2.5-3z"/><path class="l" d="m277.9 124q-0.1 0.2-0.1 0.3-0.4-0.8-0.8-1.5c-0.1 1.5-0.5 3-1.1 4.3q-0.6-0.7-0.9-1.5c0.1 1.8-0.2 3.7-0.9 5.4-0.4-0.6-0.6-1.3-0.6-2 0 3.7-3.3 8-5.4 10.8-2.8 3.5-6 6.8-9.3 9.9-4.4 4-9.1 7.3-14 10.8-4.9 3.7-10.1 6.9-15.4 10.1-0.2 0.1-0.3 0.2-0.5 0.2-0.4-0.1-0.4-0.7-0.2-1.1q0.3-1 0.7-2.1c-0.5 0.6-6.9 5.4-7.3 5q-0.9-0.9-1.8-1.9-0.2 1.2-0.4 2.4c-6.6-3.1-13-6.9-18.9-11.1-4.1-3-8.1-6.3-11.7-9.9-5.8-5.6-13.7-11.7-17.4-19q-0.4 0.8-0.8 1.6-1.6-3.7-3.2-7.4-0.2 0.4-0.5 0.8c-1.5-3-1.9-6.3-2.8-9.5-0.6-2.2-1.1-4.6-0.7-6.8q0.6-0.5 1.3-0.9c2.6-1.8 5.3-3.3 8.3-5.1 5.7-3.5 11.3-7.3 17.5-9.7 7.6-3 15.2-4.3 22.8-4.6q0.8 0 1.6 0 3.6-0.1 7.3 0.1c8.2 0.5 16.4 1.9 24.7 3.6 11.4 2.2 21.8 9.3 30.6 16.7q0.2 0.2 0.3 0.3c0.5 4.2 0.5 8.3-0.4 11.8z"/><path class="l" d="m275.9 110.4q-0.5 2-1.4 4.1c-0.7 1.4-1.2 2.9-2 4.2-9.8 18.8-30.8 36.7-52.3 37.2-6.8 0.2-13.3-2.2-19.1-5.4-3-1.7-5.9-3.7-8.7-5.8-1-0.8-6.7-4.4-6.6-5.8q-0.1 0.8-0.1 1.6-2.2-2.1-3.8-4.6c0.2 0.4 0 0.9-0.3 1.2-5.7-8.9-12.6-16.6-15.2-27.1 2.4-1.3 4.8-2.8 7.1-4.2 5.7-3.5 11.3-7.3 17.5-9.7 7.6-3 15.2-4.3 22.8-4.6q0.8 0 1.6 0 3.6-0.1 7.3 0.1c8.2 0.5 16.4 1.9 24.7 3.5 7.8 1.6 14 5 20.2 9.8q2.3 1.8 4.8 3.4 1.7 1.1 3.6 2.1z"/><path class="k" d="m220.3 150.2c-28.4 0-70.6-24.9-66.3-54.9q0.1-1 0.3-2c2.7-13.1 7.7-42.7 15-56.6q0.9-1.8 1.9-3.2 1.4-2 2.9-3.9c4.8-6.2 10.5-11.8 17-16.2 5.7-3.8 12.3-5.4 18.3-8.2q1.5-0.8 3.1-1.7c0.1 0 0.3-0.1 0.4-0.1 0.3 0 0.5 0.2 0.8 0.3 0.6 0.2 1.3-0.1 1.7-0.7 0.4-0.5 0.5-1.2 0.6-1.8 0.8 0.8 1.7 1.6 2.8 1.7 0.7 0 1.4-0.4 2.1-0.6 0.7-0.2 1.6-0.2 2 0.4 0.2 0.2 0.4 0.5 0.6 0.5 0.2 0 0.3-0.1 0.5-0.2q2-1.3 3.7-3c-1.3 1.3 1.5 4.7 2.4 5.3q0.3 0.3 0.7 0.5c1.1 0.5 2 0.4 3.4 0.6 3.8 0.6 7.6 2.5 10.9 4.3 7.1 3.8 13.3 9.1 18.6 15.1q3.5 4 6.5 8.4 0.2 0.2 0.3 0.4 0.9 1.3 1.7 3c6.4 13.2 11 41.1 13.5 52.8q0.3 1.4 0.6 2.9 0.1 0.3 0.1 0.5c5.1 30.5-35.7 56.5-66.1 56.5z"/><path class="l" d="m220.3 145.7c-26.3 0-64.5-21.5-66.5-48.6-2.3 29.2 38.7 53.1 66.5 53.1 29.4 0 68.6-24.3 66.5-53.5-2 27.1-38.6 49-66.5 49z"/><path class="m" d="m253.9 112.9c0 12-20.5 21.8-33.6 21.8-13.1 0-33.6-9.8-33.6-21.8 0-12.1 20.3-41.4 33.4-41.4 13.1 0 33.8 29.3 33.8 41.4z"/><path class="n" d="m229 113.9l0.3-0.3q0.1-0.1 0.2-0.3 0-0.1 0-0.3 0-0.1 0-0.2-0.1-0.2-0.2-0.3l-0.1-0.1q-0.2-0.1-0.4-0.1h-0.2q-0.2 0.1-0.4 0.2l-0.2 0.3q-0.2 0.1-0.2 0.2-0.1 0.2-0.1 0.3 0 0.2 0.1 0.3 0 0.2 0.2 0.3l0.1 0.1q0.2 0.1 0.4 0.1h0.2q0.2-0.1 0.3-0.2z"/><path class="n" d="m231.4 110.8h0.3q0.2 0.1 0.3 0 0.1-0.1 0.2-0.2 0.2-0.1 0.2-0.2 0.1-0.2 0.1-0.3l-0.1-0.2q0-0.2-0.2-0.4l-0.1-0.1q-0.2-0.1-0.4-0.1h-0.3q-0.1 0-0.2 0.1-0.2 0-0.3 0.1-0.1 0.2-0.2 0.3 0 0.1 0 0.3v0.2q0.1 0.2 0.2 0.3l0.2 0.2q0.1 0.1 0.3 0z"/><path class="n" d="m232 115.7l0.3 0.3q0.1 0.1 0.2 0.1 0.2 0.1 0.3 0.1 0.2 0 0.3-0.1 0.1 0 0.2-0.1l0.2-0.2q0.1-0.1 0.1-0.4l-0.1-0.2q0-0.2-0.2-0.3l-0.2-0.3q-0.1-0.1-0.3-0.1-0.1-0.1-0.3-0.1-0.1 0-0.3 0.1-0.1 0-0.2 0.1l-0.1 0.2q-0.1 0.2-0.1 0.4v0.2q0 0.2 0.2 0.3z"/><path class="n" d="m208.1 110.6v0.3q0 0.2 0.1 0.3 0 0.1 0.1 0.2 0.1 0.1 0.3 0.2 0.1 0.1 0.3 0.1l0.2-0.1q0.2 0 0.3-0.2l0.1-0.1q0.1-0.2 0.1-0.4v-0.3q0-0.1 0-0.3-0.1-0.1-0.2-0.2-0.1-0.1-0.3-0.2-0.1 0-0.2 0h-0.2q-0.2 0-0.4 0.2l-0.1 0.1q-0.1 0.2-0.1 0.4z"/><path class="n" d="m207 115.5l0.3 0.3q0.1 0.1 0.2 0.1 0.1 0.1 0.3 0.1 0.1 0 0.3-0.1 0.1 0 0.2-0.1l0.1-0.2q0.2-0.2 0.1-0.4v-0.2q0-0.2-0.2-0.3l-0.3-0.3q-0.1-0.1-0.2-0.2-0.1 0-0.3 0-0.2 0-0.3 0-0.1 0.1-0.2 0.2l-0.2 0.1q-0.1 0.2 0 0.4v0.2q0 0.2 0.2 0.4z"/><path class="n" d="m212.7 113.9v0.2q0 0.2 0 0.3 0.1 0.2 0.2 0.3 0.1 0.1 0.2 0.1 0.2 0.1 0.3 0.1h0.2q0.2-0.1 0.4-0.2l0.1-0.2q0.1-0.2 0.1-0.4v-0.2q0-0.2-0.1-0.3 0-0.2-0.1-0.3-0.1-0.1-0.3-0.1-0.1-0.1-0.3-0.1h-0.2q-0.2 0.1-0.3 0.2l-0.1 0.2q-0.1 0.1-0.1 0.4z"/><path class="l" d="m230.6 56.9c-0.4 2.3-0.4 4.4-0.1 6.7-0.1-0.5 1.2-2 1.5-2.5 0.7-0.9 1.5-1.7 2.3-2.6 1.5-1.7 3.1-3.1 5-4.2q-1.7-0.2-3.3 0c1.9-1.5 4.1-2.6 6.4-3.3-0.7 0.2-2-0.3-2.7-0.5-0.9-0.2-1.9-0.4-2.8-0.4-1.7-0.2-3.8-0.1-4.6 1.6-0.9 1.6-1.4 3.4-1.7 5.2z"/><path class="l" d="m209.7 56.9c0.4 2.3 0.4 4.4 0.1 6.7 0.1-0.5-1.2-2-1.5-2.5-0.7-0.9-1.5-1.7-2.3-2.6-1.5-1.7-3.1-3.1-5-4.2q1.7-0.2 3.3 0c-1.9-1.5-4.1-2.6-6.4-3.3 0.6 0.2 2-0.3 2.7-0.5 0.9-0.2 1.9-0.4 2.8-0.4 1.7-0.2 3.8-0.1 4.6 1.6 0.9 1.6 1.4 3.4 1.7 5.2z"/><path class="o" d="m185.8 67.9c-0.6 4.5 0.2 9 5.7 10.8 7.5 2.3 13.3-5.4 13.3-11.4 0-1.3-0.3-1.9-1.6-2.9q-0.4-0.3-0.8-0.6c-2.1-1.5-5.4-2.6-8.2-3.1q-0.3 0-0.6-0.1-0.4 0-0.7-0.1-0.3 0-0.5 0c-1.5-0.2-2.8-0.1-3.2 0.3q-0.3 0.4-0.6 0.8c-1.6 1.7-2.5 3.7-2.8 6.2z"/><path class="a" d="m186.6 67.3c0 5.1 4 9.2 9.1 9.2 5 0 9.1-4.1 9.1-9.2 0-1-0.6-2-1.6-2.9q-0.4-0.3-0.8-0.6c-2.1-1.5-5.4-2.6-8.2-3.1q-0.3 0-0.6-0.1-0.4 0-0.7-0.1-0.3 0-0.5 0c-1.5-0.2-2.8-0.1-3.2 0.3q-0.3 0.4-0.6 0.8c-1.3 1.6-2.1 3.6-2.1 5.7z"/><path class="p" d="m188.1 67.3c0 4.2 3.4 7.6 7.6 7.6 4.2 0 7.6-3.4 7.6-7.6 0-1.2-0.3-2.4-0.9-3.5-2.6-1.9-7-3.1-10-3.3-2.5 1.2-4.3 3.8-4.3 6.8z"/><path class="g" d="m195.7 71.5c-2.3 0-4.2-1.8-4.2-4.2 0-2.3 1.9-4.2 4.2-4.2 2.3 0 4.2 1.9 4.2 4.2 0 2.4-1.9 4.2-4.2 4.2z"/><path class="a" d="m198.7 66.7c-1 0-1.9-0.8-1.9-1.9 0-1.1 0.9-1.9 1.9-1.9 1.1 0 1.9 0.8 1.9 1.9 0 1.1-0.8 1.9-1.9 1.9z"/><path class="o" d="m254.7 67.9c0.5 4.5-0.2 9-5.7 10.8-7.5 2.3-13.4-5.4-13.4-11.4 0-1.3 0.4-1.9 1.7-2.9q0.4-0.3 0.7-0.6c2.2-1.5 5.5-2.6 8.2-3.1q0.4 0 0.7-0.1 0.3 0 0.7-0.1 0.2 0 0.5 0c1.5-0.2 2.7-0.1 3.1 0.3q0.4 0.4 0.7 0.8c1.5 1.7 2.5 3.7 2.8 6.2z"/><path class="a" d="m253.9 67.3c0 5.1-4.1 9.2-9.1 9.2-5.1 0-9.2-4.1-9.2-9.2 0-1 0.7-2 1.7-2.9q0.3-0.3 0.7-0.6c2.2-1.5 5.5-2.6 8.2-3.1q0.4 0 0.7-0.1 0.3 0 0.7-0.1 0.2 0 0.4 0c1.6-0.2 2.8-0.1 3.2 0.3q0.4 0.4 0.7 0.8c1.3 1.6 2 3.6 2 5.7z"/><path class="q" d="m252.4 67.3c0 4.2-3.4 7.6-7.6 7.6-4.2 0-7.6-3.4-7.6-7.6 0-1.2 0.3-2.4 0.8-3.5 2.7-1.9 7-3.1 10-3.3 2.6 1.2 4.4 3.8 4.4 6.8z"/><path class="g" d="m244.8 71.5c-2.3 0-4.2-1.8-4.2-4.2 0-2.3 1.9-4.2 4.2-4.2 2.3 0 4.2 1.9 4.2 4.2 0 2.4-1.9 4.2-4.2 4.2z"/><path class="a" d="m241.7 66.7c-1 0-1.9-0.8-1.9-1.9 0-1.1 0.9-1.9 1.9-1.9 1.1 0 1.9 0.8 1.9 1.9 0 1.1-0.8 1.9-1.9 1.9z"/><path class="r" d="m220 104.3v10.8"/><path class="q" d="m239.3 117.6q-0.1 0.6-0.4 1.3 0 0.2-0.1 0.4c-0.5 1.2-1.4 2.5-2.6 3.7q-0.3 0.2-0.5 0.4-0.3 0.3-0.5 0.5-0.6 0.4-1.2 0.9 0 0 0 0-0.6 0.4-1.3 0.8-0.6 0.4-1.4 0.8-1.1 0.5-2.4 1-0.3 0.1-0.6 0.2c-0.1 0-0.3 0.1-0.5 0.1q-1.1 0.4-2.4 0.6-2.5 0.5-5.5 0.5c-2.6 0-5-0.3-7.2-0.9q-0.9-0.3-1.7-0.6-0.4-0.1-0.9-0.3c-5.9-2.4-9.3-6.7-9.6-9.6q0 0 0.2 0c0.7 0.2 3.2 1 3.3 1 3.1 0.2 6.1-0.3 8.8-1.4 2.3-1 4.9-1.5 7.4-1.5 2.5 0 4.8 0.5 7 1.4l0.9 0.3c2.4 1 5 1.4 7.7 1.3 0.1 0 0.2-0.1 0.4-0.1q0.1-0.1 0.1-0.1 0.2 0 0.4-0.1c1-0.3 2.6-0.7 2.6-0.6z"/><path class="s" d="m237.6 118.4q-0.1 0.1-0.1 0.2c-0.5 1.6-2 3.5-4.4 5-2.9 2-7.4 3.4-13.2 3.4-6.5 0-11.4-1.9-14.4-4.3-1.8-1.4-3-3-3.3-4.4q0-0.1 0-0.1 0.1 0 0.3 0 0.5 0.1 1 0.1 0.2 0.1 0.5 0.1 1.2 0.1 2.3 0h0.1q1 0 2-0.2 0.4 0 0.7-0.1 0.4 0 0.8-0.1 0.9-0.3 1.8-0.6 0.4-0.1 0.8-0.3 0.1 0 0.1 0 0.4-0.1 0.8-0.3 0.6-0.2 1.2-0.4 0.6-0.2 1.3-0.4 0.3-0.1 0.7-0.1 0.2-0.1 0.3-0.1 0.3 0 0.6-0.1 0.1 0 0.1 0 0.4 0 0.8-0.1 0.9 0 1.8 0 0.4 0 0.8 0 0.4 0 0.8 0 0.4 0.1 0.8 0.1 0.5 0.1 0.9 0.1 1.6 0.3 3.1 0.9l0.8 0.3q0.3 0.1 0.6 0.2 0.1 0 0.2 0.1 0.7 0.2 1.4 0.4 0.2 0.1 0.5 0.2 1.3 0.3 2.7 0.5 0.2 0 0.4 0 1.3 0.2 2.6 0.1 0.2 0 0.4 0 0.4 0 0.9-0.1 0.2 0 0.5 0z"/><path class="t" d="m237.5 118.6c-0.6 2-2.3 3.7-4.3 5 1.4-1-0.3-3-1.5-3.7-3.4-2-7.4-1.9-11.6-1.9-3.2 0-7.1 0-10.1 0.9-2 0.6-4.8 1.9-4.5 3.8-1.8-1.4-3-3.1-3.3-4.4q0.1-0.1 0.3-0.1c1-0.1 3 0.2 3.8 0.2h0.1q1 0 2-0.2 0.4 0 0.7-0.1 0.4-0.1 0.8-0.2 0.9-0.2 1.8-0.5 0.4-0.1 0.8-0.3 0.1 0 0.1 0 0.4-0.2 0.8-0.3 0.6-0.2 1.2-0.4 0.6-0.2 1.2-0.4 0.4-0.1 0.8-0.1 0.2-0.1 0.3-0.1 0.3 0 0.6-0.1 0.1 0 0.1 0 0.4 0 0.8-0.1 0.9 0 1.8-0.1 0.4 0 0.8 0.1 0.4 0 0.8 0 0.4 0.1 0.8 0.1 0.5 0.1 0.9 0.1 1.6 0.3 3.1 0.9l0.8 0.3q0.3 0.1 0.6 0.2 0.1 0 0.2 0.1 0.7 0.2 1.4 0.4 0.2 0.1 0.5 0.2 1.3 0.3 2.7 0.5 0.2 0 0.4 0 0.2 0 0.4 0.1c1 0 2.6-0.3 3.5-0.1q0.2 0.1 0.4 0.1 0 0.1 0 0.1z"/><path class="u" d="m212 122c0.2-0.1 0.5-0.2 0.7-0.1 0.2 0.1 0.4 0.5 0.4 0.8 0 0.3 0 0.6-0.1 0.9-0.1 1.1 0 2.1 0 3.1 0 0.2 0 0.3-0.1 0.5-0.2 0.5-1.1 0.2-1.4 0-0.6-0.3-1.7-1.1-1.7-2 0-1.2 1-2.3 1.8-3q0.2-0.1 0.4-0.2z"/><path class="v" d="m213 126.7c0-1-0.1-2 0-3.1q0.1-0.3 0.1-0.6c-0.1 1-0.2 1.8-1 2.6-0.1 0.2-0.2 0.3-0.4 0.4-0.8 0.3-1.7-1-1.8-1.4q-0.1 0.3-0.1 0.6c0 0.9 1.1 1.7 1.7 2 0.3 0.2 1.2 0.5 1.4 0q0.1-0.2 0.1-0.5z"/><path class="u" d="m228.2 121.8c-0.3-0.1-0.5-0.2-0.7 0-0.2 0.1-0.3 0.4-0.3 0.7 0 0.3 0.1 0.6 0.1 1 0.2 1 0.2 2 0.4 3 0 0.2 0 0.4 0.1 0.5 0.3 0.5 1.1 0.1 1.4 0 0.6-0.4 1.6-1.3 1.5-2.2-0.1-1.2-1.2-2.2-2.1-2.8q-0.2-0.2-0.4-0.2z"/><path class="v" d="m227.6 126.5c-0.1-1-0.1-2-0.3-3q-0.1-0.4-0.1-0.7c0.2 0.8 0.3 1.6 0.5 2.4 0 0.3 0.2 0.7 0.6 0.7 0.6 0.1 1.1-0.3 1.5-0.5 0.3-0.3 0.9-0.8 0.8-1.2q0.1 0.3 0.1 0.6c0.1 0.9-0.9 1.8-1.5 2.2-0.4 0.1-1.1 0.5-1.4 0q-0.2-0.2-0.2-0.5z"/><path class="u" d="m216.2 127.4c0.1 0.2-0.1 0.4-0.2 0.5q-0.2 0.2-0.6 0.3-0.3 0-0.6 0c0 0-0.1 0-0.2 0-0.1 0-0.2 0-0.4-0.1q-0.2 0-0.3 0-0.1-0.1-0.3-0.1-0.2-0.1-0.4-0.3-0.2-0.1-0.2-0.2c-0.3-0.3-0.2-0.6 0-1q0-0.1 0.1-0.3 0.1-0.1 0.3-0.2c0.3-0.4 0.6-0.6 1-0.9 0.1-0.1 0.3-0.3 0.5-0.2 0.1 0 0.1 0.1 0.2 0.2q0 0.2 0.3 0.3c0.1 0.1 0.2 0.1 0.2 0.1q0.1 0.1 0.1 0.2c0.1 0.1 0.3 0.4 0.4 0.7q0 0.1 0 0.1 0 0.2 0 0.3c0 0.2 0.1 0.4 0.1 0.6z"/><path class="v" d="m216.2 127.4c0.1 0.2-0.1 0.4-0.2 0.5q-0.2 0.2-0.6 0.3-0.3 0-0.6 0c0 0-0.1 0-0.2 0-0.1 0-0.2 0-0.4-0.1q-0.2 0-0.3 0-0.1-0.1-0.3-0.1-0.2-0.1-0.4-0.3-0.2-0.1-0.2-0.2c-0.3-0.3-0.2-0.6 0-1q0-0.1 0.1-0.3 0.3 0.4 0.6 0.6 0.2 0.1 0.4 0.2c0.2 0.1 0.5 0.1 0.8 0.1 0.1 0 0.2 0.1 0.3 0.1 0.3-0.1 0.9-0.6 0.9-0.8q0 0 0 0.1 0 0.1 0 0.3c0 0.2 0.1 0.4 0.1 0.6z"/><path class="u" d="m217.3 125.5c0.2-0.2 0.6-0.3 0.9-0.2 0.8 0.2 1.2 0.7 1.5 1.1 0.4 0.7 1 1.8-0.4 2.1-0.9 0.3-2.4 0.2-3-0.4-0.9-0.7 0-2.1 0.9-2.6z"/><path class="v" d="m219.9 126.7c0 0.3-0.2 0.7-0.7 0.8-0.8 0.2-2.1 0.2-2.6-0.3-0.3-0.2-0.3-0.5-0.3-0.8-0.4 0.6-0.5 1.3 0 1.8 0.7 0.5 2.2 0.6 3 0.3 1.2-0.3 1-1.1 0.6-1.8z"/><path class="u" d="m226 124.9q-0.3-0.1-0.6-0.1c-0.9 0.1-1.3 1.1-1.3 1.5q-0.1 0.5-0.1 1c-0.1 1.1 2.9 0.9 3.6 0.1 0.4-0.5 0-1.1-0.4-1.6-0.3-0.2-0.7-0.7-1.2-0.9z"/><path class="v" d="m227.2 125.9c0.1 0.3 0.1 0.6-0.1 0.9-0.5 0.7-2.8 0.9-3.1 0.1q0 0.2 0 0.4c-0.1 1.1 2.9 0.9 3.6 0.1 0.4-0.5 0.1-1.1-0.4-1.5z"/><path class="u" d="m223 125.4c-0.3-0.2-0.6-0.2-0.9-0.2-0.8 0.2-1.2 0.7-1.4 1.1-0.5 0.7-1 1.8 0.3 2.1 0.9 0.3 2.3 0.2 2.9-0.3 0.8-0.8 0-2.2-0.9-2.7z"/><path class="v" d="m224 127.2c-0.7 0.5-2.1 0.5-2.9 0.3-0.4-0.1-0.7-0.3-0.8-0.5-0.2 0.6-0.2 1.2 0.7 1.4 0.9 0.3 2.3 0.2 2.9-0.3 0.4-0.3 0.4-0.8 0.3-1.2q-0.1 0.2-0.2 0.3z"/><path class="u" d="m213.3 118.2q-0.1 0.3-0.2 0.5c-0.6 0.9-1.3 1.8-1.9 2.8q-0.2 0.3-0.3 0.6-0.1 0.1-0.2 0.2c-0.2 0.3-0.5 0.5-0.8 0.5-0.2 0-0.4-0.1-0.5-0.3q-0.1-0.2-0.1-0.4c-0.2-0.5-0.3-1.3-0.1-2 0.1-0.5 0.2-0.9 0.5-1.3 0.5-0.8 1.9-1.1 2.6-1.2 0.1 0 0.4 0 0.7 0.1 0 0 0 0 0 0.1q0.1 0 0.2 0 0 0.1 0 0.1 0.1 0.1 0.1 0.3z"/><path class="v" d="m213.3 118.2q-0.1 0.3-0.2 0.5c-0.6 0.9-1.3 1.8-1.9 2.8q-0.2 0.3-0.3 0.6c0.2-0.5 0.4-0.9 0.7-1.4 0.2-0.3 0.6-0.8 0.2-1.1q-0.2-0.1-0.3-0.1c-0.8-0.1-1.7 0.1-2.3 0.6 0.1-0.5 0.3-0.9 0.5-1.3 0.6-0.8 1.9-1.1 2.6-1.2 0.1 0 0.4 0 0.7 0.1 0 0 0 0 0.1 0.1q0 0 0.1 0 0 0.1 0.1 0.1 0.1 0.1 0 0.3z"/><path class="u" d="m230.8 121.9q-0.1 0.2-0.2 0.4c0 0.2-0.2 0.3-0.4 0.3-0.2 0-0.5-0.2-0.7-0.5q-0.1-0.1-0.2-0.2 0-0.1 0-0.1-0.2-0.3-0.4-0.5c-0.5-1-1.2-1.8-1.8-2.7q-0.2-0.2-0.2-0.4c-0.2-0.6 0.6-0.6 0.9-0.6q0.2 0 0.3 0 0.1 0 0.3 0.1 0.2 0 0.4 0.1c0.5 0.1 1.1 0.4 1.5 0.9q0.3 0.6 0.5 1.2c0.1 0.7 0.1 1.5 0 2z"/><path class="v" d="m230.8 119.9c-0.3-0.1-0.6-0.2-0.9-0.3q-0.3 0-0.5-0.1c-0.3 0-0.6-0.1-0.8 0-0.5 0.2-0.3 0.6-0.1 0.9q0.4 0.7 0.8 1.4-0.2-0.3-0.4-0.5c-0.5-1-1.2-1.8-1.8-2.7q-0.2-0.2-0.2-0.4c-0.2-0.6 0.6-0.6 0.9-0.6q0.2 0 0.3 0 0.1 0 0.3 0.1 0.2 0 0.4 0c0.5 0.2 1.1 0.5 1.5 1q0.4 0.6 0.5 1.2z"/><path class="u" d="m216 117.5c0-0.3-0.1-0.4-0.2-0.6q-0.2-0.1-0.5-0.2-0.2-0.1-0.5-0.1 0 0-0.1 0.1-0.2 0-0.4 0-0.2 0.1-0.4 0.2-0.2 0.1-0.4 0.3c-0.1 0-0.1 0.1-0.2 0.2-0.2 0.3-0.1 0.6 0 1q0.1 0.3 0.3 0.5c0.3 0.4 0.6 0.7 0.9 1 0.1 0.1 0.2 0.3 0.4 0.2 0.1-0.1 0.1-0.2 0.1-0.3q0.1-0.2 0.4-0.3 0 0 0.1-0.1 0-0.1 0.1-0.1c0.1-0.2 0.3-0.5 0.3-0.8 0 0 0-0.1 0-0.1q0-0.1 0.1-0.3c-0.1-0.2 0-0.4 0-0.6z"/><path class="v" d="m216 117.5c0-0.3-0.1-0.4-0.2-0.6q-0.2-0.1-0.5-0.2-0.2-0.1-0.5-0.1 0 0-0.1 0.1-0.2 0-0.4 0-0.2 0.1-0.4 0.2-0.2 0.1-0.4 0.3c-0.1 0-0.1 0.1-0.2 0.2-0.2 0.3-0.1 0.6 0 1 0-0.1 0-0.2 0-0.2q0.1-0.2 0.1-0.3c0.2-0.3 0.5-0.5 0.8-0.6 0.3-0.1 0.9-0.2 1.1 0.1 0.1 0 0.1 0.1 0.1 0.2 0.1 0.3 0.3 0.6 0.5 0.9q0-0.1 0-0.1 0-0.1 0-0.3c0-0.2 0.1-0.4 0.1-0.6z"/><path class="u" d="m217.6 119.4c0.3 0.1 0.6 0.2 0.9 0.1 0.6-0.1 1-0.6 1.3-1.1 0.4-0.7 0.9-1.8-0.4-2.1-0.7-0.3-2.1-0.2-2.6 0.3-0.8 0.8 0 2.2 0.8 2.8z"/><path class="v" d="m219.9 118.1c0.1-0.3-0.1-0.6-0.6-0.8-0.7-0.2-1.8-0.1-2.3 0.3-0.2 0.2-0.3 0.5-0.2 0.8-0.4-0.6-0.5-1.3 0-1.8 0.5-0.5 1.9-0.6 2.7-0.3 1 0.3 0.8 1.2 0.4 1.8z"/><path class="u" d="m225.6 120.3q-0.2 0.1-0.4 0.1c-0.7 0-1-1.1-1-1.6q-0.1-0.4-0.1-0.9c-0.1-1.2 2.2-0.9 2.7-0.1 0.3 0.5 0 1.1-0.3 1.6-0.2 0.3-0.5 0.7-0.9 0.9z"/><path class="v" d="m226.5 119.3c0.1-0.3 0.1-0.6-0.1-0.9-0.3-0.7-2.1-1-2.3-0.1q0-0.2 0-0.4c-0.1-1.2 2.2-0.9 2.6-0.1 0.3 0.5 0.1 1.1-0.2 1.5z"/><path class="u" d="m222.8 119.4c-0.2 0.2-0.5 0.3-0.9 0.2-0.6-0.2-1-0.7-1.3-1.1-0.4-0.7-0.9-1.8 0.4-2.2 0.7-0.2 2.1-0.1 2.7 0.4 0.7 0.7-0.1 2.2-0.9 2.7z"/><path class="v" d="m223.7 117.6c-0.6-0.5-1.9-0.5-2.7-0.3-0.4 0.1-0.6 0.3-0.7 0.5-0.2-0.6-0.2-1.2 0.7-1.5 0.7-0.2 2.1-0.2 2.7 0.4 0.3 0.3 0.3 0.7 0.2 1.2q-0.1-0.2-0.2-0.3z"/><path class="q" d="m239.3 117.6q-0.1 0.6-0.4 1.3 0 0.2-0.1 0.4c-0.5 1.2-1.4 2.5-2.6 3.7q-0.3 0.2-0.5 0.4-0.3 0.3-0.5 0.5-0.6 0.4-1.2 0.9 0 0 0 0-0.6 0.4-1.3 0.8-0.6 0.4-1.4 0.8-1.1 0.5-2.4 1-0.3 0.1-0.6 0.2c-0.1 0-0.3 0.1-0.5 0.1q-1.1 0.4-2.4 0.6-2.5 0.5-5.5 0.5c-2.6 0-5-0.3-7.2-0.9q-0.9-0.3-1.7-0.6-0.4-0.1-0.9-0.3c-5.9-2.4-9.3-6.7-9.6-9.6v-0.1q0 0 0.1 0.1h0.1c0.3 0.3 1 0.7 1.7 0.8q-0.1 0-0.3 0 0.1 0 0.1 0.1c0.3 1.3 1.5 2.9 3.3 4.4 3 2.3 7.9 4.3 14.4 4.3 5.9 0 10.2-1.5 13.2-3.4 2.5-1.5 3.9-3.4 4.4-5q0-0.1 0.1-0.2c-0.2 0-0.4 0-0.5 0q-0.5 0.1-0.9 0.1h-0.4c0 0 0.2-0.1 0.4-0.1q0.1-0.1 0.1-0.1 0.1 0 0.3-0.1c1.1-0.3 2.7-0.7 2.7-0.6z"/><path class="w" d="m245.3 113.7c-6.6 5-11.9 8.4-19.8 4-2.4-1.3-5.4-1.4-7.7-1.1h0.2c-0.7 0.2-1.6 0.4-2.3 0.7l-1.9 0.9c-3.9 2.3-10.7 1.7-14.5-1.7-1.4-0.9-2.7-1.8-4.1-2.8 1.5 0.7 3 1.5 4.4 2.3 4.3 2.6 9.8 3 14 0.4 1.4-0.8 2.9-1.4 4.2-1.5 1.5-0.4 5-0.3 7.2 0.7 0.8 0.3 1.7 0.8 2.4 1.1 2.7 1.6 6 2 9.1 1.2 3.1-0.9 5.9-2.9 8.8-4.2z"/><path class="j" d="m234.7 101.6c0 0.6 0 1.2-0.3 1.8-0.5 1.4-1.5 2.6-2.6 3.6-1.9 1.7-4.5 2.7-7.2 3.1q-2.1 0.4-4.2 0.4h-0.4q-0.1 0-0.1 0-2 0-3.8-0.4c-2.7-0.4-5.4-1.4-7.4-3.1-1.6-1.4-3-3.4-3-5.5q0-0.3 0.1-0.6 0-0.5 0.1-0.9c2.4-9.7 10-8.4 14.3-8.4 3.6 0.1 7.4-0.2 10.6 1.7 2.3 1.3 3.3 3.8 3.7 6.3 0.1 0.7 0.2 1.3 0.2 2z"/><path class="g" d="m234.8 101.5v0.1c0 2-1.4 4-3 5.4-1.9 1.7-4.5 2.7-7.2 3.2q-2.1 0.3-4.2 0.3h-0.4q-0.1 0-0.1 0-1.9 0-3.8-0.4c-2.7-0.4-5.4-1.4-7.4-3.1-1.6-1.4-3-3.4-3-5.4v-0.1q0-0.4 0.1-0.9 0-0.3 0.1-0.6c1.8-5.2 7.3-2.5 14.3-2.5 7 0 13.8-2.7 14.3 2.7q0.1 0.2 0.2 0.5 0.1 0.4 0.1 0.8z"/><path class="w" d="m215.7 104.3c-0.2 0.3-0.5 0.4-0.8 0.6-1.1 0.6-2.3 0.6-3.5 0.4-1.7-0.2-3.3-0.6-4.8-1.5 0.5 0.1 2.3 0.3 2.4-0.4 0.1-0.6-0.5-0.7-0.7-1.2-0.2-0.5 0.1-1.1 0.4-1.5 2-2.2 7.2-1.2 7.9 1.7 0.2 0.8-0.3 1.4-0.9 1.9z"/><path class="w" d="m224.6 104.3c0.3 0.3 0.6 0.4 0.9 0.6 1 0.6 2.3 0.6 3.5 0.4 1.7-0.2 3.3-0.6 4.8-1.5-0.5 0.1-2.4 0.3-2.4-0.4-0.1-0.6 0.4-0.7 0.6-1.2 0.3-0.5 0-1.1-0.3-1.5-2-2.2-7.2-1.2-7.9 1.7-0.3 0.8 0.2 1.4 0.8 1.9z"/><path class="x" d="m220.5 110.5h-0.5q-0.1 0-0.1 0-0.2 0-0.4 0c-0.4-2.8-0.2-7.2 0.6-8.7 0.7 1.5 0.9 5.9 0.4 8.7z"/><path class="g" d="m205.6 9.9q0 0.1 0 0.2 0 0.1 0 0.1 0 0.1 0 0.1 0 0.2-0.1 0.3-0.1 0.4-0.3 0.6-0.1 0.1-0.1 0.1-0.1 0.1-0.1 0.1c-0.6 0.4-1.3 0.7-2.1 0.8-0.7 0.2-1.4 0.3-2 0.4q-0.1 0.1-0.3 0.1-0.3 0.1-0.6 0.2c-1.4 0.5-2.7 1.2-3.7 2.2q-0.1 0.1-0.3 0.3-0.2 0.3-0.5 0.6-1.2 1.4-2.2 3-0.1 0-0.1 0.1 0 0 0 0-0.1 0.1-0.1 0.2-0.1 0.1-0.2 0.3-0.2 0.2-0.3 0.5-0.1 0.1-0.2 0.3-0.1 0.2-0.2 0.4-0.2 0.2-0.3 0.5-0.1 0.1-0.2 0.3-0.1 0.2-0.2 0.4-0.1 0.1-0.1 0.2-0.3 0.6-0.6 1.1 0 0.2-0.1 0.3-0.2 0.4-0.4 0.8-0.1 0.4-0.3 0.7-0.3 0.7-0.6 1.3-0.3 0.7-0.6 1.4-0.2 0.7-0.5 1.4-0.2 0.4-0.3 0.7-0.2 0.6-0.5 1.1-0.2 0.7-0.5 1.4-0.3 0.6-0.5 1.1-0.5 1.3-1 2.5-0.3 0.6-0.6 1.3-0.2 0.6-0.5 1.2-0.3 0.6-0.6 1.2-0.2 0.5-0.4 0.9-0.1 0.2-0.1 0.3-0.5 1-1 1.9-0.1 0.3-0.3 0.6-0.2 0.4-0.4 0.8-0.1 0.2-0.2 0.4-0.5 0.8-0.9 1.6-0.3 0.5-0.6 1-0.4 0.7-0.8 1.3-0.4 0.6-0.7 1.3-0.3 0.5-0.6 0.9-0.9 1.5-1.9 2.9-0.6 0.9-1.3 1.8-0.2 0.3-0.4 0.6-0.2 0.3-0.4 0.6-0.7 1-1.4 1.8-0.2 0.3-0.5 0.6-0.2 0.3-0.4 0.6-0.3 0.3-0.5 0.6-0.3 0.3-0.6 0.7-1.4 1.6-2.9 3.2c-3.6 3.7-8.6 8.9-14.3 6.7-0.4-0.1-0.7-0.2-0.9-0.5-0.5-0.6-0.4-1.3-0.4-2q0-0.1 0.1-0.2 0-0.1 0-0.2c1-16-9.5-30.2-8.7-46.2 0.1-1.8 0.3-3.7 1.3-5.3 1.3-2.1 4-3.4 6.6-4.3q2.5-0.9 5.1-1.5 1.9-0.5 3.8-1 0.4-0.1 0.7-0.1 1-0.2 2-0.5c1.9-0.4 3.9-0.8 5.9-1.3q1.2-0.3 2.5-0.8c3.6-1.3 7.2-3.4 10.8-4.4q0.7-0.2 1.4-0.4 0.4-0.1 0.8-0.1 0.1 0 0.2-0.1c5.1-0.7 11.4-0.2 16 1.9 1.9 0.8 3.7 2.1 4.6 3.8q0.1 0.2 0.2 0.4 0.1 0.3 0.2 0.7 0.2 0.6 0.2 1.2z"/><path class="i" d="m205.5 10.6q-0.1 0.4-0.3 0.6-0.1 0.1-0.1 0.1-0.1 0.1-0.1 0.1c-0.6 0.5-1.4 0.7-2.2 0.9-0.6 0.1-1.3 0.2-1.9 0.4q-0.2 0-0.3 0-0.3 0.1-0.6 0.2c-1.5 0.5-2.7 1.3-3.7 2.2q-0.1 0.2-0.3 0.3-0.3 0.3-0.5 0.6-1.2 1.4-2.2 3-0.1 0-0.1 0.1 0 0 0 0-0.1 0.1-0.1 0.2-0.1 0.2-0.3 0.3-0.1 0.3-0.2 0.5-0.1 0.2-0.2 0.3-0.1 0.2-0.2 0.4-0.2 0.2-0.3 0.5-0.1 0.1-0.2 0.3-0.1 0.2-0.2 0.4-0.1 0.1-0.1 0.2-0.3 0.6-0.6 1.1 0 0.2-0.1 0.3-0.2 0.4-0.4 0.8-0.1 0.4-0.3 0.7-0.3 0.7-0.6 1.3-0.3 0.7-0.6 1.4-0.3 0.7-0.5 1.4-0.2 0.4-0.3 0.7-0.3 0.6-0.5 1.1-0.3 0.7-0.5 1.4-0.3 0.6-0.5 1.1-0.5 1.3-1 2.5-0.3 0.7-0.6 1.3-0.2 0.6-0.5 1.2-0.3 0.6-0.6 1.2-0.2 0.5-0.4 0.9-0.1 0.2-0.2 0.4-0.4 0.9-0.9 1.9-0.1 0.2-0.3 0.5-0.2 0.4-0.4 0.8-0.1 0.2-0.2 0.4-0.5 0.8-0.9 1.7-0.3 0.4-0.6 0.9-0.4 0.7-0.8 1.3-0.4 0.7-0.8 1.3-0.2 0.5-0.6 1-0.8 1.4-1.8 2.8-0.6 0.9-1.3 1.8-0.2 0.3-0.4 0.6-0.2 0.4-0.5 0.7-0.6 0.9-1.3 1.7-0.2 0.4-0.5 0.6-0.2 0.3-0.4 0.6-0.3 0.3-0.5 0.6-0.3 0.3-0.6 0.7-1.4 1.6-2.9 3.2c-3.6 3.7-8.6 8.9-14.3 6.8-0.4-0.2-0.7-0.3-0.9-0.6-0.5-0.5-0.4-1.3-0.4-2q0-0.1 0-0.2c0.2 0.2 0.6 0.7 0.6 0.7 0.4 0.5 0.9 0.7 1.4 0.9 3.5 1.2 6.8-1.7 9.4-3.8 2.7-2.2 5.1-4.9 7.4-7.5 2.3-2.5 4.7-4.9 6.7-7.7q0.4-0.6 0.8-1.2c2.8-4.2 4.7-8.7 6.4-13.2q2.6-6.9 4.8-13.9c1.3-4.2 3.1-7.5 6.1-11 1.2-1.4 2.9-2.7 4.9-3.3 1.9-0.5 4.3 0.4 5 2q0.1 0.3 0.1 0.5z"/><path class="g" d="m235 10.6q0 0.1 0 0.2 0 0.1 0.1 0.1 0 0.1 0.1 0.2 0.1 0.3 0.3 0.5 0.1 0 0.1 0 0.1 0.1 0.1 0.1c0.6 0.3 1.3 0.5 2.1 0.6 0.7 0.1 1.4 0.2 2 0.3q0.1 0 0.3 0 0.3 0.1 0.6 0.2c1.4 0.3 2.6 0.8 3.7 1.5q0.1 0.1 0.2 0.2 0.3 0.2 0.6 0.4 1.2 1 2.2 2.2 0 0 0.1 0 0 0 0 0.1 0.1 0 0.1 0.1 0.1 0.1 0.2 0.2 0.2 0.2 0.3 0.3 0.1 0.2 0.2 0.3 0.1 0.1 0.2 0.2 0.2 0.2 0.3 0.4 0.1 0.1 0.1 0.2 0.2 0.2 0.3 0.3 0 0.1 0.1 0.1 0.3 0.4 0.5 0.8 0.1 0.1 0.2 0.2 0.2 0.3 0.4 0.6 0.1 0.2 0.3 0.5 0.3 0.4 0.5 0.9 0.3 0.5 0.6 1 0.3 0.5 0.6 0.9 0.2 0.3 0.3 0.5 0.2 0.4 0.5 0.8 0.2 0.5 0.5 1 0.2 0.4 0.5 0.8 0.5 0.9 1 1.7 0.3 0.5 0.5 0.9 0.3 0.5 0.6 0.9 0.3 0.4 0.5 0.9 0.2 0.3 0.5 0.6 0 0.1 0.1 0.2 0.5 0.7 1 1.3 0.1 0.2 0.2 0.4 0.2 0.3 0.5 0.6 0.1 0.2 0.2 0.3 0.4 0.6 0.9 1.1 0.3 0.4 0.6 0.7 0.3 0.5 0.7 0.9 0.4 0.5 0.8 0.9 0.3 0.4 0.6 0.7 0.9 1 1.9 2 0.6 0.7 1.2 1.3 0.3 0.2 0.5 0.4 0.2 0.2 0.4 0.5 0.7 0.6 1.4 1.2 0.2 0.2 0.4 0.4 0.3 0.3 0.5 0.4 0.2 0.3 0.5 0.5 0.3 0.2 0.6 0.4 1.4 1.2 2.9 2.3c3.6 2.6 8.6 6.3 14.3 4.8 0.3-0.1 0.7-0.3 0.9-0.5 0.4-0.3 0.4-0.8 0.3-1.3q0-0.1 0-0.2 0-0.1 0-0.1c-1-11.3 9.5-21.3 8.7-32.5-0.1-1.3-0.3-2.6-1.3-3.8-1.4-1.5-4-2.4-6.6-3q-2.5-0.6-5.1-1.1-1.9-0.4-3.9-0.7-0.3 0-0.7-0.1c-3.9-0.6-7.6-1.3-11.2-3.1-3.4-1.6-6.7-3.7-10.4-4.9-4.7-1.4-9.9-1.1-14.5 0.6-2.8 1.1-8.7 3.9-8.6 7.7z"/><path class="i" d="m235.2 11.1q0.1 0.3 0.3 0.5 0 0 0.1 0 0 0.1 0.1 0.1c0.6 0.3 1.3 0.5 2.1 0.6 0.7 0.1 1.4 0.2 2 0.3q0.1 0 0.3 0 0.3 0.1 0.5 0.2c1.5 0.3 2.7 0.8 3.8 1.5q0.1 0.1 0.2 0.2 0.3 0.2 0.6 0.4 1.2 1 2.2 2.2 0 0 0.1 0 0 0 0 0.1 0 0 0.1 0.1 0.1 0.1 0.2 0.2 0.2 0.2 0.3 0.3 0.1 0.2 0.2 0.3 0.1 0.1 0.2 0.2 0.1 0.2 0.3 0.4 0.1 0.1 0.1 0.2 0.2 0.2 0.3 0.3 0 0.1 0.1 0.1 0.3 0.4 0.5 0.8 0.1 0.1 0.2 0.2 0.2 0.3 0.3 0.6 0.2 0.2 0.4 0.5 0.3 0.4 0.5 0.9 0.3 0.5 0.6 1 0.3 0.5 0.6 0.9 0.1 0.3 0.3 0.5 0.2 0.4 0.4 0.8 0.3 0.5 0.6 1 0.2 0.4 0.5 0.8 0.5 0.9 1 1.7 0.3 0.5 0.5 0.9 0.3 0.5 0.6 0.9 0.2 0.4 0.5 0.9 0.2 0.3 0.5 0.6 0 0.1 0.1 0.2 0.5 0.7 0.9 1.3 0.2 0.2 0.3 0.4 0.2 0.3 0.4 0.6 0.1 0.2 0.3 0.3 0.4 0.6 0.9 1.1 0.3 0.4 0.6 0.7 0.3 0.5 0.7 0.9 0.4 0.5 0.8 0.9 0.3 0.4 0.6 0.7 0.9 1 1.9 2 0.6 0.7 1.2 1.3 0.2 0.2 0.5 0.4 0.2 0.2 0.4 0.5 0.7 0.6 1.4 1.2 0.2 0.2 0.4 0.4 0.3 0.3 0.5 0.4 0.2 0.3 0.5 0.5 0.3 0.2 0.5 0.4 1.4 1.2 3 2.3c3.6 2.6 8.6 6.3 14.3 4.8 0.3-0.1 0.7-0.3 0.9-0.5 0.4-0.3 0.4-0.8 0.3-1.3q0-0.1 0-0.2c-0.2 0.2-0.5 0.5-0.5 0.5-0.4 0.3-0.9 0.5-1.4 0.6-3.6 0.9-6.8-1.2-9.4-2.6-2.7-1.6-5.1-3.5-7.5-5.3-2.3-1.8-4.6-3.5-6.6-5.4q-0.5-0.5-0.9-0.9c-2.7-2.9-4.6-6.1-6.3-9.3q-2.7-4.8-4.9-9.8c-1.3-2.9-3-5.3-6-7.7-1.3-1-3-1.9-4.9-2.3-1.9-0.4-4.3 0.2-5 1.4q-0.1 0.2-0.1 0.3z"/></svg>