<svg version="1.2" xmlns="http://www.w3.org/2000/svg" viewBox="0 0 470 470" width="470" height="470"><style>.a{fill:#ca9e67}.b{fill:#634e42}.c{mix-blend-mode:multiply;fill:#ca9e67}.d{fill:#f7f7eb}.e{mix-blend-mode:multiply;fill:#f7f7eb}.f{fill:#3c3c3b}.g{fill:#aa692b}.h{mix-blend-mode:multiply;fill:#9d9d9c}.i{fill:#e8b47c}.j{fill:#b17f4a}.k{mix-blend-mode:multiply;fill:#dadada}.l{fill:#fff}.m{fill:#efa543}.n{fill:#4da7bc}.o{fill:none;stroke:#1d1d1b;stroke-width:1.1}.p{fill:#a06013}.q{fill:#683539}.r{mix-blend-mode:multiply;fill:#683539}.s{fill:#f6f6f6}.t{fill:#b2b2b2}.u{fill:#1d1d1b}.v{fill:#575756}.w{mix-blend-mode:multiply;fill:#3c3c3b}</style><path class="a" d="m409.2 326q0.6 0 1.2-0.1 1-0.1 1.9-0.1c-0.7 0-4.3 7.1-5.1 8.2-2.6 4.3-5 8.4-8.3 12.1 3 0.8 5.6-0.6 8.2-2.1q-0.5 1.1-1.1 2.2c-2.3 4.2-4.6 7.3-8 10.3q-0.8 0.8-1.7 1.5c-3.5 2.8-7.4 5.3-11.6 7-0.8 0.4-9.6 4-9.3 4.2q1.3 1.4 2.6 2.7-3.5 0.1-7-0.1 2.1 1.4 4.1 2.8-5.4 0.1-10.8-0.3c-4.6-0.4-10.7-0.3-14.9-2.5q5.9 3.1 11.8 6.2c-8.7 2-17.7 1.8-26.2-0.5-1.6-0.4-3.1-0.9-4.7-1.4q6.2 2.8 12.4 5.7c-17.4 1.3-35.2-3.8-50.3-14.5 1.5 3.2 3 6.4 4.4 9.6-11.2-5.4-22-12.4-32-20.7 1.2 4.3 3 8.4 5.4 11.9-9.8-6.7-66.9-44.2-57.1-61.8q0.5-0.9 1.3-1.8c1.7-1.9 4.1-3.1 6.5-3.6q0.5-0.1 1.1-0.1 0.4 0 0.8-0.1 1.4 0 2.9 0.3 0.7 0.1 1.3 0.3 0.7 0.2 1.4 0.4 1 0.4 2 0.7 1 0.5 2 0.9 0.7 0.4 1.4 0.7 1 0.5 2 1.1 1 0.5 2 1.1 0.6 0.3 1.3 0.7 1 0.5 1.9 1 0.7 0.4 1.3 0.7 0.6 0.3 1.2 0.6 0.3 0.2 0.6 0.3c8.6 3.9 17.3 7.5 26.1 10.9q3.5 1.4 7 2.8 0.6 0.3 1.4 0.6c2.6 1 5.2 2 7.8 3q0.3 0.2 0.6 0.3c5.1 1.9 10.3 3.8 15.5 5.6q0.8 0.2 1.7 0.5c0.4 0.1 0.9 0.3 1.3 0.4q1.2 0.4 2.5 0.8 3.8 1.2 7.7 2.1c8.8 2.2 17.6 3.6 26.4 3.5 12.5-0.1 24.8-2.9 36.9-6.9q1.8-0.6 3.5-1.3c4.8-1.7 9.5-3.5 14.2-5.5 5.4-2.2 10.9-5.9 16.5-7-0.6 0.1-3.4 5.7-4 6.7z"/><path class="b" d="m409.2 326q0.6 0 1.2-0.1 1-0.1 1.9-0.1c-0.7 0-4.3 7.1-5.1 8.2-2.6 4.3-5 8.4-8.3 12.1 3 0.8 5.6-0.6 8.2-2.1q-0.5 1.1-1.1 2.2c-2.3 4.2-4.6 7.3-8 10.3q-0.6 0.5-1.3 0.9c0.8-2.2 2-4.2 3.5-6.1q-4.3 0.5-8.6 1 1.8-3.7 3.5-7.5c-4.2-0.1-6.7 1.2-10.7 2-2.8 0.5-9.5-1.8-11.2-1 3.4-1.5 6.4-3.9 8.7-6.9-2.4-0.4-4.8-0.4-7.2-0.1 2.7-2.1 5.3-4.4 7.8-6.9 4.8-1.7 9.5-3.6 14.2-5.5 5.4-2.3 10.9-6 16.5-7-0.6 0.1-3.4 5.7-4 6.7z"/><path class="c" d="m412.3 325.8c-0.7 0-4.4 7.1-5.1 8.3-2.6 4.2-5 8.3-8.3 12 3 0.8 5.6-0.6 8.2-2.1q-0.6 1.1-1.1 2.2c-2.7 4.8-5.3 8.3-9.7 11.8-3.5 2.8-7.4 5.3-11.6 7-0.8 0.4-9.6 4-9.4 4.2q1.4 1.4 2.7 2.7-3.5 0.1-7-0.1 2.1 1.4 4.1 2.8-5.4 0.2-10.8-0.3c-4.6-0.4-10.7-0.3-14.9-2.5q5.9 3.1 11.8 6.2c-8.7 2-17.7 1.8-26.3-0.5-1.5-0.4-3-0.9-4.6-1.4q6.2 2.9 12.4 5.7c-17.5 1.3-35.2-3.8-50.3-14.5 1.5 3.2 2.9 6.4 4.4 9.6-11.3-5.4-22-12.4-32-20.7 1.2 4.3 3 8.4 5.4 11.9-9.8-6.7-66.9-44.2-57.1-61.8q0.5-0.9 1.2-1.7c1.9-1.9 4.1-3.2 6.6-3.6q0.5-0.1 1.1-0.2 0.4 0 0.8 0 1.4-0.1 2.9 0.2 0.7 0.1 1.3 0.3 0.7 0.2 1.4 0.4 1 0.4 2 0.8 1 0.4 2 0.9 0.7 0.3 1.4 0.6 1 0.6 2 1.1 1 0.5 2 1.1 0.6 0.4 1.3 0.7 0.9 0.6 1.9 1.1 0.7 0.3 1.3 0.6 0.6 0.3 1.2 0.6 0.3 0.2 0.6 0.3c8.6 3.9 17.3 7.5 26.1 11q3.4 1.3 7 2.7 0.6 0.3 1.3 0.6c2.7 1 5.3 2 7.9 3.1q0.3 0.1 0.6 0.2c4.7 1.8 10.1 4.2 15.5 5.6q0.8 0.2 1.7 0.5c0.4 0.1 0.9 0.3 1.3 0.4q1.2 0.4 2.5 0.8 3.8 1.2 7.7 2.1c4.7 11.4 11.3 21.6 21.7 28.7-0.6-0.4-1.6-4.4-1.6-5.1 13 2.8 25.7 4.1 39 1.6 6.1-1.2 10.2-3.5 15.4-7-3.4 0.6-6.5 0.9-9.9 1.1 4.2-2.2 8.4-4.4 12.3-7.3 3.8-2.8 7.2-6.3 9.4-10.5-1.7 0.6-3.7 1.6-5.4 0.9 5-4 9.5-8.3 13.8-13q1-0.1 1.9-0.2z"/><path class="a" d="m201.4 333.6c0 0.5-0.1 1.4-0.2 2.4q-0.1 1.2-0.3 2.7c-0.6 4.5-1.8 8.6-3 12.8-0.7 2.1-1.4 4.4-2.3 6.7-1.2 3.3-2.8 6.3-4.7 9.3-1.4 2.5-3.3 4.5-5 6.8q-1.1 1.4-2.1 2.9-0.1 0.2-0.3 0.5-1.1 1.7-2.2 3.5-1.1 1.9-2.1 3.9c-4.6 9.1-0.2 18.7 6.5 25-0.6 0.1-1.2 0-1.7-0.2q1.1 1.6 2.3 3.1c-0.5 0.2-1.1 0.1-1.5-0.1 0.7 1.5 1.2 3.2 1.1 4.9q0 0.8-0.2 1.5-0.1 0.4-0.3 0.7-0.3 0.6-0.9 1.3c-4.7 5.2-10.8 12.9-8.1 20.6 1.9 5.2 6 12.2 3.5 17.9-3.7 8.4-15.7 6.9-23 6.8q-3.3 0-6.6-0.1h-0.4q-0.8 0-1.6-0.1c-0.3 0-0.7 0-1 0q-0.2 0-0.5 0-2.1-0.1-4.3-0.2-4.2-0.1-8.4-0.4c-0.1 0-0.4 0-0.5 0 0 0-0.2 0-0.2 0q-0.6 0-1.2 0-0.8-0.1-1.6-0.1-0.4 0-0.9-0.1c-3.1-0.1-7.1-0.4-10.6-1.2q-0.7-0.2-1.4-0.4-0.7-0.2-1.5-0.4-1.5-0.5-2.7-1.2c-2.6-1.5-4.1-3.6-3.7-6.6q0.2-1.3 0.9-2.8-0.8 0.1-1.6 0.1c0.6-1.4 1.6-2.8 2.8-3.8q-1.1 0-2.2-0.1c2.9-5.3 9.7-3.9 14.5-3 6.6 1.3 11.5-5 16.4-8.7 5.5-4.2 11.1-8.7 15-14.5-1-0.3-2-0.1-2.8 0.4 1.8-1.2 2.8-5.3 2.6-7.2q-0.1-0.8-0.4-1.4c-0.6-1.8-2.1-3.3-3.4-4.7-2.1-2-4.5-3.7-7-5.4-2.4-1.6-5-3.2-7.4-4.8q-0.7-0.5-1.4-1-1.3-0.9-2.6-1.9-2.5-1.9-4.8-4c-2-1.8-3.8-3.8-5.6-5.9q-1.4-1.7-2.6-3.6c-3.5-5.7-5.6-12.7-5.2-19.1 0.3-5.2 2.4-9.8 4.9-14.3q-1 0.4-2 0.8 1.9-2.9 3.9-5.8-1.1 0.1-2.1 0.3c5.5-5.8 8.3-14 12.8-20.6 2.7-4.1 5.7-7.9 8.7-11.7 4.7-6 10.3-11.5 12.6-18.8 0.8-2.5 5-13.7 3.4-15.9 6.5 8.7 17.6 15.9 25.3 23.8q0.2 0.2 0.3 0.3c2.4 2.5 4.8 4.9 7 7.5 6.2 7.1 10 13.9 11.6 23.3q0 0.1 0 0.3z"/><path class="c" d="m155 414.8c-0.7-1.8-2.1-3.4-3.4-4.7-2.1-2-4.5-3.7-7-5.4-2.4-1.8-4.9-3.2-7.4-4.8q-0.7-0.5-1.4-1-1.3-0.9-2.6-2-2.5-1.9-4.8-4c-2-1.7-3.8-3.7-5.7-5.9q-1.3-1.6-2.5-3.5c2 1.7 4.1 3.5 6.2 5.2 2.7 2.1 5.7 3.9 8.5 6 3.5 2.8 7.2 5.4 10.8 8.1q0.6 0.3 1.1 0.7c3 2.6 6.7 4.9 7.9 8.9 0.2 0.7 0.3 1.6 0.3 2.4z"/><path class="c" d="m184.5 421.3c-4.8 5.2-10.8 12.9-8.1 20.6 1.9 5.3 6 12.2 3.5 17.9-3.8 8.4-15.7 6.9-23 6.8q-3.3 0-6.6-0.1h-0.4q-0.8 0-1.6-0.1c-0.3 0-0.7 0-1 0q-0.2 0-0.5 0-2.1-0.1-4.3-0.2-4.2-0.1-8.4-0.3c-0.2-0.1-0.4-0.1-0.5-0.1q-0.1 0-0.2 0-0.6 0-1.2-0.1-0.9 0-1.7-0.1-0.5 0-0.9-0.1c-3.5-0.3-7-0.8-10.4-1.4q-0.8-0.1-1.5-0.2-0.7-0.2-1.5-0.3-1.2-0.2-2.4-0.5c0 0-0.1 0-0.1-0.1q0 0 0 0-0.1-0.3-0.2-0.6c-2.6-1.4-4.1-3.5-3.7-6.6 0.9 1 2 2 3.3 2.8 1.7 1 3.5 1.7 5.2 1.9q0.2 0.1 0.4 0.1 1.5 0.2 3.1 0.2c1.9 0 3.9-0.1 5.9-0.2q1.8 0 3.7 0.1 0.7 0 1.5 0 1.6 0.1 3.2 0.2 4.2 0.2 8.2 0.3 0.2 0 0.3 0 2.5 0.1 5.2 0.2 1.1 0 2.3 0 1 0 2.1 0c7.3 0.1 19.2 1.7 22.9-6.8 2.5-5.7-1.5-12.6-3.4-17.9-1.5-4-0.7-8.5 1.7-12 1.5-2.3 7.8-8.5 10-4.7q-0.3 0.7-0.9 1.3z"/><path class="c" d="m201.4 333.6c0 0.5-0.1 1.4-0.2 2.4q-0.1 1.2-0.3 2.7c-0.6 4.5-1.8 8.6-3 12.8-0.7 2.1-1.4 4.4-2.3 6.7-1.2 3.3-2.8 6.3-4.7 9.3-1.4 2.5-3.3 4.5-5 6.8q-1.1 1.4-2.1 2.9-0.1 0.2-0.3 0.5-1.2 1.6-2.2 3.5-1.1 1.9-2.1 3.9c-4.6 9.1-0.2 18.7 6.5 25-0.6 0.1-1.2 0-1.7-0.2q1.1 1.6 2.3 3.1c-0.5 0.2-1.1 0.1-1.5-0.1 0.7 1.5 1.2 3.2 1.1 4.9-0.2 0.6-0.3 1.1-0.2 1.5-0.3-2-0.9-4-1.7-6-4.2-11.1-13.2-22.1-7.5-33.3 2.5-5.1 4-10 5.6-15.4q-1 0.5-2 0.9 0.8-2.6 1.9-5-0.6 0.3-1.1 0.6c4.4-8.4-2.7-18.3-8.3-24.2-2.9-3-5.4-7.2-5.4-11.5 0.1-4.9 1.4-9.2 3.8-13.5 2.4-4 7.8-7 11.8-9.4 2.4 2.4 4.8 4.9 7 7.5 6.2 7.1 10 13.9 11.6 23.3q0 0.1 0 0.3z"/><path class="d" d="m154.5 455.1c0.3 0.2 0.5 0.4 0.5 0.4q-0.4 0.1-0.8 0.1c2.4 0.3 1.9 3 0.4 4.1-0.8 0.6-1.9 1-2.7 1.7-2.3 2-2.2 5.6-1.9 8.6-1.9-2-3.9-4.1-5-6.6-1.1-2.6-1.2-5.8 0.5-8 1.2-1.5 3.2-2.2 5.1-2 0.9 0 1.8 0.3 2.6 0.7 0.1 0.1 0.8 0.7 1.3 1z"/><path class="e" d="m144.3 460.3c0.7 2.7 2.3 5.1 3.9 7.4 0.2-3 0.7-6.5 3.3-8.1 0.9-0.6 2-0.8 2.9-1.3 0.6-0.3 1.1-0.9 1.4-1.5 0.2 1-0.3 2.2-1.2 2.9-0.8 0.6-1.9 1-2.7 1.7-2.3 2-2.2 5.6-1.9 8.6-1.9-2-3.9-4.1-5-6.6-0.5-1.1-0.8-2.3-0.8-3.5q0 0.2 0.1 0.4z"/><path class="d" d="m138 459.7c-0.8 0.6-1.8 1-2.6 1.7-2.3 2-2.2 5.6-1.9 8.6-2-2-4-4.1-5.1-6.6-1.1-2.6-1.2-5.8 0.6-8 1.1-1.1 1.5-1.4 3.1-1.7q-0.3 0.5-0.4 1.1c1.1-0.7 1.9-1.6 3.2-1.3 0.3 0 3.1 1.3 3 1.5q-0.2 0.2-0.3 0.3c2.2 1 2.4 2.9 0.5 4.4z"/><path class="e" d="m132.3 467.5c-0.3-3-0.4-6.6 1.9-8.6 0.8-0.7 1.8-1.1 2.6-1.7q1-0.8 1.3-1.6c1.7 1 1.7 2.7-0.1 4.1-0.8 0.6-1.8 1-2.6 1.7-2.3 2-2.2 5.6-2 8.6-1.9-2-3.9-4.1-5-6.6q-0.2-0.5-0.3-0.9c1.1 1.8 2.6 3.4 4.2 5z"/><path class="d" d="m123.5 459.7c-0.6 0.4-1.2 0.7-1.7 1-0.4 0.3-0.7 0.5-1 0.7-0.8 0.8-1.3 1.7-1.6 2.7q-0.1 0.1-0.1 0.3c-0.5 1.7-0.4 3.7-0.2 5.6-2-2-3.9-4.1-5.1-6.6q0-0.1-0.1-0.3 0 0 0-0.1 0 0 0 0-0.1-0.3-0.2-0.6c-0.4-1.3-0.6-2.6-0.4-3.8 0.1-1.2 0.5-2.2 1.3-3.2 1.1-1.3 2.3-1.6 3.9-1.8 0.4 0.1 0.9 0.1 1.3-0.1q-0.3 0.5-0.7 1.1c1.3-0.3 2.6-0.7 3.8-0.1q0.5 0.3 1 0.8 0.2 0.2 0.4 0.4 0.2 0.2 0.3 0.4 0.1 0.2 0.2 0.4 0.1 0.2 0.2 0.5c0.2 1.1-0.5 2.1-1.3 2.7z"/><path class="e" d="m123.5 459.7c-0.6 0.4-1.2 0.7-1.7 1-0.4 0.3-0.7 0.5-1 0.7-0.8 0.8-1.3 1.7-1.6 2.7q-0.1 0.1-0.1 0.3c-0.5 1.7-0.4 3.7-0.2 5.6-2-2-3.9-4.1-5.1-6.6q0-0.1-0.1-0.3 0 0 0-0.1 0 0.1 0.1 0.1c1.1 1.7 2.6 3.3 4 4.8-0.1-1.3-0.2-2.6-0.1-3.9q0-0.1 0-0.2c0.1-1.1 0.4-2.3 1-3.2q0.4-0.7 1-1.3c0.8-0.7 1.8-1.1 2.7-1.7 0.7-0.6 1.3-1.5 1.4-2.3q0.2 0.1 0.3 0.3 0.2 0.2 0.3 0.5 0.1 0.1 0.2 0.3 0.1 0.3 0.2 0.6c0.2 1-0.5 2.1-1.3 2.7z"/><path class="f" d="m325.8 458.3v0.1c0 1-0.2 2-0.7 2.9q-0.1 0.2-0.2 0.4c-1.6 2.3-4.9 3-7.7 3.5q-0.6 0.1-1.2 0.2c-3.5 0.6-7 0.4-10.6 0.4q-1 0-2.1 0-0.3 0-0.6 0-2.8 0.2-5.7 0.3-1.9 0.1-3.8 0.2-1.3 0-2.6 0.1-5.3 0.1-10.7 0.2-1.3 0-2.7 0-0.3 0-0.6-0.1-0.4 0.1-0.8 0c-0.3 0-0.6 0-0.9 0q-0.7 0-1.4-0.1-0.2 0-0.3 0-1.1 0-2.3-0.2c-0.4 0-0.7 0-1.1-0.1q-0.1 0-0.1 0c-2.9-0.3-5.8-0.8-8.3-1.6-3.5-1.2-5.9-2.9-6.1-6.7-0.5-6.3 3.1-10.4 5.1-15.9 3.1-8.3-4.9-14.9-9.2-20.4q-0.5-0.6-0.8-1.4 0 0 0 0 0-0.1-0.1-0.2-0.4-1.2-0.4-2.4 0-0.4 0-0.7 0.1-0.8 0.3-1.5c0.5-2 1.4-3.8 2.5-5.5q0-0.1 0-0.1c2.3-3.8 5.3-7.4 6.3-11.8q0-0.2 0.1-0.5c0.4-1.7 0.7-3.6 0.5-5.5q0-0.4 0-0.8c-0.3-1.9-0.9-3.9-1.9-6q-0.4-0.8-0.9-1.6c-3.6-6.6-8.9-11.8-12.7-18.4-1.3-2.1-2.3-4.3-3.2-6.6-2.1-5.4-3.3-11.1-3.1-16.9 0.2-7.6-1.6-14.9 2.1-21.9 1.4-2.6 3.2-5.1 5.2-7.5 2.9-3.5 6.3-6.8 9.4-10 7.7-8 18.8-15.2 25.3-23.8-1 1.4 0.2 4.1 0.4 5.6 0.5 2.8 0.5 5.6 1.2 8.3 1.5 6.4 5.3 11.1 9.6 15.6 3 3 6.1 5.9 8.9 9.1 2.4 2.8 4.4 5.9 6.6 8.9q1.1 1.7 2.5 3.4-1 0-2-0.1 0.8 1 1.6 2.1c3.2 4.6 5.2 10 7 15.4 0.6 1.7 1.1 3.5 1.7 5.3 1.3 4.2 2.4 8.7 2.4 12.8 0.5 3.7 0.3 7.1-0.8 10.4q-1 2.9-2.9 5.5-0.7 0.9-1.3 1.8c-3.3 4.2-6.7 8.1-10.8 11.6q-2 1.7-4 3.4-2.9 2.4-5.9 4.8-0.8 0.6-1.6 1.2-0.3 0.4-0.7 0.6-0.4 0.3-0.7 0.6c-1.5 1.2-2.8 2.3-4 3.6q-0.7 0.6-1.3 1.2-0.5 0.7-1.1 1.3-0.5 0.7-1 1.3c-2.7 3.8-2.8 6.5 0.5 11.4-0.8 0-1.5-0.3-2.2-0.7 1.3 0.8 2.6 3.8 3.7 5 1.5 1.4 3.1 2.7 4.6 4.1 3 2.6 6.2 5.1 9.5 7.3 3 2 5.7 5.3 9.5 5.5 2.1 0.2 4.3-0.6 6.4-0.5 2.5 0.2 4.7 1.7 6.3 3.6 0.7 0.9 1.3 1.8 1.7 2.8 0.6 1.2 1.1 2.5 1.5 3.8 0.2 0.7 0.4 1.5 0.5 2.2q0.2 0.9 0.2 1.7z"/><path class="g" d="m325.8 458.3v0.1c0 1-0.2 2-0.7 2.9q-0.1 0.2-0.2 0.4c-1.6 2.3-4.9 3-7.7 3.5q-0.6 0.1-1.2 0.2c-3.5 0.6-7 0.4-10.6 0.4q-1 0-2.1 0-0.3 0-0.6 0-2.8 0.2-5.7 0.3-1.9 0.1-3.8 0.2-1.3 0-2.6 0.1-5.3 0.1-10.7 0.2-1.3 0-2.7 0-0.3 0-0.6-0.1-0.4 0.1-0.8 0c-0.3 0-0.6 0-0.9 0q-0.7 0-1.4-0.1-0.2 0-0.3 0-1.1 0-2.3-0.2c-0.4 0-0.7 0-1.1-0.1q-0.1 0-0.1 0c-2.9-0.3-5.8-0.8-8.3-1.6-3.5-1.2-5.9-2.9-6.1-6.7-0.5-6.3 3.1-10.4 5.1-15.9 3.1-8.3-4.9-14.9-9.2-20.4q-0.5-0.6-0.8-1.4 0 0 0 0 0-0.1-0.1-0.2-0.4-1.2-0.4-2.4 0-0.4 0-0.7c0.3-2.4 1.7-4.7 2.8-7q0-0.1 0-0.1c2.3-3.8 5.3-7.4 6.3-11.8q0-0.2 0.1-0.5c0.4-1.7 0.6-3.6 0.5-5.5q0-0.4-0.1-0.8c-0.2-1.9-0.8-3.9-1.8-6q-0.4-0.8-0.9-1.6c-3.6-6.6-8.9-11.8-12.7-18.4-1.3-2.1-2.4-4.3-3.2-6.6 0.8-3 2-6 3.6-8.7 5.7-10.1 20.9-23.6 33-15.3 18.3 12.6 27.7 40.5 22.7 61.7q-0.1 0.6-0.3 1.3-2.9 2.4-5.9 4.8-0.8 0.6-1.5 1.2-0.4 0.4-0.8 0.6-0.4 0.3-0.7 0.6c-1.5 1.2-2.8 2.3-4 3.6q-0.7 0.6-1.2 1.2-0.6 0.7-1.2 1.3-0.5 0.7-1 1.3c-2.7 3.8-2.8 6.5 0.5 11.4-0.8 0-1.5-0.3-2.2-0.7 1.3 0.8 2.6 3.8 3.7 5 1.5 1.4 3.1 2.7 4.6 4.1 3.1 2.6 6.2 5.1 9.5 7.3 3 2 5.7 5.3 9.5 5.5 2.1 0.2 4.3-0.6 6.4-0.5 2.5 0.2 4.7 1.7 6.3 3.6 0.7 0.9 1.3 1.8 1.8 2.8 0.5 1.3 1 2.5 1.4 3.8 0.2 0.7 0.4 1.5 0.5 2.2q0.2 0.9 0.2 1.7z"/><path class="h" d="m318.9 375.2q-1 2.9-2.9 5.6c-3.6 4.9-7.4 9.4-12 13.3q-5 4.2-10 8.2-0.8 0.7-1.5 1.3-0.4 0.3-0.8 0.6-0.4 0.3-0.7 0.6c-1.4 1.1-2.8 2.3-4 3.5q-0.6 0.6-1.2 1.2-0.6 0.7-1.2 1.4c-0.3 0.4-0.6 0.9-1 1.4q0-0.1 0-0.1c0.1-0.6 0.3-1.1 0.5-1.7 2.8-6.4 6.9-9.5 12.1-13.9 4.2-3.5 8.3-7.1 12.4-10.8 1.4-1.4 2.7-3 4-4.5 0.2-0.2 0.4-0.4 0.7-0.4 0.2 0 0.3 0.2 0.2 0.4q2.5-3.2 5.4-6.1z"/><path class="h" d="m252.7 411.8c-1.2 2.6-2.1 5.3-2.4 8.2-0.5-1.5-0.5-3.2-0.1-4.7 1.7-6.2 7.3-10.9 8.8-17.4q0-0.2 0.1-0.4c0.5-1.8 0.7-3.6 0.5-5.5q0-0.4 0-0.8c-0.2-2-0.8-4-1.9-6-3.7-7.4-9.5-13-13.6-20-4.2-7.1-6.5-15.3-6.3-23.6 0.3-7.5-1.5-14.8 2.2-21.8 1.4-2.7 3.1-5.1 5.1-7.5 1.4-1.3 2.9-2.3 4.5-3.1 4.4-2 9.4-2.5 14.3-1.1 0.9 0.3 1.9 0.6 2.8 1.1q0 0.1 0.1 0.1 0.6 0.3 1.2 0.7c2.2 1.4 3.9 3.2 4.8 5.6 2.4 6.6-4.3 17.3-8.1 22.7-2.7 3.9-6.1 6.7-8 11.3-1.9 4.6-2.5 9.4-1.8 14.2q0.6-0.8 1.2-1.6c-0.2 5.4 1.5 10.2 3.5 15.1 1.3 3.1 4 7.3 3.9 10.9-0.4 8.8-7.2 15.9-10.8 23.6z"/><path class="h" d="m325.8 458.3v0.1c0 1.2-0.2 2.3-0.9 3.3-1.5 2.3-4.9 3-7.7 3.5q-0.6 0.1-1.2 0.2c-3.5 0.6-7 0.4-10.6 0.4q-1 0-2.1 0-0.3 0-0.6 0-2.8 0.2-5.7 0.3-1.9 0.1-3.8 0.2-1.3 0-2.6 0.1-5.3 0.1-10.7 0.2-1.3 0-2.7 0-0.3 0-0.6-0.1c-0.3 0-0.5 0-0.8 0-0.3 0-0.6 0-0.9 0q-0.7 0-1.4-0.1-0.2 0-0.3 0-1.1 0-2.3-0.2c-0.4 0-0.7 0-1.1-0.1q-0.1 0-0.1 0c-2.9-0.3-5.8-0.8-8.3-1.6-3.5-1.2-5.9-2.9-6.1-6.7-0.5-6.3 3.1-10.4 5.1-15.9 3.1-8.3-4.9-14.9-9.2-20.4q-0.5-0.6-0.8-1.4 0 0 0 0c-0.9-2.6 6.3-1.1 7.1-0.7 4.3 2.1 6.5 7.1 7 11.6 0.2 1.8 0 3.4-0.4 5.1-1 3.7-3.1 7.3-4.1 11.1-0.5 1.7-0.9 3.5-0.7 5.3 1 9 17 8.4 23.5 8.3q10.8-0.1 21.7-0.7c7.8-0.5 14.8-2.4 19.2-9.5 0.5 1.3 1 2.5 1.4 3.8 0.2 0.7 0.4 1.5 0.5 2.2q0.2 0.9 0.2 1.7z"/><path class="d" d="m282.5 455.1c-0.3 0.2-0.4 0.4-0.4 0.4q0.3 0.1 0.7 0.1c-2.3 0.3-1.8 3-0.4 4.1 0.9 0.6 1.9 1 2.7 1.7 2.3 2 2.2 5.6 1.9 8.6 2-2 3.9-4.1 5.1-6.6 1.1-2.6 1.2-5.8-0.6-8-1.2-1.5-3.2-2.2-5.1-2-0.9 0-1.7 0.3-2.5 0.7-0.2 0.1-0.9 0.7-1.4 1z"/><path class="e" d="m292.8 460.3c-0.7 2.7-2.3 5.1-3.9 7.4-0.2-3-0.7-6.5-3.3-8.1-0.9-0.6-2-0.8-2.9-1.3-0.6-0.3-1.2-0.9-1.4-1.5-0.3 1 0.3 2.2 1.1 2.9 0.9 0.6 1.9 1 2.7 1.7 2.3 2 2.2 5.6 1.9 8.6 2-2 3.9-4.1 5.1-6.6 0.4-1.1 0.7-2.3 0.8-3.5q-0.1 0.2-0.1 0.4z"/><path class="d" d="m299 459.7c0.9 0.6 1.9 1 2.7 1.7 2.3 2 2.2 5.6 1.9 8.6 1.9-2 3.9-4.1 5-6.6 1.1-2.6 1.2-5.8-0.5-8-1.1-1.1-1.6-1.4-3.2-1.7q0.3 0.5 0.5 1.1c-1.1-0.7-1.9-1.6-3.2-1.3-0.3 0-3.2 1.3-3 1.5q0.1 0.2 0.2 0.3c-2.1 1-2.4 2.9-0.4 4.4z"/><path class="e" d="m304.8 467.5c0.3-3 0.3-6.6-1.9-8.6-0.9-0.7-1.9-1.1-2.7-1.7q-1-0.8-1.2-1.6c-1.7 1-1.8 2.7 0 4.1 0.9 0.6 1.9 1 2.7 1.7 2.3 2 2.2 5.6 1.9 8.6 1.9-2 3.9-4.1 5-6.6q0.2-0.5 0.4-0.9c-1.2 1.8-2.7 3.4-4.2 5z"/><path class="d" d="m322.7 455.4c-1.1-1.4-2.3-1.6-3.9-1.8-0.5 0.1-1 0.1-1.4-0.1q0.4 0.5 0.7 1c-1.2-0.2-2.6-0.7-3.7 0-1 0.5-1.9 1.4-2.2 2.5-0.2 1 0.5 2.1 1.4 2.7 0.8 0.6 1.8 1.1 2.6 1.8 2.3 1.9 2.2 5.5 2 8.5 1.9-2 3.9-4.1 5-6.6 1.1-2.6 1.2-5.8-0.5-8z"/><path class="e" d="m319.3 467.9c0.2-3.1 0.3-6.6-2-8.6-0.8-0.7-1.8-1.1-2.6-1.8-0.8-0.5-1.4-1.4-1.4-2.3-0.5 0.5-0.9 1.1-1.1 1.8-0.2 1 0.5 2 1.4 2.7 0.8 0.6 1.8 1 2.6 1.7 2.3 2 2.2 5.6 2 8.6 1.9-2 3.9-4.1 5-6.6q0.1-0.2 0.1-0.4c-1.1 1.8-2.6 3.3-4.1 4.9z"/><path class="d" d="m103.9 324.4c0 0.1-0.1 0.1-0.1 0.1-0.6 0.3-1.3 0.1-1.8-0.1-0.8-0.3-1.6-0.8-2.3-1.3q-0.4-0.2-0.8-0.5c-1.7-1.2-3-2.8-3.7-4.7-0.1-0.3-0.3-0.7-0.2-1 0-0.5 0.3-0.9 0.6-1.2 0.8-1 1.8-1.7 3-2.3 1.3-0.7 2.9-1.2 4.4-0.7 0.5 0.1 1 0.4 1.2 0.8 0.4 0.7 0.2 1.6 0 2.4q-0.1 0.9-0.2 1.8c-0.1 1.5 0.1 3.1 0.2 4.7 0.1 0.7 0.3 1.6-0.3 2.1z"/><path class="e" d="m104.3 315.9q-0.2 0.9-0.3 1.8c0 0 0 0-0.1 0.1-1 0.7-2.4 0.8-3.3 1.6-0.6 0.6-0.9 1.5-1 2.4q0 0.7 0.1 1.3-0.4-0.2-0.8-0.5c-1.7-1.2-2.9-2.9-3.7-4.8-0.1-0.3-0.2-0.6-0.2-0.9 0-0.5 0.3-0.9 0.6-1.2 0.8-1 1.9-1.7 3-2.3 1.4-0.7 3-1.2 4.4-0.7 0.5 0.1 1 0.4 1.3 0.8 0.3 0.7 0.1 1.6 0 2.3z"/><path class="d" d="m91.3 317q-0.1 0.4-0.2 0.7-0.1 0.3-0.2 0.5 0 0 0 0 0 0.1 0 0.1-0.2 0.6-0.3 1.3-0.1 0.3-0.1 0.7c-0.3 1.4-0.3 2.8-0.4 4.3 0 0.7 0.1 1.7-0.6 2.1q-0.1 0-0.1 0.1c-0.6 0.2-1.3-0.2-1.8-0.4-0.8-0.5-1.6-1-2.3-1.6q-0.4-0.3-0.8-0.7-0.3-0.4-0.7-0.7c-1.2-1.4-2-3-2.4-4.8-0.1-0.3-0.2-0.6-0.2-0.9q0-0.1 0-0.1 0.1-0.4 0.4-0.8 0.2-0.2 0.5-0.4c0.9-0.9 2.1-1.5 3.4-2 1.5-0.5 3.2-0.8 4.7-0.1 0.5 0.2 1 0.5 1.2 1 0.2 0.6 0.1 1.1-0.1 1.7z"/><path class="e" d="m91.3 317q-0.1 0.4-0.3 0.7 0 0.3-0.1 0.5 0 0 0 0 0 0.1 0 0.1-0.2 0.6-0.3 1.3-0.1 0.3-0.1 0.7c-1.3-0.2-2.7-0.1-3.9 0.4-1.2 0.5-2.3 1.5-2.8 2.7-1.2-1.4-2-3-2.5-4.8 0-0.3-0.1-0.6-0.1-0.9q0.1-0.4 0.4-0.9 0.2-0.2 0.4-0.4c1-0.9 2.2-1.5 3.5-2 1.5-0.5 3.2-0.8 4.7-0.2 0.5 0.2 1 0.6 1.2 1.1 0.2 0.6 0.1 1.1-0.1 1.7z"/><path class="d" d="m76.9 316.4c0 0.3-0.1 0.7-0.2 1.1q-0.1 0.3-0.2 0.5-0.4 0.9-0.5 1.8-0.1 0.3-0.2 0.7c-0.2 1.3-0.3 2.7-0.4 4.2-0.1 0.6 0 1.6-0.7 2q-0.1 0-0.1 0c-0.6 0.2-1.3-0.2-1.8-0.4q-1.2-0.7-2.3-1.7-0.4-0.3-0.8-0.7-0.6-0.6-1.1-1.2c-0.9-1.3-1.6-2.7-1.9-4.3-0.1-0.3-0.2-0.6-0.1-0.9q-0.1 0 0-0.1c0.1-0.5 0.4-0.8 0.8-1.1 1-0.8 2.3-1.4 3.5-1.8 1.6-0.4 3.3-0.7 4.8 0.1 0.5 0.2 1 0.6 1.1 1.1q0.1 0.2 0.1 0.4 0 0.1 0 0.3z"/><path class="e" d="m76.9 316.4c0 0.3-0.2 0.7-0.2 1.1q-0.1 0.3-0.2 0.5-0.4 0.9-0.5 1.8-0.1 0.3-0.2 0.7-0.6-0.1-1.2-0.1c-0.7 0-4.9 1-6 2.3-0.9-1.3-1.6-2.7-1.9-4.3-0.1-0.3-0.2-0.6-0.1-0.9q0 0 0-0.1c0.1-0.5 0.4-0.8 0.8-1.1 1-0.8 2.3-1.4 3.5-1.8 1.6-0.4 3.3-0.7 4.8 0.1 0.5 0.2 1 0.6 1.1 1.1q0.1 0.2 0.1 0.4 0 0.1 0 0.3z"/><path class="f" d="m172.8 128.8c-2.1 14.9-5.3 29.7-7.5 44.5-2.3 14.8-6.3 29.5-10.6 43.9-3.7 12.6-6.6 25.3-12.5 37.2-5.1 10.5-11.7 20.4-19.7 29.2-1.5 1.6-3.1 3.4-4.1 5.3-2.7 5-3.9 12.1-6.5 17.9-1.6 3.5-3.6 6.6-6.7 8.6-1.9 1.1-3.9 1.8-6 2.1-2.1 0.2-4.3 0-6.2-0.6-2.4 2.1-6.1 2.9-9.1 1.8-2.2-0.8-4.4-2.6-6.7-1.7-1 0.3-1.7 1-2.5 1.6q-0.9 0.5-1.8 0.8c-3.9 1.2-7.7-1.1-10.8-4.5-3.6-3.9-5.4-8.1-6.3-12.4-1.8-9.4 1.2-19.6 2.7-29.5q0.1-0.3 0.1-0.6c0.6-4 1.4-8.1 2.4-12.1 5-19.9 14.1-39.3 23.8-57.4 4-7.5 8.1-14.3 13.1-21.2 6-8.3 11.5-17 17.3-25.5q1.6-2.3 3.2-4.6c4.7-6.7 9.7-13.2 15.3-19.2 6.2-6.7 15.5-16.6 25.4-20 2.2-0.8 4.5-1.3 6.8-1.3 8.4-0.1 7.7 12.4 6.9 17.7z"/><path class="g" d="m153 223.5q-0.9 3.4-1.8 6.7-0.5 2-1.1 4c-5.4 18.2-14.4 34.7-27.6 49.4-1.5 1.7-3 3.4-4.1 5.3-2.7 5-3.9 12-6.5 17.9-1.5 3.5-3.6 6.6-6.7 8.6-1.8 1.1-3.9 1.8-6 2.1-2.1 0.2-4.2 0.1-6.2-0.6-2.4 2.1-6.1 2.9-9.1 1.8-2.2-0.8-4.4-2.6-6.7-1.7-1 0.3-1.7 1.1-2.5 1.6q-0.9 0.6-1.8 0.8c-3.9 1.2-7.7-1.1-10.8-4.5-3.3-3.6-5.7-8.4-6.5-11.5q-0.1-0.4-0.1-0.7-0.2-0.9-0.3-1.7 0-0.7-0.1-1.3c-0.7-9.6 2.5-20.3 3.4-26.7 5.9-0.3 11.6 0.4 17.4-0.2 6-0.5 11.9-2.6 17.2-5.4 11.2-5.8 21.6-14.6 31.6-22.2q8.3-6.3 16.4-12.9c1.9-1.7 7.9-5.4 11.9-8.8z"/><path class="h" d="m172.8 128.8c-2.1 14.9-5.3 29.7-7.5 44.5-2.3 14.8-6.3 29.5-10.6 43.9-3.7 12.6-6.6 25.3-12.5 37.2-5.1 10.5-11.7 20.4-19.7 29.2-1.5 1.6-3.1 3.4-4.1 5.3-2.7 5-3.9 12.1-6.5 17.9-1.6 3.5-3.6 6.6-6.7 8.6-1.9 1.1-3.9 1.8-6 2.1-2.1 0.2-4.3 0-6.2-0.6-2.4 2.1-6.1 2.9-9.1 1.8-2.2-0.8-4.4-2.6-6.7-1.7-1 0.3-1.7 1-2.5 1.6q-0.9 0.5-1.8 0.8c-3.9 1.2-7.7-1.1-10.8-4.5-3.6-3.9-5.4-8.1-6.3-12.4q0.4 0.3 0.7 0.5c3.5 2.2 9.8 2 13.8 1.8 9.6-0.5 19.8-3.8 27.2-9.9 41.4-33.9 18.7-94.1 17.7-138.7q1.6-2.3 3.2-4.6c4.7-6.7 9.7-13.2 15.3-19.2 6.2-6.7 15.5-16.6 25.4-20 2.2-0.8 4.5-1.3 6.8-1.3 8.4-0.1 7.7 12.4 6.9 17.7z"/><path class="d" d="m333.9 319c2.5-0.4 4.5-2.4 6.1-4.9 1-1.7 3-4.5 2.2-7-0.5-1.6-2-2.4-3.1-3-2.8-1.4-4 0.5-4.4 3.6-0.5 3.2-0.3 7.5-0.6 10.3q-0.1 0.5-0.2 1z"/><path class="e" d="m333.9 319c2.5-0.4 4.5-2.4 6.1-4.9 1-1.7 3-4.5 2.2-7-0.5-1.6-2-2.4-3.1-3-2.8-1.4-4 0.5-4.4 3.6q0.7 0.8 1.4 2c0.4 0.8 0.8 1.9 0.8 2.9 0 1.4-0.6 2.7-1.4 3.7q-0.7 0.8-1.4 1.7-0.1 0.5-0.2 1z"/><path class="d" d="m348.7 321q0.4 0 0.7-0.1c1.8-0.6 3.4-2 4.8-3.9 0.2-0.3 0.4-0.6 0.6-0.9q0.1-0.2 0.3-0.5c0.6-1 1.4-2.2 1.8-3.5 0.3-0.9 0.4-2 0.1-2.9-0.5-1.6-2-2.5-3.1-3-2.8-1.4-4 0.5-4.4 3.6-0.2 0.9-0.3 1.9-0.3 3-0.1 2.5-0.1 5.3-0.3 7.2q-0.1 0.6-0.1 1z"/><path class="e" d="m350.3 319.6q-0.4 0.7-0.9 1.3c1.8-0.6 3.4-2 4.8-3.9 0.2-0.3 0.4-0.6 0.6-0.9q0.1-0.2 0.3-0.5c0.7-1.1 1.3-2.3 1.8-3.5 0.3-0.9 0.4-2 0.1-3-0.5-1.5-2-2.4-3.1-2.9-2.8-1.5-4 0.5-4.4 3.5-0.2 1-0.3 2-0.3 3.1 0.9 0.9 1.8 2 2 3.4 0.1 1.2-0.3 2.5-0.9 3.5z"/><path class="d" d="m362.5 321q0.3 0 0.6-0.1c1.8-0.6 3.4-2 4.8-3.9 0.2-0.3 0.4-0.6 0.6-0.9q0.1-0.2 0.3-0.5c0.6-1 1.4-2.2 1.8-3.5 0.3-0.9 0.5-2 0.1-2.9-0.5-1.6-2-2.5-3.1-3-2.8-1.4-3.9 0.5-4.4 3.6-0.2 0.9-0.2 1.9-0.3 3-0.1 2.5-0.1 5.3-0.3 7.2q-0.1 0.6-0.1 1z"/><path class="e" d="m364 319.6q-0.4 0.7-0.9 1.3c1.8-0.6 3.4-2 4.8-3.9 0.2-0.3 0.4-0.6 0.6-0.9q0.1-0.2 0.3-0.5c0.7-1.1 1.4-2.3 1.8-3.5 0.3-0.9 0.4-2 0.1-3-0.5-1.5-2-2.4-3.1-2.9-2.8-1.5-3.9 0.5-4.4 3.5-0.2 1-0.3 2-0.3 3.1 0.9 0.9 1.8 2 2 3.4 0.1 1.2-0.3 2.5-0.9 3.5z"/><path class="a" d="m268.8 115.3v0.2c-0.1 2.5 0.4 5 0.6 7.5 0.6 10 2.4 20.2 4.7 30.1 1.2 5.2 2.5 10.4 3.9 15.6 3.5 13.4 8.8 26.7 16.8 38.1q0.4 0.5 0.7 0.9 0.8 1.2 1.7 2.3c6.7 8.6 18.5 17.2 21.5 27.9 3.1 10.9 3.3 24.2 3.9 35.4 0.5 8.8 0.9 16.7 4.4 24.9 2.8 6.9 10.1 11.4 17.5 10.8 0.7 0 1.3-0.1 2 0 0.7 0.1 1.4 0.5 2.2 0.8 2.9 1.3 6.2 1.8 9.4 1.3 1.1-0.2 2.2-0.5 3.4-0.4 1.4 0.1 2.8 0.7 4.2 1q0.7 0.1 1.3 0.2c3.2 0.3 5.9-0.7 8-2.7 6-5.5 8-17.8 8.5-24.6 1-12.6-0.8-25.1-4.2-37.2q0.7 0.4 1.5 0.8c-0.7-2.9-1.6-5.6-2.4-8.4q1.1 0.6 2.2 1.2c-6.1-18.2-11.7-35.4-21.7-51.9-9-14.9-19.1-29.3-31-41.9-4.4-4.7-9-9.1-13.8-13.2-7.9-6.5-16.7-11.7-25.9-16-2.2-1.1-4.5-2.1-6.8-3-2-0.9-4-1.6-6-2.4-1.8-0.7-3.8-1.4-5.5-0.3-1 0.6-1.1 1.9-1.1 3z"/><path class="c" d="m270.3 126.3c0.1 0.7-0.1 1.4-0.1 2.1 0 1.1 0.4 2.2 0.6 3.2q0.7 3.2 1.4 6.4c1 4.9 1.9 10 2.9 14.9 0.8 3.8 1.6 7.5 2.4 10.9 3.2 15.2 8.4 30.2 17.3 43q0.3 0.5 0.7 0.9 0.8 1.2 1.7 2.3c6.7 8.6 18.5 17.2 21.5 27.9 3.1 10.8 3.3 24.2 3.9 35.4 0.5 8.8 0.9 16.7 4.3 24.9 2.9 6.8 10.2 11.4 17.6 10.8 0.7 0 1.3-0.1 2 0 0.7 0.1 1.4 0.5 2.1 0.8 3 1.3 6.3 1.8 9.5 1.3 1.1-0.2 2.2-0.5 3.4-0.4 1.4 0.1 2.8 0.7 4.2 1q0.7 0.1 1.3 0.2c3.4 0.4 6-0.7 8-2.7 1.3-1.3 2.3-2.9 3.2-4.7-3 1.2-6 1.8-9.1 0.8-2.1-0.7-3.4-1.4-5.6-0.8-1.8 0.6-3.3 1.9-5.2 2-2.7 0.3-6-0.4-7.8-2.6-0.4-0.5-0.8-1.1-1.4-1.3-0.3-0.2-0.8-0.1-1.2-0.1-10.9 1.1-14.3-12.2-16.4-20.4-3.7-14.7-3.1-30.2-5-45.1 0.7 0.4 1.4 0.6 2.1 0.8-0.9-2.3-1.5-4.7-1.8-7.1 0.9 0.6 1.9 0.8 3 0.7-4.7-7.5-7.4-15.6-10.6-23.8-3.3-8.4-6.7-16.8-8.7-25.6-2.3-10.1-4.1-20.1-7.3-30q1.3 0.4 2.4 1.1c-0.2-2.3-1.7-4.8-2.5-7 0.7 0.3 1.5 0.4 2.2 0.2-3.1-7.9-7.4-15.8-12.5-22.5q-1.5-2-3-3.8c-0.6-0.6-1.1-1.4-1.6-2-2.2-1.1-4.5-2.1-6.8-3-2-0.9-4-1.6-6.1-2.4-1.7-0.7-3.7-1.4-5.4-0.3-1 0.6-1.1 1.9-1.2 3 0.6 3.7 1.2 7.3 1.5 11z"/><path class="a" d="m301.8 171.3q0 2.9-0.1 5.7c-0.3 7.3-1.3 14.5-2.6 21.8q-0.5 3.1-1.2 6.4c-2.9 13.5-7.3 27.4-6.6 41q0 1 0.1 2c-0.9-0.5-1.6-1.4-1.9-2.4q-0.5 4.3-1.1 8.6c-0.1-0.6-0.5-1.3-1-1.8-0.7 5.6-1.9 11.1-2.9 16.6-0.3 1.9-0.7 3.8-1 5.8q-0.3 1.2-0.5 2.4-0.2 1.2-0.4 2.5-0.2 1.2-0.3 2.4-0.1 0.5-0.2 1c-0.2 2.3-0.3 4.7-0.2 6.9v0.2q0 0.6 0.1 1.3 0 0.4 0.1 0.7 0.1 0.8 0.2 1.5 0.1 0.8 0.4 1.6c0.1 0.6 0.3 1.3 0.2 1.9-0.1 0.5-0.4 0.9-0.7 1.3-3.8 5.3-7.2 10.8-11.1 16.1q-3.5 4.9-7.1 9.8-0.2-1.2-0.4-2.5c-2.3 3.4-4.5 6-7.4 8.8q0.2-1.4 0.3-2.9c-2.8 2.2-5.1 5.2-7.9 7.5-2.8 2.5-5.8 4.7-9.1 6.5-6.4 3.6-13.9 6-21.3 6h-0.6c-4.1-0.1-12.5-2-20.2-5.4-3.5-1.4-6.9-3.5-9.9-5.8-1.5-1.1-2.9-2.2-4.3-3.4-1.4-1.3-2.7-2.6-3.7-4.3 0.3 1.1 0.3 2.2 0.1 3.3-2.2-2.7-4.1-5.6-5.8-8.6 0.1 1.3 0 2.6 0.1 4-5.2-8.4-11.3-16.1-16.9-24.1q-1.7-2.6-3.4-5c-0.3-0.4-0.6-0.8-0.7-1.3-0.1-0.6 0.1-1.3 0.2-1.9q0.2-0.7 0.4-1.5 0.1-0.7 0.2-1.4 0.1-0.7 0.2-1.5 0.1-0.8 0.1-1.6 0-1.3-0.1-2.7 0-1.7-0.2-3.5 0-0.1-0.1-0.1 0-0.8-0.1-1.5c-0.6-4.3-1.5-8.6-2.2-12.4q-0.4-2.1-0.8-4.1c-1.6-8.6-3.7-17.2-5.5-25.8-2.5-12.2-3.9-24.5-6.4-36.7-2.6-12-4.1-25.1-3.6-37.4 0.1-1.9 0.4-5 1.3-7.1-0.5 0.5-1.2 0.9-1.9 1.1 0.5-2.7 1.5-5.3 3-7.6q-1 0.2-1.9 0.5c3-8.8 7.9-17.2 12.3-25.4 2.4-4.4 5.8-8.1 9.4-11.5 1.3-1.2 2.6-2.3 3.9-3.2q0.7-0.5 1.3-0.9c2.6-1.8 5.3-3.3 8.3-5.1 5.7-3.6 11.3-7.3 17.6-9.8 7.6-2.9 15.2-4.3 22.9-4.6q0.7 0 1.5 0 3.6 0 7.3 0.2c8.2 0.4 16.5 1.8 24.8 3.5 11.4 2.2 21.8 9.4 30.7 16.8q0.1 0.1 0.3 0.3 0.8 0.7 1.6 1.4c8.6 7.4 16.1 16.6 19.5 27.7 1.4 4.8 2.6 9.7 3.4 14.6 0.9 5 1.4 10.1 1.5 15.1z"/><path class="c" d="m300.3 156.2c-0.8-5-2-9.8-3.4-14.7-1-3.2-2.2-6.2-3.6-9 0.1 0.5 0.3 1 0.5 1.6 1.4 4.8 2.5 9.7 3.3 14.6 0.8 5 1.3 10.1 1.4 15.1q0.1 2.9 0 5.7c-0.3 7.3-1.4 14.6-2.5 21.8q-0.6 3.2-1.2 6.4c-2.8 13.5-7.1 27.4-6.4 41q0.1 1 0.2 2.1c-1-0.5-1.6-1.5-1.9-2.5q-0.5 4.3-1 8.6c-0.2-0.6-0.5-1.2-1-1.7-0.7 5.6-1.8 11-2.8 16.6-0.3 1.8-0.7 3.7-1 5.7q-0.2 1.2-0.4 2.4-0.2 1.3-0.4 2.5-0.2 1.2-0.4 2.5c-1.4 12-5 23-9.8 34q-0.3-2.5-0.7-5c0.7 5.3-8.6 12.8-11.9 16.1-5.6 5.5-11.8 10.5-18.7 14.5-6.1 3.6-13.3 6-20.4 6h-0.6c-7.2-0.2-17.2-2.5-23.1-6.5 0.2 0.5 0.4 1.2 0.3 1.8-3.5-2.5-6.6-5.5-9.4-8.7q0.6 1.6 1.2 3.3c-9.4-9.3-19-19.4-24.6-31.6-5.4-11.6-6.1-24.6-8.2-37q-0.3-2-0.7-4c-1.6-8.7-3.5-17.3-5.3-25.9-2.4-12.2-3.7-24.5-6.1-36.7-2.5-12-4-25-3.5-37.4 0.1-1.9 0.4-5 1.3-7.1-0.5 0.5-1.2 1-1.8 1.2 0.4-2.7 1.4-5.4 2.8-7.7q-0.9 0.2-1.8 0.5 0.3-1 0.7-1.9c-1.5 3.1-2.8 6.2-3.9 9.4q0.9-0.3 1.8-0.6c-1.4 2.4-2.5 5-2.9 7.7 0.7-0.2 1.4-0.7 1.9-1.1-1 2.1-1.3 5.2-1.4 7.1-0.4 12.3 1 25.4 3.6 37.4 2.6 12.2 3.9 24.5 6.5 36.7 1.8 8.6 3.8 17.2 5.5 25.8q0.4 2 0.7 4.1c0.7 3.8 1.6 8.1 2.2 12.4q0.1 0.7 0.2 1.5 0 0 0 0.1 0.2 1.8 0.3 3.5 0.1 1.4 0 2.7 0 0.8-0.1 1.6 0 0.8-0.1 1.5-0.1 0.7-0.2 1.4-0.2 0.8-0.4 1.5c-0.1 0.6-0.3 1.3-0.2 1.9 0.1 0.5 0.4 0.9 0.7 1.3q1.7 2.4 3.4 5c5.6 8 11.7 15.7 16.8 24.1 0-1.4 0.1-2.7 0-4 1.6 3 3.6 5.9 5.8 8.6 0.2-1.1 0.2-2.2-0.1-3.3 1 1.7 2.3 3 3.7 4.3 1.3 1.2 2.8 2.3 4.2 3.4 3.1 2.3 6.4 4.4 9.9 5.8 7.8 3.4 16.2 5.3 20.3 5.4h0.6c7.4 0 14.9-2.4 21.3-6 3.2-1.8 6.3-4 9.1-6.4 2.8-2.4 5-5.4 7.9-7.6q-0.1 1.5-0.3 2.9c2.9-2.8 5.1-5.4 7.4-8.8q0.2 1.3 0.4 2.5 3.6-4.9 7.1-9.8c3.8-5.3 7.3-10.8 11.1-16.1 0.3-0.4 0.6-0.8 0.7-1.3 0.1-0.6-0.1-1.3-0.3-1.8q-0.2-0.9-0.3-1.7-0.2-0.7-0.2-1.5-0.1-0.3-0.1-0.7-0.1-0.7-0.1-1.3v-0.2c-0.2-2.2 0-4.6 0.2-6.9q0.1-0.5 0.1-0.9 0.2-1.3 0.4-2.5 0.2-1.3 0.4-2.5 0.2-1.2 0.4-2.4c0.4-2 0.8-3.9 1.1-5.7 1-5.6 2.2-11 2.9-16.6 0.5 0.5 0.9 1.1 1 1.7q0.6-4.3 1.1-8.6c0.2 1 1 1.9 1.9 2.4q-0.1-1-0.1-2c-0.7-13.6 3.7-27.5 6.6-41q0.7-3.3 1.2-6.4c1.2-7.3 2.3-14.5 2.6-21.8q0.1-2.9 0.1-5.7c-0.1-5-0.6-10.1-1.5-15.1z"/><path class="c" d="m215 219.4c-1.2-0.5-2.7-0.4-3.8 0.5q0.3-2.1 0.6-4.2c-2.1 0-4.2-0.6-5.9-1.9 3.9-2 7.4-4.2 11.8-4.5 4.4-0.2 9 1.2 13.2 2.3 3.1 0.7 8.4 3.4 11.6 2.5q-6.8 1.9-13.6 3.9c-1 0.3-1.9 0.6-2.8 1-2.4 1.2-4.2 3.6-4.5 6.3q-1.3-2.4-2.5-4.8-0.8 1-1.5 2c-0.2-1.4-1.2-2.6-2.6-3.1z"/><path class="c" d="m275.3 124.2q0 0.2-0.1 0.4-0.4-0.8-0.8-1.6c0 1.5-0.4 3-1.1 4.4q-0.5-0.7-0.8-1.6c0.1 1.9-0.3 3.8-0.9 5.5-0.4-0.6-0.6-1.3-0.6-2 0 3.7-3.4 8-5.5 10.8-2.8 3.6-6 6.8-9.3 9.9-4.4 4.1-9.1 7.3-14 10.9-5 3.6-10.2 6.8-15.4 10.1-0.2 0.1-0.4 0.2-0.6 0.2-0.4-0.1-0.3-0.7-0.2-1.1q0.4-1.1 0.7-2.1c-0.5 0.5-6.9 5.4-7.3 5q-0.9-0.9-1.8-1.9-0.2 1.2-0.4 2.3c-6.6-3-12.9-6.8-18.9-11.1-4.1-3-8.1-6.3-11.8-9.8-5.8-5.7-13.7-11.8-17.4-19.1q-0.4 0.8-0.8 1.6-1.5-3.7-3.1-7.4c-0.2 0.3-0.4 0.6-0.6 0.8-1.5-3-1.8-6.4-2.8-9.6-0.6-2.2-1.1-4.5-0.7-6.7q0.7-0.5 1.4-0.9c2.6-1.8 5.3-3.3 8.2-5.2 5.7-3.5 11.3-7.2 17.6-9.7 7.6-3 15.2-4.3 22.9-4.6q0.7 0 1.5 0 3.6-0.1 7.3 0.1c8.2 0.5 16.5 1.9 24.8 3.6 11.4 2.2 21.9 9.3 30.7 16.8q0.1 0.1 0.3 0.2c0.5 4.2 0.5 8.3-0.5 11.9z"/><path class="c" d="m273.4 110.6q-0.5 2-1.5 4.2c-0.6 1.4-1.2 2.8-1.9 4.2-9.9 18.8-30.9 36.8-52.5 37.3-6.8 0.1-13.3-2.2-19.1-5.5-3.1-1.7-5.9-3.7-8.7-5.8-1-0.8-6.8-4.4-6.6-5.8q-0.1 0.8-0.2 1.6c-1.4-1.4-2.7-2.9-3.7-4.6 0.1 0.4-0.1 0.9-0.4 1.2-5.6-8.9-12.6-16.6-15.2-27.1 2.4-1.4 4.8-2.8 7.1-4.3 5.7-3.5 11.3-7.3 17.6-9.7 7.6-3 15.2-4.3 22.9-4.6q0.7 0 1.5 0 3.6-0.1 7.3 0.1c8.2 0.5 16.5 1.9 24.8 3.6 7.8 1.5 14 4.9 20.2 9.7q2.3 1.8 4.9 3.5 1.7 1.1 3.5 2z"/><path class="a" d="m217.7 150.6c-28.5 0-70.8-25.1-66.5-55.1q0.1-1 0.3-2c2.7-13.1 7.8-42.8 15.1-56.8q0.9-1.8 1.9-3.2 1.4-2 2.9-3.9c4.8-6.2 10.4-11.8 17-16.2 5.7-3.8 12.3-5.4 18.3-8.2q1.6-0.8 3.1-1.6c0.1-0.1 0.3-0.2 0.4-0.2 0.3 0 0.6 0.2 0.8 0.3 0.6 0.2 1.4-0.1 1.7-0.7 0.4-0.5 0.5-1.2 0.6-1.8 0.8 0.8 1.7 1.7 2.8 1.7 0.8 0 1.4-0.4 2.1-0.6 0.7-0.2 1.6-0.2 2.1 0.4 0.1 0.2 0.3 0.5 0.6 0.5 0.1 0 0.3-0.1 0.4-0.2q2-1.3 3.7-3c-1.2 1.3 1.5 4.7 2.4 5.3q0.4 0.3 0.7 0.5c1.2 0.5 2.1 0.4 3.5 0.6 3.8 0.7 7.5 2.5 10.9 4.3 7.1 3.8 13.3 9.1 18.6 15.2q3.5 3.9 6.5 8.3 0.2 0.2 0.3 0.5 0.9 1.3 1.7 3c6.5 13.2 11.1 41.1 13.6 52.9q0.3 1.4 0.6 2.9 0 0.3 0.1 0.5c5.1 30.5-35.8 56.6-66.3 56.6z"/><path class="c" d="m217.7 146c-26.4 0-64.7-21.6-66.7-48.7-2.3 29.3 38.8 53.3 66.7 53.3 29.5 0 68.7-24.4 66.5-53.7-1.9 27.2-38.6 49.1-66.5 49.1z"/><path class="i" d="m251.4 113.1c0 12.1-20.6 21.9-33.7 21.9-13.2 0-33.7-9.8-33.7-21.9 0-12.1 20.4-41.4 33.5-41.4 13.1 0 33.9 29.3 33.9 41.4z"/><path class="j" d="m226.2 113.9l0.2-0.3c0 0 0.1-0.1 0.1-0.1q0.1-0.1 0.1-0.2 0-0.1-0.1-0.2 0-0.1-0.1-0.2-0.2-0.1-0.3-0.1h-0.1q-0.1 0.1-0.2 0.2l-0.3 0.2c0 0-0.1 0.1-0.1 0.2q0 0.1 0 0.2 0 0 0 0.1 0.1 0.1 0.1 0.2l0.1 0.1q0.1 0 0.3 0h0.1q0.1 0 0.2-0.1z"/><path class="j" d="m228.8 110.8h0.3q0.1 0 0.2-0.1 0.1 0 0.1-0.1 0.1 0 0.1-0.1 0-0.1 0-0.2v-0.1q0-0.1-0.1-0.2l-0.1-0.1q-0.1 0-0.2 0h-0.3q-0.1 0-0.2 0-0.1 0-0.1 0.1-0.1 0.1-0.1 0.1-0.1 0.1-0.1 0.2l0.1 0.2q0 0.1 0.1 0.2h0.1q0.1 0.1 0.2 0.1z"/><path class="j" d="m229.6 115.8l0.3 0.2c0 0 0.1 0.1 0.1 0.1q0.1 0.1 0.2 0.1 0.1 0 0.2-0.1 0.1 0 0.1-0.1l0.1-0.1q0.1-0.1 0.1-0.2l-0.1-0.1q0-0.1-0.1-0.2l-0.3-0.3c0 0-0.1-0.1-0.1-0.1q-0.1 0-0.2 0-0.1 0-0.2 0-0.1 0.1-0.1 0.1l-0.1 0.1q-0.1 0.1-0.1 0.2l0.1 0.2q0 0.1 0.1 0.2z"/><path class="j" d="m205.7 110.9v0.2q0 0.1 0.1 0.2 0 0.1 0.1 0.2 0 0 0.1 0.1 0.1 0 0.2 0h0.1q0.1-0.1 0.2-0.1l0.1-0.1q0-0.1 0-0.3v-0.2q0-0.1 0-0.2 0-0.1-0.1-0.2-0.1 0-0.1-0.1-0.1 0-0.2 0h-0.1q-0.2 0-0.2 0.1l-0.1 0.1q-0.1 0.1-0.1 0.3z"/><path class="j" d="m204.5 115.5l0.3 0.3c0 0 0.1 0 0.1 0.1q0.1 0 0.2 0 0.1 0 0.2 0 0.1-0.1 0.2-0.1v-0.1q0.1-0.1 0.1-0.3v-0.1q-0.1-0.1-0.2-0.2l-0.2-0.2c0 0-0.1-0.1-0.2-0.1q-0.1-0.1-0.2-0.1 0 0-0.1 0.1-0.1 0-0.2 0.1h-0.1q0 0.2 0 0.3v0.1q0 0.1 0.1 0.2z"/><path class="j" d="m210.3 114.1v0.3q0 0.1 0 0.2 0.1 0 0.1 0.1 0.1 0.1 0.2 0.1 0.1 0 0.2 0h0.1q0.1 0 0.2-0.1l0.1-0.1q0-0.1 0-0.2v-0.3q0-0.1 0-0.2-0.1-0.1-0.1-0.1-0.1-0.1-0.2-0.1 0-0.1-0.1-0.1l-0.2 0.1q-0.1 0-0.2 0.1v0.1q-0.1 0.1-0.1 0.2z"/><path class="c" d="m228 57c-0.4 2.3-0.5 4.4-0.1 6.7-0.1-0.5 1.2-2 1.5-2.4 0.7-0.9 1.5-1.8 2.3-2.7 1.5-1.6 3.1-3.1 5-4.2q-1.7-0.1-3.4 0c2-1.5 4.2-2.6 6.5-3.2-0.7 0.1-2-0.4-2.7-0.5-0.9-0.2-1.9-0.4-2.8-0.5-1.7-0.2-3.8-0.1-4.7 1.6-0.8 1.6-1.4 3.4-1.6 5.2z"/><path class="c" d="m207 57c0.4 2.3 0.4 4.4 0.1 6.7 0.1-0.5-1.2-2-1.5-2.4-0.7-0.9-1.5-1.8-2.3-2.7-1.5-1.6-3.1-3.1-5-4.2q1.7-0.1 3.3 0c-1.9-1.5-4.1-2.6-6.4-3.2 0.7 0.1 2-0.4 2.7-0.5 0.9-0.2 1.9-0.4 2.8-0.5 1.7-0.2 3.8-0.1 4.7 1.6 0.8 1.6 1.3 3.4 1.6 5.2z"/><path class="k" d="m183.1 68c-0.6 4.6 0.1 9.1 5.7 10.9 7.5 2.3 13.3-5.5 13.3-11.4 0-1.3-0.3-1.9-1.6-3q-0.4-0.3-0.8-0.6c-2.1-1.5-5.4-2.6-8.2-3.1q-0.3 0-0.6-0.1-0.4 0-0.7-0.1-0.3 0-0.5 0c-1.6-0.1-2.8 0-3.2 0.4q-0.3 0.4-0.6 0.7c-1.6 1.8-2.5 3.7-2.8 6.3z"/><path class="l" d="m183.8 67.5c0 5.1 4.1 9.2 9.2 9.2 5.1 0 9.1-4.2 9.1-9.2 0-1.1-0.6-2.1-1.6-3q-0.3-0.3-0.8-0.5c-2.1-1.6-5.4-2.6-8.2-3.1q-0.3-0.1-0.6-0.1-0.4-0.1-0.7-0.1-0.3-0.1-0.5-0.1c-1.5-0.1-2.8 0-3.2 0.4q-0.3 0.4-0.6 0.7c-1.3 1.6-2 3.6-2 5.8z"/><path class="m" d="m185.4 67.5c0 4.2 3.4 7.6 7.6 7.6 4.2 0 7.6-3.4 7.6-7.6 0-1.3-0.3-2.5-0.9-3.5-2.6-1.9-7-3.1-10-3.4-2.6 1.2-4.3 3.9-4.3 6.9z"/><path class="f" d="m193 71.7c-2.3 0-4.2-1.9-4.2-4.2 0-2.3 1.9-4.2 4.2-4.2 2.3 0 4.2 1.9 4.2 4.2 0 2.3-1.9 4.2-4.2 4.2z"/><path class="l" d="m196 66.8c-1 0-1.9-0.8-1.9-1.9 0-1 0.9-1.9 1.9-1.9 1.1 0 1.9 0.9 1.9 1.9 0 1.1-0.8 1.9-1.9 1.9z"/><path class="k" d="m252.4 68c0.6 4.6-0.2 9.1-5.7 10.9-7.5 2.3-13.4-5.5-13.4-11.4 0-1.3 0.4-1.9 1.7-3q0.4-0.3 0.7-0.6c2.2-1.5 5.5-2.6 8.3-3.1q0.3 0 0.6-0.1 0.4 0 0.7-0.1 0.2 0 0.5 0c1.5-0.1 2.8 0 3.2 0.4q0.3 0.4 0.6 0.7c1.5 1.8 2.5 3.7 2.8 6.3z"/><path class="l" d="m251.7 67.5c0 5.1-4.1 9.2-9.2 9.2-5.1 0-9.2-4.2-9.2-9.2 0-1.1 0.7-2.1 1.7-3q0.3-0.3 0.7-0.5c2.2-1.6 5.5-2.6 8.3-3.1q0.3-0.1 0.6-0.1 0.4-0.1 0.7-0.1 0.2-0.1 0.5-0.1c1.5-0.1 2.7 0 3.2 0.4q0.3 0.4 0.6 0.7c1.3 1.6 2 3.6 2 5.8z"/><path class="n" d="m250.1 67.5c0 4.2-3.4 7.6-7.6 7.6-4.2 0-7.6-3.4-7.6-7.6 0-1.3 0.3-2.5 0.9-3.5 2.6-1.9 7-3.1 10-3.4 2.5 1.2 4.3 3.9 4.3 6.9z"/><path class="f" d="m242.5 71.7c-2.3 0-4.2-1.9-4.2-4.2 0-2.3 1.9-4.2 4.2-4.2 2.3 0 4.2 1.9 4.2 4.2 0 2.3-1.9 4.2-4.2 4.2z"/><path class="l" d="m239.5 66.8c-1.1 0-1.9-0.8-1.9-1.9 0-1 0.8-1.9 1.9-1.9 1 0 1.9 0.9 1.9 1.9 0 1.1-0.9 1.9-1.9 1.9z"/><path class="o" d="m217.3 104.5v10.8"/><path class="p" d="m231.3 119c0 0 3.1-0.5 3.1-0.4-0.4 4.7-6.2 11.7-17.2 11.7-10.9 0-16.9-7.2-17.2-11.9 0-0.1 3.2 0.5 3.2 0.5 2.6 0.2 5.4-0.3 7.8-1.5 2-1.1 4.2-1.6 6.5-1.6 2.2 0 4.3 0.5 6.2 1.4l0.7 0.4c2.2 1.1 4.5 1.5 6.9 1.4z"/><path class="q" d="m232.9 118.9q0 0.1-0.1 0.2c-0.4 1.8-1.7 3.8-3.8 5.5-2.7 2.1-6.6 3.7-11.8 3.7-5.7 0-10-2.1-12.7-4.7-1.6-1.6-2.7-3.3-3-4.8q0-0.1 0-0.2 0.2 0.1 0.3 0.1 0.4 0.1 0.9 0.1 0.2 0.1 0.5 0.1 1 0.1 2 0h0.1q0.9 0 1.8-0.2 0.3 0 0.6-0.1 0.3-0.1 0.6-0.2 0.9-0.2 1.7-0.5 0.3-0.2 0.7-0.4 0.1 0 0.1 0 0.3-0.2 0.7-0.3 0.5-0.3 1-0.5 0.6-0.2 1.1-0.4 0.4-0.1 0.7-0.1 0.1-0.1 0.3-0.1 0.3-0.1 0.5-0.1 0.1 0 0.1 0 0.3-0.1 0.7-0.1 0.8-0.1 1.6-0.1 0.3 0 0.7 0 0.3 0 0.7 0.1 0.4 0 0.8 0.1 0.3 0 0.7 0.1 1.4 0.3 2.8 1l0.6 0.3q0.3 0.1 0.6 0.2 0.1 0.1 0.2 0.1 0.6 0.3 1.2 0.5 0.2 0.1 0.4 0.1 1.2 0.4 2.4 0.6 0.2 0 0.4 0.1 1.1 0.1 2.3 0.1 0.2 0 0.3-0.1c0.3 0 0.6 0 0.8 0q0.3-0.1 0.5-0.1z"/><path class="r" d="m232.8 119.1c-0.5 2.2-2 4-3.8 5.5 1.3-1.1-0.2-3.3-1.3-4-3-2.2-6.6-2.2-10.3-2.2-2.8 0-6.2 0.1-8.9 1.1-1.8 0.7-4.3 2-4 4.1-1.6-1.6-2.7-3.3-3-4.8q0.1-0.1 0.3-0.1c0.9-0.1 2.7 0.2 3.4 0.2h0.1q0.9 0 1.8-0.2 0.3-0.1 0.6-0.1 0.3-0.1 0.6-0.2 0.9-0.2 1.7-0.6 0.3-0.1 0.7-0.3 0.1 0 0.1 0 0.3-0.2 0.7-0.4 0.5-0.2 1-0.4 0.6-0.2 1.1-0.4 0.4-0.1 0.7-0.1 0.1-0.1 0.3-0.1 0.3-0.1 0.5-0.1 0.1 0 0.1 0 0.3-0.1 0.7-0.1 0.8-0.1 1.6-0.1 0.3 0 0.7 0 0.3 0 0.7 0.1 0.4 0 0.8 0.1 0.3 0 0.7 0.1 1.4 0.3 2.8 0.9l0.6 0.3q0.3 0.2 0.6 0.3 0.1 0 0.2 0.1 0.6 0.2 1.2 0.5 0.2 0.1 0.4 0.1 1.2 0.4 2.4 0.6 0.2 0 0.4 0 0.2 0 0.4 0.1c0.8 0 2.2-0.3 3-0.1q0.2 0.1 0.4 0.2 0 0 0 0z"/><path class="s" d="m208.9 121.7c0.2-0.2 0.4-0.2 0.6-0.2 0.2 0.2 0.3 0.5 0.4 0.8 0.1 0.4 0.1 0.7 0.1 1.1 0 1.1 0.2 2.3 0.4 3.4 0 0.2 0 0.4 0 0.6-0.2 0.6-0.9 0.3-1.2 0.2-0.5-0.3-1.5-1-1.6-2.1-0.2-1.3 0.4-2.7 1-3.5q0.2-0.2 0.3-0.3z"/><path class="t" d="m210.4 126.8c-0.2-1.1-0.4-2.3-0.4-3.4q0-0.4 0-0.8c-0.1 0.9 0 1.8 0.1 2.6 0 0.6-0.2 1.2-0.9 1.1-0.7-0.1-1.4-0.8-1.6-1.4q0 0.3 0 0.6c0.1 1.1 1.1 1.8 1.7 2.1 0.3 0.1 1 0.4 1.1-0.2 0-0.2 0-0.4 0-0.6z"/><path class="s" d="m225.6 121.7c-0.1-0.2-0.3-0.2-0.5-0.2-0.3 0.2-0.4 0.5-0.5 0.8 0 0.4 0 0.7 0 1.1-0.1 1.1-0.3 2.3-0.4 3.4 0 0.2-0.1 0.4 0 0.6 0.1 0.6 0.8 0.3 1.1 0.2 0.6-0.3 1.6-1 1.7-2.1 0.1-1.3-0.5-2.7-1.1-3.5q-0.1-0.2-0.3-0.3z"/><path class="t" d="m224.2 126.8c0.1-1.1 0.3-2.3 0.4-3.4q0-0.4 0-0.8 0 1.4-0.1 2.7c0 0.4 0 0.8 0.3 1 0.4 0.2 1-0.1 1.3-0.3 0.3-0.3 0.9-0.7 0.9-1.1q0 0.3 0 0.6c-0.1 1.1-1.1 1.8-1.7 2.1-0.3 0.1-1 0.4-1.1-0.2-0.1-0.2-0.1-0.4 0-0.6z"/><path class="p" d="m234.4 118.7c-0.4 4.6-6.2 11.6-17.2 11.6-11 0-16.9-7.2-17.2-11.8 0-0.1 0.9 0 1.7 0.2q-0.1 0-0.2 0 0 0 0 0.1c0.3 1.5 1.3 3.2 3 4.8 2.7 2.6 7 4.7 12.7 4.7 5.2 0 9.1-1.6 11.7-3.7 2.2-1.7 3.5-3.7 3.9-5.5q0.1-0.1 0.1-0.2-0.2 0-0.4 0.1-0.4 0-0.8 0-0.2 0-0.4 0c0 0.1 3.1-0.5 3.1-0.3z"/><path class="u" d="m242.7 113.9c-2.8 1.8-5.4 4-8.5 5.1-3.3 1.1-7 0.8-10-0.8-0.4-0.2-1.7-0.9-2.3-1.1-2-0.8-5.1-0.9-6.6-0.6-0.7 0.1-1.7 0.4-2.4 0.7-0.5 0.2-1.3 0.6-1.9 0.9-3.3 1.9-8.5 2-12.2-0.1-2.1-1.3-4.2-2.7-6.3-4.1 3.7 1.8 7 4.6 11.2 4.8 2.8 0.2 5.5-0.6 7.9-2 1.1-0.6 2.4-1 3.6-1.2 0.9-0.2 3.2-0.3 4.5-0.1 1.7 0.3 3.4 1.1 4.9 2 2.9 1.5 6.3 1.8 9.4 1 3.1-1 5.8-3 8.7-4.5z"/><path class="v" d="m232.1 101.8c0 0.6-0.1 1.2-0.3 1.9-0.5 1.4-1.5 2.6-2.6 3.5-1.9 1.7-4.6 2.7-7.3 3.2-1.3 0.2-2.7 0.4-4.1 0.4h-0.4q-0.1-0.1-0.2-0.1-1.9 0-3.8-0.3c-2.7-0.5-5.4-1.5-7.4-3.2-1.6-1.3-3-3.4-3-5.4v-0.1q0-0.3 0.1-0.6 0-0.4 0.2-0.9c2.3-9.7 9.9-8.4 14.3-8.3 3.5 0 7.4-0.3 10.6 1.6 2.3 1.4 3.2 3.8 3.7 6.3 0.1 0.7 0.2 1.3 0.2 2z"/><path class="f" d="m232.2 101.7v0.1c0 2-1.4 4.1-3 5.4-2 1.7-4.6 2.7-7.3 3.2-1.3 0.2-2.8 0.3-4.1 0.3h-0.4q-0.1 0-0.2 0-1.9 0-3.8-0.3c-2.7-0.5-5.4-1.5-7.4-3.2-1.6-1.4-3-3.4-3-5.4v-0.1q0-0.4 0.1-0.9 0-0.3 0.2-0.6c1.7-5.3 7.3-2.6 14.3-2.6 6.9 0 13.7-2.7 14.3 2.8q0.1 0.2 0.2 0.5 0.1 0.4 0 0.8z"/><path class="u" d="m213.1 104.5c-0.3 0.3-0.6 0.5-0.8 0.6-1.1 0.6-2.4 0.6-3.6 0.4-1.7-0.2-3.3-0.6-4.8-1.5 0.5 0.1 2.3 0.4 2.4-0.4 0.1-0.6-0.4-0.7-0.6-1.1-0.3-0.5 0-1.2 0.3-1.6 2-2.2 7.2-1.2 8 1.7 0.2 0.8-0.3 1.5-0.9 1.9z"/><path class="u" d="m222 104.5c0.3 0.3 0.5 0.5 0.8 0.6 1.1 0.6 2.3 0.6 3.5 0.4 1.8-0.2 3.4-0.6 4.9-1.5-0.5 0.1-2.4 0.4-2.5-0.4-0.1-0.6 0.5-0.7 0.7-1.1 0.2-0.5 0-1.2-0.4-1.6-1.9-2.2-7.1-1.2-7.9 1.7-0.2 0.8 0.3 1.5 0.9 1.9z"/><path class="w" d="m217.9 110.7h-0.5q-0.1 0-0.2 0-0.1 0-0.3 0c-0.4-2.8-0.2-7.2 0.5-8.7 0.7 1.5 0.9 6 0.5 8.7z"/><path class="f" d="m202.9 9.9q0 0.1 0 0.2 0 0.1 0 0.1 0 0.1 0 0.2v-0.1q0 0.2-0.1 0.3-0.1 0.4-0.3 0.7-0.1 0-0.1 0-0.1 0.1-0.1 0.1c-0.6 0.5-1.3 0.7-2.1 0.9-0.7 0.1-1.4 0.2-2 0.4q-0.1 0-0.3 0-0.3 0.1-0.6 0.2c-1.4 0.5-2.7 1.3-3.7 2.3q-0.1 0.1-0.3 0.2-0.2 0.3-0.5 0.6-1.2 1.4-2.2 3-0.1 0.1-0.1 0.1 0 0-0.1 0.1 0 0.1 0 0.1-0.2 0.2-0.3 0.4-0.1 0.2-0.2 0.4-0.1 0.2-0.2 0.4-0.1 0.2-0.3 0.3-0.1 0.3-0.2 0.5-0.1 0.2-0.2 0.3-0.1 0.3-0.2 0.5-0.1 0.1-0.1 0.2-0.3 0.5-0.6 1.1 0 0.1-0.1 0.3-0.2 0.4-0.4 0.8-0.2 0.3-0.3 0.7-0.3 0.6-0.6 1.3-0.3 0.7-0.6 1.4-0.3 0.7-0.6 1.4-0.1 0.3-0.3 0.7-0.2 0.6-0.4 1.1-0.3 0.7-0.6 1.4-0.2 0.5-0.4 1.1-0.5 1.3-1.1 2.5-0.2 0.6-0.5 1.3-0.3 0.6-0.5 1.2-0.3 0.6-0.6 1.2-0.2 0.5-0.4 0.9-0.1 0.2-0.2 0.4-0.4 0.9-0.9 1.9-0.2 0.2-0.3 0.5-0.2 0.4-0.4 0.8-0.1 0.2-0.3 0.4-0.4 0.9-0.9 1.7-0.3 0.5-0.6 0.9-0.3 0.7-0.7 1.3-0.4 0.7-0.8 1.3-0.3 0.5-0.6 1-0.9 1.4-1.9 2.8-0.6 0.9-1.2 1.9-0.2 0.3-0.5 0.6-0.2 0.3-0.4 0.6-0.7 0.9-1.4 1.8-0.2 0.3-0.4 0.6-0.3 0.3-0.5 0.5-0.2 0.3-0.5 0.6-0.3 0.4-0.5 0.7-1.5 1.7-3 3.2c-3.6 3.7-8.6 9-14.3 6.8-0.4-0.1-0.7-0.3-1-0.6-0.4-0.5-0.3-1.2-0.3-1.9q0-0.2 0-0.3 0-0.1 0-0.1c1.1-16.1-9.5-30.3-8.6-46.3 0.1-1.8 0.2-3.7 1.2-5.3 1.4-2.2 4.1-3.4 6.7-4.4q2.5-0.8 5.1-1.5 1.9-0.5 3.8-0.9 0.4-0.1 0.8-0.2 0.9-0.2 1.9-0.4c2-0.5 3.9-0.9 5.9-1.4q1.2-0.3 2.5-0.8c3.7-1.3 7.2-3.3 10.8-4.4q0.8-0.2 1.5-0.4 0.4-0.1 0.7-0.1 0.2 0 0.3-0.1c5.1-0.7 11.4-0.2 16 1.9 1.9 0.9 3.7 2.1 4.6 3.8q0.1 0.2 0.2 0.4 0.1 0.3 0.2 0.7 0.2 0.7 0.2 1.2z"/><path class="h" d="m202.8 10.7q-0.1 0.3-0.3 0.6-0.1 0-0.1 0.1-0.1 0-0.1 0c-0.6 0.5-1.3 0.7-2.1 0.9-0.7 0.1-1.4 0.2-2 0.4q-0.1 0-0.3 0.1-0.3 0-0.6 0.1c-1.5 0.5-2.7 1.3-3.7 2.3q-0.1 0.1-0.3 0.2-0.3 0.3-0.5 0.6-1.2 1.4-2.3 3 0 0.1 0 0.1 0 0-0.1 0.1 0 0.1-0.1 0.1-0.1 0.2-0.2 0.4-0.1 0.2-0.3 0.4-0.1 0.2-0.1 0.4-0.2 0.2-0.3 0.4-0.1 0.2-0.2 0.5-0.1 0.1-0.2 0.2-0.1 0.3-0.2 0.5-0.1 0.1-0.1 0.2-0.3 0.5-0.6 1.1-0.1 0.2-0.1 0.3-0.2 0.4-0.4 0.8-0.2 0.3-0.3 0.7-0.3 0.6-0.6 1.3-0.3 0.7-0.6 1.4-0.3 0.7-0.6 1.4-0.1 0.3-0.3 0.7-0.2 0.6-0.4 1.1-0.3 0.7-0.6 1.4-0.2 0.5-0.4 1.1-0.5 1.3-1.1 2.5-0.2 0.7-0.5 1.3-0.3 0.6-0.6 1.2-0.2 0.6-0.5 1.3-0.2 0.4-0.4 0.9-0.1 0.1-0.2 0.3-0.4 0.9-0.9 1.9-0.2 0.2-0.3 0.5-0.2 0.4-0.4 0.8-0.1 0.2-0.3 0.5-0.4 0.8-0.9 1.6-0.3 0.5-0.6 0.9-0.3 0.7-0.7 1.3-0.4 0.7-0.8 1.3-0.3 0.5-0.6 1-0.9 1.4-1.9 2.8-0.6 1-1.2 1.9-0.3 0.3-0.5 0.6-0.2 0.3-0.4 0.6-0.7 0.9-1.4 1.8-0.2 0.3-0.4 0.6-0.3 0.3-0.5 0.6-0.3 0.3-0.5 0.5-0.3 0.4-0.6 0.7-1.4 1.7-2.9 3.3c-3.6 3.7-8.6 8.9-14.3 6.7-0.4-0.1-0.7-0.3-1-0.6-0.4-0.5-0.3-1.2-0.3-1.9q0-0.1 0-0.3c0.2 0.3 0.5 0.7 0.6 0.8 0.3 0.4 0.9 0.7 1.4 0.8 3.5 1.3 6.8-1.6 9.4-3.7 2.7-2.3 5.1-4.9 7.5-7.5 2.2-2.6 4.6-5 6.6-7.8q0.4-0.6 0.9-1.2c2.7-4.1 4.6-8.6 6.3-13.2q2.7-6.9 4.9-14c1.3-4.1 3-7.5 6.1-11 1.2-1.4 2.9-2.6 4.9-3.2 1.9-0.6 4.3 0.3 4.9 2q0.1 0.2 0.2 0.4z"/><path class="a" d="m232.2 9.7q0 0.1 0 0.3 0 0 0 0.1 0 0 0 0.1h0.1q0 0.1 0 0.3 0.1 0.3 0.4 0.6 0 0 0.1 0.1 0 0 0.1 0.1c0.5 0.4 1.3 0.7 2.1 0.8 0.7 0.2 1.4 0.3 2 0.4q0.1 0.1 0.2 0.1 0.3 0.1 0.6 0.2c1.5 0.5 2.7 1.2 3.8 2.2q0.1 0.2 0.2 0.3 0.3 0.3 0.6 0.6 1.2 1.4 2.2 3 0 0 0.1 0.1 0 0 0 0.1 0.1 0 0.1 0.1 0.1 0.2 0.2 0.4 0.2 0.2 0.3 0.4 0.1 0.2 0.2 0.3 0.1 0.2 0.2 0.4 0.2 0.3 0.3 0.5 0.1 0.2 0.1 0.3 0.2 0.3 0.3 0.5 0 0.1 0.1 0.2 0.3 0.5 0.5 1.1 0.1 0.1 0.2 0.3 0.2 0.4 0.4 0.8 0.1 0.3 0.3 0.7 0.3 0.6 0.6 1.3 0.2 0.7 0.5 1.4 0.3 0.7 0.6 1.4 0.2 0.3 0.3 0.7 0.2 0.6 0.5 1.1 0.2 0.7 0.5 1.4 0.2 0.6 0.5 1.1 0.5 1.3 1 2.5 0.3 0.7 0.6 1.3 0.2 0.6 0.5 1.2 0.3 0.7 0.6 1.3 0.2 0.4 0.4 0.9 0.1 0.2 0.1 0.3 0.5 1 1 1.9 0.1 0.3 0.3 0.6 0.2 0.4 0.4 0.8 0.1 0.2 0.2 0.4 0.5 0.8 0.9 1.6 0.3 0.5 0.6 1 0.4 0.6 0.8 1.3 0.4 0.6 0.8 1.3 0.3 0.5 0.6 0.9 0.9 1.5 1.8 2.9 0.7 0.9 1.3 1.8 0.2 0.4 0.4 0.7 0.3 0.3 0.5 0.6 0.6 0.9 1.3 1.8 0.3 0.3 0.5 0.6 0.2 0.2 0.5 0.5 0.2 0.3 0.5 0.6 0.2 0.4 0.5 0.7 1.4 1.7 3 3.2c3.6 3.8 8.6 9 14.3 6.8 0.4-0.1 0.7-0.3 0.9-0.6 0.5-0.5 0.4-1.2 0.4-1.9q0-0.1 0-0.3 0 0 0-0.1c-1.1-16.2 9.4-30.4 8.6-46.4-0.1-1.8-0.2-3.7-1.3-5.4-1.3-2.1-4-3.4-6.6-4.3q-2.5-0.9-5.1-1.6-1.9-0.5-3.9-0.9-0.3-0.1-0.7-0.2-0.9-0.2-1.9-0.4-3-0.6-5.9-1.4-1.3-0.3-2.5-0.7c-3.7-1.4-7.3-3.4-10.9-4.5q-0.7-0.2-1.4-0.3-0.4-0.1-0.8-0.2-0.1 0-0.2 0c-5.2-0.8-11.4-0.3-16.1 1.8-1.9 0.9-3.7 2.1-4.6 3.8q-0.1 0.2-0.2 0.5-0.1 0.3-0.2 0.6-0.2 0.7-0.2 1.2z"/><path class="c" d="m232.3 10.5q0.1 0.3 0.4 0.6 0 0 0.1 0.1 0 0 0.1 0.1c0.5 0.4 1.3 0.7 2.1 0.8 0.7 0.2 1.4 0.3 2 0.4q0.1 0.1 0.2 0.1 0.3 0.1 0.6 0.2c1.5 0.5 2.7 1.2 3.8 2.2q0.1 0.2 0.2 0.3 0.3 0.3 0.6 0.6 1.2 1.4 2.2 3 0 0 0.1 0.1 0 0 0 0 0.1 0.1 0.1 0.2 0.1 0.2 0.2 0.3 0.2 0.3 0.3 0.5 0.1 0.2 0.2 0.3 0.1 0.2 0.2 0.4 0.2 0.3 0.3 0.5 0.1 0.2 0.1 0.3 0.2 0.2 0.3 0.5 0.1 0.1 0.1 0.2 0.3 0.5 0.5 1.1 0.1 0.1 0.2 0.3 0.2 0.4 0.4 0.8 0.1 0.3 0.3 0.7 0.3 0.6 0.6 1.3 0.3 0.7 0.6 1.4 0.2 0.7 0.5 1.4 0.2 0.3 0.3 0.7 0.2 0.6 0.5 1.1 0.2 0.7 0.5 1.4 0.3 0.6 0.5 1.1 0.5 1.3 1 2.5 0.3 0.7 0.6 1.3 0.2 0.6 0.5 1.2 0.3 0.7 0.6 1.3 0.2 0.4 0.4 0.9 0.1 0.2 0.2 0.3 0.4 1 0.9 1.9 0.1 0.3 0.3 0.6 0.2 0.4 0.4 0.8 0.1 0.2 0.2 0.4 0.5 0.8 1 1.6 0.2 0.5 0.5 1 0.4 0.6 0.8 1.3 0.4 0.6 0.8 1.3 0.3 0.5 0.6 0.9 0.9 1.5 1.8 2.9 0.7 0.9 1.3 1.8 0.2 0.4 0.5 0.7 0.2 0.3 0.4 0.6 0.6 0.9 1.4 1.8 0.2 0.3 0.4 0.6 0.3 0.2 0.5 0.5 0.2 0.3 0.5 0.6 0.2 0.4 0.5 0.7 1.4 1.7 3 3.2c3.6 3.8 8.6 9 14.3 6.8 0.4-0.1 0.7-0.3 1-0.6 0.4-0.5 0.3-1.2 0.3-1.9q0-0.1 0-0.3c-0.2 0.3-0.5 0.8-0.6 0.8-0.4 0.4-0.9 0.7-1.4 0.8-3.5 1.3-6.8-1.6-9.4-3.7-2.7-2.3-5.1-4.9-7.5-7.6-2.3-2.5-4.6-4.9-6.6-7.7q-0.5-0.6-0.9-1.3c-2.7-4.1-4.6-8.6-6.4-13.1q-2.6-7-4.8-14.1c-1.4-4.2-3.1-7.5-6.1-11-1.2-1.4-3-2.7-4.9-3.3-1.9-0.6-4.3 0.3-5 2q-0.1 0.3-0.2 0.5z"/></svg>