<svg version="1.2" xmlns="http://www.w3.org/2000/svg" viewBox="0 0 470 470" width="470" height="470"><style>.a{fill:#fff}.b{fill:#ededed}.c{fill:#3c3c3b}.d{mix-blend-mode:multiply;fill:#575756}.e{mix-blend-mode:multiply;fill:#dadada}.f{fill:#1d1d1b}.g{fill:#b56696}.h{mix-blend-mode:multiply;fill:#b56696}</style><path class="a" d="m41.9 324.1c0 0-4.9 25.8 2.7 39.2 0 0 11.7-14.2 11.3-15.7-0.2-0.7-0.6-5.4-4-11-3.5-5.8-10-12.5-10-12.5z"/><path class="a" d="m41.9 324.1c0 0-4.9 25.8 2.7 39.2 0 0 11.7-14.2 11.3-15.7-0.2-0.7-0.6-5.4-4-11-3.5-5.8-10-12.5-10-12.5z"/><path class="b" d="m55.9 347.7c-0.2-0.8-0.6-5.4-4-11.1-1.5-2.4-3.5-5-5.3-7.2-0.7 4.6-2.6 19.9 1.9 29 3.4-4.2 7.6-9.8 7.4-10.8z"/><path class="a" d="m60.4 347.6c0 0-1.4 19.6 2.7 29.3 0 0 6.2-9.6 11.6-13.4 3.2-2.3-2.1-6.7-6.2-11.2-2.6-3-8.1-4.7-8.1-4.7z"/><path class="b" d="m68.5 352.3c-1.1-1.3-2.8-2.4-4.3-3.1-0.2 4.1-0.5 15.6 1.6 23.9 2.3-3.1 5.7-7.4 8.9-9.6 3.2-2.3-2.1-6.7-6.2-11.2z"/><path class="a" d="m77.7 360.6c0 0-3.2 10.9 1.9 24 0 0 7-7.1 11.6-10.4 2.3-1.6-1.3-5.9-4.7-9.6-3.5-3.7-8.8-4-8.8-4z"/><path class="b" d="m81.1 361.4c-0.5 2.4-1.9 10.6 1.2 20.6 2.5-2.4 6.1-5.8 8.9-7.8 2.3-1.6-1.3-5.9-4.7-9.5-1.7-1.8-3.7-2.8-5.4-3.3z"/><path class="c" d="m158.1 140.6c0 0-56.9 41.1-83.6 80.1-26.6 39.1-38.5 68.6-38.5 88.8 0 18.1 16.8 40.8 24.5 49.2 7.7 8.4 22 24.1 40.2 15.9 18.2-8.2 42.8-115.8 48-138.1 3.8-15.9 26-87.9 9.4-95.9z"/><path class="d" d="m158.1 140.6c0 0-42.1 87.3-58 111.3-32.2 48.6-40.5 64.1-39.9 91.8 0.3 15 8.6 22.6 9.2 23.9 7.9 6.9 18.7 12.6 31.3 7 18.2-8.2 42.8-115.8 48.1-138.1 3.7-15.9 25.9-87.9 9.3-95.9z"/><path class="a" d="m426.8 324.1c0 0 4.9 25.8-2.6 39.2 0 0-11.8-14.2-11.4-15.7 0.2-0.7 0.7-5.4 4.1-11 3.4-5.8 9.9-12.5 9.9-12.5z"/><path class="a" d="m426.8 324.1c0 0 4.9 25.8-2.6 39.2 0 0-11.8-14.2-11.4-15.7 0.2-0.7 0.7-5.4 4.1-11 3.4-5.8 9.9-12.5 9.9-12.5z"/><path class="b" d="m412.8 347.7c0.2-0.8 0.7-5.4 4.1-11.1 1.4-2.4 3.4-5 5.2-7.2 0.7 4.6 2.7 19.9-1.9 29-3.3-4.2-7.6-9.8-7.4-10.8z"/><path class="a" d="m408.4 347.6c0 0 1.3 19.6-2.8 29.3 0 0-6.2-9.6-11.5-13.4-3.3-2.3 2.1-6.7 6.1-11.2 2.6-3 8.2-4.7 8.2-4.7z"/><path class="b" d="m400.2 352.3c1.1-1.3 2.8-2.4 4.3-3.1 0.2 4.1 0.5 15.6-1.5 23.9-2.3-3.1-5.8-7.4-8.9-9.6-3.3-2.3 2.1-6.7 6.1-11.2z"/><path class="a" d="m391.1 360.6c0 0 3.1 10.9-2 24 0 0-7-7.1-11.6-10.4-2.2-1.6 1.3-5.9 4.8-9.6 3.4-3.6 8.8-4 8.8-4z"/><path class="b" d="m387.6 361.4c0.5 2.4 1.9 10.6-1.2 20.6-2.4-2.4-6.1-5.8-8.9-7.8-2.2-1.6 1.3-5.9 4.8-9.5 1.6-1.8 3.6-2.8 5.3-3.3z"/><path class="c" d="m312.5 140.6c0 0 56.9 41.1 83.6 80.1 26.7 39 38.5 68.6 38.5 88.8 0 18.1-16.8 40.8-24.5 49.2-7.6 8.4-22 24.1-40.2 15.9-18.2-8.2-42.8-115.8-48-138.1-3.8-15.9-26-87.9-9.4-95.9z"/><path class="d" d="m312.5 140.6c0 0 42.1 87.3 58 111.3 32.2 48.6 42.8 64.3 39.9 91.8-2 19.6-8.6 22.6-9.2 23.9-7.9 6.9-18.7 12.6-31.3 7-18.2-8.2-42.8-115.8-48-138.1-3.8-15.9-26-87.9-9.4-95.9z"/><path class="c" d="m94.5 361.5q0.1 1.6 0.2 3.3c0.3 5.3 0.9 11 1.9 17q0.5 2.6 1 5.2 0.1 0.7 0.3 1.5c1.9 8.5 4.5 17.4 8.2 26.3 14.5 34.3 22.6 53.7 62.3 53.7q5.8 0 10.3-0.1 0.9 0 1.7-0.1c5.1-0.2 9.1-0.6 12.2-1.2q0.1-0.1 0.1-0.1 1.2-0.2 2.2-0.6 0 0 0.1 0 1-0.3 1.9-0.7 0.8-0.4 1.5-0.8 0.5-0.3 0.8-0.6 0.3-0.2 0.6-0.5c1.9-1.6 3-3.8 3.6-6.7q0.3-1.4 0.5-2.8 0-0.1 0-0.1 0.1-0.7 0.1-1.3 0.2-2.2 0.3-4.8v-0.9c0-2.9-0.1-6.3-0.1-10.1v-0.1q0-3.3 0-6.9 0-1.6-0.1-3.2 0-1.5-0.1-3.1c-0.3-7.5 1.1-13.9 3.9-20.9 2.7-6.7 1.7-12.1-0.9-17.3-1.9-3.9-4.7-7.6-7.7-11.6-4.6-6.2-8.6-12.5-13.4-18.7-3.8-4.9-7.3-10-11.1-14.9q-0.1-0.2-0.2-0.4c-1.8-2.3-3.6-4.6-5.6-6.8-0.4-0.5-0.9-1-1.3-1.4-13.3-14.8-28.4-31.5-50.1-31.5-1.3 0-2.6 0-3.9 0.5-2.9 1-4.7 3.9-6.2 6.6-4.8 8.8-9.1 19.4-11.4 29.2q-0.2 0.7-0.3 1.4-0.4 1.6-0.6 3.3-0.1 0.8-0.2 1.6-0.1 0.4-0.1 0.7-0.1 1.2-0.2 2.4-0.2 2.5-0.3 5.3c-0.1 3.1-0.1 6.6 0 10.2z"/><path class="d" d="m94.5 361.5q0.1 1.6 0.2 3.3c0.3 5.3 0.9 11 1.9 17q0.5 2.6 1 5.2 0.1 0.7 0.3 1.5c2.7 7.1 26.5 30.7 31.9 36.4 25 26.3 36.2 33.6 48.9 43.5q0.9 0 1.7-0.1c4-0.1 7.9-0.5 11.8-1.2q0.2 0 0.5 0 0-0.1 0 0 1.2-0.3 2.2-0.7 0.1 0 0.1 0 1-0.3 1.9-0.7 0.8-0.4 1.5-0.8 0.5-0.3 0.9-0.6 0.2-0.2 0.5-0.5c1.9-1.6 3-3.8 3.6-6.7q0.3-1.4 0.5-2.8 0-0.1 0-0.1 0.1-0.6 0.1-1.3 0.2-2.2 0.3-4.8v-0.9c0-3.3-0.3-6.8-0.1-10.1v-0.1q0-3.2 0-6.9 0-1.6-0.1-3.1 0-1.6-0.1-3.2c-0.3-7.5 1.1-13.9 3.9-20.9 2.7-6.7 1.7-12.1-0.8-17.3-2.8-3.7-5-7.9-7.8-11.6-4.6-6.2-8.6-12.5-13.4-18.7-3.8-4.9-7.3-10-11.1-14.9q-0.1-0.2-0.2-0.3c-1.9-2.3-3.7-4.7-5.6-6.9-0.4-0.5-0.8-1-1.3-1.4-13.3-14.8-28.4-31.4-50.1-31.5-1.3 0-2.6 0-3.9 0.5-2.9 1.1-4.7 3.9-6.2 6.6-4.8 8.8-9.1 19.4-11.4 29.2q-0.1 0.7-0.3 1.4-0.4 1.6-0.6 3.3-0.1 0.8-0.2 1.6-0.1 0.4-0.1 0.7-0.1 1.2-0.2 2.4-0.2 2.5-0.3 5.3c-0.1 3.1-0.1 6.6 0 10.2z"/><path class="b" d="m156 468.5c-0.3 0.4-0.9 0.6-1.8 0.5-1.5-0.3-3.1-0.5-4.5-1.1-1.2-0.5-3.9-1.9-3.2-4.1 0.6-1.9 3.4-1.8 4.9-1.5 2.4 0.5 3.6 1.7 4.4 4 0.3 1 0.4 1.7 0.2 2.2z"/><path class="e" d="m146.5 463.8c0.6-1.9 3.4-1.8 4.9-1.5 2.5 0.4 3.7 1.7 4.4 3.9 0.4 1.1 0.4 1.8 0.2 2.3q-0.2 0.3-0.5 0.4 0.2-0.7-0.2-2c-0.7-2.3-1.7-3.5-3.9-4-1.3-0.3-3.9-0.4-4.4 1.5-0.2 0.8 0 1.4 0.3 2-0.7-0.7-1.1-1.5-0.8-2.6z"/><path class="b" d="m171.2 470q-0.6 0-1.3-0.1c-1.7-0.5-5.2-2.9-5.6-5.2-0.1-0.6 0.4-1.1 0.8-1.4 1.9-1 6.2-1.2 8.2-0.5 2.1 0.8 1 4 0.3 5.4-0.6 1.1-1.4 1.7-2.4 1.8z"/><path class="e" d="m172.5 468.8c0.8-1.4 1.8-4.5-0.3-5.3-1.8-0.7-5.5-0.6-7.6 0.2q0.3-0.2 0.5-0.4c1.9-1 6.2-1.2 8.2-0.5 2.1 0.8 1 4 0.3 5.4-0.5 0.9-1.1 1.4-1.8 1.7q0.4-0.4 0.7-1.1z"/><path class="b" d="m188.4 463.4c1.2 0.3 2.1 0.9 2.2 1.9 0.4 2.4-3.3 4.4-5.2 4.1-2.1-0.3-6.9-4.3-4-6.2 1.8-1.2 5.1-0.4 7 0.2z"/><path class="e" d="m189 465.9c-0.2-1-1.1-1.6-2.3-2-1.4-0.4-3.5-1-5.3-0.7 1.8-1.2 5.1-0.4 6.9 0.2 1.2 0.3 2.1 0.9 2.3 1.9 0.3 2-2.2 3.7-4.2 4.1 1.5-0.8 2.8-2.1 2.6-3.5z"/><path class="c" d="m374.5 361.5q-0.1 1.6-0.2 3.3c-0.3 5.3-0.9 11-1.9 17q-0.5 2.6-1 5.2-0.1 0.7-0.3 1.5c-1.9 8.5-4.5 17.4-8.3 26.3-14.5 34.3-22.5 53.7-62.2 53.7q-5.8 0-10.4-0.1-0.8 0-1.7-0.1c-5-0.2-9-0.6-12.2-1.2q0-0.1 0-0.1-1.2-0.2-2.2-0.6-0.1 0-0.1 0-1-0.3-1.9-0.7-0.8-0.4-1.5-0.8-0.5-0.3-0.9-0.6-0.3-0.2-0.5-0.5c-1.9-1.6-3-3.8-3.6-6.7q-0.3-1.4-0.5-2.8 0-0.1 0-0.1-0.1-0.7-0.1-1.3-0.2-2.2-0.3-4.8v-0.9c0-2.9 0-6.3 0.1-10.1v-0.1q0-3.3 0-6.9 0-1.6 0.1-3.2 0-1.5 0.1-3.1c0.3-7.5-1.2-13.9-3.9-20.9-2.7-6.7-1.7-12.1 0.8-17.3 2-3.9 4.8-7.6 7.8-11.6 4.6-6.2 8.6-12.5 13.3-18.7 3.9-4.9 7.4-10 11.1-14.9q0.2-0.2 0.3-0.4c1.8-2.3 3.6-4.6 5.6-6.8 0.4-0.5 0.8-1 1.3-1.4 13.3-14.8 28.4-31.5 50.1-31.5 1.3 0 2.6 0 3.9 0.5 2.9 1 4.7 3.9 6.2 6.6 4.7 8.8 9.1 19.4 11.4 29.2q0.1 0.7 0.3 1.4 0.3 1.6 0.6 3.3 0.1 0.8 0.2 1.6 0 0.4 0.1 0.7 0.1 1.2 0.2 2.4 0.2 2.5 0.3 5.3c0.1 3.1 0.1 6.6-0.1 10.2z"/><path class="a" d="m326.1 459.1c6.2-2.3 12.4-10 15.4-13.4 1-1.1 2-2.3 2-3.7 0-1.8-1.7-3.3-2.2-5-0.8-2.5 0.9-5.2 0.7-7.8-0.6-5.8-12.8-12-18.1-10.7-9.7 2.4-5.4 11.5-6 18.4-0.5 5.1-5.4 14-2.2 18.7 3 4.5 6.7 5 10.4 3.6z"/><path class="a" d="m359.9 421.7c-2 4.8-4 9.2-6 13.3-1.4 0-2.8-0.4-4.1-1-1-2.5-0.7-5.4 0.8-7.6l0.9-1.5q0.5-1.5 1-3c2-1.8 5.2-1.6 7.4-0.2z"/><path class="d" d="m374.5 361.5q-0.1 1.6-0.2 3.3c-0.3 5.3-0.9 11-1.9 17q-0.5 2.6-1 5.2-0.1 0.7-0.3 1.5c-2.7 7.1-26.5 30.7-31.9 36.4-25 26.3-36.2 33.6-49 43.5q-0.8 0-1.7-0.1c-3.9-0.1-7.8-0.5-11.7-1.2q-0.3 0-0.5 0 0-0.1-0.1 0-1.1-0.3-2.1-0.7-0.1 0-0.1 0-1-0.3-1.9-0.7-0.9-0.4-1.5-0.8-0.5-0.3-0.9-0.6-0.3-0.2-0.5-0.5c-1.9-1.6-3-3.8-3.6-6.7q-0.4-1.4-0.5-2.8 0-0.1 0-0.1-0.1-0.6-0.2-1.3-0.1-2.2-0.2-4.8v-0.9c0-3.3 0.3-6.8 0.1-10.1v-0.1q0-3.2 0-6.9 0-1.6 0.1-3.1 0-1.6 0.1-3.2c0.2-7.5-1.2-13.9-3.9-20.9-2.7-6.7-1.7-12.1 0.8-17.3 2.7-3.7 5-7.9 7.8-11.6 4.5-6.2 8.6-12.5 13.3-18.7 3.8-4.9 7.4-10 11.1-14.9q0.2-0.2 0.3-0.3c1.9-2.3 3.7-4.7 5.6-6.9 0.4-0.5 0.8-1 1.2-1.4 13.4-14.8 28.5-31.4 50.1-31.5 1.4 0 2.7 0 3.9 0.5 2.9 1.1 4.8 3.9 6.3 6.6 4.7 8.8 9.1 19.4 11.4 29.2q0.1 0.7 0.3 1.4 0.3 1.6 0.6 3.3 0.1 0.8 0.2 1.6 0 0.4 0.1 0.7 0.1 1.2 0.2 2.4 0.2 2.5 0.3 5.3c0.1 3.1 0.1 6.6-0.1 10.2z"/><path class="b" d="m311.8 468.5c0.2 0.4 0.8 0.6 1.8 0.5 1.5-0.3 3-0.5 4.4-1.1 1.2-0.5 3.9-1.9 3.3-4.1-0.6-1.9-3.5-1.8-5-1.5-2.4 0.5-3.6 1.7-4.4 4-0.3 1-0.4 1.7-0.1 2.2z"/><path class="e" d="m321.3 463.8c-0.6-1.9-3.5-1.8-5-1.5-2.4 0.4-3.6 1.7-4.4 3.9-0.3 1.1-0.4 1.8-0.1 2.3q0.1 0.3 0.4 0.4-0.2-0.7 0.2-2c0.7-2.3 1.8-3.5 3.9-4 1.4-0.3 3.9-0.4 4.4 1.5 0.2 0.8 0.1 1.4-0.2 2 0.6-0.7 1.1-1.5 0.8-2.6z"/><path class="b" d="m296.6 470q0.6 0 1.3-0.1c1.7-0.5 5.1-2.9 5.6-5.2 0.1-0.6-0.4-1.1-0.9-1.4-1.8-1-6.1-1.2-8.1-0.5-2.1 0.8-1.1 4-0.3 5.4 0.6 1.1 1.3 1.7 2.4 1.8z"/><path class="e" d="m295.2 468.8c-0.7-1.4-1.8-4.5 0.4-5.3 1.8-0.7 5.5-0.6 7.5 0.2q-0.2-0.2-0.5-0.4c-1.8-1-6.1-1.2-8.1-0.5-2.1 0.8-1.1 4-0.3 5.4 0.5 0.9 1.1 1.4 1.8 1.7q-0.4-0.4-0.8-1.1z"/><path class="b" d="m279.4 463.4c-1.2 0.3-2.1 0.9-2.3 1.9-0.3 2.4 3.3 4.4 5.3 4.1 2.1-0.3 6.8-4.3 3.9-6.2-1.7-1.2-5-0.4-6.9 0.2z"/><path class="e" d="m278.8 465.9c0.1-1 1-1.6 2.2-2 1.4-0.4 3.6-1 5.4-0.7-1.8-1.2-5.1-0.4-7 0.2-1.2 0.3-2.1 0.9-2.3 1.9-0.3 2 2.3 3.7 4.3 4.1-1.5-0.8-2.9-2.1-2.6-3.5z"/><path class="c" d="m374.5 361.5q-0.1 1.6-0.2 3.3c-0.3 5.3-0.9 11-1.9 17q-0.5 2.6-1 5.2-0.1 0.7-0.3 1.5c-1.9 8.5-4.5 17.4-8.3 26.3-14.5 34.3-22.5 53.7-62.2 53.7q-5.8 0-10.4-0.1-0.8 0-1.7-0.1c-5-0.2-9-0.6-12.2-1.2q0-0.1 0-0.1-1.2-0.2-2.2-0.6-0.1 0-0.1 0-1-0.3-1.9-0.7-0.8-0.4-1.5-0.8-0.5-0.3-0.9-0.6-0.3-0.2-0.5-0.5c-1.9-1.6-3-3.8-3.6-6.7q-0.3-1.4-0.5-2.8 0-0.1 0-0.1-0.1-0.7-0.1-1.3-0.2-2.2-0.3-4.8v-0.9c0-2.9 0-6.3 0.1-10.1v-0.1q0-3.3 0-6.9 0-1.6 0.1-3.2 0-1.5 0.1-3.1c0.3-7.5-1.2-13.9-3.9-20.9-2.7-6.7-1.7-12.1 0.8-17.3 2-3.9 4.8-7.6 7.8-11.6 4.6-6.2 8.6-12.5 13.3-18.7 3.9-4.9 7.4-10 11.1-14.9q0.2-0.2 0.3-0.4c1.8-2.3 3.6-4.6 5.6-6.8 0.4-0.5 0.8-1 1.3-1.4 13.3-14.8 28.4-31.5 50.1-31.5 1.3 0 2.6 0 3.9 0.5 2.9 1 4.7 3.9 6.2 6.6 4.7 8.8 9.1 19.4 11.4 29.2q0.1 0.7 0.3 1.4 0.3 1.6 0.6 3.3 0.1 0.8 0.2 1.6 0 0.4 0.1 0.7 0.1 1.2 0.2 2.4 0.2 2.5 0.3 5.3c0.1 3.1 0.1 6.6-0.1 10.2z"/><path class="d" d="m374.5 361.5q-0.1 1.6-0.2 3.3c-0.3 5.3-0.9 11-1.9 17q-0.5 2.6-1 5.2-0.1 0.7-0.3 1.5c-2.7 7.1-26.5 30.7-31.9 36.4-25 26.3-36.2 33.6-49 43.5q-0.8 0-1.7-0.1c-3.9-0.1-7.8-0.5-11.7-1.2q-0.3 0-0.5 0 0-0.1-0.1 0-1.1-0.3-2.1-0.7-0.1 0-0.1 0-1-0.3-1.9-0.7-0.9-0.4-1.5-0.8-0.5-0.3-0.9-0.6-0.3-0.2-0.5-0.5c-1.9-1.6-3-3.8-3.6-6.7q-0.4-1.4-0.5-2.8 0-0.1 0-0.1-0.1-0.6-0.2-1.3-0.1-2.2-0.2-4.8v-0.9c0-3.3 0.3-6.8 0.1-10.1v-0.1q0-3.2 0-6.9 0-1.6 0.1-3.1 0-1.6 0.1-3.2c0.2-7.5-1.2-13.9-3.9-20.9-2.7-6.7-1.7-12.1 0.8-17.3 2.7-3.7 5-7.9 7.8-11.6 4.5-6.2 8.6-12.5 13.3-18.7 3.8-4.9 7.4-10 11.1-14.9q0.2-0.2 0.3-0.3c1.9-2.3 3.7-4.7 5.6-6.9 0.4-0.5 0.8-1 1.2-1.4 13.4-14.8 28.5-31.4 50.1-31.5 1.4 0 2.7 0 3.9 0.5 2.9 1.1 4.8 3.9 6.3 6.6 4.7 8.8 9.1 19.4 11.4 29.2q0.1 0.7 0.3 1.4 0.3 1.6 0.6 3.3 0.1 0.8 0.2 1.6 0 0.4 0.1 0.7 0.1 1.2 0.2 2.4 0.2 2.5 0.3 5.3c0.1 3.1 0.1 6.6-0.1 10.2z"/><path class="b" d="m311.8 468.5c0.2 0.4 0.8 0.6 1.8 0.5 1.5-0.3 3-0.5 4.4-1.1 1.2-0.5 3.9-1.9 3.3-4.1-0.6-1.9-3.5-1.8-5-1.5-2.4 0.5-3.6 1.7-4.4 4-0.3 1-0.4 1.7-0.1 2.2z"/><path class="e" d="m321.3 463.8c-0.6-1.9-3.5-1.8-5-1.5-2.4 0.4-3.6 1.7-4.4 3.9-0.3 1.1-0.4 1.8-0.1 2.3q0.1 0.3 0.4 0.4-0.2-0.7 0.2-2c0.7-2.3 1.8-3.5 3.9-4 1.4-0.3 3.9-0.4 4.4 1.5 0.2 0.8 0.1 1.4-0.2 2 0.6-0.7 1.1-1.5 0.8-2.6z"/><path class="b" d="m296.6 470q0.6 0 1.3-0.1c1.7-0.5 5.1-2.9 5.6-5.2 0.1-0.6-0.4-1.1-0.9-1.4-1.8-1-6.1-1.2-8.1-0.5-2.1 0.8-1.1 4-0.3 5.4 0.6 1.1 1.3 1.7 2.4 1.8z"/><path class="e" d="m295.2 468.8c-0.7-1.4-1.8-4.5 0.4-5.3 1.8-0.7 5.5-0.6 7.5 0.2q-0.2-0.2-0.5-0.4c-1.8-1-6.1-1.2-8.1-0.5-2.1 0.8-1.1 4-0.3 5.4 0.5 0.9 1.1 1.4 1.8 1.7q-0.4-0.4-0.8-1.1z"/><path class="b" d="m279.4 463.4c-1.2 0.3-2.1 0.9-2.3 1.9-0.3 2.4 3.3 4.4 5.3 4.1 2.1-0.3 6.8-4.3 3.9-6.2-1.7-1.2-5-0.4-6.9 0.2z"/><path class="e" d="m278.8 465.9c0.1-1 1-1.6 2.2-2 1.4-0.4 3.6-1 5.4-0.7-1.8-1.2-5.1-0.4-7 0.2-1.2 0.3-2.1 0.9-2.3 1.9-0.3 2 2.3 3.7 4.3 4.1-1.5-0.8-2.9-2.1-2.6-3.5z"/><path class="a" d="m372 280.2c9.4 32.7 2.5 79.8 2.5 79.8-23.3 33.6-100.1 64.4-139.8 64.9-38.3 0.6-116.7-33-140.3-66.1 0 0-7.2-41.7 3-78.6 14.7-53.1 44.4-98.8 63.1-132.1 11.4-20.2 36.5-31.1 74.3-32.3 37.2-1.1 62.5 8.4 74.4 28.7 21.6 36.9 48.2 84.7 62.8 135.7z"/><path class="b" d="m239 400.1c-37.3 0.5-105.5-25.4-146.4-56.3 0.8 9.2 1.8 15 1.8 15 23.5 33.1 102 66.7 140.3 66.1 39.6-0.5 116.4-31.3 139.7-64.9 0 0 0.5-3 1-8-40.7 27.1-100.8 47.5-136.5 48z"/><path class="c" d="m234.4 187.5c28.2 0 77.7 2.6 111.2 24.4-10.3-25.8-24.8-47.7-36.4-67.4-11.9-20.3-37.1-29.8-74.4-28.7-37.7 1.2-62.9 12.1-74.3 32.3-10 17.9-24.4 38.6-35.7 63.8 33.3-22.1 80.6-24.4 109.6-24.4z"/><path class="f" d="m316.3 158.1c0.2-0.2 0.5-0.5 0.7-0.7-2.6-4.6-5.2-8.6-7.9-12.8-12.7-19.8-37.2-29.8-74.4-28.7-37.7 1.2-63 12.1-74.3 32.3q-2.8 4.9-5.9 10.1c18 15.3 54.2 24.5 80.3 24.5 26.1 0 63.6-8.4 81.5-24.7z"/><path class="c" d="m196 24c0 12.8-4.5 20.8-18.3 32-9.9 8-30.1-4.1-27.9-32 1-12.8 13.4-24 26.1-24 8.1 0 20.1 11.3 20.1 24z"/><path class="f" d="m187.5 25.9c0 8.1-2.9 13.1-11.6 20.2-6.2 5.1-19-2.6-17.6-20.2 0.6-8.1 8.4-15.2 16.5-15.2 5.1 0 12.7 7.2 12.7 15.2z"/><path class="c" d="m273.1 24c0 12.8 4.5 20.8 18.3 32 9.9 8 30.1-4.1 27.9-32-1-12.8-13.4-24-26.1-24-8.1 0-20.1 11.3-20.1 24z"/><path class="c" d="m273.1 24c0 12.8 4.5 20.8 18.3 32 9.9 8 30.1-4.1 27.9-32-1-12.8-13.4-24-26.1-24-8.1 0-20.1 11.3-20.1 24z"/><path class="c" d="m273.1 24c0 12.8 4.5 20.8 18.3 32 9.9 8 30.1-4.1 27.9-32-1-12.8-13.4-24-26.1-24-8.1 0-20.1 11.3-20.1 24z"/><path class="f" d="m281.6 25.9c0 8.1 2.9 13.1 11.6 20.2 6.3 5.1 19-2.6 17.6-20.2-0.6-8.1-8.4-15.2-16.5-15.2-5.1 0-12.7 7.2-12.7 15.2z"/><path class="a" d="m323.4 93.1c0 23.9 1.4 44.4-14.4 58.7-15.8 14.4-49.6 22.5-74.1 22.5-24.6 0-57-8.5-73.2-22.5-16.8-14.4-16.4-33-16.4-57.5 0-48.3 50.9-88.7 88.2-88.7 37.2 0 89.9 39.2 89.9 87.5z"/><path class="b" d="m310.1 143c-16.3 14.8-50.6 24.6-75.2 24.6-24.5 0-54.8-9.1-71.1-23.1-14-12-18.1-33.9-18.4-52.8q0 1.3 0 2.6c0 24.5-0.4 43.1 16.4 57.5 16.2 14 49.3 22.5 73.2 22.5 23.8 0 57.8-7.7 74.1-22.5 15.5-14.1 14.4-34.1 14.4-57.4-0.3 17.2-1.1 37.5-13.4 48.6z"/><path class="c" d="m293.7 65.8c7.2 12.9 27.9 22.2 19 34-8.8 11.7-37.9 8.5-49.7-0.4-11.7-8.9-14.1-25.6-5.2-37.3 8.8-11.8 24.5-16.8 35.9 3.7z"/><path class="f" d="m264.5 87c5.3 6.2 25.3 7.9 29.9 1.3 5.7-8.3-3.7-12.1-7.9-19.1-5.9-9.8-14.9-11.2-20.4-2.9-4.5 6.8-6.9 14.5-1.6 20.7z"/><path class="c" d="m176.2 65.8c-7.2 12.9-27.8 22.2-19 34 8.9 11.7 38 8.5 49.7-0.4 11.8-8.9 14.1-25.6 5.3-37.3-8.9-11.8-24.5-16.8-36 3.7z"/><path class="f" d="m206.4 87c-5.3 6.2-25.3 7.9-29.9 1.3-5.7-8.3 3.7-12.1 7.9-19.1 5.9-9.8 14.9-11.2 20.4-2.9 4.5 6.8 6.9 14.5 1.6 20.7z"/><path class="a" d="m205.8 81.5h-0.1q0 0.4-0.2 0.7-0.1 0.3-0.2 0.5c-0.2 0.5-0.4 0.9-0.7 1.3q-0.2 0.4-0.5 0.7 0 0 0 0-0.2 0.4-0.6 0.7-0.3 0.3-0.6 0.6-0.3 0.3-0.7 0.6-0.7 0.5-1.5 0.9-0.4 0.2-0.8 0.3-0.4 0.2-0.8 0.3 0 0-0.1 0-0.5 0.1-0.9 0.2-0.4 0.1-0.9 0.1c-5.3 0.3-9.8-3.7-10.1-8.9q-0.1-0.9 0-1.8 0-0.2 0.1-0.5 0.3-1.6 1.1-3.1 0.2-0.2 0.3-0.5 0.4-0.6 0.9-1 0.2-0.3 0.5-0.6 0.2-0.2 0.5-0.4 0.5-0.4 1.1-0.8l0.6-0.4 0.6-0.3c0.9 0.2 2.1 0.7 3.4 1.4 2.6 1.3 5.7 3.5 7.5 5.3 0.8 0.7 1.3 1.4 1.5 1.9q0.1 0.1 0.1 0.2c0.2 1 0.5 1.9 0.4 2.6z"/><path class="f" d="m204 78.4c0.3 4.1-2.8 7.6-6.9 7.9-4.1 0.2-7.7-2.9-7.9-6.9-0.3-4.1 2.8-7.7 6.9-7.9h0.1c2.6 1.3 5.7 3.5 7.5 5.3q0.1 0.3 0.2 0.6 0.1 0.5 0.1 1z"/><path class="a" d="m194.4 78c-1.1 0-2-0.9-2-2.1 0-1.1 0.9-2.1 2-2.1 1.2 0 2.1 1 2.1 2.1 0 1.2-0.9 2.1-2.1 2.1z"/><path class="a" d="m284.6 79.5c-0.4 5.3-4.9 9.2-10.1 8.9q-0.9-0.1-1.7-0.3-0.4-0.1-0.7-0.2-0.4-0.1-0.7-0.2-0.1-0.1-0.1-0.1-0.3-0.1-0.6-0.3c-1-0.5-1.9-1.2-2.7-2q-0.2-0.3-0.5-0.6-0.1-0.2-0.3-0.5-0.2-0.3-0.4-0.6 0 0 0 0-0.2-0.3-0.3-0.6-0.1-0.1-0.1-0.2-0.1-0.3-0.3-0.6-0.1-0.4-0.2-0.8-0.1-0.4-0.2-0.7c0.1-0.5 0.3-1.1 0.4-1.8q0.1-0.1 0.1-0.2c0.3-0.6 0.9-1.4 1.9-2.3 1.8-1.7 4.6-3.6 7.1-5 1.4-0.6 2.6-1.1 3.5-1.3h0.1q0.2 0.1 0.4 0.2 0.3 0.1 0.5 0.2 0.2 0.1 0.3 0.2 0.4 0.3 0.8 0.5 0.3 0.2 0.5 0.5c0.9 0.7 1.6 1.5 2.1 2.5q0.1 0.2 0.3 0.5 0 0.1 0 0.1 0.2 0.3 0.3 0.6 0.3 0.9 0.5 1.8 0 0.3 0 0.5 0.2 0.9 0.1 1.8z"/><path class="f" d="m282.5 79.4c-0.3 4-3.8 7.2-7.9 6.9-4.1-0.3-7.2-3.8-6.9-7.9q0-0.6 0.1-1.1 0.1-0.5 0.3-0.8c1.8-1.8 4.6-3.7 7.1-5q0.2 0 0.4 0c4 0.2 7.2 3.8 6.9 7.9z"/><path class="a" d="m272.7 78c-1.2 0-2.1-0.9-2.1-2.1 0-1.1 0.9-2.1 2.1-2.1 1.1 0 2.1 1 2.1 2.1 0 1.2-1 2.1-2.1 2.1z"/><path class="g" d="m247.2 136.6c-1.9 3-5.9 5.9-13.2 5.9-7.3 0-10.9-2.6-13.2-5.9q0 0 0.1 0 0 0 0 0c1.3 0.4 2.7 0.7 4.2 0.8 1.6 0.2 3.3 0.1 4.9-0.1 0.8-0.2 1.6-0.4 2.3-0.6 0.6-0.2 1.2-0.4 1.8-0.7 0.5 0.3 1.1 0.4 1.7 0.6q1.1 0.3 2.3 0.5c1.6 0.3 3.2 0.4 4.8 0.3 0.8-0.1 1.6-0.2 2.4-0.3 0.6-0.2 1.2-0.3 1.9-0.5z"/><path class="h" d="m244.8 136.4c-1.5 1.8-4.9 3.5-10.8 3.5-6 0-9-1.5-10.8-3.5q0 0 0 0 0 0 0 0c1.1 0.2 2.3 0.4 3.5 0.5 1.3 0.1 2.7 0 4-0.1q1-0.1 1.9-0.4 0.8-0.1 1.5-0.4 0.7 0.2 1.4 0.4 0.9 0.2 1.9 0.3c1.3 0.1 2.6 0.2 3.9 0.1q1 0 2-0.1c0.5-0.1 1-0.2 1.5-0.3z"/><path class="f" d="m247.2 135.8c-0.7 0.1-1.5 0.2-2.2 0.3-0.7 0-1.4 0.1-2.2 0.1-1.4 0-2.9-0.2-4.3-0.5l-1-0.2c-0.4-0.1-0.7-0.2-1-0.3-0.5-0.1-1-0.3-1.4-0.5v-6.2h-2.1v6.3c-0.5 0.2-0.9 0.4-1.4 0.5q-1 0.3-2.1 0.5c-1.4 0.3-2.8 0.4-4.3 0.4-0.4 0-0.8 0-1.1 0h-0.6l-0.6-0.1q-0.5-0.1-1.1-0.2l-1.1-0.2-0.5-0.1-0.6-0.1-1.1-0.3c-0.3-0.1-0.7-0.2-1-0.3l-1.1-0.4c0.6 0.4 1.2 0.8 1.9 1.1q0.5 0.2 1.1 0.4l0.5 0.3 0.5 0.1c1.5 0.6 3.1 0.9 4.7 1 1.6 0.2 3.3 0.1 4.9-0.2 0.8-0.1 1.6-0.3 2.3-0.5 0.6-0.2 1.2-0.4 1.8-0.7q0.8 0.4 1.7 0.6 1.1 0.3 2.3 0.5c1.6 0.3 3.2 0.4 4.8 0.3 0.8-0.1 1.6-0.2 2.4-0.3 0.7-0.2 1.5-0.4 2.2-0.6 1.5-0.5 2.8-1.3 3.9-2.1-1.4 0.6-2.7 1.1-4.2 1.3z"/><path class="c" d="m254.2 118.7c0 7.8-9.1 14.2-20.3 14.2-11.2 0-20.2-6.3-20.2-14.2 0-7.8 9-6.8 20.2-6.8 11.2 0 20.3-1 20.3 6.8z"/><path class="f" d="m254.2 118.7c0 7.8-9.1 14.2-20.3 14.2-11.2 0-20.2-6.3-20.2-14.2 0-7.8 9.2 2 20.4 2 11.2 0 20.1-9.8 20.1-2z"/></svg>