<svg version="1.2" xmlns="http://www.w3.org/2000/svg" viewBox="0 0 470 470" width="470" height="470"><style>.a{fill:#3c3c3b}.b{mix-blend-mode:multiply;fill:#b2b2b2}.c{fill:#f9eaa8}.d{fill:#f9df87}.e{mix-blend-mode:multiply;fill:#dedac9}.f{fill:#ededed}.g{mix-blend-mode:multiply;fill:#ededed}.h{fill:#fff}.i{fill:#f9d9a8}.j{mix-blend-mode:multiply;fill:#f9d9a8}.k{mix-blend-mode:soft-light;fill:#cbbba0}.l{fill:#e8a94f}.m{mix-blend-mode:multiply;fill:#e8a94f}.n{fill:#f9ec4e}.o{fill:#1d1d1b}.p{fill:#afe4ec}.q{fill:#97c4cb}.r{mix-blend-mode:multiply;fill:#dadada}.s{fill:#e57c8b}.t{mix-blend-mode:multiply;fill:#9b5663}.u{fill:#f9e1f7}.v{fill:#8d6f46}</style><path class="a" d="m430.1 151.1c-2.3 6.5-8.1 12-13.8 15.7-5 3.2-10 6-15.3 8.4-4.4 2-9.6 4.2-14.6 5.1 2 0.4 3.5 0.9 5.6 1.1-4.6 1.3-9.1 2.1-13.9 2.3 2.1 0.9 4.2 1.5 6.3 1.9-8.3 1.4-17.3 3.1-24.3 8.1q-3.1 2.3-5.8 4.8c-7.6 6.9-14.4 17.7-17.9 26.9-4.8 12.3-5.9 25-8.1 37.9-2.3 13.1-6.6 25.9-12.7 37.8-4.7 9.2-11 17.1-21.1 20.1q2.3 0.2 4.6 0.5c-6 4.4-13.5 6.9-20.7 9q-1.9 0.6-3.8 1.1c-9.3 2.5-18.9 3.9-28.5 4.5-7.3 0.4-14.7 0.4-21.8-0.2-11.7-0.9-35-3.3-40.6-15.6-1.1-2.5-1.1-5.7 0.8-7.8 3-3.2 8.8-3.2 12.8-3.5 10.6-0.8 21.1 0.8 31.7-0.7 8.2-1.2 16.5-1.9 24.8-3.3q0.3-0.1 0.6-0.1 2.3-0.4 4.6-0.9c3.2-0.8 6.3-1.6 9.3-2.7 3.5-1.1 6.7-2.5 9.8-4.1 5.4-2.8 10.2-6.4 13.8-10.9 21.1-26.2 6.3-65.3 18.8-95 8.3-19.5 22.1-36.9 38.1-50.6q-0.2 0.8-0.1 1.6c2.3-2 4.3-3.9 6.6-5.7 2.8-2.1 5.2-3.6 8.3-5.7 6.4-3.9 13.4-6.8 20.4-9.2-0.7 0.9-1.3 1.7-2 2.7 2.8-1 5.9-1.4 8.8-1.8 11.7-1.5 25.4 0.8 34.3 9.1 1.3 1.2 2.6 2.6 3.6 4.2 2.8 4.5 3.2 10 1.4 15z"/><path class="b" d="m430.1 151.1q-0.8 2.4-2.2 4.6-0.1 0.1-0.2 0.3-0.2 0.3-0.4 0.7-0.8 1.2-1.8 2.3-0.4 0.5-0.9 0.9 0 0.1-0.1 0.2-0.5 0.5-1 1-1.4 1.4-2.9 2.6-0.7 0.5-1.4 1.1-1.4 1-2.9 2c-2 1.4-4.1 2.6-6.2 3.7q-1 0.6-2.1 1.2-0.2 0.1-0.5 0.3c-2.1 1.1-4.4 2.2-6.6 3.2-4.3 2-9.5 4.2-14.5 5.1q2.8 0.5 5.5 1.1-6.9 1.2-13.8 2.3 3.2 0.9 6.3 1.9c-7.8 1.3-15.9 3-22.3 6.9q-1 0.6-2 1.2-3.1 2.3-5.8 4.8c-7.6 6.9-14.4 17.7-17.9 26.9-4.8 12.3-5.9 25-8.1 37.9-2.3 13.1-6.6 25.9-12.7 37.8-4.7 9.2-11 17.1-21.2 20.1q2.4 0.2 4.7 0.5c-6 4.4-13.5 6.9-20.7 9q-2 0.6-3.8 1.1c-9.3 2.5-18.9 3.9-28.5 4.5-7.3 0.4-14.7 0.4-21.8-0.2-11.7-0.9-35-3.3-40.6-15.6-1.1-2.5-1.1-5.7 0.8-7.8 1.3-1.5 3.4-2 5.4-2.4q0.9-0.2 1.9-0.4 0.6-0.1 1.2-0.2 0.4 0 0.8-0.1 0.8-0.1 1.7-0.2 0.9-0.1 1.8-0.2c10.6-0.8 21.1 0.8 31.6-0.7 8.3-1.2 16.6-1.9 24.8-3.3q0.4-0.1 0.7-0.1c1.5-0.2 3.2-0.4 4.6-0.9q4.8-1.1 9.3-2.7c3.4-1.1 6.7-2.5 9.8-4.1-0.1 1.4-0.2 2.7-0.3 3.6-0.6 4.9-0.2 9 2.7 13.1 0.3 0.5 0.7 0.9 1.2 1.1 0.6 0.3 1.3 0.1 2-0.1 6.2-2.2 11.5-7.1 14.1-13.2q0.4 1.4 0.9 2.8c-0.3-0.9 3.5-5.8 4.1-6.8q2.3-4 4.3-8.2c2.6-5.1 4.1-10.2 5.9-15.5 3.6-10.6 5.9-21.7 7.3-32.8 1.5-11 1.8-21.9 5.3-32.7 3.1-9.3 7.9-18.1 14.9-25-0.3 2.2 0 4.5 0.6 6.6 2.7-3.4 5.8-6.6 9.2-9.4 0 1.1-0.1 2.2-0.1 3.2 2.1-1.8 6.1-4.1 7.6-5 3.8-2.2 7.4-4.3 11.5-6 12.5-5.3 26-7.2 38-13.5 7.4-3.8 14.1-9.4 18-16.9 0.8 0.6 1.4 1.2 1.7 2.2 1.2-2 2.3-4.2 2.7-6.9 1.8 3.8 2.1 8.2 0.4 13.1z"/><path class="c" d="m187.5 324.9q0 0.5 0 1.1 0 0.2 0 0.3 0 0.5-0.1 1v0.2q0 0.7-0.1 1.3-0.1 0.7-0.2 1.3-0.3 1.3-0.6 2.6-0.2 0.8-0.4 1.5c-1.2 3.8-3 7.5-4.9 11.1q-0.6 1-1.2 2.1c-1.5 2.7-3.1 5.5-4.5 8.4q-0.5 0.9-0.9 1.8-0.4 0.9-0.8 1.8-0.4 0.8-0.7 1.8 0 0 0 0-0.4 0.9-0.7 1.8-0.2 0.5-0.3 1-0.1 0.3-0.2 0.7-0.2 0.6-0.4 1.2-0.2 0.9-0.4 1.9-0.1 0.6-0.2 1.2c-0.1 0.6-0.2 1.2-0.2 1.7q-0.6-0.3-1.3-0.7-0.3 2.2-0.4 4.3-0.2 3.3 0 6.5-1.5-1.7-3.1-3.3v0.4q0 1 0.1 2 0 0.8 0.1 1.6 0 0.4 0 0.7 0.1 0.7 0.2 1.3 0.4 2.9 1.3 5.6 0.5 1.4 1.1 2.7 0.2 0.4 0.4 0.9 0.3 0.6 0.7 1.3 0.3 0.5 0.6 1.1 0.4 0.5 0.7 1 0.6 0.9 1.2 1.7 0.2 0.3 0.5 0.6c1.3 1.9 2.8 3.8 3.9 5.7q0.3 0.5 0.5 0.9 0.2 0.4 0.4 0.8 0.1 0.1 0.1 0.2 0.2 0.4 0.4 0.9 0.2 0.5 0.3 1 0.2 0.5 0.3 1 0.1 0.5 0.2 1c0.1 1.4 0.1 2.8 0 4.2q-0.1 2.2-0.1 4.4c0 2.6 0.2 5.2 0.3 7.8l0.3 5q0.1 1.1 0.2 2.1 0 0.9 0.1 1.8 0 1.2 0.1 2.5c0.2 6.7 0 13.3-1.9 19.5q0 0.1-0.1 0.2-0.1 0.5-0.3 0.9-0.1 0.2-0.2 0.4-0.2 0.5-0.5 1-0.3 0.7-0.7 1.2 0 0.1 0 0.1-0.4 0.6-0.9 1.1-0.4 0.5-1 1 0 0.1 0 0.1-0.5 0.5-1.1 0.8 0 0.1 0 0.1-0.3 0.3-0.7 0.5-0.2 0.2-0.4 0.3-0.6 0.3-1.2 0.6-0.1 0.1-0.2 0.1-0.4 0.2-0.9 0.4-0.3 0.1-0.5 0.2-0.6 0.2-1.3 0.4c-2.6 0.8-5.6 0.9-8.5 0.7q-1.6-0.1-3.3-0.3c-1.1-0.2-2.1-0.5-3.2-0.7q-0.3-0.1-0.6-0.1-0.7-0.1-1.5-0.2c-1.5 0-2.9 0.4-4.3 0.7-3.8 1-7.8 1.7-11.7 1.3q-0.4 0-0.8-0.1-0.5 0-1-0.1-0.3-0.1-0.6-0.1-0.4-0.1-0.9-0.2-0.3-0.1-0.7-0.2-0.3-0.1-0.7-0.3 0 0-0.1 0-0.4-0.1-0.8-0.3-0.3-0.1-0.5-0.2c-0.6-0.3-1.2-0.5-1.8-0.7q-0.3-0.1-0.7-0.1c-0.9-0.1-1.7 0.1-2.6 0.3-1.5 0.2-3.2 0.3-4.9 0.1-1.5-0.1-3-0.4-4.5-0.9-0.7-0.2-1.4-0.5-2-0.8-0.7-0.4-1.4-0.7-2-1.2q-0.3-0.3-0.7-0.6-0.4-0.4-0.7-0.7-0.3-0.4-0.6-0.8-0.3-0.4-0.6-0.8c-2-3.5-2-7.9-0.8-11.8 0.6-1.9 1.4-3.6 2.4-5.2q1.2-1.9 2.6-3.2c1.5-1.4 3.1-2.3 5-3 1.5-0.6 3.1-1 4.6-1.4q0.1 0 0.3-0.1c1.5-0.4 2.9-0.9 4.2-1.4q0.4-0.1 0.7-0.3 0.1 0 0.1 0 0.1 0 0.2-0.1 0.7-0.3 1.3-0.6 0.2-0.1 0.4-0.2 0.4-0.3 0.8-0.5 0.1 0 0.1 0 0.3-0.2 0.6-0.4 0.2-0.2 0.5-0.4 0.5-0.4 1-0.8 0.5-0.4 0.9-0.9 0.1 0 0.1 0 0.2-0.3 0.5-0.6 0.1-0.2 0.3-0.4 0.4-0.4 0.7-1 0.8-1.2 1.4-2.6 0.2-0.4 0.3-0.7 1-2.7 1.3-6.3c0.1-0.9 0.1-1.8-0.3-2.6-0.4-0.8-1.2-1.3-2-1.7q-3.3-2.1-6.4-4.3c-3.7-2.7-7.2-5.7-10.2-9-4-4.1-7.3-8.7-10.1-13.9q-1.5-2.7-2.7-5.7c-0.4 0.4-1 1.7-1.3 2.3q-0.8-2-1.3-4-0.8-2.6-1.1-5.3c-0.3 0.1-1 0.4-1.3 0.6-0.5-1.9-0.9-4.2-1-6.5-0.1-1-0.1-1.9-0.2-2.9-0.2-4.7 0.1-9.4 0.3-11.9v-0.1q0.1-1 0.2-1.5 0.6-4 1.6-7.9c1.1-4.3 2.5-8.5 4.1-12.7q0.4-0.9 0.8-1.9c1.2-3.1 2.5-6.3 3.8-9.7q1.3-3.3 2.8-6.7 0.9-1.9 1.8-3.9 0.8-1.9 1.7-3.7 0.6-1.4 1.3-2.7 0.1-0.2 0.2-0.4 0.1-0.3 0.3-0.5 0.8-1.6 1.7-3.2 0 0 0-0.1 0.8-1.4 1.7-2.8 0.2-0.4 0.4-0.8 0.9-1.3 1.8-2.7 0.4-0.6 0.8-1.3 0.2-0.2 0.4-0.5 0.4-0.6 0.9-1.2 1-1.5 2.2-2.9 0.9-1.1 1.9-2.1 0.4-0.5 0.8-0.9c0.6-0.6 1.2-1.2 1.8-1.8q0.6-0.6 1.3-1.2 1.1-1 2.2-1.8c13-10.2 23.9 4 33 12.3q0.4 0.4 0.9 0.8 0.2 0.2 0.4 0.4 0.3 0.4 0.6 0.7 0.4 0.3 0.7 0.7c3.1 3.4 6.6 8 9.4 12.7q0.9 1.5 1.7 2.9 1.1 2 2 3.9 0.6 1.5 1.1 2.9c0.2 0.3 0.3 0.6 0.3 0.9q0.2 0.4 0.3 0.9 0.3 0.8 0.5 1.6 0.1 0.8 0.3 1.5 0 0.1 0 0.2 0.2 1.3 0.3 2.6 0 0.7 0 1.3z"/><path class="d" d="m108.2 353.9c-0.5 3.8-1.8 7.9-4.3 10.8q-0.2 0.2-0.3 0.3c-0.5 0.6-1.2 1.2-1.9 1.3-0.9 0.3-1.9-0.1-2.5-0.8-0.2-4.8 0.1-9.4 0.3-12q0.4-0.9 0.9-1.7c1.5-2.6 5.9-5.3 7.5-2.2q0.3 0.6 0.4 1.4c0.1 0.9 0.1 1.9-0.1 2.8z"/><path class="d" d="m158.2 317.5c-1.5 1.7-4.2 1.8-6.2 0.9q-0.3-0.1-0.5-0.3c-1.8-0.9-3.2-2.6-4.4-4.3-4.6-6.2 2.5-13 8.2-8 0.9 0.8 1.5 1.8 2.1 2.8 1.5 2.7 3.1 6.2 0.8 8.8z"/><path class="a" d="m109 349.6q-0.2 0.8-0.7 1.4c-0.9 1.2-2.5 2-3.8 2.5-1.8 0.7-3.9 2-4.3 4.1-0.5 2.3 1.4 3.9 2.7 5.4 0.4 0.5 0.8 1.2 0.7 2q0 0.2-0.1 0.5c-0.1 0.4-0.4 0.7-0.7 1-1 1.1-2.2 1.6-3.4 1.8-0.1-0.9-0.2-1.9-0.2-2.8-0.2-4.8 0.1-9.4 0.3-12q0.1-1 0.2-1.5 0.6-4 1.6-8c2.8-0.6 5.2-1.2 7 1.8 0.7 1 1.1 2.4 0.7 3.8z"/><path class="a" d="m134.2 333.1c1.1-0.7 2.4-1.8 2.7-3.2 0.1-0.7 0-1.3-0.3-1.9-2.7-5.1-11.8-4.8-15.6-1.5 1.1 0.2 2 0.6 2.8 1.3-2.4 2.5-4.7 6.8-0.3 8.3 3 0.9 8.2-1.5 10.7-3z"/><path class="a" d="m164.5 347.6c-4.7-1.1-12.5-5.6-13.9-6.6-6.3-4.5 2.6-11.5 7.8-11.6 4.6-0.2 9.7 3.7 11.8 7.6 0.4 0.8 0.8 1.7 0.7 2.6 0 0.9-0.7 1.8-1.6 2-0.6 0-1.2-0.2-1.7 0.1-0.8 0.4-0.8 1.5-0.4 2.3 0.5 0.8 1.1 1.6 1 2.4-0.2 1.5-1.6 1.7-3.7 1.2z"/><path class="a" d="m119.3 359c-0.6 1.1-1.2 2.4-0.8 3.5 0.1 0.4 0.4 0.7 0.8 1 2.5 2.1 6.4 1.8 9.4-0.6 0.6-0.6 1.2-1.2 1.4-2.1 0.1-0.4 0-0.8 0-1.2-0.4-3.1-2.2-9.3-5.4-9.7-1.7-0.2-1.9 1.1-2.3 2.6-0.6 2.4-1.9 4.3-3.1 6.5z"/><path class="a" d="m150.6 364.6c3 1.5 6.3 0.8 7-4.8 0.6-5.1-6.3-9.3-10.3-6.5-4.4 3.2-0.8 9.3 3.3 11.3z"/><path class="a" d="m128.5 409.9c-3.8-2.8-7.3-5.7-10.3-9q-0.1-0.3-0.1-0.6c-0.1-0.7 0-1.4 0.5-2 1.2-1.5 4.3 0.2 5.6 1.1 1.9 1.3 3.4 3 5 4.6 1.8 2.1 1.2 4.7-0.7 5.9z"/><path class="a" d="m134.8 433.3c-2.3 5.8-12.3 2.8-16.9 5.7-0.9 0.5-1.8 1.3-2.9 1.6-1 0.4-2.3 0.4-3.1-0.4q0 0 0-0.1c1.4-1.3 3-2.3 4.9-3 1.5-0.6 3.1-0.9 4.6-1.4q0.1 0 0.3 0 2.3-0.7 4.3-1.5 1.8-0.7 3.4-1.7 0.1 0 0.1 0c1.5-1 2.8-2.1 3.9-3.4 1.5 1.1 2.1 2.3 1.4 4.1z"/><path class="a" d="m135.5 444.4c1.2 0.4 2.7 0.2 4-0.1 0.9-0.2 1.9-0.5 2.6-1 3.2-2.2-1.2-4-3.6-3.8-2.9 0.4-7.2 3.5-3 4.9z"/><path class="a" d="m158.1 440.9c-1.7 2-0.2 7 2.8 6.7 1.5-0.1 2.3-1.8 3.7-2.2 1.1-0.5 2.8-0.1 2-2.2-1.2-3.6-5.8-5.6-8.5-2.3z"/><path class="a" d="m141 451.3c1.3 0.3 2.5 1 2.5 2.1 0.1 1.2-1.2 2.3-2.4 2.4-2.4 0.3-6.7-3.6-2.8-4.6 0.6-0.1 1.7-0.1 2.7 0.1z"/><path class="a" d="m125.5 447.8c1.3-3.7-4.5-4.9-4.2-0.2 0.1 0.5 0.2 1 0.4 1.4 0.6 0.9 1.8 1.2 2.7 0.8 1-0.4 1.5-1.6 1.2-2.6-0.2 0.7 0.1-0.1-0.1 0.5z"/><path class="a" d="m109.7 385.8c-0.3 0.6-0.9 0.9-1.5 1.1q-1.5-2.7-2.8-5.6c-0.3 0.3-1 1.6-1.3 2.2q-0.8-1.9-1.3-4c1-2.2 3.4-1.8 5.2-0.2 1.9 1.5 3.1 4.2 1.7 6.5z"/><path class="a" d="m133.7 295.7c-0.4 2.9-2.2 5.4-4.1 7.6-2 2.3-4.3 4.5-7 5.9-2.8 1.5-5.6 1.3-8-0.1q0.8-1.8 1.7-3.7c2.2-4.6 4.6-9 7.4-13.2q2-3.1 4.3-5.8 0.4 0.2 0.8 0.4c2.6 2 5.3 5.3 4.9 8.9z"/><path class="d" d="m132 327.4c0.4 0.2 0.7 0.6 0.8 1.2 0.6 2.7-4.6 3.6-6.2 3.1-0.2-0.1-0.5-0.2-0.6-0.4-0.1-0.2-0.1-0.5 0-0.7 0.4-1.9 4.2-4.2 6-3.2z"/><path class="d" d="m123.7 303.7c-1.7 1.2-4.9 2-7.4 1.7 2.2-4.6 4.6-9 7.4-13.2q0.4 0.3 0.8 0.7c3.5 3.6 3.4 7.9-0.8 10.8z"/><path class="a" d="m164.6 302.1c5.4 7-2.7 23.7-12.2 18.1-0.7-0.4-1.1-1.3-0.9-2.1q0 0 0.1-0.1c0.2-0.4 0.6-0.7 0.9-1 1.7-1.5 2.2-4.1 1.3-6.1-0.9-2-3.1-3.4-5.3-3.2-0.8 0.1-1.5 0.3-2 0.8-0.5 0.5-0.7 1.3-1.3 1.7q-0.1 0-0.2 0.1c-0.9 0.3-1.8-0.6-1.9-1.5-0.7-7.4 8.8-10.5 14.6-10.1 2.6 0.1 5.3 1.3 6.9 3.4z"/><path class="a" d="m108.5 328.9c-0.9 1-2 1.9-3.1 2.5q0.4-1 0.8-2c1.2-3.1 2.5-6.3 3.8-9.6 2.8 0.8 1.4 5.8-1.5 9.1z"/><path class="a" d="m131.3 348.5q-0.2-0.2-0.4-0.3c-0.8-0.6-2.5-0.9-3.3-0.4-0.6 0.4-0.5 0.9-0.1 1.4q1.6 1.8 3.2 3.6c0.4 0.5 1.2 1.1 1.8 0.7 0.4-0.3 0.3-0.9 0.2-1.5-0.2-1.1-0.6-2.6-1.5-3.5z"/><path class="a" d="m177.8 457.4v0.1q-0.1 0.4-0.3 0.9-0.1 0.2-0.2 0.4-0.2 0.5-0.5 1-0.3 0.6-0.7 1.2 0 0 0 0-0.4 0.6-0.9 1.2-0.4 0.5-1 1 0 0 0 0.1-0.5 0.4-1.1 0.8 0 0 0 0-0.4 0.3-0.7 0.6c-1.9 0.1-3.9-0.2-5.5-0.9-1.9-0.7-6-4.7-1.7-5.6 0.4-0.1 0.8-0.1 1.1-0.1 0.7 0 1.4 0.1 2-0.2 2-0.6 2.9-3.2 4.9-3.8 1.1-0.3 2.4 0.2 3.2 1.1 0.7 0.6 1.1 1.4 1.4 2.2z"/><path class="a" d="m180.1 347.4c-1.6 2.8-3.2 5.5-4.6 8.4q-0.2-0.2-0.3-0.4c-2.3-2.2-1.8-5.5 0.3-7.7 1.4-1.6 3.3-1.5 4.6-0.3z"/><path class="a" d="m179.6 433.5c-1.7 0.9-3.7 1.4-5.2 1.2-2.7-0.3-6.3-2.1-5.8-5.4 0.3-1.6 1.6-3.2 3.3-2.5 1.8 0.8 2.7 2.2 4.2 1.6q0.5-0.1 1.1-0.6c0.5-0.5 1.2-1 1.9-1.4 0.2 2.3 0.3 4.7 0.5 7.1z"/><path class="a" d="m148.6 428c-1.1 0.4-2.1 1.1-2.8 1.8-0.6 0.5-2.1 1.8-1.2 2.7 0.3 0.3 0.8 0.4 1.2 0.5 1.8 0.1 5.1-0.1 6.2-1.7 1.2-1.5 0.5-3.2-1.4-3.5-0.6-0.2-1.3 0-2 0.2z"/><path class="a" d="m187.5 326c-1.3-0.4-2.5-1.1-3.7-1.9q-1.9-1.2-3.8-2.5c-2.2-1.6-3.8-5.1-0.6-6.7 1.4-0.7 3-0.5 4.3-1.2q0.6-0.3 1-0.7c1 2.2 1.8 4.4 2.2 6.3q0.7 3.4 0.6 6.7z"/><path class="a" d="m146.3 279.3c1.2-1.8 3.4-2.6 5 0.7 1 1.9-0.4 4.5-2.6 4.8-4.1 0.5-4-3.3-2.4-5.5z"/><path class="a" d="m166.3 383.5q0.4 2.9 1.3 5.6c-3.5-1.2-7-2.9-9.8-5.2-4.2-3.4-9-11.7-1.6-14.5 4.8-1.8 9.1 1.8 12.8 4.9q-0.2 3.3 0 6.5-1.5-1.7-3.1-3.3v0.4q0 1 0.1 2 0 0.8 0.1 1.6 0 0.4 0 0.7 0.1 0.7 0.2 1.3z"/><path class="a" d="m178.9 414.1q-0.1 2.2-0.1 4.4c-1.1 0.5-2.3 0.7-3.6 0.9q-0.2 0.1-0.5 0.1c-1.9 0.3-4.5 0.4-6.7-0.1-2.3-0.5-4.2-1.4-5-3.4-0.7-1.7 0.1-3.9 1.3-6.2 1-2.1 2.2-4.2 2.5-5.9 0.3-1.4 0.6-2.9 1.5-4 0.9-1.1 2.6-1.5 4.4-1.4q0 0 0 0c1.4 1.8 2.8 3.7 4 5.7q0.2 0.4 0.5 0.8 0.2 0.5 0.4 0.8 0 0.2 0.1 0.2 0.2 0.5 0.3 0.9 0.2 0.5 0.4 1 0.1 0.5 0.2 1 0.2 0.6 0.2 1.1c0.2 1.3 0.1 2.7 0.1 4.1z"/><path class="a" d="m156.1 412.1c9.1-7.9 4.9-20.6-2.4-28.5-3.2-3.5-7.1-6.5-11.6-7.6-9.2-2.4-21.8 5-16.9 15.6 1.6 3.5 4.9 5.7 8.6 6.4 2.9 0.5 5.2 0.7 5.9 4 0.6 2.5-1 5-0.4 7.5 1.6 7 12 6.6 16.5 2.8q0.2-0.1 0.3-0.2z"/><path class="e" d="m187.5 324.9q0 0.5 0 1.1 0 0.2 0 0.3 0 0.5-0.1 1v0.2q0 0.7-0.1 1.3-0.1 0.7-0.2 1.3-0.3 1.3-0.6 2.6-0.2 0.8-0.4 1.5c-1.2 3.8-3 7.5-4.9 11.1q-0.6 1-1.2 2.1c-1.5 2.7-3.1 5.5-4.5 8.4q-0.5 0.9-0.9 1.8-0.4 0.9-0.8 1.8-0.4 0.8-0.7 1.8 0 0 0 0-0.4 0.9-0.7 1.8-0.2 0.5-0.3 1-0.1 0.3-0.2 0.7-0.2 0.6-0.4 1.2-0.2 0.9-0.4 1.9-0.1 0.6-0.2 1.2c-0.1 0.6-0.2 1.2-0.2 1.7q-0.6-0.3-1.3-0.7-0.3 2.2-0.4 4.3-0.2 3.3 0 6.5-1.5-1.7-3.1-3.3v0.4q0 1 0.1 2 0 0.8 0.1 1.6 0 0.4 0 0.7 0.1 0.7 0.2 1.3 0.4 2.9 1.3 5.6 0.5 1.4 1.1 2.7 0.2 0.4 0.4 0.9 0.3 0.6 0.7 1.3 0.3 0.6 0.6 1.1 0.4 0.5 0.7 1 0.6 0.9 1.2 1.7 0.2 0.3 0.4 0.6 0 0 0.1 0c1.3 1.9 2.8 3.8 3.9 5.7q0.3 0.5 0.5 0.9 0.2 0.4 0.4 0.8 0.1 0.1 0.1 0.2 0.2 0.4 0.4 0.9 0.2 0.5 0.3 1 0.2 0.5 0.3 1 0.1 0.5 0.2 1c0.1 1.4 0.1 2.8 0 4.2q-0.1 2.2-0.1 4.4c0.1 2.6 0.2 5.2 0.3 7.8l0.3 5q0.1 1.1 0.2 2.1 0 0.9 0.1 1.8 0 1.2 0.1 2.5c0.2 6.7 0 13.3-1.9 19.5q0 0.1-0.1 0.2-0.1 0.5-0.3 0.9-0.1 0.2-0.1 0.4-0.3 0.5-0.5 1-0.4 0.7-0.8 1.2 0 0.1 0 0.1-0.4 0.6-0.9 1.1-0.4 0.5-1 1 0 0.1 0 0.1-0.5 0.5-1 0.8-0.1 0.1-0.1 0.1-0.3 0.3-0.7 0.5-0.2 0.2-0.4 0.3-0.6 0.3-1.2 0.6-0.1 0.1-0.2 0.1-0.4 0.2-0.9 0.4-0.3 0.1-0.5 0.2-0.6 0.2-1.3 0.4c-2.6 0.8-5.6 0.9-8.5 0.7q-1.6-0.1-3.3-0.3c-1.1-0.2-2.1-0.5-3.2-0.7q-0.3-0.1-0.6-0.1-0.7-0.1-1.5-0.2c-1.5 0-2.9 0.4-4.3 0.7-3.8 1-7.8 1.7-11.7 1.3q-0.4 0-0.8-0.1-0.5 0-1-0.1-0.3-0.1-0.6-0.1-0.4-0.1-0.9-0.2-0.3-0.1-0.7-0.2-0.3-0.1-0.7-0.3 0 0-0.1 0-0.4-0.1-0.8-0.3-0.3-0.1-0.5-0.2c-0.6-0.3-1.2-0.5-1.8-0.7q-0.3-0.1-0.7-0.1c-0.8-0.1-1.7 0.1-2.6 0.3-1.5 0.2-3.2 0.3-4.9 0.1-1.5-0.1-3-0.4-4.5-0.9-0.7-0.2-1.4-0.5-2-0.8-0.7-0.4-1.4-0.7-2-1.2q-0.3-0.3-0.7-0.6-0.4-0.4-0.7-0.7-0.3-0.4-0.6-0.8-0.3-0.4-0.6-0.8c-2-3.5-2-7.9-0.8-11.8 0.3 1 0.5 2 0.9 3 0.1 0.1 0.1 0.2 0.2 0.3 0.7 1.4 1.6 2.7 2.8 3.7q0.7 0.6 1.5 1.1c2 1.2 4.3 1.8 6.7 1.4 3-0.5 9.3-4.9 9.3-8.6 0 1 0.1 2.1 0.2 3.2 0.3 1.8 1 3.6 2.4 4.6 0.2 0.1 0.4 0.3 0.7 0.4 0.9 0.5 2.1 0.7 3.4 0.9 2.1 0.2 4.3 0.1 5.9-0.2 3.8-0.6 6.8-2.6 8.5-5.7q0.1 0 0.1 0 0.9-1.8 1.3-3.9 0.1-0.3 0.1-0.7 0 0.3 0 0.6c-0.4 3.8 0.8 6.4 3.1 8q0.9 0.6 2 1c1.2 0.4 2.5 0.6 4 0.7 5.8 0.2 10.4-2.4 12.1-8 0.4-1.4 0.6-2.8 0.7-4.2-0.8 0.6-2.4 1.3-3.6 1.6 1-2.9 1.7-9.9 1.6-14.4q-0.1-1-0.2-1.8-0.2-2.3-0.6-4.5-0.8-3.9-1.9-7.7-1-3.1-2.2-6.1-0.7-1.8-1.5-3.5c-0.9-1.7-1.9-3.4-2.9-5-3.1-4.8-6.6-9.2-9.1-14.4q-0.7 1.5-1.5 3c-2.7-5.1-4.7-10.6-5.7-16.3q-0.2-0.8-0.3-1.6c-0.2 0.4-0.3 0.8-0.5 1.2q-1 2.7-2 5.4-1.8-3.4-3.5-6.6c-3.2-6-6.2-11.7-9.1-17.5q0 0 0 0-1.8-3.6-3.5-7.4c-2.5-5.1-4.9-10.4-7.4-16.3-2.9-6.6-5.5-14.9-6-21.2q0.8-2 1.7-3.9 0.9-1.9 1.8-3.8 0.6-1.3 1.3-2.6 0.1-0.2 0.2-0.4 0.1-0.3 0.3-0.5 0.8-1.6 1.7-3.2 0 0 0-0.1 0.8-1.4 1.7-2.8 0.1-0.4 0.4-0.8 0.9-1.4 1.8-2.7 0.4-0.7 0.8-1.3 0.2-0.2 0.4-0.5 0.4-0.6 0.9-1.2 1-1.5 2.2-2.9 0.9-1.1 1.9-2.1 0.4-0.5 0.8-0.9c0.5-0.6 1.1-1.2 1.7-1.8q0.7-0.6 1.4-1.2 1.1-1 2.2-1.8c13-10.2 23.9 4 33 12.3q0.4 0.4 0.9 0.8 0.2 0.2 0.4 0.4 0.3 0.4 0.6 0.7 0.3 0.3 0.7 0.7c3.1 3.4 6.5 8 9.4 12.7q0.9 1.5 1.7 2.9 1 2 1.9 3.9 0.7 1.5 1.2 2.9c0.1 0.3 0.2 0.6 0.3 0.9q0.2 0.4 0.3 0.9 0.3 0.8 0.4 1.6 0.2 0.8 0.3 1.5 0.1 0.1 0.1 0.2 0.2 1.3 0.2 2.6 0.1 0.7 0.1 1.3z"/><path class="e" d="m121.7 435.7c3.3 0 7 0.3 9.9 1.6 0.5 0.2 1 0.5 1.5 0.5 0.6 0.1 1.2-0.2 1.8-0.5 3.3-1.3 7-1.3 10.3-0.2 1.8 0.7 3.5 1.6 5.4 1.5 1.2-0.1 2.3-0.9 3.5-1.2 1.2-0.3 2.3-0.5 3.5-0.5q1 0 2 0.2c0.3 0 2 0.1 2.1 0.3-3.9-7.3-10.8-15-18.1-19-2.5-1.3-6.2-3.2-8.8-4.3 0.8 0.5 1.6 1 2 1.8 0.4 0.7 0.4 1.7 0.3 2.5-0.9 11-6.5 14.8-15.4 17.3z"/><path class="f" d="m107.7 456.2q0 0.8 0 1.6c0.3 2.7 0.8 5.3 1.4 7.7 0.3-3.1 1.1-5.9 2.3-7.6 0.5-0.9 1.2-1.5 1.6-2.6 0.6-1.5 0.7-4 0.3-5.7-0.3-1.1-1.1-2-1.7-2.4q-0.4-0.2-0.7-0.3c-1 0-1.9 1.2-2.5 2.9-0.3 1.1-0.6 2.3-0.7 3.7q-0.1 1.3 0 2.7z"/><path class="g" d="m107.7 456.2q0 0.8 0 1.6c0.3 2.7 0.8 5.3 1.4 7.7 0.3-3.1 1.1-5.9 2.3-7.6 0.5-0.9 1.2-1.5 1.6-2.6 0.6-1.5 0.7-4 0.3-5.7-0.3-1.1-1.1-2-1.7-2.4 0.3 0.7 0.6 1.7 0.6 1.9 0.4 1.2 0.4 2.8-0.1 4-0.1 0.3-0.3 0.6-0.4 0.9l-1.8 3c-0.3 0.4-0.5 0.8-0.8 0.9-0.4 0.2-0.7-0.4-0.9-1.2-0.3-1-0.4-2.4-0.5-3.2q-0.1 1.3 0 2.7z"/><path class="f" d="m129.6 470c0.5-3.7 1.7-7.3 3.4-9.2 0.8-0.8 1.6-1.5 2.1-2.8 0.5-1.2 0.6-2.7 0.6-4.1-0.1-2.7-0.6-5-1.8-6.1q-0.3-0.3-0.7-0.4c-1.8-0.9-3.2-0.2-4.2 3.1q-0.6 1.9-0.8 4.1-0.1 0.8-0.1 1.6-0.1 0.3-0.1 0.6c-0.2 4.6 0.4 9.2 1.5 13.2z"/><path class="g" d="m129.6 470c0.5-3.7 1.7-7.3 3.4-9.2 0.8-0.8 1.6-1.5 2.1-2.8 0.5-1.2 0.6-2.7 0.6-4.1-0.1-2.7-0.6-5-1.8-6.1 0.3 1 0.4 2.1 0.5 2.8 0.2 1.4 0.3 2.9-0.2 4.1-0.5 1.2-1.3 1.8-2 2.4q-0.9 0.7-1.7 1.5c-0.3 0.2-0.7 0.8-1 0.6-0.5-0.1-0.7-1-0.9-1.7-0.2-0.7-0.5-2.2-0.4-2.9q-0.1 0.8-0.1 1.6-0.1 0.3-0.1 0.6c-0.2 4.6 0.4 9.2 1.6 13.2z"/><path class="f" d="m149.2 454.6v0.1c-0.1 2.7 0.4 5.5 1 8.1q0.6 3.1 1.2 6.1 0.1 0.4 0.2 0.7c-0.2-0.8 0.5-2.7 0.7-3.5q0.6-1.9 1.4-3.7c1-2.3 2.2-4.2 2.9-6.7 0.9-3.1 0.5-5.7-1.3-7.7q-0.1-0.1-0.2-0.2-0.3-0.3-0.7-0.5c-3.3-1.5-5.1 3.4-5.2 7.3z"/><path class="g" d="m149.2 454.6v0.1c-0.1 2.7 0.4 5.5 1 8.1q0.6 3.1 1.2 6.1 0.1 0.4 0.2 0.7c-0.2-0.8 0.5-2.7 0.7-3.5q0.6-1.9 1.4-3.7c1-2.3 2.2-4.2 2.9-6.7 0.9-3.1 0.5-5.7-1.3-7.7 0.1 1.4 0.6 2.3 0.5 3.8-0.2 1.6-0.7 3.1-1.5 4.3-0.4 0.6-0.9 1.1-1.4 1.7q-0.8 1-1.2 2.3-0.1 0.2-0.2 0.2c-0.1 0.1-0.2 0-0.3-0.1-1.2-1.3-1.7-3.5-2-5.6z"/><path class="a" d="m278 374.9c-0.4-0.3-1-0.6-1.4-0.6-0.3 3.2-1.1 6.3-2.4 9.3-0.2-0.7-0.9-1.9-1.2-2.3-6.2 14.4-16 24.7-29.5 32.8-0.7 0.5-1.6 1-2 1.8-0.4 0.8-0.3 1.7-0.3 2.5 1 11.1 6.6 14.8 15.5 17.3q0.1 0.1 0.3 0.1c1.5 0.4 3.1 0.8 4.6 1.3 3.1 1.2 5.5 3.1 7.5 6.3 1 1.6 1.9 3.3 2.4 5.2 1.2 3.9 1.3 8.2-0.8 11.8-0.3 0.5-0.7 1.1-1.1 1.6-0.5 0.4-1 0.9-1.5 1.3-0.6 0.5-1.2 0.8-1.9 1.2-0.7 0.3-1.4 0.6-2.1 0.8-1.4 0.5-3 0.8-4.5 0.9-1.7 0.2-3.3 0.1-4.9-0.2-0.9-0.1-1.7-0.3-2.6-0.2q-0.3 0-0.6 0.1c-0.8 0.2-1.5 0.6-2.3 0.9-1.6 0.6-3.2 1-4.8 1.2q-0.4 0.1-0.8 0.1c-3.9 0.4-7.9-0.3-11.8-1.3-1.4-0.3-2.8-0.7-4.2-0.6q-1.1 0-2.1 0.2c-1.2 0.2-2.2 0.5-3.3 0.7q-1.6 0.2-3.3 0.3c-2.9 0.3-5.8 0.1-8.5-0.7-4.7-1.3-8.5-4.7-9.9-9.4-4.1-13.7-0.4-28.9-1-43.1-0.1-1.4-0.2-2.8 0-4.2 0.7-5.3 4.8-9.3 7.8-13.8 3.8-5.8 5.2-11.9 5.2-18.7q-1.6 1.7-3.2 3.3c0.2-3.6 0.1-7.2-0.4-10.8q-0.6 0.4-1.2 0.8c-1.8-18.5-20.5-31.6-16.2-51.5 1.9-8.7 11.3-22.4 17.8-28.4 9.2-8.4 20-22.5 33.1-12.3 10.5 8.2 17.5 21.4 23.2 34.5 2.4 5.6 4.5 11.2 6.6 16.4 2.9 7.2 5.3 14.7 6.5 22.5 0.3 2.5 1.2 15.5-0.7 22.9z"/><path class="h" d="m270.7 460.4q-0.2 0.3-0.4 0.6c-0.2 0.4-0.5 0.7-0.7 1-0.1 0.1-0.2 0.2-0.4 0.3q-0.2 0.3-0.4 0.5-0.3 0.3-0.7 0.5-0.2 0.2-0.6 0.4c-0.1 0.1-0.4 0.3-0.6 0.4q-0.1 0.1-0.2 0.1-0.2 0.2-0.5 0.3-0.6 0.3-1.2 0.5-0.5 0.2-1.1 0.4-0.4 0.1-0.8 0.2 0 0.1-0.1 0.1-0.5 0.1-1.1 0.2-0.5 0.1-1.1 0.2-0.6 0.1-1.2 0.1c-1.6 0.2-3.3 0.1-4.9-0.2-0.8-0.1-1.7-0.3-2.5-0.2q-0.4 0-0.7 0.1c-0.8 0.2-1.5 0.6-2.3 0.9-1.5 0.6-3.1 1-4.8 1.2q-0.4 0.1-0.8 0.1c-3.9 0.4-7.9-0.3-11.8-1.3-1.4-0.3-2.8-0.7-4.2-0.6q-1.1 0-2.1 0.2-0.8 0.1-1.5 0.3-0.1 0.1-0.1 0.1-0.9 0.1-1.7 0.3-0.2 0-0.5 0c-0.9 0.2-1.8 0.3-2.7 0.3-2.9 0.3-5.9 0.1-8.6-0.7q-0.5-0.1-1-0.3-0.3-0.1-0.7-0.3-0.4-0.1-0.8-0.3c-2-1-3.9-2.3-5.3-4.3-0.2-0.3-0.4-0.6-0.6-0.9-0.1-0.1-0.1-0.2-0.2-0.4q-0.2-0.3-0.4-0.7-0.5-1.1-0.9-2.2c-3.2-10.7-1.6-22.3-1.1-33.6 2.1 2.3 5.9 5 8 5.8 0.3-0.1 0.6-0.3 0.8-0.5 2.9-2.6 4.3-3.8 8.4-6.2 2.7 1.4 4.7 3.3 6.7 5.1q1.1 1 2.2 1.9c1.6-1.5 2.5-3.2 2.7-4.9 2 1.2 6.8 2.8 7.6 3 1.1-2.4 3.5-4.2 6-5.7q0.4 1.5 0.9 2.7 0.2 0.8 0.6 1.4 0.3 0.6 0.6 1.2 0.3 0.6 0.7 1.1 0 0 0.1 0.1 0.3 0.4 0.6 0.8 0.1 0.1 0.2 0.2 0.4 0.4 0.7 0.7 0.5 0.5 0.9 0.9 1 0.8 2.1 1.4 0.4 0.2 0.8 0.4c1.6 0.9 3.3 1.6 5.2 2.1q0.7 0.2 1.3 0.4 0.1 0.1 0.2 0.1 0.1 0 0.3 0.1 0.7 0.1 1.4 0.3 1.7 0.4 3.2 1c3.1 1.2 5.5 3 7.6 6.2 0.9 1.6 1.8 3.4 2.3 5.2 1.2 4 1.3 8.3-0.8 11.9z"/><path class="b" d="m270.7 460.4c-0.3 0.6-0.7 1.1-1.1 1.6-0.5 0.5-1 0.9-1.5 1.3-0.6 0.5-1.2 0.8-1.9 1.2-0.7 0.3-1.3 0.6-2.1 0.8-1.4 0.5-3 0.8-4.5 0.9-1.7 0.2-3.3 0.1-4.9-0.2-0.8-0.1-1.7-0.3-2.6-0.2q-0.3 0-0.6 0.1c-0.8 0.2-1.5 0.6-2.3 0.9-1.6 0.6-3.2 1-4.8 1.2q-0.4 0.1-0.8 0.1c-3.9 0.4-7.9-0.3-11.8-1.3-1.4-0.3-2.8-0.7-4.2-0.6q-1.1 0-2.1 0.2c-1.2 0.2-2.2 0.5-3.3 0.7q-1.6 0.2-3.3 0.4c-2.9 0.2-5.8 0-8.5-0.8-4.7-1.3-8.5-4.7-9.9-9.4-4.1-13.7-0.4-28.9-1-43.1-0.1-1.4-0.1-2.8 0-4.2 0.7-5.3 4.8-9.3 7.8-13.8 3.8-5.7 5.2-11.9 5.2-18.7q-1.6 1.7-3.2 3.3c0.3-3.6 0.1-7.2-0.3-10.8q-0.7 0.4-1.3 0.8c-1.8-18.5-20.5-31.6-16.2-51.5 1.9-8.7 11.3-22.4 17.8-28.4 9.2-8.4 20-22.5 33.1-12.3 10.5 8.2 17.5 21.4 23.2 34.5-0.6 6.3-3.1 14.6-6 21.3-7.8 17.9-14.8 31.4-23.5 47.7q-1.3-3.3-2.5-6.6c-1 6.3-3.1 12.3-6.1 17.9q-0.7-1.5-1.4-3c-3.9 8-10.2 14.3-13.6 22.9-2.2 5.9-4 12-4.7 18.3-0.5 4.2 0.4 12.8 1.5 16.2-1.3-0.3-2.9-1-3.6-1.6 0.1 1.4 0.2 2.8 0.6 4.2 1.8 5.6 6.4 8.2 12.2 8 6.3-0.3 9.9-3.6 9-10.3 0.8 5.7 4.6 9.5 10 10.3 2.8 0.5 7.6 0.6 10.1-1.1 2.2-1.6 2.5-5.3 2.5-7.8 0.1 3.7 6.4 8.1 9.4 8.6 4.6 0.8 9.2-2.1 11.1-6.5 0.4-1 0.7-2 0.9-3 1.2 3.9 1.3 8.3-0.8 11.8z"/><path class="b" d="m256.7 435.7c-3.3 0-7.1 0.3-10 1.6-0.4 0.2-0.9 0.5-1.4 0.5-0.6 0.1-1.2-0.2-1.9-0.4-3.2-1.3-6.9-1.4-10.2-0.2-1.8 0.6-3.5 1.6-5.4 1.4-1.2-0.1-2.4-0.8-3.5-1.1-1.2-0.4-2.3-0.6-3.5-0.5q-1 0-2 0.1c-0.4 0-2 0.1-2.1 0.4 3.8-7.4 10.8-15.1 18.1-19.1 2.5-1.3 6.2-3.1 8.8-4.3-0.8 0.5-1.6 1-2 1.8-0.4 0.8-0.4 1.7-0.3 2.5 0.9 11.1 6.5 14.8 15.4 17.3z"/><path class="f" d="m270.7 456.2q0 0.8 0 1.6c-0.3 2.8-0.8 5.3-1.4 7.8-0.3-3.1-1.1-6-2.3-7.7-0.6-0.8-1.2-1.4-1.6-2.6-0.6-1.5-0.7-4-0.3-5.7 0.3-1.1 1-1.9 1.7-2.4q0.4-0.2 0.7-0.2c1 0 1.9 1.1 2.5 2.8 0.3 1.1 0.6 2.4 0.7 3.7q0.1 1.3 0 2.8z"/><path class="g" d="m270.7 456.2q0 0.8 0 1.6c-0.3 2.8-0.8 5.3-1.4 7.8-0.3-3.1-1.1-6-2.3-7.7-0.6-0.8-1.2-1.4-1.6-2.6-0.6-1.5-0.7-4-0.3-5.7 0.3-1.1 1-1.9 1.7-2.4-0.3 0.8-0.6 1.7-0.6 1.9-0.4 1.2-0.4 2.9 0.1 4 0.1 0.3 0.3 0.6 0.4 0.9l1.8 3c0.3 0.4 0.5 0.9 0.8 1 0.4 0.1 0.7-0.5 0.9-1.3 0.3-1 0.4-2.4 0.4-3.2q0.2 1.3 0.1 2.7z"/><path class="f" d="m248.8 470c-0.6-3.7-1.7-7.2-3.5-9.2-0.7-0.8-1.6-1.5-2.1-2.8-0.4-1.1-0.6-2.6-0.5-4.1 0.1-2.7 0.5-5 1.8-6q0.3-0.4 0.6-0.5c1.9-0.9 3.3-0.1 4.3 3.1q0.6 1.9 0.8 4.1 0.1 0.8 0.1 1.6 0 0.3 0.1 0.7c0.2 4.5-0.4 9.2-1.6 13.1z"/><path class="g" d="m248.8 470c-0.6-3.7-1.7-7.2-3.5-9.2-0.7-0.8-1.6-1.5-2.1-2.8-0.4-1.1-0.6-2.6-0.5-4.1 0.1-2.7 0.5-5 1.8-6-0.3 0.9-0.4 2-0.5 2.7-0.2 1.4-0.3 2.9 0.2 4.1 0.5 1.2 1.3 1.8 2 2.4q0.9 0.7 1.7 1.5c0.3 0.3 0.7 0.8 1 0.7 0.4-0.2 0.7-1.1 0.9-1.8 0.1-0.7 0.5-2.1 0.4-2.9q0.1 0.8 0.1 1.6 0 0.3 0 0.6c0.2 4.6-0.3 9.3-1.5 13.2z"/><path class="f" d="m229.2 454.7c0.1 2.8-0.4 5.5-1 8.1q-0.6 3.1-1.2 6.2-0.1 0.3-0.2 0.6c0.2-0.8-0.5-2.7-0.7-3.5q-0.6-1.9-1.4-3.7c-1-2.2-2.2-4.2-3-6.7-0.9-3-0.4-5.7 1.4-7.6q0.1-0.2 0.2-0.3 0.3-0.3 0.6-0.4c3.4-1.6 5.2 3.4 5.3 7.3z"/><path class="g" d="m229.2 454.7c0.1 2.8-0.4 5.5-1 8.1q-0.6 3.1-1.2 6.2-0.1 0.3-0.2 0.6c0.2-0.8-0.5-2.7-0.7-3.5q-0.6-1.9-1.4-3.7c-1-2.2-2.2-4.2-3-6.7-0.9-3-0.4-5.7 1.4-7.6-0.1 1.4-0.6 2.2-0.5 3.7 0.2 1.6 0.7 3.2 1.5 4.3 0.4 0.7 0.9 1.2 1.4 1.7q0.7 1.1 1.2 2.3 0.1 0.2 0.1 0.2c0.1 0.1 0.3 0 0.3-0.1 1.3-1.3 1.8-3.4 2.1-5.5z"/><path class="f" d="m89.5 301.8c-1-3.6-1.3-9.3 0-12.9 0.1-0.3-1.7-0.9-2-1-0.8-0.2-1.6-0.1-2.4 0.1-0.8 0.2-2.6 0.9-3.2 1.4-0.7 0.6-1.4 1.2-1.1 2.1q0.6 1.8 1.6 3.4c1.4 2.2 4.9 5.6 7.1 6.9z"/><path class="g" d="m87.5 287.9c-0.8-0.2-1.6-0.1-2.4 0.1-0.8 0.2-2.6 0.9-3.2 1.4-0.7 0.6-1.4 1.2-1.1 2.1q0.6 1.8 1.6 3.4 0.1 0.2 0.2 0.3c-0.1-0.1 1.3-0.5 1.4-0.5 0.6-0.1 1.3-0.2 1.8 0.1 1.4 0.7 1.2 3.1 1.8 4.4 0.2 0.5 0.5 1.6 0.9 1.9q0.5 0.4 1 0.7c-0.9-3.6-1.3-9.3 0-12.8 0.2-0.4-1.7-1-1.9-1.1z"/><path class="f" d="m73 290.4c-1.7 3.4-0.5 11.1 0 14.7-0.5-0.4-1.1-1-1.8-1.7v-0.1c-1.7-1.9-3.7-4.7-4.8-6.7q-0.5-0.8-0.8-1.3-0.8-1.7-1.2-3.6 0-0.1 0-0.3c0.2-0.6 0.6-1.2 1.3-1.7 0.7-0.4 1.5-0.7 2.3-0.8 0.8-0.1 1.7-0.1 2.5 0.1 0.2 0.1 2.7 1.1 2.5 1.4z"/><path class="g" d="m73 290.4c-1.7 3.4-0.5 11.1 0 14.7-0.5-0.4-1.1-1-1.8-1.7v-0.1c-0.4-0.5-0.1-1.6-0.1-2.2-0.1-0.8-0.1-2.4-0.6-3.1-0.4-0.5-1.6-0.7-2.2-0.8-0.6-0.2-1.3-0.4-2-0.6q-0.4-0.8-0.7-1.3-0.8-1.7-1.2-3.5 0-0.2 0-0.3c0.2-0.7 0.6-1.2 1.3-1.8 0.7-0.4 1.5-0.7 2.3-0.8 0.8-0.1 1.7-0.1 2.5 0.2 0.2 0 2.7 1 2.5 1.3z"/><path class="f" d="m56.8 283.9c-1.4 3.5-0.8 8.6 0.1 12.1q-0.6-0.3-1.1-0.7c-1.8-1.3-3.7-3.4-4.9-5.1q-0.4-0.5-0.6-1-1-1.6-1.6-3.4c-0.3-1 0.4-1.6 1.1-2.2 0.7-0.5 1.4-0.8 2.2-1.1 0.8-0.2 2 0.1 2.8 0.3 0.3 0.1 2.1 0.7 2 1.1z"/><path class="g" d="m56.8 283.9c-1.4 3.5-0.8 8.6 0.1 12.1q-0.6-0.3-1.1-0.7c-0.7-0.5-0.9-1.4-1.1-2.2-0.1-0.9-0.3-1.2-1.1-1.6q-1.4-0.7-2.7-1.3-0.4-0.5-0.6-1-1-1.6-1.6-3.4c-0.3-1 0.4-1.6 1.1-2.2 0.7-0.5 1.4-0.8 2.2-1.1 0.8-0.2 2 0.1 2.8 0.3 0.3 0.1 2.1 0.7 2 1.1z"/><path class="i" d="m38.4 258.6q-0.7 1.7-1.1 3.4c0.1 0.4 0.7-0.2 1.1 0.1 0.1 0.1 0.1 0.2 0.1 0.4q0.1 0.2 0.1 0.4c0.1 1.5 0.3 2.8 0.6 4.2 0.2 1.5 0.6 3.1 1.1 4.7q0.7 2.6 1.7 5.1c0.3 0.6 0.7 1.3 1 1.9 0.5 0.9 0.9 1.7 1.1 2.6 0 0 0.1 0.1 0.1 0.1q1.5 2.3 3.4 4 0.7 0.5 1.4 1 0.8 0.7 1.8 1.2 0.2 0.1 0.4 0.2 0.7 0.4 1.6 0.8 1.6 0.7 3.1 1.2 0.1 0 0.1 0c0.8 0.2 1.6 0.5 2.3 0.9 0.5 0.3 0.9 0.8 1.4 1.2q2.6 2.1 5.6 2.6 1.6 0.2 3.4 0c0.2 0 2-0.6 3.6-1.4 1.9-0.9 3.6-1.9 2.8-2.5 1.9 1.5 4.2 2.4 6.6 2.9q2.1 0.4 4.3 0.2 1.4-0.2 2.7-0.6 0.6-0.1 1.1-0.3c4.8-1.9 8.5-6.4 9.4-11.5 0.5-3.4-0.1-6.8-0.7-10.1q-0.1-1.1-0.1-2 0-1 0.1-2 0.1-0.8 0.2-1.5 0-0.3 0-0.6 0-0.2 0-0.3v-0.2c0.1-0.7 0-1.5-0.1-2.3 0.7 0.1 1.4 0 2-0.3q-0.8-1.6-1.6-3.1 1-0.1 1.9-0.1c0.1-0.9-0.6-1.7-1.2-2.3-0.6-0.6-1.2-1.4-1.1-2.2q0-0.2 0-0.3 0 0 0.1-0.1 0-0.1 0.1-0.1 0-0.1 0.1-0.2 0.1-0.1 0.2-0.2 0.2-0.1 0.4-0.2 0.1 0 0.3 0 0.3 0 0.5 0.1 0.1 0.1 0.1 0.2c-0.2-0.8-1-1.4-1.8-1.3 1-23.9 20.1-36.4 35.2-52 7.2-7.4 14.4-15 19.8-23.8q0.4-0.7 0.8-1.3c2.6-4.8 7.4-15.3 10.6-25.6q0.3-0.9 0.5-1.7 0.2-0.7 0.5-1.6c2.4-9.2 3.3-17.8-0.3-21.5q-0.3-0.3-0.7-0.6c-1.8-1.3-3.7-1.4-5.6-0.9h-0.1c-3 0.9-5.9 3.3-8 5-4.9 3.8-9.4 7.9-13.8 12.2-5.8 5.7-11.4 11.5-17.5 16.8q-1.6 1.3-3.2 2.5c-6.1 4.8-12.9 8.6-18.6 13.6-6.2 5.3-12 10.4-18.7 15.1-10.7 7.8-18.5 17-24.9 28.6-4.8 8.6-7.2 18.3-11.2 27.2-1 2.2-1.8 4.4-2.6 6.6q0 0 0 0.1-0.5 1-0.9 2.1c-0.6 1.4-1.3 2.9-2.2 4.3q-0.3 0.5-0.7 1 0.1 0.1 0.2 0.1 0.6 0.2 1.2 0.1z"/><path class="j" d="m43 278.8c0.5 0.8 0.9 1.7 1.1 2.5 0 0.1 0.1 0.1 0.1 0.2q1.5 2.3 3.4 3.9 0.7 0.6 1.4 1.1 0.8 0.7 1.8 1.2 0.2 0.1 0.4 0.2 0.7 0.4 1.6 0.7 1.6 0.7 3.1 1.2 0.1 0 0.1 0c0.8 0.3 1.6 0.5 2.3 1 0.5 0.3 0.9 0.8 1.4 1.1q2.6 2.2 5.6 2.6 1.6 0.3 3.4 0.1c0.2-0.1 2-0.7 3.6-1.4 1.9-0.9 3.6-1.9 2.8-2.6 1.9 1.5 4.2 2.5 6.6 2.9 2.3 0.5 4.7 0.4 7-0.3q0.5-0.2 1.1-0.4c4.8-1.8 8.5-6.4 9.4-11.5 0.5-3.3-0.1-6.7-0.7-10.1q-0.2-1-0.2-1.9 0.1-1.1 0.2-2 0-0.8 0.1-1.6 0.1-0.4 0.1-0.9v-0.1c0-0.7 0-1.5-0.1-2.3 0.7 0.1 1.4 0 2-0.3q-0.8-1.6-1.6-3.1 1-0.1 1.9-0.2c0-0.8-0.6-1.6-1.2-2.2-0.6-0.7-1.2-1.4-1.1-2.3q0-0.1 0-0.2 0 0 0.1-0.1 0-0.1 0.1-0.2 0-0.1 0.1-0.2 0.1-0.1 0.2-0.1 0.2-0.1 0.4-0.2 0.1-0.1 0.3-0.1 0.3 0 0.5 0.2 0.1 0.1 0.1 0.2c-0.2-0.9-1-1.4-1.8-1.3 1-24 20.1-36.5 35.1-52 7.3-7.5 14.5-15 19.9-23.9 2.4-3.9 7.9-15.5 11.4-26.9q0.3-0.8 0.5-1.6 0.2-0.8 0.5-1.7c2.4-9.1 3.3-17.7-0.3-21.4q-0.3-0.4-0.7-0.7c-1.8-1.3-3.7-1.3-5.6-0.8h-0.1c-3 0.8-5.9 3.3-8 5-4.9 3.7-9.4 7.9-13.8 12.2-4.5 9-5.9 19-9.5 28.5q0.9-0.2 1.8-0.4c-2.4 7.5-7.4 13.7-12 20-4.3 6-12.5 13.7-14.5 21q-0.8-1.3-1.6-2.5c-4.9 10.7-8.3 22.2-10 33.9-0.6 4-0.6 8.3-0.6 12.5 0.1 3.6 0.1 7.2-0.1 10.7-0.2 3.3-0.7 6.5-1.7 9.5-1.4 4.3-5.2 10.3-10.4 9.9-1.9-0.1-3.7-1.3-5.5-0.9-0.8 0.1-1.5 0.5-2.2 0.8-2.8 1.3-5.9 2.3-9 1.9-1.6-0.1-3-0.6-4.4-1.4-0.7-0.4-1.1-0.7-1.9-0.8q-0.1 0-0.2 0c-0.9-0.1-1.8 0.2-2.7 0.3q-1.4 0.2-2.8-0.1c-2.6-0.6-5-2.5-7.2-4.6z"/><path class="k" d="m38.6 262.9c0.1 1.5 0.3 2.8 0.6 4.2 0.3 1.5 0.6 3 1.1 4.7q0.7 2.6 1.7 5.1c0.3 0.6 0.7 1.3 1 1.9 0.5 0.8 0.9 1.7 1.1 2.5 0 0.1 0.1 0.1 0.1 0.2q1.5 2.3 3.4 4c1 0.8 2 1.6 3.2 2.2q0.2 0.1 0.4 0.2 0.8 0.4 1.6 0.7 1.6 0.7 3.1 1.2c0.8 0.3 1.7 0.5 2.4 1 0.5 0.3 0.9 0.8 1.4 1.1q3.9 3.3 9 2.7c0.5-0.1 7.9-2.8 6.4-3.9 4.1 3.2 9.8 4 14.7 2.2 4.8-1.9 8.5-6.4 9.3-11.5 0.6-3.4 0-6.8-0.6-10.1-0.4-2.4 0.1-4.4 0.2-6.6-4.3-1.2-10.5-0.4-13.5 0.9-2.1 0.8-3.9 2-5.7 3.2-3 2-6.3 4.5-6.6 7.9 0.2-2.6-7.6-6.3-9.6-7.2-4.5-1.9-9.5-1.3-14.1 0.4-2.9-3-6.6-5.4-10.6-6.9z"/><path class="k" d="m38.4 258.6q-0.7 1.7-1.1 3.4c0.1 0.4 0.7-0.2 1.1 0.1 0.1 0.1 0.1 0.2 0.1 0.4q0.1 0.2 0.1 0.4c0.1 1.5 0.3 2.8 0.6 4.2 0.2 1.5 0.6 3.1 1.1 4.7q0.7 2.6 1.7 5.1c0.3 0.6 0.7 1.3 1 1.9 0.5 0.9 0.9 1.7 1.1 2.6 0 0 0.1 0.1 0.1 0.1q1.5 2.3 3.4 4c1 0.8 2 1.6 3.2 2.2q0.2 0.1 0.4 0.2 0.7 0.4 1.6 0.8 1.6 0.7 3.1 1.2c0.8 0.2 1.7 0.5 2.4 0.9 0.5 0.3 0.9 0.8 1.4 1.2q3.9 3.3 9 2.6c0.5-0.1 7.9-2.7 6.4-3.9 4.1 3.2 9.8 4.1 14.7 2.2 4.8-1.9 8.5-6.4 9.3-11.5 0.6-3.4 0-6.8-0.6-10.1-0.4-2.3 0.1-4.4 0.2-6.5 0-0.8 0-1.5-0.1-2.3 0.7 0.1 1.4-0.1 2-0.4q-0.8-1.5-1.6-3.1 0.9-0.1 1.8-0.1c0.1-0.9-0.5-1.6-1.1-2.3-0.6-0.6-1.2-1.4-1.2-2.2 0.1-0.4 0.3-0.7 0.6-0.9-4.4-0.7-9.8 0.1-12.6 1.2-2.1 0.9-4.1 2.1-6 3.3-3.2 2-6.6 4.4-6.9 7.9 0.2-2.6-8-6.4-10.1-7.2-4.7-1.9-10-1.4-14.8 0.4-2.5-2.5-5.5-4.5-8.8-6-0.8 1.9-1.7 3.7-2.9 5.4 0.4 0.2 0.9 0.2 1.3 0.2z"/><path class="f" d="m302.6 311.1c0.1-3.6-0.9-9.3-3-12.5-0.2-0.3 1.5-1.3 1.7-1.4 0.8-0.4 1.6-0.5 2.4-0.5 0.9 0.1 2.7 0.3 3.4 0.6 0.9 0.4 1.7 0.8 1.6 1.9q-0.2 1.9-0.8 3.6c-0.8 2.4-3.4 6.6-5.3 8.3z"/><path class="g" d="m301.3 297.2c0.8-0.4 1.6-0.5 2.4-0.5 0.8 0.1 2.7 0.3 3.4 0.6 0.9 0.5 1.7 0.8 1.6 1.9q-0.2 1.9-0.8 3.6 0 0.2-0.1 0.4c0.1-0.1-1.4-0.2-1.5-0.2-0.6 0-1.3 0.1-1.7 0.5-1.2 1-0.4 3.3-0.7 4.7-0.1 0.5-0.1 1.7-0.5 2.1q-0.4 0.5-0.8 0.8c0.1-3.6-0.8-9.3-2.9-12.5-0.3-0.3 1.4-1.3 1.6-1.4z"/><path class="f" d="m316 296.3c2.4 2.9 3.1 10.6 3.4 14.3 0.4-0.5 0.8-1.2 1.3-2.1 1.2-2.3 2.5-5.5 3.2-7.7q0.3-0.8 0.4-1.4 0.4-1.9 0.4-3.8 0-0.1 0-0.3c-0.4-0.6-0.9-1-1.7-1.3-0.8-0.3-1.6-0.4-2.4-0.3-0.9 0-1.7 0.2-2.4 0.7-0.2 0.1-2.4 1.6-2.2 1.9z"/><path class="g" d="m316 296.3c2.4 2.9 3.1 10.6 3.4 14.3 0.4-0.5 0.8-1.2 1.3-2.1 0.3-0.6-0.2-1.7-0.3-2.2-0.2-0.8-0.5-2.4-0.1-3.2 0.2-0.6 1.3-1 1.9-1.3 0.5-0.3 1.2-0.6 1.7-1q0.3-0.8 0.4-1.4 0.4-1.9 0.4-3.8 0-0.1 0-0.3c-0.3-0.6-0.8-1-1.7-1.3-0.8-0.3-1.6-0.4-2.4-0.3-0.8 0-1.7 0.2-2.4 0.7-0.2 0.1-2.4 1.6-2.2 1.9z"/><path class="f" d="m330.4 286.2c2.1 3.1 2.7 8.2 2.6 11.9q0.5-0.4 1-1c1.3-1.6 2.7-4.1 3.5-6.1q0.2-0.5 0.4-1.1 0.6-1.8 0.7-3.7c0.1-1-0.7-1.4-1.6-1.8-0.7-0.3-1.5-0.5-2.3-0.6-0.8 0-2 0.6-2.7 1-0.2 0.1-1.9 1.1-1.6 1.4z"/><path class="g" d="m330.4 286.2c2.1 3.1 2.7 8.2 2.6 11.9q0.5-0.4 1-1c0.5-0.6 0.5-1.6 0.4-2.4 0-0.8 0.1-1.2 0.8-1.8 0.8-0.6 1.5-1.3 2.3-1.9q0.2-0.5 0.4-1.1 0.6-1.8 0.7-3.7c0.1-1-0.7-1.4-1.6-1.8-0.7-0.3-1.5-0.5-2.3-0.6-0.8 0-2 0.6-2.7 1-0.2 0.1-1.9 1.1-1.6 1.4z"/><path class="l" d="m343.1 267c0.5 1.7 1.1 4.5 1.1 5.7-0.4-0.6-0.9-0.9-0.9-0.9 0.4 1.6 0.2 3.5-0.2 5.3-0.1 0.6-0.2 1.2-0.4 1.8q-0.2 1-0.6 2 0 0 0 0.1-0.1 0.2-0.2 0.4-0.9 2.4-2.3 4.3c-1.3 1.6-2.6 3-4.3 4.3q-1.3 1-2.8 1.8c-0.7 0.5-1.5 0.9-2 1.5-0.5 0.4-0.8 1-1.1 1.4-3.6 4.8-8.4 5.5-14 4.2-0.4-0.1-0.7-0.1-1-0.1-0.2 0.1-0.5 0.2-0.7 0.4q-0.7 0.4-1.3 0.7c-0.8 0.4-1.6 0.7-2.5 1-1 0.3-1.9 0.4-3 0.5-3.2 0.2-6.5-0.5-9.2-2.3-1.8-1.1-3.1-2.4-4.4-4-1.1-1.5-2-3.1-2.7-4.9-1.8-4.5-2.7-9.4-4.3-14-0.8-2.1-1.6-3.9-2.8-5.7q-0.8-1.3-1.7-2.5c-1.1-1.5-2.2-2.9-3.2-4.4q-1.1-1.5-2.2-2.9-0.5-0.8-1-1.6-1.7-2.5-3.3-5c-5.1-7.7-10.3-15.2-15.5-22.9q-2.9-4.4-5.8-8.8c-4.2-6.5-8.2-13.1-12-19.9-2.9-5.1-14-26.1-16.7-31.5-3.8-8-7.3-16.2-9.6-24.7-1.2-4.4-2.5-9.1-2.4-13.7 0.1-5 2.9-11 8.9-9.3h0.1c3 0.9 5.9 3.3 8.1 5 2.1 1.6 8.4 7.3 11.8 10.4 0.9 0.8 1.5 1.5 1.9 1.8 5.8 5.7 11.7 11.5 17.5 16.8 3.3 2.9 6.3 6 9.4 9q3.6 3.4 7.1 6.8c1.3 1.3 2.7 2.8 4.1 3.9 1.6 1.4 3.6 2.1 5.3 3.2q-0.9 0.3-1.8 0.8c2.4 1.3 4.4 2.8 6.2 4.5-0.5-0.1-1.3 0-1.7 0.1 1.7 1.9 3.6 3.5 5.3 5.4q3.1 3.3 6.1 6.7 5.9 6.8 11.6 13.8c7.6 9.3 14.7 19 21.5 29 1.7 2.6 3.4 5.4 4.9 8.2q1.2 2.2 2.3 4.4c0.9 1.8 1.7 3.6 2.5 5.4 1.1 2.7 2.1 5.3 2.8 8 0.2 0.6 0.3 1.2 0.5 1.8-0.5-0.5-0.9-0.9-1.4-1.3z"/><path class="m" d="m341.9 281.4q-0.9 2.4-2.3 4.3c-1.3 1.6-2.6 3-4.3 4.3q-1.3 1-2.8 1.8c-0.7 0.5-1.5 0.9-2.1 1.5-0.4 0.4-0.7 1-1 1.4-3.6 4.8-8.4 5.5-14.1 4.2-0.3-0.1-0.6-0.1-0.9-0.1-0.3 0.1-0.5 0.2-0.8 0.4q-0.6 0.4-1.2 0.7c-0.9 0.4-1.6 0.7-2.5 1-1 0.3-1.9 0.4-3 0.5-3.2 0.2-6.6-0.5-9.3-2.3-1.7-1.1-3-2.4-4.3-4-1.1-1.5-2-3.1-2.7-4.9-1.9-4.5-2.7-9.4-4.4-14-0.7-2.1-1.6-3.9-2.7-5.7q-0.8-1.3-1.7-2.5c-1.1-1.5-2.2-2.9-3.3-4.4q-1.1-1.5-2.1-2.9-0.5-0.8-1-1.6-1.7-2.5-3.4-5c-5-7.7-10.2-15.2-15.4-22.9q-2.9-4.4-5.8-8.8c-4.3-6.5-8.2-13.1-12-19.9-2.9-5.1-14.1-26.1-16.7-31.5-3.8-8-7.3-16.2-9.7-24.7-1.1-4.4-2.4-9.1-2.3-13.7 0.1-5 2.9-11 8.9-9.3h0.1c3 0.9 5.9 3.3 8 5 2.2 1.6 8.5 7.3 11.9 10.4 0.4 1.2 0.8 2.4 1.3 3.6q2.1 4.9 4.2 9.8c1.1 2.6 4.6 11.4 6.3 15q-2.8-0.4-5.6-0.8 1 4.3 2 8.5c-0.8-0.8-2.2-1.3-3.3-0.7-3.3 2.2 22 46.4 24.2 50.5 0.3-1 0.6-1.9 0.9-2.8 7.3 9.3 13.2 19.7 17.6 30.7 3.9 10 4.3 22.3 9.8 31.3 2.3 3.8 7.4 8.9 12.4 7.3 1.7-0.6 3.2-2.1 5.1-2.2 0.8-0.1 1.6 0.1 2.4 0.3 3 0.6 6.2 0.8 9.2-0.2 1.4-0.5 2.7-1.4 3.9-2.4 0.6-0.6 1-1 1.8-1.3 0.9-0.2 1.9-0.2 2.8-0.3 2.8-0.3 5.6-1.7 7.9-3.6z"/><path class="a" d="m265.1 168.6q-1.9-0.4-3.8-0.7c0.6 2.6 1.7 5.2 2.9 7.4-1.4-0.1-2.6-0.4-4-1-0.9 2.9-2 5.8-3.2 8.7-4.7 11.3-11.2 22.7-13.1 34.3-7.2 24.8-2 49.6 12 70.6-2.2 0.3-4.5-0.1-6.4-1.3q0.9 2 1.7 4c-1.7 0.1-3.2 0-5.4 0-2 4.5-5.2 8.8-8.8 12.4 0-1.6 0-3.2 0-4.9-5.6 11.7-13.4 21.9-23.3 31.3-0.1-1-0.2-2.1-0.3-3.1-1.8 4-3.1 5.4-6 7.5 0.4-2 0.5-3.2 0.6-5.2-11.1 18.2-35.2 10.2-45.2-6.6-0.5 0.9-0.9 1.8-1.2 3-3.5-3.6-5.7-7.3-7.6-12.4-0.3 1.6-1.1 3.4-2.1 4.6-2.6-6.5-8.8-15.7-12.9-20-1.4 0.6-2.3 1.4-3.3 3.1-4.1-3.4-7-8.1-8.1-13.2q-2.9 1-5.8 2 2.3-3.4 4.1-6.8c10.9-20.5 10.7-41.7 6.4-63-2.2-10.8-5.3-21.6-8.6-32.2q-0.1-0.5-0.3-1c-1.1-3.7-2.2-7.4-3.3-11q-1.7 1.2-3.3 2.4c0.2-5.8 1-10.9 2.9-14.9q-2.1 0.1-4.3 0.2c0.2-1.1 0.6-2.2 1-3.3-1.9-0.2-3.9-0.2-6.2 0.2q8.5-8.6 17-17.1 0.1-0.1 0.2-0.2c-1.9-0.4-3.9-0.9-5.8-1 2.4-1.9 9.4-5.2 12.7-5.9-2.2-1-4.6-1.9-7.5-2.6 6-1.9 10.7-3.8 15.7-6.6q0.6-0.3 1.1-0.6c4.2-2.5 8.4-5.2 12.6-7.8q6-4.4 11.4-7.5c20.5-11.8 36-8.8 58.2 8.5 3.6 2.5 7.2 4.9 10.9 7.1 4.4 2.6 8.8 4.9 13.4 6.9-1.5 0.9-3.7 1.6-5.4 1.7 3.4 2 5.8 3.1 9.1 4.7-2 0.6-4.1 0.9-5.7 0.8q1.2 1.1 2.4 2.3c7.1 6.9 12.9 14.5 18 23.2-2.3-0.8-4.8-1.6-7.5-1.9 1.5 1.5 2.9 3.2 4.1 4.9z"/><path class="b" d="m255.9 287.9c-2.2 0.3-4.5-0.1-6.4-1.2q0.9 2 1.7 4c-1.7 0-3.1-0.1-5.4-0.1-2 4.6-5.1 8.8-8.8 12.4 0-1.6 0-3.2 0-4.9-5.6 11.7-13.4 21.9-23.3 31.3-0.1-1-0.2-2.1-0.3-3.1-1.8 4-3.1 5.4-6 7.5 0.4-2 0.5-3.2 0.6-5.2-11.1 18.2-35.2 10.3-45.2-6.6-0.5 0.9-0.9 1.8-1.2 3-3.5-3.6-5.7-7.3-7.6-12.4-0.3 1.6-1.1 3.4-2.1 4.6-2.6-6.5-8.8-15.7-12.9-20-1.4 0.7-2.3 1.4-3.3 3.2-4.1-3.5-7-8.2-8.1-13.3q-2.9 1-5.8 2.1 2.3-3.5 4.1-6.9c10.9-20.5 10.7-41.7 6.4-63-2.2-10.8-5.3-21.6-8.6-32.2 6.1 8.5 11 18.4 16.4 27.3 1.9 3.1 5.1 7.6 7.4 10.8-2.4-1.3-5-2.4-6.8-2.8q1.6 2.3 3.1 4.6-1.8-0.9-3.6-1.7c0.8 3.9 1.2 8.3 1.9 12.6 1.9 13.7 1.4 27.8 4 41.4 2.2 11.6 11.5 22.4 19.2 31.1-0.2-1.7-0.4-3.3-0.6-4.9 1.5 2.3 3.3 4.3 5.3 5.8q-0.3-1.9-0.7-3.7c2.7 2.6 8.4 6.2 12.1 7.5 6.9 2.5 16.3-0.6 22.9-5.6-0.4 1.4-1.4 3.4-2.2 4.7 1.6-0.8 3.8-2.2 5.1-3.2 4.2-3.1 8-5.8 11.4-9.2 8.8-8.7 15-19.7 17.3-31.7 2.3-11.9 0.2-24.3-0.6-35.4-0.3-3.6-2.7-11-8.5-13 4.2-2.6 8.8-6.3 11.8-10.4 3.2-4.4 6.1-9.1 9.1-14 3.2-5.1 6.2-9.1 9.3-14.3-4.6 11.3-11.2 22.7-13 34.3-7.3 24.8-2.1 49.6 11.9 70.6z"/><path class="b" d="m248.1 140.1q1.3 1.1 2.5 2.3c-1.2 1.5-6.6 6.2-8.3 8-3.3 3.5-6.6 7-9.9 10.2-6.6 6.3-13.2 11.8-19.5 16-4.4 2.8-12.2 5.9-12.2 5.9 0 0 1.4-2.8 1-5.1-2.2 1.6-3.7 3.4-5.1 6.6-3.3-1.5-5.2-2.7-7.9-4.8 0.7 2.6 2.8 6.4 4.9 8.6-10.6-4.9-16.8-10.5-20.1-16.2 0.1 3 0.8 6.7 2.7 10.2-10.8-5.6-22.5-14.5-36.2-27.2-4.8-4.9-9.6-9.8-12.5-11.9 0-0.1-0.1-0.1-0.2-0.1q0-0.1 0.1-0.2c-1.9-0.4-3.8-0.9-5.8-1 2.4-1.9 9.4-5.2 12.8-5.9-2.3-1-4.6-1.9-7.6-2.6 6.4-2.1 11.5-4.1 16.9-7.2 4.2-2.5 8.4-5.2 12.6-7.8 26.6-19.9 43.4-19.3 69.5 1 7.9 5.5 15.9 10.3 24.4 14-1.6 0.8-3.8 1.6-5.5 1.7 3.4 2 5.8 3.1 9.1 4.7-1.9 0.6-4.1 0.8-5.7 0.8z"/><path class="b" d="m236.8 126q-0.1 0.1-0.2 0.3c-6.4 9.1-12.9 17.6-22.1 24-2 1.4-6 2.8-6 2.8 0 0 3-4.5 4-7.9-3.4 4.1-9.2 9.6-14.7 12.4 0.3-1.6 0.3-2.6 0-4.3-4.5 2.9-9.3 8.6-10.1 14-7.6-5.1-16.6-15.6-19.3-19.1 0.1 2.5 0.4 4.6 1 6.9-5.5-4.2-9.6-8.1-14.4-13-4.6-4.8-9.1-10-12.4-15.8q0.5-0.3 1.1-0.6c4.2-2.5 8.4-5.2 12.6-7.8 26.6-19.9 43.4-19.3 69.5 1 3.7 2.5 7.3 4.9 11 7.1z"/><path class="a" d="m249.3 100.1q-0.2 2.9-0.7 5.8c-0.5-0.4-0.9-1-1.2-1.6-0.4 1.8-1.2 3.5-2.1 5 0-1-0.3-2.1-0.8-2.9q-0.9 2.6-1.8 5.1c0.2-0.6 0-2-0.1-2.6-0.9 1.1-2 2-3 3-1 1-2 2.1-3.1 3.1q-3.6 3-7.5 5.7c-11.3 7.7-24.4 12.7-37.7 14.1q-0.6 0.1-1.2 0.1-1.4 0.1-2.7-0.1-7.1-0.8-14-2.8c-8.1-2.4-15.9-6.1-23-10.8q-1.9-1.3-3.7-2.6c-2.2-1.5-4.3-3.1-6.2-4.9-2.4-2.1-4.1-4.1-5.5-7.1q-0.4 1.6-0.5 3.2c-0.9-1.2-1.4-2.5-1.8-3.9-0.3-1.3-0.5-2.7-0.5-4-0.7 0.9-1 2.1-1.2 3.3-0.6-1.5-0.9-3-1.1-4.6-0.1-0.8-0.3-1.5-0.3-2.3-0.1-0.5-0.2-1.9 0.2-2.4q-1.3 1.6-2.7 3.1c0.8-6.8 3.1-13.3 5.2-19.8 0.8-2.5 1.7-5 2.6-7.4 0.4-1.3 1.7-7.1 2.9-7.6q-0.9 0.4-1.8 0.8c1-2.6 1.9-5.1 3.4-7.5-0.4 0.2-0.8 0.2-1.2 0.1 0.7-1 1.2-2.2 1.5-3.3q-0.7 0.1-1.5 0.2c3.5-6.2 6.4-12.6 10-18.8 5.4-9.1 12.9-16.9 21.5-22.6 4-2.7 8.1-3.8 12.5-4.3q2.1-0.3 4.3-0.4c-0.4-0.6-1.4-1.6-2.3-2.2-0.5-0.3-0.9-0.6-1.3-0.6q1.1 0.1 2.2 0.2 1.2 0.1 2.5 0.3 0.9 0.1 1.7 0.4 1.6 0.4 3.2 1.1-0.8-0.7-1.4-1.5-1-1.1-1.8-2.5 0-0.1-0.1-0.2-0.1-0.1-0.1-0.3 0 0.1 0.1 0.2 0.1 0.1 0.2 0.2c0.8 0.9 2.5 1.7 3.9 2.3q0.6 0.2 1.1 0.4 0.8 0.3 1.4 0.6c2.3 1 4.6 1.8 6.9 3.1q0.3 0.2 0.6 0.4 1 0.5 2 1 2.5 1.4 5 2.7 3.5 2.4 6.7 5.3c5.3 4.9 9.9 10.5 13.6 16.7q2.7 4.6 4.6 9.6c1.4 3.6 3.3 6.4 5.2 9.7-0.6 0.4-1.3 0.4-1.9 0.2q1.8 2 3.1 4.4-0.6-0.2-1.3-0.4 0.8 1.1 1.6 2.2c-0.5 0.2-1 0.2-1.5 0q1.4 2.2 2.9 4.3-0.7 0-1.3 0c1.5 6 4.4 11.6 5.6 17.8 0.3 1.6 0.6 3.1 0.9 4.5 0.8 3.8 1 7.8 0.8 11.8z"/><path class="b" d="m249.3 94.2q-0.2 2.9-0.7 5.8c-0.5-0.4-0.9-1-1.2-1.7-0.4 1.8-1.2 3.5-2.1 5.1 0-1-0.3-2.1-0.8-2.9q-0.9 2.5-1.8 5.1c0.2-0.6 0-2-0.1-2.6-0.9 1.1-2 1.9-3 3-1 1-2 2.1-3.1 3q-3.6 3.1-7.5 5.8c-11.3 7.7-24.4 12.6-37.7 14.1q-0.6 0.1-1.2 0.1-1.4 0-2.7-0.1-7.1-0.8-14-2.8c-8.1-2.4-15.9-6.1-23-10.8q-1.9-1.3-3.7-2.6c-2.2-1.5-4.3-3.1-6.2-4.9-2.4-2.1-4.1-4.1-5.5-7.1q-0.4 1.6-0.5 3.2c-0.9-1.2-1.4-2.5-1.8-3.9-0.3-1.3-0.5-2.7-0.5-4.1-0.7 1-1 2.1-1.2 3.3-0.6-1.4-0.9-3-1.1-4.5-0.1-0.8-0.3-1.5-0.3-2.3-0.1-0.6-0.2-2 0.2-2.4q-0.6 0.7-1.2 1.4c-0.7 2.5-1.2 5-1.5 7.6q1.4-1.5 2.7-3.1c-0.4 0.4-0.2 1.8-0.2 2.4 0 0.8 0.2 1.5 0.3 2.3 0.2 1.5 0.5 3.1 1.1 4.6 0.2-1.2 0.5-2.4 1.2-3.4q0 2.1 0.5 4.1c0.4 1.4 0.9 2.7 1.8 3.9q0.1-1.6 0.5-3.2c1.4 3 3.1 5 5.5 7.1 1.9 1.8 4 3.4 6.2 4.9q1.8 1.3 3.7 2.6c7.1 4.7 14.9 8.4 23 10.8q6.9 2 14 2.8 1.3 0.1 2.7 0.1 0.6 0 1.2-0.1c13.4-1.5 26.4-6.4 37.7-14.1q3.9-2.7 7.5-5.7c1.1-1 2.1-2.1 3.1-3.1 1-1 2.1-1.9 3-3 0.1 0.6 0.3 2 0.1 2.6q0.9-2.6 1.8-5.1c0.5 0.8 0.8 1.9 0.8 2.9 1-1.5 1.7-3.3 2.1-5 0.3 0.6 0.7 1.2 1.2 1.6q0.5-2.9 0.7-5.8 0.1-3 0-6 0 0 0 0.1z"/><path class="b" d="m185.4 84.1c1.3 1.2 4.3 1.3 5.9 0.8 0.5-0.2 1.8-0.7 2-1.2 0.1-0.2 0.1-0.4 0.1-0.5-0.2-3-1-6.1-1.9-8.9-0.8-2.2-1.8-5.1-1.2-7.5q-0.4 1.6-0.8 3.3-0.5-3.8-0.4-7.7c-1 3.9-1.9 7.8-2.9 11.6-0.6 2.6-1.2 5.3-1.5 8-0.1 1 0.2 1.6 0.7 2.1z"/><path class="b" d="m178.1 44.2c-1.2-2.6-1.8-5.4-0.8-7.9 1-2.5 3.3-4.1 5.5-5.4 5-2.9 13.1-4.2 18.2-0.6 2.8 2 4.7 6 3.7 9.6-0.6 1.9-1.8 3.5-3 5q-5.8 7.1-12.1 13.5c0.1-0.1-6-7.5-6.4-8.1 0.4 0.9 0.4 1.8 0.2 2.7-1.4-2.4-3.8-5.5-5.3-8.8z"/><path class="n" d="m165.9 49.7h0.1 0.1 0.2c2.1 0.1 4.4 1.6 6.1 3.2q0 0 0.1 0c1.8 1.6 3.1 3.4 3.1 4v0.1c-0.1 4-3.4 7.3-7.5 7.3-4 0-7.5-3.4-7.5-7.6q0-0.4 0.1-0.8 0-0.4 0.1-0.8c0.3-1.7 1.3-3.1 2.5-4.2 0.5-0.4 1-0.7 1.6-1 0.1 0 0.2-0.1 0.4-0.1q0 0 0.2-0.1h0.4z"/><path class="o" d="m163.1 56.7c0 4.2 2.3 7.5 5 7.5 2.8 0 5.1-3.3 5.1-7.5 0-1.4-0.3-2.7-0.7-3.8q0 0 0 0c-1.8-1.6-4.1-3.1-6.2-3.2-1.9 1.1-3.2 3.8-3.2 7z"/><path class="h" d="m170.3 57.3c-1.2 0-2.2-1-2.2-2.2 0-1.2 1-2.1 2.2-2.1 1.2 0 2.1 0.9 2.1 2.1 0 1.2-0.9 2.2-2.1 2.2z"/><path class="o" d="m201.7 61.2c-0.1 2.1 0.2 4.4 0.7 6.3 0.1-0.8 0.2-1.3 0.5-1.9 0.4-1 1.8-1.3 3.2-1.2 1.7 0.3 3.3 0.7 5 0.7 1.8-0.1 3.5-0.7 5-1.7 2.9-2.2 3.6-6 3.4-9.4q1.6-0.5 3.3-0.6c-1.8-1.1-3.9-2.3-4.6-2.7-0.4-0.2-1.9-1.3-2.7-1.8-1.5-0.9-3.1-0.6-4.7 0.1-3.4 1.4-5.8 3.8-8 6.6-0.2 0.3-0.5 0.6-0.6 0.9q-0.1 0.4-0.2 0.8c-0.2 1.2-0.3 2.5-0.3 3.8z"/><path class="p" d="m218.3 56.7c0 0.5-0.1 1-0.1 1.5-0.2 1-0.6 1.9-1.2 2.7-0.2 0.4-0.6 0.8-0.9 1.1-0.9 0.9-1.9 1.5-3.1 1.9q-0.8 0.3-1.7 0.3-0.3 0-0.5 0-0.3 0-0.6 0c-1.9-0.1-3.5-0.9-4.8-2.2q-0.2-0.2-0.5-0.5c-0.1-0.2-0.3-0.4-0.4-0.6q-0.6-0.9-0.9-2-0.2-0.3-0.2-0.7c-0.1-0.2-0.1-0.4-0.1-0.5q-0.1-0.4-0.1-0.7v-0.1c0.1-0.5 0.8-1.5 1.8-2.6q0.7-0.7 1.4-1.4 0 0 0 0c1.1-0.9 2.2-1.8 3.4-2.4 0.9-0.4 1.9-0.7 2.8-0.8h0.4 0.4q0.2 0 0.2 0c0.2 0.1 0.3 0.1 0.4 0.2q0.9 0.4 1.6 1c1.2 1.1 2.1 2.5 2.5 4.1q0.1 0.4 0.1 0.9 0.1 0.4 0.1 0.8z"/><path class="q" d="m217 56.7c0 2-0.9 3.8-2.4 4.9-1 0.8-2.4 1.3-3.8 1.3-1.5 0-2.8-0.5-3.9-1.4-1.5-1.1-2.4-2.9-2.4-4.8q0-1.3 0.5-2.4 0.6-0.7 1.4-1.4 0 0 0 0c1.1-0.9 2.2-1.8 3.4-2.4q0.5 0 1 0c1.4 0 2.7 0.4 3.7 1.2 1.5 1.2 2.5 2.9 2.5 5z"/><path class="o" d="m210.8 60.1c-1.9 0-3.5-1.5-3.5-3.4 0-1.9 1.6-3.5 3.5-3.5 1.9 0 3.4 1.6 3.4 3.5 0 1.9-1.5 3.4-3.4 3.4z"/><path class="h" d="m213 55.3c-1.2 0-2.1-1-2.1-2.1 0-1.1 0.9-2 2.1-2 1.1 0 2 0.9 2 2 0 1.1-0.9 2.1-2 2.1z"/><path class="f" d="m180.2 97.7q-0.3 0.3-0.4 0.7-0.2 0.2-0.3 0.5c-0.3 0.8-0.5 1.8-0.4 2.7 0.1 0.3 0.1 0.6-0.1 0.8-0.2 0.1-0.3 0.1-0.5 0.1-0.2 0-0.4 0-0.6-0.1-1.6-0.6-3.1-1.8-4.3-3.2q0 0 0 0-0.1-0.2-0.2-0.4-0.2-0.2-0.5-0.5-0.1-0.2-0.3-0.4-0.1-0.2-0.3-0.5 0 0 0 0 1.5 0.2 3 0.1 1.8 0 3.5-0.3 0.7 0 1.5 0 0 0.2-0.2 0.5z"/><path class="r" d="m180.2 97.7q-0.3 0.3-0.4 0.7-0.2 0.2-0.3 0.5c-0.3 0.8-0.5 1.8-0.4 2.7 0.1 0.3 0.1 0.6-0.1 0.8-0.2 0.1-0.3 0.1-0.5 0.1-0.3-1-0.2-1.8-0.2-2.8 0-0.3-0.1-0.5-0.3-0.7-0.3-0.3-0.9-0.4-1.4-0.4-0.8 0-1.6 0.1-2.3 0.4q-0.4 0.1-0.7 0.2 0 0 0 0-0.1-0.2-0.2-0.3-0.2-0.3-0.5-0.6-0.1-0.2-0.3-0.4-0.1-0.2-0.3-0.4 0-0.1 0-0.1 1.5 0.2 3 0.2 1.8-0.1 3.5-0.4 0.7 0 1.5 0 0 0.3-0.2 0.5z"/><path class="f" d="m207.3 97.3q-0.2 0.3-0.4 0.6-0.2 0.4-0.5 0.8c-1 1.6-2.4 3.1-4.2 3.8-0.3 0.1-0.7 0.2-1 0q-0.2-0.2-0.3-0.5 0-0.2 0-0.3 0-0.8-0.2-1.5 0-0.2-0.1-0.3 0-0.2-0.1-0.3 0-0.2-0.1-0.4-0.1-0.1-0.2-0.2 0-0.1-0.1-0.2-0.3-0.5-0.6-0.9 0 0-0.1-0.1 2.1 0.2 4.1 0 0.9 0 1.8-0.2 0.4 0 0.7-0.1 0 0 0 0 0.7-0.1 1.3-0.2z"/><path class="r" d="m207.3 97.3q-0.2 0.3-0.4 0.6c-0.1 0.1-0.2 0.1-0.3 0.2-1.2 0.2-2.3 0.3-3.1 0.9q-0.3 0.3-0.6 0.6c-0.4 0.7-0.6 1.4-1 2.1-0.1 0.2-0.4 0.8-0.7 0.8q0 0 0 0-0.2-0.2-0.2-0.5-0.1-0.2-0.1-0.3 0-0.8-0.2-1.5 0-0.2-0.1-0.3 0-0.2-0.1-0.3 0-0.2-0.1-0.4-0.1-0.1-0.1-0.2-0.1-0.1-0.2-0.2-0.2-0.5-0.6-0.9 0 0-0.1-0.1 2.1 0.2 4.1 0 0.9 0 1.8-0.2 0.4 0 0.7-0.1 0 0 0 0 0.7-0.1 1.3-0.2z"/><path class="o" d="m216.9 89.7c0.1 2.9-2.2 5.5-4.8 6.9-2.5 1.5-5.7 2.3-8.9 2.4q-0.6 0.1-1.2 0.1c-4.7-0.1-9.3-1.5-12.3-4.7q-0.2-0.2-0.3-0.5c-1.2 1.5-2.7 2.6-4.4 3.4-2.6 1.1-5.4 1.7-8.2 1.8q-0.7 0-1.3 0c-3.1-0.2-6.2-1-8.9-2.5-2.6-1.4-4.9-4-4.8-6.9 0.2 2.8 2.5 5.1 5.2 6.3 2.1 1 4.6 1.5 7.2 1.6q0.3 0 0.5 0c4.7 0 9.4-1.5 12-4.8 0.6-0.8 0.9-1.7 1-2.6 0-0.2 0.7-8.2 0.7-8.4h2.3l0.3 7.9q0 0.1 0 0.2c0 2.3 1.9 4.2 3.9 5.4 2.7 1.5 5.9 2.3 9.1 2.3q0.3 0 0.6 0c2.5-0.1 4.9-0.6 7.1-1.6 2.7-1.2 5-3.4 5.2-6.3z"/><path class="s" d="m194.2 83.2c0 2.2-4 4.8-5.1 4.8-1 0-5.1-2.6-5.1-4.8 0-1.7 2.3-1.7 5.1-1.7 2.9 0 5.1 0 5.1 1.7z"/><path class="t" d="m189.1 86.8c-1 0-4.9-1.8-5.1-3.5 0.2 2.3 4.1 4.7 5.1 4.7 1.1 0 4.9-2.5 5.1-4.7-0.2 1.7-4 3.5-5.1 3.5z"/><path class="o" d="m212.4 86.1c8.8 0.4 17.7 2.7 25.5 6.8-8.3-3-16.8-5.3-25.5-6.8z"/><path class="o" d="m165.8 86.1c-8.7 1.5-17.2 3.8-25.5 6.8 7.8-4.1 16.7-6.4 25.5-6.8z"/><path class="o" d="m207.5 79c17.1-6.1 35.4-9 53.6-8.4-18.1 0.6-36.2 3.3-53.6 8.4z"/><path class="o" d="m212.4 81.6c18-1.9 36.3-1.3 54.1 1.9-18-2.1-36-2.7-54.1-1.9z"/><path class="o" d="m170.8 79c-17.5-5.1-35.5-7.8-53.7-8.4 18.2-0.6 36.5 2.3 53.7 8.4z"/><path class="o" d="m165.8 81.6c-18-0.9-36.1-0.3-54 1.9 17.8-3.3 36.1-3.9 54-1.9z"/><path class="a" d="m173.8 12.3q0 0.4 0 0.8c-0.1 0.3-0.1 0.6-0.2 0.9q-0.2 0.5-0.3 0.9c-0.5 1.2-1.3 2.5-2.2 3.5q0.1-0.4 0.2-0.8-0.4 0.3-0.9 0.6-1.8 1.5-3.5 3.1 0.2-0.5 0.4-0.9c-1.4 1.1-3 1.9-4.4 3-2.3 1.7-4.4 3.7-6.3 5.9-1.9 2.1-4.1 4.5-4.6 7.3q-0.3-0.8-0.4-1.7c-1.2 3.3-3.4 6.1-5.5 8.9-0.2-0.4-0.3-0.9-0.6-1.3-0.6 0.7-0.7 2.4-0.9 3.3q-0.4-0.4-0.7-0.8-0.6 1.1-0.7 2.4c-1.4-2.1-2.6-3.8-3.1-6.4-0.4-1.8-0.6-3.7-0.7-5.5q-0.2-1.6-0.2-3.2c-0.2-4.9 0.2-10 0.7-14.9q0.2-1.2 0.3-2.5c0.3-1.8 0.5-3.6 0.8-5.4 0.2-0.9 0.4-1.8 0.7-2.7 0.1-0.5 0.7-1.8-0.3-1.5 0.2-0.6 0.8-2 1.4-2.3q-0.6 0.3-1.1 0.6-0.1 0-0.2 0.1 0.2-0.4 0.5-0.7 0.2-0.3 0.4-0.5 0.1-0.2 0.3-0.3 0-0.1 0-0.1 0.2-0.1 0.3-0.2 0.3-0.3 0.5-0.4 0.2-0.2 0.3-0.3 0.3-0.1 0.5-0.3 0.4-0.2 0.7-0.3 0.3-0.1 0.6-0.2c0 0 0 0 0.1 0q0.4-0.1 0.8-0.2 0.4-0.1 0.9-0.2c0.1 0 0.2 0 0.3 0q0.5 0 1.1 0 1.1-0.1 2.4 0.1c2.4 0.4 5 1.2 7.3 2.2q0.1 0 0.1 0 0.2 0.1 0.4 0.1c2.1 0.9 4 1.8 5.4 2.5q0.2 0.1 0.3 0.2c1.8 0.9 3.5 1.8 5.1 3.1 0.8 0.6 1.5 1.3 2.1 2.1 0.5 0.7 1.4 1.7 1.4 2.5q0.3-0.3 0.5-0.6z"/><path class="u" d="m165.1 17.8q-0.1-0.1-0.2-0.1-2.5-0.4-5.1-0.9c1.7 0.7 3.2 1.7 4.3 3.1q-3.5-0.2-7-0.6 1.7 1.2 3.4 2.3c0.7 0.4-11.8 10.8-12.2 12-0.1 0.2-0.2 0.4-0.4 0.5-0.1 0.1-0.3 0.1-0.5 0.1q-1.1-0.1-2.2-0.2c-0.4 0-0.8-0.1-1.1-0.4-0.3-0.4-0.1-1 0.3-1.5 0.3-0.4 0.8-0.7 1-1.3-0.4-0.5-1.1-0.8-1.7-0.6 0.1-4 0.4-7.7 0.9-11.6 0.5-3.4 1.2-6.3 2.8-9.3 3.1-6 14.7 0.2 18.1 3.3 1.1 1 1.9 2.4 1.7 3.9-0.1 0.3-0.2 0.7-0.4 1-0.5 0.4-1.1 0.4-1.7 0.3z"/><path class="c" d="m236.7 31.4c-0.3 0.7-0.4 1.3-0.4 2q0 0.5 0.1 1c0.2 1.5 0.7 2.9 0.4 4.4q-0.1 0.5-0.3 1c-0.5 1.2-1.8 3.2-3.3 2.9-1.3-0.3-2.4-2.4-3.1-3.4-1.7-2.4-3.8-4.6-6.1-6.4q0.7-0.3 1.5-0.4-1.9-1.6-4.1-2.8c0.6-0.2 1.2-0.8 1.2-1.3-1.9-0.4-3.3-1.2-4.8-2.3-1.4-1.2-2.7-2.5-4.3-3.5 0.5-0.3 0.8-0.4 1.7-0.3-0.7-0.6-2.7-1.3-3.9-1.4 0.6-0.4 1.4-0.6 2.2-0.7-0.8-0.2-1.6-0.2-2.3-0.5-1.6-0.7-3.5-2.4-5.6-2.5 0.1-0.4 0.4-1.1 0.8-1.5-0.5-0.1-1.1 0-1.7 0.2q0.7-1.6 1.6-3.2c1-1.9 2.5-3.3 4-4.7q0.5-0.4 1-0.9c0.8-0.8 1.7-1.8 2.6-2.3q0 0.5 0 1.1c0.6-0.9 1.2-1.7 2.1-2.3q-0.3 0.6-0.3 1.3 0.8-0.7 1.8-1.3c6.1-3.9 14.5-3.9 18.9 1.8 2.3 3 3.6 6.7 3.9 10.6 0.3 4.1 0 8-0.8 12.1 0 0.2-0.1 0.4-0.2 0.6-0.5 1.2-2.2 1.4-2.6 2.7z"/><path class="v" d="m219.6 7.9c-1.3 0.8-2.4 1.8-3 3.2q-0.5 1-0.7 2.1c0 0.4 0.2 2 0.1 2.2q1.3-1.5 2.6-3-0.4 2.3-0.4 4.7c1.9-3 4.5-6 8.3-6.4-1.4 1.1-2.8 2.2-3.9 3.5-1.1 1.3-1.9 3-1.9 4.7q2.7-0.1 5.4-0.3-1.7 1.2-3.1 2.6c2 0.3 3.9 1 5.4 2.2-1.6 0-3.2 0.4-4.6 1.1q1.5 0.6 2.9 1.2c-0.5-0.1-1.1-0.1-1.4 0.3-1.1 1.3 1.2 3.7 1.9 4.4 0.7 0.7 1.4 1.3 2.1 2.1 0.8 0.9 2.1 2.2 2.8 0.3 0.6-1.7 0.2-3.6 1-5.3 0.3-0.6 0.7-1.2 1.1-1.7 1.5-2.6 1.6-5.8 1.4-8.5-0.2-2.8-1.2-5.5-2.6-7.8-0.4-0.7-0.9-1.3-1.5-1.8-1.1-1-2.6-1.4-4.1-1.5-2.6-0.1-5.5 0.3-7.8 1.7z"/><path class="a" d="m236.8 38.8q0 0.5-0.3 1c-0.1 0.4-0.4 0.8-0.7 1.2-0.7-0.3-1.6-0.8-1.7-1.7-0.1-0.8 0.6-1.6 1.1-2.3q0.8-1.2 1.2-2.6c0.2 1.5 0.7 2.9 0.4 4.4z"/><path class="a" d="m217.3 4.9q-0.2 0.3-0.3 0.6c-0.7 1.1-2 1.9-3.2 2.1-0.7 0.1-1.3 0-1.9-0.2-0.1-0.1-0.3-0.2-0.6-0.3 0.8-0.8 1.7-1.8 2.6-2.3q0 0.5 0 1.1c0.6-0.9 1.2-1.7 2.2-2.3q-0.4 0.6-0.4 1.3 0.8-0.7 1.7-1.3 0 0 0.1 0 0 0.7-0.2 1.3z"/><path class="a" d="m221.3 3.9c0.3 0.8-1.7 2.2-2.3 2.1-0.6-0.1-0.9-0.8-0.7-1.4 0.2-1 2.5-1.7 3-0.7q0 0 0 0z"/><path class="a" d="m211.7 8.1c-0.2 0-0.4 0.2-0.6 0.3-0.3 0.2-0.7 0.7-0.8 1.1-0.2 0.7 0.7 0.5 1 0.3 0.6-0.2 1.6-0.5 1.4-1.3-0.1-0.5-0.6-0.5-1-0.4z"/></svg>