<svg version="1.2" xmlns="http://www.w3.org/2000/svg" viewBox="0 0 470 470" width="470" height="470"><style>.a{fill:#3c3c3b}.b{mix-blend-mode:multiply;fill:#b2b2b2}.c{fill:#f9eaa8}.d{fill:#f9df87}.e{mix-blend-mode:multiply;fill:#dedac9}.f{fill:#ededed}.g{mix-blend-mode:multiply;fill:#ededed}.h{fill:#e8a94f}.i{mix-blend-mode:multiply;fill:#e8a94f}.j{fill:#f9d9a8}.k{mix-blend-mode:soft-light;fill:#844f0f}.l{mix-blend-mode:multiply;fill:#f9d9a8}.m{mix-blend-mode:soft-light;fill:#cbbba0}.n{mix-blend-mode:multiply;fill:#d9b791}.o{mix-blend-mode:multiply;fill:#c6c6c6}.p{fill:#1d1d1b}.q{fill:#afe4ec}.r{fill:#97c4cb}.s{fill:#fff}.t{fill:#fcea10}.u{fill:#f39200}.v{mix-blend-mode:multiply;fill:#dadada}.w{fill:#575756}.x{fill:#f9e1f7}</style><path class="a" d="m430.7 151.4c-2.3 6.6-8.1 12-13.9 15.7-4.9 3.3-9.9 6-15.2 8.4-4.4 2-9.6 4.2-14.6 5.1 2 0.4 3.5 0.9 5.6 1.1-4.6 1.3-9 2.1-13.8 2.3 2 0.9 4.1 1.5 6.3 1.9-8.4 1.4-17.3 3.1-24.3 8.1q-3.1 2.3-5.9 4.8c-7.5 6.9-14.3 17.7-17.8 26.9-4.8 12.3-5.9 25-8.1 37.8-2.3 13.1-6.6 25.9-12.7 37.8-4.7 9.1-10.9 17-21.1 20q2.3 0.3 4.7 0.6c-6 4.3-13.5 6.9-20.8 8.9q-1.9 0.6-3.8 1.1c-9.2 2.5-18.8 3.9-28.4 4.5-7.3 0.5-14.7 0.4-21.7-0.2-11.8-0.9-35.1-3.3-40.6-15.5-1.1-2.5-1.1-5.8 0.7-7.8 3-3.2 8.8-3.2 12.9-3.5 10.5-0.8 21 0.7 31.6-0.8 8.2-1.1 16.5-1.8 24.7-3.3q0.4 0 0.7-0.1 2.3-0.4 4.5-0.9c3.2-0.7 6.4-1.6 9.4-2.6q5.1-1.7 9.7-4.1c5.5-2.9 10.2-6.5 13.8-10.9 21.1-26.2 6.3-65.2 18.9-95 8.2-19.4 22-36.8 38-50.5q-0.2 0.8-0.2 1.6c2.3-2 4.3-3.9 6.7-5.7 2.7-2 5.1-3.6 8.2-5.7 6.5-3.8 13.5-6.7 20.4-9.2-0.7 0.9-1.3 1.7-2 2.7 2.8-0.9 5.9-1.3 8.9-1.7 11.6-1.5 25.3 0.7 34.2 9q2 1.9 3.5 4.3c2.9 4.4 3.3 9.9 1.5 14.9z"/><path class="b" d="m430.7 151.4q-0.9 2.5-2.2 4.6-0.1 0.1-0.2 0.3-0.2 0.3-0.5 0.7-0.8 1.2-1.8 2.3-0.3 0.5-0.8 1-0.1 0.1-0.1 0.2-0.5 0.4-1 0.9-1.4 1.4-2.9 2.6-0.7 0.6-1.4 1.1-1.4 1.1-2.9 2c-2 1.4-4.1 2.6-6.1 3.7q-1.1 0.6-2.2 1.2-0.2 0.2-0.5 0.3c-2.1 1.1-4.3 2.2-6.5 3.2-4.4 2-9.5 4.2-14.5 5.1q2.7 0.5 5.5 1.1-6.9 1.1-13.8 2.3 3.1 0.9 6.3 1.9c-7.9 1.3-15.9 3-22.3 6.8q-1.1 0.6-2 1.3-3.1 2.2-5.8 4.7c-7.6 6.9-14.3 17.7-17.9 27-4.8 12.3-5.8 24.9-8.1 37.8-2.2 13.1-6.5 25.9-12.6 37.8-4.8 9.1-11 17-21.2 20q2.3 0.3 4.7 0.5c-6 4.4-13.5 6.9-20.7 9q-2 0.6-3.8 1.1c-9.3 2.5-18.8 3.9-28.4 4.5-7.4 0.4-14.7 0.4-21.8-0.2-11.7-0.9-35-3.3-40.6-15.5-1.1-2.6-1.1-5.8 0.8-7.8 1.3-1.5 3.4-2.1 5.4-2.5q0.9-0.2 1.9-0.3 0.6-0.2 1.2-0.2 0.4-0.1 0.8-0.2 0.8-0.1 1.7-0.2 0.9-0.1 1.8-0.1c10.6-0.9 21.1 0.7 31.6-0.8 8.3-1.1 16.5-1.8 24.8-3.3q0.3 0 0.7-0.1c1.4-0.2 3.2-0.3 4.5-0.9 3.2-0.7 6.3-1.6 9.3-2.6q5.2-1.7 9.8-4.1c-0.1 1.4-0.2 2.7-0.3 3.6-0.6 4.8-0.2 9 2.7 13.1 0.3 0.4 0.7 0.9 1.2 1.1 0.6 0.2 1.3 0 2-0.2 6.2-2.2 11.5-7.1 14.1-13.2q0.4 1.4 0.8 2.8c-0.2-0.9 3.6-5.7 4.2-6.7q2.3-4 4.3-8.2c2.5-5.1 4.1-10.2 5.9-15.5 3.6-10.6 5.8-21.7 7.3-32.7 1.4-11.1 1.8-21.9 5.3-32.7 3-9.3 7.8-18.2 14.8-25-0.2 2.2 0 4.5 0.6 6.6 2.7-3.4 5.8-6.6 9.2-9.4 0 1-0.1 2.2-0.1 3.2 2.2-1.8 6.1-4.1 7.6-5 3.8-2.2 7.5-4.3 11.5-6 12.5-5.3 26-7.2 38-13.5 7.4-3.8 14.1-9.4 17.9-16.8 0.9 0.5 1.4 1.2 1.8 2.2 1.2-2.1 2.3-4.3 2.7-7 1.7 3.9 2.1 8.2 0.3 13.1z"/><path class="c" d="m188.4 325q-0.1 0.6-0.1 1.1 0 0.2 0 0.4 0 0.5-0.1 1v0.1q0 0.7-0.1 1.4-0.1 0.6-0.2 1.2-0.2 1.4-0.6 2.7-0.2 0.7-0.4 1.4c-1.1 3.9-2.9 7.5-4.9 11.1q-0.5 1.1-1.1 2.1c-1.5 2.8-3.1 5.6-4.6 8.4q-0.4 0.9-0.8 1.8-0.5 0.9-0.8 1.8-0.4 0.9-0.8 1.8 0 0 0 0-0.4 0.9-0.7 1.8-0.1 0.5-0.3 1-0.1 0.3-0.2 0.7-0.2 0.6-0.3 1.1-0.3 1-0.5 2-0.1 0.6-0.2 1.2-0.1 0.9-0.2 1.7-0.6-0.3-1.2-0.7-0.3 2.2-0.4 4.3-0.2 3.2 0 6.4-1.6-1.6-3.1-3.2v0.3q0 1.1 0 2 0 0.9 0.1 1.7 0 0.3 0.1 0.7c0 0.4 0.1 0.9 0.2 1.3q0.4 2.8 1.3 5.6 0.4 1.4 1.1 2.7 0.2 0.4 0.3 0.8 0.4 0.7 0.8 1.4 0.3 0.5 0.6 1 0.3 0.6 0.7 1.1 0.5 0.9 1.1 1.7 0.2 0.3 0.5 0.6c1.4 1.9 2.8 3.7 4 5.7q0.2 0.4 0.4 0.9 0.3 0.4 0.4 0.8 0.1 0.1 0.1 0.1 0.2 0.5 0.4 1 0.2 0.4 0.4 0.9 0.1 0.6 0.2 1.1 0.1 0.5 0.2 1c0.2 1.4 0.1 2.8 0 4.1q-0.1 2.2 0 4.4 0 3.9 0.3 7.9l0.3 4.9q0.1 1.1 0.1 2.2 0 0.8 0.1 1.7 0.1 1.3 0.1 2.5c0.2 6.7 0 13.3-1.9 19.5q0 0.1 0 0.2-0.2 0.5-0.4 0.9 0 0.2-0.1 0.4-0.2 0.6-0.5 1.1-0.3 0.6-0.7 1.1 0 0.1-0.1 0.1-0.4 0.6-0.8 1.1-0.5 0.6-1 1.1-0.1 0-0.1 0-0.5 0.5-1 0.9 0 0-0.1 0-0.3 0.3-0.7 0.5-0.2 0.2-0.4 0.3-0.6 0.3-1.1 0.6-0.1 0.1-0.2 0.1-0.5 0.3-1 0.4-0.2 0.1-0.4 0.2-0.6 0.3-1.3 0.4c-2.7 0.8-5.6 1-8.5 0.8q-1.6-0.2-3.3-0.4c-1.1-0.2-2.1-0.5-3.3-0.7q-0.2 0-0.5-0.1-0.7-0.1-1.5-0.1c-1.5-0.1-2.9 0.3-4.3 0.7-3.8 0.9-7.8 1.6-11.7 1.2q-0.4 0-0.8-0.1-0.5 0-1-0.1-0.3-0.1-0.5-0.1-0.5-0.1-1-0.2-0.3-0.1-0.7-0.2-0.3-0.1-0.7-0.3 0 0-0.1 0c-0.3-0.1-0.5-0.2-0.8-0.3q-0.2-0.1-0.5-0.2c-0.6-0.3-1.2-0.5-1.8-0.7q-0.3-0.1-0.7-0.1c-0.8-0.1-1.7 0.1-2.5 0.3-1.6 0.3-3.2 0.3-4.9 0.1-1.6-0.1-3.1-0.4-4.5-0.8-0.8-0.3-1.4-0.5-2.1-0.9-0.7-0.3-1.3-0.7-1.9-1.2q-0.4-0.3-0.7-0.6-0.4-0.3-0.8-0.7-0.3-0.4-0.6-0.8-0.3-0.4-0.5-0.8c-2.1-3.5-2-7.9-0.8-11.8 0.5-1.8 1.4-3.6 2.3-5.2q1.3-1.9 2.7-3.2c1.4-1.3 3-2.3 4.9-3 1.5-0.6 3.1-1 4.6-1.4q0.2 0 0.3 0c1.5-0.5 2.9-0.9 4.3-1.5q0.3-0.1 0.6-0.2 0.1-0.1 0.1-0.1 0.1 0 0.2-0.1 0.7-0.2 1.3-0.6 0.2-0.1 0.4-0.2 0.5-0.2 0.9-0.5 0 0 0 0 0.3-0.2 0.6-0.4 0.2-0.2 0.5-0.4 0.5-0.3 1-0.8 0.5-0.4 0.9-0.9 0.1 0 0.1 0 0.3-0.3 0.5-0.5 0.1-0.2 0.3-0.4 0.4-0.5 0.7-1 0.8-1.2 1.4-2.7 0.2-0.3 0.3-0.7c0.7-1.8 1.1-3.9 1.3-6.3 0.1-0.9 0.1-1.8-0.3-2.5-0.4-0.8-1.2-1.4-2-1.8q-3.3-2-6.3-4.2-5.7-4.1-10.3-9c-3.9-4.2-7.3-8.8-10-14q-1.5-2.7-2.8-5.6c-0.3 0.4-1 1.6-1.2 2.3q-0.9-2-1.4-4.1-0.7-2.6-1-5.2c-0.4 0-1 0.4-1.4 0.6-0.5-1.9-0.8-4.2-1-6.6q-0.1-1.4-0.1-2.8c-0.2-4.7 0-9.4 0.3-12q0.1-1 0.1-1.5 0.6-4 1.6-7.9c1.1-4.3 2.5-8.5 4.1-12.7q0.4-0.9 0.8-1.9c1.2-3.1 2.5-6.3 3.8-9.6q1.4-3.3 2.8-6.7 0.9-2 1.8-4 0.8-1.9 1.7-3.7 0.7-1.3 1.3-2.6 0.1-0.2 0.2-0.4 0.1-0.3 0.3-0.6 0.8-1.6 1.7-3.1 0-0.1 0-0.1 0.9-1.5 1.7-2.9 0.2-0.3 0.4-0.7 0.9-1.4 1.8-2.7 0.4-0.7 0.9-1.3 0.1-0.3 0.3-0.5 0.5-0.7 0.9-1.2 1.1-1.5 2.2-2.9 0.9-1.1 1.9-2.1 0.4-0.5 0.8-0.9 0.8-0.9 1.7-1.8 0.7-0.6 1.4-1.3 1.1-0.9 2.2-1.7c13-10.2 23.9 3.9 33 12.3q0.4 0.4 0.8 0.8 0.2 0.2 0.4 0.4 0.4 0.3 0.7 0.7 0.3 0.3 0.6 0.7c3.2 3.4 6.6 8 9.4 12.6q0.9 1.5 1.7 2.9 1.1 2 2 4 0.7 1.4 1.2 2.8c0.1 0.3 0.2 0.6 0.3 0.9q0.1 0.4 0.3 0.9 0.2 0.8 0.4 1.7 0.2 0.7 0.3 1.5 0 0.1 0 0.2 0.2 1.2 0.3 2.5 0.1 0.7 0.1 1.3z"/><path class="d" d="m109.2 354c-0.5 3.9-1.9 7.9-4.4 10.8q-0.1 0.2-0.3 0.3c-0.5 0.6-1.2 1.1-1.9 1.3-0.9 0.3-1.8-0.1-2.4-0.8-0.2-4.8 0-9.4 0.3-12q0.4-0.9 0.8-1.7c1.6-2.5 6-5.3 7.5-2.2q0.3 0.6 0.4 1.4c0.1 0.9 0.1 1.9 0 2.8z"/><path class="d" d="m159 317.6c-1.4 1.7-4.1 1.9-6.2 0.9q-0.2-0.1-0.4-0.2c-1.8-1-3.2-2.6-4.4-4.3-4.6-6.2 2.5-13.1 8.2-8 0.9 0.7 1.5 1.8 2.1 2.8 1.5 2.7 3.1 6.1 0.7 8.8z"/><path class="a" d="m110 349.7q-0.3 0.8-0.8 1.4c-0.9 1.2-2.4 2-3.8 2.5-1.8 0.8-3.9 2-4.3 4.1-0.5 2.4 1.4 3.9 2.7 5.4 0.4 0.5 0.8 1.3 0.7 2q0.1 0.3-0.1 0.5c-0.1 0.4-0.4 0.8-0.7 1.1-1 1-2.1 1.6-3.4 1.7q-0.1-1.4-0.1-2.8c-0.2-4.7 0-9.4 0.3-12q0.1-1 0.1-1.5 0.6-4 1.6-7.9c2.8-0.7 5.3-1.2 7.1 1.7 0.6 1.1 1.1 2.5 0.6 3.9z"/><path class="a" d="m135.1 333.2c1.1-0.7 2.4-1.7 2.6-3.1 0.2-0.7 0-1.4-0.3-1.9-2.6-5.2-11.7-4.9-15.5-1.6 1.1 0.3 2 0.7 2.8 1.4-2.4 2.5-4.7 6.8-0.3 8.2 3 1 8.2-1.5 10.7-3z"/><path class="a" d="m165.4 347.7c-4.7-1-12.5-5.6-13.9-6.6-6.3-4.4 2.6-11.4 7.8-11.6 4.6-0.1 9.6 3.8 11.7 7.7 0.5 0.8 0.8 1.6 0.8 2.6-0.1 0.9-0.7 1.8-1.6 1.9-0.6 0.1-1.3-0.2-1.8 0.1-0.8 0.4-0.7 1.6-0.3 2.4 0.4 0.7 1 1.5 0.9 2.4-0.1 1.4-1.6 1.6-3.6 1.1z"/><path class="a" d="m120.2 359.1c-0.6 1.1-1.2 2.4-0.8 3.5 0.1 0.4 0.4 0.8 0.8 1 2.5 2.1 6.4 1.8 9.4-0.6 0.6-0.5 1.2-1.2 1.4-2 0.1-0.5 0-0.8 0-1.2-0.4-3.1-2.3-9.3-5.4-9.8-1.7-0.2-1.9 1.1-2.3 2.7-0.6 2.3-1.9 4.3-3.1 6.4z"/><path class="a" d="m151.5 364.7c3 1.5 6.3 0.8 6.9-4.8 0.6-5.1-6.2-9.3-10.2-6.5-4.4 3.2-0.9 9.3 3.3 11.3z"/><path class="a" d="m129.4 409.9q-5.7-4-10.3-9-0.1-0.3-0.1-0.5c-0.1-0.7 0.1-1.5 0.5-2 1.2-1.5 4.3 0.2 5.6 1.1 1.9 1.3 3.4 2.9 5 4.6 1.8 2.1 1.2 4.6-0.7 5.8z"/><path class="a" d="m135.7 433.3c-2.3 5.8-12.3 2.8-16.9 5.7-0.9 0.6-1.8 1.3-2.8 1.7-1.1 0.4-2.4 0.3-3.2-0.5q0 0 0 0c1.4-1.4 3.1-2.3 4.9-3.1 1.5-0.5 3.1-0.9 4.6-1.3q0.2-0.1 0.3-0.1 2.3-0.6 4.3-1.4 1.9-0.8 3.5-1.8 0 0 0 0c1.5-0.9 2.8-2 3.9-3.4 1.5 1.2 2.1 2.3 1.4 4.2z"/><path class="a" d="m136.4 444.4c1.2 0.4 2.7 0.2 4-0.1 0.9-0.2 1.8-0.5 2.6-1 3.2-2.2-1.2-4-3.6-3.7-2.9 0.3-7.2 3.5-3 4.8z"/><path class="a" d="m158.9 440.9c-1.6 2-0.1 7 2.9 6.7 1.4-0.1 2.3-1.8 3.6-2.2 1.1-0.4 2.8-0.1 2.1-2.2-1.3-3.6-5.8-5.5-8.6-2.3z"/><path class="a" d="m141.9 451.3c1.3 0.3 2.4 1 2.5 2.1 0 1.2-1.2 2.3-2.4 2.4-2.4 0.3-6.7-3.6-2.8-4.6 0.6-0.1 1.7-0.1 2.7 0.1z"/><path class="a" d="m126.4 447.8c1.3-3.7-4.5-4.9-4.2-0.1 0.1 0.4 0.2 0.9 0.4 1.3 0.6 0.9 1.8 1.2 2.7 0.8 1-0.4 1.5-1.6 1.2-2.5-0.3 0.6 0.1-0.2-0.1 0.5z"/><path class="a" d="m110.6 385.9c-0.3 0.6-0.9 0.9-1.5 1.1q-1.5-2.7-2.8-5.6c-0.3 0.3-1 1.6-1.2 2.2q-0.9-1.9-1.4-4c1.1-2.2 3.4-1.8 5.2-0.2 1.9 1.5 3.1 4.3 1.7 6.5z"/><path class="a" d="m134.5 295.9c-0.3 2.9-2.1 5.4-4 7.6-2 2.3-4.3 4.5-7 5.9-2.8 1.5-5.6 1.3-8-0.1q0.8-1.9 1.7-3.7c2.2-4.6 4.6-9 7.4-13.1 1.3-2.1 2.8-4.1 4.3-5.9q0.4 0.2 0.8 0.5c2.6 1.9 5.3 5.3 4.8 8.8z"/><path class="d" d="m132.9 327.6c0.4 0.2 0.7 0.6 0.8 1.2 0.6 2.7-4.6 3.6-6.2 3-0.2 0-0.5-0.1-0.6-0.3-0.1-0.3-0.1-0.5 0-0.8 0.4-1.8 4.2-4.1 6-3.2z"/><path class="d" d="m124.6 303.9c-1.7 1.2-4.9 2-7.4 1.7 2.2-4.6 4.6-9 7.4-13.2q0.4 0.3 0.8 0.7c3.5 3.6 3.4 7.9-0.8 10.8z"/><path class="a" d="m165.4 302.3c5.5 7-2.6 23.7-12.1 18.1-0.7-0.4-1.2-1.3-0.9-2.1q0-0.1 0-0.1c0.2-0.4 0.6-0.7 1-1 1.6-1.5 2.2-4.1 1.3-6.1-0.9-2.1-3.2-3.4-5.4-3.2-0.7 0-1.4 0.3-1.9 0.8-0.5 0.5-0.8 1.3-1.4 1.7q0 0-0.1 0.1c-0.9 0.3-1.8-0.6-1.9-1.5-0.8-7.4 8.8-10.5 14.6-10.1 2.6 0.1 5.2 1.3 6.8 3.4z"/><path class="a" d="m109.4 329.1c-0.9 1-2 1.9-3.1 2.4q0.4-0.9 0.8-1.9c1.2-3.1 2.5-6.4 3.8-9.6 2.8 0.8 1.4 5.7-1.5 9.1z"/><path class="a" d="m132.2 348.6q-0.2-0.1-0.4-0.3c-0.7-0.5-2.4-0.9-3.3-0.3-0.5 0.3-0.5 0.8-0.1 1.3q1.6 1.8 3.2 3.6c0.5 0.6 1.2 1.1 1.8 0.7 0.4-0.3 0.3-0.9 0.2-1.4-0.2-1.2-0.5-2.7-1.4-3.6z"/><path class="a" d="m178.7 457.5q-0.2 0.4-0.3 0.9-0.1 0.2-0.2 0.4-0.2 0.5-0.5 1-0.3 0.6-0.7 1.2 0 0-0.1 0-0.3 0.7-0.8 1.2-0.5 0.5-1 1 0 0-0.1 0.1-0.5 0.4-1 0.8 0 0 0 0-0.4 0.3-0.8 0.6c-1.8 0.2-3.8-0.2-5.5-0.8-1.8-0.8-5.9-4.7-1.6-5.7 0.4-0.1 0.7-0.1 1.1-0.1 0.7 0 1.4 0.1 2-0.1 2-0.6 2.8-3.3 4.8-3.8 1.2-0.3 2.4 0.2 3.3 1 0.6 0.6 1.1 1.4 1.4 2.3z"/><path class="a" d="m180.9 347.5c-1.5 2.8-3.1 5.6-4.5 8.4q-0.2-0.2-0.4-0.3c-2.3-2.3-1.8-5.5 0.3-7.8 1.5-1.6 3.3-1.5 4.6-0.3z"/><path class="a" d="m180.4 433.5c-1.7 0.9-3.6 1.4-5.1 1.2-2.7-0.3-6.3-2.1-5.8-5.3 0.2-1.7 1.6-3.3 3.3-2.5 1.8 0.7 2.6 2.2 4.2 1.6q0.5-0.2 1.1-0.7c0.5-0.4 1.2-1 1.9-1.4 0.1 2.4 0.3 4.8 0.4 7.1z"/><path class="a" d="m149.4 428.1c-1 0.4-2 1.1-2.7 1.7-0.6 0.6-2.1 1.9-1.2 2.8 0.3 0.3 0.8 0.4 1.2 0.4 1.7 0.1 5-0.1 6.2-1.6 1.2-1.5 0.5-3.2-1.4-3.6-0.7-0.1-1.4 0-2.1 0.3z"/><path class="a" d="m188.3 326.1c-1.3-0.4-2.5-1.1-3.6-1.8q-2-1.2-3.9-2.6c-2.2-1.5-3.8-5-0.5-6.7 1.3-0.6 3-0.4 4.3-1.2q0.5-0.3 0.9-0.7c1 2.3 1.8 4.4 2.2 6.3q0.7 3.5 0.6 6.7z"/><path class="a" d="m147.2 279.5c1.2-1.8 3.4-2.6 5 0.7 1 1.9-0.4 4.5-2.6 4.8-4.1 0.5-4-3.2-2.4-5.5z"/><path class="a" d="m167.2 383.6q0.4 2.9 1.3 5.6c-3.5-1.2-7-2.9-9.9-5.2-4.1-3.4-9-11.7-1.6-14.5 4.9-1.8 9.1 1.8 12.9 5q-0.2 3.2 0 6.4-1.6-1.7-3.1-3.3v0.4q0 1 0 2 0.1 0.8 0.1 1.6 0.1 0.4 0.1 0.7c0 0.5 0.1 0.9 0.2 1.3z"/><path class="a" d="m179.7 414.2q-0.1 2.2 0 4.4c-1.2 0.4-2.4 0.7-3.6 0.9q-0.3 0-0.6 0.1c-1.9 0.2-4.4 0.3-6.7-0.1-2.2-0.5-4.1-1.5-5-3.4-0.7-1.7 0.2-4 1.4-6.2 1-2.1 2.2-4.3 2.5-5.9 0.3-1.4 0.6-2.9 1.5-4 0.9-1.1 2.6-1.5 4.4-1.5q0 0 0 0c1.4 1.9 2.8 3.7 3.9 5.7q0.3 0.5 0.5 0.9 0.3 0.4 0.4 0.8 0.1 0.1 0.1 0.2 0.2 0.4 0.4 0.9 0.2 0.5 0.3 1 0.2 0.5 0.3 1 0.1 0.5 0.2 1c0.1 1.4 0.1 2.8 0 4.2z"/><path class="a" d="m157 412.2c9.1-7.9 4.9-20.6-2.4-28.5-3.2-3.5-7.1-6.5-11.7-7.6-9.2-2.4-21.7 5-16.8 15.6 1.6 3.4 4.9 5.6 8.5 6.3 3 0.6 5.2 0.8 6 4 0.6 2.6-1 5.1-0.4 7.5 1.5 7.1 12 6.7 16.5 2.9q0.2-0.1 0.3-0.2z"/><path class="e" d="m188.4 325q-0.1 0.6-0.1 1.1 0 0.2 0 0.4 0 0.5-0.1 1v0.1q0 0.7-0.1 1.4-0.1 0.6-0.2 1.2-0.2 1.4-0.6 2.7-0.2 0.7-0.4 1.4c-1.1 3.9-2.9 7.5-4.9 11.1q-0.5 1.1-1.1 2.1c-1.5 2.8-3.1 5.6-4.6 8.4q-0.4 0.9-0.8 1.8-0.5 0.9-0.8 1.8-0.4 0.9-0.8 1.8 0 0 0 0-0.4 0.9-0.7 1.8-0.1 0.5-0.3 1-0.1 0.3-0.2 0.7-0.2 0.6-0.3 1.1-0.3 1-0.5 2-0.1 0.6-0.2 1.2-0.1 0.9-0.2 1.7-0.6-0.3-1.2-0.7-0.3 2.2-0.4 4.3-0.2 3.2 0 6.4-1.6-1.6-3.1-3.2v0.3q0 1.1 0 2 0 0.9 0.1 1.7 0 0.3 0.1 0.7 0.1 0.7 0.2 1.3 0.4 2.8 1.3 5.6 0.4 1.4 1.1 2.7 0.2 0.4 0.3 0.8 0.4 0.7 0.8 1.4 0.3 0.5 0.6 1 0.3 0.6 0.7 1.1 0.5 0.9 1.1 1.7 0.2 0.3 0.5 0.6 0 0 0 0c1.4 1.9 2.8 3.7 4 5.7q0.2 0.4 0.4 0.9 0.3 0.4 0.5 0.8 0 0.1 0 0.1 0.2 0.5 0.4 1 0.2 0.4 0.4 0.9 0.1 0.6 0.2 1.1 0.1 0.5 0.2 1c0.2 1.4 0.1 2.8 0 4.1q-0.1 2.2 0 4.4 0 3.9 0.3 7.9l0.3 4.9q0.1 1.1 0.1 2.2 0.1 0.8 0.1 1.7 0.1 1.3 0.1 2.5c0.3 6.7 0 13.3-1.9 19.5q0 0.1 0 0.2-0.2 0.5-0.4 0.9 0 0.2-0.1 0.4-0.2 0.6-0.5 1.1-0.3 0.6-0.7 1.1 0 0.1-0.1 0.1-0.4 0.6-0.8 1.1-0.5 0.6-1 1.1-0.1 0-0.1 0-0.5 0.5-1 0.9 0 0-0.1 0-0.3 0.3-0.7 0.5-0.2 0.2-0.4 0.3-0.6 0.3-1.1 0.6-0.1 0.1-0.2 0.1-0.5 0.3-1 0.4-0.2 0.1-0.4 0.2-0.6 0.3-1.3 0.4c-2.7 0.8-5.6 1-8.5 0.8q-1.6-0.2-3.3-0.4c-1.1-0.2-2.1-0.5-3.3-0.7q-0.2 0-0.5-0.1-0.7-0.1-1.5-0.1c-1.5-0.1-2.9 0.3-4.3 0.7-3.8 0.9-7.8 1.6-11.7 1.2q-0.4 0-0.8-0.1-0.5 0-1-0.1-0.3-0.1-0.5-0.1-0.5-0.1-1-0.2-0.3-0.1-0.7-0.2-0.3-0.1-0.7-0.3 0 0-0.1 0c-0.3-0.1-0.5-0.2-0.8-0.3q-0.2-0.1-0.5-0.2c-0.6-0.3-1.2-0.5-1.8-0.7q-0.3-0.1-0.7-0.1c-0.8-0.1-1.7 0.1-2.5 0.3-1.6 0.3-3.2 0.3-4.9 0.1-1.6-0.1-3.1-0.4-4.5-0.8-0.8-0.3-1.4-0.5-2.1-0.9-0.7-0.3-1.3-0.7-1.9-1.2q-0.4-0.3-0.7-0.6-0.4-0.3-0.8-0.7-0.3-0.4-0.6-0.8-0.3-0.4-0.5-0.8c-2.1-3.5-2-7.9-0.8-11.8 0.2 1 0.5 2 0.9 3q0 0.2 0.1 0.3c0.7 1.5 1.7 2.7 2.8 3.7q0.7 0.7 1.6 1.2c1.9 1.2 4.3 1.7 6.6 1.3 3-0.5 9.3-4.8 9.4-8.6-0.1 1 0 2.1 0.2 3.3 0.3 1.8 0.9 3.5 2.3 4.5 0.2 0.1 0.4 0.3 0.7 0.4 1 0.5 2.1 0.8 3.4 0.9 2.1 0.2 4.3 0.1 5.9-0.2 3.8-0.5 6.8-2.6 8.5-5.7q0 0 0.1 0 0.9-1.7 1.3-3.9 0.1-0.3 0.1-0.6 0 0.2-0.1 0.5v0.1c-0.3 3.7 0.9 6.4 3.2 7.9q0.9 0.6 2 1c1.2 0.4 2.5 0.6 3.9 0.7 5.8 0.2 10.4-2.3 12.2-8 0.4-1.3 0.5-2.7 0.7-4.1-0.8 0.5-2.4 1.2-3.6 1.5 0.9-2.9 1.7-9.8 1.5-14.4q0-0.9-0.1-1.8-0.2-2.2-0.7-4.4-0.7-3.9-1.9-7.7-0.9-3.1-2.1-6.2-0.7-1.7-1.5-3.4c-0.9-1.7-1.9-3.4-2.9-5-3.1-4.8-6.6-9.2-9.1-14.4q-0.7 1.5-1.5 3c-2.7-5.1-4.7-10.6-5.7-16.3q-0.2-0.8-0.3-1.6-0.2 0.6-0.5 1.2-1 2.7-2 5.4-1.8-3.4-3.5-6.6c-3.2-5.9-6.1-11.6-9-17.5q0 0 0 0-1.8-3.6-3.6-7.3v-0.1c-2.4-5.1-4.9-10.4-7.4-16.2-2.9-6.7-5.4-14.9-6-21.2q0.9-2 1.8-4 0.8-1.8 1.7-3.7 0.7-1.3 1.3-2.6 0.2-0.2 0.2-0.4 0.2-0.3 0.3-0.6 0.8-1.6 1.7-3.1 0-0.1 0.1-0.1 0.8-1.4 1.6-2.9 0.2-0.3 0.5-0.7 0.8-1.4 1.7-2.7 0.4-0.7 0.9-1.3 0.2-0.3 0.3-0.5 0.5-0.6 0.9-1.2 1.1-1.5 2.2-2.9 0.9-1.1 1.9-2.1 0.4-0.5 0.8-0.9 0.9-0.9 1.8-1.8 0.6-0.6 1.4-1.2 1-1 2.1-1.8c13-10.2 23.9 4 33 12.3q0.4 0.4 0.9 0.8 0.2 0.2 0.4 0.4 0.3 0.3 0.6 0.7 0.3 0.3 0.7 0.7c3.1 3.4 6.5 8 9.4 12.7q0.8 1.4 1.6 2.9 1.1 2 2 3.9 0.7 1.5 1.2 2.9c0.1 0.3 0.2 0.5 0.3 0.8q0.2 0.5 0.3 0.9 0.3 0.9 0.4 1.7 0.2 0.7 0.3 1.5 0 0.1 0 0.2 0.2 1.3 0.3 2.5 0.1 0.7 0.1 1.3z"/><path class="e" d="m122.6 435.7c3.3 0 7.1 0.3 10 1.7 0.4 0.2 0.9 0.4 1.4 0.4 0.6 0.1 1.2-0.2 1.8-0.4 3.3-1.3 7-1.4 10.3-0.2 1.8 0.6 3.5 1.6 5.4 1.4 1.2-0.1 2.3-0.8 3.5-1.1 1.2-0.4 2.3-0.6 3.4-0.5q1.1 0 2.1 0.1c0.3 0.1 2 0.1 2.1 0.4-3.9-7.4-10.8-15.1-18.1-19.1-2.5-1.3-6.2-3.1-8.8-4.2 0.8 0.4 1.6 0.9 2 1.7 0.4 0.8 0.4 1.7 0.3 2.6-0.9 11-6.5 14.8-15.4 17.2z"/><path class="f" d="m108.6 456.2q0 0.8 0 1.6c0.3 2.7 0.8 5.3 1.4 7.7 0.3-3.1 1.1-5.9 2.3-7.6 0.6-0.8 1.2-1.4 1.6-2.6 0.6-1.5 0.7-4 0.3-5.7-0.3-1.1-1.1-2-1.7-2.4q-0.4-0.2-0.7-0.2c-0.9 0-1.9 1.1-2.4 2.8q-0.6 1.7-0.8 3.7-0.1 1.3 0 2.7z"/><path class="g" d="m108.6 456.2q0 0.8 0 1.6c0.3 2.7 0.8 5.3 1.4 7.7 0.3-3.1 1.1-5.9 2.3-7.6 0.6-0.8 1.2-1.4 1.6-2.6 0.6-1.5 0.7-4 0.3-5.7-0.3-1.1-1.1-2-1.7-2.4 0.3 0.8 0.6 1.7 0.6 1.9 0.4 1.2 0.4 2.9 0 4-0.2 0.3-0.4 0.6-0.5 0.9l-1.8 3c-0.3 0.4-0.5 0.8-0.8 0.9-0.4 0.2-0.7-0.4-0.9-1.2-0.2-1-0.4-2.4-0.4-3.2q-0.1 1.3-0.1 2.7z"/><path class="f" d="m130.4 470c0.6-3.7 1.8-7.3 3.5-9.2 0.8-0.8 1.6-1.5 2.2-2.8 0.4-1.1 0.5-2.6 0.5-4.1-0.1-2.7-0.6-5-1.8-6.1q-0.3-0.3-0.7-0.4c-1.8-0.9-3.2-0.1-4.2 3.1q-0.6 1.9-0.8 4.1-0.1 0.8-0.1 1.6-0.1 0.3-0.1 0.6c-0.2 4.6 0.4 9.2 1.5 13.2z"/><path class="g" d="m130.4 470c0.6-3.7 1.8-7.3 3.5-9.2 0.8-0.8 1.6-1.5 2.2-2.8 0.4-1.1 0.5-2.6 0.5-4.1-0.1-2.7-0.6-5-1.8-6.1 0.3 1 0.4 2.1 0.5 2.8 0.2 1.4 0.3 2.9-0.2 4.1-0.5 1.2-1.4 1.8-2 2.4q-0.9 0.7-1.7 1.5c-0.3 0.2-0.7 0.8-1 0.6-0.4-0.1-0.7-1-0.9-1.7-0.1-0.7-0.5-2.2-0.4-2.9q-0.1 0.8-0.1 1.6 0 0.3 0 0.6c-0.2 4.6 0.3 9.2 1.5 13.2z"/><path class="f" d="m150 454.7c0 2.7 0.5 5.5 1.1 8.1q0.6 3.1 1.2 6.1 0.1 0.4 0.1 0.7c-0.1-0.8 0.6-2.7 0.8-3.5q0.6-1.9 1.4-3.7c1-2.2 2.2-4.2 2.9-6.7 0.9-3 0.4-5.7-1.3-7.6q-0.1-0.2-0.2-0.3-0.3-0.3-0.7-0.4c-3.3-1.6-5.1 3.4-5.2 7.3z"/><path class="g" d="m150 454.7c0 2.7 0.5 5.5 1.1 8.1q0.6 3.1 1.2 6.1 0.1 0.4 0.1 0.7c-0.1-0.8 0.6-2.7 0.8-3.5q0.6-1.9 1.4-3.7c1-2.2 2.2-4.2 2.9-6.7 0.9-3 0.4-5.7-1.3-7.6 0.1 1.4 0.6 2.2 0.4 3.7-0.1 1.6-0.6 3.2-1.4 4.3-0.4 0.6-1 1.1-1.4 1.7q-0.8 1-1.3 2.3 0 0.2-0.1 0.2c-0.1 0.1-0.2 0-0.3-0.1-1.2-1.3-1.7-3.4-2-5.5z"/><path class="h" d="m278.7 375c-0.3-0.2-1-0.6-1.3-0.6-0.4 3.2-1.2 6.3-2.4 9.3-0.3-0.7-0.9-1.9-1.3-2.3-6.2 14.4-15.9 24.7-29.4 32.8-0.8 0.5-1.6 1-2 1.8-0.4 0.7-0.4 1.7-0.3 2.5q0.1 1.5 0.4 2.8c1.6 8.9 7 12.2 15 14.5q0.2 0 0.3 0c1.6 0.5 3.1 0.8 4.6 1.4 3.1 1.2 5.5 3 7.6 6.2 1 1.6 1.8 3.4 2.4 5.2 1.2 3.9 1.2 8.3-0.8 11.8-0.4 0.6-0.8 1.1-1.2 1.6-0.4 0.5-1 0.9-1.4 1.3-0.6 0.5-1.3 0.9-2 1.2-0.6 0.4-1.3 0.6-2 0.9-1.5 0.5-3 0.7-4.5 0.8-1.7 0.2-3.4 0.2-4.9-0.1-0.9-0.2-1.7-0.4-2.6-0.3q-0.3 0-0.6 0.1c-0.8 0.2-1.6 0.6-2.3 0.9-1.6 0.7-3.2 1.1-4.8 1.3q-0.4 0-0.8 0c-3.9 0.4-8-0.3-11.8-1.2-1.4-0.4-2.8-0.7-4.2-0.7q-1.1 0-2.1 0.2c-1.2 0.3-2.2 0.5-3.3 0.7q-1.6 0.3-3.3 0.4c-2.9 0.2-5.8 0-8.5-0.8-4.7-1.3-8.5-4.6-9.9-9.4-3-10-1.8-21-1.2-31.7 0.2-3.8 0.4-7.6 0.2-11.3-0.1-1.4-0.1-2.8 0-4.2 0.7-5.3 4.8-9.3 7.8-13.8 3.8-5.7 5.2-11.9 5.2-18.6q-1.6 1.6-3.2 3.2c0.3-3.5 0.1-7.2-0.3-10.7q-0.7 0.3-1.3 0.7c-1.8-18.5-20.5-31.5-16.2-51.4 1.9-8.7 11.3-22.4 17.9-28.4 9.1-8.3 19.9-22.5 33-12.3 10.5 8.2 17.5 21.4 23.1 34.5 2.4 5.6 4.6 11.2 6.7 16.4 2.9 7.2 5.3 14.7 6.4 22.5 0.4 2.5 1.3 15.4-0.7 22.8z"/><path class="a" d="m271.5 460.4c-0.3 0.6-0.8 1.1-1.2 1.6-0.4 0.5-0.9 0.9-1.4 1.3-0.6 0.5-1.3 0.8-1.9 1.2-0.7 0.4-1.4 0.6-2.1 0.9-1.5 0.4-3 0.7-4.5 0.8-1.7 0.2-3.4 0.1-4.9-0.1-0.9-0.2-1.7-0.4-2.6-0.3q-0.3 0-0.6 0.1c-0.8 0.2-1.6 0.6-2.3 0.9-1.6 0.7-3.2 1.1-4.8 1.2q-0.4 0.1-0.8 0.1c-3.9 0.4-7.9-0.3-11.8-1.2-1.4-0.4-2.8-0.8-4.2-0.7q-1.1 0-2.1 0.2c-1.2 0.2-2.1 0.5-3.2 0.7q-1.7 0.2-3.4 0.4c-2.8 0.2-5.8 0-8.5-0.8-4.7-1.3-8.5-4.6-9.9-9.4-3-10.1-1.8-21-1.2-31.8 3.6 2.3 7.7 3.3 11.8 1.2 2.8-1.3 5-3.4 7.3-5.5-0.6 1.5-0.7 3.2-0.2 4.8q2.4-1.8 4.9-3.5-0.1 1.4-0.2 2.8c5.9-2.7 12.3-4.1 18.7-4 1.6 8.9 7 12.2 15 14.5q0.2 0 0.3 0c1.6 0.4 3.1 0.8 4.6 1.4 3.1 1.2 5.6 3 7.6 6.2 1 1.6 1.8 3.4 2.4 5.2 1.2 3.9 1.2 8.3-0.8 11.8z"/><path class="i" d="m271.5 460.4c-0.3 0.6-0.8 1.1-1.2 1.6-0.4 0.5-0.9 0.9-1.4 1.3-0.6 0.5-1.3 0.8-1.9 1.2-0.7 0.4-1.4 0.6-2.1 0.9-1.5 0.4-3 0.7-4.5 0.8-1.7 0.2-3.4 0.1-4.9-0.1-0.9-0.2-1.7-0.4-2.6-0.3q-0.3 0-0.6 0.1c-0.8 0.2-1.6 0.6-2.3 0.9-1.6 0.7-3.2 1.1-4.8 1.2q-0.4 0.1-0.8 0.1c-3.9 0.4-7.9-0.3-11.8-1.2-1.4-0.4-2.8-0.8-4.2-0.7q-1.1 0-2.1 0.2c-1.2 0.2-2.1 0.5-3.2 0.7q-1.7 0.2-3.4 0.4c-2.8 0.2-5.8 0-8.5-0.8-4.7-1.3-8.5-4.6-9.9-9.4-3-10.1-1.8-21-1.2-31.8 0.2-3.8 0.4-7.6 0.2-11.3 0-1.3-0.1-2.7 0.1-4.1 0.6-5.3 4.7-9.4 7.7-13.8 3.8-5.8 5.2-11.9 5.2-18.6q-1.6 1.6-3.1 3.2c0.2-3.6 0.1-7.2-0.4-10.7q-0.6 0.3-1.3 0.7c-1.7-18.5-20.4-31.5-16.1-51.4 1.8-8.7 11.3-22.4 17.8-28.4 9.1-8.3 20-22.5 33-12.3 10.5 8.2 17.5 21.4 23.1 34.5-0.5 6.3-3 14.5-5.9 21.2-7.8 18-14.7 31.4-23.5 47.7q-1.3-3.3-2.5-6.6c-1 6.3-3.1 12.3-6.1 17.9q-0.7-1.5-1.4-3c-3.9 8-10.2 14.3-13.5 22.8-2.3 5.9-4 12.1-4.7 18.3-0.5 4.3 0.3 12.9 1.4 16.2-1.2-0.3-2.8-1-3.6-1.5 0.1 1.4 0.3 2.8 0.7 4.1 1.7 5.7 6.3 8.2 12.1 8 6.3-0.2 9.9-3.6 9.1-10.2 0.7 5.7 4.6 9.4 10 10.2 2.7 0.5 7.5 0.6 10-1.1 2.2-1.6 2.5-5.2 2.5-7.8 0.1 3.8 6.4 8.1 9.4 8.6 4.6 0.8 9.2-2.1 11.1-6.5 0.4-1 0.7-1.9 0.9-3 1.2 3.9 1.2 8.3-0.8 11.8z"/><path class="i" d="m257.4 435.8c-3.2 0-7 0.2-9.9 1.6-0.4 0.2-0.9 0.4-1.4 0.5-0.6 0-1.3-0.3-1.9-0.5-3.2-1.3-6.9-1.4-10.2-0.2-1.8 0.6-3.5 1.6-5.4 1.4-1.2-0.1-2.4-0.8-3.5-1.1-1.2-0.3-2.3-0.5-3.5-0.5q-1 0-2.1 0.1c-0.3 0.1-1.9 0.2-2 0.4 3.8-7.3 10.8-15.1 18.1-19 2.4-1.4 6.2-3.2 8.7-4.3-0.7 0.4-1.6 1-2 1.8-0.4 0.7-0.3 1.6-0.3 2.5 1 11 6.6 14.8 15.4 17.2z"/><path class="f" d="m271.5 456.3q0 0.8-0.1 1.5c-0.2 2.8-0.8 5.3-1.4 7.8-0.2-3.1-1.1-6-2.2-7.7-0.6-0.8-1.3-1.4-1.7-2.6-0.6-1.5-0.7-3.9-0.2-5.7 0.2-1 1-1.9 1.7-2.3q0.3-0.3 0.6-0.3c1 0 1.9 1.1 2.5 2.8q0.6 1.7 0.7 3.7 0.1 1.3 0.1 2.7z"/><path class="g" d="m271.5 456.3q0 0.8-0.1 1.5c-0.2 2.8-0.8 5.3-1.4 7.8-0.2-3.1-1.1-6-2.2-7.7-0.6-0.8-1.3-1.4-1.7-2.6-0.6-1.5-0.7-3.9-0.2-5.7 0.2-1 1-1.9 1.7-2.3-0.3 0.7-0.6 1.6-0.7 1.8-0.3 1.2-0.3 2.9 0.1 4 0.1 0.3 0.3 0.6 0.5 0.9l1.8 3c0.2 0.4 0.5 0.8 0.8 1 0.4 0.1 0.7-0.5 0.9-1.3 0.2-1 0.3-2.4 0.4-3.2q0.1 1.3 0.1 2.7z"/><path class="f" d="m249.6 470c-0.6-3.7-1.7-7.2-3.5-9.2-0.8-0.8-1.6-1.5-2.1-2.8-0.4-1.1-0.6-2.6-0.5-4.1 0-2.7 0.5-5 1.8-6q0.2-0.3 0.6-0.5c1.8-0.9 3.2-0.1 4.2 3.1q0.6 1.9 0.9 4.1 0 0.8 0.1 1.6 0 0.3 0 0.6c0.2 4.6-0.3 9.2-1.5 13.2z"/><path class="g" d="m249.6 470c-0.6-3.7-1.7-7.2-3.5-9.2-0.8-0.8-1.6-1.5-2.1-2.8-0.4-1.1-0.6-2.6-0.5-4.1 0-2.7 0.5-5 1.8-6-0.3 0.9-0.5 2-0.6 2.7-0.2 1.4-0.2 2.9 0.3 4.1 0.5 1.2 1.3 1.8 2 2.4q0.8 0.8 1.7 1.5c0.3 0.3 0.6 0.8 1 0.7 0.4-0.2 0.6-1.1 0.8-1.8 0.2-0.7 0.5-2.1 0.4-2.9q0.1 0.8 0.2 1.6 0 0.3 0 0.6c0.2 4.6-0.3 9.2-1.5 13.2z"/><path class="f" d="m230 454.7c0.1 2.8-0.5 5.5-1 8.1q-0.6 3.1-1.3 6.2 0 0.3-0.1 0.6c0.2-0.8-0.5-2.7-0.8-3.4q-0.5-2-1.3-3.7c-1-2.3-2.3-4.3-3-6.8-0.9-3-0.4-5.6 1.4-7.6q0.1-0.1 0.2-0.2 0.3-0.3 0.6-0.5c3.4-1.5 5.2 3.4 5.3 7.3z"/><path class="g" d="m230 454.7c0.1 2.8-0.5 5.5-1 8.1q-0.6 3.1-1.3 6.2 0 0.3-0.1 0.6c0.2-0.8-0.5-2.7-0.8-3.4q-0.5-2-1.3-3.7c-1-2.3-2.3-4.3-3-6.8-0.9-3-0.4-5.6 1.4-7.6-0.1 1.4-0.6 2.2-0.5 3.8 0.2 1.6 0.7 3.1 1.5 4.3 0.4 0.6 0.9 1.1 1.4 1.7q0.7 1 1.2 2.2 0 0.2 0.1 0.3c0.1 0 0.2-0.1 0.3-0.2 1.2-1.3 1.7-3.4 2.1-5.5z"/><path class="f" d="m90.4 302c-0.9-3.6-1.3-9.3 0-12.9 0.2-0.3-1.7-0.9-1.9-1-0.8-0.2-1.7-0.1-2.5 0.1-0.8 0.3-2.5 0.9-3.2 1.4-0.7 0.6-1.4 1.2-1 2.1q0.5 1.8 1.5 3.4c1.4 2.2 4.9 5.6 7.1 6.9z"/><path class="g" d="m88.5 288.1c-0.8-0.2-1.7-0.1-2.5 0.1-0.7 0.2-2.5 0.8-3.1 1.4-0.8 0.6-1.4 1.1-1.1 2.1q0.6 1.8 1.5 3.4 0.1 0.2 0.2 0.3c0-0.1 1.4-0.5 1.5-0.5 0.6-0.1 1.2-0.2 1.8 0.1 1.3 0.7 1.1 3.1 1.7 4.4 0.2 0.5 0.5 1.6 0.9 1.9q0.6 0.4 1 0.7c-0.9-3.6-1.3-9.3 0-12.8 0.2-0.4-1.7-1-1.9-1.1z"/><path class="f" d="m74 290.6c-1.7 3.4-0.6 11 0 14.7-0.5-0.4-1.1-1-1.8-1.8-1.7-1.9-3.7-4.8-4.9-6.7-0.3-0.5-0.5-1-0.7-1.3q-0.8-1.7-1.2-3.6 0-0.1 0-0.3c0.1-0.6 0.5-1.1 1.3-1.7 0.7-0.4 1.5-0.7 2.3-0.8 0.8-0.1 1.6-0.1 2.4 0.1 0.2 0.1 2.8 1.1 2.6 1.4z"/><path class="g" d="m74 290.6c-1.7 3.4-0.6 11 0 14.7-0.5-0.4-1.1-1-1.8-1.8-0.4-0.5-0.1-1.6-0.2-2.2 0-0.8-0.1-2.5-0.6-3.1-0.3-0.6-1.5-0.7-2.1-0.9-0.6-0.1-1.3-0.3-2-0.5-0.3-0.5-0.5-1-0.7-1.3q-0.8-1.7-1.2-3.6 0-0.1 0-0.3c0.2-0.6 0.5-1.2 1.3-1.7 0.7-0.4 1.5-0.7 2.3-0.8 0.8-0.2 1.7-0.1 2.4 0.1 0.3 0.1 2.8 1.1 2.6 1.4z"/><path class="f" d="m57.8 284.1c-1.4 3.5-0.8 8.6 0.1 12.1q-0.6-0.3-1.2-0.7c-1.7-1.3-3.6-3.4-4.8-5.1q-0.4-0.5-0.6-1-1-1.6-1.6-3.4c-0.3-1 0.4-1.6 1.1-2.2 0.6-0.5 1.4-0.8 2.2-1 0.8-0.2 2 0.1 2.8 0.2 0.3 0.1 2.1 0.7 1.9 1.1z"/><path class="g" d="m57.8 284.1c-1.4 3.5-0.8 8.6 0.1 12.1q-0.6-0.3-1.2-0.7c-0.6-0.5-0.9-1.4-1-2.2-0.1-0.9-0.3-1.2-1.2-1.6q-1.3-0.7-2.6-1.3-0.4-0.5-0.6-1-1-1.6-1.6-3.4c-0.3-1 0.4-1.6 1.1-2.2 0.6-0.5 1.4-0.8 2.2-1.1 0.8-0.2 2 0.1 2.8 0.3 0.3 0.1 2.1 0.7 1.9 1.1z"/><path class="c" d="m166.8 146.6q-0.2 0.9-0.5 1.7-0.2 0.8-0.4 1.6c-1.4 4.3-3 8.6-4.6 12.5q-0.8 1.9-1.6 3.8 0 0.1-0.1 0.2-0.7 1.7-1.4 3.1 0 0 0 0.1-0.2 0.4-0.4 0.8c-1.3 2.8-2.5 5-3.3 6.4q-0.4 0.6-0.8 1.3-0.5 0.7-1 1.4-0.2 0.3-0.4 0.6-2.4 3.6-5.2 6.9-0.5 0.7-1.1 1.4-2.2 2.5-4.4 4.9-0.2 0.2-0.3 0.4l-1.5 1.6q-2.6 2.7-5.2 5.3-2.1 2.2-4.3 4.4c-2.8 2.7-5.7 5.3-8.5 8q-1.2 1.2-2.4 2.4-1.1 1.1-2.1 2.1-2.3 2.3-4.3 4.6c-2.3 2.6-4.4 5.2-6.2 8.1q-0.3 0.4-0.5 0.8-0.6 0.9-1.1 1.8-0.5 0.9-0.9 1.7-0.5 0.9-0.9 1.8-0.3 0.8-0.7 1.6-0.2 0.6-0.5 1.2-0.4 1.2-0.8 2.5-0.2 0.5-0.3 1-0.2 0.6-0.3 1.2-0.1 0.3-0.2 0.5-0.1 0.7-0.3 1.4 0 0.3-0.1 0.6-0.1 0.7-0.2 1.4-0.2 0.7-0.2 1.4-0.1 0.8-0.2 1.6v0.1q-0.1 0.8-0.1 1.7c0.8-0.1 1.7 0.5 1.8 1.3q0-0.1-0.1-0.1-0.2-0.2-0.5-0.2-0.1 0-0.3 0-0.2 0.1-0.3 0.2-0.2 0.1-0.3 0.2-0.1 0.1-0.1 0.2-0.1 0.1-0.1 0.2 0 0 0 0.1-0.1 0.1-0.1 0.2c-0.1 0.8 0.6 1.6 1.1 2.2 0.6 0.7 1.3 1.4 1.2 2.3q-0.9 0-1.9 0.1 0.3 0.5 0.6 1.1 0.5 1 1.1 2c-0.7 0.3-1.4 0.4-2.1 0.3 0.2 0.8 0.2 1.6 0.1 2.3v0.1q0 0.5 0 1-0.1 0.7-0.2 1.5 0 0.4-0.1 0.8 0 0.4 0 0.8 0 0.2 0 0.4 0 0.9 0.1 1.9c0.6 3.4 1.2 6.8 0.7 10.1q-0.2 1-0.5 1.9-0.1 0.4-0.3 0.8-0.1 0.4-0.2 0.8-0.2 0.4-0.4 0.7-0.2 0.4-0.4 0.8-0.3 0.4-0.5 0.7-0.3 0.4-0.5 0.8-0.3 0.3-0.5 0.6c-0.7 0.8-1.5 1.7-2.4 2.3q-0.3 0.3-0.7 0.5-1.4 1-3 1.6-0.5 0.2-1.1 0.4-0.5 0.2-1 0.3-0.5 0.1-0.9 0.1-0.4 0.1-0.8 0.1-0.3 0.1-0.6 0.1-1.9 0.1-3.7-0.3c-2.4-0.4-4.7-1.4-6.6-2.9 0.8 0.7-0.9 1.7-2.7 2.6-1.7 0.7-3.4 1.3-3.7 1.3q-1.7 0.3-3.4 0-0.4-0.1-0.9-0.2-0.4-0.1-0.8-0.2-0.4-0.1-0.8-0.3-0.6-0.2-1.1-0.5-0.1-0.1-0.2-0.1-0.4-0.2-0.8-0.5-0.5-0.4-1-0.8c-0.4-0.4-0.8-0.8-1.4-1.1-0.6-0.5-1.5-0.7-2.3-1q0 0 0 0-1.6-0.5-3.2-1.2c-0.5-0.2-1.1-0.5-1.6-0.8q-0.2 0-0.3-0.1-1-0.6-1.8-1.2h-0.1q-0.7-0.5-1.3-1.1-1.9-1.6-3.4-3.9c-0.1-0.1-0.1-0.1-0.1-0.2-0.2-0.8-0.7-1.7-1.1-2.5-0.4-0.7-0.7-1.3-1-1.9q-1-2.5-1.7-5 0-0.1-0.1-0.1c-0.4-1.6-0.8-3.2-1.1-4.7-0.2-1.4-0.4-2.7-0.6-4.2q0-0.2 0-0.4c0-0.2 0-0.3-0.2-0.4-0.3-0.3-1 0.3-1.1-0.1q0.4-1.7 1.1-3.4-0.6 0.1-1.1-0.1-0.1 0-0.2-0.1 0.3-0.5 0.7-1 0.1-0.3 0.2-0.5c0.8-1.2 1.4-2.5 1.9-3.8q0.5-1.1 0.9-2.1 0-0.1 0-0.1c0.9-2.2 1.7-4.4 2.6-6.6q0.6-1.3 1.1-2.5c1.3-3.1 2.4-6.3 3.6-9.5 1.9-5.1 3.8-10.3 6.5-15.2q0.1-0.2 0.3-0.5c3.4-6.1 7.2-11.5 11.6-16.4 3.8-4.2 8.1-8.1 13-11.6q0.3-0.2 0.5-0.4c3.8-2.7 7.3-5.5 10.8-8.4q3.7-3.1 7.4-6.3c5.7-5 12.5-8.9 18.6-13.6q1.6-1.2 3.1-2.5 0.1-0.1 0.2-0.2c2.5-2.1 4.8-4.3 7.1-6.5 3.5-3.3 6.8-6.7 10.2-10.1 2.8-2.7 5.6-5.3 8.5-7.9q0.2-0.1 0.4-0.3 2.4-2 4.9-4 0.4-0.3 0.9-0.7c1-0.8 2.2-1.7 3.4-2.5q0.9-0.5 1.8-1 0.4-0.2 0.8-0.4 0.6-0.2 1.2-0.4c1.9-0.5 3.8-0.4 5.6 0.9q0.4 0.3 0.8 0.7c3.5 3.7 2.6 12.2 0.2 21.4z"/><path class="d" d="m144.6 142.1c-1.6-0.2-3.5 0.3-4.1 1.9-0.5 1-0.3 2.2 0.2 3.1 0.5 0.8 1.3 1.5 2.2 1.9 1 0.5 2.2 0.9 3.4 0.7 1.1-0.2 2.3-0.9 2.9-2.1 0.7-1.6 0.2-3.6-1-4.6-1.2-1.1-2.9-1.2-4.5-0.8 1.5-0.6-0.5-0.8 0.9-0.1z"/><path class="d" d="m112.4 173q-0.6 0.3-1.2 0.6c-2.1 0.7-4.7 0.5-3.9-2.4 0.1-0.4 0.4-0.8 0.7-1.2 1.1-1.5 3.6-4.7 5.7-4.7 4.1 0 0.3 6.7-1.3 7.7z"/><path class="d" d="m130.1 163.4c-1 0.8-1.9 2-2.6 3.2-0.7 1.3-1.4 3.2-0.4 4.3 0.8 1 2.5 0.4 3.6-0.4 1.3-1 2.3-2.4 3-3.9 1.8-3.8-0.5-5.8-3.6-3.2z"/><path class="a" d="m107.9 175.6c0.6 0.2 1.3 0.2 2 0.3 1.9 0.1 4.3-0.1 5.7-2.1 1.3-1.7 2.1-7.2 1.2-8.5-1.4-2-4.4-0.1-4.2 2.9 0 0.3 0 0.7-0.2 1-0.3 0.5-0.6 0.4-1 0.4-0.9 0.2-1.8 0.4-2.7 0.9-1 0.6-1.9 1.7-2.1 2.8-0.2 1 0.3 1.8 1 2.1q0.1 0.1 0.3 0.2z"/><path class="a" d="m129.6 176.1c-0.7 0.2-1.3 0.2-1.9 0.1-2.3-0.7-2.3-3.6-2.2-5.6 0-0.5 0.1-1 0.4-1.5 0.3-0.4 0.8-0.8 1.3-0.7 0.7 0.1 1.2 0.9 2 1 0.6 0.1 1.1-0.4 1.4-0.9 1.3-1.8 0.7-5.3 2.6-6.7 3.3-2.4 4.9 4.5 4.7 6.6-0.2 2.4-2.2 4.2-4.2 5.5-0.9 0.6-1.8 1.2-2.7 1.7-0.5 0.2-0.9 0.4-1.4 0.5z"/><path class="a" d="m86.5 243.6c-1.1 1.3-2.1 2.7-1.9 4 0.1 1.1 1.1 1.5 2.1 1.5 2.4 0 5.2-2.1 6.7-4.9 1.3-2.4 2.5-8.7-0.2-9.1-2.8-0.4-4.2 5.5-5.9 7.6q-0.4 0.4-0.8 0.9z"/><path class="a" d="m63.7 243.8c-0.2 0.9-0.2 1.8 0.2 2.6 3 6.8 10.4-5.2 10.3-10.3 0-0.7-0.1-1.5-0.7-1.8-0.7-0.4-1.8 0.3-2.7 1.2-2.9 3-6 3.3-7.1 8.3z"/><path class="a" d="m93.7 216.3c1.8 3.2 7.7-1.2 8.3-5.2 0-0.3 0-0.7-0.2-0.7-0.1-0.1-0.3 0-0.5 0.1-0.9 0.5-1.8 1.2-2.7 1.3-0.9 0.1-1.7-0.8-1.3-1.8 0.3-0.8 1-1.3 1.6-1.8 0.6-0.5 1.2-1.4 1-2-3.2 0.2-7.9 4.9-6.7 9q0.2 0.6 0.5 1.1z"/><path class="a" d="m78.6 208.2c0.5-0.3 0.9-0.6 1.4-0.6 3.1-0.1 1 7.8-0.6 9.9-2 2.6-6.1 3.1-6.7 0.2-0.6-2.9 2.8-5.9 4.5-8 0.4-0.5 0.9-1.1 1.4-1.5z"/><path class="a" d="m152.3 180.1q-2.4 3.6-5.2 6.9-0.5 0.7-1.1 1.4-2.2 2.5-4.4 4.9c-1.6-1.1-3.2-3.2-3.7-4.4-1.3-2.7-0.6-5.7 1.1-8 1.7-2.2 4.4-4.5 7.3-4.6 1.7-0.1 3.2 0.8 4.4 1.9 0.6 0.6 1.1 1.3 1.6 1.9z"/><path class="a" d="m113 222.1c-3.8 4.4-7.2 9-9.6 14.2-1-0.1-1.8-0.8-1.9-2.2q-0.1-0.7 0.1-1.4c0.4-2.2 1.8-4.8 3.5-7q0.9-1.1 1.9-2c1.5-1.4 3.3-2.5 4.9-2.1 0.4 0.1 0.8 0.3 1.1 0.5z"/><path class="a" d="m68.2 205.6c-1.5 2.5-5.3 2.9-6.8 5.4-0.7 1.1-0.8 2.7 0.1 3l0.1 0.1c0.5 0.1 1.2-0.1 1.7 0.1 0.9 0.4 0.6 2.1-0.3 3.1-2 2.1-5.1 1.3-7.1-0.5 3.4-6.1 7.1-11.5 11.6-16.4 1.5 0.8 2 2.8 0.7 5.2z"/><path class="a" d="m56.1 240.6c-0.7 2.7-2.1 5.3-3.7 7.6l-0.7 1c-0.3 0.4-0.7 0.9-1.1 1.2-0.9 0.7-2.1 0.7-2.6-0.1-0.5-0.8-0.4-2.2 0.4-3.2 1.1-1.5 3.2-2 4-3.7 0.7-1.5-0.4-2.6-1.5-3-1.9-0.6-2.1 1-3.7 1.7-0.6 0.2-1.2 0.2-1.7-0.1 1.3-3.1 2.4-6.2 3.5-9.4 1.9-0.9 3.8-1.2 5.1-0.5q0.5 0.3 0.9 0.7c1.5 1.7 1.8 4.8 1.1 7.8z"/><path class="a" d="m100 259.2q0.2 0.5 0.5 1.1c-2.3 1.3-5.1 2.3-7.4 1.2-1.5-0.7-1-3.2-0.6-4.4 0.8-2.4 2.7-4.2 4.9-5.4 0.5-0.3 1.4-0.7 2.2-0.9q-0.1 0.8-0.1 1.7c0.8-0.1 1.7 0.5 1.8 1.3q0-0.1-0.1-0.1-0.2-0.2-0.5-0.2-0.2 0-0.3 0.1-0.2 0-0.4 0.1-0.1 0.1-0.2 0.2-0.1 0.1-0.1 0.2-0.1 0.1-0.1 0.2 0 0 0 0.1-0.1 0.1-0.1 0.2c-0.1 0.8 0.5 1.6 1.1 2.2 0.6 0.7 1.3 1.4 1.2 2.3q-0.9 0-1.8 0.1z"/><path class="a" d="m84.3 265.1c-0.4-3.2-1.2-6.2-4.2-3.6-1.3 1-4.5 5-2.3 6.3 0.4 0.2 0.9 0.2 1.3 0.6 0.7 0.5 0.8 2 0.2 3-0.2 0.3-0.4 0.7-0.5 1-0.2 1 0.6 1.5 1.3 1.4 2.4-0.3 4.8-4 4.4-7q0-0.9-0.2-1.8z"/><path class="a" d="m64 272.9c-2.2 1.5-8.5-1-8.2-4.4 0.3-3.5 5.3-5 7.6-3.4 2.4 1.7 3.3 6.1 0.6 7.8z"/><path class="a" d="m45 270.9c-1 1-2.4 1.4-3.7 1.2q0-0.1 0-0.1c-0.5-1.6-0.8-3.2-1.1-4.7-0.3-1.4-0.5-2.7-0.6-4.2q0-0.2-0.1-0.4c0-0.2 0-0.3-0.1-0.4-0.4-0.3-1 0.3-1.1-0.1q0.4-1.7 1.1-3.4-0.6 0.1-1.2-0.1-0.1 0-0.2-0.1 0.4-0.5 0.7-1 0.1-0.3 0.3-0.5c1.1 0.3 1.7 1.6 2 2.7 0.7 1.8 1.2 3 2.5 4.5 1.5 1.5 3.3 4.7 1.5 6.5z"/><path class="a" d="m59.6 279.6c-0.8-0.1-1.7-0.5-2.5-0.3-1.1 0.2-1.8 1.6-1.9 2.8-0.1 1.3 0.3 2.5 0.8 3.7 0.3 0.7 0.7 1.5 1.4 1.8 0.9 0.3 1.9-0.4 2.6-1.2q1.5-1.4 2.9-2.8c0.4-0.4 0.9-0.9 1.1-1.5 1.4-3.7-3.1-2.3-4.4-2.5z"/><path class="a" d="m67.2 292.6c-0.7 0.9-1.7 1.4-2.7 1.7q-0.4-0.1-0.8-0.3-0.6-0.2-1.1-0.5c-1.1-2.3-0.3-5.6 2.3-6.5q0 0 0.1-0.1c3.4-1.1 3.9 3.7 2.2 5.7z"/><path class="a" d="m147.5 152.1c-2.9 1.4-6.7 1.3-8.8-1.9-1.4-2.1-2.4-6.7 0.5-8.3 0.6-0.3 1.3-0.5 2.3-0.4 0.9 0 3.3 0.4 2 1.9-0.4 0.5-1.2 0.5-1.7 0.9-0.5 0.5-0.5 1.5-0.2 2.1 0.5 1.3 1.8 2.1 3.2 2 1.3-0.1 2.6-1.1 3.1-2.5 0.2-0.4 0.3-0.9 0.5-1.3 0.2-0.5 0.7-0.8 1.1-0.7 0.2 0 0.3 0.2 0.5 0.3 3.1 2.7 0.9 6.3-2.5 7.9z"/><path class="a" d="m126.4 156.5c-1.5 1.2-3.6 1.8-5.3 0.9 2.4-2.1 4.7-4.2 7.1-6.5 0.6 2.1 0.1 4.1-1.8 5.6z"/><path class="a" d="m100.1 281.5q-0.2 1-0.5 1.9c-1.3-0.4-2.5-0.9-3.1-1.6-0.9-1.1-1-2.8-0.3-4 0.4-0.6 0.9-1 1.2-1.6 0.4-0.9 0.3-1.9 0.1-2.9-0.2-1.6 0.4-3.9 1.8-4.2q0 0.2 0 0.4 0 0.9 0.2 1.9c0.5 3.4 1.1 6.8 0.6 10.1z"/><path class="a" d="m152.1 132.5c-1 0.3-2.1 0.1-2.7 0.8-0.3 0.4-0.4 0.9-0.6 1.3-0.2 0.4-0.7 0.7-1.1 0.6-0.3-0.2-0.4-0.5-0.4-0.9q-0.2-0.8-0.1-1.6 2.4-2.1 4.9-4 0.5-0.4 1-0.8c0.5 0.4 0.9 1.1 0.9 1.8 0.2 1.3-0.7 2.5-1.9 2.8z"/><path class="a" d="m97.4 184.6c-4 0.8-10.5 5.6-10.7 10 0 1.6 0.8 3.2 2.3 3.7 1.5 0.6 3.4-0.4 3.6-1.9 0.1-0.4 0-0.9 0.1-1.2 0.2-0.8 1-1.2 1.8-1.5 3-1.2 6.5-1.7 8.7-4.1 0.4-0.4 0.8-0.8 0.8-1.4 0.1-0.4 0-0.9-0.2-1.3-1.1-2.2-4-2.7-6.4-2.3z"/><path class="a" d="m108.7 199.3c0.8 0.2 1.8 0.2 2.5 0.1 2.4-0.5 4.9-4.3 2.6-6.3-0.6-0.5-1.6-0.6-2.4-0.4-1.7 0.4-3.9 2.3-4.5 3.9-0.6 1.6 0.4 2.4 1.8 2.7z"/><path class="a" d="m130.3 205c-2.8 2.7-5.7 5.3-8.5 8q-0.5-0.5-0.9-1.4-0.1-0.2-0.1-0.4c-1.2-3.5-0.1-8.2 3.3-10.2 0.2-0.1 0.4-0.3 0.7-0.2 0.3 0.1 0.4 0.5 0.4 0.8 0 0.3-0.1 0.6-0.2 0.9-0.2 2.3 3.3 2.2 5.2 2.5z"/><path class="a" d="m91.7 180c0 1.8-1.6 3.7-3.1 5.1-0.6 0.6-1.2 1.1-1.7 1.4-0.8 0.8-1.7 1.4-2.8 1.8-1 0.5-2.1 0.5-3.1 0.2 3.7-2.7 7.3-5.6 10.7-8.5z"/><path class="a" d="m159.9 145.4q-0.7 2.3-0.7 4.8c0 0.3 0 0.6 0.1 0.9 0.4 0.7 1.4 0.7 2.1 0.3 0.6-0.5 1-1.2 1.5-1.8 0.5-0.8 1.2-1.4 1.7-2.2 2.8-3.9-3.2-6.9-4.7-2z"/><path class="a" d="m84.1 286.5c-0.5 0.7-0.7 1.9-0.5 2.6 0.3 0.9 1.3 1.6 2.1 1.3 0.8-0.2 1.1-1.1 1.2-1.8 0.1-0.9-0.2-2-0.9-2.5-0.9-0.6-1.5-0.2-1.9 0.4z"/><path class="a" d="m133.7 188.4c0.4-0.3 0.9-0.3 1.4 0.4 0.2 0.5 0.2 1 0.2 1.5 0 1.2-0.1 2.4-0.7 3.3-0.7 0.9-2.2 1.3-2.9 0.5-0.6-0.6-0.5-1.7-0.2-2.5 0.2-0.6 1.1-2.6 2.2-3.2z"/><path class="e" d="m166.8 146.6q-0.2 0.9-0.5 1.7-0.2 0.8-0.4 1.6c-1.4 4.3-3 8.6-4.6 12.5q-0.8 1.9-1.6 3.8 0 0.1-0.1 0.2-0.7 1.7-1.4 3.1 0 0 0 0.1-0.2 0.4-0.4 0.8c-1.3 2.8-2.5 5-3.3 6.4q-0.4 0.6-0.8 1.3-0.5 0.7-1 1.4-0.2 0.3-0.4 0.6-2.4 3.6-5.2 6.9-0.5 0.7-1.1 1.4-2.2 2.5-4.4 4.9-0.2 0.2-0.3 0.4l-1.5 1.6q-2.6 2.7-5.2 5.3-2.1 2.2-4.3 4.4-0.7 0.7-1.4 1.3-1.2 1.2-2.5 2.3-2.3 2.2-4.6 4.4-1.2 1.2-2.5 2.4-1 1.1-2 2.1-2.3 2.3-4.3 4.6-1 1.1-1.8 2.1-0.5 0.6-1 1.2-0.7 0.9-1.3 1.7-0.5 0.8-1 1.5-0.6 0.8-1.1 1.6-0.3 0.5-0.6 1-0.2 0.2-0.3 0.4-0.4 0.6-0.7 1.2-1 1.7-1.8 3.5-0.3 0.8-0.7 1.6-0.2 0.6-0.5 1.2-0.4 1.2-0.8 2.5-0.2 0.5-0.3 1-0.2 0.6-0.3 1.2-0.1 0.3-0.2 0.5-0.1 0.7-0.3 1.4 0 0.3-0.1 0.6-0.1 0.7-0.2 1.5-0.2 0.6-0.2 1.3-0.1 0.8-0.2 1.6v0.1q-0.1 0.8-0.1 1.7c0.8-0.1 1.6 0.5 1.8 1.3q0-0.1-0.1-0.1-0.2-0.2-0.5-0.2-0.2 0-0.3 0.1-0.2 0-0.4 0.1-0.1 0.1-0.2 0.2-0.1 0.1-0.1 0.2-0.1 0.1-0.1 0.2-0.1 0-0.1 0.1 0 0.1 0 0.2c-0.1 0.8 0.5 1.6 1.1 2.2 0.6 0.7 1.3 1.4 1.2 2.3q-0.9 0-1.9 0.1 0.3 0.5 0.6 1.1 0.5 1 1 2c-0.6 0.3-1.3 0.4-2 0.3 0.1 0.8 0.2 1.6 0.1 2.3v0.2q0 0.4 0 0.9-0.1 0.7-0.2 1.5-0.1 0.4-0.1 0.8 0 0.4 0 0.8 0 0.2 0 0.4 0 1 0.1 2c0.6 3.3 1.2 6.7 0.7 10q-0.2 1-0.5 1.9-0.1 0.4-0.3 0.8-0.1 0.4-0.3 0.8-0.1 0.4-0.3 0.8-0.2 0.4-0.4 0.7-0.3 0.4-0.5 0.7-0.3 0.4-0.5 0.8-0.3 0.3-0.5 0.6c-0.7 0.9-1.5 1.7-2.4 2.3q-0.4 0.3-0.7 0.5-1.4 1-3 1.6-0.5 0.2-1.1 0.4-0.5 0.2-1 0.3-0.5 0.1-0.9 0.1-0.4 0.1-0.8 0.1-0.3 0.1-0.6 0.1-1.9 0.1-3.7-0.3c-2.4-0.4-4.7-1.4-6.6-2.9 0.8 0.7-0.9 1.7-2.7 2.6-1.7 0.7-3.4 1.3-3.7 1.4q-1.7 0.2-3.4-0.1-0.5-0.1-1-0.2-0.3-0.1-0.7-0.2-0.5-0.1-0.9-0.3-0.5-0.2-1-0.5-0.1-0.1-0.2-0.1-0.4-0.2-0.8-0.5-0.5-0.4-1-0.8c-0.4-0.3-0.8-0.8-1.4-1.1-0.7-0.5-1.5-0.7-2.3-1q0 0 0 0-1.6-0.5-3.2-1.2c-0.5-0.2-1.1-0.5-1.6-0.7q-0.2-0.1-0.4-0.2-0.9-0.6-1.8-1.2-0.7-0.5-1.3-1.1-2-1.6-3.5-3.9c0-0.1 0-0.1-0.1-0.2-0.1-0.8-0.6-1.6-1-2.5 2.2 2.1 4.6 4 7.2 4.6 0.9 0.2 1.8 0.2 2.7 0.1q0.7-0.1 1.4-0.2c0.4-0.1 0.9-0.1 1.4-0.1q0.1 0 0.2 0 0 0 0 0.1c0.7 0.1 1.2 0.4 1.9 0.7q1.1 0.7 2.4 1 0.9 0.3 1.9 0.4c3.1 0.4 6.2-0.6 9-1.9 0.7-0.3 1.5-0.7 2.2-0.8 1.9-0.3 3.7 0.8 5.5 0.9 5.3 0.5 9-5.6 10.4-9.9 1-3 1.5-6.2 1.7-9.4 0.2-3.5 0.2-7.1 0.1-10.7 0-2.6 0-5.3 0.2-7.8q0.1-2.4 0.4-4.7 0.5-3 1.1-6c1.3-6.7 3.1-13.3 5.5-19.6q1-2.6 2.1-5.1 0.6-1.6 1.4-3.2 0.7 1.2 1.5 2.5c0.9-3.5 3.3-7 5.9-10.4 1.4-1.8 3-3.6 4.4-5.3 1.6-1.9 3-3.6 4.2-5.3 3-4.1 6.3-8.3 8.8-12.8 0.9-1.7 1.8-3.4 2.4-5.2q0.4-0.9 0.8-1.9-0.3 0-0.6 0.1-0.6 0.1-1.2 0.2 1.2-3.3 2.2-6.6c2.1-7.4 3.8-14.9 7.3-21.8 2.7-2.7 5.5-5.4 8.4-7.9q0.2-0.2 0.4-0.3 0.2-0.2 0.4-0.4 0.8-0.7 1.7-1.4 1.4-1.2 2.8-2.3 0.5-0.3 0.9-0.7c1.1-0.8 2.2-1.7 3.5-2.5q0.8-0.5 1.8-1 0.4-0.2 0.8-0.3 0.5-0.3 1.1-0.4c1.9-0.6 3.8-0.5 5.6 0.8q0.4 0.3 0.8 0.7c3.5 3.7 2.7 12.2 0.2 21.4z"/><path class="f" d="m289.6 302c1-3.6 1.3-9.3 0-12.9-0.1-0.3 1.7-0.9 2-1 0.8-0.2 1.6-0.1 2.4 0.1 0.8 0.3 2.6 0.9 3.2 1.4 0.7 0.6 1.4 1.2 1.1 2.1q-0.6 1.8-1.6 3.4c-1.3 2.2-4.8 5.6-7.1 6.9z"/><path class="g" d="m291.6 288.1c0.8-0.2 1.6-0.1 2.4 0.1 0.8 0.2 2.6 0.8 3.2 1.4 0.7 0.6 1.4 1.1 1.1 2.1q-0.6 1.8-1.6 3.4-0.1 0.2-0.2 0.3c0.1-0.1-1.3-0.5-1.4-0.5-0.6-0.1-1.3-0.2-1.8 0.1-1.4 0.7-1.2 3.1-1.7 4.4-0.3 0.5-0.5 1.6-1 1.9q-0.5 0.4-1 0.7c1-3.6 1.4-9.3 0-12.8-0.1-0.4 1.7-1 2-1.1z"/><path class="f" d="m306.1 290.6c1.7 3.4 0.5 11-0.1 14.7 0.6-0.4 1.2-1 1.8-1.8h0.1c1.7-1.9 3.7-4.8 4.8-6.7 0.3-0.5 0.6-1 0.7-1.3q0.9-1.7 1.2-3.6 0.1-0.1 0.1-0.3c-0.2-0.6-0.6-1.1-1.4-1.7-0.6-0.4-1.4-0.7-2.2-0.8-0.8-0.1-1.7-0.1-2.5 0.1-0.2 0.1-2.7 1.1-2.5 1.4z"/><path class="g" d="m306.1 290.6c1.7 3.4 0.5 11-0.1 14.7 0.6-0.4 1.2-1 1.8-1.8h0.1c0.3-0.5 0.1-1.6 0.1-2.2 0-0.8 0.1-2.5 0.6-3.1 0.4-0.6 1.6-0.7 2.2-0.9 0.6-0.1 1.3-0.3 1.9-0.5 0.3-0.5 0.6-1 0.7-1.3q0.8-1.7 1.2-3.6 0.1-0.1 0.1-0.3c-0.2-0.6-0.6-1.2-1.4-1.7-0.7-0.4-1.4-0.7-2.2-0.8-0.8-0.2-1.7-0.1-2.5 0.1-0.2 0.1-2.7 1.1-2.5 1.4z"/><path class="f" d="m322.3 284.1c1.4 3.5 0.8 8.6-0.1 12.1q0.5-0.3 1.1-0.7c1.7-1.3 3.6-3.4 4.9-5.1q0.3-0.5 0.6-1 1-1.6 1.5-3.4c0.3-1-0.3-1.6-1.1-2.2-0.6-0.5-1.4-0.8-2.1-1-0.8-0.2-2.1 0.1-2.9 0.2-0.2 0.1-2 0.7-1.9 1.1z"/><path class="g" d="m322.3 284.1c1.4 3.5 0.8 8.6-0.1 12.1q0.5-0.3 1.1-0.7c0.7-0.5 0.9-1.4 1-2.2 0.2-0.9 0.4-1.2 1.2-1.6q1.3-0.7 2.7-1.3 0.3-0.5 0.6-1 1-1.6 1.5-3.4c0.3-1-0.3-1.6-1.1-2.2-0.6-0.5-1.4-0.8-2.1-1.1-0.8-0.2-2.1 0.1-2.9 0.3-0.2 0.1-2 0.7-1.9 1.1z"/><path class="j" d="m340.7 258.9q0.7 1.6 1.1 3.3c-0.1 0.4-0.8-0.1-1.1 0.1-0.1 0.1-0.2 0.3-0.2 0.4q0 0.2 0 0.5c-0.2 1.4-0.4 2.8-0.6 4.1-0.3 1.5-0.6 3.1-1.1 4.7q-0.8 2.6-1.8 5.1c-0.2 0.6-0.6 1.3-0.9 1.9-0.5 0.9-1 1.7-1.1 2.5-0.1 0.1-0.1 0.1-0.1 0.2q-1.5 2.3-3.5 3.9c-1 0.9-2 1.7-3.1 2.3q-0.2 0.1-0.4 0.2-0.8 0.4-1.6 0.7-1.6 0.7-3.2 1.2c-0.8 0.3-1.6 0.5-2.3 1-0.5 0.3-0.9 0.8-1.4 1.1-2.6 2.2-5.6 3.1-9 2.7-0.5-0.1-7.9-2.8-6.4-4-4.1 3.2-9.9 4.1-14.7 2.2-4.8-1.8-8.5-6.4-9.3-11.5-0.6-3.3 0-6.7 0.6-10 0.4-2.4-0.1-4.4-0.2-6.6 0-0.7 0-1.5 0.1-2.3-0.7 0.1-1.4 0-2-0.3q0.8-1.6 1.6-3.1-0.9-0.1-1.8-0.1c-0.1-0.9 0.5-1.6 1.1-2.3 0.6-0.6 1.2-1.4 1.1-2.2 0-0.4-0.2-0.7-0.5-0.9-0.4-0.3-1-0.3-1.3 0.1 0.2-0.8 1-1.4 1.9-1.3-0.1-0.9-0.2-1.8-0.2-2.7-2.4-22.2-20.6-34.3-35-49.2-7.2-7.4-14.5-15-19.8-23.8-2.4-3.9-7.9-15.5-11.4-26.9q-0.2-0.8-0.5-1.6-0.2-0.8-0.5-1.7c-2.4-9.2-3.3-17.7 0.3-21.4q0.3-0.4 0.7-0.7c1.8-1.3 3.7-1.4 5.6-0.8h0.1c3 0.8 5.9 3.3 8 4.9 4.9 3.8 9.4 8 13.8 12.3 5.7 5.6 11.3 11.4 17.5 16.7 6.8 5.9 15 10.3 21.7 16.1 6.2 5.3 12.1 10.4 18.7 15.1 10.7 7.8 18.5 17 24.9 28.6 3.7 6.6 6 13.9 8.6 20.9q1.2 3.2 2.6 6.2c1.3 2.9 2.2 5.9 3.5 8.8 0.8 1.9 1.6 3.7 2.9 5.4-0.5 0.2-1 0.2-1.4 0.2z"/><path class="k" d="m340.7 258.9q0.7 1.6 1.1 3.3c-0.1 0.4-0.8-0.1-1.1 0.1-0.1 0.1-0.2 0.3-0.2 0.4q0 0.2 0 0.5c-0.2 1.4-0.4 2.8-0.6 4.1-0.3 1.5-0.6 3.1-1.1 4.7q-0.8 2.6-1.8 5.1c-0.2 0.6-0.6 1.3-0.9 1.9-0.5 0.9-1 1.7-1.1 2.5-0.1 0.1-0.1 0.1-0.1 0.2q-1.5 2.3-3.5 3.9c-1 0.9-2 1.7-3.1 2.3q-0.2 0.1-0.4 0.2-0.8 0.4-1.6 0.7-1.6 0.7-3.2 1.2c-0.8 0.3-1.6 0.5-2.3 1-0.5 0.3-0.9 0.8-1.4 1.1-2.6 2.2-5.6 3.1-9 2.7-0.5-0.1-7.9-2.8-6.4-4-4.1 3.2-9.9 4.1-14.7 2.2-4.8-1.8-8.5-6.4-9.3-11.5-0.6-3.3 0-6.7 0.6-10 0.4-2.4-0.1-4.4-0.2-6.6 0-0.7 0-1.5 0.1-2.3-0.7 0.1-1.4 0-2-0.3q0.8-1.6 1.6-3.1-0.9-0.1-1.8-0.1c-0.1-0.9 0.5-1.6 1.1-2.3 0.6-0.6 1.2-1.4 1.1-2.2 0-0.4-0.2-0.7-0.5-0.9-0.4-0.3-1-0.3-1.3 0.1 0.2-0.8 1-1.4 1.9-1.3-0.1-0.9-0.2-1.8-0.2-2.7q1.6 0.3 3.1 1.1c-0.1-0.9 0-1.9 0.4-2.8q2.2 0.9 4.5 1.9 0.4-1.6 0.8-3.3c2.7 2.1 5.8 2.9 8.9 2.6 3.2-0.2 6.4-2.1 7.4-5.2-0.1 1.4 0.1 2.8 0.4 4.2 1.7-1.3 3-3.1 3.7-5.1 2.3 1.3 4.6 2.6 7.2 3.1 2.6 0.5 5.5 0 7.2-1.9 1.5-1.5 2-3.8 1.3-5.8 0.6 0.7 1.2 1.4 1.5 1.9 0.4-0.7 0.6-1.4 0.6-2.5 1.3 1.2 3.2 1.4 4.4 1.1 0.5-0.1 0.9-0.4 1.3-0.7q1.2 3.1 2.6 6.1c1.3 2.9 2.2 5.9 3.5 8.8 0.7 1.9 1.6 3.7 2.8 5.4-0.4 0.2-0.9 0.2-1.3 0.2z"/><path class="l" d="m336.1 279c-0.5 0.8-1 1.7-1.1 2.5 0 0.1-0.1 0.1-0.1 0.2q-1.5 2.3-3.5 3.9c-1 0.8-2 1.7-3.1 2.3q-0.2 0.1-0.4 0.2-0.8 0.4-1.6 0.7-1.6 0.7-3.2 1.2c-0.8 0.3-1.6 0.5-2.3 1-0.5 0.3-0.9 0.8-1.4 1.1-2.6 2.2-5.6 3.1-9 2.7-0.5-0.1-7.9-2.8-6.4-4-4.1 3.2-9.9 4.1-14.7 2.2-4.8-1.8-8.5-6.4-9.3-11.5-0.6-3.3 0-6.7 0.6-10.1 0.6-3.1-0.5-5.7-0.1-8.8-0.7 0.1-1.4 0-2-0.3q0.8-1.6 1.6-3.1-0.9-0.1-1.8-0.1c-0.1-0.9 0.5-1.7 1.1-2.3 0.6-0.6 1.2-1.4 1.1-2.2 0-0.9-1.3-1.5-1.8-0.8 0.2-0.8 1-1.4 1.9-1.3-1.1-23.9-20.2-36.4-35.2-51.9-7.2-7.4-14.5-15-19.8-23.8-2.4-3.9-7.9-15.5-11.4-26.9q-0.2-0.8-0.5-1.6-0.2-0.8-0.5-1.7c-1.7-6.1-4.6-16.7 0.2-21.4q0.4-0.4 0.8-0.7c1.8-1.3 3.7-1.4 5.6-0.8 3 0.8 6 3.3 8.1 4.9 4.9 3.8 9.4 8 13.8 12.3 4.5 8.9 5.9 19 9.4 28.4q-0.9-0.2-1.7-0.4c2.3 7.5 7.4 13.8 11.9 20 4.3 6 12.5 13.7 14.5 21q0.8-1.3 1.6-2.5c4.9 10.7 8.3 22.2 10 33.9 1.5 10.6-0.9 22.6 2.4 32.6 1.4 4.3 5.1 10.4 10.4 9.9 1.8-0.1 3.6-1.3 5.5-0.9 0.7 0.1 1.5 0.5 2.2 0.8 2.8 1.3 5.9 2.3 9 1.9 1.5-0.2 3-0.7 4.3-1.4 0.8-0.4 1.3-0.7 2.1-0.8 0.9-0.1 1.9 0.1 2.8 0.3 3.6 0.5 7-1.9 9.9-4.7z"/><path class="m" d="m340.5 263.1c-0.2 1.5-0.4 2.8-0.6 4.2-0.3 1.5-0.6 3.1-1.1 4.7q-0.8 2.6-1.8 5.1c-0.2 0.6-0.6 1.2-0.9 1.9-0.5 0.8-1 1.7-1.1 2.5-0.1 0.1-0.1 0.1-0.1 0.2q-1.5 2.3-3.5 3.9c-1 0.8-2 1.7-3.1 2.3q-0.2 0.1-0.4 0.1-0.8 0.5-1.6 0.8-1.6 0.7-3.2 1.2c-0.8 0.3-1.6 0.5-2.3 1-0.5 0.3-0.9 0.7-1.4 1.1-2.6 2.2-5.6 3.1-9 2.6-0.5 0-7.9-2.7-6.4-3.9-4.1 3.2-9.9 4.1-14.7 2.2-4.8-1.8-8.5-6.4-9.3-11.5-0.6-3.3 0-6.7 0.6-10.1 0.4-2.3-0.1-4.3-0.2-6.5 4.4-1.2 10.5-0.4 13.5 0.9 2.1 0.8 3.9 2 5.7 3.2 3 2 6.3 4.5 6.6 7.9-0.2-2.6 7.6-6.3 9.6-7.2 4.4-1.9 9.5-1.3 14 0.4 3-3 6.7-5.4 10.7-7z"/><path class="m" d="m340.5 263.1c-0.2 1.5-0.4 2.8-0.6 4.2-0.3 1.5-0.6 3.1-1.1 4.7q-0.8 2.6-1.8 5.1c-0.2 0.6-0.6 1.2-0.9 1.9-0.5 0.8-1 1.7-1.1 2.5-0.1 0.1-0.1 0.1-0.1 0.2q-1.5 2.3-3.5 3.9c-1 0.8-2 1.7-3.1 2.3q-0.2 0.1-0.4 0.1-0.8 0.5-1.6 0.8-1.6 0.7-3.2 1.2c-0.8 0.3-1.6 0.5-2.3 1-0.5 0.3-0.9 0.7-1.4 1.1-2.6 2.2-5.6 3.1-9 2.6-0.5 0-7.9-2.7-6.4-3.9-4.1 3.2-9.9 4.1-14.7 2.2-4.8-1.8-8.5-6.4-9.3-11.5-0.6-3.3 0-6.7 0.6-10.1 0.4-2.3-0.1-4.3-0.2-6.5 4.4-1.2 10.5-0.4 13.5 0.9 2.1 0.8 3.9 2 5.7 3.2 3 2 6.3 4.5 6.6 7.9-0.2-2.6 7.6-6.3 9.6-7.2 4.4-1.9 9.5-1.3 14 0.4 3-3 6.7-5.4 10.7-7z"/><path class="m" d="m340.7 258.9q0.7 1.6 1.1 3.3c-0.1 0.4-0.8-0.1-1.1 0.1-0.1 0.1-0.2 0.3-0.2 0.4q0 0.2 0 0.5c-0.2 1.4-0.4 2.8-0.6 4.1-0.3 1.5-0.6 3.1-1.1 4.7q-0.8 2.6-1.8 5.1c-0.2 0.6-0.6 1.3-0.9 1.9-0.5 0.9-1 1.7-1.1 2.5-0.1 0.1-0.1 0.1-0.1 0.2q-1.5 2.3-3.5 3.9c-1 0.9-2 1.7-3.1 2.3q-0.2 0.1-0.4 0.2-0.8 0.4-1.6 0.7-1.6 0.7-3.2 1.2c-0.8 0.3-1.6 0.5-2.3 1-0.5 0.3-0.9 0.8-1.4 1.1-2.6 2.2-5.6 3.1-9 2.7-0.5-0.1-7.9-2.8-6.4-4-4.1 3.2-9.9 4.1-14.7 2.2-4.8-1.8-8.5-6.4-9.3-11.5-0.6-3.3 0-6.7 0.6-10 0.4-2.4-0.1-4.4-0.2-6.6 0-0.7 0-1.5 0.1-2.3-0.7 0.1-1.4 0-2-0.3q0.8-1.6 1.6-3.1-0.9-0.1-1.8-0.1c-0.1-0.9 0.5-1.6 1.1-2.3 0.6-0.6 1.2-1.4 1.1-2.2 0-0.4-0.2-0.7-0.5-0.9 4.4-0.7 9.8 0.1 12.6 1.2 2.1 0.9 4 2.1 5.9 3.3 3.2 1.9 6.6 4.4 6.9 7.9-0.2-2.7 8-6.4 10.2-7.2 4.7-1.9 10-1.4 14.7 0.4 2.5-2.5 5.5-4.5 8.9-6 0.8 1.9 1.6 3.7 2.9 5.4q-0.7 0.3-1.4 0.2z"/><path class="j" d="m265.9 168.9q-1.9-0.3-3.8-0.7c0.6 2.6 1.7 5.2 2.9 7.4-1.4-0.1-2.6-0.4-4-1-0.9 2.9-2 5.8-3.2 8.7-4.7 11.2-11.2 22.7-13.1 34.3-7.2 24.8-2 49.5 11.9 70.5-2.1 0.3-4.4-0.1-6.3-1.2q0.8 2 1.7 4c-1.7 0-3.2-0.1-5.4-0.1-2 4.5-5.2 8.8-8.8 12.4-0.1-1.6-0.1-3.3-0.1-4.9-5.5 11.7-13.3 21.9-23.2 31.2-0.1-1-0.2-2-0.3-3-1.8 4-3.1 5.3-6 7.4 0.4-2 0.6-3.2 0.7-5.2-11.2 18.2-35.2 10.3-45.2-6.5-0.6 0.8-0.9 1.8-1.2 3-3.5-3.6-5.8-7.4-7.6-12.5-0.3 1.6-1.2 3.4-2.1 4.7-2.6-6.5-8.8-15.7-12.9-20-1.4 0.6-2.3 1.4-3.3 3.1-4.1-3.4-7-8.1-8.1-13.2q-2.9 1-5.8 2.1c7.9-11.9 11.7-24 12.8-36.3 1.1-11.2-0.1-22.5-2.4-33.9-2.2-11-5.5-22-8.8-32.8-1.1-3.7-2.2-7.4-3.3-11q-1.7 1.2-3.3 2.4c0.2-5.8 1.1-10.9 2.9-14.9q-2.1 0.1-4.2 0.2 0.3-1.7 1-3.3c-2-0.2-4-0.1-6.3 0.2q0.8-0.8 1.6-1.6 7.5-7.5 15.1-15.1 0.2-0.3 0.5-0.6c-1.9-0.4-3.8-0.9-5.8-1 2.4-1.9 9.4-5.1 12.7-5.8-2.2-1-4.5-1.9-7.5-2.7 6.4-2 11.4-4.1 16.8-7.2q1.4-0.8 2.8-1.6c3.3-2 6.5-4.1 9.8-6.1 26.7-19.9 43.4-19.3 69.5 0.9q5.6 3.9 11.3 7.3c4.3 2.5 8.6 4.8 13 6.7-1.5 0.9-3.7 1.6-5.4 1.7 3.4 2 5.8 3.1 9.1 4.7-2 0.6-4.1 0.8-5.7 0.8q2.8 2.5 5.3 5.2 2.4 2.4 4.5 5.1c3.9 4.7 7.4 9.7 10.5 15.2-2.2-0.9-4.7-1.6-7.4-1.9q2.3 2.3 4.1 4.9z"/><path class="k" d="m185.9 254.8c-2.6 5.8-10.7 9.8-15.6 10.7 0.7-1.1 1.2-2.4 1.3-3.7-1.9 1.9-5.6 4.1-8.3 4.7 0.3-0.9 0.4-1.9 0.1-2.9-0.9 0.7-1.5 1.6-1.7 2.7-3.1-1-4.1-2.4-4.5-3.9-1.5 1.6-1.8 3.2-1.7 5.6-7.8-1.6-16-7.7-19.9-14.9 1-11.2-0.2-22.6-2.5-33.9v-0.1c1.7-3.2 4.1-6.3 6.6-8.7l0.6 0.9q0.4 0.7 0.8 1.2c1.4-0.6 3-0.1 4.6-0.2 1.5 0 3.3-1.2 2.9-2.7 1.5 0.3 2.9 1.1 4 2.2 0.3-1.3 1.1-2.7 2.4-3 1.3-0.4 2.9 1.2 2.1 2.4 1.1 0.2 2.2-0.9 2.1-2 3.6 1.6 7 3.7 10.2 6q1.5-3.7 2.9-7.4c5.9 3 10.1 8.6 12.6 14.8 3.4 8.7 5.2 22.8 1 32.1z"/><path class="k" d="m192.5 224.9c0.1-1.6 0.4-3.2 1.1-4 1 1.4 3.2 0.2 4.2-1.2 3.1-4.1 4.8-9.1 5.1-14.2-0.6 1.5-1.6 2.8-2.7 3.3 0.4-1 1.1-2.8 1.5-4.1-2.3 0.5-4.8 1.1-7.2 0.4-1.1-0.3-2.1-0.9-3.2-1.3-3.7-1.4-8.1-0.8-11.3 1.5 6.7 3.8 10 11.4 12.5 19.6z"/><path class="k" d="m139.9 189.1c1.4-0.2 3 0 4.6-0.1 0.2-0.6 0.3-1.4 0.1-2.2 5.1 1.7 9.4 5.9 11.1 11 0.5 1.6 0.9 3.5 2.4 4.5-1 0.7-5.6 3.1-9.2 1.9 0.3 1.1-0.3 2.3-1.3 2.7-1 0.4-2.3 0-2.9-1q-2.3 1.2-4.7 2.4c0.1-0.7-0.1-1.3-0.6-1.8q-2.1 0.6-4.3 1.3c2.5-5.2 6.3-12.2 4.7-18.7z"/><path class="k" d="m195.9 248.3c-0.7-0.6-1.4-1.4-1.9-2.3-0.2-0.3-0.7-1.2-1.1-2-1.1 5.4-2 10.5-4.2 15.6 2.1 0.8 4.4-0.3 6.4-1.4 2.7-1.5 6-2.8 8.7-1.4 0.2-2.6-0.6-5.2-2.2-7.2-1.8 0.9-4.2 0.1-5.7-1.3z"/><path class="k" d="m166.9 274q0 0.1 0.1 0.3c0.7 0.9 1.1 1.7 1.6 2.7 0.5 1.1 1.4 2.2 2.6 2.2 1.1 0 2-1 2.6-2 0.9-1.4 1.4-3.1 1.4-4.8 0-0.5 0-1-0.4-1.3-0.3-0.3-0.7-0.3-1.1-0.2-0.6 0-6.3 2-6.8 3.1z"/><path class="l" d="m256.6 288.1c-2.1 0.3-4.4-0.1-6.3-1.2q0.8 2 1.7 4c-1.7 0-3.2-0.1-5.4-0.1-2 4.5-5.2 8.8-8.8 12.4-0.1-1.6-0.1-3.3-0.1-4.9-5.5 11.7-13.3 21.9-23.2 31.2-0.1-1-0.2-2-0.3-3-1.8 4-3.1 5.3-6 7.4 0.5-2 0.6-3.2 0.7-5.2-11.2 18.2-35.2 10.3-45.2-6.5-0.6 0.8-0.9 1.8-1.2 3-3.5-3.6-5.8-7.4-7.6-12.5-0.3 1.6-1.2 3.4-2.1 4.7-2.6-6.5-8.8-15.7-12.9-20-1.4 0.6-2.3 1.4-3.3 3.1-4.1-3.4-7-8.1-8.1-13.2q-2.9 1-5.8 2c1.5-2.2 2.9-4.5 4.1-6.8 10.9-20.4 10.6-41.7 6.4-63-2.1-10.7-5.3-21.5-8.6-32.2 6.1 8.6 11 18.4 16.4 27.3 1.9 3.2 5.1 7.6 7.4 10.8-2.5-1.3-5-2.4-6.8-2.8q1.6 2.3 3.1 4.6-1.8-0.8-3.6-1.6c0.8 3.9 1.2 8.3 1.9 12.5 1.8 13.8 1.4 27.8 4 41.4 2.2 11.5 11.5 22.3 19.2 31q-0.3-2.5-0.6-4.9c1.4 2.3 3.2 4.3 5.3 5.8q-0.3-1.8-0.7-3.7c2.6 2.6 8.4 6.2 12 7.6 7 2.5 16.4-0.7 22.9-5.7-0.4 1.4-1.4 3.4-2.2 4.7 1.6-0.8 3.8-2.2 5.1-3.2 4.2-3.1 8-5.8 11.4-9.2 8.8-8.7 15-19.7 17.3-31.6 2.2-11.9 0.2-24.3-0.7-35.4-0.2-3.6-2.6-11-8.4-13 4.2-2.6 8.8-6.3 11.8-10.4 3.2-4.3 6-9.1 9.1-13.9 3.1-5.1 6.2-9.1 9.3-14.3-4.7 11.2-11.2 22.7-13.1 34.3-7.2 24.8-2 49.5 11.9 70.5z"/><path class="l" d="m258.7 150.7c0 0 0 0-0.1 0.1q-0.8 0.3-1.6 0.9c-1.8 1.2-2 4.2-1.2 6.3-1.7-0.2-5.5-0.9-6.7-1.8-3.3 7.2-7.1 10.6-13.5 15.4 0-1.1-0.2-2.4-0.5-3.3-3.7 4.3-7.8 8.3-12.3 11.9 0.9-3.1 1.5-6.2 1.8-9.5-5 4.8-10.1 8.9-16.3 13.1q1.5-6.4 3-12.8c-3.7 4.1-7.4 7.4-11.9 10.6q-0.4-2.6-0.8-5.2-3 4.1-6 8.2c-0.9-0.7-1.6-1.7-2.2-2.8q-0.1 2-0.1 4-6.2-4.1-12.4-8.1 1.7 6.1 3.4 12.2c-7.2-4.1-13.5-9.7-18.4-16.4q1.5 5.9 3 11.8c-8.8-5.8-16.7-12.8-23.3-21q-0.8 5.4-1.6 10.7c-4-4.6-7.3-9.8-9.8-15.3-0.6 1.5-1.4 2.5-2.7 3.8-0.8-3.4-1.1-6.5-0.5-10.4-5 2.7-10.7 4.5-15.3 5.3q7.8-7.8 15.6-15.6c-1.9-0.4-3.8-1-5.8-1.1 2.4-1.9 9.4-5.1 12.8-5.8-2.3-1-4.6-1.9-7.6-2.6 6.4-2.1 11.4-4.2 16.8-7.3 4.2-2.4 8.5-5.1 12.6-7.7 26.7-19.9 43.4-19.3 69.5 0.9 7.9 5.5 15.8 10.3 24.3 14.1-1.5 0.8-3.7 1.5-5.4 1.6 3.4 2 5.8 3.1 9.1 4.7-2 0.6-4.1 0.9-5.7 0.8 3.6 3.2 6.8 6.7 9.8 10.3z"/><path class="n" d="m254.2 145.6c-5.2 0-8.6-1.6-11-2.8 0.3 3.6 0.3 7.2-0.3 10.7-1.5-3.3-3.6-6.4-6.3-8.9-1.7 6.4-4.2 12.6-7.3 18.4-0.3-4.1-1.5-8.1-3.4-11.8l-5 11.8q-0.6-4.1-1.3-8.1c-2.3 3.8-5 7.5-8.1 10.7q0.2-4.7 0.4-9.3c-3.8 5.1-9 9.9-14.4 13.7 1.4-3.6 2.1-7.6 1.9-11.5q-6.9 5.8-13.8 11.6-1.2-4.4-2.4-8.8-0.9 2-1.9 4-3-2.8-6-5.6c-1.6 2.5-2.8 5.3-3.5 8.2-5.1-2.4-9.6-6.1-13-10.7-0.3 3.8-0.2 7.6 0.5 11.3-5.7-4.6-10.1-10.8-12.5-17.8q-1.3 2.9-2.6 5.8c-3-4.1-5.5-9.7-6.2-14.5-3.3 1.1-6.8 1-9.7 0.8-1.9-0.4-3.8-0.9-5.8-1 2.4-1.9 9.4-5.2 12.8-5.9-2.3-1-4.6-1.9-7.6-2.6 6.4-2.1 11.4-4.1 16.8-7.3 4.2-2.4 8.5-5.1 12.6-7.7 26.7-19.9 43.4-19.3 69.5 0.9 7.9 5.6 15.8 10.3 24.3 14.1-1.5 0.8-3.7 1.6-5.4 1.6 3.4 2 5.8 3.1 9.1 4.8-2 0.5-4.1 0.8-5.7 0.7q2.8 2.5 5.3 5.2z"/><path class="o" d="m226.1 143.8c0-4.6-2.5-9.1-6.4-11.4-0.3 6.1-2.5 12.1-6.3 16.9 0.5-2.8 1.1-5.7 0.1-8.4-1-2.6-4.1-4.7-6.7-3.6-3.2 1.5-3.1 5.9-2.4 9.3-2.4-1.8-5.1-3.2-7.9-4.1q-0.3 3.8-0.6 7.6-2.8-2.8-5.5-5.6c-1.5 3.3-1.5 7.3 0 10.7-7.6-2-14.4-7.3-18.1-14.2-2.3 4-3.6 8.7-3.5 13.4-6.3-5.3-11-11.4-14.3-19.1-1.7 1.6-2.7 3.4-3.4 5.8-3-5.3-4.6-11.6-3.8-16.7 3.3-2 6.6-4.1 9.9-6.1 26.6-19.9 43.3-19.3 69.4 0.9q5.6 4 11.3 7.4c-3 0.3-6 0.6-8.9 0.2-0.1 7.3-2 15.3-2.9 17z"/><path class="h" d="m240.9 85.4q-0.2 0-0.4 0 1.6 4.2 2.4 8.6c-0.8-1.1-2.3-1.5-3.5-1 1.4 1.5 2.1 3.6 1.8 5.6-0.9-0.9-2.5-1.1-3.6-0.4q1.8 2.1 3.6 4.3c-1.2-0.3-2.4-0.3-3.5 0 0.7 1.2 1.7 2.2 2.9 2.9-1.2 0.2-2.4 0-3.6-0.7-0.3 0-3.7 7-4 7.5q-1.5 2.8-3 5.6c-0.3 0.5-2.9 5-3 5q-0.3-0.7-0.6-1.4-1.1 2.2-2.6 4.1c0.1-0.7 0.1-1.4 0-2.2-3.5 3.9-6.6 6.7-11.2 9.2-4.8 2.5-9.9 4.3-15.2 5.1-6.1 1-12.3 0.1-18.3-1q-3.9-0.6-7.4-2.1c-2.1-0.9-4.1-1.8-5.8-3.3 0 0.3 0.1 0.5 0.2 0.8-0.4-0.1-1.5-1.1-1.8-1.6l0.7 2.2c-3.7-2.3-7.1-4.7-10-7.7-2.5-2.6-4.5-5.5-6.1-8.7-0.4 0.5-0.7 1.1-0.9 1.8-1.7-4-3.5-8-5.2-12-0.5 1-1.1 2-1.4 3-0.9-2.9-1.5-6-1.6-9-1.1 1.4-2.2 2.6-2.7 4.3-0.6-2.5-0.2-5.4 1.5-7.5-1-0.1-2 0.3-2.9 0.8-0.2-2.9 0.2-5.8 1.2-8.5q-1.6 0-3.3-0.1c0.7-1.4 1.7-2.7 2.9-3.7q-2.1 0.6-4.2 1.2c1.3-2.4 2.9-4.6 4.8-6.5-1.1 0.1-2.2 0.6-3.2 1.2q0.1-1 0.5-1.9 0.5-2.1 1.6-4c-1.4 1.1-3 2-4.6 2.4q1.2-1.2 2.2-2.4 0 0 0-0.1c4.8-6.1 5.1-13.4 7.3-21 3.3-12 12.8-23.2 21.8-31.5 2.7-2.3 5.4-4.5 8.2-6.7 1.9-1.5 3.9-2.9 6-4q1.1-0.6 2.3-1.1 0.1 0 0.1-0.1c0.1-0.2-0.2-1.1-0.3-1.3 1.1 0.6 2.1 1.2 3.2 1.7-0.2-0.4-0.4-0.9-0.4-1.4 0-0.2 0.2-1.2 0.2-1.3 0.9 0.9 2 1.8 3.2 2.3q0.2-0.7 0.3-1.5c0.8 0.3 1.4 0.9 1.8 1.6q1-1.4 2.3-2.5 0.3 1.1 0.9 2c1-1.6 2.5-3 4.2-3.9-0.2 1.6 0.2 3.2 0.9 4.6 0.9-1.6 2.1-2.9 3.7-3.8-0.3 1.3-0.2 2.8 0.5 4 0.3-0.9 0.5-1.8 0.8-2.7 1.2 5.5 7.3 5.3 11.4 7.6 7.7 4.4 14 11.2 18.6 18.8 2.3 3.8 5 7.4 6.5 11.6 1.8 5.2 2.3 10.5 3.4 15.8 1.1 5.2 1 9.8 4.2 14.1 0.1 0.1 0.2 0.3 0.3 0.4q0.3 0.3 0.5 0.6c-1.6-0.1-3.1-0.8-4.2-2 1 2 1.5 4.1 1.4 6.3-0.8-1.4-2.4-1.7-3.6-1.5 1.9 1.2 3.6 3 4.7 5q-1.5 0.1-3 0.1z"/><path class="a" d="m170 70.7q0.3-0.9 0.7-1.8c-2.1 1.9-4.1 3-7.1 3.5q0.7-0.9 0.6-1.9c-1.3 0.7-2.3 0.9-4 1.3 0.6-0.6 1-1.1 1.4-1.8-6.1 0.1-13.9 2.5-19.5 4.9-2.8 1.1-5.4 2.6-7.8 4.3q0.6-2 1.6-3.9c-1.3 1.1-2.9 1.9-4.6 2.4 7-6.6 7.1-14.9 9.5-23.5 3.4-12 12.9-23.3 21.9-31.5 2.6-2.3 5.4-4.6 8.1-6.7 1.9-1.5 4-2.9 6.1-4.1 4.2 4.1 6.9 9.5 8.7 15 1.2 3.4 2 7 2.4 10.6 1.3 12.9-6.2 27.4-18 33.2z"/><path class="i" d="m240.9 85.4q-0.2 0-0.4 0 1.6 4.2 2.4 8.6c-0.8-1.1-2.3-1.5-3.5-1 1.4 1.5 2.1 3.6 1.8 5.6-0.9-0.9-2.5-1.1-3.6-0.4q1.8 2.1 3.6 4.3c-1.2-0.3-2.4-0.3-3.5 0 0.7 1.2 1.7 2.2 2.9 2.9-1.2 0.2-2.4 0-3.6-0.7-0.3 0-3.7 7-4 7.5q-1.5 2.8-3 5.6c-0.3 0.5-2.9 5-3 5q-0.3-0.7-0.6-1.4-1.1 2.2-2.6 4.1c0.1-0.7 0.1-1.4 0-2.2-3.5 3.9-6.6 6.7-11.2 9.2-4.8 2.5-9.9 4.3-15.2 5.1-6.1 1-12.3 0.1-18.3-1q-3.9-0.6-7.4-2.1c-2.1-0.9-4.1-1.8-5.8-3.3 0 0.3 0.1 0.5 0.2 0.8-0.4-0.1-1.5-1.1-1.8-1.6l0.7 2.2c-3.7-2.3-7.1-4.7-10-7.7-2.5-2.6-4.5-5.5-6.1-8.7-0.4 0.5-0.7 1.1-0.9 1.8-1.7-4-3.5-8-5.2-12-0.5 1-1.1 2-1.4 3-0.9-2.9-1.5-6-1.6-9-1.1 1.4-2.2 2.6-2.7 4.3-0.6-2.5-0.2-5.4 1.5-7.5-1-0.1-2 0.3-2.9 0.8-0.2-2.9 0.2-5.8 1.2-8.5q-1.6 0-3.3-0.1c0.7-1.4 1.7-2.7 2.9-3.7q-2.1 0.6-4.2 1.2c1.3-2.4 2.9-4.6 4.8-6.5-1.1 0.1-2.2 0.6-3.2 1.2q0.1-1 0.5-1.9 0.5-2.1 1.6-4c-1.4 1.1-3 2-4.6 2.4q1.2-1.2 2.2-2.4c1.9-0.9 3.3-2 4.9-3.5q-1.4 3.6-2.1 7.4c0.9-0.9 1.9-1.6 3-2.1q-1.8 3.6-3.5 7.1c0.7-0.7 1.5-1.3 2.4-1.6-0.5 1.4-1.1 2.5-1.9 4.1q1.1-1.2 2.4-2.3c-1.5 3.9-2.2 8.2-2.3 12.4 0.7-1.3 1.9-2.3 3.2-2.9-0.6 2.2-1.1 4.3-1 6.2q1.1-1.7 2.1-3.5c-0.3 2.2 0 4.5 0.8 6.7q0.4-2.6 0.9-5.2c0.6 3 1.7 5.8 2.9 8.6q1 2.3 1.9 4.6c0.4 0.7 1.2 2.8 1.9 4.2 0.2-0.7 0.4-1.3 0.8-1.8 0.3 0.9 2.6 4.6 2.9 5 1.8 2.6 3.7 5.2 5.9 7.4q-0.1-1.1-0.2-2.2 2.3 2.8 5.2 5.1c-0.3-0.7-0.5-1.4-0.5-2.1 2 1.4 4.2 2.6 6.3 3.8 3 1.6 6 3.2 9.3 4.4q-0.6-0.8-1.2-1.6c0.8 0.6 1.7 0.9 2.7 1.1q-0.4-0.7-0.7-1.4c2.3 1.1 5.2 1.9 7.8 2.1 3.2 0.3 6.5 0.3 9.7-0.2 5.1-0.8 10.1-2.6 14.7-5.1 3.8-2.1 7.1-5 9.5-8.7q0.1 0.9 0.3 1.8c1.3-1 2.3-2.3 2.8-3.8q0.5 1.2 0.9 2.4c1.7-2.3 3-4.5 4-7.4 0.2 0.3 0.3 1.1 0.3 1.6q3.7-7.7 6.7-15.6c0.2 0.4 0.6 0.7 1 0.7-0.9-1.3-1.3-3-1.2-4.7q1.2 0.1 2.4 0.3c-0.6-2.1-0.7-4.9-0.2-6.9 1.2 0.7 2.2 1.8 3.4 2.6-0.5-2.3-1.7-6.6-2.3-8.1 0.6-0.2 1.9-0.2 2.8 0.1-0.4-1-1.3-1.7-2.3-2.3-0.9-0.5-2.1-1.6-2.8-2.4 0.6-0.3 3.3-0.5 4.5 0.1-0.6-1.7-0.9-4-0.8-5.8 0.6 0.5 2.7 2.2 3 2.3q0.4 0.2 0.9 0.3c0 0.1 0.2 0.3 0.3 0.4q0.2 0.3 0.4 0.6c-1.6-0.1-3.1-0.8-4.1-2 0.9 1.9 1.4 4.1 1.4 6.3-0.8-1.4-2.5-1.7-3.7-1.5 2 1.2 3.6 2.9 4.8 4.9q-1.5 0.1-3 0.2z"/><path class="i" d="m186.3 65.3c-0.3-3.8-0.3-8.3-1.5-11.9-1.9-5.1-2.8-7.3-6.7-9.9 5.9 0.5 7.8 1.8 11.8 6.3 1-2.4 2.6-4.5 4.6-6q-0.4 1.8-0.8 3.7c2.1-1.9 4.5-3.3 7.1-4.2-2.9 3.1-4.5 6-5.1 8.1-1.3 4.7-2 9.4-2.4 14.2-0.4 5.9-0.3 11.4 0 18.2h-6.5c0.1-6.6 0-12.4-0.5-18.5z"/><path class="p" d="m177.8 61.6c0 2.2-0.2 4.4-0.7 6.3-0.1-0.7-0.3-1.3-0.5-1.9-0.4-1-1.9-1.3-3.3-1.1-1.6 0.2-3.3 0.7-5 0.6-1.8 0-3.5-0.6-4.9-1.7-3-2.1-3.6-5.9-3.5-9.3q-1.5-0.6-3.2-0.7c1.7-1 3.9-2.2 4.5-2.7 0.4-0.2 1.9-1.2 2.8-1.7 1.4-1 3.1-0.6 4.7 0 3.4 1.4 5.7 3.9 8 6.7 0.2 0.2 0.4 0.5 0.6 0.9q0.1 0.3 0.1 0.7c0.3 1.2 0.4 2.6 0.4 3.9z"/><path class="q" d="m161.2 57.2c0 0.5 0 1 0.1 1.5 0.2 0.9 0.6 1.8 1.1 2.6v0.1c0.3 0.4 0.6 0.8 1 1.1 0.8 0.8 1.9 1.5 3.1 1.9q0.8 0.2 1.6 0.3h0.1q0.2 0 0.5 0 0.2 0 0.5 0c1.9-0.2 3.5-1 4.8-2.2q0.2-0.3 0.5-0.6c0.1-0.1 0.3-0.4 0.4-0.6q0.7-0.9 1-2 0.1-0.3 0.2-0.7 0-0.2 0-0.5 0.1-0.3 0.1-0.7c-0.1-0.5-0.7-1.5-1.8-2.7q-0.6-0.7-1.4-1.4 0 0 0 0c-1-0.9-2.2-1.7-3.4-2.3-0.9-0.5-1.9-0.8-2.8-0.8h-0.3-0.5q-0.2 0-0.2 0c-0.1 0-0.2 0.1-0.4 0.2q-0.8 0.4-1.5 0.9v0.1c-1.3 1-2.2 2.4-2.5 4.1q-0.1 0.4-0.2 0.8 0 0.4 0 0.9z"/><path class="r" d="m162.4 57.1c0 2 1 3.8 2.4 4.9 1.1 0.9 2.4 1.3 3.9 1.3 1.4 0 2.8-0.5 3.8-1.3l0.1-0.1c1.4-1.1 2.3-2.8 2.3-4.8q0-1.3-0.5-2.4-0.6-0.7-1.4-1.4 0 0 0 0c-1-0.9-2.2-1.7-3.4-2.3q-0.5-0.1-0.9-0.1c-1.5 0-2.8 0.5-3.8 1.3-1.5 1.1-2.5 2.9-2.5 4.9z"/><path class="p" d="m172.1 57.1c0 1.9-1.5 3.5-3.4 3.5-1.9 0-3.5-1.6-3.5-3.5 0-1.9 1.6-3.4 3.5-3.4 1.9 0 3.4 1.5 3.4 3.4z"/><path class="s" d="m168.6 53.7c0 1.1-1 2-2.1 2-1.1 0-2-0.9-2-2 0-1.2 0.9-2.1 2-2.1 1.1 0 2.1 0.9 2.1 2.1z"/><path class="p" d="m202.5 61.6c0 2.2 0.2 4.4 0.7 6.3 0-0.6-0.1-1.2 0.1-1.9 0.4-1.7 2.2-1.3 3.6-1.1 1.7 0.2 3.3 0.7 5 0.6 1.8 0 3.5-0.6 5-1.7 2.9-2.1 3.6-6 3.4-9.3q1.6-0.6 3.3-0.7c-1.8-0.7-3.5-1.4-5.2-2.4q0.3-0.3 0.6-0.3-0.6-0.3-1.2-0.5 0.2-0.3 0.5-0.5-1-0.3-2-0.6c0-0.3 0.2-0.5 0.4-0.6-1.7-0.4-3.5-0.1-5.1 0.5-3.4 1.4-5.7 3.9-8 6.7-0.2 0.2-0.5 0.5-0.6 0.8q-0.1 0.4-0.2 0.8c-0.2 1.2-0.3 2.5-0.3 3.9z"/><path class="t" d="m219.1 57.2c0 0.5 0 1-0.1 1.5-0.2 0.9-0.6 1.8-1.1 2.6l-0.1 0.1q-0.4 0.6-0.9 1.1c-0.8 0.8-1.9 1.5-3.1 1.9q-0.8 0.2-1.7 0.3-0.2 0-0.5 0-0.3 0-0.5 0h-0.1c-1.8-0.2-3.5-1-4.7-2.2q-0.3-0.3-0.5-0.6c-0.2-0.1-0.3-0.4-0.5-0.6q-0.6-0.9-0.9-2-0.1-0.3-0.2-0.7 0-0.2-0.1-0.5 0-0.3 0-0.7c0-0.5 0.7-1.5 1.8-2.7q0.6-0.7 1.3-1.4 0 0 0.1 0c1-0.9 2.1-1.7 3.4-2.3 0.9-0.5 1.8-0.8 2.8-0.8h0.3 0.4q0.2 0 0.2 0c0.2 0 0.3 0.1 0.4 0.2q0.9 0.4 1.6 0.9v0.1c1.3 1 2.2 2.4 2.5 4.1q0.1 0.4 0.2 0.8 0 0.4 0 0.9z"/><path class="u" d="m217.8 57.1c0 2-0.9 3.8-2.4 4.9-1 0.9-2.4 1.3-3.8 1.3-1.4 0-2.8-0.5-3.9-1.3v-0.1c-1.4-1.1-2.3-2.8-2.3-4.8q0-1.3 0.5-2.4 0.6-0.7 1.4-1.4 0 0 0 0c1-0.9 2.2-1.7 3.4-2.3q0.4-0.1 0.9-0.1c1.4 0 2.7 0.5 3.8 1.3 1.5 1.1 2.4 2.9 2.4 4.9z"/><path class="p" d="m211.6 60.6c-1.9 0-3.4-1.6-3.4-3.5 0-1.9 1.5-3.4 3.4-3.4 1.9 0 3.5 1.5 3.5 3.4 0 1.9-1.6 3.5-3.5 3.5z"/><path class="s" d="m213.8 55.7c-1.2 0-2.1-0.9-2.1-2 0-1.2 0.9-2.1 2.1-2.1 1.1 0 2 0.9 2 2.1 0 1.1-0.9 2-2 2z"/><path class="f" d="m181 98.1q-0.2 0.3-0.4 0.7-0.1 0.2-0.2 0.5c-0.4 0.8-0.5 1.8-0.4 2.7 0 0.3 0 0.6-0.2 0.8-0.1 0.1-0.3 0.2-0.5 0.2-0.2 0-0.4-0.1-0.5-0.2-1.7-0.6-3.1-1.8-4.3-3.2q0 0 0 0-0.1-0.2-0.3-0.3-0.2-0.3-0.4-0.6-0.1-0.2-0.3-0.4-0.2-0.2-0.3-0.5 0 0 0 0 1.5 0.2 3 0.1 1.7 0 3.4-0.3 0.8 0 1.5 0 0.1 0.2-0.1 0.5z"/><path class="v" d="m181 98.1q-0.2 0.3-0.4 0.7-0.1 0.2-0.2 0.5c-0.4 0.8-0.5 1.8-0.4 2.7 0 0.3 0 0.6-0.2 0.8-0.1 0.1-0.3 0.2-0.5 0.2-0.3-1.1-0.1-1.9-0.1-2.9 0-0.3-0.1-0.5-0.3-0.7-0.4-0.3-0.9-0.4-1.5-0.4-0.8 0-1.6 0.1-2.3 0.4q-0.3 0.1-0.6 0.2 0 0 0 0-0.1-0.2-0.3-0.3-0.2-0.3-0.4-0.6-0.2-0.2-0.3-0.4-0.2-0.2-0.3-0.4 0-0.1-0.1-0.1 1.5 0.2 3.1 0.2 1.7-0.1 3.4-0.4 0.8 0 1.5 0 0.1 0.3-0.1 0.5z"/><path class="f" d="m208.1 97.7q-0.2 0.3-0.4 0.6-0.2 0.4-0.4 0.8c-1.1 1.6-2.5 3.1-4.2 3.8-0.4 0.1-0.8 0.2-1.1 0q-0.2-0.2-0.2-0.5 0-0.2 0-0.3 0-0.8-0.2-1.5-0.1-0.2-0.1-0.3-0.1-0.2-0.1-0.3-0.1-0.2-0.2-0.4-0.1-0.1-0.1-0.2-0.1-0.1-0.1-0.2-0.3-0.5-0.6-0.9-0.1 0-0.1-0.1 2 0.2 4.1 0 0.9 0 1.7-0.2 0.4 0 0.7-0.1 0 0 0.1 0 0.6-0.1 1.2-0.2z"/><path class="v" d="m208.1 97.7q-0.2 0.3-0.4 0.6c-0.1 0.1-0.2 0.1-0.3 0.2-1.2 0.2-2.3 0.3-3.1 0.9q-0.3 0.3-0.5 0.6c-0.5 0.7-0.7 1.4-1.1 2.1-0.1 0.2-0.4 0.8-0.7 0.8q0 0 0 0-0.2-0.2-0.2-0.5 0-0.2 0-0.3 0-0.8-0.3-1.5 0-0.2-0.1-0.3 0-0.2-0.1-0.3 0-0.2-0.1-0.4-0.1-0.1-0.1-0.2-0.1-0.1-0.2-0.2-0.2-0.5-0.6-0.9 0 0-0.1-0.1 2.1 0.2 4.1 0 0.9 0 1.8-0.2 0.4 0 0.7-0.1 0 0 0 0 0.7 0 1.3-0.2z"/><path class="p" d="m217.7 90.1c0.1 2.9-2.1 5.5-4.8 6.9-2.5 1.5-5.6 2.3-8.8 2.4q-0.7 0.1-1.3 0.1c-4.7-0.1-9.3-1.5-12.2-4.7q-0.2-0.2-0.4-0.5c-1.1 1.5-2.7 2.6-4.4 3.4-2.5 1.2-5.4 1.7-8.2 1.8q-0.6 0-1.3 0c-3.1-0.2-6.2-1-8.8-2.4-2.7-1.5-4.9-4.1-4.8-7 0.2 2.9 2.5 5.1 5.2 6.3 2 1 4.6 1.5 7.1 1.6q0.3 0 0.6 0c4.6 0 9.3-1.5 11.9-4.8 0.6-0.8 1-1.7 1-2.6 0.1-0.1 0.7-8.2 0.7-8.3h2.3l0.3 7.8q0.1 0.1 0 0.2c0 2.3 1.9 4.3 4 5.4 2.6 1.5 5.8 2.3 9 2.3q0.3 0 0.6 0c2.5-0.1 4.9-0.6 7.2-1.6 2.6-1.2 4.9-3.4 5.1-6.3z"/><path class="w" d="m198.7 80.5c0 3.8-6.9 8.2-8.8 8.2-1.7 0-8.7-4.3-8.7-8.2 0-2.8 3.9-2.7 8.8-2.7 4.8 0 8.7 0 8.7 2.7z"/><path class="p" d="m189.9 86.8c-1.7 0-8.3-3.1-8.7-6 0.4 3.8 7 7.9 8.7 7.9 1.9 0 8.4-4.2 8.7-7.9-0.3 2.8-6.8 6-8.7 6z"/><path class="p" d="m213.2 86.5c8.8 0.4 17.7 2.7 25.5 6.8-8.3-3-16.8-5.3-25.5-6.8z"/><path class="p" d="m166.7 86.5c-8.8 1.5-17.2 3.8-25.5 6.8 7.8-4.1 16.7-6.4 25.5-6.8z"/><path class="p" d="m208.3 79.5c17.1-6.2 35.4-9 53.6-8.5-18.2 0.6-36.2 3.4-53.6 8.5z"/><path class="p" d="m213.3 82.1c17.9-2 36.1-1.3 53.9 1.8-17.9-2-35.9-2.6-53.9-1.8z"/><path class="p" d="m171.6 79.5c-17.4-5.1-35.4-7.9-53.6-8.5 18.2-0.5 36.5 2.3 53.6 8.5z"/><path class="p" d="m166.7 82.1c-18-0.8-36.1-0.2-54 1.8 17.8-3.1 36-3.8 54-1.8z"/><path class="a" d="m174.7 12.8q0 0.4-0.1 0.8 0 0.5-0.2 0.9-0.1 0.5-0.3 0.9c-0.4 1.2-1.3 2.5-2.1 3.5q0.1-0.4 0.2-0.8-0.5 0.3-0.9 0.6-1.8 1.5-3.5 3.1 0.2-0.5 0.4-0.9c-1.4 1.1-3 1.9-4.4 3-2.3 1.7-4.4 3.8-6.3 5.9-1.9 2.1-4.1 4.5-4.6 7.3q-0.3-0.8-0.4-1.7c-1.2 3.3-3.4 6.1-5.5 8.9-0.2-0.4-0.3-0.9-0.6-1.3-0.5 0.7-0.6 2.4-0.9 3.3q-0.4-0.4-0.7-0.8-0.6 1.1-0.7 2.4c-1.4-2.1-2.6-3.8-3.1-6.3-0.3-1.9-0.6-3.8-0.7-5.6q-0.1-1.6-0.2-3.1c-0.1-5 0.2-10 0.8-15q0.1-1.2 0.3-2.5c0.2-1.8 0.4-3.6 0.8-5.4 0.2-0.9 0.3-1.8 0.6-2.7 0.1-0.5 0.7-1.7-0.2-1.5 0.2-0.5 0.8-2 1.3-2.3q-0.5 0.3-1.1 0.6-0.1 0.1-0.2 0.1 0.3-0.3 0.5-0.7 0.2-0.2 0.4-0.5 0.2-0.1 0.3-0.3 0 0 0.1 0 0.1-0.2 0.2-0.3 0.3-0.2 0.5-0.4 0.2-0.1 0.4-0.2 0.2-0.2 0.4-0.3 0.4-0.2 0.7-0.3 0.3-0.1 0.6-0.2c0 0 0-0.1 0.1 0q0.4-0.2 0.8-0.3 0.4-0.1 0.9-0.1c0.1 0 0.2 0 0.3 0q0.5-0.1 1.1-0.1 1.1 0 2.4 0.2c2.4 0.3 5 1.2 7.3 2.1q0.1 0 0.1 0 0.2 0.1 0.4 0.2c2.1 0.8 4 1.8 5.4 2.5q0.1 0 0.2 0.1c1.9 0.9 3.6 1.9 5.2 3.1 0.8 0.7 1.5 1.4 2.1 2.2 0.5 0.6 1.3 1.6 1.4 2.5q0.3-0.4 0.5-0.6z"/><path class="x" d="m165.9 18.2q-0.1 0-0.1 0-2.6-0.4-5.1-0.9c1.7 0.6 3.2 1.7 4.3 3.1q-3.5-0.3-7.1-0.6 1.8 1.2 3.5 2.2c0.6 0.5-11.8 10.9-12.3 12 0 0.2-0.1 0.4-0.3 0.5-0.1 0.1-0.3 0.1-0.5 0.1q-1.1 0-2.2-0.1c-0.4-0.1-0.8-0.1-1.1-0.4-0.3-0.4-0.1-1.1 0.2-1.5 0.4-0.4 0.9-0.8 1-1.3-0.3-0.6-1-0.9-1.6-0.7 0.1-3.9 0.4-7.6 0.9-11.5 0.5-3.4 1.1-6.3 2.7-9.3 3.2-6.1 14.8 0.2 18.1 3.3 1.1 0.9 1.9 2.4 1.7 3.8 0 0.4-0.1 0.8-0.4 1.1-0.4 0.4-1.1 0.3-1.7 0.2z"/><path class="j" d="m247.5 28c2.8-7.5 4.1-19.4-3.9-24.7-3.6-2.5-9.5-4.7-13.6-2.2-0.1-0.1-0.1-0.2 0-0.4-0.7 0.3-1.3 0.6-1.8 1.1-0.2-0.3-0.2-0.6 0-0.9-1.1 0.3-2.3 1.1-3.2 1.8-1.6 1.3-2.9 2.9-4.3 4.5-1.1 1.4-2.7 2.4-4 3.6-1.2 1-2.9 1.4-4.1 2.3-1.5 1-2.4 1.1-3 2.9-0.1 0.3-0.2 3.7 0.2 3.3 0.4-0.3 0.9-0.4 1.3-0.6-0.1 0.3 0.2 3.9 0.4 3.7 1-0.8 1.5-1 2.8-0.7-0.7 0.2-1.3 1-1.2 1.9 1.7 0 3.4 1 4.9 1.8 0.4 0.3 0.8 0.5 1 0.9-0.6-0.1-0.9-0.2-1.5 0 0.8 0.2 1.6 0.7 2.3 1.2 0.7 0.5 1.3 1 1.8 1.7-0.2-0.3-1.2 0-1.4 0.1 1.3 0.6 2.8 1.3 3.9 2.2 1.4 1.2 1.7 3 2.6 4.5 0-0.5 0.3-1 0.6-1.5q0.6 1.6 1.6 3 0.4-0.4 0.8-0.8c0.3 0.7 0.1 1.4 0.2 2.2 0.2 2 4.4 2.3 6 2 4.6-0.6 7.3-4.3 8.6-8.5q0.3 0.8 0.6 1.5c0.8-1.9 1.6-3.9 2.4-5.9z"/><path class="n" d="m240.4 32c1.9-2.9 2.9-6.4 3-9.8 0.1-5.2-2.3-13.3-7.8-15.3-2.4-0.8-5.2-0.3-7.5 1.1-3 1.8-4.6 5-7 7.4-1.5 1.6-5.2 5-7.7 4.4 2.5 0.6 5.1 0.2 7.2-1.1q-1.1 0.7-2.2 1.5 1.9 0.1 3.7-0.5c-0.5 0.2-1.1 0.7-1.6 1 2 0.3 2.9-1.6 4.6-1.4-0.5 0.3-0.8 0.9-0.7 1.5q-0.5 0.5-0.9 1 0.7-0.6 1.6-0.7c-0.7 0.7-1.2 1.2-1.6 2.1-0.4 0.8-0.8 1.5-1.7 1.9q1.9-0.7 3.6-1.9c-0.7 1-1.7 1.7-2.7 2.1 0.8-0.2 1.7-0.5 2.5-0.6 0.2 0 1.4 0.4 1.5 0.2-0.3 0.3-2 2.6-2 2.6q1.2 0.3 2.5 0.8-0.5 0.3-1 0.7c0.1 0.4 0.5 0.6 0.9 0.7 0.4 0.1 0.8 0.1 1.1 0.4 0.3 0.3 0.2 0.7-0.2 0.9 0.5 0.5 1.2 0.8 2.2 0.6-0.3 0.6-0.4 1.3-0.5 2q1.3-0.1 2.5 0-0.3 0.7-0.6 1.3c0.3-0.1 0.7-0.1 1 0-0.2 0.5-0.6 1-0.9 1.5 1.4 1.6 4.8 0.1 6-1q1.5-1.6 2.7-3.4z"/></svg>