<svg version="1.2" xmlns="http://www.w3.org/2000/svg" viewBox="0 0 470 470" width="470" height="470"><style>.a{fill:#3c3c3b}.b{mix-blend-mode:multiply;fill:#b2b2b2}.c{fill:#f9eaa8}.d{fill:#f9df87}.e{mix-blend-mode:multiply;fill:#dedac9}.f{fill:#ededed}.g{mix-blend-mode:multiply;fill:#ededed}.h{fill:#f9d9a8}.i{mix-blend-mode:soft-light;fill:#844f0f}.j{mix-blend-mode:multiply;fill:#f9d9a8}.k{mix-blend-mode:soft-light;fill:#cbbba0}.l{fill:#e8a94f}.m{mix-blend-mode:multiply;fill:#e8a94f}.n{fill:#1d1d1b}.o{fill:#afe4ec}.p{fill:#97c4cb}.q{fill:#fff}.r{fill:#fcea10}.s{fill:#f39200}.t{mix-blend-mode:multiply;fill:#dadada}.u{fill:#575756}.v{fill:#8d6f46}.w{mix-blend-mode:multiply;fill:#d9b791}</style><path class="a" d="m428.6 154.7c-2.2 6.5-8 11.9-13.7 15.6-4.9 3.2-9.8 5.9-15.1 8.3-4.3 1.9-9.4 4.1-14.4 5 1.9 0.4 3.5 0.9 5.5 1.1-4.6 1.3-8.9 2-13.6 2.2 2 0.9 4 1.5 6.2 1.9-8.3 1.4-17.1 3.1-24.1 8.1q-3 2.2-5.7 4.7c-7.5 6.8-14.2 17.5-17.7 26.6-4.7 12.2-5.8 24.7-8 37.4-2.3 13-6.5 25.7-12.6 37.4-4.6 9.1-10.8 16.9-20.9 19.9q2.3 0.2 4.6 0.5c-5.9 4.3-13.3 6.8-20.5 8.9q-1.9 0.5-3.7 1c-9.2 2.6-18.7 4-28.1 4.5-7.3 0.5-14.6 0.4-21.6-0.2-11.6-0.9-34.6-3.3-40.1-15.4-1.2-2.5-1.2-5.7 0.7-7.7 3-3.1 8.7-3.1 12.7-3.4 10.4-0.8 20.8 0.7 31.3-0.7 8.1-1.2 16.3-1.9 24.5-3.3q0.3-0.1 0.7-0.1 2.2-0.4 4.4-0.9 4.8-1.1 9.3-2.6c3.4-1.2 6.6-2.5 9.6-4.1 5.4-2.8 10.1-6.4 13.7-10.8 20.8-25.9 6.2-64.5 18.6-93.9 8.1-19.3 21.8-36.5 37.7-50q-0.2 0.7-0.2 1.5c2.3-2 4.3-3.8 6.6-5.6 2.7-2.1 5.1-3.6 8.2-5.7 6.3-3.7 13.3-6.6 20.1-9-0.7 0.8-1.3 1.6-2 2.6 2.8-0.9 5.9-1.3 8.8-1.7 11.5-1.5 25 0.7 33.9 8.9 1.3 1.3 2.5 2.7 3.5 4.2 2.8 4.4 3.2 9.9 1.4 14.8z"/><path class="b" d="m428.6 154.7c-0.5 1.7-1.3 3.1-2.1 4.5q-0.1 0.2-0.2 0.3-0.3 0.4-0.5 0.7-0.8 1.2-1.8 2.3c-0.2 0.4-0.5 0.7-0.8 1q-0.1 0.1-0.2 0.2-0.4 0.4-0.9 0.9-1.4 1.4-2.9 2.6-0.7 0.5-1.4 1.1-1.4 1-2.9 2c-1.9 1.3-4 2.5-6 3.7q-1 0.5-2.1 1.1-0.2 0.2-0.5 0.3c-2.1 1.1-4.3 2.2-6.5 3.2-4.3 2-9.4 4.1-14.4 5q2.8 0.6 5.5 1.1c-4.6 0.7-9.1 1.5-13.6 2.3q3.1 0.9 6.2 1.8c-7.8 1.4-15.8 3-22.1 6.8q-1 0.6-1.9 1.3-3.1 2.2-5.8 4.7c-7.5 6.8-14.2 17.5-17.7 26.6-4.7 12.2-5.8 24.8-8 37.5-2.3 13-6.5 25.6-12.6 37.3-4.6 9.1-10.8 16.9-20.9 19.9q2.3 0.3 4.7 0.5c-6 4.3-13.4 6.8-20.6 8.9q-1.9 0.6-3.7 1.1c-9.2 2.5-18.6 3.9-28.1 4.4-7.3 0.5-14.6 0.4-21.6-0.2-11.6-0.9-34.6-3.3-40.1-15.3-1.2-2.5-1.2-5.7 0.7-7.7 1.4-1.5 3.4-2.1 5.4-2.5q0.9-0.2 1.8-0.3 0.6-0.1 1.2-0.2 0.4-0.1 0.8-0.1 0.9-0.2 1.7-0.2 0.9-0.1 1.8-0.2c10.5-0.8 20.9 0.7 31.3-0.7 8.1-1.2 16.3-1.9 24.5-3.3q0.3-0.1 0.7-0.1c1.4-0.2 3.2-0.3 4.5-0.9q4.7-1.1 9.2-2.6c3.4-1.1 6.6-2.5 9.6-4.1-0.1 1.4-0.1 2.7-0.2 3.6-0.6 4.8-0.2 8.9 2.6 13 0.4 0.4 0.7 0.9 1.2 1 0.7 0.3 1.3 0.1 2-0.1 6.2-2.2 11.4-7 14-13.1q0.4 1.4 0.8 2.8c-0.2-0.9 3.5-5.7 4.1-6.7q2.3-3.9 4.3-8.1c2.5-5 4-10.1 5.8-15.4 3.6-10.4 5.8-21.4 7.2-32.3 1.4-11 1.8-21.7 5.3-32.4 3-9.2 7.7-17.9 14.6-24.7-0.2 2.2 0 4.4 0.6 6.6 2.7-3.4 5.8-6.6 9.1-9.4 0 1.1-0.1 2.2-0.1 3.2 2.2-1.7 6.1-4.1 7.5-4.9 3.8-2.2 7.4-4.3 11.5-6 12.3-5.2 25.7-7.1 37.5-13.3 7.3-3.8 14-9.4 17.8-16.7 0.8 0.5 1.4 1.2 1.7 2.2 1.2-2 2.3-4.2 2.7-6.9 1.7 3.8 2.1 8.2 0.3 13z"/><path class="c" d="m188.8 326.5q0 0.6 0 1.1 0 0.2 0 0.3 0 0.6-0.1 1.1v0.1q-0.1 0.7-0.2 1.4 0 0.6-0.1 1.1-0.3 1.4-0.6 2.7-0.2 0.7-0.4 1.4c-1.2 3.8-3 7.5-4.9 11q-0.5 1.1-1.1 2.1c-1.5 2.7-3.1 5.5-4.5 8.3q-0.5 0.9-0.9 1.8-0.4 0.8-0.8 1.7-0.3 0.9-0.7 1.8 0 0 0 0-0.4 1-0.7 1.9-0.1 0.4-0.3 0.9-0.1 0.3-0.2 0.7-0.2 0.6-0.3 1.1-0.3 1-0.5 2-0.1 0.6-0.2 1.2-0.1 0.8-0.2 1.7-0.6-0.4-1.2-0.8-0.3 2.2-0.4 4.3-0.2 3.2 0 6.4-1.5-1.7-3.1-3.3v0.4q0 1 0.1 2 0 0.8 0.1 1.6 0 0.4 0 0.7 0.1 0.7 0.2 1.3 0.4 2.8 1.3 5.5 0.5 1.4 1.1 2.7 0.2 0.4 0.4 0.8c0.2 0.5 0.4 0.9 0.7 1.4 0.2 0.3 0.4 0.7 0.6 1q0.3 0.6 0.7 1.1 0.5 0.8 1.1 1.6 0.2 0.3 0.5 0.7c1.3 1.8 2.7 3.6 3.9 5.6q0.2 0.4 0.5 0.9 0.2 0.4 0.4 0.8 0 0.1 0 0.1 0.2 0.5 0.4 0.9 0.2 0.5 0.4 1 0.1 0.5 0.2 1 0.1 0.5 0.2 1c0.2 1.4 0.1 2.8 0 4.1q-0.1 2.2 0 4.4c0 2.6 0.1 5.2 0.3 7.8l0.3 4.9q0 1 0.1 2.1 0 0.9 0.1 1.7 0.1 1.3 0.1 2.5c0.2 6.6 0 13.1-1.9 19.3 0 0.1 0 0.1 0 0.2q-0.1 0.5-0.4 0.9 0 0.2-0.1 0.4-0.2 0.5-0.5 1-0.3 0.6-0.7 1.2 0 0-0.1 0-0.3 0.6-0.8 1.1-0.5 0.6-1 1.1 0 0-0.1 0-0.4 0.5-1 0.9 0 0 0 0-0.3 0.3-0.7 0.5-0.2 0.2-0.4 0.3-0.6 0.3-1.2 0.6 0 0.1-0.1 0.1-0.5 0.2-1 0.4-0.2 0.1-0.4 0.2-0.7 0.2-1.3 0.4c-2.6 0.8-5.5 0.9-8.4 0.7q-1.6-0.1-3.3-0.4c-1.1-0.1-2-0.4-3.2-0.6q-0.3-0.1-0.6-0.1-0.7-0.1-1.4-0.2h-0.1c-1.4 0-2.8 0.4-4.2 0.7-3.7 1-7.7 1.6-11.6 1.3q-0.4 0-0.8-0.1-0.5 0-1-0.1-0.2-0.1-0.5-0.1-0.4-0.1-0.9-0.2-0.3-0.1-0.7-0.3-0.4 0-0.7-0.2 0 0-0.1 0c-0.3-0.1-0.5-0.2-0.8-0.3q-0.2-0.1-0.5-0.2c-0.6-0.3-1.2-0.5-1.8-0.7q-0.3-0.1-0.6-0.1c-0.9-0.1-1.7 0.1-2.6 0.3-1.5 0.2-3.1 0.3-4.8 0.1-1.5-0.1-3-0.4-4.5-0.9-0.7-0.2-1.4-0.4-2-0.8-0.7-0.3-1.3-0.7-1.9-1.2q-0.4-0.3-0.7-0.6-0.4-0.3-0.7-0.7-0.4-0.4-0.7-0.8-0.3-0.3-0.5-0.7c-2-3.6-2-7.8-0.8-11.7 0.6-1.9 1.4-3.6 2.4-5.2 0.8-1.2 1.6-2.3 2.6-3.1 1.4-1.4 3-2.3 4.9-3 1.5-0.6 3-1 4.5-1.4q0.2 0 0.3 0c1.5-0.5 2.9-0.9 4.2-1.5q0.4-0.1 0.7-0.2 0 0 0.1-0.1 0.1 0 0.1 0 0.7-0.3 1.4-0.7 0.2-0.1 0.4-0.2 0.4-0.2 0.8-0.5 0 0 0 0 0.3-0.1 0.6-0.3 0.3-0.2 0.5-0.4 0.5-0.4 1-0.8 0.5-0.4 0.9-0.9 0.1 0 0.1-0.1 0.2-0.2 0.5-0.5 0.1-0.2 0.3-0.4 0.3-0.4 0.7-0.9 0.8-1.2 1.4-2.7 0.1-0.3 0.3-0.7 0.9-2.6 1.3-6.2c0-0.9 0.1-1.8-0.3-2.5-0.4-0.8-1.2-1.3-2-1.8q-3.3-2-6.3-4.2-5.6-4-10.2-8.9c-3.8-4.1-7.1-8.6-9.9-13.7q-1.4-2.7-2.7-5.6c-0.4 0.3-1 1.6-1.3 2.2q-0.8-1.9-1.3-4-0.7-2.5-1-5.2c-0.4 0.1-1 0.4-1.4 0.6-0.5-1.8-0.8-4.1-1-6.5q-0.1-1.3-0.1-2.7c-0.2-4.7 0.1-9.4 0.3-11.9q0.1-1 0.1-1.5 0.6-4 1.6-7.8c1.1-4.3 2.5-8.5 4.1-12.6q0.3-0.9 0.7-1.9c1.3-3 2.5-6.2 3.8-9.5q1.4-3.3 2.8-6.6 0.8-2 1.7-3.9c0.6-1.3 1.2-2.5 1.8-3.7q0.6-1.3 1.2-2.6 0.2-0.2 0.3-0.4 0.1-0.3 0.2-0.6 0.9-1.5 1.7-3.1 0 0 0-0.1 0.9-1.4 1.7-2.8 0.2-0.4 0.4-0.7 0.9-1.4 1.7-2.7 0.5-0.7 0.9-1.3 0.2-0.3 0.4-0.5 0.4-0.6 0.8-1.2 1.1-1.5 2.2-2.9 0.9-1 1.9-2.1 0.4-0.4 0.8-0.9 0.8-0.9 1.7-1.7 0.7-0.6 1.4-1.3 1-0.9 2.1-1.7c12.9-10.1 23.6 3.9 32.7 12.2q0.4 0.4 0.8 0.8 0.2 0.2 0.4 0.4 0.3 0.3 0.7 0.6 0.3 0.4 0.6 0.7c3.1 3.4 6.5 7.9 9.3 12.6q0.9 1.4 1.7 2.9 1.1 1.9 1.9 3.8 0.7 1.5 1.2 2.9 0.2 0.4 0.3 0.8 0.2 0.5 0.3 0.9 0.3 0.9 0.4 1.7 0.2 0.7 0.3 1.5 0 0.1 0 0.2 0.2 1.2 0.3 2.5 0.1 0.7 0.1 1.3z"/><path class="d" d="m110.4 355.2c-0.5 3.8-1.8 7.8-4.3 10.7q-0.1 0.2-0.2 0.3c-0.6 0.6-1.2 1.1-1.9 1.3-1 0.3-1.9-0.1-2.5-0.8-0.2-4.7 0.1-9.4 0.3-11.9q0.4-0.8 0.9-1.6c1.5-2.6 5.8-5.3 7.4-2.2q0.3 0.6 0.4 1.3c0.1 0.9 0.1 1.9-0.1 2.9z"/><path class="d" d="m159.8 319.2c-1.5 1.7-4.1 1.9-6.2 0.9q-0.2-0.1-0.4-0.2c-1.8-1-3.2-2.6-4.4-4.3-4.5-6.1 2.6-12.9 8.2-7.9 0.9 0.7 1.4 1.7 2 2.8 1.5 2.6 3.1 6 0.8 8.7z"/><path class="a" d="m111.2 351q-0.2 0.8-0.7 1.4c-0.9 1.2-2.4 1.9-3.8 2.4-1.7 0.8-3.8 2-4.2 4.1-0.5 2.3 1.3 3.8 2.6 5.3 0.4 0.5 0.8 1.2 0.8 2q0 0.2-0.1 0.5c-0.2 0.4-0.4 0.7-0.7 1-1 1.1-2.2 1.6-3.4 1.8q-0.1-1.4-0.2-2.8c-0.2-4.7 0.1-9.3 0.3-11.9q0.1-1 0.2-1.5 0.6-3.9 1.6-7.8c2.7-0.7 5.2-1.2 6.9 1.7 0.7 1 1.1 2.4 0.7 3.8z"/><path class="a" d="m136.1 334.6c1.1-0.6 2.3-1.7 2.6-3.1 0.1-0.7 0-1.3-0.3-1.9-2.6-5-11.6-4.7-15.3-1.5 1 0.3 1.9 0.6 2.7 1.3-2.4 2.5-4.7 6.8-0.3 8.2 3 1 8.1-1.5 10.6-3z"/><path class="a" d="m166.1 349c-4.7-1-12.4-5.6-13.8-6.6-6.2-4.3 2.6-11.3 7.7-11.4 4.6-0.2 9.6 3.7 11.7 7.5 0.4 0.8 0.8 1.7 0.7 2.6-0.1 0.9-0.7 1.8-1.6 1.9-0.6 0.1-1.2-0.1-1.7 0.1-0.8 0.4-0.7 1.6-0.3 2.3 0.3 0.8 1 1.6 0.9 2.4-0.2 1.4-1.6 1.6-3.6 1.2z"/><path class="a" d="m121.4 360.3c-0.6 1.1-1.2 2.4-0.9 3.4 0.2 0.4 0.5 0.8 0.8 1 2.5 2.1 6.4 1.8 9.3-0.6 0.6-0.5 1.2-1.2 1.4-2 0.1-0.4 0.1-0.8 0-1.2-0.4-3.1-2.2-9.2-5.3-9.6-1.7-0.3-1.9 1-2.3 2.6-0.6 2.3-1.9 4.2-3 6.3z"/><path class="a" d="m152.3 365.8c3 1.5 6.3 0.8 6.9-4.8 0.6-5-6.2-9.2-10.1-6.4-4.4 3.2-0.9 9.2 3.2 11.2z"/><path class="a" d="m130.4 410.6q-5.6-4.1-10.2-8.9 0-0.3-0.1-0.6c0-0.7 0.1-1.4 0.6-2 1.2-1.4 4.2 0.2 5.5 1.1 1.9 1.3 3.4 2.9 4.9 4.6 1.8 2 1.2 4.5-0.7 5.7z"/><path class="a" d="m136.7 433.7c-2.3 5.8-12.2 2.8-16.7 5.6-0.9 0.6-1.8 1.3-2.8 1.7-1.1 0.4-2.4 0.3-3.1-0.4q-0.1 0-0.1-0.1c1.4-1.4 3.1-2.3 4.9-3 1.5-0.6 3-0.9 4.6-1.3q0.1-0.1 0.2-0.1 2.3-0.6 4.3-1.4 1.8-0.8 3.4-1.7 0 0 0-0.1c1.5-0.9 2.8-2 3.9-3.3 1.5 1.1 2.1 2.3 1.4 4.1z"/><path class="a" d="m137.4 444.7c1.2 0.4 2.6 0.2 4-0.1 0.9-0.2 1.8-0.5 2.5-1 3.2-2.2-1.2-4-3.5-3.7-2.9 0.3-7.2 3.5-3 4.8z"/><path class="a" d="m159.7 441.2c-1.7 2-0.2 6.9 2.8 6.7 1.4-0.2 2.3-1.8 3.6-2.3 1.1-0.4 2.8 0 2.1-2.1-1.3-3.6-5.8-5.5-8.5-2.3z"/><path class="a" d="m142.8 451.5c1.3 0.3 2.4 1 2.5 2.1 0 1.2-1.2 2.2-2.4 2.4-2.3 0.2-6.6-3.6-2.8-4.6 0.7-0.1 1.7-0.1 2.7 0.1z"/><path class="a" d="m127.5 448c1.3-3.6-4.5-4.8-4.1-0.1 0 0.5 0.1 0.9 0.4 1.3 0.5 0.9 1.7 1.2 2.6 0.8 1-0.4 1.5-1.6 1.2-2.5-0.3 0.7 0.1-0.2-0.1 0.5z"/><path class="a" d="m111.9 386.8c-0.4 0.6-0.9 0.9-1.6 1.1q-1.4-2.7-2.7-5.6c-0.3 0.4-0.9 1.6-1.2 2.2q-0.8-1.9-1.4-3.9c1.1-2.3 3.4-1.8 5.2-0.3 1.8 1.6 3 4.3 1.7 6.5z"/><path class="a" d="m135.6 297.7c-0.4 2.8-2.2 5.3-4.1 7.5-2 2.3-4.2 4.5-6.8 5.9-2.9 1.4-5.6 1.2-8-0.1 0.5-1.2 1.1-2.5 1.7-3.7 2.2-4.5 4.6-8.9 7.3-13 1.4-2 2.8-4 4.3-5.8q0.4 0.2 0.7 0.5c2.7 1.9 5.3 5.2 4.9 8.7z"/><path class="d" d="m133.9 329c0.4 0.3 0.7 0.6 0.8 1.2 0.6 2.7-4.6 3.6-6.1 3.1-0.3-0.1-0.5-0.2-0.6-0.4-0.1-0.2-0.1-0.5-0.1-0.7 0.5-1.9 4.2-4.1 6-3.2z"/><path class="d" d="m125.7 305.6c-1.7 1.2-4.8 2-7.3 1.7 2.2-4.5 4.6-8.9 7.3-13q0.4 0.3 0.8 0.7c3.5 3.5 3.3 7.8-0.8 10.6z"/><path class="a" d="m166.1 304c5.4 7-2.6 23.5-12 17.9-0.7-0.4-1.2-1.3-0.9-2q0-0.1 0.1-0.1c0.1-0.5 0.5-0.7 0.9-1 1.6-1.5 2.2-4.1 1.3-6.1-0.9-2-3.1-3.3-5.3-3.1-0.7 0-1.5 0.2-1.9 0.7-0.5 0.6-0.8 1.4-1.4 1.7q-0.1 0.1-0.2 0.1c-0.8 0.3-1.7-0.6-1.8-1.5-0.8-7.3 8.7-10.3 14.4-10 2.6 0.2 5.2 1.3 6.8 3.4z"/><path class="a" d="m110.6 330.5c-0.8 1.1-1.9 1.9-3 2.5q0.4-1 0.8-1.9c1.2-3.1 2.5-6.3 3.8-9.6 2.8 0.9 1.4 5.7-1.6 9z"/><path class="a" d="m133.2 349.9q-0.2-0.2-0.3-0.3c-0.8-0.6-2.5-0.9-3.3-0.4-0.6 0.4-0.5 0.9-0.1 1.3q1.6 1.8 3.1 3.7c0.5 0.5 1.2 1 1.8 0.6 0.4-0.3 0.3-0.9 0.2-1.4-0.2-1.2-0.5-2.6-1.4-3.5z"/><path class="a" d="m179.2 457.6q-0.1 0.5-0.3 0.9-0.1 0.2-0.2 0.4-0.2 0.5-0.5 1-0.3 0.6-0.7 1.2 0 0 0 0-0.4 0.6-0.9 1.1-0.4 0.6-0.9 1.1-0.1 0-0.1 0-0.5 0.5-1 0.9 0 0-0.1 0-0.3 0.3-0.7 0.5c-1.8 0.2-3.8-0.2-5.4-0.8-1.8-0.7-5.9-4.6-1.6-5.6 0.3 0 0.7 0 1.1-0.1 0.6 0 1.3 0.1 2-0.1 1.9-0.6 2.7-3.3 4.7-3.8 1.1-0.3 2.4 0.2 3.2 1 0.7 0.6 1.1 1.4 1.4 2.3z"/><path class="a" d="m181.4 348.8c-1.5 2.7-3.1 5.5-4.5 8.3q-0.2-0.2-0.3-0.4c-2.3-2.2-1.8-5.4 0.3-7.6 1.4-1.6 3.2-1.5 4.5-0.3z"/><path class="a" d="m180.9 433.9c-1.6 0.9-3.6 1.4-5.1 1.2-2.6-0.3-6.2-2.1-5.7-5.3 0.3-1.7 1.6-3.3 3.3-2.5 1.8 0.7 2.6 2.2 4.2 1.6q0.4-0.2 1-0.6c0.5-0.5 1.2-1 1.9-1.4 0.1 2.3 0.3 4.7 0.4 7z"/><path class="a" d="m150.3 428.5c-1 0.4-2 1.1-2.7 1.7-0.7 0.6-2.1 1.9-1.2 2.8 0.3 0.3 0.7 0.4 1.2 0.4 1.7 0.1 5-0.1 6.1-1.6 1.2-1.5 0.5-3.2-1.4-3.5-0.6-0.2-1.3 0-2 0.2z"/><path class="a" d="m188.8 327.6c-1.3-0.4-2.5-1.1-3.6-1.8q-2-1.2-3.9-2.5c-2.1-1.5-3.7-5-0.5-6.7 1.3-0.6 3-0.4 4.3-1.1q0.5-0.3 0.9-0.8c1 2.3 1.8 4.4 2.2 6.3q0.7 3.4 0.6 6.6z"/><path class="a" d="m148 281.5c1.3-1.8 3.5-2.6 5 0.6 1 1.9-0.4 4.5-2.5 4.8-4.1 0.5-4-3.2-2.5-5.4z"/><path class="a" d="m167.8 384.5q0.4 2.8 1.3 5.5c-3.5-1.2-6.9-2.8-9.7-5.1-4.1-3.4-8.9-11.6-1.6-14.3 4.8-1.9 9 1.7 12.7 4.8q-0.2 3.2 0 6.4-1.5-1.6-3.1-3.2v0.3q0 1 0.1 2 0 0.8 0.1 1.6 0 0.4 0.1 0.7 0 0.7 0.1 1.3z"/><path class="a" d="m180.3 414.8q-0.1 2.1-0.1 4.3c-1.1 0.5-2.3 0.7-3.5 0.9q-0.3 0.1-0.6 0.1c-1.9 0.2-4.4 0.3-6.6-0.1-2.2-0.5-4.1-1.5-5-3.4-0.7-1.6 0.2-3.9 1.4-6.1 1-2.1 2.2-4.2 2.5-5.8 0.2-1.4 0.5-2.9 1.4-4 0.9-1.1 2.6-1.5 4.4-1.4q0 0 0 0c1.4 1.8 2.8 3.7 3.9 5.6q0.3 0.5 0.5 0.9 0.2 0.4 0.4 0.8 0.1 0.1 0.1 0.2 0.2 0.4 0.4 0.9 0.2 0.5 0.3 0.9 0.2 0.5 0.3 1 0.1 0.6 0.1 1.1c0.2 1.3 0.1 2.7 0.1 4.1z"/><path class="a" d="m157.8 412.8c9-7.9 4.8-20.4-2.4-28.2-3.2-3.5-7-6.4-11.6-7.6-9-2.3-21.4 5-16.6 15.5 1.6 3.4 4.9 5.6 8.4 6.3 3 0.5 5.2 0.7 6 3.9 0.5 2.5-1 5-0.5 7.5 1.6 6.9 11.9 6.5 16.4 2.8q0.1-0.1 0.2-0.2z"/><path class="e" d="m188.8 326.5q0 0.6 0 1.1 0 0.2 0 0.3 0 0.6-0.1 1.1v0.1q-0.1 0.7-0.2 1.4 0 0.6-0.1 1.1-0.3 1.4-0.6 2.7-0.2 0.7-0.4 1.4c-1.2 3.8-3 7.5-4.9 11q-0.5 1.1-1.1 2.1c-1.5 2.7-3.1 5.5-4.5 8.3q-0.5 0.9-0.9 1.8-0.4 0.8-0.8 1.7-0.3 0.9-0.7 1.8 0 0 0 0-0.4 1-0.7 1.9-0.1 0.4-0.3 0.9-0.1 0.3-0.2 0.7-0.2 0.6-0.3 1.1-0.3 1-0.5 2-0.1 0.6-0.2 1.2-0.1 0.8-0.2 1.7-0.6-0.4-1.2-0.8-0.3 2.2-0.4 4.3-0.2 3.2 0 6.4-1.5-1.7-3.1-3.3v0.4q0 1 0.1 2 0 0.8 0.1 1.6 0 0.4 0 0.7 0.1 0.7 0.2 1.3 0.4 2.8 1.3 5.5 0.5 1.4 1.1 2.7 0.2 0.4 0.4 0.8c0.2 0.5 0.4 0.9 0.7 1.4q0.3 0.5 0.6 1 0.3 0.6 0.7 1.1 0.5 0.8 1.1 1.6 0.2 0.3 0.5 0.7 0 0 0 0c1.3 1.8 2.8 3.6 3.9 5.6q0.2 0.4 0.5 0.9 0.2 0.4 0.4 0.8 0 0.1 0.1 0.1 0.2 0.5 0.3 0.9 0.2 0.5 0.4 1 0.1 0.5 0.2 1 0.2 0.5 0.2 1c0.2 1.4 0.1 2.8 0 4.1q0 2.2 0 4.4c0 2.6 0.1 5.2 0.3 7.8l0.3 4.9q0.1 1 0.1 2.1 0.1 0.9 0.1 1.7 0.1 1.3 0.1 2.5c0.2 6.6 0 13.1-1.8 19.3-0.1 0.1-0.1 0.1-0.1 0.2q-0.1 0.5-0.3 0.9-0.1 0.2-0.2 0.4-0.2 0.5-0.5 1-0.3 0.6-0.7 1.2 0 0 0 0-0.4 0.6-0.9 1.1-0.5 0.6-1 1.1 0 0 0 0-0.5 0.5-1 0.9-0.1 0-0.1 0-0.3 0.3-0.7 0.5-0.2 0.2-0.4 0.3-0.6 0.3-1.2 0.6 0 0.1-0.1 0.1-0.5 0.2-1 0.4-0.2 0.1-0.4 0.2-0.6 0.2-1.3 0.4c-2.6 0.8-5.5 0.9-8.4 0.7q-1.6-0.1-3.3-0.4c-1-0.1-2-0.4-3.2-0.6q-0.3-0.1-0.6-0.1-0.7-0.1-1.4-0.2c-1.5 0-2.9 0.4-4.2 0.7-3.8 1-7.8 1.6-11.7 1.3q-0.4 0-0.8-0.1-0.4 0-0.9-0.1-0.3-0.1-0.6-0.1-0.4-0.1-0.9-0.2-0.3-0.1-0.7-0.3-0.3 0-0.7-0.2 0 0-0.1 0c-0.3-0.1-0.5-0.2-0.8-0.3q-0.2-0.1-0.5-0.2c-0.5-0.3-1.2-0.5-1.8-0.7q-0.3-0.1-0.6-0.1c-0.9-0.1-1.7 0.1-2.6 0.3-1.5 0.2-3.1 0.3-4.8 0.1-1.5-0.1-3-0.4-4.5-0.9-0.7-0.2-1.3-0.4-2-0.8-0.7-0.3-1.3-0.7-1.9-1.2q-0.4-0.3-0.7-0.6-0.4-0.3-0.7-0.7-0.3-0.4-0.7-0.8-0.3-0.3-0.5-0.7c-2-3.6-2-7.8-0.8-11.7q0.4 1.5 0.9 2.9 0.1 0.2 0.2 0.4c0.6 1.4 1.6 2.6 2.7 3.6q0.7 0.7 1.6 1.1c1.9 1.2 4.2 1.8 6.5 1.4 3-0.5 9.2-4.8 9.3-8.5 0 1 0 2.1 0.2 3.2 0.3 1.8 0.9 3.5 2.3 4.5 0.2 0.1 0.4 0.2 0.7 0.4 0.9 0.4 2.1 0.7 3.3 0.9 2.1 0.2 4.3 0.1 5.9-0.2 3.8-0.6 6.7-2.6 8.4-5.7q0.1 0 0.1 0 0.9-1.7 1.3-3.8 0.1-0.3 0.1-0.7 0 0.3-0.1 0.6c-0.3 3.7 0.8 6.4 3.1 7.9q0.9 0.6 2 1 1.8 0.6 3.9 0.7c5.8 0.2 10.3-2.4 12-8 0.5-1.3 0.6-2.7 0.7-4-0.7 0.5-2.3 1.2-3.6 1.5 1-2.9 1.7-9.8 1.6-14.2q0-1-0.1-1.8-0.3-2.3-0.7-4.5-0.7-3.8-1.9-7.5-0.9-3.1-2.1-6.1-0.7-1.8-1.5-3.4c-0.9-1.7-1.9-3.4-2.9-5-3-4.7-6.5-9.1-9-14.2q-0.7 1.4-1.4 2.9c-2.7-5-4.7-10.5-5.7-16.1q-0.2-0.8-0.3-1.6-0.2 0.6-0.4 1.2-1 2.7-2.1 5.4-1.7-3.4-3.4-6.6c-3.2-5.9-6.1-11.5-8.9-17.3q-0.1 0-0.1 0-1.7-3.6-3.5-7.3c-2.4-5-4.8-10.3-7.3-16.1-2.9-6.6-5.4-14.7-5.9-20.9q0.8-2 1.7-4c0.6-1.2 1.1-2.4 1.7-3.6q0.7-1.4 1.3-2.6 0.1-0.2 0.2-0.5 0.2-0.2 0.3-0.5 0.8-1.6 1.7-3.1 0-0.1 0-0.1 0.8-1.4 1.7-2.8 0.2-0.4 0.4-0.8 0.8-1.3 1.7-2.6 0.5-0.7 0.9-1.3 0.1-0.3 0.4-0.5 0.4-0.7 0.8-1.2 1.1-1.5 2.2-2.9 0.9-1 1.9-2.1 0.4-0.4 0.8-0.9 0.8-0.9 1.7-1.7 0.7-0.6 1.4-1.3 1-0.9 2.1-1.7c12.9-10.1 23.6 3.9 32.7 12.2q0.4 0.4 0.8 0.8 0.2 0.2 0.4 0.4 0.3 0.3 0.6 0.6 0.4 0.4 0.7 0.7c3.1 3.4 6.5 7.9 9.3 12.6q0.9 1.4 1.7 2.8 1 2 1.9 3.9 0.7 1.5 1.2 2.9 0.2 0.4 0.3 0.8 0.2 0.5 0.3 0.9 0.3 0.9 0.4 1.7 0.2 0.7 0.3 1.5 0 0.1 0 0.2 0.2 1.2 0.3 2.4v0.1q0.1 0.7 0.1 1.3z"/><path class="e" d="m123.7 436.1c3.3 0 7 0.2 9.9 1.6 0.4 0.2 0.9 0.4 1.4 0.5 0.6 0 1.2-0.3 1.8-0.5 3.2-1.3 6.9-1.4 10.2-0.2 1.7 0.6 3.4 1.6 5.3 1.4 1.2-0.1 2.3-0.8 3.5-1.1 1.1-0.3 2.3-0.5 3.4-0.5q1 0 2 0.1c0.4 0.1 2 0.2 2.1 0.4-3.8-7.3-10.7-14.9-17.9-18.8-2.4-1.4-6.2-3.2-8.7-4.3 0.8 0.5 1.6 1 2 1.8 0.4 0.7 0.4 1.6 0.3 2.5-1 10.9-6.5 14.6-15.3 17.1z"/><path class="f" d="m109.8 456.4q0.1 0.8 0.1 1.5c0.2 2.7 0.8 5.3 1.4 7.7 0.2-3.1 1.1-5.9 2.2-7.6 0.6-0.8 1.2-1.4 1.7-2.5 0.6-1.5 0.6-4 0.2-5.7-0.3-1-1-1.9-1.7-2.3q-0.4-0.3-0.7-0.3c-0.9 0-1.8 1.1-2.4 2.8-0.4 1.1-0.6 2.3-0.7 3.7q-0.1 1.3-0.1 2.7z"/><path class="g" d="m109.8 456.4q0.1 0.8 0.1 1.5c0.2 2.7 0.8 5.3 1.4 7.7 0.2-3.1 1.1-5.9 2.2-7.6 0.6-0.8 1.2-1.4 1.7-2.5 0.6-1.5 0.6-4 0.2-5.7-0.3-1-1-1.9-1.7-2.3 0.3 0.7 0.6 1.6 0.6 1.8 0.4 1.2 0.4 2.9 0 4-0.2 0.3-0.3 0.6-0.5 0.9l-1.8 2.9c-0.2 0.4-0.5 0.9-0.8 1-0.4 0.1-0.7-0.5-0.9-1.3-0.2-1-0.3-2.3-0.4-3.1q-0.1 1.3-0.1 2.7z"/><path class="f" d="m131.5 470c0.6-3.7 1.7-7.2 3.4-9.1 0.8-0.8 1.6-1.5 2.1-2.8 0.5-1.1 0.6-2.6 0.6-4-0.1-2.7-0.6-5-1.8-6-0.2-0.2-0.4-0.4-0.7-0.5-1.8-0.9-3.1-0.1-4.2 3.1q-0.5 1.9-0.8 4c0 0.6 0 1.1-0.1 1.6q0 0.4 0 0.7c-0.2 4.5 0.3 9.1 1.5 13z"/><path class="g" d="m131.5 470c0.6-3.7 1.7-7.2 3.4-9.1 0.8-0.8 1.6-1.5 2.1-2.8 0.5-1.1 0.6-2.6 0.6-4-0.1-2.7-0.6-5-1.8-6 0.2 0.9 0.4 2 0.5 2.7 0.2 1.4 0.3 2.9-0.2 4.1-0.5 1.1-1.3 1.7-2 2.3q-0.9 0.7-1.7 1.5c-0.3 0.3-0.7 0.8-1 0.6-0.4-0.1-0.7-1-0.8-1.7-0.2-0.7-0.5-2.1-0.5-2.9 0 0.6-0.1 1.1-0.1 1.6q0 0.3 0 0.7c-0.2 4.5 0.3 9.1 1.5 13z"/><path class="f" d="m150.9 454.8c-0.1 2.8 0.4 5.5 1 8.1q0.6 3 1.2 6 0.1 0.4 0.1 0.7c-0.1-0.8 0.6-2.7 0.8-3.5q0.6-1.9 1.3-3.6c1-2.3 2.3-4.2 3-6.7 0.9-3 0.4-5.6-1.3-7.5q-0.1-0.2-0.2-0.3-0.3-0.3-0.7-0.4c-3.3-1.6-5.1 3.3-5.2 7.2z"/><path class="g" d="m150.9 454.8c-0.1 2.8 0.4 5.5 1 8.1q0.6 3 1.2 6 0.1 0.4 0.1 0.7c-0.1-0.8 0.6-2.7 0.8-3.5q0.6-1.9 1.3-3.6c1-2.3 2.3-4.2 3-6.7 0.9-3 0.4-5.6-1.3-7.5 0.1 1.4 0.6 2.2 0.4 3.7-0.2 1.6-0.6 3.1-1.4 4.3-0.5 0.6-1 1.1-1.4 1.6q-0.8 1-1.2 2.3-0.1 0.1-0.2 0.2c-0.1 0.1-0.2 0-0.3-0.1-1.2-1.3-1.6-3.4-2-5.5z"/><path class="h" d="m278.2 376c-0.3-0.3-1-0.6-1.3-0.6-0.4 3.1-1.1 6.2-2.4 9.2-0.2-0.7-0.9-1.9-1.2-2.3-6.1 14.2-15.8 24.4-29.1 32.5-0.8 0.4-1.6 0.9-2 1.7-0.4 0.8-0.4 1.7-0.3 2.5 0.7 7.2 3.2 11.2 7.4 13.9q1.6 1 3.4 1.7 0 0 0.1 0c1.3 0.6 2.8 1.1 4.3 1.5q0.2 0.1 0.3 0.1c1.6 0.4 3.1 0.8 4.6 1.3 3 1.2 5.5 3 7.5 6.2 1 1.6 1.8 3.3 2.3 5.1 1.2 3.9 1.3 8.2-0.8 11.7-0.3 0.6-0.7 1.1-1.1 1.6-0.4 0.4-0.9 0.9-1.4 1.3-0.6 0.4-1.3 0.8-1.9 1.2-0.7 0.3-1.4 0.6-2.1 0.8-1.4 0.5-2.9 0.7-4.4 0.9-1.7 0.1-3.4 0.1-4.9-0.2-0.8-0.1-1.7-0.3-2.5-0.3q-0.4 0.1-0.7 0.1c-0.7 0.2-1.5 0.6-2.2 0.9-1.6 0.7-3.2 1.1-4.8 1.3q-0.4 0-0.8 0c-3.8 0.4-7.8-0.3-11.6-1.2-1.4-0.3-2.8-0.7-4.2-0.7q-1.1 0-2.1 0.2c-1.1 0.3-2.1 0.5-3.2 0.7-1.1 0.2-2.2 0.3-3.3 0.4-2.8 0.2-5.7 0-8.4-0.8-4.6-1.2-8.4-4.6-9.8-9.3-1.9-6.2-2.1-12.7-1.9-19.3q0.1-1.2 0.1-2.5c0.4-7 1.1-14 0.8-20.8 0-1.4-0.1-2.8 0.1-4.1 0.6-5.2 4.7-9.3 7.6-13.7 3.8-5.7 5.2-11.7 5.2-18.4q-1.6 1.6-3.1 3.2c0.2-3.5 0.1-7.1-0.4-10.6q-0.6 0.3-1.3 0.7c-1.7-18.3-20.2-31.2-16-50.9 1.9-8.6 11.2-22.1 17.7-28.1 9-8.2 19.7-22.2 32.6-12.2 10.4 8.1 17.4 21.2 22.9 34.2 2.4 5.5 4.6 11 6.6 16.2 2.9 7.1 5.3 14.6 6.4 22.2 0.4 2.5 1.3 15.3-0.7 22.7z"/><path class="i" d="m271.1 460.5q-0.3 0.4-0.5 0.8-0.3 0.4-0.7 0.8c-0.2 0.2-0.5 0.5-0.8 0.7q-0.3 0.3-0.6 0.6-0.3 0.2-0.6 0.3-0.3 0.3-0.6 0.5-0.3 0.2-0.7 0.3-0.5 0.3-1 0.5-0.1 0-0.2 0.1c-1.7 0.7-3.5 1-5.3 1.2-1.7 0.1-3.4 0.1-4.9-0.2-0.8-0.2-1.7-0.4-2.5-0.3q-0.3 0.1-0.7 0.1c-0.7 0.2-1.5 0.6-2.2 0.9q-0.7 0.3-1.4 0.5-1.3 0.4-2.5 0.6-0.5 0.1-0.9 0.1-0.4 0.1-0.7 0.1c-3.9 0.4-7.9-0.3-11.7-1.2-1.4-0.4-2.8-0.7-4.2-0.7q-1 0-2 0.2-0.8 0.2-1.6 0.3-0.9 0.2-1.7 0.4-0.9 0.1-1.6 0.2c-0.6 0.1-1.1 0.1-1.6 0.2-2.9 0.2-5.8 0-8.5-0.8-3-0.8-5.7-2.4-7.7-5.1q-0.4-0.5-0.7-1-0.3-0.5-0.6-1.1c0-0.1-0.1-0.3-0.2-0.4q-0.1-0.4-0.3-0.7-0.1-0.5-0.3-1c-1.9-6.2-2.1-12.7-1.9-19.3q0.1-1.2 0.1-2.5c0.4-7 1.1-14 0.8-20.8 0-1.4-0.1-2.8 0.1-4.1 0.3-2.8 1.6-5.3 3.3-7.6 0.8 2.2 2.1 4.3 3.7 6 0.6-1.1 1.5-2.1 2.7-2.7 0.6 1.9 1.6 3.6 3 5-0.2-0.2 0.8-5.8 1.1-6.1 2.6-2.9 10.7 1.8 13.2 3.1 1.5-1.4 2.6-3.1 3.1-5 2-0.5 2.6 3.1 4.6 3.4 0.7 0.1 1.4-0.3 2-0.6q3.1-1.9 5.8-4.1c0.2 2.4 0 4.8-0.7 7 2.7 0.7 5.4 1.1 8.2 1.3q-3.1 2.3-6.5 4.4c-0.4 0.2-0.9 0.5-1.2 0.8q-0.5 0.4-0.8 0.9c-0.4 0.8-0.4 1.7-0.3 2.5 0.6 7.1 3.2 11.2 7.4 13.8q1.5 1 3.3 1.7c1.5 0.7 3.1 1.2 4.8 1.7q0.8 0.2 1.5 0.3 1.6 0.5 3.1 1c3.1 1.2 5.5 3 7.5 6.2 1 1.5 1.8 3.3 2.4 5.1 1.1 3.9 1.2 8.2-0.9 11.7z"/><path class="j" d="m271.1 460.5c-0.4 0.6-0.8 1.1-1.2 1.6-0.4 0.4-0.9 0.9-1.4 1.3-0.6 0.4-1.3 0.8-1.9 1.2-0.7 0.3-1.4 0.6-2.1 0.8-1.4 0.5-2.9 0.7-4.4 0.9-1.7 0.1-3.3 0.1-4.9-0.2-0.8-0.2-1.7-0.4-2.5-0.3q-0.3 0.1-0.6 0.1c-0.8 0.2-1.6 0.6-2.3 0.9-1.5 0.7-3.1 1.1-4.8 1.3q-0.3 0-0.7 0c-3.9 0.4-7.9-0.3-11.7-1.2-1.4-0.3-2.8-0.7-4.2-0.7q-1 0-2 0.2c-1.2 0.3-2.2 0.5-3.3 0.7-1.1 0.2-2.2 0.3-3.2 0.4-2.9 0.2-5.8 0-8.5-0.8-4.6-1.3-8.4-4.6-9.8-9.3-1.8-6.2-2.1-12.7-1.8-19.3q0-1.2 0.1-2.5c0.3-7 1-14 0.7-20.8 0-1.4-0.1-2.8 0.1-4.1 0.6-5.2 4.7-9.3 7.6-13.7 3.8-5.7 5.2-11.7 5.2-18.4q-1.6 1.6-3.1 3.2c0.2-3.5 0.1-7.1-0.4-10.6q-0.6 0.3-1.3 0.7c-1.7-18.3-20.2-31.2-16-50.9 1.9-8.6 11.2-22.1 17.7-28.1 9-8.2 19.7-22.2 32.6-12.2 10.4 8.1 17.4 21.2 23 34.2-0.6 6.2-3.1 14.4-6 21-7.7 17.7-14.5 31.1-23.2 47.2q-1.2-3.3-2.5-6.5c-0.9 6.2-3 12.2-6 17.7q-0.7-1.5-1.4-3c-3.9 7.9-10.1 14.1-13.4 22.6-2.2 5.8-3.9 11.9-4.6 18.1-0.5 4.2 0.3 12.7 1.4 16-1.2-0.3-2.8-1-3.6-1.5 0.2 1.4 0.3 2.8 0.7 4.1 1.7 5.6 6.3 8.1 12 7.9 6.2-0.2 9.8-3.6 9-10.1 0.7 5.6 4.5 9.3 9.9 10.1 2.7 0.5 7.4 0.6 9.9-1.1 2.2-1.6 2.5-5.2 2.5-7.7 0 3.7 6.3 8 9.2 8.5 4.6 0.8 9.2-2.1 11-6.4q0.6-1.5 0.9-3c1.2 3.9 1.3 8.2-0.8 11.7z"/><path class="j" d="m257.2 436.1c-3.3 0-7 0.3-9.9 1.6-0.4 0.2-0.9 0.5-1.3 0.5-0.7 0.1-1.3-0.2-1.9-0.5-3.2-1.2-6.9-1.3-10.2-0.2-1.7 0.6-3.4 1.6-5.3 1.5-1.2-0.1-2.3-0.9-3.5-1.2-1.1-0.3-2.2-0.5-3.4-0.5q-1 0-2 0.2c-0.3 0-2 0.1-2.1 0.4 3.8-7.3 10.7-15 17.9-18.9 2.5-1.3 6.2-3.1 8.7-4.2-0.8 0.4-1.6 0.9-2 1.7-0.4 0.8-0.4 1.7-0.3 2.5 1 10.9 6.5 14.7 15.3 17.1z"/><path class="k" d="m271.1 460.5c-0.4 0.6-0.8 1.1-1.2 1.6-0.4 0.4-0.9 0.9-1.4 1.3-0.6 0.4-1.3 0.8-1.9 1.2-0.7 0.3-1.4 0.6-2.1 0.8-1.4 0.5-2.9 0.7-4.4 0.9-1.7 0.1-3.3 0.1-4.9-0.2-0.8-0.2-1.7-0.4-2.5-0.3q-0.3 0.1-0.6 0.1c-0.8 0.2-1.6 0.6-2.3 0.9-1.5 0.7-3.1 1.1-4.8 1.3q-0.3 0-0.7 0c-3.9 0.4-7.9-0.3-11.7-1.2-1.4-0.3-2.8-0.7-4.2-0.7q-1 0-2 0.2c-1.2 0.3-2.2 0.5-3.3 0.7-1.1 0.2-2.2 0.3-3.2 0.4-2.9 0.2-5.8 0-8.5-0.8-4.6-1.3-8.4-4.6-9.8-9.3-1.8-6.2-2.1-12.7-1.8-19.3 2.6-2.3 6.3-3.5 10.1-3.9 3.1-0.4 6.4-0.4 9.6 0.1 2.8 0.4 5.8 2.2 8.5 2.4 2.5 0.1 5.3-1.8 7.8-2.1 2.7-0.4 5.6-0.2 8.2 0.6 0.9 0.2 1.8 0.5 2.7 0.6 1 0 2-0.4 2.9-0.7q1.5-0.4 3-0.5 0.1 0 0.1 0 0 0 0.1 0c1.3 0.6 2.8 1.1 4.4 1.5q0.1 0 0.2 0.1c1.6 0.4 3.1 0.8 4.6 1.3 3.1 1.2 5.5 3 7.5 6.2 1 1.6 1.8 3.3 2.3 5.1 1.2 3.9 1.3 8.2-0.8 11.7z"/><path class="k" d="m271.1 460.5c-0.4 0.6-0.8 1.1-1.2 1.6-0.4 0.4-0.9 0.9-1.4 1.3-0.6 0.4-1.3 0.8-1.9 1.2-0.7 0.3-1.4 0.6-2.1 0.8-1.4 0.5-2.9 0.7-4.4 0.9-1.7 0.1-3.3 0.1-4.9-0.2-0.8-0.2-1.7-0.4-2.5-0.3q-0.3 0.1-0.6 0.1c-0.8 0.2-1.6 0.6-2.3 0.9-1.5 0.7-3.1 1.1-4.8 1.3q-0.3 0-0.7 0c-3.9 0.4-7.9-0.3-11.7-1.2-1.4-0.3-2.8-0.7-4.2-0.7q-1 0-2 0.2c-1.2 0.3-2.2 0.5-3.3 0.7-1.1 0.2-2.2 0.3-3.2 0.4-2.9 0.2-5.8 0-8.5-0.8-4.6-1.3-8.4-4.6-9.8-9.3-2.1-6.9-2.1-14.3-1.7-21.8q1.8-1.5 4.5-2.5c7.6-2.9 16.4-2.1 23.4 2 5.9-3 13-3.3 19.1-1q1.1-0.8 2.4-1.3c2.2 1.4 4.9 2.4 7.9 3.3q0.1 0 0.3 0.1c1.5 0.4 3 0.7 4.5 1.3 3.1 1.2 5.5 3 7.5 6.2 1 1.5 1.8 3.3 2.4 5.1 1.1 3.9 1.2 8.2-0.8 11.7z"/><path class="f" d="m271.1 456.4q-0.1 0.8-0.1 1.6c-0.2 2.7-0.8 5.2-1.4 7.6-0.2-3-1.1-5.8-2.2-7.6-0.6-0.8-1.2-1.4-1.7-2.5-0.5-1.5-0.6-3.9-0.2-5.7 0.3-1 1-1.9 1.7-2.3q0.4-0.2 0.7-0.2c0.9-0.1 1.8 1.1 2.4 2.8 0.4 1 0.6 2.3 0.7 3.6q0.1 1.3 0.1 2.7z"/><path class="g" d="m271.1 456.4q-0.1 0.8-0.1 1.6c-0.2 2.7-0.8 5.2-1.4 7.6-0.2-3-1.1-5.8-2.2-7.6-0.6-0.8-1.2-1.4-1.7-2.5-0.5-1.5-0.6-3.9-0.2-5.7 0.3-1 1-1.9 1.7-2.3-0.3 0.7-0.6 1.7-0.6 1.9-0.4 1.2-0.4 2.8 0 3.9 0.2 0.3 0.3 0.6 0.5 0.9l1.8 2.9c0.2 0.5 0.5 0.9 0.8 1 0.4 0.1 0.7-0.5 0.9-1.3 0.2-0.9 0.3-2.3 0.4-3.1q0.1 1.3 0.1 2.7z"/><path class="f" d="m249.4 470c-0.6-3.6-1.7-7.2-3.4-9.1-0.8-0.8-1.6-1.5-2.1-2.8-0.5-1.1-0.6-2.6-0.6-4 0.1-2.7 0.6-4.9 1.8-6 0.2-0.2 0.4-0.3 0.7-0.5 1.8-0.8 3.1-0.1 4.1 3.2q0.6 1.8 0.9 4c0 0.5 0 1 0.1 1.6q0 0.3 0 0.6c0.2 4.5-0.3 9.1-1.5 13z"/><path class="g" d="m249.4 470c-0.6-3.6-1.7-7.2-3.4-9.1-0.8-0.8-1.6-1.5-2.1-2.8-0.5-1.1-0.6-2.6-0.6-4 0.1-2.7 0.6-4.9 1.8-6-0.2 0.9-0.4 2.1-0.5 2.7-0.2 1.4-0.3 2.9 0.2 4.1 0.5 1.2 1.3 1.7 2 2.3q0.9 0.8 1.7 1.5c0.3 0.3 0.7 0.8 1 0.7 0.4-0.2 0.7-1.1 0.8-1.8 0.2-0.6 0.6-2.1 0.5-2.9 0 0.6 0.1 1.1 0.1 1.7q0 0.3 0 0.6c0.2 4.5-0.3 9.1-1.5 13z"/><path class="f" d="m230 454.9c0.1 2.7-0.4 5.4-1 8q-0.6 3-1.2 6.1-0.1 0.3-0.1 0.6c0.1-0.8-0.6-2.7-0.8-3.4q-0.6-1.9-1.3-3.7c-1-2.2-2.3-4.2-3-6.6-0.9-3-0.4-5.7 1.3-7.6q0.1-0.1 0.2-0.2 0.3-0.3 0.7-0.5c3.3-1.5 5.1 3.4 5.2 7.2z"/><path class="g" d="m230 454.9c0.1 2.7-0.4 5.4-1 8q-0.6 3-1.2 6.1-0.1 0.3-0.1 0.6c0.1-0.8-0.6-2.7-0.8-3.4q-0.6-1.9-1.3-3.7c-1-2.2-2.3-4.2-3-6.6-0.9-3-0.4-5.7 1.3-7.6-0.1 1.4-0.6 2.2-0.4 3.7 0.2 1.6 0.6 3.1 1.4 4.3 0.5 0.6 1 1.1 1.4 1.7q0.8 1 1.2 2.2 0.1 0.2 0.2 0.2c0.1 0.1 0.2 0 0.3-0.1 1.2-1.3 1.6-3.4 2-5.5z"/><path class="f" d="m91.9 303.7c-0.9-3.5-1.3-9.2 0-12.7 0.1-0.4-1.7-1-1.9-1-0.8-0.2-1.7-0.1-2.5 0.1-0.8 0.2-2.5 0.8-3.1 1.3-0.7 0.6-1.4 1.2-1.1 2.1q0.6 1.8 1.6 3.4c1.3 2.1 4.8 5.6 7 6.8z"/><path class="g" d="m90 290c-0.8-0.2-1.7-0.1-2.5 0.1-0.7 0.2-2.5 0.8-3.1 1.3-0.7 0.6-1.4 1.2-1.1 2.1q0.6 1.8 1.6 3.4 0.1 0.1 0.2 0.3c-0.1-0.1 1.3-0.5 1.4-0.5 0.6-0.1 1.2-0.2 1.8 0.1 1.3 0.7 1.1 3.1 1.7 4.3 0.2 0.5 0.5 1.6 0.9 1.9q0.5 0.4 1 0.7c-0.9-3.5-1.3-9.2 0-12.7 0.1-0.3-1.7-1-1.9-1z"/><path class="f" d="m75.6 292.5c-1.7 3.3-0.5 10.9 0 14.5-0.5-0.4-1.1-1-1.7-1.7l-0.1-0.1c-1.7-1.9-3.6-4.7-4.8-6.6-0.3-0.5-0.5-1-0.7-1.3q-0.8-1.7-1.2-3.5 0-0.2 0-0.3c0.2-0.6 0.5-1.2 1.3-1.7 0.7-0.4 1.5-0.7 2.2-0.8 0.8-0.2 1.7-0.1 2.5 0.1 0.2 0.1 2.7 1.1 2.5 1.4z"/><path class="g" d="m75.6 292.5c-1.7 3.3-0.5 10.9 0 14.5-0.5-0.4-1.1-1-1.7-1.7l-0.1-0.1c-0.3-0.4-0.1-1.6-0.1-2.1 0-0.8-0.1-2.5-0.6-3.2-0.4-0.5-1.6-0.6-2.2-0.8-0.6-0.1-1.2-0.3-1.9-0.5-0.3-0.5-0.5-1-0.7-1.3q-0.8-1.7-1.2-3.5 0-0.2 0-0.3c0.2-0.6 0.5-1.2 1.3-1.7 0.7-0.4 1.5-0.7 2.2-0.8 0.8-0.2 1.7-0.1 2.5 0.1 0.2 0.1 2.7 1.1 2.5 1.4z"/><path class="f" d="m59.5 286c-1.3 3.5-0.7 8.5 0.2 12q-0.6-0.3-1.2-0.7c-1.6-1.3-3.5-3.4-4.8-5.1q-0.3-0.5-0.6-0.9-1-1.6-1.5-3.4c-0.3-1 0.4-1.6 1.1-2.1 0.6-0.6 1.4-0.9 2.1-1.1 0.8-0.2 2 0.1 2.8 0.2 0.3 0.1 2.1 0.7 1.9 1.1z"/><path class="g" d="m59.5 286c-1.3 3.5-0.7 8.5 0.2 12q-0.6-0.3-1.2-0.7c-0.6-0.5-0.8-1.4-1-2.2-0.1-0.8-0.3-1.2-1.1-1.6q-1.3-0.6-2.6-1.3-0.4-0.5-0.7-0.9-0.9-1.6-1.5-3.4c-0.3-1 0.4-1.6 1.1-2.1 0.6-0.6 1.4-0.9 2.1-1.1 0.8-0.2 2 0.1 2.8 0.2 0.3 0.1 2.1 0.7 1.9 1.1z"/><path class="h" d="m41.4 261q-0.7 1.7-1.1 3.4c0.1 0.4 0.7-0.2 1.1 0 0.1 0.1 0.1 0.3 0.1 0.4q0.1 0.3 0.1 0.5c0.1 1.4 0.3 2.8 0.6 4.1 0.2 1.5 0.6 3 1 4.6q0.8 2.6 1.8 5.1c0.2 0.6 0.6 1.2 0.9 1.9 0.5 0.8 1 1.7 1.1 2.5 0 0.1 0.1 0.1 0.1 0.1q1.5 2.3 3.4 3.9 0.7 0.6 1.4 1.1 0.8 0.6 1.8 1.2 0.1 0.1 0.3 0.1c0.5 0.3 1.1 0.5 1.6 0.8q1.6 0.7 3.1 1.2 0.1 0 0.1 0c0.8 0.2 1.6 0.5 2.3 0.9 0.5 0.3 0.9 0.8 1.4 1.2q2.5 2.1 5.5 2.5 1.6 0.3 3.3 0.1c0.3-0.1 2-0.7 3.6-1.4 1.9-0.9 3.6-1.9 2.8-2.5 1.9 1.5 4.1 2.4 6.5 2.9q2.1 0.4 4.3 0.1 1.3-0.1 2.6-0.5 0.6-0.1 1.1-0.3c4.8-1.9 8.4-6.4 9.3-11.4 0.5-3.3-0.1-6.7-0.7-10q-0.1-1-0.1-1.9 0-1 0.1-2 0.1-0.8 0.2-1.5 0-0.3 0-0.6 0-0.2 0-0.3v-0.1c0.1-0.8 0-1.5-0.1-2.3 0.7 0.1 1.4 0 2-0.3q-0.8-1.6-1.6-3.1 1-0.1 1.9-0.1c0-0.9-0.6-1.6-1.2-2.2-0.6-0.7-1.2-1.4-1.1-2.3q0-0.1 0-0.2 0.1 0 0.1-0.1 0-0.1 0.1-0.2 0-0.1 0.1-0.2 0.1-0.1 0.2-0.1 0.2-0.1 0.4-0.2 0.1-0.1 0.3 0 0.3-0.1 0.5 0.1 0.1 0.1 0.1 0.2c-0.2-0.8-1-1.4-1.8-1.3 1-23.7 19.9-36 34.8-51.4 7.1-7.3 14.3-14.8 19.6-23.5q0.4-0.7 0.7-1.3c2.6-4.8 7.4-15.1 10.6-25.4q0.2-0.8 0.4-1.6 0.2-0.7 0.5-1.6c2.4-9.1 3.3-17.5-0.2-21.2-0.2-0.2-0.5-0.5-0.8-0.7-1.7-1.2-3.6-1.3-5.5-0.8h-0.1c-2.9 0.8-5.8 3.3-7.9 4.9-4.9 3.7-9.3 7.9-13.6 12.1-5.7 5.6-11.3 11.3-17.3 16.6q-1.6 1.3-3.2 2.5c-6 4.7-12.7 8.5-18.4 13.4-6.1 5.3-11.9 10.2-18.4 15-10.7 7.6-18.4 16.7-24.7 28.2-4.7 8.6-7.1 18.1-11.1 26.9-0.9 2.1-1.7 4.3-2.5 6.5q-0.1 0.1-0.1 0.1-0.4 1.1-0.8 2.1c-0.6 1.4-1.3 2.9-2.2 4.2q-0.3 0.6-0.7 1.1 0.1 0 0.2 0.1 0.6 0.2 1.2 0.1z"/><path class="j" d="m45.9 281c0.5 0.8 0.9 1.7 1.1 2.5 0 0.1 0.1 0.1 0.1 0.1q1.5 2.3 3.4 3.9 0.7 0.6 1.4 1.1 0.8 0.6 1.8 1.1 0.1 0.1 0.3 0.2c0.5 0.3 1 0.5 1.6 0.8q1.6 0.7 3.1 1.2 0.1 0 0.1 0c0.8 0.2 1.6 0.5 2.3 0.9 0.5 0.3 0.9 0.8 1.3 1.2q2.6 2.1 5.6 2.5 1.6 0.3 3.3 0.1c0.3-0.1 2-0.7 3.6-1.4 1.9-0.9 3.6-1.9 2.8-2.5 1.9 1.5 4.1 2.4 6.5 2.9 2.3 0.4 4.7 0.3 6.9-0.4q0.6-0.1 1.1-0.3c4.8-1.9 8.4-6.4 9.3-11.4 0.5-3.3-0.1-6.7-0.7-10q-0.1-1-0.1-1.9 0-1.1 0.1-2 0.1-0.8 0.2-1.5 0-0.5 0-0.9v-0.1c0.1-0.8 0-1.5-0.1-2.3 0.7 0.1 1.4 0 2-0.4q-0.8-1.5-1.6-3 1-0.1 1.9-0.1c0-0.9-0.6-1.6-1.2-2.3-0.6-0.6-1.2-1.3-1.1-2.2q0-0.1 0-0.2 0-0.1 0.1-0.1 0-0.1 0.1-0.2 0-0.1 0.1-0.2 0.1-0.1 0.2-0.1 0.2-0.2 0.4-0.2 0.1-0.1 0.3-0.1 0.3 0 0.5 0.2c0 0 0.1 0.1 0.1 0.2-0.2-0.8-1-1.4-1.8-1.3 1-23.7 19.9-36 34.8-51.4 7.1-7.3 14.3-14.8 19.6-23.6 2.3-3.9 7.8-15.3 11.3-26.6q0.2-0.8 0.4-1.6 0.2-0.7 0.5-1.6c2.4-9.1 3.3-17.5-0.2-21.2-0.2-0.3-0.5-0.5-0.8-0.7-1.7-1.3-3.6-1.4-5.5-0.8h-0.1c-2.9 0.8-5.8 3.2-7.9 4.9-4.9 3.7-9.3 7.8-13.6 12.1-4.5 8.9-5.9 18.8-9.4 28.1q0.9-0.2 1.7-0.3c-2.3 7.4-7.3 13.5-11.8 19.7-4.3 6-12.4 13.6-14.4 20.8q-0.7-1.3-1.5-2.5c-4.9 10.6-8.2 22-9.9 33.6-0.6 3.9-0.6 8.1-0.6 12.3 0.1 3.6 0.1 7.1-0.1 10.6-0.2 3.2-0.7 6.4-1.7 9.4-1.3 4.2-5.1 10.2-10.3 9.8-1.8-0.2-3.6-1.3-5.4-1-0.8 0.1-1.5 0.5-2.2 0.8-2.8 1.4-5.8 2.3-8.9 1.9-1.5-0.1-3-0.6-4.3-1.4-0.7-0.3-1.1-0.6-1.8-0.7q-0.2-0.1-0.3-0.1c-0.9 0-1.8 0.2-2.7 0.3q-1.4 0.2-2.7-0.1c-2.6-0.6-5-2.4-7.1-4.5z"/><path class="k" d="m41.6 265.3c0.1 1.4 0.3 2.8 0.5 4.1 0.3 1.5 0.7 3 1.1 4.6q0.8 2.6 1.8 5.1c0.2 0.6 0.6 1.2 0.9 1.9 0.5 0.8 0.9 1.7 1.1 2.5 0 0.1 0.1 0.1 0.1 0.1q1.5 2.3 3.4 3.9c1 0.8 2 1.6 3.1 2.2q0.2 0.2 0.4 0.2c0.5 0.3 1 0.5 1.6 0.8q1.6 0.7 3.1 1.2c0.8 0.2 1.6 0.5 2.3 0.9 0.6 0.3 1 0.8 1.4 1.2q3.9 3.2 8.9 2.6c0.6-0.1 7.8-2.7 6.4-3.9 4 3.2 9.7 4 14.5 2.2 4.8-1.9 8.4-6.4 9.2-11.4 0.6-3.3 0-6.7-0.6-10-0.4-2.3 0.1-4.3 0.2-6.4-4.3-1.3-10.4-0.5-13.4 0.8-2 0.8-3.8 2-5.6 3.2-3 2-6.2 4.4-6.5 7.8 0.2-2.6-7.5-6.2-9.5-7.1-4.4-1.9-9.4-1.3-13.9 0.4-2.9-3-6.5-5.3-10.5-6.9z"/><path class="k" d="m41.4 261q-0.7 1.7-1.1 3.4c0.1 0.4 0.7-0.2 1.1 0 0.1 0.1 0.1 0.3 0.1 0.4q0.1 0.3 0.1 0.5c0.1 1.4 0.3 2.8 0.6 4.1 0.2 1.5 0.6 3 1 4.6q0.8 2.6 1.8 5.1c0.2 0.6 0.6 1.2 0.9 1.9 0.5 0.8 1 1.7 1.1 2.5 0 0.1 0.1 0.1 0.1 0.1q1.5 2.3 3.4 3.9c1 0.8 2 1.6 3.1 2.2q0.2 0.2 0.4 0.2c0.5 0.3 1 0.5 1.6 0.8q1.6 0.7 3.1 1.2c0.8 0.2 1.7 0.5 2.4 0.9 0.5 0.3 0.9 0.8 1.3 1.2q3.9 3.2 8.9 2.6c0.6-0.1 7.8-2.7 6.4-3.9 4 3.2 9.7 4 14.5 2.2 4.8-1.9 8.4-6.4 9.2-11.4 0.6-3.3 0-6.7-0.6-10-0.4-2.3 0.1-4.3 0.2-6.4 0-0.8 0-1.5-0.1-2.3 0.7 0.1 1.4 0 2-0.3q-0.8-1.6-1.6-3.1 0.9-0.1 1.9-0.1c0-0.9-0.6-1.6-1.2-2.2-0.6-0.7-1.2-1.4-1.1-2.3 0-0.3 0.2-0.6 0.5-0.8-4.3-0.7-9.6 0.1-12.4 1.2-2.1 0.8-4 2-5.9 3.2-3.2 1.9-6.6 4.4-6.8 7.8 0.2-2.6-8-6.3-10.1-7.1-4.6-1.9-9.9-1.4-14.6 0.3-2.5-2.4-5.4-4.4-8.7-5.8-0.8 1.8-1.7 3.6-2.9 5.3 0.4 0.2 0.9 0.2 1.4 0.1z"/><path class="f" d="m289 303.7c0.9-3.5 1.3-9.2 0-12.7-0.1-0.4 1.7-1 1.9-1 0.8-0.2 1.7-0.1 2.5 0.1 0.8 0.2 2.5 0.8 3.1 1.3 0.8 0.6 1.4 1.2 1.1 2.1q-0.6 1.8-1.6 3.4c-1.3 2.1-4.8 5.6-7 6.8z"/><path class="g" d="m290.9 290c0.8-0.2 1.7-0.1 2.5 0.1 0.7 0.2 2.5 0.8 3.1 1.3 0.7 0.6 1.4 1.2 1.1 2.1q-0.6 1.8-1.6 3.4-0.1 0.1-0.2 0.3c0.1-0.1-1.3-0.5-1.4-0.5-0.6-0.1-1.2-0.2-1.8 0.1-1.3 0.7-1.1 3.1-1.7 4.3-0.2 0.5-0.5 1.6-0.9 1.9q-0.5 0.4-1 0.7c0.9-3.5 1.3-9.2 0-12.7-0.1-0.3 1.7-1 1.9-1z"/><path class="f" d="m305.3 292.5c1.7 3.3 0.5 10.9 0 14.5 0.5-0.4 1.1-1 1.8-1.7v-0.1c1.7-1.9 3.6-4.7 4.8-6.6 0.3-0.5 0.5-1 0.7-1.3q0.8-1.7 1.2-3.5 0-0.2 0-0.3c-0.2-0.6-0.5-1.2-1.3-1.7-0.7-0.4-1.5-0.7-2.2-0.8-0.8-0.2-1.7-0.1-2.5 0.1-0.2 0.1-2.7 1.1-2.5 1.4z"/><path class="g" d="m305.3 292.5c1.7 3.3 0.5 10.9 0 14.5 0.5-0.4 1.1-1 1.8-1.7v-0.1c0.3-0.4 0.1-1.6 0.1-2.1 0-0.8 0.1-2.5 0.6-3.2 0.4-0.5 1.6-0.6 2.2-0.8 0.6-0.1 1.2-0.3 1.9-0.5 0.3-0.5 0.5-1 0.7-1.3q0.8-1.7 1.2-3.5 0-0.2 0-0.3c-0.2-0.6-0.5-1.2-1.3-1.7-0.7-0.4-1.4-0.7-2.2-0.8-0.8-0.2-1.7-0.1-2.5 0.1-0.2 0.1-2.7 1.1-2.5 1.4z"/><path class="f" d="m321.4 286c1.3 3.5 0.8 8.5-0.1 12q0.5-0.3 1.1-0.7c1.7-1.3 3.5-3.4 4.8-5.1q0.3-0.5 0.6-0.9 1-1.6 1.5-3.4c0.3-1-0.3-1.6-1.1-2.1-0.6-0.6-1.4-0.9-2.1-1.1-0.8-0.2-2 0.1-2.8 0.2-0.3 0.1-2.1 0.7-1.9 1.1z"/><path class="g" d="m321.4 286c1.3 3.5 0.8 8.5-0.1 12q0.5-0.3 1.1-0.7c0.6-0.5 0.9-1.4 1-2.2 0.1-0.8 0.3-1.2 1.1-1.6q1.3-0.6 2.6-1.3 0.4-0.5 0.7-0.9 0.9-1.6 1.5-3.4c0.3-1-0.4-1.6-1.1-2.1-0.6-0.6-1.4-0.9-2.1-1.1-0.8-0.2-2 0.1-2.8 0.2-0.3 0.1-2.1 0.7-1.9 1.1z"/><path class="h" d="m339.6 261q0.6 1.7 1 3.4c-0.1 0.4-0.7-0.2-1.1 0-0.1 0.1-0.1 0.3-0.1 0.4q0 0.3-0.1 0.5c-0.1 1.4-0.3 2.8-0.5 4.1-0.3 1.5-0.7 3-1.1 4.6q-0.8 2.6-1.8 5.1c-0.2 0.6-0.6 1.2-0.9 1.9-0.5 0.8-0.9 1.7-1.1 2.5 0 0.1-0.1 0.1-0.1 0.1q-1.5 2.3-3.4 3.9c-1 0.8-2 1.6-3.1 2.2q-0.2 0.2-0.4 0.2c-0.5 0.3-1 0.5-1.6 0.8q-1.6 0.7-3.1 1.2c-0.8 0.2-1.7 0.5-2.3 0.9-0.6 0.3-1 0.8-1.4 1.2q-3.9 3.2-8.9 2.6c-0.6-0.1-7.8-2.7-6.4-3.9-4 3.2-9.7 4-14.5 2.2-4.8-1.9-8.4-6.4-9.2-11.4-0.6-3.3 0-6.7 0.6-10 0.4-2.3-0.1-4.3-0.2-6.4 0-0.8 0-1.5 0.1-2.3-0.7 0.1-1.4 0-2-0.3q0.8-1.6 1.6-3.1-0.9-0.1-1.8-0.1c-0.1-0.9 0.5-1.6 1.1-2.2 0.6-0.7 1.2-1.4 1.1-2.3 0-0.3-0.2-0.6-0.5-0.8-0.4-0.3-1-0.4-1.3 0.1 0.2-0.8 1-1.4 1.8-1.3q0-1.4-0.2-2.7c-2.3-21.9-20.3-33.9-34.5-48.7-7.2-7.4-14.4-14.8-19.7-23.6-2.3-3.9-7.8-15.3-11.2-26.6q-0.3-0.8-0.5-1.6-0.2-0.7-0.5-1.6c-2.4-9.1-3.3-17.6 0.2-21.2 0.3-0.3 0.5-0.5 0.8-0.7 1.8-1.3 3.7-1.4 5.5-0.8h0.1c2.9 0.8 5.8 3.2 7.9 4.9 4.9 3.7 9.3 7.8 13.6 12.1 5.7 5.6 11.3 11.3 17.4 16.5 6.7 5.9 14.8 10.2 21.5 16 6.1 5.2 11.9 10.2 18.4 14.9 10.7 7.7 18.4 16.8 24.7 28.3 3.7 6.6 5.9 13.7 8.6 20.7q1.1 3.1 2.5 6.1c1.3 2.9 2.2 5.9 3.4 8.7 0.8 1.9 1.7 3.6 2.9 5.3-0.4 0.2-0.9 0.3-1.4 0.2z"/><path class="i" d="m339.6 261q0.6 1.7 1 3.4c-0.1 0.4-0.7-0.2-1.1 0-0.1 0.1-0.1 0.3-0.1 0.4q0 0.3-0.1 0.5c-0.1 1.4-0.3 2.8-0.5 4.1-0.3 1.5-0.7 3-1.1 4.6q-0.8 2.6-1.8 5.1c-0.2 0.6-0.6 1.2-0.9 1.9-0.5 0.8-0.9 1.7-1.1 2.5 0 0.1-0.1 0.1-0.1 0.1q-1.5 2.3-3.4 3.9c-1 0.8-2 1.6-3.1 2.2q-0.2 0.2-0.4 0.2c-0.5 0.3-1 0.5-1.6 0.8q-1.6 0.7-3.1 1.2c-0.8 0.2-1.7 0.5-2.3 0.9-0.6 0.3-1 0.8-1.4 1.2q-3.9 3.2-8.9 2.6c-0.6-0.1-7.8-2.7-6.4-3.9-4 3.2-9.7 4-14.5 2.2-4.8-1.9-8.4-6.4-9.2-11.4-0.6-3.3 0-6.7 0.6-10 0.4-2.3-0.1-4.3-0.2-6.4 0-0.8 0-1.5 0.1-2.3-0.7 0.1-1.4 0-2-0.3q0.8-1.6 1.6-3.1-0.9-0.1-1.8-0.1c-0.1-0.9 0.5-1.6 1.1-2.2 0.6-0.7 1.2-1.4 1.1-2.3 0-0.3-0.2-0.6-0.5-0.8-0.4-0.3-1-0.4-1.3 0.1 0.2-0.8 1-1.4 1.8-1.3q0-1.4-0.2-2.7 1.7 0.3 3.1 1.1c-0.1-1 0.1-1.9 0.4-2.8q2.3 0.9 4.5 1.9 0.4-1.6 0.7-3.3c2.7 2.1 5.8 2.9 8.9 2.6 3.2-0.2 6.3-2.1 7.3-5.1 0 1.4 0.1 2.7 0.4 4.1 1.7-1.3 3-3.1 3.7-5.1 2.3 1.3 4.6 2.6 7.1 3.1 2.5 0.5 5.4 0 7.2-1.9 1.4-1.5 1.9-3.7 1.3-5.7 0.5 0.7 1.1 1.4 1.4 1.9 0.4-0.7 0.6-1.4 0.6-2.5 1.3 1.2 3.1 1.4 4.4 1.1q0.7-0.2 1.2-0.7 1.2 3 2.6 6.1c1.2 2.9 2.2 5.8 3.4 8.7 0.8 1.8 1.7 3.6 2.9 5.3-0.4 0.2-0.9 0.2-1.4 0.2z"/><path class="j" d="m335 281c-0.5 0.8-0.9 1.7-1.1 2.5 0 0.1-0.1 0.1-0.1 0.1q-1.5 2.3-3.4 3.9c-1 0.8-2 1.6-3.1 2.2q-0.2 0.1-0.4 0.2c-0.5 0.3-1 0.5-1.6 0.8q-1.5 0.7-3.1 1.2c-0.8 0.2-1.6 0.5-2.3 0.9-0.5 0.3-1 0.8-1.4 1.2q-3.9 3.2-8.9 2.6c-0.5-0.1-7.8-2.7-6.3-3.9-4.1 3.2-9.8 4-14.6 2.2-4.7-1.9-8.4-6.4-9.2-11.4-0.6-3.3 0-6.7 0.6-10 0.5-3.1-0.5-5.7-0.1-8.7-0.7 0.1-1.4 0-2-0.4q0.8-1.5 1.6-3-0.9-0.1-1.8-0.1c-0.1-0.9 0.5-1.6 1.1-2.3 0.6-0.6 1.2-1.3 1.1-2.2 0-0.9-1.3-1.5-1.8-0.7 0.2-0.9 1-1.4 1.9-1.3-1.1-23.7-20-36-34.8-51.4-7.2-7.4-14.4-14.8-19.7-23.6-2.3-3.9-7.8-15.3-11.2-26.6q-0.3-0.8-0.5-1.6-0.2-0.7-0.5-1.6c-1.7-6.1-4.5-16.6 0.2-21.2 0.3-0.3 0.6-0.5 0.8-0.7 1.8-1.3 3.7-1.4 5.5-0.8h0.1c2.9 0.8 5.8 3.2 8 4.9 4.8 3.7 9.2 7.8 13.6 12.1 4.4 8.9 5.8 18.8 9.3 28.1q-0.8-0.2-1.7-0.3c2.3 7.4 7.3 13.5 11.8 19.7 4.3 6 12.4 13.6 14.4 20.8q0.7-1.3 1.5-2.5c4.9 10.6 8.2 22 9.9 33.6 1.6 10.4-0.8 22.3 2.4 32.2 1.4 4.3 5.1 10.3 10.3 9.8 1.8-0.1 3.6-1.2 5.4-0.9 0.8 0.1 1.5 0.5 2.2 0.8 2.8 1.3 5.8 2.3 8.9 1.9 1.5-0.2 3-0.6 4.3-1.4 0.8-0.4 1.3-0.7 2.1-0.8 0.9-0.1 1.8 0.2 2.7 0.3 3.6 0.5 6.9-1.9 9.9-4.6z"/><path class="k" d="m339.3 265.3c-0.1 1.4-0.3 2.8-0.5 4.1-0.3 1.5-0.7 3-1.1 4.6q-0.8 2.6-1.8 5.1c-0.2 0.6-0.6 1.2-0.9 1.9-0.5 0.8-0.9 1.7-1.1 2.5 0 0.1-0.1 0.1-0.1 0.1q-1.5 2.3-3.4 3.9c-1 0.8-2 1.6-3.1 2.2q-0.2 0.2-0.4 0.2c-0.5 0.3-1 0.5-1.6 0.8q-1.5 0.7-3.1 1.2c-0.8 0.2-1.6 0.5-2.3 0.9-0.5 0.3-1 0.8-1.4 1.2q-3.9 3.2-8.9 2.6c-0.5-0.1-7.8-2.7-6.3-3.9-4.1 3.2-9.8 4-14.6 2.2-4.7-1.9-8.4-6.4-9.2-11.4-0.6-3.3 0-6.7 0.6-10 0.4-2.3-0.1-4.3-0.2-6.4 4.3-1.3 10.4-0.5 13.4 0.8 2 0.8 3.8 2 5.6 3.2 3 2 6.2 4.4 6.5 7.8-0.2-2.6 7.5-6.2 9.5-7.1 4.4-1.9 9.4-1.3 13.9 0.4 2.9-3 6.6-5.3 10.5-6.9z"/><path class="k" d="m339.3 265.3c-0.1 1.4-0.3 2.8-0.5 4.1-0.3 1.5-0.7 3-1.1 4.6q-0.8 2.6-1.8 5.1c-0.2 0.6-0.6 1.2-0.9 1.9-0.5 0.8-0.9 1.7-1.1 2.5 0 0.1-0.1 0.1-0.1 0.1q-1.5 2.3-3.4 3.9c-1 0.8-2 1.6-3.1 2.2q-0.2 0.2-0.4 0.2c-0.5 0.3-1 0.5-1.6 0.8q-1.5 0.7-3.1 1.2c-0.8 0.2-1.6 0.5-2.3 0.9-0.5 0.3-1 0.8-1.4 1.2q-3.9 3.2-8.9 2.6c-0.5-0.1-7.8-2.7-6.3-3.9-4.1 3.2-9.8 4-14.6 2.2-4.7-1.9-8.4-6.4-9.2-11.4-0.6-3.3 0-6.7 0.6-10 0.4-2.3-0.1-4.3-0.2-6.4 4.3-1.3 10.4-0.5 13.4 0.8 2 0.8 3.8 2 5.6 3.2 3 2 6.2 4.4 6.5 7.8-0.2-2.6 7.5-6.2 9.5-7.1 4.4-1.9 9.4-1.3 13.9 0.4 2.9-3 6.6-5.3 10.5-6.9z"/><path class="k" d="m339.6 261q0.6 1.7 1 3.4c-0.1 0.4-0.7-0.2-1.1 0-0.1 0.1-0.1 0.3-0.1 0.4q0 0.3-0.1 0.5c-0.1 1.4-0.3 2.8-0.5 4.1-0.3 1.5-0.7 3-1.1 4.6q-0.8 2.6-1.8 5.1c-0.2 0.6-0.6 1.2-0.9 1.9-0.5 0.8-0.9 1.7-1.1 2.5 0 0.1-0.1 0.1-0.1 0.1q-1.5 2.3-3.4 3.9c-1 0.8-2 1.6-3.1 2.2q-0.2 0.2-0.4 0.2c-0.5 0.3-1 0.5-1.6 0.8q-1.6 0.7-3.1 1.2c-0.8 0.2-1.7 0.5-2.3 0.9-0.6 0.3-1 0.8-1.4 1.2q-3.9 3.2-8.9 2.6c-0.6-0.1-7.8-2.7-6.4-3.9-4 3.2-9.7 4-14.5 2.2-4.8-1.9-8.4-6.4-9.2-11.4-0.6-3.3 0-6.7 0.6-10 0.4-2.3-0.1-4.3-0.2-6.4 0-0.8 0-1.5 0.1-2.3-0.7 0.1-1.4 0-2-0.3q0.8-1.6 1.6-3.1-0.9-0.1-1.8-0.1c-0.1-0.9 0.5-1.6 1.1-2.2 0.6-0.7 1.2-1.4 1.1-2.3 0-0.3-0.2-0.6-0.5-0.8 4.3-0.7 9.6 0.1 12.4 1.2 2.1 0.8 4 2 5.9 3.2 3.2 1.9 6.6 4.4 6.9 7.8-0.3-2.6 7.9-6.3 10-7.1 4.6-1.9 9.9-1.4 14.6 0.3 2.5-2.4 5.4-4.4 8.7-5.8 0.8 1.8 1.7 3.6 2.9 5.3-0.4 0.2-0.9 0.2-1.4 0.1z"/><path class="a" d="m265.5 172q-1.9-0.3-3.8-0.7c0.7 2.6 1.8 5.2 2.9 7.4-1.4-0.2-2.5-0.4-4-1.1-0.8 2.9-1.9 5.8-3.1 8.6-4.6 11.2-11 22.5-12.9 34-7.2 24.5-2 49 11.8 69.8-2.2 0.3-4.4-0.1-6.3-1.2q0.8 1.9 1.7 3.9c-1.7 0-3.2-0.1-5.4-0.1-1.9 4.5-5.1 8.7-8.7 12.3 0-1.6 0-3.2 0-4.8-5.5 11.5-13.2 21.6-23.1 30.9q-0.1-1.5-0.2-3c-1.8 3.9-3.1 5.3-6 7.4 0.5-2 0.6-3.2 0.7-5.2-11 18-34.8 10.2-44.7-6.5-0.6 0.9-0.9 1.8-1.2 3-3.5-3.6-5.7-7.3-7.5-12.3-0.3 1.6-1.2 3.3-2.1 4.6-2.6-6.5-8.7-15.6-12.8-19.8-1.3 0.6-2.2 1.4-3.3 3.1-3.9-3.4-6.8-8.1-7.9-13.1-1.9 0.7-3.8 1.4-5.7 2q2.2-3.4 4-6.8c10.8-20.2 10.5-41.2 6.3-62.3-2.1-10.6-5.2-21.2-8.4-31.8q-0.2-0.5-0.3-1c-1.1-3.6-2.3-7.3-3.3-10.9q-1.7 1.2-3.3 2.4c0.2-5.7 1-10.8 2.9-14.7q-2.1 0.1-4.2 0.2c0.2-1.1 0.5-2.2 1-3.2-2-0.3-3.9-0.2-6.2 0.1q8.4-8.4 16.9-16.9 0-0.1 0.1-0.1c-1.9-0.4-3.8-0.9-5.7-1 2.4-1.9 9.2-5.1 12.6-5.8-2.3-1-4.6-1.9-7.5-2.6 5.9-1.9 10.6-3.8 15.6-6.6q0.5-0.3 1.1-0.6c4.1-2.4 8.3-5.1 12.4-7.6 4-3 7.7-5.4 11.2-7.5 20.3-11.6 35.6-8.6 57.6 8.4 3.6 2.5 7.2 4.8 10.8 7 4.3 2.5 8.7 4.9 13.3 6.9-1.5 0.8-3.8 1.5-5.4 1.6 3.3 2 5.7 3.1 9 4.7-2 0.5-4.1 0.8-5.7 0.7q1.3 1.1 2.4 2.3c7.1 6.8 12.8 14.4 17.8 23-2.2-0.9-4.7-1.6-7.4-1.9q2.3 2.2 4.1 4.8z"/><path class="b" d="m256.4 290c-2.2 0.3-4.4-0.1-6.3-1.2q0.8 1.9 1.7 3.9c-1.7 0-3.2-0.1-5.4-0.1-1.9 4.5-5.1 8.7-8.7 12.3 0-1.6 0-3.2 0-4.8-5.5 11.5-13.2 21.6-23.1 30.9q-0.1-1.5-0.2-3c-1.8 3.9-3.1 5.3-6 7.4 0.5-2 0.6-3.2 0.7-5.2-11 18-34.8 10.2-44.7-6.5-0.6 0.9-0.9 1.8-1.2 3-3.5-3.6-5.7-7.3-7.5-12.3-0.3 1.6-1.2 3.3-2 4.6-2.7-6.5-8.8-15.6-12.9-19.8-1.3 0.6-2.2 1.4-3.3 3.1-3.9-3.4-6.8-8.1-7.9-13.1-1.9 0.7-3.8 1.4-5.7 2q2.2-3.4 4-6.8c10.8-20.2 10.5-41.2 6.3-62.3-2.1-10.6-5.2-21.2-8.4-31.8 5.9 8.4 10.8 18.2 16.2 27 1.9 3.1 5 7.5 7.3 10.7-2.5-1.3-5-2.4-6.7-2.8 1 1.5 2 3 3 4.5q-1.8-0.8-3.5-1.6c0.7 3.9 1.1 8.2 1.9 12.4 1.8 13.6 1.3 27.5 3.8 41 2.2 11.4 11.4 22.1 19.1 30.7-0.2-1.6-0.4-3.3-0.6-4.9 1.4 2.3 3.2 4.3 5.2 5.8q-0.3-1.8-0.7-3.7c2.6 2.6 8.3 6.2 11.9 7.5 6.9 2.5 16.2-0.6 22.7-5.6-0.4 1.4-1.4 3.3-2.2 4.6 1.6-0.7 3.8-2.1 5.1-3.1 4.1-3.1 7.8-5.8 11.2-9.1 8.7-8.6 14.9-19.5 17.1-31.3 2.3-11.8 0.2-24-0.6-35.1-0.3-3.5-2.7-10.8-8.4-12.8 4.2-2.6 8.7-6.2 11.7-10.3 3.2-4.3 6-9 9-13.8 3.1-5 6.1-9 9.2-14.2-4.6 11.2-11.1 22.5-12.9 34-7.2 24.5-2.1 49 11.8 69.8z"/><path class="b" d="m248.7 143.8q1.2 1.1 2.4 2.3c-1.2 1.5-6.5 6.2-8.1 8-3.3 3.5-6.6 6.8-9.9 10-6.4 6.3-12.9 11.7-19.2 15.8-4.3 2.8-12 5.9-12 5.9 0 0 1.3-2.8 1-5-2.2 1.6-3.7 3.4-5.1 6.5-3.2-1.5-5.2-2.7-7.8-4.8 0.6 2.6 2.7 6.3 4.8 8.5-10.5-4.8-16.6-10.4-19.9-16 0.1 3 0.8 6.7 2.7 10.1-10.6-5.5-22.2-14.3-35.8-26.9-4.8-4.8-9.5-9.7-12.3-11.8-0.1 0-0.2-0.1-0.3-0.1q0.1-0.1 0.2-0.1c-1.9-0.4-3.8-0.9-5.7-1.1 2.3-1.8 9.2-5 12.6-5.7-2.3-1-4.6-1.9-7.5-2.6 6.3-2.1 11.3-4.1 16.6-7.2 4.2-2.4 8.4-5.1 12.5-7.6 26.4-19.8 43-19.1 68.8 0.9 7.8 5.4 15.6 10.2 24 13.9-1.5 0.8-3.7 1.5-5.3 1.6 3.3 2 5.7 3.1 9 4.7-2 0.5-4.1 0.8-5.7 0.7z"/><path class="b" d="m237.5 129.9q-0.1 0.1-0.2 0.3c-6.3 9-12.7 17.4-21.9 23.7-2 1.4-5.9 2.8-5.9 2.8 0 0 3-4.5 4-7.8-3.4 4.1-9.2 9.5-14.5 12.3 0.2-1.7 0.2-2.6-0.1-4.3-4.4 2.8-9.1 8.5-9.9 13.9-7.5-5.1-16.5-15.5-19.1-19 0.1 2.6 0.4 4.6 1 6.8-5.5-4.1-9.6-7.9-14.2-12.8-4.6-4.8-9-9.9-12.4-15.6q0.6-0.3 1.1-0.6c4.2-2.4 8.4-5.1 12.5-7.7 26.4-19.7 42.9-19.1 68.8 0.9 3.6 2.5 7.1 4.9 10.8 7z"/><path class="l" d="m240.8 89.4q-0.2 0-0.4 0c1.1 2.7 1.9 5.6 2.4 8.5-0.8-1.1-2.3-1.5-3.5-1 1.4 1.5 2.1 3.6 1.8 5.6-0.9-0.9-2.5-1.1-3.6-0.4q1.8 2.1 3.6 4.2c-1.1-0.3-2.4-0.3-3.5 0 0.8 1.2 1.8 2.2 3 2.9-1.3 0.2-2.5 0-3.7-0.7-0.3 0-3.6 6.9-3.9 7.4q-1.5 2.8-3 5.5c-0.3 0.5-2.9 5-2.9 5q-0.3-0.7-0.6-1.4-1.1 2.2-2.6 4.1c0.1-0.7 0.1-1.5 0-2.2-3.4 3.9-6.5 6.6-11.1 9.1-4.7 2.4-9.8 4.2-15 5-6.1 1-12.2 0.1-18.2-0.9-2.5-0.5-5-1.2-7.3-2.2-2-0.8-4-1.8-5.7-3.2 0 0.3 0 0.5 0.2 0.8-0.4-0.1-1.5-1.1-1.8-1.6l0.7 2.1c-3.7-2.2-7-4.6-9.9-7.6-2.4-2.6-4.5-5.4-6.1-8.6-0.4 0.5-0.7 1.2-0.8 1.8q-2.7-5.9-5.2-11.8c-0.4 1-1 1.9-1.3 3-1-2.9-1.5-6-1.7-9-1.1 1.4-2.1 2.6-2.6 4.3-0.6-2.5-0.2-5.4 1.4-7.4-0.9-0.1-2 0.2-2.8 0.7-0.2-2.8 0.2-5.7 1.2-8.4q-1.6 0-3.3 0c0.7-1.5 1.7-2.7 2.9-3.7q-2.1 0.6-4.2 1.2c1.3-2.4 2.9-4.6 4.8-6.5-1.1 0.2-2.2 0.6-3.2 1.2q0.2-1 0.5-1.9 0.5-2 1.5-3.9c-1.3 1.1-2.9 1.9-4.5 2.4q1.2-1.2 2.2-2.5 0 0 0 0c4.8-6.1 5.1-13.3 7.2-20.8 3.3-11.9 12.7-23 21.6-31.2 2.6-2.3 5.4-4.5 8.1-6.7 1.8-1.4 3.9-2.8 6-3.9q1.1-0.6 2.2-1.1 0.1 0 0.2-0.1c0.1-0.2-0.3-1.1-0.4-1.3 1.1 0.6 2.1 1.2 3.2 1.7-0.2-0.4-0.4-0.9-0.4-1.4 0-0.2 0.2-1.2 0.2-1.3 0.9 1 2 1.8 3.2 2.3q0.2-0.7 0.3-1.5c0.7 0.3 1.3 0.9 1.7 1.6q1.1-1.3 2.3-2.4c0.2 0.7 0.5 1.3 0.9 1.9 1.1-1.6 2.5-2.9 4.2-3.8-0.2 1.5 0.1 3.1 0.9 4.5 0.8-1.6 2.1-2.9 3.6-3.7-0.3 1.3-0.1 2.7 0.5 3.9q0.4-1.3 0.8-2.6c1.2 5.4 7.2 5.2 11.3 7.5 7.7 4.4 13.9 11 18.4 18.6 2.3 3.7 4.9 7.3 6.4 11.5 1.8 5.1 2.4 10.3 3.4 15.6 1.1 5.1 1 9.7 4.2 14 0.1 0.1 0.2 0.2 0.3 0.4q0.2 0.3 0.4 0.5c-1.5 0-3-0.8-4.1-1.9 1 1.9 1.4 4.1 1.4 6.2-0.8-1.4-2.4-1.7-3.6-1.5 1.9 1.2 3.6 2.9 4.7 4.9q-1.5 0.1-3 0.2z"/><path class="a" d="m170.7 74.8q0.3-0.9 0.6-1.8c-2.1 1.9-4 3-7 3.6q0.7-1 0.7-1.9c-1.4 0.7-2.4 0.8-4 1.2 0.6-0.6 1-1.1 1.3-1.7-6 0-13.7 2.5-19.3 4.8-2.7 1.1-5.3 2.6-7.6 4.3q0.5-2 1.5-3.9c-1.3 1.1-2.8 1.9-4.5 2.4 6.9-6.5 7-14.7 9.4-23.3 3.3-11.8 12.7-23 21.6-31.2 2.6-2.3 5.4-4.5 8.1-6.6 1.8-1.5 3.9-2.9 6-4 4.2 4 6.8 9.4 8.6 14.8 1.1 3.4 2 6.9 2.4 10.5 1.3 12.7-6.2 27.1-17.8 32.8z"/><path class="m" d="m240.8 89.4q-0.2 0-0.4 0c1.1 2.7 1.9 5.6 2.4 8.5-0.8-1.1-2.3-1.5-3.5-1 1.4 1.5 2.1 3.6 1.8 5.6-0.9-0.9-2.5-1.1-3.6-0.4q1.8 2.1 3.6 4.2c-1.1-0.3-2.4-0.3-3.5 0 0.8 1.2 1.8 2.2 3 2.9-1.3 0.2-2.5 0-3.7-0.7-0.3 0-3.6 6.9-3.9 7.4q-1.5 2.8-3 5.5c-0.3 0.5-2.9 5-2.9 5q-0.3-0.7-0.6-1.4-1.1 2.2-2.6 4.1c0.1-0.7 0.1-1.5 0-2.2-3.4 3.9-6.5 6.6-11.1 9.1-4.7 2.4-9.8 4.2-15 5-6.1 1-12.2 0.1-18.2-0.9-2.5-0.5-5-1.2-7.3-2.2-2-0.8-4-1.8-5.7-3.2 0 0.3 0 0.5 0.2 0.8-0.4-0.1-1.5-1.1-1.8-1.6l0.7 2.1c-3.7-2.2-7-4.6-9.9-7.6-2.4-2.6-4.5-5.4-6.1-8.6-0.4 0.5-0.7 1.2-0.8 1.8q-2.7-5.9-5.2-11.8c-0.4 1-1 1.9-1.3 3-1-2.9-1.5-6-1.7-9-1.1 1.4-2.1 2.6-2.6 4.3-0.6-2.5-0.2-5.4 1.4-7.4-0.9-0.1-2 0.2-2.8 0.7-0.2-2.8 0.2-5.7 1.2-8.4q-1.6 0-3.3 0c0.7-1.5 1.7-2.7 2.9-3.7q-2.1 0.6-4.2 1.2c1.3-2.4 2.9-4.6 4.8-6.5-1.1 0.2-2.2 0.6-3.2 1.2q0.2-1 0.5-1.9 0.5-2 1.5-3.9c-1.3 1.1-2.9 1.9-4.5 2.4q1.2-1.2 2.2-2.5c1.9-0.8 3.3-1.9 4.9-3.4q-1.5 3.5-2.1 7.3c0.8-0.9 1.8-1.6 2.9-2q-1.7 3.5-3.4 7c0.6-0.7 1.4-1.3 2.4-1.6-0.6 1.4-1.1 2.5-1.9 4.1q1.1-1.2 2.3-2.3c-1.4 3.9-2.2 8-2.2 12.2 0.7-1.2 1.8-2.2 3.1-2.8-0.5 2.1-1 4.2-0.9 6.1q1-1.7 2-3.4c-0.2 2.2 0 4.5 0.8 6.5q0.4-2.5 0.9-5.1c0.6 3 1.7 5.8 2.9 8.6q0.9 2.3 1.9 4.5c0.3 0.7 1.2 2.8 1.8 4.2 0.2-0.7 0.4-1.3 0.8-1.8 0.3 0.9 2.6 4.6 2.9 5 1.8 2.5 3.6 5.1 5.8 7.3q-0.1-1.1-0.2-2.2 2.3 2.8 5.1 5.1c-0.2-0.7-0.4-1.4-0.4-2.1 2 1.3 4.1 2.6 6.3 3.7 2.9 1.7 5.8 3.2 9.1 4.3q-0.6-0.8-1.2-1.6c0.8 0.6 1.7 1 2.7 1.1q-0.3-0.7-0.7-1.3c2.3 1.1 5.1 1.9 7.7 2.1 3.2 0.3 6.4 0.3 9.6-0.2 5.1-0.8 10-2.6 14.6-5.1 3.8-2 7-5 9.3-8.6q0.2 0.9 0.4 1.8c1.3-1 2.2-2.3 2.8-3.7q0.4 1.1 0.8 2.3c1.7-2.3 3-4.4 4-7.3 0.2 0.3 0.3 1.1 0.3 1.5q3.7-7.5 6.6-15.4c0.2 0.4 0.6 0.7 1 0.8-0.9-1.4-1.3-3.1-1.2-4.7q1.2 0.1 2.4 0.2c-0.6-2-0.7-4.8-0.2-6.8 1.2 0.7 2.2 1.8 3.3 2.6-0.4-2.3-1.6-6.5-2.3-8 0.7-0.2 1.9-0.2 2.8 0.1-0.4-1-1.3-1.7-2.3-2.3-0.8-0.5-2-1.6-2.7-2.4 0.6-0.2 3.2-0.4 4.5 0.1-0.6-1.7-0.9-3.9-0.8-5.7 0.6 0.5 2.6 2.2 3 2.3q0.4 0.2 0.8 0.2c0.1 0.2 0.2 0.3 0.3 0.5q0.2 0.2 0.4 0.5c-1.5 0-3-0.8-4.1-1.9 1 1.9 1.4 4 1.4 6.2-0.8-1.4-2.4-1.7-3.6-1.5 1.9 1.2 3.6 2.9 4.7 4.9q-1.5 0.1-3 0.2z"/><path class="m" d="m186.8 69.5c-0.3-3.8-0.3-8.2-1.6-11.8-1.8-5-2.7-7.2-6.6-9.8 5.9 0.5 7.8 1.8 11.7 6.2 1-2.3 2.6-4.4 4.6-5.9q-0.4 1.8-0.8 3.6c2-1.8 4.4-3.2 7-4.1-2.9 3.1-4.4 5.9-5 8-1.3 4.6-2 9.3-2.4 14.1-0.4 5.8-0.3 11.3 0 18h-6.5c0.2-6.5 0.1-12.2-0.4-18.3z"/><path class="n" d="m178.3 65.8c0.1 2.2-0.2 4.4-0.7 6.3-0.1-0.7-0.2-1.3-0.4-1.9-0.4-1-1.9-1.3-3.3-1.1-1.6 0.2-3.2 0.7-4.9 0.6-1.8 0-3.5-0.6-4.9-1.7-2.9-2.1-3.5-5.9-3.4-9.2q-1.6-0.5-3.2-0.7c1.7-1 3.8-2.2 4.5-2.6 0.4-0.2 1.9-1.2 2.7-1.8 1.4-0.9 3.1-0.5 4.6 0.1 3.4 1.4 5.7 3.8 8 6.6 0.2 0.2 0.4 0.5 0.5 0.9 0.1 0.2 0.2 0.5 0.2 0.7 0.2 1.2 0.3 2.5 0.3 3.8z"/><path class="o" d="m161.9 61.4c0 0.6 0 1 0.1 1.5q0.3 1.5 1.1 2.7 0.5 0.6 1 1.1c0.8 0.8 1.9 1.5 3 1.8q0.8 0.3 1.7 0.3 0.3 0.1 0.5 0.1 0.3 0 0.5-0.1h0.1c1.8-0.1 3.4-0.9 4.7-2.1q0.2-0.3 0.5-0.5 0.2-0.3 0.4-0.6 0.6-0.9 0.9-2 0.1-0.3 0.2-0.7 0.1-0.2 0.1-0.5 0-0.4 0-0.7c0-0.5-0.7-1.5-1.7-2.7q-0.6-0.6-1.4-1.3 0 0 0-0.1c-1-0.8-2.2-1.7-3.4-2.3-0.9-0.4-1.8-0.7-2.7-0.8h-0.4-0.4q-0.2 0-0.2 0.1c-0.2 0-0.3 0.1-0.4 0.1q-0.8 0.4-1.5 1c-1.3 1-2.2 2.5-2.5 4.1q-0.1 0.4-0.2 0.8 0 0.4 0 0.8z"/><path class="p" d="m163.2 61.4c0 2 0.9 3.8 2.4 4.9 1 0.8 2.3 1.3 3.7 1.3 1.5 0 2.8-0.5 3.9-1.4 1.4-1.2 2.3-2.9 2.3-4.8q0-1.3-0.5-2.4-0.6-0.7-1.4-1.4 0 0 0 0c-1-0.9-2.1-1.7-3.3-2.3q-0.5-0.1-1-0.1c-1.4 0-2.7 0.5-3.7 1.3-1.5 1.1-2.4 2.9-2.4 4.9z"/><path class="n" d="m172.7 61.4c0 1.9-1.5 3.4-3.4 3.4-1.9 0-3.4-1.5-3.4-3.4 0-1.9 1.5-3.4 3.4-3.4 1.9 0 3.4 1.5 3.4 3.4z"/><path class="q" d="m169.2 58c0 1.1-0.9 2-2 2-1.1 0-2-0.9-2-2 0-1.1 0.9-2 2-2 1.1 0 2 0.9 2 2z"/><path class="n" d="m202.8 65.8c0 2.2 0.2 4.4 0.7 6.3 0-0.6-0.1-1.3 0.1-1.9 0.4-1.7 2.2-1.3 3.6-1.1 1.6 0.2 3.2 0.7 4.9 0.6 1.8 0 3.5-0.6 4.9-1.7 2.9-2.1 3.6-5.9 3.4-9.2q1.6-0.5 3.2-0.7c-1.7-0.7-3.4-1.4-5.1-2.3 0.2-0.2 0.4-0.3 0.6-0.3q-0.5-0.4-1.2-0.5 0.2-0.4 0.6-0.6-1.1-0.2-2.1-0.5c0-0.3 0.2-0.5 0.4-0.6-1.7-0.4-3.4-0.1-5 0.5-3.4 1.4-5.7 3.8-7.9 6.6-0.3 0.2-0.5 0.5-0.6 0.8-0.1 0.3-0.1 0.5-0.2 0.8-0.2 1.2-0.3 2.5-0.3 3.8z"/><path class="r" d="m219.2 61.4c0 0.6 0 1-0.1 1.5q-0.3 1.5-1.1 2.7-0.4 0.6-0.9 1.1c-0.9 0.8-1.9 1.5-3.1 1.8q-0.8 0.3-1.7 0.3-0.2 0.1-0.5 0.1-0.3 0-0.5-0.1c-1.9-0.1-3.5-0.9-4.8-2.1q-0.2-0.3-0.4-0.5-0.3-0.3-0.5-0.6-0.6-0.9-0.9-2-0.1-0.3-0.2-0.7 0-0.2-0.1-0.5 0-0.4 0-0.7c0-0.5 0.7-1.5 1.7-2.7q0.6-0.6 1.4-1.3 0 0 0-0.1c1-0.8 2.2-1.7 3.4-2.3 0.9-0.4 1.8-0.7 2.8-0.8h0.3 0.4q0.2 0 0.2 0.1c0.2 0 0.3 0.1 0.4 0.1q0.8 0.4 1.5 1h0.1c1.2 1 2.1 2.5 2.5 4.1q0.1 0.4 0.1 0.8 0.1 0.4 0.1 0.8z"/><path class="s" d="m218 61.4c0 2-0.9 3.8-2.4 4.9-1 0.8-2.4 1.3-3.8 1.3-1.4 0-2.8-0.5-3.8-1.4h-0.1c-1.4-1.2-2.2-2.9-2.2-4.8q0-1.3 0.4-2.4 0.6-0.7 1.4-1.4 0 0 0 0c1-0.9 2.2-1.7 3.4-2.3q0.4-0.1 0.9-0.1c1.4 0 2.7 0.5 3.7 1.3 1.5 1.1 2.5 2.9 2.5 4.9z"/><path class="n" d="m211.8 64.8c-1.9 0-3.4-1.5-3.4-3.4 0-1.9 1.5-3.4 3.4-3.4 1.9 0 3.4 1.5 3.4 3.4 0 1.9-1.5 3.4-3.4 3.4z"/><path class="q" d="m213.9 60c-1.1 0-2-0.9-2-2 0-1.1 0.9-2 2-2 1.2 0 2.1 0.9 2.1 2 0 1.1-0.9 2-2.1 2z"/><path class="f" d="m181.5 102q-0.2 0.3-0.4 0.6-0.1 0.3-0.2 0.5-0.5 1.3-0.4 2.7c0 0.3 0 0.6-0.2 0.8-0.1 0.1-0.3 0.2-0.4 0.2-0.2 0-0.4-0.1-0.6-0.2-1.6-0.5-3.1-1.8-4.2-3.2q0 0 0 0-0.2-0.1-0.3-0.3-0.2-0.3-0.4-0.5-0.2-0.2-0.3-0.4-0.2-0.2-0.3-0.5 0 0-0.1 0 1.5 0.2 3 0.1 1.8 0 3.5-0.3 0.7 0 1.4 0 0.1 0.2-0.1 0.5z"/><path class="t" d="m181.5 102q-0.2 0.3-0.4 0.6-0.1 0.3-0.2 0.5-0.5 1.3-0.4 2.7c0 0.3 0 0.6-0.2 0.8-0.1 0.1-0.3 0.2-0.4 0.2-0.3-1-0.2-1.9-0.2-2.8q0-0.5-0.3-0.7c-0.3-0.3-0.9-0.4-1.4-0.4-0.8 0-1.6 0.1-2.3 0.3q-0.3 0.1-0.6 0.2 0 0 0 0-0.2-0.1-0.3-0.3-0.2-0.3-0.4-0.5-0.2-0.2-0.3-0.4-0.2-0.3-0.3-0.5 0 0-0.1 0 1.5 0.2 3 0.1 1.8 0 3.5-0.3 0.7 0 1.4 0 0.1 0.2-0.1 0.5z"/><path class="f" d="m208.3 101.6q-0.1 0.3-0.3 0.6-0.2 0.3-0.5 0.7c-1.1 1.6-2.4 3.1-4.1 3.8-0.4 0.1-0.8 0.2-1.1 0q-0.2-0.2-0.2-0.4 0-0.3 0-0.4 0-0.8-0.2-1.5-0.1-0.1-0.1-0.3-0.1-0.1-0.1-0.3-0.1-0.1-0.2-0.3-0.1-0.1-0.1-0.3-0.1-0.1-0.1-0.2-0.3-0.4-0.6-0.8-0.1-0.1-0.1-0.2 2 0.2 4 0.1 0.9-0.1 1.8-0.2 0.3-0.1 0.7-0.1 0 0 0 0 0.6-0.1 1.3-0.2z"/><path class="t" d="m208.3 101.6q-0.1 0.3-0.3 0.6c-0.1 0-0.2 0.1-0.4 0.1-1.1 0.3-2.2 0.3-3 1q-0.3 0.2-0.6 0.6c-0.4 0.6-0.6 1.4-1 2.1-0.1 0.1-0.4 0.7-0.7 0.7q0 0 0 0-0.2-0.2-0.2-0.4 0-0.3 0-0.4 0-0.8-0.3-1.5 0-0.1-0.1-0.3 0-0.1 0-0.3-0.1-0.2-0.2-0.3-0.1-0.1-0.1-0.3-0.1-0.1-0.2-0.2-0.2-0.4-0.6-0.8 0-0.1 0-0.2 2 0.2 4 0.1 0.9-0.1 1.8-0.2 0.3-0.1 0.7-0.1 0 0 0 0 0.6-0.1 1.2-0.2z"/><path class="n" d="m217.8 94c0.2 2.9-2.1 5.5-4.7 6.9-2.5 1.4-5.6 2.2-8.8 2.4q-0.6 0-1.2 0c-4.6 0-9.2-1.5-12.1-4.6q-0.2-0.2-0.4-0.5c-1.1 1.4-2.6 2.6-4.3 3.3-2.5 1.2-5.3 1.8-8.1 1.8q-0.7 0-1.3 0c-3.1-0.1-6.1-0.9-8.8-2.4-2.6-1.4-4.8-4-4.7-6.9 0.2 2.9 2.5 5.1 5.1 6.3 2.1 0.9 4.6 1.4 7.1 1.5q0.3 0 0.6 0c4.6 0 9.2-1.5 11.8-4.7 0.6-0.8 0.9-1.7 1-2.5 0-0.2 0.7-8.1 0.7-8.3h2.3l0.3 7.7q0 0.2 0 0.3c0 2.2 1.8 4.1 3.8 5.3 2.7 1.5 5.8 2.2 9 2.2q0.2 0 0.5 0c2.5 0 4.9-0.6 7.1-1.5 2.6-1.2 5-3.4 5.1-6.3z"/><path class="u" d="m199 84.5c0 3.8-6.8 8.2-8.6 8.2-1.8 0-8.7-4.3-8.7-8.2 0-2.7 3.9-2.7 8.7-2.7 4.7 0 8.6 0 8.6 2.7z"/><path class="n" d="m190.4 90.7c-1.7 0-8.3-3-8.6-5.8 0.3 3.7 6.9 7.8 8.6 7.8 1.8 0 8.2-4.2 8.6-7.8-0.4 2.7-6.8 5.8-8.6 5.8z"/><path class="n" d="m213.4 90.5c8.7 0.3 17.4 2.7 25.2 6.7-8.2-3-16.6-5.2-25.2-6.7z"/><path class="n" d="m167.3 90.5c-8.6 1.5-16.9 3.7-25.2 6.7 7.8-4 16.5-6.4 25.2-6.7z"/><path class="n" d="m208.5 83.5c17-6.1 35.1-8.9 53.1-8.4-18 0.6-35.8 3.4-53.1 8.4z"/><path class="n" d="m213.4 86.1c17.8-1.9 35.9-1.3 53.4 1.8-17.7-2-35.5-2.6-53.4-1.8z"/><path class="n" d="m172.2 83.5c-17.2-5-35-7.8-53-8.4 18-0.5 36.1 2.3 53 8.4z"/><path class="n" d="m167.3 86.1c-17.8-0.8-35.6-0.2-53.4 1.8 17.6-3.1 35.7-3.7 53.4-1.8z"/><path class="c" d="m172.8 20.6c0.3 0.4 0.6 0.7 1 0.9-1.4 0.5-2.9 0.8-4.4 0.8 0.6 0.4 1.3 0.6 1.9 0.7q-2.9 0.9-5.7 2.1c0.4 0.1 0.8 0.2 1.2 0.3 0.3 0.2 0.9 0.7 1.2 0.7-1.2 0-3.2 0.6-3.8 1.3 0.8 0 1.1 0.1 1.6 0.5-1.6 1.1-3.1 2.4-4.5 3.8-1.6 1.6-3 3.4-4.5 5-1.4 1.5-2.8 3.4-3.5 5.3-0.2-0.5-0.3-1.3-0.3-1.9-0.9 1.3-1.4 3.3-1.7 5-0.3-0.4-0.6-0.8-0.6-1.4-0.4 1.6-1 3.1-1.6 4.6-0.5 1.1-1.2 2.5-2.5 2.7-2.2 0.4-3.7-2-4.6-3.6q-0.4-0.6-0.6-1.2c-0.3-0.6-0.6-1.2-0.8-1.8q-0.1-0.3-0.1-0.5c-0.1-0.5-0.2-1-0.2-1.5q0-0.2 0-0.4c0.1-1 0.5-2 0.8-3q0.1-0.3 0.2-0.7 0.1-0.7 0.1-1.4 0-0.5-0.3-1.1-0.2-0.5-0.6-1c-1.3-1.5-3.4-2.2-4.4-4.3-0.6-1.4-0.9-2.8-1-4.2q0-0.3-0.1-0.6 0-0.6 0-1.1c-0.2-3.7 0.1-6.8 1.2-10.2 1.1-3.4 2.6-6.5 4.4-9.4 1-1.5 2.1-3 3.7-4 1.6-0.9 3.7-1.1 5.7-0.9 2.4 0.3 4.8 1.2 7 2.5q1.6 1 3.1 2.2 0.1 0.1 0.2 0.2c0.5 0.3 0.9 0.7 1.3 1q0.6 0.6 1.3 1.3c0-0.5-0.1-1.1-0.4-1.5 1 0.7 1.7 1.7 2.4 2.7q-0.1-0.5-0.2-1.1c0.2 0.1 0.5 0.4 0.8 0.7 0.2 0.2 0.5 0.5 0.7 0.7 0.2 0.4 0.5 0.6 0.6 0.8q1.1 1.2 2.1 2.4c1.3 1.5 2.6 3.2 3.7 4.9 0.2 0.3 1.8 3.4 1.8 3.4-0.5 0-1.2 0-1.6 0.3z"/><path class="v" d="m160.9 21.1c-2-3.7-4.8-7.4-8.7-8.3 1.5 1.4 2.9 2.8 4.1 4.5 1.2 1.6 2.1 3.6 2.1 5.6q-2.7-0.5-5.5-1 1.8 1.5 3.2 3.4c-1.9 0.1-3.8 0.7-5.4 1.9 1.7 0.2 3.3 0.8 4.8 1.8q-1.5 0.5-3 1c0.6 0 1.2 0.1 1.5 0.5 1.5 2.1-3.3 6.4-4.4 7.7-0.5 0.5-1 1-1.7 0.9-2.8-0.3-1.9-7.2-2.3-8.9-0.4-1.9-2.1-3.4-3-5.1-3.6-6.7 0.9-17.5 8.3-17.6 6.3-0.2 12.9 4.8 12.1 11.8q-1.3-1.8-2.7-3.7 0.5 2.8 0.5 5.5z"/><path class="a" d="m143.8 41.3c0 0.6-0.1 1.3-0.5 1.9-0.4 0.7-1.7 0.9-2.8 0.7-0.1-0.5-0.2-1.1-0.2-1.6q0-0.2 0-0.3c0.1-1 0.5-2 0.8-3q0.1-0.4 0.2-0.8 0.1-0.6 0.1-1.3 0.1 0 0.2 0.1c1 0.5 1.4 1.6 1.9 2.6q0.3 0.8 0.3 1.7z"/><path class="a" d="m144 46.8c0.8 0.1 1.1-1.3 1-2-0.1-0.4-0.4-0.9-0.9-0.6-0.2 0.2-0.4 0.7-0.5 1-0.3 0.7-0.5 1.5 0.4 1.6z"/><path class="h" d="m247.3 32.5c2.8-7.4 4-19.1-3.8-24.4-3.6-2.4-9.4-4.6-13.5-2.1-0.1-0.1-0.1-0.3 0-0.4-0.7 0.2-1.3 0.6-1.8 1.1-0.2-0.3-0.2-0.7 0-1-1.1 0.3-2.2 1.2-3.1 1.9-1.7 1.3-3 2.8-4.3 4.4-1.1 1.4-2.6 2.4-4 3.5-1.1 1-2.8 1.5-4.1 2.3-1.4 1-2.3 1.1-2.9 2.9-0.1 0.3-0.2 3.7 0.2 3.3 0.4-0.3 0.9-0.5 1.3-0.7-0.1 0.4 0.2 3.9 0.4 3.7 0.9-0.7 1.5-0.9 2.8-0.7-0.8 0.2-1.3 1.1-1.3 1.9 1.7 0 3.5 1 4.9 1.8 0.4 0.3 0.8 0.5 1 0.8-0.6 0-0.9-0.1-1.5 0 0.8 0.3 1.6 0.7 2.3 1.3 0.7 0.5 1.3 0.9 1.8 1.6-0.2-0.3-1.2 0.1-1.4 0.2 1.3 0.6 2.7 1.2 3.8 2.2 1.4 1.1 1.7 2.9 2.6 4.4 0-0.5 0.3-1 0.6-1.5q0.6 1.6 1.6 3 0.4-0.4 0.8-0.8c0.3 0.6 0.1 1.4 0.2 2.1 0.2 2.1 4.3 2.3 6 2.1 4.5-0.6 7.1-4.4 8.4-8.4q0.3 0.7 0.6 1.4c0.8-1.9 1.6-3.9 2.4-5.9z"/><path class="w" d="m240.3 36.5c1.8-2.9 2.9-6.3 3-9.7 0.1-5.1-2.4-13.1-7.7-15.1-2.5-0.9-5.2-0.3-7.4 1-3 1.9-4.6 5-7 7.4-1.5 1.5-5.1 4.9-7.6 4.3 2.4 0.6 5 0.2 7.2-1.1q-1.2 0.8-2.3 1.5c1.3 0.1 2.5-0.1 3.8-0.4-0.6 0.1-1.2 0.6-1.6 1 1.9 0.2 2.8-1.7 4.5-1.5-0.5 0.3-0.8 0.9-0.8 1.5q-0.4 0.5-0.8 1c0.5-0.3 1-0.6 1.6-0.7-0.7 0.7-1.2 1.2-1.6 2.1-0.4 0.8-0.8 1.5-1.7 1.8q1.9-0.6 3.5-1.8c-0.6 1-1.6 1.7-2.6 2.1 0.8-0.3 1.7-0.6 2.5-0.6 0.2 0 1.3 0.3 1.4 0.2-0.2 0.3-1.9 2.5-1.9 2.5q1.2 0.4 2.4 0.8-0.4 0.3-0.9 0.7c0 0.4 0.5 0.6 0.9 0.7 0.4 0.1 0.8 0.1 1.1 0.4 0.3 0.3 0.2 0.7-0.2 0.9 0.5 0.5 1.2 0.7 2.1 0.6-0.3 0.6-0.3 1.3-0.5 1.9q1.3 0 2.5 0.1-0.3 0.6-0.6 1.3c0.3-0.2 0.7-0.2 1-0.1-0.2 0.6-0.5 1-0.9 1.5 1.3 1.6 4.8 0.1 5.9-1q1.6-1.5 2.7-3.3z"/></svg>