<svg version="1.2" xmlns="http://www.w3.org/2000/svg" viewBox="0 0 470 470" width="470" height="470"><style>.a{fill:#e6d6bf}.b{mix-blend-mode:multiply;fill:#e6d6bf}.c{fill:none}.d{fill:#665c4f}.e{mix-blend-mode:multiply;fill:#878787}.f{fill:#bf6d34}.g{fill:#dca43c}.h{mix-blend-mode:multiply;fill:#bf6d34}.i{fill:#9c8c78}.j{mix-blend-mode:multiply;fill:#9c8c78}.k{fill:#5f584f}.l{fill:#d8c7ad}.m{mix-blend-mode:multiply;fill:#b2b2b2}.n{fill:#322f2a}.o{fill:#b99c8d}.p{mix-blend-mode:multiply;fill:#b99c8d}.q{fill:#d97a78}.r{fill:#e4807e}.s{fill:#fff}.t{fill:#ecd934}.u{fill:#1d1d1b}.v{mix-blend-mode:multiply;fill:#dadada}</style><path class="a" d="m258.9 369.9c0 0 0 0 0 0.1-1 9.2-4.3 17.8-7.2 26.9q-0.4 1-0.7 2.1-0.2 0.7-0.4 1.4-0.1 0.4-0.2 0.7c-0.8 2.8-1.5 5.6-2.3 8.4q-0.3 1.1-0.6 2.2-0.1 0.5-0.3 1-0.3 1-0.6 1.9-0.3 1-0.7 1.9c-0.9 2.7-2.1 5.2-3.5 7.6-0.9 1.5-2 3-3.2 4.5 0.1-1.8-0.6-3.6-1.9-4.7-2 2.8-23.2 17.9-23.3 16.3q-0.2-3-0.3-5.9c-2 1.2-3.6 3-4.6 5.1q-0.7-1.4-1.3-2.8-0.9-1.9-1.8-3.9-0.6 0.7-1.3 1.2c-2.7 2.1-6.5 2.9-9.8 1.9 1.7-3 2.5-6.5 2.3-10-2.7 1.1-5.1 2.9-7.1 5.1 0.2-4.6 0.6-9.2 1.4-13.7-2.3 1.3-4.3 3.1-5.8 5.4q-0.2-2.7 0.3-4.9 0.2-0.7 0.3-1.3c0.8-2.6 2-5 3.5-7.2 1.6-2.6 3.4-5.1 5-7.8 0.9-1.3 1.6-2.8 2.2-4.2q0.3-0.8 0.6-1.5 1.8-4.3 3.3-8.7 0 0 0 0 1.6-4.5 3-9.1c2.9-9.3 5.1-18.8 6.7-28.4 0.3-2.2 0.7-4.4 1.1-6.6q0.2-0.9 0.4-1.8 0.2-0.5 0.3-1 0.1-0.3 0.2-0.6 0.1-0.4 0.2-0.7 0.2-0.4 0.3-0.9 0.2-0.5 0.4-0.9 0.2-0.5 0.4-0.9 0.4-0.9 0.9-1.7 0.3-0.5 0.6-0.9 0.4-0.6 0.8-1.2 0.2-0.2 0.5-0.5 0.2-0.3 0.5-0.5c0.1-0.2 0.3-0.4 0.5-0.6q0.5-0.5 1.1-0.9 0.6-0.5 1.2-0.9 0.1-0.1 0.2-0.2 0.6-0.4 1.2-0.7 0.2-0.1 0.4-0.2 0.6-0.4 1.3-0.7 0.7-0.3 1.4-0.5 0.8-0.3 1.6-0.5 0.1-0.1 0.2-0.1c0.2 0 0.5-0.1 0.8-0.2q0.1 0 0.1 0 0.5-0.1 1-0.2 0.4-0.1 0.8-0.1 0.5-0.1 0.9-0.1 0.4-0.1 0.8-0.1c3.4-0.1 6.8 0.4 9.9 1.8 11.5 5.2 17.4 20.8 18.4 32.6q0.1 0.8 0.1 1.5 0.3 4.5-0.2 8.6z"/><path class="b" d="m258.8 369.7c0 0 0 0 0 0.1-1 9.3-4.2 17.8-7.1 26.9q-0.3 1.1-0.6 2.2-0.2 0.6-0.4 1.3-0.1 0.4-0.2 0.8c-0.8 2.8-1.5 5.6-2.3 8.4q-0.3 1.1-0.6 2.2-0.1 0.5-0.3 1-0.3 1-0.6 1.9-0.3 0.9-0.6 1.9c-1 2.6-2.1 5.2-3.5 7.6q-1.4 2.3-3.2 4.5c0.1-1.7-0.6-3.5-1.9-4.7-2 2.8-23.2 18.1-23.3 16.5q-0.1-3-0.3-6c-1.9 1.3-3.5 3.1-4.5 5.2q-0.7-1.4-1.4-2.8-0.9-1.9-1.8-3.9-0.6 0.7-1.3 1.2c-2.7 2.1-6.4 2.9-9.7 2 1.6-3.1 2.4-6.6 2.2-10.1-2.7 1.2-5.1 2.9-7.1 5.1q0.2-6.8 1.4-13.6c-2.4 1.2-4.4 3.1-5.8 5.4q-0.2-2.6 0.3-4.9 0.1-0.7 0.3-1.3c0.7-2.6 1.9-5 3.4-7.2 1.6-2.6 3.4-5.1 5-7.8 0.8-1.4 1.6-2.8 2.2-4.3q0.2-0.7 0.5-1.4 1.8-4.4 3.3-8.7 0-0.1 0-0.1 1.6-4.5 3-9.1 4.2-14 6.5-28.5c0.3-2.1 0.6-4.3 1.1-6.5q0.2-0.9 0.4-1.8 0.1-0.5 0.3-1 0.1-0.3 0.2-0.7 0.1-0.3 0.2-0.6 0.1-0.5 0.3-0.9 0.2-0.5 0.4-0.9 0.1-0.5 0.3-0.9 0.4-0.9 0.9-1.8 0.3-0.4 0.6-0.9 0.4-0.6 0.8-1.1 0.2-0.3 0.5-0.5 0.2-0.3 0.5-0.6c0.1-0.1 0.3-0.3 0.5-0.5q0.5-0.5 1.1-1c0.4-0.3 0.8-0.6 1.2-0.9q0.1-0.1 0.2-0.1 0.6-0.4 1.2-0.8 0.2-0.1 0.4-0.2 0.6-0.3 1.3-0.6 0.7-0.3 1.4-0.6 0.8-0.3 1.6-0.5 0.1 0 0.2-0.1c0.2 0 0.5-0.1 0.8-0.2q0.1 0 0.1 0 0.5-0.1 1-0.2 0.4-0.1 0.8-0.1 0.5-0.1 0.9-0.1 0.4-0.1 0.8-0.1c3.4-0.2 6.8 0.4 9.9 1.7 11.5 5.1 17.5 20.8 18.6 32.6 0 0.5 0.1 1 0.1 1.5q0.3 4.4-0.2 8.6z"/><path class="b" d="m258.9 369.9c0 0 0 0 0 0.1-1 9.2-4.3 17.8-7.2 26.9q-0.4 1-0.7 2.1-0.3 1-0.6 2.1c-0.8 2.8-1.5 5.6-2.3 8.4q-0.3 1.1-0.6 2.2-0.1 0.5-0.3 1-0.3 1-0.6 1.9-0.3 1-0.7 1.9c-0.9 2.7-2.1 5.2-3.5 7.6q-0.3-6.4-1.2-12.7c-6 6.7-12.7 12.8-19.8 18.3 0.7-0.5-0.2-5.9-0.3-7 0 1.6-9.1 6-10.4 6.4 1.2-3.2 1.1-6.6 1.7-10-2.5 3.8-5.8 7.2-9.7 9.6 0.6-4.3 0.6-8.8 0.2-13.2q-4.5 4-8.2 8.7 1.1-5.8 2.2-11.6c-3.9 1-7.6 2.8-10.9 5.1 0.7-3.2 2.1-5.9 3.8-8.5 1.6-2.6 3.4-5.1 5-7.8 0.9-1.3 1.6-2.8 2.2-4.2q0.3-0.8 0.6-1.5c1.6-2.6 2.5-5.6 3.3-8.7q0 0 0 0c0.9-3.1 1.6-6.3 3-9.1 4.2-8.3 5.3-19.8 6.7-28.4 0.3-2.2 0.7-4.4 1.1-6.6q0.2-0.9 0.4-1.8 0.2-0.5 0.3-1 0.1-0.3 0.2-0.6 0.1-0.4 0.2-0.7 0.2-0.4 0.3-0.9 0.2-0.5 0.4-0.9 0.2-0.5 0.4-0.9 0.4-0.9 0.9-1.7 0.3-0.5 0.6-0.9 0.4-0.6 0.8-1.2 0.2-0.2 0.5-0.5 0.2-0.3 0.5-0.5c0.1-0.2 0.3-0.4 0.5-0.6q0.5-0.5 1.1-0.9 0.6-0.5 1.2-0.9 0.1-0.1 0.2-0.2 0.6-0.4 1.2-0.7 0.2-0.1 0.4-0.2 0.6-0.4 1.3-0.7 0.7-0.3 1.4-0.5 0.8-0.3 1.6-0.5 0.1-0.1 0.2-0.1c0.3 0 0.5-0.1 0.8-0.2q0.1 0 0.2 0 0.4-0.1 0.9-0.2 0.4-0.1 0.8-0.1 0.5-0.1 0.9-0.1 0.4-0.1 0.8-0.1c3.4-0.1 6.8 0.4 9.9 1.8 11.5 5.2 17.4 20.8 18.4 32.6q0.1 0.8 0.1 1.5c0.1 2.9 0 5.7-0.2 8.6z"/><path class="c" d="m236.3 393.9l0.6 0.5"/><path class="d" d="m137.6 333.4q-0.3 0.9-0.6 1.7-0.5 1.4-1.1 2.7c-1.3 3.4-2.8 6.8-4.6 9.9q-0.4 0.9-1 1.8-0.4 0.6-0.8 1.2-0.4 0.6-0.8 1.2-0.3 0.3-0.5 0.7-1.4 1.9-3.1 3.5-0.6 0.5-1.1 1-0.1 0.1-0.3 0.2-0.6 0.5-1.2 1-0.1 0.1-0.2 0.1c-3.4 2.6-7.4 4.2-11.8 4.5q-0.4 0-0.9 0-0.5 0.1-0.9 0.1c-2.9-0.1-5.9-0.6-9-1.6-2.1-0.7-4.2-1.7-6.4-1.7-1 0.1-2 0.3-3 0.4q0 0-0.1 0c-3.6 0.3-7-1.3-10-3.7-3.8-3-7-7.1-9.5-10.2q-0.5-0.6-1.2-1.8c-0.6-1-1.3-2.3-2-3.7-7.9-15.9 7.3-36.8 18.1-47.6 5.2-5.1 11-9.8 17.8-12.2 6.8-2.4 14.8-2.3 20.8 1.7 9.1 6.1 11.9 18.4 13.4 28.6 0.9 6.6 2.2 15.7 0 22.2z"/><path class="e" d="m137.6 333.4q-0.3 0.9-0.6 1.7-0.5 1.4-1.1 2.7c-1.3 3.4-2.8 6.8-4.6 9.9q-0.4 0.9-1 1.8-0.4 0.6-0.8 1.2-0.4 0.6-0.8 1.2-0.3 0.3-0.5 0.7-1.4 1.9-3.1 3.5-0.6 0.5-1.1 1-0.1 0.1-0.3 0.2-0.6 0.5-1.2 1-0.1 0.1-0.2 0.1c-3.6 2.5-7.5 4.1-11.8 4.5q-0.4 0-0.9 0-0.5 0.1-0.9 0.1c-2.9-0.1-5.9-0.6-9-1.6-2.1-0.7-4.2-1.7-6.4-1.7-1 0.1-2 0.3-3 0.4q0 0-0.1 0c-3.6 0.3-7-1.3-10-3.7 1.5 0.5 3 1.1 4.6 1.2 2 0.2 4.1-0.4 6.1-1-1.2-2.8-2.3-7-4.5-9.1-1.1-1.1-4-2.6-4.1-4.3 0 1.3 0.4 7.6 1.7 7.9-5.7-1.2-10.6-4.9-14.9-8.6-0.6-0.5-1.2-1.1-1.6-1.8-7.9-15.9 7.3-36.8 18.2-47.6 5.1-5.1 10.9-9.8 17.7-12.2 6.8-2.4 14.8-2.3 20.8 1.7 9.2 6.1 11.9 18.4 13.4 28.6 0.9 6.6 2.2 15.8 0 22.2z"/><path class="f" d="m169.2 213.4q0 0.2-0.1 0.4 0 0.1 0 0.3-0.1 0-0.1 0.1-0.2 0.8-0.4 1.5-0.2 0.6-0.3 1.2-0.8 2.6-1.4 5.2-0.2 0.5-0.3 0.9-0.1 0.5-0.2 1-0.1 0.4-0.3 0.9-0.2 0.8-0.3 1.5-0.1 0.3-0.2 0.6c-2 7.8-4.2 15.5-6.6 23.1-2.5 8.1-4.6 16.9-5.6 25.3q-1 8.9-0.9 17.8-1.7-2.2-2.9-4.8-1.4-2.6-2.3-5.3-0.1-0.3-0.1-0.4-0.4 6.6-0.8 13.3-1.1-1.6-2.1-3.2-0.1 1.9-0.2 3.7-0.1 1.9-0.2 3.8-0.2 2.1-0.4 4.3-0.1 1-0.2 2-0.1 1.1-0.2 2.2-0.2 1.3-0.3 2.6-0.1 0.3-0.1 0.7-0.5 3.1-1.1 6.2-0.4 2-0.8 4.1-0.2 0.7-0.4 1.4-0.2 0.7-0.4 1.5c-0.4 1.6-0.8 3.2-1.3 4.8q-0.6 1.6-1.1 3.3-0.3 0.9-0.6 1.7-0.5 1.4-1.1 2.7c-1.1 2.9-2.2 7-4.1 9.4q-0.2 0.3-0.5 0.5c-1.7 1.6-6 3.5-6.2 5.4 0.4-3.8-0.3-7.7-1.9-11.2q-2.3 4.5-5.1 8.6-0.2-1.6-0.4-3.3c-2.8 3.5-7.3 5.7-11.8 5.6-0.6 0-1.3 0-1.7-0.4-0.4-0.4-0.5-0.9-0.6-1.5q-0.7-3.9-1.3-7.9l-10.1 9c-2-1.5-3.7-3.2-5.2-5-2.4-2.9-4.2-6.1-5.5-9.5-1.4 4.1-1 8.7 0.9 12.5-6.3-3.4-13-7.3-16.8-13.6q-0.4-0.6-0.8-1.4c-2.2-4.2-5.8-12.6-3.3-15.6-2 2-2.9 5.1-2.3 7.9-4.1-11-3.7-23.1-1.1-34.5 2.6-11.4 7.5-22.1 12.2-32.8q-2.1 3-4.3 5.9c1.5-19.8 14.3-36.7 26.7-52.4-4.5 1.7-8.3 5.2-10.3 9.4 1.6-12.4 10.2-22.7 19-31.7q1.2-1.3 2.3-2.5 0.5-0.6 1-1.1 0.2-0.2 0.4-0.4 1.1-1.2 2.1-2.4c8.2-9.3 15.9-19.4 24.6-28.1q0.8-0.8 1.6-1.5c1-1 2-2 3.1-3q0.8-0.7 1.6-1.4 3.2-2.8 6.7-5.3 0.9-0.6 1.8-1.2 0.9-0.6 1.8-1.2 0.9-0.6 1.8-1.1 3.7-2.2 7.7-3.9c4.9-2 10.3-3.5 16.2-4.2q0.1-0.1 0.3-0.1c13.4 9.8-2.3 68.8-5.2 79.6z"/><path class="g" d="m122.2 343.8q-1.9 3.5-4.1 6.7-0.2-1.6-0.4-3.3c-2.8 3.5-7.3 5.7-11.8 5.6-0.6 0-1.3 0-1.7-0.5-0.4-0.3-0.5-0.8-0.6-1.4q-0.6-3.9-1.3-7.9l-10.1 9c-2-1.5-3.7-3.2-5.2-5.1-2.3-2.8-4.2-6-5.5-9.4-1.4 4.1-1 8.7 0.9 12.5-6.3-3.5-13-7.3-16.8-13.6q-0.4-0.6-0.8-1.4c-2.2-4.2-5.8-12.6-3.3-15.6-2 2-2.9 5.1-2.3 7.9-3.1-8.2-4-17.9-2.5-26.6 0.6-3.4 1.5-6.2 3.1-9.3 0.9-1.8 5.5-6.6 5.6-8q-0.4 4.2-0.8 8.4c4.1-6.9 9-13.2 14.4-19q-0.2 5.9-0.4 11.9c3-7 5.7-10.1 10.6-15.5-1.2 7.2-1.5 14.3 0.3 21.4 5.3-4.2 11.2-7.8 17.5-10.5-3 6.3-4.4 13.4-4.1 20.4 1.2-2.2 3.1-4 5.3-5.2-0.2 4.6 4.7 15.4 3 19.4 1.2-2.9 4.8-4.6 7.8-3.6-0.4 11 0.7 22 3.2 32.7z"/><path class="g" d="m114.8 251.4q-0.2 3.1-0.7 6.2-2.1-0.4-4.2-0.4-0.3 11.1-0.6 22.2c-0.8-5.3-2.7-10.3-5.5-14.8q-1.9 3-3.7 6c0-3.9 0.4-13.9-3.9-15.1-3.1-0.9-13.4 6.6-16.3 8.1q0.3-5.6 0.6-11.2c-2.2 0.3-4.2 1.6-5.4 3.4 0.2-19.6 13.6-28.7 29-36.8-2.1 3.3-2.9 7.5-2.3 11.4 0.1 0.3 10-3.9 10.8-4.3-2.4 1.1 1.6 14.3 1.9 16.3 0.4 3 0.5 6 0.3 9z"/><path class="h" d="m169.2 213.4q0 0.2-0.1 0.4 0 0.1 0 0.3-0.1 0-0.1 0.1-0.2 0.8-0.4 1.5-0.2 0.6-0.3 1.2-0.3 1.1-0.6 2.2-0.4 1.6-0.8 3-0.2 0.5-0.3 0.9-0.1 0.5-0.2 1-0.1 0.4-0.3 0.9-0.2 0.8-0.3 1.5-0.1 0.3-0.2 0.6c-2 7.8-4.2 15.5-6.6 23.1-2.5 8.1-4.6 16.9-5.6 25.3q-1 8.9-0.9 17.8-1.7-2.2-2.9-4.8-1.4-2.6-2.3-5.3-0.1-0.3-0.1-0.4-0.4 6.6-0.8 13.3-1.1-1.6-2.1-3.2-0.1 1.9-0.2 3.7-0.1 1.9-0.2 3.8-0.2 2.1-0.4 4.3-0.1 1-0.2 2-0.1 1.1-0.2 2.2-0.2 1.3-0.3 2.6-0.1 0.3-0.1 0.6-0.4 3.2-1.1 6.3-0.4 2-0.8 4.1-0.2 0.7-0.4 1.4-0.2 0.7-0.4 1.5-0.6 2.3-1.3 4.8-0.6 1.6-1.1 3.3-0.3 0.9-0.6 1.7-0.5 1.4-1.1 2.7c-1.3 3.4-2.8 6.8-4.6 9.9-1.7 1.6-6 3.5-6.2 5.4 0.4-3.8-0.3-7.7-1.9-11.2q-2.2 4.5-5.1 8.6-0.2-1.6-0.4-3.3c-2.8 3.5-7.3 5.7-11.8 5.6-0.6 0-1.3 0-1.7-0.5-0.4-0.3-0.5-0.8-0.6-1.4q-0.6-3.9-1.3-7.9l-10.1 9c-1.9-1.5-3.7-3.2-5.2-5q-0.3-2-0.4-3.9c-0.5-7.8 0.6-31.1 6.3-37q-2.2 2.3-4.5 4.7c1.4-10.9 5.2-21.5 10.9-30.7q-2.7 1-5.5 2c2.9-27.1 13.5-53.2 29.9-74.3-0.7 0.3-1.6 0-2-0.7-0.5-1-0.2-2.3 0.2-3.4 2.2-5.9 5.1-11.6 8.6-16.7q-4.5 1.5-9 3c4.9-10.7 16.5-16.3 22.9-26.2 1-1.6 4-12.5 5.2-12.5q-1.1 0-2.1 0c1.2-3.4 3-6.5 5.3-9.2q-1.3-0.1-2.6-0.1 3.7-2.2 7.7-3.9c4.9-2 10.3-3.5 16.2-4.2q0.2-0.1 0.3-0.1c13.4 9.8-2.3 68.8-5.2 79.6z"/><path class="i" d="m407.8 325.8q-0.2 5-1.1 10.4c-0.3 1.8-0.7 3.8-1.3 5.6q-0.4 1.2-0.9 2.4-0.2 0.4-0.3 0.9c-1.2 2.7-2.8 5.4-5.1 7.4-2.7 2.5-4.7 2-8.1 2.3-6.5 0.6-12.2 4.3-18.8 4.2q-1.8 0-3.6-0.4c-0.8-0.1-1.7-0.4-2.1-1.1-0.4-0.7-0.3-1.5-0.1-2.2q0.9-5 1.9-10c0.6-2.9 1.1-5.9 0.7-8.8-0.5-2.9-2.1-5.7-4.8-6.9-1.6 4.7-5.5 8.4-10.2 9.9-2.2 0.6-5.1 0.4-6.5-1.1-0.5-0.5-0.8-1.1-0.9-1.8-0.2-1.1 0.3-2.3 0.8-3.3q0-0.1 0.1-0.1c2.9-6.6 4.5-12.7 6.8-18.7 1.8-4.4 3.9-8.7 7.2-13q0.4-0.4 0.7-0.9 0.3-0.3 0.4-0.6 0.4-0.4 0.7-0.8 0.2-0.4 0.4-0.8c3.9-6.7 7-14 9.8-21.5 2.2-5.7 5.2-11.5 8.8-13.7 2.1 0.3 4 1.3 5.6 2.6q1.4 1.2 2.5 2.7 0.1 0.2 0.3 0.4 0.1 0.1 0.2 0.2 0.3 0.5 0.6 1 0.4 0.5 0.7 1.1c1.6 2.5 2.9 5.4 4.3 8.3q0.9 1.7 1.7 3.4 0.7 1.6 1.4 3.1 0.7 1.7 1.4 3.4 0.6 1.7 1.2 3.4 1.3 3.4 2.3 6.8 0.2 0.9 0.5 1.8 0.3 1.1 0.6 2.2 0.3 1.2 0.5 2.4c0.9 4.5 1.5 9.1 1.7 13.9q0 0.4 0 0.8 0.1 2.5 0 5.1z"/><path fill-rule="evenodd" class="j" d="m398.8 333.6c-1.2 4.1-2 8.3-3.6 12.2-2 4.6 8.9 2.7 9.4-2.6q0 0.5-0.1 1-0.2 0.5-0.3 0.9c-1.2 2.7-2.8 5.5-5.1 7.5-2.7 2.4-4.7 1.9-8.1 2.2-6.5 0.6-12.2 4.3-18.8 4.2q0 0 0 0c-1.2-0.2-2.4-0.1-3.6-0.4-0.8-0.1-1.7-0.4-2.1-1.1-0.4-0.7-0.3-1.5-0.1-2.2q0.9-5 1.9-10c0.6-2.9 1.1-5.8 0.7-8.7-0.5-2.9-2.1-5.8-4.8-6.9-1.6 4.6-5.5 8.3-10.2 9.8-2.2 0.7-5.1 0.4-6.5-1.1q-0.7-0.7-0.9-1.7c-0.2-1.2 0.3-2.3 0.8-3.4 1.3 0.7 2.8 1.3 3.4 1.2 2.5-0.2 3.7-2.4 4.8-4.6 1.9-4 3.1-8.3 3.7-12.7 0.1-1 0.1-2.1-0.6-2.8-0.9-0.8-2.4-0.4-3.6 0q-0.4 0-0.8 0.1c1.8-4.4 3.9-8.7 7.2-12.9q0.4-0.5 0.7-1 0.2-0.3 0.4-0.5 0.4-0.5 0.7-0.9 0.2-0.4 0.4-0.8c3.9-6.7 7-14 9.8-21.4 2.2-5.8 5.2-11.6 8.8-13.8 1.3-0.8 3.6 0.8 5.6 2.7 1 0.9 1.9 2 2.5 2.7q0.2 0.2 0.3 0.3 0.1 0.2 0.2 0.3 0.3 0.4 0.6 0.9 0.4 0.6 0.7 1.1c1.6 2.5 2.9 5.4 4.3 8.3q0.9 1.7 1.7 3.4 0.7 1.6 1.4 3.2 0.7 1.6 1.4 3.3 0.6 1.7 1.2 3.4 1.3 3.4 2.3 6.9 0.3 0.8 0.5 1.7 0.3 1.1 0.6 2.3 0.3 1.1 0.5 2.3 0.1 0.3 0.1 0.7c0.8 3.8 1.7 7.8 1.7 11.8q0 0.7-0.1 1.4c-0.2 0.9-4.5 8-3.9 8.4q-0.6-0.4-0.9-1-0.6 3-1.8 5.8-0.9-0.9-1.8-1.9-0.3 1.2-0.7 2.4zm5.2-5.3q0-0.1 0-0.1 0 0 0 0.1zm0.7 14.8q0 0.1 0 0.1 0 0 0-0.1zm-33.3 4.4q-0.5 1.7-1.1 3.4c-1.3 3.7 4.2 2.8 6 2.1 2.6-0.9 5.2-1.9 7.2-3.8 2.1-2 3.3-4.7 4.3-7.3 1-2.5 2.4-5.4 1.6-8.1-1.1 1.2-7.9 5.4-8.1 6.6 0.3-1.8 0.4-3.6 0.3-5.3-1.1 1.5-3.4 4.7-5.5 3.8-1.1-0.4-2.9-4.6-3-5.8 0.2 4.8-0.4 9.7-1.7 14.4zm9.9-7.1q0 0 0 0 0 0 0 0z"/><path class="a" d="m412.5 303.6c0.2 0.3-2.1-0.1-2.4-0.1 0.3 0.4 1.2 5.8 1.9 6.5-0.7 0-1.4-0.3-2-0.8 1.4 3 0.7 6.5 0 9.8-0.3-1.8-1.6-3.1-3.3-3.3-0.1 0.6-0.9 4.5-0.5 4.9-0.6-0.6-1.1-1.2-1.8-1.7-0.1 1.4-1.6 2.1-2.2 3.3-0.3-1-0.9-3.6-0.4-4.4q-2.4 3.9-4.8 7.9c-0.5 0.9-1.1 1.8-1.9 2.3 0.6-1.5 0.6-3.2 0-4.7-1.4 2.5-3.3 4-5.8 5.4-0.1 0.1-1 0.6-2.1 1.2-1.4 0.8-3.2 1.8-3.2 1.8q-1.7-3.9-3.4-7.8c-1.2 1.8-1.6 4.1-1.1 6.2-2.7-3.7-2.2-9.1-4.8-12.8 0 1.7-0.5 3.4-1.5 4.8-0.4-3.6-1.4-7-3-10.2-0.6 1.9-1.6 3.6-2.9 5.1q-0.4-2.1-1.4-4-0.9 2.7-1.9 5.3c-0.1-0.6-2.8-8.7-4.1-7.8-2.4 1.6-5.4 2-8.1 1 1.9-0.6 4.9-2.8 4.9-5-0.4 0-2 0.1-2 0.7 0.1-1.6 1.7-2.6 3-3.4 5.5-3.4 3.3-11.2 1.9-16.3-0.2 1.4-1 2.7-2 3.6 0.2-2.8 0-5.5-0.5-8.2-0.3 1.1-1.2 2.1-2.3 2.5 0.5-1.7 0.6-3.6 0.2-5.3-0.9 0.8-1.4 2.1-1.3 3.4-1.5-2.3-2.4-5-2.6-7.7-0.2-3.7-0.3-7.4-1.4-10.9-0.3-0.9-4.9-8.6-5.2-8.2-0.8 1.3-1 3.1-0.4 4.6-2.1-2.2-3.9-4.9-5-7.7 0.1 1.6-0.2 3.3-0.9 4.8-0.1-4.5-2.6-8.9-6.4-11.3 0.9 1.3 1.6 2.9 1.8 4.6-2.2-2.2-4-4.8-5.2-7.7-1.4 2-1.5 4.9-0.2 6.9-2.9-2.4-5.2-5.5-6.7-8.9q-0.6 1.5-1.1 2.9c-3.6-12.4-14.8-20-20-31.6q-0.5-1.4-1.1-2.8c-0.8-2.6-1.6-5.3-2.3-7.9q-0.1-0.8-0.3-1.6c-0.8-3.1-1.4-6.2-2-9.3q-0.2-1.4-0.5-2.7 0-0.2 0-0.4-0.3-1.5-0.6-3.1-0.3-1.1-0.6-2.5 0-0.1 0-0.2c-2.8-13.1-9.4-40.7 1.9-49q0.2 0 0.4 0.1 0.7 0.1 1.5 0.2c4.6 0.8 9 2.1 13 3.9q0.3 0.1 0.6 0.2c6.4 2.9 12.3 6.6 18 10.8 2.4 1.8 4.7 3.3 6.9 5.2 2.5 2.3 5.4 4.3 8.8 4.9-1.1 1.2-2.8 1.8-4.4 1.6 2.9 1.2 5.7 2.9 8.2 5q-1.9 0.2-3.7 0.4c2.3 1.8 5.1 3.1 7.9 3.7-0.4 1.2-1.4 2.1-2.7 2.5 6.6 6 11.4 13.3 19.1 18.1-1.1 0.4-2.4 0.5-3.5 0.2 2.1 1.9 4.9 3.2 7.7 3.6q-1.7 1.2-3.3 2.5c-0.3 0.2 9.2 12.2 9.8 13 5.1 6.5 10.9 12.1 15.2 19.2-1-1.2-2.6-1.9-4.2-1.8q3.2 4.4 6.9 8.3c-1.4 0-2.8-0.1-4.2-0.2 1.5 2.1 2.7 4.4 3.3 6.8-0.2-0.7-1.4-1-2-0.9-0.4 0 4.9 12.7 5.4 13.7-0.6-0.5-1.4-0.8-2.1-0.7 1 2.1 2.4 4 4 5.6q-1.5-0.2-2.9-0.4c2.5 4 4.8 7.9 5.6 12.6-0.7-0.6-1.6-1.1-2.5-1.2 0.9 2.2 2.2 4.3 3.8 6.2q-0.9 0.3-1.7 0.5c0.2 0 3.5 11.3 3.8 12.3 1.4 4.7 2.1 9.8 4.9 13.9z"/><path class="b" d="m391.6 314.8c-1.1 5.1-2.3 10.3-4.3 15.1-1.5 0.8-3.3 1.8-3.3 1.8q-1.7-3.9-3.4-7.8c-1.2 1.8-1.6 4.1-1.1 6.2-2.7-3.7-2.2-9.1-4.8-12.8 0 1.7-0.5 3.4-1.5 4.8-0.4-3.5-1.4-7-3-10.2-0.6 1.9-1.6 3.6-2.9 5.1q-0.4-2.1-1.4-4-0.9 2.7-1.9 5.3c-0.1-0.6-2.8-8.7-4.1-7.8-2.3 1.6-5.4 2-8.1 1 2-0.6 4.9-2.8 4.9-5-0.4 0-1.9 0.1-2 0.7 0.1-1.6 1.7-2.6 3-3.4 5.5-3.4 3.3-11.2 1.9-16.3-0.2 1.4-1 2.7-2 3.6 0.2-2.8 0-5.5-0.5-8.2-0.3 1.1-1.2 2.1-2.3 2.5 0.6-1.7 0.6-3.6 0.2-5.3-0.9 0.8-1.4 2.1-1.2 3.4-1.5-2.3-2.5-5-2.7-7.7-0.2-3.7-0.2-7.4-1.4-10.9-0.3-0.9-4.9-8.6-5.1-8.2-0.9 1.3-1.1 3.1-0.4 4.6-2.2-2.2-4-4.9-5.1-7.7 0.1 1.6-0.2 3.3-0.9 4.8-0.1-4.5-2.6-8.9-6.4-11.3 0.9 1.3 1.6 2.9 1.8 4.6-2.2-2.2-4-4.8-5.2-7.7-1.4 2-1.5 4.9-0.2 6.9-2.8-2.4-5.2-5.5-6.7-8.9q-0.6 1.5-1.1 2.9c-3.6-12.4-14.8-20-19.9-31.6q-0.6-1.4-1.1-2.8c-0.9-2.6-1.7-5.3-2.4-7.9q-0.1-0.8-0.3-1.6-1-4.6-1.9-9.3-0.3-1.4-0.6-2.7 0-0.2 0-0.4-0.3-1.5-0.6-3.1-0.2-1.1-0.5-2.5-0.1-0.1-0.1-0.2c-2.8-13.1-9.4-40.7 2-49q0.1 0 0.3 0.1 0.8 0.1 1.5 0.2c4.7 0.8 9 2.1 13.1 3.9 3.8 3.3 7.9 6.8 10.8 11 2.7 3.9 3.9 8 8.2 10.8-0.8 1-2.1 1.5-3.3 1.2q3.7 3.1 7.7 5.7c-1.6 0.6-3.4 0.8-5.1 0.5 5.4 3.2 9.7 8.2 12.2 13.9-1.4 0-2.8-0.3-4-0.8 2.6 2.7 5.7 4.9 9.1 6.6-1.3 0.8-2.9 1.1-4.3 0.8q3.4 2.4 6.9 4.8c-1.4 0-2.8 0.3-4.1 0.9 1.1-0.5 4.7 5.1 5.4 5.8 2.3 2.7 5.5 4.3 7.9 6.8 2.2 2.2 3.6 5 4.1 8-0.6-1.3-2.1-2.2-3.6-2q2.2 2.5 4.1 5.3-1.4-0.4-2.8-0.8c1.5 1.7 3.3 3.1 5.3 4.1q-1.7 0.3-3.2 1.1c1.6 0.6 3 2.1 4.2 3.2 0.8 0.6 1.5 1.3 2 2.1 0.5 0.6 0.9 2.2 1.4 2.5-0.9-0.7-2.2-0.9-3.3-0.6 1-0.3 3.9 3.7 4.5 4.4 2.2 2.3 4 4.5 4.8 7.6-0.8-0.3-1.7-0.4-2.6-0.3 1.9 2.2 3.1 5 3.4 8q-1.2-0.3-2.4-0.6c0.5 0.1 1.8 7.6 2 8.5 0.6 2.8 1.8 4.9 2.8 7.5 2.3 5.6 3.4 11.6 3.4 17.6-0.5-1.8-1.8-3.4-3.5-4.2 1.3 0.6 1 4.8 1.2 6 0.2 1.9 0.7 3.6 0.7 5.5 0 2.2-0.2 4.6 0.9 6.7 0.2-1.2 1-2.2 2-2.6-0.4 2.4-0.1 4.9 0.8 7.2q0.5-0.9 1.1-1.7c0.5 1.3 0.6 2.7 0.4 4.1-0.4 3.7-0.2 7.7-0.4 11.4 1.3-0.9 2.4-2.1 3.3-3.5 0.8 3.2 0.7 6.5-0.3 9.6 1-2 2.3-3.8 4-5.3z"/><path class="a" d="m224.2 364.3c-0.8 4.2-1.9 8.4-3.3 12.3-0.4-1.6-1.3-2.9-2.5-4-2 6.7-2.6 13.7-1.8 20.7-1.6-1.4-2.6-3.6-2.5-5.7-3.1 4.4-4.7 9.8-4.5 15.2-1.7-2.6-2-5.6-2.7-8.5-4.1 4.5-7.8 11.4-9.5 17.3-1-1.3-1.4-3.1-1.1-4.7-3.2 2.5-5.5 6.1-6.5 10.1q-0.6-2.9-1.2-5.7-2.7 6.9-5.4 13.7c0.4-1.3 0.1-2.8-0.8-3.9-1.1 3-2 5.9-2.5 8.7q-0.1 0.1-0.1 0.3 0 0.4-0.1 0.8c-0.6 4.5-0.1 9 2.7 13.7q-0.2-0.4-0.8-0.7c-1.4-1-4.3-2.1-5.3-2.9-0.7 2.7 2.5 5.1 4.4 6.6q-1.4 0.2-2.9-0.1c0.4 3.8 0.2 8-1.3 11.6-0.8 1.8-0.8 1.9-3.2 2.7q-2.6 0.8-5.3 1.5-5.1 1.3-10.4 1.7-5.5 0.4-11-0.1-0.8-0.1-1.5-0.2-0.5 0-1.1-0.1-5.5-0.8-10.8-2.5c-2-0.6-4.1-1.5-5.5-3.1-1.3-1.6-1.8-3.6-2.2-5.5-0.9-3.7-3.1-8.6-2.4-12.3-0.8 0.5-1.7 0.7-2.6 0.6 0.8 0.1-0.2-23.8 0-26.1-0.3 1.3-1 2.5-2 3.4q0.5-6 1-12-1.7 0.7-3.4 1.5 1.5-7 2.1-14.1 0.4-3.7 0.5-7.5-1.8 1.7-3.5 3.4c0.9-6.5 2.7-12.8 5.4-18.8q-1.3 1-2.6 2c0.2-2.9 1.2-5.7 2.8-8.2q-2.6 0.8-5.2 1.5c4.4-3.8 7.9-8.8 10-14.3-1.6-0.1-3.2 0.7-4.1 1.9 2.3-6.2 6.7-11.7 12.4-15.4-1.4-0.2-2.8 0.1-3.9 0.8 1.8-3.1 4-6.1 6.5-8.7q-1.4-0.7-2.8-1.5c13.1-6.2 21.7-19.4 35.1-26 16.4-8 33.8-5.2 45.2 9.5 11 14.1 13.5 33.5 10.2 51.1z"/><path class="b" d="m224.2 364.3c-0.8 4.2-1.9 8.4-3.3 12.3-0.4-1.6-1.3-2.9-2.5-4-2 6.7-2.6 13.7-1.8 20.7-1.6-1.4-2.6-3.6-2.5-5.7-3.1 4.4-4.7 9.8-4.5 15.2-1.7-2.6-2-5.6-2.7-8.5-4.1 4.5-7.8 11.4-9.5 17.3-1-1.3-1.4-3.1-1.1-4.7-3.2 2.5-5.5 6.1-6.5 10.1q-0.6-2.9-1.2-5.7-2.7 6.9-5.4 13.7c0.4-1.3 0.1-2.8-0.8-3.9 0.3 0.4-2.1 7-2.5 8.7q0 0.2-0.1 0.3 0 0.4-0.1 0.8c-0.4 2.6-0.5 5.6 0.1 8 0.5 1.7 1.2 3.4 1.8 5-1.4-1-4.3-2.1-5.3-2.9-0.7 2.7 2.5 5.1 4.4 6.6q-1.4 0.2-2.9-0.1c0.4 3.8 0.2 8-1.3 11.6-0.8 1.8-0.8 1.9-3.2 2.7q-2.6 0.8-5.3 1.5-5.1 1.3-10.4 1.7c-3.6-0.2-7.3 0.2-11-0.1q-0.8-0.1-1.5-0.2-0.5 0-1.1-0.1c0-2.3 0-4.6-0.5-6.1-1.7-5.3-5.1-10.3-9.1-14.1 0.9 0.8 7.2-1.5 8.2-1.7 0.2-2-1.3-3.8-2.9-4.7 4.3-3.8 10.8-2 14.3-8.2q0.2 2 0.3 4c0 0.4 6.2-7.1 6.7-8.1 2.3-4.5 4.5-9 7-13.4-2.3 3.2-6 5.4-10 5.7 3.7-3.4 6.4-7.7 7.7-12.5-2.6 1.6-5.5 2.6-8.4 2.9 4.9-2.2 7.9-6.2 10-11.1 2.3-5.2 1.2-11.6 3.3-16.6-1 2.3-2.6 4.3-4.7 5.7-0.8-5.3-1.4-9.5-3.2-14.6-4.7 1.5-8.8 4.9-11.1 9.3-1.5-3.1-3.4-6-5.4-8.8 0.3 3.1-0.1 6.3-1 9.3-1.5-3-3.2-6-5.2-8.7 0.7 3.6-0.5 7.6-3 10.2 0.2-1 0.4-2 0.1-3-0.3-0.9-1.4-1.7-2.3-1.4-0.3 0.1-0.6 0.4-0.9 0.6-3 2.9-5.1 6.8-5.6 10.9-1.2-1.2-2-2.7-2.4-4.3-3 2.4-5.6 5.3-7.7 8.6q0.4-3.8 0.5-7.5-1.8 1.7-3.5 3.4c0.9-6.5 2.7-12.9 5.4-18.8q-1.3 1-2.6 2c0.2-2.9 1.2-5.8 2.8-8.2q-2.6 0.8-5.2 1.5c4.4-3.9 7.9-8.8 10-14.3-1.6-0.1-3.1 0.6-4.1 1.9 2.4-6.3 6.8-11.8 12.4-15.4-1.4-0.2-2.8 0-3.9 0.8 1.9-3.2 4.1-6.1 6.6-8.8q-1.4-0.7-2.9-1.4c13.2-6.3 21.7-19.4 35.1-26 16.4-8.1 33.8-5.2 45.3 9.5 10.9 14.1 13.4 33.5 10.1 51.1z"/><path class="i" d="m196.4 463.4q-0.2 1-0.6 1.8c-1.3 2.2-4.2 3.1-6 3.6-5.7 1.3-11.6 0.1-17.2-1.3q-0.7-0.2-1.4-0.4c-7.7-1.9-14.1 4-21.5 2.7q-0.4-0.1-0.8-0.1c-4.5-0.9-9-2.7-13.7-2.8q-0.3 0-0.7 0.1c-5.2 0.4-15.1 6.1-18.9 0.5-1.1-1.6-1.3-3.8-1-5.8q0.1-1.1 0.5-2.1c0.4-1.3 0.9-2.4 1.5-3.6q1.5-2.8 3.2-5.4c1.8-2.8 4-5.4 6.9-6.4 3.7-1.2 5.4 1.2 7.6 3.1 0.8 0.7 1.6 1.3 2.6 1.7q0.2 0.1 0.4 0.1c1.8 0.6 3.4-0.1 5-1.2 2.2-1.6 4.4-3.9 6.9-4.8 2.9-1.1 6.2 0.2 8.8 2.2 2.3 1.8 4.2 4.2 6.3 6.3q0.1 0.1 0.1 0.1c0.3 0.3 0.6 0.6 0.9 0.9 2.3 2.4 4 1.1 6.1-1q1.1-1.1 2.4-1.5c2.4-0.8 5.1-0.2 7.4 1 3.3 1.8 6 4.3 9.5 5.4 1.5 0.5 4 1.8 5.2 3.9 0.5 0.9 0.7 1.9 0.5 3z"/><path class="j" d="m196.4 463.4q-0.2 1-0.6 1.8c-1.3 2.2-4.2 3.1-6 3.6-5.7 1.3-11.6 0.1-17.2-1.3q-0.7-0.2-1.4-0.4c-7.7-1.9-14.1 4-21.5 2.7q-0.4-0.1-0.8-0.1c-4-1-10.2-3.9-14.4-2.7-5.2 0.4-15.1 6.1-18.9 0.5-1.1-1.6-1.3-3.8-1-5.8q0.1-1.1 0.5-2.1c0.6 2.1 2 4 3.9 4.8 2 0.9 7.7-0.1 4.8-3.8-0.6-0.9-1.7-1.3-2.7-1.7 1.7-1.9 4.5-1.3 6.6-2.3 3.9-1.7 5.2-5.2 6.6-9.3q0-0.1 0.1-0.2c0.8 0.8 1.6 1.5 2.5 1.9q0.2 0.1 0.4 0.1c1.8 0.6 3.4-0.1 5-1.2 0.1 2.1 0.3 4.2 0.4 4.8 0.6 3.5 1.8 5.9 4.1 8.2 1.8 1.8 4.1 2.7 6.5 2.2 2.4-0.4 4.3-2.6 1.1-4-1.1-0.4-2.3-0.7-2.7-1.9 2.8-1.2 5.9 0.3 8.7-0.7 2.3-0.8 2.8-2.4 4-4.7 0.4 0.2 0.5 0.5 0.8 0.8 2.4 2.4 4.1 1.1 6.2-1q1.1-1.1 2.4-1.5c0.6 3.1 2.1 5.9 4.2 7.7 1.4 1.2 2.9 1.8 4.5 1.9 0.7 0 1.5-0.1 2.3-0.3 0.7-0.1 1.7-0.6 2.4-0.4 0.2 0.1 0.4 0.3 0.5 0.5q0.5 0.6 1 1.3c1.4 1.7 4.1 3 5.9 1.5 0.2-0.1 0.8-1.1 1.2-1.9 0.5 0.9 0.8 1.9 0.6 3z"/><path class="k" d="m247.3 364.1c4.4 17.2 19.3 28.4 24.1 46 0.6-0.1 6.2-2.2 5.6-3.3q2.4 4.8 4.6 9.7 0.8-1.7 1.5-3.4c0 0.2 0.3 0.7 0.8 1.4 1.1 1.9 3.3 4.8 3.6 5.4 1.2 2.2 2.2 4.5 2.9 6.9 0.8 2.4 1.2 4.9 1.3 7.5 0.1 2.1 0.7 5.7-0.4 7.6 0.8-0.5 1.5-1.2 2.1-1.8-0.9 3.1-1.3 6.5-1.6 9.7q1-0.7 1.9-1.4c0.1 4 0.6 8 0.6 12.1q4.2 1.7 8.5 2.7c7.5 1.9 15.3 2.3 22.9 1.4q6.1-0.7 11.9-2.6c2-0.7 4.1-1.5 5.5-3.2 1.3-1.5 1.8-3.5 2.2-5.4 0.9-3.7 3.1-8.6 2.4-12.4 0.8 0.5 1.7 0.7 2.6 0.7-1.2-10.4 0.5-20.1 1-30.4 0.2-4.3 0.4-8.6 0.3-12.9q0-0.3 0-0.7 0-3.7-0.3-7.5c-0.2-2.1-0.3-13.1-1.3-13.8q2.3 1.6 4.5 3.2c-0.9-6.4-3.1-12.5-6.3-18 1-0.7 2.4-0.6 3.3 0.1-9.5-23.4-26.3-46.7-49.5-58.1-16.4-8.1-33.8-5.2-45.3 9.5-10.7 13.8-13.8 34.1-9.4 51z"/><path class="l" d="m316.4 407.6q-1.9-1.1-3.7-2.5c-1.1 6.5 1 16 7.8 18.6 2.4 0.9 5 1.3 7.6 1.6-1-0.7-1.5-2-1.3-3.2q2.4 1.2 4.9 2.4c1.8-3.1 2.6-6.8 2.2-10.4-0.1-1.4-0.5-2.6-1.3-3.8-0.2-0.4-2.9-2.8-2.9-2.7q0 1.5 0.1 3.1c-3-3.4-7.3-5.4-11.8-5.5 0.5 1.1 0.8 2.3 0.8 3.5q-1.2-0.5-2.4-1.1z"/><path class="l" d="m301 361.8q0.5 0.9 1.2 1.7c0.7-2.4 4.3-9.6 6.9-9.7 6.8-0.4 13.9 1.9 18.3 7.1-0.4-2.2-1.2-4.7-1.1-6.9 0.1-1.2 6.4 3.8 6.7 4.1 2.4 2.3 4.2 4.3 5.6 7.5 4.4 10.7 5 27.6-4.3 36.1 0.1-1.2 0-2.4-0.4-3.6-0.8 1-1.3 2.1-1.4 3.4-4.5-3.6-9.7-6.4-15.2-8.1-0.8 1.1-1.2 2.5-1 3.9-2.8-1.2-5.3-3-7.3-5.3q0.3 1.6 0.6 3.2c-4.5-2-8.6-4.8-11.6-8.6-3.3-4.2-5.1-9.3-4.2-14.5 0.4-2.8 0.9-5.4 2.1-8.1 0.5-1.3 3.8-5.4 3.7-6.5 0.2 1.5 0.6 3 1.3 4.3z"/><path class="m" d="m247.3 364.1c4.4 17.2 19.3 28.4 24.1 46 0.6-0.1 6.2-2.2 5.6-3.3q2.4 4.8 4.6 9.7 0.8-1.7 1.5-3.4 0 0 0.1 0 0.4 0.6 0.7 1.4c1.1 1.9 3.3 4.8 3.6 5.4 1.2 2.2 2.2 4.5 3 6.9 0.7 2.4 1.1 4.9 1.2 7.5 0.1 2.1 0.7 5.7-0.3 7.6 0.7-0.5 1.4-1.2 2-1.8-0.9 3.1-1.3 6.5-1.6 9.7q1-0.7 1.9-1.4c0.1 4 0.7 8 0.7 12.1q4.1 1.7 8.4 2.7c7.5 1.9 15.3 2.3 22.9 1.4 1.3-7.7 5-15 10.7-20.4-1.9-0.5-13.9 0.2-13.6-2.2 0.1-1.2 1.3-1.9 2.4-2.4 1.5-0.6 3.1-1.1 4.7-1.3q-3.7-1.3-7.5-2.7c-4.2-1.5-8.6-3.1-11.8-6.3-3.1-3.1-3.9-11.9-6.9-13.8q2.9 1.8 5.7 3.6c-4.1-12.9-8.5-24.8-9.2-38.5 1 2.3 2.6 4.3 4.7 5.7 0.6-3.9 0-13.6 5.1-14.7 1.2-0.3 2.3 0.4 3.3 1 1.6 1 13.7 6.6 13.4 8.5 0.6-3.3 0-6.8-1.5-9.9 7.3 4.7 13.2 11.5 16.7 19.4 1.4-2.7 1.9-5.8 1.5-8.8 2 5.9 7.8 8.9 8.2 15.9q0-3.7-0.3-7.5c-0.2-2.1-0.3-13.1-1.3-13.8q2.3 1.6 4.5 3.2c-0.9-6.4-3.1-12.5-6.3-18.1 1-0.6 2.4-0.5 3.3 0.2-9.5-23.4-26.3-46.7-49.5-58.1-16.4-8.1-33.8-5.2-45.3 9.5-10.7 13.8-13.8 34-9.5 50.9z"/><path class="n" d="m274.4 464.1q0.2 0.9 0.6 1.6c1.3 1.9 4.2 2.7 6.1 3.1 5.6 1.2 11.6 0.2 17.1-1.1q0.7-0.2 1.4-0.4c7.7-1.6 14.1 3.6 21.5 2.4q0.4 0 0.8-0.1c4.6-0.8 9.1-2.4 13.8-2.4q0.3 0 0.6 0c5.2 0.4 15.1 5.5 18.9 0.5 1.1-1.4 1.3-3.3 1-5.1q-0.1-1-0.5-1.9c-0.4-1-0.9-2.1-1.5-3.1q-1.4-2.5-3.2-4.8c-1.8-2.4-4-4.7-6.9-5.6-3.7-1.1-5.4 1-7.6 2.7-0.8 0.6-1.6 1.2-2.6 1.5q-0.2 0.1-0.4 0.1c-1.8 0.5-3.4-0.1-5-1-2.2-1.4-4.4-3.5-6.8-4.3-3-0.9-6.2 0.2-8.9 2-2.3 1.6-4.2 3.6-6.3 5.5q0 0.1-0.1 0.1c-0.3 0.3-0.6 0.5-0.8 0.8-2.4 2.1-4.1 1-6.2-0.9q-1.1-1-2.4-1.3c-2.4-0.7-5.1-0.2-7.4 0.9-3.2 1.6-6 3.8-9.5 4.7-1.5 0.5-4 1.7-5.1 3.5-0.5 0.8-0.8 1.7-0.6 2.7z"/><path class="e" d="m274.4 464.1q0.2 0.9 0.6 1.6c1.3 1.9 4.2 2.7 6.1 3.1 5.6 1.2 11.6 0.2 17.1-1.1q0.7-0.2 1.4-0.4c7.7-1.6 14.1 3.6 21.5 2.4q0.4 0 0.8-0.1c4-0.8 10.2-3.4 14.4-2.4 5.2 0.4 15.1 5.5 18.9 0.5 1.1-1.4 1.3-3.3 1-5.1q-0.1-1-0.5-1.9c-0.6 1.9-2 3.5-3.8 4.3-2.1 0.8-7.7-0.1-4.9-3.3 0.7-0.8 1.7-1.2 2.7-1.6-1.7-1.6-4.5-1.1-6.6-2-3.8-1.5-5.2-4.6-6.6-8.2q0-0.1 0-0.1c-0.8 0.6-1.7 1.2-2.6 1.6q-0.2 0.1-0.4 0.1c-1.7 0.5-3.3-0.1-4.9-1.1-0.2 1.9-0.4 3.7-0.5 4.3-0.5 3.1-1.8 5.2-4.1 7.2-1.8 1.6-4.1 2.3-6.5 2-2.4-0.4-4.3-2.4-1-3.5 1-0.4 2.2-0.7 2.6-1.7-2.7-1.1-5.8 0.2-8.7-0.7-2.3-0.7-2.8-2.1-4-4.1-0.3 0.2-0.5 0.4-0.8 0.7-2.4 2.1-4.1 1-6.1-0.9q-1.1-1-2.5-1.3c-0.6 2.7-2.1 5.2-4.2 6.8-1.3 1-2.8 1.6-4.4 1.6-0.8 0.1-1.6 0-2.4-0.2-0.7-0.1-1.6-0.5-2.3-0.4-0.3 0.1-0.5 0.3-0.6 0.5q-0.5 0.5-1 1.1c-1.4 1.6-4.1 2.7-5.9 1.3-0.1-0.1-0.8-1-1.2-1.6-0.5 0.8-0.7 1.6-0.6 2.6z"/><path class="a" d="m327.3 319.5q0.1 1.3 0.1 2.7c-0.9-1.5-2.2-2.7-3.8-3.4 1.4 4.4 0.3 9-2.7 12.5 0.3-2.2-0.2-4.5-1.5-6.3-0.3 5.5-2.7 10.9-6.7 14.8 0.5-1.8 0.2-3.9-0.9-5.4-1.7 4.4-4 8.5-7 12.1 0-0.7-0.4-1.5-1-2q-6.3 5.9-12.6 11.8 0.1-1.9 0.1-3.8c-1.4 4.4-3.7 7.5-6.1 11.3q-0.3-1.9-1.2-3.6c-1.8 4-4.7 7.5-8.3 9.9 1.7-1.3 2.8-5.1 0.7-6.5-2.2 1.7-4.2 3.6-6.4 5.2q-1.6 1-3.1 2.2-0.2 0.1-0.4 0.3c-2.2 1.7-4.5 3.2-6.6 4.8-2.6 2.1-5.2 4-8 5.7 0.3-0.9 0.5-1.9 0.3-2.9l-11.2 8.2q-0.7-2.6-2.1-5c-0.6 2.4-2.2 4.4-4.3 5.6 0.1-1.5-0.3-3-1.2-4.2q-1.7 2.6-3.9 4.8c-1-3.3-3.5-6.1-6.6-7.6q-0.5 1.2-1 2.4-3.1-2.7-6.2-5.4c-0.3 1.1-0.3 2.4 0 3.5-4.2-1.8-6.6-4.5-9.6-7.7-1.4-1.6-6.3-3.1-6.8-5.2q0.4 2 0.8 3.9c-3.3-1.7-6.2-4.3-8.2-7.5q-0.2 2.6-0.7 5.2c-1.5-4.7-3.9-9.2-7.1-13.1-0.1 2 0.4 3.9 1.4 5.6-6.3-4.8-11.6-10.8-15.6-17.6 1.1 1.6 1.3 3.7 0.5 5.5-1.6-5.2-4.9-9.9-9.2-13.2 0.4 1.7 0.3 3.4-0.3 5-3.2-3.2-5.7-7.2-7.1-11.6q-0.6 1.7-1.1 3.3c-2.2-2.5-3.5-5.7-3.5-9.1-1.1 1.8-1.6 4-1.4 6-1.1-4-2.6-7.8-1.3-11.9-1.1 0.4-2.1 1.1-2.9 2.1q-0.5 0.5-0.9 1.2c-0.2-5.8 1.6-11.4 3.4-16.9q0.8-2.2 1.4-4.4 0.7-2.2 1.2-4.3v-0.1c1.2-4.3 2.1-8.7 3.3-13 0.8-2.9 0.4-8.8 1.4-11.1-0.6 1.3-2 2.2-3.5 2.2 1.7-3.9 2.9-8 3.4-12.1-1.6 1.2-2.9 2.9-3.6 4.9 0.3-6.4 2.4-12.1 5.4-17.7 2.9-5.2 3.6-10 4.3-16.2q0.2-1 0.2-2.1c0.3-4.3 0-8.7 0.3-13q-2.2 2-4.4 3.9c1.7-8.2 4-16.2 5.8-24.4-1.4 1.7-3.4 2.9-5.6 3.4q2.1-3.7 3.5-7.7-1.8 1.1-3.7 1.9c1.9-3.6 3.7-7.4 5.2-11.2 0.9-2 1.4-4 1.6-6.2 0-0.9-0.6-3.3 0.1-4-1.3 1.2-5.6 5.8-5.6 7.7-0.2-6.8 1.5-14 5-19.9-1.6 1.1-3.8 1.5-5.6 0.7 2.8-6.1 6.4-11.8 10.8-16.9-2.9 0-5.1 2.6-6.7 5.1 1.2-5 4-9.1 6.8-13.2 1.1-1.6 2.2-3.3 3.2-5q0.8-1.2 1.4-2.4 0.7-1.4 1.3-2.9 0-0.1 0.1-0.2 0.3-0.7 0.6-1.4 0 0 0-0.1 1.6-3 3.9-5.4 0.3-0.4 0.7-0.7 0.1-0.2 0.2-0.3 0.4-0.4 0.8-0.8c0.4-0.3 0.8-0.6 1.2-0.9 0.1-0.1 0.1-0.1 0.2-0.2q0.9-0.7 1.8-1.3c0.5-0.3 1-0.6 1.5-0.9q0.2-0.2 0.4-0.3 0.8-0.4 1.6-0.8 0.2-0.1 0.4-0.2 0.8-0.4 1.7-0.8 0.2-0.1 0.3-0.1 0.6-0.3 1.3-0.5 0.5-0.3 1.1-0.5 0.5-0.1 0.9-0.3 1.6-0.5 3.2-1 0.3-0.1 0.7-0.2 1-0.2 2-0.5 0.1 0 0.2 0 1-0.3 2-0.5 0.7-0.1 1.4-0.2c1.3-0.3 2.6-0.5 3.9-0.7q0.5-0.1 0.9-0.2 1.2-0.1 2.4-0.3c3.7-0.4 7.6-0.8 11.5-1q0.9 0 1.9-0.1 1.2 0 2.4-0.1 4-0.1 8-0.2c0.8 0 1.7 0 2.5 0h2.5c0.2 0 0.2 0 0.4 0q1.5 0 2.9 0 1.2 0 2.5 0c0.5 0 1.2 0 1.7 0q1.5 0 2.9 0.1 1.5 0 2.9 0 1 0.1 1.9 0.1 0.9 0 1.9 0.1 0.7 0 1.5 0 0.2 0.1 0.4 0.1 0.8 0 1.6 0.1 2.1 0.1 4.1 0.3 0.5 0.1 1.1 0.2 0.9 0.1 1.8 0.2 1.1 0.1 2.3 0.3 0.8 0.2 1.5 0.3 0.5 0.1 0.9 0.2 0.2 0 0.3 0.1c4.6 0.9 8.4 2.1 11.8 3.7q0.9 0.5 1.8 0.9 0.7 0.4 1.4 0.8 0.7 0.4 1.5 0.9c1.5 0.9 2.9 1.9 4.2 3q0.6 0.5 1.2 1 0.1 0.1 0.3 0.3 0.5 0.4 1 0.9 0.1 0.1 0.2 0.2 0 0 0.1 0.1 0.4 0.4 0.8 0.8 0.8 0.7 1.6 1.5 0.3 0.6 0.7 1.1 0.9 1.5 1.6 3.2 1.4 3 3 5.9c1.6 2.8 3.4 5.5 5.1 8.2q1.3 2.1 2.6 4.2c-0.3-0.5-1.5-1-2.5-1.4q-0.1-0.1-0.2-0.1c-0.6-0.2-1.2-0.4-1.6-0.6 1.6 3 1.7 6.3 2.5 9.5q0.1 0.6 0.3 1.2c1.6 5.3 4.1 10.4 5.9 15.7-2.7-0.6-5.4-2-7.3-4.1 1.8 4.4 4.7 8.3 8.3 11.3-2 0.4-4.4 1.9-6.4 1.2 0.5 1.2 6.8 17.5 6.9 17.5-1.4 0.6-3.1 0.5-4.3-0.4 1.9 4.5 3.4 7.7 3.4 12.7-1.4-1.9-3.1-3.7-5.1-5 3.2 4.5 5.4 9.7 6.7 15.1-1.4-0.8-3.1-1.3-4.7-1.5 1 6.3 4.2 12.2 8.9 16.4-0.5-0.4-5.8-0.9-6.8-1.2 0.1 3.7-0.3 6.2 1.3 9.7 1.6 3.7 3.9 7.4 4.2 11.5-0.8-1.1-2-2-3.4-2.3 0.6 0.1 1.2 10.4 1.4 11.5 1.2 5 3.2 9.6 5.9 13.8-1.8 0.3-3.8-0.5-4.9-2.1 2 5 4.6 9.6 7.5 14.1-1.7-0.7-4-1.1-5.5-2.3 0.4 2.7 0.7 5.8 1.3 8.8 0.3 1.7 0.7 3.4 1.2 4.9 1.5 4.2 5.6 8.4 8.2 12.1-1.4-1.3-3.1-2.2-4.8-2.9 0.8 1.7 0.8 3.6 1.4 5.4q0 0.2 0 0.3c0.4 1.8 0.7 3.6 0.8 5.4z"/><path class="b" d="m327.3 319.5q0.1 1.3 0.1 2.7c-0.9-1.5-2.2-2.7-3.8-3.4 1.4 4.4 0.3 9-2.7 12.5 0.3-2.2-0.2-4.5-1.5-6.3-0.3 5.5-2.7 10.9-6.7 14.8 0.5-1.8 0.2-3.9-0.9-5.4-1.7 4.4-4 8.5-7 12.1 0-0.7-0.4-1.5-1-2q-6.3 5.9-12.6 11.8 0.1-1.9 0.1-3.8c-1.4 4.4-3.7 7.5-6.1 11.3q-0.3-1.9-1.2-3.6c-1.8 4-4.7 7.5-8.3 9.9 1.7-1.3 2.8-5.1 0.7-6.5-2.2 1.7-4.2 3.6-6.4 5.2q-1.6 1-3.1 2.2-0.2 0.1-0.4 0.3c-2.2 1.7-4.5 3.2-6.6 4.8-2.6 2.1-5.2 4-8 5.7 0.3-0.9 0.5-1.9 0.3-2.9l-11 8.2c0 0-0.1 0-0.2 0q-0.8-2.6-2.1-5c-0.6 2.4-2.2 4.4-4.3 5.6 0.1-1.5-0.4-3-1.2-4.2q-1.8 2.6-4 4.8c-0.9-3.3-3.4-6.1-6.5-7.6q-0.5 1.2-1 2.4-3.1-2.7-6.3-5.4c-0.2 1.1-0.2 2.4 0.1 3.5-4.2-1.8-6.6-4.5-9.6-7.7-1.4-1.6-6.4-3.1-6.9-5.2q0.5 2 0.9 3.9c-3.3-1.7-6.2-4.3-8.2-7.5q-0.2 2.6-0.7 5.2c-1.5-4.7-4-9.2-7.1-13.1-0.1 2 0.4 3.9 1.4 5.6-6.3-4.8-11.6-10.8-15.6-17.6 1 1.6 1.2 3.7 0.5 5.5-1.7-5.2-4.9-9.9-9.2-13.2 0.4 1.7 0.3 3.4-0.3 5-3.2-3.2-5.7-7.2-7.1-11.6q-0.6 1.7-1.1 3.3c-2.2-2.5-3.5-5.7-3.5-9.1-1.1 1.8-1.6 4-1.4 6-1.1-4-2.7-7.8-1.4-11.9-1 0.4-2 1.1-2.8 2.1q-0.5 0.5-0.9 1.2c-0.2-5.8 1.6-11.4 3.4-16.9q0.7-2.2 1.4-4.4 0.6-2.2 1.2-4.3v-0.1c0.7-2.5 1.3-5.1 1.9-7.7 1.1 4.4 2.3 8.7 2.6 10 1.9 7.5 6 14.8 10.6 20.9q0.6-3.8 1.2-7.7c4.5 5 7.7 10.8 12.1 15.9q0.2-2.4 0.4-4.8c3.4 3.5 8 9.2 12.1 11.6 0.4-3.3 1.5-6.4 3.7-8.9-2.6 3 11.1 20.7 13.7 23.1q2-3.6 4-7.1c0.7 5.8 3.5 11.4 7.8 15.4 1.7-3.1 2.8-6.7 3-10.3q3.1 6.7 6.2 13.5c5.5-4.6 11.6-8.4 18-11.5q-1 5.8-2 11.6c6.1-3 11.3-8 14.5-14.1q0.8 4.7 1.6 9.4c2.8-3.6 4.7-7.8 5.6-12.2 2.6 2.3 5.4 5.9 6.9 9 2.5-5 4.2-10.4 5.1-15.9 1.5 2.2 2.7 4.7 3.4 7.3 2.2-4.1 4.1-8.3 5.7-12.7 2.1 1.6 3.3 4.2 3.8 6.7 10.5-8.8 13.4-27.2 17.3-39.6q2.9 4 5.8 8.1 3.6-5.2 7.1-10.4 0.4 1.7 0.9 3.2c1.5 4.2 5.6 8.4 8.2 12.1-1.4-1.3-3.1-2.2-4.8-2.9 0.8 1.7 0.8 3.6 1.4 5.4q0 0.2 0 0.3c0.4 1.8 0.7 3.6 0.8 5.4z"/><path class="b" d="m268.6 187.5c-4 9.1-10.4 15.3-19.4 20.2 1.8-2.7 2.1-6.3 0.8-9.2q-3.5 4.1-6.9 8.2c-2.5-2.3-4.2-5.4-4.8-8.7-3 2.7-5.2 6.3-6 10.2q-5.3-5.6-10.5-11.2c0.5 0.6-4.3 5.8-6.1 4.6-1.7-1.1-1.4-8.5-1.9-10.4-0.4 1.8-1.3 3.4-2.5 4.7 0.6-4.3 0.2-8.8-1.2-12.9-3.7 2.8-4.9 5.7-3.7 10.1-4.6-3.5-8.2-8.3-10.1-13.7-1.5 2.4-2.6 5-3.4 7.6-5.2-4.3-9.3-9.9-12.1-16q-0.8 1.3-1.6 2.6c-4.3-4.9-6.8-11.4-6.7-18q-2.2 1.2-4.5 2.3l2.1-14c-1.4-1.1-3.4-1.3-5.1-0.6q1.5-2.8 2.1-5.8c1.6-2.4 3.2-4.8 4.5-7.4q0.7-1.4 1.3-2.9 0.1-0.1 0.1-0.2 0.3-0.7 0.7-1.4 0 0 0-0.1 1.6-3 3.9-5.4 0.3-0.4 0.6-0.7 0.1-0.1 0.3-0.3 0.4-0.4 0.8-0.7 0.5-0.5 1.2-1 0.1-0.1 0.2-0.2 0.8-0.7 1.8-1.3c0.5-0.3 1-0.6 1.5-0.9q0.2-0.2 0.4-0.3 0.7-0.4 1.5-0.8 0.2-0.1 0.4-0.2 0.8-0.4 1.7-0.8 0.2-0.1 0.4-0.1 0.6-0.3 1.2-0.5 0.6-0.3 1.2-0.5 0.4-0.1 0.9-0.3 1.5-0.5 3.1-1 0.4-0.1 0.8-0.2 1-0.2 2-0.5 0 0 0.1 0 1-0.2 2.1-0.5 0.7-0.1 1.4-0.2c1.2-0.3 2.6-0.5 3.9-0.7q0.4-0.1 0.9-0.1 1.2-0.2 2.4-0.4c3.7-0.4 7.6-0.8 11.5-1q0.9 0 1.8-0.1 1.2 0 2.5-0.1 4-0.1 8-0.1c0.8-0.1 1.6-0.1 2.4-0.1h2.5c0.2 0 0.3 0 0.5 0q1.4 0 2.8 0 1.3 0 2.5 0c0.6 0 1.2 0 1.8 0q1.4 0 2.8 0.1 1.5 0 3 0.1 0.9 0 1.9 0 0.9 0 1.8 0.1 0.8 0 1.6 0.1 0.2 0 0.4 0 0.8 0 1.5 0.1 2.1 0.1 4.1 0.4 0.6 0 1.1 0.1 0.9 0.1 1.8 0.2 1.2 0.1 2.3 0.3 0.8 0.2 1.6 0.3 0.4 0.1 0.8 0.2 0.2 0 0.4 0.1c4.5 0.9 8.4 2.2 11.8 3.7q0.9 0.5 1.7 0.9 0.7 0.4 1.4 0.8 0.8 0.4 1.5 0.9c1.5 0.9 2.9 1.9 4.3 3.1q0.6 0.4 1.2 0.9 0.1 0.1 0.2 0.3 0.6 0.4 1.1 0.9 0.1 0.1 0.1 0.2 0.1 0 0.2 0.1 0.4 0.4 0.8 0.8 0.8 0.7 1.5 1.5 0.4 0.6 0.7 1.1 0.9 1.5 1.7 3.2 1.3 3 3 5.9c2.4 4.2 5.2 8.3 7.6 12.4-0.6-1-3-1.7-4.1-2 2.5 6.8 1.5 11.1 1.9 18.1q-3.3-0.6-6.5-1.2c-1.5 4.1-3.5 8.2-6.2 11.7-0.9 1.2-7.4 6.8-6.7 8.4-0.7-1.7-2.1-3.1-3.8-4 1.1 1.9-0.4 4.2-1.9 5.8-1.5 1.5-3.3 3.4-3 5.5-1-2.5-1-5.4-0.1-7.9-2.1 0.7-3.6 2.8-4.1 5-0.5 2.2-0.2 4.6 0.3 6.8-1.3-2.2-3.1-4.2-5.1-5.8q-0.4 0.9-0.8 1.8z"/><path class="b" d="m306.1 143.9v0.7q0-0.4-0.1-0.8c-0.5-1.5-2.1-3.7-2.6-5-0.6 4.7 0.5 11.2-1.1 15.5 0 0-4.4-4.7-4.7-5.1-3.6 5.1-5.2 10.4-10 14.5-0.7-1.8-2-3.5-3.8-4.2-1.1 3.7-2.5 7.5-5.6 10-0.2-1.4-2-3.3-2-4.3 0.1 2.5-1.1 5.1-3 6.8q-1.3-1.8-2.6-3.5c-1.3 1.9-2 4.3-1.7 6.7-1.9-1-3.6-2.4-4.9-4.1-1.4 5.6-4.3 10.9-8.4 15 2-3 3.2-9.3 0-11.7-1 0.6-5.3 6-3.6 7.3-2-1.5-3.3-3.8-3.7-6.2-2 4.9-6.8 8.6-12 9.2 1.5-1.8 2.3-4.2 2.2-6.6-1.3 2-3.3 3.6-5.5 4.5 0.9-1.4 1-3.1 0.4-4.6-3.4 1.5-5.7 5.3-5.5 9-3.8-1.9-6.8-5.5-8-9.5q-2.3 2.5-4.6 5-1.4-5.7-2.8-11.5c-2.7 0.9-4.6 3.8-4.3 6.6-4.2-2.1-7.3-6.3-8-10.9-0.4 2-1.5 3.9-3.1 5.1-0.2-4.6-3.9-8.8-8.4-9.7q0.1 2.4 0.2 4.9c-2.5-2.4-4.6-5.3-6.2-8.4q-0.6 2.2-1.1 4.3c-1.2-1.5-11.5-20.5-9.6-21-1.5 0.3-3.2 0.1-4.5-0.8 1.6-2.7 2.9-5.4 2.8-8.6q0.7-1.2 1.3-2.4 0.8-1.4 1.3-2.9 0.1-0.1 0.1-0.2 0.4-0.7 0.7-1.4 0 0 0-0.1 1.6-3 3.9-5.4 0.3-0.4 0.6-0.7 0.1-0.1 0.3-0.3 0.4-0.3 0.8-0.7 0.6-0.5 1.2-1c0-0.1 0.1-0.1 0.2-0.2q0.8-0.7 1.8-1.3c0.5-0.3 1-0.6 1.5-0.9q0.2-0.2 0.4-0.3 0.8-0.4 1.5-0.8 0.2-0.1 0.4-0.2 0.9-0.4 1.8-0.8 0.1-0.1 0.3-0.1 0.6-0.3 1.2-0.5 0.6-0.3 1.2-0.5 0.4-0.1 0.9-0.3 1.5-0.5 3.1-1 0.4-0.1 0.8-0.1 1-0.3 2-0.6 0 0 0.1 0 1-0.2 2.1-0.5 0.7-0.1 1.4-0.2c1.2-0.3 2.6-0.5 3.9-0.7q0.4-0.1 0.9-0.1 1.2-0.2 2.4-0.4c3.7-0.4 7.6-0.8 11.5-1q0.9 0 1.8-0.1 1.2 0 2.5-0.1 4-0.1 8-0.1c0.8-0.1 1.6-0.1 2.5-0.1h2.4c0.2 0 0.3 0 0.5 0q1.4 0 2.8 0 1.3 0 2.5 0c0.6 0 1.2 0 1.8 0q1.4 0 2.8 0.1 1.5 0 3 0.1 0.9 0 1.9 0 0.9 0 1.8 0.1 0.8 0 1.6 0.1 0.2 0 0.4 0 0.8 0 1.6 0.1 2 0.1 4 0.4 0.6 0 1.1 0.1 0.9 0.1 1.8 0.2 1.2 0.1 2.3 0.3 0.8 0.2 1.6 0.3 0.4 0.1 0.8 0.2 0.2 0 0.4 0.1c4.6 0.9 8.4 2.2 11.8 3.7q0.9 0.5 1.7 0.9 0.7 0.4 1.4 0.8 0.8 0.4 1.5 0.9c1.5 0.9 2.9 1.9 4.3 3.1q0.6 0.4 1.2 0.9 0.1 0.1 0.2 0.3 0.6 0.4 1.1 0.9 0.1 0.1 0.2 0.2 0 0 0.1 0.1 0.4 0.4 0.8 0.8 0.8 0.7 1.5 1.5 0.4 0.6 0.8 1.1 0.9 1.5 1.6 3.2 1.3 3 3 5.9c1.6 2.8 3.3 5.5 5 8.3q0.1 1.4 0.1 2.7z"/><path class="o" d="m182.1 79.5c0 2.5-0.3 5-1 7.2q0 0.1 0 0.2-0.1 0.2-0.2 0.5 0 0.3-0.1 0.5 0 0.1 0 0.1c-1.4 4.3-3.8 7.5-6.7 9.1q-0.4 0.2-0.7 0.3-0.2 0.1-0.5 0.2-0.2 0.1-0.4 0.2-0.3 0.1-0.6 0.1-0.2 0.1-0.5 0.1 0 0-0.1 0-0.2 0.1-0.5 0.1-0.3 0-0.6 0h-0.1c-6.6 0-11.9-8.3-11.9-18.7q0-0.4 0-0.8 0-0.5 0-0.9c0.5-8.7 4.8-15.7 10.3-16.8q0.8-0.2 1.6-0.2c2.9 0 5.6 1.7 7.6 4.3 2.5 3.3 4.2 8.1 4.4 13.5q0 0.5 0 0.9z"/><path class="p" d="m179.5 80.5c1.2 6.5-0.5 14-5.5 16.6q-0.3 0.2-0.6 0.3-0.2 0.1-0.5 0.2-0.2 0.1-0.4 0.2-0.3 0.1-0.6 0.1-0.2 0.1-0.5 0.1 0 0-0.1 0-0.2 0.1-0.5 0.1-0.3 0-0.6 0h-0.1c-6.6 0-11.9-8.3-11.9-18.7q0-0.4 0-0.9 0-0.4 0-0.8c-0.3 5.8 3 13 7.9 12 2.3-0.5 4.5-3.3 4.6-6.5 0.1-2.4-0.7-5.5-2.9-5.4-1 0.1-2 0.9-2.6 1.9-0.5 0.9-1.2 3.6-0.6 4.5-5.8-8.7 2.4-18.4 9.4-13.8 2.9 1.9 4.8 5.8 5.5 10.1z"/><path class="k" d="m289.4 71.8c-0.6 2.5-0.9 4.9-0.8 7.3q0 0 0 0.1 0 0.3 0 0.6 0 0.2 0 0.5 0 0.1 0 0.1c0.3 4.5 1.7 8.4 3.9 10.9q0.2 0.3 0.5 0.6 0.2 0.2 0.3 0.3 0.2 0.2 0.4 0.3 0.2 0.2 0.4 0.3 0.2 0.2 0.5 0.3 0 0.1 0 0.1 0.2 0.1 0.5 0.2 0.2 0.2 0.5 0.3c2.7 1.1 5.6 0.3 8.1-1.8 1.2-1.1 2.4-2.5 3.4-4.1 0.9-1.6 1.7-3.6 2.5-5.3q-0.3 0.1-0.6 0.2c0 0 0.3-0.6 0.3-0.7q0.2-0.5 0.4-1 0.4-1.1 0.9-2.2c-0.3 0.4-0.6 0.6-0.9 0.8 1.3-3.4 1.3-7.3 0.7-10.9-0.5-2.6-1.4-4.6-2.6-6.5 0.2-0.4 0.8-0.2 1.1-0.1q-0.6-0.8-1.4-1.2 0.6-0.3 1.2-0.6c-0.5-0.4-1-0.8-1.5-1-0.2-0.1-1.8-0.8-1.8-0.7 0.1-0.5 0.5-0.8 0.8-1.1q0.6-0.5 1.1-1.1c-3.4-0.1-8 1-11.1 3.3-2.8 2.2-5.3 6.2-6.6 11.2q-0.2 0.5-0.2 0.9z"/><path class="m" d="m304.7 61.3q-0.5 0.5-1 1.1c-0.3 0.2-0.8 0.6-0.9 1 0-0.1 1.6 0.6 1.8 0.7 0.6 0.3 1 0.7 1.5 1q-0.6 0.3-1.2 0.6 0.8 0.4 1.4 1.3c-0.3-0.2-0.7-0.1-1 0.2 1.3 0.9 2 2.8 2.4 4.7 0.5 2.1 0.8 4.6 0.4 6.8-0.2 1.6-0.7 3.2-1.1 4.7 0.3-0.5 0.6-1.1 1-1.6 0 0.5-0.1 1-0.2 1.5q0 0.4-0.1 0.8-0.1 0.4-0.2 0.9-0.5 2.1-1.2 4c-3 4.2-7 6.2-10.7 4.7q-0.3-0.1-0.5-0.3-0.2-0.1-0.5-0.2 0 0 0 0-0.2-0.2-0.5-0.3-0.2-0.2-0.4-0.4-0.2-0.1-0.4-0.3-0.1-0.1-0.3-0.3-0.3-0.3-0.5-0.5c-2.2-2.5-3.6-6.5-3.9-10.9q0-0.1 0-0.2 0-0.2 0-0.5 0-0.3 0-0.6 0-0.1 0-0.1c-0.1-2.4 0.2-4.8 0.8-7.3q0.1-0.4 0.2-0.9 0.4-1.6 1-3.1 1.4-2 3.1-3.3c3-2.3 7.7-3.3 11.1-3.2z"/><path class="a" d="m307.8 124.1q-2.3-1.9-4.5-3.9c0.2 0.9 0.4 1.9 0.5 2.9 0.4 2.9 0.8 6 2.3 8.2-1.6 0.2-3.3-1.1-3.4-2.8 0.3 4.7-2.1 9.3-4 13.5q-0.7-2.2-1.4-4.4-3 4.2-6.5 7.8c0.6-1.1 0.6-2.5 0.1-3.7q-2.4 3.1-4.9 6.2c0-1-0.3-2.1-0.8-3q-2.9 4.6-5.8 9.2c0.5-1.3 0.5-2.9 0-4.3q-2.9 3.8-5.9 7.5-0.6-1.5-1.3-3c-2.2 3.2-5.1 5.9-8.4 7.8 0.8-1.4 1.2-3.2 0.8-4.8-4.6 5-9.9 9.3-15.8 12.6 1.7-2 2.2-5 1.4-7.5-4.2 3.3-8.9 6-13.8 8.1 0.6-1 0.7-2.3 0.2-3.3-1.5 0.7-2.6 2-2.9 3.6-3.1-1-6-2.7-8.4-4.9-0.5 1-0.8 2.3-0.6 3.5-1.8-1.6-3.2-3.7-4.1-5.9-1.3 0.9-2 2.6-1.8 4.2-3-2.9-5.4-6.2-7.2-9.9-0.6 0.7-1 1.6-0.9 2.5-1.2-0.8-12-6.9-11.4-8.4-0.5 1.3-0.6 2.7-0.2 4-3.7-1.6-6.7-4.8-8.3-8.5-0.6 1.3-1.1 2.8-1.2 4.3-2.3-2.1-11.4-6.9-10-11.1-0.8 2.5-1.3 5.1-1.2 7.7-3.3-4.1-4.9-9.4-4.6-14.6-1.4 1.8-2.2 3.9-2.6 6q0 0.5-0.1 0.9 0-0.1-0.1-0.3c-1.4-2.7-2.2-5.7-2.3-8.8-0.1-2.1 0.1-4.3 0.7-6.3q0.1-0.4 0.2-0.8l0.3-0.9q-3.1 2-6.2 3.9 1.1-1.9 1.9-3.9 0.7-1.6 1.2-3.3c0.7-2.5 1.1-5.1 1.1-7.7-2.2 2.5-4.8 4.6-7.7 6.2 1.6-2.8 2.8-5.8 3.6-9q-2.2 1.3-4.4 2.5c1.6-2.4 3.5-4.8 5-7.2 1-1.6 1.4-5.9 2.8-7q-3.4 2.7-7.4 4.3c3.3-4.7 4.7-10 7.4-15-1.7 1.1-3.2 2.5-4.5 4.1 1.3-1.7 1.7-6.2 2.3-9.6 0.2-1.1 0.5-2 0.7-2.7 1.3-3 2.8-6.2 4.3-9.1q-3.3 2.5-6.6 5.1c1-2.9 2.6-5.4 4.3-7.9 1-1.5 2-4.4 3.3-5.6-2.2 2-4.8 3.5-7.7 4.1 3.7-4.6 8.6-10.2 10.7-15.8-1.9 0.5-3.7 1.3-5.3 2.5 3.9-2.8 4.7-9.4 10-11-2.3-1.3-4.9-2.1-7.6-2.2 2.7-2 6.1-2.9 9.5-2.6q1.4 0.1 2.7 0.5 0 0 0.1 0 0 0-0.1 0c-1.1-2.8-3.5-5.1-6.3-6.1 3.1-1.9 7.1-2.1 10.4-0.6-0.3-3.4-2.5-6.5-5.6-7.9 4.6-0.6 9.4 0.6 13.1 3.3q-2.5-5.2-5-10.4 3.3 3.1 6.5 6.2c-2.3-3.8-2.7-8.7-1.2-12.9-0.3 3.9 2 7.9 5.6 9.5q-0.8-5.6-2-11.1c3.5 1.9 6.7 4.4 9.2 7.5-0.1-3.2-1.8-6.2-4.5-7.9 4.9 0 9.8 2 13.3 5.4 0.6-3.5-0.6-7.1-3-9.6 3 1.2 5.5 3.6 7 6.4 0.8-2 0.5-4.5-0.8-6.3 4.4 0.5 8.4 3.3 10.5 7.2 3.1-2.9 5.8-6.2 8.1-9.8 1.3 2.6 2.8 5.1 4.6 7.4l6.9-4.2c0 2.5-1 4.9-2.5 6.9 4.8-2.7 10.6-3.6 16.1-2.6q-4 3.2-7.9 6.3c5.3-0.8 10.8-0.7 16.1 0.2-2.1 1-5.7 1.5-6.7 3.9 5.6-0.5 11.3 0 16.7 1.7-3.1-0.1-6.2 0.9-8.7 2.8 3.8 0.5 7.7 0.7 11.6 0.5-1.5 2.9-4.2 5-7.3 5.9 3.9 1 8.1 0.4 11.5-1.5-1.2 1.8-2.2 3.8-2.8 5.8-0.5 1.4-0.8 2.9-1 4.3 4.1-2.1 8.6-3.3 13.1-3.7-3.9 1.6-6.4 5.4-8.7 9 2.9-1.6 6.5-1.6 9.4-0.1-2.9 0.6-5.6 1.5-8.2 2.8 0.8-0.4 5.5 1.1 7 0.9-1.6 1.5-3.7 3.3-2.8 5.7 0.4 1.2 2.3 2.7 3.2 3.7 0.8 0.9 4 5.4 5.6 5.4-2.5 0.2-5-0.3-7.2-1.3 4 2.4 7.5 5.8 9.8 9.9-2.7-0.8-5.6-1.3-8.4-1.3 4.4 4.7 7.4 10.6 8.7 16.9q-0.8-1-1.8-1.7c-1.2-0.9-2.6-1.4-4-1.7 4.2 4.5 7.2 9.9 8.9 15.8-1.6-1.1-3.3-1.9-5.1-2.5 1 5.1 3.1 10 6.1 14.3q-1.9-0.5-3.5-1.4-1.9-0.9-3.5-2.3c0.7 2.4 1.9 4.7 3.4 6.8-1.4-0.3-2.6-1.1-3.4-2.3q1.7 5.8 3.4 11.5 0.3 1.1 0.6 2.3z"/><path class="b" d="m303.8 123.1c0.4 2.9 0.8 6 2.3 8.2-1.6 0.2-3.3-1.1-3.4-2.8 0.3 4.7-2.1 9.3-4 13.5q-0.7-2.2-1.4-4.4-3 4.1-6.5 7.8c0.6-1.1 0.6-2.5 0.1-3.7q-2.4 3.1-4.9 6.2c0-1.1-0.3-2.1-0.8-3q-2.9 4.6-5.8 9.2c0.5-1.4 0.5-2.9 0-4.3q-2.9 3.8-5.9 7.5-0.6-1.5-1.3-3c-2.2 3.2-5.1 5.9-8.4 7.8 0.8-1.4 1.2-3.2 0.8-4.9-4.6 5.1-9.9 9.4-15.8 12.7 1.7-2.1 2.2-5 1.4-7.6-4.2 3.3-8.9 6.1-13.8 8.2 0.6-1 0.7-2.3 0.2-3.3-1.5 0.7-2.6 2-2.9 3.6-3.1-1-6-2.7-8.4-5-0.5 1.1-0.8 2.4-0.6 3.6-1.8-1.6-3.2-3.7-4.1-5.9-1.3 0.9-2 2.6-1.8 4.2-3-2.9-5.4-6.2-7.2-9.9-0.6 0.7-1 1.6-0.9 2.5-1.2-0.8-12-6.9-11.4-8.4-0.5 1.3-0.6 2.7-0.2 4-3.7-1.7-6.7-4.8-8.3-8.5-0.6 1.3-1.1 2.8-1.2 4.3-2.3-2.1-11.4-6.9-10-11.1-0.8 2.5-1.3 5.1-1.2 7.7-3.3-4.1-4.9-9.4-4.6-14.6-1.4 1.8-2.2 3.9-2.6 6q0 0.5-0.1 0.9 0-0.1-0.1-0.3c-1.4-2.7-2.2-5.7-2.3-8.8 0-2.3 0.2-4.4 0.7-6.3q0.1-0.4 0.2-0.8l0.3-0.9q-3.1 2-6.2 3.9 1.1-1.9 1.9-3.9c2.3-2.7 4.3-5.4 6.3-8.3-0.3 0.4-0.5 1.2-0.6 2.1-0.3 3.8 0.6 10.5 0.6 12.7 1.1-2.1 2.4-4.5 4.1-6.2 1.8 6.4 5 12.3 9.2 17.5q-0.4-4.1-0.7-8.3c2.2 6 6.2 11.3 11.3 15-0.9-3.4-0.3-6.1 0.4-9.5 1.2 4.7 4.9 8.3 8.8 11.2-0.4-2.7-0.1-5.6 0.9-8.1 1.2 3.8 4.3 6.7 7.1 9.3 0.8 0.7 7 4.9 7 5.8 0.1-2.3 1.1-4.7 2.7-6.4 1.9 3.8 5 7 8.7 9 0.5-2.5 1.9-4.9 3.9-6.5q0.8 3.3 1.6 6.7 3.4-2.2 6.2-5c0.5 1.5 0.6 3.2 0.4 4.7 4.3-2.3 11.9-3.8 14.3-8.4 0.8 1.2 0 3.1-0.8 4.2 0.3 0.5 1.1 0.2 1.6-0.1 4.8-3.5 9.2-7.5 13.1-12q-1.1 3.5-2.4 7c3.3-2.4 6.9-4.8 9.7-7.6 1.8-1.7 5.8-4.9 5.7-7.6q0.1 2.6 0.2 5.2c2.8-2.3 5-4.6 7.3-7.5 0.1 1.5 0 2.9-0.1 4.4 2.9-1.9 4.4-5.9 6.1-8.9q0.9 3.3 1.3 6.6c1.9-5.6 3.1-10.7 2.7-16.6 0-0.5 0-1.1 0.4-1.4q2.4 2.5 4.5 5.3 0.3 1.2 0.7 2.3-2.2-2-4.4-3.9c0.1 0.9 0.3 1.9 0.4 2.9z"/><path class="b" d="m306.6 85.3q-0.8-0.9-1.8-1.7-1.8-2.4-3.4-5.1c-0.7-1.3-7.9-12.7-9.1-12.7 1.5-0.7 3-1 4.6-1.4-2.8-4-7-6.9-12-8.2 1.1-0.8 2.4-1.3 3.6-1.3q-3.9-1.3-8.2-2.5c-8.2-2.3-19.5-2.1-27.4 4.3-3.1 2.6-4.8 5.8-8.5 7.7-0.2 0.1-0.4 0.2-0.6 0.1-0.2 0-0.3-0.2-0.4-0.5-0.3-0.6-0.6-1.3-1-2q-0.9 1.5-2.1 2.8c-0.3 0.2-0.5 0.5-0.9 0.6-0.5 0.1-1.1-0.2-1.5-0.6-0.4-0.5-0.7-1-1.1-1.4-0.2-0.2-0.4-0.3-0.6-0.3-0.2 0-0.3 0.2-0.5 0.3q-1.2 1-2.3 2c-0.6-1-1-2-1.3-3.1q-1 1-2.1 2c-0.1 0.1-0.3 0.3-0.6 0.3-0.2 0-0.4-0.2-0.6-0.4-0.1-0.2-1.6-1.9-1.6-2.3-0.2 0.9-0.4 1.8-0.6 2.7-1.3-0.8-2.7-1.7-4-2.6-6.2-3.8-10.2-8.1-17.8-9.8-6.7-1.5-14.2-2.5-18.6 1.5 1.9 0.2 3.8 1.3 5.1 3-3.5-3.4-17 7.1-18.7 9q2.6 0.2 5.3 0.4c-4.1-0.3-8.4 10.2-10.6 13.1-0.7 0.9-1.5 1.7-2.3 2.6 0.2-1.1 0.4-2 0.7-2.7 1.3-3 2.8-6.2 4.3-9.1q-3.3 2.5-6.6 5.1c1-3 2.6-5.4 4.3-7.9 1-1.6 2-4.4 3.2-5.6-2.1 2-4.7 3.4-7.6 4.1 3.7-4.7 8.5-10.2 10.7-15.8-1.9 0.5-3.7 1.3-5.3 2.4 3.9-2.7 4.7-9.3 9.9-10.9-2.2-1.3-4.9-2.1-7.5-2.2 3.5-2.6 8.2-3.4 12.2-2.1-1.1-2.8-3.5-5.1-6.3-6.1 3.1-1.9 7.1-2.1 10.3-0.6-0.2-3.4-2.4-6.6-5.6-7.9 4.6-0.7 9.5 0.5 13.2 3.3q-2.5-5.2-5-10.4 3.2 3.1 6.5 6.2c-2.3-3.8-2.8-8.7-1.2-12.9-0.4 3.9 2 7.9 5.6 9.5q-0.8-5.6-2-11.2c3.5 1.9 6.7 4.5 9.2 7.6-0.1-3.2-1.8-6.2-4.5-7.9 4.9 0 9.8 2 13.3 5.3 0.6-3.4-0.6-7.1-3.1-9.5 3.1 1.2 5.6 3.5 7.1 6.4 0.7-2 0.5-4.5-0.8-6.3 4.4 0.5 8.4 3.3 10.4 7.2 3.2-2.9 5.9-6.2 8.2-9.9 1.2 2.7 2.8 5.2 4.5 7.5l7-4.3c-0.1 2.5-1 5-2.5 7 4.8-2.7 10.6-3.6 16-2.6q-3.9 3.1-7.8 6.3c5.3-0.8 10.8-0.7 16.1 0.2-2.1 1-5.7 1.5-6.8 3.9 5.7-0.6 11.4 0 16.8 1.7-3.1-0.1-6.3 0.9-8.7 2.8 3.8 0.5 7.7 0.7 11.6 0.5-1.5 2.8-4.2 5-7.3 5.9 3.8 1 8 0.4 11.5-1.5-2.1 3-3.4 6.5-3.8 10.1 4.1-2.1 8.5-3.3 13.1-3.7-3.9 1.6-6.4 5.4-8.7 9 2.8-1.6 6.5-1.7 9.3-0.1-2.8 0.6-5.6 1.5-8.2 2.8 0.9-0.4 5.5 1.1 7.1 0.8-1.6 1.6-3.7 3.3-2.9 5.8 0.4 1.2 2.4 2.7 3.2 3.7 0.9 0.9 4.1 5.4 5.6 5.4-2.4 0.1-4.9-0.3-7.2-1.3 4.1 2.4 7.5 5.8 9.9 9.9-2.8-0.8-5.6-1.3-8.4-1.3 4.4 4.6 7.4 10.5 8.6 16.8z"/><path class="b" d="m289 27.4c-1.2 1.7-2.2 3.7-2.9 5.8-1.2 0.9-2.6 1.8-3.6 3q-1.7-0.9-3.5-1.7c-3.6-1.5-7.5-2.3-11.5-2.4 2 1.6 3.7 3.7 5 6-4.9-3.6-11.4-3.7-17.5-3.7 3.2 0.3 6.9 0.8 8.3 3.6-0.8-1.5-12.5 0.2-14.1 0.7-4 1.2-8.4 4.6-11.5 7.4-0.6-1.9-0.9-4-0.9-6.1-1.5 1.2-2.7 2.7-3.5 4.4-2.5-2-4.6-4.5-6.1-7.3-0.2 2.3-0.7 4.5-1.4 6.7-2.2-1.9-3.4-4.1-5.8-5.7-7.1-4.6-16.6-1.8-24 0.5 4.2-2.8 8.9-4.9 13.7-6.3-5.7 0.2-11.5 1.5-16.8 3.7 1-1.8 2.3-3.4 3.9-4.8-5.5 0.8-9.5 2.4-13.5 5.9-1.1-2.8-3.5-5.1-6.3-6.1 3.1-1.9 7.1-2.1 10.3-0.6-0.2-3.4-2.4-6.5-5.6-7.9 4.6-0.6 9.5 0.6 13.2 3.3q-2.5-5.1-5-10.4 3.2 3.1 6.5 6.2c-2.3-3.8-2.8-8.7-1.2-12.9-0.4 3.9 2 7.9 5.6 9.5q-0.8-5.6-2-11.1c3.5 1.9 6.7 4.4 9.2 7.5-0.1-3.2-1.8-6.2-4.5-7.8 4.9-0.1 9.8 1.9 13.3 5.3 0.6-3.5-0.6-7.1-3.1-9.6 3.1 1.2 5.6 3.6 7.1 6.5 0.7-2.1 0.5-4.5-0.8-6.4 4.4 0.5 8.4 3.3 10.4 7.2 3.2-2.9 5.9-6.2 8.2-9.8 1.2 2.6 2.8 5.1 4.5 7.4l7-4.2c-0.1 2.5-1 4.9-2.5 6.9 4.8-2.7 10.6-3.6 16-2.6q-3.9 3.2-7.8 6.4c5.3-0.9 10.8-0.8 16.1 0.1-2.1 1-5.7 1.5-6.8 3.9 5.7-0.5 11.4 0 16.8 1.7-3.1-0.1-6.3 0.9-8.7 2.8 3.8 0.5 7.7 0.7 11.6 0.5-1.5 2.9-4.2 5.1-7.3 5.9 3.9 1 8 0.4 11.5-1.5z"/><path class="q" d="m281.2 62.4c-3.8-6.6-10.4-10.5-18.3-10.7 0.9-1.5 2.4-2.6 4.2-2.9-5.1 0.3-10.4 0.9-15.3 2.5 0.7-1.4 1.6-2.7 2.7-3.9-6.9 2.5-14.2 5.9-19.1 11.5 0.9-1.1-10.1-7.4-11.1-7.9-4.8-2.2-10-3.7-15.4-3.8 1.2 1.2 2.1 2.6 2.7 4.2-6.8-1.6-13.9-2.8-19.6 2.4 0.4-0.3 4.5-0.1 5.1 0.1-2.8 1.5-5.5 3.5-7.1 6.3-0.8 1.5-1.6 3.1-2.2 4.7-0.5 1.2-0.7 3.6-1.5 4.6 1.4-1.7 3.2-3 5.2-3.8-1.1 0.4-1.5 1.8-1.6 3-0.5 3.8-0.4 8 0.8 11.7 3 9 9.6 17.4 18.9 20.4 10 3.2 19.8-0.9 25.7-9.5 5.8 8.7 15.7 12.9 25.7 9.7 10.3-3.4 16.5-13.2 19.1-23.2 1.2-4.4 1.7-10-1.3-13.7q2 0.9 4 1.8-0.7-1.9-1.6-3.5z"/><path class="r" d="m239 76.6c-2.1 9.2-12.4 14.5-23 12.1-10.6-2.5-17.5-11.9-15.4-21 2.1-9.1 11.4-9.8 21.9-7.3 10.6 2.5 18.6 7.1 16.5 16.2z"/><path class="r" d="m231.6 76.7c2.2 9.1 12.5 14.5 23.1 12 10.6-2.4 17.4-11.8 15.3-20.9-2.1-9.1-11.3-9.8-21.9-7.3-10.6 2.4-18.6 7.1-16.5 16.2z"/><path class="s" d="m225.8 72.5q0 0.4-0.1 1 0 0.1 0 0.3-0.1 0.3-0.2 0.5 0 0.1 0 0.2-0.1 0.3-0.2 0.5-0.3 0.8-0.7 1.4-0.2 0.3-0.4 0.5 0 0.1 0 0.1-0.2 0.3-0.5 0.5-0.2 0.3-0.4 0.5-0.4 0.3-0.8 0.6 0 0-0.1 0c-0.1 0.1-0.2 0.2-0.4 0.3q-0.6 0.3-1.2 0.6-0.2 0.1-0.5 0.1-0.4 0.2-0.8 0.2-0.2 0.1-0.3 0.1-0.1 0-0.2 0-0.1 0-0.2 0-0.1 0-0.2 0-0.2 0.1-0.5 0.1-0.3 0-0.7-0.1-0.2 0-0.5 0-0.2-0.1-0.3-0.1-0.3 0-0.6-0.1-0.1 0-0.1-0.1-0.3 0-0.6-0.2-0.7-0.2-1.4-0.7-0.2-0.2-0.5-0.3 0-0.1 0-0.1-0.3-0.2-0.6-0.4-0.2-0.2-0.4-0.5-0.4-0.4-0.6-0.8-0.1 0-0.1 0c-0.1-0.2-0.2-0.3-0.2-0.4q-0.4-0.6-0.6-1.3-0.1-0.2-0.2-0.5-0.1-0.3-0.2-0.8 0-0.2 0-0.5-0.1-0.4-0.1-0.9 0-0.3 0-0.6 0.1-0.3 0.1-0.6 0-0.1 0.1-0.3 0 0 0-0.1 0-0.3 0.1-0.5 0.1-0.3 0.2-0.5c0.6-1.4 1.7-2 3.2-2.2 1.3-0.1 2.8 0.1 4.6 0.4 1.8 0.3 3.6 0.6 4.9 1.3 1.4 0.6 2.3 1.7 2.3 3.4z"/><path class="t" d="m224.4 71.8c0.2 3.5-2.4 6.5-5.9 6.8-3.5 0.2-6.5-2.5-6.7-6q-0.1-0.5 0-1 0-0.1 0-0.3 0.1-0.2 0.1-0.5 0.1-0.3 0.2-0.6 0-0.1 0-0.1 0.1-0.3 0.3-0.5 0-0.1 0-0.1 0.1-0.3 0.3-0.6c0.4-0.5 0.8-1.1 1.3-1.5 1.3-0.1 2.9 0.1 4.6 0.4 1.9 0.2 3.6 0.6 5 1.2q0.1 0.3 0.3 0.7 0.1 0.3 0.2 0.7 0.1 0.3 0.2 0.7 0.1 0.4 0.1 0.7z"/><path class="u" d="m218.1 75.9c-2 0-3.7-1.6-3.7-3.7 0-2 1.7-3.6 3.7-3.6 2 0 3.7 1.6 3.7 3.6 0 2.1-1.7 3.7-3.7 3.7z"/><path class="s" d="m216.3 71.5c-0.9 0-1.6-0.7-1.6-1.7 0-0.9 0.7-1.7 1.6-1.7 1 0 1.7 0.8 1.7 1.7 0 1-0.7 1.7-1.7 1.7z"/><path class="s" d="m260.4 72.2q0 0.3-0.1 0.5 0 0.4 0 0.7-0.1 0.4-0.2 0.7-0.1 0.4-0.2 0.7-0.2 0.6-0.5 1.1-0.4 0.8-1 1.5-0.2 0.2-0.5 0.5 0 0 0 0-0.3 0.2-0.5 0.4-0.3 0.3-0.6 0.4-0.6 0.4-1.3 0.7c-0.7 0.3-1.4 0.4-2.1 0.5q-0.4 0.1-0.8 0.1-0.2 0-0.5-0.1-0.1 0-0.3 0-0.2 0-0.5-0.1-0.4 0-0.8-0.2-0.3 0-0.5-0.1-0.6-0.3-1.2-0.6-0.2-0.1-0.5-0.3-0.4-0.3-0.8-0.6-0.2-0.2-0.4-0.5-0.3-0.2-0.5-0.5 0 0 0 0-0.2-0.3-0.4-0.6-0.4-0.6-0.7-1.4-0.1-0.2-0.2-0.5-0.1-0.5-0.2-1.1-0.1-0.5-0.1-0.9c0-1.7 0.8-2.7 2.1-3.4q0.1 0 0.2-0.1c1.3-0.6 3-0.9 4.9-1.2 1.7-0.3 3.2-0.5 4.5-0.4h0.1c1.2 0.2 2.2 0.6 2.9 1.7q0.1 0.2 0.2 0.5 0.1 0.2 0.1 0.4 0.2 0.7 0.3 1.4 0.1 0.4 0.1 0.8z"/><path class="t" d="m258.9 71.8c0.3 3.5-2.4 6.5-5.9 6.8-3.4 0.2-6.5-2.5-6.7-6q0-0.5 0-1 0.1-0.2 0.1-0.3 0-0.4 0.1-0.7 0.1-0.4 0.3-0.8 0.1-0.4 0.4-0.7 0 0 0.1-0.1c1.3-0.6 3-0.9 4.9-1.2 1.7-0.3 3.2-0.5 4.5-0.4q0.3 0.2 0.5 0.4 0.2 0.2 0.4 0.5 0.1 0.2 0.3 0.4 0 0.1 0.1 0.1 0.1 0.3 0.3 0.5 0.1 0.3 0.2 0.6 0 0 0 0 0.2 0.3 0.2 0.6 0.1 0.3 0.2 0.7 0 0.3 0.1 0.6z"/><path class="u" d="m252.6 75.9c-2 0-3.6-1.6-3.6-3.7 0-2 1.6-3.6 3.6-3.6 2.1 0 3.7 1.6 3.7 3.6 0 2.1-1.6 3.7-3.7 3.7z"/><path class="s" d="m250.7 71.5c-0.9 0-1.7-0.7-1.7-1.7 0-0.9 0.8-1.7 1.7-1.7 0.9 0 1.7 0.8 1.7 1.7 0 1-0.8 1.7-1.7 1.7z"/><path class="r" d="m267.5 132.3q0 0.5 0 0.9-0.1 4.4-1.3 8.5v0.1q-0.7 2.5-1.8 5-0.4 0.8-0.8 1.6c-3.8 7.5-10.5 13.3-18.2 16q-0.1 0-0.1 0c-19.7 7.1-41.7-9-42-31.1q0-0.5 0-1c0.4-19.3 14.5-49.4 32.1-49.8 17.6 0.4 31.8 30.5 32.1 49.8z"/><path class="q" d="m247.6 110.3c0.9 4.1 1.2 8.4-1.1 11.8-2.9 4.6-8.5 7.1-13.7 6.1-2.6-0.4-4.5-1.8-6.5-3.6-4.4-3.8-4.8-9.3-3.3-14.7 1.6-5.6 3.8-10.9 5.9-16.3 1.4-3.6 2.3-9.6 7-9.6 2.5 0 4 2.3 5 4.4 1.5 3.4 2.3 7.3 3.3 10.9 1.1 3.6 2.5 7.3 3.4 11z"/><path class="v" d="m267.5 133.2q-0.1 4.4-1.3 8.5v0.1q-0.7 2.6-1.8 5-0.4 0.8-0.8 1.6c-3.8 7.5-10.5 13.3-18.2 16q-0.1 0-0.1 0c-19.7 7.1-41.7-9-42-31.1q0.1-1.5 0.2-3c0.9 9.3 5.7 17.5 12.7 22.8q0.6 0.4 1.3 0.9 0.9 0.6 1.9 1.2 1.1 0.6 2.1 1.1 0.7 0.3 1.4 0.6 0.7 0.3 1.5 0.6 1.6 0.6 3.2 1 0.7 0.2 1.3 0.3 0.6 0.1 1.1 0.2 0.3 0.1 0.6 0.1 0.9 0.2 1.9 0.2 0.4 0.1 0.9 0.1 0.3 0 0.7 0.1 0.7 0 1.3 0 1.9 0 3.8-0.3 1.4-0.1 2.8-0.4 1.7-0.4 3.3-0.9 0.8-0.3 1.6-0.6 0.7-0.3 1.5-0.6 0.1 0 0.2-0.1 0.6-0.3 1.2-0.6 0.3-0.1 0.7-0.3 0.1-0.1 0.3-0.2 0.6-0.3 1.2-0.7 0.7-0.4 1.3-0.9 1.3-0.8 2.5-1.8 0.6-0.5 1.2-1 0.4-0.4 0.8-0.8 0.4-0.4 0.7-0.8 0.1 0 0.1-0.1 0.6-0.5 1.1-1.1 0.1-0.1 0.1-0.2c0.4-0.4 0.7-0.9 1.1-1.3q0.5-0.6 0.9-1.3 0.5-0.7 0.9-1.3c0-0.1 0.1-0.2 0.2-0.3q0.4-0.7 0.7-1.3c0 0 0 0 0-0.1q0.4-0.7 0.8-1.5 0.4-0.7 0.7-1.5 0.3-0.7 0.5-1.4 0.1-0.3 0.2-0.6 0.1-0.3 0.2-0.5 0.1-0.4 0.2-0.8c0.1-0.1 0.1-0.2 0.1-0.2q0.7-2.8 1-5.7c0.1 1 0.2 1.9 0.2 2.9z"/><path class="u" d="m244.1 141.6c-5.7 2-11.7 2-17.3 0 5.6-2 11.6-2 17.3 0z"/><path class="u" d="m231 127.3c-0.9 0.5-2.3-0.5-3.3-2.2-0.9-1.6-1.1-3.4-0.2-3.9 0.8-0.4 2.2 0.5 3.2 2.2 1 1.7 1.1 3.4 0.3 3.9z"/><path class="u" d="m243.1 125.2c-0.9 1.6-2.4 2.6-3.2 2.1-0.8-0.4-0.7-2.2 0.3-3.9 0.9-1.7 2.4-2.6 3.2-2.1 0.8 0.4 0.7 2.2-0.3 3.9z"/></svg>