<svg version="1.2" xmlns="http://www.w3.org/2000/svg" viewBox="0 0 470 470" width="470" height="470"><style>.a{fill:#e6d6bf}.b{mix-blend-mode:multiply;fill:#e6d6bf}.c{fill:none}.d{fill:#9c8c78}.e{mix-blend-mode:multiply;fill:#9c8c78}.f{fill:#e4807e}.g{mix-blend-mode:multiply;fill:#dadada}.h{fill:#d97a78}.i{fill:#fff}.j{fill:#ecd934}.k{fill:#1d1d1b}.l{fill:#c15b75}.m{mix-blend-mode:multiply;fill:#c15b75}.n{fill:#f6f6f6}.o{mix-blend-mode:multiply;fill:#eae6d6}</style><path class="a" d="m259 369.9c0 0 0 0 0 0.1-1 9.2-4.3 17.8-7.2 26.9q-0.4 1-0.7 2.1-0.2 0.7-0.4 1.4-0.1 0.4-0.2 0.7c-0.7 2.8-1.5 5.6-2.2 8.4q-0.3 1.1-0.6 2.2-0.2 0.5-0.4 1-0.2 1-0.5 1.9-0.4 1-0.7 1.9c-1 2.7-2.1 5.2-3.6 7.6-0.9 1.5-2 3-3.2 4.5 0.1-1.8-0.5-3.6-1.8-4.7-2.1 2.8-23.3 17.9-23.4 16.3q-0.1-3-0.3-5.9c-1.9 1.2-3.5 3-4.6 5.1q-0.6-1.4-1.3-2.8-0.9-1.9-1.8-3.9-0.6 0.7-1.3 1.2c-2.7 2.1-6.4 2.9-9.7 1.9 1.6-3 2.4-6.5 2.3-10-2.7 1.1-5.2 2.9-7.1 5.1 0.1-4.6 0.6-9.2 1.4-13.7-2.4 1.3-4.4 3.1-5.9 5.4q-0.1-2.7 0.4-4.9 0.1-0.7 0.3-1.3c0.7-2.6 2-5 3.4-7.2 1.6-2.6 3.5-5.1 5.1-7.8 0.8-1.3 1.5-2.8 2.2-4.2q0.3-0.8 0.5-1.5 1.8-4.3 3.3-8.7 0.1 0 0.1 0 1.6-4.5 3-9.1c2.8-9.3 5.1-18.8 6.6-28.4 0.4-2.2 0.7-4.4 1.2-6.6q0.2-0.9 0.4-1.8 0.1-0.5 0.3-1 0-0.3 0.1-0.6 0.1-0.4 0.3-0.7 0.1-0.4 0.3-0.9 0.1-0.5 0.3-0.9 0.2-0.5 0.4-0.9 0.4-0.9 0.9-1.7 0.3-0.5 0.6-0.9 0.4-0.6 0.9-1.2 0.2-0.2 0.4-0.5 0.2-0.3 0.5-0.5c0.1-0.2 0.3-0.4 0.5-0.6q0.5-0.5 1.1-0.9 0.6-0.5 1.2-0.9 0.1-0.1 0.2-0.2 0.6-0.4 1.3-0.7 0.1-0.1 0.3-0.2 0.7-0.4 1.3-0.7 0.7-0.3 1.4-0.5 0.8-0.3 1.6-0.5 0.1-0.1 0.2-0.1c0.3 0 0.6-0.1 0.9-0.2q0 0 0.1 0 0.5-0.1 0.9-0.2 0.5-0.1 0.9-0.1 0.4-0.1 0.8-0.1 0.4-0.1 0.9-0.1c3.3-0.1 6.7 0.4 9.8 1.8 11.5 5.2 17.5 20.8 18.5 32.6q0 0.8 0.1 1.5 0.2 4.5-0.3 8.6z"/><path class="b" d="m259 369.7c0 0 0 0 0 0.1-1 9.3-4.2 17.8-7.1 26.9q-0.4 1.1-0.7 2.2-0.2 0.6-0.4 1.3-0.1 0.4-0.2 0.8c-0.7 2.8-1.4 5.6-2.2 8.4q-0.3 1.1-0.6 2.2-0.2 0.5-0.3 1-0.3 1-0.6 1.9-0.3 0.9-0.7 1.9c-0.9 2.6-2 5.2-3.5 7.6q-1.4 2.3-3.2 4.5c0.2-1.7-0.5-3.5-1.8-4.7-2.1 2.8-23.2 18.1-23.3 16.5q-0.2-3-0.4-6c-1.9 1.3-3.5 3.1-4.5 5.2q-0.6-1.4-1.3-2.8-0.9-1.9-1.8-3.9-0.6 0.7-1.3 1.2c-2.7 2.1-6.5 2.9-9.8 2 1.7-3.1 2.4-6.6 2.3-10.1-2.7 1.2-5.2 2.9-7.1 5.1q0.2-6.8 1.3-13.6c-2.3 1.2-4.3 3.1-5.8 5.4q-0.2-2.6 0.3-4.9 0.2-0.7 0.3-1.3c0.8-2.6 2-5 3.4-7.2 1.6-2.6 3.5-5.1 5.1-7.8 0.8-1.4 1.5-2.8 2.1-4.3q0.3-0.7 0.6-1.4 1.7-4.4 3.3-8.7 0-0.1 0-0.1 1.6-4.5 2.9-9.1 4.3-14 6.5-28.5c0.4-2.1 0.7-4.3 1.2-6.5q0.1-0.9 0.4-1.8 0.1-0.5 0.2-1 0.1-0.3 0.2-0.7 0.1-0.3 0.2-0.6 0.2-0.5 0.4-0.9 0.1-0.5 0.3-0.9 0.2-0.5 0.4-0.9 0.4-0.9 0.9-1.8 0.3-0.4 0.5-0.9 0.4-0.6 0.9-1.1 0.2-0.3 0.4-0.5 0.2-0.3 0.5-0.6c0.2-0.1 0.3-0.3 0.5-0.5q0.6-0.5 1.1-1c0.4-0.3 0.8-0.6 1.2-0.9q0.1-0.1 0.2-0.1 0.6-0.4 1.3-0.8 0.1-0.1 0.3-0.2 0.7-0.3 1.3-0.6 0.7-0.3 1.4-0.6 0.8-0.3 1.6-0.5 0.1 0 0.2-0.1c0.3 0 0.6-0.1 0.9-0.2q0 0 0.1 0 0.5-0.1 0.9-0.2 0.5-0.1 0.9-0.1 0.4-0.1 0.9-0.1 0.3-0.1 0.8-0.1c3.3-0.2 6.7 0.4 9.8 1.7 11.6 5.1 17.6 20.8 18.7 32.6 0 0.5 0 1 0 1.5q0.3 4.4-0.1 8.6z"/><path class="b" d="m259 369.9c0 0 0 0 0 0.1-1 9.2-4.3 17.8-7.2 26.9q-0.4 1-0.7 2.1-0.3 1-0.6 2.1c-0.7 2.8-1.5 5.6-2.2 8.4q-0.3 1.1-0.6 2.2-0.2 0.5-0.4 1-0.2 1-0.5 1.9-0.4 1-0.7 1.9c-1 2.7-2.1 5.2-3.6 7.6q-0.3-6.4-1.2-12.7c-6 6.7-12.6 12.8-19.8 18.3 0.8-0.5-0.1-5.9-0.3-7 0 1.6-9 6-10.3 6.4 1.1-3.2 1.1-6.6 1.6-10-2.4 3.8-5.7 7.2-9.6 9.6 0.5-4.3 0.6-8.8 0.1-13.2q-4.4 4-8.2 8.7 1.1-5.8 2.2-11.6c-3.9 1-7.5 2.8-10.8 5.1 0.6-3.2 2-5.9 3.7-8.5 1.6-2.6 3.5-5.1 5.1-7.8 0.8-1.3 1.6-2.8 2.2-4.2q0.3-0.8 0.5-1.5c1.7-2.6 2.5-5.6 3.4-8.7q0 0 0 0c0.8-3.1 1.6-6.3 3-9.1 4.2-8.3 5.2-19.8 6.6-28.4 0.4-2.2 0.7-4.4 1.2-6.6q0.2-0.9 0.4-1.8 0.1-0.5 0.3-1 0-0.3 0.2-0.6 0-0.4 0.2-0.7 0.1-0.4 0.3-0.9 0.1-0.5 0.3-0.9 0.2-0.5 0.4-0.9 0.4-0.9 0.9-1.7 0.3-0.5 0.6-0.9 0.4-0.6 0.9-1.2 0.2-0.2 0.4-0.5 0.2-0.3 0.5-0.5c0.2-0.2 0.3-0.4 0.5-0.6q0.5-0.5 1.1-0.9 0.6-0.5 1.2-0.9 0.1-0.1 0.2-0.2 0.6-0.4 1.3-0.7 0.1-0.1 0.3-0.2 0.7-0.4 1.3-0.7 0.7-0.3 1.4-0.5 0.8-0.3 1.6-0.5 0.1-0.1 0.2-0.1c0.3 0 0.6-0.1 0.9-0.2q0 0 0.1 0 0.5-0.1 0.9-0.2 0.5-0.1 0.9-0.1 0.4-0.1 0.9-0.1 0.3-0.1 0.8-0.1c3.3-0.1 6.7 0.4 9.8 1.8 11.5 5.2 17.5 20.8 18.5 32.6q0 0.8 0.1 1.5c0.1 2.9 0 5.7-0.3 8.6z"/><path class="c" d="m236.5 393.9l0.5 0.5"/><path class="d" d="m61.8 325.8q0.2 5 1 10.4c0.3 1.8 0.7 3.8 1.3 5.6q0.5 1.2 0.9 2.4 0.2 0.4 0.4 0.9c1.1 2.7 2.8 5.4 5 7.4 2.7 2.5 4.7 2 8.1 2.3 6.5 0.6 12.3 4.3 18.8 4.2q1.8 0 3.6-0.4c0.8-0.1 1.7-0.4 2.1-1.1 0.4-0.7 0.3-1.5 0.1-2.2q-0.9-5-1.9-10c-0.5-2.9-1.1-5.9-0.6-8.8 0.4-2.9 2.1-5.7 4.7-6.9 1.6 4.7 5.5 8.4 10.2 9.9 2.2 0.6 5.1 0.4 6.5-1.1 0.5-0.5 0.8-1.1 0.9-1.8 0.2-1.1-0.3-2.3-0.8-3.3q0-0.1-0.1-0.1c-2.8-6.6-4.5-12.7-6.8-18.7-1.7-4.4-3.9-8.7-7.2-13q-0.3-0.4-0.7-0.9-0.2-0.3-0.4-0.6-0.4-0.4-0.6-0.8-0.3-0.4-0.5-0.8c-3.9-6.7-7-14-9.8-21.5-2.2-5.7-5.1-11.5-8.7-13.7-2.2 0.3-4 1.3-5.7 2.6q-1.3 1.2-2.5 2.7-0.1 0.2-0.3 0.4-0.1 0.1-0.2 0.2-0.3 0.5-0.6 1-0.4 0.5-0.7 1.1c-1.6 2.5-2.9 5.4-4.3 8.3q-0.9 1.7-1.6 3.4-0.8 1.6-1.4 3.1-0.8 1.7-1.4 3.4-0.7 1.7-1.3 3.4-1.3 3.4-2.3 6.8-0.2 0.9-0.5 1.8-0.3 1.1-0.6 2.2-0.2 1.2-0.5 2.4c-0.9 4.5-1.5 9.1-1.7 13.9q0 0.4 0 0.8-0.1 2.5 0 5.1z"/><path fill-rule="evenodd" class="e" d="m74.4 345.8c-1.7-4-2.5-8.1-3.6-12.2q-0.3-1.2-0.7-2.4-0.9 1-1.8 1.9-1.1-2.8-1.7-5.9-0.4 0.7-1 1.1c0.6-0.5-3.7-7.5-3.8-8.4q-0.2-0.7-0.2-1.4c0-4 0.9-8 1.7-11.8q0.1-0.4 0.1-0.7 0.3-1.2 0.5-2.3 0.3-1.2 0.6-2.3 0.3-0.9 0.5-1.7 1-3.5 2.3-6.9 0.6-1.7 1.3-3.4 0.6-1.7 1.4-3.3 0.7-1.6 1.4-3.2 0.8-1.7 1.6-3.4c1.4-2.9 2.7-5.8 4.3-8.3q0.3-0.6 0.7-1.1 0.3-0.5 0.6-0.9 0.1-0.2 0.2-0.3 0.2-0.2 0.3-0.4c0.6-0.7 1.5-1.7 2.5-2.7 2-1.8 4.3-3.5 5.7-2.6 3.6 2.2 6.5 8 8.7 13.7 2.8 7.5 5.9 14.8 9.8 21.5q0.2 0.4 0.5 0.8 0.3 0.4 0.6 0.9 0.2 0.2 0.4 0.5 0.4 0.5 0.8 1c3.2 4.2 5.4 8.5 7.1 12.9q-0.4-0.1-0.8-0.2c-1.2-0.3-2.6-0.7-3.6 0.1-0.7 0.6-0.6 1.8-0.5 2.7 0.5 4.5 1.7 8.8 3.6 12.8 1.1 2.2 2.3 4.4 4.8 4.6 0.6 0.1 2.1-0.5 3.4-1.2 0.5 1 1 2.2 0.8 3.3-0.1 0.8-0.4 1.3-0.8 1.8-1.5 1.5-4.4 1.7-6.6 1.1-4.7-1.5-8.6-5.2-10.1-9.8-2.7 1.1-4.4 3.9-4.8 6.8-0.5 2.9 0.1 5.9 0.6 8.8q1 5 1.9 10c0.2 0.7 0.3 1.5-0.1 2.2-0.4 0.7-1.3 1-2.1 1.1-1.1 0.3-2.4 0.1-3.5 0.4q0 0-0.1 0c-6.5 0.1-12.3-3.6-18.8-4.2-3.4-0.3-5.3 0.2-8.1-2.2-2.2-2-3.8-4.8-5-7.5q-0.2-0.5-0.4-0.9 0-0.5-0.1-1c0.5 5.3 11.4 7.2 9.5 2.6zm-9.5-2.7q0 0.1 0 0.1 0 0 0-0.1zm34.4 7.9q-0.6-1.7-1.1-3.5c-1.3-4.6-1.9-9.5-1.7-14.4-0.1 1.2-1.9 5.4-3 5.9-2.1 0.8-4.4-2.3-5.5-3.9q-0.2 2.7 0.3 5.3c-0.2-1.2-7-5.3-8.2-6.5-0.7 2.6 0.7 5.5 1.7 8 1 2.7 2.2 5.4 4.2 7.3 2 1.9 4.7 2.9 7.3 3.9 1.8 0.7 7.3 1.5 6-2.1zm-11-10.6q0 0 0 0 0 0 0 0z"/><path class="a" d="m57 303.6c-0.2 0.3 2.1-0.1 2.5-0.1-0.4 0.4-1.2 5.8-2 6.5 0.7 0 1.5-0.3 2-0.8-1.4 3-0.7 6.5 0.1 9.8 0.2-1.8 1.6-3.1 3.3-3.3 0.1 0.6 0.8 4.5 0.4 4.9 0.6-0.6 1.2-1.2 1.8-1.7 0.2 1.4 1.6 2.1 2.2 3.3 0.3-1 0.9-3.6 0.4-4.4q2.4 3.9 4.8 7.9c0.5 0.9 1.1 1.8 1.9 2.3-0.5-1.5-0.6-3.2 0-4.7 1.4 2.5 3.4 4 5.8 5.4 0.1 0.1 1 0.6 2.1 1.2 1.5 0.8 3.2 1.8 3.2 1.8q1.7-3.9 3.5-7.8c1.2 1.8 1.6 4.1 1 6.2 2.7-3.7 2.2-9.1 4.8-12.8 0 1.7 0.5 3.4 1.5 4.8 0.4-3.6 1.5-7 3-10.2 0.6 1.9 1.6 3.6 2.9 5.1q0.4-2.1 1.5-4 0.9 2.7 1.8 5.3c0.1-0.6 2.8-8.7 4.1-7.8 2.4 1.6 5.5 2 8.1 1-1.9-0.6-4.9-2.8-4.9-5 0.4 0 2 0.1 2 0.7-0.1-1.6-1.7-2.6-3-3.4-5.5-3.4-3.3-11.2-1.9-16.3 0.2 1.4 1 2.7 2 3.6-0.2-2.8 0-5.5 0.5-8.2 0.4 1.1 1.2 2.1 2.3 2.5-0.5-1.7-0.6-3.6-0.2-5.3 0.9 0.8 1.4 2.1 1.3 3.4 1.5-2.3 2.4-5 2.6-7.7 0.2-3.7 0.3-7.4 1.4-10.9 0.3-0.9 4.9-8.6 5.2-8.2 0.8 1.3 1 3.1 0.4 4.6 2.1-2.2 3.9-4.9 5-7.7-0.1 1.6 0.2 3.3 0.9 4.8 0.2-4.5 2.6-8.9 6.5-11.3-1 1.3-1.6 2.9-1.9 4.6 2.2-2.2 4-4.8 5.2-7.7 1.4 2 1.5 4.9 0.2 6.9 2.9-2.4 5.2-5.5 6.7-8.9q0.6 1.5 1.1 2.9c3.6-12.4 14.9-20 20-31.6q0.6-1.4 1.1-2.8c0.9-2.6 1.6-5.3 2.3-7.9q0.2-0.8 0.3-1.6c0.8-3.1 1.4-6.2 2-9.3q0.2-1.4 0.5-2.7 0-0.2 0-0.4 0.3-1.5 0.6-3.1 0.3-1.1 0.6-2.5 0-0.1 0-0.2c2.8-13.1 9.4-40.7-1.9-49q-0.2 0-0.4 0.1-0.7 0.1-1.5 0.2c-4.6 0.8-9 2.1-13 3.9q-0.3 0.1-0.6 0.2c-6.4 2.9-12.3 6.6-18 10.8-2.4 1.8-4.6 3.3-6.9 5.2-2.5 2.3-5.4 4.3-8.8 4.9 1.1 1.2 2.8 1.8 4.4 1.6-2.9 1.2-5.7 2.9-8.2 5q1.9 0.2 3.7 0.4c-2.3 1.8-5 3.1-7.9 3.7 0.4 1.2 1.4 2.1 2.7 2.5-6.6 6-11.4 13.3-19.1 18.1 1.1 0.4 2.4 0.5 3.5 0.2-2.1 1.9-4.9 3.2-7.7 3.6q1.7 1.2 3.3 2.5c0.3 0.2-9.2 12.2-9.8 13-5.1 6.5-10.9 12.1-15.2 19.2 1-1.2 2.6-1.9 4.2-1.8q-3.2 4.4-6.9 8.3c1.4 0 2.8-0.1 4.2-0.2-1.5 2.1-2.6 4.4-3.3 6.8 0.2-0.7 1.4-1 2-0.9 0.4 0-4.9 12.7-5.3 13.7 0.5-0.5 1.3-0.8 2-0.7-1 2.1-2.4 4-4 5.6q1.5-0.2 2.9-0.4c-2.5 4-4.7 7.9-5.6 12.6 0.7-0.6 1.6-1.1 2.6-1.2-1 2.2-2.3 4.3-3.9 6.2q0.9 0.3 1.8 0.5c-0.3 0-3.5 11.3-3.8 12.3-1.5 4.7-2.2 9.8-5 13.9z"/><path class="b" d="m77.9 314.8c1.1 5.1 2.3 10.3 4.4 15.1 1.5 0.8 3.2 1.8 3.2 1.8q1.7-3.9 3.5-7.8c1.2 1.8 1.6 4.1 1 6.2 2.7-3.7 2.2-9.1 4.8-12.8 0 1.7 0.5 3.4 1.5 4.8 0.4-3.5 1.4-7 3-10.2 0.6 1.9 1.6 3.6 2.9 5.1q0.4-2.1 1.5-4 0.9 2.7 1.8 5.3c0.1-0.6 2.8-8.7 4.1-7.8 2.4 1.6 5.5 2 8.1 1-1.9-0.6-4.9-2.8-4.9-5 0.4 0 2 0.1 2 0.7-0.1-1.6-1.7-2.6-3-3.4-5.5-3.4-3.3-11.2-1.9-16.3 0.3 1.4 1 2.7 2 3.6-0.2-2.8 0-5.5 0.5-8.2 0.4 1.1 1.2 2.1 2.3 2.5-0.5-1.7-0.6-3.6-0.2-5.3 0.9 0.8 1.4 2.1 1.3 3.4 1.5-2.3 2.4-5 2.6-7.7 0.2-3.7 0.3-7.4 1.4-10.9 0.3-0.9 4.9-8.6 5.2-8.2 0.8 1.3 1 3.1 0.4 4.6 2.2-2.2 3.9-4.9 5-7.7-0.1 1.6 0.2 3.3 0.9 4.8 0.2-4.5 2.6-8.9 6.5-11.3-1 1.3-1.6 2.9-1.9 4.6 2.2-2.2 4-4.8 5.2-7.7 1.4 2 1.5 4.9 0.2 6.9 2.9-2.4 5.2-5.5 6.7-8.9q0.6 1.5 1.1 2.9c3.6-12.4 14.9-20 20-31.6q0.6-1.4 1.1-2.8c0.9-2.6 1.6-5.3 2.3-7.9q0.2-0.8 0.3-1.6 1-4.6 2-9.3 0.2-1.4 0.5-2.7 0-0.2 0-0.4 0.3-1.5 0.6-3.1 0.3-1.1 0.6-2.5 0-0.1 0-0.2c2.8-13.1 9.4-40.7-1.9-49q-0.2 0-0.4 0.1-0.7 0.1-1.5 0.2c-4.6 0.8-9 2.1-13 3.9-3.9 3.3-7.9 6.8-10.9 11-2.7 3.9-3.9 8-8.2 10.8 0.8 1 2.1 1.5 3.3 1.2q-3.7 3.1-7.7 5.7c1.6 0.6 3.4 0.8 5.1 0.5-5.3 3.2-9.6 8.2-12.2 13.9 1.4 0 2.8-0.3 4-0.8-2.6 2.7-5.6 4.9-9 6.6 1.2 0.8 2.8 1.1 4.3 0.8q-3.5 2.4-7 4.8c1.4 0 2.9 0.3 4.1 0.9-1-0.5-4.7 5.1-5.3 5.8-2.4 2.7-5.5 4.3-8 6.8-2.2 2.2-3.6 5-4.1 8 0.6-1.3 2.1-2.2 3.6-2q-2.2 2.5-4.1 5.3 1.4-0.4 2.8-0.8c-1.5 1.7-3.3 3.1-5.3 4.1q1.7 0.3 3.2 1.1c-1.6 0.6-2.9 2.1-4.2 3.2-0.7 0.6-1.4 1.3-2 2.1-0.4 0.6-0.9 2.2-1.4 2.5 1-0.7 2.2-0.9 3.4-0.6-1.1-0.3-4 3.7-4.6 4.4-2.2 2.3-4 4.5-4.8 7.6 0.9-0.3 1.7-0.4 2.6-0.3-1.9 2.2-3 5-3.3 8q1.1-0.3 2.3-0.6c-0.5 0.1-1.7 7.6-2 8.5-0.6 2.8-1.8 4.9-2.8 7.5-2.3 5.6-3.4 11.6-3.3 17.6 0.4-1.8 1.7-3.4 3.4-4.2-1.3 0.6-1 4.8-1.2 6-0.2 1.9-0.6 3.6-0.7 5.5 0 2.2 0.3 4.6-0.9 6.7-0.2-1.2-1-2.2-2-2.6 0.4 2.4 0.1 4.9-0.8 7.2q-0.5-0.9-1.1-1.7c-0.4 1.3-0.6 2.7-0.4 4.1 0.4 3.7 0.2 7.7 0.4 11.4-1.3-0.9-2.4-2.1-3.2-3.5-0.9 3.2-0.8 6.5 0.2 9.6-1-2-2.3-3.8-3.9-5.3z"/><path class="d" d="m407.9 325.8q-0.2 5-1.1 10.4c-0.3 1.8-0.7 3.8-1.3 5.6q-0.4 1.2-0.9 2.4-0.1 0.4-0.3 0.9c-1.2 2.7-2.8 5.4-5 7.4-2.8 2.5-4.7 2-8.2 2.3-6.4 0.6-12.2 4.3-18.7 4.2q-1.8 0-3.6-0.4c-0.9-0.1-1.7-0.4-2.2-1.1-0.3-0.7-0.2-1.5-0.1-2.2q1-5 2-10c0.5-2.9 1.1-5.9 0.6-8.8-0.4-2.9-2.1-5.7-4.8-6.9-1.6 4.7-5.5 8.4-10.1 9.9-2.2 0.6-5.1 0.4-6.6-1.1-0.4-0.5-0.7-1.1-0.8-1.8-0.2-1.1 0.3-2.3 0.8-3.3q0-0.1 0-0.1c2.9-6.6 4.6-12.7 6.9-18.7 1.7-4.4 3.8-8.7 7.1-13q0.4-0.4 0.8-0.9 0.2-0.3 0.4-0.6 0.3-0.4 0.6-0.8 0.3-0.4 0.5-0.8c3.9-6.7 6.9-14 9.8-21.5 2.2-5.7 5.1-11.5 8.7-13.7 2.2 0.3 4 1.3 5.6 2.6q1.4 1.2 2.6 2.7 0.1 0.2 0.2 0.4 0.2 0.1 0.2 0.2 0.4 0.5 0.7 1 0.4 0.5 0.7 1.1c1.5 2.5 2.9 5.4 4.3 8.3q0.8 1.7 1.6 3.4 0.7 1.6 1.4 3.1 0.7 1.7 1.4 3.4 0.7 1.7 1.3 3.4 1.3 3.4 2.3 6.8 0.2 0.9 0.5 1.8 0.3 1.1 0.5 2.2 0.3 1.2 0.6 2.4c0.9 4.5 1.5 9.1 1.6 13.9q0.1 0.4 0.1 0.8 0 2.5-0.1 5.1z"/><path fill-rule="evenodd" class="e" d="m398.9 333.6c-1.1 4.1-2 8.3-3.6 12.2-1.9 4.6 9 2.7 9.4-2.6q0 0.5-0.1 1-0.1 0.5-0.3 0.9c-1.2 2.7-2.8 5.5-5 7.5-2.8 2.4-4.7 1.9-8.2 2.2-6.4 0.6-12.2 4.3-18.7 4.2q-0.1 0-0.1 0c-1.1-0.2-2.4-0.1-3.5-0.4-0.9-0.1-1.7-0.4-2.2-1.1-0.3-0.7-0.2-1.5-0.1-2.2q1-5 2-10c0.5-2.9 1.1-5.8 0.6-8.7-0.4-2.9-2.1-5.8-4.8-6.9-1.6 4.6-5.5 8.3-10.1 9.8-2.2 0.7-5.1 0.4-6.6-1.1q-0.7-0.7-0.8-1.7c-0.2-1.2 0.3-2.3 0.8-3.4 1.2 0.7 2.8 1.3 3.4 1.2 2.5-0.2 3.7-2.4 4.7-4.6 2-4 3.2-8.3 3.7-12.7 0.1-1 0.1-2.1-0.6-2.8-0.9-0.8-2.3-0.4-3.5 0q-0.4 0-0.8 0.1c1.7-4.4 3.8-8.7 7.1-12.9q0.4-0.5 0.8-1 0.2-0.3 0.4-0.5 0.3-0.5 0.6-0.9 0.3-0.4 0.5-0.8c3.9-6.7 6.9-14 9.8-21.4 2.2-5.8 5.1-11.6 8.7-13.8 1.4-0.8 3.7 0.8 5.6 2.7 1.1 0.9 2 2 2.6 2.7q0.1 0.2 0.2 0.3 0.2 0.2 0.2 0.3 0.4 0.4 0.7 0.9 0.4 0.6 0.7 1.1c1.5 2.5 2.9 5.4 4.3 8.3q0.8 1.7 1.6 3.4 0.7 1.6 1.4 3.2 0.7 1.6 1.4 3.3 0.7 1.7 1.3 3.4 1.3 3.4 2.3 6.9 0.2 0.8 0.5 1.7 0.3 1.1 0.5 2.3 0.3 1.1 0.6 2.3 0 0.3 0.1 0.7c0.8 3.8 1.7 7.8 1.7 11.8q0 0.7-0.2 1.4c-0.1 0.9-4.4 8-3.8 8.4q-0.6-0.4-1-1-0.6 3-1.7 5.8-0.9-0.9-1.8-1.9-0.4 1.2-0.7 2.4zm5.2-5.3q0-0.1 0-0.1 0 0 0 0.1zm0.6 14.8q0 0.1 0 0.1 0 0 0-0.1zm-33.3 4.4q-0.4 1.7-1.1 3.4c-1.3 3.7 4.3 2.8 6.1 2.1 2.5-0.9 5.2-1.9 7.2-3.8 2.1-2 3.3-4.7 4.3-7.3 0.9-2.5 2.3-5.4 1.6-8.1-1.2 1.2-7.9 5.4-8.1 6.6 0.3-1.8 0.4-3.6 0.2-5.3-1.1 1.5-3.4 4.7-5.5 3.8-1.1-0.4-2.9-4.6-2.9-5.8 0.1 4.8-0.5 9.7-1.7 14.4zm9.9-7.1q0 0 0 0 0 0 0 0z"/><path class="a" d="m412.7 303.6c0.2 0.3-2.2-0.1-2.5-0.1 0.3 0.4 1.2 5.8 2 6.5-0.8 0-1.5-0.3-2-0.8 1.3 3 0.6 6.5-0.1 9.8-0.2-1.8-1.6-3.1-3.3-3.3-0.1 0.6-0.8 4.5-0.4 4.9-0.6-0.6-1.2-1.2-1.8-1.7-0.2 1.4-1.6 2.1-2.2 3.3-0.3-1-0.9-3.6-0.4-4.4q-2.4 3.9-4.8 7.9c-0.6 0.9-1.1 1.8-1.9 2.3 0.5-1.5 0.5-3.2 0-4.7-1.4 2.5-3.4 4-5.8 5.4-0.2 0.1-1.1 0.6-2.1 1.2-1.5 0.8-3.2 1.8-3.2 1.8q-1.8-3.9-3.5-7.8c-1.2 1.8-1.6 4.1-1.1 6.2-2.7-3.7-2.1-9.1-4.8-12.8 0 1.7-0.5 3.4-1.4 4.8-0.4-3.6-1.5-7-3.1-10.2-0.5 1.9-1.5 3.6-2.8 5.1q-0.4-2.1-1.5-4-0.9 2.7-1.8 5.3c-0.2-0.6-2.8-8.7-4.2-7.8-2.3 1.6-5.4 2-8.1 1 2-0.6 5-2.8 4.9-5-0.4 0-1.9 0.1-1.9 0.7 0.1-1.6 1.6-2.6 3-3.4 5.4-3.4 3.2-11.2 1.9-16.3-0.3 1.4-1 2.7-2.1 3.6 0.2-2.8 0.1-5.5-0.5-8.2-0.3 1.1-1.1 2.1-2.2 2.5 0.5-1.7 0.5-3.6 0.2-5.3-1 0.8-1.4 2.1-1.3 3.4-1.5-2.3-2.4-5-2.6-7.7-0.3-3.7-0.3-7.4-1.5-10.9-0.2-0.9-4.8-8.6-5.1-8.2-0.9 1.3-1 3.1-0.4 4.6-2.2-2.2-3.9-4.9-5.1-7.7 0.1 1.6-0.2 3.3-0.9 4.8-0.1-4.5-2.6-8.9-6.4-11.3 1 1.3 1.6 2.9 1.8 4.6-2.2-2.2-4-4.8-5.1-7.7-1.5 2-1.5 4.9-0.3 6.9-2.8-2.4-5.1-5.5-6.7-8.9q-0.5 1.5-1.1 2.9c-3.5-12.4-14.8-20-19.9-31.6q-0.6-1.4-1.1-2.8c-0.9-2.6-1.7-5.3-2.3-7.9q-0.2-0.8-0.4-1.6c-0.7-3.1-1.3-6.2-1.9-9.3q-0.3-1.4-0.5-2.7-0.1-0.2-0.1-0.4-0.3-1.5-0.6-3.1-0.2-1.1-0.5-2.5 0-0.1 0-0.2c-2.9-13.1-9.4-40.7 1.9-49q0.2 0 0.3 0.1 0.8 0.1 1.5 0.2c4.7 0.8 9 2.1 13.1 3.9q0.3 0.1 0.5 0.2c6.4 2.9 12.3 6.6 18 10.8 2.4 1.8 4.7 3.3 7 5.2 2.5 2.3 5.4 4.3 8.8 4.9-1.1 1.2-2.9 1.8-4.5 1.6 3 1.2 5.7 2.9 8.2 5q-1.8 0.2-3.6 0.4c2.3 1.8 5 3.1 7.9 3.7-0.5 1.2-1.5 2.1-2.7 2.5 6.5 6 11.3 13.3 19 18.1-1.1 0.4-2.3 0.5-3.4 0.2 2.1 1.9 4.8 3.2 7.7 3.6q-1.7 1.2-3.4 2.5c-0.2 0.2 9.3 12.2 9.9 13 5.1 6.5 10.9 12.1 15.1 19.2-1-1.2-2.6-1.9-4.1-1.8q3.1 4.4 6.8 8.3c-1.3 0-2.7-0.1-4.1-0.2 1.5 2.1 2.6 4.4 3.3 6.8-0.2-0.7-1.4-1-2.1-0.9-0.3 0 5 12.7 5.4 13.7-0.5-0.5-1.3-0.8-2-0.7 1 2.1 2.3 4 4 5.6q-1.5-0.2-3-0.4c2.6 4 4.8 7.9 5.7 12.6-0.7-0.6-1.6-1.1-2.6-1.2 1 2.2 2.3 4.3 3.8 6.2q-0.8 0.3-1.7 0.5c0.3 0 3.5 11.3 3.8 12.3 1.5 4.7 2.2 9.8 5 13.9z"/><path class="b" d="m391.8 314.8c-1.2 5.1-2.4 10.3-4.4 15.1-1.5 0.8-3.2 1.8-3.2 1.8q-1.8-3.9-3.5-7.8c-1.2 1.8-1.6 4.1-1.1 6.2-2.7-3.7-2.1-9.1-4.8-12.8 0 1.7-0.5 3.4-1.4 4.8-0.4-3.5-1.5-7-3.1-10.2-0.5 1.9-1.5 3.6-2.8 5.1q-0.4-2.1-1.5-4-0.9 2.7-1.8 5.3c-0.2-0.6-2.8-8.7-4.2-7.8-2.3 1.6-5.4 2-8.1 1 2-0.6 5-2.8 4.9-5-0.4 0-1.9 0.1-1.9 0.7 0.1-1.6 1.6-2.6 3-3.4 5.4-3.4 3.2-11.2 1.9-16.3-0.3 1.4-1 2.7-2.1 3.6 0.2-2.8 0.1-5.5-0.5-8.2-0.3 1.1-1.1 2.1-2.2 2.5 0.5-1.7 0.5-3.6 0.2-5.3-1 0.8-1.4 2.1-1.3 3.4-1.5-2.3-2.4-5-2.6-7.7-0.3-3.7-0.3-7.4-1.5-10.9-0.2-0.9-4.8-8.6-5.1-8.2-0.9 1.3-1 3.1-0.4 4.6-2.2-2.2-3.9-4.9-5.1-7.7 0.1 1.6-0.2 3.3-0.9 4.8-0.1-4.5-2.6-8.9-6.4-11.3 1 1.3 1.6 2.9 1.8 4.6-2.2-2.2-4-4.8-5.1-7.7-1.5 2-1.5 4.9-0.3 6.9-2.8-2.4-5.1-5.5-6.7-8.9q-0.5 1.5-1.1 2.9c-3.5-12.4-14.8-20-19.9-31.6q-0.6-1.4-1.1-2.8c-0.9-2.6-1.7-5.3-2.3-7.9q-0.2-0.8-0.4-1.6-1-4.6-1.9-9.3-0.3-1.4-0.5-2.7-0.1-0.2-0.1-0.4-0.3-1.5-0.6-3.1-0.2-1.1-0.5-2.5 0-0.1 0-0.2c-2.9-13.1-9.4-40.7 1.9-49q0.2 0 0.3 0.1 0.8 0.1 1.5 0.2c4.7 0.8 9 2.1 13.1 3.9 3.9 3.3 7.9 6.8 10.8 11 2.7 3.9 4 8 8.2 10.8-0.7 1-2 1.5-3.2 1.2q3.6 3.1 7.6 5.7c-1.5 0.6-3.3 0.8-5 0.5 5.3 3.2 9.6 8.2 12.1 13.9-1.3 0-2.7-0.3-4-0.8 2.6 2.7 5.7 4.9 9.1 6.6-1.3 0.8-2.8 1.1-4.3 0.8q3.5 2.4 7 4.8c-1.5 0-2.9 0.3-4.2 0.9 1.1-0.5 4.7 5.1 5.4 5.8 2.3 2.7 5.5 4.3 8 6.8 2.1 2.2 3.6 5 4 8-0.5-1.3-2.1-2.2-3.5-2q2.2 2.5 4 5.3-1.4-0.4-2.8-0.8c1.5 1.7 3.3 3.1 5.4 4.1-1.2 0.2-2.2 0.6-3.2 1.1 1.6 0.6 2.9 2.1 4.2 3.2 0.7 0.6 1.4 1.3 2 2.1 0.4 0.6 0.9 2.2 1.3 2.5-0.9-0.7-2.2-0.9-3.3-0.6 1-0.3 3.9 3.7 4.6 4.4 2.1 2.3 3.9 4.5 4.7 7.6-0.8-0.3-1.7-0.4-2.5-0.3 1.8 2.2 3 5 3.3 8q-1.2-0.3-2.4-0.6c0.6 0.1 1.8 7.6 2 8.5 0.7 2.8 1.8 4.9 2.9 7.5 2.2 5.6 3.4 11.6 3.3 17.6-0.5-1.8-1.8-3.4-3.4-4.2 1.2 0.6 1 4.8 1.1 6 0.2 1.9 0.7 3.6 0.7 5.5 0 2.2-0.2 4.6 0.9 6.7 0.2-1.2 1-2.2 2.1-2.6-0.4 2.4-0.2 4.9 0.7 7.2q0.6-0.9 1.1-1.7c0.5 1.3 0.6 2.7 0.5 4.1-0.5 3.7-0.3 7.7-0.4 11.4 1.3-0.9 2.3-2.1 3.2-3.5 0.8 3.2 0.7 6.5-0.2 9.6 0.9-2 2.3-3.8 3.9-5.3z"/><path class="a" d="m224.4 364.3c-0.8 4.2-1.9 8.4-3.3 12.3-0.5-1.6-1.4-2.9-2.5-4-2 6.7-2.7 13.7-1.9 20.7-1.6-1.4-2.5-3.6-2.4-5.7-3.1 4.4-4.7 9.8-4.6 15.2-1.6-2.6-2-5.6-2.6-8.5-4.2 4.5-7.9 11.4-9.6 17.3-0.9-1.3-1.3-3.1-1-4.7-3.2 2.5-5.5 6.1-6.5 10.1q-0.6-2.9-1.3-5.7-2.7 6.9-5.3 13.7c0.4-1.3 0.1-2.8-0.8-3.9-1.2 3-2.1 5.9-2.6 8.7q0 0.1 0 0.3-0.1 0.4-0.2 0.8c-0.6 4.5 0 9 2.7 13.7q-0.2-0.4-0.7-0.7c-1.4-1-4.3-2.1-5.3-2.9-0.8 2.7 2.5 5.1 4.4 6.6q-1.5 0.2-3-0.1c0.5 3.8 0.2 8-1.2 11.6-0.8 1.8-0.9 1.9-3.2 2.7q-2.6 0.8-5.3 1.5-5.1 1.3-10.4 1.7c-3.7 0.3-7.4 0.3-11.1-0.1q-0.7-0.1-1.5-0.2-0.5 0-1-0.1-5.5-0.8-10.8-2.5c-2.1-0.6-4.2-1.5-5.6-3.1-1.2-1.6-1.7-3.6-2.2-5.5-0.8-3.7-3-8.6-2.3-12.3-0.8 0.5-1.8 0.7-2.7 0.6 0.9 0.1-0.1-23.8 0-26.1-0.3 1.3-1 2.5-2 3.4q0.5-6 1-12-1.7 0.7-3.4 1.5 1.5-7 2.2-14.1 0.3-3.7 0.4-7.5-1.7 1.7-3.5 3.4c0.9-6.5 2.8-12.8 5.4-18.8q-1.3 1-2.5 2c0.1-2.9 1.1-5.7 2.7-8.2q-2.6 0.8-5.2 1.5c4.5-3.8 7.9-8.8 10-14.3-1.5-0.1-3.1 0.7-4.1 1.9 2.4-6.2 6.8-11.7 12.4-15.4-1.3-0.2-2.7 0.1-3.9 0.8 1.9-3.1 4.1-6.1 6.6-8.7q-1.4-0.7-2.8-1.5c13.1-6.2 21.6-19.4 35-26 16.5-8 33.8-5.2 45.3 9.5 11 14.1 13.4 33.5 10.1 51.1z"/><path class="b" d="m224.4 364.3c-0.8 4.2-1.9 8.4-3.3 12.3-0.5-1.6-1.4-2.9-2.5-4-2 6.7-2.7 13.7-1.9 20.7-1.6-1.4-2.5-3.6-2.4-5.7-3.1 4.4-4.7 9.8-4.6 15.2-1.6-2.6-2-5.6-2.6-8.5-4.2 4.5-7.9 11.4-9.6 17.3-0.9-1.3-1.3-3.1-1-4.7-3.2 2.5-5.5 6.1-6.5 10.1q-0.6-2.9-1.3-5.7-2.7 6.9-5.3 13.7c0.4-1.3 0.1-2.8-0.8-3.9 0.3 0.4-2.1 7-2.6 8.7q0 0.2 0 0.3-0.1 0.4-0.2 0.8c-0.3 2.6-0.5 5.6 0.2 8 0.5 1.7 1.1 3.4 1.8 5-1.4-1-4.3-2.1-5.3-2.9-0.8 2.7 2.5 5.1 4.4 6.6q-1.5 0.2-3-0.1c0.5 3.8 0.2 8-1.2 11.6-0.8 1.8-0.9 1.9-3.2 2.7q-2.6 0.8-5.3 1.5-5.1 1.3-10.4 1.7c-3.7-0.2-7.4 0.2-11.1-0.1q-0.7-0.1-1.5-0.2-0.5 0-1-0.1c-0.1-2.3-0.1-4.6-0.6-6.1-1.7-5.3-5-10.3-9-14.1 0.8 0.8 7.1-1.5 8.1-1.7 0.2-2-1.3-3.8-2.8-4.7 4.3-3.8 10.7-2 14.3-8.2q0.1 2 0.2 4c0.1 0.4 6.3-7.1 6.8-8.1 2.2-4.5 4.5-9 6.9-13.4-2.3 3.2-6 5.4-9.9 5.7 3.6-3.4 6.3-7.7 7.7-12.5-2.6 1.6-5.5 2.6-8.5 2.9 4.9-2.2 8-6.2 10.1-11.1 2.3-5.2 1.2-11.6 3.2-16.6-0.9 2.3-2.6 4.3-4.6 5.7-0.9-5.3-1.4-9.5-3.2-14.6-4.8 1.5-8.9 4.9-11.2 9.3-1.5-3.1-3.3-6-5.4-8.8 0.3 3.1 0 6.3-1 9.3-1.4-3-3.2-6-5.1-8.7 0.6 3.6-0.5 7.6-3.1 10.2 0.2-1 0.5-2 0.2-3-0.3-0.9-1.4-1.7-2.4-1.4-0.3 0.1-0.6 0.4-0.8 0.6-3.1 2.9-5.1 6.8-5.7 10.9-1.1-1.2-1.9-2.7-2.3-4.3-3 2.4-5.6 5.3-7.7 8.6q0.3-3.8 0.4-7.5-1.7 1.7-3.5 3.4c1-6.5 2.8-12.9 5.4-18.8q-1.2 1-2.5 2c0.2-2.9 1.1-5.8 2.8-8.2q-2.7 0.8-5.3 1.5c4.5-3.9 8-8.8 10-14.3-1.5-0.1-3.1 0.6-4 1.9 2.3-6.3 6.7-11.8 12.3-15.4-1.3-0.2-2.7 0-3.9 0.8 1.9-3.2 4.1-6.1 6.6-8.8q-1.4-0.7-2.8-1.4c13.1-6.3 21.7-19.4 35-26 16.5-8.1 33.8-5.2 45.3 9.5 11 14.1 13.4 33.5 10.2 51.1z"/><path class="d" d="m196.6 463.4q-0.2 1-0.7 1.8c-1.3 2.2-4.1 3.1-6 3.6-5.6 1.3-11.6 0.1-17.1-1.3q-0.7-0.2-1.4-0.4c-7.7-1.9-14.1 4-21.6 2.7q-0.3-0.1-0.7-0.1c-4.6-0.9-9.1-2.7-13.8-2.8q-0.3 0-0.6 0.1c-5.2 0.4-15.2 6.1-18.9 0.5-1.1-1.6-1.4-3.8-1.1-5.8q0.2-1.1 0.5-2.1c0.4-1.3 1-2.4 1.6-3.6q1.4-2.8 3.2-5.4c1.8-2.8 4-5.4 6.9-6.4 3.6-1.2 5.4 1.2 7.6 3.1 0.7 0.7 1.6 1.3 2.6 1.7q0.2 0.1 0.4 0.1c1.7 0.6 3.3-0.1 4.9-1.2 2.3-1.6 4.5-3.9 6.9-4.8 3-1.1 6.2 0.2 8.8 2.2 2.3 1.8 4.3 4.2 6.3 6.3q0.1 0.1 0.2 0.1c0.3 0.3 0.5 0.6 0.8 0.9 2.4 2.4 4.1 1.1 6.1-1q1.1-1.1 2.5-1.5c2.3-0.8 5-0.2 7.3 1 3.3 1.8 6.1 4.3 9.5 5.4 1.6 0.5 4.1 1.8 5.2 3.9 0.5 0.9 0.7 1.9 0.6 3z"/><path class="e" d="m196.6 463.4q-0.2 1-0.7 1.8c-1.3 2.2-4.1 3.1-6 3.6-5.6 1.3-11.6 0.1-17.1-1.3q-0.7-0.2-1.4-0.4c-7.7-1.9-14.1 4-21.6 2.7q-0.3-0.1-0.7-0.1c-4-1-10.2-3.9-14.4-2.7-5.2 0.4-15.2 6.1-18.9 0.5-1.1-1.6-1.4-3.8-1.1-5.8q0.2-1.1 0.5-2.1c0.6 2.1 2.1 4 3.9 4.8 2.1 0.9 7.7-0.1 4.9-3.8-0.7-0.9-1.7-1.3-2.7-1.7 1.6-1.9 4.4-1.3 6.6-2.3 3.8-1.7 5.1-5.2 6.5-9.3q0.1-0.1 0.1-0.2c0.8 0.8 1.7 1.5 2.6 1.9q0.2 0.1 0.4 0.1c1.7 0.6 3.3-0.1 4.9-1.2 0.2 2.1 0.4 4.2 0.5 4.8 0.5 3.5 1.8 5.9 4 8.2 1.9 1.8 4.1 2.7 6.6 2.2 2.4-0.4 4.3-2.6 1-4-1-0.4-2.2-0.7-2.7-1.9 2.8-1.2 5.9 0.3 8.8-0.7 2.2-0.8 2.8-2.4 4-4.7 0.3 0.2 0.5 0.5 0.8 0.8 2.4 2.4 4 1.1 6.1-1q1.1-1.1 2.4-1.5c0.7 3.1 2.2 5.9 4.3 7.7 1.3 1.2 2.8 1.8 4.4 1.9 0.8 0 1.6-0.1 2.3-0.3 0.7-0.1 1.7-0.6 2.4-0.4 0.2 0.1 0.4 0.3 0.6 0.5q0.5 0.6 0.9 1.3c1.4 1.7 4.2 3 6 1.5 0.1-0.1 0.8-1.1 1.2-1.9 0.5 0.9 0.7 1.9 0.5 3z"/><path class="a" d="m246.8 364.2c0.8 4.2 1.9 8.4 3.3 12.3 0.5-1.6 1.4-2.9 2.5-4 2 6.7 2.7 13.7 1.9 20.7 1.6-1.5 2.5-3.6 2.4-5.7 3.1 4.4 4.7 9.8 4.6 15.2 1.6-2.6 2-5.6 2.6-8.5 4.1 4.5 7.9 11.4 9.6 17.3 0.9-1.3 1.3-3.1 1-4.7 3.2 2.5 5.5 6.1 6.5 10q0.6-2.8 1.3-5.6 2.7 6.9 5.3 13.7c-0.4-1.3-0.1-2.8 0.8-3.9 1.2 3 2.1 5.8 2.6 8.7q0 0.1 0 0.2 0.1 0.5 0.2 0.9c0.6 4.5 0 9-2.7 13.7q0.2-0.4 0.7-0.7c1.4-1 4.3-2.1 5.3-2.9 0.8 2.7-2.5 5.1-4.4 6.6q1.5 0.1 3-0.1c-0.5 3.8-0.2 8 1.2 11.6 0.8 1.8 0.9 1.8 3.2 2.6q2.6 0.9 5.3 1.6 5.1 1.3 10.4 1.7 5.6 0.4 11.1-0.1 0.7-0.1 1.5-0.2 0.5-0.1 1-0.1 5.5-0.8 10.8-2.5c2.1-0.7 4.2-1.5 5.6-3.1 1.2-1.6 1.7-3.6 2.2-5.5 0.8-3.7 3-8.6 2.3-12.3 0.8 0.4 1.8 0.7 2.7 0.6-0.9 0.1 0.1-23.8 0-26.1 0.3 1.3 1 2.5 2 3.4q-0.5-6-1-12 1.7 0.7 3.4 1.5-1.5-7-2.2-14.1-0.3-3.7-0.4-7.5 1.7 1.7 3.5 3.4c-0.9-6.5-2.8-12.8-5.4-18.8q1.3 1 2.5 2c-0.1-2.9-1.1-5.7-2.7-8.2q2.6 0.8 5.2 1.5c-4.5-3.8-7.9-8.8-10-14.3 1.5-0.1 3.1 0.7 4.1 1.9-2.4-6.2-6.8-11.7-12.4-15.4 1.3-0.2 2.7 0.1 3.9 0.8-1.9-3.1-4.1-6.1-6.6-8.8q1.4-0.7 2.8-1.4c-13.1-6.2-21.6-19.4-35-26-16.5-8-33.8-5.2-45.3 9.5-11 14.1-13.4 33.5-10.1 51.1z"/><path class="b" d="m246.8 364.2c0.8 4.2 1.9 8.4 3.3 12.3 0.5-1.6 1.4-2.9 2.5-4 2 6.7 2.7 13.7 1.9 20.7 1.6-1.5 2.5-3.6 2.4-5.7 3.1 4.4 4.7 9.8 4.6 15.2 1.6-2.6 2-5.6 2.6-8.5 4.1 4.5 7.9 11.4 9.6 17.3 0.9-1.3 1.3-3.1 1-4.7 3.2 2.5 5.5 6.1 6.5 10q0.6-2.8 1.3-5.6 2.7 6.9 5.3 13.7c-0.4-1.3-0.1-2.8 0.8-3.9-0.3 0.4 2.1 7 2.6 8.7q0 0.1 0 0.2 0.1 0.5 0.2 0.9c0.3 2.6 0.5 5.6-0.2 8-0.5 1.7-1.1 3.4-1.8 5 1.4-1 4.3-2.1 5.3-2.9 0.8 2.7-2.5 5.1-4.4 6.6q1.5 0.1 3-0.1c-0.5 3.8-0.2 8 1.2 11.6 0.8 1.8 0.9 1.8 3.2 2.6q2.6 0.9 5.3 1.6 5.1 1.3 10.4 1.7c3.7-0.2 7.4 0.2 11.1-0.1q0.7-0.1 1.5-0.2 0.5-0.1 1-0.1c0.1-2.3 0.1-4.7 0.6-6.1 1.7-5.3 5-10.3 9-14.1-0.8 0.8-7.1-1.5-8.1-1.7-0.2-2 1.3-3.8 2.8-4.7-4.3-3.8-10.7-2-14.3-8.2q-0.1 2-0.2 4c-0.1 0.4-6.3-7.1-6.8-8.1-2.2-4.5-4.5-9-6.9-13.4 2.3 3.2 6 5.3 9.9 5.7-3.6-3.4-6.3-7.7-7.7-12.5 2.6 1.6 5.5 2.6 8.5 2.9-4.9-2.2-8-6.2-10.1-11.1-2.3-5.2-1.2-11.6-3.2-16.6 0.9 2.3 2.6 4.3 4.6 5.7 0.9-5.3 1.4-9.5 3.2-14.6 4.8 1.5 8.9 4.9 11.2 9.3 1.5-3.1 3.3-6 5.4-8.8-0.3 3.1 0 6.3 1 9.3 1.4-3 3.2-6 5.1-8.7-0.6 3.6 0.5 7.6 3.1 10.2-0.2-1-0.5-2-0.2-3 0.3-0.9 1.4-1.7 2.4-1.4 0.3 0.1 0.6 0.4 0.8 0.6 3.1 2.9 5.1 6.8 5.7 10.9 1.1-1.2 1.9-2.7 2.3-4.3 3 2.4 5.6 5.3 7.7 8.6q-0.3-3.8-0.4-7.5 1.7 1.7 3.5 3.4c-1-6.5-2.8-12.9-5.4-18.8q1.2 1 2.5 2c-0.2-2.9-1.1-5.8-2.8-8.2q2.7 0.7 5.3 1.5c-4.5-3.9-8-8.9-10-14.4 1.5 0 3.1 0.7 4 2-2.3-6.3-6.7-11.8-12.3-15.4 1.3-0.3 2.7 0 3.9 0.8-1.9-3.2-4.1-6.1-6.6-8.8q1.4-0.7 2.8-1.4c-13.1-6.3-21.7-19.4-35-26-16.5-8.1-33.8-5.2-45.3 9.5-11 14-13.4 33.5-10.2 51.1z"/><path class="d" d="m274.6 463.3q0.2 1 0.7 1.8c1.3 2.2 4.1 3.1 6 3.6 5.6 1.3 11.6 0.1 17.1-1.3q0.7-0.2 1.4-0.4c7.7-1.9 14.1 4 21.6 2.7q0.3-0.1 0.7-0.2c4.6-0.8 9.1-2.6 13.8-2.7q0.3 0 0.6 0.1c5.2 0.4 15.2 6.1 18.9 0.5 1.1-1.6 1.4-3.8 1.1-5.8q-0.2-1.1-0.5-2.1c-0.4-1.3-1-2.5-1.6-3.6q-1.4-2.8-3.2-5.4c-1.8-2.8-4-5.4-6.9-6.4-3.6-1.2-5.4 1.2-7.6 3.1-0.7 0.7-1.6 1.3-2.6 1.7q-0.2 0.1-0.4 0.1c-1.7 0.5-3.3-0.1-4.9-1.2-2.3-1.6-4.5-3.9-6.9-4.8-3-1.1-6.2 0.2-8.8 2.2-2.3 1.8-4.3 4.1-6.3 6.3q-0.1 0.1-0.2 0.1c-0.3 0.3-0.5 0.6-0.8 0.9-2.4 2.4-4.1 1.1-6.1-1q-1.1-1.1-2.5-1.5c-2.3-0.8-5-0.2-7.3 1-3.3 1.8-6.1 4.3-9.5 5.4-1.6 0.5-4.1 1.8-5.2 3.9-0.5 0.9-0.7 1.9-0.6 3z"/><path class="e" d="m274.6 463.3q0.2 1 0.7 1.8c1.3 2.2 4.1 3.1 6 3.6 5.6 1.3 11.6 0.1 17.1-1.3q0.7-0.2 1.4-0.4c7.7-1.9 14.1 4 21.6 2.7q0.3-0.1 0.7-0.2c4-0.9 10.2-3.8 14.4-2.6 5.2 0.4 15.1 6.1 18.9 0.5 1.1-1.6 1.4-3.8 1.1-5.8q-0.2-1.1-0.5-2.1c-0.7 2.1-2.1 4-3.9 4.8-2.1 0.9-7.7-0.1-4.9-3.8 0.7-0.9 1.7-1.3 2.7-1.7-1.6-1.9-4.4-1.3-6.6-2.3-3.8-1.7-5.1-5.2-6.5-9.3q-0.1-0.1-0.1-0.2c-0.8 0.8-1.7 1.5-2.6 1.9q-0.2 0.1-0.4 0.1c-1.7 0.5-3.3-0.1-4.9-1.2-0.2 2.1-0.4 4.2-0.5 4.8-0.5 3.5-1.8 5.9-4 8.2-1.9 1.8-4.1 2.6-6.6 2.2-2.4-0.4-4.3-2.6-1-4 1-0.4 2.2-0.7 2.7-1.9-2.8-1.2-5.9 0.3-8.8-0.7-2.2-0.8-2.8-2.4-4-4.7-0.3 0.2-0.5 0.5-0.8 0.8-2.4 2.4-4 1.1-6.1-1q-1.1-1.1-2.4-1.5c-0.7 3.1-2.2 5.9-4.3 7.7-1.3 1.2-2.8 1.8-4.4 1.9-0.8 0-1.6-0.1-2.3-0.3-0.7-0.1-1.7-0.6-2.4-0.4-0.2 0.1-0.4 0.3-0.6 0.5q-0.5 0.6-0.9 1.3c-1.4 1.7-4.2 3-6 1.5-0.1-0.1-0.8-1.1-1.2-1.9-0.5 0.9-0.7 1.9-0.5 3z"/><path class="a" d="m327.5 319.5q0.1 1.3 0 2.7c-0.8-1.5-2.2-2.7-3.7-3.4 1.3 4.4 0.2 9-2.7 12.5 0.3-2.2-0.3-4.5-1.5-6.3-0.4 5.5-2.8 10.9-6.7 14.8 0.5-1.8 0.1-3.9-1-5.4-1.6 4.4-4 8.5-6.9 12.1-0.1-0.7-0.4-1.5-1-2q-6.3 5.9-12.6 11.8 0-1.9 0.1-3.8c-1.4 4.4-3.8 7.5-6.2 11.3q-0.3-1.9-1.2-3.6c-1.8 4-4.7 7.5-8.2 9.9 1.6-1.3 2.7-5.1 0.7-6.5-2.2 1.7-4.2 3.6-6.5 5.2q-1.5 1-3 2.2-0.2 0.1-0.5 0.3c-2.1 1.7-4.4 3.2-6.6 4.8-2.5 2.1-5.2 4-8 5.7 0.4-0.9 0.5-1.9 0.4-2.9l-11.2 8.2q-0.8-2.6-2.1-5c-0.7 2.4-2.2 4.4-4.3 5.6 0.1-1.5-0.4-3-1.2-4.2q-1.8 2.6-4 4.8c-1-3.3-3.4-6.1-6.5-7.6q-0.5 1.2-1.1 2.4-3.1-2.7-6.2-5.4c-0.3 1.1-0.3 2.4 0 3.5-4.2-1.8-6.6-4.5-9.5-7.7-1.5-1.6-6.4-3.1-6.9-5.2q0.4 2 0.9 3.9c-3.4-1.7-6.2-4.3-8.3-7.5q-0.1 2.6-0.6 5.2c-1.6-4.7-4-9.2-7.1-13.1-0.1 2 0.4 3.9 1.4 5.6-6.3-4.8-11.7-10.8-15.7-17.6 1.1 1.6 1.3 3.7 0.5 5.5-1.6-5.2-4.8-9.9-9.1-13.2 0.4 1.7 0.2 3.4-0.3 5-3.2-3.2-5.7-7.2-7.2-11.6q-0.5 1.7-1 3.3c-2.2-2.5-3.5-5.7-3.6-9.1-1 1.8-1.5 4-1.4 6-1-4-2.6-7.8-1.3-11.9-1.1 0.4-2 1.1-2.8 2.1q-0.5 0.5-0.9 1.2c-0.2-5.8 1.6-11.4 3.4-16.9q0.7-2.2 1.4-4.4 0.6-2.2 1.2-4.3v-0.1c1.1-4.3 2.1-8.7 3.3-13 0.8-2.9 0.3-8.8 1.3-11.1-0.6 1.3-2 2.2-3.4 2.2 1.7-3.9 2.8-8 3.4-12.1-1.7 1.2-2.9 2.9-3.7 4.9 0.3-6.4 2.4-12.1 5.5-17.7 2.8-5.2 3.6-10 4.3-16.2q0.1-1 0.2-2.1c0.3-4.3 0-8.7 0.2-13q-2.2 2-4.4 3.9c1.8-8.2 4.1-16.2 5.9-24.4-1.4 1.7-3.4 2.9-5.6 3.4q2-3.7 3.5-7.7-1.8 1.1-3.8 1.9c1.9-3.6 3.7-7.4 5.3-11.2 0.8-2 1.4-4 1.5-6.2 0.1-0.9-0.5-3.3 0.2-4-1.4 1.2-5.7 5.8-5.7 7.7-0.2-6.8 1.6-14 5-19.9-1.6 1.1-3.7 1.5-5.5 0.7 2.7-6.1 6.4-11.8 10.7-16.9-2.9 0-5 2.6-6.6 5.1 1.1-5 3.9-9.1 6.8-13.2 1.1-1.6 2.2-3.3 3.2-5q0.7-1.2 1.3-2.4 0.7-1.4 1.3-2.9 0.1-0.1 0.1-0.2 0.3-0.7 0.7-1.4 0 0 0-0.1 1.5-3 3.9-5.4 0.3-0.4 0.6-0.7 0.1-0.2 0.2-0.3 0.5-0.4 0.9-0.8c0.4-0.3 0.7-0.6 1.1-0.9 0.1-0.1 0.2-0.1 0.3-0.2q0.8-0.7 1.8-1.3c0.5-0.3 1-0.6 1.5-0.9q0.2-0.2 0.4-0.3 0.7-0.4 1.5-0.8 0.2-0.1 0.4-0.2 0.8-0.4 1.7-0.8 0.2-0.1 0.4-0.1 0.6-0.3 1.2-0.5 0.6-0.3 1.2-0.5 0.4-0.1 0.9-0.3 1.5-0.5 3.1-1 0.4-0.1 0.8-0.2 0.9-0.2 2-0.5 0 0 0.1 0 1-0.3 2.1-0.5 0.6-0.1 1.4-0.2c1.2-0.3 2.5-0.5 3.9-0.7q0.4-0.1 0.9-0.2 1.2-0.1 2.4-0.3c3.7-0.4 7.6-0.8 11.5-1q0.9 0 1.8-0.1 1.2 0 2.4-0.1 4.1-0.1 8.1-0.2c0.8 0 1.6 0 2.4 0h2.5c0.2 0 0.3 0 0.5 0q1.4 0 2.8 0 1.3 0 2.5 0c0.6 0 1.2 0 1.8 0q1.4 0 2.8 0.1 1.5 0 3 0 0.9 0.1 1.9 0.1 0.9 0 1.8 0.1 0.8 0 1.6 0 0.2 0.1 0.4 0.1 0.8 0 1.5 0.1 2.1 0.1 4.1 0.3 0.6 0.1 1.1 0.2 0.9 0.1 1.8 0.2 1.2 0.1 2.3 0.3 0.8 0.2 1.6 0.3 0.4 0.1 0.8 0.2 0.2 0 0.4 0.1c4.5 0.9 8.4 2.1 11.8 3.7q0.9 0.5 1.7 0.9 0.7 0.4 1.4 0.8 0.8 0.4 1.5 0.9c1.5 0.9 2.9 1.9 4.3 3q0.6 0.5 1.2 1 0.1 0.1 0.2 0.3 0.6 0.4 1.1 0.9 0.1 0.1 0.1 0.2 0.1 0 0.2 0.1 0.4 0.4 0.8 0.8 0.8 0.7 1.5 1.5 0.4 0.6 0.7 1.1 0.9 1.5 1.7 3.2 1.3 3 3 5.9c1.6 2.8 3.3 5.5 5 8.2q1.4 2.1 2.6 4.2c-0.3-0.5-1.4-1-2.5-1.4q-0.1-0.1-0.1-0.1c-0.7-0.2-1.3-0.4-1.6-0.6 1.5 3 1.7 6.3 2.5 9.5q0.1 0.6 0.3 1.2c1.6 5.3 4 10.4 5.9 15.7-2.8-0.6-5.4-2-7.4-4.1 1.8 4.4 4.7 8.3 8.4 11.3-2 0.4-4.5 1.9-6.4 1.2 0.5 1.2 6.7 17.5 6.8 17.5-1.4 0.6-3 0.5-4.3-0.4 1.9 4.5 3.5 7.7 3.4 12.7-1.3-1.9-3.1-3.7-5.1-5 3.2 4.5 5.5 9.7 6.7 15.1-1.4-0.8-3-1.3-4.6-1.5 0.9 6.3 4.1 12.2 8.9 16.4-0.5-0.4-5.8-0.9-6.8-1.2 0 3.7-0.4 6.2 1.2 9.7 1.7 3.7 4 7.4 4.2 11.5-0.8-1.1-2-2-3.3-2.3 0.6 0.1 1.1 10.4 1.4 11.5 1.1 5 3.2 9.6 5.9 13.8-1.9 0.3-3.9-0.5-4.9-2.1 2 5 4.6 9.6 7.5 14.1-1.8-0.7-4.1-1.1-5.6-2.3 0.4 2.7 0.7 5.8 1.3 8.8 0.3 1.7 0.7 3.4 1.3 4.9 1.4 4.2 5.5 8.4 8.1 12.1-1.4-1.3-3-2.2-4.8-2.9 0.9 1.7 0.8 3.6 1.4 5.4q0.1 0.2 0.1 0.3c0.4 1.8 0.7 3.6 0.8 5.4z"/><path class="b" d="m327.5 319.5q0.1 1.3 0 2.7c-0.8-1.5-2.2-2.7-3.7-3.4 1.3 4.4 0.2 9-2.7 12.5 0.3-2.2-0.3-4.5-1.5-6.3-0.4 5.5-2.8 10.9-6.7 14.8 0.5-1.8 0.1-3.9-1-5.4-1.6 4.4-4 8.5-6.9 12.1-0.1-0.7-0.4-1.5-1-2q-6.3 5.9-12.6 11.8 0-1.9 0.1-3.8c-1.4 4.4-3.8 7.5-6.2 11.3q-0.3-1.9-1.2-3.6c-1.8 4-4.7 7.5-8.2 9.9 1.6-1.3 2.7-5.1 0.7-6.5-2.2 1.7-4.2 3.6-6.5 5.2q-1.5 1-3 2.2-0.2 0.1-0.5 0.3c-2.1 1.7-4.4 3.2-6.6 4.8-2.5 2.1-5.2 4-8 5.7 0.4-0.9 0.5-1.9 0.4-2.9l-11.1 8.2c0 0-0.1 0-0.1 0q-0.8-2.6-2.1-5c-0.7 2.4-2.3 4.4-4.3 5.6 0.1-1.5-0.4-3-1.3-4.2q-1.7 2.6-3.9 4.8c-1-3.3-3.4-6.1-6.6-7.6q-0.5 1.2-1 2.4-3.1-2.7-6.2-5.4c-0.3 1.1-0.3 2.4 0 3.5-4.2-1.8-6.6-4.5-9.5-7.7-1.5-1.6-6.4-3.1-6.9-5.2q0.4 2 0.9 3.9c-3.4-1.7-6.3-4.3-8.3-7.5q-0.1 2.6-0.7 5.2c-1.5-4.7-3.9-9.2-7-13.1-0.1 2 0.4 3.9 1.3 5.6-6.2-4.8-11.6-10.8-15.6-17.6 1.1 1.6 1.3 3.7 0.5 5.5-1.6-5.2-4.9-9.9-9.2-13.2 0.4 1.7 0.3 3.4-0.2 5-3.3-3.2-5.7-7.2-7.2-11.6q-0.5 1.7-1.1 3.3c-2.2-2.5-3.4-5.7-3.5-9.1-1.1 1.8-1.5 4-1.4 6-1-4-2.6-7.8-1.3-11.9-1.1 0.4-2.1 1.1-2.9 2.1q-0.5 0.5-0.8 1.2c-0.3-5.8 1.6-11.4 3.4-16.9q0.7-2.2 1.3-4.4 0.7-2.2 1.2-4.3v-0.1c0.7-2.5 1.3-5.1 2-7.7 1.1 4.4 2.2 8.7 2.6 10 1.9 7.5 6 14.8 10.5 20.9q0.7-3.8 1.3-7.7c4.5 5 7.7 10.8 12.1 15.9q0.2-2.4 0.4-4.8c3.4 3.5 7.9 9.2 12.1 11.6 0.3-3.3 1.5-6.4 3.6-8.9-2.6 3 11.2 20.7 13.8 23.1q1.9-3.6 3.9-7.1c0.7 5.8 3.5 11.4 7.8 15.4 1.8-3.1 2.8-6.7 3-10.3q3.2 6.7 6.3 13.5c5.5-4.6 11.5-8.4 18-11.5q-1.1 5.8-2.1 11.6c6.2-3 11.3-8 14.5-14.1q0.9 4.7 1.7 9.4c2.7-3.6 4.7-7.8 5.6-12.2 2.5 2.3 5.4 5.9 6.8 9 2.5-5 4.3-10.4 5.2-15.9 1.5 2.2 2.6 4.7 3.3 7.3 2.3-4.1 4.2-8.3 5.8-12.7 2 1.6 3.3 4.2 3.8 6.7 10.5-8.8 13.3-27.2 17.2-39.6q2.9 4 5.8 8.1 3.6-5.2 7.2-10.4 0.3 1.7 0.9 3.2c1.4 4.2 5.5 8.4 8.1 12.1-1.4-1.3-3-2.2-4.8-2.9 0.9 1.7 0.8 3.6 1.4 5.4q0.1 0.2 0.1 0.3c0.4 1.8 0.7 3.6 0.8 5.4z"/><path class="b" d="m268.7 187.5c-4 9.1-10.4 15.3-19.4 20.2 1.8-2.7 2.1-6.3 0.8-9.2q-3.4 4.1-6.9 8.2c-2.4-2.3-4.2-5.4-4.8-8.7-3 2.7-5.1 6.3-6 10.2q-5.3-5.6-10.5-11.2c0.6 0.6-4.2 5.8-6.1 4.6-1.7-1.1-1.4-8.5-1.9-10.4-0.3 1.8-1.2 3.4-2.5 4.7 0.7-4.3 0.3-8.8-1.2-12.9-3.6 2.8-4.9 5.7-3.7 10.1-4.6-3.5-8.1-8.3-10.1-13.7-1.4 2.4-2.6 5-3.4 7.6-5.1-4.3-9.3-9.9-12.1-16q-0.7 1.3-1.5 2.6c-4.4-4.9-6.8-11.4-6.7-18q-2.3 1.2-4.5 2.3l2.1-14c-1.5-1.1-3.5-1.3-5.1-0.6q1.4-2.8 2-5.8c1.7-2.4 3.3-4.8 4.6-7.4q0.7-1.4 1.3-2.9 0-0.1 0.1-0.2 0.3-0.7 0.6-1.4 0 0 0-0.1 1.6-3 3.9-5.4 0.3-0.4 0.7-0.7 0.1-0.1 0.2-0.3 0.4-0.4 0.8-0.7c0.4-0.4 0.8-0.7 1.2-1 0.1-0.1 0.1-0.1 0.2-0.2q0.9-0.7 1.8-1.3c0.5-0.3 1-0.6 1.5-0.9q0.2-0.2 0.4-0.3 0.8-0.4 1.6-0.8 0.2-0.1 0.4-0.2 0.8-0.4 1.7-0.8 0.2-0.1 0.3-0.1 0.6-0.3 1.3-0.5 0.5-0.3 1.1-0.5 0.5-0.1 0.9-0.3 1.6-0.5 3.2-1 0.3-0.1 0.7-0.2 1-0.2 2-0.5 0.1 0 0.2 0 1-0.2 2-0.5 0.7-0.1 1.4-0.2c1.3-0.3 2.6-0.5 3.9-0.7q0.5-0.1 0.9-0.1 1.2-0.2 2.4-0.4c3.7-0.4 7.6-0.8 11.5-1q0.9 0 1.9-0.1 1.2 0 2.4-0.1 4-0.1 8-0.1c0.8-0.1 1.7-0.1 2.5-0.1h2.5c0.2 0 0.2 0 0.4 0q1.4 0 2.9 0 1.2 0 2.5 0c0.5 0 1.2 0 1.7 0q1.5 0 2.9 0.1 1.5 0 2.9 0.1 1 0 1.9 0 0.9 0 1.9 0.1 0.7 0 1.5 0.1 0.2 0 0.4 0 0.8 0 1.6 0.1 2.1 0.1 4 0.4 0.6 0 1.1 0.1 1 0.1 1.9 0.2 1.1 0.1 2.3 0.3 0.7 0.2 1.5 0.3 0.5 0.1 0.9 0.2 0.2 0 0.3 0.1c4.6 0.9 8.4 2.2 11.8 3.7q0.9 0.5 1.8 0.9 0.7 0.4 1.4 0.8 0.7 0.4 1.5 0.9c1.5 0.9 2.9 1.9 4.2 3.1q0.6 0.4 1.2 0.9 0.1 0.1 0.3 0.3 0.5 0.4 1 0.9 0.1 0.1 0.2 0.2 0 0 0.1 0.1 0.4 0.4 0.8 0.8 0.8 0.7 1.6 1.5 0.3 0.6 0.7 1.1 0.9 1.5 1.6 3.2 1.4 3 3 5.9c2.4 4.2 5.2 8.3 7.7 12.4-0.7-1-3-1.7-4.2-2 2.6 6.8 1.5 11.1 1.9 18.1q-3.2-0.6-6.4-1.2c-1.5 4.1-3.5 8.2-6.2 11.7-1 1.2-7.4 6.8-6.7 8.4-0.8-1.7-2.2-3.1-3.8-4 1 1.9-0.5 4.2-2 5.8-1.5 1.5-3.3 3.4-2.9 5.5-1-2.5-1.1-5.4-0.1-7.9-2.2 0.7-3.7 2.8-4.2 5-0.5 2.2-0.2 4.6 0.3 6.8-1.3-2.2-3-4.2-5.1-5.8q-0.3 0.9-0.7 1.8z"/><path class="b" d="m306.3 143.9v0.7q0-0.4-0.2-0.8c-0.5-1.5-2.1-3.7-2.5-5-0.6 4.7 0.4 11.2-1.2 15.5 0 0-4.4-4.7-4.7-5.1-3.5 5.1-5.2 10.4-10 14.5-0.6-1.8-1.9-3.5-3.8-4.2-1 3.7-2.4 7.5-5.5 10-0.2-1.4-2-3.3-2.1-4.3 0.1 2.5-1 5.1-3 6.8q-1.2-1.8-2.5-3.5c-1.4 1.9-2 4.3-1.8 6.7-1.9-1-3.5-2.4-4.8-4.1-1.4 5.6-4.4 10.9-8.5 15 2.1-3 3.2-9.3 0-11.7-0.9 0.6-5.3 6-3.6 7.3-1.9-1.5-3.3-3.8-3.7-6.2-1.9 4.9-6.7 8.6-12 9.2 1.5-1.8 2.4-4.2 2.3-6.6-1.4 2-3.3 3.6-5.6 4.5 0.9-1.4 1.1-3.1 0.4-4.6-3.4 1.5-5.7 5.3-5.5 9-3.8-1.9-6.7-5.5-8-9.5q-2.3 2.5-4.5 5-1.4-5.7-2.8-11.5c-2.8 0.9-4.7 3.8-4.3 6.6-4.3-2.1-7.4-6.3-8.1-10.9-0.4 2-1.5 3.9-3.1 5.1-0.2-4.6-3.8-8.8-8.3-9.7q0.1 2.4 0.2 4.9c-2.6-2.4-4.7-5.3-6.3-8.4q-0.5 2.2-1 4.3c-1.2-1.5-11.6-20.5-9.6-21-1.6 0.3-3.2 0.1-4.6-0.8 1.6-2.7 2.9-5.4 2.8-8.6q0.8-1.2 1.4-2.4 0.7-1.4 1.3-2.9 0-0.1 0.1-0.2 0.3-0.7 0.6-1.4 0 0 0-0.1 1.6-3 3.9-5.4 0.3-0.4 0.7-0.7 0.1-0.1 0.2-0.3 0.4-0.3 0.8-0.7c0.4-0.4 0.8-0.7 1.2-1 0.1-0.1 0.1-0.1 0.2-0.2q0.9-0.7 1.8-1.3c0.5-0.3 1-0.6 1.5-0.9q0.2-0.2 0.4-0.3 0.8-0.4 1.6-0.8 0.2-0.1 0.4-0.2 0.8-0.4 1.7-0.8 0.2-0.1 0.3-0.1 0.6-0.3 1.3-0.5 0.5-0.3 1.1-0.5 0.5-0.1 0.9-0.3 1.6-0.5 3.2-1 0.3-0.1 0.7-0.1 1-0.3 2-0.6 0.1 0 0.2 0 1-0.2 2-0.5 0.7-0.1 1.4-0.2c1.3-0.3 2.6-0.5 3.9-0.7q0.5-0.1 0.9-0.1 1.2-0.2 2.4-0.4c3.7-0.4 7.6-0.8 11.5-1q0.9 0 1.9-0.1 1.2 0 2.4-0.1 4-0.1 8-0.1c0.8-0.1 1.7-0.1 2.5-0.1h2.5c0.2 0 0.2 0 0.4 0q1.5 0 2.9 0 1.2 0 2.5 0c0.5 0 1.2 0 1.7 0q1.5 0 2.9 0.1 1.5 0 2.9 0.1 1 0 1.9 0 0.9 0 1.9 0.1 0.7 0 1.5 0.1 0.3 0 0.4 0 0.8 0 1.6 0.1 2.1 0.1 4.1 0.4 0.5 0 1.1 0.1 0.9 0.1 1.8 0.2 1.1 0.1 2.3 0.3 0.8 0.2 1.5 0.3 0.5 0.1 0.9 0.2 0.2 0 0.3 0.1c4.6 0.9 8.4 2.2 11.8 3.7q0.9 0.5 1.8 0.9 0.7 0.4 1.4 0.8 0.7 0.4 1.5 0.9c1.5 0.9 2.9 1.9 4.2 3.1q0.6 0.4 1.2 0.9 0.1 0.1 0.3 0.3 0.5 0.4 1 0.9 0.1 0.1 0.2 0.2 0.1 0 0.1 0.1 0.4 0.4 0.8 0.8 0.8 0.7 1.6 1.5 0.3 0.6 0.7 1.1 0.9 1.5 1.6 3.2 1.4 3 3 5.9c1.6 2.8 3.4 5.5 5.1 8.3q0 1.4 0.1 2.7z"/><path class="f" d="m184.7 72.8c0.1 2-0.1 3.9-0.5 6q0 0 0 0.1 0 0.2-0.1 0.5 0 0.2-0.1 0.4 0 0 0 0.1c-1 3.7-3.4 7.3-6.5 9.2-2.1 1.3-4.5 1.8-7.1 1.2q-0.7-0.2-1.3-0.5c-5.9-2.7-8.1-8.6-7.9-15.1 0-5.2 1.5-10.1 2.5-15.2 0.9-4.6 5.8-3.7 9-2.5 4.3 1.7 8.2 4.3 10.2 8.7 1.2 2.4 1.7 4.8 1.8 7.1z"/><path class="g" d="m184 79.8c0 0 0 0.1 0 0.1-1 3.7-3.4 7.3-6.5 9.2q-1.8 0.4-4 0c-5.3-1-6.6-7.6-3.6-11.5 1.2-1.5 2.8-2.9 3.4-4.8 0.8-2.5-0.2-7.8-3.2-8.4-0.5-0.1-2.8 0.2-3 0.7 1-2.6 3.5-3.8 6-2.9 2.6 1 5.1 3.3 6.9 5.6 2.6 3.3 4.2 7.5 4 12z"/><path class="f" d="m285.7 72.3c-0.2 1.9-0.1 3.9 0.2 6q-0.1 0 0 0 0 0.3 0 0.5 0 0.2 0.1 0.4 0 0.1 0 0.2c0.8 3.7 3 7.4 6.1 9.5 2 1.3 4.4 2 7 1.5q0.7-0.2 1.4-0.4c6-2.5 8.4-8.3 8.6-14.7 0.1-5.3-1.1-10.2-1.8-15.3-0.7-4.7-5.7-4-8.9-3-4.3 1.5-8.4 3.9-10.6 8.2-1.3 2.4-1.9 4.7-2.1 7.1z"/><path class="g" d="m286 79.2c0 0 0 0.1 0 0.2 0.8 3.7 3 7.4 6.1 9.5q1.8 0.5 3.9 0.2c5.4-0.8 7-7.3 4.2-11.4-1.2-1.5-2.6-3-3.2-4.9-0.7-2.5 0.5-7.8 3.6-8.3 0.5 0 2.9 0.3 3 0.9-0.8-2.6-3.3-3.9-5.8-3.2-2.7 0.9-5.3 3.1-7.2 5.3-2.8 3.2-4.5 7.3-4.6 11.7z"/><path class="a" d="m307.9 124.1q-2.2-1.9-4.4-3.9c0.2 0.9 0.3 1.9 0.5 2.9 0.4 2.9 0.7 6 2.3 8.2-1.6 0.2-3.4-1.1-3.5-2.8 0.3 4.7-2 9.3-3.9 13.5q-0.7-2.2-1.4-4.4-3 4.2-6.5 7.8c0.5-1.1 0.5-2.5 0-3.7q-2.4 3.1-4.8 6.2c0-1-0.3-2.1-0.8-3q-2.9 4.6-5.8 9.2c0.5-1.3 0.5-2.9-0.1-4.3q-2.9 3.8-5.8 7.5-0.7-1.5-1.3-3c-2.2 3.2-5.1 5.9-8.5 7.8 0.9-1.4 1.2-3.2 0.9-4.8-4.6 5-10 9.3-15.9 12.6 1.7-2 2.3-5 1.4-7.5-4.2 3.3-8.8 6-13.7 8.1 0.5-1 0.6-2.3 0.1-3.3-1.4 0.7-2.5 2-2.9 3.6-3.1-1-6-2.7-8.3-4.9-0.6 1-0.8 2.3-0.7 3.5-1.7-1.6-3.1-3.7-4-5.9-1.3 0.9-2.1 2.6-1.8 4.2-3-2.9-5.5-6.2-7.3-9.9-0.6 0.7-0.9 1.6-0.8 2.5-1.3-0.8-12-6.9-11.5-8.4-0.4 1.3-0.5 2.7-0.1 4-3.7-1.6-6.8-4.8-8.4-8.5-0.6 1.3-1 2.8-1.2 4.3-2.2-2.1-11.4-6.9-9.9-11.1-0.9 2.5-1.3 5.1-1.3 7.7-3.2-4.1-4.9-9.4-4.6-14.6-1.3 1.8-2.2 3.9-2.5 6q-0.1 0.5-0.1 0.9-0.1-0.1-0.2-0.3c-1.4-2.7-2.2-5.7-2.3-8.8 0-2.1 0.2-4.3 0.7-6.3q0.1-0.4 0.3-0.8l0.2-0.9q-3.1 2-6.2 3.9 1.2-1.9 2-3.9 0.6-1.6 1.1-3.3c0.7-2.5 1.1-5.1 1.2-7.7-2.2 2.5-4.9 4.6-7.8 6.2 1.7-2.8 2.9-5.8 3.7-9q-2.2 1.3-4.4 2.5c1.5-2.4 3.4-4.8 4.9-7.2 1.1-1.6 1.5-5.9 2.8-7q-3.4 2.7-7.3 4.3c3.2-4.7 4.7-10 7.3-15-1.7 1.1-3.2 2.5-4.5 4.1 1.4-1.7 1.7-6.2 2.4-9.6 0.2-1.1 0.4-2 0.7-2.7 1.3-3 2.8-6.2 4.2-9.1q-3.2 2.5-6.5 5.1c1-2.9 2.6-5.4 4.2-7.9 1-1.5 2.1-4.4 3.3-5.6-2.1 2-4.8 3.5-7.6 4.1 3.7-4.6 8.5-10.2 10.7-15.8-1.9 0.5-3.7 1.3-5.3 2.5 3.8-2.8 4.7-9.4 9.9-11-2.3-1.3-4.9-2.1-7.5-2.2 2.7-2 6.1-2.9 9.4-2.6q1.4 0.1 2.8 0.5 0 0 0 0 0 0 0 0c-1.1-2.8-3.5-5.1-6.3-6.1 3-1.9 7.1-2.1 10.3-0.6-0.2-3.4-2.5-6.5-5.6-7.9 4.6-0.6 9.5 0.6 13.2 3.3q-2.5-5.2-5.1-10.4 3.3 3.1 6.6 6.2c-2.3-3.8-2.8-8.7-1.3-12.9-0.3 3.9 2.1 7.9 5.6 9.5q-0.8-5.6-1.9-11.1c3.5 1.9 6.6 4.4 9.2 7.5-0.1-3.2-1.9-6.2-4.6-7.9 5 0 9.9 2 13.4 5.4 0.6-3.5-0.6-7.1-3.1-9.6 3 1.2 5.6 3.6 7.1 6.4 0.7-2 0.4-4.5-0.8-6.3 4.4 0.5 8.4 3.3 10.4 7.2 3.1-2.9 5.9-6.2 8.2-9.8 1.2 2.6 2.7 5.1 4.5 7.4l7-4.2c-0.1 2.5-1 4.9-2.6 6.9 4.9-2.7 10.7-3.6 16.1-2.6q-3.9 3.2-7.9 6.3c5.4-0.8 10.9-0.7 16.2 0.2-2.2 1-5.8 1.5-6.8 3.9 5.6-0.5 11.4 0 16.7 1.7-3.1-0.1-6.2 0.9-8.6 2.8 3.8 0.5 7.7 0.7 11.6 0.5-1.5 2.9-4.2 5-7.3 5.9 3.8 1 8 0.4 11.5-1.5-1.2 1.8-2.2 3.8-2.9 5.8-0.4 1.4-0.8 2.9-0.9 4.3 4.1-2.1 8.5-3.3 13.1-3.7-4 1.6-6.5 5.4-8.7 9 2.8-1.6 6.5-1.6 9.3-0.1-2.8 0.6-5.6 1.5-8.2 2.8 0.9-0.4 5.5 1.1 7.1 0.9-1.6 1.5-3.7 3.3-2.9 5.7 0.4 1.2 2.4 2.7 3.2 3.7 0.9 0.9 4.1 5.4 5.6 5.4-2.4 0.2-4.9-0.3-7.2-1.3 4.1 2.4 7.5 5.8 9.9 9.9-2.8-0.8-5.6-1.3-8.4-1.3 4.3 4.7 7.4 10.6 8.6 16.9q-0.8-1-1.8-1.7c-1.2-0.9-2.5-1.4-3.9-1.7 4.1 4.5 7.2 9.9 8.9 15.8-1.6-1.1-3.4-1.9-5.2-2.5 1.1 5.1 3.2 10 6.1 14.3q-1.8-0.5-3.5-1.4-1.8-0.9-3.4-2.3c0.7 2.4 1.8 4.7 3.3 6.8-1.3-0.3-2.6-1.1-3.3-2.3q1.6 5.8 3.3 11.5 0.3 1.1 0.7 2.3z"/><path class="b" d="m304 123.1c0.4 2.9 0.7 6 2.3 8.2-1.7 0.2-3.4-1.1-3.5-2.8 0.3 4.7-2 9.3-3.9 13.5q-0.7-2.2-1.4-4.4-3 4.1-6.5 7.8c0.5-1.1 0.5-2.5 0-3.7q-2.4 3.1-4.8 6.2c-0.1-1.1-0.3-2.1-0.9-3q-2.9 4.6-5.7 9.2c0.5-1.4 0.5-2.9-0.1-4.3q-2.9 3.8-5.8 7.5-0.7-1.5-1.3-3c-2.2 3.2-5.1 5.9-8.5 7.8 0.9-1.4 1.2-3.2 0.9-4.9-4.6 5.1-10 9.4-15.9 12.7 1.7-2.1 2.3-5 1.4-7.6-4.2 3.3-8.8 6.1-13.7 8.2 0.5-1 0.6-2.3 0.1-3.3-1.4 0.7-2.5 2-2.9 3.6-3.1-1-6-2.7-8.3-5-0.6 1.1-0.9 2.4-0.7 3.6-1.7-1.6-3.1-3.7-4-5.9-1.3 0.9-2.1 2.6-1.9 4.2-2.9-2.9-5.4-6.2-7.2-9.9-0.6 0.7-0.9 1.6-0.8 2.5-1.3-0.8-12.1-6.9-11.5-8.4-0.5 1.3-0.5 2.7-0.1 4-3.7-1.7-6.8-4.8-8.4-8.5-0.6 1.3-1 2.8-1.2 4.3-2.2-2.1-11.4-6.9-9.9-11.1-0.9 2.5-1.3 5.1-1.3 7.7-3.2-4.1-4.9-9.4-4.6-14.6-1.3 1.8-2.2 3.9-2.5 6q-0.1 0.5-0.1 0.9-0.1-0.1-0.2-0.3c-1.4-2.7-2.2-5.7-2.3-8.8 0-2.3 0.3-4.4 0.7-6.3q0.1-0.4 0.2-0.8l0.3-0.9q-3.1 2-6.2 3.9 1.2-1.9 2-3.9c2.2-2.7 4.3-5.4 6.2-8.3-0.3 0.4-0.4 1.2-0.5 2.1-0.4 3.8 0.6 10.5 0.5 12.7 1.2-2.1 2.5-4.5 4.1-6.2 1.9 6.4 5.1 12.3 9.2 17.5q-0.3-4.1-0.6-8.3c2.1 6 6.1 11.3 11.3 15-0.9-3.4-0.3-6.1 0.3-9.5 1.2 4.7 4.9 8.3 8.8 11.2-0.4-2.7-0.1-5.6 1-8.1 1.1 3.8 4.2 6.7 7.1 9.3 0.7 0.7 7 4.9 6.9 5.8 0.1-2.3 1.1-4.7 2.8-6.4 1.8 3.8 4.9 7 8.7 9 0.4-2.5 1.8-4.9 3.8-6.5q0.8 3.3 1.6 6.7 3.4-2.2 6.3-5c0.4 1.5 0.5 3.2 0.3 4.7 4.3-2.3 12-3.8 14.4-8.4 0.7 1.2-0.1 3.1-0.9 4.2 0.4 0.5 1.1 0.2 1.6-0.1 4.8-3.5 9.2-7.5 13.1-12q-1.1 3.5-2.3 7c3.3-2.4 6.8-4.8 9.7-7.6 1.7-1.7 5.7-4.9 5.6-7.6q0.1 2.6 0.2 5.2c2.9-2.3 5.1-4.6 7.3-7.5 0.2 1.5 0 2.9-0.1 4.4 2.9-1.9 4.4-5.9 6.1-8.9q1 3.3 1.3 6.6c1.9-5.6 3.1-10.7 2.8-16.6 0-0.5 0-1.1 0.3-1.4q2.5 2.5 4.6 5.3 0.3 1.2 0.6 2.3-2.2-2-4.4-3.9c0.2 0.9 0.3 1.9 0.5 2.9z"/><path class="b" d="m306.8 85.3q-0.8-0.9-1.8-1.7-1.8-2.4-3.4-5.1c-0.8-1.3-8-12.7-9.2-12.7 1.5-0.7 3.1-1 4.6-1.4-2.8-4-6.9-6.9-11.9-8.2 1.1-0.8 2.4-1.3 3.6-1.3q-3.9-1.3-8.3-2.5c-8.2-2.3-19.5-2.1-27.3 4.3-3.1 2.6-4.9 5.8-8.6 7.7-0.1 0.1-0.3 0.2-0.5 0.1-0.2 0-0.3-0.2-0.4-0.5-0.4-0.6-0.7-1.3-1-2q-0.9 1.5-2.2 2.8c-0.2 0.2-0.5 0.5-0.8 0.6-0.6 0.1-1.2-0.2-1.6-0.6-0.4-0.5-0.7-1-1.1-1.4-0.2-0.2-0.3-0.3-0.5-0.3-0.2 0-0.4 0.2-0.5 0.3q-1.2 1-2.4 2c-0.5-1-0.9-2-1.2-3.1q-1.1 1-2.1 2c-0.2 0.1-0.4 0.3-0.6 0.3-0.2 0-0.4-0.2-0.6-0.4-0.2-0.2-1.7-1.9-1.7-2.3-0.1 0.9-0.3 1.8-0.5 2.7-1.4-0.8-2.7-1.7-4.1-2.6-6.1-3.8-10.1-8.1-17.8-9.8-6.6-1.5-14.1-2.5-18.6 1.5 2 0.2 3.9 1.3 5.2 3-3.5-3.4-17 7.1-18.8 9q2.7 0.2 5.3 0.4c-4-0.3-8.3 10.2-10.5 13.1-0.7 0.9-1.5 1.7-2.4 2.6 0.2-1.1 0.5-2 0.8-2.7 1.3-3 2.7-6.2 4.2-9.1q-3.3 2.5-6.5 5.1c0.9-3 2.5-5.4 4.2-7.9 1-1.6 2-4.4 3.3-5.6-2.1 2-4.8 3.4-7.6 4.1 3.7-4.7 8.5-10.2 10.6-15.8-1.9 0.5-3.7 1.3-5.3 2.4 3.9-2.7 4.8-9.3 10-10.9-2.3-1.3-4.9-2.1-7.6-2.2 3.5-2.6 8.2-3.4 12.3-2.1-1.1-2.8-3.5-5.1-6.3-6.1 3-1.9 7-2.1 10.3-0.6-0.2-3.4-2.5-6.6-5.6-7.9 4.6-0.7 9.4 0.5 13.2 3.3q-2.5-5.2-5.1-10.4 3.3 3.1 6.6 6.2c-2.3-3.8-2.8-8.7-1.3-12.9-0.3 3.9 2 7.9 5.6 9.5q-0.8-5.6-2-11.2c3.5 1.9 6.7 4.5 9.3 7.6-0.1-3.2-1.9-6.2-4.6-7.9 4.9 0 9.8 2 13.4 5.3 0.6-3.4-0.6-7.1-3.1-9.5 3 1.2 5.6 3.5 7 6.4 0.8-2 0.5-4.5-0.7-6.3 4.3 0.5 8.4 3.3 10.4 7.2 3.1-2.9 5.9-6.2 8.2-9.9 1.2 2.7 2.7 5.2 4.5 7.5l7-4.3c-0.1 2.5-1 5-2.6 7 4.9-2.7 10.6-3.6 16.1-2.6q-3.9 3.1-7.9 6.3c5.4-0.8 10.8-0.7 16.1 0.2-2.1 1-5.7 1.5-6.7 3.9 5.6-0.6 11.3 0 16.7 1.7-3.1-0.1-6.2 0.9-8.7 2.8 3.9 0.5 7.8 0.7 11.7 0.5-1.5 2.8-4.2 5-7.3 5.9 3.8 1 8 0.4 11.5-1.5-2.1 3-3.4 6.5-3.8 10.1 4-2.1 8.5-3.3 13-3.7-3.9 1.6-6.4 5.4-8.6 9 2.8-1.6 6.4-1.7 9.3-0.1-2.8 0.6-5.6 1.5-8.2 2.8 0.8-0.4 5.5 1.1 7 0.8-1.5 1.6-3.6 3.3-2.8 5.8 0.4 1.2 2.3 2.7 3.2 3.7 0.9 0.9 4.1 5.4 5.6 5.4-2.5 0.1-5-0.3-7.2-1.3 4 2.4 7.5 5.8 9.8 9.9-2.7-0.8-5.5-1.3-8.4-1.3 4.4 4.6 7.4 10.5 8.7 16.8z"/><path class="b" d="m289.1 27.4c-1.2 1.7-2.1 3.7-2.8 5.8-1.3 0.9-2.6 1.8-3.7 3q-1.7-0.9-3.5-1.7c-3.6-1.5-7.5-2.3-11.4-2.4 2 1.6 3.7 3.7 4.9 6-4.9-3.6-11.4-3.7-17.4-3.7 3.1 0.3 6.8 0.8 8.3 3.6-0.9-1.5-12.6 0.2-14.1 0.7-4.1 1.2-8.4 4.6-11.5 7.4-0.7-1.9-1-4-1-6.1-1.4 1.2-2.6 2.7-3.5 4.4-2.5-2-4.5-4.5-6.1-7.3-0.1 2.3-0.6 4.5-1.4 6.7-2.1-1.9-3.3-4.1-5.8-5.7-7-4.6-16.6-1.8-24 0.5 4.3-2.8 8.9-4.9 13.8-6.3-5.8 0.2-11.5 1.5-16.8 3.7 0.9-1.8 2.3-3.4 3.8-4.8-5.5 0.8-9.5 2.4-13.4 5.9-1.2-2.8-3.5-5.1-6.3-6.1 3-1.9 7-2.1 10.3-0.6-0.3-3.4-2.5-6.5-5.6-7.9 4.6-0.6 9.4 0.6 13.2 3.3q-2.6-5.1-5.1-10.4 3.3 3.1 6.5 6.2c-2.3-3.8-2.7-8.7-1.2-12.9-0.3 3.9 2 7.9 5.6 9.5q-0.8-5.6-2-11.1c3.5 1.9 6.7 4.4 9.3 7.5-0.1-3.2-1.9-6.2-4.6-7.8 4.9-0.1 9.8 1.9 13.4 5.3 0.5-3.5-0.6-7.1-3.1-9.6 3 1.2 5.6 3.6 7 6.5 0.8-2.1 0.5-4.5-0.8-6.4 4.4 0.5 8.5 3.3 10.5 7.2 3.1-2.9 5.9-6.2 8.1-9.8 1.3 2.6 2.8 5.1 4.6 7.4l7-4.2c-0.1 2.5-1 4.9-2.6 6.9 4.8-2.7 10.6-3.6 16.1-2.6q-4 3.2-7.9 6.4c5.3-0.9 10.8-0.8 16.1 0.1-2.1 1-5.7 1.5-6.7 3.9 5.6-0.5 11.3 0 16.7 1.7-3.1-0.1-6.2 0.9-8.7 2.8 3.9 0.5 7.8 0.7 11.7 0.5-1.5 2.9-4.2 5.1-7.4 5.9 3.9 1 8.1 0.4 11.6-1.5z"/><path class="h" d="m281.3 62.4c-3.8-6.6-10.4-10.5-18.3-10.7 0.9-1.5 2.5-2.6 4.2-2.9-5.1 0.3-10.4 0.9-15.2 2.5 0.7-1.4 1.6-2.7 2.7-3.9-7 2.5-14.2 5.9-19.2 11.5 0.9-1.1-10-7.4-11-7.9-4.9-2.2-10.1-3.7-15.4-3.8 1.1 1.2 2 2.6 2.6 4.2-6.8-1.6-13.9-2.8-19.5 2.4 0.3-0.3 4.4-0.1 5 0.1-2.8 1.5-5.5 3.5-7 6.3-0.9 1.5-1.6 3.1-2.3 4.7-0.5 1.2-0.7 3.6-1.5 4.6 1.4-1.7 3.2-3 5.3-3.8-1.1 0.4-1.6 1.8-1.7 3-0.5 3.8-0.4 8 0.9 11.7 2.9 9 9.6 17.4 18.9 20.4 10 3.2 19.8-0.9 25.6-9.5 5.8 8.7 15.7 12.9 25.8 9.7 10.2-3.4 16.4-13.2 19.1-23.2 1.1-4.4 1.6-10-1.4-13.7q2 0.9 4 1.8-0.7-1.9-1.6-3.5z"/><path class="f" d="m239.1 76.6c-2.1 9.2-12.4 14.5-23 12.1-10.6-2.5-17.5-11.9-15.3-21 2.1-9.1 11.3-9.8 21.9-7.3 10.6 2.5 18.6 7.1 16.4 16.2z"/><path class="f" d="m231.8 76.7c2.1 9.1 12.4 14.5 23 12 10.6-2.4 17.5-11.8 15.4-20.9-2.2-9.1-11.4-9.8-22-7.3-10.6 2.4-18.5 7.1-16.4 16.2z"/><path class="i" d="m226 72.5q0 0.4-0.1 1 0 0.1-0.1 0.3 0 0.3-0.1 0.5 0 0.1-0.1 0.2 0 0.3-0.1 0.5-0.3 0.8-0.8 1.4-0.1 0.3-0.3 0.5-0.1 0.1-0.1 0.1-0.2 0.3-0.4 0.5-0.2 0.3-0.5 0.5-0.4 0.3-0.8 0.6 0 0 0 0c-0.2 0.1-0.3 0.2-0.4 0.3q-0.6 0.3-1.2 0.6-0.3 0.1-0.5 0.1-0.4 0.2-0.9 0.2-0.1 0.1-0.3 0.1-0.1 0-0.2 0 0 0-0.1 0-0.1 0-0.2 0-0.3 0.1-0.5 0.1h-0.1q-0.3 0-0.6-0.1-0.3 0-0.6 0-0.1-0.1-0.3-0.1-0.3 0-0.6-0.1 0 0-0.1-0.1-0.3 0-0.5-0.2-0.8-0.2-1.4-0.7-0.3-0.2-0.5-0.3-0.1-0.1-0.1-0.1-0.3-0.2-0.5-0.4-0.3-0.2-0.5-0.5-0.3-0.4-0.6-0.8 0 0 0 0c-0.1-0.2-0.2-0.3-0.3-0.4q-0.3-0.6-0.6-1.3-0.1-0.2-0.1-0.5-0.2-0.3-0.2-0.8-0.1-0.2-0.1-0.5 0-0.4 0-0.9 0-0.3 0-0.6 0-0.3 0-0.6 0.1-0.1 0.1-0.3 0 0 0-0.1 0.1-0.3 0.2-0.5 0.1-0.3 0.1-0.5c0.6-1.4 1.8-2 3.2-2.2 1.3-0.1 2.9 0.1 4.6 0.4 1.9 0.3 3.6 0.6 5 1.3 1.3 0.6 2.2 1.7 2.2 3.4z"/><path class="j" d="m224.6 71.8c0.2 3.5-2.5 6.5-6 6.8-3.4 0.2-6.4-2.5-6.7-6q0-0.5 0-1 0-0.1 0.1-0.3 0-0.2 0.1-0.5 0-0.3 0.1-0.6 0.1-0.1 0.1-0.1 0.1-0.3 0.2-0.5 0-0.1 0-0.1 0.2-0.3 0.3-0.6c0.4-0.5 0.8-1.1 1.4-1.5 1.3-0.1 2.8 0.1 4.5 0.4 1.9 0.2 3.7 0.6 5 1.2q0.2 0.3 0.3 0.7 0.2 0.3 0.3 0.7 0.1 0.3 0.2 0.7 0 0.4 0.1 0.7z"/><path class="k" d="m218.2 75.9c-2 0-3.6-1.6-3.6-3.7 0-2 1.6-3.6 3.6-3.6 2.1 0 3.7 1.6 3.7 3.6 0 2.1-1.6 3.7-3.7 3.7z"/><path class="i" d="m216.5 71.5c-0.9 0-1.7-0.7-1.7-1.7 0-0.9 0.8-1.7 1.7-1.7 0.9 0 1.7 0.8 1.7 1.7 0 1-0.8 1.7-1.7 1.7z"/><path class="i" d="m260.5 72.2q0 0.3 0 0.5 0 0.4-0.1 0.7 0 0.4-0.1 0.7-0.1 0.4-0.2 0.7-0.2 0.6-0.5 1.1-0.5 0.8-1.1 1.5-0.2 0.2-0.4 0.5 0 0-0.1 0-0.2 0.2-0.5 0.4-0.3 0.3-0.6 0.4-0.6 0.4-1.2 0.7-1 0.4-2.1 0.5-0.4 0.1-0.8 0.1-0.3 0-0.5-0.1-0.2 0-0.3 0-0.3 0-0.5-0.1-0.5 0-0.8-0.2-0.3 0-0.5-0.1-0.7-0.3-1.3-0.6-0.2-0.1-0.4-0.3-0.4-0.3-0.8-0.6-0.3-0.2-0.5-0.5-0.2-0.2-0.4-0.5 0 0-0.1 0-0.2-0.3-0.3-0.6-0.5-0.6-0.8-1.4 0-0.2-0.1-0.5-0.2-0.5-0.3-1.1 0-0.5-0.1-0.9c0-1.7 0.9-2.7 2.2-3.4q0.1 0 0.1-0.1c1.3-0.6 3.1-0.9 5-1.2 1.6-0.3 3.2-0.5 4.4-0.4h0.1c1.3 0.2 2.3 0.6 2.9 1.7q0.1 0.2 0.2 0.5 0.1 0.2 0.2 0.4 0.2 0.7 0.3 1.4 0 0.4 0 0.8z"/><path class="j" d="m259.1 71.8c0.2 3.5-2.4 6.5-5.9 6.8-3.5 0.2-6.5-2.5-6.7-6q-0.1-0.5 0-1 0-0.2 0-0.3 0.1-0.4 0.2-0.7 0.1-0.4 0.2-0.8 0.2-0.4 0.4-0.7 0.1 0 0.1-0.1c1.3-0.6 3.1-0.9 5-1.2 1.6-0.3 3.2-0.5 4.4-0.4h0.1q0.2 0.2 0.4 0.4 0.2 0.2 0.4 0.5 0.2 0.2 0.3 0.4 0.1 0.1 0.1 0.1 0.2 0.3 0.3 0.5 0.1 0.3 0.3 0.6 0 0 0 0 0.1 0.3 0.2 0.6 0.1 0.3 0.1 0.7 0.1 0.3 0.1 0.6z"/><path class="k" d="m252.8 75.9c-2.1 0-3.7-1.6-3.7-3.7 0-2 1.6-3.6 3.7-3.6 2 0 3.6 1.6 3.6 3.6 0 2.1-1.6 3.7-3.6 3.7z"/><path class="i" d="m250.8 71.5c-0.9 0-1.7-0.7-1.7-1.7 0-0.9 0.8-1.7 1.7-1.7 1 0 1.7 0.8 1.7 1.7 0 1-0.7 1.7-1.7 1.7z"/><path class="f" d="m267.7 132.3q0 0.5-0.1 0.9-0.1 4.4-1.2 8.5v0.1q-0.8 2.5-1.9 5-0.3 0.8-0.7 1.6c-3.9 7.5-10.6 13.3-18.3 16q0 0-0.1 0c-19.6 7.1-41.7-9-41.9-31.1q0-0.5 0-1c0.3-19.3 14.5-49.4 32.1-49.8 17.5 0.4 31.7 30.5 32 49.8z"/><path class="h" d="m247.7 110.3c1 4.1 1.2 8.4-1 11.8-2.9 4.6-8.6 7.1-13.7 6.1-2.7-0.4-4.6-1.8-6.6-3.6-4.3-3.8-4.8-9.3-3.2-14.7 1.5-5.6 3.8-10.9 5.9-16.3 1.3-3.6 2.2-9.6 7-9.6 2.4 0 4 2.3 4.9 4.4 1.6 3.4 2.3 7.3 3.4 10.9 1 3.6 2.4 7.3 3.3 11z"/><path class="g" d="m267.6 133.2q-0.1 4.4-1.2 8.5v0.1q-0.7 2.6-1.8 5h-0.1q-0.3 0.8-0.7 1.6c-3.9 7.5-10.5 13.3-18.3 16q0 0-0.1 0c-19.6 7.1-41.7-9-41.9-31.1q0-1.5 0.1-3c1 9.3 5.8 17.5 12.8 22.8q0.6 0.4 1.2 0.9 1 0.6 2 1.2 1 0.6 2.1 1.1 0.7 0.3 1.4 0.6c0.5 0.2 0.9 0.4 1.4 0.6q1.6 0.6 3.3 1 0.6 0.2 1.3 0.3 0.5 0.1 1.1 0.2 0.3 0.1 0.5 0.1 1 0.2 1.9 0.2 0.5 0.1 0.9 0.1 0.4 0 0.8 0.1 0.6 0 1.3 0 1.8 0 3.7-0.3 1.5-0.1 2.9-0.4 1.7-0.4 3.2-0.9h0.1q0.8-0.3 1.5-0.6 0.8-0.3 1.5-0.6 0.2 0 0.3-0.1 0.6-0.3 1.1-0.6 0.4-0.1 0.7-0.3 0.2-0.1 0.4-0.2 0.6-0.3 1.2-0.7 0.7-0.4 1.3-0.9 1.3-0.8 2.5-1.8 0.6-0.5 1.1-1 0.4-0.4 0.8-0.8 0.4-0.4 0.8-0.8 0 0 0.1-0.1 0.5-0.5 1-1.1 0.1-0.1 0.2-0.2c0.4-0.4 0.7-0.9 1-1.3q0.5-0.6 1-1.3 0.4-0.7 0.8-1.3c0.1-0.1 0.2-0.2 0.2-0.3q0.4-0.7 0.8-1.3c0 0 0 0 0-0.1q0.4-0.7 0.7-1.5 0.4-0.7 0.7-1.5 0.3-0.7 0.6-1.4 0.1-0.3 0.2-0.6 0.1-0.3 0.1-0.5 0.1-0.4 0.3-0.8c0-0.1 0-0.2 0-0.2q0.8-2.8 1.1-5.7c0.1 1 0.1 1.9 0.1 2.9z"/><path class="k" d="m244.2 141.6c-5.6 2-11.7 2-17.3 0 5.6-2 11.7-2 17.3 0z"/><path class="k" d="m231.1 127.3c-0.8 0.5-2.3-0.5-3.2-2.2-1-1.6-1.1-3.4-0.3-3.9 0.8-0.4 2.3 0.5 3.2 2.2 1 1.7 1.1 3.4 0.3 3.9z"/><path class="k" d="m243.3 125.2c-1 1.6-2.5 2.6-3.3 2.1-0.8-0.4-0.7-2.2 0.3-3.9 1-1.6 2.4-2.6 3.2-2.1 0.9 0.4 0.7 2.2-0.2 3.9z"/><path class="l" d="m254.4 138.4c-3.2 23.8-34.5 21.9-37.6 0 13.8 0.1 18.7-5.8 18.7-5.8 0 0 5 5.9 18.9 5.8z"/><path class="m" d="m254.4 138.4q-0.3 1.3-0.8 2.4c-1.5 3.9-4 6.8-7 8.8q0 0-0.1 0c-2.1 1.4-4.4 2.2-6.8 2.6q-0.2 0.1-0.4 0.1c-0.1 0-5.6 0.3-8.3-0.4q-0.2 0-0.5-0.1-3.2-0.8-6-2.7-0.4-0.3-0.9-0.7c-2.5-1.8-4.5-4.3-5.9-7.5q-0.5-1.2-0.9-2.5 2.1 0 3.9-0.2 1.1-0.1 2.1-0.2c0.6-0.1 1.1-0.2 1.6-0.3q0.2 0 0.4 0 0.7-0.1 1.3-0.3c0.3-0.1 0.4-0.1 0.6-0.2h0.1c1.9-0.5 3.6-1.2 4.8-1.8q0.4-0.2 0.7-0.4 0.7-0.3 1.2-0.7c1.3-0.9 1.9-1.5 2.1-1.7 0.1 0.1 0.3 0.4 0.7 0.7l0.4 0.3q0.6 0.5 1.7 1.2 0.3 0.2 0.6 0.3 1.3 0.8 3.2 1.5 1 0.3 2.1 0.6c0.2 0 0.4 0.1 0.6 0.1 0.4 0.2 0.9 0.3 1.4 0.3q0.1 0.1 0.3 0.1 1 0.2 2.2 0.3 0.7 0.1 1.5 0.2 1.9 0.2 4.1 0.2z"/><path class="m" d="m246.8 143.3q0 0.5-0.1 1c-0.6 3.3-4 6.2-7 7.9-0.1 0.1-9-0.3-9.2-0.4-3-1.9-6.3-5-6.3-8.5v-0.1c0.1-2.2 0.8-4.2 1.9-5.8 0.2-0.1 0.4-0.1 0.6-0.2h0.1c1.9-0.5 3.5-1.1 4.8-1.8q0.4-0.2 0.7-0.4 0.7-0.3 1.2-0.7c1.3-0.8 1.9-1.5 2-1.7 0.2 0.1 0.4 0.4 0.8 0.7l0.3 0.3q0.7 0.5 1.8 1.2c0.2 0.1 0.4 0.2 0.6 0.3q1.3 0.8 3.2 1.5 1 0.3 2.1 0.6c0.2 0 0.4 0.1 0.6 0.1 1.2 1.7 1.9 3.8 1.9 6z"/><path class="m" d="m249.6 143.3c-0.2 1.6-0.8 3.2-1.6 4.5-0.4 0.5-1.2 1.1-1.4 1.8q-0.1 0.1-0.1 0.2v-0.2c0.3-2.7-0.8-6.4-3.4-8.2-5.5-3.6-13.7-3.1-17 2.3-1.1 1.6-1.6 3.5-1.6 5.4q0 0.1 0 0.3-0.5-0.4-0.9-0.9c-2.1-2.6-2.4-6.1-1.5-9q0.3-0.7 0.7-1.5c0.6 0 1.1-0.1 1.6-0.2q0.2-0.1 0.4-0.1 0.7-0.1 1.3-0.3c0.3-0.1 0.4-0.1 0.6-0.2h0.1c1.9-0.5 3.6-1.1 4.8-1.8q0.4-0.2 0.7-0.4 0.7-0.3 1.2-0.7c1.3-0.8 1.9-1.5 2.1-1.7 0.1 0.1 0.3 0.4 0.7 0.8l0.4 0.2q0.6 0.6 1.7 1.2 0.3 0.2 0.6 0.4 1.3 0.7 3.2 1.4 1 0.3 2.1 0.6c0.2 0.1 0.4 0.1 0.6 0.2 0.4 0.1 0.9 0.2 1.4 0.3q0.1 0 0.3 0 1 0.2 2.2 0.4c0.8 1.5 1 3.4 0.8 5.2z"/><path class="n" d="m230.4 152.4c-1.8 0.5-4.4-0.3-5.6-1.7-0.2-0.2-0.4-0.4-0.5-0.6-0.1-0.3-0.1-0.5-0.1-0.8 0-0.7 0.1-1.3 0.2-1.9 0.2-0.8 0.5-1.6 1.2-2.2 0.1-0.1 0.2-0.3 0.4-0.2q0 0 0.1 0c0.1 0 0.2 0.1 0.3 0.3 1.4 1.7 2.5 3.7 3.4 5.8q0.1 0.3 0.2 0.6 0.2 0.4 0.4 0.8z"/><path class="o" d="m230.4 152.4c-1.8 0.5-4.4-0.3-5.6-1.7-0.2-0.2-0.4-0.4-0.5-0.6-0.1-0.3-0.1-0.5-0.1-0.8 0-0.7 0.1-1.3 0.2-1.9 0.2 0.1 0.4 0.2 0.6 0.3 0.4 0 0.6-0.3 0.6-0.6 0.1-0.4 0.1-0.8 0.1-1 0-0.4 0.1-0.9 0.4-1.1 0.1 0 0.2 0.1 0.3 0.3 1.4 1.7 2.5 3.7 3.4 5.8q0.1 0.3 0.2 0.6 0.2 0.4 0.4 0.8z"/><path class="n" d="m240.6 152.4c1.8 0.5 4.4-0.3 5.6-1.7 0.2-0.2 0.4-0.4 0.5-0.6 0.1-0.3 0.1-0.5 0.1-0.8 0-0.7-0.1-1.3-0.2-1.9-0.2-0.8-0.5-1.6-1.2-2.2-0.1-0.1-0.2-0.3-0.4-0.2q0 0-0.1 0c-0.1 0-0.2 0.1-0.3 0.3-1.4 1.7-2.5 3.7-3.4 5.8q-0.1 0.3-0.2 0.6-0.2 0.4-0.4 0.8z"/><path class="o" d="m240.6 152.4c1.8 0.5 4.4-0.3 5.6-1.7 0.2-0.2 0.4-0.4 0.5-0.6 0.1-0.3 0.1-0.5 0.1-0.8 0-0.7-0.1-1.3-0.2-1.9-0.2 0.1-0.4 0.2-0.6 0.3-0.4 0-0.6-0.3-0.6-0.6-0.1-0.4-0.1-0.8-0.1-1 0-0.4-0.1-0.9-0.4-1.1-0.1 0-0.2 0.1-0.3 0.3-1.4 1.7-2.5 3.7-3.4 5.8q-0.1 0.3-0.2 0.6-0.2 0.4-0.4 0.8z"/><path class="n" d="m243.5 151.2c0.1 2.1-4.8 1.8-6.4 1.7q-2.7 0-5.4-0.2c-1.1 0-2.2 0-3.1-0.5q-0.2-0.1-0.5-0.3-0.4-0.4-0.6-0.9c-0.1-0.4 0-0.8 0.2-1.1 0.3-0.4 0.9-0.6 1.8-0.5 0.1 0 0.6 0.2 1.1 0.4 0.5 0.2 1 0.5 1 0.6q0.3-0.2 0.8-0.4 0.7-0.3 1.5-0.3c0.6 0 1.3 0.2 1.7 0.6 0.2 0.1 0.3 0.3 0.4 0.4q0.3-0.2 0.7-0.4 0.5-0.3 1.1-0.4c0.7-0.1 1.6 0.1 1.8 0.6 0.1 0 0.2-0.1 0.2-0.2 0.6-0.4 1.3-0.6 2-0.6 0.6 0.1 1.1 0.4 1.4 0.8q0.1 0.1 0.2 0.3c0.1 0.1 0.1 0.2 0.1 0.3z"/><path class="o" d="m243.5 151.2c0.1 2.1-4.8 1.8-6.4 1.7q-2.7 0-5.4-0.2c-1.1 0-2.2 0-3.1-0.5q-0.2-0.1-0.5-0.3-0.4-0.4-0.6-0.9c-0.1-0.4 0-0.8 0.2-1.1 0.2 0.3 0.5 0.5 0.9 0.6q0.4 0 0.8-0.1c0.3 0 0.6-0.1 0.9-0.3q0.2-0.1 0.3-0.3c0.5 0.2 1 0.5 1 0.6q0.3-0.2 0.8-0.4c0.2 0.3 0.3 0.7 0.7 0.9 0.2 0.2 0.5 0.3 0.8 0.3 0.7 0.1 1.1 0.1 1.4-0.3 0.1-0.1 0.3-0.4 0.3-0.6 0.2 0.1 0.3 0.3 0.4 0.4q0.4-0.2 0.7-0.4c-0.2 0.3-0.3 0.6 0 0.8q0.2 0.2 0.4 0.3 0.2 0 0.3 0.1 0.5 0.1 1 0c0.7-0.1 1-0.5 1.2-1 0.1 0 0.2-0.1 0.3-0.2 0.3 0.4 1.2 0.8 1.5 0.9 0.6 0.1 1.4-0.2 1.8-0.7q0.1 0.1 0.2 0.3c0.1 0.1 0.1 0.3 0.1 0.4z"/><path class="l" d="m216.8 138.4c3.1 21.9 34.4 23.8 37.6 0-5.1 19.6-32.4 18.2-37.6 0z"/><path class="n" d="m226.8 137.2q-0.1 0.1-0.2 0.2-0.5 0.5-0.9 1-1.2 1.5-2.5 3-0.1-0.1-0.2-0.2-0.3-0.2-0.6-0.5c-0.6-0.5-1-1.1-1.4-1.8-0.1-0.1-0.1-0.3-0.2-0.4q0-0.2-0.1-0.3c2.3-0.1 4.3-0.5 6-1h0.1z"/><path class="o" d="m226.7 137.2q0 0.1-0.1 0.2-0.5 0.5-0.9 1-0.5 0-1 0.1c-1.9 0.2-2.5 1.1-2.3 2.2-0.5-0.5-1-1.1-1.4-1.7-0.1-0.2-0.1-0.4-0.2-0.5q0-0.2-0.1-0.3c2.3-0.1 4.3-0.5 6-1z"/><path class="n" d="m250.3 138.2q-0.1 0.3-0.2 0.6-0.1 0.1-0.2 0.3c-0.3 0.6-0.8 1.2-1.2 1.6q-0.3 0.3-0.6 0.5c-0.1 0.1-0.2 0.2-0.3 0.2q-1.2-1.5-2.5-3-0.5-0.6-1-1.2c1.7 0.5 3.7 0.9 6 1z"/><path class="o" d="m244.3 137.2q2.6 0.7 6 1-0.1 0.3-0.2 0.6-0.1 0.1-0.2 0.3c-0.3 0.6-0.8 1.2-1.2 1.6 0.1-1.1-0.4-2-2.3-2.2q-0.5-0.1-1.1-0.1-0.5-0.6-1-1.2z"/></svg>