<svg version="1.2" xmlns="http://www.w3.org/2000/svg" viewBox="0 0 470 470" width="470" height="470"><style>.a{fill:#ca9e67}.b{mix-blend-mode:multiply;fill:#ca9e67}.c{fill:#f7f7eb}.d{mix-blend-mode:multiply;fill:#f7f7eb}.e{fill:#3c3c3b}.f{fill:#aa692b}.g{mix-blend-mode:multiply;fill:#9d9d9c}.h{fill:#575756}.i{fill:#fff}.j{fill:#ededed}.k{fill:#e8b47c}.l{fill:#b17f4a}.m{mix-blend-mode:multiply;fill:#dadada}.n{fill:#efa543}.o{fill:#a06013}.p{fill:none;stroke:#1d1d1b;stroke-width:1.1}.q{fill:#683539}.r{mix-blend-mode:multiply;fill:#683539}.s{fill:#f6f6f6}.t{fill:#b2b2b2}.u{fill:#1d1d1b}.v{fill:#cc8979}.w{fill:#895b52}.x{mix-blend-mode:multiply;fill:#b28766}.y{fill:#f9e1f7}</style><path class="a" d="m397.7 336q0.6-0.1 1.2-0.1 0.8-0.1 1.7-0.2c-0.6 0.1-4 6.6-4.7 7.8-2.5 3.9-4.7 7.8-7.7 11.1 2.7 0.8 5.2-0.5 7.6-1.9q-0.5 1-1.1 2c-2.5 4.6-4.9 7.8-9 11-3.2 2.7-6.9 5-10.7 6.6-0.9 0.3-9 3.7-8.8 3.9q1.2 1.3 2.5 2.5-3.3 0.1-6.5-0.1 1.9 1.3 3.8 2.6-5.1 0.1-10.1-0.3c-4.3-0.3-10-0.2-13.8-2.3q5.4 2.9 10.9 5.8c-8.1 1.8-16.4 1.6-24.4-0.5q-2.2-0.5-4.3-1.3c3.8 1.7 7.7 3.5 11.5 5.3-16.2 1.2-32.8-3.6-46.8-13.5q2 4.5 4.1 9c-10.5-5.1-20.5-11.6-29.8-19.3 1.1 4 2.8 7.8 5 11.1-9.1-6.3-62.3-41.2-53.2-57.6q0.5-0.9 1.2-1.6c1.6-1.9 3.8-3 6.1-3.4q0.5-0.1 1-0.1 0.4-0.1 0.8-0.1 1.3 0 2.7 0.3 0.6 0.1 1.2 0.2 0.6 0.2 1.2 0.4 1 0.3 1.9 0.7 1 0.4 1.9 0.9 0.6 0.3 1.3 0.6 0.9 0.5 1.8 1 1 0.5 1.9 1 0.6 0.3 1.2 0.6 0.9 0.6 1.8 1c0.4 0.2 0.8 0.4 1.2 0.6q0.5 0.3 1.1 0.6 0.3 0.1 0.6 0.2c8 3.7 16.1 7 24.2 10.3q3.3 1.2 6.5 2.5 0.7 0.3 1.3 0.5c2.5 1 4.9 2 7.4 2.9q0.2 0.1 0.5 0.2c4.8 1.9 9.6 3.6 14.4 5.2q0.8 0.3 1.6 0.5c0.4 0.2 0.8 0.3 1.2 0.4q1.2 0.4 2.3 0.7 3.6 1.1 7.2 2c8.2 2 16.4 3.3 24.6 3.2 11.6-0.1 23.1-2.6 34.3-6.4 5.6-1.8 11.1-4 16.5-6.3 5.1-2.1 10.1-5.5 15.4-6.5-0.5 0.1-3.2 5.3-3.8 6.2z"/><path class="b" d="m400.6 335.7c-0.6 0.1-4 6.6-4.7 7.8-2.5 3.9-4.7 7.8-7.7 11.1 2.7 0.8 5.2-0.5 7.6-1.9q-0.6 1-1.1 2c-2.5 4.6-4.9 7.8-9 11-3.2 2.7-6.9 5-10.8 6.6-0.8 0.3-8.9 3.7-8.7 3.9q1.2 1.3 2.5 2.5-3.3 0.1-6.5-0.1 1.9 1.3 3.8 2.6-5.1 0.1-10.1-0.3c-4.3-0.3-10-0.2-13.9-2.3q5.5 2.9 11 5.8c-8.1 1.8-16.4 1.6-24.4-0.5q-2.2-0.5-4.3-1.3c3.8 1.7 7.7 3.5 11.5 5.3-16.3 1.2-32.8-3.6-46.8-13.5q2 4.5 4.1 9c-10.5-5.1-20.5-11.6-29.8-19.3 1.1 4 2.8 7.8 4.9 11.1-9.1-6.3-62.2-41.2-53.1-57.6q0.5-0.9 1.2-1.6c1.7-1.7 3.8-2.9 6.1-3.4q0.5-0.1 1-0.1 0.4-0.1 0.8-0.1 1.3 0 2.6 0.3 0.7 0.1 1.3 0.2 0.6 0.2 1.2 0.4 1 0.3 1.9 0.7 1 0.4 1.9 0.9 0.6 0.3 1.3 0.6 0.9 0.5 1.8 1 0.9 0.5 1.9 1 0.6 0.3 1.2 0.6 0.9 0.6 1.8 1c0.4 0.2 0.8 0.4 1.2 0.6q0.5 0.3 1.1 0.6 0.3 0.1 0.6 0.2c8 3.7 16.1 7 24.2 10.3q3.3 1.2 6.5 2.5 0.7 0.3 1.3 0.5c2.5 1 4.9 2 7.4 2.9q0.2 0.1 0.5 0.2c4.4 1.7 9.4 3.9 14.4 5.2q0.8 0.3 1.6 0.5c0.4 0.2 0.8 0.3 1.2 0.4q1.2 0.4 2.3 0.7 3.6 1.1 7.2 2c4.4 10.6 10.6 20.1 20.2 26.7-0.5-0.4-1.5-4.1-1.5-4.8 12.2 2.7 23.9 3.9 36.3 1.5 5.7-1.1 9.5-3.2 14.4-6.4-3.2 0.5-6.1 0.7-9.2 1 3.9-2.1 7.8-4.2 11.4-6.8 3.5-2.7 6.7-5.9 8.8-9.8-1.6 0.6-3.5 1.5-5.1 0.9 4.7-3.8 8.8-7.8 12.9-12.2q0.9-0.1 1.8-0.1z"/><path class="a" d="m204.3 343c0 0.5-0.1 1.3-0.2 2.3q-0.1 1.1-0.3 2.5c-0.5 4.2-1.6 8-2.8 11.9-0.6 2-1.3 4.1-2.1 6.2-1.1 3.1-2.6 5.9-4.3 8.7-1.4 2.3-3.2 4.1-4.8 6.3q-0.9 1.3-1.9 2.7-0.1 0.2-0.3 0.4-1 1.6-2 3.3-1.1 1.8-2 3.7c-4.2 8.4-0.1 17.4 6.1 23.2-0.5 0.1-1.1 0-1.6-0.2q1 1.5 2.1 2.9c-0.4 0.2-1 0.1-1.3-0.1 0.6 1.4 1 3 1 4.6q-0.1 0.7-0.3 1.5-0.1 0.2-0.2 0.5-0.3 0.7-0.8 1.3c-4.5 4.8-10.1 12-7.6 19.1 1.8 4.9 5.6 11.4 3.2 16.7-3.4 7.9-14.5 6.4-21.3 6.3q-3.1 0-6.2-0.1h-0.3q-0.8 0-1.6 0-0.4 0-0.9 0-0.2 0-0.4-0.1-2 0-4.1-0.1-3.9-0.1-7.8-0.4-0.2 0-0.5 0c0 0-0.1 0-0.1 0q-0.6 0-1.2 0-0.7-0.1-1.5-0.1-0.3 0-0.8-0.1c-2.9-0.1-6.6-0.4-9.9-1.1q-0.6-0.2-1.2-0.4-0.8-0.1-1.4-0.4-1.4-0.4-2.6-1.1c-2.4-1.3-3.8-3.3-3.4-6.2q0.2-1.1 0.8-2.5-0.7 0-1.5 0.1c0.6-1.4 1.5-2.6 2.6-3.6q-1 0-2 0c2.7-5 9-3.7 13.5-2.9 6.2 1.3 10.7-4.6 15.2-8.1 5.2-3.9 10.4-8 14-13.5-0.8-0.2-1.8-0.1-2.5 0.4 1.7-1.1 2.5-4.9 2.3-6.7q-0.1-0.7-0.3-1.3c-0.6-1.7-1.9-3.1-3.2-4.3-1.9-1.9-4.2-3.6-6.5-5.1-2.3-1.5-4.6-3-6.8-4.5q-0.7-0.4-1.3-0.9-1.3-0.9-2.5-1.8-2.3-1.8-4.5-3.7c-1.8-1.7-3.5-3.5-5.2-5.5q-1.3-1.6-2.4-3.4c-3.3-5.2-5.3-11.7-4.9-17.8 0.3-4.8 2.3-9.1 4.6-13.2q-0.9 0.3-1.9 0.7 1.9-2.7 3.7-5.4-1 0.1-2 0.3c5.1-5.4 7.7-13.1 11.9-19.2 2.6-3.8 5.4-7.4 8.2-10.9 4.3-5.6 9.6-10.8 11.7-17.5 0.7-2.4 4.7-12.7 3.1-14.8 6.1 8.1 16.4 14.8 23.6 22.2q0.1 0.1 0.3 0.3c2.2 2.2 4.4 4.5 6.5 6.9 5.8 6.6 9.3 13 10.8 21.7q0 0.1 0 0.3z"/><path class="b" d="m161.1 418.6c-0.6-1.7-2-3.1-3.2-4.3-1.9-1.9-4.2-3.5-6.5-5.1-2.2-1.6-4.6-3-6.9-4.5q-0.6-0.4-1.3-0.9-1.2-0.9-2.4-1.8c-1.5-1.2-3-2.5-4.5-3.7-1.8-1.7-3.5-3.5-5.2-5.5q-1.3-1.6-2.4-3.4c1.9 1.7 3.8 3.4 5.7 4.9 2.6 2 5.4 3.6 8 5.6 3.3 2.6 6.7 5 10.1 7.5q0.5 0.3 0.9 0.7c2.9 2.5 6.3 4.5 7.4 8.3 0.3 0.7 0.3 1.4 0.3 2.2z"/><path class="b" d="m188.6 424.6c-4.5 4.9-10.1 12.1-7.6 19.2 1.8 4.9 5.6 11.4 3.2 16.7-3.4 7.8-14.5 6.4-21.3 6.3q-3.1 0-6.2-0.1h-0.3q-0.8 0-1.6 0-0.4 0-0.9-0.1-0.2 0.1-0.4 0-2 0-4.1-0.1-3.9-0.1-7.8-0.4-0.2 0-0.5 0-0.1 0-0.1 0-0.6-0.1-1.2-0.1-0.8-0.1-1.5-0.1-0.4-0.1-0.8-0.1c-3.3-0.3-6.5-0.7-9.8-1.3q-0.6-0.1-1.3-0.2-0.7-0.2-1.4-0.3-1.1-0.2-2.3-0.4c0 0-0.1-0.1-0.1-0.1q0 0 0 0-0.1-0.3-0.2-0.6c-2.4-1.3-3.8-3.3-3.4-6.2 0.8 1 1.9 1.9 3.1 2.6 1.5 1 3.3 1.6 4.8 1.9q0.2 0 0.4 0 1.4 0.2 2.8 0.2c1.9 0 3.7-0.1 5.5-0.1q1.8-0.1 3.5 0 0.7 0 1.4 0 1.5 0.1 3 0.2 3.9 0.2 7.7 0.3 0.1 0 0.2 0 2.4 0.1 4.8 0.1 1.1 0.1 2.1 0.1 1 0 2.1 0c6.7 0.1 17.8 1.5 21.3-6.3 2.3-5.3-1.5-11.8-3.2-16.7-1.4-3.8-0.6-7.9 1.6-11.2 1.4-2.1 7.2-7.9 9.3-4.3q-0.3 0.6-0.8 1.2z"/><path class="b" d="m204.3 343c0 0.5-0.1 1.3-0.2 2.3q-0.1 1.1-0.3 2.5c-0.5 4.2-1.6 8-2.8 11.9-0.6 2-1.3 4.1-2.1 6.2-1.1 3.1-2.6 5.9-4.3 8.7-1.4 2.3-3.2 4.1-4.8 6.3q-0.9 1.3-1.9 2.7-0.1 0.2-0.3 0.4-1.1 1.6-2 3.3-1.1 1.8-2 3.7c-4.2 8.4-0.1 17.4 6.1 23.2-0.5 0.1-1.1 0-1.6-0.2q1 1.5 2.1 2.9c-0.4 0.2-1 0.1-1.3-0.1 0.6 1.4 1 3 1 4.6-0.2 0.5-0.3 1-0.3 1.5-0.3-1.9-0.8-3.8-1.5-5.7-3.9-10.3-12.3-20.5-7.1-31 2.4-4.8 3.8-9.3 5.3-14.3q-0.9 0.4-1.9 0.8 0.8-2.4 1.8-4.7-0.5 0.3-1 0.6c4.1-7.8-2.5-17-7.8-22.5-2.7-2.8-5-6.7-4.9-10.7 0-4.6 1.2-8.6 3.5-12.5 2.2-3.8 7.2-6.6 10.9-8.8 2.3 2.3 4.5 4.5 6.6 6.9 5.7 6.6 9.3 13 10.7 21.7q0.1 0.1 0.1 0.3z"/><path class="c" d="m160.7 456.1c0.2 0.2 0.4 0.4 0.4 0.4q-0.4 0.1-0.7 0.1c2.2 0.3 1.7 2.8 0.3 3.8-0.8 0.6-1.7 1-2.4 1.6-2.2 1.9-2.1 5.2-1.8 8-1.8-1.9-3.7-3.8-4.7-6.2-1.1-2.4-1.1-5.3 0.5-7.4 1.1-1.4 3-2 4.7-1.9 0.9 0.1 1.6 0.3 2.4 0.7 0.2 0.1 0.8 0.6 1.3 1z"/><path class="d" d="m151.1 461c0.7 2.5 2.2 4.7 3.6 6.9 0.2-2.9 0.7-6.1 3.1-7.6 0.9-0.5 1.9-0.7 2.7-1.2 0.6-0.3 1.1-0.8 1.3-1.4 0.3 0.9-0.2 2.1-1.1 2.7-0.8 0.6-1.7 1-2.4 1.6-2.2 1.9-2.1 5.2-1.8 8-1.8-1.9-3.7-3.8-4.7-6.2-0.5-1-0.7-2.1-0.8-3.2q0.1 0.2 0.1 0.4z"/><path class="c" d="m145.3 460.4c-0.8 0.6-1.7 1-2.5 1.6-2.1 1.9-2 5.2-1.8 8-1.8-1.9-3.6-3.8-4.7-6.2-1-2.3-1.1-5.3 0.5-7.4 1.1-1 1.5-1.3 3-1.6q-0.3 0.5-0.4 1c1-0.6 1.7-1.4 2.9-1.2 0.3 0 3 1.2 2.8 1.4q-0.1 0.2-0.2 0.3c2 0.9 2.2 2.7 0.4 4.1z"/><path class="d" d="m139.9 467.7c-0.2-2.8-0.3-6.1 1.8-8 0.8-0.6 1.7-1 2.5-1.6q0.9-0.8 1.2-1.5c1.5 0.9 1.6 2.5-0.1 3.8-0.8 0.6-1.7 1-2.5 1.6-2.1 1.9-2 5.2-1.8 8-1.8-1.9-3.6-3.8-4.7-6.2q-0.1-0.4-0.3-0.8c1.1 1.7 2.5 3.2 3.9 4.7z"/><path class="c" d="m131.7 460.4c-0.5 0.4-1 0.6-1.5 1q-0.5 0.3-0.9 0.6c-0.8 0.7-1.3 1.5-1.6 2.5q0 0.1 0 0.3c-0.5 1.6-0.4 3.5-0.2 5.2-1.8-1.9-3.7-3.8-4.7-6.2q-0.1-0.1-0.1-0.2 0-0.1 0-0.1-0.1 0-0.1 0-0.1-0.3-0.2-0.6c-0.3-1.1-0.5-2.4-0.3-3.6 0.1-1 0.5-2 1.2-2.9 1-1.3 2.1-1.5 3.6-1.7 0.4 0.1 0.9 0.1 1.3-0.1q-0.4 0.5-0.7 1c1.2-0.3 2.4-0.6 3.5-0.1q0.5 0.3 1 0.8 0.2 0.1 0.3 0.3 0.2 0.2 0.3 0.4 0.1 0.2 0.2 0.3 0.1 0.3 0.2 0.5c0.2 1-0.5 2-1.3 2.6z"/><path class="d" d="m131.7 460.4c-0.5 0.4-1 0.6-1.5 1q-0.5 0.3-0.9 0.6c-0.8 0.7-1.3 1.5-1.6 2.5q0 0.1 0 0.3c-0.5 1.6-0.4 3.5-0.2 5.2-1.8-1.9-3.7-3.8-4.7-6.2q-0.1-0.1-0.1-0.2 0-0.1 0-0.1 0 0 0 0.1c1 1.6 2.4 3 3.8 4.4-0.2-1.1-0.2-2.4-0.1-3.6q0-0.1 0-0.1c0.1-1.1 0.3-2.2 0.9-3.1q0.4-0.7 1-1.2c0.7-0.6 1.6-1 2.4-1.6 0.7-0.5 1.3-1.3 1.3-2.1q0.2 0.1 0.3 0.3 0.2 0.2 0.3 0.4 0.1 0.2 0.2 0.3 0.1 0.3 0.2 0.5c0.2 1-0.5 2-1.3 2.6z"/><path class="e" d="m320.1 459.1v0.1c0 1-0.2 1.9-0.6 2.7q-0.1 0.2-0.2 0.3c-1.5 2.2-4.6 2.9-7.2 3.3q-0.6 0.1-1.1 0.2c-3.3 0.6-6.6 0.4-9.9 0.4q-0.9 0-1.9 0-0.3 0-0.6 0-2.7 0.2-5.3 0.3-1.8 0.1-3.6 0.1-1.2 0.1-2.3 0.1-5 0.2-10 0.2-1.3 0.1-2.5 0-0.3 0-0.6 0-0.4 0-0.7 0h-0.1c-0.2 0-0.5 0-0.8 0q-0.7-0.1-1.3-0.1-0.2 0-0.3 0-1-0.1-2.2-0.2-0.4 0-0.9-0.1-0.1 0-0.2 0c-2.6-0.3-5.4-0.7-7.6-1.5-3.3-1.1-5.5-2.6-5.8-6.2-0.4-5.9 3-9.7 4.8-14.9 2.9-7.7-4.5-13.8-8.6-19q-0.4-0.5-0.7-1.2 0 0 0 0-0.1-0.1-0.1-0.2-0.4-1.2-0.4-2.3 0-0.3 0-0.6 0.1-0.7 0.3-1.4c0.5-1.8 1.3-3.5 2.3-5.1q0 0 0 0c2.2-3.6 4.9-7 5.9-11.1q0-0.2 0.1-0.4c0.4-1.7 0.6-3.4 0.5-5.2q0-0.3-0.1-0.7-0.3-2.7-1.7-5.6-0.4-0.7-0.8-1.5c-3.4-6.1-8.4-11-11.9-17.1-1.1-1.9-2.2-4-3-6.1-1.9-5-3-10.4-2.8-15.8 0.2-7-1.5-13.8 2-20.3 1.2-2.5 2.9-4.8 4.7-7 2.8-3.3 5.9-6.4 8.8-9.4 7.2-7.4 17.5-14.1 23.6-22.1-1 1.3 0.1 3.8 0.4 5.2 0.4 2.6 0.4 5.2 1 7.8 1.4 5.9 5 10.3 9 14.4 2.8 2.8 5.7 5.5 8.2 8.5 2.3 2.6 4.2 5.5 6.2 8.3 0.7 1.1 1.5 2.1 2.3 3.1q-0.9 0.1-1.8-0.1 0.8 1 1.4 2c3.1 4.3 4.9 9.3 6.6 14.4 0.5 1.5 1.1 3.2 1.6 4.9 1.2 3.9 2.2 8.1 2.2 11.9 0.5 3.5 0.3 6.7-0.8 9.7q-0.9 2.6-2.7 5.1-0.6 0.9-1.2 1.7c-3 3.9-6.1 7.6-10 10.8q-1.8 1.6-3.7 3.1-2.8 2.3-5.5 4.5-0.8 0.6-1.5 1.2-0.3 0.3-0.7 0.5-0.3 0.3-0.6 0.6c-1.4 1.1-2.6 2.1-3.8 3.3q-0.5 0.5-1.1 1.1-0.5 0.6-1 1.3-0.6 0.6-1 1.2c-2.5 3.4-2.6 6 0.5 10.6-0.7-0.1-1.5-0.3-2.1-0.6 1.2 0.7 2.4 3.4 3.5 4.6 1.3 1.3 2.8 2.5 4.2 3.8 2.9 2.4 5.8 4.7 8.9 6.8 2.8 1.9 5.3 4.9 8.8 5.1 2 0.2 4-0.6 6-0.4 2.3 0.1 4.4 1.5 5.9 3.3 0.6 0.8 1.1 1.7 1.6 2.6 0.6 1.1 1 2.3 1.3 3.5 0.2 0.7 0.4 1.4 0.5 2.1q0.2 0.8 0.2 1.6z"/><path class="f" d="m320.1 459.1v0.1c0 1-0.2 1.9-0.6 2.7q-0.1 0.2-0.2 0.3c-1.5 2.2-4.6 2.9-7.2 3.3q-0.6 0.1-1.1 0.2c-3.3 0.6-6.6 0.4-9.9 0.4q-0.9 0-1.9 0-0.3 0-0.6 0-2.7 0.2-5.3 0.3-1.8 0.1-3.6 0.1-1.2 0.1-2.3 0.1-5 0.2-10 0.2-1.3 0.1-2.5 0-0.3 0-0.6 0-0.4 0-0.7 0h-0.1c-0.2 0-0.5 0-0.8 0q-0.7-0.1-1.3-0.1-0.2 0-0.3 0-1-0.1-2.2-0.2-0.4 0-0.9-0.1-0.1 0-0.2 0c-2.6-0.3-5.4-0.7-7.6-1.5-3.3-1.1-5.5-2.6-5.8-6.2-0.4-5.9 3-9.7 4.8-14.9 2.9-7.7-4.5-13.8-8.6-19q-0.4-0.5-0.7-1.2 0 0 0 0-0.1-0.1-0.1-0.2-0.4-1.2-0.4-2.3 0-0.3 0-0.6c0.3-2.2 1.6-4.3 2.6-6.5q0 0 0 0c2.2-3.6 4.9-7 5.9-11.1q0-0.2 0.1-0.4c0.4-1.7 0.6-3.4 0.5-5.2q0-0.3-0.1-0.7-0.3-2.7-1.7-5.6-0.4-0.7-0.8-1.5c-3.4-6.1-8.4-11-11.9-17.1-1.1-1.9-2.2-4-3-6.1 0.8-2.9 2-5.6 3.4-8.2 5.3-9.4 19.5-21.9 30.7-14.2 17 11.8 25.8 37.7 21.2 57.4q-0.1 0.6-0.3 1.2-2.7 2.3-5.5 4.5-0.7 0.6-1.4 1.2-0.4 0.3-0.7 0.5-0.4 0.3-0.7 0.6c-1.3 1.1-2.6 2.1-3.7 3.3q-0.6 0.5-1.2 1.1-0.5 0.6-1 1.3-0.5 0.6-1 1.2c-2.5 3.4-2.6 6 0.5 10.6-0.7-0.1-1.4-0.3-2.1-0.6 1.3 0.7 2.5 3.4 3.5 4.6 1.4 1.3 2.8 2.5 4.3 3.8 2.8 2.4 5.7 4.7 8.9 6.8 2.7 1.9 5.2 4.9 8.8 5.1 2 0.2 4-0.6 6-0.4 2.2 0.1 4.3 1.5 5.8 3.3 0.6 0.8 1.2 1.7 1.6 2.6 0.6 1.1 1 2.3 1.4 3.5 0.2 0.7 0.3 1.4 0.5 2.1q0.1 0.8 0.1 1.6z"/><path class="g" d="m313.6 381.8q-0.8 2.6-2.6 5.1c-3.4 4.6-6.9 8.8-11.2 12.5q-4.6 3.8-9.3 7.6-0.7 0.6-1.4 1.2-0.4 0.2-0.7 0.5-0.4 0.3-0.7 0.6c-1.3 1.1-2.6 2.1-3.7 3.3q-0.6 0.5-1.2 1.1-0.5 0.6-1 1.2-0.5 0.7-1 1.3 0 0 0 0c0.1-0.6 0.3-1.1 0.5-1.6 2.6-6 6.4-8.9 11.2-12.9 3.9-3.3 7.8-6.7 11.6-10.1 1.3-1.3 2.5-2.8 3.7-4.2 0.2-0.2 0.4-0.4 0.7-0.3 0.1 0 0.2 0.2 0.2 0.3q2.3-3 5-5.6z"/><path class="g" d="m252.1 415.8c-1.2 2.4-2 5-2.3 7.6-0.5-1.3-0.5-2.9-0.1-4.3 1.6-5.8 6.9-10.2 8.2-16.2q0-0.2 0.1-0.4c0.4-1.7 0.6-3.4 0.5-5.2q0-0.3-0.1-0.7-0.2-2.7-1.7-5.6c-3.4-6.9-8.8-12-12.7-18.6-3.8-6.6-6-14.3-5.8-21.9 0.2-7.1-1.5-13.8 2-20.4 1.3-2.4 2.9-4.7 4.8-6.9 1.3-1.2 2.7-2.2 4.2-2.9 4-1.9 8.8-2.4 13.3-1q1.3 0.4 2.6 1 0 0.1 0.1 0.1 0.6 0.3 1.1 0.6c2 1.3 3.7 3.1 4.5 5.3 2.2 6.1-4.1 16.1-7.5 21-2.6 3.7-5.7 6.4-7.5 10.6-1.7 4.2-2.3 8.8-1.7 13.2q0.6-0.8 1.1-1.5c-0.1 5 1.4 9.5 3.3 14.1 1.2 2.9 3.8 6.8 3.6 10.1-0.3 8.3-6.7 14.8-10 22z"/><path class="g" d="m320.1 459.1v0.1c0 1.1-0.2 2.1-0.8 3-1.5 2.2-4.6 2.9-7.2 3.3q-0.6 0.1-1.1 0.2c-3.3 0.6-6.6 0.4-9.9 0.4q-0.9 0-1.9 0-0.3 0-0.6 0-2.7 0.2-5.3 0.3-1.8 0.1-3.6 0.1-1.2 0.1-2.4 0.1-4.9 0.2-9.9 0.2-1.3 0.1-2.5 0-0.3 0-0.6 0-0.4 0-0.7 0h-0.1c-0.2 0-0.5 0-0.8 0q-0.7-0.1-1.3-0.1-0.2 0-0.3 0-1-0.1-2.2-0.2-0.4 0-0.9-0.1-0.1 0-0.2 0c-2.6-0.3-5.4-0.7-7.7-1.5-3.2-1.1-5.4-2.6-5.7-6.2-0.4-5.9 3-9.7 4.8-14.9 2.9-7.7-4.5-13.8-8.6-19q-0.4-0.5-0.7-1.2 0 0 0 0c-0.9-2.4 5.8-1.1 6.6-0.7 4 2 6.1 6.6 6.5 10.8 0.2 1.7 0 3.2-0.4 4.7-0.9 3.5-2.8 6.8-3.8 10.4-0.4 1.6-0.8 3.3-0.6 4.9 0.9 8.4 15.8 7.9 21.8 7.8q10.1-0.1 20.2-0.7c7.3-0.5 13.8-2.2 17.9-8.8 0.5 1.1 1 2.3 1.3 3.5 0.2 0.7 0.4 1.4 0.5 2.1q0.2 0.8 0.2 1.6z"/><path class="c" d="m279.8 456.1c-0.2 0.2-0.4 0.4-0.4 0.4q0.3 0.1 0.7 0.1c-2.2 0.3-1.7 2.8-0.4 3.8 0.8 0.6 1.7 1 2.5 1.6 2.1 1.9 2 5.2 1.8 8 1.8-1.9 3.6-3.8 4.7-6.2 1-2.4 1.1-5.3-0.5-7.4-1.1-1.4-3-2-4.8-1.9-0.8 0.1-1.6 0.3-2.4 0.7-0.1 0.1-0.8 0.6-1.2 1z"/><path class="d" d="m289.3 461c-0.6 2.5-2.1 4.7-3.6 6.9-0.2-2.9-0.6-6.1-3.1-7.6-0.8-0.5-1.8-0.7-2.7-1.2-0.5-0.3-1-0.8-1.3-1.4-0.2 0.9 0.3 2.1 1.1 2.7 0.8 0.6 1.8 1 2.5 1.6 2.1 1.9 2.1 5.2 1.8 8 1.8-1.9 3.6-3.8 4.7-6.2 0.4-1 0.7-2.1 0.7-3.2q0 0.2-0.1 0.4z"/><path class="c" d="m295.2 460.4c0.8 0.6 1.7 1 2.4 1.6 2.2 1.9 2.1 5.2 1.8 8 1.8-1.9 3.7-3.8 4.7-6.2 1.1-2.3 1.1-5.3-0.5-7.4-1-1-1.5-1.3-2.9-1.6q0.3 0.5 0.4 1c-1-0.6-1.8-1.4-3-1.2-0.3 0-2.9 1.2-2.8 1.4q0.2 0.2 0.3 0.3c-2 0.9-2.3 2.7-0.4 4.1z"/><path class="d" d="m300.5 467.7c0.3-2.8 0.4-6.1-1.8-8-0.7-0.6-1.6-1-2.4-1.6q-1-0.8-1.2-1.5c-1.6 0.9-1.6 2.5 0.1 3.8 0.8 0.6 1.7 1 2.4 1.6 2.2 1.9 2.1 5.2 1.8 8 1.8-1.9 3.7-3.8 4.7-6.2q0.2-0.4 0.3-0.8c-1 1.7-2.5 3.2-3.9 4.7z"/><path class="c" d="m317.2 456.4c-1-1.2-2.2-1.5-3.7-1.7-0.4 0.1-0.8 0.1-1.2-0.1q0.3 0.5 0.7 1c-1.2-0.2-2.5-0.6-3.5-0.1-0.9 0.5-1.8 1.4-2 2.4-0.2 0.9 0.4 1.9 1.2 2.5 0.8 0.6 1.8 1 2.5 1.6 2.1 1.9 2.1 5.2 1.8 8 1.8-1.9 3.6-3.8 4.7-6.2 1-2.3 1.1-5.3-0.5-7.4z"/><path class="d" d="m314 468c0.3-2.8 0.4-6.1-1.8-8-0.7-0.6-1.7-1-2.5-1.6-0.6-0.5-1.2-1.3-1.2-2.1-0.5 0.4-0.9 1-1 1.6-0.2 0.9 0.4 1.9 1.2 2.5 0.8 0.6 1.8 1 2.5 1.6 2.2 1.9 2.1 5.2 1.8 8 1.8-1.9 3.6-3.8 4.7-6.2q0.1-0.2 0.1-0.3c-1 1.6-2.4 3.1-3.8 4.5z"/><path class="c" d="m113.5 334.5c0 0-0.1 0.1-0.1 0.1-0.5 0.2-1.1 0-1.6-0.2-0.8-0.2-1.5-0.7-2.2-1.1q-0.4-0.3-0.7-0.5c-1.6-1.1-2.8-2.7-3.5-4.4-0.1-0.3-0.2-0.6-0.2-1 0-0.4 0.3-0.8 0.6-1.1 0.8-0.9 1.7-1.5 2.8-2.1 1.2-0.6 2.7-1.1 4.1-0.7 0.5 0.2 0.9 0.4 1.2 0.8 0.3 0.7 0.1 1.5 0 2.2q-0.2 0.8-0.2 1.7c-0.1 1.4 0 2.9 0.1 4.4 0.1 0.6 0.3 1.5-0.3 1.9z"/><path class="d" d="m113.8 326.5q-0.1 0.8-0.1 1.7-0.1 0-0.2 0.1c-0.9 0.7-2.2 0.7-3.1 1.5-0.6 0.6-0.8 1.4-0.9 2.2q0 0.7 0.1 1.3-0.4-0.3-0.8-0.5c-1.5-1.1-2.7-2.7-3.4-4.4-0.1-0.3-0.2-0.6-0.2-0.9 0-0.5 0.3-0.8 0.6-1.2 0.8-0.9 1.7-1.5 2.8-2.1 1.2-0.6 2.7-1.1 4.1-0.7 0.5 0.2 0.9 0.4 1.1 0.8 0.4 0.7 0.2 1.5 0 2.2z"/><path class="c" d="m101.8 327.5q-0.1 0.4-0.2 0.8-0.1 0.2-0.1 0.4-0.1 0-0.1 0 0 0.1 0 0.1-0.2 0.6-0.3 1.2 0 0.3-0.1 0.6c-0.2 1.3-0.2 2.7-0.3 4.1 0 0.6 0.1 1.5-0.6 1.9q0 0-0.1 0c-0.5 0.2-1.2-0.1-1.7-0.3-0.7-0.4-1.4-0.9-2-1.5q-0.4-0.3-0.8-0.6-0.3-0.4-0.6-0.7c-1.2-1.3-1.9-2.8-2.3-4.4-0.1-0.3-0.2-0.6-0.2-0.9q0 0 0-0.1 0.1-0.4 0.4-0.7 0.2-0.2 0.4-0.4c0.9-0.8 2-1.4 3.2-1.8 1.4-0.5 3-0.8 4.4-0.2 0.5 0.2 0.9 0.5 1.1 1 0.2 0.5 0.1 1-0.1 1.5z"/><path class="d" d="m101.8 327.5q-0.1 0.4-0.3 0.8 0 0.2-0.1 0.4 0 0 0 0 0 0.1 0 0.1-0.2 0.6-0.3 1.2-0.1 0.3-0.1 0.6c-1.2-0.2-2.5-0.1-3.6 0.4-1.1 0.5-2.1 1.4-2.6 2.5-1.1-1.3-1.9-2.8-2.3-4.4-0.1-0.3-0.1-0.6-0.1-0.9q0.1-0.4 0.4-0.8 0.1-0.2 0.4-0.4c0.9-0.8 2-1.4 3.2-1.8 1.4-0.5 3-0.8 4.4-0.2 0.4 0.2 0.9 0.5 1 1 0.2 0.5 0.1 1 0 1.5z"/><path class="c" d="m88.4 327c0 0.3-0.1 0.7-0.2 1q-0.1 0.3-0.2 0.5-0.3 0.8-0.5 1.7-0.1 0.3-0.1 0.6c-0.3 1.3-0.3 2.6-0.4 3.9-0.1 0.6 0 1.5-0.6 1.9q-0.1 0-0.2 0c-0.5 0.2-1.2-0.1-1.6-0.4q-1.2-0.6-2.1-1.5-0.4-0.4-0.8-0.7-0.5-0.5-1-1.1c-0.9-1.2-1.5-2.6-1.8-4-0.1-0.3-0.2-0.6-0.1-0.8q-0.1-0.1 0-0.1c0.1-0.5 0.4-0.8 0.8-1.1 0.9-0.8 2.1-1.3 3.2-1.6 1.5-0.5 3.1-0.7 4.5 0 0.4 0.2 0.9 0.6 1 1q0.1 0.2 0.1 0.4c0 0.1 0 0.2 0 0.3z"/><path class="d" d="m88.4 327c0 0.3-0.2 0.6-0.2 1q-0.1 0.3-0.2 0.5-0.3 0.8-0.5 1.7-0.1 0.3-0.1 0.6-0.6-0.1-1.1-0.1c-0.7 0.1-4.6 0.9-5.6 2.1-0.9-1.1-1.5-2.5-1.8-3.9-0.1-0.3-0.2-0.6-0.1-0.9q0 0 0-0.1c0.1-0.4 0.4-0.7 0.8-1 0.9-0.8 2.1-1.3 3.2-1.7 1.5-0.4 3.1-0.6 4.5 0.1 0.4 0.2 0.9 0.5 1.1 1q0 0.2 0 0.4c0 0.1 0 0.2 0 0.2z"/><path class="e" d="m177.7 152.4c-1.9 13.9-4.9 27.6-7 41.3-2.2 13.9-5.9 27.5-9.8 41-3.5 11.7-6.2 23.5-11.7 34.6-4.8 9.8-10.9 19-18.3 27.1-1.4 1.6-2.9 3.2-3.9 5-2.5 4.7-3.6 11.2-6 16.7-1.5 3.3-3.4 6.1-6.3 8-1.7 1-3.6 1.7-5.5 1.9-2 0.3-4 0.1-5.8-0.5-2.3 2-5.7 2.6-8.5 1.6-2.1-0.7-4.1-2.3-6.3-1.5-0.8 0.3-1.5 1-2.3 1.4q-0.8 0.6-1.7 0.8c-3.5 1.1-7.1-1-10-4.2-3.3-3.6-5-7.5-5.8-11.5-1.7-8.8 1.1-18.3 2.5-27.5q0-0.3 0.1-0.5c0.5-3.8 1.3-7.6 2.2-11.3 2.4-9.5 5.7-18.8 9.7-27.9 3.8-8.8 8-17.3 12.4-25.5q0.9-1.6 1.8-3.2 1.3-2.5 2.8-4.9c2.3-4 4.8-7.8 7.6-11.7 5.2-7 9.9-14.4 14.8-21.7q0.7-1 1.4-2 1.4-2.2 3-4.3c4.3-6.2 8.9-12.3 14.2-17.9 5.8-6.3 14.4-15.4 23.6-18.6 2.1-0.8 4.2-1.2 6.3-1.2 7.8-0.1 7.2 11.6 6.5 16.5z"/><path class="f" d="m159.2 240.5q-0.8 3.2-1.7 6.3-0.4 1.8-1 3.7c-5 17-13.4 32.3-25.6 46-1.4 1.5-2.9 3.1-3.9 4.9-2.5 4.7-3.6 11.2-6 16.7-1.5 3.3-3.4 6.1-6.3 8-1.7 1-3.6 1.7-5.6 2-1.9 0.2-3.9 0-5.8-0.6-2.2 2-5.6 2.7-8.4 1.7-2.1-0.8-4.1-2.4-6.3-1.6-0.8 0.3-1.5 1-2.3 1.5q-0.8 0.5-1.7 0.7c-3.5 1.2-7.1-1-10-4.2-3-3.3-5.3-7.8-6-10.7-0.1-0.2-0.1-0.4-0.2-0.6q-0.1-0.8-0.2-1.6-0.1-0.6-0.1-1.3c-0.6-8.8 2.3-18.8 3.2-24.8 5.4-0.2 10.8 0.4 16.2-0.1 5.6-0.5 11-2.5 15.9-5.1 10.5-5.4 20.2-13.6 29.5-20.7 5.1-3.9 10.2-7.9 15.2-12 1.8-1.5 7.4-5 11.1-8.2z"/><path class="h" d="m127.7 192.5c0.2 5.3-1.6 10.6-4 15.3-1.6 3.3-3.6 6.5-6.5 8.7-2.9 2.3-6.9 3.4-10.4 2.1-2.7-1-4.7-3.2-6.5-5.3 2.3-4 4.8-7.8 7.6-11.7 5.1-7.1 9.9-14.4 14.8-21.7 0.9 1 1.8 2.1 2.4 3.3 1.6 2.9 2.4 6.1 2.6 9.3z"/><path class="h" d="m107.7 234.4c0.3 4.7-2 9.5-5.7 12.3-3.8 2.8-8.9 3.7-13.4 2.4-1.9-0.5-3.6-1.3-5.3-2.3 3.7-8.7 8-17.2 12.4-25.4q0.9-1.6 1.8-3.2c2.5 1.7 4.6 4.4 6.3 6.8 1.8 2.7 3.7 6.1 3.9 9.4z"/><path class="h" d="m118.1 221c-4.1 3-6.9 9.5-5.7 13.5 0.7 2.7 3 5.6 6.1 5.5 4.2 0 6.3-5.2 7.8-8.3 1.1-2.3 1.9-4.7 1.6-7.2-0.3-2.5-2.1-4.9-4.6-5.2-1.9-0.2-3.6 0.5-5.2 1.7z"/><path class="g" d="m177.7 152.4c-1.9 13.9-4.9 27.6-7 41.3-2.2 13.9-5.9 27.5-9.8 41-3.5 11.7-6.2 23.5-11.7 34.6-4.8 9.8-10.9 19-18.3 27.1-1.4 1.6-2.9 3.2-3.9 5-2.5 4.7-3.6 11.2-6 16.7-1.5 3.3-3.4 6.1-6.3 8-1.7 1-3.6 1.7-5.5 1.9-2 0.3-4 0.1-5.8-0.5-2.3 2-5.7 2.6-8.5 1.6-2.1-0.7-4.1-2.3-6.3-1.5-0.8 0.3-1.5 1-2.3 1.4q-0.8 0.6-1.7 0.8c-3.5 1.1-7.1-1-10-4.2-3.3-3.6-5-7.5-5.8-11.5q0.3 0.3 0.6 0.4c3.3 2.1 9.2 1.9 12.9 1.7 8.9-0.5 18.4-3.6 25.3-9.2 38.5-31.5 17.4-87.6 16.5-129.1q1.4-2.2 3-4.3c4.3-6.2 8.9-12.3 14.2-17.9 5.8-6.3 14.4-15.4 23.6-18.6 2.1-0.8 4.2-1.2 6.3-1.3 7.8 0 7.2 11.7 6.5 16.6z"/><path class="c" d="m327.7 329.4c2.2-0.4 4.1-2.2 5.6-4.5 0.9-1.6 2.8-4.2 2.1-6.6-0.5-1.4-1.9-2.2-2.9-2.7-2.7-1.4-3.7 0.5-4.2 3.3-0.4 2.9-0.2 7-0.5 9.6q-0.1 0.5-0.1 0.9z"/><path class="d" d="m327.7 329.4c2.2-0.4 4.1-2.2 5.6-4.5 0.9-1.6 2.8-4.2 2.1-6.6-0.5-1.4-1.9-2.2-2.9-2.7-2.7-1.4-3.7 0.5-4.2 3.3q0.8 0.8 1.3 1.8c0.5 0.8 0.8 1.8 0.8 2.8 0 1.3-0.6 2.5-1.3 3.4q-0.6 0.8-1.3 1.6-0.1 0.5-0.1 0.9z"/><path class="c" d="m341.5 331.3q0.3 0 0.5-0.1c1.8-0.5 3.2-1.9 4.5-3.6 0.2-0.3 0.4-0.5 0.6-0.8q0.1-0.3 0.3-0.6c0.6-0.8 1.3-2 1.7-3.2 0.3-0.9 0.4-1.8 0.1-2.8-0.5-1.4-1.9-2.2-3-2.7-2.6-1.4-3.6 0.5-4.1 3.3-0.1 0.9-0.2 1.8-0.2 2.8-0.2 2.4-0.1 4.9-0.3 6.8q-0.1 0.5-0.1 0.9z"/><path class="d" d="m342.9 330q-0.4 0.7-0.9 1.2c1.8-0.5 3.3-1.9 4.5-3.6 0.2-0.3 0.4-0.5 0.6-0.8q0.1-0.3 0.3-0.6c0.6-1 1.2-2.1 1.7-3.2 0.3-0.9 0.4-1.8 0.1-2.8-0.5-1.4-1.9-2.2-2.9-2.7-2.7-1.4-3.7 0.5-4.2 3.3-0.1 0.9-0.2 1.8-0.2 2.8 0.8 0.9 1.6 1.9 1.8 3.2 0.2 1.1-0.2 2.3-0.8 3.2z"/><path class="c" d="m354.2 331.3q0.3 0 0.6-0.1c1.7-0.5 3.2-1.9 4.5-3.6 0.2-0.3 0.3-0.5 0.5-0.8q0.2-0.3 0.3-0.6c0.6-0.8 1.3-2 1.7-3.2 0.3-0.9 0.4-1.8 0.1-2.8-0.4-1.4-1.9-2.2-2.9-2.7-2.6-1.4-3.7 0.5-4.1 3.3-0.1 0.9-0.2 1.8-0.3 2.8-0.1 2.4-0.1 4.9-0.2 6.8q-0.1 0.5-0.2 0.9z"/><path class="d" d="m355.7 330q-0.4 0.7-0.9 1.2c1.7-0.5 3.2-1.9 4.5-3.6 0.2-0.3 0.3-0.5 0.5-0.8q0.2-0.3 0.3-0.6c0.7-1 1.3-2.1 1.7-3.2 0.3-0.9 0.4-1.8 0.1-2.8-0.4-1.4-1.9-2.2-2.9-2.7-2.6-1.4-3.7 0.5-4.1 3.3-0.1 0.9-0.2 1.8-0.3 2.8 0.9 0.9 1.7 1.9 1.9 3.2 0.1 1.1-0.3 2.3-0.8 3.2z"/><path class="i" d="m267 139.8v0.1c-0.1 2.4 0.4 4.7 0.6 7 0.5 9.4 2.2 18.8 4.4 28.1 1.1 4.9 2.3 9.7 3.6 14.5 3.3 12.5 8.2 24.8 15.7 35.5 4.2 6 8 11.4 10.9 18.4-0.1-1.3 0.7-2.5 1.9-3q1.1 4.9 3.2 9.5c-0.2-1.6 0.7-2.9 2-3.4 2.5 6.2 5.2 10.3 6.2 17.4 1.7 11.9 0.5 21.6-1.5 33.5q1.4-1.7 3-3.3c-1 4.9-0.8 10 0.5 14.8 0.2-1.4 0.9-2.6 1.9-3.6 0.2 3 1.5 5.7 2.8 8.3 0.4 0.7 4.6 7.6 5.2 7.3 0.9-0.5 1.7-1.2 2.3-2 1.1 0.8 1.8 2.2 1.8 3.6 1-1 2.1-2 3.3-2.8q1.3 1.8 2.6 3.6c0.9-1.4 1.9-2.8 3-4 0.5 0.9 0.5 2.1-0.1 3 1.2-0.2 2.3-0.7 3.2-1.6 0.2 0.2 3.4 3 3.4 3 1.5-0.5 2.9-1.3 4.2-2.2 0.1 1-0.1 2.1-0.6 3.1 1.9-0.5 3.6-1.6 4.9-3q1 1.6 2 3.3c0-1.6 0.4-3.3 1-4.8 1 0.9 1.5 2.4 1.2 3.7 2.1-1.3 3.9-3 5.4-5 0.5 0.7 0.7 1.6 0.5 2.4 1.2-0.9 2.5-1.8 3.4-3.1 0.8-1 1.2-2.3 1.1-3.5q-0.1-0.4-0.3-0.9 0.3 0.3 0.5 0.7 0.3 0.5 0.5 1.1 0.2 0.8 0.3 1.7c0.5-1.4 1.5-4.7 0.2-6q1.6 1.7 3.2 3.4c-0.5-4.9-2.6-8.8-2.2-13.9 0.7 1.8 1.7 3.4 3 4.7 0.7-5.7 0-11.7-2-17.1 2 1.7 3.4 4.2 3.7 6.8 0.9-6.1 0.2-12.5-2-18.3-2.3-6-3.6-12.4-6.3-18.3q1.6 0.3 3.2 0.6c-1.4-1.6-2.2-3.5-3.1-5.3 1 0.7 3.7 0.8 4.4 1.3-0.8-0.9-6.1-9.1-5.5-9.4 1-0.4 2-0.3 3 0-3.1-3.2-5.7-6.9-7.4-11q1.8 0.4 3.7 0.7c-2.5-5.3-5.8-10.3-9.9-14.4q2.8 1.7 5.6 3.5c-3.3-6-7.4-11.5-12.1-16.4q2 0.8 4 1.6c-3.7-5.9-8.2-11.3-13.4-15.9 1.2 0.1 2.3 0.3 3.5 0-0.8-2-9-12.9-11.7-12 1.2-0.4 2.6-0.4 3.8 0.1-2.9-4.2-6.5-6.4-10.4-9.5-2.6-2-4.8-5.8-7.7-7.3 1.7 0.8 3.7 0.7 5.2-0.3-4-1.3-14.2-10.5-17.7-10.1q2.5-0.3 4.9-0.5c-3.6-2.4-7.5-4.4-11.5-6 1.4-0.1 2.9-0.7 4-1.7-6.6-0.3-12.7-2.2-18.7-4.5-2-0.8-4-1.6-6-2.5-1.9-0.8-3.8-1.4-5.7-2.1q0-0.1-0.1-0.1c-1.3-0.5-2.7-1-4.1-0.6q-0.5 0.1-0.9 0.3c-0.9 0.6-0.9 1.8-1 2.8z"/><path class="j" d="m267 139.8v0.1c-0.1 2.4 0.4 4.7 0.6 7 0.5 9.4 2.2 18.8 4.4 28.1 1.1 4.9 2.3 9.7 3.6 14.5 3.3 12.5 8.2 24.8 15.7 35.5 4.2 6 8 11.4 10.9 18.4-0.1-1.3 0.7-2.5 1.9-3q1.1 4.9 3.2 9.5c-0.2-1.6 0.7-2.9 2-3.4 2.5 6.2 5.2 10.3 6.2 17.4 1.7 11.9 0.5 21.6-1.5 33.5q1.4-1.7 3-3.3c-1 4.9-0.8 10 0.5 14.8 0.2-1.4 0.9-2.6 1.9-3.6 0.2 3 1.5 5.7 2.8 8.3 0.4 0.7 4.6 7.6 5.2 7.3 0.9-0.5 1.7-1.2 2.3-2 1.1 0.8 1.8 2.2 1.8 3.6 1-1 2.1-2 3.3-2.8q1.3 1.8 2.6 3.6c0.9-1.4 1.9-2.8 3-4 0.5 0.9 0.5 2.1-0.1 3 1.2-0.2 2.3-0.7 3.2-1.6 0.2 0.2 3.4 3 3.4 3 1.5-0.5 2.9-1.3 4.2-2.2 0.1 1-0.1 2.1-0.6 3.1 1.9-0.5 3.6-1.6 4.9-3q1 1.6 2 3.3c0-1.6 0.4-3.3 1-4.8 1 0.9 1.5 2.4 1.2 3.7 2.1-1.3 3.9-3 5.4-5 0.5 0.7 0.7 1.6 0.5 2.4 1.2-0.9 2.5-1.8 3.4-3.1 0.8-1 1.2-2.3 1.1-3.5-2.3 3-6.5 2.5-9.4 4.7 0.5-1.3 0.8-2.6 0.8-3.9-0.9 0.8-2.1 1.5-3.3 1.8 0.3-0.9 0.3-1.9 0-2.8 0.1 0.4-7 3.4-7.7 3.5-3.1 0.4-5.1-1.7-7.7-3-2.8-1.5-5.7-0.6-8.9-1.5 0.8-0.4 1.3-1.3 1.3-2.2q-2 0.6-4.1 1.2c0.7-1.5 0.9-3.2 0.8-4.8q-1.1 0.6-2.3 1.1c-1.7-4.5-2.9-9-4.1-13.6-3.4-13.7-2.9-28.1-4.6-42 0.6 0.4 1.2 0.6 1.9 0.7q-1.3-3.1-1.6-6.5c0.8 0.5 1.7 0.7 2.7 0.6-1.9 0.3-10.9-23-11.9-25.9 1.2 1 2.9 1.5 4.4 1.1-3.1-3.3-5.7-7.1-7.7-11.3 1.2 0.7 2.5 1.1 3.8 1.1-4-5.2-6.6-11.6-8.1-18-0.6-2.6-2.9-20.3-5.3-20.9q1.3 0.3 2.3 1c-0.2-2.1-1.6-4.5-2.3-6.5 0.6 0.3 1.4 0.3 2.1 0.1-2.9-7.3-7-14.6-11.7-20.9-0.9-1.2-1.9-2.4-2.8-3.5q-0.8-0.9-1.5-1.9-0.1-0.2-0.3-0.3c-1.7-1.7-7.3-3.7-11.8-4.7-1.6-0.4-3.1-0.6-4.1-0.6q-0.5 0.1-0.9 0.3c-0.9 0.6-1 1.8-1 2.8z"/><path class="a" d="m297.8 191.9q0 2.7-0.1 5.3c-0.3 6.8-1.3 13.6-2.4 20.3q-0.5 3-1.2 6c-2.6 12.5-6.8 25.5-6.1 38.2q0 0.9 0.1 1.9c-0.9-0.5-1.5-1.4-1.7-2.3q-0.6 4-1.1 8c-0.1-0.6-0.4-1.2-0.9-1.6-0.7 5.2-1.8 10.2-2.7 15.4-0.3 1.7-0.7 3.5-1 5.4q-0.2 1.1-0.4 2.2-0.2 1.1-0.4 2.3-0.2 1.1-0.3 2.3-0.1 0.4-0.1 0.9c-0.3 2.2-0.4 4.3-0.3 6.4v0.2q0.1 0.6 0.1 1.2 0.1 0.4 0.1 0.7 0.1 0.7 0.2 1.3 0.1 0.8 0.4 1.6c0.1 0.5 0.3 1.1 0.2 1.7-0.1 0.5-0.4 0.9-0.7 1.2-3.5 4.9-6.7 10.1-10.3 15q-3.3 4.6-6.6 9.1-0.2-1.1-0.4-2.3c-2.1 3.2-4.1 5.6-6.8 8.2q0.1-1.3 0.2-2.7c-2.7 2-4.8 4.8-7.3 7-2.6 2.3-5.5 4.3-8.5 6-6 3.4-13 5.6-19.9 5.6h-0.5c-3.8-0.1-11.7-1.9-18.9-5-3.2-1.3-6.4-3.3-9.2-5.4-1.3-1-2.7-2-3.9-3.1-1.4-1.2-2.6-2.5-3.5-4.1q0.4 1.5 0.1 3.1c-2-2.5-3.9-5.2-5.4-8 0.1 1.2 0 2.5 0.1 3.7-4.8-7.8-10.5-14.9-15.7-22.5q-1.6-2.3-3.2-4.6c-0.3-0.4-0.6-0.7-0.6-1.2-0.2-0.6 0-1.2 0.2-1.7q0.2-0.7 0.3-1.4 0.1-0.7 0.2-1.4 0.1-0.7 0.2-1.4 0-0.7 0-1.4 0.1-1.3 0-2.5-0.1-1.7-0.2-3.4 0 0-0.1-0.1 0-0.6-0.1-1.3c-0.6-4-1.4-8-2.1-11.6q-0.3-1.9-0.7-3.8c-1.5-8-3.4-16-5.1-24-2.4-11.4-3.6-22.8-6-34.2-2.4-11.2-3.8-23.3-3.3-34.8 0-1.8 0.3-4.6 1.2-6.6-0.4 0.4-1.1 0.9-1.7 1.1 0.4-2.5 1.4-5 2.7-7.2q-0.9 0.3-1.7 0.5c2.8-8.1 7.3-15.9 11.4-23.6 2.2-4.1 5.4-7.6 8.8-10.7 1.2-1.2 2.4-2.1 3.6-3q0.6-0.5 1.2-0.9c2.5-1.6 5-3 7.7-4.7 5.3-3.3 10.6-6.8 16.4-9.1 7.1-2.8 14.2-4 21.3-4.3q0.7 0 1.4 0 3.4 0 6.8 0.1c7.7 0.5 15.4 1.8 23.1 3.3 10.6 2.1 20.3 8.8 28.6 15.7q0.1 0.1 0.3 0.2 0.7 0.7 1.5 1.3c8 7 15 15.5 18.1 25.8 1.3 4.5 2.4 9.1 3.2 13.7 0.8 4.6 1.3 9.3 1.4 14z"/><path class="b" d="m296.4 177.9c-0.8-4.6-1.9-9.2-3.2-13.7-0.9-3-2.1-5.8-3.4-8.4 0.2 0.5 0.3 1 0.5 1.5 1.3 4.5 2.3 9 3.1 13.6 0.7 4.7 1.2 9.4 1.3 14.1q0 2.6-0.1 5.2c-0.2 6.9-1.2 13.6-2.3 20.4q-0.5 2.9-1.1 6c-2.6 12.5-6.5 25.4-5.9 38.1q0 1 0.1 1.9c-0.8-0.5-1.4-1.3-1.7-2.3q-0.4 4-0.9 8.1c-0.2-0.7-0.5-1.2-0.9-1.7-0.7 5.2-1.7 10.3-2.6 15.5q-0.5 2.5-1 5.3-0.2 1.1-0.4 2.3-0.2 1.1-0.4 2.3-0.1 1.1-0.2 2.3c-1.4 11.1-4.8 21.4-9.2 31.7q-0.3-2.4-0.7-4.7c0.7 4.9-8 11.9-11 14.9-5.3 5.2-11 9.9-17.4 13.6-5.7 3.3-12.5 5.6-19.1 5.6h-0.5c-6.7-0.2-16-2.4-21.5-6.2 0.2 0.5 0.4 1.2 0.3 1.7-3.2-2.3-6.2-5-8.8-8.1q0.6 1.6 1.2 3.1c-8.8-8.7-17.8-18.1-23-29.4-5.2-11.4-5.6-22.9-7.5-34.5q-0.4-1.8-0.7-3.7c-1.5-8.1-3.3-16.1-4.9-24.1-2.3-11.3-3.5-22.8-5.8-34.1-2.3-11.2-3.6-23.4-3.2-34.8 0.1-1.8 0.3-4.7 1.2-6.7-0.4 0.5-1.1 0.9-1.7 1.1 0.4-2.5 1.4-5 2.6-7.1q-0.8 0.2-1.6 0.5 0.3-0.9 0.6-1.8c-1.4 2.8-2.6 5.8-3.7 8.7q0.9-0.2 1.8-0.5c-1.3 2.2-2.4 4.6-2.7 7.2 0.6-0.2 1.3-0.7 1.7-1.1-0.9 1.9-1.2 4.8-1.2 6.6-0.5 11.5 0.9 23.6 3.3 34.8 2.4 11.4 3.6 22.8 6 34.2 1.7 8 3.6 16 5.1 24q0.4 1.9 0.7 3.8c0.7 3.5 1.5 7.5 2.1 11.6q0.1 0.7 0.1 1.3 0.1 0.1 0.1 0.1 0.2 1.7 0.2 3.3 0.1 1.3 0 2.6c0 0.5 0 0.9 0 1.4q-0.1 0.7-0.2 1.4-0.1 0.7-0.2 1.4-0.1 0.7-0.3 1.4c-0.2 0.5-0.4 1.1-0.2 1.7 0 0.4 0.3 0.8 0.6 1.2q1.6 2.3 3.2 4.6c5.2 7.5 10.9 14.7 15.7 22.5-0.1-1.3 0-2.5-0.1-3.7 1.5 2.8 3.4 5.5 5.4 8 0.2-1 0.2-2.1-0.1-3.1 0.9 1.6 2.2 2.8 3.5 4 1.2 1.2 2.6 2.2 3.9 3.2 2.8 2.1 6 4 9.2 5.4 7.2 3.1 15.1 4.9 18.9 5h0.5c6.9 0 13.9-2.2 19.9-5.6 3-1.7 5.8-3.7 8.5-6 2.5-2.2 4.7-5 7.3-7q-0.1 1.4-0.2 2.7c2.7-2.6 4.7-5 6.8-8.2q0.2 1.2 0.4 2.3 3.3-4.5 6.6-9.1c3.6-4.9 6.8-10.1 10.3-15 0.3-0.3 0.6-0.7 0.7-1.2 0.1-0.6-0.1-1.2-0.2-1.7q-0.3-0.8-0.4-1.6-0.1-0.6-0.2-1.3 0-0.3-0.1-0.7 0-0.6-0.1-1.2v-0.2c-0.1-2.1 0-4.2 0.3-6.4q0-0.5 0.1-0.9 0.1-1.1 0.3-2.3 0.2-1.2 0.4-2.3 0.2-1.1 0.4-2.2c0.3-1.9 0.7-3.7 1-5.4 0.9-5.2 2-10.2 2.7-15.4 0.4 0.4 0.8 1 0.9 1.6q0.5-4 1-8c0.3 0.9 0.9 1.8 1.8 2.2q-0.1-0.9-0.1-1.8c-0.7-12.7 3.5-25.7 6.1-38.2q0.7-3 1.2-6c1.1-6.7 2.1-13.5 2.4-20.3q0.1-2.6 0-5.3c-0.1-4.7-0.5-9.4-1.3-14z"/><path class="b" d="m217 236.7c-1.2-0.4-2.6-0.3-3.5 0.5q0.2-2 0.5-3.9c-2 0-3.9-0.6-5.5-1.8 3.6-1.8 6.8-3.9 10.9-4.2 4.1-0.2 8.4 1.1 12.3 2.1 2.9 0.7 7.8 3.2 10.8 2.3q-6.3 1.8-12.6 3.7c-0.9 0.2-1.8 0.5-2.6 0.9-2.3 1.1-3.9 3.4-4.3 5.9q-1.1-2.3-2.2-4.5-0.7 0.9-1.5 1.8c-0.1-1.3-1.1-2.3-2.3-2.8z"/><path class="b" d="m273.1 148.1q0 0.2-0.1 0.3-0.3-0.7-0.7-1.4c-0.1 1.4-0.4 2.8-1 4.1q-0.5-0.7-0.8-1.5c0 1.7-0.2 3.5-0.9 5.1-0.3-0.6-0.5-1.2-0.5-1.9 0 3.5-3.1 7.5-5.1 10-2.6 3.4-5.6 6.4-8.7 9.3-4 3.8-8.4 6.8-13 10.1-4.6 3.4-9.5 6.4-14.4 9.4-0.1 0.1-0.3 0.2-0.5 0.2-0.4-0.1-0.3-0.6-0.2-1q0.4-1 0.7-1.9c-0.5 0.4-6.5 5-6.8 4.6q-0.8-0.9-1.7-1.7-0.2 1-0.4 2.1c-6.1-2.8-12-6.4-17.6-10.3-3.8-2.8-7.5-5.9-10.9-9.2-5.4-5.2-12.8-11-16.3-17.8q-0.3 0.8-0.7 1.5-1.5-3.4-2.9-6.8-0.3 0.3-0.6 0.7c-1.3-2.8-1.7-5.9-2.5-8.9-0.6-2.1-1.1-4.2-0.7-6.3q0.6-0.5 1.2-0.9c2.5-1.6 5-3 7.7-4.7 5.3-3.3 10.6-6.8 16.4-9.1 7.1-2.8 14.2-4 21.3-4.3q0.7 0 1.4 0 3.4 0 6.8 0.1c7.7 0.5 15.4 1.8 23.1 3.3 10.6 2.1 20.3 8.8 28.6 15.7q0.1 0.1 0.3 0.2c0.4 3.9 0.4 7.8-0.5 11z"/><path class="b" d="m271.3 135.4q-0.5 1.9-1.4 3.9c-0.6 1.4-1.1 2.7-1.8 3.9-9.1 17.5-28.7 34.3-48.8 34.8-6.3 0.1-12.4-2.1-17.8-5.1-2.8-1.6-5.5-3.5-8.1-5.5-1-0.7-6.3-4-6.2-5.3q0 0.7-0.1 1.5-2-2-3.5-4.4c0.1 0.4 0 0.9-0.3 1.2-5.3-8.3-11.7-15.5-14.2-25.3q3.4-1.9 6.6-3.9c5.3-3.3 10.6-6.8 16.4-9.1 7.1-2.7 14.2-4 21.3-4.3q0.7 0 1.4 0 3.4 0 6.8 0.2c7.7 0.4 15.3 1.7 23.1 3.2 7.3 1.5 13 4.6 18.8 9.1q2.2 1.7 4.5 3.2c1.1 0.7 2.2 1.4 3.3 2z"/><path class="a" d="m219.4 172.6c-26.5 0-65.8-23.3-61.9-51.3q0.1-0.9 0.3-1.8c2.6-12.2 7.2-39.9 14-52.8q0.9-1.7 1.8-3 1.3-1.9 2.7-3.7c4.5-5.7 9.8-11 15.9-15 5.3-3.6 11.4-5.1 17-7.7q1.5-0.7 2.9-1.5c0.1-0.1 0.3-0.2 0.4-0.2 0.3 0 0.5 0.2 0.8 0.3 0.5 0.2 1.2-0.1 1.6-0.6 0.3-0.5 0.4-1.2 0.5-1.8 0.7 0.8 1.6 1.6 2.6 1.6 0.7 0 1.3-0.3 2-0.5 0.6-0.2 1.4-0.2 1.9 0.3 0.1 0.2 0.3 0.5 0.5 0.5 0.2 0 0.3 0 0.5-0.1q1.8-1.3 3.4-2.8c-1.2 1.1 1.4 4.3 2.2 4.9q0.4 0.3 0.7 0.4c1.1 0.6 1.9 0.4 3.2 0.6 3.6 0.6 7 2.3 10.2 4 6.6 3.6 12.4 8.5 17.3 14.1q3.3 3.7 6.1 7.8 0.1 0.2 0.3 0.4 0.8 1.3 1.6 2.9c6 12.2 10.2 38.2 12.6 49.2q0.3 1.3 0.5 2.7 0.1 0.2 0.1 0.5c4.8 28.4-33.3 52.6-61.7 52.6z"/><path class="b" d="m219.4 168.4c-24.5 0-60.1-20.1-62.1-45.3-2.1 27.2 36.2 49.5 62.1 49.5 27.5 0 64-22.7 62-49.9-1.8 25.3-36 45.7-62 45.7z"/><path class="k" d="m250.8 137.8c0 11.2-19.1 20.3-31.4 20.3-12.2 0-31.3-9.1-31.3-20.3 0-11.3 18.9-38.6 31.2-38.6 12.2 0 31.5 27.3 31.5 38.6z"/><path class="l" d="m227.6 138.7l0.2-0.3q0.1-0.1 0.2-0.2 0-0.1 0-0.3 0-0.1 0-0.2-0.1-0.2-0.2-0.3l-0.1-0.1q-0.2-0.1-0.4-0.1l-0.2 0.1q-0.2 0-0.3 0.1l-0.2 0.3q-0.2 0.1-0.2 0.2-0.1 0.1-0.1 0.3 0 0.1 0.1 0.3 0 0.1 0.2 0.2l0.1 0.1q0.2 0.1 0.4 0.1h0.1q0.2-0.1 0.4-0.2z"/><path class="l" d="m229.8 135.9h0.3q0.1 0 0.2-0.1 0.2 0 0.3-0.1 0.1-0.1 0.1-0.3 0.1-0.1 0.1-0.2l-0.1-0.2q0-0.2-0.1-0.3l-0.2-0.2q-0.1 0-0.3-0.1h-0.3q-0.1 0-0.3 0.1-0.1 0.1-0.2 0.2-0.1 0.1-0.1 0.2-0.1 0.1-0.1 0.3v0.1q0.1 0.2 0.2 0.4l0.1 0.1q0.2 0.1 0.4 0.1z"/><path class="l" d="m230.3 140.4l0.3 0.3q0.1 0.1 0.2 0.1 0.1 0.1 0.3 0.1 0.1 0 0.2-0.1 0.2 0 0.3-0.1l0.1-0.2q0.1-0.1 0.1-0.3v-0.2q-0.1-0.2-0.2-0.3l-0.3-0.3q-0.1-0.1-0.2-0.1-0.1-0.1-0.3-0.1-0.1 0-0.3 0.1-0.1 0-0.2 0.1l-0.1 0.2q-0.1 0.1-0.1 0.3v0.2q0.1 0.2 0.2 0.3z"/><path class="l" d="m208 135.7v0.2q0 0.2 0.1 0.3 0 0.1 0.1 0.2 0.1 0.1 0.3 0.2 0.1 0 0.3 0h0.1q0.2-0.1 0.3-0.2l0.2-0.1q0.1-0.2 0.1-0.4v-0.2q0-0.2-0.1-0.3 0-0.1-0.1-0.2-0.1-0.1-0.3-0.2-0.1-0.1-0.3 0h-0.1q-0.2 0-0.3 0.2l-0.2 0.1q-0.1 0.2-0.1 0.4z"/><path class="l" d="m207 140.2l0.2 0.2q0.1 0.1 0.3 0.2 0.1 0.1 0.2 0.1 0.2 0 0.3-0.1 0.1-0.1 0.2-0.2l0.2-0.1q0-0.2 0.1-0.4l-0.1-0.1q0-0.2-0.2-0.4l-0.2-0.2q-0.1-0.1-0.2-0.2-0.2 0-0.3 0-0.2 0-0.3 0-0.1 0.1-0.2 0.2l-0.1 0.1q-0.1 0.2-0.1 0.4v0.2q0.1 0.2 0.2 0.3z"/><path class="l" d="m212.3 138.7v0.2q0 0.2 0.1 0.3 0 0.1 0.1 0.2 0.1 0.1 0.2 0.2 0.2 0 0.3 0h0.2q0.2 0 0.3-0.2l0.1-0.1q0.1-0.2 0.1-0.4v-0.2q0-0.2 0-0.3-0.1-0.1-0.2-0.2-0.1-0.1-0.2-0.2-0.1 0-0.3 0h-0.2q-0.2 0.1-0.3 0.2l-0.1 0.1q-0.1 0.2-0.1 0.4z"/><path class="b" d="m229 85.5c-0.3 2.1-0.4 4.1-0.1 6.3 0-0.5 1.1-1.9 1.4-2.3 0.7-0.9 1.5-1.6 2.2-2.5 1.3-1.5 2.8-2.9 4.6-3.9q-1.5-0.1-3.1 0c1.8-1.4 3.9-2.4 6-3-0.6 0.1-1.8-0.3-2.5-0.5-0.9-0.2-1.7-0.4-2.6-0.4-1.6-0.2-3.5-0.1-4.3 1.5-0.8 1.5-1.3 3.1-1.6 4.8z"/><path class="b" d="m209.5 85.5c0.4 2.1 0.4 4.1 0.1 6.3 0.1-0.5-1.1-1.9-1.4-2.3-0.7-0.9-1.4-1.6-2.2-2.5-1.3-1.5-2.8-2.9-4.6-3.9q1.6-0.1 3.1 0c-1.8-1.4-3.8-2.4-6-3 0.6 0.1 1.9-0.3 2.5-0.5 0.9-0.2 1.8-0.4 2.7-0.4 1.5-0.2 3.5-0.1 4.3 1.5 0.7 1.5 1.3 3.1 1.5 4.8z"/><path class="m" d="m187.2 95.8c-0.5 4.2 0.2 8.5 5.4 10.1 6.9 2.2 12.4-5.1 12.4-10.6 0-1.3-0.3-1.8-1.5-2.8q-0.4-0.3-0.7-0.5c-2.1-1.4-5.1-2.4-7.7-2.9q-0.3 0-0.6-0.1-0.3-0.1-0.6-0.1-0.3 0-0.5 0c-1.4-0.2-2.6-0.1-3 0.3q-0.3 0.4-0.6 0.7c-1.4 1.6-2.3 3.5-2.6 5.9z"/><path class="i" d="m187.9 95.3c0 4.7 3.8 8.5 8.6 8.5 4.7 0 8.5-3.8 8.5-8.5 0-1-0.6-1.9-1.5-2.8q-0.4-0.2-0.8-0.5c-2-1.4-5-2.4-7.6-2.9q-0.3 0-0.6-0.1-0.3 0-0.6-0.1-0.3 0-0.5 0c-1.4-0.2-2.6 0-3 0.3q-0.3 0.4-0.6 0.7c-1.2 1.5-1.9 3.4-1.9 5.4z"/><path class="n" d="m189.4 95.3c0 3.9 3.2 7.1 7.1 7.1 3.9 0 7.1-3.2 7.1-7.1 0-1.2-0.3-2.3-0.9-3.3-2.5-1.7-6.5-2.9-9.3-3.1-2.4 1.1-4 3.6-4 6.4z"/><path class="e" d="m196.5 99.2c-2.2 0-3.9-1.8-3.9-3.9 0-2.2 1.7-3.9 3.9-3.9 2.1 0 3.9 1.7 3.9 3.9 0 2.1-1.8 3.9-3.9 3.9z"/><path class="i" d="m199.3 94.7c-1 0-1.8-0.8-1.8-1.8 0-1 0.8-1.8 1.8-1.8 1 0 1.8 0.8 1.8 1.8 0 1-0.8 1.8-1.8 1.8z"/><path class="m" d="m251.5 95.8c0.5 4.2-0.2 8.5-5.3 10.1-7 2.2-12.5-5.1-12.5-10.6 0-1.3 0.3-1.8 1.5-2.8q0.4-0.3 0.8-0.5c2-1.4 5-2.4 7.6-2.9q0.3 0 0.6-0.1 0.3-0.1 0.6-0.1 0.3 0 0.5 0c1.4-0.2 2.6-0.1 3 0.3q0.3 0.4 0.6 0.7c1.4 1.6 2.3 3.5 2.6 5.9z"/><path class="i" d="m250.8 95.3c0 4.7-3.8 8.5-8.6 8.5-4.7 0-8.5-3.8-8.5-8.5 0-1 0.6-1.9 1.5-2.8q0.4-0.2 0.8-0.5c2-1.4 5-2.4 7.6-2.9q0.3 0 0.6-0.1 0.3 0 0.6-0.1 0.3 0 0.5 0c1.4-0.2 2.6 0 3 0.3q0.3 0.4 0.6 0.7c1.2 1.5 1.9 3.4 1.9 5.4z"/><path class="o" d="m249.3 95.3c0 3.9-3.1 7.1-7.1 7.1-3.9 0-7-3.2-7-7.1 0-1.2 0.2-2.3 0.8-3.3 2.5-1.7 6.5-2.9 9.3-3.1 2.4 1.1 4 3.6 4 6.4z"/><path class="e" d="m242.2 99.2c-2.1 0-3.9-1.8-3.9-3.9 0-2.2 1.8-3.9 3.9-3.9 2.2 0 4 1.7 4 3.9 0 2.1-1.8 3.9-4 3.9z"/><path class="i" d="m239.4 94.7c-1 0-1.8-0.8-1.8-1.8 0-1 0.8-1.8 1.8-1.8 1 0 1.8 0.8 1.8 1.8 0 1-0.8 1.8-1.8 1.8z"/><path class="p" d="m219.1 129.8v10"/><path class="o" d="m237.1 142.2q-0.1 0.5-0.3 1.1-0.1 0.2-0.1 0.4c-0.5 1.2-1.3 2.4-2.5 3.5q-0.2 0.2-0.4 0.4-0.3 0.2-0.5 0.5-0.5 0.4-1.1 0.8 0 0 0 0-0.5 0.4-1.2 0.7v0.1q-0.6 0.3-1.3 0.7-1 0.5-2.2 0.9-0.3 0.1-0.6 0.2-0.2 0.1-0.5 0.1-1 0.4-2.2 0.6-2.4 0.5-5.2 0.5c-2.4 0-4.7-0.4-6.6-0.9q-0.9-0.2-1.7-0.5-0.4-0.2-0.8-0.3c-5.5-2.3-8.7-6.3-9-9q0.1 0 0.2 0c0.7 0.2 3 0.9 3.1 0.9 2.9 0.2 5.7-0.2 8.3-1.3 2.1-0.9 4.4-1.3 6.8-1.3 2.3 0 4.5 0.4 6.6 1.2l0.7 0.3c2.3 0.9 4.8 1.3 7.2 1.2h0.1c0 0 0.2 0 0.4-0.1q0 0 0 0c0.1-0.1 0.3-0.1 0.4-0.1 1-0.3 2.4-0.8 2.4-0.6z"/><path class="q" d="m235.5 142.9q0 0.1 0 0.2c-0.5 1.5-1.9 3.2-4.1 4.7-2.8 1.8-6.9 3.1-12.4 3.1-6 0-10.6-1.8-13.4-4-1.7-1.3-2.8-2.8-3.1-4.1q0-0.1 0-0.1 0.1 0 0.3 0 0.4 0.1 0.9 0.1 0.3 0.1 0.5 0.1 1.1 0.1 2.2 0 1 0 1.9-0.2 0.3 0 0.7-0.1 0.3 0 0.7-0.1 0.8-0.2 1.7-0.5 0.4-0.2 0.8-0.3 0 0 0 0 0.4-0.2 0.8-0.3 0.5-0.2 1.1-0.4 0.6-0.2 1.2-0.3 0.3-0.1 0.6-0.2 0.2 0 0.4 0 0.2-0.1 0.5-0.1 0.1 0 0.1 0 0.4 0 0.7-0.1 0.8-0.1 1.7-0.1 0.4 0 0.7 0.1 0.4 0 0.8 0 0.4 0.1 0.8 0.1 0.4 0 0.7 0.1 1.6 0.3 3 0.8l0.7 0.3q0.3 0.1 0.6 0.2 0.1 0 0.2 0 0.6 0.3 1.2 0.5 0.3 0.1 0.5 0.1 1.2 0.3 2.5 0.5 0.2 0 0.4 0 1.2 0.1 2.4 0.1 0.2 0 0.4 0 0.4 0 0.8-0.1 0.3 0 0.5-0.1z"/><path class="r" d="m235.5 143.1c-0.6 1.8-2.2 3.4-4 4.6 1.3-0.9-0.3-2.7-1.4-3.4-3.2-1.9-7-1.8-10.9-1.8-3 0-6.6 0.1-9.4 0.9-1.9 0.6-4.5 1.7-4.2 3.5-1.7-1.3-2.8-2.8-3.1-4.1q0.1 0 0.3-0.1c1-0.1 2.8 0.2 3.6 0.2q1 0 1.9-0.2 0.3 0 0.7-0.1 0.3 0 0.7-0.1 0.8-0.2 1.7-0.5 0.4-0.1 0.8-0.3 0 0 0 0 0.4-0.1 0.8-0.3 0.5-0.2 1.1-0.4 0.6-0.2 1.2-0.3 0.3-0.1 0.6-0.1 0.2-0.1 0.4-0.1 0.2-0.1 0.5-0.1 0.1 0 0.1 0 0.4 0 0.7-0.1 0.8 0 1.7 0 0.4 0 0.7 0 0.4 0 0.8 0 0.4 0.1 0.8 0.1 0.4 0.1 0.7 0.1 1.6 0.3 3 0.8l0.7 0.3q0.3 0.1 0.6 0.2 0.1 0 0.2 0 0.6 0.3 1.2 0.5 0.3 0.1 0.5 0.1 1.2 0.3 2.5 0.5 0.2 0 0.4 0 0.2 0 0.4 0c0.9 0.1 2.4-0.2 3.2 0q0.2 0.1 0.4 0.1 0 0.1 0.1 0.1z"/><path class="s" d="m211.7 146.3c0.2-0.1 0.4-0.2 0.6-0.1 0.2 0.1 0.4 0.4 0.4 0.7 0 0.3 0 0.6-0.1 0.9-0.1 0.9 0 1.9 0 2.9 0 0.1 0 0.3-0.1 0.4-0.2 0.5-1 0.2-1.3 0-0.6-0.2-1.6-1-1.6-1.9 0-1.1 0.9-2.1 1.7-2.7q0.2-0.2 0.4-0.2z"/><path class="t" d="m212.6 150.7c0-1-0.1-1.9 0-2.9q0.1-0.3 0.1-0.6c-0.1 0.9-0.2 1.7-0.9 2.5-0.1 0.1-0.2 0.2-0.4 0.3-0.7 0.3-1.6-0.9-1.7-1.3q-0.1 0.3-0.1 0.5c0 0.9 1 1.7 1.6 1.9 0.3 0.2 1.1 0.5 1.3 0 0.1-0.1 0.1-0.3 0.1-0.4z"/><path class="s" d="m226.8 146.1c-0.3-0.1-0.5-0.2-0.7-0.1-0.2 0.2-0.3 0.5-0.3 0.8 0 0.3 0.1 0.5 0.2 0.8 0.2 1 0.2 2 0.3 2.9 0 0.2 0 0.3 0.1 0.5 0.3 0.4 1 0.1 1.3-0.1 0.6-0.3 1.5-1.1 1.4-2-0.1-1.1-1.1-2.1-2-2.6q-0.1-0.2-0.3-0.2z"/><path class="t" d="m226.3 150.5c-0.1-1-0.1-1.9-0.3-2.9q-0.1-0.3-0.2-0.6c0.3 0.7 0.4 1.5 0.5 2.2 0 0.3 0.2 0.7 0.6 0.7 0.5 0.1 1.1-0.2 1.4-0.5 0.3-0.2 0.8-0.7 0.7-1q0.1 0.2 0.1 0.5c0.1 0.8-0.8 1.7-1.4 2-0.3 0.2-1 0.5-1.3 0-0.1-0.1-0.1-0.2-0.1-0.4z"/><path class="s" d="m215.6 151.3c0 0.2-0.1 0.4-0.2 0.5q-0.2 0.2-0.5 0.2-0.3 0.1-0.6 0.1c0 0-0.1 0-0.2 0-0.1 0-0.2-0.1-0.4-0.1q-0.1 0-0.3-0.1-0.1 0-0.2 0-0.2-0.1-0.4-0.3c-0.1-0.1-0.2-0.1-0.2-0.2-0.2-0.3-0.2-0.6 0-0.9q0-0.1 0.1-0.3 0.1-0.1 0.2-0.2c0.3-0.3 0.7-0.6 1-0.9 0.1-0.1 0.3-0.3 0.5-0.1 0.1 0 0.1 0.1 0.1 0.2q0.1 0.2 0.4 0.3 0 0 0.1 0.1 0.1 0 0.1 0.1c0.1 0.2 0.3 0.4 0.4 0.7 0 0 0 0 0 0.1q0 0.1 0 0.2c0 0.2 0.1 0.4 0.1 0.6z"/><path class="t" d="m215.6 151.3c0 0.2-0.1 0.4-0.2 0.5q-0.2 0.2-0.5 0.2-0.3 0.1-0.6 0.1c0 0-0.1 0-0.2 0-0.1 0-0.2-0.1-0.4-0.1q-0.1 0-0.3-0.1-0.1 0-0.2 0-0.2-0.1-0.4-0.3c-0.1-0.1-0.2-0.1-0.2-0.2-0.2-0.3-0.2-0.6 0-0.9q0-0.1 0.1-0.3 0.2 0.3 0.6 0.5 0.1 0.2 0.3 0.2c0.2 0.1 0.5 0.1 0.8 0.2 0.1 0 0.2 0 0.3 0 0.3 0 0.8-0.6 0.8-0.7q0 0 0 0.1 0 0.1 0 0.2c0 0.2 0.1 0.4 0.1 0.6z"/><path class="s" d="m216.6 149.6c0.3-0.2 0.6-0.3 0.9-0.2 0.7 0.1 1.1 0.6 1.4 1 0.4 0.7 0.9 1.6-0.4 2-0.8 0.2-2.2 0.1-2.8-0.4-0.8-0.6 0-2 0.9-2.4z"/><path class="t" d="m219 150.7c0.1 0.3-0.1 0.6-0.6 0.7-0.7 0.2-1.9 0.2-2.4-0.3-0.3-0.1-0.3-0.4-0.3-0.7-0.4 0.6-0.5 1.2 0 1.6 0.6 0.5 2 0.6 2.8 0.4 1.1-0.3 0.9-1.1 0.5-1.7z"/><path class="s" d="m224.7 149q-0.2-0.1-0.5-0.1c-0.9 0.1-1.2 1-1.2 1.4q-0.1 0.5-0.1 0.9c-0.1 1 2.7 0.8 3.3 0.1 0.4-0.5 0.1-1.1-0.4-1.5-0.2-0.2-0.6-0.6-1.1-0.8z"/><path class="t" d="m225.9 149.9c0.1 0.3 0.1 0.5-0.1 0.8-0.5 0.7-2.6 0.9-2.9 0.1q0 0.2-0.1 0.4c-0.1 1 2.8 0.8 3.4 0.1 0.4-0.5 0.1-1-0.3-1.4z"/><path class="s" d="m221.9 149.5c-0.2-0.2-0.5-0.3-0.8-0.2-0.7 0.1-1.1 0.6-1.4 1-0.3 0.7-0.8 1.6 0.4 2 0.8 0.2 2.1 0.1 2.7-0.4 0.8-0.6 0-1.9-0.8-2.4z"/><path class="t" d="m222.8 151.1c-0.5 0.5-1.9 0.5-2.7 0.3-0.4-0.1-0.6-0.3-0.7-0.5-0.2 0.6-0.2 1.1 0.7 1.4 0.8 0.2 2.1 0.1 2.7-0.4 0.3-0.3 0.3-0.6 0.2-1q0 0.1-0.2 0.2z"/><path class="s" d="m212.9 142.8q-0.1 0.2-0.2 0.4c-0.6 0.8-1.3 1.7-1.8 2.6q-0.1 0.3-0.3 0.5 0 0.2-0.1 0.3c-0.2 0.2-0.5 0.4-0.8 0.4q-0.3 0-0.4-0.3-0.1-0.1-0.1-0.3c-0.2-0.5-0.3-1.2-0.1-1.9 0-0.4 0.2-0.8 0.4-1.2 0.5-0.8 1.8-1.1 2.4-1.1 0.2 0 0.5 0 0.7 0.1q0 0 0.1 0 0 0 0.1 0.1 0 0 0.1 0.1c0 0 0 0.1 0 0.3z"/><path class="t" d="m212.9 142.8q-0.1 0.2-0.2 0.4c-0.6 0.8-1.3 1.7-1.8 2.6q-0.1 0.3-0.3 0.5c0.3-0.4 0.4-0.8 0.7-1.2 0.2-0.3 0.6-0.8 0.2-1.1q-0.2 0-0.3 0c-0.8-0.1-1.6 0.1-2.2 0.5 0.1-0.4 0.3-0.8 0.5-1.2 0.5-0.8 1.8-1 2.4-1.1 0.2 0 0.4 0 0.7 0.1q0 0 0.1 0 0 0 0.1 0.1 0 0 0 0.1c0.1 0 0.1 0.1 0.1 0.3z"/><path class="s" d="m229.2 146.2q-0.1 0.2-0.1 0.3c-0.1 0.2-0.2 0.3-0.4 0.3-0.3 0-0.5-0.2-0.7-0.4q-0.1-0.1-0.2-0.3c0 0 0 0 0 0q-0.2-0.3-0.3-0.5c-0.5-0.9-1.2-1.7-1.7-2.5q-0.2-0.2-0.3-0.4c-0.1-0.5 0.6-0.5 0.9-0.5q0.2 0 0.3 0 0.1 0 0.3 0 0.2 0.1 0.3 0.1c0.5 0.2 1.1 0.4 1.4 0.9 0.2 0.3 0.4 0.7 0.5 1.1 0.1 0.7 0.1 1.4 0 1.9z"/><path class="t" d="m229.2 144.3c-0.3-0.1-0.6-0.2-0.8-0.2q-0.3-0.1-0.5-0.1c-0.3-0.1-0.5-0.1-0.8 0-0.4 0.1-0.2 0.5 0 0.8q0.4 0.6 0.7 1.3-0.2-0.3-0.3-0.5c-0.5-0.9-1.2-1.7-1.7-2.5q-0.2-0.2-0.3-0.4c-0.1-0.5 0.6-0.5 0.9-0.5q0.2 0 0.3 0 0.1 0 0.3 0 0.1 0 0.3 0.1c0.5 0.2 1.1 0.4 1.4 0.9 0.2 0.3 0.4 0.7 0.5 1.1z"/><path class="s" d="m215.4 142c0-0.2-0.1-0.3-0.2-0.5q-0.1-0.1-0.4-0.2-0.2 0-0.5 0-0.1 0-0.1 0-0.2 0-0.4 0-0.2 0.1-0.4 0.2-0.2 0.1-0.3 0.3c-0.1 0-0.2 0.1-0.2 0.1q-0.3 0.5 0 1 0.1 0.3 0.3 0.5c0.2 0.4 0.5 0.6 0.8 0.9 0.1 0.1 0.2 0.3 0.4 0.2 0.1-0.1 0.1-0.2 0.1-0.3q0.1-0.1 0.3-0.3 0 0 0.1-0.1 0.1 0 0.1-0.1c0.1-0.2 0.2-0.4 0.3-0.7q0 0 0-0.1 0-0.1 0-0.2c0-0.2 0.1-0.5 0.1-0.7z"/><path class="t" d="m215.4 142c0-0.2-0.1-0.3-0.2-0.5q-0.1-0.1-0.4-0.2-0.2 0-0.5 0-0.1 0-0.1 0-0.2 0-0.4 0-0.2 0.1-0.4 0.2-0.2 0.1-0.3 0.3c-0.1 0-0.2 0.1-0.2 0.1q-0.3 0.5 0 1c0-0.1 0-0.1 0-0.2q0-0.1 0.1-0.3c0.1-0.2 0.4-0.4 0.8-0.5 0.2-0.1 0.8-0.2 0.9 0 0.1 0.1 0.1 0.2 0.1 0.3 0.1 0.3 0.3 0.5 0.5 0.8q0 0 0-0.1 0-0.1 0-0.2c0-0.2 0.1-0.5 0.1-0.7z"/><path class="s" d="m216.9 143.8c0.2 0.2 0.5 0.3 0.8 0.2 0.6-0.2 1-0.6 1.2-1.1 0.4-0.6 0.8-1.6-0.3-2-0.7-0.2-2-0.1-2.5 0.4-0.7 0.7 0 2 0.8 2.5z"/><path class="t" d="m219.1 142.7c0-0.3-0.1-0.7-0.6-0.8-0.7-0.2-1.7-0.1-2.2 0.3-0.2 0.2-0.2 0.4-0.2 0.7-0.3-0.5-0.4-1.2 0-1.6 0.6-0.6 1.8-0.6 2.5-0.4 1 0.3 0.8 1.1 0.5 1.8z"/><path class="s" d="m224.3 144.7q-0.1 0.1-0.4 0.1c-0.6-0.1-0.9-1.1-0.9-1.5q0-0.4-0.1-0.8c0-1.1 2.1-0.9 2.5-0.1 0.3 0.5 0.1 1-0.3 1.5-0.1 0.2-0.4 0.6-0.8 0.8z"/><path class="t" d="m225.2 143.8c0.1-0.3 0.1-0.6-0.1-0.9-0.3-0.7-1.9-0.9-2.1-0.1q0-0.2 0-0.3c-0.1-1.1 2-0.9 2.4-0.1 0.3 0.4 0.1 1-0.2 1.4z"/><path class="s" d="m221.8 143.9c-0.3 0.1-0.6 0.2-0.9 0.1-0.6-0.1-0.9-0.6-1.2-1-0.3-0.7-0.8-1.7 0.3-2 0.8-0.3 2-0.2 2.5 0.3 0.8 0.7 0 2.1-0.8 2.6z"/><path class="t" d="m222.6 142.2c-0.5-0.5-1.8-0.5-2.5-0.3-0.4 0.1-0.6 0.3-0.7 0.5-0.2-0.6-0.2-1.2 0.6-1.4 0.8-0.2 2-0.2 2.6 0.3 0.3 0.3 0.3 0.7 0.2 1.1q-0.1-0.1-0.2-0.2z"/><path class="o" d="m237.1 142.2q-0.1 0.5-0.3 1.1-0.1 0.2-0.1 0.4c-0.5 1.2-1.3 2.4-2.5 3.5q-0.2 0.2-0.4 0.4-0.3 0.2-0.5 0.5-0.5 0.4-1.1 0.8 0 0 0 0-0.5 0.4-1.2 0.7v0.1q-0.6 0.3-1.3 0.7-1 0.5-2.2 0.9-0.3 0.1-0.6 0.2-0.2 0.1-0.5 0.1-1 0.4-2.2 0.6-2.4 0.5-5.2 0.5c-2.4 0-4.7-0.4-6.6-0.9q-0.9-0.2-1.7-0.5-0.4-0.2-0.8-0.3c-5.5-2.3-8.7-6.3-9-9v-0.1c0 0 0.1 0.1 0.2 0.1 0.3 0.2 1 0.6 1.6 0.7q-0.1 0-0.2 0 0 0 0 0.1c0.3 1.3 1.4 2.8 3.1 4.1 2.8 2.2 7.4 4.1 13.4 4.1 5.5 0 9.6-1.4 12.4-3.2 2.3-1.4 3.6-3.2 4.1-4.7q0-0.1 0.1-0.2-0.3 0-0.5 0.1-0.4 0-0.9 0h-0.3c0 0 0.2 0 0.4-0.1q0 0 0 0c0.1-0.1 0.3-0.1 0.4-0.1 1-0.3 2.4-0.8 2.4-0.6z"/><path class="u" d="m242.8 138.5c-6.2 4.7-11.2 7.9-18.5 3.8-2.2-1.2-5.1-1.4-7.2-1h0.2c-0.7 0.1-1.6 0.3-2.2 0.6l-1.7 0.8c-3.7 2.2-10 1.6-13.6-1.5-1.2-0.9-2.5-1.8-3.8-2.7 1.4 0.7 2.8 1.4 4.2 2.1 3.9 2.5 9 2.9 13 0.4 1.3-0.7 2.7-1.2 3.9-1.4 1.4-0.3 4.7-0.2 6.7 0.7 0.7 0.2 1.6 0.7 2.2 1.1 2.6 1.4 5.7 1.8 8.5 1 2.9-0.8 5.5-2.6 8.3-3.9z"/><path class="v" d="m231 128.3q0 0.5-0.1 0.9 0 0.2 0 0.3 0 0.1 0 0.3c-0.8 4.6-8.2 7.2-11.2 7.3q-0.1 0-0.1 0-0.1 0-0.2 0 0 0-0.1 0c-3.1-0.2-10.2-2.9-11-7.4q0-0.1-0.1-0.2 0-0.2 0-0.3 0-0.5 0-0.9c0-6.3 5.1-10 11.4-10 6.3 0 11.4 3.7 11.4 10z"/><path class="v" d="m231 128.3q0 0.5-0.1 0.9 0 0.2 0 0.3 0 0.1 0 0.3c-0.8 4.6-8.2 7.2-11.2 7.3q-0.1 0-0.1 0-0.1 0-0.2 0 0 0-0.1 0c-3.1-0.2-10.2-2.9-11-7.4q0-0.1-0.1-0.2 0-0.2 0-0.3 0-0.5 0-0.9c0-6.3 5.1-19.2 11.4-19.2 6.3 0 11.4 12.9 11.4 19.2z"/><path class="w" d="m230.9 129.2q0 0.2 0 0.3 0 0.1 0 0.3c-0.8 4.6-8.2 7.2-11.2 7.3q-0.1 0-0.1 0-0.1 0-0.2 0 0 0-0.1 0c-3.1-0.2-10.2-2.9-11-7.4q0-0.1-0.1-0.2 0-0.2 0-0.3c0.5-5.2 5.4-8 11.4-8 6 0 10.9 2.8 11.4 8z"/><path class="x" d="m219.4 130.4c0.8 1.9 0.8 4.1-0.1 6-0.8-1.9-0.7-4.1 0.1-6z"/><path class="e" d="m205.7 41.7q0 0.1 0 0.2 0 0 0 0.1 0 0.1 0 0.1 0 0.1-0.1 0.3-0.1 0.3-0.3 0.5 0 0.1-0.1 0.1 0 0.1-0.1 0.1c-0.5 0.4-1.2 0.7-2 0.8-0.6 0.1-1.2 0.2-1.8 0.4q-0.1 0-0.2 0-0.3 0.1-0.6 0.2c-1.4 0.5-2.5 1.2-3.5 2.1q-0.1 0.1-0.2 0.2-0.3 0.3-0.5 0.6-1.2 1.3-2.1 2.8 0 0-0.1 0.1 0 0 0 0 0 0.1-0.1 0.2-0.1 0.1-0.2 0.3-0.1 0.2-0.3 0.4 0 0.2-0.1 0.3-0.1 0.2-0.2 0.4-0.2 0.2-0.3 0.4-0.1 0.2-0.1 0.3-0.1 0.2-0.3 0.4 0 0.1-0.1 0.2-0.2 0.5-0.5 1 0 0.2-0.1 0.3-0.2 0.4-0.3 0.7-0.2 0.4-0.4 0.7-0.2 0.6-0.5 1.2-0.3 0.7-0.5 1.3-0.3 0.7-0.6 1.3-0.1 0.4-0.2 0.7-0.3 0.5-0.5 1-0.2 0.7-0.5 1.3-0.2 0.5-0.4 1.1-0.5 1.1-1 2.3-0.2 0.6-0.5 1.1-0.2 0.6-0.5 1.2-0.2 0.6-0.5 1.2-0.2 0.4-0.4 0.8-0.1 0.2-0.2 0.3-0.4 0.9-0.8 1.8-0.2 0.2-0.3 0.5-0.2 0.3-0.4 0.7-0.1 0.2-0.2 0.4-0.4 0.8-0.9 1.5-0.2 0.5-0.5 0.9-0.3 0.6-0.7 1.2-0.4 0.6-0.7 1.2-0.3 0.5-0.6 0.9-0.8 1.3-1.7 2.7-0.6 0.8-1.2 1.7-0.2 0.3-0.4 0.6-0.2 0.2-0.4 0.5-0.6 0.9-1.3 1.7-0.2 0.3-0.4 0.5-0.2 0.3-0.5 0.6-0.2 0.3-0.4 0.5-0.3 0.3-0.5 0.7-1.4 1.5-2.8 3c-3.3 3.4-8 8.3-13.3 6.3-0.3-0.2-0.7-0.3-0.9-0.6-0.4-0.5-0.3-1.2-0.3-1.8q0-0.1 0-0.2 0-0.1 0-0.2c1-14.9-8.8-28.1-8-43 0.1-1.7 0.2-3.5 1.1-5 1.3-2 3.8-3.2 6.2-4q2.4-0.9 4.8-1.5 1.8-0.5 3.6-0.9 0.3 0 0.6-0.1 0.9-0.2 1.8-0.4c1.9-0.4 3.7-0.8 5.5-1.3q1.2-0.3 2.4-0.7c3.3-1.2 6.7-3.1 10-4.1q0.7-0.2 1.4-0.4 0.3 0 0.7-0.1 0.1 0 0.2 0c4.8-0.7 10.6-0.3 14.9 1.7 1.8 0.8 3.5 1.9 4.3 3.5q0.1 0.2 0.2 0.4 0.1 0.3 0.2 0.6 0.2 0.7 0.2 1.2z"/><path class="g" d="m205.6 42.4q-0.1 0.3-0.3 0.5 0 0.1-0.1 0.1 0 0.1-0.1 0.1c-0.5 0.4-1.2 0.7-2 0.8-0.6 0.1-1.2 0.2-1.8 0.4q-0.1 0-0.3 0-0.2 0.1-0.5 0.2c-1.4 0.5-2.5 1.2-3.5 2.1q-0.1 0.1-0.2 0.2-0.3 0.3-0.5 0.6-1.2 1.3-2.1 2.8 0 0-0.1 0.1 0 0 0 0-0.1 0.1-0.1 0.2-0.1 0.1-0.2 0.3-0.1 0.2-0.3 0.4-0.1 0.2-0.1 0.3-0.1 0.2-0.2 0.4-0.2 0.2-0.3 0.4-0.1 0.2-0.1 0.3-0.2 0.2-0.3 0.4 0 0.1-0.1 0.2-0.2 0.5-0.5 1 0 0.2-0.1 0.3-0.2 0.4-0.4 0.7-0.1 0.4-0.3 0.7-0.2 0.6-0.5 1.2-0.3 0.7-0.5 1.3-0.3 0.7-0.6 1.3-0.1 0.4-0.3 0.7-0.2 0.5-0.4 1-0.2 0.7-0.5 1.3-0.2 0.5-0.4 1.1-0.5 1.1-1 2.3-0.2 0.6-0.5 1.2-0.2 0.5-0.5 1.1-0.3 0.6-0.5 1.2-0.2 0.4-0.4 0.8-0.1 0.2-0.2 0.3-0.4 0.9-0.8 1.8-0.2 0.2-0.3 0.5-0.2 0.3-0.4 0.7-0.1 0.2-0.2 0.4-0.4 0.8-0.9 1.5-0.2 0.5-0.5 0.9-0.4 0.6-0.7 1.2-0.4 0.6-0.7 1.2-0.3 0.5-0.6 0.9-0.8 1.3-1.7 2.7-0.6 0.8-1.2 1.7-0.2 0.3-0.4 0.6-0.2 0.2-0.4 0.5-0.6 0.9-1.3 1.7-0.2 0.3-0.4 0.5-0.3 0.3-0.5 0.6-0.2 0.3-0.4 0.5-0.3 0.3-0.5 0.7-1.4 1.5-2.8 3c-3.3 3.4-8 8.3-13.3 6.3-0.4-0.2-0.7-0.3-0.9-0.6-0.4-0.5-0.3-1.2-0.3-1.8q0-0.1 0-0.2c0.2 0.2 0.5 0.6 0.5 0.7 0.4 0.4 0.9 0.6 1.3 0.8 3.4 1.1 6.4-1.6 8.8-3.5 2.5-2.1 4.7-4.6 6.9-7 2.2-2.4 4.4-4.6 6.2-7.2q0.4-0.6 0.8-1.2c2.6-3.8 4.3-8 5.9-12.2q2.5-6.5 4.6-13c1.2-3.9 2.8-7 5.6-10.3 1.2-1.3 2.8-2.5 4.6-3 1.8-0.6 4 0.3 4.6 1.8q0.1 0.3 0.2 0.5z"/><path class="i" d="m260.1 8.3q-0.1-0.1-0.2-0.3c-1-2.4-2.9-7.4-5.3-8-3-0.7-15.7 15.3-18.9 22.3q-0.2-1.1-0.3-2.1c-1.4 3.2-3 6.4-4.1 9.8-0.5 1.6-0.9 3.2-0.9 4.8-0.1 2 0.4 3.7 1.1 5.6 0 0-0.8-0.3-0.9-0.3 0.5 3.6 5.6 5.6 8.4 6.8 1.9 0.8 3.7 1.7 5.3 2.9 0.7 0.6 4.1 3.1 4 4.1q0.1-1 0-2c4.2 3 7.9 6.5 11.4 10.2q2.6 2.8 5.1 5.7c1.1 1.4 2.2 2.6 3.6 3.8-0.1-0.5 0.1-1 0.4-1.4 0 0.6 0.3 1.3 0.8 1.7 0.6 0.5 1-3.9 1-4.2 0.4-2.7 0.4-5.5 1.3-8.2 0.3-1 0.6-3.2 1.8-3.7q-0.9 0.3-1.7 0.7 0.6-2.8 1.2-5.6c-0.6 0.2-1.1 0.8-1.2 1.4-0.4-7.9-2.3-14.8-5-22.1-2.6-7.2-3.9-14.8-6.9-21.9z"/><path class="y" d="m237.8 35.7q0.3-0.3 0.6-0.5 0.1-0.1 0.2-0.1 0.1-0.1 0.3-0.2 0.2-0.1 0.3-0.2 0.2-0.1 0.3-0.1c0.9-0.5 1.9-0.7 2.9-0.6-0.9 0.7-2 1.6-2.1 2.9-0.2 1.8 4 3.2 4.4 1.6-0.3 1.5-0.6 3.4 0.6 4.2 0.4 0.2 0.9 0.3 1 0.7 0.6 1.8-0.4 2.7 2 2.8 0.3 0 0.9-0.2 1.5-0.5 1.1-0.6 2.3-1.6 2-2.4 1.9 4.9 6.3 12.7 10.5 15.7 5.9 4.2 1.6-13.4 0.9-15.3-2.5-6.7-4.9-12.6-6.4-19.7-0.6-2.9-1.6-8.6-2.9-11.2-0.3-0.5-0.5-0.9-0.9-1.2-0.6-0.3-2 0.8-3.7 2.5q-0.2 0.1-0.3 0.2c-2.3 2.4-5 5.8-6.3 7.7q0 0 0 0-0.2 0.2-0.3 0.4-0.1 0.1-0.2 0.2c-1.3 2.2-2.4 4.6-3.1 7.1-0.4 1.2-0.6 5.3-1.2 6z"/><path class="s" d="m253.2 42.6c1.9 4.9 6.3 12.7 10.5 15.7q0.7 0.5 1.2 0.6c-0.4 0.9-1.2 1.1-2.6 0.1-3.9-2.8-8.1-9.9-10.1-14.8 0.7-0.5 1.2-1.1 1-1.6z"/><path class="s" d="m237.8 35.7q0.3-0.3 0.6-0.5 0.1-0.1 0.2-0.1 0.1-0.1 0.3-0.2 0.2-0.1 0.3-0.2 0.2-0.1 0.3-0.1c0.4-1.3 0.6-4.6 0.9-5.6 0.8-2.5 1.9-4.9 3.2-7.1 1.6-2.7 3.7-5 5.4-7.6-2.3 2.4-5 5.8-6.3 7.7q0 0 0 0-0.2 0.2-0.3 0.4-0.1 0.1-0.2 0.2c-1.3 2.2-2.4 4.6-3.1 7.1-0.4 1.2-0.6 5.3-1.2 6z"/><path class="s" d="m242.4 34q-1.2-0.1-2.4 0.3c1.1-0.8 2.4-1.2 3.8-1.1-1 0.8-2 1.7-2.2 2.9-0.1 1.9 4.1 3.3 4.5 1.7-0.4 1.4-0.6 3.3 0.6 4.1 0.3 0.2 0.8 0.4 1 0.8 0.6 1.8-0.4 2.7 2 2.8q0.2 0 0.7-0.2-0.3 0.2-0.7 0.4c-0.6 0.3-1.1 0.5-1.4 0.5-2.4-0.1-1.4-1-2-2.8-0.2-0.4-0.6-0.5-1-0.7-1.2-0.8-1-2.7-0.6-4.2-0.4 1.6-4.6 0.2-4.4-1.6 0.1-1.3 1.1-2.2 2.1-2.9z"/></svg>