<svg version="1.2" xmlns="http://www.w3.org/2000/svg" viewBox="0 0 470 470" width="470" height="470"><style>.a{fill:#322f2a}.b{mix-blend-mode:multiply;fill:#878787}.c{fill:#5f584f}.d{mix-blend-mode:multiply;fill:#b2b2b2}.e{fill:#d8c7ad}.f{fill:#bf6d34}.g{fill:#dca43c}.h{mix-blend-mode:multiply;fill:#bf6d34}.i{fill:#665c4f}.j{fill:#e6d6bf}.k{mix-blend-mode:multiply;fill:#e6d6bf}.l{fill:#b99c8d}.m{mix-blend-mode:multiply;fill:#b99c8d}.n{fill:#e4807e}.o{mix-blend-mode:multiply;fill:#dadada}.p{mix-blend-mode:multiply;fill:#e5c2af}.q{fill:#4e463c}.r{fill:#fff}.s{fill:#ecd934}.t{fill:#1d1d1b}.u{fill:#e5c2af}.v{fill:#ededed}.w{fill:#dadada}.x{fill:#332f2a}</style><path class="a" d="m126.9 341.9c-0.1 0.2-0.4 0.4-0.7 0.6-1.8 1.1-3.8 1.5-5.7 1.9-1.1 0.3-2.2 0.6-3.3 1-3.4 1.4-3.3 2.1-5.6 5.2-1.9 2.7-3.9 4.1-6.8 4.7q-1 0.2-2.1 0.3-0.4 0-0.8 0-1.5 0.1-3-0.2-0.7-0.1-1.4-0.2c-1.4-0.3-2.7-0.5-3.9 0.2-2.5 1.5-4.7 1.6-7.1 0.8q-0.4-0.2-0.7-0.3-0.2-0.1-0.4-0.2-0.1 0-0.3-0.1-0.4-0.2-0.8-0.4-0.5-0.3-1-0.6c-4.3-2.7-10.7-7.3-13.5-12.3q-0.5-0.8-0.8-1.8-0.5-1.1-0.8-2.3c-1-3.4-1.6-7.4-2-11.2-0.3-2.9-0.6-5.7-0.9-8.2q-0.1-0.3-0.1-0.6c-0.9-5.3-1-11-0.5-16.8 2-8.4 5.1-16.3 8-22.2 3.6-7.5 7.1-15.1 14.3-16.3 3.6 2.2 6.5 8 8.7 13.7 2.8 7.5 5.9 14.8 9.8 21.5q0.2 0.4 0.4 0.7 0.3 0.5 0.7 0.9 0.2 0.3 0.4 0.5c3.7 5.1 6.7 10.4 10.3 15.5q0.4 0.5 0.7 1c0.8 1.1 1.6 2.3 2.1 3.6 0.7 1.8 0.9 3.6 1 5.4 0.2 2.3 0.3 4.5 1.1 6.6q0 0.1 0 0.2c0.4 0.9 0.9 1.9 1.4 2.8 0.7 1.3 1.5 2.6 2.2 3.9q0.5 0.8 0.9 1.7c0.1 0.3 0.3 0.6 0.2 1z"/><path fill-rule="evenodd" class="b" d="m126.9 341.9c-0.1 0.3-0.4 0.4-0.7 0.6-1.8 1.1-3.8 1.5-5.7 1.9-1.1 0.3-2.2 0.6-3.3 1-3.4 1.4-3.3 2.1-5.6 5.2-1.9 2.7-3.9 4.1-6.8 4.7q-1 0.2-2.1 0.3-0.4 0-0.8 0-1.5 0.1-3-0.2-0.7-0.1-1.4-0.2c-1.4-0.3-2.7-0.5-3.9 0.2-2.5 1.5-4.7 1.6-7.1 0.8q-0.4-0.2-0.7-0.3-0.2-0.1-0.3-0.2-0.2 0-0.4-0.1-0.4-0.2-0.8-0.4-0.5-0.3-1-0.6c-4.3-2.7-10.7-7.3-13.5-12.3q-0.5-0.8-0.8-1.8-0.5-1.1-0.8-2.3c1.5 5.4 9.5 8.6 14.4 9.7-1.3-2.4-7.3-16.7-6.1-18.6q-1.2 1.9-2.4 3.7c-1.6-1.5-7.2-7-6.6-9.6-0.2 0.8-0.8 2.2-1.3 3.6-0.3-2.9-0.6-5.7-0.9-8.2q-0.1-0.3-0.1-0.6c-0.9-5.3-1-11-0.5-16.8 2-8.4 5.1-16.3 8-22.2 3.6-7.5 7.1-15.1 14.3-16.3 3.6 2.2 6.5 8 8.7 13.7 2.8 7.5 5.9 14.8 9.8 21.5q0.2 0.4 0.4 0.7 0.3 0.5 0.7 0.9 0.2 0.3 0.4 0.6c3.8 5 6.7 10.3 10.4 15.4q0.3 0.5 0.7 1c-1 1.8-2.1 3.5-3 5.3-0.9 1.8-3.8 9-1.3 10.2 0.9 0.4 1.9 0.2 2.7-0.3 1.7-0.9 2.8-2.8 3.7-4.5q0.5-0.8 0.9-1.6c0.2 2.2 0.3 4.4 1.1 6.5q0 0.1 0 0.2c0.4 0.9 0.9 1.9 1.4 2.8-1.3 0.6-3.1 1.1-3.6 1.9-0.4 0.9-0.1 2 0.7 2.6 0.8 0.5 1.8 0.6 2.8 0.4 0.9-0.3 1.6-0.9 2.3-1q0.5 0.8 0.9 1.7c0.1 0.3 0.3 0.7 0.2 1zm-22.1 4.2c4.8-6-6.7-16.7-3.5-23.4-1.2 2.4-1.8 5-2 7.6q-1.8-2.5-3.2-5.2c0.1 2.9-1.3 6.3-1.3 9.6-0.1 1.6-6-2.7-6.4-3-0.4 0.5-0.2 1.3-0.1 1.9 1.3 5.7 3.9 10.5 9.5 13.1 2.1 0.9 4.9 1.3 6.5-0.2q0.3-0.2 0.5-0.4zm-3.5-23.5q0 0 0 0.1 0-0.1 0-0.1z"/><path class="c" d="m176.1 182.7q0 0.1 0 0.2-0.3 1.3-0.6 2.4-0.3 1.6-0.6 3.1 0 0.2 0 0.4c-1.4 7.2-2.7 14.6-5.1 21.5q-0.5 1.4-1.1 2.8c-6.5 14.8-20.3 23.3-27.7 37.5q0.2-1.5 0.4-3-2.4 2.1-4.8 4.2 0.2-2.6 1-5.1c-3.8 5.7-11.5 7.1-15.6 12.4-4.1 5.4-3.5 14.6-5.7 21-0.1-1.6-0.7-3.2-1.6-4.6q-0.9 5.6-2.3 11-0.9-1.6-1.8-3.2c-2.1 6-4.2 14.9-0.6 20.7 1 1.6 4.9 7.2 6.3 8-7.1-3.8-7.6-2.3-10.3 4.2-1.2-1.6-8.5-7.4-8.5-9.1q-0.8 5.8-0.4 11.7c-1.3-2-2.3-4.2-2.9-6.4-0.6 3.6-6.1 15.2-3 18.3q-2.1-2.2-4.2-4.3-0.7-0.7-1.4-1.4c-0.6 2.1-0.8 4.3-0.7 6.4-0.4-0.2-1.3-0.7-2.3-1.3-3.6-2.2-9.4-6.2-8.5-8.1q-1.1 2.4-1.6 5.1c0.5-2.2-4.9-10.1-6.2-11.9q-1.6 2.7-3.2 5.5-0.1-5.4-0.2-10.7-0.9 2.4-1.9 4.7c0-13.2 1-27 5.3-39.5 4.2-12 5-25.1 9.5-37.2-1.6 0.6-3.1 1.5-4.4 2.6q4-8.5 9-16.4-1.2 0.4-2.4 0.8c8-11.7 18.6-21.9 26-33.5 5.7-8.8 11.6-16.7 19.8-23.6-1.6-0.1-3.1 0.1-4.6 0.7 3.9-2.3 7.6-5.1 10.9-8.2q-2.1 0-4.2 0c10.9-8.3 20.8-17.1 32.9-22.3q0.2-0.1 0.5-0.2c4-1.8 8.4-3.1 13-3.9 0.5-0.1 1-0.2 1.5-0.2q0.2-0.1 0.4-0.1c11.3 8.3 4.7 35.8 1.9 49z"/><path class="d" d="m176.1 182.7q0 0.1 0 0.2-0.3 1.3-0.6 2.4-0.3 1.6-0.6 3.1 0 0.2 0 0.4c-1.4 7.2-2.7 14.6-5.1 21.5q-0.5 1.4-1.1 2.8c-6.5 14.8-20.3 23.3-27.7 37.5q0.2-1.5 0.4-3-2.4 2.1-4.8 4.2 0.2-2.6 1-5.1c-3.8 5.7-11.5 7.1-15.6 12.4-4.1 5.4-3.5 14.6-5.7 21-0.1-1.6-0.7-3.2-1.6-4.6q-0.9 5.6-2.3 11-0.9-1.6-1.8-3.2c-2.1 6-4.2 14.9-0.6 20.7 1 1.6 4.9 7.2 6.3 8-7.1-3.8-7.6-2.3-10.3 4.2-1.2-1.6-8.5-7.4-8.5-9.1q-0.8 5.8-0.4 11.7c-1.3-2-2.3-4.2-2.9-6.4-0.6 3.6-6.1 15.2-3 18.3q-2.1-2.2-4.2-4.3-0.7-0.7-1.4-1.4c-0.6 2.1-0.8 4.3-0.7 6.4-0.4-0.2-1.3-0.7-2.3-1.3-2.7-4-4.7-8.6-5.7-13.3 2.3-0.2 4.7 0.8 6.4 2.4 1-3.6 1.4-7.4 1.2-11.2q1.2 2.4 2.4 4.8c0.7-12.8 1.7-24.2 4.7-36.5q-0.9 1.1-1.8 2.2c1.4-11.9 4.5-23.4 7.2-35-1.3 0.3-2.8 0.2-4.1-0.4 5.3-9.5 11.2-18.7 17.6-27.4-1.1 0.3-2.3 0.2-3.2-0.3 4.8-7 10.1-13.6 15.9-19.8q-1.3 0.1-2.6 0.3c4-6.7 8.5-13.2 13.4-19.3 0.7-0.9 10.5-13.1 10.2-13.1q-2 0-3.9-0.1 5.8-7.2 11.6-14.5-1.5 0.2-3.1 0.4c2.6-3.6 6.3-7.9 10.5-11.5 4-1.7 8.4-3 13-3.8q0.7-0.2 1.5-0.3 0.2 0 0.3 0c11.3 8.3 4.8 35.8 2 49z"/><path class="a" d="m341.9 341.9c0.1 0.2 0.3 0.4 0.6 0.6 1.9 1.1 3.8 1.5 5.7 1.9 1.1 0.3 2.3 0.6 3.4 1 3.3 1.4 3.2 2.1 5.5 5.2 1.9 2.7 4 4.1 6.8 4.7q1.1 0.2 2.1 0.3 0.4 0 0.9 0 1.4 0.1 2.9-0.2 0.7-0.1 1.5-0.2c1.3-0.3 2.7-0.5 3.9 0.2 2.4 1.5 4.6 1.6 7.1 0.8q0.3-0.2 0.6-0.3 0.2-0.1 0.4-0.2 0.1 0 0.3-0.1 0.4-0.2 0.8-0.4 0.5-0.3 1-0.6c4.3-2.7 10.8-7.3 13.5-12.3q0.5-0.8 0.8-1.8 0.5-1.1 0.9-2.3c1-3.4 1.5-7.4 1.9-11.2 0.3-2.9 0.6-5.7 1-8.2q0-0.3 0.1-0.6c0.8-5.3 1-11 0.5-16.8-2.1-8.4-5.2-16.3-8-22.2-3.7-7.5-7.1-15.1-14.3-16.3-3.6 2.2-6.6 8-8.7 13.7-2.9 7.5-5.9 14.8-9.8 21.5q-0.3 0.4-0.5 0.7-0.3 0.5-0.6 0.9-0.2 0.3-0.4 0.5c-3.8 5.1-6.7 10.4-10.4 15.5q-0.4 0.5-0.7 1c-0.8 1.1-1.5 2.3-2 3.6-0.7 1.8-0.9 3.6-1.1 5.4-0.2 2.3-0.3 4.5-1 6.6q-0.1 0.1-0.1 0.2c-0.4 0.9-0.8 1.9-1.4 2.8-0.7 1.3-1.5 2.6-2.2 3.9q-0.5 0.8-0.9 1.7c-0.1 0.3-0.2 0.6-0.1 1z"/><path fill-rule="evenodd" class="b" d="m342 340.9q0.4-0.8 0.9-1.7c0.7 0.1 1.4 0.7 2.4 1 0.9 0.2 1.9 0.2 2.7-0.4 0.8-0.6 1.2-1.7 0.7-2.6-0.5-0.8-2.3-1.3-3.6-1.9 0.6-0.9 1-1.9 1.4-2.8q0-0.1 0-0.2c0.8-2.1 0.9-4.3 1.1-6.5q0.5 0.8 0.9 1.6c1 1.7 2 3.6 3.8 4.5 0.8 0.5 1.8 0.7 2.6 0.3 2.6-1.2-0.4-8.4-1.2-10.2-0.9-1.8-2.1-3.5-3-5.3q0.3-0.5 0.7-1c3.6-5.1 6.6-10.4 10.4-15.5q0.2-0.2 0.4-0.5 0.3-0.4 0.6-0.9 0.2-0.3 0.5-0.7c3.9-6.7 6.9-14 9.7-21.5 2.2-5.7 5.2-11.5 8.8-13.7 7.2 1.2 10.6 8.8 14.2 16.3 2.9 5.9 6 13.8 8.1 22.2 0.5 5.8 0.3 11.5-0.5 16.8q-0.1 0.3-0.1 0.6c-0.4 2.5-0.7 5.3-1 8.2-0.5-1.4-1.1-2.8-1.3-3.6 0.6 2.6-5 8.1-6.5 9.6q-1.2-1.8-2.4-3.7c1.2 1.9-4.9 16.2-6.2 18.6 4.9-1.1 12.9-4.4 14.5-9.7q-0.4 1.2-0.9 2.3-0.3 1-0.8 1.8c-2.7 5-9.2 9.6-13.5 12.3q-0.5 0.3-1 0.6-0.4 0.2-0.8 0.4-0.2 0.1-0.3 0.1-0.2 0.1-0.4 0.2-0.3 0.1-0.6 0.3c-2.5 0.8-4.7 0.7-7.2-0.8-1.1-0.7-2.5-0.5-3.8-0.2q-0.8 0.1-1.5 0.2-1.5 0.3-2.9 0.2-0.5 0-0.9 0-1-0.1-2.1-0.3c-2.8-0.6-4.9-2-6.8-4.7-2.3-3.1-2.2-3.8-5.5-5.2-1.1-0.4-2.3-0.7-3.4-1-1.9-0.4-3.8-0.8-5.7-1.9-0.3-0.2-0.5-0.4-0.6-0.6-0.2-0.4 0-0.7 0.1-1zm50.3-11.6q0 0 0 0 0 0 0 0zm-27.9 17.2c1.6 1.5 4.4 1.1 6.5 0.2 5.6-2.6 8.2-7.4 9.5-13.1 0.2-0.6 0.3-1.4-0.1-1.9-0.4 0.3-6.3 4.6-6.3 3-0.1-3.3-1.5-6.7-1.4-9.6q-1.4 2.7-3.2 5.2c-0.1-2.6-0.8-5.3-2-7.7 3.3 6.8-8.3 17.5-3.5 23.5q0.2 0.2 0.5 0.4z"/><path class="c" d="m407.7 314.8q-0.9-2.4-1.9-4.8-0.1 5.3-0.2 10.7-1.6-2.8-3.1-5.5c-1.3 1.8-6.8 9.7-6.3 11.9q-0.4-2.7-1.5-5.1c0.8 1.9-5 5.9-8.5 8.1-1.1 0.6-1.9 1.1-2.4 1.3 0.1-2.1 0-4.3-0.6-6.4q-0.7 0.7-1.4 1.4-2.1 2.1-4.2 4.3c3-3.1-2.4-14.7-3.1-18.3-0.6 2.2-1.6 4.4-2.8 6.4q0.3-5.9-0.4-11.7c0 1.7-7.3 7.5-8.5 9.1-2.8-6.5-3.2-8-10.4-4.2 1.5-0.8 5.3-6.4 6.3-8 3.7-5.8 1.5-14.7-0.6-20.7q-0.9 1.6-1.8 3.2-1.3-5.4-2.3-11c-0.9 1.4-1.4 3-1.6 4.6-2.1-6.4-1.6-15.6-5.6-21-4.1-5.3-11.8-6.7-15.7-12.4 0.6 1.7 0.9 3.4 1 5.1q-2.3-2.1-4.7-4.2 0.2 1.5 0.3 3c-7.3-14.2-21.1-22.7-27.6-37.5q-0.6-1.4-1.1-2.8c-2.4-6.9-3.8-14.3-5.1-21.5q-0.1-0.2-0.1-0.4-0.3-1.5-0.6-3.1-0.2-1.1-0.5-2.4 0-0.1 0-0.2c-2.9-13.2-9.4-40.7 1.9-49q0.1 0 0.3 0.1 0.8 0.1 1.5 0.2c4.7 0.8 9 2.1 13.1 3.9q0.2 0.1 0.5 0.2c12 5.2 22 14 32.8 22.3q-2.1 0-4.2 0c3.3 3.1 7 5.9 11 8.2-1.5-0.6-3.1-0.8-4.7-0.7 8.2 6.9 14.1 14.8 19.8 23.6 7.5 11.6 18.1 21.8 26 33.5q-1.2-0.4-2.3-0.8 3.8 6 7 12.5 1 1.9 1.9 3.9c-1.2-1.1-2.7-2-4.3-2.6 4.5 12.1 5.3 25.2 9.4 37.2 2.2 6.2 3.5 12.7 4.3 19.4 0.5 3.6 0.7 7.4 0.9 11.1q0.2 4.5 0.1 9z"/><path class="e" d="m406.7 294.6q-0.4 1.4-0.9 2.8-1.6 5.2-3.2 10.5c-1.6-1.7-3.2-4.2-4.8-5.9q-1.2 2.3-2.5 4.6c-0.8-5.2-2.7-10.3-5.6-14.8-1.5 1.4-3 2.7-4.2 4.3-0.4-2.3-4.6-12.3-3.9-13.8-1.2 2.7-2.9 5.1-5 7.3-1.3-11.4-2.7-23.2-8.8-32.9 1.6 1.2 3 2.7 4 4.4q-2.6-10.4-5.1-20.9 1.9 0.5 3.8 1.1-1.1-4.2-2.3-8.3c3.1 2 7.7 3.3 9.9 6.2 0.2-3.2-0.7-6.5-2.2-9.3 3.5 1.1 17.9 3.4 19.5 6.7q1 2 1.9 4c-1.2-1.1-2.7-2-4.3-2.6 4.5 12.1 5.3 25.1 9.4 37.2 2.2 6.2 3.5 12.7 4.3 19.4z"/><path class="d" d="m292.6 182.7q0 0.1 0.1 0.2 0.3 1.3 0.5 2.4 0.3 1.6 0.6 3.1 0 0.2 0.1 0.4c1.3 7.2 2.7 14.6 5.1 21.5q0.5 1.4 1.1 2.8c6.5 14.8 20.3 23.3 27.6 37.5q-0.2-1.5-0.3-3 2.4 2.1 4.7 4.2-0.2-2.6-1-5.1c3.8 5.7 11.6 7.1 15.6 12.4 4.1 5.4 3.5 14.6 5.7 21 0.2-1.6 0.7-3.2 1.6-4.6q0.9 5.6 2.3 11 0.9-1.6 1.8-3.2c2.1 6 4.2 14.9 0.6 20.7-1 1.6-4.9 7.2-6.3 8 7.2-3.8 7.6-2.3 10.4 4.2 1.1-1.6 8.5-7.4 8.5-9.1q0.7 5.8 0.4 11.7c1.2-2 2.2-4.2 2.8-6.4 0.7 3.6 6.1 15.2 3 18.3q2.1-2.2 4.3-4.3 0.6-0.7 1.4-1.4c0.5 2.1 0.7 4.3 0.6 6.4 0.4-0.2 1.3-0.7 2.4-1.3 2.7-4 4.6-8.6 5.7-13.3-2.4-0.2-4.8 0.8-6.5 2.4-1-3.6-1.4-7.4-1.1-11.2q-1.3 2.4-2.5 4.8c-0.7-12.8-1.7-24.2-4.7-36.5q0.9 1.1 1.8 2.2c-1.4-11.9-4.4-23.4-7.2-35 1.4 0.3 2.8 0.2 4.1-0.4-5.3-9.5-11.1-18.7-17.6-27.4 1.1 0.3 2.3 0.2 3.3-0.3-4.9-7-10.2-13.6-16-19.8q1.3 0.1 2.6 0.3c-4-6.7-8.5-13.2-13.4-19.3-0.7-0.9-10.5-13.1-10.1-13.1q1.9 0 3.8-0.1-5.8-7.2-11.6-14.5 1.6 0.2 3.1 0.4c-2.6-3.6-6.3-7.9-10.4-11.5-4.1-1.7-8.4-3-13.1-3.8q-0.7-0.2-1.5-0.3-0.2 0-0.3 0c-11.3 8.3-4.8 35.8-1.9 49z"/><path class="f" d="m222.9 396.2c-2.9 6.2-5.6 12.4-7.3 19-0.5 2.2-4.3 15.3-2.9 17.1-0.6-0.8-1.4-1.4-2.2-1.8q0.1 1.9 0.1 3.9-0.1 3.9-0.7 7.8c-0.1-1.2-1.2-2.2-2.4-2.2 1 3.8 1.3 7.8 0.9 11.8q0 0.9-0.2 1.7-0.5-1.3-1.2-2.6-1-1.8-2.4-3.5 0.4 1.5 0.5 2.8c0.5 3.9 0 7.4-2.1 9.9-1.3 1.5-3.1 2.7-5.6 3.5-7.7 2.3-17.1-0.2-25-0.7-1.2 0-2.6-0.1-4-0.1-2.1 0-4.3 0-6.5-0.1q0 0-0.1 0c-4-0.2-8-0.8-10.9-2.4-2.4-1.4-4.7-3-6.6-4.8-2.6-2.3-4.7-5-6.1-8.1q-0.4-0.7-0.8-1.5c-1.2-2.9-1.8-6.1-1.7-9.4q-0.1 4-0.2 8c-3.4-7.4-5.8-15.2-7.1-23.3q-0.3 2.1-0.6 4.2c-5.3-9.3-7.9-20.2-7.7-30.9q-1.4 2.8-2.8 5.6c-1.9-11.7-0.8-23.9 2.4-35.7 3-11.3 8-22.2 14.1-31.9q0.7-1.1 1.4-2.2c9.5-14.3 27.8-27.5 44.7-30.7 46.4-8.8 56.8 67.3 43 96.6z"/><path class="g" d="m122.7 389.3c0.6 7.6 3.2 14.9 7.4 21.2q0.5-1.7 1-3.4c3.1 5.1 6.8 9.7 11.2 13.6q0.3-3.4 0.7-6.8 6.2 5.2 12.4 10.4c0.2-4.9 1-9.8 2.6-14.4 1.6 1.8 2.6 4.2 2.8 6.6q2.7-7.3 4.4-14.9 3.1 1.4 6.2 2.7c-1.5-9.6-5.3-20.1-10.3-28.5-4.1-6.8-9.9-12.8-16.5-17.4q-0.5 4.1-1 8.2c0.1-0.6-3.4-4-3.8-4.8q-1.7-2.6-2.8-5.5c-1.5-3.9-2.4-7.5-1.7-11.8-4.3 5.7-8 11.3-10.6 17.9-1.2 3.1-2.3 6.3-3 9.6-0.7 3-0.4 6.6-1.2 9.5 0.3-1 1.3-1.7 2.4-1.5q-0.6 4.6-0.2 9.3z"/><path class="h" d="m222.9 396.2c-2.9 6.2-5.6 12.4-7.3 19-0.5 2.2-4.3 15.3-2.9 17.1-0.6-0.8-1.4-1.4-2.2-1.8q0.1 1.9 0.1 3.9-0.1 3.9-0.7 7.8c-0.1-1.2-1.2-2.2-2.4-2.2 1 3.8 1.3 7.8 0.9 11.8q0 0.9-0.2 1.7-0.5-1.3-1.2-2.6-1-1.8-2.4-3.5 0.4 1.5 0.5 2.8c0.5 3.9 0 7.4-2.1 9.9-1.3 1.5-3.1 2.7-5.6 3.5-7.7 2.3-17.1-0.2-25-0.7-1.2 0-2.6-0.1-4-0.1-2.1 0-4.3 0-6.5-0.1q0 0-0.1 0c-4-0.2-8-0.8-10.9-2.4-2.4-1.4-4.7-3-6.6-4.8-2.6-2.3-4.7-5-6.1-8.1q-0.4-0.7-0.8-1.5c5.8-1.5 18.9-7.7 20.1-8.1-1.1 2.3-2.5 4.4-4.2 6.2 6.4 0.6 12.6-2 18.5-4.5 3.8-1.7 7.8-3.5 9.9-7 1.4-2.5 1.7-5.3 2-8.1-2.4 3.2-5.9 5.7-9.7 6.9 1.8-2.6 2.4-5.9 1.6-9-3.4-0.3-6.2 1.4-9.4 1.5-0.7-3.8-1.5-7.7-3.3-11.2q-0.4 0-0.8 0.1-1.1 0.1-2.1 0.3-1.6 0.3-3.1 0.7c-1.2 0.4-2.4 0.8-3.6 1.2-1.6-2.4-2.7-5.1-3.2-7.9q-1.4 1.7-2.7 3.3c-1.3-5.3-7.1-8-11.5-11.2-4.7-3.6-8.2-8.6-10-14.3q-0.9 2.6-1.7 5.1-0.9-1.3-1.7-2.7c-3.7-7.2-4.2-15-2.8-22.8 3-11.3 8-22.2 14.1-31.9q0.7-1.1 1.4-2.2c9.5-14.3 27.8-27.5 44.7-30.7 46.4-8.9 56.8 67.3 43 96.6z"/><path class="i" d="m213.4 464.1c-0.2 1.1-0.8 1.9-1.6 2.5-1.3 1.1-3 1.6-4.6 1.9-4.7 1-9.5 1.9-14.2 1.3-5.8-0.7-10.9-3.5-17-2.1-1.8 0.4-3.6 1.2-5.4 1.7-6.1 1.7-11.2-1-16.9-1.5q-1.1-0.1-2.3 0c-7.2 0.2-14.4 3-21.6 1.1-1.7-0.4-3.5-1.1-4.9-2.5-1.5-1.4-2.8-3.8-3.1-6.5q-0.1-0.7-0.1-1.4 0-1.1 0.2-2.2c0.5-3 2-5.6 3.8-7.1 5.5-4.5 15.7-1.9 20.9 1.5 1.3 0.9 2.6 1.8 3.7 2.7q0.2-0.2 0.4-0.5c3.7-4.6 8.9-7.4 14.3-7.6 3.7-0.1 7.3 1 10.6 3.1 1.8 1.2 3.3 3.3 5 4.6 1.2 1 2.5 1.5 4.1 1.2 1.3-0.3 2.5-1 3.7-1.5 0.3-0.2 0.5-0.3 0.7-0.4 1.7-0.7 3.5-1.1 5.2-1.5 4.8-1 9.8-2.1 14.1 0.9 2 1.3 4 3.4 5 5.8 0.8 2 1 4.2 0 6.5z"/><path class="b" d="m213.4 464.1c-0.2 1.1-0.8 1.9-1.6 2.5-1.4 1-3 1.6-4.6 1.9-4.7 1-9.5 1.9-14.2 1.3-5.8-0.7-10.9-3.5-17-2.1-1.8 0.4-3.6 1.2-5.4 1.7-6.1 1.7-11.2-1-16.9-1.5q-1.1-0.1-2.3 0c-7.2 0.2-14.4 3-21.6 1.1-1.7-0.4-3.5-1.1-4.9-2.5-1.5-1.4-2.8-3.8-3.1-6.5q-0.1-0.7-0.1-1.4 0-1.1 0.2-2.2c2.5 14.9 21.8 5.2 24.7-5.6 1.4 0.9 2.6 1.8 3.7 2.7q0.2-0.2 0.4-0.5c0.7 7.2 7 9.3 12.2 9.8 7.1 0.8 15.3-1 17.7-9.6 1.2 0.9 2.5 1.4 4.1 1.1 1.3-0.3 2.5-1 3.7-1.5q2.2 1.6 4.4 3.2c5.7 4.3 14.5 6.2 20.6 1.7 0.8 1.9 1 4.1 0 6.4z"/><path class="c" d="m246.9 363.7c4.5 17.2 19.3 28.4 24.1 45.9 0.6-0.1 6.2-2.1 5.7-3.2 1.5 3.2 3 6.4 4.6 9.6q0.7-1.7 1.5-3.3c0 0.2 0.2 0.7 0.7 1.4 1.1 1.8 3.3 4.7 3.6 5.3 1.2 2.2 2.3 4.6 3 7 0.7 2.4 1.1 4.9 1.2 7.4 0.1 2.1 0.7 5.8-0.3 7.6 0.7-0.5 1.4-1.1 2-1.8-0.9 3.1-1.3 6.5-1.6 9.7q1-0.7 1.9-1.4c0.1 4 0.7 8 0.7 12.1q4.1 1.6 8.4 2.7c7.5 1.9 15.3 2.3 22.9 1.4q6-0.7 11.8-2.6c2.1-0.7 4.2-1.5 5.6-3.2 1.2-1.5 1.7-3.5 2.2-5.4 0.8-3.7 3-8.6 2.3-12.4 0.8 0.5 1.8 0.8 2.7 0.7-1.2-10.4 0.4-20 0.9-30.3 0.2-4.3 0.4-8.6 0.3-12.9q0-0.4 0-0.7 0-3.8-0.3-7.5c-0.1-2.1-0.2-13.1-1.3-13.9q2.3 1.6 4.5 3.2c-0.9-6.3-3.1-12.4-6.3-17.9 1-0.7 2.4-0.6 3.3 0.1-9.4-23.3-26.2-46.7-49.4-58-16.4-8.1-33.8-5.3-45.2 9.4-10.8 13.9-13.8 34.1-9.5 50.9z"/><path class="e" d="m316 407.1q-1.9-1.1-3.7-2.4c-1.2 6.5 1 15.9 7.7 18.5 2.4 1 5.1 1.3 7.6 1.6-0.9-0.7-1.5-2-1.3-3.2q2.5 1.2 4.9 2.4c1.8-3.1 2.7-6.8 2.3-10.3-0.2-1.5-0.6-2.7-1.4-3.9-0.2-0.4-2.8-2.8-2.8-2.7q0 1.6 0 3.1c-2.9-3.3-7.2-5.4-11.7-5.4 0.5 1.1 0.7 2.3 0.7 3.5q-1.1-0.6-2.3-1.2z"/><path class="e" d="m300.6 361.4q0.5 0.9 1.2 1.7c0.7-2.4 4.3-9.6 6.9-9.7 6.8-0.3 13.8 2 18.3 7.1-0.5-2.2-1.2-4.7-1.1-6.8 0.1-1.3 6.4 3.8 6.7 4 2.4 2.3 4.2 4.3 5.5 7.5 4.5 10.7 5.1 27.6-4.3 36.1 0.1-1.2 0-2.4-0.3-3.6-0.8 0.9-1.3 2.1-1.4 3.3-4.5-3.6-9.7-6.3-15.2-8-0.8 1.1-1.2 2.5-1 3.9-2.8-1.2-5.3-3-7.3-5.3q0.3 1.6 0.6 3.2c-4.5-2-8.6-4.8-11.6-8.6-3.3-4.2-5-9.2-4.2-14.4 0.5-2.8 1-5.5 2.1-8.2 0.5-1.3 3.8-5.4 3.7-6.4 0.2 1.4 0.6 2.9 1.4 4.2z"/><path class="d" d="m246.9 363.7c4.5 17.2 19.3 28.4 24.1 45.9 0.6-0.1 6.2-2.1 5.7-3.2 1.5 3.2 3 6.4 4.6 9.6q0.7-1.7 1.5-3.3 0-0.1 0-0.1 0.5 0.7 0.7 1.5c1.2 1.8 3.3 4.7 3.6 5.3 1.2 2.2 2.3 4.6 3 7 0.7 2.4 1.1 4.9 1.2 7.4 0.1 2.1 0.7 5.8-0.3 7.6 0.7-0.5 1.4-1.1 2-1.8-0.9 3.1-1.2 6.5-1.6 9.7q1-0.7 1.9-1.4c0.1 4 0.7 8 0.7 12.1q4.1 1.6 8.4 2.7c7.5 1.9 15.3 2.3 22.9 1.4 1.2-7.7 5-15 10.7-20.3-2-0.5-13.9 0.2-13.7-2.3 0.2-1.1 1.4-1.9 2.5-2.4 1.4-0.6 3-1 4.7-1.2q-3.8-1.4-7.5-2.7c-4.2-1.5-8.6-3.2-11.8-6.3-3.1-3.1-3.9-12-6.9-13.8q2.9 1.8 5.7 3.6c-4-12.9-8.5-24.9-9.1-38.5 0.9 2.3 2.5 4.3 4.6 5.7 0.6-3.9 0.1-13.5 5.1-14.7 1.2-0.3 2.3 0.4 3.3 1 1.6 1 13.7 6.6 13.4 8.6 0.5-3.4 0-6.9-1.5-10 7.3 4.7 13.2 11.5 16.7 19.4 1.3-2.7 1.8-5.8 1.4-8.8 2 5.9 7.8 8.9 8.2 15.9q0-3.7-0.3-7.5c-0.1-2.1-0.2-13.1-1.3-13.8q2.3 1.6 4.6 3.2c-1-6.3-3.1-12.5-6.3-18 0.9-0.6 2.3-0.6 3.2 0.1-9.4-23.3-26.2-46.6-49.4-58-16.4-8.1-33.7-5.2-45.2 9.5-10.8 13.8-13.8 34-9.5 50.9z"/><path class="a" d="m274 463.6q0.2 0.9 0.7 1.5c1.3 2 4.1 2.8 6 3.2 5.6 1.2 11.6 0.1 17.1-1.2q0.7-0.1 1.4-0.3c7.7-1.7 14.1 3.6 21.5 2.4q0.4-0.1 0.7-0.1c4.6-0.8 9.1-2.4 13.8-2.4q0.3 0 0.6 0c5.3 0.4 15.1 5.4 18.9 0.5 1.1-1.5 1.4-3.4 1.1-5.2q-0.2-0.9-0.6-1.8c-0.4-1.1-0.9-2.2-1.5-3.2q-1.4-2.4-3.2-4.7c-1.8-2.4-4-4.8-6.9-5.6-3.6-1.1-5.3 1-7.5 2.7-0.8 0.6-1.7 1.1-2.7 1.5q-0.2 0-0.4 0.1c-1.7 0.5-3.3-0.1-4.9-1.1-2.2-1.4-4.4-3.4-6.9-4.2-3-1-6.2 0.2-8.8 2-2.3 1.5-4.2 3.6-6.3 5.5q-0.1 0.1-0.1 0.1c-0.3 0.3-0.6 0.5-0.8 0.8-2.4 2.1-4.1 0.9-6.2-0.9q-1.1-1-2.4-1.4c-2.4-0.7-5.1-0.1-7.4 1-3.2 1.5-6 3.7-9.5 4.7-1.5 0.4-4 1.6-5.1 3.4-0.5 0.8-0.8 1.7-0.6 2.7z"/><path class="b" d="m274 463.6q0.2 0.9 0.7 1.5c1.3 2 4.1 2.8 6 3.2 5.6 1.2 11.6 0.1 17.1-1.2q0.7-0.1 1.4-0.3c7.7-1.7 14.1 3.6 21.5 2.4q0.4-0.1 0.7-0.1c4-0.9 10.3-3.4 14.4-2.4 5.3 0.4 15.1 5.4 18.9 0.5 1.1-1.5 1.4-3.4 1.1-5.2q-0.2-0.9-0.6-1.8c-0.6 1.8-2 3.5-3.8 4.2-2.1 0.8-7.7-0.1-4.9-3.3 0.7-0.8 1.7-1.2 2.7-1.6-1.6-1.6-4.4-1-6.6-1.9-3.8-1.6-5.1-4.7-6.5-8.2q-0.1-0.1-0.1-0.2c-0.8 0.7-1.7 1.3-2.6 1.6q-0.2 0.1-0.4 0.2c-1.7 0.4-3.3-0.2-4.9-1.1-0.2 1.9-0.4 3.7-0.5 4.2-0.5 3.1-1.8 5.2-4 7.2-1.9 1.6-4.1 2.4-6.5 2-2.4-0.3-4.4-2.3-1.1-3.5 1-0.4 2.3-0.7 2.7-1.7-2.8-1.1-5.9 0.3-8.7-0.6-2.3-0.7-2.9-2.1-4-4.1-0.4 0.1-0.6 0.4-0.9 0.6-2.3 2.2-4 1-6.1-0.8q-1.1-1-2.4-1.4c-0.7 2.8-2.2 5.2-4.3 6.8-1.3 1-2.8 1.6-4.4 1.7-0.7 0-1.5-0.1-2.3-0.2-0.7-0.1-1.7-0.5-2.4-0.4-0.2 0.1-0.4 0.3-0.6 0.4q-0.4 0.6-0.9 1.1c-1.4 1.6-4.1 2.7-5.9 1.4-0.2-0.1-0.8-1-1.2-1.7-0.5 0.8-0.8 1.7-0.6 2.7z"/><path class="j" d="m326.9 319.2q0.1 1.3 0 2.6c-0.8-1.5-2.1-2.7-3.7-3.3 1.4 4.3 0.3 9-2.7 12.5 0.3-2.2-0.2-4.5-1.5-6.4-0.3 5.6-2.8 10.9-6.7 14.8 0.5-1.8 0.2-3.8-0.9-5.4-1.7 4.4-4 8.5-7 12.2 0-0.8-0.4-1.6-1-2q-6.3 5.9-12.6 11.8 0.1-1.9 0.1-3.8c-1.4 4.3-3.7 7.5-6.1 11.3q-0.3-1.9-1.2-3.6c-1.8 3.9-4.7 7.4-8.3 9.9 1.7-1.4 2.8-5.2 0.7-6.5-2.2 1.6-4.1 3.5-6.4 5.1-1 0.7-2.1 1.4-3.1 2.2q-0.2 0.1-0.4 0.3c-2.2 1.7-4.5 3.2-6.6 4.8-2.6 2.1-5.2 4-8 5.7 0.4-0.9 0.5-1.9 0.4-2.9l-11.2 8.2q-0.8-2.6-2.1-5c-0.7 2.4-2.2 4.4-4.3 5.6 0.1-1.5-0.4-3-1.2-4.2-1.2 1.7-2.5 3.3-4 4.8-1-3.3-3.4-6.1-6.5-7.6q-0.5 1.2-1.1 2.4-3.1-2.7-6.2-5.4c-0.2 1.1-0.2 2.4 0.1 3.5-4.3-1.8-6.6-4.5-9.6-7.7-1.4-1.6-6.4-3.1-6.9-5.2q0.5 2 0.9 3.9c-3.3-1.7-6.2-4.3-8.2-7.4q-0.2 2.6-0.7 5.1c-1.5-4.7-3.9-9.2-7.1-13-0.1 1.9 0.4 3.9 1.4 5.6-6.3-4.8-11.6-10.9-15.6-17.7 1.1 1.6 1.3 3.8 0.5 5.6-1.6-5.2-4.9-9.9-9.2-13.2 0.4 1.7 0.3 3.4-0.2 5-3.2-3.3-5.7-7.3-7.2-11.6q-0.5 1.7-1 3.3c-2.2-2.5-3.5-5.8-3.6-9.1-1 1.8-1.5 4-1.3 6-1.1-4.1-2.7-7.8-1.4-11.9-1 0.4-2 1.1-2.8 2q-0.5 0.6-0.9 1.3c-0.2-5.8 1.6-11.4 3.4-16.9q0.7-2.2 1.4-4.4 0.6-2.2 1.2-4.3c1.1-4.4 2.1-8.7 3.3-13 0.8-3 0.3-8.9 1.3-11.1-0.6 1.3-2 2.2-3.4 2.1 1.7-3.8 2.8-7.9 3.4-12.1-1.7 1.3-2.9 3-3.7 4.9 0.3-6.4 2.4-12 5.5-17.6 2.8-5.3 3.6-10.1 4.3-16.2q0.1-1.1 0.2-2.1c0.3-4.3 0-8.7 0.2-13q-2.2 2-4.4 4c1.8-8.2 4.1-16.3 5.9-24.5-1.4 1.7-3.4 3-5.6 3.4q2-3.7 3.5-7.7-1.8 1.2-3.8 2 2.9-5.5 5.3-11.2c0.8-2.1 1.4-4.1 1.5-6.3 0.1-0.9-0.5-3.3 0.2-4-1.4 1.3-5.7 5.9-5.7 7.8-0.2-6.9 1.6-14 5-20-1.5 1.2-3.7 1.5-5.5 0.7 2.8-6 6.4-11.7 10.7-16.8-2.9-0.1-5 2.6-6.6 5 1.1-4.9 4-9 6.8-13.1 1.1-1.6 2.2-3.3 3.2-5q0.7-1.2 1.3-2.4 0.7-1.4 1.3-2.9 0.1-0.1 0.1-0.2 0.3-0.7 0.7-1.4 0 0 0-0.1 1.5-3 3.9-5.4 0.3-0.4 0.6-0.7 0.1-0.1 0.2-0.3 0.5-0.4 0.9-0.7 0.5-0.5 1.1-1 0.1-0.1 0.2-0.2 0.9-0.7 1.9-1.3c0.4-0.3 0.9-0.6 1.5-0.9q0.1-0.2 0.4-0.3 0.7-0.4 1.5-0.8 0.2-0.1 0.4-0.2 0.8-0.4 1.7-0.8 0.2-0.1 0.3-0.1 0.7-0.3 1.3-0.5 0.6-0.3 1.1-0.5 0.5-0.1 1-0.3 1.5-0.5 3.1-1 0.3-0.1 0.8-0.2 0.9-0.2 1.9-0.5 0.1 0 0.2 0 1-0.3 2-0.5 0.7-0.1 1.4-0.2c1.3-0.3 2.6-0.5 3.9-0.7q0.5-0.1 0.9-0.1 1.2-0.2 2.4-0.4c3.8-0.4 7.6-0.8 11.5-1q0.9 0 1.9-0.1 1.2 0 2.4-0.1 4-0.1 8-0.2c0.8 0 1.7 0 2.5 0h2.5c0.2 0 0.2 0 0.4 0q1.5 0 2.9 0 1.2 0 2.5 0c0.5 0 1.2 0 1.7 0q1.5 0 2.9 0.1 1.5 0 2.9 0 0.9 0.1 1.9 0.1 0.9 0 1.9 0.1 0.7 0 1.5 0 0.2 0.1 0.4 0.1 0.8 0 1.6 0.1c1.3 0.1 2.7 0.2 4 0.3q0.6 0.1 1.1 0.2 0.9 0.1 1.8 0.2 1.2 0.1 2.3 0.3 0.8 0.2 1.6 0.3 0.4 0.1 0.9 0.2 0.1 0 0.3 0.1c4.6 0.9 8.4 2.1 11.8 3.7q0.9 0.4 1.7 0.9 0.7 0.4 1.4 0.8 0.8 0.4 1.5 0.9c1.5 0.9 2.9 1.9 4.3 3q0.6 0.5 1.1 1 0.2 0.1 0.3 0.3 0.6 0.4 1.1 0.9 0 0.1 0.1 0.2 0.1 0 0.1 0.1 0.5 0.4 0.9 0.8 0.7 0.7 1.5 1.5c0.3 0.4 0.5 0.7 0.7 1.1q0.9 1.5 1.6 3.2 1.4 3 3.1 5.9c1.6 2.8 3.3 5.5 5 8.2q1.3 2.1 2.6 4.2c-0.3-0.5-1.5-1-2.5-1.4q-0.1-0.1-0.2-0.1c-0.6-0.2-1.2-0.5-1.5-0.7 1.5 3.1 1.6 6.3 2.4 9.6q0.1 0.5 0.3 1.1c1.7 5.3 4.1 10.5 5.9 15.7-2.7-0.6-5.3-2-7.3-4 1.8 4.3 4.7 8.3 8.3 11.3-2 0.3-4.4 1.8-6.3 1.1 0.5 1.2 6.7 17.5 6.8 17.5-1.4 0.7-3.1 0.5-4.3-0.3 1.9 4.4 3.4 7.6 3.4 12.6-1.4-1.9-3.1-3.7-5.1-5 3.2 4.5 5.4 9.7 6.7 15.1-1.4-0.8-3.1-1.3-4.7-1.5 1 6.2 4.2 12.2 8.9 16.4-0.5-0.4-5.8-1-6.8-1.2 0.1 3.7-0.3 6.1 1.2 9.7 1.7 3.7 4 7.3 4.3 11.5-0.8-1.2-2-2-3.4-2.4 0.6 0.1 1.2 10.4 1.4 11.6 1.2 4.9 3.2 9.5 5.9 13.7-1.8 0.3-3.8-0.5-4.9-2.1 2 5 4.6 9.6 7.5 14.1-1.8-0.8-4-1.1-5.5-2.3 0.4 2.7 0.7 5.8 1.3 8.8 0.3 1.7 0.7 3.3 1.2 4.8 1.5 4.3 5.6 8.4 8.2 12.1-1.5-1.2-3.1-2.1-4.8-2.8 0.8 1.7 0.8 3.6 1.4 5.4q0 0.1 0 0.3c0.4 1.8 0.7 3.6 0.8 5.4z"/><path class="k" d="m326.9 319.2q0.1 1.3 0 2.6c-0.8-1.5-2.1-2.7-3.7-3.3 1.4 4.3 0.3 9-2.7 12.5 0.3-2.2-0.2-4.5-1.5-6.4-0.3 5.6-2.8 10.9-6.7 14.8 0.5-1.8 0.2-3.8-0.9-5.4-1.7 4.4-4 8.5-7 12.2 0-0.8-0.4-1.6-1-2q-6.3 5.9-12.6 11.8 0.1-1.9 0.1-3.8c-1.4 4.3-3.7 7.5-6.1 11.3q-0.3-1.9-1.2-3.6c-1.8 3.9-4.7 7.4-8.3 9.9 1.7-1.4 2.8-5.2 0.7-6.5-2.2 1.6-4.1 3.5-6.4 5.1-1 0.7-2.1 1.4-3.1 2.2q-0.2 0.1-0.4 0.3c-2.2 1.7-4.5 3.2-6.6 4.8-2.6 2.1-5.2 4-8 5.7 0.4-0.9 0.5-1.9 0.4-2.9l-11.1 8.1c0 0-0.1 0.1-0.1 0.1q-0.8-2.6-2.1-5c-0.7 2.4-2.2 4.4-4.3 5.6 0.1-1.5-0.4-3-1.2-4.2-1.2 1.7-2.5 3.3-4 4.8-1-3.3-3.4-6.1-6.5-7.6q-0.5 1.2-1.1 2.4-3.1-2.7-6.2-5.4c-0.2 1.1-0.2 2.4 0.1 3.5-4.3-1.8-6.6-4.5-9.6-7.7-1.4-1.6-6.4-3.1-6.9-5.2q0.5 2 0.9 3.9c-3.3-1.7-6.2-4.3-8.2-7.4q-0.2 2.6-0.7 5.1c-1.5-4.7-3.9-9.2-7.1-13-0.1 1.9 0.4 3.9 1.4 5.6-6.3-4.8-11.6-10.9-15.6-17.7 1.1 1.6 1.3 3.8 0.5 5.6-1.6-5.2-4.9-9.9-9.2-13.2 0.4 1.7 0.3 3.4-0.2 5-3.2-3.3-5.7-7.3-7.2-11.6q-0.5 1.7-1 3.3c-2.2-2.5-3.5-5.8-3.6-9.1-1 1.8-1.5 4-1.3 6-1.1-4.1-2.7-7.8-1.4-11.9-1 0.4-2 1.1-2.8 2q-0.5 0.6-0.9 1.3c-0.2-5.8 1.6-11.4 3.4-16.9q0.7-2.2 1.4-4.4 0.6-2.2 1.2-4.3c0.7-2.6 1.3-5.2 1.9-7.8 1.1 4.4 2.3 8.7 2.6 10 1.9 7.5 6 14.8 10.6 20.9q0.6-3.8 1.2-7.7c4.5 5 7.7 10.8 12.1 15.9 0.1-1.6 0.2-3.2 0.4-4.8 3.4 3.5 7.9 9.2 12.1 11.5 0.3-3.2 1.5-6.3 3.6-8.8-2.6 3 11.1 20.6 13.7 23.1q2-3.6 4-7.1c0.7 5.8 3.5 11.3 7.8 15.4 1.7-3.2 2.8-6.7 3-10.3q3.1 6.7 6.2 13.4c5.5-4.5 11.6-8.4 18-11.5q-1 5.8-2.1 11.6c6.2-3 11.3-8 14.5-14q0.8 4.7 1.7 9.4c2.7-3.6 4.6-7.9 5.6-12.3 2.5 2.4 5.3 5.9 6.8 9 2.5-5 4.2-10.4 5.1-15.9 1.5 2.3 2.7 4.8 3.4 7.4q3.3-6.2 5.7-12.8c2.1 1.7 3.3 4.2 3.8 6.8 10.5-8.8 13.4-27.2 17.2-39.6q2.9 4 5.8 8.1 3.6-5.2 7.2-10.3 0.3 1.6 0.9 3.1c1.4 4.2 5.5 8.4 8.1 12.1-1.4-1.2-3-2.2-4.8-2.8 0.9 1.6 0.8 3.5 1.4 5.3q0.1 0.2 0.1 0.3c0.4 1.8 0.7 3.6 0.8 5.4z"/><path class="k" d="m268.2 187.3c-4 9.1-10.4 15.3-19.4 20.2 1.8-2.7 2.1-6.3 0.8-9.2q-3.4 4.1-6.9 8.2c-2.4-2.3-4.1-5.4-4.7-8.7-3.1 2.7-5.2 6.3-6 10.2q-5.3-5.6-10.5-11.2c0.5 0.6-4.3 5.8-6.1 4.6-1.7-1.1-1.4-8.5-1.9-10.3-0.4 1.7-1.2 3.3-2.5 4.6 0.6-4.3 0.2-8.8-1.2-12.9-3.6 2.9-4.9 5.7-3.7 10.1-4.6-3.5-8.1-8.3-10.1-13.7-1.4 2.4-2.6 5-3.4 7.7-5.1-4.4-9.3-9.9-12-16.1q-0.8 1.3-1.6 2.6c-4.4-4.8-6.8-11.4-6.7-17.9q-2.2 1.1-4.5 2.2l2.1-13.9c-1.4-1.1-3.4-1.3-5.1-0.6q1.5-2.8 2.1-5.8c1.6-2.4 3.2-4.8 4.5-7.4q0.7-1.4 1.3-2.9 0-0.1 0.1-0.2 0.3-0.7 0.6-1.4 0.1 0 0.1-0.1 1.5-3 3.8-5.4 0.3-0.4 0.7-0.7 0.1-0.1 0.2-0.3 0.4-0.4 0.8-0.7 0.6-0.5 1.2-1c0-0.1 0.1-0.1 0.2-0.2q0.9-0.7 1.8-1.3c0.5-0.3 1-0.6 1.5-0.9q0.2-0.2 0.4-0.3 0.8-0.4 1.5-0.8 0.2-0.1 0.5-0.2 0.8-0.4 1.7-0.8 0.1-0.1 0.3-0.1 0.6-0.3 1.3-0.5 0.5-0.3 1.1-0.5 0.4-0.1 0.9-0.3 1.5-0.5 3.1-1 0.4-0.1 0.8-0.2 1-0.2 2-0.5 0 0 0.1 0 1.1-0.3 2.1-0.5 0.7-0.1 1.4-0.2c1.2-0.3 2.6-0.5 3.9-0.7q0.4-0.1 0.9-0.1 1.2-0.2 2.4-0.4c3.7-0.4 7.6-0.8 11.5-1q0.9 0 1.8-0.1 1.2 0 2.5-0.1 4-0.1 8-0.2c0.8 0 1.6 0 2.4 0h2.5c0.2 0 0.3 0 0.5 0q1.4 0 2.8 0 1.3 0 2.5 0c0.6 0 1.2 0 1.8 0q1.4 0 2.8 0.1 1.5 0 3 0 0.9 0.1 1.8 0.1 1 0 1.9 0.1 0.8 0 1.6 0 0.2 0.1 0.4 0.1 0.7 0 1.5 0.1c1.4 0.1 2.8 0.2 4.1 0.3q0.5 0.1 1.1 0.2 0.9 0.1 1.8 0.2 1.2 0.1 2.3 0.3 0.8 0.2 1.5 0.3 0.5 0.1 0.9 0.2 0.2 0 0.4 0.1c4.5 0.9 8.4 2.1 11.7 3.7q0.9 0.4 1.8 0.9 0.7 0.4 1.4 0.8 0.7 0.4 1.5 0.9c1.5 0.9 2.9 1.9 4.2 3q0.6 0.5 1.2 1 0.1 0.1 0.3 0.3 0.5 0.4 1 0.9 0.1 0.1 0.2 0.2 0 0 0.1 0.1 0.4 0.4 0.8 0.8 0.8 0.7 1.6 1.5c0.2 0.4 0.4 0.7 0.7 1.1q0.9 1.5 1.6 3.2 1.3 3 3 5.9c2.4 4.2 5.2 8.3 7.6 12.4-0.6-1.1-3-1.8-4.1-2 2.6 6.7 1.5 11.1 1.9 18q-3.2-0.6-6.4-1.2c-1.5 4.1-3.5 8.2-6.2 11.7-1 1.2-7.4 6.8-6.7 8.4-0.7-1.7-2.1-3.2-3.8-4 1 1.9-0.4 4.2-1.9 5.8-1.6 1.5-3.4 3.4-3 5.5-1-2.5-1-5.4-0.1-7.9-2.2 0.7-3.6 2.8-4.1 5-0.5 2.2-0.2 4.6 0.2 6.8-1.3-2.3-3-4.2-5-5.8q-0.4 0.9-0.8 1.8z"/><path class="k" d="m305.7 143.8v0.7q0-0.4-0.1-0.8c-0.5-1.5-2.1-3.7-2.6-5-0.6 4.7 0.5 11.2-1.2 15.4 0 0-4.3-4.6-4.6-5-3.6 5.1-5.2 10.3-10 14.5-0.7-1.8-2-3.5-3.8-4.3-1 3.8-2.5 7.6-5.6 10-0.1-1.3-2-3.2-2-4.3 0.1 2.6-1 5.1-3 6.8q-1.3-1.7-2.5-3.5c-1.4 1.9-2 4.4-1.8 6.7-1.9-1-3.5-2.4-4.8-4.1-1.5 5.6-4.4 10.9-8.5 15 2-3 3.2-9.3 0-11.7-0.9 0.6-5.3 6-3.6 7.3-1.9-1.5-3.3-3.8-3.7-6.2-1.9 4.9-6.7 8.6-12 9.2 1.6-1.8 2.4-4.2 2.3-6.6-1.3 2-3.3 3.6-5.5 4.5 0.9-1.4 1-3.1 0.4-4.6-3.5 1.5-5.7 5.3-5.5 9-3.8-1.9-6.7-5.5-8-9.5q-2.3 2.5-4.6 5-1.4-5.7-2.7-11.5c-2.8 0.9-4.7 3.8-4.4 6.6-4.2-2.1-7.3-6.3-8-10.9-0.4 2-1.5 3.9-3.1 5.1-0.2-4.6-3.8-8.8-8.3-9.7q0.1 2.4 0.2 4.9c-2.6-2.4-4.7-5.3-6.3-8.4q-0.5 2.2-1 4.3c-1.2-1.5-11.6-20.5-9.6-21-1.5 0.4-3.2 0.1-4.5-0.8 1.5-2.7 2.8-5.4 2.8-8.5q0.7-1.2 1.3-2.4 0.7-1.4 1.3-2.9 0-0.1 0.1-0.3 0.3-0.7 0.6-1.4 0.1 0 0.1 0 1.5-3 3.8-5.5 0.3-0.3 0.7-0.7 0.1-0.1 0.2-0.2 0.4-0.4 0.8-0.8 0.6-0.5 1.2-1c0.1 0 0.1-0.1 0.2-0.1q0.9-0.7 1.8-1.3c0.5-0.3 1-0.7 1.5-0.9q0.2-0.2 0.4-0.3 0.8-0.5 1.6-0.8 0.2-0.1 0.4-0.2 0.8-0.5 1.7-0.8 0.2-0.1 0.3-0.1 0.6-0.3 1.3-0.6 0.5-0.2 1.1-0.4 0.5-0.2 0.9-0.3 1.6-0.6 3.2-1 0.3-0.1 0.7-0.2 1-0.3 2-0.5 0.1 0 0.2 0 1-0.3 2-0.5 0.7-0.1 1.4-0.3c1.2-0.2 2.6-0.4 3.9-0.7q0.5 0 0.9-0.1 1.2-0.2 2.4-0.3c3.7-0.5 7.6-0.8 11.5-1q0.9-0.1 1.8-0.1 1.3-0.1 2.5-0.1 4-0.2 8-0.2c0.8 0 1.6 0 2.5 0h2.5c0.1 0 0.2 0 0.4 0q1.4-0.1 2.9-0.1 1.2 0.1 2.4 0.1c0.6 0 1.2 0 1.8 0q1.4 0 2.8 0 1.5 0 3 0.1 0.9 0 1.9 0.1 0.9 0 1.8 0 0.8 0.1 1.6 0.1 0.2 0 0.4 0 0.8 0.1 1.5 0.1c1.4 0.1 2.8 0.3 4.1 0.4q0.6 0 1.1 0.1 0.9 0.1 1.8 0.2 1.2 0.2 2.3 0.4 0.8 0.1 1.6 0.3 0.4 0 0.8 0.2 0.2 0 0.4 0c4.5 1 8.4 2.2 11.8 3.8q0.8 0.4 1.7 0.9 0.7 0.3 1.4 0.7 0.7 0.5 1.5 0.9c1.5 1 2.9 2 4.3 3.1q0.5 0.5 1.1 1 0.2 0.1 0.3 0.2 0.5 0.5 1 1 0.1 0 0.2 0.1 0 0.1 0.1 0.1 0.4 0.4 0.8 0.9 0.8 0.7 1.6 1.5c0.2 0.3 0.4 0.7 0.7 1.1q0.9 1.5 1.6 3.1 1.4 3 3 5.9c1.6 2.8 3.4 5.6 5.1 8.3q0 1.4 0 2.7z"/><path class="c" d="m180.7 72.2c0.5 2.5 0.7 4.9 0.6 7.2q0 0.1 0 0.2 0 0.3 0 0.6 0 0.2-0.1 0.5 0 0.1 0 0.1c-0.4 4.5-1.8 8.4-4 10.8q-0.3 0.3-0.5 0.5-0.2 0.2-0.4 0.3-0.2 0.2-0.3 0.3-0.3 0.2-0.5 0.3-0.2 0.2-0.5 0.3 0 0 0 0-0.2 0.2-0.5 0.3-0.2 0.1-0.5 0.2c-2.7 1-5.6 0.1-8-2.1-1.2-1.1-2.4-2.5-3.3-4.2-1-1.6-1.7-3.6-2.5-5.4q0.3 0.2 0.6 0.3c0 0-0.2-0.6-0.2-0.7q-0.2-0.5-0.4-1.1-0.4-1.1-0.8-2.2c0.2 0.4 0.5 0.7 0.8 0.9-1.2-3.4-1.2-7.4-0.5-10.9 0.5-2.6 1.5-4.5 2.8-6.5-0.2-0.4-0.8-0.2-1.1 0q0.6-0.9 1.4-1.3-0.6-0.3-1.2-0.6c0.5-0.3 1-0.7 1.5-0.9 0.2-0.1 1.8-0.8 1.9-0.6-0.2-0.5-0.6-0.9-0.9-1.1q-0.5-0.6-1-1.2c3.3 0 7.9 1.2 10.9 3.7 2.9 2.2 5.3 6.3 6.5 11.4q0.1 0.5 0.2 0.9z"/><path class="d" d="m165.5 61.1q0.6 0.6 1.1 1.2c0.2 0.2 0.7 0.6 0.8 1.1 0-0.2-1.7 0.5-1.8 0.6-0.6 0.2-1 0.6-1.5 1q0.5 0.2 1.1 0.5-0.8 0.4-1.4 1.3c0.4-0.2 0.7-0.1 1 0.2-1.3 0.9-2 2.8-2.5 4.6-0.5 2.1-0.8 4.6-0.5 6.8 0.2 1.7 0.6 3.2 1 4.8-0.3-0.6-0.6-1.2-1-1.7 0 0.5 0.1 1 0.2 1.5q0 0.4 0.1 0.9 0.1 0.4 0.2 0.8 0.4 2.2 1.1 4.1c2.9 4.3 6.8 6.4 10.5 5h0.1q0.2-0.1 0.5-0.2 0.2-0.1 0.5-0.3 0 0 0 0 0.2-0.1 0.5-0.3 0.2-0.1 0.4-0.3 0.2-0.1 0.4-0.3 0.2-0.1 0.3-0.3 0.3-0.2 0.5-0.5c2.3-2.4 3.7-6.3 4.1-10.8q0-0.1 0-0.1 0-0.3 0-0.5 0.1-0.3 0.1-0.6 0-0.1 0-0.1c0.1-2.4-0.1-4.8-0.6-7.3q-0.1-0.4-0.3-0.9-0.4-1.7-0.9-3.2c-0.9-1.3-1.9-2.5-3-3.3-3-2.5-7.6-3.6-11-3.6z"/><path class="l" d="m182.9 77.6c0 1.7-0.3 3.3-0.8 4.8q-0.1 0-0.1 0.1 0 0.2-0.1 0.4-0.1 0.1-0.2 0.3 0 0 0 0.1c-1.2 2.8-3.4 4.9-5.9 6q-0.3 0.1-0.6 0.2-0.2 0.1-0.4 0.1-0.2 0.1-0.4 0.1-0.3 0.1-0.5 0.1-0.2 0.1-0.5 0.1 0 0 0 0-0.3 0-0.5 0-0.3 0.1-0.6 0c-5.8 0-10.6-5.5-10.6-12.3q0-0.3 0-0.6 0.1-0.3 0.1-0.6c0.4-5.7 4.3-10.3 9.1-11.1q0.7-0.1 1.4-0.1c2.6 0 4.9 1.1 6.8 2.8 2.2 2.2 3.6 5.4 3.8 8.9q0 0.4 0 0.7z"/><path class="m" d="m180.6 78.3c1.1 4.3-0.4 9.3-4.8 11q-0.3 0.1-0.6 0.2-0.2 0.1-0.4 0.1-0.2 0.1-0.4 0.1-0.3 0.1-0.5 0.1-0.2 0.1-0.5 0.1 0 0 0 0-0.3 0-0.5 0-0.3 0.1-0.6 0c-5.8 0-10.6-5.5-10.6-12.3q0-0.3 0-0.6 0.1-0.3 0.1-0.6c-0.3 3.9 2.6 8.6 7 8 2-0.4 3.9-2.2 4-4.3 0.2-1.6-0.6-3.7-2.6-3.6-0.9 0.1-1.7 0.6-2.2 1.3-0.4 0.6-1.1 2.3-0.6 3-5.1-5.8 2.2-12.2 8.3-9.2 2.6 1.3 4.3 3.9 5 6.7z"/><path class="n" d="m281.6 73.7c-0.2 2.7-0.1 5.5 0.2 8.5q0 0 0.1 0.1 0 0.3 0 0.7 0.1 0.3 0.1 0.5 0 0.1 0 0.2c1.1 5.4 4 10.6 8.1 13.5 2.6 1.9 5.8 2.8 9.2 2.1q0.9-0.2 1.8-0.5c7.9-3.6 11.1-11.7 11.3-20.9 0.2-7.4-1.4-14.4-2.4-21.5-0.9-6.6-7.4-5.7-11.7-4.2-5.7 2-11 5.4-14 11.6-1.6 3.3-2.4 6.6-2.7 9.9z"/><path class="o" d="m282.1 83.5q0 0.1-0.1 0.2c1.1 5.4 4 10.6 8.1 13.5q2.3 0.7 5.1 0.3c7.1-1.1 9.2-10.4 5.5-16-1.5-2.3-3.4-4.3-4.2-7-0.9-3.6 0.7-11.1 4.7-11.7 0.7-0.1 3.8 0.4 4 1.1-1.1-3.6-4.4-5.5-7.7-4.4-3.5 1.2-6.9 4.4-9.4 7.4-3.6 4.5-6 10.4-6.1 16.6z"/><path class="n" d="m285.1 72.2c-0.1 1.9-0.1 3.9 0.2 6q0 0.1 0 0.1 0.1 0.2 0.1 0.5 0 0.2 0 0.4 0 0.1 0.1 0.1c0.8 3.8 3 7.5 6 9.5 2.1 1.4 4.5 2 7 1.5q0.7-0.1 1.4-0.4c6-2.4 8.5-8.2 8.6-14.7 0.2-5.2-1-10.1-1.8-15.2-0.7-4.7-5.6-4-8.9-3-4.3 1.5-8.3 3.9-10.6 8.2-1.2 2.4-1.9 4.7-2.1 7z"/><path class="o" d="m285.5 79.2c0 0 0 0.1 0 0.1 0.8 3.8 3 7.5 6.1 9.5q1.7 0.5 3.9 0.2c5.3-0.7 7-7.3 4.1-11.3-1.1-1.6-2.6-3-3.1-4.9-0.7-2.5 0.5-7.8 3.6-8.3 0.5 0 2.8 0.3 3 0.8-0.9-2.5-3.4-3.9-5.9-3.1-2.7 0.9-5.3 3.1-7.2 5.2-2.7 3.2-4.5 7.4-4.5 11.8z"/><path class="c" d="m288.9 71.8c-0.5 2.5-0.8 4.9-0.7 7.2q0 0.1 0 0.1 0 0.3 0 0.6 0 0.3 0 0.5 0 0.1 0 0.2c0.3 4.5 1.7 8.4 3.9 10.9q0.2 0.3 0.5 0.5 0.1 0.2 0.3 0.4 0.2 0.1 0.4 0.3 0.2 0.1 0.4 0.3 0.2 0.2 0.5 0.3 0 0 0 0 0.2 0.2 0.5 0.3 0.2 0.1 0.5 0.2c2.7 1.1 5.6 0.3 8-1.8 1.3-1 2.5-2.5 3.4-4.1 1-1.6 1.8-3.5 2.6-5.3q-0.3 0.1-0.6 0.2c0 0 0.2-0.5 0.3-0.6q0.2-0.5 0.4-1.1 0.4-1.1 0.8-2.1c-0.2 0.3-0.5 0.6-0.8 0.8 1.2-3.4 1.3-7.3 0.7-10.9-0.5-2.6-1.4-4.6-2.7-6.5 0.3-0.4 0.8-0.2 1.1-0.1q-0.5-0.8-1.3-1.3 0.6-0.2 1.2-0.5c-0.5-0.4-1-0.8-1.6-1-0.1-0.1-1.7-0.8-1.8-0.7 0.2-0.5 0.6-0.8 0.9-1.1q0.5-0.5 1.1-1.1c-3.4-0.1-8 1-11.1 3.3-2.8 2.2-5.3 6.1-6.6 11.2q-0.2 0.5-0.3 0.9z"/><path class="d" d="m304.3 61.3q-0.5 0.5-1.1 1c-0.2 0.3-0.7 0.6-0.8 1.1 0-0.1 1.6 0.6 1.8 0.7 0.5 0.3 1 0.6 1.5 1q-0.6 0.3-1.2 0.6 0.8 0.4 1.4 1.2c-0.4-0.1-0.7-0.1-1 0.2 1.2 1 2 2.9 2.4 4.7 0.5 2.1 0.8 4.6 0.4 6.8-0.3 1.7-0.7 3.2-1.2 4.8 0.4-0.6 0.7-1.2 1.1-1.7 0 0.5-0.1 1-0.2 1.5q-0.1 0.4-0.1 0.9-0.1 0.4-0.2 0.8-0.5 2.1-1.3 4c-2.9 4.2-6.9 6.2-10.6 4.7q-0.3-0.1-0.5-0.3-0.3-0.1-0.5-0.2 0 0 0 0-0.3-0.2-0.5-0.3-0.2-0.2-0.4-0.4-0.2-0.1-0.4-0.3-0.2-0.1-0.3-0.3-0.3-0.3-0.5-0.5c-2.2-2.5-3.6-6.5-3.9-10.9q0-0.1 0-0.2 0-0.2 0-0.5 0-0.3 0-0.6 0 0 0-0.1c-0.1-2.3 0.2-4.8 0.8-7.2q0.1-0.5 0.2-0.9 0.4-1.7 1-3.2 1.4-2 3.1-3.2c3-2.4 7.7-3.4 11-3.3z"/><path class="c" d="m288.5 74.7c-0.5 1.6-0.7 3.3-0.7 4.8q0 0.1 0 0.1 0 0.2 0.1 0.4 0 0.2 0 0.4 0 0 0 0.1c0.2 3 1.4 5.6 3.4 7.3q0.2 0.2 0.4 0.4 0.2 0.1 0.3 0.2 0.2 0.1 0.3 0.2 0.2 0.1 0.4 0.2 0.2 0.1 0.4 0.2 0 0 0.1 0 0.2 0.1 0.4 0.2 0.2 0.1 0.4 0.2h0.1c2.3 0.7 4.9 0.1 7-1.2 1.2-0.8 2.2-1.7 3.1-2.8 0.8-1.1 1.5-2.4 2.2-3.5q-0.2 0-0.5 0.1c0 0 0.2-0.4 0.2-0.5q0.2-0.3 0.4-0.7 0.4-0.7 0.7-1.4c-0.2 0.2-0.4 0.4-0.7 0.5 1.1-2.2 1.1-4.9 0.6-7.2-0.4-1.8-1.3-3.1-2.3-4.4 0.2-0.3 0.7-0.1 0.9-0.1q-0.5-0.5-1.2-0.8 0.6-0.2 1.1-0.4c-0.5-0.2-0.9-0.5-1.4-0.7-0.1 0-1.5-0.5-1.6-0.4 0.2-0.3 0.6-0.6 0.8-0.7q0.5-0.4 1-0.8c-3 0-7.1 0.6-9.8 2.2-2.5 1.5-4.7 4.1-5.9 7.5q-0.1 0.3-0.2 0.6z"/><path class="d" d="m302.1 67.7q-0.5 0.3-1 0.7c-0.2 0.2-0.6 0.4-0.7 0.7 0-0.1 1.4 0.4 1.6 0.4 0.5 0.2 0.9 0.5 1.3 0.7q-0.5 0.2-1 0.4 0.7 0.3 1.2 0.9c-0.3-0.1-0.7-0.1-0.9 0.1 1.1 0.6 1.8 1.9 2.1 3.2 0.4 1.4 0.7 3 0.4 4.5-0.3 1.1-0.7 2.1-1 3.2 0.3-0.4 0.6-0.8 0.9-1.1q0 0.5-0.2 1 0 0.3-0.1 0.5-0.1 0.3-0.2 0.6-0.4 1.5-1.1 2.7c-2.6 2.8-6.1 4.1-9.3 3.2h-0.1q-0.2-0.1-0.4-0.2-0.2-0.1-0.4-0.2-0.1 0-0.1 0-0.2-0.1-0.4-0.2-0.2-0.1-0.4-0.2-0.1-0.1-0.3-0.2-0.1-0.1-0.3-0.3-0.2-0.1-0.4-0.3c-1.9-1.7-3.2-4.3-3.4-7.3q0-0.1 0-0.1 0-0.2 0-0.4-0.1-0.2-0.1-0.4 0 0 0-0.1c0-1.5 0.2-3.2 0.7-4.8q0.1-0.3 0.2-0.6 0.4-1.1 0.9-2.1 1.3-1.3 2.7-2.2c2.7-1.6 6.8-2.2 9.8-2.2z"/><path class="l" d="m287.7 79.4c0 2.6 0.3 5 0.9 7.3q0 0 0.1 0.1 0 0.3 0.1 0.6 0.1 0.2 0.2 0.4 0 0.1 0 0.2c1.4 4.2 3.8 7.5 6.7 9q0.3 0.2 0.7 0.4 0.2 0.1 0.4 0.1 0.2 0.1 0.5 0.2 0.2 0.1 0.5 0.2 0.3 0 0.6 0.1 0 0 0 0 0.3 0 0.5 0 0.4 0.1 0.7 0.1c6.6 0 11.9-8.4 11.9-18.7q0.1-0.5 0-0.9 0-0.4 0-0.9c-0.5-8.6-4.8-15.6-10.3-16.7q-0.8-0.2-1.6-0.2c-2.9 0-5.5 1.6-7.6 4.3-2.5 3.2-4.1 8-4.3 13.4q0 0.5 0 1z"/><path class="m" d="m290.2 80.4c-1.1 6.6 0.5 14 5.5 16.6q0.4 0.2 0.7 0.4 0.2 0.1 0.4 0.1 0.3 0.1 0.5 0.2 0.3 0.1 0.5 0.2 0.3 0 0.6 0.1 0 0 0 0 0.3 0 0.6 0 0.3 0.1 0.6 0.1c6.6 0 12-8.4 12-18.7q0-0.5 0-0.9-0.1-0.4-0.1-0.9c0.4 5.8-2.9 13-7.9 12-2.3-0.5-4.4-3.3-4.6-6.4-0.1-2.5 0.8-5.6 3-5.4 1 0.1 2 0.8 2.5 1.9 0.5 0.8 1.3 3.5 0.6 4.5 5.9-8.8-2.4-18.4-9.3-13.8-2.9 1.9-4.8 5.8-5.6 10z"/><path class="l" d="m286.6 77.6c0 1.7 0.3 3.3 0.9 4.8q0 0 0 0.1 0.1 0.2 0.1 0.4 0.1 0.1 0.2 0.3 0 0 0 0.1c1.2 2.8 3.4 4.9 5.9 6q0.3 0.1 0.6 0.2 0.2 0.1 0.4 0.1 0.2 0.1 0.4 0.1 0.3 0.1 0.5 0.1 0.3 0.1 0.5 0.1 0 0 0.1 0 0.2 0 0.4 0 0.3 0.1 0.6 0c5.8 0 10.6-5.5 10.6-12.3q0-0.3 0-0.6 0-0.3-0.1-0.6c-0.4-5.7-4.2-10.3-9.1-11.1q-0.7-0.1-1.4-0.1c-2.6 0-4.9 1.1-6.7 2.8-2.3 2.2-3.7 5.4-3.9 8.9q0 0.4 0 0.7z"/><path class="m" d="m288.9 78.3c-1 4.3 0.4 9.3 4.8 11q0.3 0.1 0.6 0.2 0.2 0.1 0.4 0.1 0.2 0.1 0.4 0.1 0.3 0.1 0.5 0.1 0.3 0.1 0.5 0.1 0 0 0.1 0 0.2 0 0.4 0 0.3 0.1 0.6 0c5.8 0 10.6-5.5 10.6-12.3q0-0.3 0-0.6 0-0.3-0.1-0.6c0.3 3.9-2.6 8.6-6.9 8-2.1-0.4-4-2.2-4.1-4.3-0.1-1.6 0.6-3.7 2.6-3.6 0.9 0.1 1.7 0.6 2.2 1.3 0.5 0.6 1.2 2.3 0.6 3 5.1-5.8-2.2-12.2-8.3-9.2-2.6 1.3-4.3 3.9-4.9 6.7z"/><path class="f" d="m281.6 22.3c4.6 5.4 8.1 13.1 11.6 18.4q-2.8-1.5-5.7-3.1c3.7 3.5 6.7 8 8.4 12.8q-1.4-1.3-3.1-2.1c0.4 1.8 2 3.8 2.8 5.5 2 4.5 4.3 14 8.7 15.5q-2.1-0.7-4.2-1.4c1 1.7 2.5 3.3 3.4 5 0.4 0.8 1.3 5.4 1.6 5.7-0.9-0.8-1.9-1.4-2.9-1.7 2.8 0.9 4.9 17.7 5.5 20.9 1.6 8.5 2.8 17.2 2 26-0.4-1.5-1.2-2.8-2.2-3.7 0.4 0.3-1.5 9.4-1.7 10.1q-0.7-0.9-1.5-1.8c2.3 2.9-7.8 16.5-9.5 18.8-4.3 5.5-8.4 10.6-13.4 15.7 0.1-0.5 0-1.1-0.2-1.6q-2.9 2.5-6 4.8 0.9-1.9 1.9-3.7c-4.2 3.1-8.7 5.6-13.4 7.7-1.3 0.6-12.1 2.9-12.4 4q0.4-1.2 0.7-2.4-4.5 2.7-9.1 5.3c-0.3-1.7-0.4-3.5-0.2-5.3q-4.5 2.6-9.3 4.5 0-1.6-0.1-3.1c-1.6 0.2-3 1.7-3.1 3.4-4.6-1.6-8.8-3.9-12.7-6.7q2.5 2.6 5 5.2c-6.2-0.4-12.7-2-18.2-5-3.3-1.8-10.6-5.9-11.7-9.7 1 3.2 2.8 6.2 5.3 8.5-0.4 0.3-1 0-1.5-0.4-12.5-9.8-23.1-21-29-35.9-1.1-2.7-5.7-13.2-4.5-16q-1.2 2.9-2.8 5.5c-2-15.3 1.9-28.5 7-42.5-0.7 2-2.5 3.4-4.2 3.3 2.3-5.9 4.5-11.6 7.6-16.9-1 1.1-2.5 1.5-3.7 0.9 3 1.4 13.8-25.9 15.7-28.5-1.4 0.9-3 1.5-4.6 1.7 3.9-5.8 8.7-11 14.2-15.3-2.1 0.8-4.1 1.9-5.9 3.2 3.2-4 6.8-7.6 10.4-11.2 1.6-1.6 6.4-7.5 8.4-7.8-2.5 0.4-5.1 0-7.4-1q9.1-2.2 17.8-5.5-2.1-0.9-4.3-1.8c4.9 2.1 13.8-0.2 19-0.4 9.6-0.5 18.4-0.1 27.2 3.6 9.3 3.9 17 9.3 24.9 15.4-1.4 0.6-3.2 0.3-4.4-0.6 1.4 1 2.6 2.3 3.8 3.7z"/><path class="p" d="m291.1 126.5c3.9-5.3 7.5-11.6 8.2-17.4 0 11.9-6.2 24.2-11.5 34.5-0.3-0.8-0.6-1.5-0.6-2.4q-4.1 5.6-8.2 11.1c-0.4-1.4-0.3-2.9 0.2-4.2-1.5 1.4-14.2 11.7-14.1 13.1-0.2-1.6 0-3.3 0.5-4.9q-6.1 4.6-11.8 9.8 0.4-2.4 0.7-4.8c-3.9 3.3-8.2 6.4-12.6 9-0.4-1.1-0.3-2.4 0.4-3.3q-4 2.3-7.9 4.5-0.9-1.8-1.7-3.6c-0.7-0.1-1.3 0.7-1.1 1.3-2.2-0.8-9.8-3.3-11-5.5q0.9 1.6 1.7 3.2-7-3.4-13.5-7.6 0.4 1.8 0.9 3.5c-6.2-3.7-11.9-8.1-17.1-13q1.4 3 2.7 6.1c-13.3-12.8-23.1-26.9-24.3-45.9 3.3 11.9 10.8 23.9 21.7 30.2 9.4 5.3 20.5 8.8 31.3 9.3 13.3 0.5 26.9-1.4 39.4-5.6 8.6-2.9 17.1-5.3 23.2-12 1.5-1.6 3-3.4 4.5-5.4z"/><path class="i" d="m295.3 122.5c-5.4 10.5-12.9 19.2-21.4 25.5-13 9.4-26.6 10.2-41.3 9.9-14.7-0.3-29.4-1.4-41.7-12.3-7.9-7-14.3-16.8-18.2-27.9-8-22.9 1.5-49.7 12.8-67.9 3.7-6 8-10.1 13-13.9 3.2-2.5 6.6-4.8 10.3-7.3-1.7 2.5-3.1 5.3-3.9 8.3 5.6-2 10.8-5 15.4-8.8q1.5-1.3 2.9-2.6 0.2 1.9 0.8 3.7c0.4 1.5 1 2.9 1.8 4.2 0.2-1 0.5-1.9 1-2.8q0.4-0.8 1-1.5 0.7 1.4 1.4 2.8c6.1-3.2 11.8-7.1 17-11.6 1.4 3.2 3.2 6.3 5.3 9q0.2-3 0.3-6 5.5 4.6 11.1 9.1 0.1-3.8 0.2-7.6c0.1 1.8 6.4 3.8 7.7 4.5 3.9 1.9 6.2 4.6 8.9 8.2q4.1 5.4 7.5 11.7c10.8 19.6 19.5 51.5 8.1 73.4z"/><path class="l" d="m218.2 54.6c-8.1-1.5-16.8-7.3-19.1-14.6q-0.7-2.3-0.6-4.1c3.2-2.5 6.6-4.8 10.3-7.3-1.7 2.5-3.1 5.3-3.9 8.3 5.6-2 10.8-5 15.4-8.8q1.9 0.4 3.7 1.1c0.4 1.5 1 2.9 1.8 4.2 0.2-1 0.5-1.9 1-2.8 1.4 0.8 2.6 1.7 3.5 2.8 7.7 8.8 1.6 23.8-12.1 21.2z"/><path class="l" d="m201.8 50.4c-3.7-6.5-14.5 3.4-9.8 7.2 0.4 0.4 1.1 0.6 1.7 0.8 2.3 0.5 4.9 0.1 6.8-1.5 1.8-1.6 2.5-4.4 1.3-6.5z"/><g style="opacity:.9"><path class="q" d="m204.9 38.4c6.8-2.3 13.1-5.9 18.3-10.6 0.3 2.6 1.2 5.1 2.6 7.4 0.3-1.5 1-2.8 2-4q0.7 1.3 1.4 2.5c6.1-2.9 11.8-6.6 17-10.8 1.4 3.1 3.2 5.9 5.3 8.5q0.2-2.8 0.3-5.6 5.5 4.2 11.1 8.5 0.1-3.6 0.2-7.1c0.1 1.7 6.4 3.5 7.7 4.1 3.9 1.8 6.2 4.4 8.9 7.7q4.1 5.1 7.5 10.9c1.9 3.2 3.7 6.8 5.4 10.5-1.7-4-3.5-7.8-5.4-11.2q-3.4-6.3-7.5-11.7c-2.7-3.6-5-6.3-8.9-8.2-1.3-0.7-7.6-2.6-7.7-4.5q-0.1 3.8-0.2 7.6-5.6-4.5-11.1-9.1-0.2 3-0.3 6c-2.1-2.7-3.9-5.8-5.3-9-5.2 4.5-10.9 8.4-17 11.6q-0.7-1.4-1.4-2.8c-1 1.3-1.7 2.8-2 4.3-1.4-2.4-2.3-5.1-2.6-7.9-5 4.9-11.1 8.7-17.7 11.1q-0.3 0.9-0.6 1.8z"/><path class="q" d="m185.5 50.5c5.6-8.5 12.8-13.1 21.3-18.5q0.9-1.8 2-3.4c-9.4 6.5-17.3 11.4-23.3 21.2-2.1 3.3-4 6.8-5.8 10.6 1.8-3.5 3.7-6.8 5.8-9.9z"/><path class="q" d="m295.3 118.4c-5.4 9.8-12.9 17.9-21.4 23.8-13 8.8-26.6 9.5-41.3 9.2-14.7-0.3-29.4-1.3-41.7-11.5-7.9-6.5-14.3-15.6-18.2-26-1.9-5.1-2.8-10.5-3-15.9-0.1 6.7 0.8 13.4 3 19.7 3.9 11.1 10.3 20.9 18.2 27.9 12.3 10.9 27 12 41.7 12.3 14.7 0.3 28.3-0.5 41.3-9.9 8.5-6.3 16-15 21.4-25.4 4-7.7 5.5-16.5 5.4-25.7-0.2 7.7-1.8 15.1-5.4 21.5z"/></g><path class="q" d="m210.3 81.4c-2-0.8-3.8-2.1-4.9-3.8-0.8-1.3-1.2-2.7-1.4-4.2-0.9-7.4 4.6-15 11.5-14.6 5.9 0.2 14.2 7.6 12.9 14.7-1.3 7.8-11.3 10.5-18 7.9z"/><path class="q" d="m259 81.4c2-0.8 3.8-2.1 4.9-3.8 0.8-1.3 1.3-2.7 1.5-4.2 0.8-7.4-4.7-15-11.6-14.6-5.8 0.2-14.1 7.6-12.9 14.7 1.4 7.8 11.3 10.5 18.1 7.9z"/><path class="r" d="m225.5 72.5q0 0.4-0.1 0.9 0 0.2 0 0.3-0.1 0.3-0.2 0.6 0 0.1 0 0.1-0.1 0.3-0.2 0.6-0.3 0.7-0.7 1.4-0.2 0.3-0.4 0.5 0 0 0 0.1-0.2 0.2-0.5 0.5-0.2 0.2-0.4 0.4-0.4 0.4-0.8 0.7-0.1 0-0.1 0c-0.1 0.1-0.3 0.2-0.4 0.3q-0.6 0.3-1.2 0.5-0.2 0.1-0.5 0.2-0.4 0.1-0.8 0.2-0.2 0-0.4 0 0 0.1-0.1 0.1-0.1 0-0.2 0-0.1 0-0.2 0-0.3 0-0.5 0-0.4 0-0.7 0-0.2 0-0.5-0.1-0.2 0-0.3 0-0.3-0.1-0.6-0.2-0.1 0-0.1 0-0.3-0.1-0.6-0.2-0.7-0.3-1.4-0.7-0.3-0.2-0.5-0.4 0 0-0.1 0-0.2-0.2-0.5-0.5-0.2-0.2-0.4-0.4-0.4-0.4-0.7-0.8 0 0 0-0.1c-0.1-0.1-0.2-0.2-0.3-0.4q-0.3-0.6-0.5-1.2-0.1-0.2-0.2-0.5-0.1-0.4-0.2-0.8 0-0.2 0-0.5-0.1-0.5-0.1-0.9 0-0.3 0-0.7 0.1-0.2 0.1-0.5 0-0.2 0-0.3 0.1-0.1 0.1-0.1 0-0.3 0.1-0.6 0.1-0.2 0.2-0.4c0.6-1.4 1.7-2 3.1-2.2h0.1c1.3-0.1 2.8 0.1 4.5 0.4 1.9 0.2 3.7 0.6 5 1.2 1.4 0.7 2.2 1.7 2.2 3.5z"/><path class="s" d="m224.1 71.8c0.2 3.5-2.4 6.5-5.9 6.7-3.5 0.2-6.5-2.4-6.7-5.9q0-0.5 0-1 0-0.2 0-0.3 0.1-0.2 0.1-0.5 0.1-0.3 0.2-0.6 0-0.1 0.1-0.1 0-0.3 0.2-0.5 0-0.1 0-0.1 0.1-0.3 0.3-0.6c0.4-0.5 0.8-1.1 1.3-1.5h0.1c1.2-0.1 2.8 0.1 4.5 0.4 1.9 0.2 3.7 0.6 5 1.2q0.2 0.3 0.3 0.7 0.1 0.3 0.2 0.7 0.2 0.3 0.2 0.7 0.1 0.3 0.1 0.7z"/><path class="t" d="m217.8 75.9c-2 0-3.7-1.7-3.7-3.7 0-2 1.7-3.7 3.7-3.7 2 0 3.7 1.7 3.7 3.7 0 2-1.7 3.7-3.7 3.7z"/><path class="r" d="m216 71.5c-0.9 0-1.7-0.8-1.7-1.7 0-0.9 0.8-1.7 1.7-1.7 1 0 1.7 0.8 1.7 1.7 0 0.9-0.7 1.7-1.7 1.7z"/><path class="r" d="m260 72.2q0 0.3 0 0.5 0 0.4-0.1 0.7 0 0.4-0.1 0.7-0.1 0.3-0.2 0.7-0.2 0.5-0.5 1.1-0.5 0.8-1.1 1.5-0.2 0.2-0.4 0.4 0 0 0 0.1-0.3 0.2-0.6 0.4-0.3 0.2-0.6 0.4-0.5 0.4-1.2 0.7-1 0.4-2.1 0.5-0.4 0-0.8 0-0.3 0-0.5 0-0.2 0-0.3 0-0.3-0.1-0.5-0.1-0.4-0.1-0.8-0.2-0.3-0.1-0.5-0.1-0.7-0.3-1.2-0.6-0.3-0.2-0.5-0.3-0.4-0.3-0.8-0.7-0.2-0.2-0.5-0.4-0.2-0.2-0.4-0.5 0-0.1-0.1-0.1-0.1-0.2-0.3-0.5-0.4-0.6-0.7-1.4-0.1-0.3-0.2-0.5-0.2-0.5-0.3-1.1 0-0.5 0-0.9c0-1.7 0.8-2.7 2.1-3.4q0.1-0.1 0.1-0.1c1.3-0.6 3.1-1 5-1.3 1.6-0.2 3.2-0.4 4.4-0.3h0.1c1.3 0.1 2.3 0.6 2.9 1.6q0.2 0.3 0.3 0.6 0 0.2 0.1 0.4 0.2 0.7 0.3 1.4 0 0.4 0 0.8z"/><path class="s" d="m258.6 71.8c0.2 3.5-2.4 6.5-5.9 6.7-3.5 0.2-6.5-2.4-6.7-5.9q-0.1-0.5 0-1.1 0-0.1 0-0.3 0.1-0.3 0.2-0.6 0.1-0.4 0.2-0.8 0.2-0.4 0.4-0.7 0.1-0.1 0.1-0.1c1.3-0.6 3.1-1 5-1.3 1.7-0.2 3.2-0.4 4.5-0.3q0.2 0.2 0.4 0.4 0.2 0.2 0.4 0.5 0.2 0.2 0.3 0.4 0.1 0.1 0.1 0.1 0.2 0.3 0.3 0.5 0.1 0.3 0.3 0.5 0 0.1 0 0.1 0.1 0.3 0.2 0.6 0.1 0.3 0.1 0.6 0.1 0.4 0.1 0.7z"/><path class="t" d="m252.3 75.9c-2 0-3.7-1.7-3.7-3.7 0-2 1.7-3.7 3.7-3.7 2 0 3.7 1.7 3.7 3.7 0 2-1.7 3.7-3.7 3.7z"/><path class="r" d="m250.3 71.5c-0.9 0-1.6-0.8-1.6-1.7 0-0.9 0.7-1.7 1.6-1.7 1 0 1.7 0.8 1.7 1.7 0 0.9-0.7 1.7-1.7 1.7z"/><path class="u" d="m273.1 118.4q-0.1 1.1-0.4 2.1-0.3 1.2-0.7 2.3-0.1 0.1-0.1 0.2 0 0 0 0-0.2 0.4-0.3 0.7-0.1 0.2-0.2 0.4-0.1 0.3-0.2 0.5-0.4 0.7-0.7 1.3-0.4 0.7-0.8 1.3-0.4 0.7-0.9 1.3 0 0 0 0.1-0.5 0.5-0.9 1.1-0.1 0.1-0.2 0.3-0.5 0.5-1 1.1-0.6 0.6-1.2 1.1-0.6 0.6-1.2 1.1 0 0 0 0.1-0.1 0-0.2 0.1-0.6 0.5-1.2 1 0 0-0.1 0.1-0.4 0.3-0.9 0.7-0.5 0.3-0.9 0.6-0.7 0.5-1.4 0.9-1.4 0.9-2.9 1.6-0.8 0.4-1.6 0.8-0.7 0.3-1.4 0.6-0.2 0.1-0.4 0.1-0.4 0.2-0.8 0.4-0.7 0.2-1.4 0.4-0.1 0.1-0.3 0.1-0.9 0.3-1.7 0.6-1 0.2-1.9 0.5 0 0-0.1 0-1.8 0.4-3.8 0.7-1.7 0.3-3.4 0.4-2.2 0.2-4.4 0.2-0.8 0-1.5 0-0.5 0-0.9 0-0.6 0-1.1-0.1c-0.7-0.1-1.5-0.1-2.2-0.2q-0.3 0-0.7-0.1-0.6 0-1.3-0.2-0.7-0.1-1.5-0.2-1.9-0.4-3.8-0.9-0.9-0.2-1.7-0.5-0.9-0.3-1.7-0.6-1.3-0.4-2.4-0.9-1.2-0.5-2.4-1.1-0.7-0.4-1.5-0.8c-8.7-4.8-14.5-12.4-15.1-21q1 1.1 2.1 1.9c10.5 6.8 23.1-13.5 35.8-13.2 13.5 0.3 27 24.7 37.5 13.1z"/><path class="p" d="m273.1 118.4q-0.1 1.1-0.4 2.1c-1.3 0.9-2.8 1.6-4.4 2-5.8 1.5-11.2 0.1-16.7-1.9-5-1.9-10-4.1-15.3-4.3-6.8-0.1-13 3-19.4 4.9-3.1 0.9-6.4 0.9-9.6 1.4-1 0.1-1.9 0.3-2.8 0-0.6-0.2-1.2-0.7-1.7-1.1q-1.6-1.4-2.9-3c10.5 6.9 23.1-13.4 35.7-13.2 13.5 0.3 27.1 24.7 37.5 13.1z"/><path class="v" d="m270.3 149.3q-0.1 0.2-0.1 0.3c-0.8 4.2-1.9 8.7-3.5 13.1q-0.5 1.6-1.1 3.2-0.4 1-0.8 1.9-0.2 0.6-0.5 1.1-0.3 0.6-0.5 1.1-0.3 0.6-0.6 1.1-1.6 3.3-3.6 6.2-0.3 0.5-0.7 1-0.3 0.5-0.7 0.9-1.7 2.3-3.8 4.3c2.8-4.5 5.3-9.5 7.2-14.4 1.8-5 0.9-10.9 2.6-15.7q-2.2 6.2-4.4 12.5c0-5.9-1.9-12.9-1-18.6-1.6 9.6-4.6 19.2-10.3 27.1 3.4-8.9 3.1-18.7 2.7-28.2 0 4.9-3 10.5-4.4 15.1-1.5 4.9-3 9.8-5.3 14.3-0.9 1.9-2.7 3.7-2.8 5.8q0.2-8.1-0.7-16.1-2.7 5.2-5.3 10.3-0.4-4.8-0.9-9.7-0.9 5.4-0.7 10.9c-6.6-10.9-9.9-23.8-9.3-36.5-2.7 9-0.9 18.6 0.9 27.8q-1.6-2.1-3.1-4.2 1.2 4.3 2.4 8.6c-6.9-9.9-10.8-21.9-11.2-34-0.6 8.9 0.6 17.3 1.9 26.1 1 7.2 2.2 13.7 7.3 19.5q-1-0.9-1.9-1.9-0.5-0.6-1.1-1.2c-5-5.6-10.3-13.4-14.2-22q-0.5-0.9-0.9-1.8-0.2-0.6-0.5-1.2-0.1-0.2-0.1-0.4c-2.1-5.2-3.7-10.6-4.3-15.9-1.1-9.3 0.8-18.2 7.6-24.7q0.5 3.7 1.9 7.2c1.5-1.9 2.6-4 5.1-4.5 0.2 0.8 0.4 3.6 0.9 4.1q0.2 0.1 0.3 0.2c1.8 1.7 2.3 4.2 2.5 6.6 2-0.1 7.5-3.8 7.5-6.7 0.2 2.3 0.1 4.7-0.5 6.8q2.7-1.6 5.1-3.7c-0.1 2.6-0.9 5.2-2.1 7.3 6.7-3 8.1-7.7 9.7-15.1 0.1 4.9 1.8 9.6 4.7 13.3-0.4-1.7-0.3-3.5 0.3-5.1 1.3 2.3 3.1 4.3 5.2 5.8 1.3-2.5 3-4.7 5-6.6q0.1 2.7 0.6 5.3c1.2-0.7 2.2-1.8 3.1-2.8 1.2-1.2 3.2-2.6 4-4.2 0.1-0.1 0.2-0.3 0.3-0.3 0.2-0.1 0.4 0 0.5 0.1 1.8 1.4 3.1 2.5 3.8 4.7-0.2-0.6 0.3-2.2 0.8-3.8 0.5-1.4 1-2.8 1.1-3.6-0.1 1 1.2 3.8 1.3 5.1q0.3-0.6 0.5-1.1c0.8-2.5-0.2-4.5 0.1-7.1 2.3 1 3.8 3.2 4.7 5.4 3.2 8.5 0.9 18.5-0.7 27z"/><path class="w" d="m270.3 149.3q-0.1 0.2-0.1 0.3c-0.8 4.2-1.9 8.7-3.5 13.1q-0.5 1.6-1.1 3.2-0.4 1-0.8 1.9-0.2 0.6-0.5 1.1-0.3 0.6-0.5 1.1-0.3 0.6-0.6 1.1-1.5 3.3-3.6 6.2-0.3 0.5-0.7 1-0.3 0.5-0.7 0.9-1.7 2.3-3.8 4.3c2.8-4.5 5.3-9.5 7.2-14.4 1.8-5 0.9-10.9 2.6-15.7q-2.2 6.2-4.4 12.5c0-5.9-1.9-12.9-1-18.6-1.6 9.6-4.6 19.2-10.3 27.1 3.4-8.9 3.1-18.7 2.7-28.2 0 4.9-3 10.5-4.4 15.1-1.5 4.9-3 9.8-5.3 14.3-0.9 1.9-2.7 3.7-2.8 5.8q0.2-8.1-0.7-16.1-2.7 5.2-5.3 10.3-0.4-4.8-0.9-9.7-0.9 5.4-0.7 10.9c-6.6-10.9-9.9-23.8-9.3-36.5-2.7 9-0.9 18.6 0.9 27.8q-1.6-2.1-3.1-4.2 1.2 4.3 2.4 8.6c-6.9-9.9-10.8-21.9-11.2-34-0.6 8.9 0.6 17.3 1.9 26.1 1 7.2 2.2 13.7 7.3 19.5q-1-0.9-1.9-1.9-0.5-0.6-1.1-1.2c-5.9-6.4-10.7-14-14.2-22q-0.5-0.9-0.9-1.8-0.2-0.6-0.5-1.2-0.1-0.2-0.1-0.4c-2.1-5.2-3.7-10.6-4.3-15.9-1.1-9.3 0.8-18.2 7.6-24.7q0.5 3.7 1.9 7.2c1.5-1.9 2.6-4 5.1-4.5 0.2 0.8 0.4 3.6 0.9 4.1q0.2 0.1 0.3 0.2c-4 4.6-8.3 9.7-7.4 11.5-0.9-1.8-0.9-3.9 0-5.6-9.4 13.9-2.6 27.2 4.4 40.1-3.1-11-2.5-23 1.7-33.7 0.5 7.9 2 15.7 4.7 23.2l-0.1-11.2c0.2 5.8 1.6 11.6 4.3 16.8-1.2-9.2-2.1-19.1 2.6-27-0.5 11.4 1.3 22.9 5.1 33.6-1.7-11.7-0.5-23.9 3.5-35.1q-1 14-1.1 28.1 1.2-4.3 2.4-8.7-0.2 8.1-0.4 16.2c5.1-10.2 8.5-21.3 10-32.6q0 16.6-1.3 33.1c1.3-11.3 8.9-21.5 10.6-32.9 0.8 9.3 0.9 18.7 0.3 28.1 2.2-11.8 6.8-23 9.3-34.8q-0.4 14-0.9 27.9c1.2-2.1 2.6-4 3.8-6 0.1 1.6 0.4 3.3 1 4.9 0 0 1.9-4.4 2.1-5.2 0.6-2.8 0.9-5.7 1.2-8.6 0.6-6 0.5-12.1-1.8-17.7-0.2 1.1-0.6 2.2-1.2 3.2 0.5-0.8-0.8-3.3-2.3-6 0.5-1.4 1-2.8 1.1-3.6-0.1 1 1.2 3.8 1.3 5.1q0.3-0.6 0.5-1.1c0.8-2.5-0.2-4.5 0.1-7.1 2.2 1 3.8 3.2 4.6 5.4 3.2 8.5 0.9 18.5-0.6 27z"/><path class="v" d="m297.3 149.8c-0.4-1.6-1.3-3.1-2.4-4.3q0 2.5-0.3 5.1c-1 9.6-4.9 19.6-9.3 27.8-2.6 4.7-5.6 9.3-9.1 13.4q-0.4 0.5-0.7 0.9-2.9 3.3-6.1 6.3c-1.6 1.6-5 3.3-6.2 5.2q0.6-0.9 1.1-1.8 0.4-0.6 0.9-1.3c6-10 11.7-21.6 14.6-33.4 1.7-6.5 2.4-13 2-19.4-0.3-5.5-1.6-11.1-4.5-15.8-2.4-4-6.6-6.3-10.9-8.2-1.9-0.9-3.7-1.7-5.5-2.5q-0.2-0.1-0.4-0.2c-0.8-0.3-1.6-0.6-2.4-0.9q-0.5-0.2-1-0.5c-3.2-1.5-6.3-3-9.7-4.1-3.7-1.2-7.6-2.1-11.6-2.1-6.2-0.1-12.1 1.6-17.8 3.8l-1.4 0.5q-0.4 0.2-0.6 0.3-1.1 0.4-2.1 0.7c-0.4 0.2-0.8 0.4-1.2 0.5q-0.6 0.3-1.2 0.5 0 0-0.1 0.1c-3.7 1.8-7.8 2.7-11.4 4.8-4.4 2.4-5.5 5.1-7.9 9.3q-0.5 0.7-0.8 1.5-0.1 0.2-0.2 0.3-0.3 0.7-0.6 1.4-0.2 0.4-0.3 0.9-0.3 0.7-0.4 1.3-0.1 0.2-0.2 0.5-0.5 1.6-0.7 3.3-0.1 0.6-0.2 1.1-0.1 0.5-0.1 0.9 0 0.1 0 0.1 0 0.1 0 0.2c-0.4 3.9-0.2 7.8 0.3 11.6q-0.5-0.9-0.9-1.7c-1.2-2.4-1.9-5-2.1-7.6q0-0.7 0-1.4-0.1 0.2-0.2 0.4c0 0 0 0.1 0 0.1q0 0.1-0.1 0.2c-1.1 3.5-2 7-2.5 10.5q0 0.4-0.1 0.8-0.2 1.5-0.3 3c-0.2 1.8-0.2 3.7-0.1 5.6v0.1q0 1.7 0.2 3.4 0.1 1 0.3 1.9 0.1 1 0.3 2 0.2 0.9 0.4 1.9 0.2 0.8 0.5 1.6 0.1 0.6 0.3 1.2 0.2 0.8 0.5 1.6 0.3 0.7 0.6 1.5 0 0.1 0.1 0.3 0.2 0.3 0.3 0.7 0.4 0.8 0.8 1.7 0.4 1 1 2 0 0 0 0 0.3 0.6 0.6 1.1 0 0 0.1 0.1c0.7 1.4 1.6 2.7 2.6 4 0 0.1 0.1 0.2 0.2 0.3q2.5 3.2 5.7 5.9c-14.4-9.2-24.5-24.6-27.4-41.4-1.8-10.3-0.8-21 2.7-30.9 1.3-3.9 3-8.3 5.2-12.3q0.1-0.1 0.1-0.1c1.7-3.1 3.7-5.9 6.2-8-3-0.3-5.7 1.5-7.9 3.3 1-1.3 2.2-2.5 3.4-3.7 5.8-5.8 13-10.1 20.9-12.6 4.9-1.5 9.6-1.7 14.6-2.4 4.9-0.6 9-3.9 14-5 2.1-0.4 4.4 2.6 6.7 2.6 2.3 0 4.5-2.8 6.7-2.6 5.5 0.5 9.5 4.5 14.6 5.9 4.7 1.4 9.5 0.7 14.1 2.4q3.5 1.3 6.7 3.4c2 1.4 3.9 3.1 5.6 4.9-1.7-0.8-3.7-1.2-5.6-0.9 1-0.1 2.7 1.4 4.3 3 1.4 1.6 2.7 3.2 3.2 3.8 8.1 9.7 11.5 23 12.1 35.7q0.1 2.9 0 5.8z"/><path class="o" d="m183.9 106.2c-3.1-0.3-5.7 1.5-7.9 3.2q1.6-1.9 3.3-3.6c2.4-1.3 4.7-1.9 7.4-1.7-3.1 3.2-6.2 6.5-9 10 1.7-3 3.7-5.8 6.2-7.9z"/><path class="o" d="m281.9 104.5q-0.5-0.4-1.1-0.7c-1-0.5-5-2.9-6-2.4 1.4-0.7 3.1-1.2 4.6-0.9q0.1 0 0.1-0.1c0.1 0 0.1-0.1 0-0.2-0.5-0.9-1.2-1.8-1.9-2.8 2.1 1.4 4 3.1 5.7 5-1.8-0.9-3.7-1.2-5.6-1 1-0.1 2.7 1.4 4.2 3.1z"/><path class="o" d="m279.9 167.7c1.6-6.5 2.4-13 1.9-19.4-0.3-5.4-1.6-11-4.5-15.7-2.4-4.1-6.6-6.4-10.9-8.3-1.8-1.2-3.8-1.9-5.9-2.7-0.8-0.3-1.6-0.6-2.4-0.9q-0.5-0.2-1-0.5c-3.2-1.5-6.3-3-9.7-4-3.7-1.3-7.6-2.2-11.6-2.2-6.2-0.1-12.1 1.7-17.8 3.8l-1.4 0.6q-0.4 0.1-0.6 0.2-1.1 0.4-2.1 0.8c-0.4 0.1-0.8 0.3-1.2 0.5q-0.6 0.2-1.2 0.4 0 0-0.1 0.1c-3.7 1.8-7.8 2.8-11.4 4.8-4.4 2.4-5.5 5.1-7.9 9.3q-0.5 0.7-0.8 1.6-0.1 0.1-0.2 0.2-0.3 0.7-0.6 1.4-0.2 0.5-0.3 1c-0.2 0.4-0.3 0.8-0.4 1.2q-0.1 0.3-0.2 0.5-0.5 1.7-0.7 3.4-0.1 0.5-0.2 1-0.1 0.5-0.1 0.9 0 0.1 0 0.1 0 0.1 0 0.3c-0.4 3.8-0.2 7.7 0.3 11.5q-0.5-0.9-0.9-1.7c-1.2-2.4-1.9-5-2.1-7.6q0-0.7 0-1.4-0.1 0.2-0.2 0.4c0 0 0 0.1 0 0.1q0 0.1-0.1 0.2c-1.1 3.5-2 7-2.5 10.5q0 0.4-0.1 0.8c-0.1 1-0.2 2-0.3 3-0.2 1.8-0.2 3.7-0.1 5.6v0.1q0 1.7 0.2 3.4 0.1 1 0.3 2 0.1 0.9 0.3 1.9 0.2 0.9 0.4 1.9 0.2 0.8 0.5 1.6 0.1 0.6 0.3 1.2 0.2 0.8 0.5 1.6 0.3 0.7 0.6 1.5 0 0.1 0.1 0.3 0.2 0.4 0.3 0.7 0.4 0.8 0.8 1.7 0.5 1 1 2 0 0 0 0.1 0.3 0.5 0.7 1.1-0.1 0-0.1-0.1c-1.4-2-2.7-3.9-3.9-6.1-1.7-3.4-3.6-6.6-5.3-10-1-2-2-3.9-2.3-6.1q0.9 1.6 1.8 3.2c-2.3-7.8-2.9-14.3-1.6-22.6 1.2-8 3.6-15.7 5.8-23.5-4.2 15-6.2 29.8-3.8 45.3-0.7-11.4 1.6-22.9 6.6-33.1 0.1 5 0.2 9.8 1.2 14.7-0.3-1.2 0.1-2.8 0.2-4.1q0.3-2.2 0.8-4.3c0.7-2.6 1.5-5.2 2.6-7.5 3.1-7.1 5.9-12.8 11.8-18.2 4.8-4.3 10.4-7.9 15.9-11.3-6.8 4.9-12.8 10.9-17.9 17.5 3.7-1.4 7.8-3.2 11.6-4.1 3.7-1.6 7.3-3.6 10.8-5.5 1.5-0.9 2.8-1.2 4.4-1.8 1.1-0.4 3.2-1.2 3.6-2.5q-0.4 1.2-1.1 2.2c1.7-0.3 3.4-1 4.8-1.9q0 0.6-0.1 1.2 0.8-0.5 1.5-1 0.7 0.6 1.3 1.1 0.2-0.5 0.4-0.9c0.6 0.3 1.1 0.9 1.4 1.5 0.3-0.4 0.4-0.8 0.5-1.2 3.6 1.6 7.3 3 10.9 4.6 7.3 3.4 14.3 6.6 21.7 9.7-1.8-4.1-4.3-8-7.4-11.3 5.9 5.2 10 11.1 13.7 18.1q-2.6-6.9-5.1-13.7c1.6 4.3 4.8 8.4 6.7 12.7 7.3 17 6.8 37.4-0.2 54.4q0.8-6.4 0.4-12.9c0.3 4.3-4.4 10.9-6.2 14.6-2.9 5.7-6.2 11.3-9.7 16.7q0.4-0.7 0.9-1.4c6.1-10 12.9-21.8 14.6-33.4z"/><path class="o" d="m276.2 191.8q-0.4 0.5-0.7 0.9-2.9 3.3-6.1 6.3c-1.6 1.6-5 3.3-6.2 5.2q0.6-0.9 1.1-1.7c1.2-1.9 4.7-3.7 6.4-5.2 2-1.8 3.8-3.6 5.5-5.5z"/><path class="o" d="m194 195.9q-4.8-3.2-9-7.2c3.6 3.8 7.6 7.3 12.1 10.1-1.1-0.9-2.1-1.8-3.1-2.9z"/><path class="o" d="m297.3 149.8c-0.4-1.6-1.3-3.1-2.4-4.3q0 2.5-0.3 5.1c-0.1-0.6-0.3-1.1-0.4-1.4-0.3-1.4-0.4-2.9-0.7-4.3q-0.9-4.2-2.4-8.3c-2-5.4-4.8-10.5-8-15.3q-1.3-1.7-2.6-3.4c1.3 1.2 2.4 2.7 3.5 4.2 2.1 3 3.9 6 5.4 9.2 2.5 5.2 5.1 10.2 7.3 15.4q0.2-1.4 0.5-2.8 0 0 0 0 0.2 3 0.1 5.9z"/><path class="x" d="m263.9 123.1c-9.9-1.4-18.2-8.7-28.2-9-10.1-0.1-18.6 6.9-28.5 8.1 9.6-3.7 17.5-11.2 28.5-11.2 11 0.5 18.7 8.1 28.2 12.1z"/><path class="t" d="m226.7 99.8c-1.9 0-3.5-1.6-3.5-3.5 0-2 1.6-3.6 3.5-3.6 2 0 3.6 1.6 3.6 3.6 0 1.9-1.6 3.5-3.6 3.5z"/><path class="t" d="m244.4 99.8c-1.9 0-3.5-1.6-3.5-3.5 0-2 1.6-3.6 3.5-3.6 2 0 3.6 1.6 3.6 3.6 0 1.9-1.6 3.5-3.6 3.5z"/></svg>