<svg version="1.2" xmlns="http://www.w3.org/2000/svg" viewBox="0 0 470 470" width="470" height="470"><style>.a{fill:#d3bea6}.b{mix-blend-mode:multiply;fill:#d3bea6}.c{fill:#312e2d}.d{mix-blend-mode:multiply;fill:#312e2d}.e{fill:#fff}.f{fill:#ededed}.g{mix-blend-mode:multiply;fill:#dadada}.h{fill:#b17f4a}.i{mix-blend-mode:multiply;fill:#b17f4a}.j{fill:#d69f5d}.k{opacity:.9;mix-blend-mode:multiply;fill:#312e2d}.l{fill:#3c3c3b}.m{fill:#1d1d1b}.n{fill:#dadada}.o{fill:#4da7bc}.p{fill:#6e6765}.q{fill:#b56696}.r{mix-blend-mode:multiply;fill:#b56696}.s{fill:#44373c}.t{fill:#7f6770}</style><path class="a" d="m75.1 371.9c-0.7-5-0.7-12.6 4.4-14.9 3.9-1.8 10.1 0.2 11.3 4.6 1 3.7-1.3 7.6-3 10.7-2.7 5-4.4 10.3-4.3 16.1 0 0.4-0.1 1-0.4 1.1-0.4 0.2-0.8-0.1-1.1-0.4-4.5-4.6-6-10.9-6.9-17.2z"/><path class="b" d="m82.2 356.4c3.6-0.2 7.6 1.7 8.6 5.2 1 3.7-1.3 7.6-3 10.7-2.4 4.5-4 9.2-4.3 14.2-3.3-4.3-4.6-9.9-5.4-15.4-0.7-4.9-0.6-12.3 4.1-14.7z"/><path class="a" d="m55.9 363.8c-1.4-7.1-0.7-28.6 12.3-19.5 3.5 2.5 5 7.2 4.4 11.5-1 6.3-5.2 11.3-6.1 17.7-0.5 3.2-0.4 6.1-0.1 9.3 0.1 0.3 0.1 0.6-0.2 0.8-0.4 0.4-1 0-1.4-0.4-4.6-5.1-7.5-12.2-8.9-19.5z"/><path class="b" d="m68.2 344.3c3.5 2.5 5 7.2 4.4 11.5-1 6.3-5.2 11.3-6.1 17.7-0.3 2-0.4 3.9-0.3 5.9-3.6-4.9-5.9-11.1-7.1-17.3-0.9-4.7-0.9-15.8 3.1-20 1.6-0.2 3.6 0.5 6 2.2z"/><path class="a" d="m53.1 341.3c-1.9 3.4-2.8 7.2-3.2 11-0.3 3.3-0.3 6.7-0.3 10q0 0.2-0.1 0.4c-0.1 0.2-0.4 0.3-0.6 0.2-0.3-0.1-0.4-0.3-0.6-0.5-2.7-3.5-4.3-8.5-5.3-12.7-1.5-7.4-2.7-21.9 6.9-24.3 3.2-0.9 5.5 1 6.5 4 1.6 4.5-1.2 8.1-3.3 11.9z"/><path class="b" d="m51.3 325.2c2.5-0.1 4.2 1.6 5.1 4.2 1.6 4.5-1.2 8.1-3.3 11.9-1.9 3.4-2.8 7.2-3.2 11q-0.1 1.8-0.2 3.7c-1.1-2.5-1.9-5.3-2.5-7.8-1.3-6.5-2.4-18.6 4.1-23z"/><path class="c" d="m36 308c0 7.3 2.8 15.5 6.7 23.1 1.4 2.9 3.1 5.8 4.7 8.5 2.6 4 5.2 7.8 7.6 10.9 2 2.6 3.9 4.8 5.4 6.4q0.8 0.9 1.7 1.9c1.2 1.3 2.6 2.8 4.1 4.2q1.5 1.4 3 2.8 1.1 0.9 2.2 1.8 0.6 0.4 1.2 0.9 0.5 0.3 1 0.7 0.7 0.4 1.3 0.9 0.6 0.3 1.1 0.7 0.7 0.4 1.5 0.8 0.6 0.3 1.2 0.6 0.5 0.2 1 0.5 0.4 0.1 0.9 0.3 0.9 0.4 1.9 0.7 0.5 0.2 0.9 0.3 0.4 0.1 0.8 0.2 0.1 0 0.1 0 0.3 0.1 0.7 0.2 0.2 0 0.4 0.1 0.3 0.1 0.7 0.1 0.5 0.1 1 0.2 0.7 0.1 1.4 0.1 0.1 0 0.2 0 0.3 0.1 0.5 0.1h0.4c0 0 0 0 0 0q1.1 0 2.1-0.1 0.7 0 1.4-0.1 0.7-0.1 1.4-0.3 0.3 0 0.5-0.1 0.1 0 0.2 0 1.1-0.2 2.1-0.6 0.6-0.2 1.3-0.4 0.5-0.2 1-0.4 0.4-0.1 0.8-0.3 0.3-0.2 0.7-0.4 0.9-0.5 1.9-1.4c17.8-16.3 40.2-114.5 45.2-135.6 4.7-20.1 10.9-39.8 13.9-60.3 0.1-1.1 0.4-2.5 0.7-4q0.5-5.2 0.7-10.5c0-1.1 0.1-2.3 0.2-3.5q0-0.9 0-1.8 0.1-0.3 0.1-0.7c0-2.4-0.1-4.9-0.7-7.2-1-2-2.5-3.5-4.9-4.2q-0.5-0.2-1-0.3-0.4-0.1-0.8-0.2-0.1 0-0.2 0-0.2-0.1-0.5-0.1-0.3-0.1-0.5-0.2-0.2 0-0.4 0-0.3 0-0.7-0.1c-0.2 0-0.3 0-0.5-0.1q-0.1 0-0.2 0c-0.3 0-0.6 0-0.9 0q-0.7-0.1-1.3-0.1c-1.2 0-2.5 0.1-3.7 0.3-18.7 2.4-37.3 23.5-44.1 37.9-3.9 8.6-6 17.8-9.7 26.4-7.3 17.3-21.3 28.5-32.8 42.7-13.8 17-24.9 36.2-24.9 58.7z"/><path class="d" d="m60.1 341.9c2 19.5 8.6 22.5 9.1 23.9q1.1 0.9 2.2 1.8 0.6 0.4 1.2 0.8 0.5 0.4 1 0.8 0.7 0.4 1.3 0.9 0.6 0.3 1.1 0.6 0.7 0.4 1.4 0.8 0.6 0.3 1.3 0.7 0.5 0.2 1 0.4 0.4 0.2 0.8 0.4 1 0.4 2 0.7 0.4 0.1 0.9 0.3 0.4 0.1 0.8 0.2 0 0 0.1 0 0.5 0.2 1 0.3 0.4 0 0.8 0.1 0.5 0.1 1 0.2 0.7 0.1 1.4 0.1 0.1 0 0.2 0 0.4 0 0.8 0 0.1 0.1 0.1 0 1 0.1 2.1 0 0.7 0 1.4-0.1 0.7-0.1 1.4-0.3 0.3 0 0.7-0.1 1-0.2 2.1-0.6 0.6-0.2 1.2-0.4 0.5-0.2 1.1-0.4 0.4-0.2 0.8-0.3 0.3-0.2 0.7-0.4 0.9-0.5 1.9-1.4c17.8-16.3 40.2-114.5 45.2-135.6 4.7-20.1 10.9-39.8 13.8-60.3 0.2-1.2 0.4-2.5 0.7-4q0.6-5.2 0.8-10.5c0-1.1 0.1-2.3 0.1-3.5q0.1-0.9 0.1-1.8 0.1-0.3 0-0.7c0.1-2.5 0-4.9-0.6-7.2-1-2-2.6-3.5-4.9-4.2q-0.5-0.2-1-0.3-0.4-0.1-0.8-0.2-0.1 0-0.2-0.1-0.2 0-0.5-0.1-0.3 0-0.6-0.1-0.2 0-0.4 0-0.3-0.1-0.6-0.1c-0.2 0-0.3 0-0.5-0.1-0.3 5.1-2.1 9.9-4.2 14.5-1.9 4.3-3.8 8.7-6.1 12.7q-7 11.9-13.5 24.1c-4.4 8.1-9.4 14.4-14.4 21.7-8.8 12.3-14.2 26.6-20.8 40.2-6.6 13.7-15.3 26-22.8 39.3-8.3 14.9-13.5 30.1-11.7 47.3z"/><path class="e" d="m424.9 322.4c0 0 4.9 25.8-2.6 39 0 0-11.6-14-11.2-15.5 0.1-0.7 0.6-5.4 4-11 3.4-5.8 9.8-12.5 9.8-12.5z"/><path class="e" d="m424.9 322.4c0 0 4.9 25.8-2.6 39 0 0-11.6-14-11.2-15.5 0.1-0.7 0.6-5.4 4-11 3.4-5.8 9.8-12.5 9.8-12.5z"/><path class="f" d="m411 345.9c0.2-0.7 0.7-5.4 4-11 1.5-2.4 3.5-5 5.3-7.2 0.7 4.6 2.6 19.8-1.9 28.9-3.3-4.2-7.6-9.8-7.3-10.7z"/><path class="e" d="m406.6 345.8c0 0 1.3 19.5-2.7 29.1 0 0-6.2-9.5-11.5-13.2-3.3-2.3 2-6.7 6-11.2 2.6-2.9 8.2-4.6 8.2-4.6z"/><path class="f" d="m398.4 350.5c1.2-1.3 2.9-2.3 4.4-3.1 0.2 4.1 0.5 15.6-1.6 23.8-2.3-3.1-5.7-7.3-8.8-9.5-3.3-2.3 2.1-6.7 6.1-11.2z"/><path class="e" d="m389.4 358.8c0 0 3.1 10.8-1.9 23.9 0 0-7-7.1-11.6-10.4-2.3-1.6 1.3-5.8 4.7-9.5 3.5-3.7 8.8-4 8.8-4z"/><path class="f" d="m385.9 359.5c0.6 2.5 2 10.6-1.1 20.6-2.5-2.4-6.1-5.8-8.9-7.8-2.2-1.6 1.3-5.8 4.7-9.5 1.6-1.7 3.6-2.7 5.3-3.2z"/><path class="e" d="m432.7 308c0 7.3-2.8 15.5-6.6 23.1-1.5 2.9-3.1 5.8-4.8 8.5-2.5 4-5.2 7.8-7.6 10.9-2 2.6-3.8 4.8-5.3 6.4q-0.8 0.9-1.7 1.9c-1.3 1.3-2.7 2.8-4.2 4.2-1.4 1.4-2.9 2.8-4.5 4.1-2.5 1.9-5.1 3.7-7.9 5.1q-1.9 0.9-3.9 1.5-1.2 0.4-2.4 0.7-0.7 0.1-1.5 0.3-0.3 0-0.7 0.1-1 0.1-2.1 0.1-0.1 0-0.3 0-1.8 0.1-3.7-0.2-0.2 0-0.4 0-0.2 0-0.4-0.1-0.5-0.1-1-0.2-0.1 0-0.2 0-1.9-0.4-3.8-1.2 0 0 0 0-0.7-0.3-1.4-0.6c-18.1-8.1-42.6-115.2-47.8-137.3-3.7-15.8-25.8-87.4-9.3-95.4q0 0 0.1 0c0 0 56.6 40.9 83.1 79.7 18.6 27.3 30 49.9 35.1 67.9q1.8 6.4 2.6 12.1 0.6 4.4 0.6 8.4z"/><path class="g" d="m311.2 139.9c0 0 41.9 86.8 57.7 110.8 32.1 48.3 42.6 63.9 39.8 91.2-2 19.5-8.7 22.5-9.2 23.9-7.9 6.8-18.6 12.5-31.2 6.9-18.1-8.2-42.6-115.3-47.8-137.4-3.7-15.8-25.8-87.5-9.3-95.4z"/><path class="g" d="m414.5 293.1c-2.6-2.2-7-1.4-9.8-0.2-2.5 1-4.7 2.9-6.3 5.1-1.6 2.4-2.8 5.2-3.6 8-2.2 7.2-3.8 19.5 2.4 25.3 3.1 2.9 7.3 2.2 10.8 0.5 1.9-0.9 3.8-1.9 5.3-3.3q1.3-1.2 2.2-2.7c1.9-3.5 3-7.4 3-11.4 0-1 0-2-0.4-2.9-0.3-0.7-0.8-1.3-1.2-1.9-2.1-4-0.5-9-1.1-13.3-0.2-1.1-0.5-2.4-1.4-3.2z"/><path class="g" d="m432.1 299.6q0 0 0 0.1c-0.9 1.3-2 2.6-2.8 3.6-1.1 1.4-1.8 2.2-3.8 2.2-4.5-0.1-4.4-4.6-4.5-7.9 0-4.3-4-10.1 3-11.5 1.8-0.3 3.7 0.2 5.3 1.2q0.1 0.1 0.2 0.2 1.8 6.4 2.6 12.1z"/><path class="g" d="m409.2 286.1c0.2 0.5 0.6 0.9 1.5 1 2.7 0.2 5.5-1.9 6.1-4.5 0.2-0.9 0.1-1.9-0.5-2.6-0.3-0.4-0.8-0.6-1.3-0.7-2.7-0.6-4.2 1-5.2 3.3-0.4 0.9-0.9 2.4-0.6 3.4z"/><path class="h" d="m95.2 365c-0.4 1.9-1 3.8-1.8 5.7q0.8-0.3 1.7-0.2c0.5 3 0.8 6.2 1.3 9.3q0.1 0.5 0.2 0.9 0.4 2.1 0.8 4.3 0 0.1 0 0.1c0.2 0.8 0.2 1.4 0.1 2.1-0.1 1.1-0.3 2.1-0.5 3.2 0.4 0 0.8-0.1 1-0.4q0.1 1.3 0.2 2.6 0 0.1 0 0.2 0.3-0.4 0.7-0.7-0.1 1.3-0.2 2.6 0 1.1-0.2 2.2 0.7 0 1.4-0.1c-0.4 1.7-0.3 3.4 0.1 5 0.3-0.3 0.9-0.4 1.3-0.2-0.2 1.5 0 3 0.7 4.4 0.2-0.5 0.7-0.9 1.3-1-0.3 1.1-0.2 2.6-0.1 3.8 0.2 1.4 1.2 2.4 1.5 3.7-0.1-0.5 0.1-1 0.4-1.3-0.1 1.9 0.2 4 1 5.8q0.3-0.8 0.5-1.6c-0.5 1.7 3.6 7.2 4.4 9 1.7 3.7 3.1 7.4 3.8 11.4 0.1 1.5 0.5 2.9 1.3 4.2 0.4-0.8 1.1-1.3 2-1.6-0.2 1.1-0.4 2.2 0.2 3.1 0.6 1 2.2 1.2 2.7 0.2-0.5 2-0.2 4.2 1 6q0.2-0.5 0.5-1.1 0 1.2 0.1 2.4c2.3-2.1 4.5 1.1 4.8 3.6 0.3 2.9-2.2 5.7-3.8 8 1 0.3 2 0.3 2.9-0.1-0.9 0.6-1.4 1.8-1.1 2.9 0.6-0.2 1.1-0.2 1.7-0.1-0.6 1.1-0.8 2.3-0.8 3.5 1.5-1 3.5-1.4 5.2-1-0.4 0.5-0.6 1.1-0.7 1.8 0.1-0.6 6-2 6.6-2.2 0.5 0.9 0.8 1.9 0.9 2.9q1.3-1.4 2.7-2.8 0.3 0.8 0.6 1.7 0.5-0.6 1.1-1.2c0.5 0.3 0.9 0.9 0.9 1.5q0.4-0.6 0.9-1.1c0.4 1.3 2.2 1.9 3.4 1.1q0.3 0.6 0.7 1.2 0.6-0.7 1.2-1.5 0.7 0.9 1.5 1.7 0.4-0.4 0.8-0.8 0.7 0.5 1.3 1.1c0.6-0.5 0.9-1.3 0.9-2.1q0.8 1 1.6 2.1 1-1 1.9-2 0.6 0.9 1.1 1.9c0.3-0.9 0.7-1.9 1.6-2.4 0.8-0.4 2.2 0.2 2 1.2q0.7-0.6 1.5-1.1c0.2 0.5 0.5 0.9 0.9 1.2 1.5-0.8 3.3-1 5-0.5q0.7-0.4 1.3-0.8c0 0.2 7.9 0 7.6 2.4q0.1-0.7 0.2-1.5 1.2 0.2 2.5 0.5c-0.2-0.3-0.1-0.5 0-0.6q0-0.1 0.1-0.1 0.2-0.1 0.4-0.2 0.1 0 0.2 0 0.3-0.1 0.7-0.1 0.2 0.1 0.3 0.1 0.2 0.1 0.3 0.1c0.8 0.4 1.7 0.5 2-0.2 0.3 0.4 0.7 0.7 1.2 0.8q0.6-0.6 1.2-1.1 0.7 0.8 1.5 1.8c-1.2-2.1 1.8-2.2 2.8-0.5 2.9-1.9 4.2-3.2 6.2-6q0.6 0.5 0.6 1.3c1-0.9 1.7-2.1 2.4-3.3-0.2 0.5 0.6 0.8 1 0.5 0.4-0.3 0.5-0.8 0.5-1.3q0-0.2 0-0.3c0.2-1.9 1-9.9 0.9-12.5 0-0.5 0-0.8-0.1-0.8 0.6 0.2 1 0.7 1.1 1.3q0.1 0.1 0.1 0.2 0-0.1 0-0.2c0.1-1.6 0-3.3-0.3-4.8q0-0.3-0.1-0.5 0.2 0.3 0.4 0.6 0.2 0.2 0.3 0.4 0-0.1 0-0.3-1-4.3-2-8.5 0.1 0.1 0.2 0.2 0.8 0.6 1.8 1.2c-0.4-1.9-1-3.7-1.9-5.5q0.4 0.4 0.9 0.8 0.5 0.5 1.1 1c-0.5-3.3-0.6-6.6-0.7-9.8q0-0.9 0-1.8c-0.1-2.1-0.2-4.2-0.5-6.3q0.4 0.4 0.9 0.7 0.2 0.2 0.4 0.3 0.3 0.2 0.6 0.4-0.2-0.1-0.3-0.2 0 0 0 0c-1.7-1.7-0.5-7.6-0.1-9.5q0.7 0.6 1.2 1.3 0.1-3.1-0.2-6.3c0.7 0.8 1.3 1.7 1.6 2.7 1.5-2.8 3.6-6.5 4.4-9.7q0.1-0.1 0.1-0.3c0.8-3.5-1-7-2.9-10.1q-4-6.6-8.6-12.9c-10.3-14.1-22.5-27.3-33.9-40.1-10.1-11.1-21.7-25.5-37.2-28.5-11.3-2.1-23.4 6.6-29.7 15.5 0.8-0.3 1.6-0.3 2.3-0.1q-1.2 1.2-2.4 2.5c0.3 0.2 0.8 0.3 1.2 0.2-0.2 2.2-1 4.2-2.4 5.8 0.2 0.4 0.7 0.6 1 0.4-1.6 1.4-2.9 3.1-3.9 5-0.2 0.4-0.3 0.8-0.1 1-0.6 1-1.4 3.7-1.4 4.1 0.4-0.1 1.2 0 1.7 0q-0.3 0.7-0.6 1.4c-1.1 3.2-1.7 6.5-2.2 9.9 0 0.3-0.4 0.8-0.2 0.9 0.1 0 0 0.5 0 0.5q0.1 0.4 0.1 1 0 0.3 0.1 0.8 0 0.4 0 0.8 0.1 0.4 0.1 0.7c0.1 0.9 0.2 1.8 0.3 2.7v0.1q0 0.3 0 0.6 0.1 0.4 0.1 0.8 0 0.3 0.1 0.6 0 0.7 0.1 1.1 0 0.2 0 0.3 0 0.1 0 0.1c0.2 0.9 0 0.8-0.3 1.2q0 0.1 0 0.1c-0.5 1.2-0.9 2.4-0.9 3.7 0.3-0.2 0.8-0.3 1.2-0.2q-0.3 0.5-0.5 1.1-0.1 0.2-0.1 0.5 0 0 0 0-0.1 0.3-0.1 0.5-0.1 0.7 0.2 1.3c0.3-0.3 1.4-1 1.4-1.4z"/><path class="i" d="m95.2 365c-0.4 1.9-1 3.8-1.8 5.7q0.8-0.3 1.7-0.2c0.5 3 0.8 6.2 1.3 9.3q0.1 0.5 0.2 0.9c0.8 4.1 2.1 7.1 4.3 10.9 0.6 1 6 9.9 5.5 10.3q0.4-0.3 0.8-0.7 0.8 1.9 1.6 3.8 0.4-0.9 0.9-1.7c0.4 1.6 1 3 1.9 4.4 0.5-0.5 0.8-1.2 0.8-2 2 3.2 6 5.9 8.7 8.6 1.2 1.3 4 6.5 5.7 6.8 0.4 0.1 0.9-0.2 0.9-0.6q1 3.9 2.7 7.5 0.1-2.1 0.2-4.1c0.7 1.5 1.3 3 1.7 4.6q0.3-0.7 0.6-1.4 0.5 1.5 1.1 3 0.3-0.6 0.6-1.1c1.1 1.6 2.1 3.4 2.9 5.3 0.5-0.7 1.6-0.3 2 0.4 0.4 0.7 0.5 1.6 1.1 2.1 0.7 0.7 2 0.6 2.6-0.2 1.4 3.1 7.5 5.1 8.2 7.8q0.5 1.4 0.9 2.8c0.6 0.1 1.2-0.3 1.4-0.9q1.2 2.4 2.4 4.7 0.6-0.9 1.1-1.8 1 1.9 1.9 3.9c0.1-0.6 0.5-1.1 0.9-1.5 0.6 1 1.1 2.2 1.3 3.4 0.2-0.5 0.4-0.9 0.8-1.2q0.7 1.8 1.4 3.7 0.4-0.6 0.8-1.2 0.5 1.1 0.9 2.1c0.3-0.6 1-0.9 1.6-0.9q0.1 1.4 0.1 2.8c0.9-0.4 2-0.8 3-0.5 1 0.2 1.8 1.4 1.2 2.3q0.6-0.3 1.2-0.6c0.2 0.7 0.5 1.4 1 2q0.3-0.5 0.9-0.7c-0.3 0.3 3.9 2.5 7.8 4.4q0 0 0.1 0 0.4-0.1 0.8-0.1 0.1 0.1 0.3 0.1 0.1 0.1 0.3 0.1c0.7 0.4 1.7 0.5 2-0.2 0.2 0.4 0.7 0.7 1.1 0.8q0.6-0.6 1.2-1.1 0.8 0.8 1.6 1.8c-1.2-2.1 1.7-2.2 2.7-0.5 2.9-1.9 4.3-3.2 6.3-6q0.5 0.5 0.6 1.3c0.9-0.9 1.7-2.1 2.3-3.3-0.1 0.5 0.6 0.8 1 0.5 0.4-0.3 0.5-0.8 0.6-1.3q0-0.2 0-0.3c0.2-1.9 0.9-9.9 0.9-12.5 0-0.5-0.1-0.8-0.1-0.8 0.5 0.2 1 0.7 1.1 1.3q0 0.1 0 0.2 0.1-0.1 0.1-0.2c0.1-1.6 0-3.3-0.3-4.8q-0.1-0.3-0.1-0.5 0.2 0.3 0.4 0.6 0.1 0.2 0.3 0.4 0-0.1-0.1-0.3-1-4.2-1.9-8.5 0.1 0.1 0.1 0.2 0.9 0.6 1.8 1.2c-0.3-1.9-0.9-3.7-1.8-5.4q0.4 0.3 0.9 0.7 0.5 0.5 1.1 1c-0.5-3.3-0.6-6.6-0.7-9.8q0-0.9-0.1-1.8c-0.1-2.1-0.2-4.2-0.5-6.3q0.5 0.4 0.9 0.7 0.2 0.2 0.5 0.3 0.1 0.1 0.2 0.2c-1.6-1.7-0.5-7.6-0.1-9.5q0.7 0.6 1.3 1.3 0-3.1-0.2-6.3c0.7 0.8 1.2 1.7 1.5 2.7 1.6-2.8 3.7-6.5 4.5-9.7 0-3.5-0.7-7-2.8-10.5q-4-6.5-8.6-12.8c-3.8-2.6-7.4-5.2-10.6-8.4-8.9-8.8-14.7-22.1-23.4-31.7-10-11.1-21.7-25.6-37.1-28.5-11.4-2.1-23.4 6.6-29.7 15.5 0.7-0.3 1.5-0.3 2.3-0.1q-1.2 1.2-2.5 2.4c0.4 0.3 0.8 0.4 1.3 0.3-0.2 2.2-1.1 4.2-2.4 5.8 0.1 0.4 0.6 0.5 1 0.4-1.6 1.4-3 3.1-3.9 5-0.2 0.3-0.3 0.8-0.1 1-0.7 1-1.4 3.7-1.5 4.1 0.5-0.1 1.3 0 1.7-0.1q-0.3 0.7-0.5 1.5c-1.2 3.2-1.8 6.5-2.2 9.9 0 0.3-0.4 0.7-0.2 0.9 0 0 0 0.5 0 0.5q0 0.4 0.1 1 0 0.3 0 0.8 0.1 0.4 0.1 0.8 0 0.3 0.1 0.7c0 0.9 0.1 1.8 0.2 2.7v0.1q0.1 0.3 0.1 0.6 0 0.4 0.1 0.8 0 0.3 0 0.6 0.1 0.7 0.2 1.1 0 0.2 0 0.3 0 0.1 0 0.1c0.2 0.9-0.1 0.8-0.3 1.2q0 0.1-0.1 0.1c-0.5 1.2-0.9 2.4-0.9 3.7 0.4-0.2 0.9-0.3 1.3-0.2q-0.3 0.5-0.5 1.1-0.1 0.2-0.2 0.5 0 0 0 0 0 0.3 0 0.5-0.1 0.7 0.1 1.3c0.3-0.3 1.4-1 1.5-1.4z"/><path class="f" d="m155.3 468.2q0.2 0.6 0.6 1.2c0.2 0.3 0.4 0.5 0.7 0.6q0.1 0 0.3 0c0.1-0.1 0.3-0.2 0.5-0.3 0.6-0.5 1.4-0.6 2.2-0.8 1.7-0.3 5.4-1.5 6-3.3 0.6-2-1.2-4-3-4.8q-0.5-0.3-0.9-0.4c-4.2-1-7.6 4-6.4 7.8z"/><path class="g" d="m156.6 470q0.1 0 0.3 0c0.2-0.1 0.3-0.2 0.5-0.3 0.6-0.5 1.4-0.6 2.2-0.8 1.7-0.3 5.4-1.5 6-3.3 0.6-2-1.2-4-3-4.8 0.2 0.8 0.5 2.1 0.4 2.3-0.3 2.5-3.3 3.4-4.8 4.8-0.6 0.5-1.2 1.2-1.6 2q0 0 0 0.1z"/><path class="f" d="m136 468.2q0.3 0.6 0.6 1.2c0.2 0.3 0.4 0.5 0.7 0.6q0.1 0 0.3 0c0.2-0.1 0.3-0.2 0.5-0.3 0.6-0.5 1.5-0.6 2.3-0.8 1.7-0.3 5.3-1.5 5.9-3.3 0.6-2-1.2-4-3-4.8q-0.4-0.3-0.8-0.4c-4.2-1-7.6 4-6.5 7.8z"/><path class="g" d="m137.3 470q0.1 0 0.3 0c0.2-0.1 0.3-0.2 0.5-0.3 0.6-0.5 1.5-0.6 2.3-0.8 1.7-0.3 5.3-1.5 5.9-3.3 0.6-2-1.2-4-3-4.8 0.3 0.8 0.5 2.1 0.4 2.3-0.3 2.5-3.2 3.4-4.8 4.8-0.5 0.5-1.2 1.2-1.5 2q-0.1 0-0.1 0.1z"/><path class="f" d="m174.6 468.2q0.2 0.6 0.6 1.2c0.1 0.3 0.4 0.5 0.6 0.6q0.2 0 0.3 0c0.2-0.1 0.4-0.2 0.5-0.3 0.7-0.5 1.5-0.6 2.3-0.8 1.7-0.3 5.3-1.5 5.9-3.3 0.7-2-1.2-4-3-4.8q-0.4-0.3-0.8-0.4c-4.2-1-7.6 4-6.4 7.8z"/><path class="g" d="m175.8 470q0.2 0 0.3 0c0.2-0.1 0.4-0.2 0.5-0.3 0.7-0.5 1.5-0.6 2.3-0.8 1.7-0.3 5.3-1.5 5.9-3.3 0.7-2-1.2-4-3-4.8 0.3 0.8 0.5 2.1 0.5 2.3-0.4 2.5-3.3 3.4-4.9 4.8-0.5 0.5-1.1 1.2-1.5 2q0 0-0.1 0.1z"/><path class="c" d="m372.9 359.6q-0.1 1.7-0.2 3.4c-0.3 5.2-0.9 10.8-1.9 16.7q0 0.1 0 0.1-0.5 2.6-1 5.2-0.1 0.8-0.3 1.6c-1.9 8.4-4.5 17.3-8.2 26.1-8 18.9-14 33.2-24.4 42.2-4.8 4.2-10.5 7.2-17.8 9.1q-3.8 1-8.2 1.5-0.3 0-0.6 0.1-5 0.6-11 0.6h-0.1q-2.8 0-5.3-0.1-0.4 0-0.8 0-2.1 0-4.1-0.1-0.8 0-1.6 0-2-0.1-3.7-0.2-3.1-0.2-5.7-0.6-0.7-0.1-1.3-0.2h-0.1q-0.7-0.2-1.4-0.3 0 0-0.1 0-1.1-0.3-2.1-0.6-0.1 0-0.1 0-1.1-0.4-1.9-0.8-0.9-0.4-1.5-0.8-0.5-0.3-0.9-0.5-0.3-0.3-0.5-0.5c-1.9-1.6-3-3.8-3.6-6.7q-0.3-1.4-0.5-2.8 0-0.1 0-0.1-0.1-0.6-0.1-1.3-0.2-2.2-0.3-4.8v-0.8c0-3 0-6.3 0.1-10.1v-0.1q0-3.2 0-6.9 0-1.6 0.1-3.1 0-1.6 0.1-3.1c0.3-7.5-1.1-13.9-3.9-20.8-2.6-6.7-1.7-12.1 0.9-17.3 1.9-3.8 4.7-7.6 7.7-11.5 4.5-6.2 8.5-12.5 13.3-18.6 3.8-4.9 7.3-9.9 11-14.8q0.1-0.2 0.3-0.4c1.8-2.3 3.6-4.6 5.5-6.8 0.4-0.5 0.9-1 1.3-1.4 13.3-14.8 28.2-31.3 49.8-31.4 1.3 0 2.7 0.1 3.9 0.5 2.9 1.1 4.7 3.9 6.2 6.6 4.7 8.8 9.1 19.3 11.3 29.1q0.2 0.7 0.3 1.4 0.4 1.6 0.6 3.2 0.1 0.8 0.2 1.6 0.1 0.4 0.1 0.8 0.1 1.1 0.2 2.3 0.2 2.5 0.3 5.3c0.1 3.1 0.1 6.5 0 10.1z"/><path class="j" d="m370.8 379.7c0 0 0 0.1 0 0.1q-0.5 2.6-1 5.2-0.1 0.8-0.3 1.6c-1.8 8.5-4.5 17.3-8.2 26.1-8 18.9-14 33.2-24.4 42.3-2.1-1.2-4-2.6-5.5-4.3-2.9-3.1-3.2-7.6-2.5-11.7 0.5-3.3 1.5-6.5 2.6-9.8 2.4-6.5 5.8-12.9 9.3-18.6 3.9-6.4 8.2-12.6 13.3-18.1 2.9-3.2 10.4-13.6 16.3-12.8q0.2 0 0.4 0.1z"/><path class="j" d="m344.1 378.4c-4.5 1.5-8.5 7.1-7.5 11.1 0.9 3.6 6.2 4.8 9.8 3 4.2-2.2 7.8-9.2 3.8-12.9-1.8-1.6-4-1.9-6.1-1.2z"/><path class="j" d="m357.7 370.3c-2.3 1.5-3.8 3.9-2.4 6.6 1.1 2.2 4.1 3 6.6 2.4 2.4-0.7 4.5-2.7 4.9-5.1 0.9-6.2-5.2-6.4-9.1-3.9z"/><path class="k" d="m372.9 359.6q-0.1 1.7-0.2 3.4c-0.3 5.2-0.9 10.8-1.9 16.7q0 0.1 0 0.1-0.5 2.6-1 5.2-0.1 0.8-0.3 1.6c-2.7 7-26.4 30.5-31.8 36.2q-3.2 3.4-6.2 6.4c-15.9 16.2-25.6 24-34.6 30.8q-0.5 0.4-1 0.8-1.4 1-2.8 2.1-0.5 0.4-0.9 0.8-1.6 1.1-3.1 2.3-0.9 0-1.7 0-1.8-0.1-3.6-0.2-2.9-0.3-5.8-0.7-0.7-0.1-1.4-0.2c-0.3 0-0.6-0.1-1-0.1q-0.2-0.1-0.4-0.1 0 0-0.1 0-1.1-0.3-2.1-0.6-0.1 0-0.1 0-1.1-0.4-1.9-0.8-0.9-0.4-1.5-0.8-0.5-0.3-0.9-0.5-0.3-0.3-0.5-0.5c-1.9-1.6-3-3.8-3.6-6.7q-0.3-1.4-0.5-2.8 0-0.1 0-0.1-0.1-0.6-0.1-1.3-0.2-2.2-0.3-4.8v-0.8c0-3.3 0.3-6.8 0.1-10.1v-0.1q0-3.2 0-6.9 0-1.6 0.1-3.1 0-1.6 0.1-3.1c0.3-7.5-1.1-13.9-3.9-20.8-2.6-6.7-1.7-12.1 0.9-17.2v-0.1c2.7-3.7 4.9-7.8 7.7-11.5 4.5-6.2 8.5-12.4 13.3-18.6 3.8-4.9 7.3-9.9 11-14.8q0.1-0.2 0.3-0.4c1.8-2.2 3.6-4.6 5.5-6.8 0.4-0.5 0.9-0.9 1.3-1.4 13.3-14.8 28.2-31.3 49.8-31.3 1.3-0.1 2.7 0 3.9 0.5 2.9 1 4.7 3.8 6.2 6.5 4.7 8.8 9.1 19.4 11.3 29.1q0.2 0.7 0.3 1.4 0.4 1.6 0.6 3.2 0.1 0.8 0.2 1.6 0.1 0.4 0.1 0.8 0.1 1.1 0.2 2.3 0.2 2.5 0.3 5.3c0.1 3.1 0.1 6.5 0 10.2z"/><path class="a" d="m310.5 466.1c0.2 0.5 0.8 0.6 1.8 0.5 1.5-0.3 3-0.5 4.4-1.1 1.2-0.5 3.9-1.9 3.2-4-0.5-1.9-3.4-1.8-4.9-1.6-2.4 0.5-3.6 1.7-4.3 4-0.4 1-0.4 1.8-0.2 2.2z"/><path class="b" d="m319.9 461.5c-0.5-1.9-3.4-1.9-4.9-1.6-2.4 0.5-3.6 1.7-4.3 4-0.4 1-0.4 1.7-0.2 2.2q0.1 0.3 0.5 0.4-0.2-0.7 0.2-2c0.6-2.3 1.7-3.5 3.8-3.9 1.4-0.3 3.9-0.4 4.4 1.5 0.2 0.7 0.1 1.3-0.2 1.9 0.6-0.7 1.1-1.5 0.7-2.5z"/><path class="a" d="m295.4 467.6q0.5 0 1.3-0.1c1.7-0.5 5.1-2.9 5.5-5.1 0.2-0.6-0.3-1.2-0.8-1.4-1.8-1-6.1-1.3-8.1-0.5-2.1 0.8-1.1 3.9-0.3 5.3 0.6 1.1 1.4 1.7 2.4 1.8z"/><path class="b" d="m294.1 466.4c-0.8-1.3-1.9-4.5 0.3-5.3 1.7-0.7 5.5-0.5 7.5 0.3q-0.2-0.3-0.5-0.4c-1.9-1-6.1-1.3-8.1-0.5-2.1 0.8-1.1 3.9-0.3 5.3q0.7 1.4 1.8 1.7-0.4-0.4-0.8-1z"/><path class="a" d="m278.3 461c-1.2 0.4-2.1 1-2.3 2-0.4 2.3 3.3 4.3 5.2 4 2.2-0.3 6.9-4.3 4-6.2-1.8-1.2-5.1-0.4-6.9 0.2z"/><path class="b" d="m277.7 463.5c0.1-1 1-1.6 2.2-1.9 1.4-0.5 3.6-1 5.3-0.8-1.8-1.2-5.1-0.4-6.9 0.2-1.2 0.4-2.1 1-2.3 2-0.3 1.9 2.3 3.6 4.2 4-1.5-0.8-2.8-2.1-2.5-3.5z"/><path class="e" d="m370.4 278.8c9.4 32.5 2.5 79.4 2.5 79.4-23.2 33.4-99.6 64-139.1 64.6-38.1 0.5-116.1-32.8-139.6-65.8 0 0-7.2-41.6 3-78.2 14.6-52.8 44.2-98.3 62.8-131.4 11.3-20.1 36.4-31 73.9-32.2 37-1.1 62.2 8.4 74 28.5 21.6 36.8 48 84.3 62.6 135.1z"/><path class="f" d="m238.1 398c-37.1 0.5-105-25.2-145.6-56 0.7 9.2 1.7 15 1.7 15 23.5 32.9 101.5 66.3 139.6 65.8 39.5-0.6 115.8-31.2 139.1-64.6 0 0 0.4-3 0.9-8-40.5 26.9-100.3 47.3-135.7 47.8z"/><path class="l" d="m233.5 186.6c28 0 77.3 2.5 110.6 24.2-10.2-25.7-24.6-47.4-36.1-67.1-11.9-20.1-37-29.6-74.1-28.5-37.5 1.2-62.6 12.1-73.9 32.2-10 17.8-24.3 38.3-35.5 63.4 33.1-22 80.2-24.3 109-24.2z"/><path class="m" d="m315 157.3c0.2-0.2 0.5-0.5 0.7-0.7-2.6-4.6-5.1-8.5-7.9-12.8-12.6-19.7-37-29.6-74-28.5-37.5 1.2-62.7 12.1-73.9 32.2q-2.8 4.8-5.9 10c17.9 15.2 53.9 24.3 79.9 24.3 26 0 63.3-8.3 81.1-24.5z"/><path class="l" d="m195.3 23.9c0 12.7-4.5 20.6-18.2 31.8-9.8 8-30-4.1-27.8-31.8 1-12.7 13.3-23.9 26-23.9 8.1 0 20 11.2 20 23.9z"/><path class="m" d="m186.8 25.8c0 8-2.8 13-11.5 20.1-6.2 5-18.9-2.6-17.5-20.1 0.6-8 8.4-15.1 16.4-15.1 5.1 0 12.7 7.1 12.7 15.1z"/><path class="l" d="m272 23.9c0 12.7 4.5 20.6 18.2 31.8 9.9 8 30-4.1 27.8-31.8-1-12.7-13.3-23.9-26-23.9-8.1 0-20 11.2-20 23.9z"/><path class="l" d="m272 23.9c0 12.7 4.5 20.6 18.2 31.8 9.9 8 30-4.1 27.8-31.8-1-12.7-13.3-23.9-26-23.9-8.1 0-20 11.2-20 23.9z"/><path class="l" d="m272 23.9c0 12.7 4.5 20.6 18.2 31.8 9.9 8 30-4.1 27.8-31.8-1-12.7-13.3-23.9-26-23.9-8.1 0-20 11.2-20 23.9z"/><path class="m" d="m280.5 25.8c0 8 2.9 13 11.5 20.1 6.2 5 19-2.6 17.6-20.1-0.7-8-8.4-15.1-16.5-15.1-5.1 0-12.6 7.1-12.6 15.1z"/><path class="e" d="m322.1 92.7c0 23.7 1.4 44.1-14.4 58.4-16.2 14.7-49.3 22.3-73.7 22.3-24.5 0-56.7-8.4-72.9-22.3-16.6-14.4-16.3-32.9-16.3-57.3 0-48.1 50.7-88.2 87.8-88.2 37 0 89.5 39 89.5 87.1z"/><path class="f" d="m308.9 142.3c-16.3 14.7-50.4 24.5-74.8 24.5-24.5 0-54.6-9-70.8-23-13.9-12-18-33.8-18.3-52.5q-0.1 1.3-0.1 2.5c0 24.4-0.3 42.9 16.3 57.3 16.2 13.9 49.1 22.3 72.9 22.3 23.7 0 57.5-7.6 73.7-22.3 15.5-14.1 14.4-34 14.3-57.1-0.2 17-1.1 37.2-13.3 48.3z"/><path class="n" d="m292.5 65.5c7.2 12.8 27.8 22.1 19 33.8-8.9 11.7-37.8 8.4-49.5-0.4-11.7-8.8-14-25.5-5.2-37.2 8.8-11.6 24.3-16.6 35.7 3.8z"/><path class="g" d="m263.5 86.6c5.2 6.2 25.2 7.9 29.7 1.2 5.7-8.2-3.7-12-7.9-19-5.8-9.6-14.8-11.1-20.2-2.8-4.5 6.7-6.9 14.4-1.6 20.6z"/><path class="n" d="m175.6 65.5c-7.1 12.8-27.7 22.1-18.9 33.8 8.8 11.7 37.8 8.4 49.5-0.4 11.7-8.8 14-25.5 5.2-37.2-8.8-11.6-24.4-16.6-35.8 3.8z"/><path class="g" d="m205.7 86.6c-5.3 6.2-25.2 7.9-29.8 1.2-5.7-8.2 3.7-12 7.9-19 5.8-9.6 14.8-11.1 20.3-2.8 4.4 6.7 6.8 14.4 1.6 20.6z"/><path class="e" d="m205 81v0.1q-0.1 0.4-0.2 0.7-0.1 0.2-0.2 0.5c-0.2 0.5-0.5 0.9-0.7 1.3q-0.2 0.3-0.5 0.7 0 0 0 0-0.3 0.4-0.6 0.7-0.3 0.3-0.7 0.6-0.3 0.3-0.6 0.5-0.7 0.5-1.5 0.9-0.4 0.2-0.8 0.4c-0.3 0.1-0.5 0.2-0.8 0.2q-0.1 0.1-0.2 0.1-0.4 0.1-0.8 0.1-0.4 0.1-0.9 0.1c-5.2 0.4-9.7-3.6-10.1-8.8q0-0.9 0.1-1.7 0-0.3 0.1-0.6 0.2-1.6 1.1-3 0.1-0.3 0.3-0.6 0.4-0.5 0.8-1 0.2-0.3 0.5-0.5 0.3-0.3 0.5-0.5 0.5-0.4 1.1-0.8l0.6-0.3 0.7-0.3c0.9 0.2 2 0.6 3.3 1.3 2.7 1.4 5.7 3.5 7.5 5.3 0.7 0.7 1.3 1.4 1.5 1.9q0.1 0.1 0.1 0.2c0.2 1 0.5 1.8 0.4 2.5z"/><path class="o" d="m203.3 78c0.2 4.1-2.9 7.6-6.9 7.8-4.1 0.3-7.6-2.8-7.9-6.8-0.2-4.1 2.9-7.6 6.9-7.9h0.1c2.6 1.4 5.6 3.5 7.5 5.3q0.1 0.3 0.1 0.6 0.1 0.5 0.1 1z"/><path class="e" d="m193.8 77.6c-1.2 0-2.1-0.9-2.1-2.1 0-1.1 0.9-2 2-2 1.2 0 2.1 0.9 2.1 2 0 1.2-0.9 2.1-2.1 2.1z"/><path class="e" d="m276 87.7c-5.1 1.3-10.5-1.8-11.4-7-0.2-0.6 0-1.5 0.4-2.6q0-0.1 0.1-0.2c1-2.1 8.8-6.8 12.3-7.5 0.6-0.1 1.1 0 1.4 0.1 2 1.3 3.6 3.2 4.2 5.8 1.2 5.1-1.9 10.2-7 11.4z"/><path class="p" d="m275.9 87.1c-4.8 1.1-9.5-1.8-10.7-6.5q-0.3-1.3-0.2-2.5 0-0.1 0.1-0.2c1-2.1 8.8-6.9 12.3-7.5 2.4 1.1 4.3 3.2 5 6 1.1 4.8-1.8 9.5-6.5 10.7z"/><path class="m" d="m274 83c-2.5 0-4.5-2-4.5-4.5 0-2.5 2-4.5 4.5-4.5 2.5 0 4.5 2 4.5 4.5 0 2.5-2 4.5-4.5 4.5z"/><path class="e" d="m271.8 77.6c-1.1 0-2-0.9-2-2.1 0-1.1 0.9-2 2-2 1.2 0 2.1 0.9 2.1 2 0 1.2-0.9 2.1-2.1 2.1z"/><path class="q" d="m246.2 135.9c-1.8 3-5.9 5.9-13.1 5.9-7.2 0-10.9-2.6-13.1-5.9q0 0 0 0 0 0 0.1 0c1.3 0.4 2.7 0.7 4.1 0.9 1.7 0.1 3.3 0 4.9-0.2 0.8-0.2 1.6-0.4 2.4-0.6 0.6-0.2 1.1-0.4 1.7-0.6q0.8 0.3 1.7 0.5 1.1 0.3 2.3 0.6c1.6 0.2 3.2 0.3 4.8 0.2 0.8 0 1.5-0.2 2.3-0.3 0.7-0.2 1.3-0.3 1.9-0.5z"/><path class="r" d="m243.8 135.7c-1.5 1.8-4.8 3.5-10.7 3.5-5.9 0-8.9-1.5-10.8-3.5q0.1 0 0.1 0 0 0 0 0c1.1 0.2 2.2 0.4 3.4 0.5 1.3 0.1 2.7 0 4-0.1q1-0.1 2-0.4 0.7-0.1 1.4-0.3 0.7 0.2 1.4 0.3 0.9 0.2 1.8 0.3c1.3 0.2 2.7 0.2 4 0.2 0.6-0.1 1.3-0.1 1.9-0.2q0.8-0.1 1.5-0.3z"/><path class="m" d="m246.2 135.1c-0.7 0.2-1.4 0.2-2.1 0.3-0.7 0-1.5 0.1-2.2 0.1-1.4 0-2.9-0.2-4.3-0.5l-1-0.2c-0.4-0.1-0.7-0.2-1-0.3q-0.7-0.2-1.4-0.5v-6.2h-2.1v6.3c-0.4 0.2-0.9 0.4-1.4 0.5q-1 0.3-2 0.5c-1.4 0.3-2.9 0.5-4.4 0.4-0.3 0-0.7 0-1.1 0h-0.5l-0.6-0.1q-0.5-0.1-1.1-0.1l-1.1-0.3-0.5-0.1-0.6-0.1-1.1-0.3c-0.3-0.1-0.7-0.2-1-0.3l-1.1-0.3q0.9 0.5 1.9 1 0.5 0.2 1 0.5l0.6 0.2 0.5 0.2c1.5 0.5 3 0.8 4.6 0.9 1.7 0.2 3.3 0.1 4.9-0.2 0.8-0.1 1.6-0.3 2.4-0.5 0.6-0.2 1.1-0.4 1.7-0.7q0.8 0.4 1.7 0.6 1.1 0.3 2.3 0.5c1.6 0.3 3.2 0.4 4.8 0.3 0.8-0.1 1.5-0.2 2.3-0.3 0.8-0.2 1.6-0.4 2.3-0.6 1.4-0.5 2.7-1.3 3.8-2.1-1.3 0.6-2.7 1.1-4.1 1.4z"/><path class="s" d="m251.4 115.3c0 7.1-4.3 14.7-18.4 14.7-13.2 0-18.4-7.6-18.4-14.7 0-7.1 8.3-11.9 18.4-11.9 10.1 0 18.4 4.8 18.4 11.9z"/><path class="t" d="m248.6 116.3c0 6.4-7 11.5-15.6 11.5-8.6 0-15.6-5.1-15.6-11.5 0-4.1 7.2-6.8 15.8-6.8 8.6 0 15.4 2.9 15.4 6.8z"/></svg>