<svg version="1.2" xmlns="http://www.w3.org/2000/svg" viewBox="0 0 470 470" width="470" height="470"><style>.a{fill:#d3bea6}.b{mix-blend-mode:multiply;fill:#d3bea6}.c{fill:#312e2d}.d{fill:#d69f5d}.e{opacity:.9;mix-blend-mode:multiply;fill:#312e2d}.f{fill:#fff}.g{fill:#ededed}.h{fill:#3c3c3b}.i{mix-blend-mode:multiply;fill:#575756}.j{mix-blend-mode:multiply;fill:#dadada}.k{fill:#1d1d1b}.l{fill:#b17f4a}.m{mix-blend-mode:multiply;fill:#683c11}.n{fill:#b56696}.o{mix-blend-mode:multiply;fill:#b56696}</style><path class="a" d="m75.9 374.7c-0.7-5-0.6-12.6 4.4-14.9 3.9-1.8 10.1 0.2 11.3 4.6 0.9 3.7-1.3 7.6-3 10.6-2.7 5.1-4.4 10.3-4.3 16.1 0 0.4 0 1-0.4 1.1-0.4 0.2-0.8-0.1-1.1-0.4-4.4-4.6-6-10.9-6.9-17.1z"/><path class="b" d="m83 359.2c3.6-0.2 7.6 1.7 8.6 5.2 0.9 3.7-1.3 7.6-3 10.6-2.4 4.5-4 9.2-4.3 14.3-3.3-4.4-4.6-9.9-5.4-15.4-0.6-4.9-0.6-12.3 4.1-14.7z"/><path class="a" d="m56.8 366.5c-1.4-7-0.6-28.5 12.3-19.4 3.5 2.5 5 7.3 4.3 11.5-0.9 6.3-5.1 11.3-6.1 17.6-0.4 3.2-0.3 6.1 0 9.3 0 0.3 0 0.6-0.2 0.8-0.4 0.4-1.1 0-1.4-0.4-4.6-5-7.5-12.2-8.9-19.4z"/><path class="b" d="m69 347.1c3.6 2.5 5.1 7.3 4.4 11.6-0.9 6.2-5.1 11.2-6.1 17.5-0.3 2-0.3 4-0.2 5.9-3.6-4.8-5.9-11-7.1-17.2-0.9-4.7-0.9-15.8 3.1-20 1.6-0.1 3.6 0.5 5.9 2.2z"/><path class="a" d="m54 344.2c-1.8 3.3-2.7 7.1-3.1 10.9-0.4 3.3-0.4 6.7-0.4 10 0 0.1 0 0.3 0 0.4-0.1 0.2-0.5 0.3-0.7 0.2-0.2-0.1-0.4-0.3-0.5-0.5-2.7-3.5-4.4-8.4-5.3-12.7-1.5-7.3-2.7-21.8 6.8-24.2 3.2-0.8 5.5 1 6.5 4 1.6 4.5-1.2 8.1-3.3 11.9z"/><path class="b" d="m52.2 328.1c2.5-0.1 4.3 1.6 5.1 4.2 1.7 4.5-1.2 8.1-3.3 11.9-1.8 3.3-2.7 7.1-3.1 10.9q-0.2 1.8-0.3 3.7c-1.1-2.5-1.9-5.3-2.4-7.8-1.4-6.4-2.5-18.5 4-22.9z"/><path class="c" d="m164.3 158.1q0 0.3-0.1 0.7 0 0.9 0 1.8-0.1 1.8-0.2 3.5-0.2 5.2-0.7 10.4c-0.3 1.5-0.6 2.9-0.7 4-3 20.4-9.1 40.1-13.9 60.1-4.9 21-27.3 118.8-45 135.1q-0.9 0.8-1.9 1.4-0.3 0.2-0.7 0.3-0.4 0.2-0.8 0.4-0.5 0.2-1 0.4-0.6 0.2-1.2 0.4-1.1 0.3-2.2 0.6 0 0-0.1 0-0.3 0-0.5 0.1-0.7 0.1-1.5 0.2-0.6 0.1-1.4 0.2-1 0-2 0 0 0-0.1 0h-0.3q-0.3 0-0.5 0-0.1 0-0.2 0-0.7-0.1-1.4-0.2-0.5 0-1-0.1-0.4-0.1-0.8-0.2-0.2 0-0.4-0.1-0.3 0-0.6-0.1-0.1 0-0.2 0-0.4-0.1-0.7-0.3-0.5-0.1-0.9-0.2-1-0.3-1.9-0.7-0.4-0.2-0.9-0.4-0.5-0.2-1-0.5-0.6-0.3-1.2-0.6-0.8-0.4-1.5-0.8-0.5-0.3-1-0.7-0.7-0.4-1.4-0.9-0.5-0.3-1-0.7-0.6-0.4-1.2-0.8-1.1-0.9-2.1-1.8c-1.1-0.9-2.1-1.8-3-2.8-1.5-1.4-2.9-2.9-4.2-4.2q-0.9-1-1.7-1.8c-1.5-1.7-3.3-3.9-5.3-6.4-2.4-3.2-5-6.9-7.6-10.9-1.6-2.7-3.2-5.5-4.7-8.4-3.8-7.7-6.6-15.8-6.6-23.1q0-3.4 0.3-6.7c1.9-19.5 12.1-36.5 24.5-51.7q1.8-2.2 3.7-4.4c10.6-12.2 22.5-22.8 28.9-38.1 3.7-8.6 5.8-17.9 9.7-26.3 6.7-14.4 25.3-35.4 44-37.8q1.8-0.3 3.6-0.3 0.7 0 1.3 0.1h0.1q0.4 0 0.9 0 0 0 0.1 0c0.2 0.1 0.4 0.1 0.5 0.1q0.4 0 0.7 0.1 0.2 0 0.4 0 0.2 0.1 0.5 0.1 0.3 0.1 0.5 0.1 0.1 0.1 0.2 0.1 0.4 0.1 0.8 0.2 0.5 0.1 1 0.3c2.4 0.7 3.9 2.2 4.9 4.2 0.6 2.2 0.7 4.7 0.6 7.2z"/><path class="d" d="m51.8 300.6c-4.6 3.3-9.8 4.4-14.5 3.7 2-19.6 12.2-36.5 24.5-51.7q1.8-2.3 3.7-4.4c1.3 2.6 2.3 5.6 2.8 8.7 2.6 14.6-4 35.1-16.5 43.7z"/><path class="d" d="m87.6 287.1c-3.4-4-8.5-6.1-13.4-3-1.7 1.1-3 2.8-3.8 4.7-2.2 4.9-1.4 11.1 2.3 15 3.7 3.8 10.1 4.9 14.7 2 1.9-1.2 3.4-3.1 4.1-5.3 1.2-4.2-0.6-9.6-3.9-13.4z"/><path class="e" d="m61 344.8c2 19.4 8.6 22.4 9.1 23.8q1.1 0.9 2.2 1.7 0.6 0.5 1.1 0.9 0.5 0.4 1 0.7 0.7 0.5 1.4 0.9 0.5 0.4 1.1 0.7 0.7 0.4 1.4 0.8 0.6 0.3 1.2 0.6 0.5 0.3 1.1 0.5 0.4 0.2 0.8 0.3 1 0.4 1.9 0.8 0.5 0.1 0.9 0.2 0.4 0.2 0.8 0.2 0.1 0.1 0.1 0.1 0.5 0.1 1.1 0.2 0.3 0.1 0.7 0.1 0.5 0.1 1 0.2 0.7 0.1 1.4 0.1 0.1 0.1 0.2 0.1 0.4 0 0.9 0 0 0 0 0 1 0 2.1-0.1 0.7 0 1.4-0.1 0.7-0.1 1.4-0.2 0.3-0.1 0.7-0.2 1-0.2 2.1-0.5 0.6-0.2 1.2-0.5 0.5-0.1 1.1-0.3 0.4-0.2 0.8-0.4 0.3-0.1 0.6-0.3 1-0.6 2-1.5c17.7-16.2 40-114 45-135 4.7-20.1 10.8-39.7 13.8-60.1 0.2-1.1 0.4-2.5 0.7-4q0.6-5.2 0.7-10.4 0.1-1.7 0.2-3.5 0-0.9 0.1-1.8 0-0.4 0-0.7c0.1-2.5 0-4.9-0.6-7.2-1-2-2.6-3.5-4.9-4.2q-0.5-0.2-1.1-0.3-0.3-0.1-0.7-0.2-0.1 0-0.2 0-0.3-0.1-0.5-0.1-0.3-0.1-0.6-0.1-0.2-0.1-0.4-0.1-0.3 0-0.6-0.1c-0.2 0-0.3 0-0.5 0-0.3 5-2 9.8-4.1 14.4-2 4.3-3.8 8.6-6.2 12.7q-7 11.8-13.4 23.9c-4.2 7.8-9.4 14.4-14.4 21.6-8.8 12.3-14.1 26.6-20.6 40.1-6.6 13.6-15.4 25.9-22.8 39.1-8.3 14.9-13.5 30-11.7 47.2z"/><path class="f" d="m424.4 325.4c0.1 0 4.9 25.6-2.6 38.8 0 0-11.6-14-11.2-15.4 0.2-0.8 0.6-5.4 4-11 3.4-5.7 9.9-12.4 9.9-12.4z"/><path class="f" d="m424.4 325.4c0.1 0 4.9 25.6-2.6 38.8 0 0-11.6-14-11.2-15.4 0.2-0.8 0.6-5.4 4-11 3.4-5.7 9.9-12.4 9.9-12.4z"/><path class="g" d="m410.6 348.8c0.2-0.8 0.6-5.4 4-11 1.4-2.4 3.4-5 5.2-7.2 0.7 4.6 2.6 19.8-1.8 28.8-3.4-4.2-7.6-9.8-7.4-10.7z"/><path class="f" d="m406.2 348.7c0 0 1.3 19.4-2.7 29 0 0-6.2-9.5-11.5-13.2-3.2-2.3 2.1-6.7 6.1-11.2 2.6-2.9 8.1-4.6 8.1-4.6z"/><path class="g" d="m398.1 353.3c1.1-1.3 2.8-2.3 4.3-3.1 0.2 4.2 0.5 15.6-1.6 23.7-2.3-3-5.7-7.2-8.8-9.4-3.2-2.3 2.1-6.7 6.1-11.2z"/><path class="f" d="m389 361.6c0 0 3.2 10.8-1.9 23.8 0 0-7-7.1-11.5-10.3-2.2-1.6 1.3-5.9 4.7-9.5 3.4-3.7 8.7-4 8.7-4z"/><path class="g" d="m385.6 362.3c0.6 2.4 1.9 10.6-1.2 20.5-2.4-2.4-6-5.7-8.8-7.7-2.2-1.6 1.3-5.9 4.7-9.5 1.6-1.7 3.6-2.7 5.3-3.3z"/><path class="h" d="m311.2 143.6c0 0 56.4 40.7 82.8 79.4 26.5 38.6 38.2 67.9 38.2 88 0 17.9-16.6 40.4-24.2 48.7-7.7 8.4-21.9 23.8-39.9 15.7-18.1-8.1-42.5-114.8-47.6-136.8-3.7-15.7-25.8-87.1-9.3-95z"/><path class="i" d="m311.2 143.6c0 0 41.7 86.5 57.5 110.3 31.9 48.1 42.3 63.7 39.5 90.9-2 19.4-8.6 22.4-9.1 23.7-7.9 6.8-18.6 12.5-31.1 6.9-18-8.1-42.4-114.8-47.6-136.8-3.7-15.7-25.7-87.1-9.2-95z"/><path class="h" d="m95.1 362.5q0.1 1.6 0.2 3.3c0.3 5.2 0.9 10.9 1.9 16.8q0.4 2.5 1 5.1c0.1 0.5 0.2 1 0.3 1.6 1.8 8.4 4.5 17.2 8.2 26 14.3 34 22.3 53.2 61.7 53.2 3.8 0 7.2 0 10.2-0.1q0.9 0 1.7 0c5-0.2 9-0.6 12.1-1.3q0.1 0 0.1 0 1.1-0.3 2.2-0.6 0 0 0 0 1.1-0.4 1.9-0.8 0.9-0.4 1.5-0.8 0.5-0.3 0.9-0.5 0.2-0.3 0.5-0.5c1.9-1.6 3-3.8 3.6-6.7q0.3-1.4 0.5-2.8 0 0 0-0.1 0-0.6 0.1-1.3c0.1-1.4 0.2-3 0.3-4.7v-0.9c0-2.9-0.1-6.2-0.1-10v-0.1q0-3.2 0-6.9-0.1-1.5-0.1-3.1-0.1-1.5-0.1-3.1c-0.3-7.4 1.1-13.8 3.9-20.7 2.6-6.6 1.7-12-0.9-17.1v-0.1c-1.9-3.8-4.7-7.5-7.6-11.5-4.6-6.1-8.6-12.4-13.3-18.5-3.8-4.9-7.3-9.9-11-14.8q-0.1-0.1-0.3-0.3c-1.7-2.3-3.6-4.6-5.5-6.8-0.4-0.5-0.8-0.9-1.3-1.4-13.2-14.7-28.1-31.2-49.6-31.2-1.3 0-2.6 0-3.9 0.5-2.9 1-4.7 3.8-6.1 6.5-4.8 8.8-9.1 19.3-11.3 29q-0.2 0.7-0.3 1.4-0.4 1.6-0.6 3.2-0.2 0.8-0.2 1.6-0.1 0.4-0.1 0.8-0.1 1.1-0.3 2.3-0.1 2.5-0.2 5.3c-0.2 3.1-0.2 6.5 0 10.1z"/><path class="i" d="m95.1 362.5q0.1 1.6 0.2 3.3c0.3 5.2 0.9 10.9 1.9 16.8q0.4 2.5 1 5.1c0.1 0.5 0.2 1 0.3 1.6 2.7 7 26.3 30.4 31.6 36.1 24.7 25.9 35.9 33.2 48.5 43q0.8 0 1.7 0c3.9-0.2 7.8-0.6 11.7-1.2q0.2-0.1 0.4-0.1 0 0 0.1 0 1.1-0.3 2.1-0.6 0.1 0 0.1 0 1-0.4 1.9-0.8 0.8-0.4 1.5-0.8 0.5-0.3 0.8-0.6 0.3-0.2 0.6-0.4c1.9-1.6 3-3.8 3.6-6.7q0.3-1.4 0.5-2.8-0.1 0 0-0.1 0-0.6 0.1-1.3c0.1-1.4 0.2-3 0.2-4.7v-0.9c0-3.3-0.3-6.7 0-10v-0.1q-0.1-3.2-0.1-6.9 0-1.5 0-3.1-0.1-1.5-0.1-3.1c-0.3-7.4 1.1-13.8 3.8-20.7 2.7-6.6 1.7-12-0.8-17.2-2.7-3.7-5-7.8-7.7-11.5-4.5-6.1-8.5-12.4-13.2-18.5-3.8-4.9-7.3-9.9-11-14.8q-0.2-0.1-0.3-0.3c-1.9-2.3-3.6-4.6-5.5-6.8-0.4-0.5-0.9-1-1.3-1.4-13.2-14.7-28.1-31.2-49.6-31.2-1.3-0.1-2.7 0-3.9 0.5-2.9 1-4.7 3.8-6.2 6.5-4.7 8.7-9 19.3-11.3 29q-0.1 0.6-0.3 1.4-0.3 1.6-0.6 3.2-0.1 0.8-0.2 1.6 0 0.4-0.1 0.7-0.1 1.2-0.2 2.4-0.2 2.5-0.3 5.2c-0.1 3.1-0.1 6.6 0.1 10.2z"/><path class="g" d="m156 468.5c-0.2 0.5-0.8 0.6-1.7 0.5-1.5-0.3-3-0.5-4.5-1.1-1.2-0.5-3.8-1.9-3.2-4 0.6-1.9 3.4-1.8 4.9-1.6 2.4 0.5 3.6 1.7 4.4 4q0.5 1.5 0.1 2.2z"/><path class="j" d="m146.6 463.9c0.6-1.9 3.4-1.8 5-1.5 2.3 0.4 3.5 1.6 4.3 3.9q0.5 1.5 0.2 2.2-0.2 0.3-0.5 0.4 0.2-0.7-0.2-2c-0.7-2.3-1.8-3.5-3.9-3.9-1.3-0.3-3.8-0.4-4.3 1.5-0.2 0.7-0.1 1.3 0.2 1.9-0.6-0.7-1.1-1.5-0.8-2.5z"/><path class="g" d="m171.1 470q-0.6 0-1.3-0.1c-1.7-0.5-5.1-2.9-5.5-5.1-0.2-0.6 0.4-1.1 0.8-1.4 1.8-1 6.1-1.3 8.1-0.5 2.1 0.8 1 3.9 0.3 5.3-0.6 1.1-1.4 1.7-2.4 1.8z"/><path class="j" d="m172.4 468.8c0.8-1.4 1.8-4.5-0.3-5.3-1.8-0.6-5.5-0.5-7.5 0.3q0.2-0.3 0.5-0.4c1.8-1 6.1-1.3 8.1-0.5 2.1 0.8 1 3.9 0.3 5.3-0.5 0.9-1.1 1.5-1.8 1.7q0.4-0.4 0.7-1.1z"/><path class="g" d="m188.1 463.4c1.2 0.4 2.1 1 2.3 2 0.3 2.3-3.3 4.3-5.2 4-2.1-0.3-6.8-4.3-4-6.2 1.8-1.1 5.1-0.3 6.9 0.2z"/><path class="j" d="m188.7 465.9c-0.1-1-1-1.6-2.2-1.9-1.4-0.4-3.5-1-5.3-0.8 1.8-1.2 5.1-0.3 6.9 0.2 1.2 0.4 2.1 1 2.3 2 0.3 1.9-2.3 3.6-4.2 4 1.5-0.8 2.8-2.1 2.5-3.5z"/><path class="f" d="m372.6 362.5q-0.1 1.6-0.2 3.3c-0.3 5.2-0.9 10.9-1.9 16.8q-0.4 2.5-1 5.1c-0.1 0.5-0.2 1-0.3 1.6-1.8 8.4-4.5 17.2-8.2 26-14.3 34-22.3 53.2-61.7 53.2-3.8 0-7.2 0-10.2-0.1q-0.9 0-1.7 0c-5-0.2-9-0.6-12.1-1.3q0 0-0.1 0-1.1-0.3-2.1-0.6-0.1 0-0.1 0-1-0.4-1.9-0.8-0.9-0.4-1.5-0.8-0.5-0.3-0.9-0.5-0.2-0.3-0.5-0.5c-1.9-1.6-3-3.8-3.6-6.7q-0.3-1.4-0.5-2.8 0.1 0 0-0.1 0-0.6-0.1-1.3c-0.1-1.4-0.2-3-0.2-4.7v-0.9c-0.1-2.9 0-6.2 0-10v-0.1q0.1-3.2 0.1-6.9 0-1.5 0-3.1 0.1-1.5 0.1-3.1c0.3-7.4-1.1-13.8-3.9-20.7-2.6-6.6-1.7-12 0.9-17.1v-0.1c1.9-3.8 4.7-7.5 7.7-11.5 4.5-6.1 8.5-12.4 13.2-18.5 3.8-4.9 7.3-9.9 11-14.8q0.1-0.1 0.3-0.3c1.8-2.3 3.6-4.6 5.5-6.8 0.4-0.5 0.8-0.9 1.3-1.4 13.2-14.7 28.1-31.2 49.6-31.2 1.3 0 2.7 0 3.9 0.5 2.9 1 4.7 3.8 6.1 6.5 4.8 8.8 9.1 19.3 11.4 29q0.1 0.7 0.3 1.4 0.3 1.6 0.5 3.2 0.2 0.8 0.3 1.6 0 0.4 0.1 0.8 0.1 1.1 0.2 2.3 0.2 2.5 0.3 5.3c0.1 3.1 0.1 6.5-0.1 10.1z"/><path class="j" d="m324.7 459.3c6.1-2.4 12.3-10 15.3-13.4 0.9-1.1 1.9-2.2 1.9-3.6 0-1.9-1.7-3.3-2.2-5-0.7-2.5 0.9-5.1 0.7-7.7-0.6-5.8-12.7-12-17.9-10.6-9.7 2.4-5.4 11.3-6 18.2-0.4 5.1-5.3 13.9-2.1 18.5 3 4.4 6.6 4.9 10.3 3.5z"/><path class="j" d="m358.1 422.2c-2 4.7-3.9 9.1-5.9 13.1-1.4 0-2.8-0.4-4.1-1-0.9-2.4-0.6-5.3 0.8-7.5l1-1.5q0.5-1.5 1-3c2-1.7 5.1-1.6 7.2-0.1z"/><path class="j" d="m372.6 362.5q-0.1 1.6-0.2 3.3c-0.3 5.2-0.9 10.9-1.9 16.8q-0.4 2.5-1 5.1c-0.1 0.5-0.2 1-0.3 1.6-2.7 7-26.3 30.4-31.6 36.1-24.7 25.9-35.9 33.2-48.5 43q-0.8 0-1.7 0c-3.9-0.2-7.8-0.6-11.7-1.2q-0.2-0.1-0.4-0.1 0 0-0.1 0-1.1-0.3-2.1-0.6-0.1 0-0.1 0-1-0.4-1.9-0.8-0.8-0.4-1.5-0.8-0.5-0.3-0.8-0.6-0.3-0.2-0.6-0.4c-1.9-1.6-3-3.8-3.6-6.7q-0.3-1.4-0.5-2.8 0.1 0 0-0.1 0-0.6-0.1-1.3c-0.1-1.4-0.2-3-0.2-4.7v-0.9c0-3.3 0.3-6.7 0-10v-0.1q0.1-3.2 0.1-6.9 0-1.5 0-3.1 0.1-1.5 0.1-3.1c0.3-7.4-1.1-13.8-3.8-20.7-2.7-6.6-1.7-12 0.8-17.2 2.7-3.7 5-7.8 7.7-11.5 4.5-6.1 8.5-12.4 13.2-18.5 3.8-4.9 7.3-9.9 11-14.8q0.2-0.1 0.3-0.3c1.9-2.3 3.6-4.6 5.5-6.8 0.4-0.5 0.9-1 1.3-1.4 13.2-14.7 28.1-31.2 49.6-31.2 1.3-0.1 2.7 0 3.9 0.5 2.9 1 4.7 3.8 6.2 6.5 4.7 8.7 9 19.3 11.3 29q0.1 0.6 0.3 1.4 0.3 1.6 0.6 3.2 0.1 0.8 0.2 1.6 0 0.4 0.1 0.7 0.1 1.2 0.2 2.4 0.2 2.5 0.3 5.2c0.1 3.1 0.1 6.6-0.1 10.2z"/><path class="g" d="m310.4 468.5c0.3 0.5 0.9 0.6 1.8 0.5 1.5-0.3 3-0.5 4.5-1.1 1.1-0.5 3.8-1.9 3.2-4-0.6-1.9-3.5-1.8-5-1.6-2.3 0.5-3.5 1.7-4.3 4q-0.5 1.5-0.2 2.2z"/><path class="j" d="m319.9 463.9c-0.6-1.9-3.4-1.8-5-1.5-2.3 0.4-3.5 1.6-4.3 3.9q-0.5 1.5-0.2 2.2 0.2 0.3 0.5 0.4-0.2-0.7 0.2-2c0.7-2.3 1.7-3.5 3.9-3.9 1.3-0.3 3.8-0.4 4.3 1.5 0.2 0.7 0.1 1.3-0.2 1.9 0.6-0.7 1.1-1.5 0.7-2.5z"/><path class="g" d="m295.4 470q0.6 0 1.3-0.1c1.7-0.5 5.1-2.9 5.5-5.1 0.2-0.6-0.4-1.1-0.8-1.4-1.8-1-6.1-1.3-8.1-0.5-2.1 0.8-1 3.9-0.3 5.3 0.6 1.1 1.4 1.7 2.4 1.8z"/><path class="j" d="m294.1 468.8c-0.8-1.4-1.8-4.5 0.3-5.3 1.8-0.6 5.5-0.5 7.5 0.3q-0.3-0.3-0.5-0.4c-1.9-1-6.1-1.3-8.1-0.5-2.1 0.8-1 3.9-0.3 5.3 0.5 0.9 1.1 1.5 1.8 1.7q-0.4-0.4-0.7-1.1z"/><path class="g" d="m278.4 463.4c-1.2 0.4-2.1 1-2.3 2-0.4 2.3 3.3 4.3 5.2 4 2.1-0.3 6.8-4.3 4-6.2-1.8-1.1-5.1-0.3-6.9 0.2z"/><path class="j" d="m277.7 465.9c0.2-1 1.1-1.6 2.3-1.9 1.4-0.4 3.5-1 5.3-0.8-1.8-1.2-5.1-0.3-6.9 0.2-1.2 0.4-2.1 1-2.3 2-0.3 1.9 2.2 3.6 4.2 4-1.5-0.8-2.8-2.1-2.6-3.5z"/><path class="f" d="m370.2 281.9c9.3 32.4 2.4 79.1 2.4 79.1-23.1 33.3-99.2 63.8-138.5 64.3-38 0.6-115.7-32.7-139.1-65.5 0 0-7.1-41.4 3-77.9 14.5-52.6 44-97.9 62.5-130.9 11.3-20.1 36.2-30.9 73.6-32 36.9-1.2 62 8.2 73.8 28.4 21.4 36.6 47.7 83.9 62.3 134.5z"/><path class="g" d="m238.3 400.7c-36.9 0.5-104.5-25.1-145-55.8 0.7 9.2 1.7 14.9 1.7 14.9 23.4 32.8 101.1 66.1 139 65.6 39.4-0.6 115.5-31.1 138.6-64.4 0 0 0.4-3 0.9-8-40.3 26.9-99.9 47.2-135.2 47.7z"/><path class="h" d="m233.7 190c28 0 77.1 2.5 110.2 24.2-10.1-25.6-24.5-47.3-36-66.8-11.8-20.1-36.8-29.5-73.7-28.4-37.4 1.1-62.4 12-73.7 32-9.9 17.7-24.1 38.2-35.4 63.2 33-21.9 79.9-24.2 108.6-24.2z"/><path class="k" d="m314.9 160.9c0.2-0.2 0.5-0.5 0.7-0.7-2.6-4.6-5.1-8.5-7.8-12.7-12.6-19.7-36.9-29.6-73.8-28.4-37.4 1.1-62.4 12-73.6 32q-2.7 4.8-5.8 9.9c17.8 15.2 53.7 24.3 79.5 24.3 25.9 0 63.1-8.3 80.8-24.4z"/><path class="l" d="m198.7 30.3c0.4 7.9-2.3 15.3-8.9 21.7-9.2 9-28.2 16.5-38.8 5.2 1-0.2 1.9-0.1 2.9 0.3-3.1-2.9-5.7-6.4-7.7-10.2q1.3 0.7 2.4 1.7c-2-2.9-1.8-7.1-3.6-9.9q1.5 2.3 3.4 4.1c-1.3-2.5-2.1-5.2-2.4-8-0.2-2.3 0.6-6.3-0.3-8.3q0.4 0.9 0.9 1.9c0.6-2.2 0.8-4.5 0.6-6.8q0.4 0.8 0.7 1.7-0.1-1.9 0.3-3.8 0.5 0.3 1 0.5c-0.3-0.2 0.5-4.3 0.7-4.7 0.7 0.7 1 1.8 1.5 2.7q0-3.5 0.7-7c0 0.8 0.1 1.6 0.5 2.2q0.4-1.7 0.7-3.5c-0.1 0.6 1 1.9 1.4 2.3 0.2-0.9 0.4-1.8 0.8-2.7q0.3 0.5 0.6 1l0.9-2.5q0.9 0 1.8 0c-0.4-0.6-0.4-1.4-0.2-2q0.7 0 1.5 0c0.4-1 2-1.2 2.6-0.3 0.2-0.6 0.1-1.3-0.3-1.9q1.4 0.6 2.9 1.2 0.2-1.3 0.2-2.6 1.5 0.2 3 0.3-0.4-1.5-1.2-2.9 2.9 1 5.7 2.4-0.5-0.5-0.6-1.3c1.9 0.6 4.5 2 6.2 3q-1.9-1.7-3.7-3.3c1.7 0.6 3.3 1.4 4.8 2.5q-0.6-0.6-1.2-1.2c1.3 1.3 3 1.6 4.4 2.5 1.6 1 2.3 2.2 3.4 3.8q0-1.4 0.3-2.9 0.8 1.4 1.4 2.8 0.4-0.8 0.8-1.6c-0.5 1 1.2 4 1.9 4.6 0.4-0.6 0.5-1.3 0.5-2.1 0 0.9 1.7 2.7 2.1 3.6 0.6 1.3 0.9 2.8 1.5 4.1 1.1 2.5 1.7 4.7 2 7.4q0.4-1.4 0.8-2.8c0.8 2.9 1 5.8 1.1 8.8z"/><path class="m" d="m190.2 24.8c1.2 3.5 1.3 7.3 0.3 11.4-1.5 5.8-6.2 10.2-10.9 13.9-2.5 2.1-5.3 4.1-8.5 4.9-6.9 1.8-11.9-3.6-14.1-9.5 0.3 0.6 0.7 1.3 1.2 1.8 0.6 0.4 1.4 0.7 2 0.5-2.1-4.1-3.7-7-3.4-11.9q1.4 1.4 2.7 2.9c-0.4-2-0.7-4-0.6-6.1 0.3 1.3 1.1 2.5 2.2 3.3-0.3-1.9-0.5-3.8-0.5-5.7 0-0.9 0.7-2.5 0.2-3.4q0.6 1 1.5 1.8c-0.4-0.4-0.5-1.2-0.4-2.1 0.1-1.5 0.5-3.2 0.3-4.1 1 0.5 2 1.3 3 2-0.5-1.3-0.6-2.7-0.3-4.1-0.3 1.2 4.2 1.4 4.7 1.4q-0.6-1.4-1.1-2.8c1 0.2 1.9 0.7 2.8 1.3-0.1-2.7-0.4-4.8-1.2-7.4q2.2 1.7 4.3 3.3-0.4-0.9-0.9-1.8c1.8 1 3.6 2.1 5.5 3.1q-0.7-1.5-1.4-2.9c2 0.6 3.9 1.6 5.5 3-1.2-1.1-2.3-2.3-3-3.8 0.7 0.9 2.6 1.3 3.4 1.9 3.2 2.5 5.5 5.6 6.7 9.1z"/><path class="h" d="m272.1 27.9c0 12.7 4.5 20.6 18.1 31.7 9.9 8 29.9-4 27.7-31.7-0.9-12.6-13.2-23.7-25.9-23.7-8 0-19.9 11.2-19.9 23.7z"/><path class="h" d="m272.1 27.9c0 12.7 4.5 20.6 18.1 31.7 9.9 8 29.9-4 27.7-31.7-0.9-12.6-13.2-23.7-25.9-23.7-8 0-19.9 11.2-19.9 23.7z"/><path class="h" d="m272.1 27.9c0 12.7 4.5 20.6 18.1 31.7 9.9 8 29.9-4 27.7-31.7-0.9-12.6-13.2-23.7-25.9-23.7-8 0-19.9 11.2-19.9 23.7z"/><path class="k" d="m280.6 29.9c0 8 2.8 13 11.4 20 6.2 5 18.9-2.6 17.5-20-0.6-8-8.3-15.1-16.3-15.1-5.1 0-12.6 7.1-12.6 15.1z"/><path class="f" d="m322 96.5c0 23.6 1.4 43.9-14.3 58.2-16.1 14.6-49.1 22.2-73.5 22.2-24.3 0-56.4-8.3-72.5-22.2-16.6-14.3-16.3-32.7-16.3-57 0-48 50.5-87.9 87.4-87.9 36.9 0 89.2 38.8 89.2 86.7z"/><path class="g" d="m308.8 145.9c-16.1 14.6-50.2 24.4-74.5 24.4-24.3 0-54.4-9-70.5-22.9-13.8-11.9-17.9-33.6-18.2-52.3q-0.1 1.3-0.1 2.6c0 24.3-0.3 42.7 16.3 57 16.1 13.9 48.9 22.2 72.5 22.2 23.6 0 57.4-7.6 73.5-22.2 15.4-14 14.3-33.9 14.3-56.9-0.3 17-1.2 37.1-13.3 48.1z"/><path class="h" d="m292.6 69.4c7.1 12.8 27.6 22 18.8 33.7-8.8 11.6-37.6 8.4-49.3-0.4-11.6-8.8-13.9-25.4-5.1-37 8.7-11.7 24.2-16.6 35.6 3.7z"/><path class="k" d="m263.6 90.4c5.2 6.2 25.1 7.9 29.6 1.3 5.7-8.2-3.7-12-7.8-19-5.8-9.6-14.8-11.1-20.2-2.8-4.4 6.7-6.8 14.4-1.6 20.5z"/><path class="h" d="m176.1 69.4c-7.1 12.8-27.6 22-18.8 33.7 8.8 11.6 37.6 8.4 49.2-0.4 11.7-8.8 14-25.4 5.2-37-8.8-11.7-24.2-16.6-35.6 3.7z"/><path class="k" d="m206 90.4c-5.2 6.2-25.1 7.9-29.6 1.3-5.7-8.2 3.7-12 7.8-19 5.8-9.6 14.8-11.1 20.3-2.8 4.3 6.7 6.8 14.4 1.5 20.5z"/><path class="f" d="m205.4 84.9q-0.1 0.4-0.3 0.8-0.1 0.2-0.2 0.5-0.3 0.6-0.7 1.3-0.2 0.3-0.4 0.6 0 0.1-0.1 0.1-0.2 0.3-0.5 0.6-0.3 0.4-0.7 0.7-0.3 0.3-0.6 0.5-0.7 0.5-1.5 0.9-0.4 0.2-0.8 0.3c-0.3 0.1-0.5 0.2-0.8 0.3q-0.1 0-0.2 0-0.4 0.1-0.8 0.2-0.5 0.1-0.9 0.1c-5.2 0.3-9.7-3.6-10.1-8.8q0-0.9 0.1-1.8 0-0.2 0.1-0.5 0.2-1.6 1.1-3 0.1-0.3 0.3-0.6 0.4-0.5 0.8-1 0.2-0.3 0.5-0.5 0.3-0.2 0.5-0.5 0.5-0.4 1.1-0.8l0.6-0.3 0.6-0.3c0.9 0.2 2.1 0.7 3.4 1.3 2.6 1.4 5.6 3.5 7.4 5.3 0.8 0.7 1.3 1.3 1.5 1.9q0.1 0.1 0.1 0.2c0.3 0.9 0.5 1.8 0.4 2.5z"/><path class="k" d="m203.6 81.9c0.3 4-2.8 7.5-6.8 7.8-4.1 0.3-7.6-2.8-7.9-6.9-0.2-4 2.9-7.5 6.9-7.8h0.1c2.6 1.4 5.6 3.5 7.4 5.2v0.1q0.1 0.3 0.2 0.6 0.1 0.5 0.1 1z"/><path class="f" d="m194.2 81.5c-1.2 0-2.1-1-2.1-2.1 0-1.1 0.9-2.1 2.1-2.1 1.1 0 2 1 2 2.1 0 1.1-0.9 2.1-2 2.1z"/><path class="f" d="m283.5 83c-0.3 5.2-4.8 9.1-10 8.8q-0.9-0.1-1.7-0.3-0.4-0.1-0.7-0.2-0.3-0.1-0.7-0.2-0.1-0.1-0.1-0.1-0.3-0.1-0.6-0.3c-1-0.5-1.9-1.2-2.6-2q-0.3-0.3-0.5-0.6-0.2-0.2-0.3-0.4-0.3-0.3-0.4-0.7 0 0-0.1 0-0.1-0.3-0.2-0.6-0.1 0-0.1-0.1-0.2-0.4-0.3-0.7-0.1-0.3-0.2-0.7-0.1-0.4-0.2-0.8c0.1-0.5 0.2-1.1 0.4-1.7q0-0.1 0-0.2c0.3-0.6 1-1.4 1.9-2.2 1.8-1.7 4.6-3.7 7.1-5 1.4-0.7 2.6-1.2 3.5-1.3q0.2 0.1 0.5 0.2 0.2 0.1 0.5 0.2 0.1 0.1 0.3 0.2 0.4 0.2 0.7 0.5 0.3 0.2 0.6 0.5 1.2 1 2 2.4 0.1 0.3 0.3 0.6 0 0 0 0.1 0.2 0.2 0.2 0.5 0.4 0.9 0.6 1.8 0 0.3 0 0.6 0.1 0.8 0.1 1.7z"/><path class="k" d="m281.4 82.8c-0.3 4.1-3.8 7.2-7.8 6.9-4.1-0.3-7.1-3.8-6.9-7.8q0.1-0.6 0.2-1.1 0.1-0.5 0.2-0.8c1.9-1.7 4.7-3.7 7.1-5h0.1q0.1 0 0.3 0c4 0.3 7.1 3.8 6.8 7.8z"/><path class="f" d="m271.7 81.5c-1.1 0-2.1-1-2.1-2.1 0-1.1 1-2.1 2.1-2.1 1.1 0 2.1 1 2.1 2.1 0 1.1-1 2.1-2.1 2.1z"/><path class="n" d="m246.4 139.6c-1.8 3-5.8 5.8-13.1 5.8-7.2 0-10.8-2.6-13-5.8q0 0 0 0 0 0 0.1 0c1.3 0.4 2.7 0.7 4.1 0.8 1.6 0.2 3.3 0.1 4.9-0.2 0.8-0.1 1.5-0.3 2.3-0.5 0.6-0.2 1.2-0.4 1.7-0.7 0.6 0.2 1.1 0.4 1.7 0.6q1.2 0.3 2.3 0.5c1.6 0.3 3.2 0.4 4.8 0.2 0.8 0 1.5-0.1 2.3-0.2 0.6-0.2 1.3-0.3 1.9-0.5z"/><path class="o" d="m244.1 139.3c-1.5 1.9-4.8 3.6-10.8 3.6-5.9 0-8.8-1.6-10.7-3.6q0 0 0.1 0 0 0 0 0c1.1 0.3 2.2 0.4 3.4 0.5 1.3 0.1 2.7 0.1 4-0.1q1-0.1 1.9-0.3 0.7-0.2 1.4-0.4 0.7 0.2 1.4 0.3 0.9 0.2 1.9 0.4c1.3 0.1 2.6 0.2 3.9 0.1 0.6 0 1.3-0.1 1.9-0.2 0.5-0.1 1.1-0.1 1.5-0.3z"/><path class="k" d="m246.4 138.7c-0.7 0.2-1.4 0.3-2.1 0.4-0.7 0-1.4 0.1-2.2 0.1-1.4-0.1-2.8-0.2-4.2-0.5l-1.1-0.3q-0.5-0.1-1-0.2c-0.5-0.2-0.9-0.3-1.4-0.5v-6.2h-2v6.2c-0.5 0.2-0.9 0.4-1.4 0.6q-1 0.3-2.1 0.5-2.1 0.4-4.3 0.4c-0.3 0-0.7 0-1.1-0.1h-0.5l-0.6-0.1q-0.5 0-1.1-0.1l-1.1-0.2-0.5-0.1-0.6-0.1-1-0.3c-0.4-0.1-0.7-0.2-1.1-0.4l-1.1-0.3c0.6 0.4 1.3 0.7 1.9 1.1q0.5 0.2 1.1 0.4l0.5 0.2 0.5 0.2c1.5 0.5 3 0.8 4.6 1 1.6 0.1 3.3 0 4.9-0.2 0.8-0.1 1.6-0.3 2.3-0.6 0.6-0.2 1.2-0.3 1.8-0.6 0.5 0.2 1.1 0.4 1.7 0.5q1.1 0.4 2.2 0.6c1.6 0.2 3.2 0.3 4.8 0.2 0.8 0 1.6-0.1 2.3-0.3 0.8-0.2 1.6-0.3 2.3-0.6 1.4-0.5 2.7-1.2 3.8-2-1.4 0.5-2.7 1-4.1 1.3z"/><path class="h" d="m253.4 121.8c0 7.8-9 14.1-20.1 14.1-11.1 0-20.1-6.3-20.1-14.1 0-7.7 9-6.7 20.1-6.7 11.1 0 20.1-1 20.1 6.7z"/><path class="k" d="m253.4 121.8c0 7.8-9 14.1-20.1 14.1-11.1 0-20.1-6.3-20.1-14.1 0-7.7 9.2 2 20.3 2 11.1 0 19.9-9.7 19.9-2z"/></svg>