<svg version="1.2" xmlns="http://www.w3.org/2000/svg" viewBox="0 0 470 470" width="470" height="470"><style>.a{fill:#9c8c78}.b{mix-blend-mode:multiply;fill:#9c8c78}.c{fill:#e6d6bf}.d{mix-blend-mode:multiply;fill:#e6d6bf}.e{fill:#665c4f}.f{mix-blend-mode:multiply;fill:#878787}.g{fill:#bf6d34}.h{fill:#dca43c}.i{mix-blend-mode:multiply;fill:#bf6d34}.j{fill:#5f584f}.k{fill:#d8c7ad}.l{mix-blend-mode:multiply;fill:#b2b2b2}.m{fill:#322f2a}.n{fill:#b99c8d}.o{mix-blend-mode:multiply;fill:#b99c8d}.p{fill:#d97a78}.q{fill:#e4807e}.r{fill:#8f735f}.s{fill:#fff}.t{fill:#ecd934}.u{fill:#1d1d1b}.v{mix-blend-mode:multiply;fill:#e5c2af}.w{mix-blend-mode:soft-light;fill:#e5c2af}.x{fill:#4e463c}</style><path class="a" d="m59.8 324.9q0.2 5.1 1.1 10.4c0.3 1.9 0.7 3.8 1.3 5.7q0.4 1.2 0.9 2.4 0.1 0.4 0.3 0.8c1.2 2.8 2.8 5.5 5 7.5 2.8 2.5 4.8 2 8.2 2.3 6.5 0.6 12.2 4.3 18.8 4.2q1.8 0 3.6-0.4c0.8-0.1 1.7-0.4 2.1-1.1 0.4-0.7 0.3-1.5 0.1-2.2q-0.9-5.1-1.9-10.1c-0.5-2.8-1.1-5.8-0.6-8.7 0.4-2.9 2.1-5.8 4.8-6.9 1.6 4.6 5.5 8.4 10.1 9.8 2.2 0.7 5.2 0.4 6.6-1 0.5-0.5 0.8-1.1 0.9-1.8 0.1-1.2-0.4-2.3-0.8-3.4q-0.1 0-0.1-0.1c-2.9-6.5-4.5-12.7-6.9-18.7-1.7-4.4-3.8-8.7-7.1-13q-0.4-0.5-0.8-0.9-0.2-0.3-0.4-0.6-0.3-0.4-0.6-0.9-0.3-0.3-0.5-0.7c-3.9-6.8-7-14.1-9.8-21.6-2.2-5.7-5.1-11.5-8.8-13.8-2.1 0.4-4 1.4-5.6 2.7q-1.4 1.2-2.5 2.7-0.2 0.2-0.3 0.4-0.1 0.1-0.2 0.3-0.4 0.4-0.7 0.9-0.3 0.6-0.7 1.1c-1.5 2.5-2.9 5.4-4.3 8.3q-0.8 1.7-1.6 3.4-0.7 1.6-1.4 3.2-0.7 1.7-1.4 3.3-0.7 1.7-1.3 3.4-1.3 3.4-2.3 6.9-0.2 0.9-0.5 1.8-0.3 1.1-0.5 2.3-0.3 1.1-0.6 2.3c-0.9 4.5-1.5 9.1-1.6 13.9q-0.1 0.5-0.1 0.9c0 1.7 0 3.3 0.1 5z"/><path fill-rule="evenodd" class="b" d="m72.4 345c-1.6-4-2.5-8.1-3.6-12.2q-0.3-1.2-0.7-2.4-0.9 0.9-1.8 1.9-1.1-2.9-1.7-5.9-0.4 0.6-1 1c0.6-0.4-3.7-7.4-3.8-8.4q-0.2-0.6-0.2-1.4c0-4 0.9-7.9 1.7-11.8q0.1-0.4 0.1-0.7 0.3-1.2 0.6-2.3 0.2-1.2 0.5-2.3 0.3-0.9 0.5-1.8 1-3.5 2.3-6.9 0.6-1.7 1.3-3.3 0.7-1.7 1.4-3.4 0.7-1.6 1.4-3.2 0.8-1.7 1.6-3.4c1.4-2.9 2.8-5.8 4.3-8.3q0.4-0.5 0.7-1.1 0.3-0.5 0.7-0.9 0.1-0.2 0.2-0.3 0.1-0.2 0.3-0.4c0.5-0.7 1.5-1.7 2.5-2.7 1.9-1.8 4.3-3.5 5.6-2.6 3.6 2.2 6.6 8 8.8 13.7 2.8 7.5 5.9 14.8 9.8 21.6q0.2 0.4 0.5 0.7 0.3 0.5 0.6 0.9 0.2 0.3 0.4 0.6 0.4 0.5 0.8 0.9c3.3 4.3 5.4 8.6 7.1 13q-0.4-0.1-0.8-0.1c-1.2-0.3-2.6-0.8-3.5 0-0.8 0.7-0.7 1.8-0.6 2.8 0.5 4.4 1.7 8.7 3.7 12.7 1 2.2 2.2 4.4 4.8 4.7 0.5 0 2.1-0.5 3.3-1.3 0.5 1.1 1 2.2 0.9 3.4-0.1 0.7-0.5 1.3-0.9 1.8-1.4 1.4-4.4 1.7-6.6 1-4.6-1.4-8.6-5.2-10.1-9.8-2.8 1.1-4.4 4-4.8 6.9-0.5 2.9 0.1 5.9 0.6 8.7q1 5 1.9 10.1c0.2 0.7 0.3 1.5-0.1 2.2-0.4 0.7-1.3 1-2.1 1.1-1.2 0.3-2.4 0.2-3.5 0.4q-0.1 0-0.1 0c-6.6 0.1-12.4-3.6-18.8-4.2-3.4-0.3-5.4 0.2-8.2-2.3-2.2-2-3.8-4.7-5-7.5q-0.2-0.4-0.4-0.8 0-0.5-0.1-1c0.5 5.3 11.4 7.2 9.5 2.6zm-9.5-2.7q0 0 0 0.1 0-0.1 0-0.1zm0.7-14.9q0 0 0 0 0 0 0 0zm33.8 22.8q-0.6-1.8-1.1-3.5c-1.3-4.7-1.9-9.6-1.7-14.4-0.1 1.1-1.9 5.3-3 5.8-2.1 0.9-4.4-2.3-5.5-3.8-0.2 1.7-0.1 3.5 0.3 5.2-0.3-1.2-7-5.3-8.2-6.5-0.7 2.7 0.7 5.5 1.6 8 1 2.7 2.2 5.4 4.3 7.4 2 1.9 4.7 2.9 7.2 3.9 1.9 0.7 7.4 1.5 6.1-2.1zm-11-10.6q-0.1-0.1-0.1-0.1 0 0 0.1 0.1z"/><path class="c" d="m55 302.7c-0.2 0.3 2.1-0.1 2.5-0.1-0.3 0.4-1.2 5.8-2 6.6 0.8-0.1 1.5-0.4 2-0.9-1.4 3-0.6 6.5 0.1 9.8 0.2-1.8 1.6-3.1 3.3-3.3 0.1 0.6 0.8 4.5 0.4 4.9 0.6-0.5 1.2-1.1 1.8-1.7 0.2 1.4 1.6 2.1 2.2 3.3 0.3-0.9 0.9-3.6 0.4-4.4q2.4 4 4.8 7.9c0.6 0.9 1.1 1.8 1.9 2.3-0.5-1.5-0.5-3.1 0-4.7 1.4 2.5 3.4 4.1 5.8 5.4 0.2 0.1 1.1 0.6 2.1 1.2 1.5 0.8 3.3 1.8 3.3 1.9q1.7-4 3.4-7.9c1.2 1.8 1.6 4.1 1.1 6.2 2.7-3.7 2.2-9 4.8-12.8 0 1.7 0.5 3.4 1.5 4.8 0.4-3.6 1.4-7 3-10.3 0.6 1.9 1.6 3.7 2.9 5.2q0.4-2.1 1.5-4 0.9 2.7 1.8 5.3c0.1-0.6 2.8-8.7 4.1-7.8 2.4 1.5 5.5 1.9 8.2 1-2-0.7-5-2.8-4.9-5 0.4-0.1 1.9 0 1.9 0.7-0.1-1.6-1.6-2.6-3-3.5-5.4-3.4-3.3-11.2-1.9-16.3 0.3 1.4 1 2.7 2 3.6-0.2-2.8 0-5.5 0.5-8.2 0.4 1.1 1.2 2.1 2.3 2.5-0.5-1.7-0.6-3.5-0.2-5.3 0.9 0.8 1.4 2.1 1.3 3.4 1.5-2.3 2.4-5 2.6-7.7 0.3-3.7 0.3-7.4 1.4-11 0.3-0.8 4.9-8.6 5.2-8.2 0.9 1.3 1 3.1 0.4 4.6 2.2-2.2 3.9-4.8 5.1-7.7-0.1 1.6 0.2 3.3 0.9 4.8 0.1-4.5 2.6-8.9 6.4-11.3-0.9 1.4-1.6 2.9-1.8 4.6 2.2-2.2 4-4.8 5.2-7.7 1.4 2 1.5 4.9 0.2 6.9 2.8-2.4 5.2-5.5 6.7-8.9q0.6 1.5 1.1 2.9c3.6-12.4 14.9-20 20-31.7q0.6-1.4 1.1-2.8c0.9-2.6 1.7-5.2 2.3-7.9q0.2-0.8 0.4-1.6c0.7-3.1 1.3-6.2 1.9-9.3q0.3-1.4 0.5-2.7 0.1-0.2 0.1-0.4 0.3-1.6 0.6-3.1 0.2-1.1 0.5-2.5 0.1-0.1 0.1-0.2c2.8-13.2 9.4-40.8-2-49.1q-0.1 0-0.3 0-0.8 0.1-1.5 0.3c-4.7 0.8-9 2.1-13.1 3.9q-0.3 0.1-0.5 0.2c-6.5 2.9-12.4 6.6-18.1 10.8-2.4 1.8-4.7 3.3-6.9 5.3-2.6 2.2-5.5 4.2-8.9 4.8 1.1 1.2 2.9 1.8 4.5 1.6-3 1.2-5.7 2.9-8.2 5q1.8 0.2 3.6 0.5c-2.3 1.8-5 3-7.9 3.6 0.5 1.2 1.5 2.2 2.7 2.5-6.6 6.1-11.4 13.4-19.1 18.2 1.1 0.4 2.4 0.5 3.5 0.2-2.1 1.9-4.9 3.2-7.7 3.6q1.7 1.2 3.3 2.5c0.3 0.2-9.2 12.2-9.9 13.1-5 6.5-10.9 12-15.1 19.2 1-1.2 2.6-1.9 4.1-1.8q-3.1 4.4-6.8 8.3 2-0.1 4.1-0.2c-1.5 2.1-2.6 4.4-3.3 6.9 0.2-0.8 1.4-1.1 2.1-1 0.3 0-5 12.7-5.4 13.8 0.5-0.6 1.3-0.8 2-0.8-1 2.1-2.3 4-4 5.7q1.5-0.2 3-0.5c-2.6 4-4.8 8-5.7 12.7 0.7-0.7 1.6-1.1 2.6-1.3-1 2.3-2.3 4.4-3.9 6.3q0.9 0.3 1.8 0.5c-0.3 0-3.5 11.3-3.8 12.3-1.5 4.7-2.2 9.8-5 14z"/><path class="d" d="m76 313.9c1.1 5.1 2.3 10.3 4.3 15.1 1.5 0.8 3.3 1.8 3.3 1.9q1.7-4 3.4-7.9c1.2 1.8 1.6 4.1 1.1 6.2 2.7-3.7 2.2-9 4.8-12.8 0 1.7 0.5 3.4 1.5 4.8 0.4-3.5 1.4-7 3-10.2 0.6 1.9 1.6 3.6 2.9 5.1q0.4-2.1 1.5-4 0.9 2.7 1.8 5.3c0.1-0.6 2.8-8.7 4.1-7.8 2.4 1.6 5.5 1.9 8.2 1-2-0.7-5-2.8-4.9-5 0.4-0.1 1.9 0.1 1.9 0.7-0.1-1.6-1.6-2.6-3-3.4-5.4-3.5-3.3-11.3-1.9-16.4 0.3 1.4 1 2.7 2 3.6-0.2-2.7 0-5.5 0.5-8.2 0.4 1.1 1.2 2.1 2.3 2.6-0.5-1.8-0.6-3.6-0.2-5.4 0.9 0.8 1.4 2.1 1.3 3.4 1.5-2.3 2.4-5 2.6-7.7 0.3-3.7 0.3-7.4 1.4-10.9 0.3-0.9 4.9-8.7 5.2-8.3 0.9 1.4 1 3.2 0.4 4.6 2.2-2.2 3.9-4.8 5.1-7.7-0.1 1.7 0.2 3.3 0.9 4.8 0.1-4.5 2.6-8.9 6.4-11.3-0.9 1.4-1.6 3-1.8 4.6 2.2-2.2 4-4.8 5.2-7.6 1.4 1.9 1.5 4.8 0.2 6.9 2.8-2.5 5.2-5.6 6.7-9q0.6 1.5 1.1 3c3.6-12.5 14.9-20.1 20-31.7q0.6-1.4 1.1-2.9c0.9-2.5 1.7-5.2 2.3-7.9q0.2-0.8 0.4-1.5 1-4.6 1.9-9.4 0.3-1.3 0.5-2.7 0.1-0.2 0.1-0.4 0.3-1.5 0.6-3.1 0.2-1.1 0.5-2.5 0.1-0.1 0.1-0.2c2.8-13.1 9.4-40.8-2-49.1q-0.1 0-0.3 0.1-0.8 0.1-1.5 0.2c-4.7 0.8-9 2.1-13.1 3.9-3.9 3.3-7.9 6.8-10.9 11-2.7 3.9-3.9 8-8.2 10.8 0.8 1 2.1 1.5 3.3 1.2q-3.7 3.1-7.7 5.7c1.6 0.7 3.4 0.9 5.1 0.5-5.4 3.3-9.7 8.2-12.2 14 1.4 0 2.7-0.3 4-0.9-2.6 2.8-5.7 5-9.1 6.7 1.3 0.8 2.8 1.1 4.3 0.8q-3.5 2.4-7 4.8c1.5 0 2.9 0.3 4.2 0.9-1.1-0.5-4.8 5.1-5.4 5.8-2.3 2.7-5.5 4.3-8 6.9-2.2 2.1-3.6 5-4.1 8 0.6-1.4 2.1-2.3 3.6-2.1q-2.2 2.6-4.1 5.4 1.4-0.4 2.8-0.9c-1.5 1.7-3.3 3.2-5.3 4.2 1.1 0.2 2.2 0.6 3.2 1.1-1.6 0.6-2.9 2.1-4.2 3.2-0.7 0.6-1.5 1.3-2 2.1-0.5 0.6-0.9 2.2-1.4 2.5 0.9-0.7 2.2-0.9 3.3-0.6-1-0.2-3.9 3.7-4.5 4.4-2.2 2.3-4 4.5-4.8 7.6 0.8-0.3 1.7-0.4 2.6-0.3-1.9 2.2-3.1 5.1-3.4 8q1.2-0.3 2.4-0.5c-0.6 0.1-1.8 7.5-2 8.4-0.7 2.8-1.8 4.9-2.9 7.6-2.2 5.6-3.4 11.6-3.3 17.6 0.5-1.8 1.8-3.4 3.4-4.2-1.2 0.6-1 4.8-1.1 6.1-0.2 1.8-0.7 3.5-0.7 5.4 0 2.2 0.2 4.6-0.9 6.7-0.2-1.1-1-2.1-2.1-2.6 0.4 2.5 0.2 5-0.7 7.3q-0.6-0.9-1.1-1.8c-0.5 1.3-0.7 2.7-0.5 4.1 0.5 3.8 0.3 7.7 0.4 11.5-1.3-0.9-2.4-2.1-3.2-3.5-0.8 3.1-0.8 6.5 0.2 9.6-0.9-2-2.3-3.8-3.9-5.3z"/><path class="e" d="m332.3 332.5q0.2 0.9 0.6 1.8 0.5 1.3 1 2.7c1.3 3.4 2.9 6.8 4.6 9.9q0.5 0.9 1 1.8 0.4 0.6 0.8 1.2 0.4 0.6 0.8 1.2 0.3 0.3 0.6 0.7 1.4 1.9 3.1 3.5 0.5 0.5 1.1 1 0.1 0.1 0.2 0.2 0.6 0.5 1.3 1 0 0.1 0.1 0.1c3.5 2.6 7.4 4.2 11.8 4.5q0.5 0 1 0.1 0.4 0 0.9 0c2.8 0 5.9-0.6 9-1.6 2.1-0.7 4.2-1.7 6.4-1.7 1 0.1 2 0.3 3 0.4q0.1 0 0.1 0c3.6 0.3 7-1.3 10.1-3.7 3.7-3 6.9-7.1 9.5-10.2q0.5-0.6 1.2-1.9c0.6-0.9 1.3-2.2 2-3.7 7.9-15.9-7.3-36.8-18.2-47.6-5.2-5.1-10.9-9.8-17.8-12.3-6.8-2.4-14.8-2.3-20.9 1.7-9.1 6.1-11.9 18.5-13.3 28.7-1 6.7-2.3 15.8 0 22.2z"/><path class="f" d="m332.3 332.5q0.2 0.9 0.6 1.8 0.5 1.3 1 2.7c1.3 3.4 2.9 6.8 4.6 9.9q0.5 0.9 1 1.8 0.4 0.6 0.8 1.2 0.4 0.6 0.8 1.2 0.3 0.3 0.6 0.7 1.4 1.9 3.1 3.5 0.5 0.5 1.1 1 0.1 0.1 0.2 0.2 0.6 0.5 1.3 1 0 0.1 0.1 0.1c3.7 2.5 7.5 4.1 11.8 4.5q0.5 0 1 0.1 0.4 0 0.9 0c2.8 0 5.9-0.6 9-1.6 2.1-0.7 4.2-1.7 6.4-1.7 1 0.1 2 0.3 3 0.4q0.1 0 0.1 0c3.6 0.3 7-1.3 10.1-3.7-1.5 0.5-3 1.1-4.6 1.2-2.1 0.2-4.2-0.4-6.2-1 1.2-2.7 2.4-7 4.5-9.1 1.1-1.1 4.1-2.6 4.2-4.3 0 1.3-0.4 7.6-1.8 7.9 5.7-1.2 10.7-4.9 15-8.6 0.6-0.5 1.2-1.2 1.6-1.9 7.9-15.9-7.3-36.8-18.2-47.6-5.1-5.1-10.9-9.8-17.8-12.3-6.8-2.4-14.8-2.3-20.9 1.7-9.1 6.1-11.8 18.5-13.3 28.7-1 6.7-2.2 15.8 0 22.2z"/><path class="g" d="m300.5 212.3q0.1 0.2 0.1 0.4 0 0.1 0.1 0.3 0 0 0 0.1 0.2 0.8 0.5 1.5 0.1 0.6 0.3 1.2c0.5 1.7 0.9 3.5 1.4 5.2q0.1 0.5 0.2 0.9 0.2 0.5 0.3 1 0.1 0.4 0.2 0.9 0.2 0.8 0.4 1.5 0.1 0.4 0.2 0.6c2 7.8 4.2 15.5 6.6 23.2 2.5 8.1 4.6 16.9 5.6 25.3 0.7 6 1 11.9 0.9 17.9q1.6-2.3 2.9-4.8 1.3-2.6 2.3-5.4 0.1-0.2 0.1-0.4 0.4 6.7 0.8 13.4 1.1-1.6 2.1-3.2 0.1 1.8 0.2 3.7 0.1 1.9 0.2 3.7 0.2 2.2 0.4 4.4 0 1 0.2 1.9 0 1.2 0.2 2.3 0.1 1.3 0.3 2.6 0 0.3 0.1 0.6 0.4 3.2 1.1 6.3 0.3 2 0.8 4.1 0.2 0.7 0.4 1.4 0.2 0.7 0.4 1.5 0.6 2.4 1.3 4.8 0.5 1.6 1.1 3.3 0.3 0.9 0.7 1.8 0.4 1.3 1 2.7c1.1 2.9 2.2 6.9 4.1 9.4q0.2 0.3 0.5 0.5c1.8 1.6 6.1 3.5 6.2 5.4-0.3-3.9 0.4-7.8 2-11.3q2.2 4.6 5 8.7 0.2-1.6 0.4-3.3c2.8 3.5 7.3 5.7 11.9 5.6 0.6 0 1.3 0 1.7-0.5 0.3-0.3 0.5-0.9 0.5-1.4q0.7-3.9 1.4-7.9l10.1 9c2-1.5 3.7-3.2 5.2-5.1 2.4-2.8 4.2-6 5.5-9.4 1.4 4 1.1 8.6-0.9 12.5 6.4-3.5 13.1-7.3 16.9-13.7q0.3-0.5 0.8-1.4c2.2-4.1 5.8-12.6 3.3-15.6 2 2.1 2.9 5.1 2.3 7.9 4-11 3.7-23.1 1-34.5-2.6-11.4-7.4-22.2-12.2-32.9q2.1 3 4.3 5.9c-1.5-19.8-14.3-36.8-26.7-52.5 4.5 1.7 8.3 5.1 10.3 9.4-1.6-12.4-10.2-22.7-19-31.8q-1.2-1.2-2.4-2.5-0.5-0.5-0.9-1.1-0.2-0.2-0.4-0.4c-0.8-0.8-1.5-1.6-2.2-2.4-8.2-9.3-15.9-19.4-24.6-28.1q-0.8-0.8-1.6-1.6-1.5-1.5-3.1-2.9-0.8-0.8-1.6-1.5-3.3-2.8-6.8-5.3-0.8-0.6-1.7-1.2c-0.6-0.4-1.2-0.8-1.8-1.2q-0.9-0.5-1.9-1.1-3.6-2.2-7.6-3.8c-5-2.1-10.4-3.6-16.3-4.3q-0.1-0.1-0.3-0.1c-13.4 9.8 2.3 69 5.2 79.8z"/><path class="h" d="m410.8 326.4c0.6-2.8-0.3-5.8-2.3-7.9 2.5 3-1.1 11.5-3.3 15.6q-0.5 0.9-0.8 1.5c-3.8 6.3-10.5 10.2-16.9 13.6 2-3.8 2.3-8.5 0.9-12.5-1.2 3.4-3.1 6.6-5.4 9.5q-2.4 2.8-5.2 5l-10.2-9q0 0.3-0.1 0.6c-2.8-5.5-4-11.8-2.3-17.6-2.2 2.2-3.5 5.1-3.7 8.2 0.3-3.8-1.7-8.4-1.5-12.5 0.2-4.8 1.1-9.7 2.6-14.3-1.4 1.2-2.5 2.6-3.4 4.1 1.7-8.3 4.5-16.4 8.4-24q2 9.2 3.1 18.6c4.5-8.8 8.1-19.5 6.6-29.5q2.1 3.3 4.2 6.7c2-3.9 2.8-8.3 2.4-12.6 5.3 2.1 9.6 6.4 11.8 11.6 0.7-5.5 0.5-11.2-0.6-16.8 4.6 1.6 9.3 5.2 11.1 9.5q0 0.1 0 0.2 0.3 0.7 0.6 1.3 0.5 1.4 1 2.7 0.4 1.2 0.9 2.4 0 0.1 0 0.2 1.4 4 2.5 8 0.4 1.4 0.7 2.9c2.6 11.4 3 23.6-1.1 34.6z"/><path class="i" d="m300.5 212.3q0.1 0.2 0.1 0.4 0 0.1 0.1 0.3 0 0 0 0.1 0.2 0.8 0.5 1.5 0.1 0.6 0.3 1.2 0.3 1.1 0.6 2.2 0.4 1.6 0.8 3 0.1 0.5 0.2 0.9 0.2 0.5 0.3 1 0.1 0.4 0.2 0.9 0.2 0.8 0.4 1.5 0.1 0.4 0.2 0.6c2 7.8 4.2 15.5 6.6 23.2 2.5 8.1 4.6 16.9 5.6 25.3 0.7 6 1 11.9 0.9 17.9q1.6-2.3 2.9-4.8 1.3-2.6 2.3-5.4 0.1-0.2 0.1-0.4 0.4 6.7 0.8 13.4 1.1-1.6 2.1-3.2 0.1 1.8 0.2 3.7 0.1 1.9 0.2 3.7 0.2 2.2 0.4 4.4 0 1 0.2 1.9 0 1.2 0.2 2.3 0.1 1.3 0.3 2.6 0 0.3 0.1 0.6 0.4 3.2 1.1 6.3 0.3 2 0.8 4.1 0.2 0.7 0.4 1.4 0.2 0.7 0.4 1.5 0.6 2.3 1.3 4.8 0.5 1.6 1.1 3.3 0.3 0.9 0.7 1.8 0.4 1.3 1 2.7c1.3 3.4 2.8 6.8 4.6 9.9 1.8 1.6 6.1 3.5 6.2 5.4-0.3-3.9 0.3-7.8 1.9-11.2q2.3 4.5 5.1 8.6 0.2-1.6 0.4-3.3c2.8 3.5 7.3 5.7 11.9 5.6 0.6 0 1.2 0 1.7-0.5 0.3-0.3 0.5-0.8 0.5-1.4q0.7-3.9 1.4-7.9l10.1 9c1.9-1.5 3.7-3.2 5.2-5.1q0.3-1.9 0.4-3.8c0.5-7.9-0.6-31.2-6.3-37.1q2.2 2.3 4.5 4.7c-1.4-11-5.2-21.6-11-30.8q2.8 1 5.6 2c-3-27.1-13.5-53.3-30-74.4 0.7 0.3 1.7 0 2-0.7 0.6-1.1 0.2-2.3-0.2-3.4-2.2-6-5-11.6-8.6-16.8q4.5 1.5 9 3c-4.9-10.7-16.5-16.3-22.9-26.2-1-1.6-4.1-12.5-5.2-12.5q1-0.1 2.1-0.1c-1.2-3.3-3-6.4-5.3-9.1q1.3-0.1 2.5-0.2-3.6-2.1-7.7-3.8c-4.9-2.1-10.3-3.6-16.2-4.3q-0.2-0.1-0.3-0.1c-13.5 9.8 2.3 69 5.2 79.8z"/><path class="g" d="m221.8 396c-2.9 6.1-5.7 12.4-7.4 19-0.5 2.2-4.3 15.4-2.9 17.1-0.6-0.7-1.4-1.4-2.3-1.8q0.2 2 0.1 3.9 0 4-0.6 7.9c-0.2-1.2-1.2-2.2-2.4-2.2 1 3.8 1.3 7.8 0.9 11.8q-0.1 0.9-0.2 1.8-0.5-1.4-1.2-2.6-1-1.9-2.4-3.6 0.4 1.5 0.5 2.9c0.5 3.8 0 7.3-2.2 9.9-1.2 1.5-3 2.7-5.5 3.5-7.8 2.3-17.2-0.2-25.2-0.7-1.2-0.1-2.5-0.1-3.9-0.1-2.1 0-4.4 0-6.6-0.1q0-0.1 0-0.1c-4.1-0.2-8.2-0.7-11.1-2.3-2.4-1.4-4.6-3-6.6-4.8-2.5-2.4-4.6-5.1-6.1-8.1q-0.4-0.8-0.7-1.6c-1.2-2.9-1.9-6-1.8-9.4q-0.1 4-0.1 8c-3.5-7.4-5.9-15.3-7.2-23.3q-0.3 2.1-0.6 4.2c-5.3-9.4-8-20.3-7.7-31q-1.4 2.8-2.8 5.6c-1.9-11.8-0.8-24 2.3-35.8 3.1-11.4 8.1-22.3 14.2-32q0.8-1.2 1.5-2.3c9.5-14.3 27.8-27.6 44.8-30.8 46.6-8.9 57 67.6 43.2 97z"/><path class="h" d="m121.1 389.1c0.7 7.5 3.2 14.9 7.5 21.2q0.5-1.7 1-3.4c3.1 5.1 6.8 9.7 11.2 13.6q0.4-3.4 0.7-6.8 6.3 5.2 12.5 10.4c0.1-4.9 1-9.8 2.6-14.4 1.6 1.8 2.6 4.2 2.8 6.6q2.7-7.4 4.4-15 3.1 1.4 6.2 2.8c-1.4-9.7-5.3-20.2-10.3-28.6-4.1-6.9-10-12.9-16.5-17.5q-0.6 4.2-1.1 8.3c0.1-0.6-3.3-4.1-3.8-4.9q-1.7-2.6-2.8-5.5c-1.5-3.9-2.4-7.6-1.7-11.8-4.4 5.7-8 11.3-10.6 17.9-1.3 3.2-2.3 6.3-3 9.6-0.7 3.1-0.4 6.6-1.2 9.6 0.3-1 1.3-1.7 2.3-1.6-0.4 3.1-0.5 6.3-0.2 9.4z"/><path class="i" d="m221.8 396c-2.9 6.1-5.7 12.4-7.4 19-0.5 2.2-4.3 15.4-2.9 17.1-0.6-0.7-1.4-1.4-2.3-1.8q0.2 2 0.1 3.9 0 4-0.6 7.9c-0.2-1.2-1.2-2.2-2.4-2.2 1 3.8 1.3 7.8 0.9 11.8q-0.1 0.9-0.2 1.8-0.5-1.4-1.2-2.6-1-1.9-2.4-3.6 0.4 1.5 0.5 2.9c0.5 3.8 0 7.3-2.2 9.9-1.2 1.5-3 2.7-5.5 3.5-7.8 2.3-17.2-0.2-25.2-0.7-1.2-0.1-2.5-0.1-3.9-0.1-2.1 0-4.4 0-6.6-0.1q0-0.1 0-0.1c-4.1-0.2-8.2-0.7-11.1-2.3-2.4-1.4-4.6-3-6.6-4.8-2.5-2.4-4.6-5.1-6.1-8.1q-0.4-0.8-0.7-1.6c5.8-1.5 18.9-7.7 20.1-8.1-1.1 2.3-2.5 4.4-4.2 6.2 6.4 0.6 12.7-2 18.6-4.5 3.8-1.7 7.8-3.5 9.9-7.1 1.4-2.4 1.7-5.3 2-8-2.4 3.2-5.9 5.6-9.7 6.9 1.8-2.6 2.4-6 1.6-9-3.4-0.4-6.2 1.4-9.4 1.5-0.8-3.9-1.6-7.7-3.3-11.3q-0.4 0-0.9 0.1-1 0.1-2.1 0.3-1.6 0.3-3.1 0.8c-1.2 0.3-2.4 0.7-3.6 1.1-1.5-2.4-2.7-5.1-3.2-7.9q-1.4 1.7-2.7 3.3c-1.3-5.3-7.1-7.9-11.5-11.2-4.7-3.6-8.3-8.7-10-14.3q-0.9 2.5-1.8 5.1-0.9-1.4-1.7-2.8c-3.7-7.2-4.2-15-2.8-22.8 3-11.4 8-22.3 14.1-32q0.8-1.2 1.5-2.3c9.5-14.3 27.9-27.6 44.8-30.8 46.6-8.9 57.1 67.6 43.2 97z"/><path class="e" d="m212.3 464.1c-0.3 1.1-0.9 1.9-1.7 2.5-1.3 1.1-3.1 1.6-4.6 1.9-4.8 1-9.5 1.9-14.3 1.3-5.8-0.7-11-3.5-17-2.1-1.9 0.4-3.6 1.2-5.5 1.7-6.1 1.7-11.2-1-16.9-1.5q-1.1-0.1-2.3-0.1c-7.2 0.3-14.5 3.1-21.7 1.2-1.7-0.4-3.4-1.1-4.9-2.5-1.5-1.5-2.8-3.8-3.1-6.6q-0.1-0.7-0.1-1.4 0-1 0.2-2.1c0.5-3 2-5.7 3.8-7.2 5.5-4.5 15.8-1.8 21 1.5 1.3 0.9 2.6 1.9 3.7 2.8q0.2-0.3 0.4-0.6c3.7-4.6 9-7.3 14.3-7.5 3.7-0.2 7.4 0.9 10.7 3 1.8 1.2 3.3 3.3 5 4.7 1.2 0.9 2.5 1.5 4.1 1.1 1.3-0.3 2.5-0.9 3.8-1.5 0.2-0.1 0.4-0.2 0.7-0.3 1.7-0.8 3.5-1.2 5.2-1.6 4.8-0.9 9.8-2.1 14.1 0.9 2 1.4 4 3.4 5 5.9 0.8 2 1 4.2 0.1 6.4z"/><path class="f" d="m212.3 464.1c-0.3 1.1-0.9 1.9-1.7 2.5-1.4 0.9-3 1.6-4.6 1.9-4.8 1-9.5 1.9-14.3 1.3-5.8-0.7-11-3.5-17-2.1-1.9 0.4-3.6 1.2-5.5 1.7-6.1 1.7-11.2-1-16.9-1.5q-1.1-0.1-2.3-0.1c-7.2 0.3-14.5 3.1-21.7 1.2-1.7-0.4-3.4-1.1-4.9-2.5-1.5-1.5-2.8-3.8-3.1-6.6q-0.1-0.7-0.1-1.4 0-1 0.2-2.1c2.5 14.9 21.9 5.1 24.7-5.7 1.4 0.9 2.7 1.9 3.8 2.8q0.2-0.3 0.4-0.6c0.7 7.2 7.1 9.3 12.2 9.9 7.1 0.7 15.4-1.1 17.8-9.7 1.2 0.9 2.5 1.4 4.1 1.1 1.3-0.3 2.6-1 3.8-1.5q2.2 1.6 4.4 3.3c5.7 4.2 14.6 6.2 20.6 1.6 0.8 2 1 4.2 0.1 6.4z"/><path class="j" d="m245.8 363.3c4.5 17.3 19.4 28.6 24.2 46.1 0.6-0.1 6.2-2.2 5.7-3.2q2.3 4.8 4.6 9.6 0.7-1.7 1.5-3.3c0 0.2 0.3 0.7 0.7 1.4 1.2 1.8 3.4 4.7 3.7 5.4 1.2 2.2 2.2 4.5 2.9 6.9 0.7 2.5 1.2 5 1.3 7.5 0.1 2.1 0.7 5.8-0.4 7.6 0.8-0.5 1.5-1.1 2.1-1.8-0.9 3.1-1.3 6.5-1.6 9.7q0.9-0.7 1.9-1.4c0.1 4.1 0.6 8 0.6 12.1q4.2 1.7 8.5 2.8c7.5 1.9 15.3 2.3 23 1.4q6.1-0.7 11.9-2.6c2-0.7 4.1-1.5 5.5-3.2 1.3-1.5 1.8-3.5 2.2-5.5 0.9-3.7 3.1-8.6 2.4-12.3 0.8 0.4 1.8 0.7 2.7 0.6-1.3-10.4 0.4-20.1 0.9-30.4 0.2-4.3 0.4-8.6 0.3-13q0-0.3 0-0.7 0-3.7-0.3-7.4c-0.1-2.2-0.2-13.2-1.3-14q2.3 1.6 4.6 3.2c-1-6.3-3.1-12.5-6.4-18 1-0.6 2.4-0.6 3.3 0.1-9.5-23.4-26.3-46.8-49.6-58.2-16.4-8.1-33.8-5.2-45.3 9.5-10.9 13.9-13.9 34.2-9.6 51.1z"/><path class="k" d="m315.2 406.9q-2-1.1-3.8-2.5c-1.1 6.6 1 16 7.8 18.7 2.4 0.9 5.1 1.2 7.7 1.6-1-0.8-1.6-2.1-1.3-3.3q2.4 1.2 4.8 2.4c1.9-3 2.7-6.8 2.3-10.3-0.2-1.5-0.6-2.7-1.3-3.9-0.3-0.4-2.9-2.8-2.9-2.7q0 1.6 0 3.1c-2.9-3.4-7.3-5.4-11.7-5.5 0.5 1.1 0.7 2.3 0.7 3.5q-1.2-0.5-2.3-1.1z"/><path class="k" d="m299.7 361q0.5 0.9 1.2 1.7c0.7-2.3 4.3-9.6 7-9.7 6.7-0.4 13.8 1.9 18.3 7.1-0.5-2.2-1.2-4.7-1.1-6.9 0.1-1.2 6.4 3.9 6.7 4.1 2.4 2.3 4.2 4.3 5.6 7.5 4.4 10.8 5 27.7-4.3 36.2 0.1-1.2-0.1-2.4-0.4-3.6-0.8 1-1.3 2.2-1.4 3.4-4.5-3.6-9.7-6.4-15.2-8.1-0.9 1.1-1.2 2.5-1 3.9-2.9-1.1-5.4-3-7.4-5.3q0.3 1.6 0.6 3.2c-4.4-2-8.6-4.8-11.6-8.7-3.3-4.1-5.1-9.2-4.2-14.4 0.4-2.8 0.9-5.5 2-8.2 0.6-1.3 3.9-5.4 3.8-6.5 0.2 1.5 0.6 3 1.3 4.3z"/><path class="l" d="m245.8 363.3c4.5 17.3 19.4 28.6 24.2 46.1 0.6-0.1 6.2-2.2 5.7-3.2q2.3 4.8 4.6 9.6 0.7-1.7 1.5-3.3 0-0.1 0-0.1 0.5 0.7 0.7 1.5c1.2 1.8 3.4 4.7 3.7 5.4 1.2 2.2 2.2 4.5 2.9 6.9 0.7 2.5 1.2 5 1.3 7.5 0.1 2.1 0.7 5.8-0.4 7.6 0.8-0.5 1.5-1.1 2.1-1.8-0.9 3.1-1.3 6.5-1.6 9.7q0.9-0.7 1.9-1.4c0.1 4.1 0.6 8 0.6 12.1q4.2 1.7 8.5 2.8c7.5 1.9 15.3 2.3 23 1.4 1.2-7.7 5-15 10.7-20.4-1.9-0.5-13.9 0.2-13.7-2.2 0.2-1.2 1.3-2 2.4-2.5 1.5-0.6 3.1-1 4.8-1.2q-3.8-1.4-7.5-2.7c-4.2-1.6-8.6-3.2-11.8-6.4-3.2-3.1-4-11.9-7-13.8q2.9 1.8 5.8 3.6c-4.1-12.9-8.6-24.9-9.2-38.6 0.9 2.3 2.5 4.3 4.6 5.7 0.6-3.9 0.1-13.6 5.2-14.7 1.1-0.3 2.3 0.4 3.3 1 1.5 1 13.7 6.6 13.4 8.6 0.5-3.4 0-6.9-1.5-10 7.3 4.7 13.2 11.5 16.7 19.5 1.4-2.8 1.9-5.9 1.5-8.9 2 5.9 7.8 9 8.2 16q0-3.8-0.3-7.5c-0.1-2.1-0.2-13.2-1.3-13.9q2.3 1.6 4.6 3.2c-1-6.4-3.2-12.5-6.4-18.1 1-0.6 2.4-0.5 3.3 0.2-9.5-23.4-26.3-46.8-49.6-58.3-16.4-8-33.8-5.2-45.3 9.5-10.9 13.9-13.9 34.2-9.6 51.1z"/><path class="m" d="m273.1 463.6q0.1 0.8 0.6 1.5c1.3 2 4.1 2.8 6 3.2 5.7 1.2 11.6 0.1 17.2-1.2q0.7-0.1 1.4-0.3c7.7-1.7 14.1 3.6 21.6 2.4q0.3-0.1 0.7-0.1c4.6-0.8 9.1-2.4 13.8-2.4q0.3 0 0.7 0c5.2 0.4 15.1 5.4 18.9 0.5 1.1-1.5 1.4-3.4 1.1-5.2q-0.2-0.9-0.5-1.8c-0.4-1.1-1-2.2-1.6-3.2q-1.4-2.5-3.2-4.8c-1.8-2.4-4-4.7-6.9-5.6-3.7-1.1-5.4 1-7.6 2.7-0.8 0.6-1.6 1.2-2.6 1.5q-0.2 0.1-0.4 0.1c-1.8 0.5-3.4-0.1-5-1.1-2.2-1.3-4.4-3.4-6.9-4.2-3-0.9-6.2 0.2-8.8 2-2.3 1.6-4.3 3.6-6.4 5.5q0 0.1-0.1 0.1c-0.3 0.3-0.5 0.5-0.8 0.8-2.4 2.1-4.1 1-6.2-0.9q-1.1-1-2.4-1.3c-2.4-0.8-5.1-0.2-7.4 0.9-3.3 1.5-6.1 3.8-9.5 4.7-1.6 0.5-4.1 1.7-5.2 3.5-0.5 0.8-0.7 1.7-0.6 2.6z"/><path class="f" d="m273.1 463.6q0.1 0.8 0.6 1.5c1.3 2 4.1 2.8 6 3.2 5.7 1.2 11.6 0.1 17.2-1.2q0.7-0.1 1.4-0.3c7.7-1.7 14.1 3.6 21.6 2.4q0.3-0.1 0.7-0.1c4-0.9 10.3-3.4 14.5-2.4 5.2 0.4 15.1 5.4 18.9 0.5 1.1-1.5 1.4-3.4 1.1-5.2q-0.2-0.9-0.5-1.8c-0.6 1.8-2.1 3.5-3.9 4.2-2.1 0.8-7.7-0.1-4.9-3.3 0.7-0.8 1.7-1.2 2.7-1.6-1.6-1.6-4.4-1-6.6-1.9-3.8-1.6-5.2-4.7-6.6-8.3q0-0.1-0.1-0.1c-0.8 0.7-1.6 1.3-2.5 1.6q-0.2 0.1-0.4 0.1c-1.8 0.5-3.4-0.1-5-1-0.1 1.9-0.4 3.7-0.4 4.2-0.6 3.1-1.8 5.2-4.1 7.2-1.8 1.6-4.1 2.4-6.5 2-2.5-0.3-4.4-2.3-1.1-3.5 1-0.4 2.3-0.7 2.7-1.7-2.8-1.1-5.9 0.3-8.8-0.6-2.3-0.7-2.8-2.1-4-4.1-0.3 0.1-0.5 0.4-0.8 0.6-2.4 2.2-4.1 1-6.2-0.9q-1.1-0.9-2.4-1.3c-0.6 2.7-2.1 5.2-4.3 6.8-1.3 1-2.8 1.6-4.4 1.7-0.8 0-1.6-0.1-2.3-0.2-0.7-0.1-1.7-0.6-2.4-0.4-0.2 0.1-0.4 0.3-0.6 0.4q-0.5 0.6-0.9 1.1c-1.4 1.6-4.2 2.7-6 1.4-0.1-0.1-0.8-1-1.2-1.7-0.5 0.8-0.7 1.7-0.5 2.7z"/><path class="j" d="m326.3 188.4q0.4 5.2 0.2 10.4-0.1 3.2-0.5 6.4-1.2-1.6-2.5-3.1 0 6.7-0.9 13.3c-0.5 4.3-1.2 8.6-2.2 12.8q-1.4-2.4-2.9-4.7-1.6 12.6-3.3 25.2-1.6-1.9-3.2-3.9c-1.8 6.5-2.8 13.1-2.9 19.8q-0.2 3.5 0 6.9-0.2 0-0.3-0.1 0 0-0.1 0c-0.9-0.5-1.7-1.4-2.1-2.4q-0.1 1.4-0.2 2.8 0 0.4-0.1 0.9c-0.3 8.1 1.6 16.4 5.5 23.7q-2-1.3-4.1-2.5c0.6 0.3 1.2 4.2 1.4 5 0.9 2.6 2 5.1 3.2 7.6q0.9 1.6 1.8 3.2 2 3.4 4.6 6.4c-1.9-0.8-3.8-1.4-5.6-1.9-2.1-0.5-4.2-1-6.5-1.4-0.3 2.9-1 5.6-2.1 8.2-0.9 2.1-2 4.2-3.4 6.1 0-0.3-0.1-0.6-0.2-0.9q-0.4-2.1-0.9-4.2-0.6 1.1-1.2 2.1-0.2 0.5-0.5 0.9-0.6 1-1.2 2-0.8 1.4-1.7 2.7-0.8 1.2-1.7 2.4-0.6 0.9-1.3 1.7-1 1.3-2.1 2.6-1-1.2-2-2.4-4.4 7.8-8.8 15.7c-0.6-1.5-2.9-0.2-3.8 1.2-5.4 8.3-10.6 16.1-18.7 22.2q0-1.4 0.1-2.9c-2.6 2.8-5.6 5.8-8.8 8.4q-1 0.8-2 1.5-0.1 0.1-0.3 0.2-0.3 0.2-0.6 0.4c-1.1 0.8-2.2 1.5-3.3 2.2q-0.2-0.9-0.4-1.7-1.3 1.8-2.8 3.3-0.7 0.8-1.5 1.5-1 0.9-2.1 1.7c0-0.2-0.1-0.5-0.2-0.8-0.3-0.8-0.8-1.8-1.3-2.5-0.3-0.5-0.6-0.8-0.9-1.1-0.6-0.4-1.2-0.5-1.8 0q-0.5 0.5-1.1 1.8-0.5-0.2-1-0.5-0.1 0-0.3-0.1-1.5-0.7-3.1-1.6-0.8-0.5-1.7-1.1c-5-3.2-9.6-7.5-13.3-11.6q0 1.4 0.1 2.8v0.1q-1-0.7-1.8-1.4-1.3-1-2.4-2.1-0.6-0.6-1.2-1.1-0.4-0.5-0.9-1-0.3-0.3-0.5-0.5-0.5-0.6-1-1.2-2-2.1-3.7-4.4-0.7-0.9-1.4-1.9-0.8-1.1-1.6-2.3-0.8-1.1-1.5-2.2-1.4-2.1-2.7-4.2c-0.9-1.3-3.2-2.6-3.8-1.1l-8.9-15.8-1.9 2.5q-2.3-2.8-4.4-5.7-0.5-0.7-1-1.4-2.3-3.5-4.3-7.3l-0.9 4.1-0.2 0.9q-0.2-0.1-0.3-0.3-1.9-2.7-3.1-5.7-0.4-0.8-0.7-1.7-1.1-3.1-1.4-6.5c-1.9 0.3-3.6 0.6-5.3 1.1q-1.1 0.3-2.2 0.6c-1.5 0.4-3 0.9-4.6 1.5q1.3-1.5 2.4-3.1 0.7-0.9 1.3-1.8c2.5-3.8 4.4-8 5.9-12.3 0.2-0.7 0.8-4.6 1.4-5q-2 1.3-4.1 2.5c4.5-8.3 6.4-18 5.2-27.4-0.4 1.2-1.3 2.2-2.5 2.6q0-0.6 0-1c0.4-8.7-0.6-17.4-2.9-25.7l-2.9 3.6q-0.2 0.2-0.3 0.3l-0.2-1.4-3.1-23.9-2.8 4.8q-2.1-8.8-2.8-17.7-0.4-4.2-0.4-8.5-1.2 1.6-2.5 3.2c-0.7-6.5-0.8-13 0-19.5q0.5-5 1.7-9.9-1.7 1.3-3.4 2.6-0.5 0.4-0.9 0.7 0.6-1.6 1.3-3.2 2.5-5.9 5.9-11.4 1.9-3.1 4.1-6.2c1.8-2.5 3.7-5 5.8-7.3q-2.1 0.6-4.1 1.2c1.4-2.5 2.9-4.7 4.5-6.9 1.2-1.6 2.6-3.2 3.9-4.7 2.8-3.1 5.9-6 9.2-8.8 2.6-2.2 5.2-4.3 8-6.6 13.3-10.9 29.2-17.9 46.2-19.7q0.3-0.1 0.6-0.1 2.4-0.2 4.7-0.3 1.6-0.1 3.3-0.1 2.3-0.1 4.7 0 4 0 7.9 0.4 0.4 0 0.7 0.1c17 1.8 32.9 8.8 46.2 19.7q1.1 0.9 2.3 1.9 3 2.4 5.9 4.9 0.1 0.1 0.2 0.1 1.2 1.1 2.3 2.1c3.2 2.9 6.2 5.9 8.9 9.3q1.2 1.4 2.3 2.9 2 2.7 3.7 5.8-2-0.6-4.1-1.2 2.6 3 5.1 6.3 3 4.1 5.7 8.6 3.6 6.4 6.3 13.2-2.1-1.6-4.3-3.3 1.4 6 2 12.1 0 0.3 0 0.5z"/><path class="k" d="m207.6 199.6c1.4 2.2 3.2 4.1 5.4 5.6 1.7-2.2 3.7-4.2 5.9-5.8 1.5 2 3.4 3.8 5.5 5.1 1-1.3 0.7-3.3-0.5-4.3 5.8 2.3 11.3 5.1 16.7 8.2 1-2.1 2.2-3.9 3.3-5.8 0.7 1.2 1 2.7 0.8 4.1 1.2-1.1 2.3-2.5 2.9-4 0.8 0.9 1.1 2.2 1.1 3.4 2.3-1 4.6-2.5 6.2-4.4 0.4-0.5 3.3-5.1 2.4-5.4 4.1 1.3 7.3 3.6 10.5 6.3 0.1-1.6 1.7-3.2 2.5-4.6q1.1 1.4 2.1 2.8 1-1.3 1.9-2.6c1.3 1.6 1.7 3.6 1.4 5.6 2.2-3.1 3.8-6 4.8-9.7 0 0 2.5 2.7 2.8 3.1 1.4 1.9 2.7 3.8 3.9 5.9 3.1 5.9 4.7 13.4 3.5 20.1 0.2-1-3.2-3.2-4-3.5 0.1 3.8-0.6 7.4-0.7 11.1-0.2 4-0.7 8-1.4 12q-0.8 4.2-1.8 8.2c-0.7 2.8-1.7 4.9-2.5 7.5-0.1-1.3-1.7-2-1.9-3.2q0 3.2-0.3 6.4c0 0.5-0.4 4.8-0.4 4.8 0-0.1-2-1.8-2.2-2.2-0.8 5.3 0.2 10.5 1 15.7 0.4 2.8 1 5.6 1.7 8.3q0.6 2.1 1.2 4.2c0.2 0.8 0.6 3.5 1.2 4-1.7-1.4-3.6-2.3-5.7-2.9 0.2 0.1 5.3 22 5.8 24.6 2.1 9.4 4.6 19.5-0.4 28.4q-0.9 1.6-1.8 3.1c-0.6-1.5-2.9-0.2-3.8 1.2-5.4 8.4-10.6 16.1-18.7 22.2q0.1-1.4 0.1-2.9c-2.6 2.8-5.6 5.8-8.8 8.4q-1 0.8-2 1.5-0.1 0.1-0.3 0.2-1.9 1.5-3.9 2.6-0.2-0.9-0.4-1.7-1.2 1.8-2.8 3.3-0.7 0.8-1.4 1.5-1.1 0.9-2.1 1.7c-0.1-0.2-0.2-0.5-0.3-0.8-0.3-0.8-0.7-1.8-1.2-2.5-0.3-0.5-0.7-0.8-1-1.1-0.6-0.4-1.1-0.5-1.7 0q-0.6 0.5-1.1 1.8-0.6-0.2-1.1-0.5-0.1 0-0.2-0.1-1.6-0.7-3.2-1.6-0.8-0.5-1.7-1.1c-4.9-3.2-9.5-7.5-13.3-11.6q0.1 1.4 0.1 2.8v0.1q-1-0.7-1.8-1.4c-6.7-5.5-11.3-12.2-16-19.4-3.5-5.4-9.4-25.3-2.9-30.6-0.9 0.8-1.9 1.3-3.1 1.7q1.4-4.9 2.4-9.9c0 0.7-2.8 2.5-3.4 2.9 4.3-12 6.4-24.8 10.3-37.1q-2 2.1-4.1 4.2c1.6-9.3 3-19.5 1-28.9-1.2 0.3-2.3 1.1-2.9 2.2-6.7-12.9-8.9-29.5-5.1-43.6-2 1-3.9 2.4-5.3 4.1q1.7-3.3 2.9-6.8c-0.4 1-3.6 1.2-4.4 1.2 0.1 0 4.4-9.1 5.1-10 2.6-3.6 6.1-6.5 10.1-8.4-1.3 0.6 0.4 4.8 0.9 5.6 1.2 1.7 3.2 3.7 5 4.7q3.8-3.6 7.6-7.2 0.6 1.6 1.5 3.1z"/><path class="l" d="m308.1 264.6c-1.3 3.2-1.8 5.9-0.3 6.7-1-0.4-1.8-1.3-2.2-2.3q-0.1 1.4-0.2 2.8 0 0.4-0.1 0.8c-0.3 8.2 1.6 16.5 5.5 23.8q-2-1.3-4.1-2.6c0.6 0.4 1.2 4.3 1.5 5.1 1.3 3.7 2.9 7.4 4.9 10.8q2 3.4 4.6 6.4c-1.9-0.8-3.7-1.4-5.6-1.9-2.1-0.5-4.2-1-6.5-1.4-0.3 2.9-1 5.6-2.1 8.2-0.8 2.1-2 4.2-3.4 6.1 0-0.3-0.1-0.6-0.2-0.9q-0.4-2.1-0.9-4.2-0.6 1.1-1.2 2.1-0.2 0.5-0.5 0.9-0.5 1-1.2 2-0.8 1.4-1.7 2.7-0.8 1.2-1.7 2.4-0.6 0.9-1.3 1.7-1 1.3-2.1 2.6-0.9-1.2-2-2.4-4.4 7.9-8.8 15.7c-0.6-1.5-2.9-0.2-3.8 1.2-5.4 8.4-10.6 16.1-18.7 22.2q0.1-1.4 0.1-2.9c-2.6 2.8-5.6 5.8-8.8 8.4q-1 0.8-2 1.5-0.1 0.1-0.3 0.2-1.9 1.5-3.9 2.6-0.2-0.8-0.4-1.7-1.3 1.8-2.8 3.3-0.7 0.8-1.4 1.5-1.1 0.9-2.2 1.7c0-0.2-0.1-0.5-0.2-0.7-0.3-0.9-0.8-1.8-1.3-2.6-0.2-0.4-0.6-0.8-0.9-1.1-0.6-0.4-1.2-0.5-1.8 0q-0.5 0.5-1.1 1.8-0.5-0.2-1-0.5-0.1 0-0.2-0.1-1.6-0.7-3.2-1.6-0.8-0.5-1.7-1c-5-3.2-9.5-7.6-13.3-11.7q0 1.4 0.1 2.8v0.1q-1-0.7-1.8-1.4-1.3-1-2.4-2.1-0.6-0.6-1.2-1.1-0.4-0.5-0.9-1-0.3-0.2-0.5-0.5-0.5-0.6-1-1.1-1.9-2.2-3.7-4.5-0.7-0.9-1.4-1.9-0.8-1.1-1.6-2.3-0.8-1.1-1.5-2.2-1.4-2-2.7-4.1c-0.9-1.4-3.2-2.7-3.8-1.2l-8.9-15.7-1.9 2.4q-2.3-2.7-4.4-5.7-0.5-0.7-1-1.4-2.3-3.5-4.3-7.3l-0.9 4.1-0.2 1q-0.2-0.2-0.3-0.4-1.9-2.7-3.1-5.7-0.4-0.8-0.6-1.7-1.2-3.1-1.5-6.5c-1.9 0.3-3.6 0.6-5.3 1.1q-1.1 0.3-2.2 0.6c-1.5 0.4-3 0.9-4.6 1.5q1.3-1.5 2.4-3.1 0.7-0.9 1.3-1.8c2.5-3.8 4.4-8 5.9-12.2 0.2-0.8 0.8-4.7 1.4-5.1q-2 1.3-4.1 2.5c4.5-8.3 6.4-18 5.2-27.3-0.4 1.1-1.3 2.1-2.5 2.5q0.1-0.5 0.1-1c0.3-8.7-0.7-17.4-3-25.7l-2.9 3.6q-0.2 0.2-0.3 0.3l-0.2-1.4-3.1-23.9-2.8 4.8q-2.1-8.8-2.8-17.7c1 3.3 1.8 6.7 3.8 9.6 0.7-1.6 1.3-3.1 2-4.6 3.2 6.6 6.7 13.8 11.6 19.4l1.6-3c-0.9 1.6 7.9 6.4 8.9 6.8-2.4 0.1-4.3 26.2-4.2 28.4q1.6-1.9 3.1-3.9c-0.5 12 0.1 23.6 1 35.4 1.4 0.1 2.8-0.2 4-1-1 9.6 0.8 18.9 4.4 27.8 1.7 4.1 3.6 7.8 6.2 11.4 1.6 2.1 8.7 8 9 10.2q-0.3-2.9-0.6-5.7 6.3 6.1 12.6 12.2 2-2.1 4.1-4.3c4.2 5.1 8.9 9.6 14.1 13.6-0.1-1.6 0.4-3.1 1.2-4.4 1.2 1.8 2.7 3.4 4.3 4.8q3.1-2.6 6.2-5.2c0.2 2.9 0.1 5.7-0.5 8.5 0.8-3.8 10.7-7.8 14-9.6q-0.7 2.2-1.3 4.4c4.1-3.7 7.9-8 12.2-11.5 2-1.7 8.7-5 8.7-8.5q0.3 2.7 0.5 5.4c7.4-6.8 12.1-15.7 15.2-25.2 1-3 9.5-25.5 7.6-27.4q2 2.5 4.1 5 0.2-12.4-0.4-24.8c-0.1-2.1-0.3-4.3-1.7-5.9q2 1.9 3.9 3.9c-0.8-11.5-3.5-24.2-2.4-35.6 1.5 1.3 2.7 2.9 4.3 4.2 0.3-4.6 1.3-9.1 3.2-13.3 1.9 1.3 3.4 3.2 4.2 5.4-1.3-3.6 10.7-17.8 12.3-21.4 0.8 1.3 1.7 2.6 2.8 3.8-0.5 4.3-1.3 8.6-2.3 12.8q-1.4-2.4-2.8-4.7-1.6 12.6-3.3 25.2-1.6-1.9-3.2-3.9c-1.8 6.4-2.8 13.1-3 19.8z"/><path class="l" d="m301 144.6c1.7 4.2 7.7 6.6 7 11.1 0-0.2-7.3-1.2-8-1.3 1.8 8.4-9.4 8.1-9.4 14.3 0-1.9-0.5-6.4 1.1-7.8-3.8 1.6-6.7 4.2-10.1 6.3 0-0.3-1.1-4-1.3-3.8l-5.8 5.4c-0.7-1.2-1.1-2.6-1-4-3.9 4.8-7.8 10.3-12.3 14.5-2.3 2.2-9.7 4.9-10.9 7.4 1-2.2 1.5-4.7 1.3-7.1-0.9 0.8-14.8 10.6-15.1 9.8-0.7-2-1.8-3.9-3.2-5.5q-1.2 1.5-2.3 3.1c-0.2 0.3-0.4 0.5-0.7 0.6-0.4 0.1-0.9-0.1-1.2-0.4-2.7-2-7.5-8.1-10.7-8.3-0.2 1.4 0.3 6.9 1.6 7.7-5.1-3.2-8.1-7.5-12.1-11.7-1.3-1.4-11.1-8.5-11.1-10.2-0.4 1.3-0.7 2.6-0.9 3.9-3.9-1.7-7.4-4.1-10.5-7 0.5 2.3 1.7 4.4 3.4 6-4.8-3.2-8.5-5.2-12.6-9.4-0.3 1.5-2.2 6.5-1.5 7.9-3-6.3-6.7-12.9-13.9-14.6q2.3-3.8 4.7-7.5c-3.7-0.4-7.4 0.1-10.9 1.3 1.3-1.6 2.6-3.2 3.9-4.6 2.9-3.2 5.9-6.1 9.2-8.9 2.6-2.2 5.2-4.3 8-6.6 13.3-10.9 29.2-17.8 46.2-19.7q0.3 0 0.7-0.1 2.3-0.2 4.6-0.3 1.7-0.1 3.3-0.1 2.3-0.1 4.7 0 4 0.1 8 0.4 0.3 0.1 0.6 0.1c17 1.9 32.9 8.8 46.2 19.7q1.2 0.9 2.3 1.9 3 2.4 5.9 4.9 0.1 0.1 0.2 0.1 1.2 1.1 2.3 2.2c3.2 2.8 6.2 5.8 8.9 9.2q1.2 1.4 2.3 2.9-5.5-1-11-1.8z"/><path class="l" d="m301.4 143.9q-1.5-2-2.7-4.4c0.7 1.4-11.5 14.2-12.8 16-1-1.7-1.6-3.7-1.7-5.8-2.9 4.4-6.5 8.3-10.5 11.5q0.3-3.2 0.6-6.4-4.9 5.6-9.8 11.1 0-3.7 0-7.3c-4.6 3.5-8.6 7.7-12 12.6q0.2-3.7 0.5-7.5-4.7 3-9.4 5.9-0.1-2.7-0.2-5.4c-4.2 0.4-8.2 1.9-11.7 4.3q-0.2-2.2-0.3-4.3-4.6 2.7-9.1 5.4-1.3-2.8-2.7-5.7c-1.3 1.8-2.3 3.9-2.7 6.3-3.7-2.1-7.2-4.4-10.6-7q-0.1 2.1-0.2 4.1c-3.4-3.4-7.1-6.3-11.1-8.8q-0.2 2.4-0.5 4.8-2.8-3.2-5.6-6.3c-1.3-1.4-3.7-2.8-4.2-4.8q0.3 1.4 0.6 2.8c-2-2.1-3.7-4.4-5.4-6.8-1.5-1.9-3.6-3.2-4.8-5.3q-0.1 2-0.2 4.1c-2.3-4.3-4.5-9.3-5.5-14.2q-0.7 1.6-1.1 3.3c-0.2-1.4-0.4-2.8-0.6-4.2 2.6-2.2 5.2-4.4 8-6.6 13.3-10.9 29.2-17.9 46.2-19.8q0.3 0 0.7 0 2.3-0.3 4.6-0.4 1.7-0.1 3.3-0.1 2.3 0 4.7 0 4 0.1 8 0.5 0.3 0 0.6 0c17 1.9 32.9 8.8 46.2 19.7 3.8 3.1 7.4 6 10.8 9.1q0 0 0 0.1c0.4 3.4 0.6 6.7 0.6 9.5z"/><path class="j" d="m239.8 225.1q-0.1 2.6-0.7 5.1c-0.9-3.6-2.7-6.4-4.7-9-3.2-4.1-9-4.6-13.2-5.3 0.5 2.6 0.7 5.3 0.6 7.9q-2.6-2.5-5.3-5-0.5 1.8-1 3.6-0.9-2.5-1.4-5.2c-3.1 2.5-5.8 6-7.8 10 0.6-1.2-0.3-4.8-0.1-6.4-4.7 3.7-5.2 11.8-4.6 17.4 1.2-1.9 2.8-3.5 4.7-4.7 1.1 5 1.4 10.2 0.8 15.3q1.3-2.4 2.5-4.9c3.6 5 5.9 10.9 6.8 16.9q3.1-3.1 6.3-6.2c0.2 4.6-1.1 9.3-3.5 13.2 4.4-7.1 13.8-11.4 18.9-17.9 1.7-2.2 3-4.8 3.9-7.8 1.8-6.4 1.1-11.8-2.2-17z"/><path class="j" d="m250 226.7q0.4 2.9 0.3 5.8c2-2.5 3.4-5.3 4.2-8.4 0.9 0.7 1.7 1.5 2.2 2.4 1.2-2.2 0.8-5-0.4-7.1-1.2-2.2-3.1-3.9-5.1-5.5q0 0.9 0.3 1.8c-0.4-1.1-5.2-1.2-6-0.7-2.9 1.9-0.4 4.4 0.8 6.2 1 1.6 1.4 3.5 1.2 5.3q0.9-1 1.5-2.1c0.2-0.3 0.5 0.1 0.6 0.5q0.2 0.9 0.4 1.8z"/><path class="j" d="m179.4 70.8c0.5 2.5 0.7 4.9 0.6 7.3q0 0 0 0.1 0 0.3 0 0.6 0 0.2-0.1 0.5 0 0.1 0 0.2c-0.4 4.4-1.8 8.3-4.1 10.7q-0.2 0.3-0.5 0.6-0.1 0.1-0.3 0.3-0.2 0.1-0.4 0.3-0.2 0.2-0.4 0.3-0.3 0.1-0.5 0.3 0 0-0.1 0-0.2 0.1-0.4 0.2-0.3 0.2-0.6 0.3c-2.7 1-5.5 0.1-8-2.1-1.2-1.1-2.4-2.6-3.3-4.2-0.9-1.7-1.7-3.7-2.5-5.4q0.3 0.1 0.6 0.2c0 0-0.2-0.6-0.2-0.7q-0.2-0.5-0.4-1.1-0.4-1.1-0.8-2.2c0.2 0.4 0.5 0.7 0.8 0.9-1.2-3.4-1.1-7.4-0.5-10.9 0.6-2.6 1.5-4.6 2.8-6.5-0.2-0.4-0.8-0.2-1.1-0.1 0.4-0.5 0.9-1 1.4-1.2q-0.6-0.3-1.2-0.6c0.5-0.4 1-0.7 1.6-1 0.1-0.1 1.8-0.7 1.8-0.6-0.1-0.5-0.6-0.8-0.9-1.1q-0.5-0.6-1-1.1c3.3 0 8 1.2 11 3.6 2.8 2.3 5.2 6.4 6.5 11.5q0.1 0.4 0.2 0.9z"/><path class="l" d="m164.2 59.7q0.5 0.6 1 1.1c0.3 0.3 0.7 0.7 0.9 1.1-0.1-0.1-1.7 0.6-1.9 0.6-0.5 0.3-1 0.7-1.5 1q0.6 0.3 1.2 0.6c-0.5 0.3-1 0.7-1.4 1.2 0.3-0.1 0.7 0 1 0.3-1.3 0.9-2.1 2.7-2.6 4.6-0.5 2.1-0.8 4.6-0.5 6.8 0.3 1.7 0.7 3.2 1.1 4.8-0.3-0.6-0.7-1.2-1-1.7 0 0.5 0 1 0.1 1.5q0.1 0.4 0.2 0.9 0 0.4 0.1 0.8 0.5 2.2 1.2 4.1c2.9 4.3 6.8 6.4 10.5 5.1h0.1q0.2-0.1 0.5-0.3 0.2-0.1 0.5-0.2 0 0 0 0 0.3-0.2 0.5-0.3 0.2-0.2 0.4-0.3 0.2-0.2 0.4-0.3 0.2-0.2 0.3-0.3 0.3-0.3 0.6-0.6c2.2-2.4 3.6-6.3 4-10.8q0 0 0-0.1 0.1-0.2 0.1-0.5 0-0.3 0-0.6 0-0.1 0-0.1c0.1-2.4-0.1-4.8-0.6-7.3q-0.1-0.5-0.2-0.9-0.4-1.7-1-3.2c-0.9-1.4-1.9-2.5-3-3.4-3-2.4-7.7-3.6-11-3.6z"/><path class="n" d="m285.7 76.2c0 1.7 0.3 3.3 0.8 4.8q0 0.1 0.1 0.1 0 0.2 0.1 0.4 0.1 0.2 0.1 0.3 0.1 0.1 0.1 0.1c1.2 2.8 3.4 5 5.9 6q0.3 0.2 0.6 0.2 0.2 0.1 0.4 0.2 0.2 0 0.4 0.1 0.3 0 0.5 0.1 0.2 0 0.5 0 0 0 0.1 0 0.2 0.1 0.4 0.1 0.3 0 0.6 0c5.9 0 10.6-5.6 10.6-12.4q0-0.3 0-0.6 0-0.3 0-0.6c-0.5-5.8-4.3-10.4-9.2-11.1q-0.7-0.2-1.4-0.2c-2.6 0-4.9 1.1-6.7 2.9-2.3 2.1-3.7 5.3-3.9 8.9q0 0.4 0 0.7z"/><path class="o" d="m287.9 76.9c-1 4.3 0.5 9.3 4.9 11q0.3 0.2 0.6 0.3 0.2 0 0.4 0.1 0.2 0 0.4 0.1 0.3 0 0.5 0.1 0.2 0 0.5 0 0 0 0.1 0 0.2 0.1 0.4 0.1 0.3 0 0.6 0c5.9 0 10.6-5.6 10.6-12.4q0-0.3 0-0.6 0-0.3 0-0.6c0.3 3.9-2.7 8.7-7 8-2.1-0.3-4-2.2-4.1-4.3-0.1-1.6 0.7-3.7 2.6-3.6 0.9 0.1 1.7 0.6 2.3 1.3 0.4 0.6 1.1 2.3 0.5 3 5.2-5.8-2.1-12.3-8.3-9.2-2.6 1.3-4.3 3.9-4.9 6.7z"/><path class="c" d="m300.8 128.7c0 0 1.8 10 1.6 14.9q-1.6-2.2-3.2-4.4c-1 3.3-2.3 6.5-4 9.6 0.2-1.3-0.4-2.8-1.3-4q-1.6 3.8-3.4 7.7c-0.3-1.2-1-2.3-1.8-3.2q-1.9 5.6-4.2 11.3c0.3-1.7-0.2-3.4-1.2-4.9-1.6 3.1-3.4 6.3-5.3 9.5q-1.1-1.6-2.2-3.3c-2 4-5.3 7.5-9.2 10.2 0.9-1.8 1-3.9 0.4-5.7-4.9 6.3-11.4 11.9-18.3 16.2 2-2.5 2.5-6 1.3-8.9-4.7 4.1-10 7.6-15 10.1 0.6-1.2 0.6-2.7 0.2-3.9-1.5 0.8-2.6 2.4-3 4.2-3.2-1.2-6.3-3.3-9-6-0.6 1.2-1 2.7-0.8 4.1-2-2-3.5-4.5-4.5-7.2-1.5 1-2.6 2.9-2.4 4.8-3.4-3.5-6.1-7.7-7.9-12.1-0.8 0.7-1.4 1.7-1.3 2.8-1.5-1.1-12.7-11.1-12.7-11.1 0 0-1.2 3-1 4.5-4.2-2.4-7.2-6.4-8.1-10.8-1 1.3-1.9 2.9-2.5 4.5-2.2-2.7-7.9-13.9-7.9-13.9 0 0-3.2 5.2-4.1 8-2.2-5.1-1.8-11 0.5-16.5-2 1.6-3.7 3.7-4.9 5.9q-0.3 0.4-0.5 0.9 0-0.2 0-0.3c-0.3-3.2 0.1-6.5 1.3-9.7 0.8-2.3 1.9-4.4 3.2-6.5q0.2-0.4 0.5-0.8c0.2-0.3 0.3-0.5 0.6-0.8q-3.7 1.5-7.3 3 1.5-1.5 2.9-3.2 0.2-0.2 0.4-0.5 1.3-1.6 2.3-3.3c1.6-2.4 2.9-5.1 3.7-7.8-2.7 2.3-5.8 4.1-8.9 5.4 2.5-2.6 4.7-5.5 6.3-8.7q-2.3 1.1-4.5 2.1c2.1-2.3 4.4-4.4 6.3-6.8 1.3-1.6 3.9-7 3.9-7 0 0-4.6 3-7 3.9 3.8-4.5 5.9-9.8 8.3-15-1.5 1.1-4.1 4.1-4.1 4.1 0 0 1.9-6.4 2.2-9.9 0-1 0.2-2 0.3-2.8 0.7-3.1 1.5-6.5 2.1-9.6q-2.2 2.8-4.5 5.7c0.3-3.1 1.2-5.7 2-8.5 0.4-1.6 1.3-5.9 1.3-5.9 0 0-3.2 3.9-5.4 4.8 1.9-5.1 4.4-11.2 4.4-17.1-1.6 0.6-4 2.9-4 2.9 0 0 0.9-10 5.6-11.7-2.8-1.4-5.7-2-8.3-2 1.8-2.2 5-3.3 8.6-3q1.5 0.1 3 0.5 0 0 0.1 0.1 0 0 0-0.1c-2.1-2.8-5.5-5.2-8.8-6.2 2.5-2 7-2.2 11-0.4-0.9-2.5-3-5-5.5-6.7-1.1-0.7-2.1-1.3-3.3-1.7 4.8-0.6 10.5 0.9 15.3 3.7q0.1 0.1 0.1 0.1 0.4 0.2 0.8 0.5c-2.8-3.7-5.7-7.5-8.6-11.3q2.8 2.2 5.7 4.3 1.6 1.2 3.2 2.5 0.2 0.2 0.5 0.3c-3.6-4.2-5.5-9.4-4.4-13.7 0.4 4.2 4.2 8.6 8.8 10.8q-2-5.9-4.4-12.1c4.8 2.6 9.2 5.8 12.7 9.4-0.6-3.3-3.1-6.8-6.8-9 6.3 0.7 12.6 3.6 17 7.7 0.5-3.5-1.2-7.7-4.4-10.8 3.8 1.8 7 4.8 8.9 8 0.7-2.1 0.3-4.8-1.3-7 5.3 1.2 9.8 4.6 12 8.9 0.4-0.4 0.7-0.7 1.1-1.1 1.8-1.8 3.5-3.9 5.1-6.2q1.1-1.7 2.1-3.6 2 4.5 4.8 8c3.1-2 4.8-3.1 8.2-5.4-0.2 2.8-1.4 5.6-3.3 7.9q0.8-0.5 1.6-1c2.2-1.1 4.5-2 6.9-2.7 3.6-1.1 7.5-1.6 11.1-1.5-3.5 2.7-7 5.4-10.3 8 6.4-1.7 13.2-2.5 19.6-2.2-2.8 1.3-7.3 2.4-8.9 4.9 6.8-1.3 13.8-1.5 19.7-0.1-3.6 0.1-7.6 1.4-11 3.7 4.4 0.1 9-0.1 13.5-0.5q0 0.1-0.1 0.1c-0.1 0.1-0.2 0.2-0.3 0.4-2.6 2.8-6.1 5-9.6 6 4.1 0.7 8.8 0 13.3-2-2 1.8-3.7 3.9-5 5.9-1 1.5-1.8 3-2.4 4.5 4.9-2.2 10.1-3.5 14.9-3.6-4.6 1.4-8.6 5.3-12.1 8.9 3.4-1.6 7.1-1.5 9.2 0.3-2.9 0.4-9 2.5-9 2.5 0 0 5 1.4 6.5 1.2-2 1.5-4.6 3.2-4.6 5.7-0.1 1.3 1.3 3 1.7 4 0.5 1 1.9 5.8 3.2 6-2.1-0.1-4.1-0.7-5.9-1.9 3 2.7 4.9 6.6 5.9 10.9-2.1-1-4.4-1.7-6.8-1.9 2.7 5.1 4.1 11.4 5.1 17.8q-0.6-0.9-1.4-1.7c-1-0.9-2.1-1.5-3.2-1.8 3.1 4.7 6 10.2 8.4 16q-2.2-1.5-4.6-2.2c1.6 5.2 4.6 10.1 8.4 14.1q-1.7-0.4-3.3-1.1c-1.3-0.5-2.5-1.2-3.6-2.1 1.3 2.5 2.9 4.7 4.9 6.6-1.2-0.1-2.6-0.8-3.6-1.9 2 3.6 4.2 7.1 6.5 10.6q0.2 0.4 0.5 0.7 0.7 1.1 1.5 2.2-2.8-1.6-5.5-3.3c0.5 0.9 1 1.9 1.5 2.9 1.5 2.9 3.1 6.1 5.5 8-1.4 0.6-4.4-2.2-4.4-2.2z"/><path class="d" d="m300.8 128.7c0 0 1.8 10 1.6 14.9q-1.6-2.2-3.2-4.4c-1 3.3-2.3 6.5-4 9.6 0.2-1.3-0.4-2.8-1.3-4q-1.6 3.8-3.4 7.7c-0.3-1.2-1-2.3-1.8-3.2q-1.9 5.6-4.2 11.3c0.3-1.7-0.2-3.4-1.2-4.9-1.6 3.1-3.4 6.3-5.3 9.5q-1.1-1.6-2.2-3.3c-2 4-5.3 7.5-9.2 10.2 0.9-1.8 1-3.9 0.4-5.7-4.9 6.3-11.4 11.9-18.3 16.2 2-2.5 2.5-6 1.3-8.9-4.7 4.1-10 7.6-15 10.1 0.6-1.2 0.6-2.7 0.2-3.9-1.5 0.8-2.6 2.4-3 4.2-3.2-1.2-6.3-3.3-9-6-0.6 1.2-1 2.7-0.8 4.1-2-2-3.5-4.5-4.5-7.2-1.5 1-2.6 2.9-2.4 4.8-3.4-3.5-6.1-7.7-7.9-12.1-0.8 0.7-1.4 1.7-1.3 2.8-1.5-1.1-12.7-11.1-12.7-11.1 0 0-1.2 3-1 4.5-4.2-2.4-7.2-6.4-8.1-10.8-1 1.3-1.9 2.9-2.5 4.5-2.2-2.7-7.9-13.9-7.9-13.9 0 0-3.2 5.2-4.1 8-2.2-5.1-1.8-11 0.5-16.5-2 1.6-3.7 3.7-4.9 5.9q-0.3 0.4-0.5 0.9 0-0.2 0-0.3c-0.3-3.2 0.1-6.5 1.3-9.7 0.8-2.3 1.9-4.4 3.2-6.5q0.2-0.4 0.5-0.8c0.2-0.3 0.3-0.5 0.6-0.8q-3.7 1.5-7.3 3 1.5-1.5 2.9-3.2 0.2-0.2 0.4-0.5c3.1-2.4 6-5 8.7-7.8-0.4 0.4-0.8 1.2-1.2 2.2-1.6 3.8-3.3 11.1-4.2 13.4 2-2 4.1-4.4 6.3-5.9-0.5 7 0.6 13.9 3.6 20.4q0.9-4.7 1.9-9.3c0.4 6.8 3.3 13.4 8.5 18.3-0.3-3.9 1.1-6.9 2.6-10.6 0.3 5.4 3.7 10 7.9 13.7 0-3.1 0.9-6.3 2.4-9.1 0.7 4.5 3.8 8.1 6.8 11.3 0.9 0.9 7.5 6.2 7.5 7.4 0.3-2.8 1.6-5.4 3.5-7.3 1.8 4.5 5.1 8.4 8.9 10.8 0.5-3 2-5.8 3.9-7.7q0.8 3.9 1.6 7.8c2.2-1.6 4.4-3.7 6.4-5.9 0.5 1.8 0.7 3.7 0.5 5.6 4.6-3 13.4-5.2 15.6-10.8 1 1.4 0.4 3.6-0.5 4.9 0.5 0.6 1.3 0.2 1.9-0.2 5.3-4.5 9.9-9.7 13.3-15.2q-0.4 4.1-1.2 8.2c3.5-3.1 7-6.3 9.5-9.9 1.5-2.2 4.9-6.3 4-9.3q0.9 2.8 1.8 5.7c2.4-3 4-5.9 5.2-9.3 0.7 1.5 1.1 3.1 1.5 4.7 2.4-2.5 2.3-7 2.8-10.4q2.2 3.2 3.9 6.7c-0.3-4.3-0.8-8.3-1.9-12.3-0.5-1.8-1.2-3.7-1.9-5.6-0.2-0.5-0.4-1.1-0.2-1.4 0 0.3 4 3 5.5 4.1q0.3 0.3 0.5 0.7 0.7 1.1 1.5 2.2-2.8-1.6-5.5-3.3c0.5 0.9 1 1.9 1.5 2.9 1.5 2.9 3.1 6.1 5.5 8-1.4 0.6-4.3-2.2-4.3-2.2z"/><path class="d" d="m293.1 83.9q-0.6-1-1.4-1.7-1.4-2.6-2.5-5.5c-0.4-1.3-4.5-13.5-5.5-13.6 1.4-0.6 2.9-0.9 4.3-1.2-1.4-4.4-4.3-7.6-8.6-8.8 1.2-0.9 2.5-1.4 3.7-1.4q-3.3-1.4-7.2-2.5c-7.4-2.2-19-1.2-26.6 5.2-3 2.5-4.7 5.7-7.9 7.6-0.1 0-0.3 0.1-0.4 0.1-0.2-0.1-0.3-0.3-0.4-0.5-0.2-0.7-0.5-1.3-0.8-2q-0.8 1.5-1.9 2.7c-0.2 0.2-0.4 0.5-0.6 0.6-0.5 0.1-1-0.2-1.4-0.6-0.3-0.5-0.5-1-0.9-1.4-0.1-0.1-0.3-0.3-0.4-0.2-0.2 0-0.3 0.1-0.5 0.2q-0.9 0.9-1.9 1.9c-0.4-0.9-0.8-1.9-1-2.9q-0.9 1-1.8 1.9c-0.1 0.1-0.3 0.3-0.5 0.3-0.2 0-0.3-0.2-0.5-0.3-0.1-0.3-1.4-1.9-1.4-2.2q-0.2 1.3-0.4 2.6c-1.2-0.8-2.4-1.7-3.6-2.6-5.5-3.7-9.6-7.9-17.2-10-6.7-1.8-14.4-3.1-17.7 0.9 1.9 0.3 4.1 1.4 5.6 3.1-4-3.5-13.8 7.6-14.8 9.7 1.5 0 4.7 0.1 4.7 0.1 0 0-5.2 11.1-6.7 14.1-0.5 1-1.1 1.9-1.7 2.8 0.1-1.1 0.2-2.1 0.3-2.8 0.8-3.2 1.5-6.6 2.1-9.6q-2.2 2.8-4.5 5.6c0.3-3.1 1.2-5.7 2-8.4 0.4-1.7 1.3-6 1.3-6 0 0-3.2 3.9-5.4 4.8 1.9-5 4.3-11.2 4.4-17-1.6 0.6-4 2.9-4 2.9 0 0 0.9-10.1 5.6-11.8-2.8-1.3-5.7-2-8.3-1.9 2.4-2.9 7-3.9 11.7-2.5-2.1-2.9-5.4-5.3-8.8-6.2 2.5-2 6.9-2.2 11-0.5-1.3-3.5-4.8-6.9-8.8-8.3 5-0.6 11.2 1 16.2 4.2-2.8-3.7-5.7-7.4-8.7-11.2q4.8 3.6 9.4 7.1c-3.6-4.2-5.4-9.4-4.3-13.7 0.4 4.1 4.2 8.6 8.8 10.7q-2-5.8-4.5-12c4.9 2.5 9.2 5.8 12.7 9.4-0.5-3.3-3.1-6.9-6.7-9.1 6.2 0.8 12.6 3.7 17 7.8 0.4-3.5-1.2-7.7-4.5-10.8 3.9 1.8 7.1 4.8 8.9 8 0.8-2.1 0.4-4.8-1.2-7 5.3 1.1 9.8 4.6 12 8.8 3.2-2.8 5.9-6.5 8.3-10.8q2 4.5 4.8 8c3.1-2 4.8-3.1 8.2-5.4-0.2 2.8-1.5 5.6-3.3 7.9 5.6-3.4 12.9-5.4 19.6-5.2-3.6 2.7-7 5.4-10.4 8 6.4-1.6 13.3-2.5 19.7-2.2-2.8 1.3-7.3 2.4-8.9 4.9 6.8-1.3 13.8-1.5 19.7-0.1-3.6 0.1-7.7 1.5-11 3.7 4.4 0.1 8.9-0.1 13.5-0.5-2.6 3.1-6.3 5.4-10 6.5 4 0.7 8.8 0 13.3-2-3.3 3.1-5.9 6.7-7.4 10.4 4.9-2.2 10.1-3.5 14.9-3.5-4.6 1.3-8.7 5.2-12.1 8.8 3.4-1.6 7.1-1.5 9.2 0.3-2.9 0.4-9 2.5-9 2.5 0 0 4.9 1.4 6.5 1.2-2 1.5-4.6 3.2-4.6 5.8-0.1 1.2 1.2 2.9 1.7 3.9 0.5 1.1 1.9 5.9 3.2 6-2.1 0-4.1-0.7-5.9-1.8 3 2.6 4.8 6.5 5.9 10.8-2.1-1-4.4-1.7-6.8-1.9 2.7 5.1 4.1 11.4 5.1 17.9z"/><path class="d" d="m292.5 23.5c-2 1.9-3.7 3.9-5.1 6-1.7 1-3.4 2-4.9 3.3q-1.5-0.9-3.3-1.5c-3.5-1.3-7.7-1.8-12-1.5 1.9 1.4 3.3 3.3 4.1 5.5-4.4-3.2-11.6-2.5-18-1.9 3.3-0.1 7.2 0.1 8.3 2.6-0.6-1.4-13 1.3-14.6 1.9-4.1 1.4-8.3 4.6-11.1 7.2-0.5-1.8-0.8-3.6-0.7-5.5-1.4 1.1-2.4 2.5-3.2 4-2.2-1.8-4.1-4.2-5.7-6.8q-0.1 3.1-1.1 6c-2.1-1.8-3.4-3.8-5.9-5.5-7.4-4.8-17.7-3.4-25.1-1.7 3.9-2.4 8.6-4 13.7-4.7-6.2-0.5-12.4 0.1-17.6 1.9 0.6-1.7 1.6-3.2 3.1-4.4-6 0.3-10 1.7-13 5.2-2.1-2.9-5.4-5.3-8.8-6.3 2.6-2 7-2.1 11-0.4-1.2-3.5-4.8-6.9-8.8-8.4 5.1-0.6 11.2 1.1 16.2 4.3-2.8-3.7-5.7-7.4-8.7-11.2q4.9 3.5 9.5 7.1c-3.6-4.2-5.5-9.4-4.4-13.8 0.4 4.2 4.2 8.6 8.9 10.8q-2.1-5.9-4.5-12c4.8 2.5 9.1 5.8 12.7 9.3-0.6-3.2-3.1-6.8-6.8-9 6.3 0.7 12.6 3.7 17.1 7.7 0.4-3.5-1.2-7.6-4.5-10.7 3.8 1.8 7 4.7 8.9 8 0.8-2.1 0.3-4.8-1.2-7 5.2 1.1 9.7 4.6 11.9 8.8 3.2-2.8 5.9-6.5 8.4-10.8q1.9 4.5 4.7 8c3.2-2.1 4.8-3.2 8.2-5.4-0.2 2.8-1.4 5.6-3.3 7.8 5.6-3.4 12.9-5.3 19.7-5.1-3.6 2.7-7.1 5.4-10.4 7.9 6.4-1.6 13.2-2.4 19.6-2.2-2.8 1.3-7.3 2.4-8.9 5 6.8-1.4 13.8-1.5 19.8-0.2-3.7 0.1-7.7 1.5-11.1 3.7 4.4 0.2 9 0 13.5-0.4-2.6 3-6.3 5.4-10 6.5 4.1 0.7 8.9-0.1 13.3-2.1z"/><path class="p" d="m279.8 60.9c-3.7-6.6-10.4-10.5-18.3-10.6 0.9-1.6 2.4-2.7 4.2-3-5.1 0.3-10.4 0.9-15.3 2.5 0.7-1.4 1.6-2.7 2.7-3.9-6.9 2.5-14.2 5.9-19.2 11.5 0.9-1-10.1-7.4-11-7.9-4.9-2.2-10.1-3.6-15.5-3.8 1.2 1.2 2.1 2.6 2.7 4.2-6.8-1.6-14-2.8-19.6 2.5 0.3-0.4 4.5-0.2 5 0-2.8 1.5-5.5 3.6-7 6.3-0.9 1.5-1.6 3.1-2.3 4.7-0.4 1.3-0.7 3.7-1.4 4.6 1.3-1.7 3.2-3 5.2-3.7-1.1 0.3-1.5 1.7-1.7 2.9-0.5 3.8-0.3 8.1 0.9 11.7 3 9.1 9.6 17.5 18.9 20.5 10.1 3.2 19.9-0.9 25.7-9.6 5.9 8.8 15.8 13 25.8 9.7 10.3-3.3 16.6-13.1 19.2-23.1 1.2-4.4 1.6-10.1-1.3-13.8q2 0.9 4 1.8-0.7-1.9-1.7-3.5z"/><path class="q" d="m237.6 75.2c-2.2 9.1-12.5 14.5-23.1 12-10.7-2.4-17.5-11.8-15.4-21 2.1-9.1 11.3-9.8 22-7.3 10.6 2.5 18.6 7.2 16.5 16.3z"/><path class="q" d="m230.2 75.3c2.1 9.1 12.5 14.5 23.1 12 10.6-2.4 17.5-11.8 15.3-21-2.1-9.1-11.3-9.8-21.9-7.3-10.7 2.5-18.6 7.2-16.5 16.3z"/><path class="r" d="m236 25.6c-0.4-0.6-2.7-3.4-2.7-4.2q-0.2 4.6-0.5 9.3c-3-6.1-7.5-10.8-12.6-13.1 1.2 2.6 2.2 5.5 3.1 8.4q1 3.8 1.7 7.8c-0.1-0.5-7.3-2-8.3-2.3-3.1-0.9-6.4-1.3-9.6-1.2 2.1-0.8 4.3-1.1 6.5-1q-7.8-3.3-15.6-6.6 1.2 1.6 2.3 3.2c-9.4-0.6-13.7-7.6-18.9-14.3q2.9 2.1 5.7 4.2c0.9 1 2.1 1.7 3.2 2.5q0.2 0.2 0.5 0.4c-3.6-4.2-5.5-9.4-4.4-13.8 0.4 4.2 4.2 8.6 8.9 10.8q-2.1-5.9-4.5-12.1c4.8 2.6 9.2 5.9 12.7 9.4-0.5-3.3-3.1-6.8-6.8-9 6.3 0.7 12.6 3.7 17.1 7.7 0.4-3.5-1.2-7.6-4.5-10.7 3.8 1.8 7 4.7 8.9 8 0.8-2.1 0.3-4.8-1.2-7 5.2 1.1 9.7 4.6 11.9 8.8 0.4-0.3 0.8-0.7 1.1-1 1.9-1.8 3.5-4 5.1-6.3q0.1 0.6 0.1 1.3c0.3 3.5 0.6 6.9 1 10.5 0.5 3.4 0.8 7-0.2 10.3z"/><path class="r" d="m289.1 19.1c0 0 0 0.1 0 0.1q-2.8 1.2-5.6 2.2-3 1.1-6.1 2-5.7 1.7-11.6 2.6c-1.8 0.3-3.6 0.4-5.3 1-1 0.4-4.2 1.2-5 2.2 0.6-1.4 1.5-2.7 2.5-3.8-1.9-0.3-3.8 0.2-5.6 0.8-3.6 1.2-7.1 2.8-10.3 4.8q2.7-7.7 6.3-15c-2 1-3.9 2.2-5.4 3.8 1.1-1.1 1.9-4.1 2.6-5.6 0.8-1.7 1.8-3.3 2.9-4.7 2.2-1.2 4.5-2.1 6.9-2.8 3.6-1 7.5-1.5 11.1-1.4-3.5 2.7-7 5.3-10.3 7.9 6.4-1.6 13.2-2.5 19.6-2.2-2.8 1.3-7.3 2.4-8.9 5 6.8-1.4 13.8-1.5 19.8-0.2-3.7 0.1-7.7 1.5-11.1 3.7 4.4 0.1 9 0 13.5-0.4z"/><path class="s" d="m224.3 71q0 0.5 0 1-0.1 0.2-0.1 0.3 0 0.3-0.2 0.6 0 0.1 0 0.1-0.1 0.3-0.2 0.6-0.3 0.7-0.7 1.4-0.2 0.3-0.3 0.5-0.1 0-0.1 0.1-0.2 0.2-0.4 0.5-0.3 0.2-0.5 0.4-0.4 0.4-0.8 0.7 0 0-0.1 0c-0.1 0.1-0.2 0.2-0.4 0.3q-0.5 0.3-1.2 0.5-0.2 0.1-0.5 0.2-0.4 0.1-0.8 0.2-0.2 0-0.3 0-0.1 0.1-0.2 0.1-0.1 0-0.2 0-0.1 0-0.2 0-0.2 0-0.5 0-0.3 0-0.7 0-0.2 0-0.5-0.1-0.2 0-0.3 0-0.3-0.1-0.6-0.2-0.1 0-0.1 0-0.3-0.1-0.6-0.2-0.7-0.3-1.4-0.7-0.2-0.2-0.5-0.4 0 0 0 0-0.3-0.2-0.6-0.5-0.2-0.2-0.4-0.4-0.4-0.4-0.6-0.8-0.1 0-0.1-0.1c-0.1-0.1-0.2-0.2-0.2-0.4q-0.4-0.6-0.6-1.2-0.1-0.2-0.2-0.5-0.1-0.4-0.2-0.8 0-0.3 0-0.5-0.1-0.5-0.1-0.9 0-0.4 0-0.7 0.1-0.2 0.1-0.5 0-0.2 0.1-0.3 0-0.1 0-0.1 0-0.3 0.1-0.6 0.1-0.2 0.2-0.4c0.6-1.5 1.7-2.1 3.2-2.2 1.3-0.2 2.9 0 4.6 0.3 1.9 0.3 3.6 0.7 4.9 1.3 1.4 0.7 2.3 1.7 2.3 3.5z"/><path class="t" d="m222.9 70.4c0.3 3.5-2.4 6.5-5.9 6.7-3.5 0.3-6.5-2.4-6.7-5.9q-0.1-0.5 0-1 0-0.2 0-0.3 0.1-0.2 0.1-0.5 0.1-0.3 0.2-0.6 0-0.1 0-0.1 0.1-0.3 0.3-0.6 0 0 0 0 0.1-0.3 0.3-0.6 0.5-0.9 1.3-1.6c1.3-0.1 2.9 0.1 4.6 0.4 1.9 0.3 3.7 0.6 5 1.3q0.2 0.3 0.3 0.6 0.1 0.3 0.3 0.7 0.1 0.4 0.1 0.7 0.1 0.4 0.1 0.8z"/><path class="u" d="m216.6 74.5c-2 0-3.7-1.7-3.7-3.7 0-2 1.7-3.7 3.7-3.7 2 0 3.7 1.7 3.7 3.7 0 2-1.7 3.7-3.7 3.7z"/><path class="s" d="m214.8 70.1c-0.9 0-1.6-0.8-1.6-1.7 0-0.9 0.7-1.7 1.6-1.7 1 0 1.7 0.8 1.7 1.7 0 0.9-0.7 1.7-1.7 1.7z"/><path class="s" d="m259 70.8q0 0.3-0.1 0.5 0 0.4 0 0.7-0.1 0.3-0.2 0.7-0.1 0.3-0.2 0.7-0.2 0.5-0.5 1.1-0.4 0.8-1 1.5-0.2 0.2-0.5 0.4 0 0 0 0.1-0.3 0.2-0.5 0.4-0.3 0.2-0.6 0.4-0.6 0.4-1.3 0.7-1 0.4-2.1 0.5-0.4 0-0.8 0.1-0.2 0-0.5-0.1-0.1 0-0.3 0-0.2 0-0.5-0.1-0.4-0.1-0.8-0.2-0.3 0-0.5-0.1-0.6-0.3-1.2-0.6-0.3-0.1-0.5-0.3-0.4-0.3-0.8-0.6-0.2-0.2-0.5-0.5-0.2-0.2-0.4-0.5 0 0-0.1-0.1-0.1-0.2-0.3-0.5-0.4-0.6-0.7-1.4-0.1-0.2-0.2-0.5-0.2-0.5-0.2-1.1-0.1-0.5-0.1-0.9c0-1.7 0.8-2.7 2.1-3.4q0.1-0.1 0.1-0.1c1.4-0.6 3.1-1 5-1.3 1.7-0.2 3.2-0.4 4.5-0.3h0.1c1.3 0.1 2.2 0.6 2.9 1.6q0.1 0.3 0.2 0.6 0.1 0.2 0.2 0.4 0.2 0.7 0.2 1.4 0.1 0.4 0.1 0.8z"/><path class="t" d="m257.5 70.4c0.3 3.5-2.4 6.5-5.9 6.7-3.5 0.3-6.5-2.4-6.7-5.9q0-0.5 0-1.1 0-0.1 0.1-0.3 0-0.3 0.1-0.7 0.1-0.4 0.3-0.7 0.1-0.4 0.3-0.8 0.1 0 0.1 0c1.4-0.7 3.1-1 5-1.3 1.7-0.3 3.2-0.5 4.5-0.4q0.3 0.3 0.5 0.5 0.2 0.2 0.4 0.4 0.1 0.3 0.3 0.5 0 0 0.1 0.1 0.1 0.2 0.3 0.5 0.1 0.3 0.2 0.5 0 0.1 0 0.1 0.2 0.3 0.2 0.6 0.1 0.3 0.2 0.6 0 0.3 0.1 0.7z"/><path class="u" d="m251.2 74.5c-2 0-3.7-1.7-3.7-3.7 0-2 1.7-3.7 3.7-3.7 2.1 0 3.7 1.7 3.7 3.7 0 2-1.6 3.7-3.7 3.7z"/><path class="s" d="m249.3 70.1c-1 0-1.7-0.8-1.7-1.7 0-0.9 0.7-1.7 1.7-1.7 0.9 0 1.7 0.8 1.7 1.7 0 0.9-0.8 1.7-1.7 1.7z"/><path class="g" d="m278.7 136.7c0 3.9-0.5 7.3-1.3 10.7-0.4 1.5-0.8 3-1.2 4.6q-0.5 1.8-1 3.6-0.1 0.1-0.1 0.2-0.8-0.5-1.7-1.1c-1.3 4-3.3 7.9-5.7 11.4q-0.3-2.2-0.6-4.3c1 7.7-7.9 17.7-13.7 21.3 0.5-1.8 0.7-3.8 0.4-5.6 0 2.1-4.3 5.3-5.5 6.5-1 0.9-6.7 3.9-6.9 4.6 0.5-2.3 0.8-4.6 0.8-7q-4.3 3.6-8.6 7.2-4.7-4.6-9.3-9.3c-0.9 1.1-1.6 2.5-1.7 3.9-3.1-2.1-5.8-4.8-7.9-7.9-1.1 0.5-2.1 1.4-2.7 2.5-6.7-5.6-14-12.1-15.2-20.8-1.3 0.9-1.8 2.9-1 4.3-12-12.2-6.7-34.9 2.5-49.8 2.1-3.3 4.4-6.3 6.8-8.7 8.4-8.4 15.9-17.1 28.9-17.1 11.3 0 20.7 7.1 27.7 15.3 2.6 3 5.1 6.2 7.4 9.4q0.4 0.7 0.8 1.3c5 7.4 8.7 15.7 8.8 24.8z"/><path class="v" d="m278.7 136.7c0 3.9-0.5 7.3-1.3 10.7q-0.6 2.3-1.2 4.6-0.5 1.8-1 3.6-0.1 0.1-0.1 0.2-0.8-0.5-1.7-1.1c-1.3 4-3.3 7.9-5.7 11.4q-0.3-2.2-0.6-4.3c1 7.7-7.9 17.7-13.7 21.3 0.5-1.8 0.7-3.8 0.4-5.6 0 2.1-4.3 5.3-5.5 6.5-1 0.9-6.7 3.9-6.9 4.6 0.5-2.3 0.8-4.6 0.8-7q-4.3 3.6-8.6 7.2-4.7-4.6-9.3-9.3c-0.9 1.1-1.6 2.5-1.7 3.9-3.1-2.1-5.8-4.8-7.9-7.9-1.1 0.5-2.1 1.4-2.7 2.5-6.7-5.6-14-12.1-15.2-20.8-1.3 0.9-1.8 2.9-1 4.3-12-12.2-6.7-34.9 2.5-49.8-5.1 12.6-5.9 27-1.3 39.6q0.4-1.4 0.7-2.9c4.5 7.9 10.4 14.9 17.2 20.8q-0.3-1.6-0.6-3.1c4.1 4.7 9 8.7 14.4 11.8q0-1.8 0.1-3.6 1.9 2.7 3.9 5.3c1.5-2.5 3.7-4.5 6.3-5.8q0.1 1.7 0.2 3.4c0-1.3 16.1-9.6 17.8-11.1q-1.5 2.7-3 5.4c4.1-3.5 7.7-7.6 10.7-12.1 1.4-2.2 2.7-4.6 3.9-7 0.5-1 3.4-5.7 2.8-6.8 0.6 1.1 0.9 2.3 0.9 3.5 3.1-8.4 2.5-18.2 0.2-26.7-1-4-2.1-7.9-3.4-11.8q0.4 0.7 0.8 1.3c5 7.4 8.7 15.7 8.8 24.7z"/><path class="w" d="m267.6 130.6q0 3.1-0.6 6.1c-0.1 0.3-1.5 4.6-1.5 4.6-0.6-0.6-1.1-1.2-1.4-1.9-1.8 6.2-5.4 12-10.3 16.4q0.1-1.4 0.2-2.8c-2 1.1-3.3 3.3-5.2 4.8-0.5 0.4-6.1 3.8-6.2 3.6l-0.3-1.7q-3.1 1.2-6.4 2.2-0.2-0.7-0.4-1.4c-1.1 0.4-2.1 1.1-2.8 2.1-0.2 0.3-0.4 0.6-0.7 0.7-0.3 0.1-0.7 0-1-0.1-1.5-0.7-2.8-1.8-3.8-3.2-0.1-0.2-0.3-0.4-0.5-0.5-0.3-0.1-0.6 0.1-0.8 0.3-1 0.9-1.6 2.1-1.7 3.4-2.8-1.7-5.3-3.9-7.4-6.5-0.4-0.5-1-1.2-1.7-1.3-0.7-0.1-1.5 0.8-1 1.4-2.8-2.5-5-5.6-6.4-9-0.4 0.6-0.6 1.3-0.7 2-4.8-6.7-7.2-14.9-6.9-23.1l-1.7 2c2-17.8 15.1-41.2 35.6-41.2 2.7 0 5.3 0.5 7.8 1.3 7.1 2.4 12.9 7.5 17.3 13.3 5.3 6.9 8.3 15.4 9.5 23.9q-0.8-0.7-1.6-1.5c0.4 2 0.6 4 0.6 6z"/><path class="e" d="m264.4 126.6c0 2.8-0.4 5.6-1.1 8.2q-0.1 0.1-0.1 0.2 0 0 0 0-0.1 0.4-0.2 0.8-0.1 0.2-0.2 0.4-0.1 0.3-0.2 0.6-0.2 0.6-0.5 1.3-0.3 0.7-0.6 1.4-0.4 0.7-0.7 1.4-0.1 0.1-0.1 0.1-0.3 0.6-0.7 1.2-0.1 0.1-0.2 0.3-0.4 0.6-0.8 1.2-0.4 0.6-0.9 1.2-0.5 0.6-0.9 1.2h-0.1c0 0-0.1 0.1-0.1 0.2q-0.5 0.5-1 1.1 0 0-0.1 0-0.3 0.4-0.7 0.8-0.4 0.3-0.8 0.7-0.5 0.5-1.1 0.9-1.1 0.9-2.3 1.7-0.6 0.4-1.3 0.8-0.5 0.3-1.1 0.7-0.2 0.1-0.4 0.1-0.3 0.2-0.6 0.4-0.5 0.2-1.1 0.5-0.1 0.1-0.3 0.1-0.7 0.3-1.4 0.6-0.7 0.2-1.4 0.5-0.1 0-0.1 0-1.5 0.5-3.1 0.8-1.3 0.3-2.7 0.4-1.8 0.3-3.6 0.3-0.6 0-1.2-0.1-0.4 0-0.7 0-0.5 0-0.9-0.1-0.9 0-1.8-0.2-0.2 0-0.5-0.1-0.5 0-1-0.2-0.6-0.1-1.3-0.2-1.5-0.4-3.1-1-0.7-0.2-1.3-0.5-0.7-0.3-1.4-0.6-1-0.5-1.9-1-1-0.6-1.9-1.2-0.6-0.4-1.2-0.8c-7.4-5.5-12.3-14.2-12.3-24.1q0-2.2 0.4-4.6c2.1-16.1 14.8-36 30.1-36 15.3 0 27.9 19.8 30.1 35.8q0.4 2.5 0.4 4.8z"/><path class="x" d="m263.3 128.8q0 0-0.1 0.1 0 0 0 0.1-0.1 0.3-0.2 0.7-0.1 0.2-0.2 0.5 0 0.2-0.2 0.5-0.2 0.7-0.5 1.3-0.3 0.8-0.6 1.5-0.4 0.7-0.7 1.4-0.1 0-0.1 0-0.3 0.6-0.7 1.2-0.1 0.2-0.2 0.3-0.3 0.6-0.8 1.2-0.4 0.7-0.9 1.3-0.4 0.6-0.9 1.1h-0.1c0 0-0.1 0.2-0.1 0.2q-0.5 0.6-1 1.1 0 0-0.1 0.1-0.3 0.3-0.7 0.7-0.4 0.4-0.8 0.7-0.5 0.5-1.1 0.9-1.1 1-2.3 1.8-0.6 0.4-1.3 0.7-0.5 0.4-1.1 0.7-0.2 0.1-0.3 0.2-0.4 0.2-0.7 0.3-0.5 0.3-1.1 0.5-0.1 0.1-0.2 0.1-0.7 0.3-1.5 0.6-0.7 0.3-1.4 0.5-0.1 0-0.1 0-1.5 0.5-3.1 0.8-1.3 0.3-2.7 0.5-1.8 0.2-3.6 0.2-0.6 0-1.2 0-0.4 0-0.7-0.1-0.5 0-0.9 0-0.9-0.1-1.8-0.2-0.2-0.1-0.5-0.1-0.5-0.1-1-0.2-0.6-0.1-1.3-0.3-1.5-0.4-3.1-0.9-0.7-0.3-1.3-0.6-0.7-0.3-1.4-0.6-1-0.4-1.9-1-1-0.5-1.9-1.1-0.6-0.4-1.2-0.9c-6.7-4.9-11.2-12.4-12.1-21q-0.1 1.5-0.1 3c0 9.9 4.8 18.6 12.2 24.1q0.6 0.4 1.2 0.8 0.9 0.6 1.9 1.2 0.9 0.5 1.9 1 0.7 0.3 1.4 0.6 0.7 0.3 1.3 0.5 1.6 0.6 3.1 1 0.7 0.1 1.3 0.2 0.5 0.2 1 0.2 0.3 0.1 0.6 0.1 0.9 0.2 1.7 0.2 0.5 0.1 0.9 0.1 0.3 0 0.7 0 0.6 0.1 1.2 0.1 1.8 0 3.6-0.3 1.4-0.1 2.7-0.4 1.6-0.3 3.1-0.8 0.1 0 0.1 0 0.7-0.3 1.5-0.5 0.7-0.3 1.4-0.6 0.1 0 0.2-0.1 0.6-0.3 1.1-0.5 0.3-0.2 0.7-0.4 0.1 0 0.3-0.1 0.6-0.4 1.2-0.7 0.6-0.4 1.2-0.8 1.2-0.8 2.3-1.7 0.6-0.5 1.1-0.9 0.4-0.4 0.8-0.7 0.4-0.4 0.7-0.8 0.1 0 0.1-0.1 0.5-0.5 1-1 0.1-0.1 0.1-0.2h0.1q0.5-0.6 0.9-1.2 0.5-0.6 1-1.2 0.4-0.6 0.8-1.2 0-0.2 0.1-0.3 0.4-0.6 0.7-1.2 0 0 0.1-0.1 0.4-0.7 0.7-1.4 0.3-0.7 0.6-1.4 0.3-0.6 0.6-1.3 0.1-0.3 0.2-0.6 0-0.2 0.1-0.4 0.1-0.4 0.2-0.8 0 0 0 0 0.1-0.1 0.1-0.2c0.8-2.6 1.2-5.3 1.2-8.2q-0.1-1.5-0.2-3.1-0.3 2.7-1 5.3z"/><path class="e" d="m264.3 125c0 2.8-0.4 5.6-1.2 8.2q0 0.1 0 0.2 0 0 0 0-0.2 0.4-0.3 0.8 0 0.2-0.1 0.4-0.1 0.3-0.2 0.6-0.3 0.6-0.5 1.3-0.3 0.7-0.7 1.4-0.3 0.7-0.7 1.4 0 0 0 0.1-0.4 0.6-0.7 1.2-0.1 0.1-0.2 0.3-0.4 0.6-0.8 1.2-0.5 0.6-0.9 1.2-0.5 0.6-1 1.2c0 0-0.1 0.1-0.2 0.2q-0.5 0.5-1 1 0 0.1 0 0.1-0.4 0.4-0.8 0.8-0.3 0.3-0.7 0.7-0.6 0.4-1.1 0.9-1.2 0.9-2.4 1.7-0.6 0.4-1.2 0.8-0.6 0.3-1.2 0.6-0.1 0.2-0.3 0.2-0.3 0.2-0.7 0.4-0.5 0.2-1.1 0.5-0.1 0-0.2 0.1-0.7 0.3-1.4 0.6-0.8 0.2-1.5 0.5 0 0-0.1 0-1.5 0.5-3 0.8-1.4 0.3-2.8 0.4-1.8 0.2-3.5 0.3-0.6-0.1-1.3-0.1-0.3 0-0.7 0-0.4 0-0.9-0.1-0.8 0-1.7-0.2-0.3 0-0.5-0.1-0.6-0.1-1.1-0.2-0.6-0.1-1.2-0.2-1.6-0.4-3.1-1-0.7-0.2-1.4-0.5-0.7-0.3-1.4-0.6-1-0.5-1.9-1-1-0.6-1.9-1.2-0.6-0.4-1.2-0.8c-7.4-5.5-12.2-14.2-12.2-24.1q0-2.2 0.3-4.6c2.2-16.1 14.8-36 30.1-36 15.3 0 27.9 19.8 30.2 35.8q0.3 2.5 0.3 4.8z"/><path class="x" d="m263.1 127.2q0 0 0 0.1 0 0 0 0.1-0.2 0.4-0.3 0.7 0 0.3-0.1 0.5-0.1 0.2-0.2 0.5-0.3 0.7-0.5 1.3-0.3 0.8-0.7 1.5-0.3 0.7-0.7 1.4 0 0 0 0-0.4 0.6-0.7 1.2-0.1 0.2-0.2 0.3-0.4 0.6-0.8 1.2-0.5 0.7-0.9 1.3-0.5 0.6-1 1.1v0.1c0 0-0.1 0.1-0.2 0.1q-0.5 0.6-1 1.1 0 0 0 0.1-0.4 0.3-0.8 0.7-0.3 0.4-0.7 0.7-0.6 0.5-1.1 1-1.2 0.9-2.4 1.7-0.6 0.4-1.2 0.8-0.6 0.3-1.2 0.6-0.1 0.1-0.3 0.2-0.3 0.2-0.7 0.3-0.5 0.3-1.1 0.5-0.1 0.1-0.2 0.1-0.7 0.3-1.4 0.6-0.8 0.3-1.5 0.5 0 0-0.1 0-1.5 0.5-3 0.9-1.4 0.2-2.8 0.4-1.8 0.2-3.5 0.2-0.6 0-1.3 0-0.3 0-0.7-0.1-0.4 0-0.9 0-0.8-0.1-1.7-0.2-0.3-0.1-0.5-0.1-0.6-0.1-1.1-0.2-0.6-0.1-1.2-0.3-1.6-0.4-3.1-0.9-0.7-0.3-1.4-0.6-0.7-0.3-1.4-0.6-1-0.4-1.9-1-1-0.5-1.9-1.1-0.6-0.4-1.2-0.9c-6.6-4.9-11.2-12.4-12.1-21q-0.1 1.5-0.1 3c0 9.9 4.8 18.6 12.2 24.1q0.6 0.4 1.2 0.8 1 0.6 1.9 1.2 1 0.5 1.9 1 0.7 0.3 1.4 0.6 0.7 0.3 1.4 0.5 1.5 0.6 3.1 1 0.6 0.1 1.2 0.2 0.5 0.2 1.1 0.2 0.2 0.1 0.5 0.1 0.9 0.2 1.8 0.2 0.4 0.1 0.8 0.1 0.4 0 0.7 0 0.7 0.1 1.3 0.1 1.8 0 3.5-0.2 1.4-0.2 2.8-0.5 1.6-0.3 3.1-0.8 0 0 0 0 0.8-0.3 1.5-0.5 0.7-0.3 1.4-0.6 0.1 0 0.2-0.1 0.6-0.3 1.1-0.5 0.4-0.2 0.7-0.4 0.2 0 0.3-0.1 0.6-0.4 1.2-0.7 0.6-0.4 1.2-0.8 1.2-0.8 2.4-1.7 0.5-0.5 1.1-0.9 0.4-0.4 0.7-0.7 0.4-0.4 0.8-0.8 0 0 0.1 0 0.5-0.6 0.9-1.1 0.1-0.1 0.2-0.2 0.5-0.6 1-1.2 0.4-0.6 0.9-1.2 0.4-0.6 0.8-1.2 0.1-0.2 0.2-0.3 0.3-0.6 0.7-1.2 0 0 0-0.1 0.4-0.6 0.7-1.4 0.4-0.7 0.7-1.4 0.2-0.6 0.5-1.3 0.1-0.3 0.2-0.6 0.1-0.2 0.1-0.4 0.1-0.4 0.3-0.8 0 0 0 0 0-0.1 0-0.2c0.8-2.6 1.2-5.3 1.2-8.2q0-1.5-0.2-3.1-0.2 2.7-1 5.3z"/><path class="u" d="m260.6 132.5c-21.3-6.8-32.7-4.9-54-0.7 18.9-6.5 35.5-8.2 54 0.7z"/><path class="u" d="m229.7 100.3c-0.9 1.2-3.6 0.8-5.9-1-2.4-1.8-3.6-4.2-2.7-5.5 1-1.2 3.6-0.8 6 1 2.4 1.8 3.6 4.3 2.6 5.5z"/><path class="u" d="m244.2 99.3c-2.4 1.8-5.1 2.2-6 1-0.9-1.2 0.2-3.7 2.6-5.5 2.4-1.8 5.1-2.2 6-1 1 1.3-0.2 3.7-2.6 5.5z"/></svg>