<svg xmlns="http://www.w3.org/2000/svg" xmlns:xlink="http://www.w3.org/1999/xlink" width="278.908" height="332.071" viewBox="0 0 278.908 332.071">
  <defs>
    <clipPath id="clip-path">
      <rect id="Rectángulo_358" data-name="Rectángulo 358" width="211.839" height="287.024" fill="none"/>
    </clipPath>
  </defs>
  <g id="Grupo_2798" data-name="Grupo 2798" transform="matrix(0.966, 0.259, -0.259, 0.966, 74.287, 0)" opacity="0.5">
    <g id="Grupo_2484" data-name="Grupo 2484" clip-path="url(#clip-path)">
      <path id="Trazado_1366" data-name="Trazado 1366" d="M210.582,171.823c0,.589,0,1.179-.013,1.765q-.057,4.159-.379,8.242a125.489,125.489,0,0,1-1.755,13.263v0a122.711,122.711,0,0,1-4.978,18.459q-1.306,3.681-2.837,7.24a118.9,118.9,0,0,1-5.7,11.5v0c-.277.488-.554.975-.838,1.456a114.377,114.377,0,0,1-13.044,18.08l0,0q-1.913,2.167-3.927,4.223-3.456,3.532-7.2,6.718a104.553,104.553,0,0,1-12.971,9.452,100.79,100.79,0,0,1-10.319,5.574q-4.025,1.888-8.219,3.407a97.535,97.535,0,0,1-11.391,3.355l-.388.086c-1.982.433-4.044.822-6.275,1.185a.011.011,0,0,1-.01,0c-.115.019-.226.041-.334.06a.226.226,0,0,0-.042.006c-.195.032-.388.061-.583.086a.113.113,0,0,1-.029.006c-1.284.191-2.581.354-3.881.488l-.373.038c-.045,0-.093.009-.14.013l-.195.019-.657.06c-.054.006-.108.01-.166.016-.14.013-.287.029-.44.042-.2.015-.4.035-.6.047a.234.234,0,0,0-.051,0q-.75.061-1.5.1c-.149.01-.28.019-.4.025h-.026c-.015,0-.028,0-.045,0-.1.006-.206.013-.312.015l-.2.01c-.261.015-.522.028-.787.038l-.239.009c-.009,0-.019,0-.032,0-.051,0-.106.006-.159.006-.038,0-.076,0-.118.006l-.108,0-.242.01-.252.009c-.038,0-.076,0-.115,0-.064,0-.127,0-.188.006a.123.123,0,0,1-.045,0c-.048,0-.1,0-.144,0l-.844.019c-.051,0-.106,0-.163,0s-.131,0-.2,0h-.035c-.1,0-.195,0-.3,0-.309.006-.555.006-.819.006-.144,0-.294,0-.456,0-.807,0-1.61-.013-2.409-.035-.025,0-.057,0-.086,0-.054,0-.108,0-.163,0a.031.031,0,0,1-.025,0l-.127,0-.267-.01c-.112,0-.223-.009-.331-.013l-.236-.009-.252-.01a.6.6,0,0,0-.07,0l-.437-.019c-.417-.019-.831-.042-1.246-.067-.3-.019-.567-.035-.8-.051l-.159-.009c-.373-.025-.749-.055-1.121-.083l-.229-.019c-.016,0-.032,0-.045-.006a96.929,96.929,0,0,1-17.181-3.022c-.319-.086-.634-.172-.95-.265s-.638-.178-.956-.274l-.065-.019c-.13-.038-.264-.076-.395-.121-.7-.2-1.409-.424-2.107-.654l-.274-.086c-.016,0-.029-.01-.042-.013q-.707-.229-1.408-.472-3.671-1.262-7.222-2.8l-.178-.076a101.865,101.865,0,0,1-12.228-6.364c-.029-.016-.055-.035-.08-.051q-2.429-1.482-4.777-3.1a105,105,0,0,1-8.694-6.689,109.035,109.035,0,0,1-10.217-9.953l0-.006a113.9,113.9,0,0,1-14.009-19.277c-.1-.172-.2-.347-.3-.522,0,0-.006-.006-.006-.01a118.622,118.622,0,0,1-6.951-14.271,120.355,120.355,0,0,1-4.031-11.552v0A122.647,122.647,0,0,1,1.335,190.2c-.086-.583-.169-1.166-.246-1.753v0q-.611-4.6-.882-9.316c-.048-.8-.083-1.6-.112-2.412,0-.025,0-.055,0-.08-.065-1.6-.093-3.2-.093-4.809,0-2.721.086-5.529.258-8.407.312-5.277.905-10.794,1.765-16.47q.214-1.449.458-2.907.733-4.445,1.676-9,1-4.838,2.231-9.765.426-1.73.886-3.467,1.5-5.693,3.289-11.435,1.846-5.927,3.984-11.845,1.873-5.206,3.964-10.355.454-1.113.918-2.224,2.64-6.325,5.584-12.478.98-2.06,2-4.089Q29.043,65.329,31.2,61.4q1.549-2.826,3.162-5.577.583-.989,1.17-1.966l0,0q2.791-4.661,5.765-9.06a146.461,146.461,0,0,1,20.5-24.6A98.341,98.341,0,0,1,69.392,13.7,73.159,73.159,0,0,1,84.931,4.4q1.554-.674,3.13-1.25a.468.468,0,0,1,.057-.019,53.777,53.777,0,0,1,6.406-1.9Q95.911.915,97.306.679c.447-.076.9-.146,1.345-.207.137-.022.271-.041.407-.057a.056.056,0,0,1,.023,0c.131-.016.261-.035.392-.048a.384.384,0,0,1,.064-.009l.169-.019c.073-.01.146-.016.219-.023.048,0,.1-.009.144-.015a.715.715,0,0,0,.08-.006c.1-.013.206-.025.312-.035.223-.025.447-.048.657-.067.089-.006.178-.015.271-.022h.009c.262-.025.526-.045.788-.057L102.32.1l.14-.009.28-.019c.042,0,.08,0,.115-.006l.2-.01.194-.009c.131-.006.275-.01.466-.016.061,0,.121-.006.185-.006a.18.18,0,0,0,.038,0h.127c.051,0,.1,0,.15,0,.032,0,.061,0,.093,0h.022a.109.109,0,0,0,.035,0h.156c.032,0,.061,0,.09,0h0c.223,0,.449-.006.676-.006.06,0,.121,0,.181,0,.383,0,.762.006,1.144.019q.832.019,1.664.076a47.37,47.37,0,0,1,6.173.794c.873.168,1.746.363,2.613.579a61.641,61.641,0,0,1,18.137,8.022q2.778,1.77,5.488,3.825a110.628,110.628,0,0,1,15.8,14.851q2.032,2.295,4.009,4.736,3.036,3.733,5.924,7.776,1.7,2.371,3.35,4.834c3.372,5.045,6.584,10.367,9.615,15.894v0c2.543,4.634,4.959,9.411,7.231,14.29q2.295,4.9,4.394,9.927c.038.1.08.188.118.284a276.878,276.878,0,0,1,13.347,40.528q1.252,5.13,2.259,10.17.143.722.284,1.443a188.746,188.746,0,0,1,3.486,29.418q.072,2.209.07,4.35" transform="translate(0)" fill="#6c33cd"/>
      <path id="Trazado_1367" data-name="Trazado 1367" d="M227.247,177.776l.016.4c.046,2.059.121,4.805.113,6.866-.135,2.855-.211,6.669-.453,9.517-4.764,46.031-27.543,59.462-43.959,40.3-29.388-34.3,6.294-98.05,27.494-96.793C224.411,138.9,226.835,168.671,227.247,177.776Z" transform="translate(-15.538 -12.484)" fill="#f7f4c7"/>
      <path id="Trazado_1368" data-name="Trazado 1368" d="M128.248,312.294c-3.38.41-3.38.41-5.051.548-3.022.214-3.022.214-4.516.267-2.852.071-2.852.071-4.271.06-.763-.014-1.781-.029-2.544-.054-5.054-.73-5.622-6.035,1.252-11.53,15.007-12,54.2-17.121,53.085-6.942-.315,2.875-5.126,7.753-14.946,11.672A104.051,104.051,0,0,1,128.248,312.294Z" transform="translate(-9.768 -26.152)" fill="#f7f4c7"/>
      <path id="Trazado_1369" data-name="Trazado 1369" d="M30.906,148.822l-.1.481C21.757,187.961,4.4,189.394.966,185.28a6.268,6.268,0,0,1-.87-1.4c0-.026,0-.054,0-.079C.028,182.207,0,180.6,0,179q0-4.083.258-8.407c.312-5.278.9-10.795,1.765-16.47q.214-1.449.458-2.907.731-4.446,1.677-9,1-4.837,2.23-9.764c.284-1.154.58-2.307.887-3.467q1.5-5.693,3.288-11.435,1.846-5.927,3.983-11.845,1.875-5.205,3.965-10.355.454-1.113.918-2.225,2.639-6.324,5.584-12.477c1.217-1.7,2.842-2.54,4.528,2.444,2.706,8.012,6.945,38.3,1.364,65.734" transform="translate(0 -7.173)" fill="#f7f4c7"/>
      <path id="Trazado_1370" data-name="Trazado 1370" d="M144.011,64.128l.146.493c14.037,56.052-33.5,72.052-56.952,58.51-43.177-24.938-3.251-97.7,20.768-104.1,9-2.4,29.546,23.312,36.038,45.1" transform="translate(-6.153 -1.707)" fill="#f7f4c7"/>
      <path id="Trazado_1371" data-name="Trazado 1371" d="M123.61,227.841l-.008.277c-2.76,31.806-40.255,36.763-57.8,14.538-17.084-21.647-1.688-48.425,26.15-45.48,15.532,1.643,32.052,13.834,31.655,30.665" transform="translate(-5.303 -17.81)" fill="#f7f4c7"/>
      <path id="Trazado_1372" data-name="Trazado 1372" d="M85.506,305.347l.085.094a34.368,34.368,0,0,1,4.153,5.3,2.353,2.353,0,0,1-.431-.026c-1.959-.45-4.563-1.094-6.506-1.611-5.35-1.648-5.788-1.783-9.189-3.1-2.433-1.038-5.671-2.438-8.057-3.579-15.675-8.08-20.414-15.157-16.791-16.48C53.581,284.187,73.193,291.884,85.506,305.347Z" transform="translate(-4.306 -25.835)" fill="#f7f4c7"/>
      <path id="Trazado_1373" data-name="Trazado 1373" d="M185.653,53.667l.159.236c14.318,22.029,15.649,37.256,7.275,36.154-16.42-2.162-35.984-52.1-31.177-56.772,2.729-2.654,13.929,5.846,23.743,20.382" transform="translate(-14.574 -2.966)" fill="#f7f4c7"/>
    </g>
  </g>
</svg>
