<svg xmlns="http://www.w3.org/2000/svg" xmlns:xlink="http://www.w3.org/1999/xlink" width="57.593" height="70.357" viewBox="0 0 57.593 70.357">
  <defs>
    <clipPath id="clip-path">
      <rect id="Rectángulo_596" data-name="Rectángulo 596" width="45.653" height="62.225" fill="none"/>
    </clipPath>
  </defs>
  <g id="Grupo_2706" data-name="Grupo 2706" transform="matrix(0.978, 0.208, -0.208, 0.978, 12.937, 0)" opacity="0.5">
    <g id="Grupo_2705" data-name="Grupo 2705" clip-path="url(#clip-path)">
      <path id="Trazado_1576" data-name="Trazado 1576" d="M45.653,37.25a27.371,27.371,0,0,1-.466,5.045h0a26.225,26.225,0,0,1-2.929,8.065h0a24.892,24.892,0,0,1-3.01,4.235h0a21.865,21.865,0,0,1-16.421,7.628A21.839,21.839,0,0,1,6.575,54.788h0a24.752,24.752,0,0,1-3.1-4.292v0a25.936,25.936,0,0,1-2.381-5.6h0a26.677,26.677,0,0,1-.853-4.04h0A27.368,27.368,0,0,1,0,37.25a37.3,37.3,0,0,1,.538-6.023c.259-1.566.608-3.183,1.039-4.82a60.5,60.5,0,0,1,2.635-7.774A55.587,55.587,0,0,1,6.764,13.31C10.888,5.791,16.563,0,22.827,0c4.029,0,7.815,2.4,11.1,6.107a35.241,35.241,0,0,1,2.88,3.761c.731,1.094,1.427,2.248,2.085,3.446h0a55.467,55.467,0,0,1,2.546,5.312,52.806,52.806,0,0,1,4.2,17.682q.015.479.015.943" transform="translate(0 0)" fill="#6c33cd"/>
      <path id="Trazado_1577" data-name="Trazado 1577" d="M.853,4.04h0A26.678,26.678,0,0,1,0,0C2.341,3.994,10.005,6.242,16.424,7.456,5.768,7.011,2.108,5.195.853,4.04" transform="translate(0.236 40.853)" fill="#f7f4c7"/>
      <path id="Trazado_1578" data-name="Trazado 1578" d="M14.614,3.76C13.637,5.081,6.317,5.506,0,4.433,8.375,3.9,12.047,1.885,11.734,0a35.237,35.237,0,0,1,2.88,3.76" transform="translate(22.193 6.107)" fill="#f7f4c7"/>
      <path id="Trazado_1579" data-name="Trazado 1579" d="M37.225,5.315c-.669,1.713-4.391,3.293-10.38,4.1-9.288,1.249-20.51.164-25.065-2.424A3.976,3.976,0,0,1,0,5.323,55.54,55.54,0,0,1,2.552,0,3.186,3.186,0,0,0,4.136,1.57C8.055,3.8,17.712,4.73,25.7,3.656,31,2.943,34.242,1.526,34.679,0a55.463,55.463,0,0,1,2.546,5.312" transform="translate(4.212 13.31)" fill="#f7f4c7"/>
      <path id="Trazado_1580" data-name="Trazado 1580" d="M38.787,0a24.9,24.9,0,0,1-3.01,4.235h0C34.333,5.406,31.278,6.421,26.953,7c-8.647,1.163-19.1.153-23.336-2.256q-.28-.159-.513-.319h0A24.751,24.751,0,0,1,0,.133,7.061,7.061,0,0,0,1.049.846c4.938,2.805,17.1,3.982,27.176,2.628C33.568,2.755,37.248,1.468,38.787,0" transform="translate(3.471 50.362)" fill="#f7f4c7"/>
      <path id="Trazado_1581" data-name="Trazado 1581" d="M39.36,5.489C25.555,10.855,3.151,8.779,0,4.82.259,3.253.608,1.637,1.039,0,3.427,6.233,27.576,8.493,39.36,5.489" transform="translate(0.538 26.407)" fill="#f7f4c7"/>
      <path id="Trazado_1582" data-name="Trazado 1582" d="M30.4.943a27.371,27.371,0,0,1-.466,5.045h0C27.424,7.648,14.343,8.724,0,5.073,15.616,6.38,28.121,3.556,30.383,0q.015.479.015.943" transform="translate(15.255 36.307)" fill="#f7f4c7"/>
    </g>
  </g>
</svg>
