<svg xmlns="http://www.w3.org/2000/svg" xmlns:xlink="http://www.w3.org/1999/xlink" width="103.594" height="129.623" viewBox="0 0 103.594 129.623">
  <defs>
    <clipPath id="clip-path">
      <rect id="Rectángulo_360" data-name="Rectángulo 360" width="86.263" height="117.576" fill="none"/>
    </clipPath>
  </defs>
  <g id="Grupo_2702" data-name="Grupo 2702" transform="translate(0 -6.506) rotate(-9)" opacity="0.5">
    <g id="Grupo_2488" data-name="Grupo 2488" transform="translate(-3.129 19.754)" clip-path="url(#clip-path)">
      <path id="Trazado_1381" data-name="Trazado 1381" d="M86.263,70.385a51.717,51.717,0,0,1-.88,9.532h0a49.551,49.551,0,0,1-5.535,15.239v0a47.034,47.034,0,0,1-5.687,8h0a41.314,41.314,0,0,1-31.028,14.413,41.266,41.266,0,0,1-30.709-14.052v0A46.77,46.77,0,0,1,6.559,95.41s0,0,0,0a49.006,49.006,0,0,1-4.5-10.578v0A50.407,50.407,0,0,1,.446,77.193h0A51.711,51.711,0,0,1,0,70.385,70.47,70.47,0,0,1,1.017,59c.488-2.96,1.149-6.014,1.964-9.107A114.318,114.318,0,0,1,7.959,35.208,105.032,105.032,0,0,1,12.781,25.15C20.573,10.942,31.3,0,43.132,0,50.746,0,57.9,4.527,64.106,11.539a66.589,66.589,0,0,1,5.441,7.106c1.381,2.067,2.7,4.247,3.939,6.511h0A104.805,104.805,0,0,1,78.3,35.193c4.729,11.338,7.62,23.517,7.937,33.41q.029.9.029,1.782" transform="translate(0 0)" fill="#6c33cd"/>
      <path id="Trazado_1382" data-name="Trazado 1382" d="M84.208,10.318c.193,1.877.193,1.877.317,3.716l.049,1.345a42.782,42.782,0,0,1-1.192,11.194l-.239-.917C81.838,20.344,79.854,13.545,72.774,0c-.022,9.563-.78,16.756-4.719,27.355-4.5-6.51-9.194-12.885-13.507-19.525a112.334,112.334,0,0,1-5.214,10.161l-1.546,2.573-1.58,2.508c-.568.87-1.75,2.681-3.514,5.15l-.333-.365A108.368,108.368,0,0,1,31.691,1.5l-.428.87c-4.825,9.657-8.616,16.453-13.414,25.057l-.706-1.353a63.5,63.5,0,0,1-6.058-18.3c-1.042,1.747-2.418,4.086-3.43,5.851-1.647,2.944-2,3.668-3.324,6.364l-.891,1.987-.763,1.913-.63,1.835-.272.919A41.786,41.786,0,0,1,.474,14l.081-1.356c.1-1.211.13-1.517.281-2.729-.3,1.917-.352,2.372-.56,4.285L.155,15.6A51.943,51.943,0,0,0,2.77,36.669c.151-.872.352-2.037.578-2.893l.621-1.816.8-1.883.972-1.784L6.85,26.727l1.22-1.664.325-.438A72.935,72.935,0,0,0,21.686,55.519c.481-9.548,7.149-22.739,7.789-23.5.254.116.254.116,3.781,5.5.958,1.488,2.246,3.465,3.234,4.932,1.922,2.746,3.191,4.561,6.112,8.434,2.645-3.483,4.015-5.3,6.23-8.428,1.014-1.473,2.355-3.442,3.34-4.934,2.321-3.584,2.321-3.584,3.762-5.7.776.888,7.721,12.322,9.211,20.99A69.445,69.445,0,0,0,77.4,24.418l.31.449,1.125,1.674A20.265,20.265,0,0,1,80.7,29.928l.691,1.912.513,1.848c.152.882.359,2.059.437,2.951.379-1.281.907-2.985,1.229-4.281a53.867,53.867,0,0,0,1.142-18.119l-.155-1.416c-.1-.778-.182-1.449-.348-2.505" transform="translate(0.632 46.764)" fill="#f7f4c7"/>
    </g>
  </g>
</svg>
