<svg xmlns="http://www.w3.org/2000/svg" xmlns:xlink="http://www.w3.org/1999/xlink" width="24.554" height="24.554" viewBox="0 0 24.554 24.554">
  <defs>
    <clipPath id="clip-path">
      <rect id="Rectángulo_392" data-name="Rectángulo 392" width="24.554" height="24.554" fill="none"/>
    </clipPath>
    <clipPath id="clip-path-3">
      <rect id="Rectángulo_388" data-name="Rectángulo 388" width="18.639" height="8.096" fill="none"/>
    </clipPath>
    <clipPath id="clip-path-4">
      <rect id="Rectángulo_389" data-name="Rectángulo 389" width="18.704" height="11.685" fill="none"/>
    </clipPath>
    <clipPath id="clip-path-5">
      <rect id="Rectángulo_390" data-name="Rectángulo 390" width="5.98" height="4.371" fill="none"/>
    </clipPath>
  </defs>
  <g id="Grupo_2549" data-name="Grupo 2549" clip-path="url(#clip-path)">
    <g id="Grupo_2548" data-name="Grupo 2548" transform="translate(0 0)">
      <g id="Grupo_2547" data-name="Grupo 2547" clip-path="url(#clip-path)">
        <path id="Trazado_1419" data-name="Trazado 1419" d="M24.554,12.277A12.277,12.277,0,1,1,12.277,0,12.277,12.277,0,0,1,24.554,12.277" transform="translate(0 0)" fill="#adadad"/>
        <path id="Trazado_1420" data-name="Trazado 1420" d="M25.559,13.988A11.571,11.571,0,1,1,13.988,2.417,11.571,11.571,0,0,1,25.559,13.988" transform="translate(-1.711 -1.711)" fill="#7c7c7c"/>
        <path id="Trazado_1421" data-name="Trazado 1421" d="M26.268,15.194A11.073,11.073,0,1,1,15.195,4.121,11.073,11.073,0,0,1,26.268,15.194" transform="translate(-2.918 -2.917)" fill="#555"/>
        <g id="Grupo_2540" data-name="Grupo 2540" transform="translate(4.301 1.201)" style="mix-blend-mode: soft-light;isolation: isolate">
          <g id="Grupo_2539" data-name="Grupo 2539">
            <g id="Grupo_2538" data-name="Grupo 2538" clip-path="url(#clip-path-3)">
              <path id="Trazado_1422" data-name="Trazado 1422" d="M22.031,5.319A12.3,12.3,0,0,1,33.36,12.208a11.069,11.069,0,0,0-18.639-4.7,13.046,13.046,0,0,1,7.31-2.192" transform="translate(-14.721 -4.112)" fill="#adadad"/>
            </g>
          </g>
        </g>
        <g id="Grupo_2543" data-name="Grupo 2543" transform="translate(4.647 11.666)" style="mix-blend-mode: multiply;isolation: isolate">
          <g id="Grupo_2542" data-name="Grupo 2542">
            <g id="Grupo_2541" data-name="Grupo 2541" clip-path="url(#clip-path-4)">
              <path id="Trazado_1423" data-name="Trazado 1423" d="M22.566,50.411A12.742,12.742,0,0,1,15.9,48.561a11.07,11.07,0,0,0,18.7-8.02q0-.308-.018-.611C34.256,45.77,29,50.411,22.566,50.411" transform="translate(-15.904 -39.93)" fill="#adadad"/>
            </g>
          </g>
        </g>
        <g id="Grupo_2546" data-name="Grupo 2546" transform="translate(3.439 3.625)" style="mix-blend-mode: soft-light;isolation: isolate">
          <g id="Grupo_2545" data-name="Grupo 2545">
            <g id="Grupo_2544" data-name="Grupo 2544" clip-path="url(#clip-path-5)">
              <path id="Trazado_1424" data-name="Trazado 1424" d="M11.769,16.778a4.652,4.652,0,0,1,3.37-2.161c.749-.126,1.874-.037,2.408-.714a.874.874,0,0,0-.115-1.231c-.019-.016-.039-.031-.06-.046A2.092,2.092,0,0,0,15.83,12.5a4.91,4.91,0,0,0-2.415,1.231,5.191,5.191,0,0,0-1.1,1.375,4.812,4.812,0,0,0-.354.823,5.764,5.764,0,0,1-.192.848" transform="translate(-11.769 -12.407)" fill="#d9d9d9"/>
            </g>
          </g>
        </g>
      </g>
    </g>
  </g>
</svg>
