<?xml version="1.0" encoding="UTF-8"?><svg xmlns="http://www.w3.org/2000/svg" viewBox="0 0 70.4 70.4"><defs><style>.cls-1{isolation:isolate;}.cls-2,.cls-3{mix-blend-mode:multiply;}.cls-2,.cls-4{fill:#eee278;}.cls-5,.cls-6{mix-blend-mode:soft-light;}.cls-3,.cls-7{fill:#f7ec41;}.cls-8{fill:#d9d9d9;}.cls-6{fill:#bd97fb;}</style></defs><g class="cls-1"><g id="Capa_2"><g id="fondo"><g><rect class="cls-4" width="70.4" height="70.4" rx="11.95" ry="11.95"/><rect class="cls-2" x="2.76" y="2.76" width="64.88" height="64.88" rx="11.95" ry="11.95"/><rect class="cls-7" x="4.64" y="4.64" width="61.12" height="61.12" rx="11.95" ry="11.95"/><path class="cls-6" d="m11.36,7.58h42.97c5.35,0,9.88,3.52,11.4,8.37-.33-6.3-5.53-11.31-11.92-11.31H16.59c-3.22,0-6.14,1.28-8.29,3.36.98-.26,2-.41,3.06-.41Z"/><path class="cls-3" d="m11.36,62.81h42.97c5.35,0,9.88-3.52,11.4-8.37-.33,6.3-5.53,11.31-11.92,11.31H16.59c-3.22,0-6.14-1.28-8.29-3.36.98.26,2,.41,3.06.41Z"/><g id="Grupo_2516" class="cls-5"><path id="Trazado_1412" class="cls-8" d="m7.34,20.63c.99-2.75,3.18-4.91,5.95-5.88,1.48-.58,3.81-.89,4.61-2.5.47-.89.12-2-.77-2.46-.05-.02-.09-.05-.14-.07-1.08-.28-2.23-.13-3.21.41-1.77.75-3.3,1.99-4.4,3.56-.73.99-1.29,2.1-1.65,3.29-.18.6-.3,1.21-.37,1.84.04.6.03,1.21-.02,1.81"/></g></g><g><path d="m55.52,23.44H14.88c-1.63,0-2.95-1.32-2.95-2.95s1.32-2.95,2.95-2.95h40.64c1.63,0,2.95,1.32,2.95,2.95s-1.32,2.95-2.95,2.95Z"/><path d="m55.52,38.74H14.88c-1.63,0-2.95-1.32-2.95-2.95s1.32-2.95,2.95-2.95h40.64c1.63,0,2.95,1.32,2.95,2.95s-1.32,2.95-2.95,2.95Z"/><path d="m55.52,54.03H14.88c-1.63,0-2.95-1.32-2.95-2.95s1.32-2.95,2.95-2.95h40.64c1.63,0,2.95,1.32,2.95,2.95s-1.32,2.95-2.95,2.95Z"/></g></g></g></g></svg>